<?xml version="1.0" encoding="utf-8" standalone="no"?>
<!DOCTYPE svg PUBLIC "-//W3C//DTD SVG 1.1//EN"
  "http://www.w3.org/Graphics/SVG/1.1/DTD/svg11.dtd">
<svg height="1140" width="1000" version="1.1" viewBox="0 0 1000 1140" xmlns="http://www.w3.org/2000/svg" xmlns:xlink="http://www.w3.org/1999/xlink">
<line x1="88" y1="11" x2="911" y2="11" stroke="black" stroke-width="1" />
<rect x="88" y="9" width="343" height="5" style="fill:#f50002;stroke:black;stroke-width:1;fill-opacity:1;stroke-opacity:0.3" />
<rect x="432" y="9" width="400" height="5" style="fill:#53a1b5;stroke:black;stroke-width:1;fill-opacity:1;stroke-opacity:0.3" />
<rect x="833" y="9" width="77" height="5" style="fill:#f50002;stroke:black;stroke-width:1;fill-opacity:1;stroke-opacity:0.3" />
<text x="88"  y="23" style="font-family:Arial;font-size:10;stroke:black;fill:black;">Cre08.g369500.t1.2.v5.5 (-) chromosome_8:2170690-2171625</text>
<line x1="139" y1="30" x2="175" y2="32" stroke="black" stroke-width="1" />
<line x1="175" y1="32" x2="212" y2="30" stroke="black" stroke-width="1" />
<rect x="51" y="28" width="88" height="5" style="fill:#f5b024;stroke:black;stroke-width:1;fill-opacity:1;stroke-opacity:0.3" />
<rect x="212" y="28" width="88" height="5" style="fill:#f5b024;stroke:black;stroke-width:1;fill-opacity:1;stroke-opacity:0.3" />
<line x1="171" y1="37" x2="181" y2="39" stroke="black" stroke-width="1" />
<line x1="181" y1="39" x2="192" y2="37" stroke="black" stroke-width="1" />
<rect x="83" y="35" width="88" height="5" style="fill:#f5b024;stroke:black;stroke-width:1;fill-opacity:1;stroke-opacity:0.3" />
<rect x="192" y="35" width="88" height="5" style="fill:#f5b024;stroke:black;stroke-width:1;fill-opacity:1;stroke-opacity:0.3" />
<line x1="171" y1="44" x2="176" y2="46" stroke="black" stroke-width="1" />
<line x1="176" y1="46" x2="181" y2="44" stroke="black" stroke-width="1" />
<rect x="83" y="42" width="88" height="5" style="fill:#5d3c2d;stroke:black;stroke-width:1;fill-opacity:1;stroke-opacity:0.3" />
<rect x="181" y="42" width="87" height="5" style="fill:#5d3c2d;stroke:black;stroke-width:1;fill-opacity:1;stroke-opacity:0.3" />
<line x1="171" y1="51" x2="181" y2="53" stroke="black" stroke-width="1" />
<line x1="181" y1="53" x2="192" y2="51" stroke="black" stroke-width="1" />
<rect x="83" y="49" width="88" height="5" style="fill:#f5b024;stroke:black;stroke-width:1;fill-opacity:1;stroke-opacity:0.3" />
<rect x="192" y="49" width="88" height="5" style="fill:#f5b024;stroke:black;stroke-width:1;fill-opacity:1;stroke-opacity:0.3" />
<line x1="171" y1="58" x2="176" y2="60" stroke="black" stroke-width="1" />
<line x1="176" y1="60" x2="181" y2="58" stroke="black" stroke-width="1" />
<rect x="83" y="56" width="88" height="5" style="fill:#f5b024;stroke:black;stroke-width:1;fill-opacity:1;stroke-opacity:0.3" />
<rect x="181" y="56" width="87" height="5" style="fill:#f5b024;stroke:black;stroke-width:1;fill-opacity:1;stroke-opacity:0.3" />
<line x1="171" y1="65" x2="188" y2="67" stroke="black" stroke-width="1" />
<line x1="188" y1="67" x2="205" y2="65" stroke="black" stroke-width="1" />
<rect x="83" y="63" width="88" height="5" style="fill:#f5b024;stroke:black;stroke-width:1;fill-opacity:1;stroke-opacity:0.3" />
<rect x="205" y="63" width="88" height="5" style="fill:#f5b024;stroke:black;stroke-width:1;fill-opacity:1;stroke-opacity:0.3" />
<line x1="172" y1="72" x2="180" y2="74" stroke="black" stroke-width="1" />
<line x1="180" y1="74" x2="188" y2="72" stroke="black" stroke-width="1" />
<rect x="84" y="70" width="88" height="5" style="fill:#f5b024;stroke:black;stroke-width:1;fill-opacity:1;stroke-opacity:0.3" />
<rect x="188" y="70" width="88" height="5" style="fill:#f5b024;stroke:black;stroke-width:1;fill-opacity:1;stroke-opacity:0.3" />
<line x1="172" y1="79" x2="188" y2="81" stroke="black" stroke-width="1" />
<line x1="188" y1="81" x2="204" y2="79" stroke="black" stroke-width="1" />
<rect x="84" y="77" width="88" height="5" style="fill:#f5b024;stroke:black;stroke-width:1;fill-opacity:1;stroke-opacity:0.3" />
<rect x="204" y="77" width="88" height="5" style="fill:#f5b024;stroke:black;stroke-width:1;fill-opacity:1;stroke-opacity:0.3" />
<line x1="173" y1="86" x2="179" y2="88" stroke="black" stroke-width="1" />
<line x1="179" y1="88" x2="186" y2="86" stroke="black" stroke-width="1" />
<rect x="85" y="84" width="88" height="5" style="fill:#f5b024;stroke:black;stroke-width:1;fill-opacity:1;stroke-opacity:0.3" />
<rect x="186" y="84" width="88" height="5" style="fill:#f5b024;stroke:black;stroke-width:1;fill-opacity:1;stroke-opacity:0.3" />
<line x1="173" y1="93" x2="181" y2="95" stroke="black" stroke-width="1" />
<line x1="181" y1="95" x2="190" y2="93" stroke="black" stroke-width="1" />
<rect x="85" y="91" width="88" height="5" style="fill:#f5b024;stroke:black;stroke-width:1;fill-opacity:1;stroke-opacity:0.3" />
<rect x="190" y="91" width="88" height="5" style="fill:#f5b024;stroke:black;stroke-width:1;fill-opacity:1;stroke-opacity:0.3" />
<line x1="223" y1="100" x2="236" y2="102" stroke="black" stroke-width="1" />
<line x1="236" y1="102" x2="250" y2="100" stroke="black" stroke-width="1" />
<rect x="91" y="98" width="132" height="5" style="fill:#f5b024;stroke:black;stroke-width:1;fill-opacity:1;stroke-opacity:0.3" />
<rect x="250" y="98" width="132" height="5" style="fill:#f5b024;stroke:black;stroke-width:1;fill-opacity:1;stroke-opacity:0.3" />
<line x1="179" y1="107" x2="191" y2="109" stroke="black" stroke-width="1" />
<line x1="191" y1="109" x2="204" y2="107" stroke="black" stroke-width="1" />
<rect x="91" y="105" width="88" height="5" style="fill:#f5b024;stroke:black;stroke-width:1;fill-opacity:1;stroke-opacity:0.3" />
<rect x="204" y="105" width="88" height="5" style="fill:#f5b024;stroke:black;stroke-width:1;fill-opacity:1;stroke-opacity:0.3" />
<line x1="181" y1="114" x2="203" y2="116" stroke="black" stroke-width="1" />
<line x1="203" y1="116" x2="225" y2="114" stroke="black" stroke-width="1" />
<rect x="94" y="112" width="87" height="5" style="fill:#f5b024;stroke:black;stroke-width:1;fill-opacity:1;stroke-opacity:0.3" />
<rect x="225" y="112" width="88" height="5" style="fill:#f5b024;stroke:black;stroke-width:1;fill-opacity:1;stroke-opacity:0.3" />
<line x1="183" y1="121" x2="207" y2="123" stroke="black" stroke-width="1" />
<line x1="207" y1="123" x2="231" y2="121" stroke="black" stroke-width="1" />
<rect x="95" y="119" width="88" height="5" style="fill:#f5b024;stroke:black;stroke-width:1;fill-opacity:1;stroke-opacity:0.3" />
<rect x="231" y="119" width="88" height="5" style="fill:#f5b024;stroke:black;stroke-width:1;fill-opacity:1;stroke-opacity:0.3" />
<line x1="183" y1="128" x2="194" y2="130" stroke="black" stroke-width="1" />
<line x1="194" y1="130" x2="205" y2="128" stroke="black" stroke-width="1" />
<rect x="95" y="126" width="88" height="5" style="fill:#f5b024;stroke:black;stroke-width:1;fill-opacity:1;stroke-opacity:0.3" />
<rect x="205" y="126" width="88" height="5" style="fill:#f5b024;stroke:black;stroke-width:1;fill-opacity:1;stroke-opacity:0.3" />
<line x1="183" y1="135" x2="197" y2="137" stroke="black" stroke-width="1" />
<line x1="197" y1="137" x2="212" y2="135" stroke="black" stroke-width="1" />
<rect x="95" y="133" width="88" height="5" style="fill:#5d3c2d;stroke:black;stroke-width:1;fill-opacity:1;stroke-opacity:0.3" />
<rect x="212" y="133" width="88" height="5" style="fill:#5d3c2d;stroke:black;stroke-width:1;fill-opacity:1;stroke-opacity:0.3" />
<line x1="194" y1="142" x2="202" y2="144" stroke="black" stroke-width="1" />
<line x1="202" y1="144" x2="211" y2="142" stroke="black" stroke-width="1" />
<rect x="106" y="140" width="88" height="5" style="fill:#f5b024;stroke:black;stroke-width:1;fill-opacity:1;stroke-opacity:0.3" />
<rect x="211" y="140" width="88" height="5" style="fill:#f5b024;stroke:black;stroke-width:1;fill-opacity:1;stroke-opacity:0.3" />
<line x1="194" y1="149" x2="203" y2="151" stroke="black" stroke-width="1" />
<line x1="203" y1="151" x2="213" y2="149" stroke="black" stroke-width="1" />
<rect x="106" y="147" width="88" height="5" style="fill:#f5b024;stroke:black;stroke-width:1;fill-opacity:1;stroke-opacity:0.3" />
<rect x="213" y="147" width="88" height="5" style="fill:#f5b024;stroke:black;stroke-width:1;fill-opacity:1;stroke-opacity:0.3" />
<line x1="194" y1="156" x2="203" y2="158" stroke="black" stroke-width="1" />
<line x1="203" y1="158" x2="212" y2="156" stroke="black" stroke-width="1" />
<rect x="106" y="154" width="88" height="5" style="fill:#f5b024;stroke:black;stroke-width:1;fill-opacity:1;stroke-opacity:0.3" />
<rect x="212" y="154" width="88" height="5" style="fill:#f5b024;stroke:black;stroke-width:1;fill-opacity:1;stroke-opacity:0.3" />
<line x1="195" y1="163" x2="233" y2="165" stroke="black" stroke-width="1" />
<line x1="233" y1="165" x2="271" y2="163" stroke="black" stroke-width="1" />
<rect x="107" y="161" width="88" height="5" style="fill:#f5b024;stroke:black;stroke-width:1;fill-opacity:1;stroke-opacity:0.3" />
<rect x="271" y="161" width="88" height="5" style="fill:#f5b024;stroke:black;stroke-width:1;fill-opacity:1;stroke-opacity:0.3" />
<line x1="411" y1="44" x2="418" y2="46" stroke="black" stroke-width="1" />
<line x1="418" y1="46" x2="425" y2="44" stroke="black" stroke-width="1" />
<rect x="279" y="42" width="132" height="5" style="fill:#f5b024;stroke:black;stroke-width:1;fill-opacity:1;stroke-opacity:0.3" />
<rect x="425" y="42" width="132" height="5" style="fill:#f5b024;stroke:black;stroke-width:1;fill-opacity:1;stroke-opacity:0.3" />
<line x1="368" y1="37" x2="382" y2="39" stroke="black" stroke-width="1" />
<line x1="382" y1="39" x2="397" y2="37" stroke="black" stroke-width="1" />
<rect x="280" y="35" width="88" height="5" style="fill:#f5b024;stroke:black;stroke-width:1;fill-opacity:1;stroke-opacity:0.3" />
<rect x="397" y="35" width="88" height="5" style="fill:#f5b024;stroke:black;stroke-width:1;fill-opacity:1;stroke-opacity:0.3" />
<line x1="369" y1="51" x2="375" y2="53" stroke="black" stroke-width="1" />
<line x1="375" y1="53" x2="382" y2="51" stroke="black" stroke-width="1" />
<rect x="281" y="49" width="88" height="5" style="fill:#f5b024;stroke:black;stroke-width:1;fill-opacity:1;stroke-opacity:0.3" />
<rect x="382" y="49" width="88" height="5" style="fill:#f5b024;stroke:black;stroke-width:1;fill-opacity:1;stroke-opacity:0.3" />
<line x1="368" y1="58" x2="373" y2="60" stroke="black" stroke-width="1" />
<line x1="373" y1="60" x2="378" y2="58" stroke="black" stroke-width="1" />
<rect x="282" y="56" width="86" height="5" style="fill:#f5b024;stroke:black;stroke-width:1;fill-opacity:1;stroke-opacity:0.3" />
<rect x="378" y="56" width="77" height="5" style="fill:#f5b024;stroke:black;stroke-width:1;fill-opacity:1;stroke-opacity:0.3" />
<line x1="415" y1="72" x2="429" y2="74" stroke="black" stroke-width="1" />
<line x1="429" y1="74" x2="443" y2="72" stroke="black" stroke-width="1" />
<rect x="283" y="70" width="132" height="5" style="fill:#5d3c2d;stroke:black;stroke-width:1;fill-opacity:1;stroke-opacity:0.3" />
<rect x="443" y="70" width="127" height="5" style="fill:#5d3c2d;stroke:black;stroke-width:1;fill-opacity:1;stroke-opacity:0.3" />
<line x1="384" y1="65" x2="416" y2="67" stroke="black" stroke-width="1" />
<line x1="416" y1="67" x2="448" y2="65" stroke="black" stroke-width="1" />
<rect x="296" y="63" width="88" height="5" style="fill:#f5b024;stroke:black;stroke-width:1;fill-opacity:1;stroke-opacity:0.3" />
<rect x="448" y="63" width="88" height="5" style="fill:#f5b024;stroke:black;stroke-width:1;fill-opacity:1;stroke-opacity:0.3" />
<line x1="428" y1="79" x2="449" y2="81" stroke="black" stroke-width="1" />
<line x1="449" y1="81" x2="471" y2="79" stroke="black" stroke-width="1" />
<rect x="296" y="77" width="132" height="5" style="fill:#f5b024;stroke:black;stroke-width:1;fill-opacity:1;stroke-opacity:0.3" />
<rect x="471" y="77" width="132" height="5" style="fill:#f5b024;stroke:black;stroke-width:1;fill-opacity:1;stroke-opacity:0.3" />
<line x1="384" y1="86" x2="408" y2="88" stroke="black" stroke-width="1" />
<line x1="408" y1="88" x2="432" y2="86" stroke="black" stroke-width="1" />
<rect x="296" y="84" width="88" height="5" style="fill:#f5b024;stroke:black;stroke-width:1;fill-opacity:1;stroke-opacity:0.3" />
<rect x="432" y="84" width="88" height="5" style="fill:#f5b024;stroke:black;stroke-width:1;fill-opacity:1;stroke-opacity:0.3" />
<line x1="384" y1="93" x2="394" y2="95" stroke="black" stroke-width="1" />
<line x1="394" y1="95" x2="404" y2="93" stroke="black" stroke-width="1" />
<rect x="296" y="91" width="88" height="5" style="fill:#f5b024;stroke:black;stroke-width:1;fill-opacity:1;stroke-opacity:0.3" />
<rect x="404" y="91" width="88" height="5" style="fill:#f5b024;stroke:black;stroke-width:1;fill-opacity:1;stroke-opacity:0.3" />
<line x1="384" y1="107" x2="391" y2="109" stroke="black" stroke-width="1" />
<line x1="391" y1="109" x2="398" y2="107" stroke="black" stroke-width="1" />
<rect x="296" y="105" width="88" height="5" style="fill:#f5b024;stroke:black;stroke-width:1;fill-opacity:1;stroke-opacity:0.3" />
<rect x="398" y="105" width="88" height="5" style="fill:#f5b024;stroke:black;stroke-width:1;fill-opacity:1;stroke-opacity:0.3" />
<line x1="384" y1="128" x2="396" y2="130" stroke="black" stroke-width="1" />
<line x1="396" y1="130" x2="409" y2="128" stroke="black" stroke-width="1" />
<rect x="296" y="126" width="88" height="5" style="fill:#f5b024;stroke:black;stroke-width:1;fill-opacity:1;stroke-opacity:0.3" />
<rect x="409" y="126" width="87" height="5" style="fill:#f5b024;stroke:black;stroke-width:1;fill-opacity:1;stroke-opacity:0.3" />
<line x1="384" y1="142" x2="408" y2="144" stroke="black" stroke-width="1" />
<line x1="408" y1="144" x2="433" y2="142" stroke="black" stroke-width="1" />
<rect x="299" y="140" width="85" height="5" style="fill:#f5b024;stroke:black;stroke-width:1;fill-opacity:1;stroke-opacity:0.3" />
<rect x="433" y="140" width="88" height="5" style="fill:#f5b024;stroke:black;stroke-width:1;fill-opacity:1;stroke-opacity:0.3" />
<line x1="389" y1="30" x2="395" y2="32" stroke="black" stroke-width="1" />
<line x1="395" y1="32" x2="402" y2="30" stroke="black" stroke-width="1" />
<rect x="301" y="28" width="88" height="5" style="fill:#f5b024;stroke:black;stroke-width:1;fill-opacity:1;stroke-opacity:0.3" />
<rect x="402" y="28" width="88" height="5" style="fill:#f5b024;stroke:black;stroke-width:1;fill-opacity:1;stroke-opacity:0.3" />
<line x1="389" y1="135" x2="404" y2="137" stroke="black" stroke-width="1" />
<line x1="404" y1="137" x2="420" y2="135" stroke="black" stroke-width="1" />
<rect x="301" y="133" width="88" height="5" style="fill:#f5b024;stroke:black;stroke-width:1;fill-opacity:1;stroke-opacity:0.3" />
<rect x="420" y="133" width="78" height="5" style="fill:#f5b024;stroke:black;stroke-width:1;fill-opacity:1;stroke-opacity:0.3" />
<line x1="433" y1="149" x2="441" y2="151" stroke="black" stroke-width="1" />
<line x1="441" y1="151" x2="449" y2="149" stroke="black" stroke-width="1" />
<rect x="301" y="147" width="132" height="5" style="fill:#f5b024;stroke:black;stroke-width:1;fill-opacity:1;stroke-opacity:0.3" />
<rect x="449" y="147" width="130" height="5" style="fill:#f5b024;stroke:black;stroke-width:1;fill-opacity:1;stroke-opacity:0.3" />
<line x1="385" y1="156" x2="393" y2="158" stroke="black" stroke-width="1" />
<line x1="393" y1="158" x2="402" y2="156" stroke="black" stroke-width="1" />
<rect x="303" y="154" width="81" height="5" style="fill:#f5b024;stroke:black;stroke-width:1;fill-opacity:1;stroke-opacity:0.3" />
<rect x="402" y="154" width="88" height="5" style="fill:#f5b024;stroke:black;stroke-width:1;fill-opacity:1;stroke-opacity:0.3" />
<line x1="448" y1="114" x2="470" y2="116" stroke="black" stroke-width="1" />
<line x1="470" y1="116" x2="493" y2="114" stroke="black" stroke-width="1" />
<rect x="316" y="112" width="132" height="5" style="fill:#f5b024;stroke:black;stroke-width:1;fill-opacity:1;stroke-opacity:0.3" />
<rect x="493" y="112" width="132" height="5" style="fill:#f5b024;stroke:black;stroke-width:1;fill-opacity:1;stroke-opacity:0.3" />
<line x1="415" y1="121" x2="455" y2="123" stroke="black" stroke-width="1" />
<line x1="455" y1="123" x2="496" y2="121" stroke="black" stroke-width="1" />
<rect x="327" y="119" width="88" height="5" style="fill:#f5b024;stroke:black;stroke-width:1;fill-opacity:1;stroke-opacity:0.3" />
<rect x="496" y="119" width="88" height="5" style="fill:#f5b024;stroke:black;stroke-width:1;fill-opacity:1;stroke-opacity:0.3" />
<line x1="452" y1="163" x2="460" y2="165" stroke="black" stroke-width="1" />
<line x1="460" y1="165" x2="468" y2="163" stroke="black" stroke-width="1" />
<rect x="364" y="161" width="88" height="5" style="fill:#f5b024;stroke:black;stroke-width:1;fill-opacity:1;stroke-opacity:0.3" />
<rect x="468" y="161" width="88" height="5" style="fill:#f5b024;stroke:black;stroke-width:1;fill-opacity:1;stroke-opacity:0.3" />
<line x1="474" y1="100" x2="504" y2="102" stroke="black" stroke-width="1" />
<line x1="504" y1="102" x2="535" y2="100" stroke="black" stroke-width="1" />
<rect x="386" y="98" width="88" height="5" style="fill:#5d3c2d;stroke:black;stroke-width:1;fill-opacity:1;stroke-opacity:0.3" />
<rect x="535" y="98" width="71" height="5" style="fill:#5d3c2d;stroke:black;stroke-width:1;fill-opacity:1;stroke-opacity:0.3" />
<line x1="544" y1="58" x2="566" y2="60" stroke="black" stroke-width="1" />
<line x1="566" y1="60" x2="589" y2="58" stroke="black" stroke-width="1" />
<rect x="455" y="56" width="88" height="5" style="fill:#f5b024;stroke:black;stroke-width:1;fill-opacity:1;stroke-opacity:0.3" />
<rect x="589" y="56" width="88" height="5" style="fill:#f5b024;stroke:black;stroke-width:1;fill-opacity:1;stroke-opacity:0.3" />
<line x1="558" y1="51" x2="586" y2="53" stroke="black" stroke-width="1" />
<line x1="586" y1="53" x2="614" y2="51" stroke="black" stroke-width="1" />
<rect x="470" y="49" width="88" height="5" style="fill:#f5b024;stroke:black;stroke-width:1;fill-opacity:1;stroke-opacity:0.3" />
<rect x="614" y="49" width="87" height="5" style="fill:#f5b024;stroke:black;stroke-width:1;fill-opacity:1;stroke-opacity:0.3" />
<line x1="573" y1="37" x2="578" y2="39" stroke="black" stroke-width="1" />
<line x1="578" y1="39" x2="584" y2="37" stroke="black" stroke-width="1" />
<rect x="485" y="35" width="88" height="5" style="fill:#f5b024;stroke:black;stroke-width:1;fill-opacity:1;stroke-opacity:0.3" />
<rect x="584" y="35" width="88" height="5" style="fill:#f5b024;stroke:black;stroke-width:1;fill-opacity:1;stroke-opacity:0.3" />
<line x1="575" y1="107" x2="582" y2="109" stroke="black" stroke-width="1" />
<line x1="582" y1="109" x2="590" y2="107" stroke="black" stroke-width="1" />
<rect x="487" y="105" width="88" height="5" style="fill:#f5b024;stroke:black;stroke-width:1;fill-opacity:1;stroke-opacity:0.3" />
<rect x="590" y="105" width="88" height="5" style="fill:#f5b024;stroke:black;stroke-width:1;fill-opacity:1;stroke-opacity:0.3" />
<line x1="587" y1="30" x2="591" y2="32" stroke="black" stroke-width="1" />
<line x1="591" y1="32" x2="596" y2="30" stroke="black" stroke-width="1" />
<rect x="499" y="28" width="88" height="5" style="fill:#f5b024;stroke:black;stroke-width:1;fill-opacity:1;stroke-opacity:0.3" />
<rect x="596" y="28" width="88" height="5" style="fill:#f5b024;stroke:black;stroke-width:1;fill-opacity:1;stroke-opacity:0.3" />
<line x1="595" y1="93" x2="611" y2="95" stroke="black" stroke-width="1" />
<line x1="611" y1="95" x2="627" y2="93" stroke="black" stroke-width="1" />
<rect x="507" y="91" width="88" height="5" style="fill:#f5b024;stroke:black;stroke-width:1;fill-opacity:1;stroke-opacity:0.3" />
<rect x="627" y="91" width="88" height="5" style="fill:#f5b024;stroke:black;stroke-width:1;fill-opacity:1;stroke-opacity:0.3" />
<line x1="598" y1="128" x2="619" y2="130" stroke="black" stroke-width="1" />
<line x1="619" y1="130" x2="640" y2="128" stroke="black" stroke-width="1" />
<rect x="510" y="126" width="88" height="5" style="fill:#f5b024;stroke:black;stroke-width:1;fill-opacity:1;stroke-opacity:0.3" />
<rect x="640" y="126" width="87" height="5" style="fill:#f5b024;stroke:black;stroke-width:1;fill-opacity:1;stroke-opacity:0.3" />
<line x1="642" y1="135" x2="648" y2="137" stroke="black" stroke-width="1" />
<line x1="648" y1="137" x2="654" y2="135" stroke="black" stroke-width="1" />
<rect x="510" y="133" width="132" height="5" style="fill:#f5b024;stroke:black;stroke-width:1;fill-opacity:1;stroke-opacity:0.3" />
<rect x="654" y="133" width="132" height="5" style="fill:#f5b024;stroke:black;stroke-width:1;fill-opacity:1;stroke-opacity:0.3" />
<line x1="644" y1="156" x2="682" y2="158" stroke="black" stroke-width="1" />
<line x1="682" y1="158" x2="720" y2="156" stroke="black" stroke-width="1" />
<rect x="513" y="154" width="131" height="5" style="fill:#f5b024;stroke:black;stroke-width:1;fill-opacity:1;stroke-opacity:0.3" />
<rect x="720" y="154" width="132" height="5" style="fill:#f5b024;stroke:black;stroke-width:1;fill-opacity:1;stroke-opacity:0.3" />
<line x1="609" y1="86" x2="620" y2="88" stroke="black" stroke-width="1" />
<line x1="620" y1="88" x2="632" y2="86" stroke="black" stroke-width="1" />
<rect x="521" y="84" width="88" height="5" style="fill:#5d3c2d;stroke:black;stroke-width:1;fill-opacity:1;stroke-opacity:0.3" />
<rect x="632" y="84" width="88" height="5" style="fill:#5d3c2d;stroke:black;stroke-width:1;fill-opacity:1;stroke-opacity:0.3" />
<line x1="612" y1="142" x2="616" y2="144" stroke="black" stroke-width="1" />
<line x1="616" y1="144" x2="621" y2="142" stroke="black" stroke-width="1" />
<rect x="524" y="140" width="88" height="5" style="fill:#f5b024;stroke:black;stroke-width:1;fill-opacity:1;stroke-opacity:0.3" />
<rect x="621" y="140" width="88" height="5" style="fill:#f5b024;stroke:black;stroke-width:1;fill-opacity:1;stroke-opacity:0.3" />
<line x1="627" y1="65" x2="637" y2="67" stroke="black" stroke-width="1" />
<line x1="637" y1="67" x2="647" y2="65" stroke="black" stroke-width="1" />
<rect x="540" y="63" width="87" height="5" style="fill:#f5b024;stroke:black;stroke-width:1;fill-opacity:1;stroke-opacity:0.3" />
<rect x="647" y="63" width="88" height="5" style="fill:#f5b024;stroke:black;stroke-width:1;fill-opacity:1;stroke-opacity:0.3" />
<line x1="652" y1="44" x2="678" y2="46" stroke="black" stroke-width="1" />
<line x1="678" y1="46" x2="705" y2="44" stroke="black" stroke-width="1" />
<rect x="564" y="42" width="88" height="5" style="fill:#f5b024;stroke:black;stroke-width:1;fill-opacity:1;stroke-opacity:0.3" />
<rect x="705" y="42" width="88" height="5" style="fill:#f5b024;stroke:black;stroke-width:1;fill-opacity:1;stroke-opacity:0.3" />
<line x1="653" y1="163" x2="665" y2="165" stroke="black" stroke-width="1" />
<line x1="665" y1="165" x2="677" y2="163" stroke="black" stroke-width="1" />
<rect x="566" y="161" width="87" height="5" style="fill:#f5b024;stroke:black;stroke-width:1;fill-opacity:1;stroke-opacity:0.3" />
<rect x="677" y="161" width="88" height="5" style="fill:#f5b024;stroke:black;stroke-width:1;fill-opacity:1;stroke-opacity:0.3" />
<line x1="660" y1="72" x2="686" y2="74" stroke="black" stroke-width="1" />
<line x1="686" y1="74" x2="712" y2="72" stroke="black" stroke-width="1" />
<rect x="572" y="70" width="88" height="5" style="fill:#f5b024;stroke:black;stroke-width:1;fill-opacity:1;stroke-opacity:0.3" />
<rect x="712" y="70" width="88" height="5" style="fill:#f5b024;stroke:black;stroke-width:1;fill-opacity:1;stroke-opacity:0.3" />
<line x1="669" y1="149" x2="679" y2="151" stroke="black" stroke-width="1" />
<line x1="679" y1="151" x2="689" y2="149" stroke="black" stroke-width="1" />
<rect x="580" y="147" width="88" height="5" style="fill:#f5b024;stroke:black;stroke-width:1;fill-opacity:1;stroke-opacity:0.3" />
<rect x="689" y="147" width="88" height="5" style="fill:#f5b024;stroke:black;stroke-width:1;fill-opacity:1;stroke-opacity:0.3" />
<line x1="675" y1="121" x2="691" y2="123" stroke="black" stroke-width="1" />
<line x1="691" y1="123" x2="708" y2="121" stroke="black" stroke-width="1" />
<rect x="587" y="119" width="88" height="5" style="fill:#f5b024;stroke:black;stroke-width:1;fill-opacity:1;stroke-opacity:0.3" />
<rect x="708" y="119" width="88" height="5" style="fill:#f5b024;stroke:black;stroke-width:1;fill-opacity:1;stroke-opacity:0.3" />
<line x1="736" y1="79" x2="746" y2="81" stroke="black" stroke-width="1" />
<line x1="746" y1="81" x2="757" y2="79" stroke="black" stroke-width="1" />
<rect x="605" y="77" width="131" height="5" style="fill:#f5b024;stroke:black;stroke-width:1;fill-opacity:1;stroke-opacity:0.3" />
<rect x="757" y="77" width="132" height="5" style="fill:#f5b024;stroke:black;stroke-width:1;fill-opacity:1;stroke-opacity:0.3" />
<line x1="694" y1="100" x2="702" y2="102" stroke="black" stroke-width="1" />
<line x1="702" y1="102" x2="711" y2="100" stroke="black" stroke-width="1" />
<rect x="606" y="98" width="88" height="5" style="fill:#f5b024;stroke:black;stroke-width:1;fill-opacity:1;stroke-opacity:0.3" />
<rect x="711" y="98" width="88" height="5" style="fill:#f5b024;stroke:black;stroke-width:1;fill-opacity:1;stroke-opacity:0.3" />
<line x1="713" y1="114" x2="730" y2="116" stroke="black" stroke-width="1" />
<line x1="730" y1="116" x2="747" y2="114" stroke="black" stroke-width="1" />
<rect x="625" y="112" width="88" height="5" style="fill:#f5b024;stroke:black;stroke-width:1;fill-opacity:1;stroke-opacity:0.3" />
<rect x="747" y="112" width="88" height="5" style="fill:#f5b024;stroke:black;stroke-width:1;fill-opacity:1;stroke-opacity:0.3" />
<line x1="759" y1="37" x2="778" y2="39" stroke="black" stroke-width="1" />
<line x1="778" y1="39" x2="797" y2="37" stroke="black" stroke-width="1" />
<rect x="672" y="35" width="87" height="5" style="fill:#f5b024;stroke:black;stroke-width:1;fill-opacity:1;stroke-opacity:0.3" />
<rect x="797" y="35" width="88" height="5" style="fill:#f5b024;stroke:black;stroke-width:1;fill-opacity:1;stroke-opacity:0.3" />
<line x1="768" y1="58" x2="782" y2="60" stroke="black" stroke-width="1" />
<line x1="782" y1="60" x2="797" y2="58" stroke="black" stroke-width="1" />
<rect x="680" y="56" width="88" height="5" style="fill:#f5b024;stroke:black;stroke-width:1;fill-opacity:1;stroke-opacity:0.3" />
<rect x="797" y="56" width="88" height="5" style="fill:#f5b024;stroke:black;stroke-width:1;fill-opacity:1;stroke-opacity:0.3" />
<line x1="768" y1="107" x2="799" y2="109" stroke="black" stroke-width="1" />
<line x1="799" y1="109" x2="831" y2="107" stroke="black" stroke-width="1" />
<rect x="680" y="105" width="88" height="5" style="fill:#f5b024;stroke:black;stroke-width:1;fill-opacity:1;stroke-opacity:0.3" />
<rect x="831" y="105" width="88" height="5" style="fill:#f5b024;stroke:black;stroke-width:1;fill-opacity:1;stroke-opacity:0.3" />
<line x1="782" y1="30" x2="795" y2="32" stroke="black" stroke-width="1" />
<line x1="795" y1="32" x2="808" y2="30" stroke="black" stroke-width="1" />
<rect x="694" y="28" width="88" height="5" style="fill:#f5b024;stroke:black;stroke-width:1;fill-opacity:1;stroke-opacity:0.3" />
<rect x="808" y="28" width="88" height="5" style="fill:#f5b024;stroke:black;stroke-width:1;fill-opacity:1;stroke-opacity:0.3" />
<line x1="794" y1="51" x2="808" y2="53" stroke="black" stroke-width="1" />
<line x1="808" y1="53" x2="823" y2="51" stroke="black" stroke-width="1" />
<rect x="705" y="49" width="88" height="5" style="fill:#f5b024;stroke:black;stroke-width:1;fill-opacity:1;stroke-opacity:0.3" />
<rect x="823" y="49" width="88" height="5" style="fill:#f5b024;stroke:black;stroke-width:1;fill-opacity:1;stroke-opacity:0.3" />
<line x1="800" y1="142" x2="804" y2="144" stroke="black" stroke-width="1" />
<line x1="804" y1="144" x2="808" y2="142" stroke="black" stroke-width="1" />
<rect x="712" y="140" width="88" height="5" style="fill:#f5b024;stroke:black;stroke-width:1;fill-opacity:1;stroke-opacity:0.3" />
<rect x="808" y="140" width="88" height="5" style="fill:#f5b024;stroke:black;stroke-width:1;fill-opacity:1;stroke-opacity:0.3" />
<line x1="803" y1="93" x2="817" y2="95" stroke="black" stroke-width="1" />
<line x1="817" y1="95" x2="832" y2="93" stroke="black" stroke-width="1" />
<rect x="715" y="91" width="88" height="5" style="fill:#f5b024;stroke:black;stroke-width:1;fill-opacity:1;stroke-opacity:0.3" />
<rect x="832" y="91" width="88" height="5" style="fill:#f5b024;stroke:black;stroke-width:1;fill-opacity:1;stroke-opacity:0.3" />
<text x="15"  y="176" style="font-family:Arial;font-size:10;stroke:black;fill:black;">all.merged.bam</text>
</svg>
    
