<?xml version="1.0" encoding="utf-8" standalone="no"?>
<!DOCTYPE svg PUBLIC "-//W3C//DTD SVG 1.1//EN"
  "http://www.w3.org/Graphics/SVG/1.1/DTD/svg11.dtd">
<svg height="1140" width="1000" version="1.1" viewBox="0 0 1000 1140" xmlns="http://www.w3.org/2000/svg" xmlns:xlink="http://www.w3.org/1999/xlink">
<line x1="17" y1="11" x2="981" y2="11" stroke="black" stroke-width="1" />
<rect x="17" y="9" width="131" height="5" style="fill:#f50002;stroke:black;stroke-width:1;fill-opacity:1;stroke-opacity:0.3" />
<rect x="149" y="9" width="23" height="5" style="fill:#53a1b5;stroke:black;stroke-width:1;fill-opacity:1;stroke-opacity:0.3" />
<rect x="215" y="9" width="34" height="5" style="fill:#53a1b5;stroke:black;stroke-width:1;fill-opacity:1;stroke-opacity:0.3" />
<rect x="292" y="9" width="34" height="5" style="fill:#53a1b5;stroke:black;stroke-width:1;fill-opacity:1;stroke-opacity:0.3" />
<rect x="359" y="9" width="28" height="5" style="fill:#53a1b5;stroke:black;stroke-width:1;fill-opacity:1;stroke-opacity:0.3" />
<rect x="443" y="9" width="15" height="5" style="fill:#53a1b5;stroke:black;stroke-width:1;fill-opacity:1;stroke-opacity:0.3" />
<rect x="493" y="9" width="29" height="5" style="fill:#53a1b5;stroke:black;stroke-width:1;fill-opacity:1;stroke-opacity:0.3" />
<rect x="564" y="9" width="43" height="5" style="fill:#53a1b5;stroke:black;stroke-width:1;fill-opacity:1;stroke-opacity:0.3" />
<rect x="630" y="9" width="36" height="5" style="fill:#53a1b5;stroke:black;stroke-width:1;fill-opacity:1;stroke-opacity:0.3" />
<rect x="732" y="9" width="15" height="5" style="fill:#53a1b5;stroke:black;stroke-width:1;fill-opacity:1;stroke-opacity:0.3" />
<rect x="790" y="9" width="16" height="5" style="fill:#53a1b5;stroke:black;stroke-width:1;fill-opacity:1;stroke-opacity:0.3" />
<rect x="847" y="9" width="37" height="5" style="fill:#53a1b5;stroke:black;stroke-width:1;fill-opacity:1;stroke-opacity:0.3" />
<rect x="958" y="9" width="11" height="5" style="fill:#53a1b5;stroke:black;stroke-width:1;fill-opacity:1;stroke-opacity:0.3" />
<rect x="969" y="9" width="12" height="5" style="fill:#f50002;stroke:black;stroke-width:1;fill-opacity:1;stroke-opacity:0.3" />
<text x="17"  y="23" style="font-family:Arial;font-size:10;stroke:black;fill:black;">Cre02.g078939.t1.1.v5.5 (-) chromosome_2:807222-812597</text>
<line x1="35" y1="30" x2="39" y2="32" stroke="black" stroke-width="1" />
<line x1="39" y1="32" x2="43" y2="30" stroke="black" stroke-width="1" />
<rect x="17" y="28" width="17" height="5" style="fill:#f5b024;stroke:black;stroke-width:1;fill-opacity:1;stroke-opacity:0.3" />
<rect x="43" y="28" width="17" height="5" style="fill:#f5b024;stroke:black;stroke-width:1;fill-opacity:1;stroke-opacity:0.3" />
<line x1="43" y1="37" x2="48" y2="39" stroke="black" stroke-width="1" />
<line x1="48" y1="39" x2="53" y2="37" stroke="black" stroke-width="1" />
<rect x="25" y="35" width="17" height="5" style="fill:#f5b024;stroke:black;stroke-width:1;fill-opacity:1;stroke-opacity:0.3" />
<rect x="53" y="35" width="17" height="5" style="fill:#f5b024;stroke:black;stroke-width:1;fill-opacity:1;stroke-opacity:0.3" />
<line x1="45" y1="44" x2="46" y2="46" stroke="black" stroke-width="1" />
<line x1="46" y1="46" x2="47" y2="44" stroke="black" stroke-width="1" />
<rect x="27" y="42" width="17" height="5" style="fill:#f5b024;stroke:black;stroke-width:1;fill-opacity:1;stroke-opacity:0.3" />
<rect x="47" y="42" width="17" height="5" style="fill:#f5b024;stroke:black;stroke-width:1;fill-opacity:1;stroke-opacity:0.3" />
<line x1="49" y1="51" x2="54" y2="53" stroke="black" stroke-width="1" />
<line x1="54" y1="53" x2="60" y2="51" stroke="black" stroke-width="1" />
<rect x="31" y="49" width="17" height="5" style="fill:#f5b024;stroke:black;stroke-width:1;fill-opacity:1;stroke-opacity:0.3" />
<rect x="60" y="49" width="17" height="5" style="fill:#f5b024;stroke:black;stroke-width:1;fill-opacity:1;stroke-opacity:0.3" />
<line x1="59" y1="58" x2="62" y2="60" stroke="black" stroke-width="1" />
<line x1="62" y1="60" x2="65" y2="58" stroke="black" stroke-width="1" />
<rect x="32" y="56" width="26" height="5" style="fill:#f5b024;stroke:black;stroke-width:1;fill-opacity:1;stroke-opacity:0.3" />
<rect x="65" y="56" width="26" height="5" style="fill:#f5b024;stroke:black;stroke-width:1;fill-opacity:1;stroke-opacity:0.3" />
<line x1="53" y1="65" x2="53" y2="67" stroke="black" stroke-width="1" />
<line x1="53" y1="67" x2="54" y2="65" stroke="black" stroke-width="1" />
<rect x="35" y="63" width="17" height="5" style="fill:#f5b024;stroke:black;stroke-width:1;fill-opacity:1;stroke-opacity:0.3" />
<rect x="54" y="63" width="17" height="5" style="fill:#f5b024;stroke:black;stroke-width:1;fill-opacity:1;stroke-opacity:0.3" />
<line x1="64" y1="72" x2="67" y2="74" stroke="black" stroke-width="1" />
<line x1="67" y1="74" x2="70" y2="72" stroke="black" stroke-width="1" />
<rect x="37" y="70" width="26" height="5" style="fill:#f5b024;stroke:black;stroke-width:1;fill-opacity:1;stroke-opacity:0.3" />
<rect x="70" y="70" width="26" height="5" style="fill:#f5b024;stroke:black;stroke-width:1;fill-opacity:1;stroke-opacity:0.3" />
<line x1="55" y1="79" x2="67" y2="81" stroke="black" stroke-width="1" />
<line x1="67" y1="81" x2="80" y2="79" stroke="black" stroke-width="1" />
<rect x="37" y="77" width="17" height="5" style="fill:#f5b024;stroke:black;stroke-width:1;fill-opacity:1;stroke-opacity:0.3" />
<rect x="80" y="77" width="17" height="5" style="fill:#f5b024;stroke:black;stroke-width:1;fill-opacity:1;stroke-opacity:0.3" />
<line x1="74" y1="86" x2="75" y2="88" stroke="black" stroke-width="1" />
<line x1="75" y1="88" x2="77" y2="86" stroke="black" stroke-width="1" />
<rect x="47" y="84" width="26" height="5" style="fill:#5d3c2d;stroke:black;stroke-width:1;fill-opacity:1;stroke-opacity:0.3" />
<rect x="77" y="84" width="26" height="5" style="fill:#5d3c2d;stroke:black;stroke-width:1;fill-opacity:1;stroke-opacity:0.3" />
<line x1="74" y1="93" x2="75" y2="95" stroke="black" stroke-width="1" />
<line x1="75" y1="95" x2="77" y2="93" stroke="black" stroke-width="1" />
<rect x="47" y="91" width="26" height="5" style="fill:#5d3c2d;stroke:black;stroke-width:1;fill-opacity:1;stroke-opacity:0.3" />
<rect x="77" y="91" width="26" height="5" style="fill:#5d3c2d;stroke:black;stroke-width:1;fill-opacity:1;stroke-opacity:0.3" />
<line x1="65" y1="100" x2="66" y2="102" stroke="black" stroke-width="1" />
<line x1="66" y1="102" x2="67" y2="100" stroke="black" stroke-width="1" />
<rect x="47" y="98" width="17" height="5" style="fill:#f5b024;stroke:black;stroke-width:1;fill-opacity:1;stroke-opacity:0.3" />
<rect x="67" y="98" width="17" height="5" style="fill:#f5b024;stroke:black;stroke-width:1;fill-opacity:1;stroke-opacity:0.3" />
<line x1="74" y1="107" x2="76" y2="109" stroke="black" stroke-width="1" />
<line x1="76" y1="109" x2="78" y2="107" stroke="black" stroke-width="1" />
<rect x="47" y="105" width="26" height="5" style="fill:#f5b024;stroke:black;stroke-width:1;fill-opacity:1;stroke-opacity:0.3" />
<rect x="78" y="105" width="26" height="5" style="fill:#f5b024;stroke:black;stroke-width:1;fill-opacity:1;stroke-opacity:0.3" />
<line x1="74" y1="114" x2="75" y2="116" stroke="black" stroke-width="1" />
<line x1="75" y1="116" x2="77" y2="114" stroke="black" stroke-width="1" />
<rect x="47" y="112" width="26" height="5" style="fill:#5d3c2d;stroke:black;stroke-width:1;fill-opacity:1;stroke-opacity:0.3" />
<rect x="77" y="112" width="26" height="5" style="fill:#5d3c2d;stroke:black;stroke-width:1;fill-opacity:1;stroke-opacity:0.3" />
<line x1="74" y1="121" x2="76" y2="123" stroke="black" stroke-width="1" />
<line x1="76" y1="123" x2="78" y2="121" stroke="black" stroke-width="1" />
<rect x="47" y="119" width="26" height="5" style="fill:#5d3c2d;stroke:black;stroke-width:1;fill-opacity:1;stroke-opacity:0.3" />
<rect x="78" y="119" width="26" height="5" style="fill:#5d3c2d;stroke:black;stroke-width:1;fill-opacity:1;stroke-opacity:0.3" />
<line x1="74" y1="128" x2="75" y2="130" stroke="black" stroke-width="1" />
<line x1="75" y1="130" x2="77" y2="128" stroke="black" stroke-width="1" />
<rect x="47" y="126" width="26" height="5" style="fill:#5d3c2d;stroke:black;stroke-width:1;fill-opacity:1;stroke-opacity:0.3" />
<rect x="77" y="126" width="26" height="5" style="fill:#5d3c2d;stroke:black;stroke-width:1;fill-opacity:1;stroke-opacity:0.3" />
<line x1="69" y1="135" x2="75" y2="137" stroke="black" stroke-width="1" />
<line x1="75" y1="137" x2="81" y2="135" stroke="black" stroke-width="1" />
<rect x="52" y="133" width="17" height="5" style="fill:#f5b024;stroke:black;stroke-width:1;fill-opacity:1;stroke-opacity:0.3" />
<rect x="81" y="133" width="17" height="5" style="fill:#f5b024;stroke:black;stroke-width:1;fill-opacity:1;stroke-opacity:0.3" />
<line x1="76" y1="142" x2="85" y2="144" stroke="black" stroke-width="1" />
<line x1="85" y1="144" x2="94" y2="142" stroke="black" stroke-width="1" />
<rect x="58" y="140" width="17" height="5" style="fill:#f5b024;stroke:black;stroke-width:1;fill-opacity:1;stroke-opacity:0.3" />
<rect x="94" y="140" width="17" height="5" style="fill:#f5b024;stroke:black;stroke-width:1;fill-opacity:1;stroke-opacity:0.3" />
<line x1="84" y1="30" x2="89" y2="32" stroke="black" stroke-width="1" />
<line x1="89" y1="32" x2="94" y2="30" stroke="black" stroke-width="1" />
<rect x="66" y="28" width="17" height="5" style="fill:#f5b024;stroke:black;stroke-width:1;fill-opacity:1;stroke-opacity:0.3" />
<rect x="94" y="28" width="17" height="5" style="fill:#f5b024;stroke:black;stroke-width:1;fill-opacity:1;stroke-opacity:0.3" />
<line x1="89" y1="37" x2="95" y2="39" stroke="black" stroke-width="1" />
<line x1="95" y1="39" x2="101" y2="37" stroke="black" stroke-width="1" />
<rect x="71" y="35" width="17" height="5" style="fill:#f5b024;stroke:black;stroke-width:1;fill-opacity:1;stroke-opacity:0.3" />
<rect x="101" y="35" width="17" height="5" style="fill:#f5b024;stroke:black;stroke-width:1;fill-opacity:1;stroke-opacity:0.3" />
<line x1="89" y1="44" x2="99" y2="46" stroke="black" stroke-width="1" />
<line x1="99" y1="46" x2="109" y2="44" stroke="black" stroke-width="1" />
<rect x="71" y="42" width="17" height="5" style="fill:#f5b024;stroke:black;stroke-width:1;fill-opacity:1;stroke-opacity:0.3" />
<rect x="109" y="42" width="17" height="5" style="fill:#f5b024;stroke:black;stroke-width:1;fill-opacity:1;stroke-opacity:0.3" />
<line x1="105" y1="51" x2="107" y2="53" stroke="black" stroke-width="1" />
<line x1="107" y1="53" x2="110" y2="51" stroke="black" stroke-width="1" />
<rect x="79" y="49" width="26" height="5" style="fill:#f5b024;stroke:black;stroke-width:1;fill-opacity:1;stroke-opacity:0.3" />
<rect x="110" y="49" width="26" height="5" style="fill:#f5b024;stroke:black;stroke-width:1;fill-opacity:1;stroke-opacity:0.3" />
<line x1="100" y1="65" x2="104" y2="67" stroke="black" stroke-width="1" />
<line x1="104" y1="67" x2="109" y2="65" stroke="black" stroke-width="1" />
<rect x="82" y="63" width="17" height="5" style="fill:#f5b024;stroke:black;stroke-width:1;fill-opacity:1;stroke-opacity:0.3" />
<rect x="109" y="63" width="17" height="5" style="fill:#f5b024;stroke:black;stroke-width:1;fill-opacity:1;stroke-opacity:0.3" />
<line x1="105" y1="100" x2="110" y2="102" stroke="black" stroke-width="1" />
<line x1="110" y1="102" x2="116" y2="100" stroke="black" stroke-width="1" />
<rect x="87" y="98" width="17" height="5" style="fill:#f5b024;stroke:black;stroke-width:1;fill-opacity:1;stroke-opacity:0.3" />
<rect x="116" y="98" width="17" height="5" style="fill:#f5b024;stroke:black;stroke-width:1;fill-opacity:1;stroke-opacity:0.3" />
<line x1="110" y1="149" x2="111" y2="151" stroke="black" stroke-width="1" />
<line x1="111" y1="151" x2="112" y2="149" stroke="black" stroke-width="1" />
<rect x="92" y="147" width="17" height="5" style="fill:#f5b024;stroke:black;stroke-width:1;fill-opacity:1;stroke-opacity:0.3" />
<rect x="112" y="147" width="17" height="5" style="fill:#f5b024;stroke:black;stroke-width:1;fill-opacity:1;stroke-opacity:0.3" />
<line x1="116" y1="58" x2="119" y2="60" stroke="black" stroke-width="1" />
<line x1="119" y1="60" x2="123" y2="58" stroke="black" stroke-width="1" />
<rect x="98" y="56" width="17" height="5" style="fill:#f5b024;stroke:black;stroke-width:1;fill-opacity:1;stroke-opacity:0.3" />
<rect x="123" y="56" width="17" height="5" style="fill:#f5b024;stroke:black;stroke-width:1;fill-opacity:1;stroke-opacity:0.3" />
<line x1="116" y1="72" x2="117" y2="74" stroke="black" stroke-width="1" />
<line x1="117" y1="74" x2="118" y2="72" stroke="black" stroke-width="1" />
<rect x="98" y="70" width="17" height="5" style="fill:#f5b024;stroke:black;stroke-width:1;fill-opacity:1;stroke-opacity:0.3" />
<rect x="118" y="70" width="17" height="5" style="fill:#f5b024;stroke:black;stroke-width:1;fill-opacity:1;stroke-opacity:0.3" />
<line x1="128" y1="79" x2="130" y2="81" stroke="black" stroke-width="1" />
<line x1="130" y1="81" x2="132" y2="79" stroke="black" stroke-width="1" />
<rect x="110" y="77" width="17" height="5" style="fill:#f5b024;stroke:black;stroke-width:1;fill-opacity:1;stroke-opacity:0.3" />
<rect x="132" y="77" width="17" height="5" style="fill:#f5b024;stroke:black;stroke-width:1;fill-opacity:1;stroke-opacity:0.3" />
<line x1="127" y1="86" x2="129" y2="88" stroke="black" stroke-width="1" />
<line x1="129" y1="88" x2="132" y2="86" stroke="black" stroke-width="1" />
<rect x="110" y="84" width="17" height="5" style="fill:#f5b024;stroke:black;stroke-width:1;fill-opacity:1;stroke-opacity:0.3" />
<rect x="132" y="84" width="17" height="5" style="fill:#f5b024;stroke:black;stroke-width:1;fill-opacity:1;stroke-opacity:0.3" />
<line x1="141" y1="30" x2="142" y2="32" stroke="black" stroke-width="1" />
<line x1="142" y1="32" x2="144" y2="30" stroke="black" stroke-width="1" />
<rect x="123" y="28" width="17" height="5" style="fill:#f5b024;stroke:black;stroke-width:1;fill-opacity:1;stroke-opacity:0.3" />
<rect x="144" y="28" width="17" height="5" style="fill:#f5b024;stroke:black;stroke-width:1;fill-opacity:1;stroke-opacity:0.3" />
<line x1="158" y1="37" x2="160" y2="39" stroke="black" stroke-width="1" />
<line x1="160" y1="39" x2="162" y2="37" stroke="black" stroke-width="1" />
<rect x="131" y="35" width="26" height="5" style="fill:#f5b024;stroke:black;stroke-width:1;fill-opacity:1;stroke-opacity:0.3" />
<rect x="162" y="35" width="11" height="5" style="fill:#f5b024;stroke:black;stroke-width:1;fill-opacity:1;stroke-opacity:0.3" />
<line x1="173" y1="37" x2="215" y2="37" stroke="pink" stroke-width="1" />
<rect x="215" y="35" width="15" height="5" style="fill:#f5b024;stroke:black;stroke-width:1;fill-opacity:1;stroke-opacity:0.3" />
<line x1="159" y1="44" x2="161" y2="46" stroke="black" stroke-width="1" />
<line x1="161" y1="46" x2="163" y2="44" stroke="black" stroke-width="1" />
<rect x="132" y="42" width="26" height="5" style="fill:#f5b024;stroke:black;stroke-width:1;fill-opacity:1;stroke-opacity:0.3" />
<rect x="163" y="42" width="9" height="5" style="fill:#f5b024;stroke:black;stroke-width:1;fill-opacity:1;stroke-opacity:0.3" />
<line x1="173" y1="44" x2="215" y2="44" stroke="pink" stroke-width="1" />
<rect x="215" y="42" width="17" height="5" style="fill:#f5b024;stroke:black;stroke-width:1;fill-opacity:1;stroke-opacity:0.3" />
<line x1="159" y1="65" x2="160" y2="67" stroke="black" stroke-width="1" />
<line x1="160" y1="67" x2="161" y2="65" stroke="black" stroke-width="1" />
<rect x="132" y="63" width="26" height="5" style="fill:#f5b024;stroke:black;stroke-width:1;fill-opacity:1;stroke-opacity:0.3" />
<rect x="161" y="63" width="12" height="5" style="fill:#f5b024;stroke:black;stroke-width:1;fill-opacity:1;stroke-opacity:0.3" />
<line x1="173" y1="65" x2="215" y2="65" stroke="pink" stroke-width="1" />
<rect x="215" y="63" width="14" height="5" style="fill:#f5b024;stroke:black;stroke-width:1;fill-opacity:1;stroke-opacity:0.3" />
<line x1="161" y1="93" x2="164" y2="95" stroke="black" stroke-width="1" />
<line x1="164" y1="95" x2="168" y2="93" stroke="black" stroke-width="1" />
<rect x="135" y="91" width="26" height="5" style="fill:#f5b024;stroke:black;stroke-width:1;fill-opacity:1;stroke-opacity:0.3" />
<rect x="168" y="91" width="4" height="5" style="fill:#f5b024;stroke:black;stroke-width:1;fill-opacity:1;stroke-opacity:0.3" />
<line x1="173" y1="93" x2="215" y2="93" stroke="pink" stroke-width="1" />
<rect x="215" y="91" width="22" height="5" style="fill:#f5b024;stroke:black;stroke-width:1;fill-opacity:1;stroke-opacity:0.3" />
<line x1="161" y1="100" x2="164" y2="102" stroke="black" stroke-width="1" />
<line x1="164" y1="102" x2="168" y2="100" stroke="black" stroke-width="1" />
<rect x="135" y="98" width="26" height="5" style="fill:#f5b024;stroke:black;stroke-width:1;fill-opacity:1;stroke-opacity:0.3" />
<rect x="168" y="98" width="4" height="5" style="fill:#f5b024;stroke:black;stroke-width:1;fill-opacity:1;stroke-opacity:0.3" />
<line x1="173" y1="100" x2="215" y2="100" stroke="pink" stroke-width="1" />
<rect x="215" y="98" width="22" height="5" style="fill:#f5b024;stroke:black;stroke-width:1;fill-opacity:1;stroke-opacity:0.3" />
<line x1="161" y1="107" x2="163" y2="109" stroke="black" stroke-width="1" />
<line x1="163" y1="109" x2="166" y2="107" stroke="black" stroke-width="1" />
<rect x="135" y="105" width="26" height="5" style="fill:#f5b024;stroke:black;stroke-width:1;fill-opacity:1;stroke-opacity:0.3" />
<rect x="166" y="105" width="6" height="5" style="fill:#f5b024;stroke:black;stroke-width:1;fill-opacity:1;stroke-opacity:0.3" />
<line x1="173" y1="107" x2="215" y2="107" stroke="pink" stroke-width="1" />
<rect x="215" y="105" width="20" height="5" style="fill:#f5b024;stroke:black;stroke-width:1;fill-opacity:1;stroke-opacity:0.3" />
<line x1="159" y1="51" x2="187" y2="53" stroke="black" stroke-width="1" />
<line x1="187" y1="53" x2="215" y2="51" stroke="black" stroke-width="1" />
<rect x="141" y="49" width="17" height="5" style="fill:#f5b024;stroke:black;stroke-width:1;fill-opacity:1;stroke-opacity:0.3" />
<rect x="215" y="49" width="17" height="5" style="fill:#f5b024;stroke:black;stroke-width:1;fill-opacity:1;stroke-opacity:0.3" />
<line x1="170" y1="58" x2="194" y2="60" stroke="black" stroke-width="1" />
<line x1="194" y1="60" x2="218" y2="58" stroke="black" stroke-width="1" />
<rect x="143" y="56" width="26" height="5" style="fill:#f5b024;stroke:black;stroke-width:1;fill-opacity:1;stroke-opacity:0.3" />
<rect x="218" y="56" width="26" height="5" style="fill:#f5b024;stroke:black;stroke-width:1;fill-opacity:1;stroke-opacity:0.3" />
<line x1="170" y1="72" x2="171" y2="74" stroke="black" stroke-width="1" />
<line x1="171" y1="74" x2="173" y2="72" stroke="black" stroke-width="1" />
<rect x="143" y="70" width="26" height="5" style="fill:#f5b024;stroke:black;stroke-width:1;fill-opacity:1;stroke-opacity:0.3" />
<rect x="173" y="70" width="0" height="5" style="fill:#f5b024;stroke:black;stroke-width:1;fill-opacity:1;stroke-opacity:0.3" />
<line x1="173" y1="72" x2="215" y2="72" stroke="pink" stroke-width="1" />
<rect x="215" y="70" width="26" height="5" style="fill:#f5b024;stroke:black;stroke-width:1;fill-opacity:1;stroke-opacity:0.3" />
<line x1="216" y1="114" x2="224" y2="116" stroke="black" stroke-width="1" />
<line x1="224" y1="116" x2="232" y2="114" stroke="black" stroke-width="1" />
<rect x="146" y="112" width="26" height="5" style="fill:#f5b024;stroke:black;stroke-width:1;fill-opacity:1;stroke-opacity:0.3" />
<line x1="173" y1="114" x2="215" y2="114" stroke="pink" stroke-width="1" />
<rect x="215" y="112" width="0" height="5" style="fill:#f5b024;stroke:black;stroke-width:1;fill-opacity:1;stroke-opacity:0.3" />
<rect x="232" y="112" width="18" height="5" style="fill:#f5b024;stroke:black;stroke-width:1;fill-opacity:1;stroke-opacity:0.3" />
<line x1="250" y1="114" x2="292" y2="114" stroke="pink" stroke-width="1" />
<rect x="292" y="112" width="8" height="5" style="fill:#f5b024;stroke:black;stroke-width:1;fill-opacity:1;stroke-opacity:0.3" />
<line x1="216" y1="121" x2="222" y2="123" stroke="black" stroke-width="1" />
<line x1="222" y1="123" x2="229" y2="121" stroke="black" stroke-width="1" />
<rect x="146" y="119" width="26" height="5" style="fill:#5d3c2d;stroke:black;stroke-width:1;fill-opacity:1;stroke-opacity:0.3" />
<line x1="173" y1="121" x2="215" y2="121" stroke="pink" stroke-width="1" />
<rect x="215" y="119" width="0" height="5" style="fill:#5d3c2d;stroke:black;stroke-width:1;fill-opacity:1;stroke-opacity:0.3" />
<rect x="229" y="119" width="20" height="5" style="fill:#5d3c2d;stroke:black;stroke-width:1;fill-opacity:1;stroke-opacity:0.3" />
<line x1="250" y1="121" x2="292" y2="121" stroke="pink" stroke-width="1" />
<rect x="292" y="119" width="5" height="5" style="fill:#5d3c2d;stroke:black;stroke-width:1;fill-opacity:1;stroke-opacity:0.3" />
<line x1="223" y1="79" x2="226" y2="81" stroke="black" stroke-width="1" />
<line x1="226" y1="81" x2="229" y2="79" stroke="black" stroke-width="1" />
<rect x="154" y="77" width="19" height="5" style="fill:#f5b024;stroke:black;stroke-width:1;fill-opacity:1;stroke-opacity:0.3" />
<line x1="173" y1="79" x2="215" y2="79" stroke="pink" stroke-width="1" />
<rect x="215" y="77" width="7" height="5" style="fill:#f5b024;stroke:black;stroke-width:1;fill-opacity:1;stroke-opacity:0.3" />
<rect x="229" y="77" width="20" height="5" style="fill:#f5b024;stroke:black;stroke-width:1;fill-opacity:1;stroke-opacity:0.3" />
<line x1="250" y1="79" x2="292" y2="79" stroke="pink" stroke-width="1" />
<rect x="292" y="77" width="5" height="5" style="fill:#f5b024;stroke:black;stroke-width:1;fill-opacity:1;stroke-opacity:0.3" />
<line x1="228" y1="30" x2="234" y2="32" stroke="black" stroke-width="1" />
<line x1="234" y1="32" x2="241" y2="30" stroke="black" stroke-width="1" />
<rect x="168" y="28" width="5" height="5" style="fill:#5d3c2d;stroke:black;stroke-width:1;fill-opacity:1;stroke-opacity:0.3" />
<line x1="173" y1="30" x2="215" y2="30" stroke="pink" stroke-width="1" />
<rect x="215" y="28" width="12" height="5" style="fill:#5d3c2d;stroke:black;stroke-width:1;fill-opacity:1;stroke-opacity:0.3" />
<rect x="241" y="28" width="8" height="5" style="fill:#5d3c2d;stroke:black;stroke-width:1;fill-opacity:1;stroke-opacity:0.3" />
<line x1="250" y1="30" x2="292" y2="30" stroke="pink" stroke-width="1" />
<rect x="292" y="28" width="8" height="5" style="fill:#5d3c2d;stroke:black;stroke-width:1;fill-opacity:1;stroke-opacity:0.3" />
<line x1="233" y1="86" x2="235" y2="88" stroke="black" stroke-width="1" />
<line x1="235" y1="88" x2="237" y2="86" stroke="black" stroke-width="1" />
<rect x="173" y="84" width="0" height="5" style="fill:#5d3c2d;stroke:black;stroke-width:1;fill-opacity:1;stroke-opacity:0.3" />
<line x1="173" y1="86" x2="215" y2="86" stroke="pink" stroke-width="1" />
<rect x="215" y="84" width="17" height="5" style="fill:#5d3c2d;stroke:black;stroke-width:1;fill-opacity:1;stroke-opacity:0.3" />
<rect x="237" y="84" width="12" height="5" style="fill:#5d3c2d;stroke:black;stroke-width:1;fill-opacity:1;stroke-opacity:0.3" />
<line x1="250" y1="86" x2="292" y2="86" stroke="pink" stroke-width="1" />
<rect x="292" y="84" width="5" height="5" style="fill:#5d3c2d;stroke:black;stroke-width:1;fill-opacity:1;stroke-opacity:0.3" />
<line x1="310" y1="37" x2="311" y2="39" stroke="black" stroke-width="1" />
<line x1="311" y1="39" x2="313" y2="37" stroke="black" stroke-width="1" />
<rect x="241" y="35" width="9" height="5" style="fill:#f5b024;stroke:black;stroke-width:1;fill-opacity:1;stroke-opacity:0.3" />
<line x1="250" y1="37" x2="292" y2="37" stroke="pink" stroke-width="1" />
<rect x="292" y="35" width="17" height="5" style="fill:#f5b024;stroke:black;stroke-width:1;fill-opacity:1;stroke-opacity:0.3" />
<rect x="313" y="35" width="13" height="5" style="fill:#f5b024;stroke:black;stroke-width:1;fill-opacity:1;stroke-opacity:0.3" />
<line x1="327" y1="37" x2="359" y2="37" stroke="pink" stroke-width="1" />
<rect x="359" y="35" width="13" height="5" style="fill:#f5b024;stroke:black;stroke-width:1;fill-opacity:1;stroke-opacity:0.3" />
<line x1="303" y1="44" x2="304" y2="46" stroke="black" stroke-width="1" />
<line x1="304" y1="46" x2="305" y2="44" stroke="black" stroke-width="1" />
<rect x="243" y="42" width="6" height="5" style="fill:#f5b024;stroke:black;stroke-width:1;fill-opacity:1;stroke-opacity:0.3" />
<line x1="250" y1="44" x2="292" y2="44" stroke="pink" stroke-width="1" />
<rect x="292" y="42" width="11" height="5" style="fill:#f5b024;stroke:black;stroke-width:1;fill-opacity:1;stroke-opacity:0.3" />
<rect x="305" y="42" width="17" height="5" style="fill:#f5b024;stroke:black;stroke-width:1;fill-opacity:1;stroke-opacity:0.3" />
<line x1="307" y1="51" x2="312" y2="53" stroke="black" stroke-width="1" />
<line x1="312" y1="53" x2="317" y2="51" stroke="black" stroke-width="1" />
<rect x="247" y="49" width="2" height="5" style="fill:#f5b024;stroke:black;stroke-width:1;fill-opacity:1;stroke-opacity:0.3" />
<line x1="250" y1="51" x2="292" y2="51" stroke="pink" stroke-width="1" />
<rect x="292" y="49" width="14" height="5" style="fill:#f5b024;stroke:black;stroke-width:1;fill-opacity:1;stroke-opacity:0.3" />
<rect x="317" y="49" width="9" height="5" style="fill:#f5b024;stroke:black;stroke-width:1;fill-opacity:1;stroke-opacity:0.3" />
<line x1="327" y1="51" x2="359" y2="51" stroke="pink" stroke-width="1" />
<rect x="359" y="49" width="8" height="5" style="fill:#f5b024;stroke:black;stroke-width:1;fill-opacity:1;stroke-opacity:0.3" />
<line x1="321" y1="30" x2="323" y2="32" stroke="black" stroke-width="1" />
<line x1="323" y1="32" x2="325" y2="30" stroke="black" stroke-width="1" />
<rect x="303" y="28" width="17" height="5" style="fill:#5d3c2d;stroke:black;stroke-width:1;fill-opacity:1;stroke-opacity:0.3" />
<rect x="325" y="28" width="1" height="5" style="fill:#5d3c2d;stroke:black;stroke-width:1;fill-opacity:1;stroke-opacity:0.3" />
<line x1="327" y1="30" x2="359" y2="30" stroke="pink" stroke-width="1" />
<rect x="359" y="28" width="15" height="5" style="fill:#5d3c2d;stroke:black;stroke-width:1;fill-opacity:1;stroke-opacity:0.3" />
<line x1="364" y1="58" x2="368" y2="60" stroke="black" stroke-width="1" />
<line x1="368" y1="60" x2="372" y2="58" stroke="black" stroke-width="1" />
<rect x="314" y="56" width="12" height="5" style="fill:#f5b024;stroke:black;stroke-width:1;fill-opacity:1;stroke-opacity:0.3" />
<line x1="327" y1="58" x2="359" y2="58" stroke="pink" stroke-width="1" />
<rect x="359" y="56" width="5" height="5" style="fill:#f5b024;stroke:black;stroke-width:1;fill-opacity:1;stroke-opacity:0.3" />
<rect x="372" y="56" width="15" height="5" style="fill:#f5b024;stroke:black;stroke-width:1;fill-opacity:1;stroke-opacity:0.3" />
<line x1="388" y1="58" x2="443" y2="58" stroke="pink" stroke-width="1" />
<rect x="443" y="56" width="2" height="5" style="fill:#f5b024;stroke:black;stroke-width:1;fill-opacity:1;stroke-opacity:0.3" />
<line x1="368" y1="65" x2="369" y2="67" stroke="black" stroke-width="1" />
<line x1="369" y1="67" x2="370" y2="65" stroke="black" stroke-width="1" />
<rect x="318" y="63" width="8" height="5" style="fill:#f5b024;stroke:black;stroke-width:1;fill-opacity:1;stroke-opacity:0.3" />
<line x1="327" y1="65" x2="359" y2="65" stroke="pink" stroke-width="1" />
<rect x="359" y="63" width="9" height="5" style="fill:#f5b024;stroke:black;stroke-width:1;fill-opacity:1;stroke-opacity:0.3" />
<rect x="370" y="63" width="17" height="5" style="fill:#f5b024;stroke:black;stroke-width:1;fill-opacity:1;stroke-opacity:0.3" />
<line x1="388" y1="65" x2="443" y2="65" stroke="pink" stroke-width="1" />
<rect x="443" y="63" width="0" height="5" style="fill:#f5b024;stroke:black;stroke-width:1;fill-opacity:1;stroke-opacity:0.3" />
<line x1="443" y1="44" x2="445" y2="46" stroke="black" stroke-width="1" />
<line x1="445" y1="46" x2="447" y2="44" stroke="black" stroke-width="1" />
<rect x="361" y="42" width="26" height="5" style="fill:#f5b024;stroke:black;stroke-width:1;fill-opacity:1;stroke-opacity:0.3" />
<line x1="388" y1="44" x2="443" y2="44" stroke="pink" stroke-width="1" />
<rect x="443" y="42" width="0" height="5" style="fill:#f5b024;stroke:black;stroke-width:1;fill-opacity:1;stroke-opacity:0.3" />
<rect x="447" y="42" width="11" height="5" style="fill:#f5b024;stroke:black;stroke-width:1;fill-opacity:1;stroke-opacity:0.3" />
<line x1="459" y1="44" x2="493" y2="44" stroke="pink" stroke-width="1" />
<rect x="493" y="42" width="15" height="5" style="fill:#f5b024;stroke:black;stroke-width:1;fill-opacity:1;stroke-opacity:0.3" />
<line x1="384" y1="72" x2="416" y2="74" stroke="black" stroke-width="1" />
<line x1="416" y1="74" x2="449" y2="72" stroke="black" stroke-width="1" />
<rect x="366" y="70" width="17" height="5" style="fill:#f5b024;stroke:black;stroke-width:1;fill-opacity:1;stroke-opacity:0.3" />
<rect x="449" y="70" width="10" height="5" style="fill:#f5b024;stroke:black;stroke-width:1;fill-opacity:1;stroke-opacity:0.3" />
<line x1="459" y1="72" x2="493" y2="72" stroke="pink" stroke-width="1" />
<rect x="493" y="70" width="7" height="5" style="fill:#f5b024;stroke:black;stroke-width:1;fill-opacity:1;stroke-opacity:0.3" />
<line x1="388" y1="51" x2="417" y2="53" stroke="black" stroke-width="1" />
<line x1="417" y1="53" x2="447" y2="51" stroke="black" stroke-width="1" />
<rect x="370" y="49" width="17" height="5" style="fill:#f5b024;stroke:black;stroke-width:1;fill-opacity:1;stroke-opacity:0.3" />
<rect x="447" y="49" width="11" height="5" style="fill:#f5b024;stroke:black;stroke-width:1;fill-opacity:1;stroke-opacity:0.3" />
<line x1="459" y1="51" x2="493" y2="51" stroke="pink" stroke-width="1" />
<rect x="493" y="49" width="6" height="5" style="fill:#f5b024;stroke:black;stroke-width:1;fill-opacity:1;stroke-opacity:0.3" />
<line x1="454" y1="37" x2="476" y2="39" stroke="black" stroke-width="1" />
<line x1="476" y1="39" x2="498" y2="37" stroke="black" stroke-width="1" />
<rect x="373" y="35" width="15" height="5" style="fill:#f5b024;stroke:black;stroke-width:1;fill-opacity:1;stroke-opacity:0.3" />
<line x1="388" y1="37" x2="443" y2="37" stroke="pink" stroke-width="1" />
<rect x="443" y="35" width="11" height="5" style="fill:#f5b024;stroke:black;stroke-width:1;fill-opacity:1;stroke-opacity:0.3" />
<rect x="498" y="35" width="24" height="5" style="fill:#f5b024;stroke:black;stroke-width:1;fill-opacity:1;stroke-opacity:0.3" />
<line x1="522" y1="37" x2="564" y2="37" stroke="pink" stroke-width="1" />
<rect x="564" y="35" width="1" height="5" style="fill:#f5b024;stroke:black;stroke-width:1;fill-opacity:1;stroke-opacity:0.3" />
<line x1="454" y1="79" x2="476" y2="81" stroke="black" stroke-width="1" />
<line x1="476" y1="81" x2="498" y2="79" stroke="black" stroke-width="1" />
<rect x="373" y="77" width="15" height="5" style="fill:#f5b024;stroke:black;stroke-width:1;fill-opacity:1;stroke-opacity:0.3" />
<line x1="388" y1="79" x2="443" y2="79" stroke="pink" stroke-width="1" />
<rect x="443" y="77" width="11" height="5" style="fill:#f5b024;stroke:black;stroke-width:1;fill-opacity:1;stroke-opacity:0.3" />
<rect x="498" y="77" width="24" height="5" style="fill:#f5b024;stroke:black;stroke-width:1;fill-opacity:1;stroke-opacity:0.3" />
<line x1="522" y1="79" x2="564" y2="79" stroke="pink" stroke-width="1" />
<rect x="564" y="77" width="1" height="5" style="fill:#f5b024;stroke:black;stroke-width:1;fill-opacity:1;stroke-opacity:0.3" />
<line x1="450" y1="30" x2="452" y2="32" stroke="black" stroke-width="1" />
<line x1="452" y1="32" x2="454" y2="30" stroke="black" stroke-width="1" />
<rect x="377" y="28" width="10" height="5" style="fill:#f5b024;stroke:black;stroke-width:1;fill-opacity:1;stroke-opacity:0.3" />
<line x1="388" y1="30" x2="443" y2="30" stroke="pink" stroke-width="1" />
<rect x="443" y="28" width="7" height="5" style="fill:#f5b024;stroke:black;stroke-width:1;fill-opacity:1;stroke-opacity:0.3" />
<rect x="454" y="28" width="4" height="5" style="fill:#f5b024;stroke:black;stroke-width:1;fill-opacity:1;stroke-opacity:0.3" />
<line x1="459" y1="30" x2="493" y2="30" stroke="pink" stroke-width="1" />
<rect x="493" y="28" width="13" height="5" style="fill:#f5b024;stroke:black;stroke-width:1;fill-opacity:1;stroke-opacity:0.3" />
<line x1="450" y1="86" x2="452" y2="88" stroke="black" stroke-width="1" />
<line x1="452" y1="88" x2="454" y2="86" stroke="black" stroke-width="1" />
<rect x="377" y="84" width="10" height="5" style="fill:#f5b024;stroke:black;stroke-width:1;fill-opacity:1;stroke-opacity:0.3" />
<line x1="388" y1="86" x2="443" y2="86" stroke="pink" stroke-width="1" />
<rect x="443" y="84" width="7" height="5" style="fill:#f5b024;stroke:black;stroke-width:1;fill-opacity:1;stroke-opacity:0.3" />
<rect x="454" y="84" width="4" height="5" style="fill:#f5b024;stroke:black;stroke-width:1;fill-opacity:1;stroke-opacity:0.3" />
<line x1="459" y1="86" x2="493" y2="86" stroke="pink" stroke-width="1" />
<rect x="493" y="84" width="13" height="5" style="fill:#f5b024;stroke:black;stroke-width:1;fill-opacity:1;stroke-opacity:0.3" />
<line x1="498" y1="58" x2="499" y2="60" stroke="black" stroke-width="1" />
<line x1="499" y1="60" x2="500" y2="58" stroke="black" stroke-width="1" />
<rect x="446" y="56" width="12" height="5" style="fill:#f5b024;stroke:black;stroke-width:1;fill-opacity:1;stroke-opacity:0.3" />
<line x1="459" y1="58" x2="493" y2="58" stroke="pink" stroke-width="1" />
<rect x="493" y="56" width="5" height="5" style="fill:#f5b024;stroke:black;stroke-width:1;fill-opacity:1;stroke-opacity:0.3" />
<rect x="500" y="56" width="17" height="5" style="fill:#f5b024;stroke:black;stroke-width:1;fill-opacity:1;stroke-opacity:0.3" />
<line x1="505" y1="65" x2="512" y2="67" stroke="black" stroke-width="1" />
<line x1="512" y1="67" x2="519" y2="65" stroke="black" stroke-width="1" />
<rect x="452" y="63" width="6" height="5" style="fill:#f5b024;stroke:black;stroke-width:1;fill-opacity:1;stroke-opacity:0.3" />
<line x1="459" y1="65" x2="493" y2="65" stroke="pink" stroke-width="1" />
<rect x="493" y="63" width="11" height="5" style="fill:#f5b024;stroke:black;stroke-width:1;fill-opacity:1;stroke-opacity:0.3" />
<rect x="519" y="63" width="3" height="5" style="fill:#f5b024;stroke:black;stroke-width:1;fill-opacity:1;stroke-opacity:0.3" />
<line x1="522" y1="65" x2="564" y2="65" stroke="pink" stroke-width="1" />
<rect x="564" y="63" width="14" height="5" style="fill:#f5b024;stroke:black;stroke-width:1;fill-opacity:1;stroke-opacity:0.3" />
<line x1="565" y1="93" x2="574" y2="95" stroke="black" stroke-width="1" />
<line x1="574" y1="95" x2="584" y2="93" stroke="black" stroke-width="1" />
<rect x="497" y="91" width="25" height="5" style="fill:#f5b024;stroke:black;stroke-width:1;fill-opacity:1;stroke-opacity:0.3" />
<line x1="522" y1="93" x2="564" y2="93" stroke="pink" stroke-width="1" />
<rect x="564" y="91" width="1" height="5" style="fill:#f5b024;stroke:black;stroke-width:1;fill-opacity:1;stroke-opacity:0.3" />
<rect x="584" y="91" width="23" height="5" style="fill:#f5b024;stroke:black;stroke-width:1;fill-opacity:1;stroke-opacity:0.3" />
<line x1="607" y1="93" x2="630" y2="93" stroke="pink" stroke-width="1" />
<rect x="630" y="91" width="3" height="5" style="fill:#f5b024;stroke:black;stroke-width:1;fill-opacity:1;stroke-opacity:0.3" />
<line x1="573" y1="51" x2="574" y2="53" stroke="black" stroke-width="1" />
<line x1="574" y1="53" x2="576" y2="51" stroke="black" stroke-width="1" />
<rect x="505" y="49" width="17" height="5" style="fill:#f5b024;stroke:black;stroke-width:1;fill-opacity:1;stroke-opacity:0.3" />
<line x1="522" y1="51" x2="564" y2="51" stroke="pink" stroke-width="1" />
<rect x="564" y="49" width="9" height="5" style="fill:#f5b024;stroke:black;stroke-width:1;fill-opacity:1;stroke-opacity:0.3" />
<rect x="576" y="49" width="26" height="5" style="fill:#f5b024;stroke:black;stroke-width:1;fill-opacity:1;stroke-opacity:0.3" />
<line x1="577" y1="30" x2="578" y2="32" stroke="black" stroke-width="1" />
<line x1="578" y1="32" x2="580" y2="30" stroke="black" stroke-width="1" />
<rect x="509" y="28" width="13" height="5" style="fill:#f5b024;stroke:black;stroke-width:1;fill-opacity:1;stroke-opacity:0.3" />
<line x1="522" y1="30" x2="564" y2="30" stroke="pink" stroke-width="1" />
<rect x="564" y="28" width="13" height="5" style="fill:#f5b024;stroke:black;stroke-width:1;fill-opacity:1;stroke-opacity:0.3" />
<rect x="580" y="28" width="26" height="5" style="fill:#f5b024;stroke:black;stroke-width:1;fill-opacity:1;stroke-opacity:0.3" />
<line x1="591" y1="37" x2="594" y2="39" stroke="black" stroke-width="1" />
<line x1="594" y1="39" x2="598" y2="37" stroke="black" stroke-width="1" />
<rect x="566" y="35" width="25" height="5" style="fill:#f5b024;stroke:black;stroke-width:1;fill-opacity:1;stroke-opacity:0.3" />
<rect x="598" y="35" width="9" height="5" style="fill:#f5b024;stroke:black;stroke-width:1;fill-opacity:1;stroke-opacity:0.3" />
<line x1="607" y1="37" x2="630" y2="37" stroke="pink" stroke-width="1" />
<rect x="630" y="35" width="17" height="5" style="fill:#f5b024;stroke:black;stroke-width:1;fill-opacity:1;stroke-opacity:0.3" />
<line x1="632" y1="44" x2="634" y2="46" stroke="black" stroke-width="1" />
<line x1="634" y1="46" x2="636" y2="44" stroke="black" stroke-width="1" />
<rect x="583" y="42" width="24" height="5" style="fill:#f5b024;stroke:black;stroke-width:1;fill-opacity:1;stroke-opacity:0.3" />
<line x1="607" y1="44" x2="630" y2="44" stroke="pink" stroke-width="1" />
<rect x="630" y="42" width="2" height="5" style="fill:#f5b024;stroke:black;stroke-width:1;fill-opacity:1;stroke-opacity:0.3" />
<rect x="636" y="42" width="26" height="5" style="fill:#f5b024;stroke:black;stroke-width:1;fill-opacity:1;stroke-opacity:0.3" />
<line x1="663" y1="30" x2="697" y2="32" stroke="black" stroke-width="1" />
<line x1="697" y1="32" x2="732" y2="30" stroke="black" stroke-width="1" />
<rect x="637" y="28" width="26" height="5" style="fill:#f5b024;stroke:black;stroke-width:1;fill-opacity:1;stroke-opacity:0.3" />
<rect x="732" y="28" width="26" height="5" style="fill:#f5b024;stroke:black;stroke-width:1;fill-opacity:1;stroke-opacity:0.3" />
<line x1="735" y1="51" x2="739" y2="53" stroke="black" stroke-width="1" />
<line x1="739" y1="53" x2="743" y2="51" stroke="black" stroke-width="1" />
<rect x="644" y="49" width="23" height="5" style="fill:#f5b024;stroke:black;stroke-width:1;fill-opacity:1;stroke-opacity:0.3" />
<line x1="667" y1="51" x2="732" y2="51" stroke="pink" stroke-width="1" />
<rect x="732" y="49" width="3" height="5" style="fill:#f5b024;stroke:black;stroke-width:1;fill-opacity:1;stroke-opacity:0.3" />
<rect x="743" y="49" width="5" height="5" style="fill:#f5b024;stroke:black;stroke-width:1;fill-opacity:1;stroke-opacity:0.3" />
<line x1="748" y1="51" x2="790" y2="51" stroke="pink" stroke-width="1" />
<rect x="790" y="49" width="16" height="5" style="fill:#f5b024;stroke:black;stroke-width:1;fill-opacity:1;stroke-opacity:0.3" />
<line x1="806" y1="51" x2="847" y2="51" stroke="pink" stroke-width="1" />
<rect x="847" y="49" width="5" height="5" style="fill:#f5b024;stroke:black;stroke-width:1;fill-opacity:1;stroke-opacity:0.3" />
<line x1="735" y1="58" x2="737" y2="60" stroke="black" stroke-width="1" />
<line x1="737" y1="60" x2="739" y2="58" stroke="black" stroke-width="1" />
<rect x="644" y="56" width="23" height="5" style="fill:#f5b024;stroke:black;stroke-width:1;fill-opacity:1;stroke-opacity:0.3" />
<line x1="667" y1="58" x2="732" y2="58" stroke="pink" stroke-width="1" />
<rect x="732" y="56" width="3" height="5" style="fill:#f5b024;stroke:black;stroke-width:1;fill-opacity:1;stroke-opacity:0.3" />
<rect x="739" y="56" width="8" height="5" style="fill:#f5b024;stroke:black;stroke-width:1;fill-opacity:1;stroke-opacity:0.3" />
<line x1="748" y1="58" x2="790" y2="58" stroke="pink" stroke-width="1" />
<rect x="790" y="56" width="16" height="5" style="fill:#f5b024;stroke:black;stroke-width:1;fill-opacity:1;stroke-opacity:0.3" />
<line x1="806" y1="58" x2="847" y2="58" stroke="pink" stroke-width="1" />
<rect x="847" y="56" width="1" height="5" style="fill:#f5b024;stroke:black;stroke-width:1;fill-opacity:1;stroke-opacity:0.3" />
<line x1="665" y1="65" x2="699" y2="67" stroke="black" stroke-width="1" />
<line x1="699" y1="67" x2="733" y2="65" stroke="black" stroke-width="1" />
<rect x="647" y="63" width="17" height="5" style="fill:#f5b024;stroke:black;stroke-width:1;fill-opacity:1;stroke-opacity:0.3" />
<rect x="733" y="63" width="14" height="5" style="fill:#f5b024;stroke:black;stroke-width:1;fill-opacity:1;stroke-opacity:0.3" />
<line x1="748" y1="65" x2="790" y2="65" stroke="pink" stroke-width="1" />
<rect x="790" y="63" width="3" height="5" style="fill:#f5b024;stroke:black;stroke-width:1;fill-opacity:1;stroke-opacity:0.3" />
<line x1="747" y1="37" x2="768" y2="39" stroke="black" stroke-width="1" />
<line x1="768" y1="39" x2="790" y2="37" stroke="black" stroke-width="1" />
<rect x="656" y="35" width="11" height="5" style="fill:#f5b024;stroke:black;stroke-width:1;fill-opacity:1;stroke-opacity:0.3" />
<line x1="667" y1="37" x2="732" y2="37" stroke="pink" stroke-width="1" />
<rect x="732" y="35" width="15" height="5" style="fill:#f5b024;stroke:black;stroke-width:1;fill-opacity:1;stroke-opacity:0.3" />
<rect x="790" y="35" width="16" height="5" style="fill:#f5b024;stroke:black;stroke-width:1;fill-opacity:1;stroke-opacity:0.3" />
<line x1="806" y1="37" x2="847" y2="37" stroke="pink" stroke-width="1" />
<rect x="847" y="35" width="10" height="5" style="fill:#f5b024;stroke:black;stroke-width:1;fill-opacity:1;stroke-opacity:0.3" />
<line x1="805" y1="44" x2="827" y2="46" stroke="black" stroke-width="1" />
<line x1="827" y1="46" x2="850" y2="44" stroke="black" stroke-width="1" />
<rect x="737" y="42" width="11" height="5" style="fill:#f5b024;stroke:black;stroke-width:1;fill-opacity:1;stroke-opacity:0.3" />
<line x1="748" y1="44" x2="790" y2="44" stroke="pink" stroke-width="1" />
<rect x="790" y="42" width="15" height="5" style="fill:#f5b024;stroke:black;stroke-width:1;fill-opacity:1;stroke-opacity:0.3" />
<rect x="850" y="42" width="26" height="5" style="fill:#f5b024;stroke:black;stroke-width:1;fill-opacity:1;stroke-opacity:0.3" />
<line x1="806" y1="72" x2="828" y2="74" stroke="black" stroke-width="1" />
<line x1="828" y1="74" x2="850" y2="72" stroke="black" stroke-width="1" />
<rect x="738" y="70" width="10" height="5" style="fill:#f5b024;stroke:black;stroke-width:1;fill-opacity:1;stroke-opacity:0.3" />
<line x1="748" y1="72" x2="790" y2="72" stroke="pink" stroke-width="1" />
<rect x="790" y="70" width="16" height="5" style="fill:#f5b024;stroke:black;stroke-width:1;fill-opacity:1;stroke-opacity:0.3" />
<rect x="850" y="70" width="26" height="5" style="fill:#f5b024;stroke:black;stroke-width:1;fill-opacity:1;stroke-opacity:0.3" />
<line x1="874" y1="30" x2="918" y2="32" stroke="black" stroke-width="1" />
<line x1="918" y1="32" x2="963" y2="30" stroke="black" stroke-width="1" />
<rect x="856" y="28" width="17" height="5" style="fill:#f5b024;stroke:black;stroke-width:1;fill-opacity:1;stroke-opacity:0.3" />
<rect x="963" y="28" width="17" height="5" style="fill:#f5b024;stroke:black;stroke-width:1;fill-opacity:1;stroke-opacity:0.3" />
<text x="15"  y="176" style="font-family:Arial;font-size:10;stroke:black;fill:black;">all.merged.bam</text>
</svg>
    
