<?xml version="1.0" encoding="utf-8" standalone="no"?>
<!DOCTYPE svg PUBLIC "-//W3C//DTD SVG 1.1//EN"
  "http://www.w3.org/Graphics/SVG/1.1/DTD/svg11.dtd">
<svg height="1140" width="1000" version="1.1" viewBox="0 0 1000 1140" xmlns="http://www.w3.org/2000/svg" xmlns:xlink="http://www.w3.org/1999/xlink">
<line x1="15" y1="11" x2="984" y2="11" stroke="black" stroke-width="1" />
<rect x="15" y="9" width="123" height="5" style="fill:#f50002;stroke:black;stroke-width:1;fill-opacity:1;stroke-opacity:0.3" />
<rect x="138" y="9" width="19" height="5" style="fill:#53a1b5;stroke:black;stroke-width:1;fill-opacity:1;stroke-opacity:0.3" />
<rect x="174" y="9" width="125" height="5" style="fill:#53a1b5;stroke:black;stroke-width:1;fill-opacity:1;stroke-opacity:0.3" />
<rect x="321" y="9" width="77" height="5" style="fill:#53a1b5;stroke:black;stroke-width:1;fill-opacity:1;stroke-opacity:0.3" />
<rect x="427" y="9" width="54" height="5" style="fill:#53a1b5;stroke:black;stroke-width:1;fill-opacity:1;stroke-opacity:0.3" />
<rect x="508" y="9" width="23" height="5" style="fill:#53a1b5;stroke:black;stroke-width:1;fill-opacity:1;stroke-opacity:0.3" />
<rect x="560" y="9" width="77" height="5" style="fill:#53a1b5;stroke:black;stroke-width:1;fill-opacity:1;stroke-opacity:0.3" />
<rect x="675" y="9" width="22" height="5" style="fill:#53a1b5;stroke:black;stroke-width:1;fill-opacity:1;stroke-opacity:0.3" />
<rect x="738" y="9" width="14" height="5" style="fill:#53a1b5;stroke:black;stroke-width:1;fill-opacity:1;stroke-opacity:0.3" />
<rect x="753" y="9" width="230" height="5" style="fill:#f50002;stroke:black;stroke-width:1;fill-opacity:1;stroke-opacity:0.3" />
<text x="15"  y="23" style="font-family:Arial;font-size:10;stroke:black;fill:black;">Cre06.g285550.t1.1.v5.5 (+) chromosome_6:5579026-5585292</text>
<line x1="84" y1="30" x2="90" y2="32" stroke="black" stroke-width="1" />
<line x1="90" y1="32" x2="97" y2="30" stroke="black" stroke-width="1" />
<rect x="69" y="28" width="15" height="5" style="fill:#f5b024;stroke:black;stroke-width:1;fill-opacity:1;stroke-opacity:0.3" />
<rect x="97" y="28" width="9" height="5" style="fill:#f5b024;stroke:black;stroke-width:1;fill-opacity:1;stroke-opacity:0.3" />
<line x1="107" y1="30" x2="136" y2="30" stroke="pink" stroke-width="1" />
<rect x="136" y="28" width="5" height="5" style="fill:#f5b024;stroke:black;stroke-width:1;fill-opacity:1;stroke-opacity:0.3" />
<line x1="91" y1="37" x2="93" y2="39" stroke="black" stroke-width="1" />
<line x1="93" y1="39" x2="96" y2="37" stroke="black" stroke-width="1" />
<rect x="75" y="35" width="15" height="5" style="fill:#5d3c2d;stroke:black;stroke-width:1;fill-opacity:1;stroke-opacity:0.3" />
<rect x="96" y="35" width="15" height="5" style="fill:#5d3c2d;stroke:black;stroke-width:1;fill-opacity:1;stroke-opacity:0.3" />
<line x1="92" y1="44" x2="93" y2="46" stroke="black" stroke-width="1" />
<line x1="93" y1="46" x2="95" y2="44" stroke="black" stroke-width="1" />
<rect x="76" y="42" width="15" height="5" style="fill:#5d3c2d;stroke:black;stroke-width:1;fill-opacity:1;stroke-opacity:0.3" />
<rect x="95" y="42" width="15" height="5" style="fill:#5d3c2d;stroke:black;stroke-width:1;fill-opacity:1;stroke-opacity:0.3" />
<line x1="125" y1="51" x2="126" y2="53" stroke="black" stroke-width="1" />
<line x1="126" y1="53" x2="128" y2="51" stroke="black" stroke-width="1" />
<rect x="109" y="49" width="15" height="5" style="fill:#5d3c2d;stroke:black;stroke-width:1;fill-opacity:1;stroke-opacity:0.3" />
<rect x="128" y="49" width="15" height="5" style="fill:#5d3c2d;stroke:black;stroke-width:1;fill-opacity:1;stroke-opacity:0.3" />
<line x1="125" y1="58" x2="126" y2="60" stroke="black" stroke-width="1" />
<line x1="126" y1="60" x2="128" y2="58" stroke="black" stroke-width="1" />
<rect x="109" y="56" width="15" height="5" style="fill:#5d3c2d;stroke:black;stroke-width:1;fill-opacity:1;stroke-opacity:0.3" />
<rect x="128" y="56" width="15" height="5" style="fill:#5d3c2d;stroke:black;stroke-width:1;fill-opacity:1;stroke-opacity:0.3" />
<line x1="126" y1="65" x2="130" y2="67" stroke="black" stroke-width="1" />
<line x1="130" y1="67" x2="135" y2="65" stroke="black" stroke-width="1" />
<rect x="110" y="63" width="15" height="5" style="fill:#5d3c2d;stroke:black;stroke-width:1;fill-opacity:1;stroke-opacity:0.3" />
<rect x="135" y="63" width="15" height="5" style="fill:#5d3c2d;stroke:black;stroke-width:1;fill-opacity:1;stroke-opacity:0.3" />
<line x1="205" y1="30" x2="206" y2="32" stroke="black" stroke-width="1" />
<line x1="206" y1="32" x2="207" y2="30" stroke="black" stroke-width="1" />
<rect x="189" y="28" width="15" height="5" style="fill:#5d3c2d;stroke:black;stroke-width:1;fill-opacity:1;stroke-opacity:0.3" />
<rect x="207" y="28" width="15" height="5" style="fill:#5d3c2d;stroke:black;stroke-width:1;fill-opacity:1;stroke-opacity:0.3" />
<line x1="217" y1="37" x2="219" y2="39" stroke="black" stroke-width="1" />
<line x1="219" y1="39" x2="222" y2="37" stroke="black" stroke-width="1" />
<rect x="201" y="35" width="15" height="5" style="fill:#5d3c2d;stroke:black;stroke-width:1;fill-opacity:1;stroke-opacity:0.3" />
<rect x="222" y="35" width="15" height="5" style="fill:#5d3c2d;stroke:black;stroke-width:1;fill-opacity:1;stroke-opacity:0.3" />
<line x1="238" y1="30" x2="240" y2="32" stroke="black" stroke-width="1" />
<line x1="240" y1="32" x2="242" y2="30" stroke="black" stroke-width="1" />
<rect x="223" y="28" width="15" height="5" style="fill:#5d3c2d;stroke:black;stroke-width:1;fill-opacity:1;stroke-opacity:0.3" />
<rect x="242" y="28" width="15" height="5" style="fill:#5d3c2d;stroke:black;stroke-width:1;fill-opacity:1;stroke-opacity:0.3" />
<line x1="239" y1="44" x2="240" y2="46" stroke="black" stroke-width="1" />
<line x1="240" y1="46" x2="241" y2="44" stroke="black" stroke-width="1" />
<rect x="224" y="42" width="15" height="5" style="fill:#5d3c2d;stroke:black;stroke-width:1;fill-opacity:1;stroke-opacity:0.3" />
<rect x="241" y="42" width="15" height="5" style="fill:#5d3c2d;stroke:black;stroke-width:1;fill-opacity:1;stroke-opacity:0.3" />
<line x1="246" y1="51" x2="248" y2="53" stroke="black" stroke-width="1" />
<line x1="248" y1="53" x2="251" y2="51" stroke="black" stroke-width="1" />
<rect x="230" y="49" width="15" height="5" style="fill:#5d3c2d;stroke:black;stroke-width:1;fill-opacity:1;stroke-opacity:0.3" />
<rect x="251" y="49" width="15" height="5" style="fill:#5d3c2d;stroke:black;stroke-width:1;fill-opacity:1;stroke-opacity:0.3" />
<line x1="246" y1="58" x2="248" y2="60" stroke="black" stroke-width="1" />
<line x1="248" y1="60" x2="251" y2="58" stroke="black" stroke-width="1" />
<rect x="230" y="56" width="15" height="5" style="fill:#5d3c2d;stroke:black;stroke-width:1;fill-opacity:1;stroke-opacity:0.3" />
<rect x="251" y="56" width="15" height="5" style="fill:#5d3c2d;stroke:black;stroke-width:1;fill-opacity:1;stroke-opacity:0.3" />
<line x1="349" y1="30" x2="350" y2="32" stroke="black" stroke-width="1" />
<line x1="350" y1="32" x2="352" y2="30" stroke="black" stroke-width="1" />
<rect x="333" y="28" width="15" height="5" style="fill:#5d3c2d;stroke:black;stroke-width:1;fill-opacity:1;stroke-opacity:0.3" />
<rect x="352" y="28" width="15" height="5" style="fill:#5d3c2d;stroke:black;stroke-width:1;fill-opacity:1;stroke-opacity:0.3" />
<line x1="379" y1="37" x2="381" y2="39" stroke="black" stroke-width="1" />
<line x1="381" y1="39" x2="384" y2="37" stroke="black" stroke-width="1" />
<rect x="364" y="35" width="15" height="5" style="fill:#5d3c2d;stroke:black;stroke-width:1;fill-opacity:1;stroke-opacity:0.3" />
<rect x="384" y="35" width="14" height="5" style="fill:#5d3c2d;stroke:black;stroke-width:1;fill-opacity:1;stroke-opacity:0.3" />
<line x1="399" y1="37" x2="427" y2="37" stroke="pink" stroke-width="1" />
<rect x="427" y="35" width="0" height="5" style="fill:#5d3c2d;stroke:black;stroke-width:1;fill-opacity:1;stroke-opacity:0.3" />
<line x1="382" y1="44" x2="389" y2="46" stroke="black" stroke-width="1" />
<line x1="389" y1="46" x2="396" y2="44" stroke="black" stroke-width="1" />
<rect x="366" y="42" width="15" height="5" style="fill:#5d3c2d;stroke:black;stroke-width:1;fill-opacity:1;stroke-opacity:0.3" />
<rect x="396" y="42" width="2" height="5" style="fill:#5d3c2d;stroke:black;stroke-width:1;fill-opacity:1;stroke-opacity:0.3" />
<line x1="399" y1="44" x2="427" y2="44" stroke="pink" stroke-width="1" />
<rect x="427" y="42" width="12" height="5" style="fill:#5d3c2d;stroke:black;stroke-width:1;fill-opacity:1;stroke-opacity:0.3" />
<line x1="388" y1="30" x2="407" y2="32" stroke="black" stroke-width="1" />
<line x1="407" y1="32" x2="427" y2="30" stroke="black" stroke-width="1" />
<rect x="373" y="28" width="15" height="5" style="fill:#5d3c2d;stroke:black;stroke-width:1;fill-opacity:1;stroke-opacity:0.3" />
<rect x="427" y="28" width="15" height="5" style="fill:#5d3c2d;stroke:black;stroke-width:1;fill-opacity:1;stroke-opacity:0.3" />
<line x1="389" y1="51" x2="392" y2="53" stroke="black" stroke-width="1" />
<line x1="392" y1="53" x2="396" y2="51" stroke="black" stroke-width="1" />
<rect x="375" y="49" width="14" height="5" style="fill:#5d3c2d;stroke:black;stroke-width:1;fill-opacity:1;stroke-opacity:0.3" />
<rect x="396" y="49" width="2" height="5" style="fill:#5d3c2d;stroke:black;stroke-width:1;fill-opacity:1;stroke-opacity:0.3" />
<line x1="399" y1="51" x2="427" y2="51" stroke="pink" stroke-width="1" />
<rect x="427" y="49" width="13" height="5" style="fill:#5d3c2d;stroke:black;stroke-width:1;fill-opacity:1;stroke-opacity:0.3" />
<line x1="400" y1="58" x2="403" y2="60" stroke="black" stroke-width="1" />
<line x1="403" y1="60" x2="407" y2="58" stroke="black" stroke-width="1" />
<rect x="385" y="56" width="15" height="5" style="fill:#5d3c2d;stroke:black;stroke-width:1;fill-opacity:1;stroke-opacity:0.3" />
<rect x="407" y="56" width="15" height="5" style="fill:#5d3c2d;stroke:black;stroke-width:1;fill-opacity:1;stroke-opacity:0.3" />
<line x1="430" y1="65" x2="435" y2="67" stroke="black" stroke-width="1" />
<line x1="435" y1="67" x2="440" y2="65" stroke="black" stroke-width="1" />
<rect x="386" y="63" width="4" height="5" style="fill:#5d3c2d;stroke:black;stroke-width:1;fill-opacity:1;stroke-opacity:0.3" />
<rect x="391" y="63" width="7" height="5" style="fill:#5d3c2d;stroke:black;stroke-width:1;fill-opacity:1;stroke-opacity:0.3" />
<line x1="399" y1="65" x2="426" y2="65" stroke="pink" stroke-width="1" />
<rect x="426" y="63" width="3" height="5" style="fill:#5d3c2d;stroke:black;stroke-width:1;fill-opacity:1;stroke-opacity:0.3" />
<rect x="440" y="63" width="15" height="5" style="fill:#5d3c2d;stroke:black;stroke-width:1;fill-opacity:1;stroke-opacity:0.3" />
<line x1="438" y1="72" x2="441" y2="74" stroke="black" stroke-width="1" />
<line x1="441" y1="74" x2="444" y2="72" stroke="black" stroke-width="1" />
<rect x="395" y="70" width="3" height="5" style="fill:#5d3c2d;stroke:black;stroke-width:1;fill-opacity:1;stroke-opacity:0.3" />
<line x1="399" y1="72" x2="427" y2="72" stroke="pink" stroke-width="1" />
<rect x="427" y="70" width="11" height="5" style="fill:#5d3c2d;stroke:black;stroke-width:1;fill-opacity:1;stroke-opacity:0.3" />
<rect x="444" y="70" width="15" height="5" style="fill:#5d3c2d;stroke:black;stroke-width:1;fill-opacity:1;stroke-opacity:0.3" />
<line x1="447" y1="37" x2="449" y2="39" stroke="black" stroke-width="1" />
<line x1="449" y1="39" x2="451" y2="37" stroke="black" stroke-width="1" />
<rect x="432" y="35" width="15" height="5" style="fill:#5d3c2d;stroke:black;stroke-width:1;fill-opacity:1;stroke-opacity:0.3" />
<rect x="451" y="35" width="15" height="5" style="fill:#5d3c2d;stroke:black;stroke-width:1;fill-opacity:1;stroke-opacity:0.3" />
<line x1="527" y1="30" x2="545" y2="32" stroke="black" stroke-width="1" />
<line x1="545" y1="32" x2="563" y2="30" stroke="black" stroke-width="1" />
<rect x="512" y="28" width="15" height="5" style="fill:#5d3c2d;stroke:black;stroke-width:1;fill-opacity:1;stroke-opacity:0.3" />
<rect x="563" y="28" width="15" height="5" style="fill:#5d3c2d;stroke:black;stroke-width:1;fill-opacity:1;stroke-opacity:0.3" />
<line x1="531" y1="37" x2="546" y2="39" stroke="black" stroke-width="1" />
<line x1="546" y1="39" x2="562" y2="37" stroke="black" stroke-width="1" />
<rect x="515" y="35" width="15" height="5" style="fill:#5d3c2d;stroke:black;stroke-width:1;fill-opacity:1;stroke-opacity:0.3" />
<rect x="562" y="35" width="15" height="5" style="fill:#5d3c2d;stroke:black;stroke-width:1;fill-opacity:1;stroke-opacity:0.3" />
<line x1="591" y1="44" x2="594" y2="46" stroke="black" stroke-width="1" />
<line x1="594" y1="46" x2="598" y2="44" stroke="black" stroke-width="1" />
<rect x="576" y="42" width="15" height="5" style="fill:#5d3c2d;stroke:black;stroke-width:1;fill-opacity:1;stroke-opacity:0.3" />
<rect x="598" y="42" width="15" height="5" style="fill:#5d3c2d;stroke:black;stroke-width:1;fill-opacity:1;stroke-opacity:0.3" />
<line x1="599" y1="30" x2="600" y2="32" stroke="black" stroke-width="1" />
<line x1="600" y1="32" x2="602" y2="30" stroke="black" stroke-width="1" />
<rect x="584" y="28" width="15" height="5" style="fill:#5d3c2d;stroke:black;stroke-width:1;fill-opacity:1;stroke-opacity:0.3" />
<rect x="602" y="28" width="15" height="5" style="fill:#5d3c2d;stroke:black;stroke-width:1;fill-opacity:1;stroke-opacity:0.3" />
<line x1="607" y1="37" x2="608" y2="39" stroke="black" stroke-width="1" />
<line x1="608" y1="39" x2="609" y2="37" stroke="black" stroke-width="1" />
<rect x="591" y="35" width="15" height="5" style="fill:#5d3c2d;stroke:black;stroke-width:1;fill-opacity:1;stroke-opacity:0.3" />
<rect x="609" y="35" width="15" height="5" style="fill:#5d3c2d;stroke:black;stroke-width:1;fill-opacity:1;stroke-opacity:0.3" />
<line x1="615" y1="51" x2="617" y2="53" stroke="black" stroke-width="1" />
<line x1="617" y1="53" x2="620" y2="51" stroke="black" stroke-width="1" />
<rect x="599" y="49" width="15" height="5" style="fill:#5d3c2d;stroke:black;stroke-width:1;fill-opacity:1;stroke-opacity:0.3" />
<rect x="620" y="49" width="15" height="5" style="fill:#5d3c2d;stroke:black;stroke-width:1;fill-opacity:1;stroke-opacity:0.3" />
<line x1="615" y1="58" x2="616" y2="60" stroke="black" stroke-width="1" />
<line x1="616" y1="60" x2="617" y2="58" stroke="black" stroke-width="1" />
<rect x="600" y="56" width="15" height="5" style="fill:#5d3c2d;stroke:black;stroke-width:1;fill-opacity:1;stroke-opacity:0.3" />
<rect x="617" y="56" width="15" height="5" style="fill:#5d3c2d;stroke:black;stroke-width:1;fill-opacity:1;stroke-opacity:0.3" />
<line x1="618" y1="65" x2="619" y2="67" stroke="black" stroke-width="1" />
<line x1="619" y1="67" x2="620" y2="65" stroke="black" stroke-width="1" />
<rect x="603" y="63" width="15" height="5" style="fill:#5d3c2d;stroke:black;stroke-width:1;fill-opacity:1;stroke-opacity:0.3" />
<rect x="620" y="63" width="15" height="5" style="fill:#5d3c2d;stroke:black;stroke-width:1;fill-opacity:1;stroke-opacity:0.3" />
<line x1="618" y1="72" x2="619" y2="74" stroke="black" stroke-width="1" />
<line x1="619" y1="74" x2="620" y2="72" stroke="black" stroke-width="1" />
<rect x="603" y="70" width="15" height="5" style="fill:#5d3c2d;stroke:black;stroke-width:1;fill-opacity:1;stroke-opacity:0.3" />
<rect x="620" y="70" width="15" height="5" style="fill:#5d3c2d;stroke:black;stroke-width:1;fill-opacity:1;stroke-opacity:0.3" />
<line x1="624" y1="79" x2="649" y2="81" stroke="black" stroke-width="1" />
<line x1="649" y1="81" x2="675" y2="79" stroke="black" stroke-width="1" />
<rect x="609" y="77" width="15" height="5" style="fill:#5d3c2d;stroke:black;stroke-width:1;fill-opacity:1;stroke-opacity:0.3" />
<rect x="675" y="77" width="13" height="5" style="fill:#5d3c2d;stroke:black;stroke-width:1;fill-opacity:1;stroke-opacity:0.3" />
<line x1="626" y1="86" x2="651" y2="88" stroke="black" stroke-width="1" />
<line x1="651" y1="88" x2="676" y2="86" stroke="black" stroke-width="1" />
<rect x="611" y="84" width="14" height="5" style="fill:#5d3c2d;stroke:black;stroke-width:1;fill-opacity:1;stroke-opacity:0.3" />
<rect x="676" y="84" width="15" height="5" style="fill:#5d3c2d;stroke:black;stroke-width:1;fill-opacity:1;stroke-opacity:0.3" />
<line x1="633" y1="30" x2="657" y2="32" stroke="black" stroke-width="1" />
<line x1="657" y1="32" x2="682" y2="30" stroke="black" stroke-width="1" />
<rect x="618" y="28" width="15" height="5" style="fill:#5d3c2d;stroke:black;stroke-width:1;fill-opacity:1;stroke-opacity:0.3" />
<rect x="682" y="28" width="13" height="5" style="fill:#5d3c2d;stroke:black;stroke-width:1;fill-opacity:1;stroke-opacity:0.3" />
<line x1="637" y1="44" x2="658" y2="46" stroke="black" stroke-width="1" />
<line x1="658" y1="46" x2="680" y2="44" stroke="black" stroke-width="1" />
<rect x="621" y="42" width="15" height="5" style="fill:#5d3c2d;stroke:black;stroke-width:1;fill-opacity:1;stroke-opacity:0.3" />
<rect x="680" y="42" width="15" height="5" style="fill:#5d3c2d;stroke:black;stroke-width:1;fill-opacity:1;stroke-opacity:0.3" />
<line x1="685" y1="37" x2="689" y2="39" stroke="black" stroke-width="1" />
<line x1="689" y1="39" x2="693" y2="37" stroke="black" stroke-width="1" />
<rect x="631" y="35" width="6" height="5" style="fill:#5d3c2d;stroke:black;stroke-width:1;fill-opacity:1;stroke-opacity:0.3" />
<line x1="637" y1="37" x2="675" y2="37" stroke="pink" stroke-width="1" />
<rect x="675" y="35" width="9" height="5" style="fill:#5d3c2d;stroke:black;stroke-width:1;fill-opacity:1;stroke-opacity:0.3" />
<rect x="693" y="35" width="5" height="5" style="fill:#5d3c2d;stroke:black;stroke-width:1;fill-opacity:1;stroke-opacity:0.3" />
<line x1="698" y1="37" x2="738" y2="37" stroke="pink" stroke-width="1" />
<rect x="738" y="35" width="10" height="5" style="fill:#5d3c2d;stroke:black;stroke-width:1;fill-opacity:1;stroke-opacity:0.3" />
<line x1="670" y1="51" x2="671" y2="53" stroke="black" stroke-width="1" />
<line x1="671" y1="53" x2="673" y2="51" stroke="black" stroke-width="1" />
<rect x="655" y="49" width="14" height="5" style="fill:#5d3c2d;stroke:black;stroke-width:1;fill-opacity:1;stroke-opacity:0.3" />
<rect x="673" y="49" width="15" height="5" style="fill:#5d3c2d;stroke:black;stroke-width:1;fill-opacity:1;stroke-opacity:0.3" />
<line x1="676" y1="58" x2="678" y2="60" stroke="black" stroke-width="1" />
<line x1="678" y1="60" x2="680" y2="58" stroke="black" stroke-width="1" />
<rect x="660" y="56" width="15" height="5" style="fill:#5d3c2d;stroke:black;stroke-width:1;fill-opacity:1;stroke-opacity:0.3" />
<rect x="680" y="56" width="15" height="5" style="fill:#5d3c2d;stroke:black;stroke-width:1;fill-opacity:1;stroke-opacity:0.3" />
<line x1="695" y1="65" x2="718" y2="67" stroke="black" stroke-width="1" />
<line x1="718" y1="67" x2="742" y2="65" stroke="black" stroke-width="1" />
<rect x="680" y="63" width="15" height="5" style="fill:#5d3c2d;stroke:black;stroke-width:1;fill-opacity:1;stroke-opacity:0.3" />
<rect x="742" y="63" width="15" height="5" style="fill:#5d3c2d;stroke:black;stroke-width:1;fill-opacity:1;stroke-opacity:0.3" />
<line x1="696" y1="72" x2="719" y2="74" stroke="black" stroke-width="1" />
<line x1="719" y1="74" x2="743" y2="72" stroke="black" stroke-width="1" />
<rect x="681" y="70" width="15" height="5" style="fill:#5d3c2d;stroke:black;stroke-width:1;fill-opacity:1;stroke-opacity:0.3" />
<rect x="743" y="70" width="15" height="5" style="fill:#5d3c2d;stroke:black;stroke-width:1;fill-opacity:1;stroke-opacity:0.3" />
<line x1="741" y1="93" x2="744" y2="95" stroke="black" stroke-width="1" />
<line x1="744" y1="95" x2="747" y2="93" stroke="black" stroke-width="1" />
<rect x="686" y="91" width="12" height="5" style="fill:#5d3c2d;stroke:black;stroke-width:1;fill-opacity:1;stroke-opacity:0.3" />
<line x1="698" y1="93" x2="738" y2="93" stroke="pink" stroke-width="1" />
<rect x="738" y="91" width="3" height="5" style="fill:#5d3c2d;stroke:black;stroke-width:1;fill-opacity:1;stroke-opacity:0.3" />
<rect x="747" y="91" width="15" height="5" style="fill:#5d3c2d;stroke:black;stroke-width:1;fill-opacity:1;stroke-opacity:0.3" />
<line x1="741" y1="100" x2="744" y2="102" stroke="black" stroke-width="1" />
<line x1="744" y1="102" x2="747" y2="100" stroke="black" stroke-width="1" />
<rect x="686" y="98" width="12" height="5" style="fill:#5d3c2d;stroke:black;stroke-width:1;fill-opacity:1;stroke-opacity:0.3" />
<line x1="698" y1="100" x2="738" y2="100" stroke="pink" stroke-width="1" />
<rect x="738" y="98" width="3" height="5" style="fill:#5d3c2d;stroke:black;stroke-width:1;fill-opacity:1;stroke-opacity:0.3" />
<rect x="747" y="98" width="15" height="5" style="fill:#5d3c2d;stroke:black;stroke-width:1;fill-opacity:1;stroke-opacity:0.3" />
<line x1="743" y1="107" x2="745" y2="109" stroke="black" stroke-width="1" />
<line x1="745" y1="109" x2="748" y2="107" stroke="black" stroke-width="1" />
<rect x="687" y="105" width="11" height="5" style="fill:#5d3c2d;stroke:black;stroke-width:1;fill-opacity:1;stroke-opacity:0.3" />
<line x1="698" y1="107" x2="738" y2="107" stroke="pink" stroke-width="1" />
<rect x="738" y="105" width="4" height="5" style="fill:#5d3c2d;stroke:black;stroke-width:1;fill-opacity:1;stroke-opacity:0.3" />
<rect x="748" y="105" width="15" height="5" style="fill:#5d3c2d;stroke:black;stroke-width:1;fill-opacity:1;stroke-opacity:0.3" />
<line x1="743" y1="114" x2="746" y2="116" stroke="black" stroke-width="1" />
<line x1="746" y1="116" x2="749" y2="114" stroke="black" stroke-width="1" />
<rect x="687" y="112" width="10" height="5" style="fill:#5d3c2d;stroke:black;stroke-width:1;fill-opacity:1;stroke-opacity:0.3" />
<line x1="698" y1="114" x2="738" y2="114" stroke="pink" stroke-width="1" />
<rect x="738" y="112" width="4" height="5" style="fill:#5d3c2d;stroke:black;stroke-width:1;fill-opacity:1;stroke-opacity:0.3" />
<rect x="749" y="112" width="15" height="5" style="fill:#5d3c2d;stroke:black;stroke-width:1;fill-opacity:1;stroke-opacity:0.3" />
<line x1="761" y1="30" x2="761" y2="32" stroke="black" stroke-width="1" />
<line x1="761" y1="32" x2="762" y2="30" stroke="black" stroke-width="1" />
<rect x="745" y="28" width="15" height="5" style="fill:#5d3c2d;stroke:black;stroke-width:1;fill-opacity:1;stroke-opacity:0.3" />
<rect x="762" y="28" width="15" height="5" style="fill:#5d3c2d;stroke:black;stroke-width:1;fill-opacity:1;stroke-opacity:0.3" />
<line x1="765" y1="37" x2="770" y2="39" stroke="black" stroke-width="1" />
<line x1="770" y1="39" x2="776" y2="37" stroke="black" stroke-width="1" />
<rect x="749" y="35" width="15" height="5" style="fill:#5d3c2d;stroke:black;stroke-width:1;fill-opacity:1;stroke-opacity:0.3" />
<rect x="776" y="35" width="15" height="5" style="fill:#5d3c2d;stroke:black;stroke-width:1;fill-opacity:1;stroke-opacity:0.3" />
<line x1="775" y1="44" x2="784" y2="46" stroke="black" stroke-width="1" />
<line x1="784" y1="46" x2="793" y2="44" stroke="black" stroke-width="1" />
<rect x="759" y="42" width="15" height="5" style="fill:#5d3c2d;stroke:black;stroke-width:1;fill-opacity:1;stroke-opacity:0.3" />
<rect x="793" y="42" width="15" height="5" style="fill:#5d3c2d;stroke:black;stroke-width:1;fill-opacity:1;stroke-opacity:0.3" />
<line x1="786" y1="51" x2="787" y2="53" stroke="black" stroke-width="1" />
<line x1="787" y1="53" x2="789" y2="51" stroke="black" stroke-width="1" />
<rect x="771" y="49" width="15" height="5" style="fill:#5d3c2d;stroke:black;stroke-width:1;fill-opacity:1;stroke-opacity:0.3" />
<rect x="789" y="49" width="15" height="5" style="fill:#5d3c2d;stroke:black;stroke-width:1;fill-opacity:1;stroke-opacity:0.3" />
<line x1="789" y1="58" x2="791" y2="60" stroke="black" stroke-width="1" />
<line x1="791" y1="60" x2="793" y2="58" stroke="black" stroke-width="1" />
<rect x="773" y="56" width="15" height="5" style="fill:#5d3c2d;stroke:black;stroke-width:1;fill-opacity:1;stroke-opacity:0.3" />
<rect x="793" y="56" width="15" height="5" style="fill:#5d3c2d;stroke:black;stroke-width:1;fill-opacity:1;stroke-opacity:0.3" />
<line x1="791" y1="65" x2="793" y2="67" stroke="black" stroke-width="1" />
<line x1="793" y1="67" x2="796" y2="65" stroke="black" stroke-width="1" />
<rect x="775" y="63" width="15" height="5" style="fill:#5d3c2d;stroke:black;stroke-width:1;fill-opacity:1;stroke-opacity:0.3" />
<rect x="796" y="63" width="15" height="5" style="fill:#5d3c2d;stroke:black;stroke-width:1;fill-opacity:1;stroke-opacity:0.3" />
<line x1="792" y1="72" x2="795" y2="74" stroke="black" stroke-width="1" />
<line x1="795" y1="74" x2="798" y2="72" stroke="black" stroke-width="1" />
<rect x="777" y="70" width="15" height="5" style="fill:#5d3c2d;stroke:black;stroke-width:1;fill-opacity:1;stroke-opacity:0.3" />
<rect x="798" y="70" width="15" height="5" style="fill:#5d3c2d;stroke:black;stroke-width:1;fill-opacity:1;stroke-opacity:0.3" />
<line x1="802" y1="30" x2="803" y2="32" stroke="black" stroke-width="1" />
<line x1="803" y1="32" x2="804" y2="30" stroke="black" stroke-width="1" />
<rect x="787" y="28" width="15" height="5" style="fill:#5d3c2d;stroke:black;stroke-width:1;fill-opacity:1;stroke-opacity:0.3" />
<rect x="804" y="28" width="14" height="5" style="fill:#5d3c2d;stroke:black;stroke-width:1;fill-opacity:1;stroke-opacity:0.3" />
<line x1="803" y1="79" x2="806" y2="81" stroke="black" stroke-width="1" />
<line x1="806" y1="81" x2="809" y2="79" stroke="black" stroke-width="1" />
<rect x="788" y="77" width="15" height="5" style="fill:#5d3c2d;stroke:black;stroke-width:1;fill-opacity:1;stroke-opacity:0.3" />
<rect x="809" y="77" width="15" height="5" style="fill:#5d3c2d;stroke:black;stroke-width:1;fill-opacity:1;stroke-opacity:0.3" />
<line x1="805" y1="86" x2="807" y2="88" stroke="black" stroke-width="1" />
<line x1="807" y1="88" x2="809" y2="86" stroke="black" stroke-width="1" />
<rect x="789" y="84" width="15" height="5" style="fill:#5d3c2d;stroke:black;stroke-width:1;fill-opacity:1;stroke-opacity:0.3" />
<rect x="809" y="84" width="15" height="5" style="fill:#5d3c2d;stroke:black;stroke-width:1;fill-opacity:1;stroke-opacity:0.3" />
<line x1="823" y1="37" x2="828" y2="39" stroke="black" stroke-width="1" />
<line x1="828" y1="39" x2="834" y2="37" stroke="black" stroke-width="1" />
<rect x="808" y="35" width="15" height="5" style="fill:#5d3c2d;stroke:black;stroke-width:1;fill-opacity:1;stroke-opacity:0.3" />
<rect x="834" y="35" width="14" height="5" style="fill:#5d3c2d;stroke:black;stroke-width:1;fill-opacity:1;stroke-opacity:0.3" />
<line x1="830" y1="44" x2="832" y2="46" stroke="black" stroke-width="1" />
<line x1="832" y1="46" x2="835" y2="44" stroke="black" stroke-width="1" />
<rect x="814" y="42" width="15" height="5" style="fill:#5d3c2d;stroke:black;stroke-width:1;fill-opacity:1;stroke-opacity:0.3" />
<rect x="835" y="42" width="12" height="5" style="fill:#5d3c2d;stroke:black;stroke-width:1;fill-opacity:1;stroke-opacity:0.3" />
<line x1="831" y1="51" x2="832" y2="53" stroke="black" stroke-width="1" />
<line x1="832" y1="53" x2="834" y2="51" stroke="black" stroke-width="1" />
<rect x="815" y="49" width="15" height="5" style="fill:#5d3c2d;stroke:black;stroke-width:1;fill-opacity:1;stroke-opacity:0.3" />
<rect x="834" y="49" width="14" height="5" style="fill:#5d3c2d;stroke:black;stroke-width:1;fill-opacity:1;stroke-opacity:0.3" />
<line x1="833" y1="58" x2="833" y2="60" stroke="black" stroke-width="1" />
<line x1="833" y1="60" x2="834" y2="58" stroke="black" stroke-width="1" />
<rect x="817" y="56" width="15" height="5" style="fill:#5d3c2d;stroke:black;stroke-width:1;fill-opacity:1;stroke-opacity:0.3" />
<rect x="834" y="56" width="14" height="5" style="fill:#5d3c2d;stroke:black;stroke-width:1;fill-opacity:1;stroke-opacity:0.3" />
<line x1="842" y1="30" x2="843" y2="32" stroke="black" stroke-width="1" />
<line x1="843" y1="32" x2="845" y2="30" stroke="black" stroke-width="1" />
<rect x="826" y="28" width="15" height="5" style="fill:#5d3c2d;stroke:black;stroke-width:1;fill-opacity:1;stroke-opacity:0.3" />
<rect x="845" y="28" width="15" height="5" style="fill:#5d3c2d;stroke:black;stroke-width:1;fill-opacity:1;stroke-opacity:0.3" />
<line x1="864" y1="44" x2="866" y2="46" stroke="black" stroke-width="1" />
<line x1="866" y1="46" x2="869" y2="44" stroke="black" stroke-width="1" />
<rect x="848" y="42" width="15" height="5" style="fill:#5d3c2d;stroke:black;stroke-width:1;fill-opacity:1;stroke-opacity:0.3" />
<rect x="869" y="42" width="15" height="5" style="fill:#5d3c2d;stroke:black;stroke-width:1;fill-opacity:1;stroke-opacity:0.3" />
<line x1="864" y1="37" x2="866" y2="39" stroke="black" stroke-width="1" />
<line x1="866" y1="39" x2="869" y2="37" stroke="black" stroke-width="1" />
<rect x="849" y="35" width="15" height="5" style="fill:#5d3c2d;stroke:black;stroke-width:1;fill-opacity:1;stroke-opacity:0.3" />
<rect x="869" y="35" width="15" height="5" style="fill:#5d3c2d;stroke:black;stroke-width:1;fill-opacity:1;stroke-opacity:0.3" />
<line x1="866" y1="51" x2="868" y2="53" stroke="black" stroke-width="1" />
<line x1="868" y1="53" x2="870" y2="51" stroke="black" stroke-width="1" />
<rect x="850" y="49" width="15" height="5" style="fill:#5d3c2d;stroke:black;stroke-width:1;fill-opacity:1;stroke-opacity:0.3" />
<rect x="870" y="49" width="15" height="5" style="fill:#5d3c2d;stroke:black;stroke-width:1;fill-opacity:1;stroke-opacity:0.3" />
<line x1="869" y1="58" x2="872" y2="60" stroke="black" stroke-width="1" />
<line x1="872" y1="60" x2="876" y2="58" stroke="black" stroke-width="1" />
<rect x="854" y="56" width="15" height="5" style="fill:#5d3c2d;stroke:black;stroke-width:1;fill-opacity:1;stroke-opacity:0.3" />
<rect x="876" y="56" width="15" height="5" style="fill:#5d3c2d;stroke:black;stroke-width:1;fill-opacity:1;stroke-opacity:0.3" />
<line x1="870" y1="65" x2="871" y2="67" stroke="black" stroke-width="1" />
<line x1="871" y1="67" x2="872" y2="65" stroke="black" stroke-width="1" />
<rect x="855" y="63" width="15" height="5" style="fill:#5d3c2d;stroke:black;stroke-width:1;fill-opacity:1;stroke-opacity:0.3" />
<rect x="872" y="63" width="15" height="5" style="fill:#5d3c2d;stroke:black;stroke-width:1;fill-opacity:1;stroke-opacity:0.3" />
<line x1="874" y1="72" x2="877" y2="74" stroke="black" stroke-width="1" />
<line x1="877" y1="74" x2="880" y2="72" stroke="black" stroke-width="1" />
<rect x="858" y="70" width="15" height="5" style="fill:#5d3c2d;stroke:black;stroke-width:1;fill-opacity:1;stroke-opacity:0.3" />
<rect x="880" y="70" width="15" height="5" style="fill:#5d3c2d;stroke:black;stroke-width:1;fill-opacity:1;stroke-opacity:0.3" />
<line x1="876" y1="79" x2="882" y2="81" stroke="black" stroke-width="1" />
<line x1="882" y1="81" x2="889" y2="79" stroke="black" stroke-width="1" />
<rect x="860" y="77" width="15" height="5" style="fill:#5d3c2d;stroke:black;stroke-width:1;fill-opacity:1;stroke-opacity:0.3" />
<rect x="889" y="77" width="15" height="5" style="fill:#5d3c2d;stroke:black;stroke-width:1;fill-opacity:1;stroke-opacity:0.3" />
<line x1="877" y1="30" x2="878" y2="32" stroke="black" stroke-width="1" />
<line x1="878" y1="32" x2="880" y2="30" stroke="black" stroke-width="1" />
<rect x="861" y="28" width="15" height="5" style="fill:#5d3c2d;stroke:black;stroke-width:1;fill-opacity:1;stroke-opacity:0.3" />
<rect x="880" y="28" width="15" height="5" style="fill:#5d3c2d;stroke:black;stroke-width:1;fill-opacity:1;stroke-opacity:0.3" />
<line x1="877" y1="86" x2="887" y2="88" stroke="black" stroke-width="1" />
<line x1="887" y1="88" x2="898" y2="86" stroke="black" stroke-width="1" />
<rect x="862" y="84" width="15" height="5" style="fill:#5d3c2d;stroke:black;stroke-width:1;fill-opacity:1;stroke-opacity:0.3" />
<rect x="898" y="84" width="15" height="5" style="fill:#5d3c2d;stroke:black;stroke-width:1;fill-opacity:1;stroke-opacity:0.3" />
<line x1="877" y1="93" x2="878" y2="95" stroke="black" stroke-width="1" />
<line x1="878" y1="95" x2="880" y2="93" stroke="black" stroke-width="1" />
<rect x="862" y="91" width="15" height="5" style="fill:#5d3c2d;stroke:black;stroke-width:1;fill-opacity:1;stroke-opacity:0.3" />
<rect x="880" y="91" width="15" height="5" style="fill:#5d3c2d;stroke:black;stroke-width:1;fill-opacity:1;stroke-opacity:0.3" />
<line x1="879" y1="100" x2="879" y2="102" stroke="black" stroke-width="1" />
<line x1="879" y1="102" x2="880" y2="100" stroke="black" stroke-width="1" />
<rect x="863" y="98" width="15" height="5" style="fill:#5d3c2d;stroke:black;stroke-width:1;fill-opacity:1;stroke-opacity:0.3" />
<rect x="880" y="98" width="15" height="5" style="fill:#5d3c2d;stroke:black;stroke-width:1;fill-opacity:1;stroke-opacity:0.3" />
<line x1="884" y1="107" x2="886" y2="109" stroke="black" stroke-width="1" />
<line x1="886" y1="109" x2="888" y2="107" stroke="black" stroke-width="1" />
<rect x="868" y="105" width="15" height="5" style="fill:#5d3c2d;stroke:black;stroke-width:1;fill-opacity:1;stroke-opacity:0.3" />
<rect x="888" y="105" width="14" height="5" style="fill:#5d3c2d;stroke:black;stroke-width:1;fill-opacity:1;stroke-opacity:0.3" />
<line x1="884" y1="114" x2="891" y2="116" stroke="black" stroke-width="1" />
<line x1="891" y1="116" x2="898" y2="114" stroke="black" stroke-width="1" />
<rect x="868" y="112" width="15" height="5" style="fill:#5d3c2d;stroke:black;stroke-width:1;fill-opacity:1;stroke-opacity:0.3" />
<rect x="898" y="112" width="15" height="5" style="fill:#5d3c2d;stroke:black;stroke-width:1;fill-opacity:1;stroke-opacity:0.3" />
<line x1="886" y1="121" x2="887" y2="123" stroke="black" stroke-width="1" />
<line x1="887" y1="123" x2="888" y2="121" stroke="black" stroke-width="1" />
<rect x="871" y="119" width="15" height="5" style="fill:#5d3c2d;stroke:black;stroke-width:1;fill-opacity:1;stroke-opacity:0.3" />
<rect x="888" y="119" width="15" height="5" style="fill:#5d3c2d;stroke:black;stroke-width:1;fill-opacity:1;stroke-opacity:0.3" />
<line x1="886" y1="128" x2="889" y2="130" stroke="black" stroke-width="1" />
<line x1="889" y1="130" x2="892" y2="128" stroke="black" stroke-width="1" />
<rect x="871" y="126" width="15" height="5" style="fill:#5d3c2d;stroke:black;stroke-width:1;fill-opacity:1;stroke-opacity:0.3" />
<rect x="892" y="126" width="15" height="5" style="fill:#5d3c2d;stroke:black;stroke-width:1;fill-opacity:1;stroke-opacity:0.3" />
<line x1="887" y1="135" x2="888" y2="137" stroke="black" stroke-width="1" />
<line x1="888" y1="137" x2="889" y2="135" stroke="black" stroke-width="1" />
<rect x="871" y="133" width="15" height="5" style="fill:#5d3c2d;stroke:black;stroke-width:1;fill-opacity:1;stroke-opacity:0.3" />
<rect x="889" y="133" width="15" height="5" style="fill:#5d3c2d;stroke:black;stroke-width:1;fill-opacity:1;stroke-opacity:0.3" />
<line x1="887" y1="142" x2="888" y2="144" stroke="black" stroke-width="1" />
<line x1="888" y1="144" x2="890" y2="142" stroke="black" stroke-width="1" />
<rect x="872" y="140" width="15" height="5" style="fill:#5d3c2d;stroke:black;stroke-width:1;fill-opacity:1;stroke-opacity:0.3" />
<rect x="890" y="140" width="15" height="5" style="fill:#5d3c2d;stroke:black;stroke-width:1;fill-opacity:1;stroke-opacity:0.3" />
<line x1="890" y1="149" x2="891" y2="151" stroke="black" stroke-width="1" />
<line x1="891" y1="151" x2="893" y2="149" stroke="black" stroke-width="1" />
<rect x="875" y="147" width="15" height="5" style="fill:#5d3c2d;stroke:black;stroke-width:1;fill-opacity:1;stroke-opacity:0.3" />
<rect x="893" y="147" width="15" height="5" style="fill:#5d3c2d;stroke:black;stroke-width:1;fill-opacity:1;stroke-opacity:0.3" />
<line x1="891" y1="156" x2="895" y2="158" stroke="black" stroke-width="1" />
<line x1="895" y1="158" x2="900" y2="156" stroke="black" stroke-width="1" />
<rect x="875" y="154" width="15" height="5" style="fill:#5d3c2d;stroke:black;stroke-width:1;fill-opacity:1;stroke-opacity:0.3" />
<rect x="900" y="154" width="15" height="5" style="fill:#5d3c2d;stroke:black;stroke-width:1;fill-opacity:1;stroke-opacity:0.3" />
<line x1="891" y1="163" x2="894" y2="165" stroke="black" stroke-width="1" />
<line x1="894" y1="165" x2="897" y2="163" stroke="black" stroke-width="1" />
<rect x="876" y="161" width="15" height="5" style="fill:#5d3c2d;stroke:black;stroke-width:1;fill-opacity:1;stroke-opacity:0.3" />
<rect x="897" y="161" width="15" height="5" style="fill:#5d3c2d;stroke:black;stroke-width:1;fill-opacity:1;stroke-opacity:0.3" />
<line x1="902" y1="37" x2="904" y2="39" stroke="black" stroke-width="1" />
<line x1="904" y1="39" x2="907" y2="37" stroke="black" stroke-width="1" />
<rect x="887" y="35" width="15" height="5" style="fill:#5d3c2d;stroke:black;stroke-width:1;fill-opacity:1;stroke-opacity:0.3" />
<rect x="907" y="35" width="15" height="5" style="fill:#5d3c2d;stroke:black;stroke-width:1;fill-opacity:1;stroke-opacity:0.3" />
<line x1="907" y1="44" x2="909" y2="46" stroke="black" stroke-width="1" />
<line x1="909" y1="46" x2="911" y2="44" stroke="black" stroke-width="1" />
<rect x="892" y="42" width="15" height="5" style="fill:#5d3c2d;stroke:black;stroke-width:1;fill-opacity:1;stroke-opacity:0.3" />
<rect x="911" y="42" width="15" height="5" style="fill:#5d3c2d;stroke:black;stroke-width:1;fill-opacity:1;stroke-opacity:0.3" />
<line x1="911" y1="51" x2="911" y2="53" stroke="black" stroke-width="1" />
<line x1="911" y1="53" x2="912" y2="51" stroke="black" stroke-width="1" />
<rect x="895" y="49" width="15" height="5" style="fill:#5d3c2d;stroke:black;stroke-width:1;fill-opacity:1;stroke-opacity:0.3" />
<rect x="912" y="49" width="15" height="5" style="fill:#5d3c2d;stroke:black;stroke-width:1;fill-opacity:1;stroke-opacity:0.3" />
<line x1="911" y1="58" x2="912" y2="60" stroke="black" stroke-width="1" />
<line x1="912" y1="60" x2="914" y2="58" stroke="black" stroke-width="1" />
<rect x="895" y="56" width="15" height="5" style="fill:#5d3c2d;stroke:black;stroke-width:1;fill-opacity:1;stroke-opacity:0.3" />
<rect x="914" y="56" width="15" height="5" style="fill:#5d3c2d;stroke:black;stroke-width:1;fill-opacity:1;stroke-opacity:0.3" />
<line x1="911" y1="65" x2="912" y2="67" stroke="black" stroke-width="1" />
<line x1="912" y1="67" x2="914" y2="65" stroke="black" stroke-width="1" />
<rect x="895" y="63" width="15" height="5" style="fill:#5d3c2d;stroke:black;stroke-width:1;fill-opacity:1;stroke-opacity:0.3" />
<rect x="914" y="63" width="15" height="5" style="fill:#5d3c2d;stroke:black;stroke-width:1;fill-opacity:1;stroke-opacity:0.3" />
<line x1="912" y1="30" x2="913" y2="32" stroke="black" stroke-width="1" />
<line x1="913" y1="32" x2="914" y2="30" stroke="black" stroke-width="1" />
<rect x="896" y="28" width="15" height="5" style="fill:#5d3c2d;stroke:black;stroke-width:1;fill-opacity:1;stroke-opacity:0.3" />
<rect x="914" y="28" width="15" height="5" style="fill:#5d3c2d;stroke:black;stroke-width:1;fill-opacity:1;stroke-opacity:0.3" />
<line x1="914" y1="72" x2="917" y2="74" stroke="black" stroke-width="1" />
<line x1="917" y1="74" x2="920" y2="72" stroke="black" stroke-width="1" />
<rect x="899" y="70" width="15" height="5" style="fill:#5d3c2d;stroke:black;stroke-width:1;fill-opacity:1;stroke-opacity:0.3" />
<rect x="920" y="70" width="15" height="5" style="fill:#5d3c2d;stroke:black;stroke-width:1;fill-opacity:1;stroke-opacity:0.3" />
<line x1="918" y1="93" x2="920" y2="95" stroke="black" stroke-width="1" />
<line x1="920" y1="95" x2="923" y2="93" stroke="black" stroke-width="1" />
<rect x="903" y="91" width="15" height="5" style="fill:#5d3c2d;stroke:black;stroke-width:1;fill-opacity:1;stroke-opacity:0.3" />
<rect x="923" y="91" width="15" height="5" style="fill:#5d3c2d;stroke:black;stroke-width:1;fill-opacity:1;stroke-opacity:0.3" />
<line x1="918" y1="100" x2="920" y2="102" stroke="black" stroke-width="1" />
<line x1="920" y1="102" x2="922" y2="100" stroke="black" stroke-width="1" />
<rect x="903" y="98" width="15" height="5" style="fill:#5d3c2d;stroke:black;stroke-width:1;fill-opacity:1;stroke-opacity:0.3" />
<rect x="922" y="98" width="15" height="5" style="fill:#5d3c2d;stroke:black;stroke-width:1;fill-opacity:1;stroke-opacity:0.3" />
<line x1="927" y1="79" x2="928" y2="81" stroke="black" stroke-width="1" />
<line x1="928" y1="81" x2="929" y2="79" stroke="black" stroke-width="1" />
<rect x="912" y="77" width="15" height="5" style="fill:#f5b024;stroke:black;stroke-width:1;fill-opacity:1;stroke-opacity:0.3" />
<rect x="929" y="77" width="15" height="5" style="fill:#f5b024;stroke:black;stroke-width:1;fill-opacity:1;stroke-opacity:0.3" />
<line x1="927" y1="107" x2="928" y2="109" stroke="black" stroke-width="1" />
<line x1="928" y1="109" x2="929" y2="107" stroke="black" stroke-width="1" />
<rect x="912" y="105" width="15" height="5" style="fill:#f5b024;stroke:black;stroke-width:1;fill-opacity:1;stroke-opacity:0.3" />
<rect x="929" y="105" width="15" height="5" style="fill:#f5b024;stroke:black;stroke-width:1;fill-opacity:1;stroke-opacity:0.3" />
<line x1="932" y1="86" x2="936" y2="88" stroke="black" stroke-width="1" />
<line x1="936" y1="88" x2="941" y2="86" stroke="black" stroke-width="1" />
<rect x="916" y="84" width="15" height="5" style="fill:#5d3c2d;stroke:black;stroke-width:1;fill-opacity:1;stroke-opacity:0.3" />
<rect x="941" y="84" width="15" height="5" style="fill:#5d3c2d;stroke:black;stroke-width:1;fill-opacity:1;stroke-opacity:0.3" />
<line x1="933" y1="114" x2="936" y2="116" stroke="black" stroke-width="1" />
<line x1="936" y1="116" x2="939" y2="114" stroke="black" stroke-width="1" />
<rect x="917" y="112" width="15" height="5" style="fill:#5d3c2d;stroke:black;stroke-width:1;fill-opacity:1;stroke-opacity:0.3" />
<rect x="939" y="112" width="15" height="5" style="fill:#5d3c2d;stroke:black;stroke-width:1;fill-opacity:1;stroke-opacity:0.3" />
<line x1="935" y1="121" x2="937" y2="123" stroke="black" stroke-width="1" />
<line x1="937" y1="123" x2="939" y2="121" stroke="black" stroke-width="1" />
<rect x="920" y="119" width="15" height="5" style="fill:#5d3c2d;stroke:black;stroke-width:1;fill-opacity:1;stroke-opacity:0.3" />
<rect x="939" y="119" width="15" height="5" style="fill:#5d3c2d;stroke:black;stroke-width:1;fill-opacity:1;stroke-opacity:0.3" />
<line x1="946" y1="30" x2="947" y2="32" stroke="black" stroke-width="1" />
<line x1="947" y1="32" x2="949" y2="30" stroke="black" stroke-width="1" />
<rect x="931" y="28" width="15" height="5" style="fill:#5d3c2d;stroke:black;stroke-width:1;fill-opacity:1;stroke-opacity:0.3" />
<rect x="949" y="28" width="15" height="5" style="fill:#5d3c2d;stroke:black;stroke-width:1;fill-opacity:1;stroke-opacity:0.3" />
<line x1="946" y1="37" x2="947" y2="39" stroke="black" stroke-width="1" />
<line x1="947" y1="39" x2="949" y2="37" stroke="black" stroke-width="1" />
<rect x="931" y="35" width="15" height="5" style="fill:#5d3c2d;stroke:black;stroke-width:1;fill-opacity:1;stroke-opacity:0.3" />
<rect x="949" y="35" width="15" height="5" style="fill:#5d3c2d;stroke:black;stroke-width:1;fill-opacity:1;stroke-opacity:0.3" />
<line x1="948" y1="44" x2="949" y2="46" stroke="black" stroke-width="1" />
<line x1="949" y1="46" x2="950" y2="44" stroke="black" stroke-width="1" />
<rect x="932" y="42" width="15" height="5" style="fill:#5d3c2d;stroke:black;stroke-width:1;fill-opacity:1;stroke-opacity:0.3" />
<rect x="950" y="42" width="15" height="5" style="fill:#5d3c2d;stroke:black;stroke-width:1;fill-opacity:1;stroke-opacity:0.3" />
<line x1="950" y1="51" x2="951" y2="53" stroke="black" stroke-width="1" />
<line x1="951" y1="53" x2="953" y2="51" stroke="black" stroke-width="1" />
<rect x="934" y="49" width="15" height="5" style="fill:#5d3c2d;stroke:black;stroke-width:1;fill-opacity:1;stroke-opacity:0.3" />
<rect x="953" y="49" width="15" height="5" style="fill:#5d3c2d;stroke:black;stroke-width:1;fill-opacity:1;stroke-opacity:0.3" />
<line x1="955" y1="58" x2="961" y2="60" stroke="black" stroke-width="1" />
<line x1="961" y1="60" x2="968" y2="58" stroke="black" stroke-width="1" />
<rect x="940" y="56" width="15" height="5" style="fill:#5d3c2d;stroke:black;stroke-width:1;fill-opacity:1;stroke-opacity:0.3" />
<rect x="968" y="56" width="15" height="5" style="fill:#5d3c2d;stroke:black;stroke-width:1;fill-opacity:1;stroke-opacity:0.3" />
<line x1="961" y1="65" x2="964" y2="67" stroke="black" stroke-width="1" />
<line x1="964" y1="67" x2="968" y2="65" stroke="black" stroke-width="1" />
<rect x="945" y="63" width="15" height="5" style="fill:#5d3c2d;stroke:black;stroke-width:1;fill-opacity:1;stroke-opacity:0.3" />
<rect x="968" y="63" width="15" height="5" style="fill:#5d3c2d;stroke:black;stroke-width:1;fill-opacity:1;stroke-opacity:0.3" />
<line x1="963" y1="72" x2="964" y2="74" stroke="black" stroke-width="1" />
<line x1="964" y1="74" x2="966" y2="72" stroke="black" stroke-width="1" />
<rect x="947" y="70" width="15" height="5" style="fill:#5d3c2d;stroke:black;stroke-width:1;fill-opacity:1;stroke-opacity:0.3" />
<rect x="966" y="70" width="15" height="5" style="fill:#5d3c2d;stroke:black;stroke-width:1;fill-opacity:1;stroke-opacity:0.3" />
<line x1="964" y1="79" x2="966" y2="81" stroke="black" stroke-width="1" />
<line x1="966" y1="81" x2="968" y2="79" stroke="black" stroke-width="1" />
<rect x="948" y="77" width="15" height="5" style="fill:#5d3c2d;stroke:black;stroke-width:1;fill-opacity:1;stroke-opacity:0.3" />
<rect x="968" y="77" width="15" height="5" style="fill:#5d3c2d;stroke:black;stroke-width:1;fill-opacity:1;stroke-opacity:0.3" />
<line x1="964" y1="93" x2="966" y2="95" stroke="black" stroke-width="1" />
<line x1="966" y1="95" x2="968" y2="93" stroke="black" stroke-width="1" />
<rect x="948" y="91" width="15" height="5" style="fill:#5d3c2d;stroke:black;stroke-width:1;fill-opacity:1;stroke-opacity:0.3" />
<rect x="968" y="91" width="15" height="5" style="fill:#5d3c2d;stroke:black;stroke-width:1;fill-opacity:1;stroke-opacity:0.3" />
<line x1="965" y1="100" x2="966" y2="102" stroke="black" stroke-width="1" />
<line x1="966" y1="102" x2="968" y2="100" stroke="black" stroke-width="1" />
<rect x="950" y="98" width="15" height="5" style="fill:#5d3c2d;stroke:black;stroke-width:1;fill-opacity:1;stroke-opacity:0.3" />
<rect x="968" y="98" width="15" height="5" style="fill:#5d3c2d;stroke:black;stroke-width:1;fill-opacity:1;stroke-opacity:0.3" />
<line x1="966" y1="107" x2="967" y2="109" stroke="black" stroke-width="1" />
<line x1="967" y1="109" x2="968" y2="107" stroke="black" stroke-width="1" />
<rect x="951" y="105" width="15" height="5" style="fill:#5d3c2d;stroke:black;stroke-width:1;fill-opacity:1;stroke-opacity:0.3" />
<rect x="968" y="105" width="14" height="5" style="fill:#5d3c2d;stroke:black;stroke-width:1;fill-opacity:1;stroke-opacity:0.3" />
<text x="15"  y="176" style="font-family:Arial;font-size:10;stroke:black;fill:black;">all.merged.bam</text>
</svg>
    
