<?xml version="1.0" encoding="utf-8" standalone="no"?>
<!DOCTYPE svg PUBLIC "-//W3C//DTD SVG 1.1//EN"
  "http://www.w3.org/Graphics/SVG/1.1/DTD/svg11.dtd">
<svg height="1140" width="1000" version="1.1" viewBox="0 0 1000 1140" xmlns="http://www.w3.org/2000/svg" xmlns:xlink="http://www.w3.org/1999/xlink">
<line x1="27" y1="11" x2="972" y2="11" stroke="black" stroke-width="1" />
<rect x="27" y="9" width="543" height="5" style="fill:#f50002;stroke:black;stroke-width:1;fill-opacity:1;stroke-opacity:0.3" />
<rect x="570" y="9" width="1" height="5" style="fill:#53a1b5;stroke:black;stroke-width:1;fill-opacity:1;stroke-opacity:0.3" />
<rect x="636" y="9" width="169" height="5" style="fill:#53a1b5;stroke:black;stroke-width:1;fill-opacity:1;stroke-opacity:0.3" />
<rect x="859" y="9" width="15" height="5" style="fill:#53a1b5;stroke:black;stroke-width:1;fill-opacity:1;stroke-opacity:0.3" />
<rect x="908" y="9" width="40" height="5" style="fill:#53a1b5;stroke:black;stroke-width:1;fill-opacity:1;stroke-opacity:0.3" />
<rect x="948" y="9" width="24" height="5" style="fill:#f50002;stroke:black;stroke-width:1;fill-opacity:1;stroke-opacity:0.3" />
<text x="27"  y="23" style="font-family:Arial;font-size:10;stroke:black;fill:black;">Cre02.g095039.t2.1.v5.5 (-) chromosome_2:2972319-2975784</text>
<line x1="64" y1="30" x2="84" y2="32" stroke="black" stroke-width="1" />
<line x1="84" y1="32" x2="104" y2="30" stroke="black" stroke-width="1" />
<rect x="36" y="28" width="27" height="5" style="fill:#f5b024;stroke:black;stroke-width:1;fill-opacity:1;stroke-opacity:0.3" />
<rect x="104" y="28" width="27" height="5" style="fill:#f5b024;stroke:black;stroke-width:1;fill-opacity:1;stroke-opacity:0.3" />
<line x1="80" y1="37" x2="89" y2="39" stroke="black" stroke-width="1" />
<line x1="89" y1="39" x2="98" y2="37" stroke="black" stroke-width="1" />
<rect x="53" y="35" width="27" height="5" style="fill:#f5b024;stroke:black;stroke-width:1;fill-opacity:1;stroke-opacity:0.3" />
<rect x="98" y="35" width="27" height="5" style="fill:#f5b024;stroke:black;stroke-width:1;fill-opacity:1;stroke-opacity:0.3" />
<line x1="118" y1="44" x2="132" y2="46" stroke="black" stroke-width="1" />
<line x1="132" y1="46" x2="146" y2="44" stroke="black" stroke-width="1" />
<rect x="91" y="42" width="27" height="5" style="fill:#f5b024;stroke:black;stroke-width:1;fill-opacity:1;stroke-opacity:0.3" />
<rect x="146" y="42" width="27" height="5" style="fill:#f5b024;stroke:black;stroke-width:1;fill-opacity:1;stroke-opacity:0.3" />
<line x1="140" y1="51" x2="142" y2="53" stroke="black" stroke-width="1" />
<line x1="142" y1="53" x2="145" y2="51" stroke="black" stroke-width="1" />
<rect x="112" y="49" width="27" height="5" style="fill:#f5b024;stroke:black;stroke-width:1;fill-opacity:1;stroke-opacity:0.3" />
<rect x="145" y="49" width="27" height="5" style="fill:#f5b024;stroke:black;stroke-width:1;fill-opacity:1;stroke-opacity:0.3" />
<line x1="213" y1="30" x2="217" y2="32" stroke="black" stroke-width="1" />
<line x1="217" y1="32" x2="222" y2="30" stroke="black" stroke-width="1" />
<rect x="185" y="28" width="27" height="5" style="fill:#f5b024;stroke:black;stroke-width:1;fill-opacity:1;stroke-opacity:0.3" />
<rect x="222" y="28" width="27" height="5" style="fill:#f5b024;stroke:black;stroke-width:1;fill-opacity:1;stroke-opacity:0.3" />
<line x1="305" y1="30" x2="307" y2="32" stroke="black" stroke-width="1" />
<line x1="307" y1="32" x2="309" y2="30" stroke="black" stroke-width="1" />
<rect x="277" y="28" width="27" height="5" style="fill:#f5b024;stroke:black;stroke-width:1;fill-opacity:1;stroke-opacity:0.3" />
<rect x="309" y="28" width="27" height="5" style="fill:#f5b024;stroke:black;stroke-width:1;fill-opacity:1;stroke-opacity:0.3" />
<line x1="321" y1="37" x2="327" y2="39" stroke="black" stroke-width="1" />
<line x1="327" y1="39" x2="333" y2="37" stroke="black" stroke-width="1" />
<rect x="294" y="35" width="27" height="5" style="fill:#f5b024;stroke:black;stroke-width:1;fill-opacity:1;stroke-opacity:0.3" />
<rect x="333" y="35" width="27" height="5" style="fill:#f5b024;stroke:black;stroke-width:1;fill-opacity:1;stroke-opacity:0.3" />
<text x="15"  y="176" style="font-family:Arial;font-size:10;stroke:black;fill:black;">all.merged.bam</text>
</svg>
    
