<?xml version="1.0" encoding="utf-8" standalone="no"?>
<!DOCTYPE svg PUBLIC "-//W3C//DTD SVG 1.1//EN"
  "http://www.w3.org/Graphics/SVG/1.1/DTD/svg11.dtd">
<svg height="1140" width="1000" version="1.1" viewBox="0 0 1000 1140" xmlns="http://www.w3.org/2000/svg" xmlns:xlink="http://www.w3.org/1999/xlink">
<line x1="31" y1="11" x2="968" y2="11" stroke="black" stroke-width="1" />
<rect x="31" y="9" width="89" height="5" style="fill:#f50002;stroke:black;stroke-width:1;fill-opacity:1;stroke-opacity:0.3" />
<rect x="121" y="9" width="13" height="5" style="fill:#53a1b5;stroke:black;stroke-width:1;fill-opacity:1;stroke-opacity:0.3" />
<rect x="181" y="9" width="113" height="5" style="fill:#53a1b5;stroke:black;stroke-width:1;fill-opacity:1;stroke-opacity:0.3" />
<rect x="394" y="9" width="93" height="5" style="fill:#53a1b5;stroke:black;stroke-width:1;fill-opacity:1;stroke-opacity:0.3" />
<rect x="564" y="9" width="51" height="5" style="fill:#53a1b5;stroke:black;stroke-width:1;fill-opacity:1;stroke-opacity:0.3" />
<rect x="616" y="9" width="351" height="5" style="fill:#f50002;stroke:black;stroke-width:1;fill-opacity:1;stroke-opacity:0.3" />
<text x="31"  y="23" style="font-family:Arial;font-size:10;stroke:black;fill:black;">Cre08.g382700.t1.1.v5.5 (+) chromosome_8:4539195-4542156</text>
<line x1="50" y1="30" x2="54" y2="32" stroke="black" stroke-width="1" />
<line x1="54" y1="32" x2="58" y2="30" stroke="black" stroke-width="1" />
<rect x="18" y="28" width="31" height="5" style="fill:#5d3c2d;stroke:black;stroke-width:1;fill-opacity:1;stroke-opacity:0.3" />
<rect x="58" y="28" width="21" height="5" style="fill:#5d3c2d;stroke:black;stroke-width:1;fill-opacity:1;stroke-opacity:0.3" />
<line x1="80" y1="30" x2="123" y2="30" stroke="pink" stroke-width="1" />
<rect x="123" y="28" width="9" height="5" style="fill:#5d3c2d;stroke:black;stroke-width:1;fill-opacity:1;stroke-opacity:0.3" />
<line x1="59" y1="37" x2="61" y2="39" stroke="black" stroke-width="1" />
<line x1="61" y1="39" x2="64" y2="37" stroke="black" stroke-width="1" />
<rect x="28" y="35" width="31" height="5" style="fill:#5d3c2d;stroke:black;stroke-width:1;fill-opacity:1;stroke-opacity:0.3" />
<rect x="64" y="35" width="15" height="5" style="fill:#5d3c2d;stroke:black;stroke-width:1;fill-opacity:1;stroke-opacity:0.3" />
<line x1="80" y1="37" x2="181" y2="37" stroke="pink" stroke-width="1" />
<rect x="181" y="35" width="15" height="5" style="fill:#5d3c2d;stroke:black;stroke-width:1;fill-opacity:1;stroke-opacity:0.3" />
<line x1="195" y1="44" x2="205" y2="46" stroke="black" stroke-width="1" />
<line x1="205" y1="46" x2="215" y2="44" stroke="black" stroke-width="1" />
<rect x="46" y="42" width="33" height="5" style="fill:#5d3c2d;stroke:black;stroke-width:1;fill-opacity:1;stroke-opacity:0.3" />
<line x1="80" y1="44" x2="181" y2="44" stroke="pink" stroke-width="1" />
<rect x="181" y="42" width="13" height="5" style="fill:#5d3c2d;stroke:black;stroke-width:1;fill-opacity:1;stroke-opacity:0.3" />
<rect x="215" y="42" width="47" height="5" style="fill:#5d3c2d;stroke:black;stroke-width:1;fill-opacity:1;stroke-opacity:0.3" />
<line x1="93" y1="51" x2="95" y2="53" stroke="black" stroke-width="1" />
<line x1="95" y1="53" x2="98" y2="51" stroke="black" stroke-width="1" />
<rect x="46" y="49" width="47" height="5" style="fill:#f5b024;stroke:black;stroke-width:1;fill-opacity:1;stroke-opacity:0.3" />
<rect x="98" y="49" width="36" height="5" style="fill:#f5b024;stroke:black;stroke-width:1;fill-opacity:1;stroke-opacity:0.3" />
<line x1="135" y1="51" x2="181" y2="51" stroke="pink" stroke-width="1" />
<rect x="181" y="49" width="11" height="5" style="fill:#f5b024;stroke:black;stroke-width:1;fill-opacity:1;stroke-opacity:0.3" />
<line x1="88" y1="58" x2="94" y2="60" stroke="black" stroke-width="1" />
<line x1="94" y1="60" x2="100" y2="58" stroke="black" stroke-width="1" />
<rect x="56" y="56" width="31" height="5" style="fill:#f5b024;stroke:black;stroke-width:1;fill-opacity:1;stroke-opacity:0.3" />
<rect x="100" y="56" width="31" height="5" style="fill:#f5b024;stroke:black;stroke-width:1;fill-opacity:1;stroke-opacity:0.3" />
<line x1="88" y1="65" x2="92" y2="67" stroke="black" stroke-width="1" />
<line x1="92" y1="67" x2="96" y2="65" stroke="black" stroke-width="1" />
<rect x="56" y="63" width="31" height="5" style="fill:#5d3c2d;stroke:black;stroke-width:1;fill-opacity:1;stroke-opacity:0.3" />
<rect x="96" y="63" width="31" height="5" style="fill:#5d3c2d;stroke:black;stroke-width:1;fill-opacity:1;stroke-opacity:0.3" />
<line x1="88" y1="72" x2="92" y2="74" stroke="black" stroke-width="1" />
<line x1="92" y1="74" x2="97" y2="72" stroke="black" stroke-width="1" />
<rect x="57" y="70" width="31" height="5" style="fill:#5d3c2d;stroke:black;stroke-width:1;fill-opacity:1;stroke-opacity:0.3" />
<rect x="97" y="70" width="30" height="5" style="fill:#5d3c2d;stroke:black;stroke-width:1;fill-opacity:1;stroke-opacity:0.3" />
<line x1="90" y1="79" x2="95" y2="81" stroke="black" stroke-width="1" />
<line x1="95" y1="81" x2="100" y2="79" stroke="black" stroke-width="1" />
<rect x="58" y="77" width="31" height="5" style="fill:#5d3c2d;stroke:black;stroke-width:1;fill-opacity:1;stroke-opacity:0.3" />
<rect x="100" y="77" width="31" height="5" style="fill:#5d3c2d;stroke:black;stroke-width:1;fill-opacity:1;stroke-opacity:0.3" />
<line x1="91" y1="86" x2="93" y2="88" stroke="black" stroke-width="1" />
<line x1="93" y1="88" x2="96" y2="86" stroke="black" stroke-width="1" />
<rect x="60" y="84" width="31" height="5" style="fill:#5d3c2d;stroke:black;stroke-width:1;fill-opacity:1;stroke-opacity:0.3" />
<rect x="96" y="84" width="31" height="5" style="fill:#5d3c2d;stroke:black;stroke-width:1;fill-opacity:1;stroke-opacity:0.3" />
<line x1="91" y1="93" x2="93" y2="95" stroke="black" stroke-width="1" />
<line x1="93" y1="95" x2="95" y2="93" stroke="black" stroke-width="1" />
<rect x="60" y="91" width="31" height="5" style="fill:#5d3c2d;stroke:black;stroke-width:1;fill-opacity:1;stroke-opacity:0.3" />
<rect x="95" y="91" width="31" height="5" style="fill:#5d3c2d;stroke:black;stroke-width:1;fill-opacity:1;stroke-opacity:0.3" />
<line x1="92" y1="100" x2="111" y2="102" stroke="black" stroke-width="1" />
<line x1="111" y1="102" x2="130" y2="100" stroke="black" stroke-width="1" />
<rect x="60" y="98" width="31" height="5" style="fill:#f5b024;stroke:black;stroke-width:1;fill-opacity:1;stroke-opacity:0.3" />
<rect x="130" y="98" width="4" height="5" style="fill:#f5b024;stroke:black;stroke-width:1;fill-opacity:1;stroke-opacity:0.3" />
<line x1="135" y1="100" x2="1925" y2="100" stroke="pink" stroke-width="1" />
<rect x="1925" y="98" width="27" height="5" style="fill:#f5b024;stroke:black;stroke-width:1;fill-opacity:1;stroke-opacity:0.3" />
<line x1="92" y1="107" x2="98" y2="109" stroke="black" stroke-width="1" />
<line x1="98" y1="109" x2="104" y2="107" stroke="black" stroke-width="1" />
<rect x="61" y="105" width="31" height="5" style="fill:#5d3c2d;stroke:black;stroke-width:1;fill-opacity:1;stroke-opacity:0.3" />
<rect x="104" y="105" width="30" height="5" style="fill:#5d3c2d;stroke:black;stroke-width:1;fill-opacity:1;stroke-opacity:0.3" />
<line x1="135" y1="107" x2="1925" y2="107" stroke="pink" stroke-width="1" />
<rect x="1925" y="105" width="0" height="5" style="fill:#5d3c2d;stroke:black;stroke-width:1;fill-opacity:1;stroke-opacity:0.3" />
<line x1="93" y1="114" x2="96" y2="116" stroke="black" stroke-width="1" />
<line x1="96" y1="116" x2="100" y2="114" stroke="black" stroke-width="1" />
<rect x="62" y="112" width="31" height="5" style="fill:#5d3c2d;stroke:black;stroke-width:1;fill-opacity:1;stroke-opacity:0.3" />
<rect x="100" y="112" width="31" height="5" style="fill:#5d3c2d;stroke:black;stroke-width:1;fill-opacity:1;stroke-opacity:0.3" />
<line x1="209" y1="121" x2="212" y2="123" stroke="black" stroke-width="1" />
<line x1="212" y1="123" x2="216" y2="121" stroke="black" stroke-width="1" />
<rect x="62" y="119" width="17" height="5" style="fill:#5d3c2d;stroke:black;stroke-width:1;fill-opacity:1;stroke-opacity:0.3" />
<line x1="80" y1="121" x2="179" y2="121" stroke="pink" stroke-width="1" />
<rect x="179" y="119" width="30" height="5" style="fill:#5d3c2d;stroke:black;stroke-width:1;fill-opacity:1;stroke-opacity:0.3" />
<rect x="216" y="119" width="47" height="5" style="fill:#5d3c2d;stroke:black;stroke-width:1;fill-opacity:1;stroke-opacity:0.3" />
<line x1="94" y1="128" x2="96" y2="130" stroke="black" stroke-width="1" />
<line x1="96" y1="130" x2="99" y2="128" stroke="black" stroke-width="1" />
<rect x="63" y="126" width="31" height="5" style="fill:#f5b024;stroke:black;stroke-width:1;fill-opacity:1;stroke-opacity:0.3" />
<rect x="99" y="126" width="31" height="5" style="fill:#f5b024;stroke:black;stroke-width:1;fill-opacity:1;stroke-opacity:0.3" />
<line x1="104" y1="135" x2="108" y2="137" stroke="black" stroke-width="1" />
<line x1="108" y1="137" x2="113" y2="135" stroke="black" stroke-width="1" />
<rect x="73" y="133" width="31" height="5" style="fill:#5d3c2d;stroke:black;stroke-width:1;fill-opacity:1;stroke-opacity:0.3" />
<rect x="113" y="133" width="21" height="5" style="fill:#5d3c2d;stroke:black;stroke-width:1;fill-opacity:1;stroke-opacity:0.3" />
<line x1="135" y1="135" x2="181" y2="135" stroke="pink" stroke-width="1" />
<rect x="181" y="133" width="9" height="5" style="fill:#5d3c2d;stroke:black;stroke-width:1;fill-opacity:1;stroke-opacity:0.3" />
<line x1="104" y1="142" x2="107" y2="144" stroke="black" stroke-width="1" />
<line x1="107" y1="144" x2="111" y2="142" stroke="black" stroke-width="1" />
<rect x="73" y="140" width="31" height="5" style="fill:#5d3c2d;stroke:black;stroke-width:1;fill-opacity:1;stroke-opacity:0.3" />
<rect x="111" y="140" width="23" height="5" style="fill:#5d3c2d;stroke:black;stroke-width:1;fill-opacity:1;stroke-opacity:0.3" />
<line x1="135" y1="142" x2="1925" y2="142" stroke="pink" stroke-width="1" />
<rect x="1925" y="140" width="7" height="5" style="fill:#5d3c2d;stroke:black;stroke-width:1;fill-opacity:1;stroke-opacity:0.3" />
<line x1="105" y1="149" x2="107" y2="151" stroke="black" stroke-width="1" />
<line x1="107" y1="151" x2="109" y2="149" stroke="black" stroke-width="1" />
<rect x="74" y="147" width="31" height="5" style="fill:#5d3c2d;stroke:black;stroke-width:1;fill-opacity:1;stroke-opacity:0.3" />
<rect x="109" y="147" width="25" height="5" style="fill:#5d3c2d;stroke:black;stroke-width:1;fill-opacity:1;stroke-opacity:0.3" />
<line x1="135" y1="149" x2="181" y2="149" stroke="pink" stroke-width="1" />
<rect x="181" y="147" width="5" height="5" style="fill:#5d3c2d;stroke:black;stroke-width:1;fill-opacity:1;stroke-opacity:0.3" />
<line x1="105" y1="156" x2="116" y2="158" stroke="black" stroke-width="1" />
<line x1="116" y1="158" x2="127" y2="156" stroke="black" stroke-width="1" />
<rect x="74" y="154" width="31" height="5" style="fill:#5d3c2d;stroke:black;stroke-width:1;fill-opacity:1;stroke-opacity:0.3" />
<rect x="127" y="154" width="8" height="5" style="fill:#5d3c2d;stroke:black;stroke-width:1;fill-opacity:1;stroke-opacity:0.3" />
<line x1="135" y1="156" x2="181" y2="156" stroke="pink" stroke-width="1" />
<rect x="181" y="154" width="23" height="5" style="fill:#5d3c2d;stroke:black;stroke-width:1;fill-opacity:1;stroke-opacity:0.3" />
<line x1="107" y1="163" x2="109" y2="165" stroke="black" stroke-width="1" />
<line x1="109" y1="165" x2="111" y2="163" stroke="black" stroke-width="1" />
<rect x="75" y="161" width="31" height="5" style="fill:#5d3c2d;stroke:black;stroke-width:1;fill-opacity:1;stroke-opacity:0.3" />
<rect x="111" y="161" width="23" height="5" style="fill:#5d3c2d;stroke:black;stroke-width:1;fill-opacity:1;stroke-opacity:0.3" />
<line x1="135" y1="163" x2="1925" y2="163" stroke="pink" stroke-width="1" />
<rect x="1925" y="161" width="7" height="5" style="fill:#5d3c2d;stroke:black;stroke-width:1;fill-opacity:1;stroke-opacity:0.3" />
<line x1="223" y1="30" x2="226" y2="32" stroke="black" stroke-width="1" />
<line x1="226" y1="32" x2="229" y2="30" stroke="black" stroke-width="1" />
<rect x="175" y="28" width="47" height="5" style="fill:#5d3c2d;stroke:black;stroke-width:1;fill-opacity:1;stroke-opacity:0.3" />
<rect x="229" y="28" width="47" height="5" style="fill:#5d3c2d;stroke:black;stroke-width:1;fill-opacity:1;stroke-opacity:0.3" />
<line x1="228" y1="58" x2="230" y2="60" stroke="black" stroke-width="1" />
<line x1="230" y1="60" x2="233" y2="58" stroke="black" stroke-width="1" />
<rect x="181" y="56" width="47" height="5" style="fill:#5d3c2d;stroke:black;stroke-width:1;fill-opacity:1;stroke-opacity:0.3" />
<rect x="233" y="56" width="47" height="5" style="fill:#5d3c2d;stroke:black;stroke-width:1;fill-opacity:1;stroke-opacity:0.3" />
<line x1="253" y1="37" x2="257" y2="39" stroke="black" stroke-width="1" />
<line x1="257" y1="39" x2="261" y2="37" stroke="black" stroke-width="1" />
<rect x="205" y="35" width="47" height="5" style="fill:#5d3c2d;stroke:black;stroke-width:1;fill-opacity:1;stroke-opacity:0.3" />
<rect x="261" y="35" width="33" height="5" style="fill:#5d3c2d;stroke:black;stroke-width:1;fill-opacity:1;stroke-opacity:0.3" />
<line x1="294" y1="37" x2="394" y2="37" stroke="pink" stroke-width="1" />
<rect x="394" y="35" width="14" height="5" style="fill:#5d3c2d;stroke:black;stroke-width:1;fill-opacity:1;stroke-opacity:0.3" />
<line x1="238" y1="51" x2="240" y2="53" stroke="black" stroke-width="1" />
<line x1="240" y1="53" x2="242" y2="51" stroke="black" stroke-width="1" />
<rect x="206" y="49" width="31" height="5" style="fill:#5d3c2d;stroke:black;stroke-width:1;fill-opacity:1;stroke-opacity:0.3" />
<rect x="242" y="49" width="31" height="5" style="fill:#5d3c2d;stroke:black;stroke-width:1;fill-opacity:1;stroke-opacity:0.3" />
<line x1="254" y1="65" x2="268" y2="67" stroke="black" stroke-width="1" />
<line x1="268" y1="67" x2="282" y2="65" stroke="black" stroke-width="1" />
<rect x="207" y="63" width="47" height="5" style="fill:#5d3c2d;stroke:black;stroke-width:1;fill-opacity:1;stroke-opacity:0.3" />
<rect x="282" y="63" width="12" height="5" style="fill:#5d3c2d;stroke:black;stroke-width:1;fill-opacity:1;stroke-opacity:0.3" />
<line x1="294" y1="65" x2="394" y2="65" stroke="pink" stroke-width="1" />
<rect x="394" y="63" width="33" height="5" style="fill:#5d3c2d;stroke:black;stroke-width:1;fill-opacity:1;stroke-opacity:0.3" />
<line x1="239" y1="72" x2="242" y2="74" stroke="black" stroke-width="1" />
<line x1="242" y1="74" x2="245" y2="72" stroke="black" stroke-width="1" />
<rect x="207" y="70" width="31" height="5" style="fill:#5d3c2d;stroke:black;stroke-width:1;fill-opacity:1;stroke-opacity:0.3" />
<rect x="245" y="70" width="31" height="5" style="fill:#5d3c2d;stroke:black;stroke-width:1;fill-opacity:1;stroke-opacity:0.3" />
<line x1="246" y1="79" x2="248" y2="81" stroke="black" stroke-width="1" />
<line x1="248" y1="81" x2="251" y2="79" stroke="black" stroke-width="1" />
<rect x="214" y="77" width="31" height="5" style="fill:#5d3c2d;stroke:black;stroke-width:1;fill-opacity:1;stroke-opacity:0.3" />
<rect x="251" y="77" width="31" height="5" style="fill:#5d3c2d;stroke:black;stroke-width:1;fill-opacity:1;stroke-opacity:0.3" />
<line x1="262" y1="86" x2="266" y2="88" stroke="black" stroke-width="1" />
<line x1="266" y1="88" x2="271" y2="86" stroke="black" stroke-width="1" />
<rect x="215" y="84" width="47" height="5" style="fill:#5d3c2d;stroke:black;stroke-width:1;fill-opacity:1;stroke-opacity:0.3" />
<rect x="271" y="84" width="23" height="5" style="fill:#5d3c2d;stroke:black;stroke-width:1;fill-opacity:1;stroke-opacity:0.3" />
<line x1="294" y1="86" x2="394" y2="86" stroke="pink" stroke-width="1" />
<rect x="394" y="84" width="24" height="5" style="fill:#5d3c2d;stroke:black;stroke-width:1;fill-opacity:1;stroke-opacity:0.3" />
<line x1="247" y1="93" x2="255" y2="95" stroke="black" stroke-width="1" />
<line x1="255" y1="95" x2="263" y2="93" stroke="black" stroke-width="1" />
<rect x="216" y="91" width="31" height="5" style="fill:#5d3c2d;stroke:black;stroke-width:1;fill-opacity:1;stroke-opacity:0.3" />
<rect x="263" y="91" width="30" height="5" style="fill:#5d3c2d;stroke:black;stroke-width:1;fill-opacity:1;stroke-opacity:0.3" />
<line x1="294" y1="93" x2="394" y2="93" stroke="pink" stroke-width="1" />
<rect x="394" y="91" width="0" height="5" style="fill:#5d3c2d;stroke:black;stroke-width:1;fill-opacity:1;stroke-opacity:0.3" />
<line x1="271" y1="114" x2="276" y2="116" stroke="black" stroke-width="1" />
<line x1="276" y1="116" x2="282" y2="114" stroke="black" stroke-width="1" />
<rect x="223" y="112" width="47" height="5" style="fill:#5d3c2d;stroke:black;stroke-width:1;fill-opacity:1;stroke-opacity:0.3" />
<rect x="282" y="112" width="12" height="5" style="fill:#5d3c2d;stroke:black;stroke-width:1;fill-opacity:1;stroke-opacity:0.3" />
<line x1="294" y1="114" x2="394" y2="114" stroke="pink" stroke-width="1" />
<rect x="394" y="112" width="34" height="5" style="fill:#5d3c2d;stroke:black;stroke-width:1;fill-opacity:1;stroke-opacity:0.3" />
<line x1="256" y1="128" x2="267" y2="130" stroke="black" stroke-width="1" />
<line x1="267" y1="130" x2="278" y2="128" stroke="black" stroke-width="1" />
<rect x="225" y="126" width="31" height="5" style="fill:#5d3c2d;stroke:black;stroke-width:1;fill-opacity:1;stroke-opacity:0.3" />
<rect x="278" y="126" width="15" height="5" style="fill:#5d3c2d;stroke:black;stroke-width:1;fill-opacity:1;stroke-opacity:0.3" />
<line x1="294" y1="128" x2="394" y2="128" stroke="pink" stroke-width="1" />
<rect x="394" y="126" width="15" height="5" style="fill:#5d3c2d;stroke:black;stroke-width:1;fill-opacity:1;stroke-opacity:0.3" />
<line x1="258" y1="135" x2="260" y2="137" stroke="black" stroke-width="1" />
<line x1="260" y1="137" x2="263" y2="135" stroke="black" stroke-width="1" />
<rect x="226" y="133" width="31" height="5" style="fill:#5d3c2d;stroke:black;stroke-width:1;fill-opacity:1;stroke-opacity:0.3" />
<rect x="263" y="133" width="31" height="5" style="fill:#5d3c2d;stroke:black;stroke-width:1;fill-opacity:1;stroke-opacity:0.3" />
<line x1="294" y1="135" x2="394" y2="135" stroke="pink" stroke-width="1" />
<rect x="394" y="133" width="0" height="5" style="fill:#5d3c2d;stroke:black;stroke-width:1;fill-opacity:1;stroke-opacity:0.3" />
<line x1="273" y1="149" x2="276" y2="151" stroke="black" stroke-width="1" />
<line x1="276" y1="151" x2="280" y2="149" stroke="black" stroke-width="1" />
<rect x="226" y="147" width="47" height="5" style="fill:#5d3c2d;stroke:black;stroke-width:1;fill-opacity:1;stroke-opacity:0.3" />
<rect x="280" y="147" width="14" height="5" style="fill:#5d3c2d;stroke:black;stroke-width:1;fill-opacity:1;stroke-opacity:0.3" />
<line x1="294" y1="149" x2="394" y2="149" stroke="pink" stroke-width="1" />
<rect x="394" y="147" width="33" height="5" style="fill:#5d3c2d;stroke:black;stroke-width:1;fill-opacity:1;stroke-opacity:0.3" />
<line x1="259" y1="156" x2="261" y2="158" stroke="black" stroke-width="1" />
<line x1="261" y1="158" x2="263" y2="156" stroke="black" stroke-width="1" />
<rect x="229" y="154" width="30" height="5" style="fill:#5d3c2d;stroke:black;stroke-width:1;fill-opacity:1;stroke-opacity:0.3" />
<rect x="263" y="154" width="31" height="5" style="fill:#5d3c2d;stroke:black;stroke-width:1;fill-opacity:1;stroke-opacity:0.3" />
<line x1="411" y1="44" x2="419" y2="46" stroke="black" stroke-width="1" />
<line x1="419" y1="46" x2="427" y2="44" stroke="black" stroke-width="1" />
<rect x="264" y="42" width="30" height="5" style="fill:#5d3c2d;stroke:black;stroke-width:1;fill-opacity:1;stroke-opacity:0.3" />
<line x1="294" y1="44" x2="394" y2="44" stroke="pink" stroke-width="1" />
<rect x="394" y="42" width="17" height="5" style="fill:#5d3c2d;stroke:black;stroke-width:1;fill-opacity:1;stroke-opacity:0.3" />
<rect x="427" y="42" width="47" height="5" style="fill:#5d3c2d;stroke:black;stroke-width:1;fill-opacity:1;stroke-opacity:0.3" />
<line x1="413" y1="121" x2="416" y2="123" stroke="black" stroke-width="1" />
<line x1="416" y1="123" x2="419" y2="121" stroke="black" stroke-width="1" />
<rect x="266" y="119" width="27" height="5" style="fill:#5d3c2d;stroke:black;stroke-width:1;fill-opacity:1;stroke-opacity:0.3" />
<line x1="294" y1="121" x2="394" y2="121" stroke="pink" stroke-width="1" />
<rect x="394" y="119" width="19" height="5" style="fill:#5d3c2d;stroke:black;stroke-width:1;fill-opacity:1;stroke-opacity:0.3" />
<rect x="419" y="119" width="47" height="5" style="fill:#5d3c2d;stroke:black;stroke-width:1;fill-opacity:1;stroke-opacity:0.3" />
<line x1="419" y1="30" x2="420" y2="32" stroke="black" stroke-width="1" />
<line x1="420" y1="32" x2="422" y2="30" stroke="black" stroke-width="1" />
<rect x="288" y="28" width="6" height="5" style="fill:#5d3c2d;stroke:black;stroke-width:1;fill-opacity:1;stroke-opacity:0.3" />
<line x1="294" y1="30" x2="394" y2="30" stroke="pink" stroke-width="1" />
<rect x="394" y="28" width="25" height="5" style="fill:#5d3c2d;stroke:black;stroke-width:1;fill-opacity:1;stroke-opacity:0.3" />
<rect x="422" y="28" width="31" height="5" style="fill:#5d3c2d;stroke:black;stroke-width:1;fill-opacity:1;stroke-opacity:0.3" />
<line x1="362" y1="51" x2="380" y2="53" stroke="black" stroke-width="1" />
<line x1="380" y1="53" x2="399" y2="51" stroke="black" stroke-width="1" />
<rect x="331" y="49" width="31" height="5" style="fill:#5d3c2d;stroke:black;stroke-width:1;fill-opacity:1;stroke-opacity:0.3" />
<rect x="399" y="49" width="31" height="5" style="fill:#5d3c2d;stroke:black;stroke-width:1;fill-opacity:1;stroke-opacity:0.3" />
<line x1="426" y1="58" x2="431" y2="60" stroke="black" stroke-width="1" />
<line x1="431" y1="60" x2="436" y2="58" stroke="black" stroke-width="1" />
<rect x="394" y="56" width="31" height="5" style="fill:#5d3c2d;stroke:black;stroke-width:1;fill-opacity:1;stroke-opacity:0.3" />
<rect x="436" y="56" width="31" height="5" style="fill:#5d3c2d;stroke:black;stroke-width:1;fill-opacity:1;stroke-opacity:0.3" />
<line x1="426" y1="72" x2="431" y2="74" stroke="black" stroke-width="1" />
<line x1="431" y1="74" x2="437" y2="72" stroke="black" stroke-width="1" />
<rect x="395" y="70" width="31" height="5" style="fill:#5d3c2d;stroke:black;stroke-width:1;fill-opacity:1;stroke-opacity:0.3" />
<rect x="437" y="70" width="31" height="5" style="fill:#5d3c2d;stroke:black;stroke-width:1;fill-opacity:1;stroke-opacity:0.3" />
<line x1="431" y1="79" x2="438" y2="81" stroke="black" stroke-width="1" />
<line x1="438" y1="81" x2="445" y2="79" stroke="black" stroke-width="1" />
<rect x="399" y="77" width="31" height="5" style="fill:#5d3c2d;stroke:black;stroke-width:1;fill-opacity:1;stroke-opacity:0.3" />
<rect x="445" y="77" width="31" height="5" style="fill:#5d3c2d;stroke:black;stroke-width:1;fill-opacity:1;stroke-opacity:0.3" />
<line x1="439" y1="93" x2="441" y2="95" stroke="black" stroke-width="1" />
<line x1="441" y1="95" x2="444" y2="93" stroke="black" stroke-width="1" />
<rect x="407" y="91" width="31" height="5" style="fill:#5d3c2d;stroke:black;stroke-width:1;fill-opacity:1;stroke-opacity:0.3" />
<rect x="444" y="91" width="30" height="5" style="fill:#5d3c2d;stroke:black;stroke-width:1;fill-opacity:1;stroke-opacity:0.3" />
<line x1="459" y1="37" x2="467" y2="39" stroke="black" stroke-width="1" />
<line x1="467" y1="39" x2="475" y2="37" stroke="black" stroke-width="1" />
<rect x="412" y="35" width="47" height="5" style="fill:#5d3c2d;stroke:black;stroke-width:1;fill-opacity:1;stroke-opacity:0.3" />
<rect x="475" y="35" width="12" height="5" style="fill:#5d3c2d;stroke:black;stroke-width:1;fill-opacity:1;stroke-opacity:0.3" />
<line x1="487" y1="37" x2="564" y2="37" stroke="pink" stroke-width="1" />
<rect x="564" y="35" width="34" height="5" style="fill:#5d3c2d;stroke:black;stroke-width:1;fill-opacity:1;stroke-opacity:0.3" />
<line x1="453" y1="86" x2="455" y2="88" stroke="black" stroke-width="1" />
<line x1="455" y1="88" x2="458" y2="86" stroke="black" stroke-width="1" />
<rect x="421" y="84" width="31" height="5" style="fill:#5d3c2d;stroke:black;stroke-width:1;fill-opacity:1;stroke-opacity:0.3" />
<rect x="458" y="84" width="29" height="5" style="fill:#5d3c2d;stroke:black;stroke-width:1;fill-opacity:1;stroke-opacity:0.3" />
<line x1="487" y1="86" x2="564" y2="86" stroke="pink" stroke-width="1" />
<rect x="564" y="84" width="2" height="5" style="fill:#5d3c2d;stroke:black;stroke-width:1;fill-opacity:1;stroke-opacity:0.3" />
<line x1="456" y1="128" x2="460" y2="130" stroke="black" stroke-width="1" />
<line x1="460" y1="130" x2="464" y2="128" stroke="black" stroke-width="1" />
<rect x="425" y="126" width="31" height="5" style="fill:#5d3c2d;stroke:black;stroke-width:1;fill-opacity:1;stroke-opacity:0.3" />
<rect x="464" y="126" width="23" height="5" style="fill:#5d3c2d;stroke:black;stroke-width:1;fill-opacity:1;stroke-opacity:0.3" />
<line x1="487" y1="128" x2="564" y2="128" stroke="pink" stroke-width="1" />
<rect x="564" y="126" width="8" height="5" style="fill:#5d3c2d;stroke:black;stroke-width:1;fill-opacity:1;stroke-opacity:0.3" />
<line x1="475" y1="51" x2="521" y2="53" stroke="black" stroke-width="1" />
<line x1="521" y1="53" x2="567" y2="51" stroke="black" stroke-width="1" />
<rect x="444" y="49" width="31" height="5" style="fill:#5d3c2d;stroke:black;stroke-width:1;fill-opacity:1;stroke-opacity:0.3" />
<rect x="567" y="49" width="30" height="5" style="fill:#5d3c2d;stroke:black;stroke-width:1;fill-opacity:1;stroke-opacity:0.3" />
<line x1="476" y1="65" x2="522" y2="67" stroke="black" stroke-width="1" />
<line x1="522" y1="67" x2="569" y2="65" stroke="black" stroke-width="1" />
<rect x="444" y="63" width="31" height="5" style="fill:#5d3c2d;stroke:black;stroke-width:1;fill-opacity:1;stroke-opacity:0.3" />
<rect x="569" y="63" width="31" height="5" style="fill:#5d3c2d;stroke:black;stroke-width:1;fill-opacity:1;stroke-opacity:0.3" />
<line x1="477" y1="114" x2="525" y2="116" stroke="black" stroke-width="1" />
<line x1="525" y1="116" x2="573" y2="114" stroke="black" stroke-width="1" />
<rect x="445" y="112" width="31" height="5" style="fill:#5d3c2d;stroke:black;stroke-width:1;fill-opacity:1;stroke-opacity:0.3" />
<rect x="573" y="112" width="31" height="5" style="fill:#5d3c2d;stroke:black;stroke-width:1;fill-opacity:1;stroke-opacity:0.3" />
<line x1="479" y1="135" x2="522" y2="137" stroke="black" stroke-width="1" />
<line x1="522" y1="137" x2="566" y2="135" stroke="black" stroke-width="1" />
<rect x="448" y="133" width="31" height="5" style="fill:#5d3c2d;stroke:black;stroke-width:1;fill-opacity:1;stroke-opacity:0.3" />
<rect x="566" y="133" width="31" height="5" style="fill:#5d3c2d;stroke:black;stroke-width:1;fill-opacity:1;stroke-opacity:0.3" />
<line x1="481" y1="149" x2="528" y2="151" stroke="black" stroke-width="1" />
<line x1="528" y1="151" x2="575" y2="149" stroke="black" stroke-width="1" />
<rect x="449" y="147" width="31" height="5" style="fill:#5d3c2d;stroke:black;stroke-width:1;fill-opacity:1;stroke-opacity:0.3" />
<rect x="575" y="147" width="31" height="5" style="fill:#5d3c2d;stroke:black;stroke-width:1;fill-opacity:1;stroke-opacity:0.3" />
<line x1="481" y1="156" x2="528" y2="158" stroke="black" stroke-width="1" />
<line x1="528" y1="158" x2="575" y2="156" stroke="black" stroke-width="1" />
<rect x="449" y="154" width="31" height="5" style="fill:#5d3c2d;stroke:black;stroke-width:1;fill-opacity:1;stroke-opacity:0.3" />
<rect x="575" y="154" width="31" height="5" style="fill:#5d3c2d;stroke:black;stroke-width:1;fill-opacity:1;stroke-opacity:0.3" />
<line x1="487" y1="30" x2="527" y2="32" stroke="black" stroke-width="1" />
<line x1="527" y1="32" x2="567" y2="30" stroke="black" stroke-width="1" />
<rect x="455" y="28" width="31" height="5" style="fill:#5d3c2d;stroke:black;stroke-width:1;fill-opacity:1;stroke-opacity:0.3" />
<rect x="567" y="28" width="31" height="5" style="fill:#5d3c2d;stroke:black;stroke-width:1;fill-opacity:1;stroke-opacity:0.3" />
<line x1="577" y1="58" x2="623" y2="60" stroke="black" stroke-width="1" />
<line x1="623" y1="60" x2="670" y2="58" stroke="black" stroke-width="1" />
<rect x="469" y="56" width="18" height="5" style="fill:#5d3c2d;stroke:black;stroke-width:1;fill-opacity:1;stroke-opacity:0.3" />
<line x1="487" y1="58" x2="564" y2="58" stroke="pink" stroke-width="1" />
<rect x="564" y="56" width="12" height="5" style="fill:#5d3c2d;stroke:black;stroke-width:1;fill-opacity:1;stroke-opacity:0.3" />
<rect x="670" y="56" width="31" height="5" style="fill:#5d3c2d;stroke:black;stroke-width:1;fill-opacity:1;stroke-opacity:0.3" />
<line x1="631" y1="44" x2="639" y2="46" stroke="black" stroke-width="1" />
<line x1="639" y1="46" x2="647" y2="44" stroke="black" stroke-width="1" />
<rect x="584" y="42" width="47" height="5" style="fill:#5d3c2d;stroke:black;stroke-width:1;fill-opacity:1;stroke-opacity:0.3" />
<rect x="647" y="42" width="39" height="5" style="fill:#5d3c2d;stroke:black;stroke-width:1;fill-opacity:1;stroke-opacity:0.3" />
<line x1="623" y1="72" x2="688" y2="74" stroke="black" stroke-width="1" />
<line x1="688" y1="74" x2="753" y2="72" stroke="black" stroke-width="1" />
<rect x="592" y="70" width="31" height="5" style="fill:#5d3c2d;stroke:black;stroke-width:1;fill-opacity:1;stroke-opacity:0.3" />
<rect x="753" y="70" width="31" height="5" style="fill:#5d3c2d;stroke:black;stroke-width:1;fill-opacity:1;stroke-opacity:0.3" />
<line x1="660" y1="30" x2="664" y2="32" stroke="black" stroke-width="1" />
<line x1="664" y1="32" x2="669" y2="30" stroke="black" stroke-width="1" />
<rect x="628" y="28" width="31" height="5" style="fill:#5d3c2d;stroke:black;stroke-width:1;fill-opacity:1;stroke-opacity:0.3" />
<rect x="669" y="28" width="27" height="5" style="fill:#5d3c2d;stroke:black;stroke-width:1;fill-opacity:1;stroke-opacity:0.3" />
<line x1="697" y1="30" x2="1349" y2="30" stroke="pink" stroke-width="1" />
<rect x="1349" y="28" width="4" height="5" style="fill:#5d3c2d;stroke:black;stroke-width:1;fill-opacity:1;stroke-opacity:0.3" />
<line x1="663" y1="37" x2="666" y2="39" stroke="black" stroke-width="1" />
<line x1="666" y1="39" x2="669" y2="37" stroke="black" stroke-width="1" />
<rect x="631" y="35" width="31" height="5" style="fill:#5d3c2d;stroke:black;stroke-width:1;fill-opacity:1;stroke-opacity:0.3" />
<rect x="669" y="35" width="31" height="5" style="fill:#5d3c2d;stroke:black;stroke-width:1;fill-opacity:1;stroke-opacity:0.3" />
<line x1="669" y1="51" x2="686" y2="53" stroke="black" stroke-width="1" />
<line x1="686" y1="53" x2="703" y2="51" stroke="black" stroke-width="1" />
<rect x="637" y="49" width="31" height="5" style="fill:#5d3c2d;stroke:black;stroke-width:1;fill-opacity:1;stroke-opacity:0.3" />
<rect x="703" y="49" width="31" height="5" style="fill:#5d3c2d;stroke:black;stroke-width:1;fill-opacity:1;stroke-opacity:0.3" />
<line x1="674" y1="65" x2="679" y2="67" stroke="black" stroke-width="1" />
<line x1="679" y1="67" x2="685" y2="65" stroke="black" stroke-width="1" />
<rect x="642" y="63" width="31" height="5" style="fill:#5d3c2d;stroke:black;stroke-width:1;fill-opacity:1;stroke-opacity:0.3" />
<rect x="685" y="63" width="31" height="5" style="fill:#5d3c2d;stroke:black;stroke-width:1;fill-opacity:1;stroke-opacity:0.3" />
<line x1="674" y1="79" x2="679" y2="81" stroke="black" stroke-width="1" />
<line x1="679" y1="81" x2="684" y2="79" stroke="black" stroke-width="1" />
<rect x="642" y="77" width="31" height="5" style="fill:#5d3c2d;stroke:black;stroke-width:1;fill-opacity:1;stroke-opacity:0.3" />
<rect x="684" y="77" width="31" height="5" style="fill:#5d3c2d;stroke:black;stroke-width:1;fill-opacity:1;stroke-opacity:0.3" />
<line x1="674" y1="86" x2="679" y2="88" stroke="black" stroke-width="1" />
<line x1="679" y1="88" x2="684" y2="86" stroke="black" stroke-width="1" />
<rect x="642" y="84" width="31" height="5" style="fill:#5d3c2d;stroke:black;stroke-width:1;fill-opacity:1;stroke-opacity:0.3" />
<rect x="684" y="84" width="31" height="5" style="fill:#5d3c2d;stroke:black;stroke-width:1;fill-opacity:1;stroke-opacity:0.3" />
<line x1="711" y1="93" x2="721" y2="95" stroke="black" stroke-width="1" />
<line x1="721" y1="95" x2="731" y2="93" stroke="black" stroke-width="1" />
<rect x="663" y="91" width="4" height="5" style="fill:#5d3c2d;stroke:black;stroke-width:1;fill-opacity:1;stroke-opacity:0.3" />
<line x1="667" y1="93" x2="687" y2="93" stroke="pink" stroke-width="1" />
<rect x="687" y="91" width="24" height="5" style="fill:#5d3c2d;stroke:black;stroke-width:1;fill-opacity:1;stroke-opacity:0.3" />
<rect x="731" y="91" width="31" height="5" style="fill:#5d3c2d;stroke:black;stroke-width:1;fill-opacity:1;stroke-opacity:0.3" />
<line x1="696" y1="114" x2="699" y2="116" stroke="black" stroke-width="1" />
<line x1="699" y1="116" x2="703" y2="114" stroke="black" stroke-width="1" />
<rect x="664" y="112" width="31" height="5" style="fill:#f5b024;stroke:black;stroke-width:1;fill-opacity:1;stroke-opacity:0.3" />
<rect x="703" y="112" width="31" height="5" style="fill:#f5b024;stroke:black;stroke-width:1;fill-opacity:1;stroke-opacity:0.3" />
<line x1="697" y1="121" x2="700" y2="123" stroke="black" stroke-width="1" />
<line x1="700" y1="123" x2="703" y2="121" stroke="black" stroke-width="1" />
<rect x="665" y="119" width="31" height="5" style="fill:#5d3c2d;stroke:black;stroke-width:1;fill-opacity:1;stroke-opacity:0.3" />
<rect x="703" y="119" width="31" height="5" style="fill:#5d3c2d;stroke:black;stroke-width:1;fill-opacity:1;stroke-opacity:0.3" />
<line x1="719" y1="128" x2="729" y2="130" stroke="black" stroke-width="1" />
<line x1="729" y1="130" x2="740" y2="128" stroke="black" stroke-width="1" />
<rect x="665" y="126" width="1" height="5" style="fill:#5d3c2d;stroke:black;stroke-width:1;fill-opacity:1;stroke-opacity:0.3" />
<line x1="666" y1="128" x2="673" y2="128" stroke="pink" stroke-width="1" />
<rect x="673" y="126" width="45" height="5" style="fill:#5d3c2d;stroke:black;stroke-width:1;fill-opacity:1;stroke-opacity:0.3" />
<rect x="740" y="126" width="46" height="5" style="fill:#5d3c2d;stroke:black;stroke-width:1;fill-opacity:1;stroke-opacity:0.3" />
<line x1="701" y1="135" x2="704" y2="137" stroke="black" stroke-width="1" />
<line x1="704" y1="137" x2="707" y2="135" stroke="black" stroke-width="1" />
<rect x="669" y="133" width="31" height="5" style="fill:#f5b024;stroke:black;stroke-width:1;fill-opacity:1;stroke-opacity:0.3" />
<rect x="707" y="133" width="30" height="5" style="fill:#f5b024;stroke:black;stroke-width:1;fill-opacity:1;stroke-opacity:0.3" />
<line x1="737" y1="135" x2="1389" y2="135" stroke="pink" stroke-width="1" />
<rect x="1389" y="133" width="1" height="5" style="fill:#f5b024;stroke:black;stroke-width:1;fill-opacity:1;stroke-opacity:0.3" />
<line x1="701" y1="149" x2="704" y2="151" stroke="black" stroke-width="1" />
<line x1="704" y1="151" x2="707" y2="149" stroke="black" stroke-width="1" />
<rect x="669" y="147" width="31" height="5" style="fill:#f5b024;stroke:black;stroke-width:1;fill-opacity:1;stroke-opacity:0.3" />
<rect x="707" y="147" width="30" height="5" style="fill:#f5b024;stroke:black;stroke-width:1;fill-opacity:1;stroke-opacity:0.3" />
<line x1="737" y1="149" x2="1389" y2="149" stroke="pink" stroke-width="1" />
<rect x="1389" y="147" width="1" height="5" style="fill:#f5b024;stroke:black;stroke-width:1;fill-opacity:1;stroke-opacity:0.3" />
<line x1="712" y1="156" x2="716" y2="158" stroke="black" stroke-width="1" />
<line x1="716" y1="158" x2="720" y2="156" stroke="black" stroke-width="1" />
<rect x="669" y="154" width="42" height="5" style="fill:#5d3c2d;stroke:black;stroke-width:1;fill-opacity:1;stroke-opacity:0.3" />
<rect x="720" y="154" width="47" height="5" style="fill:#5d3c2d;stroke:black;stroke-width:1;fill-opacity:1;stroke-opacity:0.3" />
<line x1="718" y1="44" x2="725" y2="46" stroke="black" stroke-width="1" />
<line x1="725" y1="46" x2="732" y2="44" stroke="black" stroke-width="1" />
<rect x="687" y="42" width="31" height="5" style="fill:#5d3c2d;stroke:black;stroke-width:1;fill-opacity:1;stroke-opacity:0.3" />
<rect x="732" y="42" width="31" height="5" style="fill:#5d3c2d;stroke:black;stroke-width:1;fill-opacity:1;stroke-opacity:0.3" />
<line x1="739" y1="37" x2="748" y2="39" stroke="black" stroke-width="1" />
<line x1="748" y1="39" x2="758" y2="37" stroke="black" stroke-width="1" />
<rect x="708" y="35" width="31" height="5" style="fill:#5d3c2d;stroke:black;stroke-width:1;fill-opacity:1;stroke-opacity:0.3" />
<rect x="758" y="35" width="31" height="5" style="fill:#5d3c2d;stroke:black;stroke-width:1;fill-opacity:1;stroke-opacity:0.3" />
<line x1="742" y1="58" x2="753" y2="60" stroke="black" stroke-width="1" />
<line x1="753" y1="60" x2="765" y2="58" stroke="black" stroke-width="1" />
<rect x="710" y="56" width="31" height="5" style="fill:#5d3c2d;stroke:black;stroke-width:1;fill-opacity:1;stroke-opacity:0.3" />
<rect x="765" y="56" width="31" height="5" style="fill:#5d3c2d;stroke:black;stroke-width:1;fill-opacity:1;stroke-opacity:0.3" />
<line x1="748" y1="65" x2="756" y2="67" stroke="black" stroke-width="1" />
<line x1="756" y1="67" x2="765" y2="65" stroke="black" stroke-width="1" />
<rect x="716" y="63" width="31" height="5" style="fill:#5d3c2d;stroke:black;stroke-width:1;fill-opacity:1;stroke-opacity:0.3" />
<rect x="765" y="63" width="31" height="5" style="fill:#5d3c2d;stroke:black;stroke-width:1;fill-opacity:1;stroke-opacity:0.3" />
<line x1="753" y1="79" x2="754" y2="81" stroke="black" stroke-width="1" />
<line x1="754" y1="81" x2="756" y2="79" stroke="black" stroke-width="1" />
<rect x="721" y="77" width="31" height="5" style="fill:#5d3c2d;stroke:black;stroke-width:1;fill-opacity:1;stroke-opacity:0.3" />
<rect x="756" y="77" width="30" height="5" style="fill:#5d3c2d;stroke:black;stroke-width:1;fill-opacity:1;stroke-opacity:0.3" />
<line x1="753" y1="86" x2="762" y2="88" stroke="black" stroke-width="1" />
<line x1="762" y1="88" x2="772" y2="86" stroke="black" stroke-width="1" />
<rect x="721" y="84" width="31" height="5" style="fill:#5d3c2d;stroke:black;stroke-width:1;fill-opacity:1;stroke-opacity:0.3" />
<rect x="772" y="84" width="31" height="5" style="fill:#5d3c2d;stroke:black;stroke-width:1;fill-opacity:1;stroke-opacity:0.3" />
<line x1="770" y1="51" x2="776" y2="53" stroke="black" stroke-width="1" />
<line x1="776" y1="53" x2="783" y2="51" stroke="black" stroke-width="1" />
<rect x="739" y="49" width="31" height="5" style="fill:#5d3c2d;stroke:black;stroke-width:1;fill-opacity:1;stroke-opacity:0.3" />
<rect x="783" y="49" width="31" height="5" style="fill:#5d3c2d;stroke:black;stroke-width:1;fill-opacity:1;stroke-opacity:0.3" />
<line x1="771" y1="114" x2="773" y2="116" stroke="black" stroke-width="1" />
<line x1="773" y1="116" x2="775" y2="114" stroke="black" stroke-width="1" />
<rect x="740" y="112" width="31" height="5" style="fill:#5d3c2d;stroke:black;stroke-width:1;fill-opacity:1;stroke-opacity:0.3" />
<rect x="775" y="112" width="31" height="5" style="fill:#5d3c2d;stroke:black;stroke-width:1;fill-opacity:1;stroke-opacity:0.3" />
<line x1="777" y1="121" x2="782" y2="123" stroke="black" stroke-width="1" />
<line x1="782" y1="123" x2="787" y2="121" stroke="black" stroke-width="1" />
<rect x="746" y="119" width="31" height="5" style="fill:#f5b024;stroke:black;stroke-width:1;fill-opacity:1;stroke-opacity:0.3" />
<rect x="787" y="119" width="31" height="5" style="fill:#f5b024;stroke:black;stroke-width:1;fill-opacity:1;stroke-opacity:0.3" />
<line x1="795" y1="44" x2="799" y2="46" stroke="black" stroke-width="1" />
<line x1="799" y1="46" x2="803" y2="44" stroke="black" stroke-width="1" />
<rect x="764" y="42" width="31" height="5" style="fill:#5d3c2d;stroke:black;stroke-width:1;fill-opacity:1;stroke-opacity:0.3" />
<rect x="803" y="42" width="31" height="5" style="fill:#5d3c2d;stroke:black;stroke-width:1;fill-opacity:1;stroke-opacity:0.3" />
<line x1="797" y1="93" x2="804" y2="95" stroke="black" stroke-width="1" />
<line x1="804" y1="95" x2="812" y2="93" stroke="black" stroke-width="1" />
<rect x="766" y="91" width="31" height="5" style="fill:#5d3c2d;stroke:black;stroke-width:1;fill-opacity:1;stroke-opacity:0.3" />
<rect x="812" y="91" width="30" height="5" style="fill:#5d3c2d;stroke:black;stroke-width:1;fill-opacity:1;stroke-opacity:0.3" />
<line x1="800" y1="156" x2="804" y2="158" stroke="black" stroke-width="1" />
<line x1="804" y1="158" x2="809" y2="156" stroke="black" stroke-width="1" />
<rect x="768" y="154" width="31" height="5" style="fill:#5d3c2d;stroke:black;stroke-width:1;fill-opacity:1;stroke-opacity:0.3" />
<rect x="809" y="154" width="31" height="5" style="fill:#5d3c2d;stroke:black;stroke-width:1;fill-opacity:1;stroke-opacity:0.3" />
<line x1="817" y1="72" x2="823" y2="74" stroke="black" stroke-width="1" />
<line x1="823" y1="74" x2="829" y2="72" stroke="black" stroke-width="1" />
<rect x="786" y="70" width="31" height="5" style="fill:#5d3c2d;stroke:black;stroke-width:1;fill-opacity:1;stroke-opacity:0.3" />
<rect x="829" y="70" width="31" height="5" style="fill:#5d3c2d;stroke:black;stroke-width:1;fill-opacity:1;stroke-opacity:0.3" />
<line x1="819" y1="79" x2="823" y2="81" stroke="black" stroke-width="1" />
<line x1="823" y1="81" x2="827" y2="79" stroke="black" stroke-width="1" />
<rect x="787" y="77" width="31" height="5" style="fill:#f5b024;stroke:black;stroke-width:1;fill-opacity:1;stroke-opacity:0.3" />
<rect x="827" y="77" width="31" height="5" style="fill:#f5b024;stroke:black;stroke-width:1;fill-opacity:1;stroke-opacity:0.3" />
<line x1="819" y1="128" x2="829" y2="130" stroke="black" stroke-width="1" />
<line x1="829" y1="130" x2="839" y2="128" stroke="black" stroke-width="1" />
<rect x="788" y="126" width="31" height="5" style="fill:#5d3c2d;stroke:black;stroke-width:1;fill-opacity:1;stroke-opacity:0.3" />
<rect x="839" y="126" width="31" height="5" style="fill:#5d3c2d;stroke:black;stroke-width:1;fill-opacity:1;stroke-opacity:0.3" />
<line x1="821" y1="37" x2="825" y2="39" stroke="black" stroke-width="1" />
<line x1="825" y1="39" x2="830" y2="37" stroke="black" stroke-width="1" />
<rect x="790" y="35" width="31" height="5" style="fill:#5d3c2d;stroke:black;stroke-width:1;fill-opacity:1;stroke-opacity:0.3" />
<rect x="830" y="35" width="31" height="5" style="fill:#5d3c2d;stroke:black;stroke-width:1;fill-opacity:1;stroke-opacity:0.3" />
<line x1="828" y1="58" x2="830" y2="60" stroke="black" stroke-width="1" />
<line x1="830" y1="60" x2="832" y2="58" stroke="black" stroke-width="1" />
<rect x="797" y="56" width="31" height="5" style="fill:#5d3c2d;stroke:black;stroke-width:1;fill-opacity:1;stroke-opacity:0.3" />
<rect x="832" y="56" width="31" height="5" style="fill:#5d3c2d;stroke:black;stroke-width:1;fill-opacity:1;stroke-opacity:0.3" />
<line x1="832" y1="65" x2="840" y2="67" stroke="black" stroke-width="1" />
<line x1="840" y1="67" x2="849" y2="65" stroke="black" stroke-width="1" />
<rect x="800" y="63" width="31" height="5" style="fill:#5d3c2d;stroke:black;stroke-width:1;fill-opacity:1;stroke-opacity:0.3" />
<rect x="849" y="63" width="31" height="5" style="fill:#5d3c2d;stroke:black;stroke-width:1;fill-opacity:1;stroke-opacity:0.3" />
<line x1="847" y1="51" x2="849" y2="53" stroke="black" stroke-width="1" />
<line x1="849" y1="53" x2="852" y2="51" stroke="black" stroke-width="1" />
<rect x="815" y="49" width="31" height="5" style="fill:#5d3c2d;stroke:black;stroke-width:1;fill-opacity:1;stroke-opacity:0.3" />
<rect x="852" y="49" width="28" height="5" style="fill:#5d3c2d;stroke:black;stroke-width:1;fill-opacity:1;stroke-opacity:0.3" />
<line x1="848" y1="86" x2="850" y2="88" stroke="black" stroke-width="1" />
<line x1="850" y1="88" x2="852" y2="86" stroke="black" stroke-width="1" />
<rect x="816" y="84" width="31" height="5" style="fill:#f5b024;stroke:black;stroke-width:1;fill-opacity:1;stroke-opacity:0.3" />
<rect x="852" y="84" width="31" height="5" style="fill:#f5b024;stroke:black;stroke-width:1;fill-opacity:1;stroke-opacity:0.3" />
<text x="15"  y="176" style="font-family:Arial;font-size:10;stroke:black;fill:black;">all.merged.bam</text>
</svg>
    
