<?xml version="1.0" encoding="utf-8" standalone="no"?>
<!DOCTYPE svg PUBLIC "-//W3C//DTD SVG 1.1//EN"
  "http://www.w3.org/Graphics/SVG/1.1/DTD/svg11.dtd">
<svg height="1140" width="1000" version="1.1" viewBox="0 0 1000 1140" xmlns="http://www.w3.org/2000/svg" xmlns:xlink="http://www.w3.org/1999/xlink">
<line x1="49" y1="11" x2="949" y2="11" stroke="black" stroke-width="1" />
<rect x="49" y="9" width="322" height="5" style="fill:#f50002;stroke:black;stroke-width:1;fill-opacity:1;stroke-opacity:0.3" />
<rect x="372" y="9" width="51" height="5" style="fill:#53a1b5;stroke:black;stroke-width:1;fill-opacity:1;stroke-opacity:0.3" />
<rect x="537" y="9" width="48" height="5" style="fill:#53a1b5;stroke:black;stroke-width:1;fill-opacity:1;stroke-opacity:0.3" />
<rect x="701" y="9" width="57" height="5" style="fill:#53a1b5;stroke:black;stroke-width:1;fill-opacity:1;stroke-opacity:0.3" />
<rect x="837" y="9" width="60" height="5" style="fill:#53a1b5;stroke:black;stroke-width:1;fill-opacity:1;stroke-opacity:0.3" />
<rect x="898" y="9" width="50" height="5" style="fill:#f50002;stroke:black;stroke-width:1;fill-opacity:1;stroke-opacity:0.3" />
<text x="49"  y="23" style="font-family:Arial;font-size:10;stroke:black;fill:black;">Cre07.g352550.t1.2.v5.5 (-) chromosome_7:5694837-5696642</text>
<line x1="81" y1="30" x2="98" y2="32" stroke="black" stroke-width="1" />
<line x1="98" y1="32" x2="116" y2="30" stroke="black" stroke-width="1" />
<rect x="6" y="28" width="74" height="5" style="fill:#f5b024;stroke:black;stroke-width:1;fill-opacity:1;stroke-opacity:0.3" />
<rect x="116" y="28" width="74" height="5" style="fill:#f5b024;stroke:black;stroke-width:1;fill-opacity:1;stroke-opacity:0.3" />
<line x1="152" y1="37" x2="175" y2="39" stroke="black" stroke-width="1" />
<line x1="175" y1="39" x2="198" y2="37" stroke="black" stroke-width="1" />
<rect x="78" y="35" width="74" height="5" style="fill:#f5b024;stroke:black;stroke-width:1;fill-opacity:1;stroke-opacity:0.3" />
<rect x="198" y="35" width="74" height="5" style="fill:#f5b024;stroke:black;stroke-width:1;fill-opacity:1;stroke-opacity:0.3" />
<line x1="144" y1="44" x2="155" y2="46" stroke="black" stroke-width="1" />
<line x1="155" y1="46" x2="167" y2="44" stroke="black" stroke-width="1" />
<rect x="94" y="42" width="49" height="5" style="fill:#f5b024;stroke:black;stroke-width:1;fill-opacity:1;stroke-opacity:0.3" />
<rect x="167" y="42" width="49" height="5" style="fill:#f5b024;stroke:black;stroke-width:1;fill-opacity:1;stroke-opacity:0.3" />
<line x1="154" y1="51" x2="166" y2="53" stroke="black" stroke-width="1" />
<line x1="166" y1="53" x2="179" y2="51" stroke="black" stroke-width="1" />
<rect x="104" y="49" width="49" height="5" style="fill:#f5b024;stroke:black;stroke-width:1;fill-opacity:1;stroke-opacity:0.3" />
<rect x="179" y="49" width="49" height="5" style="fill:#f5b024;stroke:black;stroke-width:1;fill-opacity:1;stroke-opacity:0.3" />
<line x1="178" y1="58" x2="183" y2="60" stroke="black" stroke-width="1" />
<line x1="183" y1="60" x2="188" y2="58" stroke="black" stroke-width="1" />
<rect x="104" y="56" width="74" height="5" style="fill:#f5b024;stroke:black;stroke-width:1;fill-opacity:1;stroke-opacity:0.3" />
<rect x="188" y="56" width="72" height="5" style="fill:#f5b024;stroke:black;stroke-width:1;fill-opacity:1;stroke-opacity:0.3" />
<line x1="178" y1="65" x2="195" y2="67" stroke="black" stroke-width="1" />
<line x1="195" y1="67" x2="212" y2="65" stroke="black" stroke-width="1" />
<rect x="104" y="63" width="74" height="5" style="fill:#f5b024;stroke:black;stroke-width:1;fill-opacity:1;stroke-opacity:0.3" />
<rect x="212" y="63" width="74" height="5" style="fill:#f5b024;stroke:black;stroke-width:1;fill-opacity:1;stroke-opacity:0.3" />
<line x1="170" y1="72" x2="179" y2="74" stroke="black" stroke-width="1" />
<line x1="179" y1="74" x2="189" y2="72" stroke="black" stroke-width="1" />
<rect x="121" y="70" width="49" height="5" style="fill:#f5b024;stroke:black;stroke-width:1;fill-opacity:1;stroke-opacity:0.3" />
<rect x="189" y="70" width="49" height="5" style="fill:#f5b024;stroke:black;stroke-width:1;fill-opacity:1;stroke-opacity:0.3" />
<line x1="178" y1="79" x2="199" y2="81" stroke="black" stroke-width="1" />
<line x1="199" y1="81" x2="220" y2="79" stroke="black" stroke-width="1" />
<rect x="128" y="77" width="49" height="5" style="fill:#f5b024;stroke:black;stroke-width:1;fill-opacity:1;stroke-opacity:0.3" />
<rect x="220" y="77" width="49" height="5" style="fill:#f5b024;stroke:black;stroke-width:1;fill-opacity:1;stroke-opacity:0.3" />
<line x1="183" y1="86" x2="189" y2="88" stroke="black" stroke-width="1" />
<line x1="189" y1="88" x2="196" y2="86" stroke="black" stroke-width="1" />
<rect x="134" y="84" width="49" height="5" style="fill:#f5b024;stroke:black;stroke-width:1;fill-opacity:1;stroke-opacity:0.3" />
<rect x="196" y="84" width="49" height="5" style="fill:#f5b024;stroke:black;stroke-width:1;fill-opacity:1;stroke-opacity:0.3" />
<line x1="192" y1="93" x2="202" y2="95" stroke="black" stroke-width="1" />
<line x1="202" y1="95" x2="213" y2="93" stroke="black" stroke-width="1" />
<rect x="143" y="91" width="49" height="5" style="fill:#f5b024;stroke:black;stroke-width:1;fill-opacity:1;stroke-opacity:0.3" />
<rect x="213" y="91" width="49" height="5" style="fill:#f5b024;stroke:black;stroke-width:1;fill-opacity:1;stroke-opacity:0.3" />
<line x1="192" y1="100" x2="202" y2="102" stroke="black" stroke-width="1" />
<line x1="202" y1="102" x2="213" y2="100" stroke="black" stroke-width="1" />
<rect x="143" y="98" width="49" height="5" style="fill:#f5b024;stroke:black;stroke-width:1;fill-opacity:1;stroke-opacity:0.3" />
<rect x="213" y="98" width="49" height="5" style="fill:#f5b024;stroke:black;stroke-width:1;fill-opacity:1;stroke-opacity:0.3" />
<line x1="192" y1="107" x2="195" y2="109" stroke="black" stroke-width="1" />
<line x1="195" y1="109" x2="198" y2="107" stroke="black" stroke-width="1" />
<rect x="143" y="105" width="49" height="5" style="fill:#f5b024;stroke:black;stroke-width:1;fill-opacity:1;stroke-opacity:0.3" />
<rect x="198" y="105" width="49" height="5" style="fill:#f5b024;stroke:black;stroke-width:1;fill-opacity:1;stroke-opacity:0.3" />
<line x1="201" y1="114" x2="210" y2="116" stroke="black" stroke-width="1" />
<line x1="210" y1="116" x2="219" y2="114" stroke="black" stroke-width="1" />
<rect x="152" y="112" width="49" height="5" style="fill:#f5b024;stroke:black;stroke-width:1;fill-opacity:1;stroke-opacity:0.3" />
<rect x="219" y="112" width="49" height="5" style="fill:#f5b024;stroke:black;stroke-width:1;fill-opacity:1;stroke-opacity:0.3" />
<line x1="227" y1="121" x2="257" y2="123" stroke="black" stroke-width="1" />
<line x1="257" y1="123" x2="288" y2="121" stroke="black" stroke-width="1" />
<rect x="152" y="119" width="74" height="5" style="fill:#5d3c2d;stroke:black;stroke-width:1;fill-opacity:1;stroke-opacity:0.3" />
<rect x="288" y="119" width="74" height="5" style="fill:#5d3c2d;stroke:black;stroke-width:1;fill-opacity:1;stroke-opacity:0.3" />
<line x1="241" y1="128" x2="250" y2="130" stroke="black" stroke-width="1" />
<line x1="250" y1="130" x2="259" y2="128" stroke="black" stroke-width="1" />
<rect x="167" y="126" width="74" height="5" style="fill:#f5b024;stroke:black;stroke-width:1;fill-opacity:1;stroke-opacity:0.3" />
<rect x="259" y="126" width="74" height="5" style="fill:#f5b024;stroke:black;stroke-width:1;fill-opacity:1;stroke-opacity:0.3" />
<line x1="228" y1="135" x2="230" y2="137" stroke="black" stroke-width="1" />
<line x1="230" y1="137" x2="233" y2="135" stroke="black" stroke-width="1" />
<rect x="178" y="133" width="49" height="5" style="fill:#5d3c2d;stroke:black;stroke-width:1;fill-opacity:1;stroke-opacity:0.3" />
<rect x="233" y="133" width="49" height="5" style="fill:#5d3c2d;stroke:black;stroke-width:1;fill-opacity:1;stroke-opacity:0.3" />
<line x1="228" y1="142" x2="239" y2="144" stroke="black" stroke-width="1" />
<line x1="239" y1="144" x2="251" y2="142" stroke="black" stroke-width="1" />
<rect x="179" y="140" width="49" height="5" style="fill:#f5b024;stroke:black;stroke-width:1;fill-opacity:1;stroke-opacity:0.3" />
<rect x="251" y="140" width="49" height="5" style="fill:#f5b024;stroke:black;stroke-width:1;fill-opacity:1;stroke-opacity:0.3" />
<line x1="230" y1="149" x2="265" y2="151" stroke="black" stroke-width="1" />
<line x1="265" y1="151" x2="300" y2="149" stroke="black" stroke-width="1" />
<rect x="180" y="147" width="49" height="5" style="fill:#f5b024;stroke:black;stroke-width:1;fill-opacity:1;stroke-opacity:0.3" />
<rect x="300" y="147" width="49" height="5" style="fill:#f5b024;stroke:black;stroke-width:1;fill-opacity:1;stroke-opacity:0.3" />
<line x1="234" y1="156" x2="252" y2="158" stroke="black" stroke-width="1" />
<line x1="252" y1="158" x2="270" y2="156" stroke="black" stroke-width="1" />
<rect x="184" y="154" width="49" height="5" style="fill:#f5b024;stroke:black;stroke-width:1;fill-opacity:1;stroke-opacity:0.3" />
<rect x="270" y="154" width="49" height="5" style="fill:#f5b024;stroke:black;stroke-width:1;fill-opacity:1;stroke-opacity:0.3" />
<line x1="239" y1="163" x2="241" y2="165" stroke="black" stroke-width="1" />
<line x1="241" y1="165" x2="244" y2="163" stroke="black" stroke-width="1" />
<rect x="189" y="161" width="49" height="5" style="fill:#f5b024;stroke:black;stroke-width:1;fill-opacity:1;stroke-opacity:0.3" />
<rect x="244" y="161" width="49" height="5" style="fill:#f5b024;stroke:black;stroke-width:1;fill-opacity:1;stroke-opacity:0.3" />
<line x1="241" y1="30" x2="252" y2="32" stroke="black" stroke-width="1" />
<line x1="252" y1="32" x2="263" y2="30" stroke="black" stroke-width="1" />
<rect x="191" y="28" width="49" height="5" style="fill:#f5b024;stroke:black;stroke-width:1;fill-opacity:1;stroke-opacity:0.3" />
<rect x="263" y="28" width="49" height="5" style="fill:#f5b024;stroke:black;stroke-width:1;fill-opacity:1;stroke-opacity:0.3" />
<line x1="268" y1="44" x2="271" y2="46" stroke="black" stroke-width="1" />
<line x1="271" y1="46" x2="275" y2="44" stroke="black" stroke-width="1" />
<rect x="218" y="42" width="49" height="5" style="fill:#f5b024;stroke:black;stroke-width:1;fill-opacity:1;stroke-opacity:0.3" />
<rect x="275" y="42" width="49" height="5" style="fill:#f5b024;stroke:black;stroke-width:1;fill-opacity:1;stroke-opacity:0.3" />
<line x1="279" y1="51" x2="283" y2="53" stroke="black" stroke-width="1" />
<line x1="283" y1="53" x2="288" y2="51" stroke="black" stroke-width="1" />
<rect x="229" y="49" width="49" height="5" style="fill:#f5b024;stroke:black;stroke-width:1;fill-opacity:1;stroke-opacity:0.3" />
<rect x="288" y="49" width="49" height="5" style="fill:#f5b024;stroke:black;stroke-width:1;fill-opacity:1;stroke-opacity:0.3" />
<line x1="289" y1="72" x2="296" y2="74" stroke="black" stroke-width="1" />
<line x1="296" y1="74" x2="303" y2="72" stroke="black" stroke-width="1" />
<rect x="239" y="70" width="49" height="5" style="fill:#f5b024;stroke:black;stroke-width:1;fill-opacity:1;stroke-opacity:0.3" />
<rect x="303" y="70" width="49" height="5" style="fill:#f5b024;stroke:black;stroke-width:1;fill-opacity:1;stroke-opacity:0.3" />
<line x1="297" y1="86" x2="304" y2="88" stroke="black" stroke-width="1" />
<line x1="304" y1="88" x2="312" y2="86" stroke="black" stroke-width="1" />
<rect x="247" y="84" width="49" height="5" style="fill:#5d3c2d;stroke:black;stroke-width:1;fill-opacity:1;stroke-opacity:0.3" />
<rect x="312" y="84" width="49" height="5" style="fill:#5d3c2d;stroke:black;stroke-width:1;fill-opacity:1;stroke-opacity:0.3" />
<line x1="298" y1="107" x2="305" y2="109" stroke="black" stroke-width="1" />
<line x1="305" y1="109" x2="312" y2="107" stroke="black" stroke-width="1" />
<rect x="248" y="105" width="49" height="5" style="fill:#5d3c2d;stroke:black;stroke-width:1;fill-opacity:1;stroke-opacity:0.3" />
<rect x="312" y="105" width="49" height="5" style="fill:#5d3c2d;stroke:black;stroke-width:1;fill-opacity:1;stroke-opacity:0.3" />
<line x1="311" y1="58" x2="327" y2="60" stroke="black" stroke-width="1" />
<line x1="327" y1="60" x2="344" y2="58" stroke="black" stroke-width="1" />
<rect x="261" y="56" width="49" height="5" style="fill:#5d3c2d;stroke:black;stroke-width:1;fill-opacity:1;stroke-opacity:0.3" />
<rect x="344" y="56" width="49" height="5" style="fill:#5d3c2d;stroke:black;stroke-width:1;fill-opacity:1;stroke-opacity:0.3" />
<line x1="313" y1="93" x2="328" y2="95" stroke="black" stroke-width="1" />
<line x1="328" y1="95" x2="344" y2="93" stroke="black" stroke-width="1" />
<rect x="263" y="91" width="49" height="5" style="fill:#f5b024;stroke:black;stroke-width:1;fill-opacity:1;stroke-opacity:0.3" />
<rect x="344" y="91" width="49" height="5" style="fill:#f5b024;stroke:black;stroke-width:1;fill-opacity:1;stroke-opacity:0.3" />
<line x1="338" y1="100" x2="341" y2="102" stroke="black" stroke-width="1" />
<line x1="341" y1="102" x2="344" y2="100" stroke="black" stroke-width="1" />
<rect x="264" y="98" width="74" height="5" style="fill:#5d3c2d;stroke:black;stroke-width:1;fill-opacity:1;stroke-opacity:0.3" />
<rect x="344" y="98" width="71" height="5" style="fill:#5d3c2d;stroke:black;stroke-width:1;fill-opacity:1;stroke-opacity:0.3" />
<line x1="320" y1="114" x2="322" y2="116" stroke="black" stroke-width="1" />
<line x1="322" y1="116" x2="325" y2="114" stroke="black" stroke-width="1" />
<rect x="270" y="112" width="49" height="5" style="fill:#f5b024;stroke:black;stroke-width:1;fill-opacity:1;stroke-opacity:0.3" />
<rect x="325" y="112" width="49" height="5" style="fill:#f5b024;stroke:black;stroke-width:1;fill-opacity:1;stroke-opacity:0.3" />
<line x1="320" y1="79" x2="326" y2="81" stroke="black" stroke-width="1" />
<line x1="326" y1="81" x2="333" y2="79" stroke="black" stroke-width="1" />
<rect x="270" y="77" width="49" height="5" style="fill:#f5b024;stroke:black;stroke-width:1;fill-opacity:1;stroke-opacity:0.3" />
<rect x="333" y="77" width="49" height="5" style="fill:#f5b024;stroke:black;stroke-width:1;fill-opacity:1;stroke-opacity:0.3" />
<line x1="323" y1="37" x2="329" y2="39" stroke="black" stroke-width="1" />
<line x1="329" y1="39" x2="335" y2="37" stroke="black" stroke-width="1" />
<rect x="273" y="35" width="49" height="5" style="fill:#f5b024;stroke:black;stroke-width:1;fill-opacity:1;stroke-opacity:0.3" />
<rect x="335" y="35" width="49" height="5" style="fill:#f5b024;stroke:black;stroke-width:1;fill-opacity:1;stroke-opacity:0.3" />
<line x1="330" y1="135" x2="339" y2="137" stroke="black" stroke-width="1" />
<line x1="339" y1="137" x2="348" y2="135" stroke="black" stroke-width="1" />
<rect x="283" y="133" width="46" height="5" style="fill:#5d3c2d;stroke:black;stroke-width:1;fill-opacity:1;stroke-opacity:0.3" />
<rect x="348" y="133" width="49" height="5" style="fill:#5d3c2d;stroke:black;stroke-width:1;fill-opacity:1;stroke-opacity:0.3" />
<line x1="339" y1="65" x2="343" y2="67" stroke="black" stroke-width="1" />
<line x1="343" y1="67" x2="348" y2="65" stroke="black" stroke-width="1" />
<rect x="290" y="63" width="49" height="5" style="fill:#f5b024;stroke:black;stroke-width:1;fill-opacity:1;stroke-opacity:0.3" />
<rect x="348" y="63" width="49" height="5" style="fill:#f5b024;stroke:black;stroke-width:1;fill-opacity:1;stroke-opacity:0.3" />
<line x1="369" y1="163" x2="378" y2="165" stroke="black" stroke-width="1" />
<line x1="378" y1="165" x2="387" y2="163" stroke="black" stroke-width="1" />
<rect x="295" y="161" width="74" height="5" style="fill:#f5b024;stroke:black;stroke-width:1;fill-opacity:1;stroke-opacity:0.3" />
<rect x="387" y="161" width="37" height="5" style="fill:#f5b024;stroke:black;stroke-width:1;fill-opacity:1;stroke-opacity:0.3" />
<line x1="425" y1="163" x2="537" y2="163" stroke="pink" stroke-width="1" />
<rect x="537" y="161" width="37" height="5" style="fill:#f5b024;stroke:black;stroke-width:1;fill-opacity:1;stroke-opacity:0.3" />
<line x1="353" y1="142" x2="358" y2="144" stroke="black" stroke-width="1" />
<line x1="358" y1="144" x2="363" y2="142" stroke="black" stroke-width="1" />
<rect x="303" y="140" width="49" height="5" style="fill:#5d3c2d;stroke:black;stroke-width:1;fill-opacity:1;stroke-opacity:0.3" />
<rect x="363" y="140" width="49" height="5" style="fill:#5d3c2d;stroke:black;stroke-width:1;fill-opacity:1;stroke-opacity:0.3" />
<line x1="388" y1="30" x2="395" y2="32" stroke="black" stroke-width="1" />
<line x1="395" y1="32" x2="403" y2="30" stroke="black" stroke-width="1" />
<rect x="314" y="28" width="74" height="5" style="fill:#f5b024;stroke:black;stroke-width:1;fill-opacity:1;stroke-opacity:0.3" />
<rect x="403" y="28" width="21" height="5" style="fill:#f5b024;stroke:black;stroke-width:1;fill-opacity:1;stroke-opacity:0.3" />
<line x1="425" y1="30" x2="537" y2="30" stroke="pink" stroke-width="1" />
<rect x="537" y="28" width="49" height="5" style="fill:#f5b024;stroke:black;stroke-width:1;fill-opacity:1;stroke-opacity:0.3" />
<line x1="587" y1="30" x2="701" y2="30" stroke="pink" stroke-width="1" />
<rect x="701" y="28" width="3" height="5" style="fill:#f5b024;stroke:black;stroke-width:1;fill-opacity:1;stroke-opacity:0.3" />
<line x1="369" y1="156" x2="376" y2="158" stroke="black" stroke-width="1" />
<line x1="376" y1="158" x2="383" y2="156" stroke="black" stroke-width="1" />
<rect x="320" y="154" width="49" height="5" style="fill:#f5b024;stroke:black;stroke-width:1;fill-opacity:1;stroke-opacity:0.3" />
<rect x="383" y="154" width="41" height="5" style="fill:#f5b024;stroke:black;stroke-width:1;fill-opacity:1;stroke-opacity:0.3" />
<line x1="425" y1="156" x2="537" y2="156" stroke="pink" stroke-width="1" />
<rect x="537" y="154" width="7" height="5" style="fill:#f5b024;stroke:black;stroke-width:1;fill-opacity:1;stroke-opacity:0.3" />
<line x1="401" y1="44" x2="409" y2="46" stroke="black" stroke-width="1" />
<line x1="409" y1="46" x2="417" y2="44" stroke="black" stroke-width="1" />
<rect x="327" y="42" width="74" height="5" style="fill:#f5b024;stroke:black;stroke-width:1;fill-opacity:1;stroke-opacity:0.3" />
<rect x="417" y="42" width="7" height="5" style="fill:#f5b024;stroke:black;stroke-width:1;fill-opacity:1;stroke-opacity:0.3" />
<line x1="425" y1="44" x2="537" y2="44" stroke="pink" stroke-width="1" />
<rect x="537" y="42" width="49" height="5" style="fill:#f5b024;stroke:black;stroke-width:1;fill-opacity:1;stroke-opacity:0.3" />
<line x1="587" y1="44" x2="701" y2="44" stroke="pink" stroke-width="1" />
<rect x="701" y="42" width="17" height="5" style="fill:#f5b024;stroke:black;stroke-width:1;fill-opacity:1;stroke-opacity:0.3" />
<line x1="412" y1="51" x2="477" y2="53" stroke="black" stroke-width="1" />
<line x1="477" y1="53" x2="543" y2="51" stroke="black" stroke-width="1" />
<rect x="337" y="49" width="74" height="5" style="fill:#f5b024;stroke:black;stroke-width:1;fill-opacity:1;stroke-opacity:0.3" />
<rect x="543" y="49" width="43" height="5" style="fill:#f5b024;stroke:black;stroke-width:1;fill-opacity:1;stroke-opacity:0.3" />
<line x1="587" y1="51" x2="701" y2="51" stroke="pink" stroke-width="1" />
<rect x="701" y="49" width="30" height="5" style="fill:#f5b024;stroke:black;stroke-width:1;fill-opacity:1;stroke-opacity:0.3" />
<line x1="412" y1="128" x2="418" y2="130" stroke="black" stroke-width="1" />
<line x1="418" y1="130" x2="424" y2="128" stroke="black" stroke-width="1" />
<rect x="339" y="126" width="73" height="5" style="fill:#f5b024;stroke:black;stroke-width:1;fill-opacity:1;stroke-opacity:0.3" />
<rect x="424" y="126" width="0" height="5" style="fill:#f5b024;stroke:black;stroke-width:1;fill-opacity:1;stroke-opacity:0.3" />
<line x1="425" y1="128" x2="535" y2="128" stroke="pink" stroke-width="1" />
<rect x="535" y="126" width="51" height="5" style="fill:#f5b024;stroke:black;stroke-width:1;fill-opacity:1;stroke-opacity:0.3" />
<line x1="587" y1="128" x2="701" y2="128" stroke="pink" stroke-width="1" />
<rect x="701" y="126" width="16" height="5" style="fill:#f5b024;stroke:black;stroke-width:1;fill-opacity:1;stroke-opacity:0.3" />
<line x1="402" y1="72" x2="471" y2="74" stroke="black" stroke-width="1" />
<line x1="471" y1="74" x2="540" y2="72" stroke="black" stroke-width="1" />
<rect x="352" y="70" width="49" height="5" style="fill:#f5b024;stroke:black;stroke-width:1;fill-opacity:1;stroke-opacity:0.3" />
<rect x="540" y="70" width="46" height="5" style="fill:#f5b024;stroke:black;stroke-width:1;fill-opacity:1;stroke-opacity:0.3" />
<line x1="587" y1="72" x2="701" y2="72" stroke="pink" stroke-width="1" />
<rect x="701" y="70" width="2" height="5" style="fill:#f5b024;stroke:black;stroke-width:1;fill-opacity:1;stroke-opacity:0.3" />
<line x1="540" y1="149" x2="543" y2="151" stroke="black" stroke-width="1" />
<line x1="543" y1="151" x2="546" y2="149" stroke="black" stroke-width="1" />
<rect x="352" y="147" width="72" height="5" style="fill:#f5b024;stroke:black;stroke-width:1;fill-opacity:1;stroke-opacity:0.3" />
<line x1="425" y1="149" x2="537" y2="149" stroke="pink" stroke-width="1" />
<rect x="537" y="147" width="2" height="5" style="fill:#f5b024;stroke:black;stroke-width:1;fill-opacity:1;stroke-opacity:0.3" />
<rect x="546" y="147" width="40" height="5" style="fill:#f5b024;stroke:black;stroke-width:1;fill-opacity:1;stroke-opacity:0.3" />
<line x1="587" y1="149" x2="701" y2="149" stroke="pink" stroke-width="1" />
<rect x="701" y="147" width="33" height="5" style="fill:#f5b024;stroke:black;stroke-width:1;fill-opacity:1;stroke-opacity:0.3" />
<line x1="549" y1="86" x2="554" y2="88" stroke="black" stroke-width="1" />
<line x1="554" y1="88" x2="560" y2="86" stroke="black" stroke-width="1" />
<rect x="361" y="84" width="63" height="5" style="fill:#f5b024;stroke:black;stroke-width:1;fill-opacity:1;stroke-opacity:0.3" />
<line x1="425" y1="86" x2="537" y2="86" stroke="pink" stroke-width="1" />
<rect x="537" y="84" width="11" height="5" style="fill:#f5b024;stroke:black;stroke-width:1;fill-opacity:1;stroke-opacity:0.3" />
<rect x="560" y="84" width="26" height="5" style="fill:#f5b024;stroke:black;stroke-width:1;fill-opacity:1;stroke-opacity:0.3" />
<line x1="587" y1="86" x2="701" y2="86" stroke="pink" stroke-width="1" />
<rect x="701" y="84" width="47" height="5" style="fill:#f5b024;stroke:black;stroke-width:1;fill-opacity:1;stroke-opacity:0.3" />
<line x1="411" y1="107" x2="479" y2="109" stroke="black" stroke-width="1" />
<line x1="479" y1="109" x2="547" y2="107" stroke="black" stroke-width="1" />
<rect x="361" y="105" width="49" height="5" style="fill:#5d3c2d;stroke:black;stroke-width:1;fill-opacity:1;stroke-opacity:0.3" />
<rect x="547" y="105" width="39" height="5" style="fill:#5d3c2d;stroke:black;stroke-width:1;fill-opacity:1;stroke-opacity:0.3" />
<line x1="587" y1="107" x2="701" y2="107" stroke="pink" stroke-width="1" />
<rect x="701" y="105" width="10" height="5" style="fill:#5d3c2d;stroke:black;stroke-width:1;fill-opacity:1;stroke-opacity:0.3" />
<line x1="549" y1="121" x2="552" y2="123" stroke="black" stroke-width="1" />
<line x1="552" y1="123" x2="555" y2="121" stroke="black" stroke-width="1" />
<rect x="362" y="119" width="62" height="5" style="fill:#f5b024;stroke:black;stroke-width:1;fill-opacity:1;stroke-opacity:0.3" />
<line x1="425" y1="121" x2="537" y2="121" stroke="pink" stroke-width="1" />
<rect x="537" y="119" width="11" height="5" style="fill:#f5b024;stroke:black;stroke-width:1;fill-opacity:1;stroke-opacity:0.3" />
<rect x="555" y="119" width="31" height="5" style="fill:#f5b024;stroke:black;stroke-width:1;fill-opacity:1;stroke-opacity:0.3" />
<line x1="587" y1="121" x2="701" y2="121" stroke="pink" stroke-width="1" />
<rect x="701" y="119" width="36" height="5" style="fill:#f5b024;stroke:black;stroke-width:1;fill-opacity:1;stroke-opacity:0.3" />
<line x1="538" y1="114" x2="547" y2="116" stroke="black" stroke-width="1" />
<line x1="547" y1="116" x2="557" y2="114" stroke="black" stroke-width="1" />
<rect x="375" y="112" width="49" height="5" style="fill:#f5b024;stroke:black;stroke-width:1;fill-opacity:1;stroke-opacity:0.3" />
<line x1="425" y1="114" x2="537" y2="114" stroke="pink" stroke-width="1" />
<rect x="537" y="112" width="0" height="5" style="fill:#f5b024;stroke:black;stroke-width:1;fill-opacity:1;stroke-opacity:0.3" />
<rect x="557" y="112" width="29" height="5" style="fill:#f5b024;stroke:black;stroke-width:1;fill-opacity:1;stroke-opacity:0.3" />
<line x1="587" y1="114" x2="701" y2="114" stroke="pink" stroke-width="1" />
<rect x="701" y="112" width="19" height="5" style="fill:#f5b024;stroke:black;stroke-width:1;fill-opacity:1;stroke-opacity:0.3" />
<line x1="545" y1="79" x2="549" y2="81" stroke="black" stroke-width="1" />
<line x1="549" y1="81" x2="554" y2="79" stroke="black" stroke-width="1" />
<rect x="383" y="77" width="41" height="5" style="fill:#5d3c2d;stroke:black;stroke-width:1;fill-opacity:1;stroke-opacity:0.3" />
<line x1="425" y1="79" x2="537" y2="79" stroke="pink" stroke-width="1" />
<rect x="537" y="77" width="7" height="5" style="fill:#5d3c2d;stroke:black;stroke-width:1;fill-opacity:1;stroke-opacity:0.3" />
<rect x="554" y="77" width="32" height="5" style="fill:#5d3c2d;stroke:black;stroke-width:1;fill-opacity:1;stroke-opacity:0.3" />
<line x1="587" y1="79" x2="701" y2="79" stroke="pink" stroke-width="1" />
<rect x="701" y="77" width="16" height="5" style="fill:#5d3c2d;stroke:black;stroke-width:1;fill-opacity:1;stroke-opacity:0.3" />
<line x1="550" y1="37" x2="557" y2="39" stroke="black" stroke-width="1" />
<line x1="557" y1="39" x2="564" y2="37" stroke="black" stroke-width="1" />
<rect x="387" y="35" width="37" height="5" style="fill:#f5b024;stroke:black;stroke-width:1;fill-opacity:1;stroke-opacity:0.3" />
<line x1="425" y1="37" x2="537" y2="37" stroke="pink" stroke-width="1" />
<rect x="537" y="35" width="12" height="5" style="fill:#f5b024;stroke:black;stroke-width:1;fill-opacity:1;stroke-opacity:0.3" />
<rect x="564" y="35" width="22" height="5" style="fill:#f5b024;stroke:black;stroke-width:1;fill-opacity:1;stroke-opacity:0.3" />
<line x1="587" y1="37" x2="701" y2="37" stroke="pink" stroke-width="1" />
<rect x="701" y="35" width="26" height="5" style="fill:#f5b024;stroke:black;stroke-width:1;fill-opacity:1;stroke-opacity:0.3" />
<line x1="581" y1="58" x2="644" y2="60" stroke="black" stroke-width="1" />
<line x1="644" y1="60" x2="708" y2="58" stroke="black" stroke-width="1" />
<rect x="394" y="56" width="30" height="5" style="fill:#f5b024;stroke:black;stroke-width:1;fill-opacity:1;stroke-opacity:0.3" />
<line x1="425" y1="58" x2="537" y2="58" stroke="pink" stroke-width="1" />
<rect x="537" y="56" width="43" height="5" style="fill:#f5b024;stroke:black;stroke-width:1;fill-opacity:1;stroke-opacity:0.3" />
<rect x="708" y="56" width="51" height="5" style="fill:#f5b024;stroke:black;stroke-width:1;fill-opacity:1;stroke-opacity:0.3" />
<line x1="760" y1="58" x2="837" y2="58" stroke="pink" stroke-width="1" />
<rect x="837" y="56" width="23" height="5" style="fill:#f5b024;stroke:black;stroke-width:1;fill-opacity:1;stroke-opacity:0.3" />
<line x1="557" y1="93" x2="560" y2="95" stroke="black" stroke-width="1" />
<line x1="560" y1="95" x2="563" y2="93" stroke="black" stroke-width="1" />
<rect x="394" y="91" width="30" height="5" style="fill:#f5b024;stroke:black;stroke-width:1;fill-opacity:1;stroke-opacity:0.3" />
<line x1="425" y1="93" x2="537" y2="93" stroke="pink" stroke-width="1" />
<rect x="537" y="91" width="19" height="5" style="fill:#f5b024;stroke:black;stroke-width:1;fill-opacity:1;stroke-opacity:0.3" />
<rect x="563" y="91" width="23" height="5" style="fill:#f5b024;stroke:black;stroke-width:1;fill-opacity:1;stroke-opacity:0.3" />
<line x1="587" y1="93" x2="701" y2="93" stroke="pink" stroke-width="1" />
<rect x="701" y="91" width="26" height="5" style="fill:#f5b024;stroke:black;stroke-width:1;fill-opacity:1;stroke-opacity:0.3" />
<line x1="560" y1="65" x2="569" y2="67" stroke="black" stroke-width="1" />
<line x1="569" y1="67" x2="578" y2="65" stroke="black" stroke-width="1" />
<rect x="398" y="63" width="26" height="5" style="fill:#f5b024;stroke:black;stroke-width:1;fill-opacity:1;stroke-opacity:0.3" />
<line x1="425" y1="65" x2="537" y2="65" stroke="pink" stroke-width="1" />
<rect x="537" y="63" width="22" height="5" style="fill:#f5b024;stroke:black;stroke-width:1;fill-opacity:1;stroke-opacity:0.3" />
<rect x="578" y="63" width="8" height="5" style="fill:#f5b024;stroke:black;stroke-width:1;fill-opacity:1;stroke-opacity:0.3" />
<line x1="587" y1="65" x2="701" y2="65" stroke="pink" stroke-width="1" />
<rect x="701" y="63" width="40" height="5" style="fill:#f5b024;stroke:black;stroke-width:1;fill-opacity:1;stroke-opacity:0.3" />
<line x1="586" y1="135" x2="643" y2="137" stroke="black" stroke-width="1" />
<line x1="643" y1="137" x2="701" y2="135" stroke="black" stroke-width="1" />
<rect x="398" y="133" width="26" height="5" style="fill:#f5b024;stroke:black;stroke-width:1;fill-opacity:1;stroke-opacity:0.3" />
<line x1="425" y1="135" x2="537" y2="135" stroke="pink" stroke-width="1" />
<rect x="537" y="133" width="48" height="5" style="fill:#f5b024;stroke:black;stroke-width:1;fill-opacity:1;stroke-opacity:0.3" />
<rect x="701" y="133" width="58" height="5" style="fill:#f5b024;stroke:black;stroke-width:1;fill-opacity:1;stroke-opacity:0.3" />
<line x1="760" y1="135" x2="837" y2="135" stroke="pink" stroke-width="1" />
<rect x="837" y="133" width="16" height="5" style="fill:#f5b024;stroke:black;stroke-width:1;fill-opacity:1;stroke-opacity:0.3" />
<line x1="575" y1="142" x2="655" y2="144" stroke="black" stroke-width="1" />
<line x1="655" y1="144" x2="735" y2="142" stroke="black" stroke-width="1" />
<rect x="413" y="140" width="11" height="5" style="fill:#f5b024;stroke:black;stroke-width:1;fill-opacity:1;stroke-opacity:0.3" />
<line x1="425" y1="142" x2="537" y2="142" stroke="pink" stroke-width="1" />
<rect x="537" y="140" width="37" height="5" style="fill:#f5b024;stroke:black;stroke-width:1;fill-opacity:1;stroke-opacity:0.3" />
<rect x="735" y="140" width="24" height="5" style="fill:#f5b024;stroke:black;stroke-width:1;fill-opacity:1;stroke-opacity:0.3" />
<line x1="760" y1="142" x2="837" y2="142" stroke="pink" stroke-width="1" />
<rect x="837" y="140" width="24" height="5" style="fill:#f5b024;stroke:black;stroke-width:1;fill-opacity:1;stroke-opacity:0.3" />
<line x1="717" y1="100" x2="730" y2="102" stroke="black" stroke-width="1" />
<line x1="730" y1="102" x2="743" y2="100" stroke="black" stroke-width="1" />
<rect x="416" y="98" width="8" height="5" style="fill:#f5b024;stroke:black;stroke-width:1;fill-opacity:1;stroke-opacity:0.3" />
<line x1="425" y1="100" x2="537" y2="100" stroke="pink" stroke-width="1" />
<rect x="537" y="98" width="49" height="5" style="fill:#f5b024;stroke:black;stroke-width:1;fill-opacity:1;stroke-opacity:0.3" />
<line x1="587" y1="100" x2="701" y2="100" stroke="pink" stroke-width="1" />
<rect x="701" y="98" width="15" height="5" style="fill:#f5b024;stroke:black;stroke-width:1;fill-opacity:1;stroke-opacity:0.3" />
<rect x="743" y="98" width="16" height="5" style="fill:#f5b024;stroke:black;stroke-width:1;fill-opacity:1;stroke-opacity:0.3" />
<line x1="760" y1="100" x2="837" y2="100" stroke="pink" stroke-width="1" />
<rect x="837" y="98" width="57" height="5" style="fill:#f5b024;stroke:black;stroke-width:1;fill-opacity:1;stroke-opacity:0.3" />
<line x1="735" y1="156" x2="738" y2="158" stroke="black" stroke-width="1" />
<line x1="738" y1="158" x2="742" y2="156" stroke="black" stroke-width="1" />
<rect x="545" y="154" width="41" height="5" style="fill:#f5b024;stroke:black;stroke-width:1;fill-opacity:1;stroke-opacity:0.3" />
<line x1="587" y1="156" x2="701" y2="156" stroke="pink" stroke-width="1" />
<rect x="701" y="154" width="33" height="5" style="fill:#f5b024;stroke:black;stroke-width:1;fill-opacity:1;stroke-opacity:0.3" />
<rect x="742" y="154" width="17" height="5" style="fill:#f5b024;stroke:black;stroke-width:1;fill-opacity:1;stroke-opacity:0.3" />
<line x1="760" y1="156" x2="837" y2="156" stroke="pink" stroke-width="1" />
<rect x="837" y="154" width="56" height="5" style="fill:#f5b024;stroke:black;stroke-width:1;fill-opacity:1;stroke-opacity:0.3" />
<line x1="742" y1="163" x2="747" y2="165" stroke="black" stroke-width="1" />
<line x1="747" y1="165" x2="752" y2="163" stroke="black" stroke-width="1" />
<rect x="578" y="161" width="8" height="5" style="fill:#f5b024;stroke:black;stroke-width:1;fill-opacity:1;stroke-opacity:0.3" />
<line x1="587" y1="163" x2="701" y2="163" stroke="pink" stroke-width="1" />
<rect x="701" y="161" width="40" height="5" style="fill:#f5b024;stroke:black;stroke-width:1;fill-opacity:1;stroke-opacity:0.3" />
<rect x="752" y="161" width="7" height="5" style="fill:#f5b024;stroke:black;stroke-width:1;fill-opacity:1;stroke-opacity:0.3" />
<line x1="760" y1="163" x2="837" y2="163" stroke="pink" stroke-width="1" />
<rect x="837" y="161" width="42" height="5" style="fill:#f5b024;stroke:black;stroke-width:1;fill-opacity:1;stroke-opacity:0.3" />
<line x1="753" y1="72" x2="805" y2="74" stroke="black" stroke-width="1" />
<line x1="805" y1="74" x2="857" y2="72" stroke="black" stroke-width="1" />
<rect x="704" y="70" width="48" height="5" style="fill:#f5b024;stroke:black;stroke-width:1;fill-opacity:1;stroke-opacity:0.3" />
<rect x="857" y="70" width="49" height="5" style="fill:#f5b024;stroke:black;stroke-width:1;fill-opacity:1;stroke-opacity:0.3" />
<line x1="755" y1="30" x2="804" y2="32" stroke="black" stroke-width="1" />
<line x1="804" y1="32" x2="854" y2="30" stroke="black" stroke-width="1" />
<rect x="705" y="28" width="49" height="5" style="fill:#f5b024;stroke:black;stroke-width:1;fill-opacity:1;stroke-opacity:0.3" />
<rect x="854" y="28" width="49" height="5" style="fill:#f5b024;stroke:black;stroke-width:1;fill-opacity:1;stroke-opacity:0.3" />
<line x1="839" y1="107" x2="841" y2="109" stroke="black" stroke-width="1" />
<line x1="841" y1="109" x2="844" y2="107" stroke="black" stroke-width="1" />
<rect x="712" y="105" width="47" height="5" style="fill:#f5b024;stroke:black;stroke-width:1;fill-opacity:1;stroke-opacity:0.3" />
<line x1="760" y1="107" x2="837" y2="107" stroke="pink" stroke-width="1" />
<rect x="837" y="105" width="1" height="5" style="fill:#f5b024;stroke:black;stroke-width:1;fill-opacity:1;stroke-opacity:0.3" />
<rect x="844" y="105" width="49" height="5" style="fill:#f5b024;stroke:black;stroke-width:1;fill-opacity:1;stroke-opacity:0.3" />
<line x1="845" y1="128" x2="861" y2="130" stroke="black" stroke-width="1" />
<line x1="861" y1="130" x2="878" y2="128" stroke="black" stroke-width="1" />
<rect x="718" y="126" width="41" height="5" style="fill:#f5b024;stroke:black;stroke-width:1;fill-opacity:1;stroke-opacity:0.3" />
<line x1="760" y1="128" x2="837" y2="128" stroke="pink" stroke-width="1" />
<rect x="837" y="126" width="7" height="5" style="fill:#f5b024;stroke:black;stroke-width:1;fill-opacity:1;stroke-opacity:0.3" />
<rect x="878" y="126" width="49" height="5" style="fill:#f5b024;stroke:black;stroke-width:1;fill-opacity:1;stroke-opacity:0.3" />
<line x1="845" y1="79" x2="851" y2="81" stroke="black" stroke-width="1" />
<line x1="851" y1="81" x2="857" y2="79" stroke="black" stroke-width="1" />
<rect x="718" y="77" width="41" height="5" style="fill:#f5b024;stroke:black;stroke-width:1;fill-opacity:1;stroke-opacity:0.3" />
<line x1="760" y1="79" x2="837" y2="79" stroke="pink" stroke-width="1" />
<rect x="837" y="77" width="8" height="5" style="fill:#f5b024;stroke:black;stroke-width:1;fill-opacity:1;stroke-opacity:0.3" />
<rect x="857" y="77" width="49" height="5" style="fill:#f5b024;stroke:black;stroke-width:1;fill-opacity:1;stroke-opacity:0.3" />
<line x1="846" y1="44" x2="850" y2="46" stroke="black" stroke-width="1" />
<line x1="850" y1="46" x2="855" y2="44" stroke="black" stroke-width="1" />
<rect x="719" y="42" width="40" height="5" style="fill:#f5b024;stroke:black;stroke-width:1;fill-opacity:1;stroke-opacity:0.3" />
<line x1="760" y1="44" x2="837" y2="44" stroke="pink" stroke-width="1" />
<rect x="837" y="42" width="8" height="5" style="fill:#f5b024;stroke:black;stroke-width:1;fill-opacity:1;stroke-opacity:0.3" />
<rect x="855" y="42" width="49" height="5" style="fill:#f5b024;stroke:black;stroke-width:1;fill-opacity:1;stroke-opacity:0.3" />
<line x1="849" y1="114" x2="868" y2="116" stroke="black" stroke-width="1" />
<line x1="868" y1="116" x2="887" y2="114" stroke="black" stroke-width="1" />
<rect x="722" y="112" width="37" height="5" style="fill:#f5b024;stroke:black;stroke-width:1;fill-opacity:1;stroke-opacity:0.3" />
<line x1="760" y1="114" x2="837" y2="114" stroke="pink" stroke-width="1" />
<rect x="837" y="112" width="11" height="5" style="fill:#f5b024;stroke:black;stroke-width:1;fill-opacity:1;stroke-opacity:0.3" />
<rect x="887" y="112" width="49" height="5" style="fill:#f5b024;stroke:black;stroke-width:1;fill-opacity:1;stroke-opacity:0.3" />
<line x1="855" y1="93" x2="866" y2="95" stroke="black" stroke-width="1" />
<line x1="866" y1="95" x2="878" y2="93" stroke="black" stroke-width="1" />
<rect x="728" y="91" width="31" height="5" style="fill:#f5b024;stroke:black;stroke-width:1;fill-opacity:1;stroke-opacity:0.3" />
<line x1="760" y1="93" x2="837" y2="93" stroke="pink" stroke-width="1" />
<rect x="837" y="91" width="17" height="5" style="fill:#f5b024;stroke:black;stroke-width:1;fill-opacity:1;stroke-opacity:0.3" />
<rect x="878" y="91" width="49" height="5" style="fill:#f5b024;stroke:black;stroke-width:1;fill-opacity:1;stroke-opacity:0.3" />
<line x1="856" y1="37" x2="866" y2="39" stroke="black" stroke-width="1" />
<line x1="866" y1="39" x2="877" y2="37" stroke="black" stroke-width="1" />
<rect x="729" y="35" width="30" height="5" style="fill:#f5b024;stroke:black;stroke-width:1;fill-opacity:1;stroke-opacity:0.3" />
<line x1="760" y1="37" x2="837" y2="37" stroke="pink" stroke-width="1" />
<rect x="837" y="35" width="18" height="5" style="fill:#f5b024;stroke:black;stroke-width:1;fill-opacity:1;stroke-opacity:0.3" />
<rect x="877" y="35" width="49" height="5" style="fill:#f5b024;stroke:black;stroke-width:1;fill-opacity:1;stroke-opacity:0.3" />
<line x1="785" y1="51" x2="791" y2="53" stroke="black" stroke-width="1" />
<line x1="791" y1="53" x2="798" y2="51" stroke="black" stroke-width="1" />
<rect x="735" y="49" width="49" height="5" style="fill:#5d3c2d;stroke:black;stroke-width:1;fill-opacity:1;stroke-opacity:0.3" />
<rect x="798" y="49" width="49" height="5" style="fill:#5d3c2d;stroke:black;stroke-width:1;fill-opacity:1;stroke-opacity:0.3" />
<line x1="864" y1="149" x2="871" y2="151" stroke="black" stroke-width="1" />
<line x1="871" y1="151" x2="878" y2="149" stroke="black" stroke-width="1" />
<rect x="737" y="147" width="22" height="5" style="fill:#f5b024;stroke:black;stroke-width:1;fill-opacity:1;stroke-opacity:0.3" />
<line x1="760" y1="149" x2="837" y2="149" stroke="pink" stroke-width="1" />
<rect x="837" y="147" width="26" height="5" style="fill:#f5b024;stroke:black;stroke-width:1;fill-opacity:1;stroke-opacity:0.3" />
<rect x="878" y="147" width="49" height="5" style="fill:#f5b024;stroke:black;stroke-width:1;fill-opacity:1;stroke-opacity:0.3" />
<line x1="788" y1="121" x2="809" y2="123" stroke="black" stroke-width="1" />
<line x1="809" y1="123" x2="831" y2="121" stroke="black" stroke-width="1" />
<rect x="738" y="119" width="49" height="5" style="fill:#5d3c2d;stroke:black;stroke-width:1;fill-opacity:1;stroke-opacity:0.3" />
<rect x="831" y="119" width="49" height="5" style="fill:#5d3c2d;stroke:black;stroke-width:1;fill-opacity:1;stroke-opacity:0.3" />
<line x1="871" y1="65" x2="874" y2="67" stroke="black" stroke-width="1" />
<line x1="874" y1="67" x2="877" y2="65" stroke="black" stroke-width="1" />
<rect x="744" y="63" width="15" height="5" style="fill:#f5b024;stroke:black;stroke-width:1;fill-opacity:1;stroke-opacity:0.3" />
<line x1="760" y1="65" x2="837" y2="65" stroke="pink" stroke-width="1" />
<rect x="837" y="63" width="34" height="5" style="fill:#f5b024;stroke:black;stroke-width:1;fill-opacity:1;stroke-opacity:0.3" />
<rect x="877" y="63" width="49" height="5" style="fill:#f5b024;stroke:black;stroke-width:1;fill-opacity:1;stroke-opacity:0.3" />
<line x1="800" y1="86" x2="806" y2="88" stroke="black" stroke-width="1" />
<line x1="806" y1="88" x2="813" y2="86" stroke="black" stroke-width="1" />
<rect x="750" y="84" width="49" height="5" style="fill:#5d3c2d;stroke:black;stroke-width:1;fill-opacity:1;stroke-opacity:0.3" />
<rect x="813" y="84" width="49" height="5" style="fill:#5d3c2d;stroke:black;stroke-width:1;fill-opacity:1;stroke-opacity:0.3" />
<text x="15"  y="176" style="font-family:Arial;font-size:10;stroke:black;fill:black;">all.merged.bam</text>
</svg>
    
