<?xml version="1.0" encoding="utf-8" standalone="no"?>
<!DOCTYPE svg PUBLIC "-//W3C//DTD SVG 1.1//EN"
  "http://www.w3.org/Graphics/SVG/1.1/DTD/svg11.dtd">
<svg height="1140" width="1000" version="1.1" viewBox="0 0 1000 1140" xmlns="http://www.w3.org/2000/svg" xmlns:xlink="http://www.w3.org/1999/xlink">
<line x1="30" y1="11" x2="968" y2="11" stroke="black" stroke-width="1" />
<rect x="30" y="9" width="789" height="5" style="fill:#f50002;stroke:black;stroke-width:1;fill-opacity:1;stroke-opacity:0.3" />
<rect x="821" y="9" width="91" height="5" style="fill:#53a1b5;stroke:black;stroke-width:1;fill-opacity:1;stroke-opacity:0.3" />
<rect x="912" y="9" width="55" height="5" style="fill:#f50002;stroke:black;stroke-width:1;fill-opacity:1;stroke-opacity:0.3" />
<text x="30"  y="23" style="font-family:Arial;font-size:10;stroke:black;fill:black;">Cre01.g031200.t1.2.v5.5 (-) chromosome_1:4564172-4567209</text>
<line x1="37" y1="30" x2="38" y2="32" stroke="black" stroke-width="1" />
<line x1="38" y1="32" x2="40" y2="30" stroke="black" stroke-width="1" />
<rect x="6" y="28" width="30" height="5" style="fill:#f5b024;stroke:black;stroke-width:1;fill-opacity:1;stroke-opacity:0.3" />
<rect x="40" y="28" width="30" height="5" style="fill:#f5b024;stroke:black;stroke-width:1;fill-opacity:1;stroke-opacity:0.3" />
<line x1="62" y1="37" x2="70" y2="39" stroke="black" stroke-width="1" />
<line x1="70" y1="39" x2="79" y2="37" stroke="black" stroke-width="1" />
<rect x="31" y="35" width="30" height="5" style="fill:#f5b024;stroke:black;stroke-width:1;fill-opacity:1;stroke-opacity:0.3" />
<rect x="79" y="35" width="28" height="5" style="fill:#f5b024;stroke:black;stroke-width:1;fill-opacity:1;stroke-opacity:0.3" />
<line x1="62" y1="44" x2="70" y2="46" stroke="black" stroke-width="1" />
<line x1="70" y1="46" x2="78" y2="44" stroke="black" stroke-width="1" />
<rect x="31" y="42" width="30" height="5" style="fill:#f5b024;stroke:black;stroke-width:1;fill-opacity:1;stroke-opacity:0.3" />
<rect x="78" y="42" width="29" height="5" style="fill:#f5b024;stroke:black;stroke-width:1;fill-opacity:1;stroke-opacity:0.3" />
<line x1="62" y1="51" x2="65" y2="53" stroke="black" stroke-width="1" />
<line x1="65" y1="53" x2="68" y2="51" stroke="black" stroke-width="1" />
<rect x="32" y="49" width="30" height="5" style="fill:#f5b024;stroke:black;stroke-width:1;fill-opacity:1;stroke-opacity:0.3" />
<rect x="68" y="49" width="30" height="5" style="fill:#f5b024;stroke:black;stroke-width:1;fill-opacity:1;stroke-opacity:0.3" />
<line x1="63" y1="58" x2="65" y2="60" stroke="black" stroke-width="1" />
<line x1="65" y1="60" x2="67" y2="58" stroke="black" stroke-width="1" />
<rect x="32" y="56" width="30" height="5" style="fill:#f5b024;stroke:black;stroke-width:1;fill-opacity:1;stroke-opacity:0.3" />
<rect x="67" y="56" width="30" height="5" style="fill:#f5b024;stroke:black;stroke-width:1;fill-opacity:1;stroke-opacity:0.3" />
<line x1="63" y1="65" x2="65" y2="67" stroke="black" stroke-width="1" />
<line x1="65" y1="67" x2="67" y2="65" stroke="black" stroke-width="1" />
<rect x="32" y="63" width="30" height="5" style="fill:#f5b024;stroke:black;stroke-width:1;fill-opacity:1;stroke-opacity:0.3" />
<rect x="67" y="63" width="30" height="5" style="fill:#f5b024;stroke:black;stroke-width:1;fill-opacity:1;stroke-opacity:0.3" />
<line x1="63" y1="72" x2="75" y2="74" stroke="black" stroke-width="1" />
<line x1="75" y1="74" x2="87" y2="72" stroke="black" stroke-width="1" />
<rect x="32" y="70" width="30" height="5" style="fill:#f5b024;stroke:black;stroke-width:1;fill-opacity:1;stroke-opacity:0.3" />
<rect x="87" y="70" width="30" height="5" style="fill:#f5b024;stroke:black;stroke-width:1;fill-opacity:1;stroke-opacity:0.3" />
<line x1="63" y1="79" x2="65" y2="81" stroke="black" stroke-width="1" />
<line x1="65" y1="81" x2="68" y2="79" stroke="black" stroke-width="1" />
<rect x="32" y="77" width="30" height="5" style="fill:#f5b024;stroke:black;stroke-width:1;fill-opacity:1;stroke-opacity:0.3" />
<rect x="68" y="77" width="30" height="5" style="fill:#f5b024;stroke:black;stroke-width:1;fill-opacity:1;stroke-opacity:0.3" />
<line x1="63" y1="86" x2="64" y2="88" stroke="black" stroke-width="1" />
<line x1="64" y1="88" x2="66" y2="86" stroke="black" stroke-width="1" />
<rect x="32" y="84" width="30" height="5" style="fill:#f5b024;stroke:black;stroke-width:1;fill-opacity:1;stroke-opacity:0.3" />
<rect x="66" y="84" width="30" height="5" style="fill:#f5b024;stroke:black;stroke-width:1;fill-opacity:1;stroke-opacity:0.3" />
<line x1="63" y1="93" x2="67" y2="95" stroke="black" stroke-width="1" />
<line x1="67" y1="95" x2="71" y2="93" stroke="black" stroke-width="1" />
<rect x="32" y="91" width="30" height="5" style="fill:#f5b024;stroke:black;stroke-width:1;fill-opacity:1;stroke-opacity:0.3" />
<rect x="71" y="91" width="30" height="5" style="fill:#f5b024;stroke:black;stroke-width:1;fill-opacity:1;stroke-opacity:0.3" />
<line x1="63" y1="100" x2="70" y2="102" stroke="black" stroke-width="1" />
<line x1="70" y1="102" x2="78" y2="100" stroke="black" stroke-width="1" />
<rect x="32" y="98" width="30" height="5" style="fill:#f5b024;stroke:black;stroke-width:1;fill-opacity:1;stroke-opacity:0.3" />
<rect x="78" y="98" width="30" height="5" style="fill:#f5b024;stroke:black;stroke-width:1;fill-opacity:1;stroke-opacity:0.3" />
<line x1="63" y1="107" x2="87" y2="109" stroke="black" stroke-width="1" />
<line x1="87" y1="109" x2="111" y2="107" stroke="black" stroke-width="1" />
<rect x="32" y="105" width="30" height="5" style="fill:#f5b024;stroke:black;stroke-width:1;fill-opacity:1;stroke-opacity:0.3" />
<rect x="111" y="105" width="30" height="5" style="fill:#f5b024;stroke:black;stroke-width:1;fill-opacity:1;stroke-opacity:0.3" />
<line x1="63" y1="114" x2="69" y2="116" stroke="black" stroke-width="1" />
<line x1="69" y1="116" x2="76" y2="114" stroke="black" stroke-width="1" />
<rect x="32" y="112" width="30" height="5" style="fill:#f5b024;stroke:black;stroke-width:1;fill-opacity:1;stroke-opacity:0.3" />
<rect x="76" y="112" width="30" height="5" style="fill:#f5b024;stroke:black;stroke-width:1;fill-opacity:1;stroke-opacity:0.3" />
<line x1="63" y1="121" x2="71" y2="123" stroke="black" stroke-width="1" />
<line x1="71" y1="123" x2="79" y2="121" stroke="black" stroke-width="1" />
<rect x="32" y="119" width="30" height="5" style="fill:#f5b024;stroke:black;stroke-width:1;fill-opacity:1;stroke-opacity:0.3" />
<rect x="79" y="119" width="28" height="5" style="fill:#f5b024;stroke:black;stroke-width:1;fill-opacity:1;stroke-opacity:0.3" />
<line x1="63" y1="128" x2="67" y2="130" stroke="black" stroke-width="1" />
<line x1="67" y1="130" x2="71" y2="128" stroke="black" stroke-width="1" />
<rect x="32" y="126" width="30" height="5" style="fill:#f5b024;stroke:black;stroke-width:1;fill-opacity:1;stroke-opacity:0.3" />
<rect x="71" y="126" width="30" height="5" style="fill:#f5b024;stroke:black;stroke-width:1;fill-opacity:1;stroke-opacity:0.3" />
<line x1="63" y1="135" x2="66" y2="137" stroke="black" stroke-width="1" />
<line x1="66" y1="137" x2="69" y2="135" stroke="black" stroke-width="1" />
<rect x="32" y="133" width="30" height="5" style="fill:#f5b024;stroke:black;stroke-width:1;fill-opacity:1;stroke-opacity:0.3" />
<rect x="69" y="133" width="30" height="5" style="fill:#f5b024;stroke:black;stroke-width:1;fill-opacity:1;stroke-opacity:0.3" />
<line x1="80" y1="142" x2="84" y2="144" stroke="black" stroke-width="1" />
<line x1="84" y1="144" x2="89" y2="142" stroke="black" stroke-width="1" />
<rect x="34" y="140" width="46" height="5" style="fill:#f5b024;stroke:black;stroke-width:1;fill-opacity:1;stroke-opacity:0.3" />
<rect x="89" y="140" width="46" height="5" style="fill:#f5b024;stroke:black;stroke-width:1;fill-opacity:1;stroke-opacity:0.3" />
<line x1="71" y1="149" x2="78" y2="151" stroke="black" stroke-width="1" />
<line x1="78" y1="151" x2="86" y2="149" stroke="black" stroke-width="1" />
<rect x="40" y="147" width="30" height="5" style="fill:#f5b024;stroke:black;stroke-width:1;fill-opacity:1;stroke-opacity:0.3" />
<rect x="86" y="147" width="30" height="5" style="fill:#f5b024;stroke:black;stroke-width:1;fill-opacity:1;stroke-opacity:0.3" />
<line x1="71" y1="156" x2="80" y2="158" stroke="black" stroke-width="1" />
<line x1="80" y1="158" x2="90" y2="156" stroke="black" stroke-width="1" />
<rect x="41" y="154" width="30" height="5" style="fill:#5d3c2d;stroke:black;stroke-width:1;fill-opacity:1;stroke-opacity:0.3" />
<rect x="90" y="154" width="30" height="5" style="fill:#5d3c2d;stroke:black;stroke-width:1;fill-opacity:1;stroke-opacity:0.3" />
<line x1="71" y1="163" x2="75" y2="165" stroke="black" stroke-width="1" />
<line x1="75" y1="165" x2="79" y2="163" stroke="black" stroke-width="1" />
<rect x="41" y="161" width="29" height="5" style="fill:#f5b024;stroke:black;stroke-width:1;fill-opacity:1;stroke-opacity:0.3" />
<rect x="79" y="161" width="30" height="5" style="fill:#f5b024;stroke:black;stroke-width:1;fill-opacity:1;stroke-opacity:0.3" />
<line x1="105" y1="30" x2="116" y2="32" stroke="black" stroke-width="1" />
<line x1="116" y1="32" x2="128" y2="30" stroke="black" stroke-width="1" />
<rect x="74" y="28" width="30" height="5" style="fill:#f5b024;stroke:black;stroke-width:1;fill-opacity:1;stroke-opacity:0.3" />
<rect x="128" y="28" width="30" height="5" style="fill:#f5b024;stroke:black;stroke-width:1;fill-opacity:1;stroke-opacity:0.3" />
<line x1="128" y1="86" x2="132" y2="88" stroke="black" stroke-width="1" />
<line x1="132" y1="88" x2="136" y2="86" stroke="black" stroke-width="1" />
<rect x="97" y="84" width="30" height="5" style="fill:#f5b024;stroke:black;stroke-width:1;fill-opacity:1;stroke-opacity:0.3" />
<rect x="136" y="84" width="30" height="5" style="fill:#f5b024;stroke:black;stroke-width:1;fill-opacity:1;stroke-opacity:0.3" />
<line x1="130" y1="51" x2="133" y2="53" stroke="black" stroke-width="1" />
<line x1="133" y1="53" x2="136" y2="51" stroke="black" stroke-width="1" />
<rect x="100" y="49" width="30" height="5" style="fill:#f5b024;stroke:black;stroke-width:1;fill-opacity:1;stroke-opacity:0.3" />
<rect x="136" y="49" width="30" height="5" style="fill:#f5b024;stroke:black;stroke-width:1;fill-opacity:1;stroke-opacity:0.3" />
<line x1="131" y1="58" x2="136" y2="60" stroke="black" stroke-width="1" />
<line x1="136" y1="60" x2="142" y2="58" stroke="black" stroke-width="1" />
<rect x="100" y="56" width="30" height="5" style="fill:#f5b024;stroke:black;stroke-width:1;fill-opacity:1;stroke-opacity:0.3" />
<rect x="142" y="56" width="30" height="5" style="fill:#f5b024;stroke:black;stroke-width:1;fill-opacity:1;stroke-opacity:0.3" />
<line x1="131" y1="65" x2="140" y2="67" stroke="black" stroke-width="1" />
<line x1="140" y1="67" x2="150" y2="65" stroke="black" stroke-width="1" />
<rect x="100" y="63" width="30" height="5" style="fill:#f5b024;stroke:black;stroke-width:1;fill-opacity:1;stroke-opacity:0.3" />
<rect x="150" y="63" width="30" height="5" style="fill:#f5b024;stroke:black;stroke-width:1;fill-opacity:1;stroke-opacity:0.3" />
<line x1="131" y1="79" x2="305" y2="81" stroke="black" stroke-width="1" />
<line x1="305" y1="81" x2="479" y2="79" stroke="black" stroke-width="1" />
<rect x="100" y="77" width="30" height="5" style="fill:#f5b024;stroke:black;stroke-width:1;fill-opacity:1;stroke-opacity:0.3" />
<rect x="479" y="77" width="30" height="5" style="fill:#f5b024;stroke:black;stroke-width:1;fill-opacity:1;stroke-opacity:0.3" />
<line x1="131" y1="135" x2="135" y2="137" stroke="black" stroke-width="1" />
<line x1="135" y1="137" x2="140" y2="135" stroke="black" stroke-width="1" />
<rect x="100" y="133" width="30" height="5" style="fill:#f5b024;stroke:black;stroke-width:1;fill-opacity:1;stroke-opacity:0.3" />
<rect x="140" y="133" width="30" height="5" style="fill:#f5b024;stroke:black;stroke-width:1;fill-opacity:1;stroke-opacity:0.3" />
<line x1="134" y1="93" x2="299" y2="95" stroke="black" stroke-width="1" />
<line x1="299" y1="95" x2="464" y2="93" stroke="black" stroke-width="1" />
<rect x="104" y="91" width="30" height="5" style="fill:#f5b024;stroke:black;stroke-width:1;fill-opacity:1;stroke-opacity:0.3" />
<rect x="464" y="91" width="30" height="5" style="fill:#f5b024;stroke:black;stroke-width:1;fill-opacity:1;stroke-opacity:0.3" />
<line x1="137" y1="128" x2="139" y2="130" stroke="black" stroke-width="1" />
<line x1="139" y1="130" x2="141" y2="128" stroke="black" stroke-width="1" />
<rect x="106" y="126" width="30" height="5" style="fill:#f5b024;stroke:black;stroke-width:1;fill-opacity:1;stroke-opacity:0.3" />
<rect x="141" y="126" width="30" height="5" style="fill:#f5b024;stroke:black;stroke-width:1;fill-opacity:1;stroke-opacity:0.3" />
<line x1="141" y1="37" x2="144" y2="39" stroke="black" stroke-width="1" />
<line x1="144" y1="39" x2="147" y2="37" stroke="black" stroke-width="1" />
<rect x="110" y="35" width="30" height="5" style="fill:#f5b024;stroke:black;stroke-width:1;fill-opacity:1;stroke-opacity:0.3" />
<rect x="147" y="35" width="30" height="5" style="fill:#f5b024;stroke:black;stroke-width:1;fill-opacity:1;stroke-opacity:0.3" />
<line x1="141" y1="44" x2="150" y2="46" stroke="black" stroke-width="1" />
<line x1="150" y1="46" x2="159" y2="44" stroke="black" stroke-width="1" />
<rect x="110" y="42" width="30" height="5" style="fill:#f5b024;stroke:black;stroke-width:1;fill-opacity:1;stroke-opacity:0.3" />
<rect x="159" y="42" width="30" height="5" style="fill:#f5b024;stroke:black;stroke-width:1;fill-opacity:1;stroke-opacity:0.3" />
<line x1="145" y1="100" x2="146" y2="102" stroke="black" stroke-width="1" />
<line x1="146" y1="102" x2="148" y2="100" stroke="black" stroke-width="1" />
<rect x="114" y="98" width="30" height="5" style="fill:#f5b024;stroke:black;stroke-width:1;fill-opacity:1;stroke-opacity:0.3" />
<rect x="148" y="98" width="30" height="5" style="fill:#f5b024;stroke:black;stroke-width:1;fill-opacity:1;stroke-opacity:0.3" />
<line x1="144" y1="114" x2="309" y2="116" stroke="black" stroke-width="1" />
<line x1="309" y1="116" x2="475" y2="114" stroke="black" stroke-width="1" />
<rect x="114" y="112" width="30" height="5" style="fill:#f5b024;stroke:black;stroke-width:1;fill-opacity:1;stroke-opacity:0.3" />
<rect x="475" y="112" width="30" height="5" style="fill:#f5b024;stroke:black;stroke-width:1;fill-opacity:1;stroke-opacity:0.3" />
<line x1="145" y1="121" x2="146" y2="123" stroke="black" stroke-width="1" />
<line x1="146" y1="123" x2="148" y2="121" stroke="black" stroke-width="1" />
<rect x="114" y="119" width="30" height="5" style="fill:#f5b024;stroke:black;stroke-width:1;fill-opacity:1;stroke-opacity:0.3" />
<rect x="148" y="119" width="30" height="5" style="fill:#f5b024;stroke:black;stroke-width:1;fill-opacity:1;stroke-opacity:0.3" />
<line x1="145" y1="163" x2="305" y2="165" stroke="black" stroke-width="1" />
<line x1="305" y1="165" x2="465" y2="163" stroke="black" stroke-width="1" />
<rect x="114" y="161" width="30" height="5" style="fill:#f5b024;stroke:black;stroke-width:1;fill-opacity:1;stroke-opacity:0.3" />
<rect x="465" y="161" width="30" height="5" style="fill:#f5b024;stroke:black;stroke-width:1;fill-opacity:1;stroke-opacity:0.3" />
<line x1="163" y1="149" x2="319" y2="151" stroke="black" stroke-width="1" />
<line x1="319" y1="151" x2="475" y2="149" stroke="black" stroke-width="1" />
<rect x="117" y="147" width="46" height="5" style="fill:#f5b024;stroke:black;stroke-width:1;fill-opacity:1;stroke-opacity:0.3" />
<rect x="475" y="147" width="46" height="5" style="fill:#f5b024;stroke:black;stroke-width:1;fill-opacity:1;stroke-opacity:0.3" />
<line x1="148" y1="72" x2="153" y2="74" stroke="black" stroke-width="1" />
<line x1="153" y1="74" x2="159" y2="72" stroke="black" stroke-width="1" />
<rect x="118" y="70" width="29" height="5" style="fill:#f5b024;stroke:black;stroke-width:1;fill-opacity:1;stroke-opacity:0.3" />
<rect x="159" y="70" width="30" height="5" style="fill:#f5b024;stroke:black;stroke-width:1;fill-opacity:1;stroke-opacity:0.3" />
<line x1="152" y1="156" x2="308" y2="158" stroke="black" stroke-width="1" />
<line x1="308" y1="158" x2="464" y2="156" stroke="black" stroke-width="1" />
<rect x="121" y="154" width="30" height="5" style="fill:#f5b024;stroke:black;stroke-width:1;fill-opacity:1;stroke-opacity:0.3" />
<rect x="464" y="154" width="30" height="5" style="fill:#f5b024;stroke:black;stroke-width:1;fill-opacity:1;stroke-opacity:0.3" />
<line x1="168" y1="142" x2="320" y2="144" stroke="black" stroke-width="1" />
<line x1="320" y1="144" x2="473" y2="142" stroke="black" stroke-width="1" />
<rect x="138" y="140" width="30" height="5" style="fill:#f5b024;stroke:black;stroke-width:1;fill-opacity:1;stroke-opacity:0.3" />
<rect x="473" y="140" width="30" height="5" style="fill:#f5b024;stroke:black;stroke-width:1;fill-opacity:1;stroke-opacity:0.3" />
<line x1="173" y1="107" x2="324" y2="109" stroke="black" stroke-width="1" />
<line x1="324" y1="109" x2="475" y2="107" stroke="black" stroke-width="1" />
<rect x="142" y="105" width="30" height="5" style="fill:#f5b024;stroke:black;stroke-width:1;fill-opacity:1;stroke-opacity:0.3" />
<rect x="475" y="105" width="30" height="5" style="fill:#f5b024;stroke:black;stroke-width:1;fill-opacity:1;stroke-opacity:0.3" />
<line x1="674" y1="30" x2="679" y2="32" stroke="black" stroke-width="1" />
<line x1="679" y1="32" x2="684" y2="30" stroke="black" stroke-width="1" />
<rect x="643" y="28" width="30" height="5" style="fill:#f5b024;stroke:black;stroke-width:1;fill-opacity:1;stroke-opacity:0.3" />
<rect x="684" y="28" width="30" height="5" style="fill:#f5b024;stroke:black;stroke-width:1;fill-opacity:1;stroke-opacity:0.3" />
<line x1="677" y1="37" x2="680" y2="39" stroke="black" stroke-width="1" />
<line x1="680" y1="39" x2="683" y2="37" stroke="black" stroke-width="1" />
<rect x="646" y="35" width="30" height="5" style="fill:#f5b024;stroke:black;stroke-width:1;fill-opacity:1;stroke-opacity:0.3" />
<rect x="683" y="35" width="30" height="5" style="fill:#f5b024;stroke:black;stroke-width:1;fill-opacity:1;stroke-opacity:0.3" />
<line x1="677" y1="44" x2="681" y2="46" stroke="black" stroke-width="1" />
<line x1="681" y1="46" x2="686" y2="44" stroke="black" stroke-width="1" />
<rect x="646" y="42" width="30" height="5" style="fill:#f5b024;stroke:black;stroke-width:1;fill-opacity:1;stroke-opacity:0.3" />
<rect x="686" y="42" width="30" height="5" style="fill:#f5b024;stroke:black;stroke-width:1;fill-opacity:1;stroke-opacity:0.3" />
<line x1="677" y1="51" x2="680" y2="53" stroke="black" stroke-width="1" />
<line x1="680" y1="53" x2="684" y2="51" stroke="black" stroke-width="1" />
<rect x="646" y="49" width="30" height="5" style="fill:#f5b024;stroke:black;stroke-width:1;fill-opacity:1;stroke-opacity:0.3" />
<rect x="684" y="49" width="30" height="5" style="fill:#f5b024;stroke:black;stroke-width:1;fill-opacity:1;stroke-opacity:0.3" />
<line x1="677" y1="58" x2="680" y2="60" stroke="black" stroke-width="1" />
<line x1="680" y1="60" x2="684" y2="58" stroke="black" stroke-width="1" />
<rect x="646" y="56" width="30" height="5" style="fill:#f5b024;stroke:black;stroke-width:1;fill-opacity:1;stroke-opacity:0.3" />
<rect x="684" y="56" width="30" height="5" style="fill:#f5b024;stroke:black;stroke-width:1;fill-opacity:1;stroke-opacity:0.3" />
<line x1="676" y1="65" x2="681" y2="67" stroke="black" stroke-width="1" />
<line x1="681" y1="67" x2="687" y2="65" stroke="black" stroke-width="1" />
<rect x="646" y="63" width="30" height="5" style="fill:#5d3c2d;stroke:black;stroke-width:1;fill-opacity:1;stroke-opacity:0.3" />
<rect x="687" y="63" width="30" height="5" style="fill:#5d3c2d;stroke:black;stroke-width:1;fill-opacity:1;stroke-opacity:0.3" />
<line x1="677" y1="72" x2="679" y2="74" stroke="black" stroke-width="1" />
<line x1="679" y1="74" x2="681" y2="72" stroke="black" stroke-width="1" />
<rect x="646" y="70" width="30" height="5" style="fill:#f5b024;stroke:black;stroke-width:1;fill-opacity:1;stroke-opacity:0.3" />
<rect x="681" y="70" width="30" height="5" style="fill:#f5b024;stroke:black;stroke-width:1;fill-opacity:1;stroke-opacity:0.3" />
<line x1="677" y1="79" x2="686" y2="81" stroke="black" stroke-width="1" />
<line x1="686" y1="81" x2="695" y2="79" stroke="black" stroke-width="1" />
<rect x="646" y="77" width="30" height="5" style="fill:#f5b024;stroke:black;stroke-width:1;fill-opacity:1;stroke-opacity:0.3" />
<rect x="695" y="77" width="30" height="5" style="fill:#f5b024;stroke:black;stroke-width:1;fill-opacity:1;stroke-opacity:0.3" />
<line x1="677" y1="86" x2="683" y2="88" stroke="black" stroke-width="1" />
<line x1="683" y1="88" x2="689" y2="86" stroke="black" stroke-width="1" />
<rect x="646" y="84" width="30" height="5" style="fill:#f5b024;stroke:black;stroke-width:1;fill-opacity:1;stroke-opacity:0.3" />
<rect x="689" y="84" width="30" height="5" style="fill:#f5b024;stroke:black;stroke-width:1;fill-opacity:1;stroke-opacity:0.3" />
<line x1="677" y1="93" x2="685" y2="95" stroke="black" stroke-width="1" />
<line x1="685" y1="95" x2="693" y2="93" stroke="black" stroke-width="1" />
<rect x="647" y="91" width="30" height="5" style="fill:#f5b024;stroke:black;stroke-width:1;fill-opacity:1;stroke-opacity:0.3" />
<rect x="693" y="91" width="30" height="5" style="fill:#f5b024;stroke:black;stroke-width:1;fill-opacity:1;stroke-opacity:0.3" />
<line x1="677" y1="100" x2="679" y2="102" stroke="black" stroke-width="1" />
<line x1="679" y1="102" x2="681" y2="100" stroke="black" stroke-width="1" />
<rect x="647" y="98" width="30" height="5" style="fill:#f5b024;stroke:black;stroke-width:1;fill-opacity:1;stroke-opacity:0.3" />
<rect x="681" y="98" width="30" height="5" style="fill:#f5b024;stroke:black;stroke-width:1;fill-opacity:1;stroke-opacity:0.3" />
<line x1="693" y1="107" x2="701" y2="109" stroke="black" stroke-width="1" />
<line x1="701" y1="109" x2="710" y2="107" stroke="black" stroke-width="1" />
<rect x="647" y="105" width="46" height="5" style="fill:#f5b024;stroke:black;stroke-width:1;fill-opacity:1;stroke-opacity:0.3" />
<rect x="710" y="105" width="46" height="5" style="fill:#f5b024;stroke:black;stroke-width:1;fill-opacity:1;stroke-opacity:0.3" />
<line x1="678" y1="114" x2="683" y2="116" stroke="black" stroke-width="1" />
<line x1="683" y1="116" x2="689" y2="114" stroke="black" stroke-width="1" />
<rect x="647" y="112" width="30" height="5" style="fill:#f5b024;stroke:black;stroke-width:1;fill-opacity:1;stroke-opacity:0.3" />
<rect x="689" y="112" width="30" height="5" style="fill:#f5b024;stroke:black;stroke-width:1;fill-opacity:1;stroke-opacity:0.3" />
<line x1="678" y1="121" x2="691" y2="123" stroke="black" stroke-width="1" />
<line x1="691" y1="123" x2="704" y2="121" stroke="black" stroke-width="1" />
<rect x="647" y="119" width="30" height="5" style="fill:#f5b024;stroke:black;stroke-width:1;fill-opacity:1;stroke-opacity:0.3" />
<rect x="704" y="119" width="30" height="5" style="fill:#f5b024;stroke:black;stroke-width:1;fill-opacity:1;stroke-opacity:0.3" />
<line x1="678" y1="128" x2="682" y2="130" stroke="black" stroke-width="1" />
<line x1="682" y1="130" x2="686" y2="128" stroke="black" stroke-width="1" />
<rect x="647" y="126" width="30" height="5" style="fill:#f5b024;stroke:black;stroke-width:1;fill-opacity:1;stroke-opacity:0.3" />
<rect x="686" y="126" width="30" height="5" style="fill:#f5b024;stroke:black;stroke-width:1;fill-opacity:1;stroke-opacity:0.3" />
<line x1="678" y1="135" x2="692" y2="137" stroke="black" stroke-width="1" />
<line x1="692" y1="137" x2="707" y2="135" stroke="black" stroke-width="1" />
<rect x="647" y="133" width="30" height="5" style="fill:#f5b024;stroke:black;stroke-width:1;fill-opacity:1;stroke-opacity:0.3" />
<rect x="707" y="133" width="30" height="5" style="fill:#f5b024;stroke:black;stroke-width:1;fill-opacity:1;stroke-opacity:0.3" />
<line x1="678" y1="142" x2="682" y2="144" stroke="black" stroke-width="1" />
<line x1="682" y1="144" x2="686" y2="142" stroke="black" stroke-width="1" />
<rect x="647" y="140" width="30" height="5" style="fill:#f5b024;stroke:black;stroke-width:1;fill-opacity:1;stroke-opacity:0.3" />
<rect x="686" y="140" width="30" height="5" style="fill:#f5b024;stroke:black;stroke-width:1;fill-opacity:1;stroke-opacity:0.3" />
<line x1="678" y1="149" x2="687" y2="151" stroke="black" stroke-width="1" />
<line x1="687" y1="151" x2="697" y2="149" stroke="black" stroke-width="1" />
<rect x="647" y="147" width="30" height="5" style="fill:#f5b024;stroke:black;stroke-width:1;fill-opacity:1;stroke-opacity:0.3" />
<rect x="697" y="147" width="30" height="5" style="fill:#f5b024;stroke:black;stroke-width:1;fill-opacity:1;stroke-opacity:0.3" />
<line x1="678" y1="156" x2="681" y2="158" stroke="black" stroke-width="1" />
<line x1="681" y1="158" x2="684" y2="156" stroke="black" stroke-width="1" />
<rect x="647" y="154" width="30" height="5" style="fill:#f5b024;stroke:black;stroke-width:1;fill-opacity:1;stroke-opacity:0.3" />
<rect x="684" y="154" width="30" height="5" style="fill:#f5b024;stroke:black;stroke-width:1;fill-opacity:1;stroke-opacity:0.3" />
<line x1="693" y1="163" x2="702" y2="165" stroke="black" stroke-width="1" />
<line x1="702" y1="165" x2="712" y2="163" stroke="black" stroke-width="1" />
<rect x="647" y="161" width="46" height="5" style="fill:#f5b024;stroke:black;stroke-width:1;fill-opacity:1;stroke-opacity:0.3" />
<rect x="712" y="161" width="44" height="5" style="fill:#f5b024;stroke:black;stroke-width:1;fill-opacity:1;stroke-opacity:0.3" />
<line x1="743" y1="72" x2="746" y2="74" stroke="black" stroke-width="1" />
<line x1="746" y1="74" x2="750" y2="72" stroke="black" stroke-width="1" />
<rect x="712" y="70" width="30" height="5" style="fill:#f5b024;stroke:black;stroke-width:1;fill-opacity:1;stroke-opacity:0.3" />
<rect x="750" y="70" width="30" height="5" style="fill:#f5b024;stroke:black;stroke-width:1;fill-opacity:1;stroke-opacity:0.3" />
<line x1="743" y1="100" x2="745" y2="102" stroke="black" stroke-width="1" />
<line x1="745" y1="102" x2="747" y2="100" stroke="black" stroke-width="1" />
<rect x="713" y="98" width="30" height="5" style="fill:#f5b024;stroke:black;stroke-width:1;fill-opacity:1;stroke-opacity:0.3" />
<rect x="747" y="98" width="30" height="5" style="fill:#f5b024;stroke:black;stroke-width:1;fill-opacity:1;stroke-opacity:0.3" />
<line x1="745" y1="37" x2="747" y2="39" stroke="black" stroke-width="1" />
<line x1="747" y1="39" x2="750" y2="37" stroke="black" stroke-width="1" />
<rect x="714" y="35" width="30" height="5" style="fill:#f5b024;stroke:black;stroke-width:1;fill-opacity:1;stroke-opacity:0.3" />
<rect x="750" y="35" width="30" height="5" style="fill:#f5b024;stroke:black;stroke-width:1;fill-opacity:1;stroke-opacity:0.3" />
<line x1="746" y1="156" x2="759" y2="158" stroke="black" stroke-width="1" />
<line x1="759" y1="158" x2="772" y2="156" stroke="black" stroke-width="1" />
<rect x="715" y="154" width="30" height="5" style="fill:#f5b024;stroke:black;stroke-width:1;fill-opacity:1;stroke-opacity:0.3" />
<rect x="772" y="154" width="30" height="5" style="fill:#f5b024;stroke:black;stroke-width:1;fill-opacity:1;stroke-opacity:0.3" />
<line x1="747" y1="30" x2="752" y2="32" stroke="black" stroke-width="1" />
<line x1="752" y1="32" x2="758" y2="30" stroke="black" stroke-width="1" />
<rect x="716" y="28" width="30" height="5" style="fill:#f5b024;stroke:black;stroke-width:1;fill-opacity:1;stroke-opacity:0.3" />
<rect x="758" y="28" width="30" height="5" style="fill:#f5b024;stroke:black;stroke-width:1;fill-opacity:1;stroke-opacity:0.3" />
<line x1="747" y1="51" x2="755" y2="53" stroke="black" stroke-width="1" />
<line x1="755" y1="53" x2="764" y2="51" stroke="black" stroke-width="1" />
<rect x="717" y="49" width="30" height="5" style="fill:#f5b024;stroke:black;stroke-width:1;fill-opacity:1;stroke-opacity:0.3" />
<rect x="764" y="49" width="30" height="5" style="fill:#f5b024;stroke:black;stroke-width:1;fill-opacity:1;stroke-opacity:0.3" />
<line x1="747" y1="58" x2="752" y2="60" stroke="black" stroke-width="1" />
<line x1="752" y1="60" x2="758" y2="58" stroke="black" stroke-width="1" />
<rect x="717" y="56" width="30" height="5" style="fill:#f5b024;stroke:black;stroke-width:1;fill-opacity:1;stroke-opacity:0.3" />
<rect x="758" y="56" width="30" height="5" style="fill:#f5b024;stroke:black;stroke-width:1;fill-opacity:1;stroke-opacity:0.3" />
<line x1="763" y1="142" x2="770" y2="144" stroke="black" stroke-width="1" />
<line x1="770" y1="144" x2="777" y2="142" stroke="black" stroke-width="1" />
<rect x="717" y="140" width="46" height="5" style="fill:#f5b024;stroke:black;stroke-width:1;fill-opacity:1;stroke-opacity:0.3" />
<rect x="777" y="140" width="46" height="5" style="fill:#f5b024;stroke:black;stroke-width:1;fill-opacity:1;stroke-opacity:0.3" />
<line x1="748" y1="44" x2="759" y2="46" stroke="black" stroke-width="1" />
<line x1="759" y1="46" x2="770" y2="44" stroke="black" stroke-width="1" />
<rect x="717" y="42" width="30" height="5" style="fill:#f5b024;stroke:black;stroke-width:1;fill-opacity:1;stroke-opacity:0.3" />
<rect x="770" y="42" width="30" height="5" style="fill:#f5b024;stroke:black;stroke-width:1;fill-opacity:1;stroke-opacity:0.3" />
<line x1="748" y1="128" x2="766" y2="130" stroke="black" stroke-width="1" />
<line x1="766" y1="130" x2="784" y2="128" stroke="black" stroke-width="1" />
<rect x="717" y="126" width="30" height="5" style="fill:#f5b024;stroke:black;stroke-width:1;fill-opacity:1;stroke-opacity:0.3" />
<rect x="784" y="126" width="30" height="5" style="fill:#f5b024;stroke:black;stroke-width:1;fill-opacity:1;stroke-opacity:0.3" />
<line x1="749" y1="65" x2="760" y2="67" stroke="black" stroke-width="1" />
<line x1="760" y1="67" x2="772" y2="65" stroke="black" stroke-width="1" />
<rect x="718" y="63" width="30" height="5" style="fill:#f5b024;stroke:black;stroke-width:1;fill-opacity:1;stroke-opacity:0.3" />
<rect x="772" y="63" width="30" height="5" style="fill:#f5b024;stroke:black;stroke-width:1;fill-opacity:1;stroke-opacity:0.3" />
<line x1="752" y1="86" x2="762" y2="88" stroke="black" stroke-width="1" />
<line x1="762" y1="88" x2="772" y2="86" stroke="black" stroke-width="1" />
<rect x="721" y="84" width="30" height="5" style="fill:#f5b024;stroke:black;stroke-width:1;fill-opacity:1;stroke-opacity:0.3" />
<rect x="772" y="84" width="30" height="5" style="fill:#f5b024;stroke:black;stroke-width:1;fill-opacity:1;stroke-opacity:0.3" />
<line x1="753" y1="114" x2="762" y2="116" stroke="black" stroke-width="1" />
<line x1="762" y1="116" x2="771" y2="114" stroke="black" stroke-width="1" />
<rect x="722" y="112" width="30" height="5" style="fill:#5d3c2d;stroke:black;stroke-width:1;fill-opacity:1;stroke-opacity:0.3" />
<rect x="771" y="112" width="30" height="5" style="fill:#5d3c2d;stroke:black;stroke-width:1;fill-opacity:1;stroke-opacity:0.3" />
<line x1="757" y1="79" x2="764" y2="81" stroke="black" stroke-width="1" />
<line x1="764" y1="81" x2="772" y2="79" stroke="black" stroke-width="1" />
<rect x="726" y="77" width="30" height="5" style="fill:#f5b024;stroke:black;stroke-width:1;fill-opacity:1;stroke-opacity:0.3" />
<rect x="772" y="77" width="30" height="5" style="fill:#f5b024;stroke:black;stroke-width:1;fill-opacity:1;stroke-opacity:0.3" />
<line x1="757" y1="93" x2="770" y2="95" stroke="black" stroke-width="1" />
<line x1="770" y1="95" x2="783" y2="93" stroke="black" stroke-width="1" />
<rect x="726" y="91" width="30" height="5" style="fill:#f5b024;stroke:black;stroke-width:1;fill-opacity:1;stroke-opacity:0.3" />
<rect x="783" y="91" width="30" height="5" style="fill:#f5b024;stroke:black;stroke-width:1;fill-opacity:1;stroke-opacity:0.3" />
<line x1="759" y1="149" x2="764" y2="151" stroke="black" stroke-width="1" />
<line x1="764" y1="151" x2="770" y2="149" stroke="black" stroke-width="1" />
<rect x="728" y="147" width="30" height="5" style="fill:#f5b024;stroke:black;stroke-width:1;fill-opacity:1;stroke-opacity:0.3" />
<rect x="770" y="147" width="30" height="5" style="fill:#f5b024;stroke:black;stroke-width:1;fill-opacity:1;stroke-opacity:0.3" />
<line x1="765" y1="121" x2="775" y2="123" stroke="black" stroke-width="1" />
<line x1="775" y1="123" x2="785" y2="121" stroke="black" stroke-width="1" />
<rect x="735" y="119" width="30" height="5" style="fill:#f5b024;stroke:black;stroke-width:1;fill-opacity:1;stroke-opacity:0.3" />
<rect x="785" y="119" width="30" height="5" style="fill:#f5b024;stroke:black;stroke-width:1;fill-opacity:1;stroke-opacity:0.3" />
<line x1="784" y1="135" x2="786" y2="137" stroke="black" stroke-width="1" />
<line x1="786" y1="137" x2="788" y2="135" stroke="black" stroke-width="1" />
<rect x="738" y="133" width="46" height="5" style="fill:#f5b024;stroke:black;stroke-width:1;fill-opacity:1;stroke-opacity:0.3" />
<rect x="788" y="133" width="46" height="5" style="fill:#f5b024;stroke:black;stroke-width:1;fill-opacity:1;stroke-opacity:0.3" />
<line x1="789" y1="107" x2="791" y2="109" stroke="black" stroke-width="1" />
<line x1="791" y1="109" x2="794" y2="107" stroke="black" stroke-width="1" />
<rect x="758" y="105" width="30" height="5" style="fill:#f5b024;stroke:black;stroke-width:1;fill-opacity:1;stroke-opacity:0.3" />
<rect x="794" y="105" width="30" height="5" style="fill:#f5b024;stroke:black;stroke-width:1;fill-opacity:1;stroke-opacity:0.3" />
<line x1="789" y1="163" x2="791" y2="165" stroke="black" stroke-width="1" />
<line x1="791" y1="165" x2="794" y2="163" stroke="black" stroke-width="1" />
<rect x="758" y="161" width="30" height="5" style="fill:#f5b024;stroke:black;stroke-width:1;fill-opacity:1;stroke-opacity:0.3" />
<rect x="794" y="161" width="30" height="5" style="fill:#f5b024;stroke:black;stroke-width:1;fill-opacity:1;stroke-opacity:0.3" />
<line x1="810" y1="100" x2="812" y2="102" stroke="black" stroke-width="1" />
<line x1="812" y1="102" x2="814" y2="100" stroke="black" stroke-width="1" />
<rect x="780" y="98" width="30" height="5" style="fill:#f5b024;stroke:black;stroke-width:1;fill-opacity:1;stroke-opacity:0.3" />
<rect x="814" y="98" width="30" height="5" style="fill:#f5b024;stroke:black;stroke-width:1;fill-opacity:1;stroke-opacity:0.3" />
<line x1="811" y1="72" x2="816" y2="74" stroke="black" stroke-width="1" />
<line x1="816" y1="74" x2="822" y2="72" stroke="black" stroke-width="1" />
<rect x="781" y="70" width="30" height="5" style="fill:#f5b024;stroke:black;stroke-width:1;fill-opacity:1;stroke-opacity:0.3" />
<rect x="822" y="70" width="30" height="5" style="fill:#f5b024;stroke:black;stroke-width:1;fill-opacity:1;stroke-opacity:0.3" />
<line x1="827" y1="37" x2="829" y2="39" stroke="black" stroke-width="1" />
<line x1="829" y1="39" x2="831" y2="37" stroke="black" stroke-width="1" />
<rect x="781" y="35" width="46" height="5" style="fill:#f5b024;stroke:black;stroke-width:1;fill-opacity:1;stroke-opacity:0.3" />
<rect x="831" y="35" width="46" height="5" style="fill:#f5b024;stroke:black;stroke-width:1;fill-opacity:1;stroke-opacity:0.3" />
<line x1="820" y1="30" x2="824" y2="32" stroke="black" stroke-width="1" />
<line x1="824" y1="32" x2="828" y2="30" stroke="black" stroke-width="1" />
<rect x="789" y="28" width="30" height="5" style="fill:#f5b024;stroke:black;stroke-width:1;fill-opacity:1;stroke-opacity:0.3" />
<rect x="828" y="28" width="30" height="5" style="fill:#f5b024;stroke:black;stroke-width:1;fill-opacity:1;stroke-opacity:0.3" />
<line x1="823" y1="58" x2="831" y2="60" stroke="black" stroke-width="1" />
<line x1="831" y1="60" x2="840" y2="58" stroke="black" stroke-width="1" />
<rect x="792" y="56" width="30" height="5" style="fill:#f5b024;stroke:black;stroke-width:1;fill-opacity:1;stroke-opacity:0.3" />
<rect x="840" y="56" width="30" height="5" style="fill:#f5b024;stroke:black;stroke-width:1;fill-opacity:1;stroke-opacity:0.3" />
<line x1="828" y1="51" x2="829" y2="53" stroke="black" stroke-width="1" />
<line x1="829" y1="53" x2="831" y2="51" stroke="black" stroke-width="1" />
<rect x="798" y="49" width="30" height="5" style="fill:#f5b024;stroke:black;stroke-width:1;fill-opacity:1;stroke-opacity:0.3" />
<rect x="831" y="49" width="30" height="5" style="fill:#f5b024;stroke:black;stroke-width:1;fill-opacity:1;stroke-opacity:0.3" />
<line x1="832" y1="44" x2="838" y2="46" stroke="black" stroke-width="1" />
<line x1="838" y1="46" x2="844" y2="44" stroke="black" stroke-width="1" />
<rect x="801" y="42" width="30" height="5" style="fill:#5d3c2d;stroke:black;stroke-width:1;fill-opacity:1;stroke-opacity:0.3" />
<rect x="844" y="42" width="30" height="5" style="fill:#5d3c2d;stroke:black;stroke-width:1;fill-opacity:1;stroke-opacity:0.3" />
<line x1="831" y1="149" x2="834" y2="151" stroke="black" stroke-width="1" />
<line x1="834" y1="151" x2="837" y2="149" stroke="black" stroke-width="1" />
<rect x="801" y="147" width="30" height="5" style="fill:#f5b024;stroke:black;stroke-width:1;fill-opacity:1;stroke-opacity:0.3" />
<rect x="837" y="147" width="30" height="5" style="fill:#f5b024;stroke:black;stroke-width:1;fill-opacity:1;stroke-opacity:0.3" />
<line x1="832" y1="114" x2="839" y2="116" stroke="black" stroke-width="1" />
<line x1="839" y1="116" x2="847" y2="114" stroke="black" stroke-width="1" />
<rect x="802" y="112" width="30" height="5" style="fill:#f5b024;stroke:black;stroke-width:1;fill-opacity:1;stroke-opacity:0.3" />
<rect x="847" y="112" width="30" height="5" style="fill:#f5b024;stroke:black;stroke-width:1;fill-opacity:1;stroke-opacity:0.3" />
<line x1="834" y1="65" x2="835" y2="67" stroke="black" stroke-width="1" />
<line x1="835" y1="67" x2="837" y2="65" stroke="black" stroke-width="1" />
<rect x="803" y="63" width="30" height="5" style="fill:#f5b024;stroke:black;stroke-width:1;fill-opacity:1;stroke-opacity:0.3" />
<rect x="837" y="63" width="30" height="5" style="fill:#f5b024;stroke:black;stroke-width:1;fill-opacity:1;stroke-opacity:0.3" />
<line x1="834" y1="79" x2="837" y2="81" stroke="black" stroke-width="1" />
<line x1="837" y1="81" x2="840" y2="79" stroke="black" stroke-width="1" />
<rect x="803" y="77" width="30" height="5" style="fill:#f5b024;stroke:black;stroke-width:1;fill-opacity:1;stroke-opacity:0.3" />
<rect x="840" y="77" width="30" height="5" style="fill:#f5b024;stroke:black;stroke-width:1;fill-opacity:1;stroke-opacity:0.3" />
<line x1="834" y1="86" x2="847" y2="88" stroke="black" stroke-width="1" />
<line x1="847" y1="88" x2="860" y2="86" stroke="black" stroke-width="1" />
<rect x="803" y="84" width="30" height="5" style="fill:#f5b024;stroke:black;stroke-width:1;fill-opacity:1;stroke-opacity:0.3" />
<rect x="860" y="84" width="30" height="5" style="fill:#f5b024;stroke:black;stroke-width:1;fill-opacity:1;stroke-opacity:0.3" />
<line x1="834" y1="156" x2="837" y2="158" stroke="black" stroke-width="1" />
<line x1="837" y1="158" x2="840" y2="156" stroke="black" stroke-width="1" />
<rect x="803" y="154" width="30" height="5" style="fill:#f5b024;stroke:black;stroke-width:1;fill-opacity:1;stroke-opacity:0.3" />
<rect x="840" y="154" width="30" height="5" style="fill:#f5b024;stroke:black;stroke-width:1;fill-opacity:1;stroke-opacity:0.3" />
<line x1="844" y1="93" x2="847" y2="95" stroke="black" stroke-width="1" />
<line x1="847" y1="95" x2="850" y2="93" stroke="black" stroke-width="1" />
<rect x="814" y="91" width="30" height="5" style="fill:#f5b024;stroke:black;stroke-width:1;fill-opacity:1;stroke-opacity:0.3" />
<rect x="850" y="91" width="30" height="5" style="fill:#f5b024;stroke:black;stroke-width:1;fill-opacity:1;stroke-opacity:0.3" />
<line x1="846" y1="128" x2="860" y2="130" stroke="black" stroke-width="1" />
<line x1="860" y1="130" x2="874" y2="128" stroke="black" stroke-width="1" />
<rect x="815" y="126" width="30" height="5" style="fill:#f5b024;stroke:black;stroke-width:1;fill-opacity:1;stroke-opacity:0.3" />
<rect x="874" y="126" width="30" height="5" style="fill:#f5b024;stroke:black;stroke-width:1;fill-opacity:1;stroke-opacity:0.3" />
<line x1="847" y1="121" x2="848" y2="123" stroke="black" stroke-width="1" />
<line x1="848" y1="123" x2="850" y2="121" stroke="black" stroke-width="1" />
<rect x="816" y="119" width="30" height="5" style="fill:#f5b024;stroke:black;stroke-width:1;fill-opacity:1;stroke-opacity:0.3" />
<rect x="850" y="119" width="30" height="5" style="fill:#f5b024;stroke:black;stroke-width:1;fill-opacity:1;stroke-opacity:0.3" />
<line x1="856" y1="107" x2="857" y2="109" stroke="black" stroke-width="1" />
<line x1="857" y1="109" x2="859" y2="107" stroke="black" stroke-width="1" />
<rect x="825" y="105" width="30" height="5" style="fill:#f5b024;stroke:black;stroke-width:1;fill-opacity:1;stroke-opacity:0.3" />
<rect x="859" y="105" width="30" height="5" style="fill:#f5b024;stroke:black;stroke-width:1;fill-opacity:1;stroke-opacity:0.3" />
<line x1="856" y1="142" x2="858" y2="144" stroke="black" stroke-width="1" />
<line x1="858" y1="144" x2="860" y2="142" stroke="black" stroke-width="1" />
<rect x="825" y="140" width="30" height="5" style="fill:#f5b024;stroke:black;stroke-width:1;fill-opacity:1;stroke-opacity:0.3" />
<rect x="860" y="140" width="30" height="5" style="fill:#f5b024;stroke:black;stroke-width:1;fill-opacity:1;stroke-opacity:0.3" />
<line x1="857" y1="163" x2="861" y2="165" stroke="black" stroke-width="1" />
<line x1="861" y1="165" x2="865" y2="163" stroke="black" stroke-width="1" />
<rect x="826" y="161" width="30" height="5" style="fill:#f5b024;stroke:black;stroke-width:1;fill-opacity:1;stroke-opacity:0.3" />
<rect x="865" y="161" width="30" height="5" style="fill:#f5b024;stroke:black;stroke-width:1;fill-opacity:1;stroke-opacity:0.3" />
<line x1="881" y1="135" x2="883" y2="137" stroke="black" stroke-width="1" />
<line x1="883" y1="137" x2="886" y2="135" stroke="black" stroke-width="1" />
<rect x="835" y="133" width="46" height="5" style="fill:#f5b024;stroke:black;stroke-width:1;fill-opacity:1;stroke-opacity:0.3" />
<rect x="886" y="133" width="46" height="5" style="fill:#f5b024;stroke:black;stroke-width:1;fill-opacity:1;stroke-opacity:0.3" />
<line x1="879" y1="100" x2="886" y2="102" stroke="black" stroke-width="1" />
<line x1="886" y1="102" x2="894" y2="100" stroke="black" stroke-width="1" />
<rect x="848" y="98" width="30" height="5" style="fill:#f5b024;stroke:black;stroke-width:1;fill-opacity:1;stroke-opacity:0.3" />
<rect x="894" y="98" width="30" height="5" style="fill:#f5b024;stroke:black;stroke-width:1;fill-opacity:1;stroke-opacity:0.3" />
<line x1="884" y1="72" x2="895" y2="74" stroke="black" stroke-width="1" />
<line x1="895" y1="74" x2="907" y2="72" stroke="black" stroke-width="1" />
<rect x="853" y="70" width="30" height="5" style="fill:#f5b024;stroke:black;stroke-width:1;fill-opacity:1;stroke-opacity:0.3" />
<rect x="907" y="70" width="30" height="5" style="fill:#f5b024;stroke:black;stroke-width:1;fill-opacity:1;stroke-opacity:0.3" />
<line x1="906" y1="30" x2="908" y2="32" stroke="black" stroke-width="1" />
<line x1="908" y1="32" x2="911" y2="30" stroke="black" stroke-width="1" />
<rect x="859" y="28" width="46" height="5" style="fill:#f5b024;stroke:black;stroke-width:1;fill-opacity:1;stroke-opacity:0.3" />
<rect x="911" y="28" width="46" height="5" style="fill:#f5b024;stroke:black;stroke-width:1;fill-opacity:1;stroke-opacity:0.3" />
<line x1="894" y1="51" x2="896" y2="53" stroke="black" stroke-width="1" />
<line x1="896" y1="53" x2="899" y2="51" stroke="black" stroke-width="1" />
<rect x="863" y="49" width="30" height="5" style="fill:#f5b024;stroke:black;stroke-width:1;fill-opacity:1;stroke-opacity:0.3" />
<rect x="899" y="49" width="30" height="5" style="fill:#f5b024;stroke:black;stroke-width:1;fill-opacity:1;stroke-opacity:0.3" />
<line x1="900" y1="65" x2="902" y2="67" stroke="black" stroke-width="1" />
<line x1="902" y1="67" x2="904" y2="65" stroke="black" stroke-width="1" />
<rect x="869" y="63" width="30" height="5" style="fill:#f5b024;stroke:black;stroke-width:1;fill-opacity:1;stroke-opacity:0.3" />
<rect x="904" y="63" width="30" height="5" style="fill:#f5b024;stroke:black;stroke-width:1;fill-opacity:1;stroke-opacity:0.3" />
<line x1="899" y1="149" x2="903" y2="151" stroke="black" stroke-width="1" />
<line x1="903" y1="151" x2="908" y2="149" stroke="black" stroke-width="1" />
<rect x="869" y="147" width="30" height="5" style="fill:#f5b024;stroke:black;stroke-width:1;fill-opacity:1;stroke-opacity:0.3" />
<rect x="908" y="147" width="30" height="5" style="fill:#f5b024;stroke:black;stroke-width:1;fill-opacity:1;stroke-opacity:0.3" />
<line x1="902" y1="58" x2="905" y2="60" stroke="black" stroke-width="1" />
<line x1="905" y1="60" x2="908" y2="58" stroke="black" stroke-width="1" />
<rect x="871" y="56" width="30" height="5" style="fill:#f5b024;stroke:black;stroke-width:1;fill-opacity:1;stroke-opacity:0.3" />
<rect x="908" y="56" width="30" height="5" style="fill:#f5b024;stroke:black;stroke-width:1;fill-opacity:1;stroke-opacity:0.3" />
<line x1="902" y1="79" x2="908" y2="81" stroke="black" stroke-width="1" />
<line x1="908" y1="81" x2="914" y2="79" stroke="black" stroke-width="1" />
<rect x="871" y="77" width="30" height="5" style="fill:#f5b024;stroke:black;stroke-width:1;fill-opacity:1;stroke-opacity:0.3" />
<rect x="914" y="77" width="30" height="5" style="fill:#f5b024;stroke:black;stroke-width:1;fill-opacity:1;stroke-opacity:0.3" />
<line x1="903" y1="156" x2="912" y2="158" stroke="black" stroke-width="1" />
<line x1="912" y1="158" x2="922" y2="156" stroke="black" stroke-width="1" />
<rect x="872" y="154" width="30" height="5" style="fill:#f5b024;stroke:black;stroke-width:1;fill-opacity:1;stroke-opacity:0.3" />
<rect x="922" y="154" width="30" height="5" style="fill:#f5b024;stroke:black;stroke-width:1;fill-opacity:1;stroke-opacity:0.3" />
<line x1="906" y1="44" x2="910" y2="46" stroke="black" stroke-width="1" />
<line x1="910" y1="46" x2="914" y2="44" stroke="black" stroke-width="1" />
<rect x="876" y="42" width="30" height="5" style="fill:#f5b024;stroke:black;stroke-width:1;fill-opacity:1;stroke-opacity:0.3" />
<rect x="914" y="42" width="30" height="5" style="fill:#f5b024;stroke:black;stroke-width:1;fill-opacity:1;stroke-opacity:0.3" />
<line x1="909" y1="37" x2="913" y2="39" stroke="black" stroke-width="1" />
<line x1="913" y1="39" x2="917" y2="37" stroke="black" stroke-width="1" />
<rect x="878" y="35" width="30" height="5" style="fill:#f5b024;stroke:black;stroke-width:1;fill-opacity:1;stroke-opacity:0.3" />
<rect x="917" y="35" width="30" height="5" style="fill:#f5b024;stroke:black;stroke-width:1;fill-opacity:1;stroke-opacity:0.3" />
<line x1="909" y1="114" x2="917" y2="116" stroke="black" stroke-width="1" />
<line x1="917" y1="116" x2="926" y2="114" stroke="black" stroke-width="1" />
<rect x="878" y="112" width="30" height="5" style="fill:#f5b024;stroke:black;stroke-width:1;fill-opacity:1;stroke-opacity:0.3" />
<rect x="926" y="112" width="30" height="5" style="fill:#f5b024;stroke:black;stroke-width:1;fill-opacity:1;stroke-opacity:0.3" />
<line x1="914" y1="93" x2="916" y2="95" stroke="black" stroke-width="1" />
<line x1="916" y1="95" x2="919" y2="93" stroke="black" stroke-width="1" />
<rect x="883" y="91" width="30" height="5" style="fill:#f5b024;stroke:black;stroke-width:1;fill-opacity:1;stroke-opacity:0.3" />
<rect x="919" y="91" width="30" height="5" style="fill:#f5b024;stroke:black;stroke-width:1;fill-opacity:1;stroke-opacity:0.3" />
<line x1="914" y1="121" x2="916" y2="123" stroke="black" stroke-width="1" />
<line x1="916" y1="123" x2="918" y2="121" stroke="black" stroke-width="1" />
<rect x="883" y="119" width="30" height="5" style="fill:#f5b024;stroke:black;stroke-width:1;fill-opacity:1;stroke-opacity:0.3" />
<rect x="918" y="119" width="30" height="5" style="fill:#f5b024;stroke:black;stroke-width:1;fill-opacity:1;stroke-opacity:0.3" />
<line x1="921" y1="107" x2="922" y2="109" stroke="black" stroke-width="1" />
<line x1="922" y1="109" x2="924" y2="107" stroke="black" stroke-width="1" />
<rect x="890" y="105" width="30" height="5" style="fill:#f5b024;stroke:black;stroke-width:1;fill-opacity:1;stroke-opacity:0.3" />
<rect x="924" y="105" width="30" height="5" style="fill:#f5b024;stroke:black;stroke-width:1;fill-opacity:1;stroke-opacity:0.3" />
<line x1="921" y1="142" x2="926" y2="144" stroke="black" stroke-width="1" />
<line x1="926" y1="144" x2="932" y2="142" stroke="black" stroke-width="1" />
<rect x="890" y="140" width="30" height="5" style="fill:#f5b024;stroke:black;stroke-width:1;fill-opacity:1;stroke-opacity:0.3" />
<rect x="932" y="140" width="30" height="5" style="fill:#f5b024;stroke:black;stroke-width:1;fill-opacity:1;stroke-opacity:0.3" />
<line x1="922" y1="86" x2="928" y2="88" stroke="black" stroke-width="1" />
<line x1="928" y1="88" x2="934" y2="86" stroke="black" stroke-width="1" />
<rect x="891" y="84" width="30" height="5" style="fill:#f5b024;stroke:black;stroke-width:1;fill-opacity:1;stroke-opacity:0.3" />
<rect x="934" y="84" width="30" height="5" style="fill:#f5b024;stroke:black;stroke-width:1;fill-opacity:1;stroke-opacity:0.3" />
<line x1="932" y1="163" x2="934" y2="165" stroke="black" stroke-width="1" />
<line x1="934" y1="165" x2="937" y2="163" stroke="black" stroke-width="1" />
<rect x="901" y="161" width="30" height="5" style="fill:#f5b024;stroke:black;stroke-width:1;fill-opacity:1;stroke-opacity:0.3" />
<rect x="937" y="161" width="30" height="5" style="fill:#f5b024;stroke:black;stroke-width:1;fill-opacity:1;stroke-opacity:0.3" />
<text x="15"  y="176" style="font-family:Arial;font-size:10;stroke:black;fill:black;">all.merged.bam</text>
</svg>
    
