<?xml version="1.0" encoding="utf-8" standalone="no"?>
<!DOCTYPE svg PUBLIC "-//W3C//DTD SVG 1.1//EN"
  "http://www.w3.org/Graphics/SVG/1.1/DTD/svg11.dtd">
<svg height="1140" width="1000" version="1.1" viewBox="0 0 1000 1140" xmlns="http://www.w3.org/2000/svg" xmlns:xlink="http://www.w3.org/1999/xlink">
<line x1="38" y1="11" x2="961" y2="11" stroke="black" stroke-width="1" />
<rect x="38" y="9" width="46" height="5" style="fill:#f50002;stroke:black;stroke-width:1;fill-opacity:1;stroke-opacity:0.3" />
<rect x="85" y="9" width="136" height="5" style="fill:#53a1b5;stroke:black;stroke-width:1;fill-opacity:1;stroke-opacity:0.3" />
<rect x="331" y="9" width="78" height="5" style="fill:#53a1b5;stroke:black;stroke-width:1;fill-opacity:1;stroke-opacity:0.3" />
<rect x="518" y="9" width="45" height="5" style="fill:#53a1b5;stroke:black;stroke-width:1;fill-opacity:1;stroke-opacity:0.3" />
<rect x="670" y="9" width="43" height="5" style="fill:#53a1b5;stroke:black;stroke-width:1;fill-opacity:1;stroke-opacity:0.3" />
<rect x="841" y="9" width="30" height="5" style="fill:#53a1b5;stroke:black;stroke-width:1;fill-opacity:1;stroke-opacity:0.3" />
<rect x="918" y="9" width="27" height="5" style="fill:#53a1b5;stroke:black;stroke-width:1;fill-opacity:1;stroke-opacity:0.3" />
<rect x="946" y="9" width="14" height="5" style="fill:#f50002;stroke:black;stroke-width:1;fill-opacity:1;stroke-opacity:0.3" />
<text x="38"  y="23" style="font-family:Arial;font-size:10;stroke:black;fill:black;">Cre07.g357033.t2.1.v5.5 (+) chromosome_7:6318123-6320544</text>
<line x1="39" y1="30" x2="72" y2="32" stroke="black" stroke-width="1" />
<line x1="72" y1="32" x2="106" y2="30" stroke="black" stroke-width="1" />
<rect x="1" y="28" width="37" height="5" style="fill:#f5b024;stroke:black;stroke-width:1;fill-opacity:1;stroke-opacity:0.3" />
<rect x="106" y="28" width="38" height="5" style="fill:#f5b024;stroke:black;stroke-width:1;fill-opacity:1;stroke-opacity:0.3" />
<line x1="86" y1="37" x2="89" y2="39" stroke="black" stroke-width="1" />
<line x1="89" y1="39" x2="93" y2="37" stroke="black" stroke-width="1" />
<rect x="48" y="35" width="38" height="5" style="fill:#f5b024;stroke:black;stroke-width:1;fill-opacity:1;stroke-opacity:0.3" />
<rect x="93" y="35" width="38" height="5" style="fill:#f5b024;stroke:black;stroke-width:1;fill-opacity:1;stroke-opacity:0.3" />
<line x1="108" y1="44" x2="111" y2="46" stroke="black" stroke-width="1" />
<line x1="111" y1="46" x2="114" y2="44" stroke="black" stroke-width="1" />
<rect x="70" y="42" width="38" height="5" style="fill:#f5b024;stroke:black;stroke-width:1;fill-opacity:1;stroke-opacity:0.3" />
<rect x="114" y="42" width="38" height="5" style="fill:#f5b024;stroke:black;stroke-width:1;fill-opacity:1;stroke-opacity:0.3" />
<line x1="152" y1="51" x2="155" y2="53" stroke="black" stroke-width="1" />
<line x1="155" y1="53" x2="159" y2="51" stroke="black" stroke-width="1" />
<rect x="114" y="49" width="38" height="5" style="fill:#f5b024;stroke:black;stroke-width:1;fill-opacity:1;stroke-opacity:0.3" />
<rect x="159" y="49" width="38" height="5" style="fill:#f5b024;stroke:black;stroke-width:1;fill-opacity:1;stroke-opacity:0.3" />
<line x1="554" y1="30" x2="606" y2="32" stroke="black" stroke-width="1" />
<line x1="606" y1="32" x2="659" y2="30" stroke="black" stroke-width="1" />
<rect x="158" y="28" width="19" height="5" style="fill:#f5b024;stroke:black;stroke-width:1;fill-opacity:1;stroke-opacity:0.3" />
<line x1="178" y1="30" x2="536" y2="30" stroke="pink" stroke-width="1" />
<rect x="536" y="28" width="18" height="5" style="fill:#f5b024;stroke:black;stroke-width:1;fill-opacity:1;stroke-opacity:0.3" />
<rect x="659" y="28" width="35" height="5" style="fill:#f5b024;stroke:black;stroke-width:1;fill-opacity:1;stroke-opacity:0.3" />
<line x1="308" y1="37" x2="313" y2="39" stroke="black" stroke-width="1" />
<line x1="313" y1="39" x2="318" y2="37" stroke="black" stroke-width="1" />
<rect x="270" y="35" width="38" height="5" style="fill:#f5b024;stroke:black;stroke-width:1;fill-opacity:1;stroke-opacity:0.3" />
<rect x="318" y="35" width="38" height="5" style="fill:#f5b024;stroke:black;stroke-width:1;fill-opacity:1;stroke-opacity:0.3" />
<line x1="442" y1="37" x2="447" y2="39" stroke="black" stroke-width="1" />
<line x1="447" y1="39" x2="453" y2="37" stroke="black" stroke-width="1" />
<rect x="403" y="35" width="38" height="5" style="fill:#f5b024;stroke:black;stroke-width:1;fill-opacity:1;stroke-opacity:0.3" />
<rect x="453" y="35" width="38" height="5" style="fill:#f5b024;stroke:black;stroke-width:1;fill-opacity:1;stroke-opacity:0.3" />
<text x="15"  y="176" style="font-family:Arial;font-size:10;stroke:black;fill:black;">all.merged.bam</text>
</svg>
    
