<?xml version="1.0" encoding="utf-8" standalone="no"?>
<!DOCTYPE svg PUBLIC "-//W3C//DTD SVG 1.1//EN"
  "http://www.w3.org/Graphics/SVG/1.1/DTD/svg11.dtd">
<svg height="1140" width="1000" version="1.1" viewBox="0 0 1000 1140" xmlns="http://www.w3.org/2000/svg" xmlns:xlink="http://www.w3.org/1999/xlink">
<line x1="15" y1="11" x2="984" y2="11" stroke="black" stroke-width="1" />
<rect x="15" y="9" width="338" height="5" style="fill:#f50002;stroke:black;stroke-width:1;fill-opacity:1;stroke-opacity:0.3" />
<rect x="354" y="9" width="25" height="5" style="fill:#53a1b5;stroke:black;stroke-width:1;fill-opacity:1;stroke-opacity:0.3" />
<rect x="426" y="9" width="33" height="5" style="fill:#53a1b5;stroke:black;stroke-width:1;fill-opacity:1;stroke-opacity:0.3" />
<rect x="484" y="9" width="21" height="5" style="fill:#53a1b5;stroke:black;stroke-width:1;fill-opacity:1;stroke-opacity:0.3" />
<rect x="543" y="9" width="59" height="5" style="fill:#53a1b5;stroke:black;stroke-width:1;fill-opacity:1;stroke-opacity:0.3" />
<rect x="623" y="9" width="50" height="5" style="fill:#53a1b5;stroke:black;stroke-width:1;fill-opacity:1;stroke-opacity:0.3" />
<rect x="710" y="9" width="119" height="5" style="fill:#53a1b5;stroke:black;stroke-width:1;fill-opacity:1;stroke-opacity:0.3" />
<rect x="849" y="9" width="33" height="5" style="fill:#53a1b5;stroke:black;stroke-width:1;fill-opacity:1;stroke-opacity:0.3" />
<rect x="904" y="9" width="62" height="5" style="fill:#53a1b5;stroke:black;stroke-width:1;fill-opacity:1;stroke-opacity:0.3" />
<rect x="967" y="9" width="17" height="5" style="fill:#f50002;stroke:black;stroke-width:1;fill-opacity:1;stroke-opacity:0.3" />
<text x="15"  y="23" style="font-family:Arial;font-size:10;stroke:black;fill:black;">Cre02.g102050.t1.1.v5.5 (-) chromosome_2:4721683-4727988</text>
<line x1="16" y1="30" x2="21" y2="32" stroke="black" stroke-width="1" />
<line x1="21" y1="32" x2="26" y2="30" stroke="black" stroke-width="1" />
<rect x="1" y="28" width="14" height="5" style="fill:#5d3c2d;stroke:black;stroke-width:1;fill-opacity:1;stroke-opacity:0.3" />
<rect x="26" y="28" width="15" height="5" style="fill:#5d3c2d;stroke:black;stroke-width:1;fill-opacity:1;stroke-opacity:0.3" />
<line x1="17" y1="37" x2="24" y2="39" stroke="black" stroke-width="1" />
<line x1="24" y1="39" x2="32" y2="37" stroke="black" stroke-width="1" />
<rect x="2" y="35" width="15" height="5" style="fill:#5d3c2d;stroke:black;stroke-width:1;fill-opacity:1;stroke-opacity:0.3" />
<rect x="32" y="35" width="15" height="5" style="fill:#5d3c2d;stroke:black;stroke-width:1;fill-opacity:1;stroke-opacity:0.3" />
<line x1="19" y1="44" x2="21" y2="46" stroke="black" stroke-width="1" />
<line x1="21" y1="46" x2="24" y2="44" stroke="black" stroke-width="1" />
<rect x="4" y="42" width="15" height="5" style="fill:#5d3c2d;stroke:black;stroke-width:1;fill-opacity:1;stroke-opacity:0.3" />
<rect x="24" y="42" width="15" height="5" style="fill:#5d3c2d;stroke:black;stroke-width:1;fill-opacity:1;stroke-opacity:0.3" />
<line x1="19" y1="51" x2="21" y2="53" stroke="black" stroke-width="1" />
<line x1="21" y1="53" x2="24" y2="51" stroke="black" stroke-width="1" />
<rect x="4" y="49" width="15" height="5" style="fill:#5d3c2d;stroke:black;stroke-width:1;fill-opacity:1;stroke-opacity:0.3" />
<rect x="24" y="49" width="15" height="5" style="fill:#5d3c2d;stroke:black;stroke-width:1;fill-opacity:1;stroke-opacity:0.3" />
<line x1="29" y1="58" x2="30" y2="60" stroke="black" stroke-width="1" />
<line x1="30" y1="60" x2="31" y2="58" stroke="black" stroke-width="1" />
<rect x="5" y="56" width="23" height="5" style="fill:#5d3c2d;stroke:black;stroke-width:1;fill-opacity:1;stroke-opacity:0.3" />
<rect x="31" y="56" width="23" height="5" style="fill:#5d3c2d;stroke:black;stroke-width:1;fill-opacity:1;stroke-opacity:0.3" />
<line x1="21" y1="65" x2="22" y2="67" stroke="black" stroke-width="1" />
<line x1="22" y1="67" x2="24" y2="65" stroke="black" stroke-width="1" />
<rect x="6" y="63" width="15" height="5" style="fill:#5d3c2d;stroke:black;stroke-width:1;fill-opacity:1;stroke-opacity:0.3" />
<rect x="24" y="63" width="15" height="5" style="fill:#5d3c2d;stroke:black;stroke-width:1;fill-opacity:1;stroke-opacity:0.3" />
<line x1="21" y1="72" x2="22" y2="74" stroke="black" stroke-width="1" />
<line x1="22" y1="74" x2="23" y2="72" stroke="black" stroke-width="1" />
<rect x="6" y="70" width="15" height="5" style="fill:#5d3c2d;stroke:black;stroke-width:1;fill-opacity:1;stroke-opacity:0.3" />
<rect x="23" y="70" width="15" height="5" style="fill:#5d3c2d;stroke:black;stroke-width:1;fill-opacity:1;stroke-opacity:0.3" />
<line x1="21" y1="79" x2="22" y2="81" stroke="black" stroke-width="1" />
<line x1="22" y1="81" x2="23" y2="79" stroke="black" stroke-width="1" />
<rect x="6" y="77" width="15" height="5" style="fill:#5d3c2d;stroke:black;stroke-width:1;fill-opacity:1;stroke-opacity:0.3" />
<rect x="23" y="77" width="15" height="5" style="fill:#5d3c2d;stroke:black;stroke-width:1;fill-opacity:1;stroke-opacity:0.3" />
<line x1="22" y1="86" x2="29" y2="88" stroke="black" stroke-width="1" />
<line x1="29" y1="88" x2="37" y2="86" stroke="black" stroke-width="1" />
<rect x="7" y="84" width="15" height="5" style="fill:#5d3c2d;stroke:black;stroke-width:1;fill-opacity:1;stroke-opacity:0.3" />
<rect x="37" y="84" width="15" height="5" style="fill:#5d3c2d;stroke:black;stroke-width:1;fill-opacity:1;stroke-opacity:0.3" />
<line x1="23" y1="93" x2="27" y2="95" stroke="black" stroke-width="1" />
<line x1="27" y1="95" x2="32" y2="93" stroke="black" stroke-width="1" />
<rect x="7" y="91" width="15" height="5" style="fill:#5d3c2d;stroke:black;stroke-width:1;fill-opacity:1;stroke-opacity:0.3" />
<rect x="32" y="91" width="15" height="5" style="fill:#5d3c2d;stroke:black;stroke-width:1;fill-opacity:1;stroke-opacity:0.3" />
<line x1="23" y1="100" x2="28" y2="102" stroke="black" stroke-width="1" />
<line x1="28" y1="102" x2="33" y2="100" stroke="black" stroke-width="1" />
<rect x="7" y="98" width="15" height="5" style="fill:#5d3c2d;stroke:black;stroke-width:1;fill-opacity:1;stroke-opacity:0.3" />
<rect x="33" y="98" width="15" height="5" style="fill:#5d3c2d;stroke:black;stroke-width:1;fill-opacity:1;stroke-opacity:0.3" />
<line x1="23" y1="107" x2="27" y2="109" stroke="black" stroke-width="1" />
<line x1="27" y1="109" x2="32" y2="107" stroke="black" stroke-width="1" />
<rect x="7" y="105" width="15" height="5" style="fill:#5d3c2d;stroke:black;stroke-width:1;fill-opacity:1;stroke-opacity:0.3" />
<rect x="32" y="105" width="15" height="5" style="fill:#5d3c2d;stroke:black;stroke-width:1;fill-opacity:1;stroke-opacity:0.3" />
<line x1="23" y1="114" x2="25" y2="116" stroke="black" stroke-width="1" />
<line x1="25" y1="116" x2="27" y2="114" stroke="black" stroke-width="1" />
<rect x="8" y="112" width="15" height="5" style="fill:#5d3c2d;stroke:black;stroke-width:1;fill-opacity:1;stroke-opacity:0.3" />
<rect x="27" y="112" width="15" height="5" style="fill:#5d3c2d;stroke:black;stroke-width:1;fill-opacity:1;stroke-opacity:0.3" />
<line x1="23" y1="121" x2="26" y2="123" stroke="black" stroke-width="1" />
<line x1="26" y1="123" x2="30" y2="121" stroke="black" stroke-width="1" />
<rect x="8" y="119" width="15" height="5" style="fill:#5d3c2d;stroke:black;stroke-width:1;fill-opacity:1;stroke-opacity:0.3" />
<rect x="30" y="119" width="15" height="5" style="fill:#5d3c2d;stroke:black;stroke-width:1;fill-opacity:1;stroke-opacity:0.3" />
<line x1="23" y1="128" x2="24" y2="130" stroke="black" stroke-width="1" />
<line x1="24" y1="130" x2="26" y2="128" stroke="black" stroke-width="1" />
<rect x="8" y="126" width="15" height="5" style="fill:#5d3c2d;stroke:black;stroke-width:1;fill-opacity:1;stroke-opacity:0.3" />
<rect x="26" y="126" width="15" height="5" style="fill:#5d3c2d;stroke:black;stroke-width:1;fill-opacity:1;stroke-opacity:0.3" />
<line x1="23" y1="135" x2="25" y2="137" stroke="black" stroke-width="1" />
<line x1="25" y1="137" x2="27" y2="135" stroke="black" stroke-width="1" />
<rect x="8" y="133" width="15" height="5" style="fill:#5d3c2d;stroke:black;stroke-width:1;fill-opacity:1;stroke-opacity:0.3" />
<rect x="27" y="133" width="15" height="5" style="fill:#5d3c2d;stroke:black;stroke-width:1;fill-opacity:1;stroke-opacity:0.3" />
<line x1="24" y1="142" x2="33" y2="144" stroke="black" stroke-width="1" />
<line x1="33" y1="144" x2="42" y2="142" stroke="black" stroke-width="1" />
<rect x="8" y="140" width="15" height="5" style="fill:#5d3c2d;stroke:black;stroke-width:1;fill-opacity:1;stroke-opacity:0.3" />
<rect x="42" y="140" width="15" height="5" style="fill:#5d3c2d;stroke:black;stroke-width:1;fill-opacity:1;stroke-opacity:0.3" />
<line x1="24" y1="149" x2="25" y2="151" stroke="black" stroke-width="1" />
<line x1="25" y1="151" x2="27" y2="149" stroke="black" stroke-width="1" />
<rect x="9" y="147" width="15" height="5" style="fill:#5d3c2d;stroke:black;stroke-width:1;fill-opacity:1;stroke-opacity:0.3" />
<rect x="27" y="147" width="15" height="5" style="fill:#5d3c2d;stroke:black;stroke-width:1;fill-opacity:1;stroke-opacity:0.3" />
<line x1="27" y1="156" x2="29" y2="158" stroke="black" stroke-width="1" />
<line x1="29" y1="158" x2="32" y2="156" stroke="black" stroke-width="1" />
<rect x="12" y="154" width="15" height="5" style="fill:#5d3c2d;stroke:black;stroke-width:1;fill-opacity:1;stroke-opacity:0.3" />
<rect x="32" y="154" width="15" height="5" style="fill:#5d3c2d;stroke:black;stroke-width:1;fill-opacity:1;stroke-opacity:0.3" />
<line x1="28" y1="163" x2="30" y2="165" stroke="black" stroke-width="1" />
<line x1="30" y1="165" x2="32" y2="163" stroke="black" stroke-width="1" />
<rect x="12" y="161" width="15" height="5" style="fill:#5d3c2d;stroke:black;stroke-width:1;fill-opacity:1;stroke-opacity:0.3" />
<rect x="32" y="161" width="15" height="5" style="fill:#5d3c2d;stroke:black;stroke-width:1;fill-opacity:1;stroke-opacity:0.3" />
<line x1="54" y1="72" x2="56" y2="74" stroke="black" stroke-width="1" />
<line x1="56" y1="74" x2="58" y2="72" stroke="black" stroke-width="1" />
<rect x="39" y="70" width="15" height="5" style="fill:#5d3c2d;stroke:black;stroke-width:1;fill-opacity:1;stroke-opacity:0.3" />
<rect x="58" y="70" width="15" height="5" style="fill:#5d3c2d;stroke:black;stroke-width:1;fill-opacity:1;stroke-opacity:0.3" />
<line x1="54" y1="79" x2="55" y2="81" stroke="black" stroke-width="1" />
<line x1="55" y1="81" x2="56" y2="79" stroke="black" stroke-width="1" />
<rect x="39" y="77" width="15" height="5" style="fill:#5d3c2d;stroke:black;stroke-width:1;fill-opacity:1;stroke-opacity:0.3" />
<rect x="56" y="77" width="15" height="5" style="fill:#5d3c2d;stroke:black;stroke-width:1;fill-opacity:1;stroke-opacity:0.3" />
<line x1="55" y1="44" x2="60" y2="46" stroke="black" stroke-width="1" />
<line x1="60" y1="46" x2="66" y2="44" stroke="black" stroke-width="1" />
<rect x="40" y="42" width="15" height="5" style="fill:#5d3c2d;stroke:black;stroke-width:1;fill-opacity:1;stroke-opacity:0.3" />
<rect x="66" y="42" width="15" height="5" style="fill:#5d3c2d;stroke:black;stroke-width:1;fill-opacity:1;stroke-opacity:0.3" />
<line x1="55" y1="51" x2="60" y2="53" stroke="black" stroke-width="1" />
<line x1="60" y1="53" x2="66" y2="51" stroke="black" stroke-width="1" />
<rect x="40" y="49" width="15" height="5" style="fill:#5d3c2d;stroke:black;stroke-width:1;fill-opacity:1;stroke-opacity:0.3" />
<rect x="66" y="49" width="15" height="5" style="fill:#5d3c2d;stroke:black;stroke-width:1;fill-opacity:1;stroke-opacity:0.3" />
<line x1="55" y1="65" x2="57" y2="67" stroke="black" stroke-width="1" />
<line x1="57" y1="67" x2="59" y2="65" stroke="black" stroke-width="1" />
<rect x="40" y="63" width="15" height="5" style="fill:#5d3c2d;stroke:black;stroke-width:1;fill-opacity:1;stroke-opacity:0.3" />
<rect x="59" y="63" width="15" height="5" style="fill:#5d3c2d;stroke:black;stroke-width:1;fill-opacity:1;stroke-opacity:0.3" />
<line x1="57" y1="128" x2="59" y2="130" stroke="black" stroke-width="1" />
<line x1="59" y1="130" x2="62" y2="128" stroke="black" stroke-width="1" />
<rect x="41" y="126" width="15" height="5" style="fill:#5d3c2d;stroke:black;stroke-width:1;fill-opacity:1;stroke-opacity:0.3" />
<rect x="62" y="126" width="15" height="5" style="fill:#5d3c2d;stroke:black;stroke-width:1;fill-opacity:1;stroke-opacity:0.3" />
<line x1="57" y1="30" x2="61" y2="32" stroke="black" stroke-width="1" />
<line x1="61" y1="32" x2="65" y2="30" stroke="black" stroke-width="1" />
<rect x="42" y="28" width="15" height="5" style="fill:#5d3c2d;stroke:black;stroke-width:1;fill-opacity:1;stroke-opacity:0.3" />
<rect x="65" y="28" width="15" height="5" style="fill:#5d3c2d;stroke:black;stroke-width:1;fill-opacity:1;stroke-opacity:0.3" />
<line x1="65" y1="135" x2="70" y2="137" stroke="black" stroke-width="1" />
<line x1="70" y1="137" x2="75" y2="135" stroke="black" stroke-width="1" />
<rect x="42" y="133" width="23" height="5" style="fill:#5d3c2d;stroke:black;stroke-width:1;fill-opacity:1;stroke-opacity:0.3" />
<rect x="75" y="133" width="23" height="5" style="fill:#5d3c2d;stroke:black;stroke-width:1;fill-opacity:1;stroke-opacity:0.3" />
<line x1="58" y1="149" x2="63" y2="151" stroke="black" stroke-width="1" />
<line x1="63" y1="151" x2="69" y2="149" stroke="black" stroke-width="1" />
<rect x="42" y="147" width="15" height="5" style="fill:#5d3c2d;stroke:black;stroke-width:1;fill-opacity:1;stroke-opacity:0.3" />
<rect x="69" y="147" width="15" height="5" style="fill:#5d3c2d;stroke:black;stroke-width:1;fill-opacity:1;stroke-opacity:0.3" />
<line x1="58" y1="114" x2="59" y2="116" stroke="black" stroke-width="1" />
<line x1="59" y1="116" x2="61" y2="114" stroke="black" stroke-width="1" />
<rect x="43" y="112" width="15" height="5" style="fill:#5d3c2d;stroke:black;stroke-width:1;fill-opacity:1;stroke-opacity:0.3" />
<rect x="61" y="112" width="15" height="5" style="fill:#5d3c2d;stroke:black;stroke-width:1;fill-opacity:1;stroke-opacity:0.3" />
<line x1="61" y1="121" x2="65" y2="123" stroke="black" stroke-width="1" />
<line x1="65" y1="123" x2="69" y2="121" stroke="black" stroke-width="1" />
<rect x="46" y="119" width="15" height="5" style="fill:#5d3c2d;stroke:black;stroke-width:1;fill-opacity:1;stroke-opacity:0.3" />
<rect x="69" y="119" width="15" height="5" style="fill:#5d3c2d;stroke:black;stroke-width:1;fill-opacity:1;stroke-opacity:0.3" />
<line x1="63" y1="37" x2="72" y2="39" stroke="black" stroke-width="1" />
<line x1="72" y1="39" x2="81" y2="37" stroke="black" stroke-width="1" />
<rect x="47" y="35" width="15" height="5" style="fill:#5d3c2d;stroke:black;stroke-width:1;fill-opacity:1;stroke-opacity:0.3" />
<rect x="81" y="35" width="15" height="5" style="fill:#5d3c2d;stroke:black;stroke-width:1;fill-opacity:1;stroke-opacity:0.3" />
<line x1="69" y1="93" x2="70" y2="95" stroke="black" stroke-width="1" />
<line x1="70" y1="95" x2="72" y2="93" stroke="black" stroke-width="1" />
<rect x="47" y="91" width="22" height="5" style="fill:#5d3c2d;stroke:black;stroke-width:1;fill-opacity:1;stroke-opacity:0.3" />
<rect x="72" y="91" width="23" height="5" style="fill:#5d3c2d;stroke:black;stroke-width:1;fill-opacity:1;stroke-opacity:0.3" />
<line x1="63" y1="107" x2="65" y2="109" stroke="black" stroke-width="1" />
<line x1="65" y1="109" x2="68" y2="107" stroke="black" stroke-width="1" />
<rect x="47" y="105" width="15" height="5" style="fill:#5d3c2d;stroke:black;stroke-width:1;fill-opacity:1;stroke-opacity:0.3" />
<rect x="68" y="105" width="15" height="5" style="fill:#5d3c2d;stroke:black;stroke-width:1;fill-opacity:1;stroke-opacity:0.3" />
<line x1="63" y1="156" x2="64" y2="158" stroke="black" stroke-width="1" />
<line x1="64" y1="158" x2="65" y2="156" stroke="black" stroke-width="1" />
<rect x="47" y="154" width="15" height="5" style="fill:#5d3c2d;stroke:black;stroke-width:1;fill-opacity:1;stroke-opacity:0.3" />
<rect x="65" y="154" width="15" height="5" style="fill:#5d3c2d;stroke:black;stroke-width:1;fill-opacity:1;stroke-opacity:0.3" />
<line x1="63" y1="163" x2="71" y2="165" stroke="black" stroke-width="1" />
<line x1="71" y1="165" x2="79" y2="163" stroke="black" stroke-width="1" />
<rect x="48" y="161" width="15" height="5" style="fill:#5d3c2d;stroke:black;stroke-width:1;fill-opacity:1;stroke-opacity:0.3" />
<rect x="79" y="161" width="15" height="5" style="fill:#5d3c2d;stroke:black;stroke-width:1;fill-opacity:1;stroke-opacity:0.3" />
<line x1="64" y1="100" x2="64" y2="102" stroke="black" stroke-width="1" />
<line x1="64" y1="102" x2="65" y2="100" stroke="black" stroke-width="1" />
<rect x="48" y="98" width="15" height="5" style="fill:#5d3c2d;stroke:black;stroke-width:1;fill-opacity:1;stroke-opacity:0.3" />
<rect x="65" y="98" width="15" height="5" style="fill:#5d3c2d;stroke:black;stroke-width:1;fill-opacity:1;stroke-opacity:0.3" />
<line x1="67" y1="86" x2="73" y2="88" stroke="black" stroke-width="1" />
<line x1="73" y1="88" x2="79" y2="86" stroke="black" stroke-width="1" />
<rect x="52" y="84" width="14" height="5" style="fill:#5d3c2d;stroke:black;stroke-width:1;fill-opacity:1;stroke-opacity:0.3" />
<rect x="79" y="84" width="15" height="5" style="fill:#5d3c2d;stroke:black;stroke-width:1;fill-opacity:1;stroke-opacity:0.3" />
<line x1="77" y1="58" x2="78" y2="60" stroke="black" stroke-width="1" />
<line x1="78" y1="60" x2="80" y2="58" stroke="black" stroke-width="1" />
<rect x="54" y="56" width="23" height="5" style="fill:#5d3c2d;stroke:black;stroke-width:1;fill-opacity:1;stroke-opacity:0.3" />
<rect x="80" y="56" width="23" height="5" style="fill:#5d3c2d;stroke:black;stroke-width:1;fill-opacity:1;stroke-opacity:0.3" />
<line x1="73" y1="142" x2="74" y2="144" stroke="black" stroke-width="1" />
<line x1="74" y1="144" x2="75" y2="142" stroke="black" stroke-width="1" />
<rect x="58" y="140" width="15" height="5" style="fill:#5d3c2d;stroke:black;stroke-width:1;fill-opacity:1;stroke-opacity:0.3" />
<rect x="75" y="140" width="15" height="5" style="fill:#5d3c2d;stroke:black;stroke-width:1;fill-opacity:1;stroke-opacity:0.3" />
<line x1="87" y1="79" x2="89" y2="81" stroke="black" stroke-width="1" />
<line x1="89" y1="81" x2="92" y2="79" stroke="black" stroke-width="1" />
<rect x="72" y="77" width="15" height="5" style="fill:#5d3c2d;stroke:black;stroke-width:1;fill-opacity:1;stroke-opacity:0.3" />
<rect x="92" y="77" width="15" height="5" style="fill:#5d3c2d;stroke:black;stroke-width:1;fill-opacity:1;stroke-opacity:0.3" />
<line x1="89" y1="72" x2="90" y2="74" stroke="black" stroke-width="1" />
<line x1="90" y1="74" x2="92" y2="72" stroke="black" stroke-width="1" />
<rect x="74" y="70" width="15" height="5" style="fill:#5d3c2d;stroke:black;stroke-width:1;fill-opacity:1;stroke-opacity:0.3" />
<rect x="92" y="70" width="15" height="5" style="fill:#5d3c2d;stroke:black;stroke-width:1;fill-opacity:1;stroke-opacity:0.3" />
<line x1="89" y1="65" x2="90" y2="67" stroke="black" stroke-width="1" />
<line x1="90" y1="67" x2="92" y2="65" stroke="black" stroke-width="1" />
<rect x="74" y="63" width="15" height="5" style="fill:#5d3c2d;stroke:black;stroke-width:1;fill-opacity:1;stroke-opacity:0.3" />
<rect x="92" y="63" width="15" height="5" style="fill:#5d3c2d;stroke:black;stroke-width:1;fill-opacity:1;stroke-opacity:0.3" />
<line x1="92" y1="114" x2="93" y2="116" stroke="black" stroke-width="1" />
<line x1="93" y1="116" x2="95" y2="114" stroke="black" stroke-width="1" />
<rect x="77" y="112" width="14" height="5" style="fill:#5d3c2d;stroke:black;stroke-width:1;fill-opacity:1;stroke-opacity:0.3" />
<rect x="95" y="112" width="15" height="5" style="fill:#5d3c2d;stroke:black;stroke-width:1;fill-opacity:1;stroke-opacity:0.3" />
<line x1="93" y1="128" x2="94" y2="130" stroke="black" stroke-width="1" />
<line x1="94" y1="130" x2="95" y2="128" stroke="black" stroke-width="1" />
<rect x="78" y="126" width="15" height="5" style="fill:#5d3c2d;stroke:black;stroke-width:1;fill-opacity:1;stroke-opacity:0.3" />
<rect x="95" y="126" width="15" height="5" style="fill:#5d3c2d;stroke:black;stroke-width:1;fill-opacity:1;stroke-opacity:0.3" />
<line x1="96" y1="30" x2="97" y2="32" stroke="black" stroke-width="1" />
<line x1="97" y1="32" x2="99" y2="30" stroke="black" stroke-width="1" />
<rect x="80" y="28" width="15" height="5" style="fill:#5d3c2d;stroke:black;stroke-width:1;fill-opacity:1;stroke-opacity:0.3" />
<rect x="99" y="28" width="15" height="5" style="fill:#5d3c2d;stroke:black;stroke-width:1;fill-opacity:1;stroke-opacity:0.3" />
<line x1="96" y1="156" x2="97" y2="158" stroke="black" stroke-width="1" />
<line x1="97" y1="158" x2="98" y2="156" stroke="black" stroke-width="1" />
<rect x="80" y="154" width="15" height="5" style="fill:#f5b024;stroke:black;stroke-width:1;fill-opacity:1;stroke-opacity:0.3" />
<rect x="98" y="154" width="15" height="5" style="fill:#f5b024;stroke:black;stroke-width:1;fill-opacity:1;stroke-opacity:0.3" />
<line x1="96" y1="100" x2="103" y2="102" stroke="black" stroke-width="1" />
<line x1="103" y1="102" x2="110" y2="100" stroke="black" stroke-width="1" />
<rect x="81" y="98" width="15" height="5" style="fill:#5d3c2d;stroke:black;stroke-width:1;fill-opacity:1;stroke-opacity:0.3" />
<rect x="110" y="98" width="15" height="5" style="fill:#5d3c2d;stroke:black;stroke-width:1;fill-opacity:1;stroke-opacity:0.3" />
<line x1="98" y1="44" x2="99" y2="46" stroke="black" stroke-width="1" />
<line x1="99" y1="46" x2="100" y2="44" stroke="black" stroke-width="1" />
<rect x="83" y="42" width="15" height="5" style="fill:#5d3c2d;stroke:black;stroke-width:1;fill-opacity:1;stroke-opacity:0.3" />
<rect x="100" y="42" width="15" height="5" style="fill:#5d3c2d;stroke:black;stroke-width:1;fill-opacity:1;stroke-opacity:0.3" />
<line x1="98" y1="51" x2="103" y2="53" stroke="black" stroke-width="1" />
<line x1="103" y1="53" x2="108" y2="51" stroke="black" stroke-width="1" />
<rect x="83" y="49" width="15" height="5" style="fill:#5d3c2d;stroke:black;stroke-width:1;fill-opacity:1;stroke-opacity:0.3" />
<rect x="108" y="49" width="15" height="5" style="fill:#5d3c2d;stroke:black;stroke-width:1;fill-opacity:1;stroke-opacity:0.3" />
<line x1="99" y1="107" x2="112" y2="109" stroke="black" stroke-width="1" />
<line x1="112" y1="109" x2="125" y2="107" stroke="black" stroke-width="1" />
<rect x="84" y="105" width="15" height="5" style="fill:#5d3c2d;stroke:black;stroke-width:1;fill-opacity:1;stroke-opacity:0.3" />
<rect x="125" y="105" width="15" height="5" style="fill:#5d3c2d;stroke:black;stroke-width:1;fill-opacity:1;stroke-opacity:0.3" />
<line x1="100" y1="121" x2="103" y2="123" stroke="black" stroke-width="1" />
<line x1="103" y1="123" x2="107" y2="121" stroke="black" stroke-width="1" />
<rect x="85" y="119" width="15" height="5" style="fill:#5d3c2d;stroke:black;stroke-width:1;fill-opacity:1;stroke-opacity:0.3" />
<rect x="107" y="119" width="15" height="5" style="fill:#5d3c2d;stroke:black;stroke-width:1;fill-opacity:1;stroke-opacity:0.3" />
<line x1="100" y1="149" x2="103" y2="151" stroke="black" stroke-width="1" />
<line x1="103" y1="151" x2="106" y2="149" stroke="black" stroke-width="1" />
<rect x="85" y="147" width="15" height="5" style="fill:#5d3c2d;stroke:black;stroke-width:1;fill-opacity:1;stroke-opacity:0.3" />
<rect x="106" y="147" width="15" height="5" style="fill:#5d3c2d;stroke:black;stroke-width:1;fill-opacity:1;stroke-opacity:0.3" />
<line x1="106" y1="142" x2="107" y2="144" stroke="black" stroke-width="1" />
<line x1="107" y1="144" x2="108" y2="142" stroke="black" stroke-width="1" />
<rect x="90" y="140" width="15" height="5" style="fill:#5d3c2d;stroke:black;stroke-width:1;fill-opacity:1;stroke-opacity:0.3" />
<rect x="108" y="140" width="15" height="5" style="fill:#5d3c2d;stroke:black;stroke-width:1;fill-opacity:1;stroke-opacity:0.3" />
<line x1="111" y1="86" x2="114" y2="88" stroke="black" stroke-width="1" />
<line x1="114" y1="88" x2="117" y2="86" stroke="black" stroke-width="1" />
<rect x="95" y="84" width="15" height="5" style="fill:#5d3c2d;stroke:black;stroke-width:1;fill-opacity:1;stroke-opacity:0.3" />
<rect x="117" y="84" width="15" height="5" style="fill:#5d3c2d;stroke:black;stroke-width:1;fill-opacity:1;stroke-opacity:0.3" />
<line x1="111" y1="93" x2="114" y2="95" stroke="black" stroke-width="1" />
<line x1="114" y1="95" x2="117" y2="93" stroke="black" stroke-width="1" />
<rect x="95" y="91" width="15" height="5" style="fill:#5d3c2d;stroke:black;stroke-width:1;fill-opacity:1;stroke-opacity:0.3" />
<rect x="117" y="91" width="15" height="5" style="fill:#5d3c2d;stroke:black;stroke-width:1;fill-opacity:1;stroke-opacity:0.3" />
<line x1="111" y1="163" x2="117" y2="165" stroke="black" stroke-width="1" />
<line x1="117" y1="165" x2="124" y2="163" stroke="black" stroke-width="1" />
<rect x="95" y="161" width="15" height="5" style="fill:#5d3c2d;stroke:black;stroke-width:1;fill-opacity:1;stroke-opacity:0.3" />
<rect x="124" y="161" width="15" height="5" style="fill:#5d3c2d;stroke:black;stroke-width:1;fill-opacity:1;stroke-opacity:0.3" />
<line x1="112" y1="37" x2="115" y2="39" stroke="black" stroke-width="1" />
<line x1="115" y1="39" x2="118" y2="37" stroke="black" stroke-width="1" />
<rect x="97" y="35" width="15" height="5" style="fill:#5d3c2d;stroke:black;stroke-width:1;fill-opacity:1;stroke-opacity:0.3" />
<rect x="118" y="35" width="15" height="5" style="fill:#5d3c2d;stroke:black;stroke-width:1;fill-opacity:1;stroke-opacity:0.3" />
<line x1="113" y1="135" x2="119" y2="137" stroke="black" stroke-width="1" />
<line x1="119" y1="137" x2="126" y2="135" stroke="black" stroke-width="1" />
<rect x="98" y="133" width="15" height="5" style="fill:#5d3c2d;stroke:black;stroke-width:1;fill-opacity:1;stroke-opacity:0.3" />
<rect x="126" y="133" width="15" height="5" style="fill:#5d3c2d;stroke:black;stroke-width:1;fill-opacity:1;stroke-opacity:0.3" />
<line x1="118" y1="58" x2="121" y2="60" stroke="black" stroke-width="1" />
<line x1="121" y1="60" x2="124" y2="58" stroke="black" stroke-width="1" />
<rect x="103" y="56" width="15" height="5" style="fill:#5d3c2d;stroke:black;stroke-width:1;fill-opacity:1;stroke-opacity:0.3" />
<rect x="124" y="56" width="15" height="5" style="fill:#5d3c2d;stroke:black;stroke-width:1;fill-opacity:1;stroke-opacity:0.3" />
<line x1="123" y1="79" x2="124" y2="81" stroke="black" stroke-width="1" />
<line x1="124" y1="81" x2="126" y2="79" stroke="black" stroke-width="1" />
<rect x="107" y="77" width="15" height="5" style="fill:#5d3c2d;stroke:black;stroke-width:1;fill-opacity:1;stroke-opacity:0.3" />
<rect x="126" y="77" width="15" height="5" style="fill:#5d3c2d;stroke:black;stroke-width:1;fill-opacity:1;stroke-opacity:0.3" />
<line x1="123" y1="72" x2="124" y2="74" stroke="black" stroke-width="1" />
<line x1="124" y1="74" x2="126" y2="72" stroke="black" stroke-width="1" />
<rect x="108" y="70" width="15" height="5" style="fill:#5d3c2d;stroke:black;stroke-width:1;fill-opacity:1;stroke-opacity:0.3" />
<rect x="126" y="70" width="15" height="5" style="fill:#5d3c2d;stroke:black;stroke-width:1;fill-opacity:1;stroke-opacity:0.3" />
<line x1="123" y1="65" x2="124" y2="67" stroke="black" stroke-width="1" />
<line x1="124" y1="67" x2="126" y2="65" stroke="black" stroke-width="1" />
<rect x="108" y="63" width="15" height="5" style="fill:#5d3c2d;stroke:black;stroke-width:1;fill-opacity:1;stroke-opacity:0.3" />
<rect x="126" y="63" width="15" height="5" style="fill:#5d3c2d;stroke:black;stroke-width:1;fill-opacity:1;stroke-opacity:0.3" />
<line x1="126" y1="128" x2="129" y2="130" stroke="black" stroke-width="1" />
<line x1="129" y1="130" x2="132" y2="128" stroke="black" stroke-width="1" />
<rect x="110" y="126" width="15" height="5" style="fill:#f5b024;stroke:black;stroke-width:1;fill-opacity:1;stroke-opacity:0.3" />
<rect x="132" y="126" width="15" height="5" style="fill:#f5b024;stroke:black;stroke-width:1;fill-opacity:1;stroke-opacity:0.3" />
<line x1="126" y1="114" x2="128" y2="116" stroke="black" stroke-width="1" />
<line x1="128" y1="116" x2="130" y2="114" stroke="black" stroke-width="1" />
<rect x="111" y="112" width="15" height="5" style="fill:#5d3c2d;stroke:black;stroke-width:1;fill-opacity:1;stroke-opacity:0.3" />
<rect x="130" y="112" width="15" height="5" style="fill:#5d3c2d;stroke:black;stroke-width:1;fill-opacity:1;stroke-opacity:0.3" />
<line x1="129" y1="156" x2="133" y2="158" stroke="black" stroke-width="1" />
<line x1="133" y1="158" x2="137" y2="156" stroke="black" stroke-width="1" />
<rect x="113" y="154" width="15" height="5" style="fill:#5d3c2d;stroke:black;stroke-width:1;fill-opacity:1;stroke-opacity:0.3" />
<rect x="137" y="154" width="15" height="5" style="fill:#5d3c2d;stroke:black;stroke-width:1;fill-opacity:1;stroke-opacity:0.3" />
<line x1="129" y1="30" x2="133" y2="32" stroke="black" stroke-width="1" />
<line x1="133" y1="32" x2="138" y2="30" stroke="black" stroke-width="1" />
<rect x="114" y="28" width="15" height="5" style="fill:#5d3c2d;stroke:black;stroke-width:1;fill-opacity:1;stroke-opacity:0.3" />
<rect x="138" y="28" width="15" height="5" style="fill:#5d3c2d;stroke:black;stroke-width:1;fill-opacity:1;stroke-opacity:0.3" />
<line x1="131" y1="44" x2="135" y2="46" stroke="black" stroke-width="1" />
<line x1="135" y1="46" x2="139" y2="44" stroke="black" stroke-width="1" />
<rect x="115" y="42" width="15" height="5" style="fill:#5d3c2d;stroke:black;stroke-width:1;fill-opacity:1;stroke-opacity:0.3" />
<rect x="139" y="42" width="15" height="5" style="fill:#5d3c2d;stroke:black;stroke-width:1;fill-opacity:1;stroke-opacity:0.3" />
<line x1="139" y1="51" x2="140" y2="53" stroke="black" stroke-width="1" />
<line x1="140" y1="53" x2="141" y2="51" stroke="black" stroke-width="1" />
<rect x="123" y="49" width="15" height="5" style="fill:#5d3c2d;stroke:black;stroke-width:1;fill-opacity:1;stroke-opacity:0.3" />
<rect x="141" y="49" width="15" height="5" style="fill:#5d3c2d;stroke:black;stroke-width:1;fill-opacity:1;stroke-opacity:0.3" />
<line x1="139" y1="121" x2="140" y2="123" stroke="black" stroke-width="1" />
<line x1="140" y1="123" x2="141" y2="121" stroke="black" stroke-width="1" />
<rect x="123" y="119" width="15" height="5" style="fill:#5d3c2d;stroke:black;stroke-width:1;fill-opacity:1;stroke-opacity:0.3" />
<rect x="141" y="119" width="15" height="5" style="fill:#5d3c2d;stroke:black;stroke-width:1;fill-opacity:1;stroke-opacity:0.3" />
<line x1="139" y1="142" x2="140" y2="144" stroke="black" stroke-width="1" />
<line x1="140" y1="144" x2="142" y2="142" stroke="black" stroke-width="1" />
<rect x="124" y="140" width="15" height="5" style="fill:#5d3c2d;stroke:black;stroke-width:1;fill-opacity:1;stroke-opacity:0.3" />
<rect x="142" y="140" width="14" height="5" style="fill:#5d3c2d;stroke:black;stroke-width:1;fill-opacity:1;stroke-opacity:0.3" />
<line x1="139" y1="149" x2="140" y2="151" stroke="black" stroke-width="1" />
<line x1="140" y1="151" x2="141" y2="149" stroke="black" stroke-width="1" />
<rect x="124" y="147" width="15" height="5" style="fill:#5d3c2d;stroke:black;stroke-width:1;fill-opacity:1;stroke-opacity:0.3" />
<rect x="141" y="147" width="15" height="5" style="fill:#5d3c2d;stroke:black;stroke-width:1;fill-opacity:1;stroke-opacity:0.3" />
<line x1="165" y1="37" x2="167" y2="39" stroke="black" stroke-width="1" />
<line x1="167" y1="39" x2="170" y2="37" stroke="black" stroke-width="1" />
<rect x="150" y="35" width="15" height="5" style="fill:#5d3c2d;stroke:black;stroke-width:1;fill-opacity:1;stroke-opacity:0.3" />
<rect x="170" y="35" width="15" height="5" style="fill:#5d3c2d;stroke:black;stroke-width:1;fill-opacity:1;stroke-opacity:0.3" />
<line x1="172" y1="30" x2="176" y2="32" stroke="black" stroke-width="1" />
<line x1="176" y1="32" x2="180" y2="30" stroke="black" stroke-width="1" />
<rect x="157" y="28" width="15" height="5" style="fill:#f5b024;stroke:black;stroke-width:1;fill-opacity:1;stroke-opacity:0.3" />
<rect x="180" y="28" width="14" height="5" style="fill:#f5b024;stroke:black;stroke-width:1;fill-opacity:1;stroke-opacity:0.3" />
<line x1="198" y1="44" x2="199" y2="46" stroke="black" stroke-width="1" />
<line x1="199" y1="46" x2="201" y2="44" stroke="black" stroke-width="1" />
<rect x="183" y="42" width="15" height="5" style="fill:#f5b024;stroke:black;stroke-width:1;fill-opacity:1;stroke-opacity:0.3" />
<rect x="201" y="42" width="15" height="5" style="fill:#f5b024;stroke:black;stroke-width:1;fill-opacity:1;stroke-opacity:0.3" />
<line x1="215" y1="37" x2="220" y2="39" stroke="black" stroke-width="1" />
<line x1="220" y1="39" x2="225" y2="37" stroke="black" stroke-width="1" />
<rect x="192" y="35" width="23" height="5" style="fill:#f5b024;stroke:black;stroke-width:1;fill-opacity:1;stroke-opacity:0.3" />
<rect x="225" y="35" width="23" height="5" style="fill:#f5b024;stroke:black;stroke-width:1;fill-opacity:1;stroke-opacity:0.3" />
<line x1="214" y1="30" x2="218" y2="32" stroke="black" stroke-width="1" />
<line x1="218" y1="32" x2="222" y2="30" stroke="black" stroke-width="1" />
<rect x="199" y="28" width="15" height="5" style="fill:#f5b024;stroke:black;stroke-width:1;fill-opacity:1;stroke-opacity:0.3" />
<rect x="222" y="28" width="15" height="5" style="fill:#f5b024;stroke:black;stroke-width:1;fill-opacity:1;stroke-opacity:0.3" />
<line x1="225" y1="51" x2="230" y2="53" stroke="black" stroke-width="1" />
<line x1="230" y1="53" x2="235" y2="51" stroke="black" stroke-width="1" />
<rect x="209" y="49" width="15" height="5" style="fill:#f5b024;stroke:black;stroke-width:1;fill-opacity:1;stroke-opacity:0.3" />
<rect x="235" y="49" width="15" height="5" style="fill:#f5b024;stroke:black;stroke-width:1;fill-opacity:1;stroke-opacity:0.3" />
<line x1="237" y1="44" x2="240" y2="46" stroke="black" stroke-width="1" />
<line x1="240" y1="46" x2="243" y2="44" stroke="black" stroke-width="1" />
<rect x="221" y="42" width="15" height="5" style="fill:#f5b024;stroke:black;stroke-width:1;fill-opacity:1;stroke-opacity:0.3" />
<rect x="243" y="42" width="15" height="5" style="fill:#f5b024;stroke:black;stroke-width:1;fill-opacity:1;stroke-opacity:0.3" />
<line x1="240" y1="58" x2="241" y2="60" stroke="black" stroke-width="1" />
<line x1="241" y1="60" x2="243" y2="58" stroke="black" stroke-width="1" />
<rect x="225" y="56" width="15" height="5" style="fill:#f5b024;stroke:black;stroke-width:1;fill-opacity:1;stroke-opacity:0.3" />
<rect x="243" y="56" width="15" height="5" style="fill:#f5b024;stroke:black;stroke-width:1;fill-opacity:1;stroke-opacity:0.3" />
<line x1="256" y1="30" x2="258" y2="32" stroke="black" stroke-width="1" />
<line x1="258" y1="32" x2="260" y2="30" stroke="black" stroke-width="1" />
<rect x="240" y="28" width="15" height="5" style="fill:#f5b024;stroke:black;stroke-width:1;fill-opacity:1;stroke-opacity:0.3" />
<rect x="260" y="28" width="15" height="5" style="fill:#f5b024;stroke:black;stroke-width:1;fill-opacity:1;stroke-opacity:0.3" />
<line x1="276" y1="37" x2="281" y2="39" stroke="black" stroke-width="1" />
<line x1="281" y1="39" x2="286" y2="37" stroke="black" stroke-width="1" />
<rect x="261" y="35" width="15" height="5" style="fill:#f5b024;stroke:black;stroke-width:1;fill-opacity:1;stroke-opacity:0.3" />
<rect x="286" y="35" width="15" height="5" style="fill:#f5b024;stroke:black;stroke-width:1;fill-opacity:1;stroke-opacity:0.3" />
<line x1="330" y1="30" x2="330" y2="32" stroke="black" stroke-width="1" />
<line x1="330" y1="32" x2="331" y2="30" stroke="black" stroke-width="1" />
<rect x="314" y="28" width="15" height="5" style="fill:#f5b024;stroke:black;stroke-width:1;fill-opacity:1;stroke-opacity:0.3" />
<rect x="331" y="28" width="15" height="5" style="fill:#f5b024;stroke:black;stroke-width:1;fill-opacity:1;stroke-opacity:0.3" />
<line x1="342" y1="37" x2="344" y2="39" stroke="black" stroke-width="1" />
<line x1="344" y1="39" x2="346" y2="37" stroke="black" stroke-width="1" />
<rect x="327" y="35" width="15" height="5" style="fill:#f5b024;stroke:black;stroke-width:1;fill-opacity:1;stroke-opacity:0.3" />
<rect x="346" y="35" width="15" height="5" style="fill:#f5b024;stroke:black;stroke-width:1;fill-opacity:1;stroke-opacity:0.3" />
<line x1="428" y1="30" x2="429" y2="32" stroke="black" stroke-width="1" />
<line x1="429" y1="32" x2="430" y2="30" stroke="black" stroke-width="1" />
<rect x="366" y="28" width="13" height="5" style="fill:#f5b024;stroke:black;stroke-width:1;fill-opacity:1;stroke-opacity:0.3" />
<line x1="379" y1="30" x2="426" y2="30" stroke="pink" stroke-width="1" />
<rect x="426" y="28" width="1" height="5" style="fill:#f5b024;stroke:black;stroke-width:1;fill-opacity:1;stroke-opacity:0.3" />
<rect x="430" y="28" width="15" height="5" style="fill:#f5b024;stroke:black;stroke-width:1;fill-opacity:1;stroke-opacity:0.3" />
<line x1="447" y1="37" x2="448" y2="39" stroke="black" stroke-width="1" />
<line x1="448" y1="39" x2="450" y2="37" stroke="black" stroke-width="1" />
<rect x="432" y="35" width="15" height="5" style="fill:#f5b024;stroke:black;stroke-width:1;fill-opacity:1;stroke-opacity:0.3" />
<rect x="450" y="35" width="10" height="5" style="fill:#f5b024;stroke:black;stroke-width:1;fill-opacity:1;stroke-opacity:0.3" />
<line x1="460" y1="37" x2="484" y2="37" stroke="pink" stroke-width="1" />
<rect x="484" y="35" width="4" height="5" style="fill:#f5b024;stroke:black;stroke-width:1;fill-opacity:1;stroke-opacity:0.3" />
<line x1="504" y1="30" x2="525" y2="32" stroke="black" stroke-width="1" />
<line x1="525" y1="32" x2="546" y2="30" stroke="black" stroke-width="1" />
<rect x="489" y="28" width="15" height="5" style="fill:#f5b024;stroke:black;stroke-width:1;fill-opacity:1;stroke-opacity:0.3" />
<rect x="546" y="28" width="15" height="5" style="fill:#f5b024;stroke:black;stroke-width:1;fill-opacity:1;stroke-opacity:0.3" />
<line x1="674" y1="30" x2="692" y2="32" stroke="black" stroke-width="1" />
<line x1="692" y1="32" x2="711" y2="30" stroke="black" stroke-width="1" />
<rect x="658" y="28" width="15" height="5" style="fill:#f5b024;stroke:black;stroke-width:1;fill-opacity:1;stroke-opacity:0.3" />
<rect x="711" y="28" width="15" height="5" style="fill:#f5b024;stroke:black;stroke-width:1;fill-opacity:1;stroke-opacity:0.3" />
<line x1="962" y1="30" x2="964" y2="32" stroke="black" stroke-width="1" />
<line x1="964" y1="32" x2="966" y2="30" stroke="black" stroke-width="1" />
<rect x="947" y="28" width="15" height="5" style="fill:#f5b024;stroke:black;stroke-width:1;fill-opacity:1;stroke-opacity:0.3" />
<rect x="966" y="28" width="15" height="5" style="fill:#f5b024;stroke:black;stroke-width:1;fill-opacity:1;stroke-opacity:0.3" />
<text x="15"  y="176" style="font-family:Arial;font-size:10;stroke:black;fill:black;">all.merged.bam</text>
</svg>
    
