<?xml version="1.0" encoding="utf-8" standalone="no"?>
<!DOCTYPE svg PUBLIC "-//W3C//DTD SVG 1.1//EN"
  "http://www.w3.org/Graphics/SVG/1.1/DTD/svg11.dtd">
<svg height="1140" width="1000" version="1.1" viewBox="0 0 1000 1140" xmlns="http://www.w3.org/2000/svg" xmlns:xlink="http://www.w3.org/1999/xlink">
<line x1="26" y1="11" x2="973" y2="11" stroke="black" stroke-width="1" />
<rect x="26" y="9" width="96" height="5" style="fill:#f50002;stroke:black;stroke-width:1;fill-opacity:1;stroke-opacity:0.3" />
<rect x="123" y="9" width="39" height="5" style="fill:#53a1b5;stroke:black;stroke-width:1;fill-opacity:1;stroke-opacity:0.3" />
<rect x="214" y="9" width="44" height="5" style="fill:#53a1b5;stroke:black;stroke-width:1;fill-opacity:1;stroke-opacity:0.3" />
<rect x="314" y="9" width="21" height="5" style="fill:#53a1b5;stroke:black;stroke-width:1;fill-opacity:1;stroke-opacity:0.3" />
<rect x="392" y="9" width="23" height="5" style="fill:#53a1b5;stroke:black;stroke-width:1;fill-opacity:1;stroke-opacity:0.3" />
<rect x="469" y="9" width="51" height="5" style="fill:#53a1b5;stroke:black;stroke-width:1;fill-opacity:1;stroke-opacity:0.3" />
<rect x="575" y="9" width="38" height="5" style="fill:#53a1b5;stroke:black;stroke-width:1;fill-opacity:1;stroke-opacity:0.3" />
<rect x="705" y="9" width="23" height="5" style="fill:#53a1b5;stroke:black;stroke-width:1;fill-opacity:1;stroke-opacity:0.3" />
<rect x="779" y="9" width="49" height="5" style="fill:#53a1b5;stroke:black;stroke-width:1;fill-opacity:1;stroke-opacity:0.3" />
<rect x="880" y="9" width="51" height="5" style="fill:#53a1b5;stroke:black;stroke-width:1;fill-opacity:1;stroke-opacity:0.3" />
<rect x="932" y="9" width="41" height="5" style="fill:#f50002;stroke:black;stroke-width:1;fill-opacity:1;stroke-opacity:0.3" />
<text x="26"  y="23" style="font-family:Arial;font-size:10;stroke:black;fill:black;">Cre03.g186950.t1.2.v5.5 (-) chromosome_3:5609342-5612987</text>
<line x1="56" y1="30" x2="62" y2="32" stroke="black" stroke-width="1" />
<line x1="62" y1="32" x2="69" y2="30" stroke="black" stroke-width="1" />
<rect x="30" y="28" width="26" height="5" style="fill:#5d3c2d;stroke:black;stroke-width:1;fill-opacity:1;stroke-opacity:0.3" />
<rect x="69" y="28" width="26" height="5" style="fill:#5d3c2d;stroke:black;stroke-width:1;fill-opacity:1;stroke-opacity:0.3" />
<line x1="61" y1="37" x2="65" y2="39" stroke="black" stroke-width="1" />
<line x1="65" y1="39" x2="69" y2="37" stroke="black" stroke-width="1" />
<rect x="35" y="35" width="26" height="5" style="fill:#f5b024;stroke:black;stroke-width:1;fill-opacity:1;stroke-opacity:0.3" />
<rect x="69" y="35" width="26" height="5" style="fill:#f5b024;stroke:black;stroke-width:1;fill-opacity:1;stroke-opacity:0.3" />
<line x1="61" y1="44" x2="72" y2="46" stroke="black" stroke-width="1" />
<line x1="72" y1="46" x2="83" y2="44" stroke="black" stroke-width="1" />
<rect x="35" y="42" width="26" height="5" style="fill:#f5b024;stroke:black;stroke-width:1;fill-opacity:1;stroke-opacity:0.3" />
<rect x="83" y="42" width="26" height="5" style="fill:#f5b024;stroke:black;stroke-width:1;fill-opacity:1;stroke-opacity:0.3" />
<line x1="63" y1="51" x2="74" y2="53" stroke="black" stroke-width="1" />
<line x1="74" y1="53" x2="86" y2="51" stroke="black" stroke-width="1" />
<rect x="37" y="49" width="26" height="5" style="fill:#f5b024;stroke:black;stroke-width:1;fill-opacity:1;stroke-opacity:0.3" />
<rect x="86" y="49" width="26" height="5" style="fill:#f5b024;stroke:black;stroke-width:1;fill-opacity:1;stroke-opacity:0.3" />
<line x1="64" y1="58" x2="66" y2="60" stroke="black" stroke-width="1" />
<line x1="66" y1="60" x2="68" y2="58" stroke="black" stroke-width="1" />
<rect x="38" y="56" width="26" height="5" style="fill:#5d3c2d;stroke:black;stroke-width:1;fill-opacity:1;stroke-opacity:0.3" />
<rect x="68" y="56" width="26" height="5" style="fill:#5d3c2d;stroke:black;stroke-width:1;fill-opacity:1;stroke-opacity:0.3" />
<line x1="69" y1="65" x2="71" y2="67" stroke="black" stroke-width="1" />
<line x1="71" y1="67" x2="73" y2="65" stroke="black" stroke-width="1" />
<rect x="43" y="63" width="26" height="5" style="fill:#f5b024;stroke:black;stroke-width:1;fill-opacity:1;stroke-opacity:0.3" />
<rect x="73" y="63" width="26" height="5" style="fill:#f5b024;stroke:black;stroke-width:1;fill-opacity:1;stroke-opacity:0.3" />
<line x1="90" y1="72" x2="96" y2="74" stroke="black" stroke-width="1" />
<line x1="96" y1="74" x2="102" y2="72" stroke="black" stroke-width="1" />
<rect x="64" y="70" width="26" height="5" style="fill:#f5b024;stroke:black;stroke-width:1;fill-opacity:1;stroke-opacity:0.3" />
<rect x="102" y="70" width="26" height="5" style="fill:#f5b024;stroke:black;stroke-width:1;fill-opacity:1;stroke-opacity:0.3" />
<line x1="99" y1="79" x2="124" y2="81" stroke="black" stroke-width="1" />
<line x1="124" y1="81" x2="149" y2="79" stroke="black" stroke-width="1" />
<rect x="73" y="77" width="26" height="5" style="fill:#f5b024;stroke:black;stroke-width:1;fill-opacity:1;stroke-opacity:0.3" />
<rect x="149" y="77" width="13" height="5" style="fill:#f5b024;stroke:black;stroke-width:1;fill-opacity:1;stroke-opacity:0.3" />
<line x1="163" y1="79" x2="214" y2="79" stroke="pink" stroke-width="1" />
<rect x="214" y="77" width="12" height="5" style="fill:#f5b024;stroke:black;stroke-width:1;fill-opacity:1;stroke-opacity:0.3" />
<line x1="102" y1="86" x2="110" y2="88" stroke="black" stroke-width="1" />
<line x1="110" y1="88" x2="118" y2="86" stroke="black" stroke-width="1" />
<rect x="76" y="84" width="26" height="5" style="fill:#f5b024;stroke:black;stroke-width:1;fill-opacity:1;stroke-opacity:0.3" />
<rect x="118" y="84" width="26" height="5" style="fill:#f5b024;stroke:black;stroke-width:1;fill-opacity:1;stroke-opacity:0.3" />
<line x1="108" y1="93" x2="111" y2="95" stroke="black" stroke-width="1" />
<line x1="111" y1="95" x2="115" y2="93" stroke="black" stroke-width="1" />
<rect x="82" y="91" width="26" height="5" style="fill:#f5b024;stroke:black;stroke-width:1;fill-opacity:1;stroke-opacity:0.3" />
<rect x="115" y="91" width="25" height="5" style="fill:#f5b024;stroke:black;stroke-width:1;fill-opacity:1;stroke-opacity:0.3" />
<line x1="108" y1="100" x2="111" y2="102" stroke="black" stroke-width="1" />
<line x1="111" y1="102" x2="115" y2="100" stroke="black" stroke-width="1" />
<rect x="82" y="98" width="26" height="5" style="fill:#f5b024;stroke:black;stroke-width:1;fill-opacity:1;stroke-opacity:0.3" />
<rect x="115" y="98" width="26" height="5" style="fill:#f5b024;stroke:black;stroke-width:1;fill-opacity:1;stroke-opacity:0.3" />
<line x1="150" y1="30" x2="154" y2="32" stroke="black" stroke-width="1" />
<line x1="154" y1="32" x2="158" y2="30" stroke="black" stroke-width="1" />
<rect x="111" y="28" width="39" height="5" style="fill:#f5b024;stroke:black;stroke-width:1;fill-opacity:1;stroke-opacity:0.3" />
<rect x="158" y="28" width="4" height="5" style="fill:#f5b024;stroke:black;stroke-width:1;fill-opacity:1;stroke-opacity:0.3" />
<line x1="163" y1="30" x2="214" y2="30" stroke="pink" stroke-width="1" />
<rect x="214" y="28" width="34" height="5" style="fill:#f5b024;stroke:black;stroke-width:1;fill-opacity:1;stroke-opacity:0.3" />
<line x1="164" y1="37" x2="190" y2="39" stroke="black" stroke-width="1" />
<line x1="190" y1="39" x2="217" y2="37" stroke="black" stroke-width="1" />
<rect x="129" y="35" width="34" height="5" style="fill:#f5b024;stroke:black;stroke-width:1;fill-opacity:1;stroke-opacity:0.3" />
<rect x="217" y="35" width="39" height="5" style="fill:#f5b024;stroke:black;stroke-width:1;fill-opacity:1;stroke-opacity:0.3" />
<line x1="239" y1="44" x2="242" y2="46" stroke="black" stroke-width="1" />
<line x1="242" y1="46" x2="246" y2="44" stroke="black" stroke-width="1" />
<rect x="148" y="42" width="14" height="5" style="fill:#f5b024;stroke:black;stroke-width:1;fill-opacity:1;stroke-opacity:0.3" />
<line x1="163" y1="44" x2="214" y2="44" stroke="pink" stroke-width="1" />
<rect x="214" y="42" width="24" height="5" style="fill:#f5b024;stroke:black;stroke-width:1;fill-opacity:1;stroke-opacity:0.3" />
<rect x="246" y="42" width="13" height="5" style="fill:#f5b024;stroke:black;stroke-width:1;fill-opacity:1;stroke-opacity:0.3" />
<line x1="260" y1="44" x2="314" y2="44" stroke="pink" stroke-width="1" />
<rect x="314" y="42" width="21" height="5" style="fill:#f5b024;stroke:black;stroke-width:1;fill-opacity:1;stroke-opacity:0.3" />
<line x1="336" y1="44" x2="392" y2="44" stroke="pink" stroke-width="1" />
<rect x="392" y="42" width="3" height="5" style="fill:#f5b024;stroke:black;stroke-width:1;fill-opacity:1;stroke-opacity:0.3" />
<line x1="326" y1="51" x2="360" y2="53" stroke="black" stroke-width="1" />
<line x1="360" y1="53" x2="395" y2="51" stroke="black" stroke-width="1" />
<rect x="245" y="49" width="14" height="5" style="fill:#f5b024;stroke:black;stroke-width:1;fill-opacity:1;stroke-opacity:0.3" />
<line x1="260" y1="51" x2="314" y2="51" stroke="pink" stroke-width="1" />
<rect x="314" y="49" width="11" height="5" style="fill:#f5b024;stroke:black;stroke-width:1;fill-opacity:1;stroke-opacity:0.3" />
<rect x="395" y="49" width="21" height="5" style="fill:#f5b024;stroke:black;stroke-width:1;fill-opacity:1;stroke-opacity:0.3" />
<line x1="416" y1="51" x2="469" y2="51" stroke="pink" stroke-width="1" />
<rect x="469" y="49" width="4" height="5" style="fill:#f5b024;stroke:black;stroke-width:1;fill-opacity:1;stroke-opacity:0.3" />
<line x1="332" y1="30" x2="333" y2="32" stroke="black" stroke-width="1" />
<line x1="333" y1="32" x2="335" y2="30" stroke="black" stroke-width="1" />
<rect x="251" y="28" width="8" height="5" style="fill:#f5b024;stroke:black;stroke-width:1;fill-opacity:1;stroke-opacity:0.3" />
<line x1="260" y1="30" x2="314" y2="30" stroke="pink" stroke-width="1" />
<rect x="314" y="28" width="17" height="5" style="fill:#f5b024;stroke:black;stroke-width:1;fill-opacity:1;stroke-opacity:0.3" />
<rect x="335" y="28" width="0" height="5" style="fill:#f5b024;stroke:black;stroke-width:1;fill-opacity:1;stroke-opacity:0.3" />
<line x1="336" y1="30" x2="392" y2="30" stroke="pink" stroke-width="1" />
<rect x="392" y="28" width="24" height="5" style="fill:#f5b024;stroke:black;stroke-width:1;fill-opacity:1;stroke-opacity:0.3" />
<line x1="335" y1="58" x2="364" y2="60" stroke="black" stroke-width="1" />
<line x1="364" y1="60" x2="393" y2="58" stroke="black" stroke-width="1" />
<rect x="254" y="56" width="5" height="5" style="fill:#f5b024;stroke:black;stroke-width:1;fill-opacity:1;stroke-opacity:0.3" />
<line x1="260" y1="58" x2="314" y2="58" stroke="pink" stroke-width="1" />
<rect x="314" y="56" width="20" height="5" style="fill:#f5b024;stroke:black;stroke-width:1;fill-opacity:1;stroke-opacity:0.3" />
<rect x="393" y="56" width="26" height="5" style="fill:#f5b024;stroke:black;stroke-width:1;fill-opacity:1;stroke-opacity:0.3" />
<line x1="405" y1="37" x2="441" y2="39" stroke="black" stroke-width="1" />
<line x1="441" y1="39" x2="477" y2="37" stroke="black" stroke-width="1" />
<rect x="323" y="35" width="12" height="5" style="fill:#f5b024;stroke:black;stroke-width:1;fill-opacity:1;stroke-opacity:0.3" />
<line x1="336" y1="37" x2="392" y2="37" stroke="pink" stroke-width="1" />
<rect x="392" y="35" width="13" height="5" style="fill:#f5b024;stroke:black;stroke-width:1;fill-opacity:1;stroke-opacity:0.3" />
<rect x="477" y="35" width="26" height="5" style="fill:#f5b024;stroke:black;stroke-width:1;fill-opacity:1;stroke-opacity:0.3" />
<line x1="504" y1="30" x2="547" y2="32" stroke="black" stroke-width="1" />
<line x1="547" y1="32" x2="591" y2="30" stroke="black" stroke-width="1" />
<rect x="478" y="28" width="26" height="5" style="fill:#f5b024;stroke:black;stroke-width:1;fill-opacity:1;stroke-opacity:0.3" />
<rect x="591" y="28" width="24" height="5" style="fill:#f5b024;stroke:black;stroke-width:1;fill-opacity:1;stroke-opacity:0.3" />
<line x1="504" y1="44" x2="547" y2="46" stroke="black" stroke-width="1" />
<line x1="547" y1="46" x2="591" y2="44" stroke="black" stroke-width="1" />
<rect x="478" y="42" width="26" height="5" style="fill:#f5b024;stroke:black;stroke-width:1;fill-opacity:1;stroke-opacity:0.3" />
<rect x="591" y="42" width="24" height="5" style="fill:#f5b024;stroke:black;stroke-width:1;fill-opacity:1;stroke-opacity:0.3" />
<text x="15"  y="176" style="font-family:Arial;font-size:10;stroke:black;fill:black;">all.merged.bam</text>
</svg>
    
