<?xml version="1.0" encoding="utf-8" standalone="no"?>
<!DOCTYPE svg PUBLIC "-//W3C//DTD SVG 1.1//EN"
  "http://www.w3.org/Graphics/SVG/1.1/DTD/svg11.dtd">
<svg height="1140" width="1000" version="1.1" viewBox="0 0 1000 1140" xmlns="http://www.w3.org/2000/svg" xmlns:xlink="http://www.w3.org/1999/xlink">
<line x1="40" y1="11" x2="959" y2="11" stroke="black" stroke-width="1" />
<rect x="40" y="9" width="11" height="5" style="fill:#f50002;stroke:black;stroke-width:1;fill-opacity:1;stroke-opacity:0.3" />
<rect x="51" y="9" width="141" height="5" style="fill:#53a1b5;stroke:black;stroke-width:1;fill-opacity:1;stroke-opacity:0.3" />
<rect x="247" y="9" width="600" height="5" style="fill:#53a1b5;stroke:black;stroke-width:1;fill-opacity:1;stroke-opacity:0.3" />
<rect x="848" y="9" width="110" height="5" style="fill:#f50002;stroke:black;stroke-width:1;fill-opacity:1;stroke-opacity:0.3" />
<text x="40"  y="23" style="font-family:Arial;font-size:10;stroke:black;fill:black;">Cre05.g235600.t1.1.v5.5 (+) chromosome_5:2487114-2489395</text>
<line x1="193" y1="30" x2="224" y2="32" stroke="black" stroke-width="1" />
<line x1="224" y1="32" x2="255" y2="30" stroke="black" stroke-width="1" />
<rect x="153" y="28" width="40" height="5" style="fill:#5d3c2d;stroke:black;stroke-width:1;fill-opacity:1;stroke-opacity:0.3" />
<rect x="255" y="28" width="39" height="5" style="fill:#5d3c2d;stroke:black;stroke-width:1;fill-opacity:1;stroke-opacity:0.3" />
<line x1="377" y1="30" x2="385" y2="32" stroke="black" stroke-width="1" />
<line x1="385" y1="32" x2="393" y2="30" stroke="black" stroke-width="1" />
<rect x="337" y="28" width="40" height="5" style="fill:#5d3c2d;stroke:black;stroke-width:1;fill-opacity:1;stroke-opacity:0.3" />
<rect x="393" y="28" width="39" height="5" style="fill:#5d3c2d;stroke:black;stroke-width:1;fill-opacity:1;stroke-opacity:0.3" />
<line x1="403" y1="37" x2="411" y2="39" stroke="black" stroke-width="1" />
<line x1="411" y1="39" x2="419" y2="37" stroke="black" stroke-width="1" />
<rect x="363" y="35" width="40" height="5" style="fill:#5d3c2d;stroke:black;stroke-width:1;fill-opacity:1;stroke-opacity:0.3" />
<rect x="419" y="35" width="40" height="5" style="fill:#5d3c2d;stroke:black;stroke-width:1;fill-opacity:1;stroke-opacity:0.3" />
<line x1="607" y1="30" x2="611" y2="32" stroke="black" stroke-width="1" />
<line x1="611" y1="32" x2="616" y2="30" stroke="black" stroke-width="1" />
<rect x="567" y="28" width="40" height="5" style="fill:#5d3c2d;stroke:black;stroke-width:1;fill-opacity:1;stroke-opacity:0.3" />
<rect x="616" y="28" width="40" height="5" style="fill:#5d3c2d;stroke:black;stroke-width:1;fill-opacity:1;stroke-opacity:0.3" />
<text x="15"  y="176" style="font-family:Arial;font-size:10;stroke:black;fill:black;">all.merged.bam</text>
</svg>
    
