<?xml version="1.0" encoding="utf-8" standalone="no"?>
<!DOCTYPE svg PUBLIC "-//W3C//DTD SVG 1.1//EN"
  "http://www.w3.org/Graphics/SVG/1.1/DTD/svg11.dtd">
<svg height="1140" width="1000" version="1.1" viewBox="0 0 1000 1140" xmlns="http://www.w3.org/2000/svg" xmlns:xlink="http://www.w3.org/1999/xlink">
<line x1="8" y1="11" x2="991" y2="11" stroke="black" stroke-width="1" />
<rect x="8" y="9" width="56" height="5" style="fill:#f50002;stroke:black;stroke-width:1;fill-opacity:1;stroke-opacity:0.3" />
<rect x="64" y="9" width="42" height="5" style="fill:#53a1b5;stroke:black;stroke-width:1;fill-opacity:1;stroke-opacity:0.3" />
<rect x="134" y="9" width="138" height="5" style="fill:#53a1b5;stroke:black;stroke-width:1;fill-opacity:1;stroke-opacity:0.3" />
<rect x="295" y="9" width="8" height="5" style="fill:#53a1b5;stroke:black;stroke-width:1;fill-opacity:1;stroke-opacity:0.3" />
<rect x="331" y="9" width="5" height="5" style="fill:#53a1b5;stroke:black;stroke-width:1;fill-opacity:1;stroke-opacity:0.3" />
<rect x="366" y="9" width="7" height="5" style="fill:#53a1b5;stroke:black;stroke-width:1;fill-opacity:1;stroke-opacity:0.3" />
<rect x="414" y="9" width="6" height="5" style="fill:#53a1b5;stroke:black;stroke-width:1;fill-opacity:1;stroke-opacity:0.3" />
<rect x="459" y="9" width="9" height="5" style="fill:#53a1b5;stroke:black;stroke-width:1;fill-opacity:1;stroke-opacity:0.3" />
<rect x="496" y="9" width="11" height="5" style="fill:#53a1b5;stroke:black;stroke-width:1;fill-opacity:1;stroke-opacity:0.3" />
<rect x="542" y="9" width="28" height="5" style="fill:#53a1b5;stroke:black;stroke-width:1;fill-opacity:1;stroke-opacity:0.3" />
<rect x="587" y="9" width="4" height="5" style="fill:#53a1b5;stroke:black;stroke-width:1;fill-opacity:1;stroke-opacity:0.3" />
<rect x="602" y="9" width="7" height="5" style="fill:#53a1b5;stroke:black;stroke-width:1;fill-opacity:1;stroke-opacity:0.3" />
<rect x="642" y="9" width="5" height="5" style="fill:#53a1b5;stroke:black;stroke-width:1;fill-opacity:1;stroke-opacity:0.3" />
<rect x="668" y="9" width="3" height="5" style="fill:#53a1b5;stroke:black;stroke-width:1;fill-opacity:1;stroke-opacity:0.3" />
<rect x="708" y="9" width="7" height="5" style="fill:#53a1b5;stroke:black;stroke-width:1;fill-opacity:1;stroke-opacity:0.3" />
<rect x="731" y="9" width="7" height="5" style="fill:#53a1b5;stroke:black;stroke-width:1;fill-opacity:1;stroke-opacity:0.3" />
<rect x="758" y="9" width="16" height="5" style="fill:#53a1b5;stroke:black;stroke-width:1;fill-opacity:1;stroke-opacity:0.3" />
<rect x="827" y="9" width="134" height="5" style="fill:#53a1b5;stroke:black;stroke-width:1;fill-opacity:1;stroke-opacity:0.3" />
<rect x="962" y="9" width="28" height="5" style="fill:#f50002;stroke:black;stroke-width:1;fill-opacity:1;stroke-opacity:0.3" />
<text x="8"  y="23" style="font-family:Arial;font-size:10;stroke:black;fill:black;">Cre09.g412175.t1.1.v5.5 (-) chromosome_9:7179820-7191195</text>
<line x1="21" y1="30" x2="22" y2="32" stroke="black" stroke-width="1" />
<line x1="22" y1="32" x2="23" y2="30" stroke="black" stroke-width="1" />
<rect x="8" y="28" width="12" height="5" style="fill:#f5b024;stroke:black;stroke-width:1;fill-opacity:1;stroke-opacity:0.3" />
<rect x="23" y="28" width="12" height="5" style="fill:#f5b024;stroke:black;stroke-width:1;fill-opacity:1;stroke-opacity:0.3" />
<line x1="27" y1="37" x2="28" y2="39" stroke="black" stroke-width="1" />
<line x1="28" y1="39" x2="29" y2="37" stroke="black" stroke-width="1" />
<rect x="18" y="35" width="8" height="5" style="fill:#f5b024;stroke:black;stroke-width:1;fill-opacity:1;stroke-opacity:0.3" />
<rect x="29" y="35" width="8" height="5" style="fill:#f5b024;stroke:black;stroke-width:1;fill-opacity:1;stroke-opacity:0.3" />
<line x1="31" y1="44" x2="31" y2="46" stroke="black" stroke-width="1" />
<line x1="31" y1="46" x2="32" y2="44" stroke="black" stroke-width="1" />
<rect x="22" y="42" width="8" height="5" style="fill:#f5b024;stroke:black;stroke-width:1;fill-opacity:1;stroke-opacity:0.3" />
<rect x="32" y="42" width="8" height="5" style="fill:#f5b024;stroke:black;stroke-width:1;fill-opacity:1;stroke-opacity:0.3" />
<line x1="48" y1="30" x2="49" y2="32" stroke="black" stroke-width="1" />
<line x1="49" y1="32" x2="50" y2="30" stroke="black" stroke-width="1" />
<rect x="40" y="28" width="8" height="5" style="fill:#f5b024;stroke:black;stroke-width:1;fill-opacity:1;stroke-opacity:0.3" />
<rect x="50" y="28" width="8" height="5" style="fill:#f5b024;stroke:black;stroke-width:1;fill-opacity:1;stroke-opacity:0.3" />
<line x1="54" y1="37" x2="55" y2="39" stroke="black" stroke-width="1" />
<line x1="55" y1="39" x2="57" y2="37" stroke="black" stroke-width="1" />
<rect x="46" y="35" width="8" height="5" style="fill:#f5b024;stroke:black;stroke-width:1;fill-opacity:1;stroke-opacity:0.3" />
<rect x="57" y="35" width="8" height="5" style="fill:#f5b024;stroke:black;stroke-width:1;fill-opacity:1;stroke-opacity:0.3" />
<line x1="54" y1="44" x2="55" y2="46" stroke="black" stroke-width="1" />
<line x1="55" y1="46" x2="57" y2="44" stroke="black" stroke-width="1" />
<rect x="46" y="42" width="8" height="5" style="fill:#f5b024;stroke:black;stroke-width:1;fill-opacity:1;stroke-opacity:0.3" />
<rect x="57" y="42" width="8" height="5" style="fill:#f5b024;stroke:black;stroke-width:1;fill-opacity:1;stroke-opacity:0.3" />
<line x1="59" y1="51" x2="59" y2="53" stroke="black" stroke-width="1" />
<line x1="59" y1="53" x2="60" y2="51" stroke="black" stroke-width="1" />
<rect x="50" y="49" width="8" height="5" style="fill:#f5b024;stroke:black;stroke-width:1;fill-opacity:1;stroke-opacity:0.3" />
<rect x="60" y="49" width="8" height="5" style="fill:#f5b024;stroke:black;stroke-width:1;fill-opacity:1;stroke-opacity:0.3" />
<line x1="60" y1="58" x2="61" y2="60" stroke="black" stroke-width="1" />
<line x1="61" y1="60" x2="63" y2="58" stroke="black" stroke-width="1" />
<rect x="51" y="56" width="8" height="5" style="fill:#f5b024;stroke:black;stroke-width:1;fill-opacity:1;stroke-opacity:0.3" />
<rect x="63" y="56" width="8" height="5" style="fill:#f5b024;stroke:black;stroke-width:1;fill-opacity:1;stroke-opacity:0.3" />
<line x1="60" y1="65" x2="62" y2="67" stroke="black" stroke-width="1" />
<line x1="62" y1="67" x2="65" y2="65" stroke="black" stroke-width="1" />
<rect x="51" y="63" width="8" height="5" style="fill:#f5b024;stroke:black;stroke-width:1;fill-opacity:1;stroke-opacity:0.3" />
<rect x="65" y="63" width="8" height="5" style="fill:#f5b024;stroke:black;stroke-width:1;fill-opacity:1;stroke-opacity:0.3" />
<line x1="77" y1="30" x2="77" y2="32" stroke="black" stroke-width="1" />
<line x1="77" y1="32" x2="78" y2="30" stroke="black" stroke-width="1" />
<rect x="68" y="28" width="8" height="5" style="fill:#5d3c2d;stroke:black;stroke-width:1;fill-opacity:1;stroke-opacity:0.3" />
<rect x="78" y="28" width="8" height="5" style="fill:#5d3c2d;stroke:black;stroke-width:1;fill-opacity:1;stroke-opacity:0.3" />
<line x1="83" y1="37" x2="83" y2="39" stroke="black" stroke-width="1" />
<line x1="83" y1="39" x2="84" y2="37" stroke="black" stroke-width="1" />
<rect x="74" y="35" width="8" height="5" style="fill:#f5b024;stroke:black;stroke-width:1;fill-opacity:1;stroke-opacity:0.3" />
<rect x="84" y="35" width="8" height="5" style="fill:#f5b024;stroke:black;stroke-width:1;fill-opacity:1;stroke-opacity:0.3" />
<line x1="89" y1="44" x2="89" y2="46" stroke="black" stroke-width="1" />
<line x1="89" y1="46" x2="90" y2="44" stroke="black" stroke-width="1" />
<rect x="76" y="42" width="12" height="5" style="fill:#f5b024;stroke:black;stroke-width:1;fill-opacity:1;stroke-opacity:0.3" />
<rect x="90" y="42" width="12" height="5" style="fill:#f5b024;stroke:black;stroke-width:1;fill-opacity:1;stroke-opacity:0.3" />
<line x1="139" y1="30" x2="141" y2="32" stroke="black" stroke-width="1" />
<line x1="141" y1="32" x2="143" y2="30" stroke="black" stroke-width="1" />
<rect x="99" y="28" width="8" height="5" style="fill:#f5b024;stroke:black;stroke-width:1;fill-opacity:1;stroke-opacity:0.3" />
<line x1="107" y1="30" x2="134" y2="30" stroke="pink" stroke-width="1" />
<rect x="134" y="28" width="4" height="5" style="fill:#f5b024;stroke:black;stroke-width:1;fill-opacity:1;stroke-opacity:0.3" />
<rect x="143" y="28" width="12" height="5" style="fill:#f5b024;stroke:black;stroke-width:1;fill-opacity:1;stroke-opacity:0.3" />
<line x1="155" y1="37" x2="156" y2="39" stroke="black" stroke-width="1" />
<line x1="156" y1="39" x2="158" y2="37" stroke="black" stroke-width="1" />
<rect x="146" y="35" width="8" height="5" style="fill:#f5b024;stroke:black;stroke-width:1;fill-opacity:1;stroke-opacity:0.3" />
<rect x="158" y="35" width="8" height="5" style="fill:#f5b024;stroke:black;stroke-width:1;fill-opacity:1;stroke-opacity:0.3" />
<line x1="156" y1="44" x2="157" y2="46" stroke="black" stroke-width="1" />
<line x1="157" y1="46" x2="159" y2="44" stroke="black" stroke-width="1" />
<rect x="147" y="42" width="8" height="5" style="fill:#f5b024;stroke:black;stroke-width:1;fill-opacity:1;stroke-opacity:0.3" />
<rect x="159" y="42" width="8" height="5" style="fill:#f5b024;stroke:black;stroke-width:1;fill-opacity:1;stroke-opacity:0.3" />
<line x1="156" y1="51" x2="160" y2="53" stroke="black" stroke-width="1" />
<line x1="160" y1="53" x2="164" y2="51" stroke="black" stroke-width="1" />
<rect x="147" y="49" width="8" height="5" style="fill:#f5b024;stroke:black;stroke-width:1;fill-opacity:1;stroke-opacity:0.3" />
<rect x="164" y="49" width="8" height="5" style="fill:#f5b024;stroke:black;stroke-width:1;fill-opacity:1;stroke-opacity:0.3" />
<line x1="168" y1="30" x2="169" y2="32" stroke="black" stroke-width="1" />
<line x1="169" y1="32" x2="171" y2="30" stroke="black" stroke-width="1" />
<rect x="159" y="28" width="8" height="5" style="fill:#f5b024;stroke:black;stroke-width:1;fill-opacity:1;stroke-opacity:0.3" />
<rect x="171" y="28" width="8" height="5" style="fill:#f5b024;stroke:black;stroke-width:1;fill-opacity:1;stroke-opacity:0.3" />
<line x1="171" y1="58" x2="173" y2="60" stroke="black" stroke-width="1" />
<line x1="173" y1="60" x2="175" y2="58" stroke="black" stroke-width="1" />
<rect x="163" y="56" width="8" height="5" style="fill:#f5b024;stroke:black;stroke-width:1;fill-opacity:1;stroke-opacity:0.3" />
<rect x="175" y="56" width="8" height="5" style="fill:#f5b024;stroke:black;stroke-width:1;fill-opacity:1;stroke-opacity:0.3" />
<line x1="171" y1="65" x2="173" y2="67" stroke="black" stroke-width="1" />
<line x1="173" y1="67" x2="175" y2="65" stroke="black" stroke-width="1" />
<rect x="163" y="63" width="8" height="5" style="fill:#f5b024;stroke:black;stroke-width:1;fill-opacity:1;stroke-opacity:0.3" />
<rect x="175" y="63" width="8" height="5" style="fill:#f5b024;stroke:black;stroke-width:1;fill-opacity:1;stroke-opacity:0.3" />
<line x1="171" y1="72" x2="172" y2="74" stroke="black" stroke-width="1" />
<line x1="172" y1="74" x2="174" y2="72" stroke="black" stroke-width="1" />
<rect x="163" y="70" width="8" height="5" style="fill:#f5b024;stroke:black;stroke-width:1;fill-opacity:1;stroke-opacity:0.3" />
<rect x="174" y="70" width="8" height="5" style="fill:#f5b024;stroke:black;stroke-width:1;fill-opacity:1;stroke-opacity:0.3" />
<line x1="176" y1="79" x2="178" y2="81" stroke="black" stroke-width="1" />
<line x1="178" y1="81" x2="181" y2="79" stroke="black" stroke-width="1" />
<rect x="163" y="77" width="12" height="5" style="fill:#5d3c2d;stroke:black;stroke-width:1;fill-opacity:1;stroke-opacity:0.3" />
<rect x="181" y="77" width="12" height="5" style="fill:#5d3c2d;stroke:black;stroke-width:1;fill-opacity:1;stroke-opacity:0.3" />
<line x1="173" y1="86" x2="178" y2="88" stroke="black" stroke-width="1" />
<line x1="178" y1="88" x2="184" y2="86" stroke="black" stroke-width="1" />
<rect x="165" y="84" width="8" height="5" style="fill:#f5b024;stroke:black;stroke-width:1;fill-opacity:1;stroke-opacity:0.3" />
<rect x="184" y="84" width="8" height="5" style="fill:#f5b024;stroke:black;stroke-width:1;fill-opacity:1;stroke-opacity:0.3" />
<line x1="179" y1="93" x2="180" y2="95" stroke="black" stroke-width="1" />
<line x1="180" y1="95" x2="181" y2="93" stroke="black" stroke-width="1" />
<rect x="166" y="91" width="12" height="5" style="fill:#f5b024;stroke:black;stroke-width:1;fill-opacity:1;stroke-opacity:0.3" />
<rect x="181" y="91" width="12" height="5" style="fill:#f5b024;stroke:black;stroke-width:1;fill-opacity:1;stroke-opacity:0.3" />
<line x1="176" y1="37" x2="177" y2="39" stroke="black" stroke-width="1" />
<line x1="177" y1="39" x2="179" y2="37" stroke="black" stroke-width="1" />
<rect x="167" y="35" width="8" height="5" style="fill:#f5b024;stroke:black;stroke-width:1;fill-opacity:1;stroke-opacity:0.3" />
<rect x="179" y="35" width="8" height="5" style="fill:#f5b024;stroke:black;stroke-width:1;fill-opacity:1;stroke-opacity:0.3" />
<line x1="184" y1="44" x2="184" y2="46" stroke="black" stroke-width="1" />
<line x1="184" y1="46" x2="185" y2="44" stroke="black" stroke-width="1" />
<rect x="175" y="42" width="8" height="5" style="fill:#f5b024;stroke:black;stroke-width:1;fill-opacity:1;stroke-opacity:0.3" />
<rect x="185" y="42" width="8" height="5" style="fill:#f5b024;stroke:black;stroke-width:1;fill-opacity:1;stroke-opacity:0.3" />
<line x1="184" y1="51" x2="185" y2="53" stroke="black" stroke-width="1" />
<line x1="185" y1="53" x2="186" y2="51" stroke="black" stroke-width="1" />
<rect x="176" y="49" width="8" height="5" style="fill:#f5b024;stroke:black;stroke-width:1;fill-opacity:1;stroke-opacity:0.3" />
<rect x="186" y="49" width="8" height="5" style="fill:#f5b024;stroke:black;stroke-width:1;fill-opacity:1;stroke-opacity:0.3" />
<line x1="190" y1="100" x2="193" y2="102" stroke="black" stroke-width="1" />
<line x1="193" y1="102" x2="196" y2="100" stroke="black" stroke-width="1" />
<rect x="178" y="98" width="12" height="5" style="fill:#5d3c2d;stroke:black;stroke-width:1;fill-opacity:1;stroke-opacity:0.3" />
<rect x="196" y="98" width="12" height="5" style="fill:#5d3c2d;stroke:black;stroke-width:1;fill-opacity:1;stroke-opacity:0.3" />
<line x1="197" y1="30" x2="199" y2="32" stroke="black" stroke-width="1" />
<line x1="199" y1="32" x2="201" y2="30" stroke="black" stroke-width="1" />
<rect x="184" y="28" width="12" height="5" style="fill:#5d3c2d;stroke:black;stroke-width:1;fill-opacity:1;stroke-opacity:0.3" />
<rect x="201" y="28" width="12" height="5" style="fill:#5d3c2d;stroke:black;stroke-width:1;fill-opacity:1;stroke-opacity:0.3" />
<line x1="197" y1="58" x2="199" y2="60" stroke="black" stroke-width="1" />
<line x1="199" y1="60" x2="201" y2="58" stroke="black" stroke-width="1" />
<rect x="184" y="56" width="12" height="5" style="fill:#f5b024;stroke:black;stroke-width:1;fill-opacity:1;stroke-opacity:0.3" />
<rect x="201" y="56" width="12" height="5" style="fill:#f5b024;stroke:black;stroke-width:1;fill-opacity:1;stroke-opacity:0.3" />
<line x1="220" y1="37" x2="221" y2="39" stroke="black" stroke-width="1" />
<line x1="221" y1="39" x2="222" y2="37" stroke="black" stroke-width="1" />
<rect x="211" y="35" width="8" height="5" style="fill:#f5b024;stroke:black;stroke-width:1;fill-opacity:1;stroke-opacity:0.3" />
<rect x="222" y="35" width="8" height="5" style="fill:#f5b024;stroke:black;stroke-width:1;fill-opacity:1;stroke-opacity:0.3" />
<line x1="220" y1="44" x2="221" y2="46" stroke="black" stroke-width="1" />
<line x1="221" y1="46" x2="222" y2="44" stroke="black" stroke-width="1" />
<rect x="211" y="42" width="8" height="5" style="fill:#f5b024;stroke:black;stroke-width:1;fill-opacity:1;stroke-opacity:0.3" />
<rect x="222" y="42" width="8" height="5" style="fill:#f5b024;stroke:black;stroke-width:1;fill-opacity:1;stroke-opacity:0.3" />
<line x1="226" y1="30" x2="227" y2="32" stroke="black" stroke-width="1" />
<line x1="227" y1="32" x2="229" y2="30" stroke="black" stroke-width="1" />
<rect x="217" y="28" width="8" height="5" style="fill:#f5b024;stroke:black;stroke-width:1;fill-opacity:1;stroke-opacity:0.3" />
<rect x="229" y="28" width="8" height="5" style="fill:#f5b024;stroke:black;stroke-width:1;fill-opacity:1;stroke-opacity:0.3" />
<line x1="234" y1="51" x2="235" y2="53" stroke="black" stroke-width="1" />
<line x1="235" y1="53" x2="237" y2="51" stroke="black" stroke-width="1" />
<rect x="222" y="49" width="12" height="5" style="fill:#f5b024;stroke:black;stroke-width:1;fill-opacity:1;stroke-opacity:0.3" />
<rect x="237" y="49" width="12" height="5" style="fill:#f5b024;stroke:black;stroke-width:1;fill-opacity:1;stroke-opacity:0.3" />
<line x1="271" y1="30" x2="283" y2="32" stroke="black" stroke-width="1" />
<line x1="283" y1="32" x2="296" y2="30" stroke="black" stroke-width="1" />
<rect x="258" y="28" width="12" height="5" style="fill:#f5b024;stroke:black;stroke-width:1;fill-opacity:1;stroke-opacity:0.3" />
<rect x="296" y="28" width="7" height="5" style="fill:#f5b024;stroke:black;stroke-width:1;fill-opacity:1;stroke-opacity:0.3" />
<line x1="304" y1="30" x2="331" y2="30" stroke="pink" stroke-width="1" />
<rect x="331" y="28" width="5" height="5" style="fill:#f5b024;stroke:black;stroke-width:1;fill-opacity:1;stroke-opacity:0.3" />
<line x1="300" y1="37" x2="300" y2="39" stroke="black" stroke-width="1" />
<line x1="300" y1="39" x2="301" y2="37" stroke="black" stroke-width="1" />
<rect x="268" y="35" width="4" height="5" style="fill:#f5b024;stroke:black;stroke-width:1;fill-opacity:1;stroke-opacity:0.3" />
<line x1="272" y1="37" x2="295" y2="37" stroke="pink" stroke-width="1" />
<rect x="295" y="35" width="4" height="5" style="fill:#f5b024;stroke:black;stroke-width:1;fill-opacity:1;stroke-opacity:0.3" />
<rect x="301" y="35" width="3" height="5" style="fill:#f5b024;stroke:black;stroke-width:1;fill-opacity:1;stroke-opacity:0.3" />
<line x1="304" y1="37" x2="331" y2="37" stroke="pink" stroke-width="1" />
<rect x="331" y="35" width="5" height="5" style="fill:#f5b024;stroke:black;stroke-width:1;fill-opacity:1;stroke-opacity:0.3" />
<line x1="304" y1="44" x2="335" y2="46" stroke="black" stroke-width="1" />
<line x1="335" y1="46" x2="366" y2="44" stroke="black" stroke-width="1" />
<rect x="295" y="42" width="8" height="5" style="fill:#f5b024;stroke:black;stroke-width:1;fill-opacity:1;stroke-opacity:0.3" />
<rect x="366" y="42" width="7" height="5" style="fill:#f5b024;stroke:black;stroke-width:1;fill-opacity:1;stroke-opacity:0.3" />
<line x1="374" y1="44" x2="414" y2="44" stroke="pink" stroke-width="1" />
<rect x="414" y="42" width="1" height="5" style="fill:#f5b024;stroke:black;stroke-width:1;fill-opacity:1;stroke-opacity:0.3" />
<line x1="332" y1="51" x2="333" y2="53" stroke="black" stroke-width="1" />
<line x1="333" y1="53" x2="335" y2="51" stroke="black" stroke-width="1" />
<rect x="297" y="49" width="7" height="5" style="fill:#f5b024;stroke:black;stroke-width:1;fill-opacity:1;stroke-opacity:0.3" />
<line x1="304" y1="51" x2="331" y2="51" stroke="pink" stroke-width="1" />
<rect x="331" y="49" width="1" height="5" style="fill:#f5b024;stroke:black;stroke-width:1;fill-opacity:1;stroke-opacity:0.3" />
<rect x="335" y="49" width="1" height="5" style="fill:#f5b024;stroke:black;stroke-width:1;fill-opacity:1;stroke-opacity:0.3" />
<line x1="336" y1="51" x2="366" y2="51" stroke="pink" stroke-width="1" />
<rect x="366" y="49" width="7" height="5" style="fill:#f5b024;stroke:black;stroke-width:1;fill-opacity:1;stroke-opacity:0.3" />
<line x1="332" y1="58" x2="332" y2="60" stroke="black" stroke-width="1" />
<line x1="332" y1="60" x2="333" y2="58" stroke="black" stroke-width="1" />
<rect x="297" y="56" width="7" height="5" style="fill:#f5b024;stroke:black;stroke-width:1;fill-opacity:1;stroke-opacity:0.3" />
<line x1="304" y1="58" x2="331" y2="58" stroke="pink" stroke-width="1" />
<rect x="331" y="56" width="1" height="5" style="fill:#f5b024;stroke:black;stroke-width:1;fill-opacity:1;stroke-opacity:0.3" />
<rect x="333" y="56" width="3" height="5" style="fill:#f5b024;stroke:black;stroke-width:1;fill-opacity:1;stroke-opacity:0.3" />
<line x1="336" y1="58" x2="366" y2="58" stroke="pink" stroke-width="1" />
<rect x="366" y="56" width="5" height="5" style="fill:#f5b024;stroke:black;stroke-width:1;fill-opacity:1;stroke-opacity:0.3" />
<line x1="366" y1="65" x2="367" y2="67" stroke="black" stroke-width="1" />
<line x1="367" y1="67" x2="368" y2="65" stroke="black" stroke-width="1" />
<rect x="301" y="63" width="2" height="5" style="fill:#f5b024;stroke:black;stroke-width:1;fill-opacity:1;stroke-opacity:0.3" />
<line x1="304" y1="65" x2="331" y2="65" stroke="pink" stroke-width="1" />
<rect x="331" y="63" width="5" height="5" style="fill:#f5b024;stroke:black;stroke-width:1;fill-opacity:1;stroke-opacity:0.3" />
<line x1="336" y1="65" x2="366" y2="65" stroke="pink" stroke-width="1" />
<rect x="366" y="63" width="0" height="5" style="fill:#f5b024;stroke:black;stroke-width:1;fill-opacity:1;stroke-opacity:0.3" />
<rect x="368" y="63" width="6" height="5" style="fill:#f5b024;stroke:black;stroke-width:1;fill-opacity:1;stroke-opacity:0.3" />
<line x1="374" y1="65" x2="414" y2="65" stroke="pink" stroke-width="1" />
<rect x="414" y="63" width="2" height="5" style="fill:#f5b024;stroke:black;stroke-width:1;fill-opacity:1;stroke-opacity:0.3" />
<line x1="336" y1="72" x2="351" y2="74" stroke="black" stroke-width="1" />
<line x1="351" y1="74" x2="367" y2="72" stroke="black" stroke-width="1" />
<rect x="301" y="70" width="2" height="5" style="fill:#5d3c2d;stroke:black;stroke-width:1;fill-opacity:1;stroke-opacity:0.3" />
<line x1="304" y1="72" x2="331" y2="72" stroke="pink" stroke-width="1" />
<rect x="331" y="70" width="5" height="5" style="fill:#5d3c2d;stroke:black;stroke-width:1;fill-opacity:1;stroke-opacity:0.3" />
<rect x="367" y="70" width="6" height="5" style="fill:#5d3c2d;stroke:black;stroke-width:1;fill-opacity:1;stroke-opacity:0.3" />
<line x1="374" y1="72" x2="414" y2="72" stroke="pink" stroke-width="1" />
<rect x="414" y="70" width="1" height="5" style="fill:#5d3c2d;stroke:black;stroke-width:1;fill-opacity:1;stroke-opacity:0.3" />
<line x1="367" y1="79" x2="368" y2="81" stroke="black" stroke-width="1" />
<line x1="368" y1="81" x2="369" y2="79" stroke="black" stroke-width="1" />
<rect x="302" y="77" width="1" height="5" style="fill:#f5b024;stroke:black;stroke-width:1;fill-opacity:1;stroke-opacity:0.3" />
<line x1="304" y1="79" x2="331" y2="79" stroke="pink" stroke-width="1" />
<rect x="331" y="77" width="5" height="5" style="fill:#f5b024;stroke:black;stroke-width:1;fill-opacity:1;stroke-opacity:0.3" />
<line x1="336" y1="79" x2="366" y2="79" stroke="pink" stroke-width="1" />
<rect x="366" y="77" width="1" height="5" style="fill:#f5b024;stroke:black;stroke-width:1;fill-opacity:1;stroke-opacity:0.3" />
<rect x="369" y="77" width="4" height="5" style="fill:#f5b024;stroke:black;stroke-width:1;fill-opacity:1;stroke-opacity:0.3" />
<line x1="374" y1="79" x2="414" y2="79" stroke="pink" stroke-width="1" />
<rect x="414" y="77" width="4" height="5" style="fill:#f5b024;stroke:black;stroke-width:1;fill-opacity:1;stroke-opacity:0.3" />
<line x1="416" y1="86" x2="417" y2="88" stroke="black" stroke-width="1" />
<line x1="417" y1="88" x2="418" y2="86" stroke="black" stroke-width="1" />
<rect x="333" y="84" width="2" height="5" style="fill:#f5b024;stroke:black;stroke-width:1;fill-opacity:1;stroke-opacity:0.3" />
<line x1="336" y1="86" x2="366" y2="86" stroke="pink" stroke-width="1" />
<rect x="366" y="84" width="8" height="5" style="fill:#f5b024;stroke:black;stroke-width:1;fill-opacity:1;stroke-opacity:0.3" />
<line x1="374" y1="86" x2="414" y2="86" stroke="pink" stroke-width="1" />
<rect x="414" y="84" width="2" height="5" style="fill:#f5b024;stroke:black;stroke-width:1;fill-opacity:1;stroke-opacity:0.3" />
<rect x="418" y="84" width="3" height="5" style="fill:#f5b024;stroke:black;stroke-width:1;fill-opacity:1;stroke-opacity:0.3" />
<line x1="421" y1="86" x2="459" y2="86" stroke="pink" stroke-width="1" />
<rect x="459" y="84" width="9" height="5" style="fill:#f5b024;stroke:black;stroke-width:1;fill-opacity:1;stroke-opacity:0.3" />
<line x1="469" y1="86" x2="496" y2="86" stroke="pink" stroke-width="1" />
<rect x="496" y="84" width="0" height="5" style="fill:#f5b024;stroke:black;stroke-width:1;fill-opacity:1;stroke-opacity:0.3" />
<line x1="373" y1="93" x2="393" y2="95" stroke="black" stroke-width="1" />
<line x1="393" y1="95" x2="414" y2="93" stroke="black" stroke-width="1" />
<rect x="334" y="91" width="1" height="5" style="fill:#f5b024;stroke:black;stroke-width:1;fill-opacity:1;stroke-opacity:0.3" />
<line x1="336" y1="93" x2="366" y2="93" stroke="pink" stroke-width="1" />
<rect x="366" y="91" width="6" height="5" style="fill:#f5b024;stroke:black;stroke-width:1;fill-opacity:1;stroke-opacity:0.3" />
<rect x="414" y="91" width="6" height="5" style="fill:#f5b024;stroke:black;stroke-width:1;fill-opacity:1;stroke-opacity:0.3" />
<line x1="421" y1="93" x2="459" y2="93" stroke="pink" stroke-width="1" />
<rect x="459" y="91" width="2" height="5" style="fill:#f5b024;stroke:black;stroke-width:1;fill-opacity:1;stroke-opacity:0.3" />
<line x1="373" y1="100" x2="393" y2="102" stroke="black" stroke-width="1" />
<line x1="393" y1="102" x2="414" y2="100" stroke="black" stroke-width="1" />
<rect x="334" y="98" width="1" height="5" style="fill:#f5b024;stroke:black;stroke-width:1;fill-opacity:1;stroke-opacity:0.3" />
<line x1="336" y1="100" x2="366" y2="100" stroke="pink" stroke-width="1" />
<rect x="366" y="98" width="6" height="5" style="fill:#f5b024;stroke:black;stroke-width:1;fill-opacity:1;stroke-opacity:0.3" />
<rect x="414" y="98" width="6" height="5" style="fill:#f5b024;stroke:black;stroke-width:1;fill-opacity:1;stroke-opacity:0.3" />
<line x1="421" y1="100" x2="459" y2="100" stroke="pink" stroke-width="1" />
<rect x="459" y="98" width="2" height="5" style="fill:#f5b024;stroke:black;stroke-width:1;fill-opacity:1;stroke-opacity:0.3" />
<line x1="373" y1="107" x2="394" y2="109" stroke="black" stroke-width="1" />
<line x1="394" y1="109" x2="416" y2="107" stroke="black" stroke-width="1" />
<rect x="335" y="105" width="1" height="5" style="fill:#f5b024;stroke:black;stroke-width:1;fill-opacity:1;stroke-opacity:0.3" />
<line x1="336" y1="107" x2="366" y2="107" stroke="pink" stroke-width="1" />
<rect x="366" y="105" width="7" height="5" style="fill:#f5b024;stroke:black;stroke-width:1;fill-opacity:1;stroke-opacity:0.3" />
<rect x="416" y="105" width="5" height="5" style="fill:#f5b024;stroke:black;stroke-width:1;fill-opacity:1;stroke-opacity:0.3" />
<line x1="421" y1="107" x2="459" y2="107" stroke="pink" stroke-width="1" />
<rect x="459" y="105" width="3" height="5" style="fill:#f5b024;stroke:black;stroke-width:1;fill-opacity:1;stroke-opacity:0.3" />
<line x1="417" y1="30" x2="418" y2="32" stroke="black" stroke-width="1" />
<line x1="418" y1="32" x2="419" y2="30" stroke="black" stroke-width="1" />
<rect x="369" y="28" width="4" height="5" style="fill:#f5b024;stroke:black;stroke-width:1;fill-opacity:1;stroke-opacity:0.3" />
<line x1="374" y1="30" x2="414" y2="30" stroke="pink" stroke-width="1" />
<rect x="414" y="28" width="3" height="5" style="fill:#f5b024;stroke:black;stroke-width:1;fill-opacity:1;stroke-opacity:0.3" />
<rect x="419" y="28" width="1" height="5" style="fill:#f5b024;stroke:black;stroke-width:1;fill-opacity:1;stroke-opacity:0.3" />
<line x1="421" y1="30" x2="459" y2="30" stroke="pink" stroke-width="1" />
<rect x="459" y="28" width="7" height="5" style="fill:#f5b024;stroke:black;stroke-width:1;fill-opacity:1;stroke-opacity:0.3" />
<line x1="419" y1="37" x2="439" y2="39" stroke="black" stroke-width="1" />
<line x1="439" y1="39" x2="459" y2="37" stroke="black" stroke-width="1" />
<rect x="370" y="35" width="4" height="5" style="fill:#5d3c2d;stroke:black;stroke-width:1;fill-opacity:1;stroke-opacity:0.3" />
<line x1="374" y1="37" x2="414" y2="37" stroke="pink" stroke-width="1" />
<rect x="414" y="35" width="4" height="5" style="fill:#5d3c2d;stroke:black;stroke-width:1;fill-opacity:1;stroke-opacity:0.3" />
<rect x="459" y="35" width="8" height="5" style="fill:#5d3c2d;stroke:black;stroke-width:1;fill-opacity:1;stroke-opacity:0.3" />
<line x1="419" y1="114" x2="439" y2="116" stroke="black" stroke-width="1" />
<line x1="439" y1="116" x2="459" y2="114" stroke="black" stroke-width="1" />
<rect x="370" y="112" width="4" height="5" style="fill:#5d3c2d;stroke:black;stroke-width:1;fill-opacity:1;stroke-opacity:0.3" />
<line x1="374" y1="114" x2="414" y2="114" stroke="pink" stroke-width="1" />
<rect x="414" y="112" width="4" height="5" style="fill:#5d3c2d;stroke:black;stroke-width:1;fill-opacity:1;stroke-opacity:0.3" />
<rect x="459" y="112" width="8" height="5" style="fill:#5d3c2d;stroke:black;stroke-width:1;fill-opacity:1;stroke-opacity:0.3" />
<line x1="419" y1="121" x2="440" y2="123" stroke="black" stroke-width="1" />
<line x1="440" y1="123" x2="461" y2="121" stroke="black" stroke-width="1" />
<rect x="370" y="119" width="3" height="5" style="fill:#f5b024;stroke:black;stroke-width:1;fill-opacity:1;stroke-opacity:0.3" />
<line x1="374" y1="121" x2="414" y2="121" stroke="pink" stroke-width="1" />
<rect x="414" y="119" width="4" height="5" style="fill:#f5b024;stroke:black;stroke-width:1;fill-opacity:1;stroke-opacity:0.3" />
<rect x="461" y="119" width="8" height="5" style="fill:#f5b024;stroke:black;stroke-width:1;fill-opacity:1;stroke-opacity:0.3" />
<line x1="469" y1="121" x2="496" y2="121" stroke="pink" stroke-width="1" />
<rect x="496" y="119" width="0" height="5" style="fill:#f5b024;stroke:black;stroke-width:1;fill-opacity:1;stroke-opacity:0.3" />
<line x1="421" y1="58" x2="440" y2="60" stroke="black" stroke-width="1" />
<line x1="440" y1="60" x2="459" y2="58" stroke="black" stroke-width="1" />
<rect x="372" y="56" width="1" height="5" style="fill:#f5b024;stroke:black;stroke-width:1;fill-opacity:1;stroke-opacity:0.3" />
<line x1="374" y1="58" x2="414" y2="58" stroke="pink" stroke-width="1" />
<rect x="414" y="56" width="6" height="5" style="fill:#f5b024;stroke:black;stroke-width:1;fill-opacity:1;stroke-opacity:0.3" />
<rect x="459" y="56" width="8" height="5" style="fill:#f5b024;stroke:black;stroke-width:1;fill-opacity:1;stroke-opacity:0.3" />
<line x1="463" y1="44" x2="463" y2="46" stroke="black" stroke-width="1" />
<line x1="463" y1="46" x2="464" y2="44" stroke="black" stroke-width="1" />
<rect x="416" y="42" width="4" height="5" style="fill:#f5b024;stroke:black;stroke-width:1;fill-opacity:1;stroke-opacity:0.3" />
<line x1="421" y1="44" x2="459" y2="44" stroke="pink" stroke-width="1" />
<rect x="459" y="42" width="3" height="5" style="fill:#f5b024;stroke:black;stroke-width:1;fill-opacity:1;stroke-opacity:0.3" />
<rect x="464" y="42" width="4" height="5" style="fill:#f5b024;stroke:black;stroke-width:1;fill-opacity:1;stroke-opacity:0.3" />
<line x1="469" y1="44" x2="496" y2="44" stroke="pink" stroke-width="1" />
<rect x="496" y="42" width="4" height="5" style="fill:#f5b024;stroke:black;stroke-width:1;fill-opacity:1;stroke-opacity:0.3" />
<line x1="501" y1="51" x2="502" y2="53" stroke="black" stroke-width="1" />
<line x1="502" y1="53" x2="503" y2="51" stroke="black" stroke-width="1" />
<rect x="464" y="49" width="4" height="5" style="fill:#f5b024;stroke:black;stroke-width:1;fill-opacity:1;stroke-opacity:0.3" />
<line x1="469" y1="51" x2="496" y2="51" stroke="pink" stroke-width="1" />
<rect x="496" y="49" width="4" height="5" style="fill:#f5b024;stroke:black;stroke-width:1;fill-opacity:1;stroke-opacity:0.3" />
<rect x="503" y="49" width="5" height="5" style="fill:#f5b024;stroke:black;stroke-width:1;fill-opacity:1;stroke-opacity:0.3" />
<line x1="508" y1="51" x2="542" y2="51" stroke="pink" stroke-width="1" />
<rect x="542" y="49" width="3" height="5" style="fill:#f5b024;stroke:black;stroke-width:1;fill-opacity:1;stroke-opacity:0.3" />
<line x1="502" y1="65" x2="524" y2="67" stroke="black" stroke-width="1" />
<line x1="524" y1="67" x2="546" y2="65" stroke="black" stroke-width="1" />
<rect x="466" y="63" width="2" height="5" style="fill:#5d3c2d;stroke:black;stroke-width:1;fill-opacity:1;stroke-opacity:0.3" />
<line x1="469" y1="65" x2="496" y2="65" stroke="pink" stroke-width="1" />
<rect x="496" y="63" width="5" height="5" style="fill:#5d3c2d;stroke:black;stroke-width:1;fill-opacity:1;stroke-opacity:0.3" />
<rect x="546" y="63" width="8" height="5" style="fill:#5d3c2d;stroke:black;stroke-width:1;fill-opacity:1;stroke-opacity:0.3" />
<line x1="505" y1="30" x2="524" y2="32" stroke="black" stroke-width="1" />
<line x1="524" y1="32" x2="544" y2="30" stroke="black" stroke-width="1" />
<rect x="496" y="28" width="8" height="5" style="fill:#f5b024;stroke:black;stroke-width:1;fill-opacity:1;stroke-opacity:0.3" />
<rect x="544" y="28" width="8" height="5" style="fill:#f5b024;stroke:black;stroke-width:1;fill-opacity:1;stroke-opacity:0.3" />
<line x1="506" y1="37" x2="507" y2="39" stroke="black" stroke-width="1" />
<line x1="507" y1="39" x2="508" y2="37" stroke="black" stroke-width="1" />
<rect x="498" y="35" width="8" height="5" style="fill:#f5b024;stroke:black;stroke-width:1;fill-opacity:1;stroke-opacity:0.3" />
<rect x="508" y="35" width="0" height="5" style="fill:#f5b024;stroke:black;stroke-width:1;fill-opacity:1;stroke-opacity:0.3" />
<line x1="508" y1="37" x2="542" y2="37" stroke="pink" stroke-width="1" />
<rect x="542" y="35" width="7" height="5" style="fill:#f5b024;stroke:black;stroke-width:1;fill-opacity:1;stroke-opacity:0.3" />
<line x1="508" y1="58" x2="525" y2="60" stroke="black" stroke-width="1" />
<line x1="525" y1="60" x2="542" y2="58" stroke="black" stroke-width="1" />
<rect x="499" y="56" width="8" height="5" style="fill:#f5b024;stroke:black;stroke-width:1;fill-opacity:1;stroke-opacity:0.3" />
<rect x="542" y="56" width="8" height="5" style="fill:#f5b024;stroke:black;stroke-width:1;fill-opacity:1;stroke-opacity:0.3" />
<line x1="547" y1="44" x2="550" y2="46" stroke="black" stroke-width="1" />
<line x1="550" y1="46" x2="554" y2="44" stroke="black" stroke-width="1" />
<rect x="505" y="42" width="3" height="5" style="fill:#f5b024;stroke:black;stroke-width:1;fill-opacity:1;stroke-opacity:0.3" />
<line x1="508" y1="44" x2="542" y2="44" stroke="pink" stroke-width="1" />
<rect x="542" y="42" width="5" height="5" style="fill:#f5b024;stroke:black;stroke-width:1;fill-opacity:1;stroke-opacity:0.3" />
<rect x="554" y="42" width="8" height="5" style="fill:#f5b024;stroke:black;stroke-width:1;fill-opacity:1;stroke-opacity:0.3" />
<line x1="550" y1="72" x2="550" y2="74" stroke="black" stroke-width="1" />
<line x1="550" y1="74" x2="551" y2="72" stroke="black" stroke-width="1" />
<rect x="507" y="70" width="1" height="5" style="fill:#f5b024;stroke:black;stroke-width:1;fill-opacity:1;stroke-opacity:0.3" />
<line x1="508" y1="72" x2="542" y2="72" stroke="pink" stroke-width="1" />
<rect x="542" y="70" width="7" height="5" style="fill:#f5b024;stroke:black;stroke-width:1;fill-opacity:1;stroke-opacity:0.3" />
<rect x="551" y="70" width="8" height="5" style="fill:#f5b024;stroke:black;stroke-width:1;fill-opacity:1;stroke-opacity:0.3" />
<line x1="589" y1="30" x2="596" y2="32" stroke="black" stroke-width="1" />
<line x1="596" y1="32" x2="604" y2="30" stroke="black" stroke-width="1" />
<rect x="559" y="28" width="11" height="5" style="fill:#f5b024;stroke:black;stroke-width:1;fill-opacity:1;stroke-opacity:0.3" />
<line x1="570" y1="30" x2="587" y2="30" stroke="pink" stroke-width="1" />
<rect x="587" y="28" width="1" height="5" style="fill:#f5b024;stroke:black;stroke-width:1;fill-opacity:1;stroke-opacity:0.3" />
<rect x="604" y="28" width="6" height="5" style="fill:#f5b024;stroke:black;stroke-width:1;fill-opacity:1;stroke-opacity:0.3" />
<line x1="610" y1="30" x2="642" y2="30" stroke="pink" stroke-width="1" />
<rect x="642" y="28" width="5" height="5" style="fill:#f5b024;stroke:black;stroke-width:1;fill-opacity:1;stroke-opacity:0.3" />
<line x1="648" y1="30" x2="668" y2="30" stroke="pink" stroke-width="1" />
<rect x="668" y="28" width="1" height="5" style="fill:#f5b024;stroke:black;stroke-width:1;fill-opacity:1;stroke-opacity:0.3" />
<line x1="628" y1="37" x2="629" y2="39" stroke="black" stroke-width="1" />
<line x1="629" y1="39" x2="631" y2="37" stroke="black" stroke-width="1" />
<rect x="606" y="35" width="4" height="5" style="fill:#f5b024;stroke:black;stroke-width:1;fill-opacity:1;stroke-opacity:0.3" />
<line x1="610" y1="37" x2="623" y2="37" stroke="pink" stroke-width="1" />
<rect x="623" y="35" width="4" height="5" style="fill:#f5b024;stroke:black;stroke-width:1;fill-opacity:1;stroke-opacity:0.3" />
<rect x="631" y="35" width="8" height="5" style="fill:#f5b024;stroke:black;stroke-width:1;fill-opacity:1;stroke-opacity:0.3" />
<line x1="834" y1="30" x2="835" y2="32" stroke="black" stroke-width="1" />
<line x1="835" y1="32" x2="836" y2="30" stroke="black" stroke-width="1" />
<rect x="774" y="28" width="1" height="5" style="fill:#f5b024;stroke:black;stroke-width:1;fill-opacity:1;stroke-opacity:0.3" />
<line x1="776" y1="30" x2="827" y2="30" stroke="pink" stroke-width="1" />
<rect x="827" y="28" width="6" height="5" style="fill:#f5b024;stroke:black;stroke-width:1;fill-opacity:1;stroke-opacity:0.3" />
<rect x="836" y="28" width="8" height="5" style="fill:#f5b024;stroke:black;stroke-width:1;fill-opacity:1;stroke-opacity:0.3" />
<line x1="845" y1="37" x2="846" y2="39" stroke="black" stroke-width="1" />
<line x1="846" y1="39" x2="847" y2="37" stroke="black" stroke-width="1" />
<rect x="836" y="35" width="8" height="5" style="fill:#f5b024;stroke:black;stroke-width:1;fill-opacity:1;stroke-opacity:0.3" />
<rect x="847" y="35" width="8" height="5" style="fill:#f5b024;stroke:black;stroke-width:1;fill-opacity:1;stroke-opacity:0.3" />
<line x1="855" y1="30" x2="855" y2="32" stroke="black" stroke-width="1" />
<line x1="855" y1="32" x2="856" y2="30" stroke="black" stroke-width="1" />
<rect x="846" y="28" width="8" height="5" style="fill:#f5b024;stroke:black;stroke-width:1;fill-opacity:1;stroke-opacity:0.3" />
<rect x="856" y="28" width="8" height="5" style="fill:#f5b024;stroke:black;stroke-width:1;fill-opacity:1;stroke-opacity:0.3" />
<line x1="869" y1="37" x2="870" y2="39" stroke="black" stroke-width="1" />
<line x1="870" y1="39" x2="871" y2="37" stroke="black" stroke-width="1" />
<rect x="861" y="35" width="8" height="5" style="fill:#5d3c2d;stroke:black;stroke-width:1;fill-opacity:1;stroke-opacity:0.3" />
<rect x="871" y="35" width="7" height="5" style="fill:#5d3c2d;stroke:black;stroke-width:1;fill-opacity:1;stroke-opacity:0.3" />
<line x1="877" y1="30" x2="878" y2="32" stroke="black" stroke-width="1" />
<line x1="878" y1="32" x2="880" y2="30" stroke="black" stroke-width="1" />
<rect x="868" y="28" width="8" height="5" style="fill:#f5b024;stroke:black;stroke-width:1;fill-opacity:1;stroke-opacity:0.3" />
<rect x="880" y="28" width="8" height="5" style="fill:#f5b024;stroke:black;stroke-width:1;fill-opacity:1;stroke-opacity:0.3" />
<line x1="888" y1="37" x2="889" y2="39" stroke="black" stroke-width="1" />
<line x1="889" y1="39" x2="891" y2="37" stroke="black" stroke-width="1" />
<rect x="879" y="35" width="8" height="5" style="fill:#f5b024;stroke:black;stroke-width:1;fill-opacity:1;stroke-opacity:0.3" />
<rect x="891" y="35" width="7" height="5" style="fill:#f5b024;stroke:black;stroke-width:1;fill-opacity:1;stroke-opacity:0.3" />
<line x1="892" y1="44" x2="894" y2="46" stroke="black" stroke-width="1" />
<line x1="894" y1="46" x2="897" y2="44" stroke="black" stroke-width="1" />
<rect x="884" y="42" width="8" height="5" style="fill:#f5b024;stroke:black;stroke-width:1;fill-opacity:1;stroke-opacity:0.3" />
<rect x="897" y="42" width="8" height="5" style="fill:#f5b024;stroke:black;stroke-width:1;fill-opacity:1;stroke-opacity:0.3" />
<line x1="892" y1="51" x2="894" y2="53" stroke="black" stroke-width="1" />
<line x1="894" y1="53" x2="897" y2="51" stroke="black" stroke-width="1" />
<rect x="884" y="49" width="8" height="5" style="fill:#f5b024;stroke:black;stroke-width:1;fill-opacity:1;stroke-opacity:0.3" />
<rect x="897" y="49" width="8" height="5" style="fill:#f5b024;stroke:black;stroke-width:1;fill-opacity:1;stroke-opacity:0.3" />
<line x1="892" y1="58" x2="893" y2="60" stroke="black" stroke-width="1" />
<line x1="893" y1="60" x2="894" y2="58" stroke="black" stroke-width="1" />
<rect x="884" y="56" width="8" height="5" style="fill:#f5b024;stroke:black;stroke-width:1;fill-opacity:1;stroke-opacity:0.3" />
<rect x="894" y="56" width="8" height="5" style="fill:#f5b024;stroke:black;stroke-width:1;fill-opacity:1;stroke-opacity:0.3" />
<line x1="895" y1="65" x2="896" y2="67" stroke="black" stroke-width="1" />
<line x1="896" y1="67" x2="897" y2="65" stroke="black" stroke-width="1" />
<rect x="887" y="63" width="8" height="5" style="fill:#f5b024;stroke:black;stroke-width:1;fill-opacity:1;stroke-opacity:0.3" />
<rect x="897" y="63" width="8" height="5" style="fill:#f5b024;stroke:black;stroke-width:1;fill-opacity:1;stroke-opacity:0.3" />
<line x1="896" y1="72" x2="897" y2="74" stroke="black" stroke-width="1" />
<line x1="897" y1="74" x2="898" y2="72" stroke="black" stroke-width="1" />
<rect x="887" y="70" width="8" height="5" style="fill:#f5b024;stroke:black;stroke-width:1;fill-opacity:1;stroke-opacity:0.3" />
<rect x="898" y="70" width="8" height="5" style="fill:#f5b024;stroke:black;stroke-width:1;fill-opacity:1;stroke-opacity:0.3" />
<line x1="899" y1="30" x2="901" y2="32" stroke="black" stroke-width="1" />
<line x1="901" y1="32" x2="904" y2="30" stroke="black" stroke-width="1" />
<rect x="891" y="28" width="8" height="5" style="fill:#f5b024;stroke:black;stroke-width:1;fill-opacity:1;stroke-opacity:0.3" />
<rect x="904" y="28" width="8" height="5" style="fill:#f5b024;stroke:black;stroke-width:1;fill-opacity:1;stroke-opacity:0.3" />
<line x1="900" y1="79" x2="900" y2="81" stroke="black" stroke-width="1" />
<line x1="900" y1="81" x2="901" y2="79" stroke="black" stroke-width="1" />
<rect x="891" y="77" width="8" height="5" style="fill:#f5b024;stroke:black;stroke-width:1;fill-opacity:1;stroke-opacity:0.3" />
<rect x="901" y="77" width="8" height="5" style="fill:#f5b024;stroke:black;stroke-width:1;fill-opacity:1;stroke-opacity:0.3" />
<line x1="918" y1="37" x2="921" y2="39" stroke="black" stroke-width="1" />
<line x1="921" y1="39" x2="925" y2="37" stroke="black" stroke-width="1" />
<rect x="910" y="35" width="8" height="5" style="fill:#5d3c2d;stroke:black;stroke-width:1;fill-opacity:1;stroke-opacity:0.3" />
<rect x="925" y="35" width="8" height="5" style="fill:#5d3c2d;stroke:black;stroke-width:1;fill-opacity:1;stroke-opacity:0.3" />
<line x1="920" y1="44" x2="920" y2="46" stroke="black" stroke-width="1" />
<line x1="920" y1="46" x2="921" y2="44" stroke="black" stroke-width="1" />
<rect x="911" y="42" width="8" height="5" style="fill:#f5b024;stroke:black;stroke-width:1;fill-opacity:1;stroke-opacity:0.3" />
<rect x="921" y="42" width="8" height="5" style="fill:#f5b024;stroke:black;stroke-width:1;fill-opacity:1;stroke-opacity:0.3" />
<line x1="920" y1="51" x2="922" y2="53" stroke="black" stroke-width="1" />
<line x1="922" y1="53" x2="925" y2="51" stroke="black" stroke-width="1" />
<rect x="911" y="49" width="8" height="5" style="fill:#f5b024;stroke:black;stroke-width:1;fill-opacity:1;stroke-opacity:0.3" />
<rect x="925" y="49" width="8" height="5" style="fill:#f5b024;stroke:black;stroke-width:1;fill-opacity:1;stroke-opacity:0.3" />
<line x1="921" y1="58" x2="921" y2="60" stroke="black" stroke-width="1" />
<line x1="921" y1="60" x2="922" y2="58" stroke="black" stroke-width="1" />
<rect x="912" y="56" width="8" height="5" style="fill:#f5b024;stroke:black;stroke-width:1;fill-opacity:1;stroke-opacity:0.3" />
<rect x="922" y="56" width="8" height="5" style="fill:#f5b024;stroke:black;stroke-width:1;fill-opacity:1;stroke-opacity:0.3" />
<line x1="922" y1="30" x2="923" y2="32" stroke="black" stroke-width="1" />
<line x1="923" y1="32" x2="925" y2="30" stroke="black" stroke-width="1" />
<rect x="913" y="28" width="8" height="5" style="fill:#f5b024;stroke:black;stroke-width:1;fill-opacity:1;stroke-opacity:0.3" />
<rect x="925" y="28" width="8" height="5" style="fill:#f5b024;stroke:black;stroke-width:1;fill-opacity:1;stroke-opacity:0.3" />
<line x1="929" y1="65" x2="929" y2="67" stroke="black" stroke-width="1" />
<line x1="929" y1="67" x2="930" y2="65" stroke="black" stroke-width="1" />
<rect x="920" y="63" width="8" height="5" style="fill:#f5b024;stroke:black;stroke-width:1;fill-opacity:1;stroke-opacity:0.3" />
<rect x="930" y="63" width="8" height="5" style="fill:#f5b024;stroke:black;stroke-width:1;fill-opacity:1;stroke-opacity:0.3" />
<line x1="939" y1="44" x2="939" y2="46" stroke="black" stroke-width="1" />
<line x1="939" y1="46" x2="940" y2="44" stroke="black" stroke-width="1" />
<rect x="931" y="42" width="8" height="5" style="fill:#f5b024;stroke:black;stroke-width:1;fill-opacity:1;stroke-opacity:0.3" />
<rect x="940" y="42" width="8" height="5" style="fill:#f5b024;stroke:black;stroke-width:1;fill-opacity:1;stroke-opacity:0.3" />
<line x1="949" y1="30" x2="950" y2="32" stroke="black" stroke-width="1" />
<line x1="950" y1="32" x2="951" y2="30" stroke="black" stroke-width="1" />
<rect x="937" y="28" width="12" height="5" style="fill:#f5b024;stroke:black;stroke-width:1;fill-opacity:1;stroke-opacity:0.3" />
<rect x="951" y="28" width="12" height="5" style="fill:#f5b024;stroke:black;stroke-width:1;fill-opacity:1;stroke-opacity:0.3" />
<line x1="950" y1="37" x2="950" y2="39" stroke="black" stroke-width="1" />
<line x1="950" y1="39" x2="951" y2="37" stroke="black" stroke-width="1" />
<rect x="941" y="35" width="8" height="5" style="fill:#f5b024;stroke:black;stroke-width:1;fill-opacity:1;stroke-opacity:0.3" />
<rect x="951" y="35" width="8" height="5" style="fill:#f5b024;stroke:black;stroke-width:1;fill-opacity:1;stroke-opacity:0.3" />
<line x1="954" y1="51" x2="955" y2="53" stroke="black" stroke-width="1" />
<line x1="955" y1="53" x2="957" y2="51" stroke="black" stroke-width="1" />
<rect x="941" y="49" width="12" height="5" style="fill:#f5b024;stroke:black;stroke-width:1;fill-opacity:1;stroke-opacity:0.3" />
<rect x="957" y="49" width="12" height="5" style="fill:#f5b024;stroke:black;stroke-width:1;fill-opacity:1;stroke-opacity:0.3" />
<line x1="955" y1="58" x2="957" y2="60" stroke="black" stroke-width="1" />
<line x1="957" y1="60" x2="959" y2="58" stroke="black" stroke-width="1" />
<rect x="947" y="56" width="8" height="5" style="fill:#f5b024;stroke:black;stroke-width:1;fill-opacity:1;stroke-opacity:0.3" />
<rect x="959" y="56" width="8" height="5" style="fill:#f5b024;stroke:black;stroke-width:1;fill-opacity:1;stroke-opacity:0.3" />
<line x1="970" y1="37" x2="972" y2="39" stroke="black" stroke-width="1" />
<line x1="972" y1="39" x2="974" y2="37" stroke="black" stroke-width="1" />
<rect x="961" y="35" width="8" height="5" style="fill:#f5b024;stroke:black;stroke-width:1;fill-opacity:1;stroke-opacity:0.3" />
<rect x="974" y="35" width="8" height="5" style="fill:#f5b024;stroke:black;stroke-width:1;fill-opacity:1;stroke-opacity:0.3" />
<line x1="979" y1="30" x2="981" y2="32" stroke="black" stroke-width="1" />
<line x1="981" y1="32" x2="984" y2="30" stroke="black" stroke-width="1" />
<rect x="970" y="28" width="8" height="5" style="fill:#f5b024;stroke:black;stroke-width:1;fill-opacity:1;stroke-opacity:0.3" />
<rect x="984" y="28" width="8" height="5" style="fill:#f5b024;stroke:black;stroke-width:1;fill-opacity:1;stroke-opacity:0.3" />
<text x="15"  y="176" style="font-family:Arial;font-size:10;stroke:black;fill:black;">all.merged.bam</text>
</svg>
    
