<?xml version="1.0" encoding="utf-8" standalone="no"?>
<!DOCTYPE svg PUBLIC "-//W3C//DTD SVG 1.1//EN"
  "http://www.w3.org/Graphics/SVG/1.1/DTD/svg11.dtd">
<svg height="1140" width="1000" version="1.1" viewBox="0 0 1000 1140" xmlns="http://www.w3.org/2000/svg" xmlns:xlink="http://www.w3.org/1999/xlink">
<line x1="104" y1="11" x2="894" y2="11" stroke="black" stroke-width="1" />
<rect x="104" y="9" width="524" height="5" style="fill:#f50002;stroke:black;stroke-width:1;fill-opacity:1;stroke-opacity:0.3" />
<rect x="629" y="9" width="202" height="5" style="fill:#53a1b5;stroke:black;stroke-width:1;fill-opacity:1;stroke-opacity:0.3" />
<rect x="833" y="9" width="61" height="5" style="fill:#f50002;stroke:black;stroke-width:1;fill-opacity:1;stroke-opacity:0.3" />
<text x="104"  y="23" style="font-family:Arial;font-size:10;stroke:black;fill:black;">Cre05.g232455.t1.1.v5.5 (-) chromosome_5:491164-491922</text>
<line x1="531" y1="30" x2="554" y2="32" stroke="black" stroke-width="1" />
<line x1="554" y1="32" x2="578" y2="30" stroke="black" stroke-width="1" />
<rect x="431" y="28" width="100" height="5" style="fill:#f5b024;stroke:black;stroke-width:1;fill-opacity:1;stroke-opacity:0.3" />
<rect x="578" y="28" width="104" height="5" style="fill:#f5b024;stroke:black;stroke-width:1;fill-opacity:1;stroke-opacity:0.3" />
<line x1="545" y1="37" x2="554" y2="39" stroke="black" stroke-width="1" />
<line x1="554" y1="39" x2="564" y2="37" stroke="black" stroke-width="1" />
<rect x="442" y="35" width="103" height="5" style="fill:#f5b024;stroke:black;stroke-width:1;fill-opacity:1;stroke-opacity:0.3" />
<rect x="564" y="35" width="104" height="5" style="fill:#f5b024;stroke:black;stroke-width:1;fill-opacity:1;stroke-opacity:0.3" />
<line x1="547" y1="44" x2="560" y2="46" stroke="black" stroke-width="1" />
<line x1="560" y1="46" x2="574" y2="44" stroke="black" stroke-width="1" />
<rect x="443" y="42" width="104" height="5" style="fill:#f5b024;stroke:black;stroke-width:1;fill-opacity:1;stroke-opacity:0.3" />
<rect x="574" y="42" width="104" height="5" style="fill:#f5b024;stroke:black;stroke-width:1;fill-opacity:1;stroke-opacity:0.3" />
<line x1="573" y1="51" x2="584" y2="53" stroke="black" stroke-width="1" />
<line x1="584" y1="53" x2="596" y2="51" stroke="black" stroke-width="1" />
<rect x="469" y="49" width="104" height="5" style="fill:#f5b024;stroke:black;stroke-width:1;fill-opacity:1;stroke-opacity:0.3" />
<rect x="596" y="49" width="104" height="5" style="fill:#f5b024;stroke:black;stroke-width:1;fill-opacity:1;stroke-opacity:0.3" />
<text x="15"  y="176" style="font-family:Arial;font-size:10;stroke:black;fill:black;">all.merged.bam</text>
</svg>
    
