<?xml version="1.0" encoding="utf-8" standalone="no"?>
<!DOCTYPE svg PUBLIC "-//W3C//DTD SVG 1.1//EN"
  "http://www.w3.org/Graphics/SVG/1.1/DTD/svg11.dtd">
<svg height="1140" width="1000" version="1.1" viewBox="0 0 1000 1140" xmlns="http://www.w3.org/2000/svg" xmlns:xlink="http://www.w3.org/1999/xlink">
<line x1="68" y1="11" x2="931" y2="11" stroke="black" stroke-width="1" />
<rect x="68" y="9" width="684" height="5" style="fill:#f50002;stroke:black;stroke-width:1;fill-opacity:1;stroke-opacity:0.3" />
<rect x="753" y="9" width="142" height="5" style="fill:#53a1b5;stroke:black;stroke-width:1;fill-opacity:1;stroke-opacity:0.3" />
<rect x="896" y="9" width="34" height="5" style="fill:#f50002;stroke:black;stroke-width:1;fill-opacity:1;stroke-opacity:0.3" />
<text x="68"  y="23" style="font-family:Arial;font-size:10;stroke:black;fill:black;">Cre08.g358126.t1.1.v5.5 (-) chromosome_8:4180-5445</text>
<line x1="673" y1="30" x2="689" y2="32" stroke="black" stroke-width="1" />
<line x1="689" y1="32" x2="706" y2="30" stroke="black" stroke-width="1" />
<rect x="578" y="28" width="94" height="5" style="fill:#f5b024;stroke:black;stroke-width:1;fill-opacity:1;stroke-opacity:0.3" />
<rect x="706" y="28" width="102" height="5" style="fill:#f5b024;stroke:black;stroke-width:1;fill-opacity:1;stroke-opacity:0.3" />
<line x1="725" y1="37" x2="730" y2="39" stroke="black" stroke-width="1" />
<line x1="730" y1="39" x2="736" y2="37" stroke="black" stroke-width="1" />
<rect x="656" y="35" width="68" height="5" style="fill:#f5b024;stroke:black;stroke-width:1;fill-opacity:1;stroke-opacity:0.3" />
<rect x="736" y="35" width="68" height="5" style="fill:#f5b024;stroke:black;stroke-width:1;fill-opacity:1;stroke-opacity:0.3" />
<line x1="796" y1="44" x2="800" y2="46" stroke="black" stroke-width="1" />
<line x1="800" y1="46" x2="805" y2="44" stroke="black" stroke-width="1" />
<rect x="728" y="42" width="68" height="5" style="fill:#f5b024;stroke:black;stroke-width:1;fill-opacity:1;stroke-opacity:0.3" />
<rect x="805" y="42" width="68" height="5" style="fill:#f5b024;stroke:black;stroke-width:1;fill-opacity:1;stroke-opacity:0.3" />
<text x="15"  y="176" style="font-family:Arial;font-size:10;stroke:black;fill:black;">all.merged.bam</text>
</svg>
    
