<?xml version="1.0" encoding="utf-8" standalone="no"?>
<!DOCTYPE svg PUBLIC "-//W3C//DTD SVG 1.1//EN"
  "http://www.w3.org/Graphics/SVG/1.1/DTD/svg11.dtd">
<svg height="1140" width="1000" version="1.1" viewBox="0 0 1000 1140" xmlns="http://www.w3.org/2000/svg" xmlns:xlink="http://www.w3.org/1999/xlink">
<line x1="27" y1="11" x2="972" y2="11" stroke="black" stroke-width="1" />
<rect x="27" y="9" width="74" height="5" style="fill:#f50002;stroke:black;stroke-width:1;fill-opacity:1;stroke-opacity:0.3" />
<rect x="102" y="9" width="43" height="5" style="fill:#53a1b5;stroke:black;stroke-width:1;fill-opacity:1;stroke-opacity:0.3" />
<rect x="192" y="9" width="14" height="5" style="fill:#53a1b5;stroke:black;stroke-width:1;fill-opacity:1;stroke-opacity:0.3" />
<rect x="238" y="9" width="618" height="5" style="fill:#53a1b5;stroke:black;stroke-width:1;fill-opacity:1;stroke-opacity:0.3" />
<rect x="904" y="9" width="52" height="5" style="fill:#53a1b5;stroke:black;stroke-width:1;fill-opacity:1;stroke-opacity:0.3" />
<rect x="957" y="9" width="14" height="5" style="fill:#f50002;stroke:black;stroke-width:1;fill-opacity:1;stroke-opacity:0.3" />
<text x="27"  y="23" style="font-family:Arial;font-size:10;stroke:black;fill:black;">Cre01.g039000.t1.1.v5.5 (-) chromosome_1:5514869-5518295</text>
<line x1="207" y1="30" x2="224" y2="32" stroke="black" stroke-width="1" />
<line x1="224" y1="32" x2="241" y2="30" stroke="black" stroke-width="1" />
<rect x="134" y="28" width="11" height="5" style="fill:#f5b024;stroke:black;stroke-width:1;fill-opacity:1;stroke-opacity:0.3" />
<line x1="145" y1="30" x2="192" y2="30" stroke="pink" stroke-width="1" />
<rect x="192" y="28" width="15" height="5" style="fill:#f5b024;stroke:black;stroke-width:1;fill-opacity:1;stroke-opacity:0.3" />
<rect x="241" y="28" width="27" height="5" style="fill:#f5b024;stroke:black;stroke-width:1;fill-opacity:1;stroke-opacity:0.3" />
<line x1="301" y1="37" x2="308" y2="39" stroke="black" stroke-width="1" />
<line x1="308" y1="39" x2="315" y2="37" stroke="black" stroke-width="1" />
<rect x="217" y="35" width="1" height="5" style="fill:#5d3c2d;stroke:black;stroke-width:1;fill-opacity:1;stroke-opacity:0.3" />
<line x1="219" y1="37" x2="275" y2="37" stroke="pink" stroke-width="1" />
<rect x="275" y="35" width="25" height="5" style="fill:#5d3c2d;stroke:black;stroke-width:1;fill-opacity:1;stroke-opacity:0.3" />
<rect x="315" y="35" width="27" height="5" style="fill:#5d3c2d;stroke:black;stroke-width:1;fill-opacity:1;stroke-opacity:0.3" />
<line x1="328" y1="30" x2="333" y2="32" stroke="black" stroke-width="1" />
<line x1="333" y1="32" x2="338" y2="30" stroke="black" stroke-width="1" />
<rect x="287" y="28" width="41" height="5" style="fill:#5d3c2d;stroke:black;stroke-width:1;fill-opacity:1;stroke-opacity:0.3" />
<rect x="338" y="28" width="39" height="5" style="fill:#5d3c2d;stroke:black;stroke-width:1;fill-opacity:1;stroke-opacity:0.3" />
<line x1="323" y1="44" x2="325" y2="46" stroke="black" stroke-width="1" />
<line x1="325" y1="46" x2="328" y2="44" stroke="black" stroke-width="1" />
<rect x="296" y="42" width="27" height="5" style="fill:#5d3c2d;stroke:black;stroke-width:1;fill-opacity:1;stroke-opacity:0.3" />
<rect x="328" y="42" width="27" height="5" style="fill:#5d3c2d;stroke:black;stroke-width:1;fill-opacity:1;stroke-opacity:0.3" />
<line x1="326" y1="51" x2="328" y2="53" stroke="black" stroke-width="1" />
<line x1="328" y1="53" x2="330" y2="51" stroke="black" stroke-width="1" />
<rect x="299" y="49" width="27" height="5" style="fill:#5d3c2d;stroke:black;stroke-width:1;fill-opacity:1;stroke-opacity:0.3" />
<rect x="330" y="49" width="27" height="5" style="fill:#5d3c2d;stroke:black;stroke-width:1;fill-opacity:1;stroke-opacity:0.3" />
<line x1="352" y1="58" x2="354" y2="60" stroke="black" stroke-width="1" />
<line x1="354" y1="60" x2="357" y2="58" stroke="black" stroke-width="1" />
<rect x="311" y="56" width="41" height="5" style="fill:#5d3c2d;stroke:black;stroke-width:1;fill-opacity:1;stroke-opacity:0.3" />
<rect x="357" y="56" width="41" height="5" style="fill:#5d3c2d;stroke:black;stroke-width:1;fill-opacity:1;stroke-opacity:0.3" />
<line x1="363" y1="65" x2="368" y2="67" stroke="black" stroke-width="1" />
<line x1="368" y1="67" x2="374" y2="65" stroke="black" stroke-width="1" />
<rect x="338" y="63" width="25" height="5" style="fill:#5d3c2d;stroke:black;stroke-width:1;fill-opacity:1;stroke-opacity:0.3" />
<rect x="374" y="63" width="27" height="5" style="fill:#5d3c2d;stroke:black;stroke-width:1;fill-opacity:1;stroke-opacity:0.3" />
<line x1="382" y1="37" x2="387" y2="39" stroke="black" stroke-width="1" />
<line x1="387" y1="39" x2="393" y2="37" stroke="black" stroke-width="1" />
<rect x="354" y="35" width="27" height="5" style="fill:#5d3c2d;stroke:black;stroke-width:1;fill-opacity:1;stroke-opacity:0.3" />
<rect x="393" y="35" width="27" height="5" style="fill:#5d3c2d;stroke:black;stroke-width:1;fill-opacity:1;stroke-opacity:0.3" />
<line x1="397" y1="44" x2="400" y2="46" stroke="black" stroke-width="1" />
<line x1="400" y1="46" x2="403" y2="44" stroke="black" stroke-width="1" />
<rect x="369" y="42" width="27" height="5" style="fill:#5d3c2d;stroke:black;stroke-width:1;fill-opacity:1;stroke-opacity:0.3" />
<rect x="403" y="42" width="27" height="5" style="fill:#5d3c2d;stroke:black;stroke-width:1;fill-opacity:1;stroke-opacity:0.3" />
<line x1="397" y1="51" x2="398" y2="53" stroke="black" stroke-width="1" />
<line x1="398" y1="53" x2="400" y2="51" stroke="black" stroke-width="1" />
<rect x="369" y="49" width="27" height="5" style="fill:#5d3c2d;stroke:black;stroke-width:1;fill-opacity:1;stroke-opacity:0.3" />
<rect x="400" y="49" width="27" height="5" style="fill:#5d3c2d;stroke:black;stroke-width:1;fill-opacity:1;stroke-opacity:0.3" />
<line x1="402" y1="72" x2="407" y2="74" stroke="black" stroke-width="1" />
<line x1="407" y1="74" x2="413" y2="72" stroke="black" stroke-width="1" />
<rect x="374" y="70" width="27" height="5" style="fill:#5d3c2d;stroke:black;stroke-width:1;fill-opacity:1;stroke-opacity:0.3" />
<rect x="413" y="70" width="27" height="5" style="fill:#5d3c2d;stroke:black;stroke-width:1;fill-opacity:1;stroke-opacity:0.3" />
<line x1="402" y1="79" x2="405" y2="81" stroke="black" stroke-width="1" />
<line x1="405" y1="81" x2="409" y2="79" stroke="black" stroke-width="1" />
<rect x="375" y="77" width="27" height="5" style="fill:#5d3c2d;stroke:black;stroke-width:1;fill-opacity:1;stroke-opacity:0.3" />
<rect x="409" y="77" width="27" height="5" style="fill:#5d3c2d;stroke:black;stroke-width:1;fill-opacity:1;stroke-opacity:0.3" />
<line x1="444" y1="30" x2="462" y2="32" stroke="black" stroke-width="1" />
<line x1="462" y1="32" x2="480" y2="30" stroke="black" stroke-width="1" />
<rect x="417" y="28" width="27" height="5" style="fill:#5d3c2d;stroke:black;stroke-width:1;fill-opacity:1;stroke-opacity:0.3" />
<rect x="480" y="28" width="27" height="5" style="fill:#5d3c2d;stroke:black;stroke-width:1;fill-opacity:1;stroke-opacity:0.3" />
<line x1="444" y1="58" x2="462" y2="60" stroke="black" stroke-width="1" />
<line x1="462" y1="60" x2="480" y2="58" stroke="black" stroke-width="1" />
<rect x="417" y="56" width="27" height="5" style="fill:#5d3c2d;stroke:black;stroke-width:1;fill-opacity:1;stroke-opacity:0.3" />
<rect x="480" y="56" width="27" height="5" style="fill:#5d3c2d;stroke:black;stroke-width:1;fill-opacity:1;stroke-opacity:0.3" />
<line x1="457" y1="37" x2="460" y2="39" stroke="black" stroke-width="1" />
<line x1="460" y1="39" x2="463" y2="37" stroke="black" stroke-width="1" />
<rect x="430" y="35" width="27" height="5" style="fill:#5d3c2d;stroke:black;stroke-width:1;fill-opacity:1;stroke-opacity:0.3" />
<rect x="463" y="35" width="27" height="5" style="fill:#5d3c2d;stroke:black;stroke-width:1;fill-opacity:1;stroke-opacity:0.3" />
<line x1="470" y1="44" x2="472" y2="46" stroke="black" stroke-width="1" />
<line x1="472" y1="46" x2="474" y2="44" stroke="black" stroke-width="1" />
<rect x="442" y="42" width="27" height="5" style="fill:#5d3c2d;stroke:black;stroke-width:1;fill-opacity:1;stroke-opacity:0.3" />
<rect x="474" y="42" width="24" height="5" style="fill:#5d3c2d;stroke:black;stroke-width:1;fill-opacity:1;stroke-opacity:0.3" />
<line x1="482" y1="51" x2="487" y2="53" stroke="black" stroke-width="1" />
<line x1="487" y1="53" x2="492" y2="51" stroke="black" stroke-width="1" />
<rect x="454" y="49" width="27" height="5" style="fill:#5d3c2d;stroke:black;stroke-width:1;fill-opacity:1;stroke-opacity:0.3" />
<rect x="492" y="49" width="27" height="5" style="fill:#5d3c2d;stroke:black;stroke-width:1;fill-opacity:1;stroke-opacity:0.3" />
<line x1="491" y1="65" x2="494" y2="67" stroke="black" stroke-width="1" />
<line x1="494" y1="67" x2="497" y2="65" stroke="black" stroke-width="1" />
<rect x="464" y="63" width="27" height="5" style="fill:#5d3c2d;stroke:black;stroke-width:1;fill-opacity:1;stroke-opacity:0.3" />
<rect x="497" y="63" width="27" height="5" style="fill:#5d3c2d;stroke:black;stroke-width:1;fill-opacity:1;stroke-opacity:0.3" />
<line x1="498" y1="72" x2="500" y2="74" stroke="black" stroke-width="1" />
<line x1="500" y1="74" x2="503" y2="72" stroke="black" stroke-width="1" />
<rect x="470" y="70" width="27" height="5" style="fill:#5d3c2d;stroke:black;stroke-width:1;fill-opacity:1;stroke-opacity:0.3" />
<rect x="503" y="70" width="27" height="5" style="fill:#5d3c2d;stroke:black;stroke-width:1;fill-opacity:1;stroke-opacity:0.3" />
<line x1="530" y1="37" x2="532" y2="39" stroke="black" stroke-width="1" />
<line x1="532" y1="39" x2="534" y2="37" stroke="black" stroke-width="1" />
<rect x="502" y="35" width="27" height="5" style="fill:#5d3c2d;stroke:black;stroke-width:1;fill-opacity:1;stroke-opacity:0.3" />
<rect x="534" y="35" width="27" height="5" style="fill:#5d3c2d;stroke:black;stroke-width:1;fill-opacity:1;stroke-opacity:0.3" />
<line x1="535" y1="30" x2="541" y2="32" stroke="black" stroke-width="1" />
<line x1="541" y1="32" x2="547" y2="30" stroke="black" stroke-width="1" />
<rect x="508" y="28" width="27" height="5" style="fill:#5d3c2d;stroke:black;stroke-width:1;fill-opacity:1;stroke-opacity:0.3" />
<rect x="547" y="28" width="27" height="5" style="fill:#5d3c2d;stroke:black;stroke-width:1;fill-opacity:1;stroke-opacity:0.3" />
<line x1="559" y1="44" x2="568" y2="46" stroke="black" stroke-width="1" />
<line x1="568" y1="46" x2="577" y2="44" stroke="black" stroke-width="1" />
<rect x="532" y="42" width="27" height="5" style="fill:#5d3c2d;stroke:black;stroke-width:1;fill-opacity:1;stroke-opacity:0.3" />
<rect x="577" y="42" width="27" height="5" style="fill:#5d3c2d;stroke:black;stroke-width:1;fill-opacity:1;stroke-opacity:0.3" />
<line x1="580" y1="51" x2="582" y2="53" stroke="black" stroke-width="1" />
<line x1="582" y1="53" x2="585" y2="51" stroke="black" stroke-width="1" />
<rect x="539" y="49" width="41" height="5" style="fill:#5d3c2d;stroke:black;stroke-width:1;fill-opacity:1;stroke-opacity:0.3" />
<rect x="585" y="49" width="41" height="5" style="fill:#5d3c2d;stroke:black;stroke-width:1;fill-opacity:1;stroke-opacity:0.3" />
<line x1="568" y1="58" x2="576" y2="60" stroke="black" stroke-width="1" />
<line x1="576" y1="60" x2="585" y2="58" stroke="black" stroke-width="1" />
<rect x="541" y="56" width="27" height="5" style="fill:#5d3c2d;stroke:black;stroke-width:1;fill-opacity:1;stroke-opacity:0.3" />
<rect x="585" y="56" width="14" height="5" style="fill:#5d3c2d;stroke:black;stroke-width:1;fill-opacity:1;stroke-opacity:0.3" />
<rect x="599" y="56" width="12" height="5" style="fill:#5d3c2d;stroke:black;stroke-width:1;fill-opacity:1;stroke-opacity:0.3" />
<line x1="568" y1="65" x2="576" y2="67" stroke="black" stroke-width="1" />
<line x1="576" y1="67" x2="585" y2="65" stroke="black" stroke-width="1" />
<rect x="541" y="63" width="27" height="5" style="fill:#5d3c2d;stroke:black;stroke-width:1;fill-opacity:1;stroke-opacity:0.3" />
<rect x="585" y="63" width="27" height="5" style="fill:#5d3c2d;stroke:black;stroke-width:1;fill-opacity:1;stroke-opacity:0.3" />
<line x1="585" y1="72" x2="592" y2="74" stroke="black" stroke-width="1" />
<line x1="592" y1="74" x2="600" y2="72" stroke="black" stroke-width="1" />
<rect x="544" y="70" width="41" height="5" style="fill:#5d3c2d;stroke:black;stroke-width:1;fill-opacity:1;stroke-opacity:0.3" />
<rect x="600" y="70" width="41" height="5" style="fill:#5d3c2d;stroke:black;stroke-width:1;fill-opacity:1;stroke-opacity:0.3" />
<line x1="572" y1="79" x2="578" y2="81" stroke="black" stroke-width="1" />
<line x1="578" y1="81" x2="584" y2="79" stroke="black" stroke-width="1" />
<rect x="544" y="77" width="27" height="5" style="fill:#5d3c2d;stroke:black;stroke-width:1;fill-opacity:1;stroke-opacity:0.3" />
<rect x="584" y="77" width="27" height="5" style="fill:#5d3c2d;stroke:black;stroke-width:1;fill-opacity:1;stroke-opacity:0.3" />
<line x1="572" y1="86" x2="576" y2="88" stroke="black" stroke-width="1" />
<line x1="576" y1="88" x2="580" y2="86" stroke="black" stroke-width="1" />
<rect x="545" y="84" width="27" height="5" style="fill:#5d3c2d;stroke:black;stroke-width:1;fill-opacity:1;stroke-opacity:0.3" />
<rect x="580" y="84" width="27" height="5" style="fill:#5d3c2d;stroke:black;stroke-width:1;fill-opacity:1;stroke-opacity:0.3" />
<line x1="578" y1="93" x2="579" y2="95" stroke="black" stroke-width="1" />
<line x1="579" y1="95" x2="581" y2="93" stroke="black" stroke-width="1" />
<rect x="550" y="91" width="27" height="5" style="fill:#5d3c2d;stroke:black;stroke-width:1;fill-opacity:1;stroke-opacity:0.3" />
<rect x="581" y="91" width="27" height="5" style="fill:#5d3c2d;stroke:black;stroke-width:1;fill-opacity:1;stroke-opacity:0.3" />
<line x1="595" y1="100" x2="597" y2="102" stroke="black" stroke-width="1" />
<line x1="597" y1="102" x2="600" y2="100" stroke="black" stroke-width="1" />
<rect x="554" y="98" width="41" height="5" style="fill:#f5b024;stroke:black;stroke-width:1;fill-opacity:1;stroke-opacity:0.3" />
<rect x="600" y="98" width="41" height="5" style="fill:#f5b024;stroke:black;stroke-width:1;fill-opacity:1;stroke-opacity:0.3" />
<line x1="584" y1="107" x2="586" y2="109" stroke="black" stroke-width="1" />
<line x1="586" y1="109" x2="588" y2="107" stroke="black" stroke-width="1" />
<rect x="556" y="105" width="27" height="5" style="fill:#5d3c2d;stroke:black;stroke-width:1;fill-opacity:1;stroke-opacity:0.3" />
<rect x="588" y="105" width="27" height="5" style="fill:#5d3c2d;stroke:black;stroke-width:1;fill-opacity:1;stroke-opacity:0.3" />
<line x1="584" y1="114" x2="586" y2="116" stroke="black" stroke-width="1" />
<line x1="586" y1="116" x2="588" y2="114" stroke="black" stroke-width="1" />
<rect x="556" y="112" width="27" height="5" style="fill:#5d3c2d;stroke:black;stroke-width:1;fill-opacity:1;stroke-opacity:0.3" />
<rect x="588" y="112" width="27" height="5" style="fill:#5d3c2d;stroke:black;stroke-width:1;fill-opacity:1;stroke-opacity:0.3" />
<line x1="590" y1="37" x2="591" y2="39" stroke="black" stroke-width="1" />
<line x1="591" y1="39" x2="593" y2="37" stroke="black" stroke-width="1" />
<rect x="562" y="35" width="27" height="5" style="fill:#5d3c2d;stroke:black;stroke-width:1;fill-opacity:1;stroke-opacity:0.3" />
<rect x="593" y="35" width="27" height="5" style="fill:#5d3c2d;stroke:black;stroke-width:1;fill-opacity:1;stroke-opacity:0.3" />
<line x1="590" y1="121" x2="600" y2="123" stroke="black" stroke-width="1" />
<line x1="600" y1="123" x2="611" y2="121" stroke="black" stroke-width="1" />
<rect x="563" y="119" width="27" height="5" style="fill:#5d3c2d;stroke:black;stroke-width:1;fill-opacity:1;stroke-opacity:0.3" />
<rect x="611" y="119" width="27" height="5" style="fill:#5d3c2d;stroke:black;stroke-width:1;fill-opacity:1;stroke-opacity:0.3" />
<line x1="623" y1="30" x2="633" y2="32" stroke="black" stroke-width="1" />
<line x1="633" y1="32" x2="644" y2="30" stroke="black" stroke-width="1" />
<rect x="595" y="28" width="27" height="5" style="fill:#5d3c2d;stroke:black;stroke-width:1;fill-opacity:1;stroke-opacity:0.3" />
<rect x="644" y="28" width="27" height="5" style="fill:#5d3c2d;stroke:black;stroke-width:1;fill-opacity:1;stroke-opacity:0.3" />
<line x1="628" y1="128" x2="635" y2="130" stroke="black" stroke-width="1" />
<line x1="635" y1="130" x2="643" y2="128" stroke="black" stroke-width="1" />
<rect x="601" y="126" width="27" height="5" style="fill:#f5b024;stroke:black;stroke-width:1;fill-opacity:1;stroke-opacity:0.3" />
<rect x="643" y="126" width="27" height="5" style="fill:#f5b024;stroke:black;stroke-width:1;fill-opacity:1;stroke-opacity:0.3" />
<line x1="629" y1="135" x2="636" y2="137" stroke="black" stroke-width="1" />
<line x1="636" y1="137" x2="643" y2="135" stroke="black" stroke-width="1" />
<rect x="601" y="133" width="27" height="5" style="fill:#5d3c2d;stroke:black;stroke-width:1;fill-opacity:1;stroke-opacity:0.3" />
<rect x="643" y="133" width="27" height="5" style="fill:#5d3c2d;stroke:black;stroke-width:1;fill-opacity:1;stroke-opacity:0.3" />
<line x1="682" y1="37" x2="685" y2="39" stroke="black" stroke-width="1" />
<line x1="685" y1="39" x2="689" y2="37" stroke="black" stroke-width="1" />
<rect x="654" y="35" width="27" height="5" style="fill:#5d3c2d;stroke:black;stroke-width:1;fill-opacity:1;stroke-opacity:0.3" />
<rect x="689" y="35" width="27" height="5" style="fill:#5d3c2d;stroke:black;stroke-width:1;fill-opacity:1;stroke-opacity:0.3" />
<line x1="700" y1="30" x2="709" y2="32" stroke="black" stroke-width="1" />
<line x1="709" y1="32" x2="718" y2="30" stroke="black" stroke-width="1" />
<rect x="673" y="28" width="27" height="5" style="fill:#5d3c2d;stroke:black;stroke-width:1;fill-opacity:1;stroke-opacity:0.3" />
<rect x="718" y="28" width="27" height="5" style="fill:#5d3c2d;stroke:black;stroke-width:1;fill-opacity:1;stroke-opacity:0.3" />
<line x1="718" y1="44" x2="732" y2="46" stroke="black" stroke-width="1" />
<line x1="732" y1="46" x2="747" y2="44" stroke="black" stroke-width="1" />
<rect x="677" y="42" width="41" height="5" style="fill:#5d3c2d;stroke:black;stroke-width:1;fill-opacity:1;stroke-opacity:0.3" />
<rect x="747" y="42" width="37" height="5" style="fill:#5d3c2d;stroke:black;stroke-width:1;fill-opacity:1;stroke-opacity:0.3" />
<line x1="706" y1="51" x2="714" y2="53" stroke="black" stroke-width="1" />
<line x1="714" y1="53" x2="722" y2="51" stroke="black" stroke-width="1" />
<rect x="679" y="49" width="27" height="5" style="fill:#5d3c2d;stroke:black;stroke-width:1;fill-opacity:1;stroke-opacity:0.3" />
<rect x="722" y="49" width="27" height="5" style="fill:#5d3c2d;stroke:black;stroke-width:1;fill-opacity:1;stroke-opacity:0.3" />
<line x1="706" y1="58" x2="714" y2="60" stroke="black" stroke-width="1" />
<line x1="714" y1="60" x2="722" y2="58" stroke="black" stroke-width="1" />
<rect x="679" y="56" width="27" height="5" style="fill:#5d3c2d;stroke:black;stroke-width:1;fill-opacity:1;stroke-opacity:0.3" />
<rect x="722" y="56" width="27" height="5" style="fill:#5d3c2d;stroke:black;stroke-width:1;fill-opacity:1;stroke-opacity:0.3" />
<line x1="715" y1="65" x2="716" y2="67" stroke="black" stroke-width="1" />
<line x1="716" y1="67" x2="718" y2="65" stroke="black" stroke-width="1" />
<rect x="687" y="63" width="27" height="5" style="fill:#5d3c2d;stroke:black;stroke-width:1;fill-opacity:1;stroke-opacity:0.3" />
<rect x="718" y="63" width="27" height="5" style="fill:#5d3c2d;stroke:black;stroke-width:1;fill-opacity:1;stroke-opacity:0.3" />
<line x1="727" y1="72" x2="732" y2="74" stroke="black" stroke-width="1" />
<line x1="732" y1="74" x2="737" y2="72" stroke="black" stroke-width="1" />
<rect x="700" y="70" width="27" height="5" style="fill:#5d3c2d;stroke:black;stroke-width:1;fill-opacity:1;stroke-opacity:0.3" />
<rect x="737" y="70" width="27" height="5" style="fill:#5d3c2d;stroke:black;stroke-width:1;fill-opacity:1;stroke-opacity:0.3" />
<line x1="741" y1="79" x2="751" y2="81" stroke="black" stroke-width="1" />
<line x1="751" y1="81" x2="762" y2="79" stroke="black" stroke-width="1" />
<rect x="713" y="77" width="27" height="5" style="fill:#5d3c2d;stroke:black;stroke-width:1;fill-opacity:1;stroke-opacity:0.3" />
<rect x="762" y="77" width="27" height="5" style="fill:#5d3c2d;stroke:black;stroke-width:1;fill-opacity:1;stroke-opacity:0.3" />
<line x1="755" y1="37" x2="756" y2="39" stroke="black" stroke-width="1" />
<line x1="756" y1="39" x2="758" y2="37" stroke="black" stroke-width="1" />
<rect x="728" y="35" width="27" height="5" style="fill:#5d3c2d;stroke:black;stroke-width:1;fill-opacity:1;stroke-opacity:0.3" />
<rect x="758" y="35" width="27" height="5" style="fill:#5d3c2d;stroke:black;stroke-width:1;fill-opacity:1;stroke-opacity:0.3" />
<line x1="759" y1="86" x2="761" y2="88" stroke="black" stroke-width="1" />
<line x1="761" y1="88" x2="764" y2="86" stroke="black" stroke-width="1" />
<rect x="732" y="84" width="27" height="5" style="fill:#5d3c2d;stroke:black;stroke-width:1;fill-opacity:1;stroke-opacity:0.3" />
<rect x="764" y="84" width="27" height="5" style="fill:#5d3c2d;stroke:black;stroke-width:1;fill-opacity:1;stroke-opacity:0.3" />
<line x1="760" y1="93" x2="762" y2="95" stroke="black" stroke-width="1" />
<line x1="762" y1="95" x2="764" y2="93" stroke="black" stroke-width="1" />
<rect x="732" y="91" width="27" height="5" style="fill:#5d3c2d;stroke:black;stroke-width:1;fill-opacity:1;stroke-opacity:0.3" />
<rect x="764" y="91" width="27" height="5" style="fill:#5d3c2d;stroke:black;stroke-width:1;fill-opacity:1;stroke-opacity:0.3" />
<line x1="775" y1="30" x2="781" y2="32" stroke="black" stroke-width="1" />
<line x1="781" y1="32" x2="787" y2="30" stroke="black" stroke-width="1" />
<rect x="748" y="28" width="27" height="5" style="fill:#5d3c2d;stroke:black;stroke-width:1;fill-opacity:1;stroke-opacity:0.3" />
<rect x="787" y="28" width="27" height="5" style="fill:#5d3c2d;stroke:black;stroke-width:1;fill-opacity:1;stroke-opacity:0.3" />
<line x1="801" y1="51" x2="812" y2="53" stroke="black" stroke-width="1" />
<line x1="812" y1="53" x2="824" y2="51" stroke="black" stroke-width="1" />
<rect x="773" y="49" width="27" height="5" style="fill:#5d3c2d;stroke:black;stroke-width:1;fill-opacity:1;stroke-opacity:0.3" />
<rect x="824" y="49" width="27" height="5" style="fill:#5d3c2d;stroke:black;stroke-width:1;fill-opacity:1;stroke-opacity:0.3" />
<line x1="832" y1="37" x2="839" y2="39" stroke="black" stroke-width="1" />
<line x1="839" y1="39" x2="846" y2="37" stroke="black" stroke-width="1" />
<rect x="805" y="35" width="27" height="5" style="fill:#5d3c2d;stroke:black;stroke-width:1;fill-opacity:1;stroke-opacity:0.3" />
<rect x="846" y="35" width="27" height="5" style="fill:#5d3c2d;stroke:black;stroke-width:1;fill-opacity:1;stroke-opacity:0.3" />
<line x1="832" y1="44" x2="839" y2="46" stroke="black" stroke-width="1" />
<line x1="839" y1="46" x2="846" y2="44" stroke="black" stroke-width="1" />
<rect x="805" y="42" width="27" height="5" style="fill:#5d3c2d;stroke:black;stroke-width:1;fill-opacity:1;stroke-opacity:0.3" />
<rect x="846" y="42" width="27" height="5" style="fill:#5d3c2d;stroke:black;stroke-width:1;fill-opacity:1;stroke-opacity:0.3" />
<line x1="835" y1="58" x2="837" y2="60" stroke="black" stroke-width="1" />
<line x1="837" y1="60" x2="839" y2="58" stroke="black" stroke-width="1" />
<rect x="807" y="56" width="27" height="5" style="fill:#5d3c2d;stroke:black;stroke-width:1;fill-opacity:1;stroke-opacity:0.3" />
<rect x="839" y="56" width="27" height="5" style="fill:#5d3c2d;stroke:black;stroke-width:1;fill-opacity:1;stroke-opacity:0.3" />
<line x1="840" y1="65" x2="846" y2="67" stroke="black" stroke-width="1" />
<line x1="846" y1="67" x2="852" y2="65" stroke="black" stroke-width="1" />
<rect x="812" y="63" width="27" height="5" style="fill:#5d3c2d;stroke:black;stroke-width:1;fill-opacity:1;stroke-opacity:0.3" />
<rect x="852" y="63" width="27" height="5" style="fill:#5d3c2d;stroke:black;stroke-width:1;fill-opacity:1;stroke-opacity:0.3" />
<line x1="859" y1="30" x2="867" y2="32" stroke="black" stroke-width="1" />
<line x1="867" y1="32" x2="876" y2="30" stroke="black" stroke-width="1" />
<rect x="834" y="28" width="25" height="5" style="fill:#5d3c2d;stroke:black;stroke-width:1;fill-opacity:1;stroke-opacity:0.3" />
<rect x="876" y="28" width="27" height="5" style="fill:#5d3c2d;stroke:black;stroke-width:1;fill-opacity:1;stroke-opacity:0.3" />
<line x1="863" y1="72" x2="867" y2="74" stroke="black" stroke-width="1" />
<line x1="867" y1="74" x2="872" y2="72" stroke="black" stroke-width="1" />
<rect x="835" y="70" width="27" height="5" style="fill:#5d3c2d;stroke:black;stroke-width:1;fill-opacity:1;stroke-opacity:0.3" />
<rect x="872" y="70" width="27" height="5" style="fill:#5d3c2d;stroke:black;stroke-width:1;fill-opacity:1;stroke-opacity:0.3" />
<line x1="879" y1="79" x2="882" y2="81" stroke="black" stroke-width="1" />
<line x1="882" y1="81" x2="886" y2="79" stroke="black" stroke-width="1" />
<rect x="851" y="77" width="27" height="5" style="fill:#5d3c2d;stroke:black;stroke-width:1;fill-opacity:1;stroke-opacity:0.3" />
<rect x="886" y="77" width="27" height="5" style="fill:#5d3c2d;stroke:black;stroke-width:1;fill-opacity:1;stroke-opacity:0.3" />
<line x1="886" y1="51" x2="891" y2="53" stroke="black" stroke-width="1" />
<line x1="891" y1="53" x2="897" y2="51" stroke="black" stroke-width="1" />
<rect x="859" y="49" width="27" height="5" style="fill:#5d3c2d;stroke:black;stroke-width:1;fill-opacity:1;stroke-opacity:0.3" />
<rect x="897" y="49" width="27" height="5" style="fill:#5d3c2d;stroke:black;stroke-width:1;fill-opacity:1;stroke-opacity:0.3" />
<line x1="911" y1="37" x2="913" y2="39" stroke="black" stroke-width="1" />
<line x1="913" y1="39" x2="915" y2="37" stroke="black" stroke-width="1" />
<rect x="883" y="35" width="27" height="5" style="fill:#5d3c2d;stroke:black;stroke-width:1;fill-opacity:1;stroke-opacity:0.3" />
<rect x="915" y="35" width="27" height="5" style="fill:#5d3c2d;stroke:black;stroke-width:1;fill-opacity:1;stroke-opacity:0.3" />
<line x1="925" y1="44" x2="938" y2="46" stroke="black" stroke-width="1" />
<line x1="938" y1="46" x2="951" y2="44" stroke="black" stroke-width="1" />
<rect x="884" y="42" width="17" height="5" style="fill:#5d3c2d;stroke:black;stroke-width:1;fill-opacity:1;stroke-opacity:0.3" />
<rect x="901" y="42" width="23" height="5" style="fill:#5d3c2d;stroke:black;stroke-width:1;fill-opacity:1;stroke-opacity:0.3" />
<rect x="951" y="42" width="31" height="5" style="fill:#5d3c2d;stroke:black;stroke-width:1;fill-opacity:1;stroke-opacity:0.3" />
<line x1="983" y1="44" x2="1012" y2="44" stroke="pink" stroke-width="1" />
<rect x="1012" y="42" width="9" height="5" style="fill:#5d3c2d;stroke:black;stroke-width:1;fill-opacity:1;stroke-opacity:0.3" />
<line x1="912" y1="58" x2="918" y2="60" stroke="black" stroke-width="1" />
<line x1="918" y1="60" x2="925" y2="58" stroke="black" stroke-width="1" />
<rect x="884" y="56" width="27" height="5" style="fill:#5d3c2d;stroke:black;stroke-width:1;fill-opacity:1;stroke-opacity:0.3" />
<rect x="925" y="56" width="27" height="5" style="fill:#5d3c2d;stroke:black;stroke-width:1;fill-opacity:1;stroke-opacity:0.3" />
<line x1="915" y1="65" x2="919" y2="67" stroke="black" stroke-width="1" />
<line x1="919" y1="67" x2="924" y2="65" stroke="black" stroke-width="1" />
<rect x="887" y="63" width="8" height="5" style="fill:#5d3c2d;stroke:black;stroke-width:1;fill-opacity:1;stroke-opacity:0.3" />
<rect x="896" y="63" width="19" height="5" style="fill:#5d3c2d;stroke:black;stroke-width:1;fill-opacity:1;stroke-opacity:0.3" />
<rect x="924" y="63" width="27" height="5" style="fill:#5d3c2d;stroke:black;stroke-width:1;fill-opacity:1;stroke-opacity:0.3" />
<line x1="920" y1="86" x2="925" y2="88" stroke="black" stroke-width="1" />
<line x1="925" y1="88" x2="931" y2="86" stroke="black" stroke-width="1" />
<rect x="893" y="84" width="27" height="5" style="fill:#5d3c2d;stroke:black;stroke-width:1;fill-opacity:1;stroke-opacity:0.3" />
<rect x="931" y="84" width="25" height="5" style="fill:#5d3c2d;stroke:black;stroke-width:1;fill-opacity:1;stroke-opacity:0.3" />
<line x1="939" y1="93" x2="941" y2="95" stroke="black" stroke-width="1" />
<line x1="941" y1="95" x2="944" y2="93" stroke="black" stroke-width="1" />
<rect x="897" y="91" width="41" height="5" style="fill:#5d3c2d;stroke:black;stroke-width:1;fill-opacity:1;stroke-opacity:0.3" />
<rect x="944" y="91" width="39" height="5" style="fill:#5d3c2d;stroke:black;stroke-width:1;fill-opacity:1;stroke-opacity:0.3" />
<line x1="983" y1="93" x2="1012" y2="93" stroke="pink" stroke-width="1" />
<rect x="1012" y="91" width="2" height="5" style="fill:#5d3c2d;stroke:black;stroke-width:1;fill-opacity:1;stroke-opacity:0.3" />
<line x1="935" y1="30" x2="938" y2="32" stroke="black" stroke-width="1" />
<line x1="938" y1="32" x2="941" y2="30" stroke="black" stroke-width="1" />
<rect x="907" y="28" width="27" height="5" style="fill:#5d3c2d;stroke:black;stroke-width:1;fill-opacity:1;stroke-opacity:0.3" />
<rect x="941" y="28" width="27" height="5" style="fill:#5d3c2d;stroke:black;stroke-width:1;fill-opacity:1;stroke-opacity:0.3" />
<line x1="936" y1="72" x2="947" y2="74" stroke="black" stroke-width="1" />
<line x1="947" y1="74" x2="958" y2="72" stroke="black" stroke-width="1" />
<rect x="909" y="70" width="27" height="5" style="fill:#5d3c2d;stroke:black;stroke-width:1;fill-opacity:1;stroke-opacity:0.3" />
<rect x="958" y="70" width="25" height="5" style="fill:#5d3c2d;stroke:black;stroke-width:1;fill-opacity:1;stroke-opacity:0.3" />
<line x1="983" y1="72" x2="1012" y2="72" stroke="pink" stroke-width="1" />
<rect x="1012" y="70" width="2" height="5" style="fill:#5d3c2d;stroke:black;stroke-width:1;fill-opacity:1;stroke-opacity:0.3" />
<line x1="955" y1="51" x2="956" y2="53" stroke="black" stroke-width="1" />
<line x1="956" y1="53" x2="958" y2="51" stroke="black" stroke-width="1" />
<rect x="927" y="49" width="27" height="5" style="fill:#5d3c2d;stroke:black;stroke-width:1;fill-opacity:1;stroke-opacity:0.3" />
<rect x="958" y="49" width="25" height="5" style="fill:#5d3c2d;stroke:black;stroke-width:1;fill-opacity:1;stroke-opacity:0.3" />
<line x1="983" y1="51" x2="1012" y2="51" stroke="pink" stroke-width="1" />
<rect x="1012" y="49" width="2" height="5" style="fill:#5d3c2d;stroke:black;stroke-width:1;fill-opacity:1;stroke-opacity:0.3" />
<line x1="955" y1="79" x2="957" y2="81" stroke="black" stroke-width="1" />
<line x1="957" y1="81" x2="960" y2="79" stroke="black" stroke-width="1" />
<rect x="927" y="77" width="27" height="5" style="fill:#5d3c2d;stroke:black;stroke-width:1;fill-opacity:1;stroke-opacity:0.3" />
<rect x="960" y="77" width="22" height="5" style="fill:#5d3c2d;stroke:black;stroke-width:1;fill-opacity:1;stroke-opacity:0.3" />
<line x1="983" y1="79" x2="1012" y2="79" stroke="pink" stroke-width="1" />
<rect x="1012" y="77" width="4" height="5" style="fill:#5d3c2d;stroke:black;stroke-width:1;fill-opacity:1;stroke-opacity:0.3" />
<line x1="957" y1="100" x2="961" y2="102" stroke="black" stroke-width="1" />
<line x1="961" y1="102" x2="965" y2="100" stroke="black" stroke-width="1" />
<rect x="929" y="98" width="27" height="5" style="fill:#5d3c2d;stroke:black;stroke-width:1;fill-opacity:1;stroke-opacity:0.3" />
<rect x="965" y="98" width="17" height="5" style="fill:#5d3c2d;stroke:black;stroke-width:1;fill-opacity:1;stroke-opacity:0.3" />
<line x1="983" y1="100" x2="1012" y2="100" stroke="pink" stroke-width="1" />
<rect x="1012" y="98" width="10" height="5" style="fill:#5d3c2d;stroke:black;stroke-width:1;fill-opacity:1;stroke-opacity:0.3" />
<line x1="961" y1="107" x2="962" y2="109" stroke="black" stroke-width="1" />
<line x1="962" y1="109" x2="964" y2="107" stroke="black" stroke-width="1" />
<rect x="934" y="105" width="27" height="5" style="fill:#5d3c2d;stroke:black;stroke-width:1;fill-opacity:1;stroke-opacity:0.3" />
<rect x="964" y="105" width="18" height="5" style="fill:#5d3c2d;stroke:black;stroke-width:1;fill-opacity:1;stroke-opacity:0.3" />
<line x1="983" y1="107" x2="1012" y2="107" stroke="pink" stroke-width="1" />
<rect x="1012" y="105" width="7" height="5" style="fill:#5d3c2d;stroke:black;stroke-width:1;fill-opacity:1;stroke-opacity:0.3" />
<text x="15"  y="176" style="font-family:Arial;font-size:10;stroke:black;fill:black;">all.merged.bam</text>
</svg>
    
