<?xml version="1.0" encoding="utf-8" standalone="no"?>
<!DOCTYPE svg PUBLIC "-//W3C//DTD SVG 1.1//EN"
  "http://www.w3.org/Graphics/SVG/1.1/DTD/svg11.dtd">
<svg height="1140" width="1000" version="1.1" viewBox="0 0 1000 1140" xmlns="http://www.w3.org/2000/svg" xmlns:xlink="http://www.w3.org/1999/xlink">
<line x1="50" y1="11" x2="948" y2="11" stroke="black" stroke-width="1" />
<rect x="50" y="9" width="101" height="5" style="fill:#f50002;stroke:black;stroke-width:1;fill-opacity:1;stroke-opacity:0.3" />
<rect x="153" y="9" width="519" height="5" style="fill:#53a1b5;stroke:black;stroke-width:1;fill-opacity:1;stroke-opacity:0.3" />
<rect x="673" y="9" width="275" height="5" style="fill:#f50002;stroke:black;stroke-width:1;fill-opacity:1;stroke-opacity:0.3" />
<text x="50"  y="23" style="font-family:Arial;font-size:10;stroke:black;fill:black;">Cre09.g394000.t1.2.v5.5 (+) chromosome_9:2071346-2073117</text>
<line x1="114" y1="30" x2="132" y2="32" stroke="black" stroke-width="1" />
<line x1="132" y1="32" x2="151" y2="30" stroke="black" stroke-width="1" />
<rect x="38" y="28" width="76" height="5" style="fill:#5d3c2d;stroke:black;stroke-width:1;fill-opacity:1;stroke-opacity:0.3" />
<rect x="151" y="28" width="76" height="5" style="fill:#5d3c2d;stroke:black;stroke-width:1;fill-opacity:1;stroke-opacity:0.3" />
<line x1="125" y1="37" x2="127" y2="39" stroke="black" stroke-width="1" />
<line x1="127" y1="39" x2="130" y2="37" stroke="black" stroke-width="1" />
<rect x="49" y="35" width="76" height="5" style="fill:#5d3c2d;stroke:black;stroke-width:1;fill-opacity:1;stroke-opacity:0.3" />
<rect x="130" y="35" width="75" height="5" style="fill:#5d3c2d;stroke:black;stroke-width:1;fill-opacity:1;stroke-opacity:0.3" />
<line x1="102" y1="44" x2="105" y2="46" stroke="black" stroke-width="1" />
<line x1="105" y1="46" x2="108" y2="44" stroke="black" stroke-width="1" />
<rect x="51" y="42" width="50" height="5" style="fill:#5d3c2d;stroke:black;stroke-width:1;fill-opacity:1;stroke-opacity:0.3" />
<rect x="108" y="42" width="50" height="5" style="fill:#5d3c2d;stroke:black;stroke-width:1;fill-opacity:1;stroke-opacity:0.3" />
<line x1="103" y1="51" x2="108" y2="53" stroke="black" stroke-width="1" />
<line x1="108" y1="53" x2="114" y2="51" stroke="black" stroke-width="1" />
<rect x="52" y="49" width="50" height="5" style="fill:#5d3c2d;stroke:black;stroke-width:1;fill-opacity:1;stroke-opacity:0.3" />
<rect x="114" y="49" width="50" height="5" style="fill:#5d3c2d;stroke:black;stroke-width:1;fill-opacity:1;stroke-opacity:0.3" />
<line x1="103" y1="58" x2="111" y2="60" stroke="black" stroke-width="1" />
<line x1="111" y1="60" x2="120" y2="58" stroke="black" stroke-width="1" />
<rect x="52" y="56" width="50" height="5" style="fill:#5d3c2d;stroke:black;stroke-width:1;fill-opacity:1;stroke-opacity:0.3" />
<rect x="120" y="56" width="50" height="5" style="fill:#5d3c2d;stroke:black;stroke-width:1;fill-opacity:1;stroke-opacity:0.3" />
<line x1="105" y1="65" x2="114" y2="67" stroke="black" stroke-width="1" />
<line x1="114" y1="67" x2="123" y2="65" stroke="black" stroke-width="1" />
<rect x="54" y="63" width="50" height="5" style="fill:#5d3c2d;stroke:black;stroke-width:1;fill-opacity:1;stroke-opacity:0.3" />
<rect x="123" y="63" width="50" height="5" style="fill:#5d3c2d;stroke:black;stroke-width:1;fill-opacity:1;stroke-opacity:0.3" />
<line x1="136" y1="72" x2="145" y2="74" stroke="black" stroke-width="1" />
<line x1="145" y1="74" x2="155" y2="72" stroke="black" stroke-width="1" />
<rect x="60" y="70" width="76" height="5" style="fill:#f5b024;stroke:black;stroke-width:1;fill-opacity:1;stroke-opacity:0.3" />
<rect x="155" y="70" width="76" height="5" style="fill:#f5b024;stroke:black;stroke-width:1;fill-opacity:1;stroke-opacity:0.3" />
<line x1="136" y1="79" x2="146" y2="81" stroke="black" stroke-width="1" />
<line x1="146" y1="81" x2="156" y2="79" stroke="black" stroke-width="1" />
<rect x="60" y="77" width="76" height="5" style="fill:#5d3c2d;stroke:black;stroke-width:1;fill-opacity:1;stroke-opacity:0.3" />
<rect x="156" y="77" width="76" height="5" style="fill:#5d3c2d;stroke:black;stroke-width:1;fill-opacity:1;stroke-opacity:0.3" />
<line x1="136" y1="86" x2="140" y2="88" stroke="black" stroke-width="1" />
<line x1="140" y1="88" x2="145" y2="86" stroke="black" stroke-width="1" />
<rect x="60" y="84" width="39" height="5" style="fill:#5d3c2d;stroke:black;stroke-width:1;fill-opacity:1;stroke-opacity:0.3" />
<rect x="99" y="84" width="37" height="5" style="fill:#5d3c2d;stroke:black;stroke-width:1;fill-opacity:1;stroke-opacity:0.3" />
<rect x="145" y="84" width="76" height="5" style="fill:#5d3c2d;stroke:black;stroke-width:1;fill-opacity:1;stroke-opacity:0.3" />
<line x1="113" y1="93" x2="119" y2="95" stroke="black" stroke-width="1" />
<line x1="119" y1="95" x2="125" y2="93" stroke="black" stroke-width="1" />
<rect x="62" y="91" width="50" height="5" style="fill:#5d3c2d;stroke:black;stroke-width:1;fill-opacity:1;stroke-opacity:0.3" />
<rect x="125" y="91" width="50" height="5" style="fill:#5d3c2d;stroke:black;stroke-width:1;fill-opacity:1;stroke-opacity:0.3" />
<line x1="114" y1="100" x2="116" y2="102" stroke="black" stroke-width="1" />
<line x1="116" y1="102" x2="119" y2="100" stroke="black" stroke-width="1" />
<rect x="63" y="98" width="50" height="5" style="fill:#5d3c2d;stroke:black;stroke-width:1;fill-opacity:1;stroke-opacity:0.3" />
<rect x="119" y="98" width="50" height="5" style="fill:#5d3c2d;stroke:black;stroke-width:1;fill-opacity:1;stroke-opacity:0.3" />
<line x1="121" y1="107" x2="125" y2="109" stroke="black" stroke-width="1" />
<line x1="125" y1="109" x2="130" y2="107" stroke="black" stroke-width="1" />
<rect x="70" y="105" width="50" height="5" style="fill:#5d3c2d;stroke:black;stroke-width:1;fill-opacity:1;stroke-opacity:0.3" />
<rect x="130" y="105" width="48" height="5" style="fill:#5d3c2d;stroke:black;stroke-width:1;fill-opacity:1;stroke-opacity:0.3" />
<line x1="122" y1="114" x2="126" y2="116" stroke="black" stroke-width="1" />
<line x1="126" y1="116" x2="130" y2="114" stroke="black" stroke-width="1" />
<rect x="72" y="112" width="50" height="5" style="fill:#5d3c2d;stroke:black;stroke-width:1;fill-opacity:1;stroke-opacity:0.3" />
<rect x="130" y="112" width="50" height="5" style="fill:#5d3c2d;stroke:black;stroke-width:1;fill-opacity:1;stroke-opacity:0.3" />
<line x1="129" y1="121" x2="139" y2="123" stroke="black" stroke-width="1" />
<line x1="139" y1="123" x2="150" y2="121" stroke="black" stroke-width="1" />
<rect x="78" y="119" width="50" height="5" style="fill:#5d3c2d;stroke:black;stroke-width:1;fill-opacity:1;stroke-opacity:0.3" />
<rect x="150" y="119" width="50" height="5" style="fill:#5d3c2d;stroke:black;stroke-width:1;fill-opacity:1;stroke-opacity:0.3" />
<line x1="137" y1="128" x2="141" y2="130" stroke="black" stroke-width="1" />
<line x1="141" y1="130" x2="146" y2="128" stroke="black" stroke-width="1" />
<rect x="87" y="126" width="50" height="5" style="fill:#5d3c2d;stroke:black;stroke-width:1;fill-opacity:1;stroke-opacity:0.3" />
<rect x="146" y="126" width="50" height="5" style="fill:#5d3c2d;stroke:black;stroke-width:1;fill-opacity:1;stroke-opacity:0.3" />
<line x1="137" y1="135" x2="141" y2="137" stroke="black" stroke-width="1" />
<line x1="141" y1="137" x2="146" y2="135" stroke="black" stroke-width="1" />
<rect x="87" y="133" width="50" height="5" style="fill:#5d3c2d;stroke:black;stroke-width:1;fill-opacity:1;stroke-opacity:0.3" />
<rect x="146" y="133" width="50" height="5" style="fill:#5d3c2d;stroke:black;stroke-width:1;fill-opacity:1;stroke-opacity:0.3" />
<line x1="144" y1="142" x2="150" y2="144" stroke="black" stroke-width="1" />
<line x1="150" y1="144" x2="157" y2="142" stroke="black" stroke-width="1" />
<rect x="93" y="140" width="50" height="5" style="fill:#5d3c2d;stroke:black;stroke-width:1;fill-opacity:1;stroke-opacity:0.3" />
<rect x="157" y="140" width="50" height="5" style="fill:#5d3c2d;stroke:black;stroke-width:1;fill-opacity:1;stroke-opacity:0.3" />
<line x1="146" y1="149" x2="163" y2="151" stroke="black" stroke-width="1" />
<line x1="163" y1="151" x2="181" y2="149" stroke="black" stroke-width="1" />
<rect x="95" y="147" width="50" height="5" style="fill:#5d3c2d;stroke:black;stroke-width:1;fill-opacity:1;stroke-opacity:0.3" />
<rect x="181" y="147" width="50" height="5" style="fill:#5d3c2d;stroke:black;stroke-width:1;fill-opacity:1;stroke-opacity:0.3" />
<line x1="147" y1="156" x2="151" y2="158" stroke="black" stroke-width="1" />
<line x1="151" y1="158" x2="155" y2="156" stroke="black" stroke-width="1" />
<rect x="96" y="154" width="50" height="5" style="fill:#5d3c2d;stroke:black;stroke-width:1;fill-opacity:1;stroke-opacity:0.3" />
<rect x="155" y="154" width="49" height="5" style="fill:#5d3c2d;stroke:black;stroke-width:1;fill-opacity:1;stroke-opacity:0.3" />
<line x1="147" y1="163" x2="152" y2="165" stroke="black" stroke-width="1" />
<line x1="152" y1="165" x2="157" y2="163" stroke="black" stroke-width="1" />
<rect x="96" y="161" width="50" height="5" style="fill:#5d3c2d;stroke:black;stroke-width:1;fill-opacity:1;stroke-opacity:0.3" />
<rect x="157" y="161" width="50" height="5" style="fill:#5d3c2d;stroke:black;stroke-width:1;fill-opacity:1;stroke-opacity:0.3" />
<line x1="208" y1="44" x2="212" y2="46" stroke="black" stroke-width="1" />
<line x1="212" y1="46" x2="217" y2="44" stroke="black" stroke-width="1" />
<rect x="158" y="42" width="50" height="5" style="fill:#5d3c2d;stroke:black;stroke-width:1;fill-opacity:1;stroke-opacity:0.3" />
<rect x="217" y="42" width="50" height="5" style="fill:#5d3c2d;stroke:black;stroke-width:1;fill-opacity:1;stroke-opacity:0.3" />
<line x1="217" y1="51" x2="227" y2="53" stroke="black" stroke-width="1" />
<line x1="227" y1="53" x2="237" y2="51" stroke="black" stroke-width="1" />
<rect x="166" y="49" width="50" height="5" style="fill:#5d3c2d;stroke:black;stroke-width:1;fill-opacity:1;stroke-opacity:0.3" />
<rect x="237" y="49" width="50" height="5" style="fill:#5d3c2d;stroke:black;stroke-width:1;fill-opacity:1;stroke-opacity:0.3" />
<line x1="222" y1="58" x2="226" y2="60" stroke="black" stroke-width="1" />
<line x1="226" y1="60" x2="231" y2="58" stroke="black" stroke-width="1" />
<rect x="171" y="56" width="50" height="5" style="fill:#f5b024;stroke:black;stroke-width:1;fill-opacity:1;stroke-opacity:0.3" />
<rect x="231" y="56" width="50" height="5" style="fill:#f5b024;stroke:black;stroke-width:1;fill-opacity:1;stroke-opacity:0.3" />
<line x1="222" y1="100" x2="226" y2="102" stroke="black" stroke-width="1" />
<line x1="226" y1="102" x2="230" y2="100" stroke="black" stroke-width="1" />
<rect x="171" y="98" width="50" height="5" style="fill:#5d3c2d;stroke:black;stroke-width:1;fill-opacity:1;stroke-opacity:0.3" />
<rect x="230" y="98" width="50" height="5" style="fill:#5d3c2d;stroke:black;stroke-width:1;fill-opacity:1;stroke-opacity:0.3" />
<line x1="224" y1="65" x2="227" y2="67" stroke="black" stroke-width="1" />
<line x1="227" y1="67" x2="230" y2="65" stroke="black" stroke-width="1" />
<rect x="173" y="63" width="50" height="5" style="fill:#5d3c2d;stroke:black;stroke-width:1;fill-opacity:1;stroke-opacity:0.3" />
<rect x="230" y="63" width="50" height="5" style="fill:#5d3c2d;stroke:black;stroke-width:1;fill-opacity:1;stroke-opacity:0.3" />
<line x1="227" y1="93" x2="239" y2="95" stroke="black" stroke-width="1" />
<line x1="239" y1="95" x2="251" y2="93" stroke="black" stroke-width="1" />
<rect x="176" y="91" width="50" height="5" style="fill:#5d3c2d;stroke:black;stroke-width:1;fill-opacity:1;stroke-opacity:0.3" />
<rect x="251" y="91" width="50" height="5" style="fill:#5d3c2d;stroke:black;stroke-width:1;fill-opacity:1;stroke-opacity:0.3" />
<line x1="234" y1="107" x2="243" y2="109" stroke="black" stroke-width="1" />
<line x1="243" y1="109" x2="253" y2="107" stroke="black" stroke-width="1" />
<rect x="183" y="105" width="50" height="5" style="fill:#5d3c2d;stroke:black;stroke-width:1;fill-opacity:1;stroke-opacity:0.3" />
<rect x="253" y="105" width="50" height="5" style="fill:#5d3c2d;stroke:black;stroke-width:1;fill-opacity:1;stroke-opacity:0.3" />
<line x1="245" y1="114" x2="248" y2="116" stroke="black" stroke-width="1" />
<line x1="248" y1="116" x2="252" y2="114" stroke="black" stroke-width="1" />
<rect x="194" y="112" width="50" height="5" style="fill:#5d3c2d;stroke:black;stroke-width:1;fill-opacity:1;stroke-opacity:0.3" />
<rect x="252" y="112" width="50" height="5" style="fill:#5d3c2d;stroke:black;stroke-width:1;fill-opacity:1;stroke-opacity:0.3" />
<line x1="248" y1="128" x2="251" y2="130" stroke="black" stroke-width="1" />
<line x1="251" y1="130" x2="254" y2="128" stroke="black" stroke-width="1" />
<rect x="197" y="126" width="50" height="5" style="fill:#5d3c2d;stroke:black;stroke-width:1;fill-opacity:1;stroke-opacity:0.3" />
<rect x="254" y="126" width="50" height="5" style="fill:#5d3c2d;stroke:black;stroke-width:1;fill-opacity:1;stroke-opacity:0.3" />
<line x1="326" y1="30" x2="332" y2="32" stroke="black" stroke-width="1" />
<line x1="332" y1="32" x2="338" y2="30" stroke="black" stroke-width="1" />
<rect x="250" y="28" width="76" height="5" style="fill:#5d3c2d;stroke:black;stroke-width:1;fill-opacity:1;stroke-opacity:0.3" />
<rect x="338" y="28" width="76" height="5" style="fill:#5d3c2d;stroke:black;stroke-width:1;fill-opacity:1;stroke-opacity:0.3" />
<line x1="339" y1="37" x2="345" y2="39" stroke="black" stroke-width="1" />
<line x1="345" y1="39" x2="352" y2="37" stroke="black" stroke-width="1" />
<rect x="263" y="35" width="76" height="5" style="fill:#5d3c2d;stroke:black;stroke-width:1;fill-opacity:1;stroke-opacity:0.3" />
<rect x="352" y="35" width="76" height="5" style="fill:#5d3c2d;stroke:black;stroke-width:1;fill-opacity:1;stroke-opacity:0.3" />
<line x1="339" y1="72" x2="345" y2="74" stroke="black" stroke-width="1" />
<line x1="345" y1="74" x2="352" y2="72" stroke="black" stroke-width="1" />
<rect x="263" y="70" width="76" height="5" style="fill:#5d3c2d;stroke:black;stroke-width:1;fill-opacity:1;stroke-opacity:0.3" />
<rect x="352" y="70" width="76" height="5" style="fill:#5d3c2d;stroke:black;stroke-width:1;fill-opacity:1;stroke-opacity:0.3" />
<line x1="353" y1="44" x2="380" y2="46" stroke="black" stroke-width="1" />
<line x1="380" y1="46" x2="407" y2="44" stroke="black" stroke-width="1" />
<rect x="277" y="42" width="76" height="5" style="fill:#5d3c2d;stroke:black;stroke-width:1;fill-opacity:1;stroke-opacity:0.3" />
<rect x="407" y="42" width="76" height="5" style="fill:#5d3c2d;stroke:black;stroke-width:1;fill-opacity:1;stroke-opacity:0.3" />
<line x1="332" y1="65" x2="348" y2="67" stroke="black" stroke-width="1" />
<line x1="348" y1="67" x2="364" y2="65" stroke="black" stroke-width="1" />
<rect x="281" y="63" width="50" height="5" style="fill:#5d3c2d;stroke:black;stroke-width:1;fill-opacity:1;stroke-opacity:0.3" />
<rect x="364" y="63" width="50" height="5" style="fill:#5d3c2d;stroke:black;stroke-width:1;fill-opacity:1;stroke-opacity:0.3" />
<line x1="366" y1="51" x2="375" y2="53" stroke="black" stroke-width="1" />
<line x1="375" y1="53" x2="385" y2="51" stroke="black" stroke-width="1" />
<rect x="290" y="49" width="76" height="5" style="fill:#5d3c2d;stroke:black;stroke-width:1;fill-opacity:1;stroke-opacity:0.3" />
<rect x="385" y="49" width="75" height="5" style="fill:#5d3c2d;stroke:black;stroke-width:1;fill-opacity:1;stroke-opacity:0.3" />
<line x1="344" y1="58" x2="347" y2="60" stroke="black" stroke-width="1" />
<line x1="347" y1="60" x2="350" y2="58" stroke="black" stroke-width="1" />
<rect x="293" y="56" width="50" height="5" style="fill:#5d3c2d;stroke:black;stroke-width:1;fill-opacity:1;stroke-opacity:0.3" />
<rect x="350" y="56" width="50" height="5" style="fill:#5d3c2d;stroke:black;stroke-width:1;fill-opacity:1;stroke-opacity:0.3" />
<line x1="344" y1="79" x2="354" y2="81" stroke="black" stroke-width="1" />
<line x1="354" y1="81" x2="364" y2="79" stroke="black" stroke-width="1" />
<rect x="293" y="77" width="50" height="5" style="fill:#5d3c2d;stroke:black;stroke-width:1;fill-opacity:1;stroke-opacity:0.3" />
<rect x="364" y="77" width="50" height="5" style="fill:#5d3c2d;stroke:black;stroke-width:1;fill-opacity:1;stroke-opacity:0.3" />
<line x1="344" y1="86" x2="348" y2="88" stroke="black" stroke-width="1" />
<line x1="348" y1="88" x2="352" y2="86" stroke="black" stroke-width="1" />
<rect x="293" y="84" width="50" height="5" style="fill:#5d3c2d;stroke:black;stroke-width:1;fill-opacity:1;stroke-opacity:0.3" />
<rect x="352" y="84" width="49" height="5" style="fill:#5d3c2d;stroke:black;stroke-width:1;fill-opacity:1;stroke-opacity:0.3" />
<line x1="344" y1="100" x2="361" y2="102" stroke="black" stroke-width="1" />
<line x1="361" y1="102" x2="378" y2="100" stroke="black" stroke-width="1" />
<rect x="293" y="98" width="50" height="5" style="fill:#5d3c2d;stroke:black;stroke-width:1;fill-opacity:1;stroke-opacity:0.3" />
<rect x="378" y="98" width="50" height="5" style="fill:#5d3c2d;stroke:black;stroke-width:1;fill-opacity:1;stroke-opacity:0.3" />
<line x1="354" y1="93" x2="374" y2="95" stroke="black" stroke-width="1" />
<line x1="374" y1="95" x2="394" y2="93" stroke="black" stroke-width="1" />
<rect x="304" y="91" width="50" height="5" style="fill:#5d3c2d;stroke:black;stroke-width:1;fill-opacity:1;stroke-opacity:0.3" />
<rect x="394" y="91" width="50" height="5" style="fill:#5d3c2d;stroke:black;stroke-width:1;fill-opacity:1;stroke-opacity:0.3" />
<line x1="358" y1="107" x2="365" y2="109" stroke="black" stroke-width="1" />
<line x1="365" y1="109" x2="373" y2="107" stroke="black" stroke-width="1" />
<rect x="307" y="105" width="50" height="5" style="fill:#5d3c2d;stroke:black;stroke-width:1;fill-opacity:1;stroke-opacity:0.3" />
<rect x="373" y="105" width="50" height="5" style="fill:#5d3c2d;stroke:black;stroke-width:1;fill-opacity:1;stroke-opacity:0.3" />
<line x1="377" y1="114" x2="379" y2="116" stroke="black" stroke-width="1" />
<line x1="379" y1="116" x2="382" y2="114" stroke="black" stroke-width="1" />
<rect x="327" y="112" width="50" height="5" style="fill:#5d3c2d;stroke:black;stroke-width:1;fill-opacity:1;stroke-opacity:0.3" />
<rect x="382" y="112" width="50" height="5" style="fill:#5d3c2d;stroke:black;stroke-width:1;fill-opacity:1;stroke-opacity:0.3" />
<line x1="377" y1="121" x2="380" y2="123" stroke="black" stroke-width="1" />
<line x1="380" y1="123" x2="383" y2="121" stroke="black" stroke-width="1" />
<rect x="327" y="119" width="50" height="5" style="fill:#5d3c2d;stroke:black;stroke-width:1;fill-opacity:1;stroke-opacity:0.3" />
<rect x="383" y="119" width="50" height="5" style="fill:#5d3c2d;stroke:black;stroke-width:1;fill-opacity:1;stroke-opacity:0.3" />
<line x1="377" y1="128" x2="387" y2="130" stroke="black" stroke-width="1" />
<line x1="387" y1="130" x2="398" y2="128" stroke="black" stroke-width="1" />
<rect x="327" y="126" width="50" height="5" style="fill:#5d3c2d;stroke:black;stroke-width:1;fill-opacity:1;stroke-opacity:0.3" />
<rect x="398" y="126" width="49" height="5" style="fill:#5d3c2d;stroke:black;stroke-width:1;fill-opacity:1;stroke-opacity:0.3" />
<line x1="381" y1="135" x2="390" y2="137" stroke="black" stroke-width="1" />
<line x1="390" y1="137" x2="400" y2="135" stroke="black" stroke-width="1" />
<rect x="331" y="133" width="50" height="5" style="fill:#5d3c2d;stroke:black;stroke-width:1;fill-opacity:1;stroke-opacity:0.3" />
<rect x="400" y="133" width="50" height="5" style="fill:#5d3c2d;stroke:black;stroke-width:1;fill-opacity:1;stroke-opacity:0.3" />
<line x1="384" y1="142" x2="386" y2="144" stroke="black" stroke-width="1" />
<line x1="386" y1="144" x2="389" y2="142" stroke="black" stroke-width="1" />
<rect x="333" y="140" width="50" height="5" style="fill:#5d3c2d;stroke:black;stroke-width:1;fill-opacity:1;stroke-opacity:0.3" />
<rect x="389" y="140" width="50" height="5" style="fill:#5d3c2d;stroke:black;stroke-width:1;fill-opacity:1;stroke-opacity:0.3" />
<line x1="385" y1="149" x2="388" y2="151" stroke="black" stroke-width="1" />
<line x1="388" y1="151" x2="391" y2="149" stroke="black" stroke-width="1" />
<rect x="335" y="147" width="50" height="5" style="fill:#5d3c2d;stroke:black;stroke-width:1;fill-opacity:1;stroke-opacity:0.3" />
<rect x="391" y="147" width="50" height="5" style="fill:#5d3c2d;stroke:black;stroke-width:1;fill-opacity:1;stroke-opacity:0.3" />
<line x1="413" y1="156" x2="431" y2="158" stroke="black" stroke-width="1" />
<line x1="431" y1="158" x2="450" y2="156" stroke="black" stroke-width="1" />
<rect x="362" y="154" width="50" height="5" style="fill:#5d3c2d;stroke:black;stroke-width:1;fill-opacity:1;stroke-opacity:0.3" />
<rect x="450" y="154" width="50" height="5" style="fill:#5d3c2d;stroke:black;stroke-width:1;fill-opacity:1;stroke-opacity:0.3" />
<line x1="414" y1="163" x2="431" y2="165" stroke="black" stroke-width="1" />
<line x1="431" y1="165" x2="449" y2="163" stroke="black" stroke-width="1" />
<rect x="363" y="161" width="50" height="5" style="fill:#5d3c2d;stroke:black;stroke-width:1;fill-opacity:1;stroke-opacity:0.3" />
<rect x="449" y="161" width="50" height="5" style="fill:#5d3c2d;stroke:black;stroke-width:1;fill-opacity:1;stroke-opacity:0.3" />
<line x1="482" y1="58" x2="488" y2="60" stroke="black" stroke-width="1" />
<line x1="488" y1="60" x2="495" y2="58" stroke="black" stroke-width="1" />
<rect x="406" y="56" width="76" height="5" style="fill:#5d3c2d;stroke:black;stroke-width:1;fill-opacity:1;stroke-opacity:0.3" />
<rect x="495" y="56" width="75" height="5" style="fill:#5d3c2d;stroke:black;stroke-width:1;fill-opacity:1;stroke-opacity:0.3" />
<line x1="461" y1="86" x2="470" y2="88" stroke="black" stroke-width="1" />
<line x1="470" y1="88" x2="479" y2="86" stroke="black" stroke-width="1" />
<rect x="411" y="84" width="50" height="5" style="fill:#5d3c2d;stroke:black;stroke-width:1;fill-opacity:1;stroke-opacity:0.3" />
<rect x="479" y="84" width="50" height="5" style="fill:#5d3c2d;stroke:black;stroke-width:1;fill-opacity:1;stroke-opacity:0.3" />
<line x1="475" y1="30" x2="484" y2="32" stroke="black" stroke-width="1" />
<line x1="484" y1="32" x2="494" y2="30" stroke="black" stroke-width="1" />
<rect x="424" y="28" width="50" height="5" style="fill:#5d3c2d;stroke:black;stroke-width:1;fill-opacity:1;stroke-opacity:0.3" />
<rect x="494" y="28" width="50" height="5" style="fill:#5d3c2d;stroke:black;stroke-width:1;fill-opacity:1;stroke-opacity:0.3" />
<line x1="476" y1="65" x2="491" y2="67" stroke="black" stroke-width="1" />
<line x1="491" y1="67" x2="507" y2="65" stroke="black" stroke-width="1" />
<rect x="425" y="63" width="50" height="5" style="fill:#f5b024;stroke:black;stroke-width:1;fill-opacity:1;stroke-opacity:0.3" />
<rect x="507" y="63" width="50" height="5" style="fill:#f5b024;stroke:black;stroke-width:1;fill-opacity:1;stroke-opacity:0.3" />
<line x1="476" y1="79" x2="485" y2="81" stroke="black" stroke-width="1" />
<line x1="485" y1="81" x2="494" y2="79" stroke="black" stroke-width="1" />
<rect x="425" y="77" width="50" height="5" style="fill:#5d3c2d;stroke:black;stroke-width:1;fill-opacity:1;stroke-opacity:0.3" />
<rect x="494" y="77" width="50" height="5" style="fill:#5d3c2d;stroke:black;stroke-width:1;fill-opacity:1;stroke-opacity:0.3" />
<line x1="482" y1="37" x2="493" y2="39" stroke="black" stroke-width="1" />
<line x1="493" y1="39" x2="504" y2="37" stroke="black" stroke-width="1" />
<rect x="431" y="35" width="50" height="5" style="fill:#f5b024;stroke:black;stroke-width:1;fill-opacity:1;stroke-opacity:0.3" />
<rect x="504" y="35" width="50" height="5" style="fill:#f5b024;stroke:black;stroke-width:1;fill-opacity:1;stroke-opacity:0.3" />
<line x1="484" y1="72" x2="494" y2="74" stroke="black" stroke-width="1" />
<line x1="494" y1="74" x2="505" y2="72" stroke="black" stroke-width="1" />
<rect x="433" y="70" width="50" height="5" style="fill:#5d3c2d;stroke:black;stroke-width:1;fill-opacity:1;stroke-opacity:0.3" />
<rect x="505" y="70" width="50" height="5" style="fill:#5d3c2d;stroke:black;stroke-width:1;fill-opacity:1;stroke-opacity:0.3" />
<line x1="485" y1="100" x2="500" y2="102" stroke="black" stroke-width="1" />
<line x1="500" y1="102" x2="515" y2="100" stroke="black" stroke-width="1" />
<rect x="435" y="98" width="50" height="5" style="fill:#5d3c2d;stroke:black;stroke-width:1;fill-opacity:1;stroke-opacity:0.3" />
<rect x="515" y="98" width="50" height="5" style="fill:#5d3c2d;stroke:black;stroke-width:1;fill-opacity:1;stroke-opacity:0.3" />
<line x1="486" y1="107" x2="497" y2="109" stroke="black" stroke-width="1" />
<line x1="497" y1="109" x2="509" y2="107" stroke="black" stroke-width="1" />
<rect x="436" y="105" width="50" height="5" style="fill:#5d3c2d;stroke:black;stroke-width:1;fill-opacity:1;stroke-opacity:0.3" />
<rect x="509" y="105" width="50" height="5" style="fill:#5d3c2d;stroke:black;stroke-width:1;fill-opacity:1;stroke-opacity:0.3" />
<line x1="487" y1="114" x2="501" y2="116" stroke="black" stroke-width="1" />
<line x1="501" y1="116" x2="515" y2="114" stroke="black" stroke-width="1" />
<rect x="437" y="112" width="50" height="5" style="fill:#5d3c2d;stroke:black;stroke-width:1;fill-opacity:1;stroke-opacity:0.3" />
<rect x="515" y="112" width="50" height="5" style="fill:#5d3c2d;stroke:black;stroke-width:1;fill-opacity:1;stroke-opacity:0.3" />
<line x1="490" y1="121" x2="499" y2="123" stroke="black" stroke-width="1" />
<line x1="499" y1="123" x2="509" y2="121" stroke="black" stroke-width="1" />
<rect x="440" y="119" width="50" height="5" style="fill:#5d3c2d;stroke:black;stroke-width:1;fill-opacity:1;stroke-opacity:0.3" />
<rect x="509" y="119" width="50" height="5" style="fill:#5d3c2d;stroke:black;stroke-width:1;fill-opacity:1;stroke-opacity:0.3" />
<line x1="490" y1="142" x2="499" y2="144" stroke="black" stroke-width="1" />
<line x1="499" y1="144" x2="509" y2="142" stroke="black" stroke-width="1" />
<rect x="440" y="140" width="50" height="5" style="fill:#5d3c2d;stroke:black;stroke-width:1;fill-opacity:1;stroke-opacity:0.3" />
<rect x="509" y="140" width="50" height="5" style="fill:#5d3c2d;stroke:black;stroke-width:1;fill-opacity:1;stroke-opacity:0.3" />
<line x1="495" y1="93" x2="506" y2="95" stroke="black" stroke-width="1" />
<line x1="506" y1="95" x2="517" y2="93" stroke="black" stroke-width="1" />
<rect x="445" y="91" width="50" height="5" style="fill:#5d3c2d;stroke:black;stroke-width:1;fill-opacity:1;stroke-opacity:0.3" />
<rect x="517" y="91" width="50" height="5" style="fill:#5d3c2d;stroke:black;stroke-width:1;fill-opacity:1;stroke-opacity:0.3" />
<line x1="495" y1="149" x2="500" y2="151" stroke="black" stroke-width="1" />
<line x1="500" y1="151" x2="506" y2="149" stroke="black" stroke-width="1" />
<rect x="445" y="147" width="50" height="5" style="fill:#5d3c2d;stroke:black;stroke-width:1;fill-opacity:1;stroke-opacity:0.3" />
<rect x="506" y="147" width="50" height="5" style="fill:#5d3c2d;stroke:black;stroke-width:1;fill-opacity:1;stroke-opacity:0.3" />
<line x1="550" y1="128" x2="556" y2="130" stroke="black" stroke-width="1" />
<line x1="556" y1="130" x2="563" y2="128" stroke="black" stroke-width="1" />
<rect x="452" y="126" width="68" height="5" style="fill:#5d3c2d;stroke:black;stroke-width:1;fill-opacity:1;stroke-opacity:0.3" />
<line x1="521" y1="128" x2="544" y2="128" stroke="pink" stroke-width="1" />
<rect x="544" y="126" width="6" height="5" style="fill:#5d3c2d;stroke:black;stroke-width:1;fill-opacity:1;stroke-opacity:0.3" />
<rect x="563" y="126" width="73" height="5" style="fill:#5d3c2d;stroke:black;stroke-width:1;fill-opacity:1;stroke-opacity:0.3" />
<line x1="503" y1="135" x2="508" y2="137" stroke="black" stroke-width="1" />
<line x1="508" y1="137" x2="514" y2="135" stroke="black" stroke-width="1" />
<rect x="452" y="133" width="50" height="5" style="fill:#5d3c2d;stroke:black;stroke-width:1;fill-opacity:1;stroke-opacity:0.3" />
<rect x="514" y="133" width="50" height="5" style="fill:#5d3c2d;stroke:black;stroke-width:1;fill-opacity:1;stroke-opacity:0.3" />
<line x1="550" y1="51" x2="578" y2="53" stroke="black" stroke-width="1" />
<line x1="578" y1="53" x2="606" y2="51" stroke="black" stroke-width="1" />
<rect x="474" y="49" width="76" height="5" style="fill:#5d3c2d;stroke:black;stroke-width:1;fill-opacity:1;stroke-opacity:0.3" />
<rect x="606" y="49" width="76" height="5" style="fill:#5d3c2d;stroke:black;stroke-width:1;fill-opacity:1;stroke-opacity:0.3" />
<line x1="573" y1="44" x2="577" y2="46" stroke="black" stroke-width="1" />
<line x1="577" y1="46" x2="581" y2="44" stroke="black" stroke-width="1" />
<rect x="496" y="42" width="76" height="5" style="fill:#5d3c2d;stroke:black;stroke-width:1;fill-opacity:1;stroke-opacity:0.3" />
<rect x="581" y="42" width="76" height="5" style="fill:#5d3c2d;stroke:black;stroke-width:1;fill-opacity:1;stroke-opacity:0.3" />
<line x1="577" y1="156" x2="583" y2="158" stroke="black" stroke-width="1" />
<line x1="583" y1="158" x2="590" y2="156" stroke="black" stroke-width="1" />
<rect x="501" y="154" width="76" height="5" style="fill:#5d3c2d;stroke:black;stroke-width:1;fill-opacity:1;stroke-opacity:0.3" />
<rect x="590" y="154" width="76" height="5" style="fill:#5d3c2d;stroke:black;stroke-width:1;fill-opacity:1;stroke-opacity:0.3" />
<line x1="559" y1="163" x2="563" y2="165" stroke="black" stroke-width="1" />
<line x1="563" y1="165" x2="568" y2="163" stroke="black" stroke-width="1" />
<rect x="509" y="161" width="50" height="5" style="fill:#5d3c2d;stroke:black;stroke-width:1;fill-opacity:1;stroke-opacity:0.3" />
<rect x="568" y="161" width="50" height="5" style="fill:#5d3c2d;stroke:black;stroke-width:1;fill-opacity:1;stroke-opacity:0.3" />
<line x1="668" y1="30" x2="688" y2="32" stroke="black" stroke-width="1" />
<line x1="688" y1="32" x2="708" y2="30" stroke="black" stroke-width="1" />
<rect x="592" y="28" width="76" height="5" style="fill:#f5b024;stroke:black;stroke-width:1;fill-opacity:1;stroke-opacity:0.3" />
<rect x="708" y="28" width="67" height="5" style="fill:#f5b024;stroke:black;stroke-width:1;fill-opacity:1;stroke-opacity:0.3" />
<line x1="680" y1="37" x2="683" y2="39" stroke="black" stroke-width="1" />
<line x1="683" y1="39" x2="686" y2="37" stroke="black" stroke-width="1" />
<rect x="603" y="35" width="76" height="5" style="fill:#5d3c2d;stroke:black;stroke-width:1;fill-opacity:1;stroke-opacity:0.3" />
<rect x="686" y="35" width="76" height="5" style="fill:#5d3c2d;stroke:black;stroke-width:1;fill-opacity:1;stroke-opacity:0.3" />
<line x1="657" y1="58" x2="663" y2="60" stroke="black" stroke-width="1" />
<line x1="663" y1="60" x2="670" y2="58" stroke="black" stroke-width="1" />
<rect x="606" y="56" width="50" height="5" style="fill:#5d3c2d;stroke:black;stroke-width:1;fill-opacity:1;stroke-opacity:0.3" />
<rect x="670" y="56" width="50" height="5" style="fill:#5d3c2d;stroke:black;stroke-width:1;fill-opacity:1;stroke-opacity:0.3" />
<line x1="658" y1="65" x2="667" y2="67" stroke="black" stroke-width="1" />
<line x1="667" y1="67" x2="677" y2="65" stroke="black" stroke-width="1" />
<rect x="607" y="63" width="50" height="5" style="fill:#5d3c2d;stroke:black;stroke-width:1;fill-opacity:1;stroke-opacity:0.3" />
<rect x="677" y="63" width="50" height="5" style="fill:#5d3c2d;stroke:black;stroke-width:1;fill-opacity:1;stroke-opacity:0.3" />
<line x1="655" y1="72" x2="666" y2="74" stroke="black" stroke-width="1" />
<line x1="666" y1="74" x2="677" y2="72" stroke="black" stroke-width="1" />
<rect x="608" y="70" width="47" height="5" style="fill:#5d3c2d;stroke:black;stroke-width:1;fill-opacity:1;stroke-opacity:0.3" />
<rect x="677" y="70" width="50" height="5" style="fill:#5d3c2d;stroke:black;stroke-width:1;fill-opacity:1;stroke-opacity:0.3" />
<line x1="658" y1="79" x2="667" y2="81" stroke="black" stroke-width="1" />
<line x1="667" y1="81" x2="677" y2="79" stroke="black" stroke-width="1" />
<rect x="608" y="77" width="50" height="5" style="fill:#f5b024;stroke:black;stroke-width:1;fill-opacity:1;stroke-opacity:0.3" />
<rect x="677" y="77" width="47" height="5" style="fill:#f5b024;stroke:black;stroke-width:1;fill-opacity:1;stroke-opacity:0.3" />
<line x1="660" y1="86" x2="662" y2="88" stroke="black" stroke-width="1" />
<line x1="662" y1="88" x2="665" y2="86" stroke="black" stroke-width="1" />
<rect x="610" y="84" width="50" height="5" style="fill:#5d3c2d;stroke:black;stroke-width:1;fill-opacity:1;stroke-opacity:0.3" />
<rect x="665" y="84" width="50" height="5" style="fill:#5d3c2d;stroke:black;stroke-width:1;fill-opacity:1;stroke-opacity:0.3" />
<line x1="663" y1="93" x2="673" y2="95" stroke="black" stroke-width="1" />
<line x1="673" y1="95" x2="684" y2="93" stroke="black" stroke-width="1" />
<rect x="613" y="91" width="50" height="5" style="fill:#5d3c2d;stroke:black;stroke-width:1;fill-opacity:1;stroke-opacity:0.3" />
<rect x="684" y="91" width="50" height="5" style="fill:#5d3c2d;stroke:black;stroke-width:1;fill-opacity:1;stroke-opacity:0.3" />
<line x1="665" y1="100" x2="671" y2="102" stroke="black" stroke-width="1" />
<line x1="671" y1="102" x2="677" y2="100" stroke="black" stroke-width="1" />
<rect x="615" y="98" width="50" height="5" style="fill:#5d3c2d;stroke:black;stroke-width:1;fill-opacity:1;stroke-opacity:0.3" />
<rect x="677" y="98" width="50" height="5" style="fill:#5d3c2d;stroke:black;stroke-width:1;fill-opacity:1;stroke-opacity:0.3" />
<line x1="665" y1="107" x2="672" y2="109" stroke="black" stroke-width="1" />
<line x1="672" y1="109" x2="679" y2="107" stroke="black" stroke-width="1" />
<rect x="615" y="105" width="50" height="5" style="fill:#5d3c2d;stroke:black;stroke-width:1;fill-opacity:1;stroke-opacity:0.3" />
<rect x="679" y="105" width="50" height="5" style="fill:#5d3c2d;stroke:black;stroke-width:1;fill-opacity:1;stroke-opacity:0.3" />
<line x1="666" y1="114" x2="675" y2="116" stroke="black" stroke-width="1" />
<line x1="675" y1="116" x2="684" y2="114" stroke="black" stroke-width="1" />
<rect x="615" y="112" width="50" height="5" style="fill:#5d3c2d;stroke:black;stroke-width:1;fill-opacity:1;stroke-opacity:0.3" />
<rect x="684" y="112" width="50" height="5" style="fill:#5d3c2d;stroke:black;stroke-width:1;fill-opacity:1;stroke-opacity:0.3" />
<line x1="658" y1="121" x2="661" y2="123" stroke="black" stroke-width="1" />
<line x1="661" y1="123" x2="664" y2="121" stroke="black" stroke-width="1" />
<rect x="615" y="119" width="43" height="5" style="fill:#f5b024;stroke:black;stroke-width:1;fill-opacity:1;stroke-opacity:0.3" />
<rect x="664" y="119" width="50" height="5" style="fill:#f5b024;stroke:black;stroke-width:1;fill-opacity:1;stroke-opacity:0.3" />
<line x1="667" y1="135" x2="672" y2="137" stroke="black" stroke-width="1" />
<line x1="672" y1="137" x2="677" y2="135" stroke="black" stroke-width="1" />
<rect x="616" y="133" width="50" height="5" style="fill:#5d3c2d;stroke:black;stroke-width:1;fill-opacity:1;stroke-opacity:0.3" />
<rect x="677" y="133" width="50" height="5" style="fill:#5d3c2d;stroke:black;stroke-width:1;fill-opacity:1;stroke-opacity:0.3" />
<line x1="667" y1="142" x2="680" y2="144" stroke="black" stroke-width="1" />
<line x1="680" y1="144" x2="693" y2="142" stroke="black" stroke-width="1" />
<rect x="616" y="140" width="50" height="5" style="fill:#5d3c2d;stroke:black;stroke-width:1;fill-opacity:1;stroke-opacity:0.3" />
<rect x="693" y="140" width="50" height="5" style="fill:#5d3c2d;stroke:black;stroke-width:1;fill-opacity:1;stroke-opacity:0.3" />
<line x1="667" y1="149" x2="671" y2="151" stroke="black" stroke-width="1" />
<line x1="671" y1="151" x2="675" y2="149" stroke="black" stroke-width="1" />
<rect x="616" y="147" width="50" height="5" style="fill:#5d3c2d;stroke:black;stroke-width:1;fill-opacity:1;stroke-opacity:0.3" />
<rect x="675" y="147" width="50" height="5" style="fill:#5d3c2d;stroke:black;stroke-width:1;fill-opacity:1;stroke-opacity:0.3" />
<line x1="675" y1="163" x2="694" y2="165" stroke="black" stroke-width="1" />
<line x1="694" y1="165" x2="714" y2="163" stroke="black" stroke-width="1" />
<rect x="624" y="161" width="50" height="5" style="fill:#5d3c2d;stroke:black;stroke-width:1;fill-opacity:1;stroke-opacity:0.3" />
<rect x="714" y="161" width="50" height="5" style="fill:#5d3c2d;stroke:black;stroke-width:1;fill-opacity:1;stroke-opacity:0.3" />
<line x1="689" y1="128" x2="760" y2="130" stroke="black" stroke-width="1" />
<line x1="760" y1="130" x2="832" y2="128" stroke="black" stroke-width="1" />
<rect x="638" y="126" width="50" height="5" style="fill:#5d3c2d;stroke:black;stroke-width:1;fill-opacity:1;stroke-opacity:0.3" />
<rect x="832" y="126" width="50" height="5" style="fill:#5d3c2d;stroke:black;stroke-width:1;fill-opacity:1;stroke-opacity:0.3" />
<line x1="709" y1="44" x2="714" y2="46" stroke="black" stroke-width="1" />
<line x1="714" y1="46" x2="719" y2="44" stroke="black" stroke-width="1" />
<rect x="659" y="42" width="50" height="5" style="fill:#5d3c2d;stroke:black;stroke-width:1;fill-opacity:1;stroke-opacity:0.3" />
<rect x="719" y="42" width="50" height="5" style="fill:#5d3c2d;stroke:black;stroke-width:1;fill-opacity:1;stroke-opacity:0.3" />
<line x1="717" y1="156" x2="726" y2="158" stroke="black" stroke-width="1" />
<line x1="726" y1="158" x2="735" y2="156" stroke="black" stroke-width="1" />
<rect x="666" y="154" width="50" height="5" style="fill:#5d3c2d;stroke:black;stroke-width:1;fill-opacity:1;stroke-opacity:0.3" />
<rect x="735" y="154" width="50" height="5" style="fill:#5d3c2d;stroke:black;stroke-width:1;fill-opacity:1;stroke-opacity:0.3" />
<line x1="733" y1="51" x2="741" y2="53" stroke="black" stroke-width="1" />
<line x1="741" y1="53" x2="749" y2="51" stroke="black" stroke-width="1" />
<rect x="683" y="49" width="50" height="5" style="fill:#5d3c2d;stroke:black;stroke-width:1;fill-opacity:1;stroke-opacity:0.3" />
<rect x="749" y="49" width="50" height="5" style="fill:#5d3c2d;stroke:black;stroke-width:1;fill-opacity:1;stroke-opacity:0.3" />
<line x1="766" y1="121" x2="772" y2="123" stroke="black" stroke-width="1" />
<line x1="772" y1="123" x2="778" y2="121" stroke="black" stroke-width="1" />
<rect x="716" y="119" width="50" height="5" style="fill:#5d3c2d;stroke:black;stroke-width:1;fill-opacity:1;stroke-opacity:0.3" />
<rect x="778" y="119" width="50" height="5" style="fill:#5d3c2d;stroke:black;stroke-width:1;fill-opacity:1;stroke-opacity:0.3" />
<line x1="793" y1="86" x2="802" y2="88" stroke="black" stroke-width="1" />
<line x1="802" y1="88" x2="812" y2="86" stroke="black" stroke-width="1" />
<rect x="717" y="84" width="76" height="5" style="fill:#5d3c2d;stroke:black;stroke-width:1;fill-opacity:1;stroke-opacity:0.3" />
<rect x="812" y="84" width="76" height="5" style="fill:#5d3c2d;stroke:black;stroke-width:1;fill-opacity:1;stroke-opacity:0.3" />
<line x1="772" y1="58" x2="776" y2="60" stroke="black" stroke-width="1" />
<line x1="776" y1="60" x2="781" y2="58" stroke="black" stroke-width="1" />
<rect x="721" y="56" width="50" height="5" style="fill:#5d3c2d;stroke:black;stroke-width:1;fill-opacity:1;stroke-opacity:0.3" />
<rect x="781" y="56" width="50" height="5" style="fill:#5d3c2d;stroke:black;stroke-width:1;fill-opacity:1;stroke-opacity:0.3" />
<line x1="776" y1="79" x2="792" y2="81" stroke="black" stroke-width="1" />
<line x1="792" y1="81" x2="809" y2="79" stroke="black" stroke-width="1" />
<rect x="726" y="77" width="50" height="5" style="fill:#5d3c2d;stroke:black;stroke-width:1;fill-opacity:1;stroke-opacity:0.3" />
<rect x="809" y="77" width="49" height="5" style="fill:#5d3c2d;stroke:black;stroke-width:1;fill-opacity:1;stroke-opacity:0.3" />
<line x1="779" y1="65" x2="807" y2="67" stroke="black" stroke-width="1" />
<line x1="807" y1="67" x2="836" y2="65" stroke="black" stroke-width="1" />
<rect x="728" y="63" width="50" height="5" style="fill:#5d3c2d;stroke:black;stroke-width:1;fill-opacity:1;stroke-opacity:0.3" />
<rect x="836" y="63" width="50" height="5" style="fill:#5d3c2d;stroke:black;stroke-width:1;fill-opacity:1;stroke-opacity:0.3" />
<line x1="779" y1="72" x2="781" y2="74" stroke="black" stroke-width="1" />
<line x1="781" y1="74" x2="784" y2="72" stroke="black" stroke-width="1" />
<rect x="728" y="70" width="50" height="5" style="fill:#5d3c2d;stroke:black;stroke-width:1;fill-opacity:1;stroke-opacity:0.3" />
<rect x="784" y="70" width="50" height="5" style="fill:#5d3c2d;stroke:black;stroke-width:1;fill-opacity:1;stroke-opacity:0.3" />
<line x1="779" y1="100" x2="783" y2="102" stroke="black" stroke-width="1" />
<line x1="783" y1="102" x2="788" y2="100" stroke="black" stroke-width="1" />
<rect x="728" y="98" width="50" height="5" style="fill:#f5b024;stroke:black;stroke-width:1;fill-opacity:1;stroke-opacity:0.3" />
<rect x="788" y="98" width="50" height="5" style="fill:#f5b024;stroke:black;stroke-width:1;fill-opacity:1;stroke-opacity:0.3" />
<line x1="806" y1="107" x2="809" y2="109" stroke="black" stroke-width="1" />
<line x1="809" y1="109" x2="812" y2="107" stroke="black" stroke-width="1" />
<rect x="730" y="105" width="76" height="5" style="fill:#5d3c2d;stroke:black;stroke-width:1;fill-opacity:1;stroke-opacity:0.3" />
<rect x="812" y="105" width="76" height="5" style="fill:#5d3c2d;stroke:black;stroke-width:1;fill-opacity:1;stroke-opacity:0.3" />
<line x1="782" y1="135" x2="793" y2="137" stroke="black" stroke-width="1" />
<line x1="793" y1="137" x2="804" y2="135" stroke="black" stroke-width="1" />
<rect x="732" y="133" width="50" height="5" style="fill:#5d3c2d;stroke:black;stroke-width:1;fill-opacity:1;stroke-opacity:0.3" />
<rect x="804" y="133" width="50" height="5" style="fill:#5d3c2d;stroke:black;stroke-width:1;fill-opacity:1;stroke-opacity:0.3" />
<line x1="784" y1="149" x2="801" y2="151" stroke="black" stroke-width="1" />
<line x1="801" y1="151" x2="819" y2="149" stroke="black" stroke-width="1" />
<rect x="733" y="147" width="50" height="5" style="fill:#5d3c2d;stroke:black;stroke-width:1;fill-opacity:1;stroke-opacity:0.3" />
<rect x="819" y="147" width="50" height="5" style="fill:#5d3c2d;stroke:black;stroke-width:1;fill-opacity:1;stroke-opacity:0.3" />
<line x1="785" y1="93" x2="798" y2="95" stroke="black" stroke-width="1" />
<line x1="798" y1="95" x2="811" y2="93" stroke="black" stroke-width="1" />
<rect x="734" y="91" width="50" height="5" style="fill:#5d3c2d;stroke:black;stroke-width:1;fill-opacity:1;stroke-opacity:0.3" />
<rect x="811" y="91" width="50" height="5" style="fill:#5d3c2d;stroke:black;stroke-width:1;fill-opacity:1;stroke-opacity:0.3" />
<line x1="786" y1="114" x2="789" y2="116" stroke="black" stroke-width="1" />
<line x1="789" y1="116" x2="792" y2="114" stroke="black" stroke-width="1" />
<rect x="735" y="112" width="50" height="5" style="fill:#5d3c2d;stroke:black;stroke-width:1;fill-opacity:1;stroke-opacity:0.3" />
<rect x="792" y="112" width="50" height="5" style="fill:#5d3c2d;stroke:black;stroke-width:1;fill-opacity:1;stroke-opacity:0.3" />
<line x1="798" y1="142" x2="805" y2="144" stroke="black" stroke-width="1" />
<line x1="805" y1="144" x2="812" y2="142" stroke="black" stroke-width="1" />
<rect x="747" y="140" width="50" height="5" style="fill:#5d3c2d;stroke:black;stroke-width:1;fill-opacity:1;stroke-opacity:0.3" />
<rect x="812" y="140" width="50" height="5" style="fill:#5d3c2d;stroke:black;stroke-width:1;fill-opacity:1;stroke-opacity:0.3" />
<line x1="812" y1="37" x2="824" y2="39" stroke="black" stroke-width="1" />
<line x1="824" y1="39" x2="837" y2="37" stroke="black" stroke-width="1" />
<rect x="762" y="35" width="50" height="5" style="fill:#f5b024;stroke:black;stroke-width:1;fill-opacity:1;stroke-opacity:0.3" />
<rect x="837" y="35" width="50" height="5" style="fill:#f5b024;stroke:black;stroke-width:1;fill-opacity:1;stroke-opacity:0.3" />
<line x1="818" y1="163" x2="821" y2="165" stroke="black" stroke-width="1" />
<line x1="821" y1="165" x2="825" y2="163" stroke="black" stroke-width="1" />
<rect x="768" y="161" width="50" height="5" style="fill:#5d3c2d;stroke:black;stroke-width:1;fill-opacity:1;stroke-opacity:0.3" />
<rect x="825" y="161" width="50" height="5" style="fill:#5d3c2d;stroke:black;stroke-width:1;fill-opacity:1;stroke-opacity:0.3" />
<line x1="819" y1="44" x2="827" y2="46" stroke="black" stroke-width="1" />
<line x1="827" y1="46" x2="836" y2="44" stroke="black" stroke-width="1" />
<rect x="769" y="42" width="50" height="5" style="fill:#5d3c2d;stroke:black;stroke-width:1;fill-opacity:1;stroke-opacity:0.3" />
<rect x="836" y="42" width="50" height="5" style="fill:#5d3c2d;stroke:black;stroke-width:1;fill-opacity:1;stroke-opacity:0.3" />
<line x1="853" y1="30" x2="858" y2="32" stroke="black" stroke-width="1" />
<line x1="858" y1="32" x2="863" y2="30" stroke="black" stroke-width="1" />
<rect x="777" y="28" width="76" height="5" style="fill:#5d3c2d;stroke:black;stroke-width:1;fill-opacity:1;stroke-opacity:0.3" />
<rect x="863" y="28" width="76" height="5" style="fill:#5d3c2d;stroke:black;stroke-width:1;fill-opacity:1;stroke-opacity:0.3" />
<line x1="839" y1="156" x2="851" y2="158" stroke="black" stroke-width="1" />
<line x1="851" y1="158" x2="863" y2="156" stroke="black" stroke-width="1" />
<rect x="789" y="154" width="50" height="5" style="fill:#5d3c2d;stroke:black;stroke-width:1;fill-opacity:1;stroke-opacity:0.3" />
<rect x="863" y="154" width="50" height="5" style="fill:#5d3c2d;stroke:black;stroke-width:1;fill-opacity:1;stroke-opacity:0.3" />
<line x1="850" y1="51" x2="862" y2="53" stroke="black" stroke-width="1" />
<line x1="862" y1="53" x2="874" y2="51" stroke="black" stroke-width="1" />
<rect x="800" y="49" width="50" height="5" style="fill:#5d3c2d;stroke:black;stroke-width:1;fill-opacity:1;stroke-opacity:0.3" />
<rect x="874" y="49" width="50" height="5" style="fill:#5d3c2d;stroke:black;stroke-width:1;fill-opacity:1;stroke-opacity:0.3" />
<line x1="879" y1="121" x2="881" y2="123" stroke="black" stroke-width="1" />
<line x1="881" y1="123" x2="884" y2="121" stroke="black" stroke-width="1" />
<rect x="829" y="119" width="50" height="5" style="fill:#f5b024;stroke:black;stroke-width:1;fill-opacity:1;stroke-opacity:0.3" />
<rect x="884" y="119" width="50" height="5" style="fill:#f5b024;stroke:black;stroke-width:1;fill-opacity:1;stroke-opacity:0.3" />
<line x1="883" y1="58" x2="886" y2="60" stroke="black" stroke-width="1" />
<line x1="886" y1="60" x2="890" y2="58" stroke="black" stroke-width="1" />
<rect x="832" y="56" width="50" height="5" style="fill:#5d3c2d;stroke:black;stroke-width:1;fill-opacity:1;stroke-opacity:0.3" />
<rect x="890" y="56" width="49" height="5" style="fill:#5d3c2d;stroke:black;stroke-width:1;fill-opacity:1;stroke-opacity:0.3" />
<line x1="890" y1="72" x2="895" y2="74" stroke="black" stroke-width="1" />
<line x1="895" y1="74" x2="901" y2="72" stroke="black" stroke-width="1" />
<rect x="840" y="70" width="50" height="5" style="fill:#5d3c2d;stroke:black;stroke-width:1;fill-opacity:1;stroke-opacity:0.3" />
<rect x="901" y="70" width="50" height="5" style="fill:#5d3c2d;stroke:black;stroke-width:1;fill-opacity:1;stroke-opacity:0.3" />
<line x1="937" y1="65" x2="941" y2="67" stroke="black" stroke-width="1" />
<line x1="941" y1="67" x2="945" y2="65" stroke="black" stroke-width="1" />
<rect x="886" y="63" width="50" height="5" style="fill:#f5b024;stroke:black;stroke-width:1;fill-opacity:1;stroke-opacity:0.3" />
<rect x="945" y="63" width="50" height="5" style="fill:#f5b024;stroke:black;stroke-width:1;fill-opacity:1;stroke-opacity:0.3" />
<text x="15"  y="176" style="font-family:Arial;font-size:10;stroke:black;fill:black;">all.merged.bam</text>
</svg>
    
