<?xml version="1.0" encoding="utf-8" standalone="no"?>
<!DOCTYPE svg PUBLIC "-//W3C//DTD SVG 1.1//EN"
  "http://www.w3.org/Graphics/SVG/1.1/DTD/svg11.dtd">
<svg height="1140" width="1000" version="1.1" viewBox="0 0 1000 1140" xmlns="http://www.w3.org/2000/svg" xmlns:xlink="http://www.w3.org/1999/xlink">
<line x1="102" y1="11" x2="896" y2="11" stroke="black" stroke-width="1" />
<rect x="102" y="9" width="323" height="5" style="fill:#f50002;stroke:black;stroke-width:1;fill-opacity:1;stroke-opacity:0.3" />
<rect x="565" y="9" width="4" height="5" style="fill:#f50002;stroke:black;stroke-width:1;fill-opacity:1;stroke-opacity:0.3" />
<rect x="570" y="9" width="235" height="5" style="fill:#53a1b5;stroke:black;stroke-width:1;fill-opacity:1;stroke-opacity:0.3" />
<rect x="807" y="9" width="89" height="5" style="fill:#f50002;stroke:black;stroke-width:1;fill-opacity:1;stroke-opacity:0.3" />
<text x="102"  y="23" style="font-family:Arial;font-size:10;stroke:black;fill:black;">Cre02.g114550.t1.2.v5.5 (-) chromosome_2:6284479-6285254</text>
<line x1="104" y1="30" x2="123" y2="32" stroke="black" stroke-width="1" />
<line x1="123" y1="32" x2="143" y2="30" stroke="black" stroke-width="1" />
<rect x="2" y="28" width="102" height="5" style="fill:#f5b024;stroke:black;stroke-width:1;fill-opacity:1;stroke-opacity:0.3" />
<rect x="143" y="28" width="102" height="5" style="fill:#f5b024;stroke:black;stroke-width:1;fill-opacity:1;stroke-opacity:0.3" />
<line x1="168" y1="37" x2="173" y2="39" stroke="black" stroke-width="1" />
<line x1="173" y1="39" x2="179" y2="37" stroke="black" stroke-width="1" />
<rect x="14" y="35" width="153" height="5" style="fill:#f5b024;stroke:black;stroke-width:1;fill-opacity:1;stroke-opacity:0.3" />
<rect x="179" y="35" width="153" height="5" style="fill:#f5b024;stroke:black;stroke-width:1;fill-opacity:1;stroke-opacity:0.3" />
<line x1="118" y1="44" x2="130" y2="46" stroke="black" stroke-width="1" />
<line x1="130" y1="46" x2="142" y2="44" stroke="black" stroke-width="1" />
<rect x="16" y="42" width="102" height="5" style="fill:#f5b024;stroke:black;stroke-width:1;fill-opacity:1;stroke-opacity:0.3" />
<rect x="142" y="42" width="95" height="5" style="fill:#f5b024;stroke:black;stroke-width:1;fill-opacity:1;stroke-opacity:0.3" />
<line x1="172" y1="51" x2="199" y2="53" stroke="black" stroke-width="1" />
<line x1="199" y1="53" x2="227" y2="51" stroke="black" stroke-width="1" />
<rect x="18" y="49" width="153" height="5" style="fill:#f5b024;stroke:black;stroke-width:1;fill-opacity:1;stroke-opacity:0.3" />
<rect x="227" y="49" width="153" height="5" style="fill:#f5b024;stroke:black;stroke-width:1;fill-opacity:1;stroke-opacity:0.3" />
<line x1="134" y1="58" x2="140" y2="60" stroke="black" stroke-width="1" />
<line x1="140" y1="60" x2="146" y2="58" stroke="black" stroke-width="1" />
<rect x="35" y="56" width="98" height="5" style="fill:#f5b024;stroke:black;stroke-width:1;fill-opacity:1;stroke-opacity:0.3" />
<rect x="146" y="56" width="91" height="5" style="fill:#f5b024;stroke:black;stroke-width:1;fill-opacity:1;stroke-opacity:0.3" />
<line x1="145" y1="65" x2="150" y2="67" stroke="black" stroke-width="1" />
<line x1="150" y1="67" x2="156" y2="65" stroke="black" stroke-width="1" />
<rect x="43" y="63" width="102" height="5" style="fill:#f5b024;stroke:black;stroke-width:1;fill-opacity:1;stroke-opacity:0.3" />
<rect x="156" y="63" width="102" height="5" style="fill:#f5b024;stroke:black;stroke-width:1;fill-opacity:1;stroke-opacity:0.3" />
<line x1="211" y1="72" x2="222" y2="74" stroke="black" stroke-width="1" />
<line x1="222" y1="74" x2="234" y2="72" stroke="black" stroke-width="1" />
<rect x="63" y="70" width="147" height="5" style="fill:#f5b024;stroke:black;stroke-width:1;fill-opacity:1;stroke-opacity:0.3" />
<rect x="234" y="70" width="153" height="5" style="fill:#f5b024;stroke:black;stroke-width:1;fill-opacity:1;stroke-opacity:0.3" />
<line x1="274" y1="79" x2="300" y2="81" stroke="black" stroke-width="1" />
<line x1="300" y1="81" x2="326" y2="79" stroke="black" stroke-width="1" />
<rect x="120" y="77" width="153" height="5" style="fill:#f5b024;stroke:black;stroke-width:1;fill-opacity:1;stroke-opacity:0.3" />
<rect x="326" y="77" width="100" height="5" style="fill:#f5b024;stroke:black;stroke-width:1;fill-opacity:1;stroke-opacity:0.3" />
<line x1="427" y1="79" x2="565" y2="79" stroke="pink" stroke-width="1" />
<rect x="565" y="77" width="53" height="5" style="fill:#f5b024;stroke:black;stroke-width:1;fill-opacity:1;stroke-opacity:0.3" />
<line x1="257" y1="86" x2="277" y2="88" stroke="black" stroke-width="1" />
<line x1="277" y1="88" x2="297" y2="86" stroke="black" stroke-width="1" />
<rect x="154" y="84" width="102" height="5" style="fill:#f5b024;stroke:black;stroke-width:1;fill-opacity:1;stroke-opacity:0.3" />
<rect x="297" y="84" width="102" height="5" style="fill:#f5b024;stroke:black;stroke-width:1;fill-opacity:1;stroke-opacity:0.3" />
<line x1="263" y1="93" x2="279" y2="95" stroke="black" stroke-width="1" />
<line x1="279" y1="95" x2="295" y2="93" stroke="black" stroke-width="1" />
<rect x="160" y="91" width="102" height="5" style="fill:#f5b024;stroke:black;stroke-width:1;fill-opacity:1;stroke-opacity:0.3" />
<rect x="295" y="91" width="102" height="5" style="fill:#f5b024;stroke:black;stroke-width:1;fill-opacity:1;stroke-opacity:0.3" />
<line x1="328" y1="100" x2="335" y2="102" stroke="black" stroke-width="1" />
<line x1="335" y1="102" x2="342" y2="100" stroke="black" stroke-width="1" />
<rect x="178" y="98" width="150" height="5" style="fill:#f5b024;stroke:black;stroke-width:1;fill-opacity:1;stroke-opacity:0.3" />
<rect x="342" y="98" width="85" height="5" style="fill:#f5b024;stroke:black;stroke-width:1;fill-opacity:1;stroke-opacity:0.3" />
<line x1="427" y1="100" x2="565" y2="100" stroke="pink" stroke-width="1" />
<rect x="565" y="98" width="68" height="5" style="fill:#f5b024;stroke:black;stroke-width:1;fill-opacity:1;stroke-opacity:0.3" />
<line x1="287" y1="107" x2="300" y2="109" stroke="black" stroke-width="1" />
<line x1="300" y1="109" x2="313" y2="107" stroke="black" stroke-width="1" />
<rect x="185" y="105" width="102" height="5" style="fill:#f5b024;stroke:black;stroke-width:1;fill-opacity:1;stroke-opacity:0.3" />
<rect x="313" y="105" width="102" height="5" style="fill:#f5b024;stroke:black;stroke-width:1;fill-opacity:1;stroke-opacity:0.3" />
<line x1="299" y1="114" x2="310" y2="116" stroke="black" stroke-width="1" />
<line x1="310" y1="116" x2="322" y2="114" stroke="black" stroke-width="1" />
<rect x="196" y="112" width="102" height="5" style="fill:#f5b024;stroke:black;stroke-width:1;fill-opacity:1;stroke-opacity:0.3" />
<rect x="322" y="112" width="102" height="5" style="fill:#f5b024;stroke:black;stroke-width:1;fill-opacity:1;stroke-opacity:0.3" />
<line x1="322" y1="121" x2="329" y2="123" stroke="black" stroke-width="1" />
<line x1="329" y1="123" x2="336" y2="121" stroke="black" stroke-width="1" />
<rect x="220" y="119" width="102" height="5" style="fill:#f5b024;stroke:black;stroke-width:1;fill-opacity:1;stroke-opacity:0.3" />
<rect x="336" y="119" width="91" height="5" style="fill:#f5b024;stroke:black;stroke-width:1;fill-opacity:1;stroke-opacity:0.3" />
<line x1="427" y1="121" x2="565" y2="121" stroke="pink" stroke-width="1" />
<rect x="565" y="119" width="11" height="5" style="fill:#f5b024;stroke:black;stroke-width:1;fill-opacity:1;stroke-opacity:0.3" />
<line x1="327" y1="128" x2="340" y2="130" stroke="black" stroke-width="1" />
<line x1="340" y1="130" x2="353" y2="128" stroke="black" stroke-width="1" />
<rect x="225" y="126" width="102" height="5" style="fill:#f5b024;stroke:black;stroke-width:1;fill-opacity:1;stroke-opacity:0.3" />
<rect x="353" y="126" width="73" height="5" style="fill:#f5b024;stroke:black;stroke-width:1;fill-opacity:1;stroke-opacity:0.3" />
<line x1="427" y1="128" x2="565" y2="128" stroke="pink" stroke-width="1" />
<rect x="565" y="126" width="28" height="5" style="fill:#f5b024;stroke:black;stroke-width:1;fill-opacity:1;stroke-opacity:0.3" />
<line x1="353" y1="30" x2="366" y2="32" stroke="black" stroke-width="1" />
<line x1="366" y1="32" x2="379" y2="30" stroke="black" stroke-width="1" />
<rect x="251" y="28" width="102" height="5" style="fill:#f5b024;stroke:black;stroke-width:1;fill-opacity:1;stroke-opacity:0.3" />
<rect x="379" y="28" width="48" height="5" style="fill:#f5b024;stroke:black;stroke-width:1;fill-opacity:1;stroke-opacity:0.3" />
<line x1="427" y1="30" x2="565" y2="30" stroke="pink" stroke-width="1" />
<rect x="565" y="28" width="54" height="5" style="fill:#f5b024;stroke:black;stroke-width:1;fill-opacity:1;stroke-opacity:0.3" />
<line x1="360" y1="44" x2="369" y2="46" stroke="black" stroke-width="1" />
<line x1="369" y1="46" x2="378" y2="44" stroke="black" stroke-width="1" />
<rect x="258" y="42" width="102" height="5" style="fill:#f5b024;stroke:black;stroke-width:1;fill-opacity:1;stroke-opacity:0.3" />
<rect x="378" y="42" width="49" height="5" style="fill:#f5b024;stroke:black;stroke-width:1;fill-opacity:1;stroke-opacity:0.3" />
<line x1="427" y1="44" x2="565" y2="44" stroke="pink" stroke-width="1" />
<rect x="565" y="42" width="53" height="5" style="fill:#f5b024;stroke:black;stroke-width:1;fill-opacity:1;stroke-opacity:0.3" />
<line x1="360" y1="58" x2="463" y2="60" stroke="black" stroke-width="1" />
<line x1="463" y1="60" x2="567" y2="58" stroke="black" stroke-width="1" />
<rect x="260" y="56" width="100" height="5" style="fill:#5d3c2d;stroke:black;stroke-width:1;fill-opacity:1;stroke-opacity:0.3" />
<rect x="567" y="56" width="102" height="5" style="fill:#5d3c2d;stroke:black;stroke-width:1;fill-opacity:1;stroke-opacity:0.3" />
<line x1="361" y1="65" x2="385" y2="67" stroke="black" stroke-width="1" />
<line x1="385" y1="67" x2="409" y2="65" stroke="black" stroke-width="1" />
<rect x="260" y="63" width="101" height="5" style="fill:#f5b024;stroke:black;stroke-width:1;fill-opacity:1;stroke-opacity:0.3" />
<rect x="409" y="63" width="17" height="5" style="fill:#f5b024;stroke:black;stroke-width:1;fill-opacity:1;stroke-opacity:0.3" />
<line x1="427" y1="65" x2="565" y2="65" stroke="pink" stroke-width="1" />
<rect x="565" y="63" width="85" height="5" style="fill:#f5b024;stroke:black;stroke-width:1;fill-opacity:1;stroke-opacity:0.3" />
<line x1="362" y1="135" x2="468" y2="137" stroke="black" stroke-width="1" />
<line x1="468" y1="137" x2="574" y2="135" stroke="black" stroke-width="1" />
<rect x="260" y="133" width="102" height="5" style="fill:#f5b024;stroke:black;stroke-width:1;fill-opacity:1;stroke-opacity:0.3" />
<rect x="574" y="133" width="102" height="5" style="fill:#f5b024;stroke:black;stroke-width:1;fill-opacity:1;stroke-opacity:0.3" />
<line x1="362" y1="142" x2="371" y2="144" stroke="black" stroke-width="1" />
<line x1="371" y1="144" x2="381" y2="142" stroke="black" stroke-width="1" />
<rect x="260" y="140" width="102" height="5" style="fill:#f5b024;stroke:black;stroke-width:1;fill-opacity:1;stroke-opacity:0.3" />
<rect x="381" y="140" width="46" height="5" style="fill:#f5b024;stroke:black;stroke-width:1;fill-opacity:1;stroke-opacity:0.3" />
<line x1="427" y1="142" x2="565" y2="142" stroke="pink" stroke-width="1" />
<rect x="565" y="140" width="56" height="5" style="fill:#f5b024;stroke:black;stroke-width:1;fill-opacity:1;stroke-opacity:0.3" />
<line x1="363" y1="149" x2="472" y2="151" stroke="black" stroke-width="1" />
<line x1="472" y1="151" x2="582" y2="149" stroke="black" stroke-width="1" />
<rect x="261" y="147" width="102" height="5" style="fill:#f5b024;stroke:black;stroke-width:1;fill-opacity:1;stroke-opacity:0.3" />
<rect x="582" y="147" width="93" height="5" style="fill:#f5b024;stroke:black;stroke-width:1;fill-opacity:1;stroke-opacity:0.3" />
<line x1="363" y1="156" x2="472" y2="158" stroke="black" stroke-width="1" />
<line x1="472" y1="158" x2="582" y2="156" stroke="black" stroke-width="1" />
<rect x="261" y="154" width="102" height="5" style="fill:#f5b024;stroke:black;stroke-width:1;fill-opacity:1;stroke-opacity:0.3" />
<rect x="582" y="154" width="102" height="5" style="fill:#f5b024;stroke:black;stroke-width:1;fill-opacity:1;stroke-opacity:0.3" />
<line x1="362" y1="163" x2="372" y2="165" stroke="black" stroke-width="1" />
<line x1="372" y1="165" x2="382" y2="163" stroke="black" stroke-width="1" />
<rect x="261" y="161" width="101" height="5" style="fill:#f5b024;stroke:black;stroke-width:1;fill-opacity:1;stroke-opacity:0.3" />
<rect x="382" y="161" width="45" height="5" style="fill:#f5b024;stroke:black;stroke-width:1;fill-opacity:1;stroke-opacity:0.3" />
<line x1="427" y1="163" x2="565" y2="163" stroke="pink" stroke-width="1" />
<rect x="565" y="161" width="45" height="5" style="fill:#f5b024;stroke:black;stroke-width:1;fill-opacity:1;stroke-opacity:0.3" />
<line x1="574" y1="37" x2="580" y2="39" stroke="black" stroke-width="1" />
<line x1="580" y1="39" x2="587" y2="37" stroke="black" stroke-width="1" />
<rect x="334" y="35" width="93" height="5" style="fill:#f5b024;stroke:black;stroke-width:1;fill-opacity:1;stroke-opacity:0.3" />
<line x1="427" y1="37" x2="565" y2="37" stroke="pink" stroke-width="1" />
<rect x="565" y="35" width="9" height="5" style="fill:#f5b024;stroke:black;stroke-width:1;fill-opacity:1;stroke-opacity:0.3" />
<rect x="587" y="35" width="102" height="5" style="fill:#f5b024;stroke:black;stroke-width:1;fill-opacity:1;stroke-opacity:0.3" />
<line x1="626" y1="51" x2="643" y2="53" stroke="black" stroke-width="1" />
<line x1="643" y1="53" x2="661" y2="51" stroke="black" stroke-width="1" />
<rect x="385" y="49" width="42" height="5" style="fill:#f5b024;stroke:black;stroke-width:1;fill-opacity:1;stroke-opacity:0.3" />
<line x1="427" y1="51" x2="565" y2="51" stroke="pink" stroke-width="1" />
<rect x="565" y="49" width="60" height="5" style="fill:#f5b024;stroke:black;stroke-width:1;fill-opacity:1;stroke-opacity:0.3" />
<rect x="661" y="49" width="102" height="5" style="fill:#f5b024;stroke:black;stroke-width:1;fill-opacity:1;stroke-opacity:0.3" />
<line x1="640" y1="72" x2="656" y2="74" stroke="black" stroke-width="1" />
<line x1="656" y1="74" x2="673" y2="72" stroke="black" stroke-width="1" />
<rect x="400" y="70" width="26" height="5" style="fill:#f5b024;stroke:black;stroke-width:1;fill-opacity:1;stroke-opacity:0.3" />
<line x1="427" y1="72" x2="565" y2="72" stroke="pink" stroke-width="1" />
<rect x="565" y="70" width="74" height="5" style="fill:#f5b024;stroke:black;stroke-width:1;fill-opacity:1;stroke-opacity:0.3" />
<rect x="673" y="70" width="102" height="5" style="fill:#f5b024;stroke:black;stroke-width:1;fill-opacity:1;stroke-opacity:0.3" />
<line x1="664" y1="86" x2="676" y2="88" stroke="black" stroke-width="1" />
<line x1="676" y1="88" x2="688" y2="86" stroke="black" stroke-width="1" />
<rect x="562" y="84" width="102" height="5" style="fill:#f5b024;stroke:black;stroke-width:1;fill-opacity:1;stroke-opacity:0.3" />
<rect x="688" y="84" width="102" height="5" style="fill:#f5b024;stroke:black;stroke-width:1;fill-opacity:1;stroke-opacity:0.3" />
<line x1="716" y1="93" x2="739" y2="95" stroke="black" stroke-width="1" />
<line x1="739" y1="95" x2="762" y2="93" stroke="black" stroke-width="1" />
<rect x="613" y="91" width="102" height="5" style="fill:#f5b024;stroke:black;stroke-width:1;fill-opacity:1;stroke-opacity:0.3" />
<rect x="762" y="91" width="102" height="5" style="fill:#f5b024;stroke:black;stroke-width:1;fill-opacity:1;stroke-opacity:0.3" />
<line x1="716" y1="107" x2="732" y2="109" stroke="black" stroke-width="1" />
<line x1="732" y1="109" x2="748" y2="107" stroke="black" stroke-width="1" />
<rect x="614" y="105" width="101" height="5" style="fill:#f5b024;stroke:black;stroke-width:1;fill-opacity:1;stroke-opacity:0.3" />
<rect x="748" y="105" width="100" height="5" style="fill:#f5b024;stroke:black;stroke-width:1;fill-opacity:1;stroke-opacity:0.3" />
<line x1="768" y1="114" x2="780" y2="116" stroke="black" stroke-width="1" />
<line x1="780" y1="116" x2="792" y2="114" stroke="black" stroke-width="1" />
<rect x="615" y="112" width="152" height="5" style="fill:#f5b024;stroke:black;stroke-width:1;fill-opacity:1;stroke-opacity:0.3" />
<rect x="792" y="112" width="153" height="5" style="fill:#f5b024;stroke:black;stroke-width:1;fill-opacity:1;stroke-opacity:0.3" />
<line x1="718" y1="121" x2="734" y2="123" stroke="black" stroke-width="1" />
<line x1="734" y1="123" x2="751" y2="121" stroke="black" stroke-width="1" />
<rect x="615" y="119" width="102" height="5" style="fill:#f5b024;stroke:black;stroke-width:1;fill-opacity:1;stroke-opacity:0.3" />
<rect x="751" y="119" width="102" height="5" style="fill:#f5b024;stroke:black;stroke-width:1;fill-opacity:1;stroke-opacity:0.3" />
<line x1="721" y1="44" x2="736" y2="46" stroke="black" stroke-width="1" />
<line x1="736" y1="46" x2="751" y2="44" stroke="black" stroke-width="1" />
<rect x="618" y="42" width="102" height="5" style="fill:#f5b024;stroke:black;stroke-width:1;fill-opacity:1;stroke-opacity:0.3" />
<rect x="751" y="42" width="102" height="5" style="fill:#f5b024;stroke:black;stroke-width:1;fill-opacity:1;stroke-opacity:0.3" />
<line x1="722" y1="30" x2="750" y2="32" stroke="black" stroke-width="1" />
<line x1="750" y1="32" x2="778" y2="30" stroke="black" stroke-width="1" />
<rect x="619" y="28" width="102" height="5" style="fill:#f5b024;stroke:black;stroke-width:1;fill-opacity:1;stroke-opacity:0.3" />
<rect x="778" y="28" width="102" height="5" style="fill:#f5b024;stroke:black;stroke-width:1;fill-opacity:1;stroke-opacity:0.3" />
<line x1="722" y1="79" x2="736" y2="81" stroke="black" stroke-width="1" />
<line x1="736" y1="81" x2="751" y2="79" stroke="black" stroke-width="1" />
<rect x="619" y="77" width="102" height="5" style="fill:#f5b024;stroke:black;stroke-width:1;fill-opacity:1;stroke-opacity:0.3" />
<rect x="751" y="77" width="102" height="5" style="fill:#f5b024;stroke:black;stroke-width:1;fill-opacity:1;stroke-opacity:0.3" />
<line x1="722" y1="128" x2="731" y2="130" stroke="black" stroke-width="1" />
<line x1="731" y1="130" x2="741" y2="128" stroke="black" stroke-width="1" />
<rect x="619" y="126" width="102" height="5" style="fill:#f5b024;stroke:black;stroke-width:1;fill-opacity:1;stroke-opacity:0.3" />
<rect x="741" y="126" width="102" height="5" style="fill:#f5b024;stroke:black;stroke-width:1;fill-opacity:1;stroke-opacity:0.3" />
<line x1="775" y1="142" x2="806" y2="144" stroke="black" stroke-width="1" />
<line x1="806" y1="144" x2="837" y2="142" stroke="black" stroke-width="1" />
<rect x="621" y="140" width="153" height="5" style="fill:#f5b024;stroke:black;stroke-width:1;fill-opacity:1;stroke-opacity:0.3" />
<rect x="837" y="140" width="153" height="5" style="fill:#f5b024;stroke:black;stroke-width:1;fill-opacity:1;stroke-opacity:0.3" />
<line x1="724" y1="163" x2="730" y2="165" stroke="black" stroke-width="1" />
<line x1="730" y1="165" x2="736" y2="163" stroke="black" stroke-width="1" />
<rect x="621" y="161" width="102" height="5" style="fill:#f5b024;stroke:black;stroke-width:1;fill-opacity:1;stroke-opacity:0.3" />
<rect x="736" y="161" width="102" height="5" style="fill:#f5b024;stroke:black;stroke-width:1;fill-opacity:1;stroke-opacity:0.3" />
<line x1="735" y1="100" x2="741" y2="102" stroke="black" stroke-width="1" />
<line x1="741" y1="102" x2="748" y2="100" stroke="black" stroke-width="1" />
<rect x="637" y="98" width="98" height="5" style="fill:#f5b024;stroke:black;stroke-width:1;fill-opacity:1;stroke-opacity:0.3" />
<rect x="748" y="98" width="102" height="5" style="fill:#f5b024;stroke:black;stroke-width:1;fill-opacity:1;stroke-opacity:0.3" />
<line x1="754" y1="65" x2="770" y2="67" stroke="black" stroke-width="1" />
<line x1="770" y1="67" x2="787" y2="65" stroke="black" stroke-width="1" />
<rect x="651" y="63" width="102" height="5" style="fill:#f5b024;stroke:black;stroke-width:1;fill-opacity:1;stroke-opacity:0.3" />
<rect x="787" y="63" width="102" height="5" style="fill:#f5b024;stroke:black;stroke-width:1;fill-opacity:1;stroke-opacity:0.3" />
<line x1="782" y1="58" x2="798" y2="60" stroke="black" stroke-width="1" />
<line x1="798" y1="60" x2="814" y2="58" stroke="black" stroke-width="1" />
<rect x="680" y="56" width="102" height="5" style="fill:#f5b024;stroke:black;stroke-width:1;fill-opacity:1;stroke-opacity:0.3" />
<rect x="814" y="56" width="102" height="5" style="fill:#f5b024;stroke:black;stroke-width:1;fill-opacity:1;stroke-opacity:0.3" />
<line x1="781" y1="135" x2="792" y2="137" stroke="black" stroke-width="1" />
<line x1="792" y1="137" x2="803" y2="135" stroke="black" stroke-width="1" />
<rect x="680" y="133" width="101" height="5" style="fill:#f5b024;stroke:black;stroke-width:1;fill-opacity:1;stroke-opacity:0.3" />
<rect x="803" y="133" width="102" height="5" style="fill:#f5b024;stroke:black;stroke-width:1;fill-opacity:1;stroke-opacity:0.3" />
<line x1="816" y1="37" x2="832" y2="39" stroke="black" stroke-width="1" />
<line x1="832" y1="39" x2="849" y2="37" stroke="black" stroke-width="1" />
<rect x="714" y="35" width="102" height="5" style="fill:#f5b024;stroke:black;stroke-width:1;fill-opacity:1;stroke-opacity:0.3" />
<rect x="849" y="35" width="102" height="5" style="fill:#f5b024;stroke:black;stroke-width:1;fill-opacity:1;stroke-opacity:0.3" />
<line x1="826" y1="149" x2="839" y2="151" stroke="black" stroke-width="1" />
<line x1="839" y1="151" x2="852" y2="149" stroke="black" stroke-width="1" />
<rect x="724" y="147" width="102" height="5" style="fill:#f5b024;stroke:black;stroke-width:1;fill-opacity:1;stroke-opacity:0.3" />
<rect x="852" y="147" width="102" height="5" style="fill:#f5b024;stroke:black;stroke-width:1;fill-opacity:1;stroke-opacity:0.3" />
<line x1="826" y1="156" x2="855" y2="158" stroke="black" stroke-width="1" />
<line x1="855" y1="158" x2="885" y2="156" stroke="black" stroke-width="1" />
<rect x="724" y="154" width="102" height="5" style="fill:#f5b024;stroke:black;stroke-width:1;fill-opacity:1;stroke-opacity:0.3" />
<rect x="885" y="154" width="102" height="5" style="fill:#f5b024;stroke:black;stroke-width:1;fill-opacity:1;stroke-opacity:0.3" />
<line x1="871" y1="51" x2="879" y2="53" stroke="black" stroke-width="1" />
<line x1="879" y1="53" x2="888" y2="51" stroke="black" stroke-width="1" />
<rect x="769" y="49" width="102" height="5" style="fill:#f5b024;stroke:black;stroke-width:1;fill-opacity:1;stroke-opacity:0.3" />
<rect x="888" y="49" width="102" height="5" style="fill:#f5b024;stroke:black;stroke-width:1;fill-opacity:1;stroke-opacity:0.3" />
<text x="15"  y="176" style="font-family:Arial;font-size:10;stroke:black;fill:black;">all.merged.bam</text>
</svg>
    
