<?xml version="1.0" encoding="utf-8" standalone="no"?>
<!DOCTYPE svg PUBLIC "-//W3C//DTD SVG 1.1//EN"
  "http://www.w3.org/Graphics/SVG/1.1/DTD/svg11.dtd">
<svg height="1140" width="1000" version="1.1" viewBox="0 0 1000 1140" xmlns="http://www.w3.org/2000/svg" xmlns:xlink="http://www.w3.org/1999/xlink">
<line x1="12" y1="11" x2="987" y2="11" stroke="black" stroke-width="1" />
<rect x="12" y="9" width="235" height="5" style="fill:#f50002;stroke:black;stroke-width:1;fill-opacity:1;stroke-opacity:0.3" />
<rect x="248" y="9" width="45" height="5" style="fill:#53a1b5;stroke:black;stroke-width:1;fill-opacity:1;stroke-opacity:0.3" />
<rect x="293" y="9" width="2" height="5" style="fill:#f50002;stroke:black;stroke-width:1;fill-opacity:1;stroke-opacity:0.3" />
<rect x="981" y="9" width="6" height="5" style="fill:#f50002;stroke:black;stroke-width:1;fill-opacity:1;stroke-opacity:0.3" />
<text x="12"  y="23" style="font-family:Arial;font-size:10;stroke:black;fill:black;">Cre08.g363267.t1.1.v5.5 (-) chromosome_8:1231837-1239842</text>
<line x1="63" y1="30" x2="64" y2="32" stroke="black" stroke-width="1" />
<line x1="64" y1="32" x2="65" y2="30" stroke="black" stroke-width="1" />
<rect x="51" y="28" width="12" height="5" style="fill:#f5b024;stroke:black;stroke-width:1;fill-opacity:1;stroke-opacity:0.3" />
<rect x="65" y="28" width="12" height="5" style="fill:#f5b024;stroke:black;stroke-width:1;fill-opacity:1;stroke-opacity:0.3" />
<line x1="83" y1="37" x2="85" y2="39" stroke="black" stroke-width="1" />
<line x1="85" y1="39" x2="88" y2="37" stroke="black" stroke-width="1" />
<rect x="71" y="35" width="12" height="5" style="fill:#5d3c2d;stroke:black;stroke-width:1;fill-opacity:1;stroke-opacity:0.3" />
<rect x="88" y="35" width="12" height="5" style="fill:#5d3c2d;stroke:black;stroke-width:1;fill-opacity:1;stroke-opacity:0.3" />
<line x1="83" y1="44" x2="85" y2="46" stroke="black" stroke-width="1" />
<line x1="85" y1="46" x2="88" y2="44" stroke="black" stroke-width="1" />
<rect x="71" y="42" width="12" height="5" style="fill:#5d3c2d;stroke:black;stroke-width:1;fill-opacity:1;stroke-opacity:0.3" />
<rect x="88" y="42" width="12" height="5" style="fill:#5d3c2d;stroke:black;stroke-width:1;fill-opacity:1;stroke-opacity:0.3" />
<line x1="98" y1="30" x2="99" y2="32" stroke="black" stroke-width="1" />
<line x1="99" y1="32" x2="101" y2="30" stroke="black" stroke-width="1" />
<rect x="86" y="28" width="12" height="5" style="fill:#f5b024;stroke:black;stroke-width:1;fill-opacity:1;stroke-opacity:0.3" />
<rect x="101" y="28" width="12" height="5" style="fill:#f5b024;stroke:black;stroke-width:1;fill-opacity:1;stroke-opacity:0.3" />
<line x1="103" y1="51" x2="105" y2="53" stroke="black" stroke-width="1" />
<line x1="105" y1="53" x2="107" y2="51" stroke="black" stroke-width="1" />
<rect x="91" y="49" width="12" height="5" style="fill:#f5b024;stroke:black;stroke-width:1;fill-opacity:1;stroke-opacity:0.3" />
<rect x="107" y="49" width="12" height="5" style="fill:#f5b024;stroke:black;stroke-width:1;fill-opacity:1;stroke-opacity:0.3" />
<line x1="103" y1="58" x2="104" y2="60" stroke="black" stroke-width="1" />
<line x1="104" y1="60" x2="106" y2="58" stroke="black" stroke-width="1" />
<rect x="91" y="56" width="12" height="5" style="fill:#f5b024;stroke:black;stroke-width:1;fill-opacity:1;stroke-opacity:0.3" />
<rect x="106" y="56" width="12" height="5" style="fill:#f5b024;stroke:black;stroke-width:1;fill-opacity:1;stroke-opacity:0.3" />
<line x1="104" y1="65" x2="110" y2="67" stroke="black" stroke-width="1" />
<line x1="110" y1="67" x2="116" y2="65" stroke="black" stroke-width="1" />
<rect x="92" y="63" width="12" height="5" style="fill:#5d3c2d;stroke:black;stroke-width:1;fill-opacity:1;stroke-opacity:0.3" />
<rect x="116" y="63" width="12" height="5" style="fill:#5d3c2d;stroke:black;stroke-width:1;fill-opacity:1;stroke-opacity:0.3" />
<line x1="109" y1="72" x2="113" y2="74" stroke="black" stroke-width="1" />
<line x1="113" y1="74" x2="117" y2="72" stroke="black" stroke-width="1" />
<rect x="97" y="70" width="12" height="5" style="fill:#5d3c2d;stroke:black;stroke-width:1;fill-opacity:1;stroke-opacity:0.3" />
<rect x="117" y="70" width="12" height="5" style="fill:#5d3c2d;stroke:black;stroke-width:1;fill-opacity:1;stroke-opacity:0.3" />
<line x1="109" y1="79" x2="110" y2="81" stroke="black" stroke-width="1" />
<line x1="110" y1="81" x2="111" y2="79" stroke="black" stroke-width="1" />
<rect x="97" y="77" width="12" height="5" style="fill:#5d3c2d;stroke:black;stroke-width:1;fill-opacity:1;stroke-opacity:0.3" />
<rect x="111" y="77" width="12" height="5" style="fill:#5d3c2d;stroke:black;stroke-width:1;fill-opacity:1;stroke-opacity:0.3" />
<line x1="136" y1="30" x2="140" y2="32" stroke="black" stroke-width="1" />
<line x1="140" y1="32" x2="145" y2="30" stroke="black" stroke-width="1" />
<rect x="124" y="28" width="12" height="5" style="fill:#5d3c2d;stroke:black;stroke-width:1;fill-opacity:1;stroke-opacity:0.3" />
<rect x="145" y="28" width="12" height="5" style="fill:#5d3c2d;stroke:black;stroke-width:1;fill-opacity:1;stroke-opacity:0.3" />
<line x1="145" y1="37" x2="146" y2="39" stroke="black" stroke-width="1" />
<line x1="146" y1="39" x2="147" y2="37" stroke="black" stroke-width="1" />
<rect x="132" y="35" width="12" height="5" style="fill:#5d3c2d;stroke:black;stroke-width:1;fill-opacity:1;stroke-opacity:0.3" />
<rect x="147" y="35" width="12" height="5" style="fill:#5d3c2d;stroke:black;stroke-width:1;fill-opacity:1;stroke-opacity:0.3" />
<line x1="145" y1="44" x2="146" y2="46" stroke="black" stroke-width="1" />
<line x1="146" y1="46" x2="147" y2="44" stroke="black" stroke-width="1" />
<rect x="133" y="42" width="12" height="5" style="fill:#5d3c2d;stroke:black;stroke-width:1;fill-opacity:1;stroke-opacity:0.3" />
<rect x="147" y="42" width="12" height="5" style="fill:#5d3c2d;stroke:black;stroke-width:1;fill-opacity:1;stroke-opacity:0.3" />
<line x1="149" y1="51" x2="153" y2="53" stroke="black" stroke-width="1" />
<line x1="153" y1="53" x2="158" y2="51" stroke="black" stroke-width="1" />
<rect x="136" y="49" width="12" height="5" style="fill:#f5b024;stroke:black;stroke-width:1;fill-opacity:1;stroke-opacity:0.3" />
<rect x="158" y="49" width="12" height="5" style="fill:#f5b024;stroke:black;stroke-width:1;fill-opacity:1;stroke-opacity:0.3" />
<line x1="150" y1="58" x2="153" y2="60" stroke="black" stroke-width="1" />
<line x1="153" y1="60" x2="156" y2="58" stroke="black" stroke-width="1" />
<rect x="138" y="56" width="12" height="5" style="fill:#f5b024;stroke:black;stroke-width:1;fill-opacity:1;stroke-opacity:0.3" />
<rect x="156" y="56" width="12" height="5" style="fill:#f5b024;stroke:black;stroke-width:1;fill-opacity:1;stroke-opacity:0.3" />
<line x1="152" y1="65" x2="153" y2="67" stroke="black" stroke-width="1" />
<line x1="153" y1="67" x2="155" y2="65" stroke="black" stroke-width="1" />
<rect x="140" y="63" width="12" height="5" style="fill:#f5b024;stroke:black;stroke-width:1;fill-opacity:1;stroke-opacity:0.3" />
<rect x="155" y="63" width="12" height="5" style="fill:#f5b024;stroke:black;stroke-width:1;fill-opacity:1;stroke-opacity:0.3" />
<line x1="153" y1="72" x2="154" y2="74" stroke="black" stroke-width="1" />
<line x1="154" y1="74" x2="155" y2="72" stroke="black" stroke-width="1" />
<rect x="141" y="70" width="12" height="5" style="fill:#f5b024;stroke:black;stroke-width:1;fill-opacity:1;stroke-opacity:0.3" />
<rect x="155" y="70" width="12" height="5" style="fill:#f5b024;stroke:black;stroke-width:1;fill-opacity:1;stroke-opacity:0.3" />
<line x1="153" y1="79" x2="155" y2="81" stroke="black" stroke-width="1" />
<line x1="155" y1="81" x2="157" y2="79" stroke="black" stroke-width="1" />
<rect x="141" y="77" width="12" height="5" style="fill:#f5b024;stroke:black;stroke-width:1;fill-opacity:1;stroke-opacity:0.3" />
<rect x="157" y="77" width="12" height="5" style="fill:#f5b024;stroke:black;stroke-width:1;fill-opacity:1;stroke-opacity:0.3" />
<line x1="153" y1="86" x2="155" y2="88" stroke="black" stroke-width="1" />
<line x1="155" y1="88" x2="158" y2="86" stroke="black" stroke-width="1" />
<rect x="141" y="84" width="11" height="5" style="fill:#f5b024;stroke:black;stroke-width:1;fill-opacity:1;stroke-opacity:0.3" />
<rect x="158" y="84" width="12" height="5" style="fill:#f5b024;stroke:black;stroke-width:1;fill-opacity:1;stroke-opacity:0.3" />
<line x1="153" y1="93" x2="154" y2="95" stroke="black" stroke-width="1" />
<line x1="154" y1="95" x2="155" y2="93" stroke="black" stroke-width="1" />
<rect x="141" y="91" width="12" height="5" style="fill:#f5b024;stroke:black;stroke-width:1;fill-opacity:1;stroke-opacity:0.3" />
<rect x="155" y="91" width="12" height="5" style="fill:#f5b024;stroke:black;stroke-width:1;fill-opacity:1;stroke-opacity:0.3" />
<line x1="153" y1="100" x2="154" y2="102" stroke="black" stroke-width="1" />
<line x1="154" y1="102" x2="156" y2="100" stroke="black" stroke-width="1" />
<rect x="141" y="98" width="11" height="5" style="fill:#f5b024;stroke:black;stroke-width:1;fill-opacity:1;stroke-opacity:0.3" />
<rect x="156" y="98" width="12" height="5" style="fill:#f5b024;stroke:black;stroke-width:1;fill-opacity:1;stroke-opacity:0.3" />
<line x1="154" y1="107" x2="157" y2="109" stroke="black" stroke-width="1" />
<line x1="157" y1="109" x2="160" y2="107" stroke="black" stroke-width="1" />
<rect x="141" y="105" width="12" height="5" style="fill:#f5b024;stroke:black;stroke-width:1;fill-opacity:1;stroke-opacity:0.3" />
<rect x="160" y="105" width="12" height="5" style="fill:#f5b024;stroke:black;stroke-width:1;fill-opacity:1;stroke-opacity:0.3" />
<line x1="153" y1="114" x2="154" y2="116" stroke="black" stroke-width="1" />
<line x1="154" y1="116" x2="155" y2="114" stroke="black" stroke-width="1" />
<rect x="141" y="112" width="11" height="5" style="fill:#f5b024;stroke:black;stroke-width:1;fill-opacity:1;stroke-opacity:0.3" />
<rect x="155" y="112" width="12" height="5" style="fill:#f5b024;stroke:black;stroke-width:1;fill-opacity:1;stroke-opacity:0.3" />
<line x1="154" y1="121" x2="154" y2="123" stroke="black" stroke-width="1" />
<line x1="154" y1="123" x2="155" y2="121" stroke="black" stroke-width="1" />
<rect x="141" y="119" width="12" height="5" style="fill:#f5b024;stroke:black;stroke-width:1;fill-opacity:1;stroke-opacity:0.3" />
<rect x="155" y="119" width="12" height="5" style="fill:#f5b024;stroke:black;stroke-width:1;fill-opacity:1;stroke-opacity:0.3" />
<line x1="153" y1="128" x2="154" y2="130" stroke="black" stroke-width="1" />
<line x1="154" y1="130" x2="155" y2="128" stroke="black" stroke-width="1" />
<rect x="141" y="126" width="11" height="5" style="fill:#f5b024;stroke:black;stroke-width:1;fill-opacity:1;stroke-opacity:0.3" />
<rect x="155" y="126" width="12" height="5" style="fill:#f5b024;stroke:black;stroke-width:1;fill-opacity:1;stroke-opacity:0.3" />
<line x1="153" y1="135" x2="156" y2="137" stroke="black" stroke-width="1" />
<line x1="156" y1="137" x2="159" y2="135" stroke="black" stroke-width="1" />
<rect x="141" y="133" width="11" height="5" style="fill:#f5b024;stroke:black;stroke-width:1;fill-opacity:1;stroke-opacity:0.3" />
<rect x="159" y="133" width="12" height="5" style="fill:#f5b024;stroke:black;stroke-width:1;fill-opacity:1;stroke-opacity:0.3" />
<line x1="153" y1="142" x2="156" y2="144" stroke="black" stroke-width="1" />
<line x1="156" y1="144" x2="160" y2="142" stroke="black" stroke-width="1" />
<rect x="141" y="140" width="11" height="5" style="fill:#f5b024;stroke:black;stroke-width:1;fill-opacity:1;stroke-opacity:0.3" />
<rect x="160" y="140" width="12" height="5" style="fill:#f5b024;stroke:black;stroke-width:1;fill-opacity:1;stroke-opacity:0.3" />
<line x1="154" y1="149" x2="157" y2="151" stroke="black" stroke-width="1" />
<line x1="157" y1="151" x2="160" y2="149" stroke="black" stroke-width="1" />
<rect x="141" y="147" width="12" height="5" style="fill:#f5b024;stroke:black;stroke-width:1;fill-opacity:1;stroke-opacity:0.3" />
<rect x="160" y="147" width="12" height="5" style="fill:#f5b024;stroke:black;stroke-width:1;fill-opacity:1;stroke-opacity:0.3" />
<line x1="154" y1="156" x2="155" y2="158" stroke="black" stroke-width="1" />
<line x1="155" y1="158" x2="157" y2="156" stroke="black" stroke-width="1" />
<rect x="141" y="154" width="12" height="5" style="fill:#f5b024;stroke:black;stroke-width:1;fill-opacity:1;stroke-opacity:0.3" />
<rect x="157" y="154" width="12" height="5" style="fill:#f5b024;stroke:black;stroke-width:1;fill-opacity:1;stroke-opacity:0.3" />
<line x1="153" y1="163" x2="157" y2="165" stroke="black" stroke-width="1" />
<line x1="157" y1="165" x2="161" y2="163" stroke="black" stroke-width="1" />
<rect x="141" y="161" width="11" height="5" style="fill:#f5b024;stroke:black;stroke-width:1;fill-opacity:1;stroke-opacity:0.3" />
<rect x="161" y="161" width="12" height="5" style="fill:#f5b024;stroke:black;stroke-width:1;fill-opacity:1;stroke-opacity:0.3" />
<line x1="193" y1="30" x2="559" y2="32" stroke="black" stroke-width="1" />
<line x1="559" y1="32" x2="925" y2="30" stroke="black" stroke-width="1" />
<rect x="181" y="28" width="12" height="5" style="fill:#f5b024;stroke:black;stroke-width:1;fill-opacity:1;stroke-opacity:0.3" />
<rect x="925" y="28" width="11" height="5" style="fill:#f5b024;stroke:black;stroke-width:1;fill-opacity:1;stroke-opacity:0.3" />
<line x1="230" y1="37" x2="301" y2="39" stroke="black" stroke-width="1" />
<line x1="301" y1="39" x2="372" y2="37" stroke="black" stroke-width="1" />
<rect x="217" y="35" width="12" height="5" style="fill:#5d3c2d;stroke:black;stroke-width:1;fill-opacity:1;stroke-opacity:0.3" />
<rect x="372" y="35" width="12" height="5" style="fill:#5d3c2d;stroke:black;stroke-width:1;fill-opacity:1;stroke-opacity:0.3" />
<line x1="236" y1="44" x2="306" y2="46" stroke="black" stroke-width="1" />
<line x1="306" y1="46" x2="377" y2="44" stroke="black" stroke-width="1" />
<rect x="223" y="42" width="12" height="5" style="fill:#5d3c2d;stroke:black;stroke-width:1;fill-opacity:1;stroke-opacity:0.3" />
<rect x="377" y="42" width="12" height="5" style="fill:#5d3c2d;stroke:black;stroke-width:1;fill-opacity:1;stroke-opacity:0.3" />
<line x1="236" y1="51" x2="306" y2="53" stroke="black" stroke-width="1" />
<line x1="306" y1="53" x2="377" y2="51" stroke="black" stroke-width="1" />
<rect x="223" y="49" width="12" height="5" style="fill:#5d3c2d;stroke:black;stroke-width:1;fill-opacity:1;stroke-opacity:0.3" />
<rect x="377" y="49" width="12" height="5" style="fill:#5d3c2d;stroke:black;stroke-width:1;fill-opacity:1;stroke-opacity:0.3" />
<line x1="241" y1="58" x2="313" y2="60" stroke="black" stroke-width="1" />
<line x1="313" y1="60" x2="385" y2="58" stroke="black" stroke-width="1" />
<rect x="229" y="56" width="12" height="5" style="fill:#5d3c2d;stroke:black;stroke-width:1;fill-opacity:1;stroke-opacity:0.3" />
<rect x="385" y="56" width="12" height="5" style="fill:#5d3c2d;stroke:black;stroke-width:1;fill-opacity:1;stroke-opacity:0.3" />
<line x1="256" y1="65" x2="318" y2="67" stroke="black" stroke-width="1" />
<line x1="318" y1="67" x2="381" y2="65" stroke="black" stroke-width="1" />
<rect x="238" y="63" width="17" height="5" style="fill:#5d3c2d;stroke:black;stroke-width:1;fill-opacity:1;stroke-opacity:0.3" />
<rect x="381" y="63" width="17" height="5" style="fill:#5d3c2d;stroke:black;stroke-width:1;fill-opacity:1;stroke-opacity:0.3" />
<line x1="537" y1="37" x2="538" y2="39" stroke="black" stroke-width="1" />
<line x1="538" y1="39" x2="540" y2="37" stroke="black" stroke-width="1" />
<rect x="524" y="35" width="12" height="5" style="fill:#5d3c2d;stroke:black;stroke-width:1;fill-opacity:1;stroke-opacity:0.3" />
<rect x="540" y="35" width="11" height="5" style="fill:#5d3c2d;stroke:black;stroke-width:1;fill-opacity:1;stroke-opacity:0.3" />
<text x="15"  y="176" style="font-family:Arial;font-size:10;stroke:black;fill:black;">all.merged.bam</text>
</svg>
    
