<?xml version="1.0" encoding="utf-8" standalone="no"?>
<!DOCTYPE svg PUBLIC "-//W3C//DTD SVG 1.1//EN"
  "http://www.w3.org/Graphics/SVG/1.1/DTD/svg11.dtd">
<svg height="1140" width="1000" version="1.1" viewBox="0 0 1000 1140" xmlns="http://www.w3.org/2000/svg" xmlns:xlink="http://www.w3.org/1999/xlink">
<line x1="20" y1="11" x2="979" y2="11" stroke="black" stroke-width="1" />
<rect x="20" y="9" width="72" height="5" style="fill:#f50002;stroke:black;stroke-width:1;fill-opacity:1;stroke-opacity:0.3" />
<rect x="93" y="9" width="25" height="5" style="fill:#53a1b5;stroke:black;stroke-width:1;fill-opacity:1;stroke-opacity:0.3" />
<rect x="134" y="9" width="6" height="5" style="fill:#53a1b5;stroke:black;stroke-width:1;fill-opacity:1;stroke-opacity:0.3" />
<rect x="173" y="9" width="26" height="5" style="fill:#53a1b5;stroke:black;stroke-width:1;fill-opacity:1;stroke-opacity:0.3" />
<rect x="218" y="9" width="10" height="5" style="fill:#53a1b5;stroke:black;stroke-width:1;fill-opacity:1;stroke-opacity:0.3" />
<rect x="317" y="9" width="23" height="5" style="fill:#53a1b5;stroke:black;stroke-width:1;fill-opacity:1;stroke-opacity:0.3" />
<rect x="378" y="9" width="9" height="5" style="fill:#53a1b5;stroke:black;stroke-width:1;fill-opacity:1;stroke-opacity:0.3" />
<rect x="410" y="9" width="4" height="5" style="fill:#53a1b5;stroke:black;stroke-width:1;fill-opacity:1;stroke-opacity:0.3" />
<rect x="440" y="9" width="19" height="5" style="fill:#53a1b5;stroke:black;stroke-width:1;fill-opacity:1;stroke-opacity:0.3" />
<rect x="472" y="9" width="9" height="5" style="fill:#53a1b5;stroke:black;stroke-width:1;fill-opacity:1;stroke-opacity:0.3" />
<rect x="520" y="9" width="24" height="5" style="fill:#53a1b5;stroke:black;stroke-width:1;fill-opacity:1;stroke-opacity:0.3" />
<rect x="575" y="9" width="9" height="5" style="fill:#53a1b5;stroke:black;stroke-width:1;fill-opacity:1;stroke-opacity:0.3" />
<rect x="603" y="9" width="19" height="5" style="fill:#53a1b5;stroke:black;stroke-width:1;fill-opacity:1;stroke-opacity:0.3" />
<rect x="643" y="9" width="14" height="5" style="fill:#53a1b5;stroke:black;stroke-width:1;fill-opacity:1;stroke-opacity:0.3" />
<rect x="682" y="9" width="5" height="5" style="fill:#53a1b5;stroke:black;stroke-width:1;fill-opacity:1;stroke-opacity:0.3" />
<rect x="717" y="9" width="13" height="5" style="fill:#53a1b5;stroke:black;stroke-width:1;fill-opacity:1;stroke-opacity:0.3" />
<rect x="759" y="9" width="20" height="5" style="fill:#53a1b5;stroke:black;stroke-width:1;fill-opacity:1;stroke-opacity:0.3" />
<rect x="780" y="9" width="198" height="5" style="fill:#f50002;stroke:black;stroke-width:1;fill-opacity:1;stroke-opacity:0.3" />
<text x="20"  y="23" style="font-family:Arial;font-size:10;stroke:black;fill:black;">Cre02.g076987.t1.1.v5.5 (+) chromosome_2:509620-514238</text>
<line x1="200" y1="30" x2="259" y2="32" stroke="black" stroke-width="1" />
<line x1="259" y1="32" x2="318" y2="30" stroke="black" stroke-width="1" />
<rect x="180" y="28" width="20" height="5" style="fill:#5d3c2d;stroke:black;stroke-width:1;fill-opacity:1;stroke-opacity:0.3" />
<rect x="318" y="28" width="20" height="5" style="fill:#5d3c2d;stroke:black;stroke-width:1;fill-opacity:1;stroke-opacity:0.3" />
<line x1="337" y1="37" x2="357" y2="39" stroke="black" stroke-width="1" />
<line x1="357" y1="39" x2="378" y2="37" stroke="black" stroke-width="1" />
<rect x="317" y="35" width="20" height="5" style="fill:#5d3c2d;stroke:black;stroke-width:1;fill-opacity:1;stroke-opacity:0.3" />
<rect x="378" y="35" width="10" height="5" style="fill:#5d3c2d;stroke:black;stroke-width:1;fill-opacity:1;stroke-opacity:0.3" />
<line x1="388" y1="37" x2="410" y2="37" stroke="pink" stroke-width="1" />
<rect x="410" y="35" width="5" height="5" style="fill:#5d3c2d;stroke:black;stroke-width:1;fill-opacity:1;stroke-opacity:0.3" />
<line x1="415" y1="37" x2="440" y2="37" stroke="pink" stroke-width="1" />
<rect x="440" y="35" width="4" height="5" style="fill:#5d3c2d;stroke:black;stroke-width:1;fill-opacity:1;stroke-opacity:0.3" />
<line x1="476" y1="30" x2="478" y2="32" stroke="black" stroke-width="1" />
<line x1="478" y1="32" x2="480" y2="30" stroke="black" stroke-width="1" />
<rect x="442" y="28" width="17" height="5" style="fill:#5d3c2d;stroke:black;stroke-width:1;fill-opacity:1;stroke-opacity:0.3" />
<line x1="460" y1="30" x2="472" y2="30" stroke="pink" stroke-width="1" />
<rect x="472" y="28" width="3" height="5" style="fill:#5d3c2d;stroke:black;stroke-width:1;fill-opacity:1;stroke-opacity:0.3" />
<rect x="480" y="28" width="2" height="5" style="fill:#5d3c2d;stroke:black;stroke-width:1;fill-opacity:1;stroke-opacity:0.3" />
<line x1="482" y1="30" x2="520" y2="30" stroke="pink" stroke-width="1" />
<rect x="520" y="28" width="18" height="5" style="fill:#5d3c2d;stroke:black;stroke-width:1;fill-opacity:1;stroke-opacity:0.3" />
<line x1="526" y1="37" x2="554" y2="39" stroke="black" stroke-width="1" />
<line x1="554" y1="39" x2="582" y2="37" stroke="black" stroke-width="1" />
<rect x="455" y="35" width="4" height="5" style="fill:#5d3c2d;stroke:black;stroke-width:1;fill-opacity:1;stroke-opacity:0.3" />
<line x1="460" y1="37" x2="472" y2="37" stroke="pink" stroke-width="1" />
<rect x="472" y="35" width="10" height="5" style="fill:#5d3c2d;stroke:black;stroke-width:1;fill-opacity:1;stroke-opacity:0.3" />
<line x1="482" y1="37" x2="520" y2="37" stroke="pink" stroke-width="1" />
<rect x="520" y="35" width="6" height="5" style="fill:#5d3c2d;stroke:black;stroke-width:1;fill-opacity:1;stroke-opacity:0.3" />
<rect x="582" y="35" width="2" height="5" style="fill:#5d3c2d;stroke:black;stroke-width:1;fill-opacity:1;stroke-opacity:0.3" />
<line x1="585" y1="37" x2="603" y2="37" stroke="pink" stroke-width="1" />
<rect x="603" y="35" width="18" height="5" style="fill:#5d3c2d;stroke:black;stroke-width:1;fill-opacity:1;stroke-opacity:0.3" />
<line x1="537" y1="44" x2="539" y2="46" stroke="black" stroke-width="1" />
<line x1="539" y1="46" x2="541" y2="44" stroke="black" stroke-width="1" />
<rect x="456" y="42" width="3" height="5" style="fill:#5d3c2d;stroke:black;stroke-width:1;fill-opacity:1;stroke-opacity:0.3" />
<line x1="460" y1="44" x2="472" y2="44" stroke="pink" stroke-width="1" />
<rect x="472" y="42" width="10" height="5" style="fill:#5d3c2d;stroke:black;stroke-width:1;fill-opacity:1;stroke-opacity:0.3" />
<line x1="482" y1="44" x2="520" y2="44" stroke="pink" stroke-width="1" />
<rect x="520" y="42" width="17" height="5" style="fill:#5d3c2d;stroke:black;stroke-width:1;fill-opacity:1;stroke-opacity:0.3" />
<rect x="541" y="42" width="3" height="5" style="fill:#5d3c2d;stroke:black;stroke-width:1;fill-opacity:1;stroke-opacity:0.3" />
<line x1="545" y1="44" x2="575" y2="44" stroke="pink" stroke-width="1" />
<rect x="575" y="42" width="9" height="5" style="fill:#5d3c2d;stroke:black;stroke-width:1;fill-opacity:1;stroke-opacity:0.3" />
<line x1="585" y1="44" x2="603" y2="44" stroke="pink" stroke-width="1" />
<rect x="603" y="42" width="17" height="5" style="fill:#5d3c2d;stroke:black;stroke-width:1;fill-opacity:1;stroke-opacity:0.3" />
<line x1="533" y1="51" x2="537" y2="53" stroke="black" stroke-width="1" />
<line x1="537" y1="53" x2="542" y2="51" stroke="black" stroke-width="1" />
<rect x="474" y="49" width="8" height="5" style="fill:#5d3c2d;stroke:black;stroke-width:1;fill-opacity:1;stroke-opacity:0.3" />
<line x1="482" y1="51" x2="520" y2="51" stroke="pink" stroke-width="1" />
<rect x="520" y="49" width="12" height="5" style="fill:#5d3c2d;stroke:black;stroke-width:1;fill-opacity:1;stroke-opacity:0.3" />
<rect x="542" y="49" width="3" height="5" style="fill:#5d3c2d;stroke:black;stroke-width:1;fill-opacity:1;stroke-opacity:0.3" />
<line x1="545" y1="51" x2="575" y2="51" stroke="pink" stroke-width="1" />
<rect x="575" y="49" width="9" height="5" style="fill:#5d3c2d;stroke:black;stroke-width:1;fill-opacity:1;stroke-opacity:0.3" />
<line x1="585" y1="51" x2="603" y2="51" stroke="pink" stroke-width="1" />
<rect x="603" y="49" width="7" height="5" style="fill:#5d3c2d;stroke:black;stroke-width:1;fill-opacity:1;stroke-opacity:0.3" />
<line x1="611" y1="30" x2="613" y2="32" stroke="black" stroke-width="1" />
<line x1="613" y1="32" x2="615" y2="30" stroke="black" stroke-width="1" />
<rect x="542" y="28" width="2" height="5" style="fill:#5d3c2d;stroke:black;stroke-width:1;fill-opacity:1;stroke-opacity:0.3" />
<line x1="545" y1="30" x2="575" y2="30" stroke="pink" stroke-width="1" />
<rect x="575" y="28" width="9" height="5" style="fill:#5d3c2d;stroke:black;stroke-width:1;fill-opacity:1;stroke-opacity:0.3" />
<line x1="585" y1="30" x2="603" y2="30" stroke="pink" stroke-width="1" />
<rect x="603" y="28" width="7" height="5" style="fill:#5d3c2d;stroke:black;stroke-width:1;fill-opacity:1;stroke-opacity:0.3" />
<rect x="615" y="28" width="7" height="5" style="fill:#5d3c2d;stroke:black;stroke-width:1;fill-opacity:1;stroke-opacity:0.3" />
<line x1="622" y1="30" x2="643" y2="30" stroke="pink" stroke-width="1" />
<rect x="643" y="28" width="13" height="5" style="fill:#5d3c2d;stroke:black;stroke-width:1;fill-opacity:1;stroke-opacity:0.3" />
<line x1="611" y1="58" x2="613" y2="60" stroke="black" stroke-width="1" />
<line x1="613" y1="60" x2="615" y2="58" stroke="black" stroke-width="1" />
<rect x="542" y="56" width="2" height="5" style="fill:#5d3c2d;stroke:black;stroke-width:1;fill-opacity:1;stroke-opacity:0.3" />
<line x1="545" y1="58" x2="575" y2="58" stroke="pink" stroke-width="1" />
<rect x="575" y="56" width="9" height="5" style="fill:#5d3c2d;stroke:black;stroke-width:1;fill-opacity:1;stroke-opacity:0.3" />
<line x1="585" y1="58" x2="603" y2="58" stroke="pink" stroke-width="1" />
<rect x="603" y="56" width="7" height="5" style="fill:#5d3c2d;stroke:black;stroke-width:1;fill-opacity:1;stroke-opacity:0.3" />
<rect x="615" y="56" width="7" height="5" style="fill:#5d3c2d;stroke:black;stroke-width:1;fill-opacity:1;stroke-opacity:0.3" />
<line x1="622" y1="58" x2="643" y2="58" stroke="pink" stroke-width="1" />
<rect x="643" y="56" width="13" height="5" style="fill:#5d3c2d;stroke:black;stroke-width:1;fill-opacity:1;stroke-opacity:0.3" />
<line x1="611" y1="65" x2="613" y2="67" stroke="black" stroke-width="1" />
<line x1="613" y1="67" x2="615" y2="65" stroke="black" stroke-width="1" />
<rect x="542" y="63" width="2" height="5" style="fill:#5d3c2d;stroke:black;stroke-width:1;fill-opacity:1;stroke-opacity:0.3" />
<line x1="545" y1="65" x2="575" y2="65" stroke="pink" stroke-width="1" />
<rect x="575" y="63" width="9" height="5" style="fill:#5d3c2d;stroke:black;stroke-width:1;fill-opacity:1;stroke-opacity:0.3" />
<line x1="585" y1="65" x2="603" y2="65" stroke="pink" stroke-width="1" />
<rect x="603" y="63" width="7" height="5" style="fill:#5d3c2d;stroke:black;stroke-width:1;fill-opacity:1;stroke-opacity:0.3" />
<rect x="615" y="63" width="7" height="5" style="fill:#5d3c2d;stroke:black;stroke-width:1;fill-opacity:1;stroke-opacity:0.3" />
<line x1="622" y1="65" x2="643" y2="65" stroke="pink" stroke-width="1" />
<rect x="643" y="63" width="13" height="5" style="fill:#5d3c2d;stroke:black;stroke-width:1;fill-opacity:1;stroke-opacity:0.3" />
<line x1="653" y1="51" x2="667" y2="53" stroke="black" stroke-width="1" />
<line x1="667" y1="53" x2="682" y2="51" stroke="black" stroke-width="1" />
<rect x="612" y="49" width="10" height="5" style="fill:#5d3c2d;stroke:black;stroke-width:1;fill-opacity:1;stroke-opacity:0.3" />
<line x1="622" y1="51" x2="643" y2="51" stroke="pink" stroke-width="1" />
<rect x="643" y="49" width="10" height="5" style="fill:#5d3c2d;stroke:black;stroke-width:1;fill-opacity:1;stroke-opacity:0.3" />
<rect x="682" y="49" width="5" height="5" style="fill:#5d3c2d;stroke:black;stroke-width:1;fill-opacity:1;stroke-opacity:0.3" />
<line x1="687" y1="51" x2="717" y2="51" stroke="pink" stroke-width="1" />
<rect x="717" y="49" width="13" height="5" style="fill:#5d3c2d;stroke:black;stroke-width:1;fill-opacity:1;stroke-opacity:0.3" />
<line x1="731" y1="51" x2="759" y2="51" stroke="pink" stroke-width="1" />
<rect x="759" y="49" width="0" height="5" style="fill:#5d3c2d;stroke:black;stroke-width:1;fill-opacity:1;stroke-opacity:0.3" />
<line x1="775" y1="30" x2="776" y2="32" stroke="black" stroke-width="1" />
<line x1="776" y1="32" x2="778" y2="30" stroke="black" stroke-width="1" />
<rect x="727" y="28" width="4" height="5" style="fill:#5d3c2d;stroke:black;stroke-width:1;fill-opacity:1;stroke-opacity:0.3" />
<line x1="731" y1="30" x2="759" y2="30" stroke="pink" stroke-width="1" />
<rect x="759" y="28" width="16" height="5" style="fill:#5d3c2d;stroke:black;stroke-width:1;fill-opacity:1;stroke-opacity:0.3" />
<rect x="778" y="28" width="20" height="5" style="fill:#5d3c2d;stroke:black;stroke-width:1;fill-opacity:1;stroke-opacity:0.3" />
<line x1="762" y1="37" x2="763" y2="39" stroke="black" stroke-width="1" />
<line x1="763" y1="39" x2="765" y2="37" stroke="black" stroke-width="1" />
<rect x="742" y="35" width="20" height="5" style="fill:#5d3c2d;stroke:black;stroke-width:1;fill-opacity:1;stroke-opacity:0.3" />
<rect x="765" y="35" width="20" height="5" style="fill:#5d3c2d;stroke:black;stroke-width:1;fill-opacity:1;stroke-opacity:0.3" />
<line x1="801" y1="44" x2="805" y2="46" stroke="black" stroke-width="1" />
<line x1="805" y1="46" x2="809" y2="44" stroke="black" stroke-width="1" />
<rect x="770" y="42" width="31" height="5" style="fill:#5d3c2d;stroke:black;stroke-width:1;fill-opacity:1;stroke-opacity:0.3" />
<rect x="809" y="42" width="30" height="5" style="fill:#5d3c2d;stroke:black;stroke-width:1;fill-opacity:1;stroke-opacity:0.3" />
<line x1="793" y1="51" x2="802" y2="53" stroke="black" stroke-width="1" />
<line x1="802" y1="53" x2="811" y2="51" stroke="black" stroke-width="1" />
<rect x="773" y="49" width="20" height="5" style="fill:#5d3c2d;stroke:black;stroke-width:1;fill-opacity:1;stroke-opacity:0.3" />
<rect x="811" y="49" width="20" height="5" style="fill:#5d3c2d;stroke:black;stroke-width:1;fill-opacity:1;stroke-opacity:0.3" />
<line x1="798" y1="58" x2="799" y2="60" stroke="black" stroke-width="1" />
<line x1="799" y1="60" x2="801" y2="58" stroke="black" stroke-width="1" />
<rect x="777" y="56" width="20" height="5" style="fill:#5d3c2d;stroke:black;stroke-width:1;fill-opacity:1;stroke-opacity:0.3" />
<rect x="801" y="56" width="20" height="5" style="fill:#5d3c2d;stroke:black;stroke-width:1;fill-opacity:1;stroke-opacity:0.3" />
<line x1="813" y1="37" x2="824" y2="39" stroke="black" stroke-width="1" />
<line x1="824" y1="39" x2="835" y2="37" stroke="black" stroke-width="1" />
<rect x="793" y="35" width="20" height="5" style="fill:#5d3c2d;stroke:black;stroke-width:1;fill-opacity:1;stroke-opacity:0.3" />
<rect x="835" y="35" width="20" height="5" style="fill:#5d3c2d;stroke:black;stroke-width:1;fill-opacity:1;stroke-opacity:0.3" />
<line x1="838" y1="30" x2="847" y2="32" stroke="black" stroke-width="1" />
<line x1="847" y1="32" x2="856" y2="30" stroke="black" stroke-width="1" />
<rect x="808" y="28" width="29" height="5" style="fill:#5d3c2d;stroke:black;stroke-width:1;fill-opacity:1;stroke-opacity:0.3" />
<rect x="856" y="28" width="7" height="5" style="fill:#5d3c2d;stroke:black;stroke-width:1;fill-opacity:1;stroke-opacity:0.3" />
<rect x="863" y="28" width="24" height="5" style="fill:#5d3c2d;stroke:black;stroke-width:1;fill-opacity:1;stroke-opacity:0.3" />
<line x1="848" y1="58" x2="857" y2="60" stroke="black" stroke-width="1" />
<line x1="857" y1="60" x2="867" y2="58" stroke="black" stroke-width="1" />
<rect x="827" y="56" width="20" height="5" style="fill:#5d3c2d;stroke:black;stroke-width:1;fill-opacity:1;stroke-opacity:0.3" />
<rect x="867" y="56" width="20" height="5" style="fill:#5d3c2d;stroke:black;stroke-width:1;fill-opacity:1;stroke-opacity:0.3" />
<line x1="857" y1="51" x2="862" y2="53" stroke="black" stroke-width="1" />
<line x1="862" y1="53" x2="867" y2="51" stroke="black" stroke-width="1" />
<rect x="836" y="49" width="20" height="5" style="fill:#5d3c2d;stroke:black;stroke-width:1;fill-opacity:1;stroke-opacity:0.3" />
<rect x="867" y="49" width="20" height="5" style="fill:#5d3c2d;stroke:black;stroke-width:1;fill-opacity:1;stroke-opacity:0.3" />
<line x1="857" y1="65" x2="860" y2="67" stroke="black" stroke-width="1" />
<line x1="860" y1="67" x2="863" y2="65" stroke="black" stroke-width="1" />
<rect x="837" y="63" width="20" height="5" style="fill:#f5b024;stroke:black;stroke-width:1;fill-opacity:1;stroke-opacity:0.3" />
<rect x="863" y="63" width="20" height="5" style="fill:#f5b024;stroke:black;stroke-width:1;fill-opacity:1;stroke-opacity:0.3" />
<line x1="862" y1="44" x2="864" y2="46" stroke="black" stroke-width="1" />
<line x1="864" y1="46" x2="867" y2="44" stroke="black" stroke-width="1" />
<rect x="841" y="42" width="20" height="5" style="fill:#5d3c2d;stroke:black;stroke-width:1;fill-opacity:1;stroke-opacity:0.3" />
<rect x="867" y="42" width="20" height="5" style="fill:#5d3c2d;stroke:black;stroke-width:1;fill-opacity:1;stroke-opacity:0.3" />
<line x1="879" y1="37" x2="882" y2="39" stroke="black" stroke-width="1" />
<line x1="882" y1="39" x2="885" y2="37" stroke="black" stroke-width="1" />
<rect x="858" y="35" width="20" height="5" style="fill:#5d3c2d;stroke:black;stroke-width:1;fill-opacity:1;stroke-opacity:0.3" />
<rect x="885" y="35" width="20" height="5" style="fill:#5d3c2d;stroke:black;stroke-width:1;fill-opacity:1;stroke-opacity:0.3" />
<line x1="879" y1="72" x2="882" y2="74" stroke="black" stroke-width="1" />
<line x1="882" y1="74" x2="885" y2="72" stroke="black" stroke-width="1" />
<rect x="858" y="70" width="20" height="5" style="fill:#5d3c2d;stroke:black;stroke-width:1;fill-opacity:1;stroke-opacity:0.3" />
<rect x="885" y="70" width="20" height="5" style="fill:#5d3c2d;stroke:black;stroke-width:1;fill-opacity:1;stroke-opacity:0.3" />
<line x1="884" y1="79" x2="892" y2="81" stroke="black" stroke-width="1" />
<line x1="892" y1="81" x2="901" y2="79" stroke="black" stroke-width="1" />
<rect x="863" y="77" width="20" height="5" style="fill:#5d3c2d;stroke:black;stroke-width:1;fill-opacity:1;stroke-opacity:0.3" />
<rect x="901" y="77" width="20" height="5" style="fill:#5d3c2d;stroke:black;stroke-width:1;fill-opacity:1;stroke-opacity:0.3" />
<line x1="901" y1="86" x2="904" y2="88" stroke="black" stroke-width="1" />
<line x1="904" y1="88" x2="907" y2="86" stroke="black" stroke-width="1" />
<rect x="880" y="84" width="20" height="5" style="fill:#5d3c2d;stroke:black;stroke-width:1;fill-opacity:1;stroke-opacity:0.3" />
<rect x="907" y="84" width="20" height="5" style="fill:#5d3c2d;stroke:black;stroke-width:1;fill-opacity:1;stroke-opacity:0.3" />
<line x1="904" y1="93" x2="906" y2="95" stroke="black" stroke-width="1" />
<line x1="906" y1="95" x2="909" y2="93" stroke="black" stroke-width="1" />
<rect x="883" y="91" width="20" height="5" style="fill:#5d3c2d;stroke:black;stroke-width:1;fill-opacity:1;stroke-opacity:0.3" />
<rect x="909" y="91" width="20" height="5" style="fill:#5d3c2d;stroke:black;stroke-width:1;fill-opacity:1;stroke-opacity:0.3" />
<line x1="912" y1="30" x2="925" y2="32" stroke="black" stroke-width="1" />
<line x1="925" y1="32" x2="939" y2="30" stroke="black" stroke-width="1" />
<rect x="891" y="28" width="20" height="5" style="fill:#5d3c2d;stroke:black;stroke-width:1;fill-opacity:1;stroke-opacity:0.3" />
<rect x="939" y="28" width="20" height="5" style="fill:#5d3c2d;stroke:black;stroke-width:1;fill-opacity:1;stroke-opacity:0.3" />
<line x1="915" y1="44" x2="918" y2="46" stroke="black" stroke-width="1" />
<line x1="918" y1="46" x2="921" y2="44" stroke="black" stroke-width="1" />
<rect x="894" y="42" width="20" height="5" style="fill:#5d3c2d;stroke:black;stroke-width:1;fill-opacity:1;stroke-opacity:0.3" />
<rect x="921" y="42" width="20" height="5" style="fill:#5d3c2d;stroke:black;stroke-width:1;fill-opacity:1;stroke-opacity:0.3" />
<line x1="918" y1="51" x2="919" y2="53" stroke="black" stroke-width="1" />
<line x1="919" y1="53" x2="920" y2="51" stroke="black" stroke-width="1" />
<rect x="897" y="49" width="20" height="5" style="fill:#5d3c2d;stroke:black;stroke-width:1;fill-opacity:1;stroke-opacity:0.3" />
<rect x="920" y="49" width="20" height="5" style="fill:#5d3c2d;stroke:black;stroke-width:1;fill-opacity:1;stroke-opacity:0.3" />
<line x1="918" y1="58" x2="921" y2="60" stroke="black" stroke-width="1" />
<line x1="921" y1="60" x2="925" y2="58" stroke="black" stroke-width="1" />
<rect x="897" y="56" width="20" height="5" style="fill:#5d3c2d;stroke:black;stroke-width:1;fill-opacity:1;stroke-opacity:0.3" />
<rect x="925" y="56" width="20" height="5" style="fill:#5d3c2d;stroke:black;stroke-width:1;fill-opacity:1;stroke-opacity:0.3" />
<line x1="926" y1="37" x2="932" y2="39" stroke="black" stroke-width="1" />
<line x1="932" y1="39" x2="939" y2="37" stroke="black" stroke-width="1" />
<rect x="906" y="35" width="20" height="5" style="fill:#5d3c2d;stroke:black;stroke-width:1;fill-opacity:1;stroke-opacity:0.3" />
<rect x="939" y="35" width="20" height="5" style="fill:#5d3c2d;stroke:black;stroke-width:1;fill-opacity:1;stroke-opacity:0.3" />
<line x1="926" y1="65" x2="932" y2="67" stroke="black" stroke-width="1" />
<line x1="932" y1="67" x2="939" y2="65" stroke="black" stroke-width="1" />
<rect x="906" y="63" width="20" height="5" style="fill:#5d3c2d;stroke:black;stroke-width:1;fill-opacity:1;stroke-opacity:0.3" />
<rect x="939" y="63" width="20" height="5" style="fill:#5d3c2d;stroke:black;stroke-width:1;fill-opacity:1;stroke-opacity:0.3" />
<line x1="940" y1="72" x2="941" y2="74" stroke="black" stroke-width="1" />
<line x1="941" y1="74" x2="942" y2="72" stroke="black" stroke-width="1" />
<rect x="919" y="70" width="20" height="5" style="fill:#5d3c2d;stroke:black;stroke-width:1;fill-opacity:1;stroke-opacity:0.3" />
<rect x="942" y="70" width="20" height="5" style="fill:#5d3c2d;stroke:black;stroke-width:1;fill-opacity:1;stroke-opacity:0.3" />
<line x1="942" y1="100" x2="943" y2="102" stroke="black" stroke-width="1" />
<line x1="943" y1="102" x2="945" y2="100" stroke="black" stroke-width="1" />
<rect x="921" y="98" width="20" height="5" style="fill:#5d3c2d;stroke:black;stroke-width:1;fill-opacity:1;stroke-opacity:0.3" />
<rect x="945" y="98" width="20" height="5" style="fill:#5d3c2d;stroke:black;stroke-width:1;fill-opacity:1;stroke-opacity:0.3" />
<line x1="944" y1="79" x2="950" y2="81" stroke="black" stroke-width="1" />
<line x1="950" y1="81" x2="956" y2="79" stroke="black" stroke-width="1" />
<rect x="923" y="77" width="20" height="5" style="fill:#f5b024;stroke:black;stroke-width:1;fill-opacity:1;stroke-opacity:0.3" />
<rect x="956" y="77" width="20" height="5" style="fill:#f5b024;stroke:black;stroke-width:1;fill-opacity:1;stroke-opacity:0.3" />
<line x1="945" y1="107" x2="946" y2="109" stroke="black" stroke-width="1" />
<line x1="946" y1="109" x2="948" y2="107" stroke="black" stroke-width="1" />
<rect x="924" y="105" width="20" height="5" style="fill:#5d3c2d;stroke:black;stroke-width:1;fill-opacity:1;stroke-opacity:0.3" />
<rect x="948" y="105" width="20" height="5" style="fill:#5d3c2d;stroke:black;stroke-width:1;fill-opacity:1;stroke-opacity:0.3" />
<line x1="950" y1="86" x2="953" y2="88" stroke="black" stroke-width="1" />
<line x1="953" y1="88" x2="957" y2="86" stroke="black" stroke-width="1" />
<rect x="929" y="84" width="20" height="5" style="fill:#5d3c2d;stroke:black;stroke-width:1;fill-opacity:1;stroke-opacity:0.3" />
<rect x="957" y="84" width="20" height="5" style="fill:#5d3c2d;stroke:black;stroke-width:1;fill-opacity:1;stroke-opacity:0.3" />
<text x="15"  y="176" style="font-family:Arial;font-size:10;stroke:black;fill:black;">all.merged.bam</text>
</svg>
    
