<?xml version="1.0" encoding="utf-8" standalone="no"?>
<!DOCTYPE svg PUBLIC "-//W3C//DTD SVG 1.1//EN"
  "http://www.w3.org/Graphics/SVG/1.1/DTD/svg11.dtd">
<svg height="1140" width="1000" version="1.1" viewBox="0 0 1000 1140" xmlns="http://www.w3.org/2000/svg" xmlns:xlink="http://www.w3.org/1999/xlink">
<line x1="85" y1="11" x2="913" y2="11" stroke="black" stroke-width="1" />
<rect x="85" y="9" width="27" height="5" style="fill:#f50002;stroke:black;stroke-width:1;fill-opacity:1;stroke-opacity:0.3" />
<rect x="114" y="9" width="98" height="5" style="fill:#53a1b5;stroke:black;stroke-width:1;fill-opacity:1;stroke-opacity:0.3" />
<rect x="379" y="9" width="144" height="5" style="fill:#53a1b5;stroke:black;stroke-width:1;fill-opacity:1;stroke-opacity:0.3" />
<rect x="524" y="9" width="388" height="5" style="fill:#f50002;stroke:black;stroke-width:1;fill-opacity:1;stroke-opacity:0.3" />
<text x="85"  y="23" style="font-family:Arial;font-size:10;stroke:black;fill:black;">Cre07.g333350.t1.2.v5.5 (-) chromosome_7:3014130-3015095</text>
<line x1="159" y1="30" x2="176" y2="32" stroke="black" stroke-width="1" />
<line x1="176" y1="32" x2="193" y2="30" stroke="black" stroke-width="1" />
<rect x="74" y="28" width="84" height="5" style="fill:#f5b024;stroke:black;stroke-width:1;fill-opacity:1;stroke-opacity:0.3" />
<rect x="193" y="28" width="19" height="5" style="fill:#f5b024;stroke:black;stroke-width:1;fill-opacity:1;stroke-opacity:0.3" />
<line x1="213" y1="30" x2="379" y2="30" stroke="pink" stroke-width="1" />
<rect x="379" y="28" width="66" height="5" style="fill:#f5b024;stroke:black;stroke-width:1;fill-opacity:1;stroke-opacity:0.3" />
<line x1="422" y1="37" x2="434" y2="39" stroke="black" stroke-width="1" />
<line x1="434" y1="39" x2="446" y2="37" stroke="black" stroke-width="1" />
<rect x="128" y="35" width="84" height="5" style="fill:#f5b024;stroke:black;stroke-width:1;fill-opacity:1;stroke-opacity:0.3" />
<line x1="213" y1="37" x2="379" y2="37" stroke="pink" stroke-width="1" />
<rect x="379" y="35" width="42" height="5" style="fill:#f5b024;stroke:black;stroke-width:1;fill-opacity:1;stroke-opacity:0.3" />
<rect x="446" y="35" width="128" height="5" style="fill:#f5b024;stroke:black;stroke-width:1;fill-opacity:1;stroke-opacity:0.3" />
<line x1="210" y1="44" x2="323" y2="46" stroke="black" stroke-width="1" />
<line x1="323" y1="46" x2="436" y2="44" stroke="black" stroke-width="1" />
<rect x="128" y="42" width="82" height="5" style="fill:#f5b024;stroke:black;stroke-width:1;fill-opacity:1;stroke-opacity:0.3" />
<rect x="436" y="42" width="85" height="5" style="fill:#f5b024;stroke:black;stroke-width:1;fill-opacity:1;stroke-opacity:0.3" />
<line x1="380" y1="51" x2="395" y2="53" stroke="black" stroke-width="1" />
<line x1="395" y1="53" x2="410" y2="51" stroke="black" stroke-width="1" />
<rect x="128" y="49" width="84" height="5" style="fill:#f5b024;stroke:black;stroke-width:1;fill-opacity:1;stroke-opacity:0.3" />
<line x1="213" y1="51" x2="379" y2="51" stroke="pink" stroke-width="1" />
<rect x="379" y="49" width="0" height="5" style="fill:#f5b024;stroke:black;stroke-width:1;fill-opacity:1;stroke-opacity:0.3" />
<rect x="410" y="49" width="85" height="5" style="fill:#f5b024;stroke:black;stroke-width:1;fill-opacity:1;stroke-opacity:0.3" />
<line x1="205" y1="58" x2="306" y2="60" stroke="black" stroke-width="1" />
<line x1="306" y1="60" x2="407" y2="58" stroke="black" stroke-width="1" />
<rect x="128" y="56" width="77" height="5" style="fill:#f5b024;stroke:black;stroke-width:1;fill-opacity:1;stroke-opacity:0.3" />
<rect x="407" y="56" width="85" height="5" style="fill:#f5b024;stroke:black;stroke-width:1;fill-opacity:1;stroke-opacity:0.3" />
<line x1="210" y1="65" x2="296" y2="67" stroke="black" stroke-width="1" />
<line x1="296" y1="67" x2="382" y2="65" stroke="black" stroke-width="1" />
<rect x="128" y="63" width="82" height="5" style="fill:#f5b024;stroke:black;stroke-width:1;fill-opacity:1;stroke-opacity:0.3" />
<rect x="382" y="63" width="85" height="5" style="fill:#f5b024;stroke:black;stroke-width:1;fill-opacity:1;stroke-opacity:0.3" />
<line x1="421" y1="72" x2="435" y2="74" stroke="black" stroke-width="1" />
<line x1="435" y1="74" x2="450" y2="72" stroke="black" stroke-width="1" />
<rect x="128" y="70" width="84" height="5" style="fill:#f5b024;stroke:black;stroke-width:1;fill-opacity:1;stroke-opacity:0.3" />
<line x1="213" y1="72" x2="379" y2="72" stroke="pink" stroke-width="1" />
<rect x="379" y="70" width="41" height="5" style="fill:#f5b024;stroke:black;stroke-width:1;fill-opacity:1;stroke-opacity:0.3" />
<rect x="450" y="70" width="128" height="5" style="fill:#f5b024;stroke:black;stroke-width:1;fill-opacity:1;stroke-opacity:0.3" />
<line x1="204" y1="79" x2="303" y2="81" stroke="black" stroke-width="1" />
<line x1="303" y1="81" x2="402" y2="79" stroke="black" stroke-width="1" />
<rect x="128" y="77" width="75" height="5" style="fill:#f5b024;stroke:black;stroke-width:1;fill-opacity:1;stroke-opacity:0.3" />
<rect x="402" y="77" width="85" height="5" style="fill:#f5b024;stroke:black;stroke-width:1;fill-opacity:1;stroke-opacity:0.3" />
<line x1="210" y1="86" x2="318" y2="88" stroke="black" stroke-width="1" />
<line x1="318" y1="88" x2="427" y2="86" stroke="black" stroke-width="1" />
<rect x="128" y="84" width="82" height="5" style="fill:#f5b024;stroke:black;stroke-width:1;fill-opacity:1;stroke-opacity:0.3" />
<rect x="427" y="84" width="85" height="5" style="fill:#f5b024;stroke:black;stroke-width:1;fill-opacity:1;stroke-opacity:0.3" />
<line x1="418" y1="93" x2="423" y2="95" stroke="black" stroke-width="1" />
<line x1="423" y1="95" x2="429" y2="93" stroke="black" stroke-width="1" />
<rect x="128" y="91" width="84" height="5" style="fill:#f5b024;stroke:black;stroke-width:1;fill-opacity:1;stroke-opacity:0.3" />
<line x1="213" y1="93" x2="379" y2="93" stroke="pink" stroke-width="1" />
<rect x="379" y="91" width="38" height="5" style="fill:#f5b024;stroke:black;stroke-width:1;fill-opacity:1;stroke-opacity:0.3" />
<rect x="429" y="91" width="128" height="5" style="fill:#f5b024;stroke:black;stroke-width:1;fill-opacity:1;stroke-opacity:0.3" />
<line x1="424" y1="100" x2="443" y2="102" stroke="black" stroke-width="1" />
<line x1="443" y1="102" x2="462" y2="100" stroke="black" stroke-width="1" />
<rect x="129" y="98" width="84" height="5" style="fill:#f5b024;stroke:black;stroke-width:1;fill-opacity:1;stroke-opacity:0.3" />
<line x1="213" y1="100" x2="379" y2="100" stroke="pink" stroke-width="1" />
<rect x="379" y="98" width="44" height="5" style="fill:#f5b024;stroke:black;stroke-width:1;fill-opacity:1;stroke-opacity:0.3" />
<rect x="462" y="98" width="128" height="5" style="fill:#f5b024;stroke:black;stroke-width:1;fill-opacity:1;stroke-opacity:0.3" />
<line x1="212" y1="107" x2="297" y2="109" stroke="black" stroke-width="1" />
<line x1="297" y1="109" x2="383" y2="107" stroke="black" stroke-width="1" />
<rect x="129" y="105" width="83" height="5" style="fill:#f5b024;stroke:black;stroke-width:1;fill-opacity:1;stroke-opacity:0.3" />
<rect x="383" y="105" width="85" height="5" style="fill:#f5b024;stroke:black;stroke-width:1;fill-opacity:1;stroke-opacity:0.3" />
<line x1="424" y1="114" x2="428" y2="116" stroke="black" stroke-width="1" />
<line x1="428" y1="116" x2="433" y2="114" stroke="black" stroke-width="1" />
<rect x="130" y="112" width="83" height="5" style="fill:#f5b024;stroke:black;stroke-width:1;fill-opacity:1;stroke-opacity:0.3" />
<line x1="213" y1="114" x2="379" y2="114" stroke="pink" stroke-width="1" />
<rect x="379" y="112" width="44" height="5" style="fill:#f5b024;stroke:black;stroke-width:1;fill-opacity:1;stroke-opacity:0.3" />
<rect x="433" y="112" width="128" height="5" style="fill:#f5b024;stroke:black;stroke-width:1;fill-opacity:1;stroke-opacity:0.3" />
<line x1="382" y1="121" x2="395" y2="123" stroke="black" stroke-width="1" />
<line x1="395" y1="123" x2="408" y2="121" stroke="black" stroke-width="1" />
<rect x="130" y="119" width="83" height="5" style="fill:#f5b024;stroke:black;stroke-width:1;fill-opacity:1;stroke-opacity:0.3" />
<line x1="213" y1="121" x2="379" y2="121" stroke="pink" stroke-width="1" />
<rect x="379" y="119" width="2" height="5" style="fill:#f5b024;stroke:black;stroke-width:1;fill-opacity:1;stroke-opacity:0.3" />
<rect x="408" y="119" width="85" height="5" style="fill:#f5b024;stroke:black;stroke-width:1;fill-opacity:1;stroke-opacity:0.3" />
<line x1="427" y1="128" x2="439" y2="130" stroke="black" stroke-width="1" />
<line x1="439" y1="130" x2="451" y2="128" stroke="black" stroke-width="1" />
<rect x="132" y="126" width="81" height="5" style="fill:#f5b024;stroke:black;stroke-width:1;fill-opacity:1;stroke-opacity:0.3" />
<line x1="213" y1="128" x2="379" y2="128" stroke="pink" stroke-width="1" />
<rect x="379" y="126" width="47" height="5" style="fill:#f5b024;stroke:black;stroke-width:1;fill-opacity:1;stroke-opacity:0.3" />
<rect x="451" y="126" width="128" height="5" style="fill:#f5b024;stroke:black;stroke-width:1;fill-opacity:1;stroke-opacity:0.3" />
<line x1="384" y1="135" x2="424" y2="137" stroke="black" stroke-width="1" />
<line x1="424" y1="137" x2="464" y2="135" stroke="black" stroke-width="1" />
<rect x="132" y="133" width="81" height="5" style="fill:#f5b024;stroke:black;stroke-width:1;fill-opacity:1;stroke-opacity:0.3" />
<line x1="213" y1="135" x2="379" y2="135" stroke="pink" stroke-width="1" />
<rect x="379" y="133" width="4" height="5" style="fill:#f5b024;stroke:black;stroke-width:1;fill-opacity:1;stroke-opacity:0.3" />
<rect x="464" y="133" width="85" height="5" style="fill:#f5b024;stroke:black;stroke-width:1;fill-opacity:1;stroke-opacity:0.3" />
<line x1="384" y1="142" x2="399" y2="144" stroke="black" stroke-width="1" />
<line x1="399" y1="144" x2="415" y2="142" stroke="black" stroke-width="1" />
<rect x="132" y="140" width="81" height="5" style="fill:#f5b024;stroke:black;stroke-width:1;fill-opacity:1;stroke-opacity:0.3" />
<line x1="213" y1="142" x2="379" y2="142" stroke="pink" stroke-width="1" />
<rect x="379" y="140" width="4" height="5" style="fill:#f5b024;stroke:black;stroke-width:1;fill-opacity:1;stroke-opacity:0.3" />
<rect x="415" y="140" width="85" height="5" style="fill:#f5b024;stroke:black;stroke-width:1;fill-opacity:1;stroke-opacity:0.3" />
<line x1="384" y1="149" x2="405" y2="151" stroke="black" stroke-width="1" />
<line x1="405" y1="151" x2="427" y2="149" stroke="black" stroke-width="1" />
<rect x="132" y="147" width="81" height="5" style="fill:#f5b024;stroke:black;stroke-width:1;fill-opacity:1;stroke-opacity:0.3" />
<line x1="213" y1="149" x2="379" y2="149" stroke="pink" stroke-width="1" />
<rect x="379" y="147" width="4" height="5" style="fill:#f5b024;stroke:black;stroke-width:1;fill-opacity:1;stroke-opacity:0.3" />
<rect x="427" y="147" width="85" height="5" style="fill:#f5b024;stroke:black;stroke-width:1;fill-opacity:1;stroke-opacity:0.3" />
<line x1="387" y1="156" x2="399" y2="158" stroke="black" stroke-width="1" />
<line x1="399" y1="158" x2="412" y2="156" stroke="black" stroke-width="1" />
<rect x="136" y="154" width="77" height="5" style="fill:#f5b024;stroke:black;stroke-width:1;fill-opacity:1;stroke-opacity:0.3" />
<line x1="213" y1="156" x2="379" y2="156" stroke="pink" stroke-width="1" />
<rect x="379" y="154" width="7" height="5" style="fill:#f5b024;stroke:black;stroke-width:1;fill-opacity:1;stroke-opacity:0.3" />
<rect x="412" y="154" width="85" height="5" style="fill:#f5b024;stroke:black;stroke-width:1;fill-opacity:1;stroke-opacity:0.3" />
<line x1="387" y1="163" x2="410" y2="165" stroke="black" stroke-width="1" />
<line x1="410" y1="165" x2="433" y2="163" stroke="black" stroke-width="1" />
<rect x="136" y="161" width="77" height="5" style="fill:#f5b024;stroke:black;stroke-width:1;fill-opacity:1;stroke-opacity:0.3" />
<line x1="213" y1="163" x2="379" y2="163" stroke="pink" stroke-width="1" />
<rect x="379" y="161" width="7" height="5" style="fill:#f5b024;stroke:black;stroke-width:1;fill-opacity:1;stroke-opacity:0.3" />
<rect x="433" y="161" width="85" height="5" style="fill:#f5b024;stroke:black;stroke-width:1;fill-opacity:1;stroke-opacity:0.3" />
<line x1="575" y1="30" x2="594" y2="32" stroke="black" stroke-width="1" />
<line x1="594" y1="32" x2="614" y2="30" stroke="black" stroke-width="1" />
<rect x="446" y="28" width="128" height="5" style="fill:#f5b024;stroke:black;stroke-width:1;fill-opacity:1;stroke-opacity:0.3" />
<rect x="614" y="28" width="126" height="5" style="fill:#f5b024;stroke:black;stroke-width:1;fill-opacity:1;stroke-opacity:0.3" />
<line x1="562" y1="65" x2="582" y2="67" stroke="black" stroke-width="1" />
<line x1="582" y1="67" x2="602" y2="65" stroke="black" stroke-width="1" />
<rect x="476" y="63" width="85" height="5" style="fill:#f5b024;stroke:black;stroke-width:1;fill-opacity:1;stroke-opacity:0.3" />
<rect x="602" y="63" width="85" height="5" style="fill:#f5b024;stroke:black;stroke-width:1;fill-opacity:1;stroke-opacity:0.3" />
<line x1="562" y1="107" x2="582" y2="109" stroke="black" stroke-width="1" />
<line x1="582" y1="109" x2="602" y2="107" stroke="black" stroke-width="1" />
<rect x="476" y="105" width="85" height="5" style="fill:#f5b024;stroke:black;stroke-width:1;fill-opacity:1;stroke-opacity:0.3" />
<rect x="602" y="105" width="85" height="5" style="fill:#f5b024;stroke:black;stroke-width:1;fill-opacity:1;stroke-opacity:0.3" />
<line x1="579" y1="58" x2="588" y2="60" stroke="black" stroke-width="1" />
<line x1="588" y1="60" x2="598" y2="58" stroke="black" stroke-width="1" />
<rect x="493" y="56" width="85" height="5" style="fill:#f5b024;stroke:black;stroke-width:1;fill-opacity:1;stroke-opacity:0.3" />
<rect x="598" y="56" width="85" height="5" style="fill:#f5b024;stroke:black;stroke-width:1;fill-opacity:1;stroke-opacity:0.3" />
<line x1="617" y1="44" x2="634" y2="46" stroke="black" stroke-width="1" />
<line x1="634" y1="46" x2="652" y2="44" stroke="black" stroke-width="1" />
<rect x="531" y="42" width="85" height="5" style="fill:#f5b024;stroke:black;stroke-width:1;fill-opacity:1;stroke-opacity:0.3" />
<rect x="652" y="42" width="85" height="5" style="fill:#f5b024;stroke:black;stroke-width:1;fill-opacity:1;stroke-opacity:0.3" />
<line x1="704" y1="37" x2="710" y2="39" stroke="black" stroke-width="1" />
<line x1="710" y1="39" x2="717" y2="37" stroke="black" stroke-width="1" />
<rect x="618" y="35" width="85" height="5" style="fill:#f5b024;stroke:black;stroke-width:1;fill-opacity:1;stroke-opacity:0.3" />
<rect x="717" y="35" width="85" height="5" style="fill:#f5b024;stroke:black;stroke-width:1;fill-opacity:1;stroke-opacity:0.3" />
<line x1="724" y1="51" x2="732" y2="53" stroke="black" stroke-width="1" />
<line x1="732" y1="53" x2="741" y2="51" stroke="black" stroke-width="1" />
<rect x="638" y="49" width="85" height="5" style="fill:#f5b024;stroke:black;stroke-width:1;fill-opacity:1;stroke-opacity:0.3" />
<rect x="741" y="49" width="85" height="5" style="fill:#f5b024;stroke:black;stroke-width:1;fill-opacity:1;stroke-opacity:0.3" />
<line x1="776" y1="58" x2="794" y2="60" stroke="black" stroke-width="1" />
<line x1="794" y1="60" x2="813" y2="58" stroke="black" stroke-width="1" />
<rect x="690" y="56" width="85" height="5" style="fill:#f5b024;stroke:black;stroke-width:1;fill-opacity:1;stroke-opacity:0.3" />
<rect x="813" y="56" width="85" height="5" style="fill:#f5b024;stroke:black;stroke-width:1;fill-opacity:1;stroke-opacity:0.3" />
<text x="15"  y="176" style="font-family:Arial;font-size:10;stroke:black;fill:black;">all.merged.bam</text>
</svg>
    
