<?xml version="1.0" encoding="utf-8" standalone="no"?>
<!DOCTYPE svg PUBLIC "-//W3C//DTD SVG 1.1//EN"
  "http://www.w3.org/Graphics/SVG/1.1/DTD/svg11.dtd">
<svg height="1140" width="1000" version="1.1" viewBox="0 0 1000 1140" xmlns="http://www.w3.org/2000/svg" xmlns:xlink="http://www.w3.org/1999/xlink">
<line x1="78" y1="11" x2="920" y2="11" stroke="black" stroke-width="1" />
<rect x="78" y="9" width="404" height="5" style="fill:#f50002;stroke:black;stroke-width:1;fill-opacity:1;stroke-opacity:0.3" />
<rect x="484" y="9" width="321" height="5" style="fill:#53a1b5;stroke:black;stroke-width:1;fill-opacity:1;stroke-opacity:0.3" />
<rect x="806" y="9" width="113" height="5" style="fill:#f50002;stroke:black;stroke-width:1;fill-opacity:1;stroke-opacity:0.3" />
<text x="78"  y="23" style="font-family:Arial;font-size:10;stroke:black;fill:black;">Cre06.g274101.t1.1.v5.5 (-) chromosome_6:3040070-3041135</text>
<line x1="536" y1="30" x2="543" y2="32" stroke="black" stroke-width="1" />
<line x1="543" y1="32" x2="550" y2="30" stroke="black" stroke-width="1" />
<rect x="457" y="28" width="78" height="5" style="fill:#f5b024;stroke:black;stroke-width:1;fill-opacity:1;stroke-opacity:0.3" />
<rect x="550" y="28" width="78" height="5" style="fill:#f5b024;stroke:black;stroke-width:1;fill-opacity:1;stroke-opacity:0.3" />
<line x1="627" y1="37" x2="637" y2="39" stroke="black" stroke-width="1" />
<line x1="637" y1="39" x2="648" y2="37" stroke="black" stroke-width="1" />
<rect x="508" y="35" width="118" height="5" style="fill:#f5b024;stroke:black;stroke-width:1;fill-opacity:1;stroke-opacity:0.3" />
<rect x="648" y="35" width="118" height="5" style="fill:#f5b024;stroke:black;stroke-width:1;fill-opacity:1;stroke-opacity:0.3" />
<line x1="597" y1="44" x2="609" y2="46" stroke="black" stroke-width="1" />
<line x1="609" y1="46" x2="621" y2="44" stroke="black" stroke-width="1" />
<rect x="519" y="42" width="78" height="5" style="fill:#f5b024;stroke:black;stroke-width:1;fill-opacity:1;stroke-opacity:0.3" />
<rect x="621" y="42" width="78" height="5" style="fill:#f5b024;stroke:black;stroke-width:1;fill-opacity:1;stroke-opacity:0.3" />
<line x1="635" y1="51" x2="653" y2="53" stroke="black" stroke-width="1" />
<line x1="653" y1="53" x2="672" y2="51" stroke="black" stroke-width="1" />
<rect x="556" y="49" width="78" height="5" style="fill:#f5b024;stroke:black;stroke-width:1;fill-opacity:1;stroke-opacity:0.3" />
<rect x="672" y="49" width="78" height="5" style="fill:#f5b024;stroke:black;stroke-width:1;fill-opacity:1;stroke-opacity:0.3" />
<line x1="638" y1="58" x2="646" y2="60" stroke="black" stroke-width="1" />
<line x1="646" y1="60" x2="655" y2="58" stroke="black" stroke-width="1" />
<rect x="559" y="56" width="78" height="5" style="fill:#f5b024;stroke:black;stroke-width:1;fill-opacity:1;stroke-opacity:0.3" />
<rect x="655" y="56" width="78" height="5" style="fill:#f5b024;stroke:black;stroke-width:1;fill-opacity:1;stroke-opacity:0.3" />
<line x1="693" y1="65" x2="714" y2="67" stroke="black" stroke-width="1" />
<line x1="714" y1="67" x2="735" y2="65" stroke="black" stroke-width="1" />
<rect x="614" y="63" width="78" height="5" style="fill:#f5b024;stroke:black;stroke-width:1;fill-opacity:1;stroke-opacity:0.3" />
<rect x="735" y="63" width="78" height="5" style="fill:#f5b024;stroke:black;stroke-width:1;fill-opacity:1;stroke-opacity:0.3" />
<line x1="730" y1="30" x2="737" y2="32" stroke="black" stroke-width="1" />
<line x1="737" y1="32" x2="744" y2="30" stroke="black" stroke-width="1" />
<rect x="651" y="28" width="78" height="5" style="fill:#f5b024;stroke:black;stroke-width:1;fill-opacity:1;stroke-opacity:0.3" />
<rect x="744" y="28" width="78" height="5" style="fill:#f5b024;stroke:black;stroke-width:1;fill-opacity:1;stroke-opacity:0.3" />
<text x="15"  y="176" style="font-family:Arial;font-size:10;stroke:black;fill:black;">all.merged.bam</text>
</svg>
    
