<?xml version="1.0" encoding="utf-8" standalone="no"?>
<!DOCTYPE svg PUBLIC "-//W3C//DTD SVG 1.1//EN"
  "http://www.w3.org/Graphics/SVG/1.1/DTD/svg11.dtd">
<svg height="1140" width="1000" version="1.1" viewBox="0 0 1000 1140" xmlns="http://www.w3.org/2000/svg" xmlns:xlink="http://www.w3.org/1999/xlink">
<line x1="49" y1="11" x2="949" y2="11" stroke="black" stroke-width="1" />
<rect x="49" y="9" width="49" height="5" style="fill:#f50002;stroke:black;stroke-width:1;fill-opacity:1;stroke-opacity:0.3" />
<rect x="99" y="9" width="129" height="5" style="fill:#53a1b5;stroke:black;stroke-width:1;fill-opacity:1;stroke-opacity:0.3" />
<rect x="371" y="9" width="51" height="5" style="fill:#53a1b5;stroke:black;stroke-width:1;fill-opacity:1;stroke-opacity:0.3" />
<rect x="558" y="9" width="28" height="5" style="fill:#53a1b5;stroke:black;stroke-width:1;fill-opacity:1;stroke-opacity:0.3" />
<rect x="717" y="9" width="31" height="5" style="fill:#53a1b5;stroke:black;stroke-width:1;fill-opacity:1;stroke-opacity:0.3" />
<rect x="749" y="9" width="200" height="5" style="fill:#f50002;stroke:black;stroke-width:1;fill-opacity:1;stroke-opacity:0.3" />
<text x="49"  y="23" style="font-family:Arial;font-size:10;stroke:black;fill:black;">Cre07.g325734.t1.1.v5.5 (+) chromosome_7:1850982-1852796</text>
<line x1="100" y1="30" x2="108" y2="32" stroke="black" stroke-width="1" />
<line x1="108" y1="32" x2="117" y2="30" stroke="black" stroke-width="1" />
<rect x="26" y="28" width="73" height="5" style="fill:#5d3c2d;stroke:black;stroke-width:1;fill-opacity:1;stroke-opacity:0.3" />
<rect x="117" y="28" width="74" height="5" style="fill:#5d3c2d;stroke:black;stroke-width:1;fill-opacity:1;stroke-opacity:0.3" />
<line x1="75" y1="37" x2="81" y2="39" stroke="black" stroke-width="1" />
<line x1="81" y1="39" x2="87" y2="37" stroke="black" stroke-width="1" />
<rect x="26" y="35" width="49" height="5" style="fill:#5d3c2d;stroke:black;stroke-width:1;fill-opacity:1;stroke-opacity:0.3" />
<rect x="87" y="35" width="49" height="5" style="fill:#5d3c2d;stroke:black;stroke-width:1;fill-opacity:1;stroke-opacity:0.3" />
<line x1="93" y1="44" x2="102" y2="46" stroke="black" stroke-width="1" />
<line x1="102" y1="46" x2="112" y2="44" stroke="black" stroke-width="1" />
<rect x="43" y="42" width="49" height="5" style="fill:#5d3c2d;stroke:black;stroke-width:1;fill-opacity:1;stroke-opacity:0.3" />
<rect x="112" y="42" width="49" height="5" style="fill:#5d3c2d;stroke:black;stroke-width:1;fill-opacity:1;stroke-opacity:0.3" />
<line x1="93" y1="51" x2="102" y2="53" stroke="black" stroke-width="1" />
<line x1="102" y1="53" x2="112" y2="51" stroke="black" stroke-width="1" />
<rect x="43" y="49" width="49" height="5" style="fill:#5d3c2d;stroke:black;stroke-width:1;fill-opacity:1;stroke-opacity:0.3" />
<rect x="112" y="49" width="49" height="5" style="fill:#5d3c2d;stroke:black;stroke-width:1;fill-opacity:1;stroke-opacity:0.3" />
<line x1="93" y1="58" x2="96" y2="60" stroke="black" stroke-width="1" />
<line x1="96" y1="60" x2="99" y2="58" stroke="black" stroke-width="1" />
<rect x="43" y="56" width="49" height="5" style="fill:#5d3c2d;stroke:black;stroke-width:1;fill-opacity:1;stroke-opacity:0.3" />
<rect x="99" y="56" width="49" height="5" style="fill:#5d3c2d;stroke:black;stroke-width:1;fill-opacity:1;stroke-opacity:0.3" />
<line x1="94" y1="65" x2="112" y2="67" stroke="black" stroke-width="1" />
<line x1="112" y1="67" x2="130" y2="65" stroke="black" stroke-width="1" />
<rect x="45" y="63" width="49" height="5" style="fill:#5d3c2d;stroke:black;stroke-width:1;fill-opacity:1;stroke-opacity:0.3" />
<rect x="130" y="63" width="49" height="5" style="fill:#5d3c2d;stroke:black;stroke-width:1;fill-opacity:1;stroke-opacity:0.3" />
<line x1="98" y1="72" x2="101" y2="74" stroke="black" stroke-width="1" />
<line x1="101" y1="74" x2="104" y2="72" stroke="black" stroke-width="1" />
<rect x="49" y="70" width="49" height="5" style="fill:#5d3c2d;stroke:black;stroke-width:1;fill-opacity:1;stroke-opacity:0.3" />
<rect x="104" y="70" width="49" height="5" style="fill:#5d3c2d;stroke:black;stroke-width:1;fill-opacity:1;stroke-opacity:0.3" />
<line x1="124" y1="79" x2="128" y2="81" stroke="black" stroke-width="1" />
<line x1="128" y1="81" x2="133" y2="79" stroke="black" stroke-width="1" />
<rect x="49" y="77" width="74" height="5" style="fill:#5d3c2d;stroke:black;stroke-width:1;fill-opacity:1;stroke-opacity:0.3" />
<rect x="133" y="77" width="74" height="5" style="fill:#5d3c2d;stroke:black;stroke-width:1;fill-opacity:1;stroke-opacity:0.3" />
<line x1="125" y1="86" x2="135" y2="88" stroke="black" stroke-width="1" />
<line x1="135" y1="88" x2="145" y2="86" stroke="black" stroke-width="1" />
<rect x="51" y="84" width="74" height="5" style="fill:#5d3c2d;stroke:black;stroke-width:1;fill-opacity:1;stroke-opacity:0.3" />
<rect x="145" y="84" width="74" height="5" style="fill:#5d3c2d;stroke:black;stroke-width:1;fill-opacity:1;stroke-opacity:0.3" />
<line x1="127" y1="93" x2="131" y2="95" stroke="black" stroke-width="1" />
<line x1="131" y1="95" x2="135" y2="93" stroke="black" stroke-width="1" />
<rect x="53" y="91" width="74" height="5" style="fill:#5d3c2d;stroke:black;stroke-width:1;fill-opacity:1;stroke-opacity:0.3" />
<rect x="135" y="91" width="74" height="5" style="fill:#5d3c2d;stroke:black;stroke-width:1;fill-opacity:1;stroke-opacity:0.3" />
<line x1="128" y1="100" x2="140" y2="102" stroke="black" stroke-width="1" />
<line x1="140" y1="102" x2="152" y2="100" stroke="black" stroke-width="1" />
<rect x="53" y="98" width="74" height="5" style="fill:#5d3c2d;stroke:black;stroke-width:1;fill-opacity:1;stroke-opacity:0.3" />
<rect x="152" y="98" width="74" height="5" style="fill:#5d3c2d;stroke:black;stroke-width:1;fill-opacity:1;stroke-opacity:0.3" />
<line x1="103" y1="107" x2="117" y2="109" stroke="black" stroke-width="1" />
<line x1="117" y1="109" x2="132" y2="107" stroke="black" stroke-width="1" />
<rect x="53" y="105" width="49" height="5" style="fill:#5d3c2d;stroke:black;stroke-width:1;fill-opacity:1;stroke-opacity:0.3" />
<rect x="132" y="105" width="49" height="5" style="fill:#5d3c2d;stroke:black;stroke-width:1;fill-opacity:1;stroke-opacity:0.3" />
<line x1="103" y1="114" x2="109" y2="116" stroke="black" stroke-width="1" />
<line x1="109" y1="116" x2="115" y2="114" stroke="black" stroke-width="1" />
<rect x="53" y="112" width="49" height="5" style="fill:#5d3c2d;stroke:black;stroke-width:1;fill-opacity:1;stroke-opacity:0.3" />
<rect x="115" y="112" width="49" height="5" style="fill:#5d3c2d;stroke:black;stroke-width:1;fill-opacity:1;stroke-opacity:0.3" />
<line x1="103" y1="121" x2="117" y2="123" stroke="black" stroke-width="1" />
<line x1="117" y1="123" x2="132" y2="121" stroke="black" stroke-width="1" />
<rect x="53" y="119" width="49" height="5" style="fill:#5d3c2d;stroke:black;stroke-width:1;fill-opacity:1;stroke-opacity:0.3" />
<rect x="132" y="119" width="49" height="5" style="fill:#5d3c2d;stroke:black;stroke-width:1;fill-opacity:1;stroke-opacity:0.3" />
<line x1="103" y1="128" x2="118" y2="130" stroke="black" stroke-width="1" />
<line x1="118" y1="130" x2="133" y2="128" stroke="black" stroke-width="1" />
<rect x="53" y="126" width="49" height="5" style="fill:#5d3c2d;stroke:black;stroke-width:1;fill-opacity:1;stroke-opacity:0.3" />
<rect x="133" y="126" width="49" height="5" style="fill:#5d3c2d;stroke:black;stroke-width:1;fill-opacity:1;stroke-opacity:0.3" />
<line x1="103" y1="135" x2="108" y2="137" stroke="black" stroke-width="1" />
<line x1="108" y1="137" x2="113" y2="135" stroke="black" stroke-width="1" />
<rect x="53" y="133" width="49" height="5" style="fill:#5d3c2d;stroke:black;stroke-width:1;fill-opacity:1;stroke-opacity:0.3" />
<rect x="113" y="133" width="49" height="5" style="fill:#5d3c2d;stroke:black;stroke-width:1;fill-opacity:1;stroke-opacity:0.3" />
<line x1="103" y1="142" x2="116" y2="144" stroke="black" stroke-width="1" />
<line x1="116" y1="144" x2="129" y2="142" stroke="black" stroke-width="1" />
<rect x="54" y="140" width="49" height="5" style="fill:#5d3c2d;stroke:black;stroke-width:1;fill-opacity:1;stroke-opacity:0.3" />
<rect x="129" y="140" width="49" height="5" style="fill:#5d3c2d;stroke:black;stroke-width:1;fill-opacity:1;stroke-opacity:0.3" />
<line x1="128" y1="149" x2="135" y2="151" stroke="black" stroke-width="1" />
<line x1="135" y1="151" x2="143" y2="149" stroke="black" stroke-width="1" />
<rect x="54" y="147" width="73" height="5" style="fill:#5d3c2d;stroke:black;stroke-width:1;fill-opacity:1;stroke-opacity:0.3" />
<rect x="143" y="147" width="72" height="5" style="fill:#5d3c2d;stroke:black;stroke-width:1;fill-opacity:1;stroke-opacity:0.3" />
<line x1="128" y1="156" x2="135" y2="158" stroke="black" stroke-width="1" />
<line x1="135" y1="158" x2="143" y2="156" stroke="black" stroke-width="1" />
<rect x="54" y="154" width="74" height="5" style="fill:#5d3c2d;stroke:black;stroke-width:1;fill-opacity:1;stroke-opacity:0.3" />
<rect x="143" y="154" width="72" height="5" style="fill:#5d3c2d;stroke:black;stroke-width:1;fill-opacity:1;stroke-opacity:0.3" />
<line x1="104" y1="163" x2="122" y2="165" stroke="black" stroke-width="1" />
<line x1="122" y1="165" x2="140" y2="163" stroke="black" stroke-width="1" />
<rect x="54" y="161" width="49" height="5" style="fill:#5d3c2d;stroke:black;stroke-width:1;fill-opacity:1;stroke-opacity:0.3" />
<rect x="140" y="161" width="49" height="5" style="fill:#5d3c2d;stroke:black;stroke-width:1;fill-opacity:1;stroke-opacity:0.3" />
<line x1="187" y1="37" x2="189" y2="39" stroke="black" stroke-width="1" />
<line x1="189" y1="39" x2="192" y2="37" stroke="black" stroke-width="1" />
<rect x="137" y="35" width="49" height="5" style="fill:#5d3c2d;stroke:black;stroke-width:1;fill-opacity:1;stroke-opacity:0.3" />
<rect x="192" y="35" width="36" height="5" style="fill:#5d3c2d;stroke:black;stroke-width:1;fill-opacity:1;stroke-opacity:0.3" />
<line x1="229" y1="37" x2="371" y2="37" stroke="pink" stroke-width="1" />
<rect x="371" y="35" width="12" height="5" style="fill:#5d3c2d;stroke:black;stroke-width:1;fill-opacity:1;stroke-opacity:0.3" />
<line x1="198" y1="58" x2="288" y2="60" stroke="black" stroke-width="1" />
<line x1="288" y1="60" x2="378" y2="58" stroke="black" stroke-width="1" />
<rect x="148" y="56" width="49" height="5" style="fill:#5d3c2d;stroke:black;stroke-width:1;fill-opacity:1;stroke-opacity:0.3" />
<rect x="378" y="56" width="45" height="5" style="fill:#5d3c2d;stroke:black;stroke-width:1;fill-opacity:1;stroke-opacity:0.3" />
<line x1="423" y1="58" x2="558" y2="58" stroke="pink" stroke-width="1" />
<rect x="558" y="56" width="3" height="5" style="fill:#5d3c2d;stroke:black;stroke-width:1;fill-opacity:1;stroke-opacity:0.3" />
<line x1="228" y1="72" x2="303" y2="74" stroke="black" stroke-width="1" />
<line x1="303" y1="74" x2="379" y2="72" stroke="black" stroke-width="1" />
<rect x="153" y="70" width="74" height="5" style="fill:#5d3c2d;stroke:black;stroke-width:1;fill-opacity:1;stroke-opacity:0.3" />
<rect x="379" y="70" width="44" height="5" style="fill:#5d3c2d;stroke:black;stroke-width:1;fill-opacity:1;stroke-opacity:0.3" />
<line x1="423" y1="72" x2="558" y2="72" stroke="pink" stroke-width="1" />
<rect x="558" y="70" width="28" height="5" style="fill:#5d3c2d;stroke:black;stroke-width:1;fill-opacity:1;stroke-opacity:0.3" />
<line x1="587" y1="72" x2="717" y2="72" stroke="pink" stroke-width="1" />
<rect x="717" y="70" width="1" height="5" style="fill:#5d3c2d;stroke:black;stroke-width:1;fill-opacity:1;stroke-opacity:0.3" />
<line x1="212" y1="44" x2="526" y2="46" stroke="black" stroke-width="1" />
<line x1="526" y1="46" x2="841" y2="44" stroke="black" stroke-width="1" />
<rect x="162" y="42" width="49" height="5" style="fill:#5d3c2d;stroke:black;stroke-width:1;fill-opacity:1;stroke-opacity:0.3" />
<rect x="841" y="42" width="49" height="5" style="fill:#5d3c2d;stroke:black;stroke-width:1;fill-opacity:1;stroke-opacity:0.3" />
<line x1="212" y1="51" x2="215" y2="53" stroke="black" stroke-width="1" />
<line x1="215" y1="53" x2="218" y2="51" stroke="black" stroke-width="1" />
<rect x="162" y="49" width="49" height="5" style="fill:#5d3c2d;stroke:black;stroke-width:1;fill-opacity:1;stroke-opacity:0.3" />
<rect x="218" y="49" width="10" height="5" style="fill:#5d3c2d;stroke:black;stroke-width:1;fill-opacity:1;stroke-opacity:0.3" />
<line x1="229" y1="51" x2="371" y2="51" stroke="pink" stroke-width="1" />
<rect x="371" y="49" width="38" height="5" style="fill:#5d3c2d;stroke:black;stroke-width:1;fill-opacity:1;stroke-opacity:0.3" />
<line x1="212" y1="135" x2="220" y2="137" stroke="black" stroke-width="1" />
<line x1="220" y1="137" x2="228" y2="135" stroke="black" stroke-width="1" />
<rect x="163" y="133" width="49" height="5" style="fill:#5d3c2d;stroke:black;stroke-width:1;fill-opacity:1;stroke-opacity:0.3" />
<rect x="228" y="133" width="0" height="5" style="fill:#5d3c2d;stroke:black;stroke-width:1;fill-opacity:1;stroke-opacity:0.3" />
<line x1="229" y1="135" x2="371" y2="135" stroke="pink" stroke-width="1" />
<rect x="371" y="133" width="49" height="5" style="fill:#5d3c2d;stroke:black;stroke-width:1;fill-opacity:1;stroke-opacity:0.3" />
<line x1="382" y1="114" x2="481" y2="116" stroke="black" stroke-width="1" />
<line x1="481" y1="116" x2="581" y2="114" stroke="black" stroke-width="1" />
<rect x="165" y="112" width="64" height="5" style="fill:#5d3c2d;stroke:black;stroke-width:1;fill-opacity:1;stroke-opacity:0.3" />
<line x1="229" y1="114" x2="371" y2="114" stroke="pink" stroke-width="1" />
<rect x="371" y="112" width="10" height="5" style="fill:#5d3c2d;stroke:black;stroke-width:1;fill-opacity:1;stroke-opacity:0.3" />
<rect x="581" y="112" width="6" height="5" style="fill:#5d3c2d;stroke:black;stroke-width:1;fill-opacity:1;stroke-opacity:0.3" />
<line x1="587" y1="114" x2="717" y2="114" stroke="pink" stroke-width="1" />
<rect x="717" y="112" width="67" height="5" style="fill:#5d3c2d;stroke:black;stroke-width:1;fill-opacity:1;stroke-opacity:0.3" />
<line x1="397" y1="65" x2="400" y2="67" stroke="black" stroke-width="1" />
<line x1="400" y1="67" x2="404" y2="65" stroke="black" stroke-width="1" />
<rect x="180" y="63" width="49" height="5" style="fill:#5d3c2d;stroke:black;stroke-width:1;fill-opacity:1;stroke-opacity:0.3" />
<line x1="229" y1="65" x2="371" y2="65" stroke="pink" stroke-width="1" />
<rect x="371" y="63" width="25" height="5" style="fill:#5d3c2d;stroke:black;stroke-width:1;fill-opacity:1;stroke-opacity:0.3" />
<rect x="404" y="63" width="18" height="5" style="fill:#5d3c2d;stroke:black;stroke-width:1;fill-opacity:1;stroke-opacity:0.3" />
<line x1="423" y1="65" x2="558" y2="65" stroke="pink" stroke-width="1" />
<rect x="558" y="63" width="28" height="5" style="fill:#5d3c2d;stroke:black;stroke-width:1;fill-opacity:1;stroke-opacity:0.3" />
<line x1="587" y1="65" x2="717" y2="65" stroke="pink" stroke-width="1" />
<rect x="717" y="63" width="24" height="5" style="fill:#5d3c2d;stroke:black;stroke-width:1;fill-opacity:1;stroke-opacity:0.3" />
<line x1="397" y1="142" x2="488" y2="144" stroke="black" stroke-width="1" />
<line x1="488" y1="144" x2="580" y2="142" stroke="black" stroke-width="1" />
<rect x="180" y="140" width="48" height="5" style="fill:#5d3c2d;stroke:black;stroke-width:1;fill-opacity:1;stroke-opacity:0.3" />
<line x1="229" y1="142" x2="371" y2="142" stroke="pink" stroke-width="1" />
<rect x="371" y="140" width="25" height="5" style="fill:#5d3c2d;stroke:black;stroke-width:1;fill-opacity:1;stroke-opacity:0.3" />
<rect x="580" y="140" width="7" height="5" style="fill:#5d3c2d;stroke:black;stroke-width:1;fill-opacity:1;stroke-opacity:0.3" />
<line x1="587" y1="142" x2="717" y2="142" stroke="pink" stroke-width="1" />
<rect x="717" y="140" width="66" height="5" style="fill:#5d3c2d;stroke:black;stroke-width:1;fill-opacity:1;stroke-opacity:0.3" />
<line x1="418" y1="107" x2="499" y2="109" stroke="black" stroke-width="1" />
<line x1="499" y1="109" x2="580" y2="107" stroke="black" stroke-width="1" />
<rect x="181" y="105" width="35" height="5" style="fill:#5d3c2d;stroke:black;stroke-width:1;fill-opacity:1;stroke-opacity:0.3" />
<line x1="216" y1="107" x2="380" y2="107" stroke="pink" stroke-width="1" />
<rect x="380" y="105" width="38" height="5" style="fill:#5d3c2d;stroke:black;stroke-width:1;fill-opacity:1;stroke-opacity:0.3" />
<rect x="580" y="105" width="6" height="5" style="fill:#5d3c2d;stroke:black;stroke-width:1;fill-opacity:1;stroke-opacity:0.3" />
<line x1="587" y1="107" x2="717" y2="107" stroke="pink" stroke-width="1" />
<rect x="717" y="105" width="67" height="5" style="fill:#5d3c2d;stroke:black;stroke-width:1;fill-opacity:1;stroke-opacity:0.3" />
<line x1="373" y1="121" x2="381" y2="123" stroke="black" stroke-width="1" />
<line x1="381" y1="123" x2="389" y2="121" stroke="black" stroke-width="1" />
<rect x="181" y="119" width="47" height="5" style="fill:#5d3c2d;stroke:black;stroke-width:1;fill-opacity:1;stroke-opacity:0.3" />
<line x1="229" y1="121" x2="371" y2="121" stroke="pink" stroke-width="1" />
<rect x="371" y="119" width="1" height="5" style="fill:#5d3c2d;stroke:black;stroke-width:1;fill-opacity:1;stroke-opacity:0.3" />
<rect x="389" y="119" width="34" height="5" style="fill:#5d3c2d;stroke:black;stroke-width:1;fill-opacity:1;stroke-opacity:0.3" />
<line x1="423" y1="121" x2="558" y2="121" stroke="pink" stroke-width="1" />
<rect x="558" y="119" width="14" height="5" style="fill:#5d3c2d;stroke:black;stroke-width:1;fill-opacity:1;stroke-opacity:0.3" />
<line x1="375" y1="128" x2="378" y2="130" stroke="black" stroke-width="1" />
<line x1="378" y1="130" x2="381" y2="128" stroke="black" stroke-width="1" />
<rect x="183" y="126" width="46" height="5" style="fill:#5d3c2d;stroke:black;stroke-width:1;fill-opacity:1;stroke-opacity:0.3" />
<line x1="229" y1="128" x2="371" y2="128" stroke="pink" stroke-width="1" />
<rect x="371" y="126" width="3" height="5" style="fill:#5d3c2d;stroke:black;stroke-width:1;fill-opacity:1;stroke-opacity:0.3" />
<rect x="381" y="126" width="42" height="5" style="fill:#5d3c2d;stroke:black;stroke-width:1;fill-opacity:1;stroke-opacity:0.3" />
<line x1="423" y1="128" x2="558" y2="128" stroke="pink" stroke-width="1" />
<rect x="558" y="126" width="7" height="5" style="fill:#5d3c2d;stroke:black;stroke-width:1;fill-opacity:1;stroke-opacity:0.3" />
<line x1="382" y1="163" x2="395" y2="165" stroke="black" stroke-width="1" />
<line x1="395" y1="165" x2="409" y2="163" stroke="black" stroke-width="1" />
<rect x="190" y="161" width="39" height="5" style="fill:#5d3c2d;stroke:black;stroke-width:1;fill-opacity:1;stroke-opacity:0.3" />
<line x1="229" y1="163" x2="371" y2="163" stroke="pink" stroke-width="1" />
<rect x="371" y="161" width="10" height="5" style="fill:#5d3c2d;stroke:black;stroke-width:1;fill-opacity:1;stroke-opacity:0.3" />
<rect x="409" y="161" width="13" height="5" style="fill:#5d3c2d;stroke:black;stroke-width:1;fill-opacity:1;stroke-opacity:0.3" />
<line x1="423" y1="163" x2="558" y2="163" stroke="pink" stroke-width="1" />
<rect x="558" y="161" width="28" height="5" style="fill:#5d3c2d;stroke:black;stroke-width:1;fill-opacity:1;stroke-opacity:0.3" />
<line x1="587" y1="163" x2="717" y2="163" stroke="pink" stroke-width="1" />
<rect x="717" y="161" width="6" height="5" style="fill:#5d3c2d;stroke:black;stroke-width:1;fill-opacity:1;stroke-opacity:0.3" />
<line x1="408" y1="30" x2="483" y2="32" stroke="black" stroke-width="1" />
<line x1="483" y1="32" x2="559" y2="30" stroke="black" stroke-width="1" />
<rect x="191" y="28" width="37" height="5" style="fill:#5d3c2d;stroke:black;stroke-width:1;fill-opacity:1;stroke-opacity:0.3" />
<line x1="229" y1="30" x2="371" y2="30" stroke="pink" stroke-width="1" />
<rect x="371" y="28" width="36" height="5" style="fill:#5d3c2d;stroke:black;stroke-width:1;fill-opacity:1;stroke-opacity:0.3" />
<rect x="559" y="28" width="28" height="5" style="fill:#5d3c2d;stroke:black;stroke-width:1;fill-opacity:1;stroke-opacity:0.3" />
<line x1="587" y1="30" x2="717" y2="30" stroke="pink" stroke-width="1" />
<rect x="717" y="28" width="46" height="5" style="fill:#5d3c2d;stroke:black;stroke-width:1;fill-opacity:1;stroke-opacity:0.3" />
<line x1="399" y1="79" x2="401" y2="81" stroke="black" stroke-width="1" />
<line x1="401" y1="81" x2="404" y2="79" stroke="black" stroke-width="1" />
<rect x="207" y="77" width="21" height="5" style="fill:#5d3c2d;stroke:black;stroke-width:1;fill-opacity:1;stroke-opacity:0.3" />
<line x1="229" y1="79" x2="371" y2="79" stroke="pink" stroke-width="1" />
<rect x="371" y="77" width="27" height="5" style="fill:#5d3c2d;stroke:black;stroke-width:1;fill-opacity:1;stroke-opacity:0.3" />
<rect x="404" y="77" width="19" height="5" style="fill:#5d3c2d;stroke:black;stroke-width:1;fill-opacity:1;stroke-opacity:0.3" />
<line x1="423" y1="79" x2="558" y2="79" stroke="pink" stroke-width="1" />
<rect x="558" y="77" width="28" height="5" style="fill:#5d3c2d;stroke:black;stroke-width:1;fill-opacity:1;stroke-opacity:0.3" />
<line x1="587" y1="79" x2="717" y2="79" stroke="pink" stroke-width="1" />
<rect x="717" y="77" width="0" height="5" style="fill:#5d3c2d;stroke:black;stroke-width:1;fill-opacity:1;stroke-opacity:0.3" />
<line x1="561" y1="93" x2="571" y2="95" stroke="black" stroke-width="1" />
<line x1="571" y1="95" x2="581" y2="93" stroke="black" stroke-width="1" />
<rect x="209" y="91" width="19" height="5" style="fill:#5d3c2d;stroke:black;stroke-width:1;fill-opacity:1;stroke-opacity:0.3" />
<line x1="229" y1="93" x2="371" y2="93" stroke="pink" stroke-width="1" />
<rect x="371" y="91" width="52" height="5" style="fill:#5d3c2d;stroke:black;stroke-width:1;fill-opacity:1;stroke-opacity:0.3" />
<line x1="423" y1="93" x2="558" y2="93" stroke="pink" stroke-width="1" />
<rect x="558" y="91" width="2" height="5" style="fill:#5d3c2d;stroke:black;stroke-width:1;fill-opacity:1;stroke-opacity:0.3" />
<rect x="581" y="91" width="5" height="5" style="fill:#5d3c2d;stroke:black;stroke-width:1;fill-opacity:1;stroke-opacity:0.3" />
<line x1="587" y1="93" x2="717" y2="93" stroke="pink" stroke-width="1" />
<rect x="717" y="91" width="68" height="5" style="fill:#5d3c2d;stroke:black;stroke-width:1;fill-opacity:1;stroke-opacity:0.3" />
<line x1="409" y1="149" x2="491" y2="151" stroke="black" stroke-width="1" />
<line x1="491" y1="151" x2="574" y2="149" stroke="black" stroke-width="1" />
<rect x="217" y="147" width="11" height="5" style="fill:#5d3c2d;stroke:black;stroke-width:1;fill-opacity:1;stroke-opacity:0.3" />
<line x1="229" y1="149" x2="371" y2="149" stroke="pink" stroke-width="1" />
<rect x="371" y="147" width="37" height="5" style="fill:#5d3c2d;stroke:black;stroke-width:1;fill-opacity:1;stroke-opacity:0.3" />
<rect x="574" y="147" width="12" height="5" style="fill:#5d3c2d;stroke:black;stroke-width:1;fill-opacity:1;stroke-opacity:0.3" />
<line x1="587" y1="149" x2="717" y2="149" stroke="pink" stroke-width="1" />
<rect x="717" y="147" width="36" height="5" style="fill:#5d3c2d;stroke:black;stroke-width:1;fill-opacity:1;stroke-opacity:0.3" />
<line x1="408" y1="156" x2="485" y2="158" stroke="black" stroke-width="1" />
<line x1="485" y1="158" x2="563" y2="156" stroke="black" stroke-width="1" />
<rect x="217" y="154" width="11" height="5" style="fill:#5d3c2d;stroke:black;stroke-width:1;fill-opacity:1;stroke-opacity:0.3" />
<line x1="229" y1="156" x2="371" y2="156" stroke="pink" stroke-width="1" />
<rect x="371" y="154" width="37" height="5" style="fill:#5d3c2d;stroke:black;stroke-width:1;fill-opacity:1;stroke-opacity:0.3" />
<rect x="563" y="154" width="23" height="5" style="fill:#5d3c2d;stroke:black;stroke-width:1;fill-opacity:1;stroke-opacity:0.3" />
<line x1="587" y1="156" x2="717" y2="156" stroke="pink" stroke-width="1" />
<rect x="717" y="154" width="25" height="5" style="fill:#5d3c2d;stroke:black;stroke-width:1;fill-opacity:1;stroke-opacity:0.3" />
<line x1="412" y1="86" x2="487" y2="88" stroke="black" stroke-width="1" />
<line x1="487" y1="88" x2="563" y2="86" stroke="black" stroke-width="1" />
<rect x="220" y="84" width="8" height="5" style="fill:#f5b024;stroke:black;stroke-width:1;fill-opacity:1;stroke-opacity:0.3" />
<line x1="229" y1="86" x2="371" y2="86" stroke="pink" stroke-width="1" />
<rect x="371" y="84" width="41" height="5" style="fill:#f5b024;stroke:black;stroke-width:1;fill-opacity:1;stroke-opacity:0.3" />
<rect x="563" y="84" width="23" height="5" style="fill:#f5b024;stroke:black;stroke-width:1;fill-opacity:1;stroke-opacity:0.3" />
<line x1="587" y1="86" x2="717" y2="86" stroke="pink" stroke-width="1" />
<rect x="717" y="84" width="24" height="5" style="fill:#f5b024;stroke:black;stroke-width:1;fill-opacity:1;stroke-opacity:0.3" />
<line x1="419" y1="100" x2="502" y2="102" stroke="black" stroke-width="1" />
<line x1="502" y1="102" x2="585" y2="100" stroke="black" stroke-width="1" />
<rect x="227" y="98" width="1" height="5" style="fill:#5d3c2d;stroke:black;stroke-width:1;fill-opacity:1;stroke-opacity:0.3" />
<line x1="229" y1="100" x2="371" y2="100" stroke="pink" stroke-width="1" />
<rect x="371" y="98" width="47" height="5" style="fill:#5d3c2d;stroke:black;stroke-width:1;fill-opacity:1;stroke-opacity:0.3" />
<rect x="585" y="98" width="2" height="5" style="fill:#5d3c2d;stroke:black;stroke-width:1;fill-opacity:1;stroke-opacity:0.3" />
<line x1="587" y1="100" x2="717" y2="100" stroke="pink" stroke-width="1" />
<rect x="717" y="98" width="47" height="5" style="fill:#5d3c2d;stroke:black;stroke-width:1;fill-opacity:1;stroke-opacity:0.3" />
<line x1="569" y1="37" x2="660" y2="39" stroke="black" stroke-width="1" />
<line x1="660" y1="39" x2="751" y2="37" stroke="black" stroke-width="1" />
<rect x="384" y="35" width="39" height="5" style="fill:#5d3c2d;stroke:black;stroke-width:1;fill-opacity:1;stroke-opacity:0.3" />
<line x1="423" y1="37" x2="558" y2="37" stroke="pink" stroke-width="1" />
<rect x="558" y="35" width="10" height="5" style="fill:#5d3c2d;stroke:black;stroke-width:1;fill-opacity:1;stroke-opacity:0.3" />
<rect x="751" y="35" width="49" height="5" style="fill:#5d3c2d;stroke:black;stroke-width:1;fill-opacity:1;stroke-opacity:0.3" />
<line x1="750" y1="51" x2="755" y2="53" stroke="black" stroke-width="1" />
<line x1="755" y1="53" x2="761" y2="51" stroke="black" stroke-width="1" />
<rect x="410" y="49" width="12" height="5" style="fill:#5d3c2d;stroke:black;stroke-width:1;fill-opacity:1;stroke-opacity:0.3" />
<line x1="423" y1="51" x2="558" y2="51" stroke="pink" stroke-width="1" />
<rect x="558" y="49" width="28" height="5" style="fill:#5d3c2d;stroke:black;stroke-width:1;fill-opacity:1;stroke-opacity:0.3" />
<line x1="587" y1="51" x2="717" y2="51" stroke="pink" stroke-width="1" />
<rect x="717" y="49" width="32" height="5" style="fill:#5d3c2d;stroke:black;stroke-width:1;fill-opacity:1;stroke-opacity:0.3" />
<rect x="761" y="49" width="74" height="5" style="fill:#5d3c2d;stroke:black;stroke-width:1;fill-opacity:1;stroke-opacity:0.3" />
<line x1="735" y1="135" x2="740" y2="137" stroke="black" stroke-width="1" />
<line x1="740" y1="137" x2="745" y2="135" stroke="black" stroke-width="1" />
<rect x="421" y="133" width="2" height="5" style="fill:#5d3c2d;stroke:black;stroke-width:1;fill-opacity:1;stroke-opacity:0.3" />
<line x1="423" y1="135" x2="558" y2="135" stroke="pink" stroke-width="1" />
<rect x="558" y="133" width="28" height="5" style="fill:#5d3c2d;stroke:black;stroke-width:1;fill-opacity:1;stroke-opacity:0.3" />
<line x1="587" y1="135" x2="717" y2="135" stroke="pink" stroke-width="1" />
<rect x="717" y="133" width="18" height="5" style="fill:#5d3c2d;stroke:black;stroke-width:1;fill-opacity:1;stroke-opacity:0.3" />
<rect x="745" y="133" width="49" height="5" style="fill:#5d3c2d;stroke:black;stroke-width:1;fill-opacity:1;stroke-opacity:0.3" />
<line x1="742" y1="58" x2="744" y2="60" stroke="black" stroke-width="1" />
<line x1="744" y1="60" x2="747" y2="58" stroke="black" stroke-width="1" />
<rect x="563" y="56" width="24" height="5" style="fill:#5d3c2d;stroke:black;stroke-width:1;fill-opacity:1;stroke-opacity:0.3" />
<line x1="587" y1="58" x2="717" y2="58" stroke="pink" stroke-width="1" />
<rect x="717" y="56" width="25" height="5" style="fill:#5d3c2d;stroke:black;stroke-width:1;fill-opacity:1;stroke-opacity:0.3" />
<rect x="747" y="56" width="49" height="5" style="fill:#5d3c2d;stroke:black;stroke-width:1;fill-opacity:1;stroke-opacity:0.3" />
<line x1="746" y1="128" x2="753" y2="130" stroke="black" stroke-width="1" />
<line x1="753" y1="130" x2="760" y2="128" stroke="black" stroke-width="1" />
<rect x="566" y="126" width="20" height="5" style="fill:#5d3c2d;stroke:black;stroke-width:1;fill-opacity:1;stroke-opacity:0.3" />
<line x1="587" y1="128" x2="717" y2="128" stroke="pink" stroke-width="1" />
<rect x="717" y="126" width="28" height="5" style="fill:#5d3c2d;stroke:black;stroke-width:1;fill-opacity:1;stroke-opacity:0.3" />
<rect x="760" y="126" width="49" height="5" style="fill:#5d3c2d;stroke:black;stroke-width:1;fill-opacity:1;stroke-opacity:0.3" />
<line x1="753" y1="121" x2="771" y2="123" stroke="black" stroke-width="1" />
<line x1="771" y1="123" x2="790" y2="121" stroke="black" stroke-width="1" />
<rect x="574" y="119" width="13" height="5" style="fill:#5d3c2d;stroke:black;stroke-width:1;fill-opacity:1;stroke-opacity:0.3" />
<line x1="587" y1="121" x2="717" y2="121" stroke="pink" stroke-width="1" />
<rect x="717" y="119" width="36" height="5" style="fill:#5d3c2d;stroke:black;stroke-width:1;fill-opacity:1;stroke-opacity:0.3" />
<rect x="790" y="119" width="49" height="5" style="fill:#5d3c2d;stroke:black;stroke-width:1;fill-opacity:1;stroke-opacity:0.3" />
<line x1="768" y1="79" x2="779" y2="81" stroke="black" stroke-width="1" />
<line x1="779" y1="81" x2="790" y2="79" stroke="black" stroke-width="1" />
<rect x="718" y="77" width="49" height="5" style="fill:#5d3c2d;stroke:black;stroke-width:1;fill-opacity:1;stroke-opacity:0.3" />
<rect x="790" y="77" width="49" height="5" style="fill:#5d3c2d;stroke:black;stroke-width:1;fill-opacity:1;stroke-opacity:0.3" />
<line x1="793" y1="72" x2="800" y2="74" stroke="black" stroke-width="1" />
<line x1="800" y1="74" x2="808" y2="72" stroke="black" stroke-width="1" />
<rect x="719" y="70" width="74" height="5" style="fill:#5d3c2d;stroke:black;stroke-width:1;fill-opacity:1;stroke-opacity:0.3" />
<rect x="808" y="70" width="74" height="5" style="fill:#5d3c2d;stroke:black;stroke-width:1;fill-opacity:1;stroke-opacity:0.3" />
<line x1="798" y1="163" x2="826" y2="165" stroke="black" stroke-width="1" />
<line x1="826" y1="165" x2="854" y2="163" stroke="black" stroke-width="1" />
<rect x="724" y="161" width="73" height="5" style="fill:#5d3c2d;stroke:black;stroke-width:1;fill-opacity:1;stroke-opacity:0.3" />
<rect x="854" y="161" width="72" height="5" style="fill:#5d3c2d;stroke:black;stroke-width:1;fill-opacity:1;stroke-opacity:0.3" />
<line x1="792" y1="65" x2="800" y2="67" stroke="black" stroke-width="1" />
<line x1="800" y1="67" x2="809" y2="65" stroke="black" stroke-width="1" />
<rect x="742" y="63" width="49" height="5" style="fill:#5d3c2d;stroke:black;stroke-width:1;fill-opacity:1;stroke-opacity:0.3" />
<rect x="809" y="63" width="49" height="5" style="fill:#5d3c2d;stroke:black;stroke-width:1;fill-opacity:1;stroke-opacity:0.3" />
<line x1="792" y1="86" x2="803" y2="88" stroke="black" stroke-width="1" />
<line x1="803" y1="88" x2="815" y2="86" stroke="black" stroke-width="1" />
<rect x="742" y="84" width="49" height="5" style="fill:#5d3c2d;stroke:black;stroke-width:1;fill-opacity:1;stroke-opacity:0.3" />
<rect x="815" y="84" width="49" height="5" style="fill:#5d3c2d;stroke:black;stroke-width:1;fill-opacity:1;stroke-opacity:0.3" />
<line x1="793" y1="156" x2="802" y2="158" stroke="black" stroke-width="1" />
<line x1="802" y1="158" x2="812" y2="156" stroke="black" stroke-width="1" />
<rect x="743" y="154" width="49" height="5" style="fill:#5d3c2d;stroke:black;stroke-width:1;fill-opacity:1;stroke-opacity:0.3" />
<rect x="812" y="154" width="49" height="5" style="fill:#5d3c2d;stroke:black;stroke-width:1;fill-opacity:1;stroke-opacity:0.3" />
<line x1="803" y1="149" x2="813" y2="151" stroke="black" stroke-width="1" />
<line x1="813" y1="151" x2="823" y2="149" stroke="black" stroke-width="1" />
<rect x="754" y="147" width="49" height="5" style="fill:#5d3c2d;stroke:black;stroke-width:1;fill-opacity:1;stroke-opacity:0.3" />
<rect x="823" y="147" width="49" height="5" style="fill:#5d3c2d;stroke:black;stroke-width:1;fill-opacity:1;stroke-opacity:0.3" />
<line x1="813" y1="30" x2="818" y2="32" stroke="black" stroke-width="1" />
<line x1="818" y1="32" x2="824" y2="30" stroke="black" stroke-width="1" />
<rect x="763" y="28" width="49" height="5" style="fill:#5d3c2d;stroke:black;stroke-width:1;fill-opacity:1;stroke-opacity:0.3" />
<rect x="824" y="28" width="48" height="5" style="fill:#5d3c2d;stroke:black;stroke-width:1;fill-opacity:1;stroke-opacity:0.3" />
<line x1="814" y1="100" x2="827" y2="102" stroke="black" stroke-width="1" />
<line x1="827" y1="102" x2="841" y2="100" stroke="black" stroke-width="1" />
<rect x="764" y="98" width="49" height="5" style="fill:#5d3c2d;stroke:black;stroke-width:1;fill-opacity:1;stroke-opacity:0.3" />
<rect x="841" y="98" width="49" height="5" style="fill:#5d3c2d;stroke:black;stroke-width:1;fill-opacity:1;stroke-opacity:0.3" />
<line x1="834" y1="142" x2="844" y2="144" stroke="black" stroke-width="1" />
<line x1="844" y1="144" x2="854" y2="142" stroke="black" stroke-width="1" />
<rect x="784" y="140" width="49" height="5" style="fill:#5d3c2d;stroke:black;stroke-width:1;fill-opacity:1;stroke-opacity:0.3" />
<rect x="854" y="140" width="49" height="5" style="fill:#5d3c2d;stroke:black;stroke-width:1;fill-opacity:1;stroke-opacity:0.3" />
<line x1="834" y1="107" x2="844" y2="109" stroke="black" stroke-width="1" />
<line x1="844" y1="109" x2="854" y2="107" stroke="black" stroke-width="1" />
<rect x="785" y="105" width="49" height="5" style="fill:#5d3c2d;stroke:black;stroke-width:1;fill-opacity:1;stroke-opacity:0.3" />
<rect x="854" y="105" width="49" height="5" style="fill:#5d3c2d;stroke:black;stroke-width:1;fill-opacity:1;stroke-opacity:0.3" />
<line x1="835" y1="114" x2="838" y2="116" stroke="black" stroke-width="1" />
<line x1="838" y1="116" x2="842" y2="114" stroke="black" stroke-width="1" />
<rect x="785" y="112" width="49" height="5" style="fill:#5d3c2d;stroke:black;stroke-width:1;fill-opacity:1;stroke-opacity:0.3" />
<rect x="842" y="112" width="49" height="5" style="fill:#5d3c2d;stroke:black;stroke-width:1;fill-opacity:1;stroke-opacity:0.3" />
<line x1="835" y1="93" x2="838" y2="95" stroke="black" stroke-width="1" />
<line x1="838" y1="95" x2="841" y2="93" stroke="black" stroke-width="1" />
<rect x="786" y="91" width="49" height="5" style="fill:#5d3c2d;stroke:black;stroke-width:1;fill-opacity:1;stroke-opacity:0.3" />
<rect x="841" y="91" width="48" height="5" style="fill:#5d3c2d;stroke:black;stroke-width:1;fill-opacity:1;stroke-opacity:0.3" />
<line x1="845" y1="135" x2="850" y2="137" stroke="black" stroke-width="1" />
<line x1="850" y1="137" x2="855" y2="135" stroke="black" stroke-width="1" />
<rect x="795" y="133" width="49" height="5" style="fill:#5d3c2d;stroke:black;stroke-width:1;fill-opacity:1;stroke-opacity:0.3" />
<rect x="855" y="133" width="49" height="5" style="fill:#5d3c2d;stroke:black;stroke-width:1;fill-opacity:1;stroke-opacity:0.3" />
<line x1="847" y1="58" x2="851" y2="60" stroke="black" stroke-width="1" />
<line x1="851" y1="60" x2="856" y2="58" stroke="black" stroke-width="1" />
<rect x="797" y="56" width="49" height="5" style="fill:#5d3c2d;stroke:black;stroke-width:1;fill-opacity:1;stroke-opacity:0.3" />
<rect x="856" y="56" width="47" height="5" style="fill:#5d3c2d;stroke:black;stroke-width:1;fill-opacity:1;stroke-opacity:0.3" />
<line x1="850" y1="37" x2="853" y2="39" stroke="black" stroke-width="1" />
<line x1="853" y1="39" x2="857" y2="37" stroke="black" stroke-width="1" />
<rect x="800" y="35" width="49" height="5" style="fill:#5d3c2d;stroke:black;stroke-width:1;fill-opacity:1;stroke-opacity:0.3" />
<rect x="857" y="35" width="49" height="5" style="fill:#5d3c2d;stroke:black;stroke-width:1;fill-opacity:1;stroke-opacity:0.3" />
<line x1="860" y1="128" x2="877" y2="130" stroke="black" stroke-width="1" />
<line x1="877" y1="130" x2="895" y2="128" stroke="black" stroke-width="1" />
<rect x="810" y="126" width="49" height="5" style="fill:#5d3c2d;stroke:black;stroke-width:1;fill-opacity:1;stroke-opacity:0.3" />
<rect x="895" y="126" width="49" height="5" style="fill:#5d3c2d;stroke:black;stroke-width:1;fill-opacity:1;stroke-opacity:0.3" />
<line x1="885" y1="51" x2="891" y2="53" stroke="black" stroke-width="1" />
<line x1="891" y1="53" x2="897" y2="51" stroke="black" stroke-width="1" />
<rect x="836" y="49" width="49" height="5" style="fill:#5d3c2d;stroke:black;stroke-width:1;fill-opacity:1;stroke-opacity:0.3" />
<rect x="897" y="49" width="49" height="5" style="fill:#5d3c2d;stroke:black;stroke-width:1;fill-opacity:1;stroke-opacity:0.3" />
<line x1="889" y1="79" x2="892" y2="81" stroke="black" stroke-width="1" />
<line x1="892" y1="81" x2="895" y2="79" stroke="black" stroke-width="1" />
<rect x="840" y="77" width="49" height="5" style="fill:#5d3c2d;stroke:black;stroke-width:1;fill-opacity:1;stroke-opacity:0.3" />
<rect x="895" y="77" width="49" height="5" style="fill:#5d3c2d;stroke:black;stroke-width:1;fill-opacity:1;stroke-opacity:0.3" />
<line x1="889" y1="121" x2="893" y2="123" stroke="black" stroke-width="1" />
<line x1="893" y1="123" x2="897" y2="121" stroke="black" stroke-width="1" />
<rect x="840" y="119" width="49" height="5" style="fill:#5d3c2d;stroke:black;stroke-width:1;fill-opacity:1;stroke-opacity:0.3" />
<rect x="897" y="119" width="49" height="5" style="fill:#5d3c2d;stroke:black;stroke-width:1;fill-opacity:1;stroke-opacity:0.3" />
<text x="15"  y="176" style="font-family:Arial;font-size:10;stroke:black;fill:black;">all.merged.bam</text>
</svg>
    
