<?xml version="1.0" encoding="utf-8" standalone="no"?>
<!DOCTYPE svg PUBLIC "-//W3C//DTD SVG 1.1//EN"
  "http://www.w3.org/Graphics/SVG/1.1/DTD/svg11.dtd">
<svg height="1140" width="1000" version="1.1" viewBox="0 0 1000 1140" xmlns="http://www.w3.org/2000/svg" xmlns:xlink="http://www.w3.org/1999/xlink">
<line x1="21" y1="11" x2="978" y2="11" stroke="black" stroke-width="1" />
<rect x="21" y="9" width="72" height="5" style="fill:#f50002;stroke:black;stroke-width:1;fill-opacity:1;stroke-opacity:0.3" />
<rect x="94" y="9" width="208" height="5" style="fill:#53a1b5;stroke:black;stroke-width:1;fill-opacity:1;stroke-opacity:0.3" />
<rect x="387" y="9" width="249" height="5" style="fill:#53a1b5;stroke:black;stroke-width:1;fill-opacity:1;stroke-opacity:0.3" />
<rect x="732" y="9" width="50" height="5" style="fill:#53a1b5;stroke:black;stroke-width:1;fill-opacity:1;stroke-opacity:0.3" />
<rect x="782" y="9" width="195" height="5" style="fill:#f50002;stroke:black;stroke-width:1;fill-opacity:1;stroke-opacity:0.3" />
<text x="21"  y="23" style="font-family:Arial;font-size:10;stroke:black;fill:black;">Cre08.g360150.t1.1.v5.5 (+) chromosome_8:681103-685632</text>
<line x1="602" y1="30" x2="606" y2="32" stroke="black" stroke-width="1" />
<line x1="606" y1="32" x2="611" y2="30" stroke="black" stroke-width="1" />
<rect x="581" y="28" width="21" height="5" style="fill:#5d3c2d;stroke:black;stroke-width:1;fill-opacity:1;stroke-opacity:0.3" />
<rect x="611" y="28" width="21" height="5" style="fill:#5d3c2d;stroke:black;stroke-width:1;fill-opacity:1;stroke-opacity:0.3" />
<line x1="651" y1="37" x2="654" y2="39" stroke="black" stroke-width="1" />
<line x1="654" y1="39" x2="657" y2="37" stroke="black" stroke-width="1" />
<rect x="630" y="35" width="21" height="5" style="fill:#f5b024;stroke:black;stroke-width:1;fill-opacity:1;stroke-opacity:0.3" />
<rect x="657" y="35" width="21" height="5" style="fill:#f5b024;stroke:black;stroke-width:1;fill-opacity:1;stroke-opacity:0.3" />
<line x1="659" y1="30" x2="661" y2="32" stroke="black" stroke-width="1" />
<line x1="661" y1="32" x2="663" y2="30" stroke="black" stroke-width="1" />
<rect x="638" y="28" width="21" height="5" style="fill:#f5b024;stroke:black;stroke-width:1;fill-opacity:1;stroke-opacity:0.3" />
<rect x="663" y="28" width="21" height="5" style="fill:#f5b024;stroke:black;stroke-width:1;fill-opacity:1;stroke-opacity:0.3" />
<line x1="660" y1="44" x2="663" y2="46" stroke="black" stroke-width="1" />
<line x1="663" y1="46" x2="667" y2="44" stroke="black" stroke-width="1" />
<rect x="639" y="42" width="21" height="5" style="fill:#f5b024;stroke:black;stroke-width:1;fill-opacity:1;stroke-opacity:0.3" />
<rect x="667" y="42" width="21" height="5" style="fill:#f5b024;stroke:black;stroke-width:1;fill-opacity:1;stroke-opacity:0.3" />
<line x1="663" y1="51" x2="675" y2="53" stroke="black" stroke-width="1" />
<line x1="675" y1="53" x2="688" y2="51" stroke="black" stroke-width="1" />
<rect x="642" y="49" width="20" height="5" style="fill:#f5b024;stroke:black;stroke-width:1;fill-opacity:1;stroke-opacity:0.3" />
<rect x="688" y="49" width="21" height="5" style="fill:#f5b024;stroke:black;stroke-width:1;fill-opacity:1;stroke-opacity:0.3" />
<line x1="661" y1="58" x2="662" y2="60" stroke="black" stroke-width="1" />
<line x1="662" y1="60" x2="664" y2="58" stroke="black" stroke-width="1" />
<rect x="642" y="56" width="18" height="5" style="fill:#f5b024;stroke:black;stroke-width:1;fill-opacity:1;stroke-opacity:0.3" />
<rect x="664" y="56" width="21" height="5" style="fill:#f5b024;stroke:black;stroke-width:1;fill-opacity:1;stroke-opacity:0.3" />
<line x1="660" y1="65" x2="663" y2="67" stroke="black" stroke-width="1" />
<line x1="663" y1="67" x2="667" y2="65" stroke="black" stroke-width="1" />
<rect x="642" y="63" width="17" height="5" style="fill:#f5b024;stroke:black;stroke-width:1;fill-opacity:1;stroke-opacity:0.3" />
<rect x="667" y="63" width="21" height="5" style="fill:#f5b024;stroke:black;stroke-width:1;fill-opacity:1;stroke-opacity:0.3" />
<line x1="661" y1="72" x2="664" y2="74" stroke="black" stroke-width="1" />
<line x1="664" y1="74" x2="667" y2="72" stroke="black" stroke-width="1" />
<rect x="642" y="70" width="18" height="5" style="fill:#f5b024;stroke:black;stroke-width:1;fill-opacity:1;stroke-opacity:0.3" />
<rect x="667" y="70" width="21" height="5" style="fill:#f5b024;stroke:black;stroke-width:1;fill-opacity:1;stroke-opacity:0.3" />
<line x1="661" y1="79" x2="664" y2="81" stroke="black" stroke-width="1" />
<line x1="664" y1="81" x2="667" y2="79" stroke="black" stroke-width="1" />
<rect x="642" y="77" width="18" height="5" style="fill:#f5b024;stroke:black;stroke-width:1;fill-opacity:1;stroke-opacity:0.3" />
<rect x="667" y="77" width="21" height="5" style="fill:#f5b024;stroke:black;stroke-width:1;fill-opacity:1;stroke-opacity:0.3" />
<line x1="660" y1="86" x2="661" y2="88" stroke="black" stroke-width="1" />
<line x1="661" y1="88" x2="662" y2="86" stroke="black" stroke-width="1" />
<rect x="642" y="84" width="17" height="5" style="fill:#f5b024;stroke:black;stroke-width:1;fill-opacity:1;stroke-opacity:0.3" />
<rect x="662" y="84" width="21" height="5" style="fill:#f5b024;stroke:black;stroke-width:1;fill-opacity:1;stroke-opacity:0.3" />
<line x1="669" y1="93" x2="672" y2="95" stroke="black" stroke-width="1" />
<line x1="672" y1="95" x2="675" y2="93" stroke="black" stroke-width="1" />
<rect x="648" y="91" width="21" height="5" style="fill:#f5b024;stroke:black;stroke-width:1;fill-opacity:1;stroke-opacity:0.3" />
<rect x="675" y="91" width="21" height="5" style="fill:#f5b024;stroke:black;stroke-width:1;fill-opacity:1;stroke-opacity:0.3" />
<line x1="680" y1="100" x2="682" y2="102" stroke="black" stroke-width="1" />
<line x1="682" y1="102" x2="684" y2="100" stroke="black" stroke-width="1" />
<rect x="648" y="98" width="31" height="5" style="fill:#f5b024;stroke:black;stroke-width:1;fill-opacity:1;stroke-opacity:0.3" />
<rect x="684" y="98" width="31" height="5" style="fill:#f5b024;stroke:black;stroke-width:1;fill-opacity:1;stroke-opacity:0.3" />
<line x1="669" y1="107" x2="677" y2="109" stroke="black" stroke-width="1" />
<line x1="677" y1="109" x2="686" y2="107" stroke="black" stroke-width="1" />
<rect x="648" y="105" width="21" height="5" style="fill:#f5b024;stroke:black;stroke-width:1;fill-opacity:1;stroke-opacity:0.3" />
<rect x="686" y="105" width="21" height="5" style="fill:#f5b024;stroke:black;stroke-width:1;fill-opacity:1;stroke-opacity:0.3" />
<line x1="671" y1="114" x2="673" y2="116" stroke="black" stroke-width="1" />
<line x1="673" y1="116" x2="675" y2="114" stroke="black" stroke-width="1" />
<rect x="650" y="112" width="21" height="5" style="fill:#f5b024;stroke:black;stroke-width:1;fill-opacity:1;stroke-opacity:0.3" />
<rect x="675" y="112" width="21" height="5" style="fill:#f5b024;stroke:black;stroke-width:1;fill-opacity:1;stroke-opacity:0.3" />
<line x1="671" y1="121" x2="675" y2="123" stroke="black" stroke-width="1" />
<line x1="675" y1="123" x2="680" y2="121" stroke="black" stroke-width="1" />
<rect x="650" y="119" width="20" height="5" style="fill:#5d3c2d;stroke:black;stroke-width:1;fill-opacity:1;stroke-opacity:0.3" />
<rect x="680" y="119" width="21" height="5" style="fill:#5d3c2d;stroke:black;stroke-width:1;fill-opacity:1;stroke-opacity:0.3" />
<line x1="682" y1="128" x2="683" y2="130" stroke="black" stroke-width="1" />
<line x1="683" y1="130" x2="685" y2="128" stroke="black" stroke-width="1" />
<rect x="650" y="126" width="31" height="5" style="fill:#f5b024;stroke:black;stroke-width:1;fill-opacity:1;stroke-opacity:0.3" />
<rect x="685" y="126" width="31" height="5" style="fill:#f5b024;stroke:black;stroke-width:1;fill-opacity:1;stroke-opacity:0.3" />
<line x1="672" y1="135" x2="673" y2="137" stroke="black" stroke-width="1" />
<line x1="673" y1="137" x2="675" y2="135" stroke="black" stroke-width="1" />
<rect x="650" y="133" width="21" height="5" style="fill:#f5b024;stroke:black;stroke-width:1;fill-opacity:1;stroke-opacity:0.3" />
<rect x="675" y="133" width="21" height="5" style="fill:#f5b024;stroke:black;stroke-width:1;fill-opacity:1;stroke-opacity:0.3" />
<line x1="682" y1="142" x2="683" y2="144" stroke="black" stroke-width="1" />
<line x1="683" y1="144" x2="685" y2="142" stroke="black" stroke-width="1" />
<rect x="650" y="140" width="31" height="5" style="fill:#f5b024;stroke:black;stroke-width:1;fill-opacity:1;stroke-opacity:0.3" />
<rect x="685" y="140" width="31" height="5" style="fill:#f5b024;stroke:black;stroke-width:1;fill-opacity:1;stroke-opacity:0.3" />
<line x1="672" y1="149" x2="673" y2="151" stroke="black" stroke-width="1" />
<line x1="673" y1="151" x2="675" y2="149" stroke="black" stroke-width="1" />
<rect x="650" y="147" width="21" height="5" style="fill:#f5b024;stroke:black;stroke-width:1;fill-opacity:1;stroke-opacity:0.3" />
<rect x="675" y="147" width="21" height="5" style="fill:#f5b024;stroke:black;stroke-width:1;fill-opacity:1;stroke-opacity:0.3" />
<line x1="672" y1="156" x2="674" y2="158" stroke="black" stroke-width="1" />
<line x1="674" y1="158" x2="677" y2="156" stroke="black" stroke-width="1" />
<rect x="650" y="154" width="21" height="5" style="fill:#f5b024;stroke:black;stroke-width:1;fill-opacity:1;stroke-opacity:0.3" />
<rect x="677" y="154" width="20" height="5" style="fill:#f5b024;stroke:black;stroke-width:1;fill-opacity:1;stroke-opacity:0.3" />
<line x1="672" y1="163" x2="673" y2="165" stroke="black" stroke-width="1" />
<line x1="673" y1="165" x2="674" y2="163" stroke="black" stroke-width="1" />
<rect x="650" y="161" width="21" height="5" style="fill:#f5b024;stroke:black;stroke-width:1;fill-opacity:1;stroke-opacity:0.3" />
<rect x="674" y="161" width="21" height="5" style="fill:#f5b024;stroke:black;stroke-width:1;fill-opacity:1;stroke-opacity:0.3" />
<line x1="819" y1="30" x2="821" y2="32" stroke="black" stroke-width="1" />
<line x1="821" y1="32" x2="823" y2="30" stroke="black" stroke-width="1" />
<rect x="798" y="28" width="21" height="5" style="fill:#5d3c2d;stroke:black;stroke-width:1;fill-opacity:1;stroke-opacity:0.3" />
<rect x="823" y="28" width="21" height="5" style="fill:#5d3c2d;stroke:black;stroke-width:1;fill-opacity:1;stroke-opacity:0.3" />
<text x="15"  y="176" style="font-family:Arial;font-size:10;stroke:black;fill:black;">all.merged.bam</text>
</svg>
    
