<?xml version="1.0" encoding="utf-8" standalone="no"?>
<!DOCTYPE svg PUBLIC "-//W3C//DTD SVG 1.1//EN"
  "http://www.w3.org/Graphics/SVG/1.1/DTD/svg11.dtd">
<svg height="1140" width="1000" version="1.1" viewBox="0 0 1000 1140" xmlns="http://www.w3.org/2000/svg" xmlns:xlink="http://www.w3.org/1999/xlink">
<line x1="37" y1="11" x2="962" y2="11" stroke="black" stroke-width="1" />
<rect x="37" y="9" width="256" height="5" style="fill:#f50002;stroke:black;stroke-width:1;fill-opacity:1;stroke-opacity:0.3" />
<rect x="294" y="9" width="81" height="5" style="fill:#53a1b5;stroke:black;stroke-width:1;fill-opacity:1;stroke-opacity:0.3" />
<rect x="532" y="9" width="34" height="5" style="fill:#53a1b5;stroke:black;stroke-width:1;fill-opacity:1;stroke-opacity:0.3" />
<rect x="699" y="9" width="88" height="5" style="fill:#53a1b5;stroke:black;stroke-width:1;fill-opacity:1;stroke-opacity:0.3" />
<rect x="843" y="9" width="48" height="5" style="fill:#53a1b5;stroke:black;stroke-width:1;fill-opacity:1;stroke-opacity:0.3" />
<rect x="891" y="9" width="70" height="5" style="fill:#f50002;stroke:black;stroke-width:1;fill-opacity:1;stroke-opacity:0.3" />
<text x="37"  y="23" style="font-family:Arial;font-size:10;stroke:black;fill:black;">Cre03.g145207.t1.1.v5.5 (-) chromosome_3:505676-508151</text>
<line x1="47" y1="30" x2="54" y2="32" stroke="black" stroke-width="1" />
<line x1="54" y1="32" x2="61" y2="30" stroke="black" stroke-width="1" />
<rect x="10" y="28" width="37" height="5" style="fill:#f5b024;stroke:black;stroke-width:1;fill-opacity:1;stroke-opacity:0.3" />
<rect x="61" y="28" width="37" height="5" style="fill:#f5b024;stroke:black;stroke-width:1;fill-opacity:1;stroke-opacity:0.3" />
<line x1="69" y1="37" x2="75" y2="39" stroke="black" stroke-width="1" />
<line x1="75" y1="39" x2="81" y2="37" stroke="black" stroke-width="1" />
<rect x="32" y="35" width="37" height="5" style="fill:#5d3c2d;stroke:black;stroke-width:1;fill-opacity:1;stroke-opacity:0.3" />
<rect x="81" y="35" width="37" height="5" style="fill:#5d3c2d;stroke:black;stroke-width:1;fill-opacity:1;stroke-opacity:0.3" />
<line x1="144" y1="30" x2="196" y2="32" stroke="black" stroke-width="1" />
<line x1="196" y1="32" x2="249" y2="30" stroke="black" stroke-width="1" />
<rect x="107" y="28" width="37" height="5" style="fill:#f5b024;stroke:black;stroke-width:1;fill-opacity:1;stroke-opacity:0.3" />
<rect x="249" y="28" width="37" height="5" style="fill:#f5b024;stroke:black;stroke-width:1;fill-opacity:1;stroke-opacity:0.3" />
<line x1="145" y1="44" x2="155" y2="46" stroke="black" stroke-width="1" />
<line x1="155" y1="46" x2="165" y2="44" stroke="black" stroke-width="1" />
<rect x="107" y="42" width="37" height="5" style="fill:#f5b024;stroke:black;stroke-width:1;fill-opacity:1;stroke-opacity:0.3" />
<rect x="165" y="42" width="37" height="5" style="fill:#f5b024;stroke:black;stroke-width:1;fill-opacity:1;stroke-opacity:0.3" />
<line x1="145" y1="51" x2="147" y2="53" stroke="black" stroke-width="1" />
<line x1="147" y1="53" x2="150" y2="51" stroke="black" stroke-width="1" />
<rect x="107" y="49" width="37" height="5" style="fill:#f5b024;stroke:black;stroke-width:1;fill-opacity:1;stroke-opacity:0.3" />
<rect x="150" y="49" width="37" height="5" style="fill:#f5b024;stroke:black;stroke-width:1;fill-opacity:1;stroke-opacity:0.3" />
<line x1="146" y1="58" x2="159" y2="60" stroke="black" stroke-width="1" />
<line x1="159" y1="60" x2="172" y2="58" stroke="black" stroke-width="1" />
<rect x="109" y="56" width="37" height="5" style="fill:#f5b024;stroke:black;stroke-width:1;fill-opacity:1;stroke-opacity:0.3" />
<rect x="172" y="56" width="37" height="5" style="fill:#f5b024;stroke:black;stroke-width:1;fill-opacity:1;stroke-opacity:0.3" />
<line x1="147" y1="65" x2="154" y2="67" stroke="black" stroke-width="1" />
<line x1="154" y1="67" x2="161" y2="65" stroke="black" stroke-width="1" />
<rect x="110" y="63" width="37" height="5" style="fill:#5d3c2d;stroke:black;stroke-width:1;fill-opacity:1;stroke-opacity:0.3" />
<rect x="161" y="63" width="20" height="5" style="fill:#5d3c2d;stroke:black;stroke-width:1;fill-opacity:1;stroke-opacity:0.3" />
<rect x="182" y="63" width="16" height="5" style="fill:#5d3c2d;stroke:black;stroke-width:1;fill-opacity:1;stroke-opacity:0.3" />
<line x1="147" y1="72" x2="149" y2="74" stroke="black" stroke-width="1" />
<line x1="149" y1="74" x2="152" y2="72" stroke="black" stroke-width="1" />
<rect x="110" y="70" width="36" height="5" style="fill:#f5b024;stroke:black;stroke-width:1;fill-opacity:1;stroke-opacity:0.3" />
<rect x="152" y="70" width="37" height="5" style="fill:#f5b024;stroke:black;stroke-width:1;fill-opacity:1;stroke-opacity:0.3" />
<line x1="149" y1="79" x2="166" y2="81" stroke="black" stroke-width="1" />
<line x1="166" y1="81" x2="183" y2="79" stroke="black" stroke-width="1" />
<rect x="112" y="77" width="36" height="5" style="fill:#f5b024;stroke:black;stroke-width:1;fill-opacity:1;stroke-opacity:0.3" />
<rect x="183" y="77" width="37" height="5" style="fill:#f5b024;stroke:black;stroke-width:1;fill-opacity:1;stroke-opacity:0.3" />
<line x1="151" y1="86" x2="154" y2="88" stroke="black" stroke-width="1" />
<line x1="154" y1="88" x2="158" y2="86" stroke="black" stroke-width="1" />
<rect x="113" y="84" width="37" height="5" style="fill:#f5b024;stroke:black;stroke-width:1;fill-opacity:1;stroke-opacity:0.3" />
<rect x="158" y="84" width="37" height="5" style="fill:#f5b024;stroke:black;stroke-width:1;fill-opacity:1;stroke-opacity:0.3" />
<line x1="151" y1="93" x2="156" y2="95" stroke="black" stroke-width="1" />
<line x1="156" y1="95" x2="162" y2="93" stroke="black" stroke-width="1" />
<rect x="113" y="91" width="37" height="5" style="fill:#f5b024;stroke:black;stroke-width:1;fill-opacity:1;stroke-opacity:0.3" />
<rect x="162" y="91" width="37" height="5" style="fill:#f5b024;stroke:black;stroke-width:1;fill-opacity:1;stroke-opacity:0.3" />
<line x1="151" y1="100" x2="157" y2="102" stroke="black" stroke-width="1" />
<line x1="157" y1="102" x2="164" y2="100" stroke="black" stroke-width="1" />
<rect x="114" y="98" width="37" height="5" style="fill:#f5b024;stroke:black;stroke-width:1;fill-opacity:1;stroke-opacity:0.3" />
<rect x="164" y="98" width="37" height="5" style="fill:#f5b024;stroke:black;stroke-width:1;fill-opacity:1;stroke-opacity:0.3" />
<line x1="151" y1="107" x2="159" y2="109" stroke="black" stroke-width="1" />
<line x1="159" y1="109" x2="167" y2="107" stroke="black" stroke-width="1" />
<rect x="114" y="105" width="37" height="5" style="fill:#f5b024;stroke:black;stroke-width:1;fill-opacity:1;stroke-opacity:0.3" />
<rect x="167" y="105" width="36" height="5" style="fill:#f5b024;stroke:black;stroke-width:1;fill-opacity:1;stroke-opacity:0.3" />
<line x1="151" y1="114" x2="154" y2="116" stroke="black" stroke-width="1" />
<line x1="154" y1="116" x2="157" y2="114" stroke="black" stroke-width="1" />
<rect x="114" y="112" width="36" height="5" style="fill:#f5b024;stroke:black;stroke-width:1;fill-opacity:1;stroke-opacity:0.3" />
<rect x="157" y="112" width="37" height="5" style="fill:#f5b024;stroke:black;stroke-width:1;fill-opacity:1;stroke-opacity:0.3" />
<line x1="152" y1="121" x2="166" y2="123" stroke="black" stroke-width="1" />
<line x1="166" y1="123" x2="180" y2="121" stroke="black" stroke-width="1" />
<rect x="115" y="119" width="37" height="5" style="fill:#f5b024;stroke:black;stroke-width:1;fill-opacity:1;stroke-opacity:0.3" />
<rect x="180" y="119" width="37" height="5" style="fill:#f5b024;stroke:black;stroke-width:1;fill-opacity:1;stroke-opacity:0.3" />
<line x1="171" y1="128" x2="182" y2="130" stroke="black" stroke-width="1" />
<line x1="182" y1="130" x2="193" y2="128" stroke="black" stroke-width="1" />
<rect x="116" y="126" width="54" height="5" style="fill:#5d3c2d;stroke:black;stroke-width:1;fill-opacity:1;stroke-opacity:0.3" />
<rect x="193" y="126" width="56" height="5" style="fill:#5d3c2d;stroke:black;stroke-width:1;fill-opacity:1;stroke-opacity:0.3" />
<line x1="153" y1="135" x2="159" y2="137" stroke="black" stroke-width="1" />
<line x1="159" y1="137" x2="166" y2="135" stroke="black" stroke-width="1" />
<rect x="116" y="133" width="37" height="5" style="fill:#f5b024;stroke:black;stroke-width:1;fill-opacity:1;stroke-opacity:0.3" />
<rect x="166" y="133" width="36" height="5" style="fill:#f5b024;stroke:black;stroke-width:1;fill-opacity:1;stroke-opacity:0.3" />
<line x1="153" y1="142" x2="159" y2="144" stroke="black" stroke-width="1" />
<line x1="159" y1="144" x2="165" y2="142" stroke="black" stroke-width="1" />
<rect x="116" y="140" width="36" height="5" style="fill:#f5b024;stroke:black;stroke-width:1;fill-opacity:1;stroke-opacity:0.3" />
<rect x="165" y="140" width="37" height="5" style="fill:#f5b024;stroke:black;stroke-width:1;fill-opacity:1;stroke-opacity:0.3" />
<line x1="154" y1="149" x2="161" y2="151" stroke="black" stroke-width="1" />
<line x1="161" y1="151" x2="168" y2="149" stroke="black" stroke-width="1" />
<rect x="116" y="147" width="37" height="5" style="fill:#f5b024;stroke:black;stroke-width:1;fill-opacity:1;stroke-opacity:0.3" />
<rect x="168" y="147" width="37" height="5" style="fill:#f5b024;stroke:black;stroke-width:1;fill-opacity:1;stroke-opacity:0.3" />
<line x1="155" y1="156" x2="158" y2="158" stroke="black" stroke-width="1" />
<line x1="158" y1="158" x2="161" y2="156" stroke="black" stroke-width="1" />
<rect x="118" y="154" width="37" height="5" style="fill:#f5b024;stroke:black;stroke-width:1;fill-opacity:1;stroke-opacity:0.3" />
<rect x="161" y="154" width="37" height="5" style="fill:#f5b024;stroke:black;stroke-width:1;fill-opacity:1;stroke-opacity:0.3" />
<line x1="176" y1="37" x2="188" y2="39" stroke="black" stroke-width="1" />
<line x1="188" y1="39" x2="200" y2="37" stroke="black" stroke-width="1" />
<rect x="120" y="35" width="55" height="5" style="fill:#f5b024;stroke:black;stroke-width:1;fill-opacity:1;stroke-opacity:0.3" />
<rect x="200" y="35" width="56" height="5" style="fill:#f5b024;stroke:black;stroke-width:1;fill-opacity:1;stroke-opacity:0.3" />
<line x1="159" y1="163" x2="162" y2="165" stroke="black" stroke-width="1" />
<line x1="162" y1="165" x2="165" y2="163" stroke="black" stroke-width="1" />
<rect x="121" y="161" width="37" height="5" style="fill:#f5b024;stroke:black;stroke-width:1;fill-opacity:1;stroke-opacity:0.3" />
<rect x="165" y="161" width="37" height="5" style="fill:#f5b024;stroke:black;stroke-width:1;fill-opacity:1;stroke-opacity:0.3" />
<line x1="225" y1="51" x2="228" y2="53" stroke="black" stroke-width="1" />
<line x1="228" y1="53" x2="232" y2="51" stroke="black" stroke-width="1" />
<rect x="187" y="49" width="37" height="5" style="fill:#f5b024;stroke:black;stroke-width:1;fill-opacity:1;stroke-opacity:0.3" />
<rect x="232" y="49" width="37" height="5" style="fill:#f5b024;stroke:black;stroke-width:1;fill-opacity:1;stroke-opacity:0.3" />
<line x1="226" y1="72" x2="230" y2="74" stroke="black" stroke-width="1" />
<line x1="230" y1="74" x2="235" y2="72" stroke="black" stroke-width="1" />
<rect x="189" y="70" width="37" height="5" style="fill:#f5b024;stroke:black;stroke-width:1;fill-opacity:1;stroke-opacity:0.3" />
<rect x="235" y="70" width="37" height="5" style="fill:#f5b024;stroke:black;stroke-width:1;fill-opacity:1;stroke-opacity:0.3" />
<line x1="232" y1="114" x2="239" y2="116" stroke="black" stroke-width="1" />
<line x1="239" y1="116" x2="246" y2="114" stroke="black" stroke-width="1" />
<rect x="194" y="112" width="37" height="5" style="fill:#f5b024;stroke:black;stroke-width:1;fill-opacity:1;stroke-opacity:0.3" />
<rect x="246" y="112" width="37" height="5" style="fill:#f5b024;stroke:black;stroke-width:1;fill-opacity:1;stroke-opacity:0.3" />
<line x1="233" y1="86" x2="236" y2="88" stroke="black" stroke-width="1" />
<line x1="236" y1="88" x2="240" y2="86" stroke="black" stroke-width="1" />
<rect x="195" y="84" width="37" height="5" style="fill:#f5b024;stroke:black;stroke-width:1;fill-opacity:1;stroke-opacity:0.3" />
<rect x="240" y="84" width="37" height="5" style="fill:#f5b024;stroke:black;stroke-width:1;fill-opacity:1;stroke-opacity:0.3" />
<line x1="236" y1="156" x2="242" y2="158" stroke="black" stroke-width="1" />
<line x1="242" y1="158" x2="248" y2="156" stroke="black" stroke-width="1" />
<rect x="198" y="154" width="37" height="5" style="fill:#f5b024;stroke:black;stroke-width:1;fill-opacity:1;stroke-opacity:0.3" />
<rect x="248" y="154" width="35" height="5" style="fill:#f5b024;stroke:black;stroke-width:1;fill-opacity:1;stroke-opacity:0.3" />
<line x1="236" y1="93" x2="241" y2="95" stroke="black" stroke-width="1" />
<line x1="241" y1="95" x2="246" y2="93" stroke="black" stroke-width="1" />
<rect x="199" y="91" width="37" height="5" style="fill:#f5b024;stroke:black;stroke-width:1;fill-opacity:1;stroke-opacity:0.3" />
<rect x="246" y="91" width="37" height="5" style="fill:#f5b024;stroke:black;stroke-width:1;fill-opacity:1;stroke-opacity:0.3" />
<line x1="237" y1="65" x2="242" y2="67" stroke="black" stroke-width="1" />
<line x1="242" y1="67" x2="247" y2="65" stroke="black" stroke-width="1" />
<rect x="200" y="63" width="37" height="5" style="fill:#f5b024;stroke:black;stroke-width:1;fill-opacity:1;stroke-opacity:0.3" />
<rect x="247" y="63" width="36" height="5" style="fill:#f5b024;stroke:black;stroke-width:1;fill-opacity:1;stroke-opacity:0.3" />
<line x1="238" y1="100" x2="244" y2="102" stroke="black" stroke-width="1" />
<line x1="244" y1="102" x2="250" y2="100" stroke="black" stroke-width="1" />
<rect x="201" y="98" width="37" height="5" style="fill:#f5b024;stroke:black;stroke-width:1;fill-opacity:1;stroke-opacity:0.3" />
<rect x="250" y="98" width="37" height="5" style="fill:#f5b024;stroke:black;stroke-width:1;fill-opacity:1;stroke-opacity:0.3" />
<line x1="240" y1="44" x2="243" y2="46" stroke="black" stroke-width="1" />
<line x1="243" y1="46" x2="246" y2="44" stroke="black" stroke-width="1" />
<rect x="202" y="42" width="37" height="5" style="fill:#f5b024;stroke:black;stroke-width:1;fill-opacity:1;stroke-opacity:0.3" />
<rect x="246" y="42" width="37" height="5" style="fill:#f5b024;stroke:black;stroke-width:1;fill-opacity:1;stroke-opacity:0.3" />
<line x1="258" y1="135" x2="260" y2="137" stroke="black" stroke-width="1" />
<line x1="260" y1="137" x2="263" y2="135" stroke="black" stroke-width="1" />
<rect x="202" y="133" width="56" height="5" style="fill:#f5b024;stroke:black;stroke-width:1;fill-opacity:1;stroke-opacity:0.3" />
<rect x="263" y="133" width="55" height="5" style="fill:#f5b024;stroke:black;stroke-width:1;fill-opacity:1;stroke-opacity:0.3" />
<line x1="240" y1="142" x2="243" y2="144" stroke="black" stroke-width="1" />
<line x1="243" y1="144" x2="246" y2="142" stroke="black" stroke-width="1" />
<rect x="202" y="140" width="37" height="5" style="fill:#f5b024;stroke:black;stroke-width:1;fill-opacity:1;stroke-opacity:0.3" />
<rect x="246" y="140" width="37" height="5" style="fill:#f5b024;stroke:black;stroke-width:1;fill-opacity:1;stroke-opacity:0.3" />
<line x1="258" y1="163" x2="263" y2="165" stroke="black" stroke-width="1" />
<line x1="263" y1="165" x2="269" y2="163" stroke="black" stroke-width="1" />
<rect x="202" y="161" width="56" height="5" style="fill:#f5b024;stroke:black;stroke-width:1;fill-opacity:1;stroke-opacity:0.3" />
<rect x="269" y="161" width="56" height="5" style="fill:#f5b024;stroke:black;stroke-width:1;fill-opacity:1;stroke-opacity:0.3" />
<line x1="242" y1="107" x2="251" y2="109" stroke="black" stroke-width="1" />
<line x1="251" y1="109" x2="261" y2="107" stroke="black" stroke-width="1" />
<rect x="204" y="105" width="37" height="5" style="fill:#f5b024;stroke:black;stroke-width:1;fill-opacity:1;stroke-opacity:0.3" />
<rect x="261" y="105" width="37" height="5" style="fill:#f5b024;stroke:black;stroke-width:1;fill-opacity:1;stroke-opacity:0.3" />
<line x1="243" y1="149" x2="248" y2="151" stroke="black" stroke-width="1" />
<line x1="248" y1="151" x2="254" y2="149" stroke="black" stroke-width="1" />
<rect x="205" y="147" width="37" height="5" style="fill:#f5b024;stroke:black;stroke-width:1;fill-opacity:1;stroke-opacity:0.3" />
<rect x="254" y="147" width="37" height="5" style="fill:#f5b024;stroke:black;stroke-width:1;fill-opacity:1;stroke-opacity:0.3" />
<line x1="246" y1="58" x2="249" y2="60" stroke="black" stroke-width="1" />
<line x1="249" y1="60" x2="252" y2="58" stroke="black" stroke-width="1" />
<rect x="209" y="56" width="36" height="5" style="fill:#f5b024;stroke:black;stroke-width:1;fill-opacity:1;stroke-opacity:0.3" />
<rect x="252" y="56" width="37" height="5" style="fill:#f5b024;stroke:black;stroke-width:1;fill-opacity:1;stroke-opacity:0.3" />
<line x1="257" y1="121" x2="266" y2="123" stroke="black" stroke-width="1" />
<line x1="266" y1="123" x2="275" y2="121" stroke="black" stroke-width="1" />
<rect x="220" y="119" width="37" height="5" style="fill:#f5b024;stroke:black;stroke-width:1;fill-opacity:1;stroke-opacity:0.3" />
<rect x="275" y="119" width="37" height="5" style="fill:#f5b024;stroke:black;stroke-width:1;fill-opacity:1;stroke-opacity:0.3" />
<line x1="267" y1="79" x2="279" y2="81" stroke="black" stroke-width="1" />
<line x1="279" y1="81" x2="291" y2="79" stroke="black" stroke-width="1" />
<rect x="230" y="77" width="37" height="5" style="fill:#f5b024;stroke:black;stroke-width:1;fill-opacity:1;stroke-opacity:0.3" />
<rect x="291" y="77" width="37" height="5" style="fill:#f5b024;stroke:black;stroke-width:1;fill-opacity:1;stroke-opacity:0.3" />
<line x1="285" y1="128" x2="290" y2="130" stroke="black" stroke-width="1" />
<line x1="290" y1="130" x2="295" y2="128" stroke="black" stroke-width="1" />
<rect x="249" y="126" width="36" height="5" style="fill:#f5b024;stroke:black;stroke-width:1;fill-opacity:1;stroke-opacity:0.3" />
<rect x="295" y="126" width="36" height="5" style="fill:#f5b024;stroke:black;stroke-width:1;fill-opacity:1;stroke-opacity:0.3" />
<line x1="292" y1="37" x2="294" y2="39" stroke="black" stroke-width="1" />
<line x1="294" y1="39" x2="297" y2="37" stroke="black" stroke-width="1" />
<rect x="257" y="35" width="35" height="5" style="fill:#f5b024;stroke:black;stroke-width:1;fill-opacity:1;stroke-opacity:0.3" />
<rect x="297" y="35" width="37" height="5" style="fill:#f5b024;stroke:black;stroke-width:1;fill-opacity:1;stroke-opacity:0.3" />
<line x1="327" y1="51" x2="333" y2="53" stroke="black" stroke-width="1" />
<line x1="333" y1="53" x2="340" y2="51" stroke="black" stroke-width="1" />
<rect x="271" y="49" width="56" height="5" style="fill:#f5b024;stroke:black;stroke-width:1;fill-opacity:1;stroke-opacity:0.3" />
<rect x="340" y="49" width="35" height="5" style="fill:#f5b024;stroke:black;stroke-width:1;fill-opacity:1;stroke-opacity:0.3" />
<line x1="376" y1="51" x2="532" y2="51" stroke="pink" stroke-width="1" />
<rect x="532" y="49" width="20" height="5" style="fill:#f5b024;stroke:black;stroke-width:1;fill-opacity:1;stroke-opacity:0.3" />
<line x1="328" y1="72" x2="330" y2="74" stroke="black" stroke-width="1" />
<line x1="330" y1="74" x2="332" y2="72" stroke="black" stroke-width="1" />
<rect x="272" y="70" width="56" height="5" style="fill:#f5b024;stroke:black;stroke-width:1;fill-opacity:1;stroke-opacity:0.3" />
<rect x="332" y="70" width="43" height="5" style="fill:#f5b024;stroke:black;stroke-width:1;fill-opacity:1;stroke-opacity:0.3" />
<line x1="376" y1="72" x2="532" y2="72" stroke="pink" stroke-width="1" />
<rect x="532" y="70" width="12" height="5" style="fill:#f5b024;stroke:black;stroke-width:1;fill-opacity:1;stroke-opacity:0.3" />
<line x1="334" y1="86" x2="336" y2="88" stroke="black" stroke-width="1" />
<line x1="336" y1="88" x2="338" y2="86" stroke="black" stroke-width="1" />
<rect x="278" y="84" width="56" height="5" style="fill:#f5b024;stroke:black;stroke-width:1;fill-opacity:1;stroke-opacity:0.3" />
<rect x="338" y="84" width="37" height="5" style="fill:#f5b024;stroke:black;stroke-width:1;fill-opacity:1;stroke-opacity:0.3" />
<line x1="376" y1="86" x2="532" y2="86" stroke="pink" stroke-width="1" />
<rect x="532" y="84" width="18" height="5" style="fill:#f5b024;stroke:black;stroke-width:1;fill-opacity:1;stroke-opacity:0.3" />
<line x1="321" y1="44" x2="325" y2="46" stroke="black" stroke-width="1" />
<line x1="325" y1="46" x2="330" y2="44" stroke="black" stroke-width="1" />
<rect x="284" y="42" width="36" height="5" style="fill:#f5b024;stroke:black;stroke-width:1;fill-opacity:1;stroke-opacity:0.3" />
<rect x="330" y="42" width="37" height="5" style="fill:#f5b024;stroke:black;stroke-width:1;fill-opacity:1;stroke-opacity:0.3" />
<line x1="322" y1="65" x2="326" y2="67" stroke="black" stroke-width="1" />
<line x1="326" y1="67" x2="330" y2="65" stroke="black" stroke-width="1" />
<rect x="285" y="63" width="36" height="5" style="fill:#f5b024;stroke:black;stroke-width:1;fill-opacity:1;stroke-opacity:0.3" />
<rect x="330" y="63" width="37" height="5" style="fill:#f5b024;stroke:black;stroke-width:1;fill-opacity:1;stroke-opacity:0.3" />
<line x1="322" y1="93" x2="327" y2="95" stroke="black" stroke-width="1" />
<line x1="327" y1="95" x2="333" y2="93" stroke="black" stroke-width="1" />
<rect x="285" y="91" width="36" height="5" style="fill:#f5b024;stroke:black;stroke-width:1;fill-opacity:1;stroke-opacity:0.3" />
<rect x="333" y="91" width="37" height="5" style="fill:#f5b024;stroke:black;stroke-width:1;fill-opacity:1;stroke-opacity:0.3" />
<line x1="323" y1="114" x2="330" y2="116" stroke="black" stroke-width="1" />
<line x1="330" y1="116" x2="337" y2="114" stroke="black" stroke-width="1" />
<rect x="285" y="112" width="37" height="5" style="fill:#f5b024;stroke:black;stroke-width:1;fill-opacity:1;stroke-opacity:0.3" />
<rect x="337" y="112" width="37" height="5" style="fill:#f5b024;stroke:black;stroke-width:1;fill-opacity:1;stroke-opacity:0.3" />
<line x1="323" y1="142" x2="329" y2="144" stroke="black" stroke-width="1" />
<line x1="329" y1="144" x2="335" y2="142" stroke="black" stroke-width="1" />
<rect x="285" y="140" width="37" height="5" style="fill:#f5b024;stroke:black;stroke-width:1;fill-opacity:1;stroke-opacity:0.3" />
<rect x="335" y="140" width="37" height="5" style="fill:#f5b024;stroke:black;stroke-width:1;fill-opacity:1;stroke-opacity:0.3" />
<line x1="341" y1="156" x2="343" y2="158" stroke="black" stroke-width="1" />
<line x1="343" y1="158" x2="346" y2="156" stroke="black" stroke-width="1" />
<rect x="285" y="154" width="56" height="5" style="fill:#f5b024;stroke:black;stroke-width:1;fill-opacity:1;stroke-opacity:0.3" />
<rect x="346" y="154" width="29" height="5" style="fill:#f5b024;stroke:black;stroke-width:1;fill-opacity:1;stroke-opacity:0.3" />
<line x1="376" y1="156" x2="532" y2="156" stroke="pink" stroke-width="1" />
<rect x="532" y="154" width="26" height="5" style="fill:#f5b024;stroke:black;stroke-width:1;fill-opacity:1;stroke-opacity:0.3" />
<line x1="325" y1="30" x2="330" y2="32" stroke="black" stroke-width="1" />
<line x1="330" y1="32" x2="335" y2="30" stroke="black" stroke-width="1" />
<rect x="288" y="28" width="36" height="5" style="fill:#f5b024;stroke:black;stroke-width:1;fill-opacity:1;stroke-opacity:0.3" />
<rect x="335" y="28" width="37" height="5" style="fill:#f5b024;stroke:black;stroke-width:1;fill-opacity:1;stroke-opacity:0.3" />
<line x1="326" y1="100" x2="329" y2="102" stroke="black" stroke-width="1" />
<line x1="329" y1="102" x2="333" y2="100" stroke="black" stroke-width="1" />
<rect x="289" y="98" width="37" height="5" style="fill:#f5b024;stroke:black;stroke-width:1;fill-opacity:1;stroke-opacity:0.3" />
<rect x="333" y="98" width="37" height="5" style="fill:#f5b024;stroke:black;stroke-width:1;fill-opacity:1;stroke-opacity:0.3" />
<line x1="347" y1="58" x2="355" y2="60" stroke="black" stroke-width="1" />
<line x1="355" y1="60" x2="363" y2="58" stroke="black" stroke-width="1" />
<rect x="291" y="56" width="56" height="5" style="fill:#f5b024;stroke:black;stroke-width:1;fill-opacity:1;stroke-opacity:0.3" />
<rect x="363" y="56" width="12" height="5" style="fill:#f5b024;stroke:black;stroke-width:1;fill-opacity:1;stroke-opacity:0.3" />
<line x1="376" y1="58" x2="532" y2="58" stroke="pink" stroke-width="1" />
<rect x="532" y="56" width="35" height="5" style="fill:#f5b024;stroke:black;stroke-width:1;fill-opacity:1;stroke-opacity:0.3" />
<line x1="567" y1="58" x2="699" y2="58" stroke="pink" stroke-width="1" />
<rect x="699" y="56" width="8" height="5" style="fill:#f5b024;stroke:black;stroke-width:1;fill-opacity:1;stroke-opacity:0.3" />
<line x1="329" y1="149" x2="331" y2="151" stroke="black" stroke-width="1" />
<line x1="331" y1="151" x2="334" y2="149" stroke="black" stroke-width="1" />
<rect x="292" y="147" width="37" height="5" style="fill:#f5b024;stroke:black;stroke-width:1;fill-opacity:1;stroke-opacity:0.3" />
<rect x="334" y="147" width="37" height="5" style="fill:#f5b024;stroke:black;stroke-width:1;fill-opacity:1;stroke-opacity:0.3" />
<line x1="336" y1="107" x2="345" y2="109" stroke="black" stroke-width="1" />
<line x1="345" y1="109" x2="355" y2="107" stroke="black" stroke-width="1" />
<rect x="299" y="105" width="37" height="5" style="fill:#f5b024;stroke:black;stroke-width:1;fill-opacity:1;stroke-opacity:0.3" />
<rect x="355" y="105" width="20" height="5" style="fill:#f5b024;stroke:black;stroke-width:1;fill-opacity:1;stroke-opacity:0.3" />
<line x1="376" y1="107" x2="532" y2="107" stroke="pink" stroke-width="1" />
<rect x="532" y="105" width="16" height="5" style="fill:#f5b024;stroke:black;stroke-width:1;fill-opacity:1;stroke-opacity:0.3" />
<line x1="351" y1="121" x2="358" y2="123" stroke="black" stroke-width="1" />
<line x1="358" y1="123" x2="366" y2="121" stroke="black" stroke-width="1" />
<rect x="313" y="119" width="37" height="5" style="fill:#f5b024;stroke:black;stroke-width:1;fill-opacity:1;stroke-opacity:0.3" />
<rect x="366" y="119" width="9" height="5" style="fill:#f5b024;stroke:black;stroke-width:1;fill-opacity:1;stroke-opacity:0.3" />
<line x1="376" y1="121" x2="532" y2="121" stroke="pink" stroke-width="1" />
<rect x="532" y="119" width="27" height="5" style="fill:#f5b024;stroke:black;stroke-width:1;fill-opacity:1;stroke-opacity:0.3" />
<line x1="357" y1="135" x2="364" y2="137" stroke="black" stroke-width="1" />
<line x1="364" y1="137" x2="372" y2="135" stroke="black" stroke-width="1" />
<rect x="320" y="133" width="37" height="5" style="fill:#f5b024;stroke:black;stroke-width:1;fill-opacity:1;stroke-opacity:0.3" />
<rect x="372" y="133" width="3" height="5" style="fill:#f5b024;stroke:black;stroke-width:1;fill-opacity:1;stroke-opacity:0.3" />
<line x1="376" y1="135" x2="532" y2="135" stroke="pink" stroke-width="1" />
<rect x="532" y="133" width="34" height="5" style="fill:#f5b024;stroke:black;stroke-width:1;fill-opacity:1;stroke-opacity:0.3" />
<line x1="367" y1="79" x2="450" y2="81" stroke="black" stroke-width="1" />
<line x1="450" y1="81" x2="533" y2="79" stroke="black" stroke-width="1" />
<rect x="329" y="77" width="37" height="5" style="fill:#f5b024;stroke:black;stroke-width:1;fill-opacity:1;stroke-opacity:0.3" />
<rect x="533" y="77" width="33" height="5" style="fill:#f5b024;stroke:black;stroke-width:1;fill-opacity:1;stroke-opacity:0.3" />
<line x1="567" y1="79" x2="699" y2="79" stroke="pink" stroke-width="1" />
<rect x="699" y="77" width="3" height="5" style="fill:#f5b024;stroke:black;stroke-width:1;fill-opacity:1;stroke-opacity:0.3" />
<line x1="366" y1="163" x2="462" y2="165" stroke="black" stroke-width="1" />
<line x1="462" y1="165" x2="559" y2="163" stroke="black" stroke-width="1" />
<rect x="329" y="161" width="36" height="5" style="fill:#f5b024;stroke:black;stroke-width:1;fill-opacity:1;stroke-opacity:0.3" />
<rect x="559" y="161" width="7" height="5" style="fill:#f5b024;stroke:black;stroke-width:1;fill-opacity:1;stroke-opacity:0.3" />
<line x1="567" y1="163" x2="699" y2="163" stroke="pink" stroke-width="1" />
<rect x="699" y="161" width="29" height="5" style="fill:#f5b024;stroke:black;stroke-width:1;fill-opacity:1;stroke-opacity:0.3" />
<line x1="370" y1="128" x2="452" y2="130" stroke="black" stroke-width="1" />
<line x1="452" y1="130" x2="535" y2="128" stroke="black" stroke-width="1" />
<rect x="333" y="126" width="37" height="5" style="fill:#f5b024;stroke:black;stroke-width:1;fill-opacity:1;stroke-opacity:0.3" />
<rect x="535" y="126" width="31" height="5" style="fill:#f5b024;stroke:black;stroke-width:1;fill-opacity:1;stroke-opacity:0.3" />
<line x1="567" y1="128" x2="699" y2="128" stroke="pink" stroke-width="1" />
<rect x="699" y="126" width="5" height="5" style="fill:#f5b024;stroke:black;stroke-width:1;fill-opacity:1;stroke-opacity:0.3" />
<line x1="374" y1="37" x2="455" y2="39" stroke="black" stroke-width="1" />
<line x1="455" y1="39" x2="536" y2="37" stroke="black" stroke-width="1" />
<rect x="337" y="35" width="36" height="5" style="fill:#f5b024;stroke:black;stroke-width:1;fill-opacity:1;stroke-opacity:0.3" />
<rect x="536" y="35" width="30" height="5" style="fill:#f5b024;stroke:black;stroke-width:1;fill-opacity:1;stroke-opacity:0.3" />
<line x1="567" y1="37" x2="699" y2="37" stroke="pink" stroke-width="1" />
<rect x="699" y="35" width="7" height="5" style="fill:#f5b024;stroke:black;stroke-width:1;fill-opacity:1;stroke-opacity:0.3" />
<line x1="713" y1="44" x2="719" y2="46" stroke="black" stroke-width="1" />
<line x1="719" y1="46" x2="726" y2="44" stroke="black" stroke-width="1" />
<rect x="368" y="42" width="7" height="5" style="fill:#f5b024;stroke:black;stroke-width:1;fill-opacity:1;stroke-opacity:0.3" />
<line x1="376" y1="44" x2="532" y2="44" stroke="pink" stroke-width="1" />
<rect x="532" y="42" width="35" height="5" style="fill:#f5b024;stroke:black;stroke-width:1;fill-opacity:1;stroke-opacity:0.3" />
<line x1="567" y1="44" x2="699" y2="44" stroke="pink" stroke-width="1" />
<rect x="699" y="42" width="13" height="5" style="fill:#f5b024;stroke:black;stroke-width:1;fill-opacity:1;stroke-opacity:0.3" />
<rect x="726" y="42" width="55" height="5" style="fill:#f5b024;stroke:black;stroke-width:1;fill-opacity:1;stroke-opacity:0.3" />
<line x1="566" y1="30" x2="643" y2="32" stroke="black" stroke-width="1" />
<line x1="643" y1="32" x2="720" y2="30" stroke="black" stroke-width="1" />
<rect x="373" y="28" width="2" height="5" style="fill:#f5b024;stroke:black;stroke-width:1;fill-opacity:1;stroke-opacity:0.3" />
<line x1="376" y1="30" x2="532" y2="30" stroke="pink" stroke-width="1" />
<rect x="532" y="28" width="34" height="5" style="fill:#f5b024;stroke:black;stroke-width:1;fill-opacity:1;stroke-opacity:0.3" />
<rect x="720" y="28" width="33" height="5" style="fill:#f5b024;stroke:black;stroke-width:1;fill-opacity:1;stroke-opacity:0.3" />
<line x1="566" y1="65" x2="640" y2="67" stroke="black" stroke-width="1" />
<line x1="640" y1="67" x2="714" y2="65" stroke="black" stroke-width="1" />
<rect x="373" y="63" width="2" height="5" style="fill:#f5b024;stroke:black;stroke-width:1;fill-opacity:1;stroke-opacity:0.3" />
<line x1="376" y1="65" x2="532" y2="65" stroke="pink" stroke-width="1" />
<rect x="532" y="63" width="34" height="5" style="fill:#f5b024;stroke:black;stroke-width:1;fill-opacity:1;stroke-opacity:0.3" />
<rect x="714" y="63" width="37" height="5" style="fill:#f5b024;stroke:black;stroke-width:1;fill-opacity:1;stroke-opacity:0.3" />
<line x1="705" y1="93" x2="714" y2="95" stroke="black" stroke-width="1" />
<line x1="714" y1="95" x2="724" y2="93" stroke="black" stroke-width="1" />
<rect x="535" y="91" width="31" height="5" style="fill:#f5b024;stroke:black;stroke-width:1;fill-opacity:1;stroke-opacity:0.3" />
<line x1="567" y1="93" x2="699" y2="93" stroke="pink" stroke-width="1" />
<rect x="699" y="91" width="5" height="5" style="fill:#f5b024;stroke:black;stroke-width:1;fill-opacity:1;stroke-opacity:0.3" />
<rect x="724" y="91" width="37" height="5" style="fill:#f5b024;stroke:black;stroke-width:1;fill-opacity:1;stroke-opacity:0.3" />
<line x1="705" y1="100" x2="718" y2="102" stroke="black" stroke-width="1" />
<line x1="718" y1="102" x2="731" y2="100" stroke="black" stroke-width="1" />
<rect x="536" y="98" width="31" height="5" style="fill:#f5b024;stroke:black;stroke-width:1;fill-opacity:1;stroke-opacity:0.3" />
<line x1="567" y1="100" x2="699" y2="100" stroke="pink" stroke-width="1" />
<rect x="699" y="98" width="6" height="5" style="fill:#f5b024;stroke:black;stroke-width:1;fill-opacity:1;stroke-opacity:0.3" />
<rect x="731" y="98" width="37" height="5" style="fill:#f5b024;stroke:black;stroke-width:1;fill-opacity:1;stroke-opacity:0.3" />
<line x1="705" y1="114" x2="714" y2="116" stroke="black" stroke-width="1" />
<line x1="714" y1="116" x2="723" y2="114" stroke="black" stroke-width="1" />
<rect x="536" y="112" width="31" height="5" style="fill:#f5b024;stroke:black;stroke-width:1;fill-opacity:1;stroke-opacity:0.3" />
<line x1="567" y1="114" x2="699" y2="114" stroke="pink" stroke-width="1" />
<rect x="699" y="112" width="6" height="5" style="fill:#f5b024;stroke:black;stroke-width:1;fill-opacity:1;stroke-opacity:0.3" />
<rect x="723" y="112" width="32" height="5" style="fill:#f5b024;stroke:black;stroke-width:1;fill-opacity:1;stroke-opacity:0.3" />
<line x1="727" y1="142" x2="731" y2="144" stroke="black" stroke-width="1" />
<line x1="731" y1="144" x2="736" y2="142" stroke="black" stroke-width="1" />
<rect x="539" y="140" width="27" height="5" style="fill:#f5b024;stroke:black;stroke-width:1;fill-opacity:1;stroke-opacity:0.3" />
<line x1="567" y1="142" x2="699" y2="142" stroke="pink" stroke-width="1" />
<rect x="699" y="140" width="28" height="5" style="fill:#f5b024;stroke:black;stroke-width:1;fill-opacity:1;stroke-opacity:0.3" />
<rect x="736" y="140" width="52" height="5" style="fill:#f5b024;stroke:black;stroke-width:1;fill-opacity:1;stroke-opacity:0.3" />
<line x1="789" y1="142" x2="843" y2="142" stroke="pink" stroke-width="1" />
<rect x="843" y="140" width="3" height="5" style="fill:#f5b024;stroke:black;stroke-width:1;fill-opacity:1;stroke-opacity:0.3" />
<line x1="709" y1="149" x2="719" y2="151" stroke="black" stroke-width="1" />
<line x1="719" y1="151" x2="730" y2="149" stroke="black" stroke-width="1" />
<rect x="539" y="147" width="27" height="5" style="fill:#f5b024;stroke:black;stroke-width:1;fill-opacity:1;stroke-opacity:0.3" />
<line x1="567" y1="149" x2="699" y2="149" stroke="pink" stroke-width="1" />
<rect x="699" y="147" width="10" height="5" style="fill:#f5b024;stroke:black;stroke-width:1;fill-opacity:1;stroke-opacity:0.3" />
<rect x="730" y="147" width="37" height="5" style="fill:#f5b024;stroke:black;stroke-width:1;fill-opacity:1;stroke-opacity:0.3" />
<line x1="733" y1="72" x2="744" y2="74" stroke="black" stroke-width="1" />
<line x1="744" y1="74" x2="756" y2="72" stroke="black" stroke-width="1" />
<rect x="545" y="70" width="22" height="5" style="fill:#f5b024;stroke:black;stroke-width:1;fill-opacity:1;stroke-opacity:0.3" />
<line x1="567" y1="72" x2="699" y2="72" stroke="pink" stroke-width="1" />
<rect x="699" y="70" width="34" height="5" style="fill:#f5b024;stroke:black;stroke-width:1;fill-opacity:1;stroke-opacity:0.3" />
<rect x="756" y="70" width="31" height="5" style="fill:#f5b024;stroke:black;stroke-width:1;fill-opacity:1;stroke-opacity:0.3" />
<line x1="788" y1="72" x2="843" y2="72" stroke="pink" stroke-width="1" />
<rect x="843" y="70" width="24" height="5" style="fill:#f5b024;stroke:black;stroke-width:1;fill-opacity:1;stroke-opacity:0.3" />
<line x1="720" y1="86" x2="727" y2="88" stroke="black" stroke-width="1" />
<line x1="727" y1="88" x2="735" y2="86" stroke="black" stroke-width="1" />
<rect x="551" y="84" width="16" height="5" style="fill:#f5b024;stroke:black;stroke-width:1;fill-opacity:1;stroke-opacity:0.3" />
<line x1="567" y1="86" x2="699" y2="86" stroke="pink" stroke-width="1" />
<rect x="699" y="84" width="20" height="5" style="fill:#f5b024;stroke:black;stroke-width:1;fill-opacity:1;stroke-opacity:0.3" />
<rect x="735" y="84" width="37" height="5" style="fill:#f5b024;stroke:black;stroke-width:1;fill-opacity:1;stroke-opacity:0.3" />
<line x1="721" y1="107" x2="728" y2="109" stroke="black" stroke-width="1" />
<line x1="728" y1="109" x2="735" y2="107" stroke="black" stroke-width="1" />
<rect x="551" y="105" width="15" height="5" style="fill:#f5b024;stroke:black;stroke-width:1;fill-opacity:1;stroke-opacity:0.3" />
<line x1="567" y1="107" x2="699" y2="107" stroke="pink" stroke-width="1" />
<rect x="699" y="105" width="22" height="5" style="fill:#f5b024;stroke:black;stroke-width:1;fill-opacity:1;stroke-opacity:0.3" />
<rect x="735" y="105" width="37" height="5" style="fill:#f5b024;stroke:black;stroke-width:1;fill-opacity:1;stroke-opacity:0.3" />
<line x1="722" y1="51" x2="734" y2="53" stroke="black" stroke-width="1" />
<line x1="734" y1="53" x2="746" y2="51" stroke="black" stroke-width="1" />
<rect x="553" y="49" width="14" height="5" style="fill:#f5b024;stroke:black;stroke-width:1;fill-opacity:1;stroke-opacity:0.3" />
<line x1="567" y1="51" x2="699" y2="51" stroke="pink" stroke-width="1" />
<rect x="699" y="49" width="23" height="5" style="fill:#f5b024;stroke:black;stroke-width:1;fill-opacity:1;stroke-opacity:0.3" />
<rect x="746" y="49" width="37" height="5" style="fill:#f5b024;stroke:black;stroke-width:1;fill-opacity:1;stroke-opacity:0.3" />
<line x1="750" y1="121" x2="753" y2="123" stroke="black" stroke-width="1" />
<line x1="753" y1="123" x2="756" y2="121" stroke="black" stroke-width="1" />
<rect x="562" y="119" width="5" height="5" style="fill:#f5b024;stroke:black;stroke-width:1;fill-opacity:1;stroke-opacity:0.3" />
<line x1="567" y1="121" x2="699" y2="121" stroke="pink" stroke-width="1" />
<rect x="699" y="119" width="50" height="5" style="fill:#f5b024;stroke:black;stroke-width:1;fill-opacity:1;stroke-opacity:0.3" />
<rect x="756" y="119" width="32" height="5" style="fill:#f5b024;stroke:black;stroke-width:1;fill-opacity:1;stroke-opacity:0.3" />
<line x1="788" y1="121" x2="843" y2="121" stroke="pink" stroke-width="1" />
<rect x="843" y="119" width="23" height="5" style="fill:#f5b024;stroke:black;stroke-width:1;fill-opacity:1;stroke-opacity:0.3" />
<line x1="739" y1="135" x2="743" y2="137" stroke="black" stroke-width="1" />
<line x1="743" y1="137" x2="747" y2="135" stroke="black" stroke-width="1" />
<rect x="702" y="133" width="37" height="5" style="fill:#f5b024;stroke:black;stroke-width:1;fill-opacity:1;stroke-opacity:0.3" />
<rect x="747" y="133" width="37" height="5" style="fill:#f5b024;stroke:black;stroke-width:1;fill-opacity:1;stroke-opacity:0.3" />
<line x1="758" y1="156" x2="770" y2="158" stroke="black" stroke-width="1" />
<line x1="770" y1="158" x2="783" y2="156" stroke="black" stroke-width="1" />
<rect x="702" y="154" width="56" height="5" style="fill:#f5b024;stroke:black;stroke-width:1;fill-opacity:1;stroke-opacity:0.3" />
<rect x="783" y="154" width="4" height="5" style="fill:#f5b024;stroke:black;stroke-width:1;fill-opacity:1;stroke-opacity:0.3" />
<line x1="788" y1="156" x2="843" y2="156" stroke="pink" stroke-width="1" />
<rect x="843" y="154" width="51" height="5" style="fill:#f5b024;stroke:black;stroke-width:1;fill-opacity:1;stroke-opacity:0.3" />
<line x1="740" y1="79" x2="743" y2="81" stroke="black" stroke-width="1" />
<line x1="743" y1="81" x2="747" y2="79" stroke="black" stroke-width="1" />
<rect x="703" y="77" width="37" height="5" style="fill:#f5b024;stroke:black;stroke-width:1;fill-opacity:1;stroke-opacity:0.3" />
<rect x="747" y="77" width="37" height="5" style="fill:#f5b024;stroke:black;stroke-width:1;fill-opacity:1;stroke-opacity:0.3" />
<line x1="743" y1="128" x2="746" y2="130" stroke="black" stroke-width="1" />
<line x1="746" y1="130" x2="750" y2="128" stroke="black" stroke-width="1" />
<rect x="705" y="126" width="37" height="5" style="fill:#f5b024;stroke:black;stroke-width:1;fill-opacity:1;stroke-opacity:0.3" />
<rect x="750" y="126" width="37" height="5" style="fill:#f5b024;stroke:black;stroke-width:1;fill-opacity:1;stroke-opacity:0.3" />
<line x1="744" y1="37" x2="757" y2="39" stroke="black" stroke-width="1" />
<line x1="757" y1="39" x2="771" y2="37" stroke="black" stroke-width="1" />
<rect x="707" y="35" width="37" height="5" style="fill:#f5b024;stroke:black;stroke-width:1;fill-opacity:1;stroke-opacity:0.3" />
<rect x="771" y="35" width="16" height="5" style="fill:#f5b024;stroke:black;stroke-width:1;fill-opacity:1;stroke-opacity:0.3" />
<line x1="788" y1="37" x2="843" y2="37" stroke="pink" stroke-width="1" />
<rect x="843" y="35" width="20" height="5" style="fill:#f5b024;stroke:black;stroke-width:1;fill-opacity:1;stroke-opacity:0.3" />
<line x1="745" y1="58" x2="747" y2="60" stroke="black" stroke-width="1" />
<line x1="747" y1="60" x2="750" y2="58" stroke="black" stroke-width="1" />
<rect x="707" y="56" width="37" height="5" style="fill:#f5b024;stroke:black;stroke-width:1;fill-opacity:1;stroke-opacity:0.3" />
<rect x="750" y="56" width="37" height="5" style="fill:#f5b024;stroke:black;stroke-width:1;fill-opacity:1;stroke-opacity:0.3" />
<line x1="766" y1="163" x2="772" y2="165" stroke="black" stroke-width="1" />
<line x1="772" y1="165" x2="779" y2="163" stroke="black" stroke-width="1" />
<rect x="730" y="161" width="35" height="5" style="fill:#f5b024;stroke:black;stroke-width:1;fill-opacity:1;stroke-opacity:0.3" />
<rect x="779" y="161" width="8" height="5" style="fill:#f5b024;stroke:black;stroke-width:1;fill-opacity:1;stroke-opacity:0.3" />
<line x1="788" y1="163" x2="843" y2="163" stroke="pink" stroke-width="1" />
<rect x="843" y="161" width="28" height="5" style="fill:#f5b024;stroke:black;stroke-width:1;fill-opacity:1;stroke-opacity:0.3" />
<line x1="843" y1="65" x2="851" y2="67" stroke="black" stroke-width="1" />
<line x1="851" y1="67" x2="859" y2="65" stroke="black" stroke-width="1" />
<rect x="751" y="63" width="36" height="5" style="fill:#f5b024;stroke:black;stroke-width:1;fill-opacity:1;stroke-opacity:0.3" />
<line x1="788" y1="65" x2="843" y2="65" stroke="pink" stroke-width="1" />
<rect x="843" y="63" width="0" height="5" style="fill:#f5b024;stroke:black;stroke-width:1;fill-opacity:1;stroke-opacity:0.3" />
<rect x="859" y="63" width="37" height="5" style="fill:#f5b024;stroke:black;stroke-width:1;fill-opacity:1;stroke-opacity:0.3" />
<line x1="789" y1="30" x2="816" y2="32" stroke="black" stroke-width="1" />
<line x1="816" y1="32" x2="843" y2="30" stroke="black" stroke-width="1" />
<rect x="754" y="28" width="35" height="5" style="fill:#f5b024;stroke:black;stroke-width:1;fill-opacity:1;stroke-opacity:0.3" />
<rect x="843" y="28" width="36" height="5" style="fill:#f5b024;stroke:black;stroke-width:1;fill-opacity:1;stroke-opacity:0.3" />
<line x1="847" y1="114" x2="856" y2="116" stroke="black" stroke-width="1" />
<line x1="856" y1="116" x2="865" y2="114" stroke="black" stroke-width="1" />
<rect x="756" y="112" width="32" height="5" style="fill:#f5b024;stroke:black;stroke-width:1;fill-opacity:1;stroke-opacity:0.3" />
<line x1="788" y1="114" x2="843" y2="114" stroke="pink" stroke-width="1" />
<rect x="843" y="112" width="4" height="5" style="fill:#f5b024;stroke:black;stroke-width:1;fill-opacity:1;stroke-opacity:0.3" />
<rect x="865" y="112" width="37" height="5" style="fill:#f5b024;stroke:black;stroke-width:1;fill-opacity:1;stroke-opacity:0.3" />
<line x1="853" y1="93" x2="866" y2="95" stroke="black" stroke-width="1" />
<line x1="866" y1="95" x2="879" y2="93" stroke="black" stroke-width="1" />
<rect x="762" y="91" width="26" height="5" style="fill:#f5b024;stroke:black;stroke-width:1;fill-opacity:1;stroke-opacity:0.3" />
<line x1="789" y1="93" x2="843" y2="93" stroke="pink" stroke-width="1" />
<rect x="843" y="91" width="10" height="5" style="fill:#f5b024;stroke:black;stroke-width:1;fill-opacity:1;stroke-opacity:0.3" />
<rect x="879" y="91" width="37" height="5" style="fill:#f5b024;stroke:black;stroke-width:1;fill-opacity:1;stroke-opacity:0.3" />
<line x1="859" y1="100" x2="861" y2="102" stroke="black" stroke-width="1" />
<line x1="861" y1="102" x2="863" y2="100" stroke="black" stroke-width="1" />
<rect x="769" y="98" width="20" height="5" style="fill:#f5b024;stroke:black;stroke-width:1;fill-opacity:1;stroke-opacity:0.3" />
<line x1="789" y1="100" x2="843" y2="100" stroke="pink" stroke-width="1" />
<rect x="843" y="98" width="16" height="5" style="fill:#f5b024;stroke:black;stroke-width:1;fill-opacity:1;stroke-opacity:0.3" />
<rect x="863" y="98" width="37" height="5" style="fill:#f5b024;stroke:black;stroke-width:1;fill-opacity:1;stroke-opacity:0.3" />
<line x1="861" y1="149" x2="867" y2="151" stroke="black" stroke-width="1" />
<line x1="867" y1="151" x2="874" y2="149" stroke="black" stroke-width="1" />
<rect x="769" y="147" width="18" height="5" style="fill:#f5b024;stroke:black;stroke-width:1;fill-opacity:1;stroke-opacity:0.3" />
<line x1="788" y1="149" x2="843" y2="149" stroke="pink" stroke-width="1" />
<rect x="843" y="147" width="18" height="5" style="fill:#f5b024;stroke:black;stroke-width:1;fill-opacity:1;stroke-opacity:0.3" />
<rect x="874" y="147" width="37" height="5" style="fill:#f5b024;stroke:black;stroke-width:1;fill-opacity:1;stroke-opacity:0.3" />
<line x1="868" y1="86" x2="871" y2="88" stroke="black" stroke-width="1" />
<line x1="871" y1="88" x2="875" y2="86" stroke="black" stroke-width="1" />
<rect x="776" y="84" width="11" height="5" style="fill:#f5b024;stroke:black;stroke-width:1;fill-opacity:1;stroke-opacity:0.3" />
<line x1="788" y1="86" x2="843" y2="86" stroke="pink" stroke-width="1" />
<rect x="843" y="84" width="25" height="5" style="fill:#f5b024;stroke:black;stroke-width:1;fill-opacity:1;stroke-opacity:0.3" />
<rect x="875" y="84" width="37" height="5" style="fill:#f5b024;stroke:black;stroke-width:1;fill-opacity:1;stroke-opacity:0.3" />
<line x1="869" y1="107" x2="873" y2="109" stroke="black" stroke-width="1" />
<line x1="873" y1="109" x2="877" y2="107" stroke="black" stroke-width="1" />
<rect x="777" y="105" width="10" height="5" style="fill:#f5b024;stroke:black;stroke-width:1;fill-opacity:1;stroke-opacity:0.3" />
<line x1="788" y1="107" x2="843" y2="107" stroke="pink" stroke-width="1" />
<rect x="843" y="105" width="26" height="5" style="fill:#f5b024;stroke:black;stroke-width:1;fill-opacity:1;stroke-opacity:0.3" />
<rect x="877" y="105" width="37" height="5" style="fill:#f5b024;stroke:black;stroke-width:1;fill-opacity:1;stroke-opacity:0.3" />
<line x1="875" y1="44" x2="877" y2="46" stroke="black" stroke-width="1" />
<line x1="877" y1="46" x2="879" y2="44" stroke="black" stroke-width="1" />
<rect x="783" y="42" width="4" height="5" style="fill:#f5b024;stroke:black;stroke-width:1;fill-opacity:1;stroke-opacity:0.3" />
<line x1="788" y1="44" x2="843" y2="44" stroke="pink" stroke-width="1" />
<rect x="843" y="42" width="32" height="5" style="fill:#f5b024;stroke:black;stroke-width:1;fill-opacity:1;stroke-opacity:0.3" />
<rect x="879" y="42" width="37" height="5" style="fill:#f5b024;stroke:black;stroke-width:1;fill-opacity:1;stroke-opacity:0.3" />
<line x1="876" y1="51" x2="879" y2="53" stroke="black" stroke-width="1" />
<line x1="879" y1="53" x2="882" y2="51" stroke="black" stroke-width="1" />
<rect x="784" y="49" width="4" height="5" style="fill:#f5b024;stroke:black;stroke-width:1;fill-opacity:1;stroke-opacity:0.3" />
<line x1="788" y1="51" x2="843" y2="51" stroke="pink" stroke-width="1" />
<rect x="843" y="49" width="33" height="5" style="fill:#f5b024;stroke:black;stroke-width:1;fill-opacity:1;stroke-opacity:0.3" />
<rect x="882" y="49" width="37" height="5" style="fill:#f5b024;stroke:black;stroke-width:1;fill-opacity:1;stroke-opacity:0.3" />
<line x1="886" y1="58" x2="888" y2="60" stroke="black" stroke-width="1" />
<line x1="888" y1="60" x2="890" y2="58" stroke="black" stroke-width="1" />
<rect x="848" y="56" width="37" height="5" style="fill:#f5b024;stroke:black;stroke-width:1;fill-opacity:1;stroke-opacity:0.3" />
<rect x="890" y="56" width="37" height="5" style="fill:#f5b024;stroke:black;stroke-width:1;fill-opacity:1;stroke-opacity:0.3" />
<text x="15"  y="176" style="font-family:Arial;font-size:10;stroke:black;fill:black;">all.merged.bam</text>
</svg>
    
