<?xml version="1.0" encoding="utf-8" standalone="no"?>
<!DOCTYPE svg PUBLIC "-//W3C//DTD SVG 1.1//EN"
  "http://www.w3.org/Graphics/SVG/1.1/DTD/svg11.dtd">
<svg height="1140" width="1000" version="1.1" viewBox="0 0 1000 1140" xmlns="http://www.w3.org/2000/svg" xmlns:xlink="http://www.w3.org/1999/xlink">
<line x1="47" y1="11" x2="952" y2="11" stroke="black" stroke-width="1" />
<rect x="47" y="9" width="27" height="5" style="fill:#f50002;stroke:black;stroke-width:1;fill-opacity:1;stroke-opacity:0.3" />
<rect x="74" y="9" width="40" height="5" style="fill:#53a1b5;stroke:black;stroke-width:1;fill-opacity:1;stroke-opacity:0.3" />
<rect x="168" y="9" width="35" height="5" style="fill:#53a1b5;stroke:black;stroke-width:1;fill-opacity:1;stroke-opacity:0.3" />
<rect x="286" y="9" width="39" height="5" style="fill:#53a1b5;stroke:black;stroke-width:1;fill-opacity:1;stroke-opacity:0.3" />
<rect x="477" y="9" width="37" height="5" style="fill:#53a1b5;stroke:black;stroke-width:1;fill-opacity:1;stroke-opacity:0.3" />
<rect x="621" y="9" width="15" height="5" style="fill:#53a1b5;stroke:black;stroke-width:1;fill-opacity:1;stroke-opacity:0.3" />
<rect x="761" y="9" width="33" height="5" style="fill:#53a1b5;stroke:black;stroke-width:1;fill-opacity:1;stroke-opacity:0.3" />
<rect x="795" y="9" width="157" height="5" style="fill:#f50002;stroke:black;stroke-width:1;fill-opacity:1;stroke-opacity:0.3" />
<text x="47"  y="23" style="font-family:Arial;font-size:10;stroke:black;fill:black;">Cre02.g086100.t1.2.v5.5 (+) chromosome_2:1714269-1716191</text>
<line x1="86" y1="30" x2="98" y2="32" stroke="black" stroke-width="1" />
<line x1="98" y1="32" x2="110" y2="30" stroke="black" stroke-width="1" />
<rect x="39" y="28" width="47" height="5" style="fill:#5d3c2d;stroke:black;stroke-width:1;fill-opacity:1;stroke-opacity:0.3" />
<rect x="110" y="28" width="47" height="5" style="fill:#5d3c2d;stroke:black;stroke-width:1;fill-opacity:1;stroke-opacity:0.3" />
<line x1="93" y1="37" x2="133" y2="39" stroke="black" stroke-width="1" />
<line x1="133" y1="39" x2="173" y2="37" stroke="black" stroke-width="1" />
<rect x="46" y="35" width="47" height="5" style="fill:#5d3c2d;stroke:black;stroke-width:1;fill-opacity:1;stroke-opacity:0.3" />
<rect x="173" y="35" width="30" height="5" style="fill:#5d3c2d;stroke:black;stroke-width:1;fill-opacity:1;stroke-opacity:0.3" />
<line x1="204" y1="37" x2="286" y2="37" stroke="pink" stroke-width="1" />
<rect x="286" y="35" width="16" height="5" style="fill:#5d3c2d;stroke:black;stroke-width:1;fill-opacity:1;stroke-opacity:0.3" />
<line x1="96" y1="44" x2="134" y2="46" stroke="black" stroke-width="1" />
<line x1="134" y1="46" x2="173" y2="44" stroke="black" stroke-width="1" />
<rect x="48" y="42" width="47" height="5" style="fill:#5d3c2d;stroke:black;stroke-width:1;fill-opacity:1;stroke-opacity:0.3" />
<rect x="173" y="42" width="30" height="5" style="fill:#5d3c2d;stroke:black;stroke-width:1;fill-opacity:1;stroke-opacity:0.3" />
<line x1="204" y1="44" x2="286" y2="44" stroke="pink" stroke-width="1" />
<rect x="286" y="42" width="16" height="5" style="fill:#5d3c2d;stroke:black;stroke-width:1;fill-opacity:1;stroke-opacity:0.3" />
<line x1="96" y1="51" x2="134" y2="53" stroke="black" stroke-width="1" />
<line x1="134" y1="53" x2="173" y2="51" stroke="black" stroke-width="1" />
<rect x="48" y="49" width="47" height="5" style="fill:#5d3c2d;stroke:black;stroke-width:1;fill-opacity:1;stroke-opacity:0.3" />
<rect x="173" y="49" width="30" height="5" style="fill:#5d3c2d;stroke:black;stroke-width:1;fill-opacity:1;stroke-opacity:0.3" />
<line x1="204" y1="51" x2="286" y2="51" stroke="pink" stroke-width="1" />
<rect x="286" y="49" width="15" height="5" style="fill:#5d3c2d;stroke:black;stroke-width:1;fill-opacity:1;stroke-opacity:0.3" />
<line x1="101" y1="58" x2="105" y2="60" stroke="black" stroke-width="1" />
<line x1="105" y1="60" x2="110" y2="58" stroke="black" stroke-width="1" />
<rect x="54" y="56" width="47" height="5" style="fill:#5d3c2d;stroke:black;stroke-width:1;fill-opacity:1;stroke-opacity:0.3" />
<rect x="110" y="56" width="5" height="5" style="fill:#5d3c2d;stroke:black;stroke-width:1;fill-opacity:1;stroke-opacity:0.3" />
<line x1="115" y1="58" x2="168" y2="58" stroke="pink" stroke-width="1" />
<rect x="168" y="56" width="35" height="5" style="fill:#5d3c2d;stroke:black;stroke-width:1;fill-opacity:1;stroke-opacity:0.3" />
<line x1="204" y1="58" x2="286" y2="58" stroke="pink" stroke-width="1" />
<rect x="286" y="56" width="6" height="5" style="fill:#5d3c2d;stroke:black;stroke-width:1;fill-opacity:1;stroke-opacity:0.3" />
<line x1="101" y1="65" x2="146" y2="67" stroke="black" stroke-width="1" />
<line x1="146" y1="67" x2="192" y2="65" stroke="black" stroke-width="1" />
<rect x="54" y="63" width="47" height="5" style="fill:#5d3c2d;stroke:black;stroke-width:1;fill-opacity:1;stroke-opacity:0.3" />
<rect x="192" y="63" width="11" height="5" style="fill:#5d3c2d;stroke:black;stroke-width:1;fill-opacity:1;stroke-opacity:0.3" />
<line x1="204" y1="65" x2="286" y2="65" stroke="pink" stroke-width="1" />
<rect x="286" y="63" width="35" height="5" style="fill:#5d3c2d;stroke:black;stroke-width:1;fill-opacity:1;stroke-opacity:0.3" />
<line x1="103" y1="72" x2="106" y2="74" stroke="black" stroke-width="1" />
<line x1="106" y1="74" x2="110" y2="72" stroke="black" stroke-width="1" />
<rect x="56" y="70" width="47" height="5" style="fill:#5d3c2d;stroke:black;stroke-width:1;fill-opacity:1;stroke-opacity:0.3" />
<rect x="110" y="70" width="4" height="5" style="fill:#5d3c2d;stroke:black;stroke-width:1;fill-opacity:1;stroke-opacity:0.3" />
<line x1="115" y1="72" x2="168" y2="72" stroke="pink" stroke-width="1" />
<rect x="168" y="70" width="35" height="5" style="fill:#5d3c2d;stroke:black;stroke-width:1;fill-opacity:1;stroke-opacity:0.3" />
<line x1="204" y1="72" x2="286" y2="72" stroke="pink" stroke-width="1" />
<rect x="286" y="70" width="6" height="5" style="fill:#5d3c2d;stroke:black;stroke-width:1;fill-opacity:1;stroke-opacity:0.3" />
<line x1="104" y1="79" x2="151" y2="81" stroke="black" stroke-width="1" />
<line x1="151" y1="81" x2="198" y2="79" stroke="black" stroke-width="1" />
<rect x="56" y="77" width="47" height="5" style="fill:#5d3c2d;stroke:black;stroke-width:1;fill-opacity:1;stroke-opacity:0.3" />
<rect x="198" y="77" width="6" height="5" style="fill:#5d3c2d;stroke:black;stroke-width:1;fill-opacity:1;stroke-opacity:0.3" />
<line x1="204" y1="79" x2="286" y2="79" stroke="pink" stroke-width="1" />
<rect x="286" y="77" width="40" height="5" style="fill:#5d3c2d;stroke:black;stroke-width:1;fill-opacity:1;stroke-opacity:0.3" />
<line x1="326" y1="79" x2="477" y2="79" stroke="pink" stroke-width="1" />
<rect x="477" y="77" width="0" height="5" style="fill:#5d3c2d;stroke:black;stroke-width:1;fill-opacity:1;stroke-opacity:0.3" />
<line x1="104" y1="86" x2="150" y2="88" stroke="black" stroke-width="1" />
<line x1="150" y1="88" x2="197" y2="86" stroke="black" stroke-width="1" />
<rect x="56" y="84" width="47" height="5" style="fill:#5d3c2d;stroke:black;stroke-width:1;fill-opacity:1;stroke-opacity:0.3" />
<rect x="197" y="84" width="6" height="5" style="fill:#5d3c2d;stroke:black;stroke-width:1;fill-opacity:1;stroke-opacity:0.3" />
<line x1="204" y1="86" x2="286" y2="86" stroke="pink" stroke-width="1" />
<rect x="286" y="84" width="40" height="5" style="fill:#5d3c2d;stroke:black;stroke-width:1;fill-opacity:1;stroke-opacity:0.3" />
<line x1="326" y1="86" x2="477" y2="86" stroke="pink" stroke-width="1" />
<rect x="477" y="84" width="0" height="5" style="fill:#5d3c2d;stroke:black;stroke-width:1;fill-opacity:1;stroke-opacity:0.3" />
<line x1="104" y1="93" x2="107" y2="95" stroke="black" stroke-width="1" />
<line x1="107" y1="95" x2="110" y2="93" stroke="black" stroke-width="1" />
<rect x="56" y="91" width="47" height="5" style="fill:#5d3c2d;stroke:black;stroke-width:1;fill-opacity:1;stroke-opacity:0.3" />
<rect x="110" y="91" width="4" height="5" style="fill:#5d3c2d;stroke:black;stroke-width:1;fill-opacity:1;stroke-opacity:0.3" />
<line x1="115" y1="93" x2="168" y2="93" stroke="pink" stroke-width="1" />
<rect x="168" y="91" width="35" height="5" style="fill:#5d3c2d;stroke:black;stroke-width:1;fill-opacity:1;stroke-opacity:0.3" />
<line x1="204" y1="93" x2="286" y2="93" stroke="pink" stroke-width="1" />
<rect x="286" y="91" width="6" height="5" style="fill:#5d3c2d;stroke:black;stroke-width:1;fill-opacity:1;stroke-opacity:0.3" />
<line x1="104" y1="100" x2="107" y2="102" stroke="black" stroke-width="1" />
<line x1="107" y1="102" x2="111" y2="100" stroke="black" stroke-width="1" />
<rect x="56" y="98" width="47" height="5" style="fill:#5d3c2d;stroke:black;stroke-width:1;fill-opacity:1;stroke-opacity:0.3" />
<rect x="111" y="98" width="4" height="5" style="fill:#5d3c2d;stroke:black;stroke-width:1;fill-opacity:1;stroke-opacity:0.3" />
<line x1="115" y1="100" x2="168" y2="100" stroke="pink" stroke-width="1" />
<rect x="168" y="98" width="35" height="5" style="fill:#5d3c2d;stroke:black;stroke-width:1;fill-opacity:1;stroke-opacity:0.3" />
<line x1="204" y1="100" x2="286" y2="100" stroke="pink" stroke-width="1" />
<rect x="286" y="98" width="7" height="5" style="fill:#5d3c2d;stroke:black;stroke-width:1;fill-opacity:1;stroke-opacity:0.3" />
<line x1="104" y1="107" x2="137" y2="109" stroke="black" stroke-width="1" />
<line x1="137" y1="109" x2="171" y2="107" stroke="black" stroke-width="1" />
<rect x="57" y="105" width="47" height="5" style="fill:#5d3c2d;stroke:black;stroke-width:1;fill-opacity:1;stroke-opacity:0.3" />
<rect x="171" y="105" width="32" height="5" style="fill:#5d3c2d;stroke:black;stroke-width:1;fill-opacity:1;stroke-opacity:0.3" />
<line x1="204" y1="107" x2="286" y2="107" stroke="pink" stroke-width="1" />
<rect x="286" y="105" width="14" height="5" style="fill:#5d3c2d;stroke:black;stroke-width:1;fill-opacity:1;stroke-opacity:0.3" />
<line x1="104" y1="114" x2="107" y2="116" stroke="black" stroke-width="1" />
<line x1="107" y1="116" x2="110" y2="114" stroke="black" stroke-width="1" />
<rect x="57" y="112" width="47" height="5" style="fill:#5d3c2d;stroke:black;stroke-width:1;fill-opacity:1;stroke-opacity:0.3" />
<rect x="110" y="112" width="4" height="5" style="fill:#5d3c2d;stroke:black;stroke-width:1;fill-opacity:1;stroke-opacity:0.3" />
<line x1="115" y1="114" x2="168" y2="114" stroke="pink" stroke-width="1" />
<rect x="168" y="112" width="35" height="5" style="fill:#5d3c2d;stroke:black;stroke-width:1;fill-opacity:1;stroke-opacity:0.3" />
<line x1="204" y1="114" x2="286" y2="114" stroke="pink" stroke-width="1" />
<rect x="286" y="112" width="6" height="5" style="fill:#5d3c2d;stroke:black;stroke-width:1;fill-opacity:1;stroke-opacity:0.3" />
<line x1="104" y1="121" x2="108" y2="123" stroke="black" stroke-width="1" />
<line x1="108" y1="123" x2="113" y2="121" stroke="black" stroke-width="1" />
<rect x="57" y="119" width="47" height="5" style="fill:#5d3c2d;stroke:black;stroke-width:1;fill-opacity:1;stroke-opacity:0.3" />
<rect x="113" y="119" width="1" height="5" style="fill:#5d3c2d;stroke:black;stroke-width:1;fill-opacity:1;stroke-opacity:0.3" />
<line x1="115" y1="121" x2="168" y2="121" stroke="pink" stroke-width="1" />
<rect x="168" y="119" width="35" height="5" style="fill:#5d3c2d;stroke:black;stroke-width:1;fill-opacity:1;stroke-opacity:0.3" />
<line x1="204" y1="121" x2="286" y2="121" stroke="pink" stroke-width="1" />
<rect x="286" y="119" width="9" height="5" style="fill:#5d3c2d;stroke:black;stroke-width:1;fill-opacity:1;stroke-opacity:0.3" />
<line x1="182" y1="128" x2="184" y2="130" stroke="black" stroke-width="1" />
<line x1="184" y1="130" x2="187" y2="128" stroke="black" stroke-width="1" />
<rect x="58" y="126" width="56" height="5" style="fill:#5d3c2d;stroke:black;stroke-width:1;fill-opacity:1;stroke-opacity:0.3" />
<line x1="115" y1="128" x2="168" y2="128" stroke="pink" stroke-width="1" />
<rect x="168" y="126" width="14" height="5" style="fill:#5d3c2d;stroke:black;stroke-width:1;fill-opacity:1;stroke-opacity:0.3" />
<rect x="187" y="126" width="16" height="5" style="fill:#5d3c2d;stroke:black;stroke-width:1;fill-opacity:1;stroke-opacity:0.3" />
<line x1="204" y1="128" x2="286" y2="128" stroke="pink" stroke-width="1" />
<rect x="286" y="126" width="40" height="5" style="fill:#5d3c2d;stroke:black;stroke-width:1;fill-opacity:1;stroke-opacity:0.3" />
<line x1="326" y1="128" x2="477" y2="128" stroke="pink" stroke-width="1" />
<rect x="477" y="126" width="13" height="5" style="fill:#5d3c2d;stroke:black;stroke-width:1;fill-opacity:1;stroke-opacity:0.3" />
<line x1="106" y1="135" x2="109" y2="137" stroke="black" stroke-width="1" />
<line x1="109" y1="137" x2="112" y2="135" stroke="black" stroke-width="1" />
<rect x="59" y="133" width="47" height="5" style="fill:#5d3c2d;stroke:black;stroke-width:1;fill-opacity:1;stroke-opacity:0.3" />
<rect x="112" y="133" width="3" height="5" style="fill:#5d3c2d;stroke:black;stroke-width:1;fill-opacity:1;stroke-opacity:0.3" />
<line x1="115" y1="135" x2="168" y2="135" stroke="pink" stroke-width="1" />
<rect x="168" y="133" width="35" height="5" style="fill:#5d3c2d;stroke:black;stroke-width:1;fill-opacity:1;stroke-opacity:0.3" />
<line x1="204" y1="135" x2="286" y2="135" stroke="pink" stroke-width="1" />
<rect x="286" y="133" width="8" height="5" style="fill:#5d3c2d;stroke:black;stroke-width:1;fill-opacity:1;stroke-opacity:0.3" />
<line x1="106" y1="142" x2="142" y2="144" stroke="black" stroke-width="1" />
<line x1="142" y1="144" x2="178" y2="142" stroke="black" stroke-width="1" />
<rect x="59" y="140" width="47" height="5" style="fill:#5d3c2d;stroke:black;stroke-width:1;fill-opacity:1;stroke-opacity:0.3" />
<rect x="178" y="140" width="26" height="5" style="fill:#5d3c2d;stroke:black;stroke-width:1;fill-opacity:1;stroke-opacity:0.3" />
<line x1="204" y1="142" x2="286" y2="142" stroke="pink" stroke-width="1" />
<rect x="286" y="140" width="20" height="5" style="fill:#5d3c2d;stroke:black;stroke-width:1;fill-opacity:1;stroke-opacity:0.3" />
<line x1="107" y1="149" x2="149" y2="151" stroke="black" stroke-width="1" />
<line x1="149" y1="151" x2="192" y2="149" stroke="black" stroke-width="1" />
<rect x="60" y="147" width="47" height="5" style="fill:#5d3c2d;stroke:black;stroke-width:1;fill-opacity:1;stroke-opacity:0.3" />
<rect x="192" y="147" width="12" height="5" style="fill:#5d3c2d;stroke:black;stroke-width:1;fill-opacity:1;stroke-opacity:0.3" />
<line x1="204" y1="149" x2="286" y2="149" stroke="pink" stroke-width="1" />
<rect x="286" y="147" width="34" height="5" style="fill:#5d3c2d;stroke:black;stroke-width:1;fill-opacity:1;stroke-opacity:0.3" />
<line x1="107" y1="156" x2="138" y2="158" stroke="black" stroke-width="1" />
<line x1="138" y1="158" x2="169" y2="156" stroke="black" stroke-width="1" />
<rect x="60" y="154" width="47" height="5" style="fill:#5d3c2d;stroke:black;stroke-width:1;fill-opacity:1;stroke-opacity:0.3" />
<rect x="169" y="154" width="34" height="5" style="fill:#5d3c2d;stroke:black;stroke-width:1;fill-opacity:1;stroke-opacity:0.3" />
<line x1="204" y1="156" x2="286" y2="156" stroke="pink" stroke-width="1" />
<rect x="286" y="154" width="12" height="5" style="fill:#5d3c2d;stroke:black;stroke-width:1;fill-opacity:1;stroke-opacity:0.3" />
<line x1="108" y1="163" x2="140" y2="165" stroke="black" stroke-width="1" />
<line x1="140" y1="165" x2="172" y2="163" stroke="black" stroke-width="1" />
<rect x="61" y="161" width="47" height="5" style="fill:#5d3c2d;stroke:black;stroke-width:1;fill-opacity:1;stroke-opacity:0.3" />
<rect x="172" y="161" width="31" height="5" style="fill:#5d3c2d;stroke:black;stroke-width:1;fill-opacity:1;stroke-opacity:0.3" />
<line x1="204" y1="163" x2="286" y2="163" stroke="pink" stroke-width="1" />
<rect x="286" y="161" width="15" height="5" style="fill:#5d3c2d;stroke:black;stroke-width:1;fill-opacity:1;stroke-opacity:0.3" />
<line x1="318" y1="30" x2="398" y2="32" stroke="black" stroke-width="1" />
<line x1="398" y1="32" x2="479" y2="30" stroke="black" stroke-width="1" />
<rect x="167" y="28" width="36" height="5" style="fill:#5d3c2d;stroke:black;stroke-width:1;fill-opacity:1;stroke-opacity:0.3" />
<line x1="204" y1="30" x2="286" y2="30" stroke="pink" stroke-width="1" />
<rect x="286" y="28" width="32" height="5" style="fill:#5d3c2d;stroke:black;stroke-width:1;fill-opacity:1;stroke-opacity:0.3" />
<rect x="479" y="28" width="35" height="5" style="fill:#5d3c2d;stroke:black;stroke-width:1;fill-opacity:1;stroke-opacity:0.3" />
<line x1="515" y1="30" x2="621" y2="30" stroke="pink" stroke-width="1" />
<rect x="621" y="28" width="15" height="5" style="fill:#5d3c2d;stroke:black;stroke-width:1;fill-opacity:1;stroke-opacity:0.3" />
<line x1="636" y1="30" x2="761" y2="30" stroke="pink" stroke-width="1" />
<rect x="761" y="28" width="19" height="5" style="fill:#5d3c2d;stroke:black;stroke-width:1;fill-opacity:1;stroke-opacity:0.3" />
<line x1="492" y1="58" x2="496" y2="60" stroke="black" stroke-width="1" />
<line x1="496" y1="60" x2="501" y2="58" stroke="black" stroke-width="1" />
<rect x="294" y="56" width="32" height="5" style="fill:#5d3c2d;stroke:black;stroke-width:1;fill-opacity:1;stroke-opacity:0.3" />
<line x1="326" y1="58" x2="477" y2="58" stroke="pink" stroke-width="1" />
<rect x="477" y="56" width="15" height="5" style="fill:#5d3c2d;stroke:black;stroke-width:1;fill-opacity:1;stroke-opacity:0.3" />
<rect x="501" y="56" width="14" height="5" style="fill:#5d3c2d;stroke:black;stroke-width:1;fill-opacity:1;stroke-opacity:0.3" />
<line x1="515" y1="58" x2="621" y2="58" stroke="pink" stroke-width="1" />
<rect x="621" y="56" width="15" height="5" style="fill:#5d3c2d;stroke:black;stroke-width:1;fill-opacity:1;stroke-opacity:0.3" />
<line x1="636" y1="58" x2="761" y2="58" stroke="pink" stroke-width="1" />
<rect x="761" y="56" width="17" height="5" style="fill:#5d3c2d;stroke:black;stroke-width:1;fill-opacity:1;stroke-opacity:0.3" />
<line x1="492" y1="72" x2="496" y2="74" stroke="black" stroke-width="1" />
<line x1="496" y1="74" x2="501" y2="72" stroke="black" stroke-width="1" />
<rect x="294" y="70" width="32" height="5" style="fill:#5d3c2d;stroke:black;stroke-width:1;fill-opacity:1;stroke-opacity:0.3" />
<line x1="326" y1="72" x2="477" y2="72" stroke="pink" stroke-width="1" />
<rect x="477" y="70" width="15" height="5" style="fill:#5d3c2d;stroke:black;stroke-width:1;fill-opacity:1;stroke-opacity:0.3" />
<rect x="501" y="70" width="14" height="5" style="fill:#5d3c2d;stroke:black;stroke-width:1;fill-opacity:1;stroke-opacity:0.3" />
<line x1="515" y1="72" x2="621" y2="72" stroke="pink" stroke-width="1" />
<rect x="621" y="70" width="15" height="5" style="fill:#5d3c2d;stroke:black;stroke-width:1;fill-opacity:1;stroke-opacity:0.3" />
<line x1="636" y1="72" x2="761" y2="72" stroke="pink" stroke-width="1" />
<rect x="761" y="70" width="17" height="5" style="fill:#5d3c2d;stroke:black;stroke-width:1;fill-opacity:1;stroke-opacity:0.3" />
<line x1="494" y1="93" x2="653" y2="95" stroke="black" stroke-width="1" />
<line x1="653" y1="95" x2="812" y2="93" stroke="black" stroke-width="1" />
<rect x="295" y="91" width="30" height="5" style="fill:#5d3c2d;stroke:black;stroke-width:1;fill-opacity:1;stroke-opacity:0.3" />
<line x1="326" y1="93" x2="477" y2="93" stroke="pink" stroke-width="1" />
<rect x="477" y="91" width="16" height="5" style="fill:#5d3c2d;stroke:black;stroke-width:1;fill-opacity:1;stroke-opacity:0.3" />
<rect x="812" y="91" width="47" height="5" style="fill:#5d3c2d;stroke:black;stroke-width:1;fill-opacity:1;stroke-opacity:0.3" />
<line x1="494" y1="100" x2="497" y2="102" stroke="black" stroke-width="1" />
<line x1="497" y1="102" x2="501" y2="100" stroke="black" stroke-width="1" />
<rect x="295" y="98" width="30" height="5" style="fill:#5d3c2d;stroke:black;stroke-width:1;fill-opacity:1;stroke-opacity:0.3" />
<line x1="326" y1="100" x2="477" y2="100" stroke="pink" stroke-width="1" />
<rect x="477" y="98" width="16" height="5" style="fill:#5d3c2d;stroke:black;stroke-width:1;fill-opacity:1;stroke-opacity:0.3" />
<rect x="501" y="98" width="14" height="5" style="fill:#5d3c2d;stroke:black;stroke-width:1;fill-opacity:1;stroke-opacity:0.3" />
<line x1="515" y1="100" x2="621" y2="100" stroke="pink" stroke-width="1" />
<rect x="621" y="98" width="15" height="5" style="fill:#5d3c2d;stroke:black;stroke-width:1;fill-opacity:1;stroke-opacity:0.3" />
<line x1="636" y1="100" x2="761" y2="100" stroke="pink" stroke-width="1" />
<rect x="761" y="98" width="17" height="5" style="fill:#5d3c2d;stroke:black;stroke-width:1;fill-opacity:1;stroke-opacity:0.3" />
<line x1="494" y1="114" x2="497" y2="116" stroke="black" stroke-width="1" />
<line x1="497" y1="116" x2="501" y2="114" stroke="black" stroke-width="1" />
<rect x="295" y="112" width="30" height="5" style="fill:#5d3c2d;stroke:black;stroke-width:1;fill-opacity:1;stroke-opacity:0.3" />
<line x1="326" y1="114" x2="477" y2="114" stroke="pink" stroke-width="1" />
<rect x="477" y="112" width="16" height="5" style="fill:#5d3c2d;stroke:black;stroke-width:1;fill-opacity:1;stroke-opacity:0.3" />
<rect x="501" y="112" width="14" height="5" style="fill:#5d3c2d;stroke:black;stroke-width:1;fill-opacity:1;stroke-opacity:0.3" />
<line x1="515" y1="114" x2="621" y2="114" stroke="pink" stroke-width="1" />
<rect x="621" y="112" width="15" height="5" style="fill:#5d3c2d;stroke:black;stroke-width:1;fill-opacity:1;stroke-opacity:0.3" />
<line x1="636" y1="114" x2="761" y2="114" stroke="pink" stroke-width="1" />
<rect x="761" y="112" width="17" height="5" style="fill:#5d3c2d;stroke:black;stroke-width:1;fill-opacity:1;stroke-opacity:0.3" />
<line x1="494" y1="135" x2="496" y2="137" stroke="black" stroke-width="1" />
<line x1="496" y1="137" x2="499" y2="135" stroke="black" stroke-width="1" />
<rect x="295" y="133" width="30" height="5" style="fill:#5d3c2d;stroke:black;stroke-width:1;fill-opacity:1;stroke-opacity:0.3" />
<line x1="326" y1="135" x2="477" y2="135" stroke="pink" stroke-width="1" />
<rect x="477" y="133" width="16" height="5" style="fill:#5d3c2d;stroke:black;stroke-width:1;fill-opacity:1;stroke-opacity:0.3" />
<rect x="499" y="133" width="16" height="5" style="fill:#5d3c2d;stroke:black;stroke-width:1;fill-opacity:1;stroke-opacity:0.3" />
<line x1="515" y1="135" x2="621" y2="135" stroke="pink" stroke-width="1" />
<rect x="621" y="133" width="15" height="5" style="fill:#5d3c2d;stroke:black;stroke-width:1;fill-opacity:1;stroke-opacity:0.3" />
<line x1="636" y1="135" x2="761" y2="135" stroke="pink" stroke-width="1" />
<rect x="761" y="133" width="15" height="5" style="fill:#5d3c2d;stroke:black;stroke-width:1;fill-opacity:1;stroke-opacity:0.3" />
<line x1="495" y1="121" x2="565" y2="123" stroke="black" stroke-width="1" />
<line x1="565" y1="123" x2="635" y2="121" stroke="black" stroke-width="1" />
<rect x="296" y="119" width="29" height="5" style="fill:#5d3c2d;stroke:black;stroke-width:1;fill-opacity:1;stroke-opacity:0.3" />
<line x1="326" y1="121" x2="477" y2="121" stroke="pink" stroke-width="1" />
<rect x="477" y="119" width="17" height="5" style="fill:#5d3c2d;stroke:black;stroke-width:1;fill-opacity:1;stroke-opacity:0.3" />
<rect x="635" y="119" width="1" height="5" style="fill:#5d3c2d;stroke:black;stroke-width:1;fill-opacity:1;stroke-opacity:0.3" />
<line x1="636" y1="121" x2="761" y2="121" stroke="pink" stroke-width="1" />
<rect x="761" y="119" width="45" height="5" style="fill:#5d3c2d;stroke:black;stroke-width:1;fill-opacity:1;stroke-opacity:0.3" />
<line x1="498" y1="107" x2="567" y2="109" stroke="black" stroke-width="1" />
<line x1="567" y1="109" x2="636" y2="107" stroke="black" stroke-width="1" />
<rect x="300" y="105" width="25" height="5" style="fill:#5d3c2d;stroke:black;stroke-width:1;fill-opacity:1;stroke-opacity:0.3" />
<line x1="326" y1="107" x2="477" y2="107" stroke="pink" stroke-width="1" />
<rect x="477" y="105" width="21" height="5" style="fill:#5d3c2d;stroke:black;stroke-width:1;fill-opacity:1;stroke-opacity:0.3" />
<rect x="636" y="105" width="0" height="5" style="fill:#5d3c2d;stroke:black;stroke-width:1;fill-opacity:1;stroke-opacity:0.3" />
<line x1="636" y1="107" x2="761" y2="107" stroke="pink" stroke-width="1" />
<rect x="761" y="105" width="46" height="5" style="fill:#5d3c2d;stroke:black;stroke-width:1;fill-opacity:1;stroke-opacity:0.3" />
<line x1="498" y1="156" x2="633" y2="158" stroke="black" stroke-width="1" />
<line x1="633" y1="158" x2="768" y2="156" stroke="black" stroke-width="1" />
<rect x="300" y="154" width="25" height="5" style="fill:#5d3c2d;stroke:black;stroke-width:1;fill-opacity:1;stroke-opacity:0.3" />
<line x1="326" y1="156" x2="477" y2="156" stroke="pink" stroke-width="1" />
<rect x="477" y="154" width="21" height="5" style="fill:#5d3c2d;stroke:black;stroke-width:1;fill-opacity:1;stroke-opacity:0.3" />
<rect x="768" y="154" width="45" height="5" style="fill:#5d3c2d;stroke:black;stroke-width:1;fill-opacity:1;stroke-opacity:0.3" />
<line x1="501" y1="37" x2="560" y2="39" stroke="black" stroke-width="1" />
<line x1="560" y1="39" x2="620" y2="37" stroke="black" stroke-width="1" />
<rect x="302" y="35" width="23" height="5" style="fill:#5d3c2d;stroke:black;stroke-width:1;fill-opacity:1;stroke-opacity:0.3" />
<line x1="326" y1="37" x2="477" y2="37" stroke="pink" stroke-width="1" />
<rect x="477" y="35" width="23" height="5" style="fill:#5d3c2d;stroke:black;stroke-width:1;fill-opacity:1;stroke-opacity:0.3" />
<rect x="620" y="35" width="16" height="5" style="fill:#5d3c2d;stroke:black;stroke-width:1;fill-opacity:1;stroke-opacity:0.3" />
<line x1="636" y1="37" x2="761" y2="37" stroke="pink" stroke-width="1" />
<rect x="761" y="35" width="28" height="5" style="fill:#5d3c2d;stroke:black;stroke-width:1;fill-opacity:1;stroke-opacity:0.3" />
<line x1="502" y1="44" x2="563" y2="46" stroke="black" stroke-width="1" />
<line x1="563" y1="46" x2="624" y2="44" stroke="black" stroke-width="1" />
<rect x="304" y="42" width="22" height="5" style="fill:#5d3c2d;stroke:black;stroke-width:1;fill-opacity:1;stroke-opacity:0.3" />
<line x1="326" y1="44" x2="477" y2="44" stroke="pink" stroke-width="1" />
<rect x="477" y="42" width="24" height="5" style="fill:#5d3c2d;stroke:black;stroke-width:1;fill-opacity:1;stroke-opacity:0.3" />
<rect x="624" y="42" width="12" height="5" style="fill:#5d3c2d;stroke:black;stroke-width:1;fill-opacity:1;stroke-opacity:0.3" />
<line x1="636" y1="44" x2="761" y2="44" stroke="pink" stroke-width="1" />
<rect x="761" y="42" width="34" height="5" style="fill:#5d3c2d;stroke:black;stroke-width:1;fill-opacity:1;stroke-opacity:0.3" />
<line x1="502" y1="51" x2="507" y2="53" stroke="black" stroke-width="1" />
<line x1="507" y1="53" x2="512" y2="51" stroke="black" stroke-width="1" />
<rect x="304" y="49" width="22" height="5" style="fill:#5d3c2d;stroke:black;stroke-width:1;fill-opacity:1;stroke-opacity:0.3" />
<line x1="326" y1="51" x2="477" y2="51" stroke="pink" stroke-width="1" />
<rect x="477" y="49" width="24" height="5" style="fill:#5d3c2d;stroke:black;stroke-width:1;fill-opacity:1;stroke-opacity:0.3" />
<rect x="512" y="49" width="3" height="5" style="fill:#5d3c2d;stroke:black;stroke-width:1;fill-opacity:1;stroke-opacity:0.3" />
<line x1="515" y1="51" x2="621" y2="51" stroke="pink" stroke-width="1" />
<rect x="621" y="49" width="15" height="5" style="fill:#5d3c2d;stroke:black;stroke-width:1;fill-opacity:1;stroke-opacity:0.3" />
<line x1="636" y1="51" x2="761" y2="51" stroke="pink" stroke-width="1" />
<rect x="761" y="49" width="28" height="5" style="fill:#5d3c2d;stroke:black;stroke-width:1;fill-opacity:1;stroke-opacity:0.3" />
<line x1="502" y1="163" x2="565" y2="165" stroke="black" stroke-width="1" />
<line x1="565" y1="165" x2="628" y2="163" stroke="black" stroke-width="1" />
<rect x="304" y="161" width="22" height="5" style="fill:#5d3c2d;stroke:black;stroke-width:1;fill-opacity:1;stroke-opacity:0.3" />
<line x1="326" y1="163" x2="477" y2="163" stroke="pink" stroke-width="1" />
<rect x="477" y="161" width="24" height="5" style="fill:#5d3c2d;stroke:black;stroke-width:1;fill-opacity:1;stroke-opacity:0.3" />
<rect x="628" y="161" width="8" height="5" style="fill:#5d3c2d;stroke:black;stroke-width:1;fill-opacity:1;stroke-opacity:0.3" />
<line x1="636" y1="163" x2="761" y2="163" stroke="pink" stroke-width="1" />
<rect x="761" y="161" width="38" height="5" style="fill:#5d3c2d;stroke:black;stroke-width:1;fill-opacity:1;stroke-opacity:0.3" />
<line x1="505" y1="142" x2="509" y2="144" stroke="black" stroke-width="1" />
<line x1="509" y1="144" x2="514" y2="142" stroke="black" stroke-width="1" />
<rect x="307" y="140" width="18" height="5" style="fill:#5d3c2d;stroke:black;stroke-width:1;fill-opacity:1;stroke-opacity:0.3" />
<line x1="326" y1="142" x2="477" y2="142" stroke="pink" stroke-width="1" />
<rect x="477" y="140" width="28" height="5" style="fill:#5d3c2d;stroke:black;stroke-width:1;fill-opacity:1;stroke-opacity:0.3" />
<rect x="514" y="140" width="0" height="5" style="fill:#5d3c2d;stroke:black;stroke-width:1;fill-opacity:1;stroke-opacity:0.3" />
<line x1="515" y1="142" x2="621" y2="142" stroke="pink" stroke-width="1" />
<rect x="621" y="140" width="15" height="5" style="fill:#5d3c2d;stroke:black;stroke-width:1;fill-opacity:1;stroke-opacity:0.3" />
<line x1="636" y1="142" x2="761" y2="142" stroke="pink" stroke-width="1" />
<rect x="761" y="140" width="31" height="5" style="fill:#5d3c2d;stroke:black;stroke-width:1;fill-opacity:1;stroke-opacity:0.3" />
<line x1="626" y1="65" x2="705" y2="67" stroke="black" stroke-width="1" />
<line x1="705" y1="67" x2="784" y2="65" stroke="black" stroke-width="1" />
<rect x="322" y="63" width="3" height="5" style="fill:#5d3c2d;stroke:black;stroke-width:1;fill-opacity:1;stroke-opacity:0.3" />
<line x1="326" y1="65" x2="477" y2="65" stroke="pink" stroke-width="1" />
<rect x="477" y="63" width="37" height="5" style="fill:#5d3c2d;stroke:black;stroke-width:1;fill-opacity:1;stroke-opacity:0.3" />
<line x1="515" y1="65" x2="621" y2="65" stroke="pink" stroke-width="1" />
<rect x="621" y="63" width="5" height="5" style="fill:#5d3c2d;stroke:black;stroke-width:1;fill-opacity:1;stroke-opacity:0.3" />
<rect x="784" y="63" width="47" height="5" style="fill:#5d3c2d;stroke:black;stroke-width:1;fill-opacity:1;stroke-opacity:0.3" />
<line x1="627" y1="149" x2="631" y2="151" stroke="black" stroke-width="1" />
<line x1="631" y1="151" x2="635" y2="149" stroke="black" stroke-width="1" />
<rect x="323" y="147" width="3" height="5" style="fill:#f5b024;stroke:black;stroke-width:1;fill-opacity:1;stroke-opacity:0.3" />
<line x1="326" y1="149" x2="477" y2="149" stroke="pink" stroke-width="1" />
<rect x="477" y="147" width="37" height="5" style="fill:#f5b024;stroke:black;stroke-width:1;fill-opacity:1;stroke-opacity:0.3" />
<line x1="515" y1="149" x2="621" y2="149" stroke="pink" stroke-width="1" />
<rect x="621" y="147" width="6" height="5" style="fill:#f5b024;stroke:black;stroke-width:1;fill-opacity:1;stroke-opacity:0.3" />
<rect x="635" y="147" width="0" height="5" style="fill:#f5b024;stroke:black;stroke-width:1;fill-opacity:1;stroke-opacity:0.3" />
<line x1="636" y1="149" x2="761" y2="149" stroke="pink" stroke-width="1" />
<rect x="761" y="147" width="46" height="5" style="fill:#f5b024;stroke:black;stroke-width:1;fill-opacity:1;stroke-opacity:0.3" />
<line x1="632" y1="79" x2="696" y2="81" stroke="black" stroke-width="1" />
<line x1="696" y1="81" x2="761" y2="79" stroke="black" stroke-width="1" />
<rect x="479" y="77" width="35" height="5" style="fill:#5d3c2d;stroke:black;stroke-width:1;fill-opacity:1;stroke-opacity:0.3" />
<line x1="515" y1="79" x2="621" y2="79" stroke="pink" stroke-width="1" />
<rect x="621" y="77" width="11" height="5" style="fill:#5d3c2d;stroke:black;stroke-width:1;fill-opacity:1;stroke-opacity:0.3" />
<rect x="761" y="77" width="46" height="5" style="fill:#5d3c2d;stroke:black;stroke-width:1;fill-opacity:1;stroke-opacity:0.3" />
<line x1="633" y1="86" x2="719" y2="88" stroke="black" stroke-width="1" />
<line x1="719" y1="88" x2="806" y2="86" stroke="black" stroke-width="1" />
<rect x="479" y="84" width="35" height="5" style="fill:#5d3c2d;stroke:black;stroke-width:1;fill-opacity:1;stroke-opacity:0.3" />
<line x1="515" y1="86" x2="621" y2="86" stroke="pink" stroke-width="1" />
<rect x="621" y="84" width="11" height="5" style="fill:#5d3c2d;stroke:black;stroke-width:1;fill-opacity:1;stroke-opacity:0.3" />
<rect x="806" y="84" width="47" height="5" style="fill:#5d3c2d;stroke:black;stroke-width:1;fill-opacity:1;stroke-opacity:0.3" />
<line x1="772" y1="128" x2="777" y2="130" stroke="black" stroke-width="1" />
<line x1="777" y1="130" x2="783" y2="128" stroke="black" stroke-width="1" />
<rect x="495" y="126" width="20" height="5" style="fill:#5d3c2d;stroke:black;stroke-width:1;fill-opacity:1;stroke-opacity:0.3" />
<line x1="515" y1="128" x2="621" y2="128" stroke="pink" stroke-width="1" />
<rect x="621" y="126" width="15" height="5" style="fill:#5d3c2d;stroke:black;stroke-width:1;fill-opacity:1;stroke-opacity:0.3" />
<line x1="636" y1="128" x2="761" y2="128" stroke="pink" stroke-width="1" />
<rect x="761" y="126" width="11" height="5" style="fill:#5d3c2d;stroke:black;stroke-width:1;fill-opacity:1;stroke-opacity:0.3" />
<rect x="783" y="126" width="46" height="5" style="fill:#5d3c2d;stroke:black;stroke-width:1;fill-opacity:1;stroke-opacity:0.3" />
<line x1="823" y1="135" x2="826" y2="137" stroke="black" stroke-width="1" />
<line x1="826" y1="137" x2="830" y2="135" stroke="black" stroke-width="1" />
<rect x="776" y="133" width="47" height="5" style="fill:#5d3c2d;stroke:black;stroke-width:1;fill-opacity:1;stroke-opacity:0.3" />
<rect x="830" y="133" width="47" height="5" style="fill:#5d3c2d;stroke:black;stroke-width:1;fill-opacity:1;stroke-opacity:0.3" />
<line x1="826" y1="58" x2="832" y2="60" stroke="black" stroke-width="1" />
<line x1="832" y1="60" x2="839" y2="58" stroke="black" stroke-width="1" />
<rect x="779" y="56" width="47" height="5" style="fill:#5d3c2d;stroke:black;stroke-width:1;fill-opacity:1;stroke-opacity:0.3" />
<rect x="839" y="56" width="47" height="5" style="fill:#5d3c2d;stroke:black;stroke-width:1;fill-opacity:1;stroke-opacity:0.3" />
<line x1="826" y1="72" x2="832" y2="74" stroke="black" stroke-width="1" />
<line x1="832" y1="74" x2="838" y2="72" stroke="black" stroke-width="1" />
<rect x="779" y="70" width="47" height="5" style="fill:#5d3c2d;stroke:black;stroke-width:1;fill-opacity:1;stroke-opacity:0.3" />
<rect x="838" y="70" width="47" height="5" style="fill:#5d3c2d;stroke:black;stroke-width:1;fill-opacity:1;stroke-opacity:0.3" />
<line x1="826" y1="100" x2="831" y2="102" stroke="black" stroke-width="1" />
<line x1="831" y1="102" x2="837" y2="100" stroke="black" stroke-width="1" />
<rect x="779" y="98" width="47" height="5" style="fill:#5d3c2d;stroke:black;stroke-width:1;fill-opacity:1;stroke-opacity:0.3" />
<rect x="837" y="98" width="47" height="5" style="fill:#5d3c2d;stroke:black;stroke-width:1;fill-opacity:1;stroke-opacity:0.3" />
<line x1="829" y1="30" x2="832" y2="32" stroke="black" stroke-width="1" />
<line x1="832" y1="32" x2="836" y2="30" stroke="black" stroke-width="1" />
<rect x="782" y="28" width="47" height="5" style="fill:#5d3c2d;stroke:black;stroke-width:1;fill-opacity:1;stroke-opacity:0.3" />
<rect x="836" y="28" width="46" height="5" style="fill:#5d3c2d;stroke:black;stroke-width:1;fill-opacity:1;stroke-opacity:0.3" />
<line x1="829" y1="114" x2="840" y2="116" stroke="black" stroke-width="1" />
<line x1="840" y1="116" x2="852" y2="114" stroke="black" stroke-width="1" />
<rect x="782" y="112" width="47" height="5" style="fill:#5d3c2d;stroke:black;stroke-width:1;fill-opacity:1;stroke-opacity:0.3" />
<rect x="852" y="112" width="47" height="5" style="fill:#5d3c2d;stroke:black;stroke-width:1;fill-opacity:1;stroke-opacity:0.3" />
<line x1="837" y1="37" x2="844" y2="39" stroke="black" stroke-width="1" />
<line x1="844" y1="39" x2="852" y2="37" stroke="black" stroke-width="1" />
<rect x="790" y="35" width="47" height="5" style="fill:#f5b024;stroke:black;stroke-width:1;fill-opacity:1;stroke-opacity:0.3" />
<rect x="852" y="35" width="47" height="5" style="fill:#f5b024;stroke:black;stroke-width:1;fill-opacity:1;stroke-opacity:0.3" />
<line x1="837" y1="51" x2="850" y2="53" stroke="black" stroke-width="1" />
<line x1="850" y1="53" x2="864" y2="51" stroke="black" stroke-width="1" />
<rect x="790" y="49" width="47" height="5" style="fill:#5d3c2d;stroke:black;stroke-width:1;fill-opacity:1;stroke-opacity:0.3" />
<rect x="864" y="49" width="47" height="5" style="fill:#5d3c2d;stroke:black;stroke-width:1;fill-opacity:1;stroke-opacity:0.3" />
<line x1="841" y1="142" x2="856" y2="144" stroke="black" stroke-width="1" />
<line x1="856" y1="144" x2="872" y2="142" stroke="black" stroke-width="1" />
<rect x="794" y="140" width="47" height="5" style="fill:#5d3c2d;stroke:black;stroke-width:1;fill-opacity:1;stroke-opacity:0.3" />
<rect x="872" y="140" width="47" height="5" style="fill:#5d3c2d;stroke:black;stroke-width:1;fill-opacity:1;stroke-opacity:0.3" />
<line x1="842" y1="44" x2="849" y2="46" stroke="black" stroke-width="1" />
<line x1="849" y1="46" x2="857" y2="44" stroke="black" stroke-width="1" />
<rect x="796" y="42" width="45" height="5" style="fill:#5d3c2d;stroke:black;stroke-width:1;fill-opacity:1;stroke-opacity:0.3" />
<rect x="857" y="42" width="47" height="5" style="fill:#5d3c2d;stroke:black;stroke-width:1;fill-opacity:1;stroke-opacity:0.3" />
<line x1="846" y1="163" x2="850" y2="165" stroke="black" stroke-width="1" />
<line x1="850" y1="165" x2="854" y2="163" stroke="black" stroke-width="1" />
<rect x="799" y="161" width="47" height="5" style="fill:#5d3c2d;stroke:black;stroke-width:1;fill-opacity:1;stroke-opacity:0.3" />
<rect x="854" y="161" width="46" height="5" style="fill:#5d3c2d;stroke:black;stroke-width:1;fill-opacity:1;stroke-opacity:0.3" />
<line x1="853" y1="121" x2="863" y2="123" stroke="black" stroke-width="1" />
<line x1="863" y1="123" x2="873" y2="121" stroke="black" stroke-width="1" />
<rect x="806" y="119" width="47" height="5" style="fill:#5d3c2d;stroke:black;stroke-width:1;fill-opacity:1;stroke-opacity:0.3" />
<rect x="873" y="119" width="47" height="5" style="fill:#5d3c2d;stroke:black;stroke-width:1;fill-opacity:1;stroke-opacity:0.3" />
<line x1="856" y1="79" x2="858" y2="81" stroke="black" stroke-width="1" />
<line x1="858" y1="81" x2="861" y2="79" stroke="black" stroke-width="1" />
<rect x="809" y="77" width="47" height="5" style="fill:#5d3c2d;stroke:black;stroke-width:1;fill-opacity:1;stroke-opacity:0.3" />
<rect x="861" y="77" width="47" height="5" style="fill:#5d3c2d;stroke:black;stroke-width:1;fill-opacity:1;stroke-opacity:0.3" />
<line x1="856" y1="107" x2="858" y2="109" stroke="black" stroke-width="1" />
<line x1="858" y1="109" x2="861" y2="107" stroke="black" stroke-width="1" />
<rect x="809" y="105" width="47" height="5" style="fill:#f5b024;stroke:black;stroke-width:1;fill-opacity:1;stroke-opacity:0.3" />
<rect x="861" y="105" width="47" height="5" style="fill:#f5b024;stroke:black;stroke-width:1;fill-opacity:1;stroke-opacity:0.3" />
<line x1="856" y1="149" x2="864" y2="151" stroke="black" stroke-width="1" />
<line x1="864" y1="151" x2="873" y2="149" stroke="black" stroke-width="1" />
<rect x="809" y="147" width="47" height="5" style="fill:#5d3c2d;stroke:black;stroke-width:1;fill-opacity:1;stroke-opacity:0.3" />
<rect x="873" y="147" width="47" height="5" style="fill:#5d3c2d;stroke:black;stroke-width:1;fill-opacity:1;stroke-opacity:0.3" />
<line x1="860" y1="156" x2="866" y2="158" stroke="black" stroke-width="1" />
<line x1="866" y1="158" x2="873" y2="156" stroke="black" stroke-width="1" />
<rect x="813" y="154" width="47" height="5" style="fill:#5d3c2d;stroke:black;stroke-width:1;fill-opacity:1;stroke-opacity:0.3" />
<rect x="873" y="154" width="46" height="5" style="fill:#5d3c2d;stroke:black;stroke-width:1;fill-opacity:1;stroke-opacity:0.3" />
<line x1="878" y1="128" x2="880" y2="130" stroke="black" stroke-width="1" />
<line x1="880" y1="130" x2="883" y2="128" stroke="black" stroke-width="1" />
<rect x="830" y="126" width="47" height="5" style="fill:#5d3c2d;stroke:black;stroke-width:1;fill-opacity:1;stroke-opacity:0.3" />
<rect x="883" y="126" width="46" height="5" style="fill:#5d3c2d;stroke:black;stroke-width:1;fill-opacity:1;stroke-opacity:0.3" />
<line x1="882" y1="65" x2="892" y2="67" stroke="black" stroke-width="1" />
<line x1="892" y1="67" x2="902" y2="65" stroke="black" stroke-width="1" />
<rect x="835" y="63" width="47" height="5" style="fill:#5d3c2d;stroke:black;stroke-width:1;fill-opacity:1;stroke-opacity:0.3" />
<rect x="902" y="63" width="47" height="5" style="fill:#5d3c2d;stroke:black;stroke-width:1;fill-opacity:1;stroke-opacity:0.3" />
<line x1="920" y1="86" x2="926" y2="88" stroke="black" stroke-width="1" />
<line x1="926" y1="88" x2="932" y2="86" stroke="black" stroke-width="1" />
<rect x="873" y="84" width="46" height="5" style="fill:#5d3c2d;stroke:black;stroke-width:1;fill-opacity:1;stroke-opacity:0.3" />
<rect x="932" y="84" width="47" height="5" style="fill:#5d3c2d;stroke:black;stroke-width:1;fill-opacity:1;stroke-opacity:0.3" />
<line x1="920" y1="93" x2="924" y2="95" stroke="black" stroke-width="1" />
<line x1="924" y1="95" x2="929" y2="93" stroke="black" stroke-width="1" />
<rect x="873" y="91" width="47" height="5" style="fill:#5d3c2d;stroke:black;stroke-width:1;fill-opacity:1;stroke-opacity:0.3" />
<rect x="929" y="91" width="47" height="5" style="fill:#5d3c2d;stroke:black;stroke-width:1;fill-opacity:1;stroke-opacity:0.3" />
<text x="15"  y="176" style="font-family:Arial;font-size:10;stroke:black;fill:black;">all.merged.bam</text>
</svg>
    
