<?xml version="1.0" encoding="utf-8" standalone="no"?>
<!DOCTYPE svg PUBLIC "-//W3C//DTD SVG 1.1//EN"
  "http://www.w3.org/Graphics/SVG/1.1/DTD/svg11.dtd">
<svg height="1140" width="1000" version="1.1" viewBox="0 0 1000 1140" xmlns="http://www.w3.org/2000/svg" xmlns:xlink="http://www.w3.org/1999/xlink">
<line x1="83" y1="11" x2="915" y2="11" stroke="black" stroke-width="1" />
<rect x="83" y="9" width="81" height="5" style="fill:#f50002;stroke:black;stroke-width:1;fill-opacity:1;stroke-opacity:0.3" />
<rect x="166" y="9" width="154" height="5" style="fill:#53a1b5;stroke:black;stroke-width:1;fill-opacity:1;stroke-opacity:0.3" />
<rect x="468" y="9" width="198" height="5" style="fill:#53a1b5;stroke:black;stroke-width:1;fill-opacity:1;stroke-opacity:0.3" />
<rect x="668" y="9" width="246" height="5" style="fill:#f50002;stroke:black;stroke-width:1;fill-opacity:1;stroke-opacity:0.3" />
<text x="83"  y="23" style="font-family:Arial;font-size:10;stroke:black;fill:black;">Cre07.g337676.t1.1.v5.5 (+) chromosome_7:3713222-3714213</text>
<line x1="244" y1="30" x2="250" y2="32" stroke="black" stroke-width="1" />
<line x1="250" y1="32" x2="257" y2="30" stroke="black" stroke-width="1" />
<rect x="161" y="28" width="83" height="5" style="fill:#5d3c2d;stroke:black;stroke-width:1;fill-opacity:1;stroke-opacity:0.3" />
<rect x="257" y="28" width="83" height="5" style="fill:#5d3c2d;stroke:black;stroke-width:1;fill-opacity:1;stroke-opacity:0.3" />
<line x1="281" y1="37" x2="287" y2="39" stroke="black" stroke-width="1" />
<line x1="287" y1="39" x2="293" y2="37" stroke="black" stroke-width="1" />
<rect x="197" y="35" width="83" height="5" style="fill:#5d3c2d;stroke:black;stroke-width:1;fill-opacity:1;stroke-opacity:0.3" />
<rect x="293" y="35" width="27" height="5" style="fill:#5d3c2d;stroke:black;stroke-width:1;fill-opacity:1;stroke-opacity:0.3" />
<line x1="321" y1="37" x2="468" y2="37" stroke="pink" stroke-width="1" />
<rect x="468" y="35" width="55" height="5" style="fill:#5d3c2d;stroke:black;stroke-width:1;fill-opacity:1;stroke-opacity:0.3" />
<line x1="286" y1="44" x2="299" y2="46" stroke="black" stroke-width="1" />
<line x1="299" y1="46" x2="312" y2="44" stroke="black" stroke-width="1" />
<rect x="202" y="42" width="83" height="5" style="fill:#5d3c2d;stroke:black;stroke-width:1;fill-opacity:1;stroke-opacity:0.3" />
<rect x="312" y="42" width="83" height="5" style="fill:#5d3c2d;stroke:black;stroke-width:1;fill-opacity:1;stroke-opacity:0.3" />
<line x1="479" y1="51" x2="484" y2="53" stroke="black" stroke-width="1" />
<line x1="484" y1="53" x2="490" y2="51" stroke="black" stroke-width="1" />
<rect x="248" y="49" width="72" height="5" style="fill:#5d3c2d;stroke:black;stroke-width:1;fill-opacity:1;stroke-opacity:0.3" />
<line x1="321" y1="51" x2="468" y2="51" stroke="pink" stroke-width="1" />
<rect x="468" y="49" width="10" height="5" style="fill:#5d3c2d;stroke:black;stroke-width:1;fill-opacity:1;stroke-opacity:0.3" />
<rect x="490" y="49" width="83" height="5" style="fill:#5d3c2d;stroke:black;stroke-width:1;fill-opacity:1;stroke-opacity:0.3" />
<line x1="385" y1="58" x2="390" y2="60" stroke="black" stroke-width="1" />
<line x1="390" y1="60" x2="395" y2="58" stroke="black" stroke-width="1" />
<rect x="302" y="56" width="83" height="5" style="fill:#5d3c2d;stroke:black;stroke-width:1;fill-opacity:1;stroke-opacity:0.3" />
<rect x="395" y="56" width="83" height="5" style="fill:#5d3c2d;stroke:black;stroke-width:1;fill-opacity:1;stroke-opacity:0.3" />
<line x1="385" y1="65" x2="399" y2="67" stroke="black" stroke-width="1" />
<line x1="399" y1="67" x2="414" y2="65" stroke="black" stroke-width="1" />
<rect x="302" y="63" width="83" height="5" style="fill:#5d3c2d;stroke:black;stroke-width:1;fill-opacity:1;stroke-opacity:0.3" />
<rect x="414" y="63" width="83" height="5" style="fill:#5d3c2d;stroke:black;stroke-width:1;fill-opacity:1;stroke-opacity:0.3" />
<line x1="392" y1="72" x2="457" y2="74" stroke="black" stroke-width="1" />
<line x1="457" y1="74" x2="522" y2="72" stroke="black" stroke-width="1" />
<rect x="308" y="70" width="83" height="5" style="fill:#5d3c2d;stroke:black;stroke-width:1;fill-opacity:1;stroke-opacity:0.3" />
<rect x="522" y="70" width="83" height="5" style="fill:#5d3c2d;stroke:black;stroke-width:1;fill-opacity:1;stroke-opacity:0.3" />
<line x1="435" y1="30" x2="456" y2="32" stroke="black" stroke-width="1" />
<line x1="456" y1="32" x2="477" y2="30" stroke="black" stroke-width="1" />
<rect x="351" y="28" width="83" height="5" style="fill:#5d3c2d;stroke:black;stroke-width:1;fill-opacity:1;stroke-opacity:0.3" />
<rect x="477" y="28" width="83" height="5" style="fill:#5d3c2d;stroke:black;stroke-width:1;fill-opacity:1;stroke-opacity:0.3" />
<line x1="467" y1="79" x2="473" y2="81" stroke="black" stroke-width="1" />
<line x1="473" y1="81" x2="479" y2="79" stroke="black" stroke-width="1" />
<rect x="383" y="77" width="83" height="5" style="fill:#5d3c2d;stroke:black;stroke-width:1;fill-opacity:1;stroke-opacity:0.3" />
<rect x="479" y="77" width="83" height="5" style="fill:#5d3c2d;stroke:black;stroke-width:1;fill-opacity:1;stroke-opacity:0.3" />
<line x1="556" y1="44" x2="578" y2="46" stroke="black" stroke-width="1" />
<line x1="578" y1="46" x2="601" y2="44" stroke="black" stroke-width="1" />
<rect x="472" y="42" width="83" height="5" style="fill:#5d3c2d;stroke:black;stroke-width:1;fill-opacity:1;stroke-opacity:0.3" />
<rect x="601" y="42" width="83" height="5" style="fill:#5d3c2d;stroke:black;stroke-width:1;fill-opacity:1;stroke-opacity:0.3" />
<line x1="640" y1="37" x2="664" y2="39" stroke="black" stroke-width="1" />
<line x1="664" y1="39" x2="688" y2="37" stroke="black" stroke-width="1" />
<rect x="556" y="35" width="83" height="5" style="fill:#5d3c2d;stroke:black;stroke-width:1;fill-opacity:1;stroke-opacity:0.3" />
<rect x="688" y="35" width="83" height="5" style="fill:#5d3c2d;stroke:black;stroke-width:1;fill-opacity:1;stroke-opacity:0.3" />
<line x1="657" y1="30" x2="681" y2="32" stroke="black" stroke-width="1" />
<line x1="681" y1="32" x2="706" y2="30" stroke="black" stroke-width="1" />
<rect x="573" y="28" width="83" height="5" style="fill:#5d3c2d;stroke:black;stroke-width:1;fill-opacity:1;stroke-opacity:0.3" />
<rect x="706" y="28" width="83" height="5" style="fill:#5d3c2d;stroke:black;stroke-width:1;fill-opacity:1;stroke-opacity:0.3" />
<line x1="709" y1="51" x2="734" y2="53" stroke="black" stroke-width="1" />
<line x1="734" y1="53" x2="759" y2="51" stroke="black" stroke-width="1" />
<rect x="625" y="49" width="83" height="5" style="fill:#5d3c2d;stroke:black;stroke-width:1;fill-opacity:1;stroke-opacity:0.3" />
<rect x="759" y="49" width="83" height="5" style="fill:#5d3c2d;stroke:black;stroke-width:1;fill-opacity:1;stroke-opacity:0.3" />
<line x1="747" y1="58" x2="762" y2="60" stroke="black" stroke-width="1" />
<line x1="762" y1="60" x2="778" y2="58" stroke="black" stroke-width="1" />
<rect x="663" y="56" width="83" height="5" style="fill:#5d3c2d;stroke:black;stroke-width:1;fill-opacity:1;stroke-opacity:0.3" />
<rect x="778" y="56" width="83" height="5" style="fill:#5d3c2d;stroke:black;stroke-width:1;fill-opacity:1;stroke-opacity:0.3" />
<line x1="813" y1="44" x2="838" y2="46" stroke="black" stroke-width="1" />
<line x1="838" y1="46" x2="864" y2="44" stroke="black" stroke-width="1" />
<rect x="729" y="42" width="83" height="5" style="fill:#5d3c2d;stroke:black;stroke-width:1;fill-opacity:1;stroke-opacity:0.3" />
<rect x="864" y="42" width="83" height="5" style="fill:#5d3c2d;stroke:black;stroke-width:1;fill-opacity:1;stroke-opacity:0.3" />
<line x1="816" y1="65" x2="839" y2="67" stroke="black" stroke-width="1" />
<line x1="839" y1="67" x2="863" y2="65" stroke="black" stroke-width="1" />
<rect x="732" y="63" width="83" height="5" style="fill:#f5b024;stroke:black;stroke-width:1;fill-opacity:1;stroke-opacity:0.3" />
<rect x="863" y="63" width="83" height="5" style="fill:#f5b024;stroke:black;stroke-width:1;fill-opacity:1;stroke-opacity:0.3" />
<line x1="851" y1="72" x2="857" y2="74" stroke="black" stroke-width="1" />
<line x1="857" y1="74" x2="864" y2="72" stroke="black" stroke-width="1" />
<rect x="767" y="70" width="83" height="5" style="fill:#5d3c2d;stroke:black;stroke-width:1;fill-opacity:1;stroke-opacity:0.3" />
<rect x="864" y="70" width="83" height="5" style="fill:#5d3c2d;stroke:black;stroke-width:1;fill-opacity:1;stroke-opacity:0.3" />
<line x1="854" y1="79" x2="873" y2="81" stroke="black" stroke-width="1" />
<line x1="873" y1="81" x2="892" y2="79" stroke="black" stroke-width="1" />
<rect x="770" y="77" width="83" height="5" style="fill:#5d3c2d;stroke:black;stroke-width:1;fill-opacity:1;stroke-opacity:0.3" />
<rect x="892" y="77" width="83" height="5" style="fill:#5d3c2d;stroke:black;stroke-width:1;fill-opacity:1;stroke-opacity:0.3" />
<line x1="858" y1="37" x2="875" y2="39" stroke="black" stroke-width="1" />
<line x1="875" y1="39" x2="892" y2="37" stroke="black" stroke-width="1" />
<rect x="774" y="35" width="83" height="5" style="fill:#5d3c2d;stroke:black;stroke-width:1;fill-opacity:1;stroke-opacity:0.3" />
<rect x="892" y="35" width="83" height="5" style="fill:#5d3c2d;stroke:black;stroke-width:1;fill-opacity:1;stroke-opacity:0.3" />
<line x1="875" y1="30" x2="890" y2="32" stroke="black" stroke-width="1" />
<line x1="890" y1="32" x2="905" y2="30" stroke="black" stroke-width="1" />
<rect x="791" y="28" width="83" height="5" style="fill:#5d3c2d;stroke:black;stroke-width:1;fill-opacity:1;stroke-opacity:0.3" />
<rect x="905" y="28" width="83" height="5" style="fill:#5d3c2d;stroke:black;stroke-width:1;fill-opacity:1;stroke-opacity:0.3" />
<text x="15"  y="176" style="font-family:Arial;font-size:10;stroke:black;fill:black;">all.merged.bam</text>
</svg>
    
