<?xml version="1.0" encoding="utf-8" standalone="no"?>
<!DOCTYPE svg PUBLIC "-//W3C//DTD SVG 1.1//EN"
  "http://www.w3.org/Graphics/SVG/1.1/DTD/svg11.dtd">
<svg height="1140" width="1000" version="1.1" viewBox="0 0 1000 1140" xmlns="http://www.w3.org/2000/svg" xmlns:xlink="http://www.w3.org/1999/xlink">
<line x1="28" y1="11" x2="971" y2="11" stroke="black" stroke-width="1" />
<rect x="28" y="9" width="65" height="5" style="fill:#f50002;stroke:black;stroke-width:1;fill-opacity:1;stroke-opacity:0.3" />
<rect x="94" y="9" width="56" height="5" style="fill:#53a1b5;stroke:black;stroke-width:1;fill-opacity:1;stroke-opacity:0.3" />
<rect x="176" y="9" width="10" height="5" style="fill:#53a1b5;stroke:black;stroke-width:1;fill-opacity:1;stroke-opacity:0.3" />
<rect x="239" y="9" width="167" height="5" style="fill:#53a1b5;stroke:black;stroke-width:1;fill-opacity:1;stroke-opacity:0.3" />
<rect x="579" y="9" width="10" height="5" style="fill:#53a1b5;stroke:black;stroke-width:1;fill-opacity:1;stroke-opacity:0.3" />
<rect x="590" y="9" width="380" height="5" style="fill:#f50002;stroke:black;stroke-width:1;fill-opacity:1;stroke-opacity:0.3" />
<text x="28"  y="23" style="font-family:Arial;font-size:10;stroke:black;fill:black;">Cre03.g208497.t1.1.v5.5 (+) chromosome_3:8922532-8925859</text>
<line x1="120" y1="30" x2="122" y2="32" stroke="black" stroke-width="1" />
<line x1="122" y1="32" x2="125" y2="30" stroke="black" stroke-width="1" />
<rect x="91" y="28" width="28" height="5" style="fill:#5d3c2d;stroke:black;stroke-width:1;fill-opacity:1;stroke-opacity:0.3" />
<rect x="125" y="28" width="25" height="5" style="fill:#5d3c2d;stroke:black;stroke-width:1;fill-opacity:1;stroke-opacity:0.3" />
<line x1="151" y1="30" x2="2223" y2="30" stroke="pink" stroke-width="1" />
<rect x="2223" y="28" width="1" height="5" style="fill:#5d3c2d;stroke:black;stroke-width:1;fill-opacity:1;stroke-opacity:0.3" />
<line x1="120" y1="37" x2="122" y2="39" stroke="black" stroke-width="1" />
<line x1="122" y1="39" x2="125" y2="37" stroke="black" stroke-width="1" />
<rect x="92" y="35" width="28" height="5" style="fill:#5d3c2d;stroke:black;stroke-width:1;fill-opacity:1;stroke-opacity:0.3" />
<rect x="125" y="35" width="25" height="5" style="fill:#5d3c2d;stroke:black;stroke-width:1;fill-opacity:1;stroke-opacity:0.3" />
<line x1="151" y1="37" x2="2223" y2="37" stroke="pink" stroke-width="1" />
<rect x="2223" y="35" width="1" height="5" style="fill:#5d3c2d;stroke:black;stroke-width:1;fill-opacity:1;stroke-opacity:0.3" />
<line x1="124" y1="44" x2="134" y2="46" stroke="black" stroke-width="1" />
<line x1="134" y1="46" x2="145" y2="44" stroke="black" stroke-width="1" />
<rect x="96" y="42" width="28" height="5" style="fill:#5d3c2d;stroke:black;stroke-width:1;fill-opacity:1;stroke-opacity:0.3" />
<rect x="145" y="42" width="5" height="5" style="fill:#5d3c2d;stroke:black;stroke-width:1;fill-opacity:1;stroke-opacity:0.3" />
<line x1="151" y1="44" x2="2223" y2="44" stroke="pink" stroke-width="1" />
<rect x="2223" y="42" width="11" height="5" style="fill:#5d3c2d;stroke:black;stroke-width:1;fill-opacity:1;stroke-opacity:0.3" />
<line x1="2234" y1="44" x2="2283" y2="44" stroke="pink" stroke-width="1" />
<rect x="2283" y="42" width="11" height="5" style="fill:#5d3c2d;stroke:black;stroke-width:1;fill-opacity:1;stroke-opacity:0.3" />
<line x1="125" y1="51" x2="128" y2="53" stroke="black" stroke-width="1" />
<line x1="128" y1="53" x2="132" y2="51" stroke="black" stroke-width="1" />
<rect x="97" y="49" width="28" height="5" style="fill:#5d3c2d;stroke:black;stroke-width:1;fill-opacity:1;stroke-opacity:0.3" />
<rect x="132" y="49" width="19" height="5" style="fill:#5d3c2d;stroke:black;stroke-width:1;fill-opacity:1;stroke-opacity:0.3" />
<line x1="151" y1="51" x2="2223" y2="51" stroke="pink" stroke-width="1" />
<rect x="2223" y="49" width="9" height="5" style="fill:#5d3c2d;stroke:black;stroke-width:1;fill-opacity:1;stroke-opacity:0.3" />
<line x1="140" y1="58" x2="142" y2="60" stroke="black" stroke-width="1" />
<line x1="142" y1="60" x2="144" y2="58" stroke="black" stroke-width="1" />
<rect x="98" y="56" width="42" height="5" style="fill:#5d3c2d;stroke:black;stroke-width:1;fill-opacity:1;stroke-opacity:0.3" />
<rect x="144" y="56" width="6" height="5" style="fill:#5d3c2d;stroke:black;stroke-width:1;fill-opacity:1;stroke-opacity:0.3" />
<line x1="151" y1="58" x2="2223" y2="58" stroke="pink" stroke-width="1" />
<rect x="2223" y="56" width="11" height="5" style="fill:#5d3c2d;stroke:black;stroke-width:1;fill-opacity:1;stroke-opacity:0.3" />
<line x1="2234" y1="58" x2="2283" y2="58" stroke="pink" stroke-width="1" />
<rect x="2283" y="56" width="24" height="5" style="fill:#5d3c2d;stroke:black;stroke-width:1;fill-opacity:1;stroke-opacity:0.3" />
<line x1="141" y1="65" x2="142" y2="67" stroke="black" stroke-width="1" />
<line x1="142" y1="67" x2="144" y2="65" stroke="black" stroke-width="1" />
<rect x="113" y="63" width="28" height="5" style="fill:#5d3c2d;stroke:black;stroke-width:1;fill-opacity:1;stroke-opacity:0.3" />
<rect x="144" y="63" width="6" height="5" style="fill:#5d3c2d;stroke:black;stroke-width:1;fill-opacity:1;stroke-opacity:0.3" />
<line x1="151" y1="65" x2="2223" y2="65" stroke="pink" stroke-width="1" />
<rect x="2223" y="63" width="11" height="5" style="fill:#5d3c2d;stroke:black;stroke-width:1;fill-opacity:1;stroke-opacity:0.3" />
<line x1="2234" y1="65" x2="2283" y2="65" stroke="pink" stroke-width="1" />
<rect x="2283" y="63" width="10" height="5" style="fill:#5d3c2d;stroke:black;stroke-width:1;fill-opacity:1;stroke-opacity:0.3" />
<line x1="140" y1="72" x2="142" y2="74" stroke="black" stroke-width="1" />
<line x1="142" y1="74" x2="144" y2="72" stroke="black" stroke-width="1" />
<rect x="113" y="70" width="27" height="5" style="fill:#5d3c2d;stroke:black;stroke-width:1;fill-opacity:1;stroke-opacity:0.3" />
<rect x="144" y="70" width="6" height="5" style="fill:#5d3c2d;stroke:black;stroke-width:1;fill-opacity:1;stroke-opacity:0.3" />
<line x1="151" y1="72" x2="2223" y2="72" stroke="pink" stroke-width="1" />
<rect x="2223" y="70" width="11" height="5" style="fill:#5d3c2d;stroke:black;stroke-width:1;fill-opacity:1;stroke-opacity:0.3" />
<line x1="2234" y1="72" x2="2283" y2="72" stroke="pink" stroke-width="1" />
<rect x="2283" y="70" width="10" height="5" style="fill:#5d3c2d;stroke:black;stroke-width:1;fill-opacity:1;stroke-opacity:0.3" />
<line x1="141" y1="79" x2="143" y2="81" stroke="black" stroke-width="1" />
<line x1="143" y1="81" x2="145" y2="79" stroke="black" stroke-width="1" />
<rect x="113" y="77" width="28" height="5" style="fill:#5d3c2d;stroke:black;stroke-width:1;fill-opacity:1;stroke-opacity:0.3" />
<rect x="145" y="77" width="6" height="5" style="fill:#5d3c2d;stroke:black;stroke-width:1;fill-opacity:1;stroke-opacity:0.3" />
<line x1="151" y1="79" x2="2223" y2="79" stroke="pink" stroke-width="1" />
<rect x="2223" y="77" width="11" height="5" style="fill:#5d3c2d;stroke:black;stroke-width:1;fill-opacity:1;stroke-opacity:0.3" />
<line x1="2234" y1="79" x2="2283" y2="79" stroke="pink" stroke-width="1" />
<rect x="2283" y="77" width="11" height="5" style="fill:#5d3c2d;stroke:black;stroke-width:1;fill-opacity:1;stroke-opacity:0.3" />
<line x1="141" y1="86" x2="145" y2="88" stroke="black" stroke-width="1" />
<line x1="145" y1="88" x2="149" y2="86" stroke="black" stroke-width="1" />
<rect x="113" y="84" width="28" height="5" style="fill:#5d3c2d;stroke:black;stroke-width:1;fill-opacity:1;stroke-opacity:0.3" />
<rect x="149" y="84" width="1" height="5" style="fill:#5d3c2d;stroke:black;stroke-width:1;fill-opacity:1;stroke-opacity:0.3" />
<line x1="151" y1="86" x2="2223" y2="86" stroke="pink" stroke-width="1" />
<rect x="2223" y="84" width="11" height="5" style="fill:#5d3c2d;stroke:black;stroke-width:1;fill-opacity:1;stroke-opacity:0.3" />
<line x1="2234" y1="86" x2="2283" y2="86" stroke="pink" stroke-width="1" />
<rect x="2283" y="84" width="15" height="5" style="fill:#5d3c2d;stroke:black;stroke-width:1;fill-opacity:1;stroke-opacity:0.3" />
<line x1="344" y1="93" x2="369" y2="95" stroke="black" stroke-width="1" />
<line x1="369" y1="95" x2="395" y2="93" stroke="black" stroke-width="1" />
<rect x="318" y="91" width="26" height="5" style="fill:#5d3c2d;stroke:black;stroke-width:1;fill-opacity:1;stroke-opacity:0.3" />
<rect x="395" y="91" width="12" height="5" style="fill:#5d3c2d;stroke:black;stroke-width:1;fill-opacity:1;stroke-opacity:0.3" />
<line x1="407" y1="93" x2="2589" y2="93" stroke="pink" stroke-width="1" />
<rect x="2589" y="91" width="16" height="5" style="fill:#5d3c2d;stroke:black;stroke-width:1;fill-opacity:1;stroke-opacity:0.3" />
<line x1="347" y1="100" x2="372" y2="102" stroke="black" stroke-width="1" />
<line x1="372" y1="102" x2="397" y2="100" stroke="black" stroke-width="1" />
<rect x="319" y="98" width="28" height="5" style="fill:#5d3c2d;stroke:black;stroke-width:1;fill-opacity:1;stroke-opacity:0.3" />
<rect x="397" y="98" width="3" height="5" style="fill:#5d3c2d;stroke:black;stroke-width:1;fill-opacity:1;stroke-opacity:0.3" />
<line x1="401" y1="100" x2="2410" y2="100" stroke="pink" stroke-width="1" />
<rect x="2410" y="98" width="5" height="5" style="fill:#5d3c2d;stroke:black;stroke-width:1;fill-opacity:1;stroke-opacity:0.3" />
<line x1="2415" y1="100" x2="2589" y2="100" stroke="pink" stroke-width="1" />
<rect x="2589" y="98" width="18" height="5" style="fill:#5d3c2d;stroke:black;stroke-width:1;fill-opacity:1;stroke-opacity:0.3" />
<line x1="350" y1="107" x2="370" y2="109" stroke="black" stroke-width="1" />
<line x1="370" y1="109" x2="391" y2="107" stroke="black" stroke-width="1" />
<rect x="322" y="105" width="28" height="5" style="fill:#5d3c2d;stroke:black;stroke-width:1;fill-opacity:1;stroke-opacity:0.3" />
<rect x="391" y="105" width="15" height="5" style="fill:#5d3c2d;stroke:black;stroke-width:1;fill-opacity:1;stroke-opacity:0.3" />
<line x1="407" y1="107" x2="579" y2="107" stroke="pink" stroke-width="1" />
<rect x="579" y="105" width="12" height="5" style="fill:#5d3c2d;stroke:black;stroke-width:1;fill-opacity:1;stroke-opacity:0.3" />
<line x1="351" y1="114" x2="370" y2="116" stroke="black" stroke-width="1" />
<line x1="370" y1="116" x2="390" y2="114" stroke="black" stroke-width="1" />
<rect x="322" y="112" width="28" height="5" style="fill:#5d3c2d;stroke:black;stroke-width:1;fill-opacity:1;stroke-opacity:0.3" />
<rect x="390" y="112" width="17" height="5" style="fill:#5d3c2d;stroke:black;stroke-width:1;fill-opacity:1;stroke-opacity:0.3" />
<line x1="407" y1="114" x2="579" y2="114" stroke="pink" stroke-width="1" />
<rect x="579" y="112" width="8" height="5" style="fill:#5d3c2d;stroke:black;stroke-width:1;fill-opacity:1;stroke-opacity:0.3" />
<line x1="351" y1="121" x2="370" y2="123" stroke="black" stroke-width="1" />
<line x1="370" y1="123" x2="390" y2="121" stroke="black" stroke-width="1" />
<rect x="323" y="119" width="28" height="5" style="fill:#5d3c2d;stroke:black;stroke-width:1;fill-opacity:1;stroke-opacity:0.3" />
<rect x="390" y="119" width="17" height="5" style="fill:#5d3c2d;stroke:black;stroke-width:1;fill-opacity:1;stroke-opacity:0.3" />
<line x1="407" y1="121" x2="2589" y2="121" stroke="pink" stroke-width="1" />
<rect x="2589" y="119" width="8" height="5" style="fill:#5d3c2d;stroke:black;stroke-width:1;fill-opacity:1;stroke-opacity:0.3" />
<line x1="351" y1="128" x2="370" y2="130" stroke="black" stroke-width="1" />
<line x1="370" y1="130" x2="390" y2="128" stroke="black" stroke-width="1" />
<rect x="323" y="126" width="28" height="5" style="fill:#5d3c2d;stroke:black;stroke-width:1;fill-opacity:1;stroke-opacity:0.3" />
<rect x="390" y="126" width="17" height="5" style="fill:#5d3c2d;stroke:black;stroke-width:1;fill-opacity:1;stroke-opacity:0.3" />
<line x1="407" y1="128" x2="2589" y2="128" stroke="pink" stroke-width="1" />
<rect x="2589" y="126" width="7" height="5" style="fill:#5d3c2d;stroke:black;stroke-width:1;fill-opacity:1;stroke-opacity:0.3" />
<line x1="353" y1="135" x2="372" y2="137" stroke="black" stroke-width="1" />
<line x1="372" y1="137" x2="392" y2="135" stroke="black" stroke-width="1" />
<rect x="324" y="133" width="28" height="5" style="fill:#5d3c2d;stroke:black;stroke-width:1;fill-opacity:1;stroke-opacity:0.3" />
<rect x="392" y="133" width="14" height="5" style="fill:#5d3c2d;stroke:black;stroke-width:1;fill-opacity:1;stroke-opacity:0.3" />
<line x1="407" y1="135" x2="2589" y2="135" stroke="pink" stroke-width="1" />
<rect x="2589" y="133" width="13" height="5" style="fill:#5d3c2d;stroke:black;stroke-width:1;fill-opacity:1;stroke-opacity:0.3" />
<line x1="355" y1="142" x2="373" y2="144" stroke="black" stroke-width="1" />
<line x1="373" y1="144" x2="391" y2="142" stroke="black" stroke-width="1" />
<rect x="327" y="140" width="28" height="5" style="fill:#5d3c2d;stroke:black;stroke-width:1;fill-opacity:1;stroke-opacity:0.3" />
<rect x="391" y="140" width="15" height="5" style="fill:#5d3c2d;stroke:black;stroke-width:1;fill-opacity:1;stroke-opacity:0.3" />
<line x1="407" y1="142" x2="579" y2="142" stroke="pink" stroke-width="1" />
<rect x="579" y="140" width="12" height="5" style="fill:#5d3c2d;stroke:black;stroke-width:1;fill-opacity:1;stroke-opacity:0.3" />
<line x1="355" y1="149" x2="373" y2="151" stroke="black" stroke-width="1" />
<line x1="373" y1="151" x2="392" y2="149" stroke="black" stroke-width="1" />
<rect x="327" y="147" width="28" height="5" style="fill:#5d3c2d;stroke:black;stroke-width:1;fill-opacity:1;stroke-opacity:0.3" />
<rect x="392" y="147" width="14" height="5" style="fill:#5d3c2d;stroke:black;stroke-width:1;fill-opacity:1;stroke-opacity:0.3" />
<line x1="407" y1="149" x2="579" y2="149" stroke="pink" stroke-width="1" />
<rect x="579" y="147" width="13" height="5" style="fill:#5d3c2d;stroke:black;stroke-width:1;fill-opacity:1;stroke-opacity:0.3" />
<line x1="355" y1="156" x2="373" y2="158" stroke="black" stroke-width="1" />
<line x1="373" y1="158" x2="392" y2="156" stroke="black" stroke-width="1" />
<rect x="327" y="154" width="28" height="5" style="fill:#5d3c2d;stroke:black;stroke-width:1;fill-opacity:1;stroke-opacity:0.3" />
<rect x="392" y="154" width="14" height="5" style="fill:#5d3c2d;stroke:black;stroke-width:1;fill-opacity:1;stroke-opacity:0.3" />
<line x1="407" y1="156" x2="579" y2="156" stroke="pink" stroke-width="1" />
<rect x="579" y="154" width="13" height="5" style="fill:#5d3c2d;stroke:black;stroke-width:1;fill-opacity:1;stroke-opacity:0.3" />
<line x1="355" y1="163" x2="373" y2="165" stroke="black" stroke-width="1" />
<line x1="373" y1="165" x2="391" y2="163" stroke="black" stroke-width="1" />
<rect x="327" y="161" width="28" height="5" style="fill:#5d3c2d;stroke:black;stroke-width:1;fill-opacity:1;stroke-opacity:0.3" />
<rect x="391" y="161" width="15" height="5" style="fill:#5d3c2d;stroke:black;stroke-width:1;fill-opacity:1;stroke-opacity:0.3" />
<line x1="407" y1="163" x2="579" y2="163" stroke="pink" stroke-width="1" />
<rect x="579" y="161" width="12" height="5" style="fill:#5d3c2d;stroke:black;stroke-width:1;fill-opacity:1;stroke-opacity:0.3" />
<line x1="616" y1="114" x2="618" y2="116" stroke="black" stroke-width="1" />
<line x1="618" y1="116" x2="621" y2="114" stroke="black" stroke-width="1" />
<rect x="588" y="112" width="28" height="5" style="fill:#5d3c2d;stroke:black;stroke-width:1;fill-opacity:1;stroke-opacity:0.3" />
<rect x="621" y="112" width="28" height="5" style="fill:#5d3c2d;stroke:black;stroke-width:1;fill-opacity:1;stroke-opacity:0.3" />
<line x1="634" y1="107" x2="639" y2="109" stroke="black" stroke-width="1" />
<line x1="639" y1="109" x2="645" y2="107" stroke="black" stroke-width="1" />
<rect x="593" y="105" width="41" height="5" style="fill:#5d3c2d;stroke:black;stroke-width:1;fill-opacity:1;stroke-opacity:0.3" />
<rect x="645" y="105" width="42" height="5" style="fill:#5d3c2d;stroke:black;stroke-width:1;fill-opacity:1;stroke-opacity:0.3" />
<line x1="620" y1="142" x2="629" y2="144" stroke="black" stroke-width="1" />
<line x1="629" y1="144" x2="639" y2="142" stroke="black" stroke-width="1" />
<rect x="593" y="140" width="27" height="5" style="fill:#5d3c2d;stroke:black;stroke-width:1;fill-opacity:1;stroke-opacity:0.3" />
<rect x="639" y="140" width="24" height="5" style="fill:#5d3c2d;stroke:black;stroke-width:1;fill-opacity:1;stroke-opacity:0.3" />
<line x1="664" y1="142" x2="2674" y2="142" stroke="pink" stroke-width="1" />
<rect x="2674" y="140" width="3" height="5" style="fill:#5d3c2d;stroke:black;stroke-width:1;fill-opacity:1;stroke-opacity:0.3" />
<line x1="622" y1="149" x2="628" y2="151" stroke="black" stroke-width="1" />
<line x1="628" y1="151" x2="634" y2="149" stroke="black" stroke-width="1" />
<rect x="594" y="147" width="28" height="5" style="fill:#5d3c2d;stroke:black;stroke-width:1;fill-opacity:1;stroke-opacity:0.3" />
<rect x="634" y="147" width="28" height="5" style="fill:#5d3c2d;stroke:black;stroke-width:1;fill-opacity:1;stroke-opacity:0.3" />
<line x1="623" y1="156" x2="629" y2="158" stroke="black" stroke-width="1" />
<line x1="629" y1="158" x2="635" y2="156" stroke="black" stroke-width="1" />
<rect x="595" y="154" width="28" height="5" style="fill:#5d3c2d;stroke:black;stroke-width:1;fill-opacity:1;stroke-opacity:0.3" />
<rect x="635" y="154" width="28" height="5" style="fill:#5d3c2d;stroke:black;stroke-width:1;fill-opacity:1;stroke-opacity:0.3" />
<line x1="623" y1="163" x2="629" y2="165" stroke="black" stroke-width="1" />
<line x1="629" y1="165" x2="635" y2="163" stroke="black" stroke-width="1" />
<rect x="595" y="161" width="28" height="5" style="fill:#5d3c2d;stroke:black;stroke-width:1;fill-opacity:1;stroke-opacity:0.3" />
<rect x="635" y="161" width="28" height="5" style="fill:#5d3c2d;stroke:black;stroke-width:1;fill-opacity:1;stroke-opacity:0.3" />
<line x1="682" y1="114" x2="697" y2="116" stroke="black" stroke-width="1" />
<line x1="697" y1="116" x2="712" y2="114" stroke="black" stroke-width="1" />
<rect x="653" y="112" width="28" height="5" style="fill:#5d3c2d;stroke:black;stroke-width:1;fill-opacity:1;stroke-opacity:0.3" />
<rect x="712" y="112" width="28" height="5" style="fill:#5d3c2d;stroke:black;stroke-width:1;fill-opacity:1;stroke-opacity:0.3" />
<line x1="740" y1="107" x2="742" y2="109" stroke="black" stroke-width="1" />
<line x1="742" y1="109" x2="744" y2="107" stroke="black" stroke-width="1" />
<rect x="712" y="105" width="28" height="5" style="fill:#5d3c2d;stroke:black;stroke-width:1;fill-opacity:1;stroke-opacity:0.3" />
<rect x="744" y="105" width="28" height="5" style="fill:#5d3c2d;stroke:black;stroke-width:1;fill-opacity:1;stroke-opacity:0.3" />
<line x1="740" y1="149" x2="742" y2="151" stroke="black" stroke-width="1" />
<line x1="742" y1="151" x2="744" y2="149" stroke="black" stroke-width="1" />
<rect x="712" y="147" width="28" height="5" style="fill:#5d3c2d;stroke:black;stroke-width:1;fill-opacity:1;stroke-opacity:0.3" />
<rect x="744" y="147" width="28" height="5" style="fill:#5d3c2d;stroke:black;stroke-width:1;fill-opacity:1;stroke-opacity:0.3" />
<line x1="742" y1="156" x2="746" y2="158" stroke="black" stroke-width="1" />
<line x1="746" y1="158" x2="751" y2="156" stroke="black" stroke-width="1" />
<rect x="714" y="154" width="28" height="5" style="fill:#5d3c2d;stroke:black;stroke-width:1;fill-opacity:1;stroke-opacity:0.3" />
<rect x="751" y="154" width="28" height="5" style="fill:#5d3c2d;stroke:black;stroke-width:1;fill-opacity:1;stroke-opacity:0.3" />
<line x1="742" y1="163" x2="758" y2="165" stroke="black" stroke-width="1" />
<line x1="758" y1="165" x2="775" y2="163" stroke="black" stroke-width="1" />
<rect x="714" y="161" width="28" height="5" style="fill:#5d3c2d;stroke:black;stroke-width:1;fill-opacity:1;stroke-opacity:0.3" />
<rect x="775" y="161" width="22" height="5" style="fill:#5d3c2d;stroke:black;stroke-width:1;fill-opacity:1;stroke-opacity:0.3" />
<line x1="798" y1="163" x2="2808" y2="163" stroke="pink" stroke-width="1" />
<rect x="2808" y="161" width="5" height="5" style="fill:#5d3c2d;stroke:black;stroke-width:1;fill-opacity:1;stroke-opacity:0.3" />
<line x1="770" y1="114" x2="772" y2="116" stroke="black" stroke-width="1" />
<line x1="772" y1="116" x2="774" y2="114" stroke="black" stroke-width="1" />
<rect x="742" y="112" width="28" height="5" style="fill:#5d3c2d;stroke:black;stroke-width:1;fill-opacity:1;stroke-opacity:0.3" />
<rect x="774" y="112" width="28" height="5" style="fill:#5d3c2d;stroke:black;stroke-width:1;fill-opacity:1;stroke-opacity:0.3" />
<text x="15"  y="176" style="font-family:Arial;font-size:10;stroke:black;fill:black;">all.merged.bam</text>
</svg>
    
