<?xml version="1.0" encoding="utf-8" standalone="no"?>
<!DOCTYPE svg PUBLIC "-//W3C//DTD SVG 1.1//EN"
  "http://www.w3.org/Graphics/SVG/1.1/DTD/svg11.dtd">
<svg height="1140" width="1000" version="1.1" viewBox="0 0 1000 1140" xmlns="http://www.w3.org/2000/svg" xmlns:xlink="http://www.w3.org/1999/xlink">
<line x1="81" y1="11" x2="917" y2="11" stroke="black" stroke-width="1" />
<rect x="81" y="9" width="458" height="5" style="fill:#f50002;stroke:black;stroke-width:1;fill-opacity:1;stroke-opacity:0.3" />
<rect x="540" y="9" width="225" height="5" style="fill:#53a1b5;stroke:black;stroke-width:1;fill-opacity:1;stroke-opacity:0.3" />
<rect x="766" y="9" width="150" height="5" style="fill:#f50002;stroke:black;stroke-width:1;fill-opacity:1;stroke-opacity:0.3" />
<text x="81"  y="23" style="font-family:Arial;font-size:10;stroke:black;fill:black;">Cre09.g411876.t1.1.v5.5 (-) chromosome_9:7115804-7116825</text>
<line x1="164" y1="30" x2="200" y2="32" stroke="black" stroke-width="1" />
<line x1="200" y1="32" x2="236" y2="30" stroke="black" stroke-width="1" />
<rect x="82" y="28" width="81" height="5" style="fill:#f5b024;stroke:black;stroke-width:1;fill-opacity:1;stroke-opacity:0.3" />
<rect x="236" y="28" width="81" height="5" style="fill:#f5b024;stroke:black;stroke-width:1;fill-opacity:1;stroke-opacity:0.3" />
<line x1="229" y1="37" x2="243" y2="39" stroke="black" stroke-width="1" />
<line x1="243" y1="39" x2="258" y2="37" stroke="black" stroke-width="1" />
<rect x="148" y="35" width="81" height="5" style="fill:#f5b024;stroke:black;stroke-width:1;fill-opacity:1;stroke-opacity:0.3" />
<rect x="258" y="35" width="81" height="5" style="fill:#f5b024;stroke:black;stroke-width:1;fill-opacity:1;stroke-opacity:0.3" />
<line x1="264" y1="44" x2="293" y2="46" stroke="black" stroke-width="1" />
<line x1="293" y1="46" x2="322" y2="44" stroke="black" stroke-width="1" />
<rect x="182" y="42" width="81" height="5" style="fill:#f5b024;stroke:black;stroke-width:1;fill-opacity:1;stroke-opacity:0.3" />
<rect x="322" y="42" width="81" height="5" style="fill:#f5b024;stroke:black;stroke-width:1;fill-opacity:1;stroke-opacity:0.3" />
<line x1="293" y1="51" x2="303" y2="53" stroke="black" stroke-width="1" />
<line x1="303" y1="53" x2="314" y2="51" stroke="black" stroke-width="1" />
<rect x="211" y="49" width="81" height="5" style="fill:#f5b024;stroke:black;stroke-width:1;fill-opacity:1;stroke-opacity:0.3" />
<rect x="314" y="49" width="81" height="5" style="fill:#f5b024;stroke:black;stroke-width:1;fill-opacity:1;stroke-opacity:0.3" />
<text x="15"  y="176" style="font-family:Arial;font-size:10;stroke:black;fill:black;">all.merged.bam</text>
</svg>
    
