<?xml version="1.0" encoding="utf-8" standalone="no"?>
<!DOCTYPE svg PUBLIC "-//W3C//DTD SVG 1.1//EN"
  "http://www.w3.org/Graphics/SVG/1.1/DTD/svg11.dtd">
<svg height="1140" width="1000" version="1.1" viewBox="0 0 1000 1140" xmlns="http://www.w3.org/2000/svg" xmlns:xlink="http://www.w3.org/1999/xlink">
<line x1="38" y1="11" x2="961" y2="11" stroke="black" stroke-width="1" />
<rect x="38" y="9" width="125" height="5" style="fill:#f50002;stroke:black;stroke-width:1;fill-opacity:1;stroke-opacity:0.3" />
<rect x="163" y="9" width="15" height="5" style="fill:#53a1b5;stroke:black;stroke-width:1;fill-opacity:1;stroke-opacity:0.3" />
<rect x="253" y="9" width="50" height="5" style="fill:#53a1b5;stroke:black;stroke-width:1;fill-opacity:1;stroke-opacity:0.3" />
<rect x="520" y="9" width="87" height="5" style="fill:#53a1b5;stroke:black;stroke-width:1;fill-opacity:1;stroke-opacity:0.3" />
<rect x="667" y="9" width="28" height="5" style="fill:#53a1b5;stroke:black;stroke-width:1;fill-opacity:1;stroke-opacity:0.3" />
<rect x="818" y="9" width="42" height="5" style="fill:#53a1b5;stroke:black;stroke-width:1;fill-opacity:1;stroke-opacity:0.3" />
<rect x="862" y="9" width="99" height="5" style="fill:#f50002;stroke:black;stroke-width:1;fill-opacity:1;stroke-opacity:0.3" />
<text x="38"  y="23" style="font-family:Arial;font-size:10;stroke:black;fill:black;">Cre02.g095064.t1.1.v5.5 (-) chromosome_2:3153920-3156335</text>
<line x1="68" y1="30" x2="70" y2="32" stroke="black" stroke-width="1" />
<line x1="70" y1="32" x2="73" y2="30" stroke="black" stroke-width="1" />
<rect x="29" y="28" width="38" height="5" style="fill:#f5b024;stroke:black;stroke-width:1;fill-opacity:1;stroke-opacity:0.3" />
<rect x="73" y="28" width="38" height="5" style="fill:#f5b024;stroke:black;stroke-width:1;fill-opacity:1;stroke-opacity:0.3" />
<line x1="188" y1="30" x2="223" y2="32" stroke="black" stroke-width="1" />
<line x1="223" y1="32" x2="259" y2="30" stroke="black" stroke-width="1" />
<rect x="149" y="28" width="38" height="5" style="fill:#f5b024;stroke:black;stroke-width:1;fill-opacity:1;stroke-opacity:0.3" />
<rect x="259" y="28" width="38" height="5" style="fill:#f5b024;stroke:black;stroke-width:1;fill-opacity:1;stroke-opacity:0.3" />
<line x1="258" y1="37" x2="270" y2="39" stroke="black" stroke-width="1" />
<line x1="270" y1="39" x2="282" y2="37" stroke="black" stroke-width="1" />
<rect x="158" y="35" width="21" height="5" style="fill:#f5b024;stroke:black;stroke-width:1;fill-opacity:1;stroke-opacity:0.3" />
<line x1="179" y1="37" x2="241" y2="37" stroke="pink" stroke-width="1" />
<rect x="241" y="35" width="16" height="5" style="fill:#f5b024;stroke:black;stroke-width:1;fill-opacity:1;stroke-opacity:0.3" />
<rect x="282" y="35" width="22" height="5" style="fill:#f5b024;stroke:black;stroke-width:1;fill-opacity:1;stroke-opacity:0.3" />
<line x1="305" y1="37" x2="529" y2="37" stroke="pink" stroke-width="1" />
<rect x="529" y="35" width="15" height="5" style="fill:#f5b024;stroke:black;stroke-width:1;fill-opacity:1;stroke-opacity:0.3" />
<line x1="285" y1="44" x2="290" y2="46" stroke="black" stroke-width="1" />
<line x1="290" y1="46" x2="295" y2="44" stroke="black" stroke-width="1" />
<rect x="180" y="42" width="13" height="5" style="fill:#f5b024;stroke:black;stroke-width:1;fill-opacity:1;stroke-opacity:0.3" />
<line x1="194" y1="44" x2="241" y2="44" stroke="pink" stroke-width="1" />
<rect x="241" y="42" width="43" height="5" style="fill:#f5b024;stroke:black;stroke-width:1;fill-opacity:1;stroke-opacity:0.3" />
<rect x="295" y="42" width="9" height="5" style="fill:#f5b024;stroke:black;stroke-width:1;fill-opacity:1;stroke-opacity:0.3" />
<line x1="305" y1="44" x2="529" y2="44" stroke="pink" stroke-width="1" />
<rect x="529" y="42" width="47" height="5" style="fill:#f5b024;stroke:black;stroke-width:1;fill-opacity:1;stroke-opacity:0.3" />
<line x1="270" y1="51" x2="273" y2="53" stroke="black" stroke-width="1" />
<line x1="273" y1="53" x2="277" y2="51" stroke="black" stroke-width="1" />
<rect x="184" y="49" width="9" height="5" style="fill:#f5b024;stroke:black;stroke-width:1;fill-opacity:1;stroke-opacity:0.3" />
<line x1="194" y1="51" x2="241" y2="51" stroke="pink" stroke-width="1" />
<rect x="241" y="49" width="28" height="5" style="fill:#f5b024;stroke:black;stroke-width:1;fill-opacity:1;stroke-opacity:0.3" />
<rect x="277" y="49" width="27" height="5" style="fill:#f5b024;stroke:black;stroke-width:1;fill-opacity:1;stroke-opacity:0.3" />
<line x1="305" y1="51" x2="529" y2="51" stroke="pink" stroke-width="1" />
<rect x="529" y="49" width="10" height="5" style="fill:#f5b024;stroke:black;stroke-width:1;fill-opacity:1;stroke-opacity:0.3" />
<line x1="274" y1="58" x2="278" y2="60" stroke="black" stroke-width="1" />
<line x1="278" y1="60" x2="283" y2="58" stroke="black" stroke-width="1" />
<rect x="188" y="56" width="5" height="5" style="fill:#f5b024;stroke:black;stroke-width:1;fill-opacity:1;stroke-opacity:0.3" />
<line x1="194" y1="58" x2="241" y2="58" stroke="pink" stroke-width="1" />
<rect x="241" y="56" width="32" height="5" style="fill:#f5b024;stroke:black;stroke-width:1;fill-opacity:1;stroke-opacity:0.3" />
<rect x="283" y="56" width="21" height="5" style="fill:#f5b024;stroke:black;stroke-width:1;fill-opacity:1;stroke-opacity:0.3" />
<line x1="305" y1="58" x2="529" y2="58" stroke="pink" stroke-width="1" />
<rect x="529" y="56" width="16" height="5" style="fill:#f5b024;stroke:black;stroke-width:1;fill-opacity:1;stroke-opacity:0.3" />
<line x1="274" y1="65" x2="288" y2="67" stroke="black" stroke-width="1" />
<line x1="288" y1="67" x2="303" y2="65" stroke="black" stroke-width="1" />
<rect x="189" y="63" width="4" height="5" style="fill:#f5b024;stroke:black;stroke-width:1;fill-opacity:1;stroke-opacity:0.3" />
<line x1="194" y1="65" x2="241" y2="65" stroke="pink" stroke-width="1" />
<rect x="241" y="63" width="32" height="5" style="fill:#f5b024;stroke:black;stroke-width:1;fill-opacity:1;stroke-opacity:0.3" />
<rect x="303" y="63" width="1" height="5" style="fill:#f5b024;stroke:black;stroke-width:1;fill-opacity:1;stroke-opacity:0.3" />
<line x1="305" y1="65" x2="529" y2="65" stroke="pink" stroke-width="1" />
<rect x="529" y="63" width="37" height="5" style="fill:#f5b024;stroke:black;stroke-width:1;fill-opacity:1;stroke-opacity:0.3" />
<line x1="283" y1="72" x2="286" y2="74" stroke="black" stroke-width="1" />
<line x1="286" y1="74" x2="289" y2="72" stroke="black" stroke-width="1" />
<rect x="245" y="70" width="38" height="5" style="fill:#f5b024;stroke:black;stroke-width:1;fill-opacity:1;stroke-opacity:0.3" />
<rect x="289" y="70" width="15" height="5" style="fill:#f5b024;stroke:black;stroke-width:1;fill-opacity:1;stroke-opacity:0.3" />
<line x1="305" y1="72" x2="529" y2="72" stroke="pink" stroke-width="1" />
<rect x="529" y="70" width="22" height="5" style="fill:#f5b024;stroke:black;stroke-width:1;fill-opacity:1;stroke-opacity:0.3" />
<line x1="287" y1="79" x2="291" y2="81" stroke="black" stroke-width="1" />
<line x1="291" y1="81" x2="296" y2="79" stroke="black" stroke-width="1" />
<rect x="248" y="77" width="38" height="5" style="fill:#f5b024;stroke:black;stroke-width:1;fill-opacity:1;stroke-opacity:0.3" />
<rect x="296" y="77" width="15" height="5" style="fill:#f5b024;stroke:black;stroke-width:1;fill-opacity:1;stroke-opacity:0.3" />
<line x1="311" y1="79" x2="529" y2="79" stroke="pink" stroke-width="1" />
<rect x="529" y="77" width="22" height="5" style="fill:#f5b024;stroke:black;stroke-width:1;fill-opacity:1;stroke-opacity:0.3" />
<line x1="530" y1="86" x2="538" y2="88" stroke="black" stroke-width="1" />
<line x1="538" y1="88" x2="547" y2="86" stroke="black" stroke-width="1" />
<rect x="267" y="84" width="37" height="5" style="fill:#f5b024;stroke:black;stroke-width:1;fill-opacity:1;stroke-opacity:0.3" />
<line x1="305" y1="86" x2="529" y2="86" stroke="pink" stroke-width="1" />
<rect x="529" y="84" width="1" height="5" style="fill:#f5b024;stroke:black;stroke-width:1;fill-opacity:1;stroke-opacity:0.3" />
<rect x="547" y="84" width="38" height="5" style="fill:#f5b024;stroke:black;stroke-width:1;fill-opacity:1;stroke-opacity:0.3" />
<line x1="540" y1="93" x2="544" y2="95" stroke="black" stroke-width="1" />
<line x1="544" y1="95" x2="549" y2="93" stroke="black" stroke-width="1" />
<rect x="277" y="91" width="27" height="5" style="fill:#f5b024;stroke:black;stroke-width:1;fill-opacity:1;stroke-opacity:0.3" />
<line x1="305" y1="93" x2="529" y2="93" stroke="pink" stroke-width="1" />
<rect x="529" y="91" width="11" height="5" style="fill:#f5b024;stroke:black;stroke-width:1;fill-opacity:1;stroke-opacity:0.3" />
<rect x="549" y="91" width="38" height="5" style="fill:#f5b024;stroke:black;stroke-width:1;fill-opacity:1;stroke-opacity:0.3" />
<line x1="577" y1="30" x2="579" y2="32" stroke="black" stroke-width="1" />
<line x1="579" y1="32" x2="582" y2="30" stroke="black" stroke-width="1" />
<rect x="539" y="28" width="38" height="5" style="fill:#f5b024;stroke:black;stroke-width:1;fill-opacity:1;stroke-opacity:0.3" />
<rect x="582" y="28" width="24" height="5" style="fill:#f5b024;stroke:black;stroke-width:1;fill-opacity:1;stroke-opacity:0.3" />
<line x1="607" y1="30" x2="678" y2="30" stroke="pink" stroke-width="1" />
<rect x="678" y="28" width="13" height="5" style="fill:#f5b024;stroke:black;stroke-width:1;fill-opacity:1;stroke-opacity:0.3" />
<line x1="577" y1="100" x2="588" y2="102" stroke="black" stroke-width="1" />
<line x1="588" y1="102" x2="599" y2="100" stroke="black" stroke-width="1" />
<rect x="539" y="98" width="38" height="5" style="fill:#f5b024;stroke:black;stroke-width:1;fill-opacity:1;stroke-opacity:0.3" />
<rect x="599" y="98" width="35" height="5" style="fill:#f5b024;stroke:black;stroke-width:1;fill-opacity:1;stroke-opacity:0.3" />
<line x1="591" y1="37" x2="642" y2="39" stroke="black" stroke-width="1" />
<line x1="642" y1="39" x2="694" y2="37" stroke="black" stroke-width="1" />
<rect x="553" y="35" width="37" height="5" style="fill:#f5b024;stroke:black;stroke-width:1;fill-opacity:1;stroke-opacity:0.3" />
<rect x="694" y="35" width="1" height="5" style="fill:#f5b024;stroke:black;stroke-width:1;fill-opacity:1;stroke-opacity:0.3" />
<line x1="696" y1="37" x2="818" y2="37" stroke="pink" stroke-width="1" />
<rect x="818" y="35" width="37" height="5" style="fill:#f5b024;stroke:black;stroke-width:1;fill-opacity:1;stroke-opacity:0.3" />
<line x1="592" y1="51" x2="596" y2="53" stroke="black" stroke-width="1" />
<line x1="596" y1="53" x2="600" y2="51" stroke="black" stroke-width="1" />
<rect x="554" y="49" width="38" height="5" style="fill:#f5b024;stroke:black;stroke-width:1;fill-opacity:1;stroke-opacity:0.3" />
<rect x="600" y="49" width="6" height="5" style="fill:#f5b024;stroke:black;stroke-width:1;fill-opacity:1;stroke-opacity:0.3" />
<line x1="607" y1="51" x2="678" y2="51" stroke="pink" stroke-width="1" />
<rect x="678" y="49" width="17" height="5" style="fill:#f5b024;stroke:black;stroke-width:1;fill-opacity:1;stroke-opacity:0.3" />
<line x1="696" y1="51" x2="818" y2="51" stroke="pink" stroke-width="1" />
<rect x="818" y="49" width="13" height="5" style="fill:#f5b024;stroke:black;stroke-width:1;fill-opacity:1;stroke-opacity:0.3" />
<line x1="607" y1="58" x2="718" y2="60" stroke="black" stroke-width="1" />
<line x1="718" y1="60" x2="829" y2="58" stroke="black" stroke-width="1" />
<rect x="569" y="56" width="37" height="5" style="fill:#f5b024;stroke:black;stroke-width:1;fill-opacity:1;stroke-opacity:0.3" />
<rect x="829" y="56" width="38" height="5" style="fill:#f5b024;stroke:black;stroke-width:1;fill-opacity:1;stroke-opacity:0.3" />
<line x1="679" y1="65" x2="682" y2="67" stroke="black" stroke-width="1" />
<line x1="682" y1="67" x2="686" y2="65" stroke="black" stroke-width="1" />
<rect x="571" y="63" width="36" height="5" style="fill:#f5b024;stroke:black;stroke-width:1;fill-opacity:1;stroke-opacity:0.3" />
<line x1="607" y1="65" x2="678" y2="65" stroke="pink" stroke-width="1" />
<rect x="678" y="63" width="1" height="5" style="fill:#f5b024;stroke:black;stroke-width:1;fill-opacity:1;stroke-opacity:0.3" />
<rect x="686" y="63" width="9" height="5" style="fill:#f5b024;stroke:black;stroke-width:1;fill-opacity:1;stroke-opacity:0.3" />
<line x1="696" y1="65" x2="818" y2="65" stroke="pink" stroke-width="1" />
<rect x="818" y="63" width="28" height="5" style="fill:#f5b024;stroke:black;stroke-width:1;fill-opacity:1;stroke-opacity:0.3" />
<line x1="682" y1="72" x2="685" y2="74" stroke="black" stroke-width="1" />
<line x1="685" y1="74" x2="689" y2="72" stroke="black" stroke-width="1" />
<rect x="573" y="70" width="34" height="5" style="fill:#f5b024;stroke:black;stroke-width:1;fill-opacity:1;stroke-opacity:0.3" />
<line x1="607" y1="72" x2="678" y2="72" stroke="pink" stroke-width="1" />
<rect x="678" y="70" width="4" height="5" style="fill:#f5b024;stroke:black;stroke-width:1;fill-opacity:1;stroke-opacity:0.3" />
<rect x="689" y="70" width="6" height="5" style="fill:#f5b024;stroke:black;stroke-width:1;fill-opacity:1;stroke-opacity:0.3" />
<line x1="696" y1="72" x2="818" y2="72" stroke="pink" stroke-width="1" />
<rect x="818" y="70" width="31" height="5" style="fill:#f5b024;stroke:black;stroke-width:1;fill-opacity:1;stroke-opacity:0.3" />
<line x1="613" y1="79" x2="615" y2="81" stroke="black" stroke-width="1" />
<line x1="615" y1="81" x2="618" y2="79" stroke="black" stroke-width="1" />
<rect x="575" y="77" width="37" height="5" style="fill:#f5b024;stroke:black;stroke-width:1;fill-opacity:1;stroke-opacity:0.3" />
<rect x="618" y="77" width="12" height="5" style="fill:#f5b024;stroke:black;stroke-width:1;fill-opacity:1;stroke-opacity:0.3" />
<line x1="630" y1="79" x2="678" y2="79" stroke="pink" stroke-width="1" />
<rect x="678" y="77" width="17" height="5" style="fill:#f5b024;stroke:black;stroke-width:1;fill-opacity:1;stroke-opacity:0.3" />
<line x1="696" y1="79" x2="818" y2="79" stroke="pink" stroke-width="1" />
<rect x="818" y="77" width="7" height="5" style="fill:#f5b024;stroke:black;stroke-width:1;fill-opacity:1;stroke-opacity:0.3" />
<line x1="628" y1="44" x2="648" y2="46" stroke="black" stroke-width="1" />
<line x1="648" y1="46" x2="668" y2="44" stroke="black" stroke-width="1" />
<rect x="589" y="42" width="38" height="5" style="fill:#f5b024;stroke:black;stroke-width:1;fill-opacity:1;stroke-opacity:0.3" />
<rect x="668" y="42" width="27" height="5" style="fill:#f5b024;stroke:black;stroke-width:1;fill-opacity:1;stroke-opacity:0.3" />
<line x1="696" y1="44" x2="818" y2="44" stroke="pink" stroke-width="1" />
<rect x="818" y="42" width="8" height="5" style="fill:#f5b024;stroke:black;stroke-width:1;fill-opacity:1;stroke-opacity:0.3" />
<line x1="828" y1="86" x2="833" y2="88" stroke="black" stroke-width="1" />
<line x1="833" y1="88" x2="839" y2="86" stroke="black" stroke-width="1" />
<rect x="620" y="84" width="10" height="5" style="fill:#f5b024;stroke:black;stroke-width:1;fill-opacity:1;stroke-opacity:0.3" />
<line x1="630" y1="86" x2="678" y2="86" stroke="pink" stroke-width="1" />
<rect x="678" y="84" width="17" height="5" style="fill:#f5b024;stroke:black;stroke-width:1;fill-opacity:1;stroke-opacity:0.3" />
<line x1="696" y1="86" x2="818" y2="86" stroke="pink" stroke-width="1" />
<rect x="818" y="84" width="9" height="5" style="fill:#f5b024;stroke:black;stroke-width:1;fill-opacity:1;stroke-opacity:0.3" />
<rect x="839" y="84" width="38" height="5" style="fill:#f5b024;stroke:black;stroke-width:1;fill-opacity:1;stroke-opacity:0.3" />
<line x1="841" y1="93" x2="861" y2="95" stroke="black" stroke-width="1" />
<line x1="861" y1="95" x2="881" y2="93" stroke="black" stroke-width="1" />
<rect x="680" y="91" width="15" height="5" style="fill:#f5b024;stroke:black;stroke-width:1;fill-opacity:1;stroke-opacity:0.3" />
<line x1="696" y1="93" x2="818" y2="93" stroke="pink" stroke-width="1" />
<rect x="818" y="91" width="22" height="5" style="fill:#f5b024;stroke:black;stroke-width:1;fill-opacity:1;stroke-opacity:0.3" />
<rect x="881" y="91" width="38" height="5" style="fill:#f5b024;stroke:black;stroke-width:1;fill-opacity:1;stroke-opacity:0.3" />
<line x1="862" y1="30" x2="879" y2="32" stroke="black" stroke-width="1" />
<line x1="879" y1="32" x2="897" y2="30" stroke="black" stroke-width="1" />
<rect x="824" y="28" width="38" height="5" style="fill:#f5b024;stroke:black;stroke-width:1;fill-opacity:1;stroke-opacity:0.3" />
<rect x="897" y="28" width="38" height="5" style="fill:#f5b024;stroke:black;stroke-width:1;fill-opacity:1;stroke-opacity:0.3" />
<line x1="879" y1="44" x2="886" y2="46" stroke="black" stroke-width="1" />
<line x1="886" y1="46" x2="893" y2="44" stroke="black" stroke-width="1" />
<rect x="840" y="42" width="38" height="5" style="fill:#f5b024;stroke:black;stroke-width:1;fill-opacity:1;stroke-opacity:0.3" />
<rect x="893" y="42" width="38" height="5" style="fill:#f5b024;stroke:black;stroke-width:1;fill-opacity:1;stroke-opacity:0.3" />
<line x1="879" y1="51" x2="886" y2="53" stroke="black" stroke-width="1" />
<line x1="886" y1="53" x2="893" y2="51" stroke="black" stroke-width="1" />
<rect x="840" y="49" width="38" height="5" style="fill:#f5b024;stroke:black;stroke-width:1;fill-opacity:1;stroke-opacity:0.3" />
<rect x="893" y="49" width="38" height="5" style="fill:#f5b024;stroke:black;stroke-width:1;fill-opacity:1;stroke-opacity:0.3" />
<text x="15"  y="176" style="font-family:Arial;font-size:10;stroke:black;fill:black;">all.merged.bam</text>
</svg>
    
