<?xml version="1.0" encoding="utf-8" standalone="no"?>
<!DOCTYPE svg PUBLIC "-//W3C//DTD SVG 1.1//EN"
  "http://www.w3.org/Graphics/SVG/1.1/DTD/svg11.dtd">
<svg height="1140" width="1000" version="1.1" viewBox="0 0 1000 1140" xmlns="http://www.w3.org/2000/svg" xmlns:xlink="http://www.w3.org/1999/xlink">
<line x1="42" y1="11" x2="957" y2="11" stroke="black" stroke-width="1" />
<rect x="42" y="9" width="40" height="5" style="fill:#f50002;stroke:black;stroke-width:1;fill-opacity:1;stroke-opacity:0.3" />
<rect x="82" y="9" width="78" height="5" style="fill:#53a1b5;stroke:black;stroke-width:1;fill-opacity:1;stroke-opacity:0.3" />
<rect x="286" y="9" width="41" height="5" style="fill:#53a1b5;stroke:black;stroke-width:1;fill-opacity:1;stroke-opacity:0.3" />
<rect x="434" y="9" width="34" height="5" style="fill:#53a1b5;stroke:black;stroke-width:1;fill-opacity:1;stroke-opacity:0.3" />
<rect x="555" y="9" width="86" height="5" style="fill:#53a1b5;stroke:black;stroke-width:1;fill-opacity:1;stroke-opacity:0.3" />
<rect x="744" y="9" width="66" height="5" style="fill:#53a1b5;stroke:black;stroke-width:1;fill-opacity:1;stroke-opacity:0.3" />
<rect x="811" y="9" width="146" height="5" style="fill:#f50002;stroke:black;stroke-width:1;fill-opacity:1;stroke-opacity:0.3" />
<text x="42"  y="23" style="font-family:Arial;font-size:10;stroke:black;fill:black;">Cre08.g361850.t1.2.v5.5 (+) chromosome_8:935439-937613</text>
<line x1="115" y1="30" x2="121" y2="32" stroke="black" stroke-width="1" />
<line x1="121" y1="32" x2="127" y2="30" stroke="black" stroke-width="1" />
<rect x="52" y="28" width="63" height="5" style="fill:#5d3c2d;stroke:black;stroke-width:1;fill-opacity:1;stroke-opacity:0.3" />
<rect x="127" y="28" width="34" height="5" style="fill:#5d3c2d;stroke:black;stroke-width:1;fill-opacity:1;stroke-opacity:0.3" />
<line x1="161" y1="30" x2="286" y2="30" stroke="pink" stroke-width="1" />
<rect x="286" y="28" width="28" height="5" style="fill:#5d3c2d;stroke:black;stroke-width:1;fill-opacity:1;stroke-opacity:0.3" />
<line x1="118" y1="37" x2="137" y2="39" stroke="black" stroke-width="1" />
<line x1="137" y1="39" x2="156" y2="37" stroke="black" stroke-width="1" />
<rect x="55" y="35" width="63" height="5" style="fill:#5d3c2d;stroke:black;stroke-width:1;fill-opacity:1;stroke-opacity:0.3" />
<rect x="156" y="35" width="5" height="5" style="fill:#5d3c2d;stroke:black;stroke-width:1;fill-opacity:1;stroke-opacity:0.3" />
<line x1="161" y1="37" x2="286" y2="37" stroke="pink" stroke-width="1" />
<rect x="286" y="35" width="41" height="5" style="fill:#5d3c2d;stroke:black;stroke-width:1;fill-opacity:1;stroke-opacity:0.3" />
<line x1="328" y1="37" x2="434" y2="37" stroke="pink" stroke-width="1" />
<rect x="434" y="35" width="16" height="5" style="fill:#5d3c2d;stroke:black;stroke-width:1;fill-opacity:1;stroke-opacity:0.3" />
<line x1="118" y1="44" x2="201" y2="46" stroke="black" stroke-width="1" />
<line x1="201" y1="46" x2="285" y2="44" stroke="black" stroke-width="1" />
<rect x="55" y="42" width="63" height="5" style="fill:#5d3c2d;stroke:black;stroke-width:1;fill-opacity:1;stroke-opacity:0.3" />
<rect x="285" y="42" width="42" height="5" style="fill:#5d3c2d;stroke:black;stroke-width:1;fill-opacity:1;stroke-opacity:0.3" />
<line x1="328" y1="44" x2="434" y2="44" stroke="pink" stroke-width="1" />
<rect x="434" y="42" width="20" height="5" style="fill:#5d3c2d;stroke:black;stroke-width:1;fill-opacity:1;stroke-opacity:0.3" />
<line x1="97" y1="51" x2="100" y2="53" stroke="black" stroke-width="1" />
<line x1="100" y1="53" x2="103" y2="51" stroke="black" stroke-width="1" />
<rect x="55" y="49" width="42" height="5" style="fill:#5d3c2d;stroke:black;stroke-width:1;fill-opacity:1;stroke-opacity:0.3" />
<rect x="103" y="49" width="42" height="5" style="fill:#5d3c2d;stroke:black;stroke-width:1;fill-opacity:1;stroke-opacity:0.3" />
<line x1="98" y1="58" x2="124" y2="60" stroke="black" stroke-width="1" />
<line x1="124" y1="60" x2="150" y2="58" stroke="black" stroke-width="1" />
<rect x="56" y="56" width="42" height="5" style="fill:#5d3c2d;stroke:black;stroke-width:1;fill-opacity:1;stroke-opacity:0.3" />
<rect x="150" y="56" width="10" height="5" style="fill:#5d3c2d;stroke:black;stroke-width:1;fill-opacity:1;stroke-opacity:0.3" />
<line x1="161" y1="58" x2="286" y2="58" stroke="pink" stroke-width="1" />
<rect x="286" y="56" width="31" height="5" style="fill:#5d3c2d;stroke:black;stroke-width:1;fill-opacity:1;stroke-opacity:0.3" />
<line x1="119" y1="65" x2="124" y2="67" stroke="black" stroke-width="1" />
<line x1="124" y1="67" x2="129" y2="65" stroke="black" stroke-width="1" />
<rect x="56" y="63" width="63" height="5" style="fill:#5d3c2d;stroke:black;stroke-width:1;fill-opacity:1;stroke-opacity:0.3" />
<rect x="129" y="63" width="32" height="5" style="fill:#5d3c2d;stroke:black;stroke-width:1;fill-opacity:1;stroke-opacity:0.3" />
<line x1="161" y1="65" x2="286" y2="65" stroke="pink" stroke-width="1" />
<rect x="286" y="63" width="31" height="5" style="fill:#5d3c2d;stroke:black;stroke-width:1;fill-opacity:1;stroke-opacity:0.3" />
<line x1="120" y1="72" x2="136" y2="74" stroke="black" stroke-width="1" />
<line x1="136" y1="74" x2="152" y2="72" stroke="black" stroke-width="1" />
<rect x="57" y="70" width="62" height="5" style="fill:#5d3c2d;stroke:black;stroke-width:1;fill-opacity:1;stroke-opacity:0.3" />
<rect x="152" y="70" width="9" height="5" style="fill:#5d3c2d;stroke:black;stroke-width:1;fill-opacity:1;stroke-opacity:0.3" />
<line x1="161" y1="72" x2="286" y2="72" stroke="pink" stroke-width="1" />
<rect x="286" y="70" width="41" height="5" style="fill:#5d3c2d;stroke:black;stroke-width:1;fill-opacity:1;stroke-opacity:0.3" />
<line x1="328" y1="72" x2="434" y2="72" stroke="pink" stroke-width="1" />
<rect x="434" y="70" width="12" height="5" style="fill:#5d3c2d;stroke:black;stroke-width:1;fill-opacity:1;stroke-opacity:0.3" />
<line x1="121" y1="79" x2="125" y2="81" stroke="black" stroke-width="1" />
<line x1="125" y1="81" x2="129" y2="79" stroke="black" stroke-width="1" />
<rect x="58" y="77" width="63" height="5" style="fill:#5d3c2d;stroke:black;stroke-width:1;fill-opacity:1;stroke-opacity:0.3" />
<rect x="129" y="77" width="32" height="5" style="fill:#5d3c2d;stroke:black;stroke-width:1;fill-opacity:1;stroke-opacity:0.3" />
<line x1="161" y1="79" x2="286" y2="79" stroke="pink" stroke-width="1" />
<rect x="286" y="77" width="30" height="5" style="fill:#5d3c2d;stroke:black;stroke-width:1;fill-opacity:1;stroke-opacity:0.3" />
<line x1="121" y1="86" x2="130" y2="88" stroke="black" stroke-width="1" />
<line x1="130" y1="88" x2="139" y2="86" stroke="black" stroke-width="1" />
<rect x="58" y="84" width="62" height="5" style="fill:#5d3c2d;stroke:black;stroke-width:1;fill-opacity:1;stroke-opacity:0.3" />
<rect x="139" y="84" width="21" height="5" style="fill:#5d3c2d;stroke:black;stroke-width:1;fill-opacity:1;stroke-opacity:0.3" />
<line x1="161" y1="86" x2="286" y2="86" stroke="pink" stroke-width="1" />
<rect x="286" y="84" width="40" height="5" style="fill:#5d3c2d;stroke:black;stroke-width:1;fill-opacity:1;stroke-opacity:0.3" />
<line x1="122" y1="93" x2="205" y2="95" stroke="black" stroke-width="1" />
<line x1="205" y1="95" x2="288" y2="93" stroke="black" stroke-width="1" />
<rect x="58" y="91" width="63" height="5" style="fill:#5d3c2d;stroke:black;stroke-width:1;fill-opacity:1;stroke-opacity:0.3" />
<rect x="288" y="91" width="39" height="5" style="fill:#5d3c2d;stroke:black;stroke-width:1;fill-opacity:1;stroke-opacity:0.3" />
<line x1="328" y1="93" x2="434" y2="93" stroke="pink" stroke-width="1" />
<rect x="434" y="91" width="24" height="5" style="fill:#5d3c2d;stroke:black;stroke-width:1;fill-opacity:1;stroke-opacity:0.3" />
<line x1="122" y1="100" x2="128" y2="102" stroke="black" stroke-width="1" />
<line x1="128" y1="102" x2="134" y2="100" stroke="black" stroke-width="1" />
<rect x="58" y="98" width="63" height="5" style="fill:#5d3c2d;stroke:black;stroke-width:1;fill-opacity:1;stroke-opacity:0.3" />
<rect x="134" y="98" width="27" height="5" style="fill:#5d3c2d;stroke:black;stroke-width:1;fill-opacity:1;stroke-opacity:0.3" />
<line x1="161" y1="100" x2="286" y2="100" stroke="pink" stroke-width="1" />
<rect x="286" y="98" width="35" height="5" style="fill:#5d3c2d;stroke:black;stroke-width:1;fill-opacity:1;stroke-opacity:0.3" />
<line x1="122" y1="107" x2="130" y2="109" stroke="black" stroke-width="1" />
<line x1="130" y1="109" x2="139" y2="107" stroke="black" stroke-width="1" />
<rect x="59" y="105" width="63" height="5" style="fill:#5d3c2d;stroke:black;stroke-width:1;fill-opacity:1;stroke-opacity:0.3" />
<rect x="139" y="105" width="21" height="5" style="fill:#5d3c2d;stroke:black;stroke-width:1;fill-opacity:1;stroke-opacity:0.3" />
<line x1="161" y1="107" x2="286" y2="107" stroke="pink" stroke-width="1" />
<rect x="286" y="105" width="41" height="5" style="fill:#5d3c2d;stroke:black;stroke-width:1;fill-opacity:1;stroke-opacity:0.3" />
<line x1="122" y1="114" x2="133" y2="116" stroke="black" stroke-width="1" />
<line x1="133" y1="116" x2="145" y2="114" stroke="black" stroke-width="1" />
<rect x="59" y="112" width="63" height="5" style="fill:#5d3c2d;stroke:black;stroke-width:1;fill-opacity:1;stroke-opacity:0.3" />
<rect x="145" y="112" width="16" height="5" style="fill:#5d3c2d;stroke:black;stroke-width:1;fill-opacity:1;stroke-opacity:0.3" />
<line x1="161" y1="114" x2="286" y2="114" stroke="pink" stroke-width="1" />
<rect x="286" y="112" width="47" height="5" style="fill:#5d3c2d;stroke:black;stroke-width:1;fill-opacity:1;stroke-opacity:0.3" />
<line x1="101" y1="121" x2="103" y2="123" stroke="black" stroke-width="1" />
<line x1="103" y1="123" x2="106" y2="121" stroke="black" stroke-width="1" />
<rect x="59" y="119" width="42" height="5" style="fill:#5d3c2d;stroke:black;stroke-width:1;fill-opacity:1;stroke-opacity:0.3" />
<rect x="106" y="119" width="42" height="5" style="fill:#5d3c2d;stroke:black;stroke-width:1;fill-opacity:1;stroke-opacity:0.3" />
<line x1="122" y1="128" x2="137" y2="130" stroke="black" stroke-width="1" />
<line x1="137" y1="130" x2="152" y2="128" stroke="black" stroke-width="1" />
<rect x="59" y="126" width="63" height="5" style="fill:#5d3c2d;stroke:black;stroke-width:1;fill-opacity:1;stroke-opacity:0.3" />
<rect x="152" y="126" width="9" height="5" style="fill:#5d3c2d;stroke:black;stroke-width:1;fill-opacity:1;stroke-opacity:0.3" />
<line x1="161" y1="128" x2="286" y2="128" stroke="pink" stroke-width="1" />
<rect x="286" y="126" width="41" height="5" style="fill:#5d3c2d;stroke:black;stroke-width:1;fill-opacity:1;stroke-opacity:0.3" />
<line x1="328" y1="128" x2="434" y2="128" stroke="pink" stroke-width="1" />
<rect x="434" y="126" width="12" height="5" style="fill:#5d3c2d;stroke:black;stroke-width:1;fill-opacity:1;stroke-opacity:0.3" />
<line x1="123" y1="135" x2="126" y2="137" stroke="black" stroke-width="1" />
<line x1="126" y1="137" x2="130" y2="135" stroke="black" stroke-width="1" />
<rect x="60" y="133" width="63" height="5" style="fill:#5d3c2d;stroke:black;stroke-width:1;fill-opacity:1;stroke-opacity:0.3" />
<rect x="130" y="133" width="31" height="5" style="fill:#5d3c2d;stroke:black;stroke-width:1;fill-opacity:1;stroke-opacity:0.3" />
<line x1="161" y1="135" x2="286" y2="135" stroke="pink" stroke-width="1" />
<rect x="286" y="133" width="31" height="5" style="fill:#5d3c2d;stroke:black;stroke-width:1;fill-opacity:1;stroke-opacity:0.3" />
<line x1="123" y1="142" x2="137" y2="144" stroke="black" stroke-width="1" />
<line x1="137" y1="144" x2="151" y2="142" stroke="black" stroke-width="1" />
<rect x="60" y="140" width="63" height="5" style="fill:#5d3c2d;stroke:black;stroke-width:1;fill-opacity:1;stroke-opacity:0.3" />
<rect x="151" y="140" width="10" height="5" style="fill:#5d3c2d;stroke:black;stroke-width:1;fill-opacity:1;stroke-opacity:0.3" />
<line x1="161" y1="142" x2="286" y2="142" stroke="pink" stroke-width="1" />
<rect x="286" y="140" width="41" height="5" style="fill:#5d3c2d;stroke:black;stroke-width:1;fill-opacity:1;stroke-opacity:0.3" />
<line x1="328" y1="142" x2="434" y2="142" stroke="pink" stroke-width="1" />
<rect x="434" y="140" width="11" height="5" style="fill:#5d3c2d;stroke:black;stroke-width:1;fill-opacity:1;stroke-opacity:0.3" />
<line x1="123" y1="149" x2="126" y2="151" stroke="black" stroke-width="1" />
<line x1="126" y1="151" x2="129" y2="149" stroke="black" stroke-width="1" />
<rect x="60" y="147" width="63" height="5" style="fill:#5d3c2d;stroke:black;stroke-width:1;fill-opacity:1;stroke-opacity:0.3" />
<rect x="129" y="147" width="32" height="5" style="fill:#5d3c2d;stroke:black;stroke-width:1;fill-opacity:1;stroke-opacity:0.3" />
<line x1="161" y1="149" x2="286" y2="149" stroke="pink" stroke-width="1" />
<rect x="286" y="147" width="30" height="5" style="fill:#5d3c2d;stroke:black;stroke-width:1;fill-opacity:1;stroke-opacity:0.3" />
<line x1="124" y1="156" x2="127" y2="158" stroke="black" stroke-width="1" />
<line x1="127" y1="158" x2="130" y2="156" stroke="black" stroke-width="1" />
<rect x="61" y="154" width="63" height="5" style="fill:#5d3c2d;stroke:black;stroke-width:1;fill-opacity:1;stroke-opacity:0.3" />
<rect x="130" y="154" width="31" height="5" style="fill:#5d3c2d;stroke:black;stroke-width:1;fill-opacity:1;stroke-opacity:0.3" />
<line x1="161" y1="156" x2="286" y2="156" stroke="pink" stroke-width="1" />
<rect x="286" y="154" width="31" height="5" style="fill:#5d3c2d;stroke:black;stroke-width:1;fill-opacity:1;stroke-opacity:0.3" />
<line x1="124" y1="163" x2="127" y2="165" stroke="black" stroke-width="1" />
<line x1="127" y1="165" x2="130" y2="163" stroke="black" stroke-width="1" />
<rect x="61" y="161" width="63" height="5" style="fill:#5d3c2d;stroke:black;stroke-width:1;fill-opacity:1;stroke-opacity:0.3" />
<rect x="130" y="161" width="31" height="5" style="fill:#5d3c2d;stroke:black;stroke-width:1;fill-opacity:1;stroke-opacity:0.3" />
<line x1="161" y1="163" x2="286" y2="163" stroke="pink" stroke-width="1" />
<rect x="286" y="161" width="31" height="5" style="fill:#5d3c2d;stroke:black;stroke-width:1;fill-opacity:1;stroke-opacity:0.3" />
<line x1="312" y1="51" x2="314" y2="53" stroke="black" stroke-width="1" />
<line x1="314" y1="53" x2="317" y2="51" stroke="black" stroke-width="1" />
<rect x="145" y="49" width="16" height="5" style="fill:#5d3c2d;stroke:black;stroke-width:1;fill-opacity:1;stroke-opacity:0.3" />
<line x1="161" y1="51" x2="286" y2="51" stroke="pink" stroke-width="1" />
<rect x="286" y="49" width="25" height="5" style="fill:#5d3c2d;stroke:black;stroke-width:1;fill-opacity:1;stroke-opacity:0.3" />
<rect x="317" y="49" width="10" height="5" style="fill:#5d3c2d;stroke:black;stroke-width:1;fill-opacity:1;stroke-opacity:0.3" />
<line x1="328" y1="51" x2="434" y2="51" stroke="pink" stroke-width="1" />
<rect x="434" y="49" width="31" height="5" style="fill:#5d3c2d;stroke:black;stroke-width:1;fill-opacity:1;stroke-opacity:0.3" />
<line x1="443" y1="121" x2="445" y2="123" stroke="black" stroke-width="1" />
<line x1="445" y1="123" x2="448" y2="121" stroke="black" stroke-width="1" />
<rect x="149" y="119" width="12" height="5" style="fill:#5d3c2d;stroke:black;stroke-width:1;fill-opacity:1;stroke-opacity:0.3" />
<line x1="161" y1="121" x2="286" y2="121" stroke="pink" stroke-width="1" />
<rect x="286" y="119" width="41" height="5" style="fill:#5d3c2d;stroke:black;stroke-width:1;fill-opacity:1;stroke-opacity:0.3" />
<line x1="328" y1="121" x2="434" y2="121" stroke="pink" stroke-width="1" />
<rect x="434" y="119" width="9" height="5" style="fill:#5d3c2d;stroke:black;stroke-width:1;fill-opacity:1;stroke-opacity:0.3" />
<rect x="448" y="119" width="21" height="5" style="fill:#5d3c2d;stroke:black;stroke-width:1;fill-opacity:1;stroke-opacity:0.3" />
<line x1="469" y1="121" x2="555" y2="121" stroke="pink" stroke-width="1" />
<rect x="555" y="119" width="42" height="5" style="fill:#5d3c2d;stroke:black;stroke-width:1;fill-opacity:1;stroke-opacity:0.3" />
<line x1="357" y1="30" x2="361" y2="32" stroke="black" stroke-width="1" />
<line x1="361" y1="32" x2="366" y2="30" stroke="black" stroke-width="1" />
<rect x="314" y="28" width="42" height="5" style="fill:#5d3c2d;stroke:black;stroke-width:1;fill-opacity:1;stroke-opacity:0.3" />
<rect x="366" y="28" width="42" height="5" style="fill:#5d3c2d;stroke:black;stroke-width:1;fill-opacity:1;stroke-opacity:0.3" />
<line x1="572" y1="79" x2="581" y2="81" stroke="black" stroke-width="1" />
<line x1="581" y1="81" x2="590" y2="79" stroke="black" stroke-width="1" />
<rect x="317" y="77" width="10" height="5" style="fill:#5d3c2d;stroke:black;stroke-width:1;fill-opacity:1;stroke-opacity:0.3" />
<line x1="328" y1="79" x2="434" y2="79" stroke="pink" stroke-width="1" />
<rect x="434" y="77" width="35" height="5" style="fill:#5d3c2d;stroke:black;stroke-width:1;fill-opacity:1;stroke-opacity:0.3" />
<line x1="469" y1="79" x2="555" y2="79" stroke="pink" stroke-width="1" />
<rect x="555" y="77" width="16" height="5" style="fill:#5d3c2d;stroke:black;stroke-width:1;fill-opacity:1;stroke-opacity:0.3" />
<rect x="590" y="77" width="52" height="5" style="fill:#5d3c2d;stroke:black;stroke-width:1;fill-opacity:1;stroke-opacity:0.3" />
<line x1="642" y1="79" x2="744" y2="79" stroke="pink" stroke-width="1" />
<rect x="744" y="77" width="10" height="5" style="fill:#5d3c2d;stroke:black;stroke-width:1;fill-opacity:1;stroke-opacity:0.3" />
<line x1="465" y1="149" x2="515" y2="151" stroke="black" stroke-width="1" />
<line x1="515" y1="151" x2="565" y2="149" stroke="black" stroke-width="1" />
<rect x="317" y="147" width="10" height="5" style="fill:#5d3c2d;stroke:black;stroke-width:1;fill-opacity:1;stroke-opacity:0.3" />
<line x1="328" y1="149" x2="434" y2="149" stroke="pink" stroke-width="1" />
<rect x="434" y="147" width="31" height="5" style="fill:#5d3c2d;stroke:black;stroke-width:1;fill-opacity:1;stroke-opacity:0.3" />
<rect x="565" y="147" width="42" height="5" style="fill:#5d3c2d;stroke:black;stroke-width:1;fill-opacity:1;stroke-opacity:0.3" />
<line x1="466" y1="58" x2="511" y2="60" stroke="black" stroke-width="1" />
<line x1="511" y1="60" x2="556" y2="58" stroke="black" stroke-width="1" />
<rect x="317" y="56" width="10" height="5" style="fill:#5d3c2d;stroke:black;stroke-width:1;fill-opacity:1;stroke-opacity:0.3" />
<line x1="328" y1="58" x2="434" y2="58" stroke="pink" stroke-width="1" />
<rect x="434" y="56" width="31" height="5" style="fill:#5d3c2d;stroke:black;stroke-width:1;fill-opacity:1;stroke-opacity:0.3" />
<rect x="556" y="56" width="41" height="5" style="fill:#5d3c2d;stroke:black;stroke-width:1;fill-opacity:1;stroke-opacity:0.3" />
<line x1="466" y1="65" x2="511" y2="67" stroke="black" stroke-width="1" />
<line x1="511" y1="67" x2="556" y2="65" stroke="black" stroke-width="1" />
<rect x="317" y="63" width="10" height="5" style="fill:#5d3c2d;stroke:black;stroke-width:1;fill-opacity:1;stroke-opacity:0.3" />
<line x1="328" y1="65" x2="434" y2="65" stroke="pink" stroke-width="1" />
<rect x="434" y="63" width="31" height="5" style="fill:#5d3c2d;stroke:black;stroke-width:1;fill-opacity:1;stroke-opacity:0.3" />
<rect x="556" y="63" width="41" height="5" style="fill:#5d3c2d;stroke:black;stroke-width:1;fill-opacity:1;stroke-opacity:0.3" />
<line x1="466" y1="135" x2="515" y2="137" stroke="black" stroke-width="1" />
<line x1="515" y1="137" x2="565" y2="135" stroke="black" stroke-width="1" />
<rect x="318" y="133" width="9" height="5" style="fill:#5d3c2d;stroke:black;stroke-width:1;fill-opacity:1;stroke-opacity:0.3" />
<line x1="328" y1="135" x2="434" y2="135" stroke="pink" stroke-width="1" />
<rect x="434" y="133" width="32" height="5" style="fill:#5d3c2d;stroke:black;stroke-width:1;fill-opacity:1;stroke-opacity:0.3" />
<rect x="565" y="133" width="42" height="5" style="fill:#5d3c2d;stroke:black;stroke-width:1;fill-opacity:1;stroke-opacity:0.3" />
<line x1="466" y1="156" x2="511" y2="158" stroke="black" stroke-width="1" />
<line x1="511" y1="158" x2="556" y2="156" stroke="black" stroke-width="1" />
<rect x="318" y="154" width="9" height="5" style="fill:#5d3c2d;stroke:black;stroke-width:1;fill-opacity:1;stroke-opacity:0.3" />
<line x1="328" y1="156" x2="434" y2="156" stroke="pink" stroke-width="1" />
<rect x="434" y="154" width="32" height="5" style="fill:#5d3c2d;stroke:black;stroke-width:1;fill-opacity:1;stroke-opacity:0.3" />
<rect x="556" y="154" width="42" height="5" style="fill:#5d3c2d;stroke:black;stroke-width:1;fill-opacity:1;stroke-opacity:0.3" />
<line x1="466" y1="163" x2="511" y2="165" stroke="black" stroke-width="1" />
<line x1="511" y1="165" x2="556" y2="163" stroke="black" stroke-width="1" />
<rect x="318" y="161" width="9" height="5" style="fill:#5d3c2d;stroke:black;stroke-width:1;fill-opacity:1;stroke-opacity:0.3" />
<line x1="328" y1="163" x2="434" y2="163" stroke="pink" stroke-width="1" />
<rect x="434" y="161" width="32" height="5" style="fill:#5d3c2d;stroke:black;stroke-width:1;fill-opacity:1;stroke-opacity:0.3" />
<rect x="556" y="161" width="42" height="5" style="fill:#5d3c2d;stroke:black;stroke-width:1;fill-opacity:1;stroke-opacity:0.3" />
<line x1="558" y1="100" x2="560" y2="102" stroke="black" stroke-width="1" />
<line x1="560" y1="102" x2="562" y2="100" stroke="black" stroke-width="1" />
<rect x="323" y="98" width="4" height="5" style="fill:#5d3c2d;stroke:black;stroke-width:1;fill-opacity:1;stroke-opacity:0.3" />
<line x1="328" y1="100" x2="434" y2="100" stroke="pink" stroke-width="1" />
<rect x="434" y="98" width="35" height="5" style="fill:#5d3c2d;stroke:black;stroke-width:1;fill-opacity:1;stroke-opacity:0.3" />
<line x1="469" y1="100" x2="555" y2="100" stroke="pink" stroke-width="1" />
<rect x="555" y="98" width="2" height="5" style="fill:#5d3c2d;stroke:black;stroke-width:1;fill-opacity:1;stroke-opacity:0.3" />
<rect x="562" y="98" width="42" height="5" style="fill:#5d3c2d;stroke:black;stroke-width:1;fill-opacity:1;stroke-opacity:0.3" />
<line x1="389" y1="86" x2="396" y2="88" stroke="black" stroke-width="1" />
<line x1="396" y1="88" x2="403" y2="86" stroke="black" stroke-width="1" />
<rect x="347" y="84" width="42" height="5" style="fill:#5d3c2d;stroke:black;stroke-width:1;fill-opacity:1;stroke-opacity:0.3" />
<rect x="403" y="84" width="42" height="5" style="fill:#5d3c2d;stroke:black;stroke-width:1;fill-opacity:1;stroke-opacity:0.3" />
<line x1="409" y1="107" x2="412" y2="109" stroke="black" stroke-width="1" />
<line x1="412" y1="109" x2="416" y2="107" stroke="black" stroke-width="1" />
<rect x="367" y="105" width="42" height="5" style="fill:#5d3c2d;stroke:black;stroke-width:1;fill-opacity:1;stroke-opacity:0.3" />
<rect x="416" y="105" width="40" height="5" style="fill:#5d3c2d;stroke:black;stroke-width:1;fill-opacity:1;stroke-opacity:0.3" />
<line x1="422" y1="114" x2="424" y2="116" stroke="black" stroke-width="1" />
<line x1="424" y1="116" x2="427" y2="114" stroke="black" stroke-width="1" />
<rect x="380" y="112" width="42" height="5" style="fill:#f5b024;stroke:black;stroke-width:1;fill-opacity:1;stroke-opacity:0.3" />
<rect x="427" y="112" width="42" height="5" style="fill:#f5b024;stroke:black;stroke-width:1;fill-opacity:1;stroke-opacity:0.3" />
<line x1="460" y1="30" x2="507" y2="32" stroke="black" stroke-width="1" />
<line x1="507" y1="32" x2="555" y2="30" stroke="black" stroke-width="1" />
<rect x="418" y="28" width="42" height="5" style="fill:#5d3c2d;stroke:black;stroke-width:1;fill-opacity:1;stroke-opacity:0.3" />
<rect x="555" y="28" width="41" height="5" style="fill:#5d3c2d;stroke:black;stroke-width:1;fill-opacity:1;stroke-opacity:0.3" />
<line x1="574" y1="86" x2="581" y2="88" stroke="black" stroke-width="1" />
<line x1="581" y1="88" x2="589" y2="86" stroke="black" stroke-width="1" />
<rect x="446" y="84" width="23" height="5" style="fill:#5d3c2d;stroke:black;stroke-width:1;fill-opacity:1;stroke-opacity:0.3" />
<line x1="469" y1="86" x2="555" y2="86" stroke="pink" stroke-width="1" />
<rect x="555" y="84" width="18" height="5" style="fill:#5d3c2d;stroke:black;stroke-width:1;fill-opacity:1;stroke-opacity:0.3" />
<rect x="589" y="84" width="41" height="5" style="fill:#5d3c2d;stroke:black;stroke-width:1;fill-opacity:1;stroke-opacity:0.3" />
<line x1="574" y1="72" x2="581" y2="74" stroke="black" stroke-width="1" />
<line x1="581" y1="74" x2="589" y2="72" stroke="black" stroke-width="1" />
<rect x="446" y="70" width="23" height="5" style="fill:#5d3c2d;stroke:black;stroke-width:1;fill-opacity:1;stroke-opacity:0.3" />
<line x1="469" y1="72" x2="555" y2="72" stroke="pink" stroke-width="1" />
<rect x="555" y="70" width="18" height="5" style="fill:#5d3c2d;stroke:black;stroke-width:1;fill-opacity:1;stroke-opacity:0.3" />
<rect x="589" y="70" width="42" height="5" style="fill:#5d3c2d;stroke:black;stroke-width:1;fill-opacity:1;stroke-opacity:0.3" />
<line x1="576" y1="128" x2="593" y2="130" stroke="black" stroke-width="1" />
<line x1="593" y1="130" x2="610" y2="128" stroke="black" stroke-width="1" />
<rect x="448" y="126" width="21" height="5" style="fill:#5d3c2d;stroke:black;stroke-width:1;fill-opacity:1;stroke-opacity:0.3" />
<line x1="469" y1="128" x2="555" y2="128" stroke="pink" stroke-width="1" />
<rect x="555" y="126" width="20" height="5" style="fill:#5d3c2d;stroke:black;stroke-width:1;fill-opacity:1;stroke-opacity:0.3" />
<rect x="610" y="126" width="31" height="5" style="fill:#5d3c2d;stroke:black;stroke-width:1;fill-opacity:1;stroke-opacity:0.3" />
<line x1="642" y1="128" x2="744" y2="128" stroke="pink" stroke-width="1" />
<rect x="744" y="126" width="9" height="5" style="fill:#5d3c2d;stroke:black;stroke-width:1;fill-opacity:1;stroke-opacity:0.3" />
<line x1="597" y1="142" x2="697" y2="144" stroke="black" stroke-width="1" />
<line x1="697" y1="144" x2="797" y2="142" stroke="black" stroke-width="1" />
<rect x="448" y="140" width="21" height="5" style="fill:#5d3c2d;stroke:black;stroke-width:1;fill-opacity:1;stroke-opacity:0.3" />
<line x1="469" y1="142" x2="555" y2="142" stroke="pink" stroke-width="1" />
<rect x="555" y="140" width="42" height="5" style="fill:#5d3c2d;stroke:black;stroke-width:1;fill-opacity:1;stroke-opacity:0.3" />
<rect x="797" y="140" width="62" height="5" style="fill:#5d3c2d;stroke:black;stroke-width:1;fill-opacity:1;stroke-opacity:0.3" />
<line x1="578" y1="37" x2="586" y2="39" stroke="black" stroke-width="1" />
<line x1="586" y1="39" x2="594" y2="37" stroke="black" stroke-width="1" />
<rect x="450" y="35" width="18" height="5" style="fill:#5d3c2d;stroke:black;stroke-width:1;fill-opacity:1;stroke-opacity:0.3" />
<line x1="469" y1="37" x2="555" y2="37" stroke="pink" stroke-width="1" />
<rect x="555" y="35" width="23" height="5" style="fill:#5d3c2d;stroke:black;stroke-width:1;fill-opacity:1;stroke-opacity:0.3" />
<rect x="594" y="35" width="42" height="5" style="fill:#5d3c2d;stroke:black;stroke-width:1;fill-opacity:1;stroke-opacity:0.3" />
<line x1="582" y1="44" x2="587" y2="46" stroke="black" stroke-width="1" />
<line x1="587" y1="46" x2="592" y2="44" stroke="black" stroke-width="1" />
<rect x="454" y="42" width="15" height="5" style="fill:#5d3c2d;stroke:black;stroke-width:1;fill-opacity:1;stroke-opacity:0.3" />
<line x1="469" y1="44" x2="555" y2="44" stroke="pink" stroke-width="1" />
<rect x="555" y="42" width="26" height="5" style="fill:#5d3c2d;stroke:black;stroke-width:1;fill-opacity:1;stroke-opacity:0.3" />
<rect x="592" y="42" width="42" height="5" style="fill:#5d3c2d;stroke:black;stroke-width:1;fill-opacity:1;stroke-opacity:0.3" />
<line x1="585" y1="107" x2="587" y2="109" stroke="black" stroke-width="1" />
<line x1="587" y1="109" x2="589" y2="107" stroke="black" stroke-width="1" />
<rect x="457" y="105" width="12" height="5" style="fill:#5d3c2d;stroke:black;stroke-width:1;fill-opacity:1;stroke-opacity:0.3" />
<line x1="469" y1="107" x2="555" y2="107" stroke="pink" stroke-width="1" />
<rect x="555" y="105" width="29" height="5" style="fill:#5d3c2d;stroke:black;stroke-width:1;fill-opacity:1;stroke-opacity:0.3" />
<rect x="589" y="105" width="41" height="5" style="fill:#5d3c2d;stroke:black;stroke-width:1;fill-opacity:1;stroke-opacity:0.3" />
<line x1="586" y1="93" x2="607" y2="95" stroke="black" stroke-width="1" />
<line x1="607" y1="95" x2="629" y2="93" stroke="black" stroke-width="1" />
<rect x="458" y="91" width="10" height="5" style="fill:#5d3c2d;stroke:black;stroke-width:1;fill-opacity:1;stroke-opacity:0.3" />
<line x1="469" y1="93" x2="555" y2="93" stroke="pink" stroke-width="1" />
<rect x="555" y="91" width="31" height="5" style="fill:#5d3c2d;stroke:black;stroke-width:1;fill-opacity:1;stroke-opacity:0.3" />
<rect x="629" y="91" width="13" height="5" style="fill:#5d3c2d;stroke:black;stroke-width:1;fill-opacity:1;stroke-opacity:0.3" />
<line x1="642" y1="93" x2="744" y2="93" stroke="pink" stroke-width="1" />
<rect x="744" y="91" width="26" height="5" style="fill:#5d3c2d;stroke:black;stroke-width:1;fill-opacity:1;stroke-opacity:0.3" />
<line x1="594" y1="51" x2="597" y2="53" stroke="black" stroke-width="1" />
<line x1="597" y1="53" x2="600" y2="51" stroke="black" stroke-width="1" />
<rect x="466" y="49" width="3" height="5" style="fill:#5d3c2d;stroke:black;stroke-width:1;fill-opacity:1;stroke-opacity:0.3" />
<line x1="469" y1="51" x2="555" y2="51" stroke="pink" stroke-width="1" />
<rect x="555" y="49" width="38" height="5" style="fill:#5d3c2d;stroke:black;stroke-width:1;fill-opacity:1;stroke-opacity:0.3" />
<rect x="600" y="49" width="42" height="5" style="fill:#5d3c2d;stroke:black;stroke-width:1;fill-opacity:1;stroke-opacity:0.3" />
<line x1="540" y1="114" x2="547" y2="116" stroke="black" stroke-width="1" />
<line x1="547" y1="116" x2="554" y2="114" stroke="black" stroke-width="1" />
<rect x="498" y="112" width="42" height="5" style="fill:#5d3c2d;stroke:black;stroke-width:1;fill-opacity:1;stroke-opacity:0.3" />
<rect x="554" y="112" width="42" height="5" style="fill:#5d3c2d;stroke:black;stroke-width:1;fill-opacity:1;stroke-opacity:0.3" />
<line x1="762" y1="30" x2="771" y2="32" stroke="black" stroke-width="1" />
<line x1="771" y1="32" x2="780" y2="30" stroke="black" stroke-width="1" />
<rect x="597" y="28" width="44" height="5" style="fill:#5d3c2d;stroke:black;stroke-width:1;fill-opacity:1;stroke-opacity:0.3" />
<line x1="642" y1="30" x2="744" y2="30" stroke="pink" stroke-width="1" />
<rect x="744" y="28" width="18" height="5" style="fill:#5d3c2d;stroke:black;stroke-width:1;fill-opacity:1;stroke-opacity:0.3" />
<rect x="780" y="28" width="63" height="5" style="fill:#5d3c2d;stroke:black;stroke-width:1;fill-opacity:1;stroke-opacity:0.3" />
<line x1="640" y1="58" x2="702" y2="60" stroke="black" stroke-width="1" />
<line x1="702" y1="60" x2="765" y2="58" stroke="black" stroke-width="1" />
<rect x="597" y="56" width="42" height="5" style="fill:#5d3c2d;stroke:black;stroke-width:1;fill-opacity:1;stroke-opacity:0.3" />
<rect x="765" y="56" width="42" height="5" style="fill:#5d3c2d;stroke:black;stroke-width:1;fill-opacity:1;stroke-opacity:0.3" />
<line x1="763" y1="65" x2="770" y2="67" stroke="black" stroke-width="1" />
<line x1="770" y1="67" x2="777" y2="65" stroke="black" stroke-width="1" />
<rect x="598" y="63" width="44" height="5" style="fill:#f5b024;stroke:black;stroke-width:1;fill-opacity:1;stroke-opacity:0.3" />
<line x1="642" y1="65" x2="744" y2="65" stroke="pink" stroke-width="1" />
<rect x="744" y="63" width="18" height="5" style="fill:#f5b024;stroke:black;stroke-width:1;fill-opacity:1;stroke-opacity:0.3" />
<rect x="777" y="63" width="63" height="5" style="fill:#f5b024;stroke:black;stroke-width:1;fill-opacity:1;stroke-opacity:0.3" />
<line x1="764" y1="114" x2="774" y2="116" stroke="black" stroke-width="1" />
<line x1="774" y1="116" x2="784" y2="114" stroke="black" stroke-width="1" />
<rect x="599" y="112" width="43" height="5" style="fill:#5d3c2d;stroke:black;stroke-width:1;fill-opacity:1;stroke-opacity:0.3" />
<line x1="642" y1="114" x2="744" y2="114" stroke="pink" stroke-width="1" />
<rect x="744" y="112" width="19" height="5" style="fill:#5d3c2d;stroke:black;stroke-width:1;fill-opacity:1;stroke-opacity:0.3" />
<rect x="784" y="112" width="62" height="5" style="fill:#5d3c2d;stroke:black;stroke-width:1;fill-opacity:1;stroke-opacity:0.3" />
<line x1="764" y1="121" x2="770" y2="123" stroke="black" stroke-width="1" />
<line x1="770" y1="123" x2="777" y2="121" stroke="black" stroke-width="1" />
<rect x="599" y="119" width="42" height="5" style="fill:#5d3c2d;stroke:black;stroke-width:1;fill-opacity:1;stroke-opacity:0.3" />
<line x1="642" y1="121" x2="744" y2="121" stroke="pink" stroke-width="1" />
<rect x="744" y="119" width="20" height="5" style="fill:#5d3c2d;stroke:black;stroke-width:1;fill-opacity:1;stroke-opacity:0.3" />
<rect x="777" y="119" width="63" height="5" style="fill:#5d3c2d;stroke:black;stroke-width:1;fill-opacity:1;stroke-opacity:0.3" />
<line x1="764" y1="156" x2="774" y2="158" stroke="black" stroke-width="1" />
<line x1="774" y1="158" x2="784" y2="156" stroke="black" stroke-width="1" />
<rect x="599" y="154" width="42" height="5" style="fill:#5d3c2d;stroke:black;stroke-width:1;fill-opacity:1;stroke-opacity:0.3" />
<line x1="642" y1="156" x2="744" y2="156" stroke="pink" stroke-width="1" />
<rect x="744" y="154" width="20" height="5" style="fill:#5d3c2d;stroke:black;stroke-width:1;fill-opacity:1;stroke-opacity:0.3" />
<rect x="784" y="154" width="62" height="5" style="fill:#5d3c2d;stroke:black;stroke-width:1;fill-opacity:1;stroke-opacity:0.3" />
<line x1="764" y1="163" x2="770" y2="165" stroke="black" stroke-width="1" />
<line x1="770" y1="165" x2="777" y2="163" stroke="black" stroke-width="1" />
<rect x="599" y="161" width="42" height="5" style="fill:#5d3c2d;stroke:black;stroke-width:1;fill-opacity:1;stroke-opacity:0.3" />
<line x1="642" y1="163" x2="744" y2="163" stroke="pink" stroke-width="1" />
<rect x="744" y="161" width="20" height="5" style="fill:#5d3c2d;stroke:black;stroke-width:1;fill-opacity:1;stroke-opacity:0.3" />
<rect x="777" y="161" width="63" height="5" style="fill:#5d3c2d;stroke:black;stroke-width:1;fill-opacity:1;stroke-opacity:0.3" />
<line x1="770" y1="100" x2="777" y2="102" stroke="black" stroke-width="1" />
<line x1="777" y1="102" x2="784" y2="100" stroke="black" stroke-width="1" />
<rect x="605" y="98" width="37" height="5" style="fill:#5d3c2d;stroke:black;stroke-width:1;fill-opacity:1;stroke-opacity:0.3" />
<line x1="642" y1="100" x2="744" y2="100" stroke="pink" stroke-width="1" />
<rect x="744" y="98" width="26" height="5" style="fill:#5d3c2d;stroke:black;stroke-width:1;fill-opacity:1;stroke-opacity:0.3" />
<rect x="784" y="98" width="63" height="5" style="fill:#5d3c2d;stroke:black;stroke-width:1;fill-opacity:1;stroke-opacity:0.3" />
<line x1="773" y1="135" x2="777" y2="137" stroke="black" stroke-width="1" />
<line x1="777" y1="137" x2="781" y2="135" stroke="black" stroke-width="1" />
<rect x="608" y="133" width="34" height="5" style="fill:#5d3c2d;stroke:black;stroke-width:1;fill-opacity:1;stroke-opacity:0.3" />
<line x1="642" y1="135" x2="744" y2="135" stroke="pink" stroke-width="1" />
<rect x="744" y="133" width="28" height="5" style="fill:#5d3c2d;stroke:black;stroke-width:1;fill-opacity:1;stroke-opacity:0.3" />
<rect x="781" y="133" width="62" height="5" style="fill:#5d3c2d;stroke:black;stroke-width:1;fill-opacity:1;stroke-opacity:0.3" />
<line x1="774" y1="149" x2="778" y2="151" stroke="black" stroke-width="1" />
<line x1="778" y1="151" x2="783" y2="149" stroke="black" stroke-width="1" />
<rect x="609" y="147" width="33" height="5" style="fill:#5d3c2d;stroke:black;stroke-width:1;fill-opacity:1;stroke-opacity:0.3" />
<line x1="642" y1="149" x2="744" y2="149" stroke="pink" stroke-width="1" />
<rect x="744" y="147" width="29" height="5" style="fill:#5d3c2d;stroke:black;stroke-width:1;fill-opacity:1;stroke-opacity:0.3" />
<rect x="783" y="147" width="63" height="5" style="fill:#5d3c2d;stroke:black;stroke-width:1;fill-opacity:1;stroke-opacity:0.3" />
<line x1="775" y1="72" x2="780" y2="74" stroke="black" stroke-width="1" />
<line x1="780" y1="74" x2="786" y2="72" stroke="black" stroke-width="1" />
<rect x="631" y="70" width="10" height="5" style="fill:#5d3c2d;stroke:black;stroke-width:1;fill-opacity:1;stroke-opacity:0.3" />
<line x1="642" y1="72" x2="744" y2="72" stroke="pink" stroke-width="1" />
<rect x="744" y="70" width="31" height="5" style="fill:#5d3c2d;stroke:black;stroke-width:1;fill-opacity:1;stroke-opacity:0.3" />
<rect x="786" y="70" width="42" height="5" style="fill:#5d3c2d;stroke:black;stroke-width:1;fill-opacity:1;stroke-opacity:0.3" />
<line x1="775" y1="86" x2="777" y2="88" stroke="black" stroke-width="1" />
<line x1="777" y1="88" x2="779" y2="86" stroke="black" stroke-width="1" />
<rect x="631" y="84" width="10" height="5" style="fill:#5d3c2d;stroke:black;stroke-width:1;fill-opacity:1;stroke-opacity:0.3" />
<line x1="642" y1="86" x2="744" y2="86" stroke="pink" stroke-width="1" />
<rect x="744" y="84" width="31" height="5" style="fill:#5d3c2d;stroke:black;stroke-width:1;fill-opacity:1;stroke-opacity:0.3" />
<rect x="779" y="84" width="41" height="5" style="fill:#5d3c2d;stroke:black;stroke-width:1;fill-opacity:1;stroke-opacity:0.3" />
<line x1="796" y1="107" x2="802" y2="109" stroke="black" stroke-width="1" />
<line x1="802" y1="109" x2="808" y2="107" stroke="black" stroke-width="1" />
<rect x="631" y="105" width="10" height="5" style="fill:#5d3c2d;stroke:black;stroke-width:1;fill-opacity:1;stroke-opacity:0.3" />
<line x1="642" y1="107" x2="744" y2="107" stroke="pink" stroke-width="1" />
<rect x="744" y="105" width="52" height="5" style="fill:#5d3c2d;stroke:black;stroke-width:1;fill-opacity:1;stroke-opacity:0.3" />
<rect x="808" y="105" width="63" height="5" style="fill:#5d3c2d;stroke:black;stroke-width:1;fill-opacity:1;stroke-opacity:0.3" />
<line x1="799" y1="44" x2="801" y2="46" stroke="black" stroke-width="1" />
<line x1="801" y1="46" x2="804" y2="44" stroke="black" stroke-width="1" />
<rect x="634" y="42" width="8" height="5" style="fill:#5d3c2d;stroke:black;stroke-width:1;fill-opacity:1;stroke-opacity:0.3" />
<line x1="642" y1="44" x2="744" y2="44" stroke="pink" stroke-width="1" />
<rect x="744" y="42" width="55" height="5" style="fill:#5d3c2d;stroke:black;stroke-width:1;fill-opacity:1;stroke-opacity:0.3" />
<rect x="804" y="42" width="63" height="5" style="fill:#5d3c2d;stroke:black;stroke-width:1;fill-opacity:1;stroke-opacity:0.3" />
<line x1="780" y1="37" x2="783" y2="39" stroke="black" stroke-width="1" />
<line x1="783" y1="39" x2="786" y2="37" stroke="black" stroke-width="1" />
<rect x="636" y="35" width="5" height="5" style="fill:#5d3c2d;stroke:black;stroke-width:1;fill-opacity:1;stroke-opacity:0.3" />
<line x1="642" y1="37" x2="744" y2="37" stroke="pink" stroke-width="1" />
<rect x="744" y="35" width="36" height="5" style="fill:#5d3c2d;stroke:black;stroke-width:1;fill-opacity:1;stroke-opacity:0.3" />
<rect x="786" y="35" width="42" height="5" style="fill:#5d3c2d;stroke:black;stroke-width:1;fill-opacity:1;stroke-opacity:0.3" />
<line x1="705" y1="51" x2="724" y2="53" stroke="black" stroke-width="1" />
<line x1="724" y1="53" x2="744" y2="51" stroke="black" stroke-width="1" />
<rect x="663" y="49" width="42" height="5" style="fill:#f5b024;stroke:black;stroke-width:1;fill-opacity:1;stroke-opacity:0.3" />
<rect x="744" y="49" width="42" height="5" style="fill:#f5b024;stroke:black;stroke-width:1;fill-opacity:1;stroke-opacity:0.3" />
<line x1="817" y1="128" x2="827" y2="130" stroke="black" stroke-width="1" />
<line x1="827" y1="130" x2="838" y2="128" stroke="black" stroke-width="1" />
<rect x="754" y="126" width="62" height="5" style="fill:#5d3c2d;stroke:black;stroke-width:1;fill-opacity:1;stroke-opacity:0.3" />
<rect x="838" y="126" width="63" height="5" style="fill:#5d3c2d;stroke:black;stroke-width:1;fill-opacity:1;stroke-opacity:0.3" />
<line x1="811" y1="79" x2="821" y2="81" stroke="black" stroke-width="1" />
<line x1="821" y1="81" x2="832" y2="79" stroke="black" stroke-width="1" />
<rect x="755" y="77" width="56" height="5" style="fill:#5d3c2d;stroke:black;stroke-width:1;fill-opacity:1;stroke-opacity:0.3" />
<rect x="832" y="77" width="63" height="5" style="fill:#5d3c2d;stroke:black;stroke-width:1;fill-opacity:1;stroke-opacity:0.3" />
<line x1="834" y1="93" x2="838" y2="95" stroke="black" stroke-width="1" />
<line x1="838" y1="95" x2="842" y2="93" stroke="black" stroke-width="1" />
<rect x="770" y="91" width="63" height="5" style="fill:#5d3c2d;stroke:black;stroke-width:1;fill-opacity:1;stroke-opacity:0.3" />
<rect x="842" y="91" width="63" height="5" style="fill:#5d3c2d;stroke:black;stroke-width:1;fill-opacity:1;stroke-opacity:0.3" />
<line x1="828" y1="51" x2="832" y2="53" stroke="black" stroke-width="1" />
<line x1="832" y1="53" x2="837" y2="51" stroke="black" stroke-width="1" />
<rect x="786" y="49" width="42" height="5" style="fill:#5d3c2d;stroke:black;stroke-width:1;fill-opacity:1;stroke-opacity:0.3" />
<rect x="837" y="49" width="42" height="5" style="fill:#5d3c2d;stroke:black;stroke-width:1;fill-opacity:1;stroke-opacity:0.3" />
<line x1="850" y1="58" x2="854" y2="60" stroke="black" stroke-width="1" />
<line x1="854" y1="60" x2="858" y2="58" stroke="black" stroke-width="1" />
<rect x="808" y="56" width="42" height="5" style="fill:#5d3c2d;stroke:black;stroke-width:1;fill-opacity:1;stroke-opacity:0.3" />
<rect x="858" y="56" width="42" height="5" style="fill:#5d3c2d;stroke:black;stroke-width:1;fill-opacity:1;stroke-opacity:0.3" />
<line x1="863" y1="86" x2="867" y2="88" stroke="black" stroke-width="1" />
<line x1="867" y1="88" x2="872" y2="86" stroke="black" stroke-width="1" />
<rect x="821" y="84" width="42" height="5" style="fill:#5d3c2d;stroke:black;stroke-width:1;fill-opacity:1;stroke-opacity:0.3" />
<rect x="872" y="84" width="42" height="5" style="fill:#5d3c2d;stroke:black;stroke-width:1;fill-opacity:1;stroke-opacity:0.3" />
<line x1="886" y1="37" x2="890" y2="39" stroke="black" stroke-width="1" />
<line x1="890" y1="39" x2="894" y2="37" stroke="black" stroke-width="1" />
<rect x="828" y="35" width="58" height="5" style="fill:#5d3c2d;stroke:black;stroke-width:1;fill-opacity:1;stroke-opacity:0.3" />
<rect x="894" y="35" width="63" height="5" style="fill:#5d3c2d;stroke:black;stroke-width:1;fill-opacity:1;stroke-opacity:0.3" />
<line x1="870" y1="72" x2="874" y2="74" stroke="black" stroke-width="1" />
<line x1="874" y1="74" x2="878" y2="72" stroke="black" stroke-width="1" />
<rect x="828" y="70" width="42" height="5" style="fill:#5d3c2d;stroke:black;stroke-width:1;fill-opacity:1;stroke-opacity:0.3" />
<rect x="878" y="70" width="41" height="5" style="fill:#5d3c2d;stroke:black;stroke-width:1;fill-opacity:1;stroke-opacity:0.3" />
<line x1="882" y1="65" x2="890" y2="67" stroke="black" stroke-width="1" />
<line x1="890" y1="67" x2="898" y2="65" stroke="black" stroke-width="1" />
<rect x="840" y="63" width="42" height="5" style="fill:#5d3c2d;stroke:black;stroke-width:1;fill-opacity:1;stroke-opacity:0.3" />
<rect x="898" y="63" width="42" height="5" style="fill:#5d3c2d;stroke:black;stroke-width:1;fill-opacity:1;stroke-opacity:0.3" />
<line x1="883" y1="121" x2="889" y2="123" stroke="black" stroke-width="1" />
<line x1="889" y1="123" x2="896" y2="121" stroke="black" stroke-width="1" />
<rect x="841" y="119" width="42" height="5" style="fill:#5d3c2d;stroke:black;stroke-width:1;fill-opacity:1;stroke-opacity:0.3" />
<rect x="896" y="119" width="42" height="5" style="fill:#5d3c2d;stroke:black;stroke-width:1;fill-opacity:1;stroke-opacity:0.3" />
<line x1="883" y1="163" x2="890" y2="165" stroke="black" stroke-width="1" />
<line x1="890" y1="165" x2="898" y2="163" stroke="black" stroke-width="1" />
<rect x="841" y="161" width="41" height="5" style="fill:#5d3c2d;stroke:black;stroke-width:1;fill-opacity:1;stroke-opacity:0.3" />
<rect x="898" y="161" width="42" height="5" style="fill:#5d3c2d;stroke:black;stroke-width:1;fill-opacity:1;stroke-opacity:0.3" />
<line x1="885" y1="30" x2="893" y2="32" stroke="black" stroke-width="1" />
<line x1="893" y1="32" x2="901" y2="30" stroke="black" stroke-width="1" />
<rect x="843" y="28" width="42" height="5" style="fill:#5d3c2d;stroke:black;stroke-width:1;fill-opacity:1;stroke-opacity:0.3" />
<rect x="901" y="28" width="42" height="5" style="fill:#5d3c2d;stroke:black;stroke-width:1;fill-opacity:1;stroke-opacity:0.3" />
<line x1="885" y1="135" x2="888" y2="137" stroke="black" stroke-width="1" />
<line x1="888" y1="137" x2="892" y2="135" stroke="black" stroke-width="1" />
<rect x="843" y="133" width="42" height="5" style="fill:#5d3c2d;stroke:black;stroke-width:1;fill-opacity:1;stroke-opacity:0.3" />
<rect x="892" y="133" width="42" height="5" style="fill:#5d3c2d;stroke:black;stroke-width:1;fill-opacity:1;stroke-opacity:0.3" />
<line x1="888" y1="149" x2="901" y2="151" stroke="black" stroke-width="1" />
<line x1="901" y1="151" x2="915" y2="149" stroke="black" stroke-width="1" />
<rect x="846" y="147" width="42" height="5" style="fill:#5d3c2d;stroke:black;stroke-width:1;fill-opacity:1;stroke-opacity:0.3" />
<rect x="915" y="147" width="42" height="5" style="fill:#5d3c2d;stroke:black;stroke-width:1;fill-opacity:1;stroke-opacity:0.3" />
<line x1="890" y1="100" x2="897" y2="102" stroke="black" stroke-width="1" />
<line x1="897" y1="102" x2="905" y2="100" stroke="black" stroke-width="1" />
<rect x="848" y="98" width="42" height="5" style="fill:#5d3c2d;stroke:black;stroke-width:1;fill-opacity:1;stroke-opacity:0.3" />
<rect x="905" y="98" width="42" height="5" style="fill:#5d3c2d;stroke:black;stroke-width:1;fill-opacity:1;stroke-opacity:0.3" />
<line x1="890" y1="114" x2="902" y2="116" stroke="black" stroke-width="1" />
<line x1="902" y1="116" x2="915" y2="114" stroke="black" stroke-width="1" />
<rect x="848" y="112" width="42" height="5" style="fill:#5d3c2d;stroke:black;stroke-width:1;fill-opacity:1;stroke-opacity:0.3" />
<rect x="915" y="112" width="42" height="5" style="fill:#5d3c2d;stroke:black;stroke-width:1;fill-opacity:1;stroke-opacity:0.3" />
<line x1="890" y1="156" x2="894" y2="158" stroke="black" stroke-width="1" />
<line x1="894" y1="158" x2="898" y2="156" stroke="black" stroke-width="1" />
<rect x="848" y="154" width="42" height="5" style="fill:#5d3c2d;stroke:black;stroke-width:1;fill-opacity:1;stroke-opacity:0.3" />
<rect x="898" y="154" width="42" height="5" style="fill:#5d3c2d;stroke:black;stroke-width:1;fill-opacity:1;stroke-opacity:0.3" />
<line x1="901" y1="142" x2="906" y2="144" stroke="black" stroke-width="1" />
<line x1="906" y1="144" x2="912" y2="142" stroke="black" stroke-width="1" />
<rect x="859" y="140" width="42" height="5" style="fill:#5d3c2d;stroke:black;stroke-width:1;fill-opacity:1;stroke-opacity:0.3" />
<rect x="912" y="140" width="42" height="5" style="fill:#5d3c2d;stroke:black;stroke-width:1;fill-opacity:1;stroke-opacity:0.3" />
<line x1="909" y1="44" x2="912" y2="46" stroke="black" stroke-width="1" />
<line x1="912" y1="46" x2="915" y2="44" stroke="black" stroke-width="1" />
<rect x="867" y="42" width="42" height="5" style="fill:#5d3c2d;stroke:black;stroke-width:1;fill-opacity:1;stroke-opacity:0.3" />
<rect x="915" y="42" width="42" height="5" style="fill:#5d3c2d;stroke:black;stroke-width:1;fill-opacity:1;stroke-opacity:0.3" />
<text x="15"  y="176" style="font-family:Arial;font-size:10;stroke:black;fill:black;">all.merged.bam</text>
</svg>
    
