<?xml version="1.0" encoding="utf-8" standalone="no"?>
<!DOCTYPE svg PUBLIC "-//W3C//DTD SVG 1.1//EN"
  "http://www.w3.org/Graphics/SVG/1.1/DTD/svg11.dtd">
<svg height="1140" width="1000" version="1.1" viewBox="0 0 1000 1140" xmlns="http://www.w3.org/2000/svg" xmlns:xlink="http://www.w3.org/1999/xlink">
<line x1="30" y1="11" x2="969" y2="11" stroke="black" stroke-width="1" />
<rect x="30" y="9" width="9" height="5" style="fill:#f50002;stroke:black;stroke-width:1;fill-opacity:1;stroke-opacity:0.3" />
<rect x="39" y="9" width="477" height="5" style="fill:#53a1b5;stroke:black;stroke-width:1;fill-opacity:1;stroke-opacity:0.3" />
<rect x="552" y="9" width="33" height="5" style="fill:#53a1b5;stroke:black;stroke-width:1;fill-opacity:1;stroke-opacity:0.3" />
<rect x="620" y="9" width="36" height="5" style="fill:#53a1b5;stroke:black;stroke-width:1;fill-opacity:1;stroke-opacity:0.3" />
<rect x="657" y="9" width="312" height="5" style="fill:#f50002;stroke:black;stroke-width:1;fill-opacity:1;stroke-opacity:0.3" />
<text x="30"  y="23" style="font-family:Arial;font-size:10;stroke:black;fill:black;">Cre07.g344800.t1.2.v5.5 (+) chromosome_7:4689066-4692189</text>
<line x1="74" y1="30" x2="84" y2="32" stroke="black" stroke-width="1" />
<line x1="84" y1="32" x2="95" y2="30" stroke="black" stroke-width="1" />
<rect x="44" y="28" width="30" height="5" style="fill:#5d3c2d;stroke:black;stroke-width:1;fill-opacity:1;stroke-opacity:0.3" />
<rect x="95" y="28" width="30" height="5" style="fill:#5d3c2d;stroke:black;stroke-width:1;fill-opacity:1;stroke-opacity:0.3" />
<line x1="75" y1="37" x2="88" y2="39" stroke="black" stroke-width="1" />
<line x1="88" y1="39" x2="102" y2="37" stroke="black" stroke-width="1" />
<rect x="45" y="35" width="30" height="5" style="fill:#5d3c2d;stroke:black;stroke-width:1;fill-opacity:1;stroke-opacity:0.3" />
<rect x="102" y="35" width="30" height="5" style="fill:#5d3c2d;stroke:black;stroke-width:1;fill-opacity:1;stroke-opacity:0.3" />
<line x1="77" y1="44" x2="89" y2="46" stroke="black" stroke-width="1" />
<line x1="89" y1="46" x2="102" y2="44" stroke="black" stroke-width="1" />
<rect x="46" y="42" width="30" height="5" style="fill:#5d3c2d;stroke:black;stroke-width:1;fill-opacity:1;stroke-opacity:0.3" />
<rect x="102" y="42" width="30" height="5" style="fill:#5d3c2d;stroke:black;stroke-width:1;fill-opacity:1;stroke-opacity:0.3" />
<line x1="77" y1="51" x2="82" y2="53" stroke="black" stroke-width="1" />
<line x1="82" y1="53" x2="87" y2="51" stroke="black" stroke-width="1" />
<rect x="47" y="49" width="30" height="5" style="fill:#5d3c2d;stroke:black;stroke-width:1;fill-opacity:1;stroke-opacity:0.3" />
<rect x="87" y="49" width="27" height="5" style="fill:#5d3c2d;stroke:black;stroke-width:1;fill-opacity:1;stroke-opacity:0.3" />
<line x1="77" y1="58" x2="95" y2="60" stroke="black" stroke-width="1" />
<line x1="95" y1="60" x2="113" y2="58" stroke="black" stroke-width="1" />
<rect x="49" y="56" width="28" height="5" style="fill:#5d3c2d;stroke:black;stroke-width:1;fill-opacity:1;stroke-opacity:0.3" />
<rect x="113" y="56" width="30" height="5" style="fill:#5d3c2d;stroke:black;stroke-width:1;fill-opacity:1;stroke-opacity:0.3" />
<line x1="79" y1="65" x2="94" y2="67" stroke="black" stroke-width="1" />
<line x1="94" y1="67" x2="110" y2="65" stroke="black" stroke-width="1" />
<rect x="49" y="63" width="30" height="5" style="fill:#5d3c2d;stroke:black;stroke-width:1;fill-opacity:1;stroke-opacity:0.3" />
<rect x="110" y="63" width="30" height="5" style="fill:#5d3c2d;stroke:black;stroke-width:1;fill-opacity:1;stroke-opacity:0.3" />
<line x1="80" y1="72" x2="87" y2="74" stroke="black" stroke-width="1" />
<line x1="87" y1="74" x2="95" y2="72" stroke="black" stroke-width="1" />
<rect x="50" y="70" width="30" height="5" style="fill:#5d3c2d;stroke:black;stroke-width:1;fill-opacity:1;stroke-opacity:0.3" />
<rect x="95" y="70" width="30" height="5" style="fill:#5d3c2d;stroke:black;stroke-width:1;fill-opacity:1;stroke-opacity:0.3" />
<line x1="83" y1="79" x2="93" y2="81" stroke="black" stroke-width="1" />
<line x1="93" y1="81" x2="103" y2="79" stroke="black" stroke-width="1" />
<rect x="53" y="77" width="30" height="5" style="fill:#5d3c2d;stroke:black;stroke-width:1;fill-opacity:1;stroke-opacity:0.3" />
<rect x="103" y="77" width="30" height="5" style="fill:#5d3c2d;stroke:black;stroke-width:1;fill-opacity:1;stroke-opacity:0.3" />
<line x1="154" y1="86" x2="156" y2="88" stroke="black" stroke-width="1" />
<line x1="156" y1="88" x2="159" y2="86" stroke="black" stroke-width="1" />
<rect x="109" y="84" width="45" height="5" style="fill:#5d3c2d;stroke:black;stroke-width:1;fill-opacity:1;stroke-opacity:0.3" />
<rect x="159" y="84" width="45" height="5" style="fill:#5d3c2d;stroke:black;stroke-width:1;fill-opacity:1;stroke-opacity:0.3" />
<line x1="240" y1="30" x2="257" y2="32" stroke="black" stroke-width="1" />
<line x1="257" y1="32" x2="274" y2="30" stroke="black" stroke-width="1" />
<rect x="210" y="28" width="30" height="5" style="fill:#5d3c2d;stroke:black;stroke-width:1;fill-opacity:1;stroke-opacity:0.3" />
<rect x="274" y="28" width="30" height="5" style="fill:#5d3c2d;stroke:black;stroke-width:1;fill-opacity:1;stroke-opacity:0.3" />
<line x1="300" y1="37" x2="309" y2="39" stroke="black" stroke-width="1" />
<line x1="309" y1="39" x2="319" y2="37" stroke="black" stroke-width="1" />
<rect x="270" y="35" width="30" height="5" style="fill:#5d3c2d;stroke:black;stroke-width:1;fill-opacity:1;stroke-opacity:0.3" />
<rect x="319" y="35" width="30" height="5" style="fill:#5d3c2d;stroke:black;stroke-width:1;fill-opacity:1;stroke-opacity:0.3" />
<line x1="302" y1="44" x2="307" y2="46" stroke="black" stroke-width="1" />
<line x1="307" y1="46" x2="312" y2="44" stroke="black" stroke-width="1" />
<rect x="271" y="42" width="30" height="5" style="fill:#5d3c2d;stroke:black;stroke-width:1;fill-opacity:1;stroke-opacity:0.3" />
<rect x="312" y="42" width="30" height="5" style="fill:#5d3c2d;stroke:black;stroke-width:1;fill-opacity:1;stroke-opacity:0.3" />
<line x1="309" y1="51" x2="314" y2="53" stroke="black" stroke-width="1" />
<line x1="314" y1="53" x2="319" y2="51" stroke="black" stroke-width="1" />
<rect x="279" y="49" width="30" height="5" style="fill:#5d3c2d;stroke:black;stroke-width:1;fill-opacity:1;stroke-opacity:0.3" />
<rect x="319" y="49" width="30" height="5" style="fill:#5d3c2d;stroke:black;stroke-width:1;fill-opacity:1;stroke-opacity:0.3" />
<line x1="448" y1="30" x2="453" y2="32" stroke="black" stroke-width="1" />
<line x1="453" y1="32" x2="459" y2="30" stroke="black" stroke-width="1" />
<rect x="418" y="28" width="30" height="5" style="fill:#5d3c2d;stroke:black;stroke-width:1;fill-opacity:1;stroke-opacity:0.3" />
<rect x="459" y="28" width="30" height="5" style="fill:#5d3c2d;stroke:black;stroke-width:1;fill-opacity:1;stroke-opacity:0.3" />
<line x1="448" y1="37" x2="453" y2="39" stroke="black" stroke-width="1" />
<line x1="453" y1="39" x2="458" y2="37" stroke="black" stroke-width="1" />
<rect x="418" y="35" width="30" height="5" style="fill:#f5b024;stroke:black;stroke-width:1;fill-opacity:1;stroke-opacity:0.3" />
<rect x="458" y="35" width="30" height="5" style="fill:#f5b024;stroke:black;stroke-width:1;fill-opacity:1;stroke-opacity:0.3" />
<line x1="447" y1="44" x2="454" y2="46" stroke="black" stroke-width="1" />
<line x1="454" y1="46" x2="462" y2="44" stroke="black" stroke-width="1" />
<rect x="419" y="42" width="28" height="5" style="fill:#5d3c2d;stroke:black;stroke-width:1;fill-opacity:1;stroke-opacity:0.3" />
<rect x="462" y="42" width="30" height="5" style="fill:#5d3c2d;stroke:black;stroke-width:1;fill-opacity:1;stroke-opacity:0.3" />
<line x1="450" y1="51" x2="454" y2="53" stroke="black" stroke-width="1" />
<line x1="454" y1="53" x2="459" y2="51" stroke="black" stroke-width="1" />
<rect x="419" y="49" width="30" height="5" style="fill:#5d3c2d;stroke:black;stroke-width:1;fill-opacity:1;stroke-opacity:0.3" />
<rect x="459" y="49" width="29" height="5" style="fill:#5d3c2d;stroke:black;stroke-width:1;fill-opacity:1;stroke-opacity:0.3" />
<line x1="450" y1="58" x2="454" y2="60" stroke="black" stroke-width="1" />
<line x1="454" y1="60" x2="458" y2="58" stroke="black" stroke-width="1" />
<rect x="419" y="56" width="30" height="5" style="fill:#5d3c2d;stroke:black;stroke-width:1;fill-opacity:1;stroke-opacity:0.3" />
<rect x="458" y="56" width="28" height="5" style="fill:#5d3c2d;stroke:black;stroke-width:1;fill-opacity:1;stroke-opacity:0.3" />
<line x1="483" y1="65" x2="524" y2="67" stroke="black" stroke-width="1" />
<line x1="524" y1="67" x2="565" y2="65" stroke="black" stroke-width="1" />
<rect x="453" y="63" width="30" height="5" style="fill:#5d3c2d;stroke:black;stroke-width:1;fill-opacity:1;stroke-opacity:0.3" />
<rect x="565" y="63" width="20" height="5" style="fill:#5d3c2d;stroke:black;stroke-width:1;fill-opacity:1;stroke-opacity:0.3" />
<line x1="585" y1="65" x2="620" y2="65" stroke="pink" stroke-width="1" />
<rect x="620" y="63" width="9" height="5" style="fill:#5d3c2d;stroke:black;stroke-width:1;fill-opacity:1;stroke-opacity:0.3" />
<line x1="585" y1="30" x2="611" y2="32" stroke="black" stroke-width="1" />
<line x1="611" y1="32" x2="637" y2="30" stroke="black" stroke-width="1" />
<rect x="555" y="28" width="30" height="5" style="fill:#5d3c2d;stroke:black;stroke-width:1;fill-opacity:1;stroke-opacity:0.3" />
<rect x="637" y="28" width="30" height="5" style="fill:#5d3c2d;stroke:black;stroke-width:1;fill-opacity:1;stroke-opacity:0.3" />
<line x1="632" y1="37" x2="636" y2="39" stroke="black" stroke-width="1" />
<line x1="636" y1="39" x2="641" y2="37" stroke="black" stroke-width="1" />
<rect x="606" y="35" width="26" height="5" style="fill:#5d3c2d;stroke:black;stroke-width:1;fill-opacity:1;stroke-opacity:0.3" />
<rect x="641" y="35" width="24" height="5" style="fill:#5d3c2d;stroke:black;stroke-width:1;fill-opacity:1;stroke-opacity:0.3" />
<line x1="667" y1="44" x2="669" y2="46" stroke="black" stroke-width="1" />
<line x1="669" y1="46" x2="672" y2="44" stroke="black" stroke-width="1" />
<rect x="637" y="42" width="30" height="5" style="fill:#5d3c2d;stroke:black;stroke-width:1;fill-opacity:1;stroke-opacity:0.3" />
<rect x="672" y="42" width="30" height="5" style="fill:#5d3c2d;stroke:black;stroke-width:1;fill-opacity:1;stroke-opacity:0.3" />
<line x1="667" y1="51" x2="674" y2="53" stroke="black" stroke-width="1" />
<line x1="674" y1="53" x2="682" y2="51" stroke="black" stroke-width="1" />
<rect x="637" y="49" width="30" height="5" style="fill:#5d3c2d;stroke:black;stroke-width:1;fill-opacity:1;stroke-opacity:0.3" />
<rect x="682" y="49" width="30" height="5" style="fill:#5d3c2d;stroke:black;stroke-width:1;fill-opacity:1;stroke-opacity:0.3" />
<line x1="669" y1="58" x2="678" y2="60" stroke="black" stroke-width="1" />
<line x1="678" y1="60" x2="687" y2="58" stroke="black" stroke-width="1" />
<rect x="638" y="56" width="30" height="5" style="fill:#5d3c2d;stroke:black;stroke-width:1;fill-opacity:1;stroke-opacity:0.3" />
<rect x="687" y="56" width="30" height="5" style="fill:#5d3c2d;stroke:black;stroke-width:1;fill-opacity:1;stroke-opacity:0.3" />
<line x1="669" y1="65" x2="681" y2="67" stroke="black" stroke-width="1" />
<line x1="681" y1="67" x2="694" y2="65" stroke="black" stroke-width="1" />
<rect x="639" y="63" width="30" height="5" style="fill:#5d3c2d;stroke:black;stroke-width:1;fill-opacity:1;stroke-opacity:0.3" />
<rect x="694" y="63" width="30" height="5" style="fill:#5d3c2d;stroke:black;stroke-width:1;fill-opacity:1;stroke-opacity:0.3" />
<line x1="696" y1="72" x2="702" y2="74" stroke="black" stroke-width="1" />
<line x1="702" y1="74" x2="709" y2="72" stroke="black" stroke-width="1" />
<rect x="666" y="70" width="30" height="5" style="fill:#f5b024;stroke:black;stroke-width:1;fill-opacity:1;stroke-opacity:0.3" />
<rect x="709" y="70" width="30" height="5" style="fill:#f5b024;stroke:black;stroke-width:1;fill-opacity:1;stroke-opacity:0.3" />
<line x1="787" y1="30" x2="793" y2="32" stroke="black" stroke-width="1" />
<line x1="793" y1="32" x2="799" y2="30" stroke="black" stroke-width="1" />
<rect x="757" y="28" width="30" height="5" style="fill:#5d3c2d;stroke:black;stroke-width:1;fill-opacity:1;stroke-opacity:0.3" />
<rect x="799" y="28" width="30" height="5" style="fill:#5d3c2d;stroke:black;stroke-width:1;fill-opacity:1;stroke-opacity:0.3" />
<text x="15"  y="176" style="font-family:Arial;font-size:10;stroke:black;fill:black;">all.merged.bam</text>
</svg>
    
