<?xml version="1.0" encoding="utf-8" standalone="no"?>
<!DOCTYPE svg PUBLIC "-//W3C//DTD SVG 1.1//EN"
  "http://www.w3.org/Graphics/SVG/1.1/DTD/svg11.dtd">
<svg height="1140" width="1000" version="1.1" viewBox="0 0 1000 1140" xmlns="http://www.w3.org/2000/svg" xmlns:xlink="http://www.w3.org/1999/xlink">
<line x1="50" y1="11" x2="949" y2="11" stroke="black" stroke-width="1" />
<rect x="50" y="9" width="167" height="5" style="fill:#f50002;stroke:black;stroke-width:1;fill-opacity:1;stroke-opacity:0.3" />
<rect x="217" y="9" width="81" height="5" style="fill:#53a1b5;stroke:black;stroke-width:1;fill-opacity:1;stroke-opacity:0.3" />
<rect x="370" y="9" width="39" height="5" style="fill:#53a1b5;stroke:black;stroke-width:1;fill-opacity:1;stroke-opacity:0.3" />
<rect x="410" y="9" width="538" height="5" style="fill:#f50002;stroke:black;stroke-width:1;fill-opacity:1;stroke-opacity:0.3" />
<text x="50"  y="23" style="font-family:Arial;font-size:10;stroke:black;fill:black;">Cre04.g222850.t1.2.v5.5 (+) chromosome_4:2624333-2626123</text>
<line x1="127" y1="30" x2="132" y2="32" stroke="black" stroke-width="1" />
<line x1="132" y1="32" x2="138" y2="30" stroke="black" stroke-width="1" />
<rect x="77" y="28" width="50" height="5" style="fill:#5d3c2d;stroke:black;stroke-width:1;fill-opacity:1;stroke-opacity:0.3" />
<rect x="138" y="28" width="50" height="5" style="fill:#5d3c2d;stroke:black;stroke-width:1;fill-opacity:1;stroke-opacity:0.3" />
<line x1="133" y1="37" x2="139" y2="39" stroke="black" stroke-width="1" />
<line x1="139" y1="39" x2="146" y2="37" stroke="black" stroke-width="1" />
<rect x="82" y="35" width="50" height="5" style="fill:#5d3c2d;stroke:black;stroke-width:1;fill-opacity:1;stroke-opacity:0.3" />
<rect x="146" y="35" width="48" height="5" style="fill:#5d3c2d;stroke:black;stroke-width:1;fill-opacity:1;stroke-opacity:0.3" />
<line x1="184" y1="44" x2="188" y2="46" stroke="black" stroke-width="1" />
<line x1="188" y1="46" x2="192" y2="44" stroke="black" stroke-width="1" />
<rect x="113" y="42" width="71" height="5" style="fill:#5d3c2d;stroke:black;stroke-width:1;fill-opacity:1;stroke-opacity:0.3" />
<rect x="192" y="42" width="2" height="5" style="fill:#5d3c2d;stroke:black;stroke-width:1;fill-opacity:1;stroke-opacity:0.3" />
<line x1="194" y1="44" x2="239" y2="44" stroke="pink" stroke-width="1" />
<rect x="239" y="42" width="60" height="5" style="fill:#5d3c2d;stroke:black;stroke-width:1;fill-opacity:1;stroke-opacity:0.3" />
<line x1="299" y1="44" x2="370" y2="44" stroke="pink" stroke-width="1" />
<rect x="370" y="42" width="12" height="5" style="fill:#5d3c2d;stroke:black;stroke-width:1;fill-opacity:1;stroke-opacity:0.3" />
<line x1="174" y1="51" x2="183" y2="53" stroke="black" stroke-width="1" />
<line x1="183" y1="53" x2="192" y2="51" stroke="black" stroke-width="1" />
<rect x="124" y="49" width="50" height="5" style="fill:#5d3c2d;stroke:black;stroke-width:1;fill-opacity:1;stroke-opacity:0.3" />
<rect x="192" y="49" width="2" height="5" style="fill:#5d3c2d;stroke:black;stroke-width:1;fill-opacity:1;stroke-opacity:0.3" />
<line x1="194" y1="51" x2="239" y2="51" stroke="pink" stroke-width="1" />
<rect x="239" y="49" width="47" height="5" style="fill:#5d3c2d;stroke:black;stroke-width:1;fill-opacity:1;stroke-opacity:0.3" />
<line x1="183" y1="58" x2="194" y2="60" stroke="black" stroke-width="1" />
<line x1="194" y1="60" x2="205" y2="58" stroke="black" stroke-width="1" />
<rect x="133" y="56" width="50" height="5" style="fill:#5d3c2d;stroke:black;stroke-width:1;fill-opacity:1;stroke-opacity:0.3" />
<rect x="205" y="56" width="50" height="5" style="fill:#5d3c2d;stroke:black;stroke-width:1;fill-opacity:1;stroke-opacity:0.3" />
<line x1="185" y1="65" x2="192" y2="67" stroke="black" stroke-width="1" />
<line x1="192" y1="67" x2="199" y2="65" stroke="black" stroke-width="1" />
<rect x="135" y="63" width="50" height="5" style="fill:#5d3c2d;stroke:black;stroke-width:1;fill-opacity:1;stroke-opacity:0.3" />
<rect x="199" y="63" width="50" height="5" style="fill:#5d3c2d;stroke:black;stroke-width:1;fill-opacity:1;stroke-opacity:0.3" />
<line x1="214" y1="72" x2="223" y2="74" stroke="black" stroke-width="1" />
<line x1="223" y1="74" x2="233" y2="72" stroke="black" stroke-width="1" />
<rect x="140" y="70" width="74" height="5" style="fill:#5d3c2d;stroke:black;stroke-width:1;fill-opacity:1;stroke-opacity:0.3" />
<rect x="233" y="70" width="66" height="5" style="fill:#5d3c2d;stroke:black;stroke-width:1;fill-opacity:1;stroke-opacity:0.3" />
<line x1="299" y1="72" x2="370" y2="72" stroke="pink" stroke-width="1" />
<rect x="370" y="70" width="8" height="5" style="fill:#5d3c2d;stroke:black;stroke-width:1;fill-opacity:1;stroke-opacity:0.3" />
<line x1="246" y1="79" x2="253" y2="81" stroke="black" stroke-width="1" />
<line x1="253" y1="81" x2="260" y2="79" stroke="black" stroke-width="1" />
<rect x="151" y="77" width="43" height="5" style="fill:#5d3c2d;stroke:black;stroke-width:1;fill-opacity:1;stroke-opacity:0.3" />
<line x1="194" y1="79" x2="239" y2="79" stroke="pink" stroke-width="1" />
<rect x="239" y="77" width="7" height="5" style="fill:#5d3c2d;stroke:black;stroke-width:1;fill-opacity:1;stroke-opacity:0.3" />
<rect x="260" y="77" width="39" height="5" style="fill:#5d3c2d;stroke:black;stroke-width:1;fill-opacity:1;stroke-opacity:0.3" />
<line x1="299" y1="79" x2="370" y2="79" stroke="pink" stroke-width="1" />
<rect x="370" y="77" width="11" height="5" style="fill:#5d3c2d;stroke:black;stroke-width:1;fill-opacity:1;stroke-opacity:0.3" />
<line x1="208" y1="86" x2="215" y2="88" stroke="black" stroke-width="1" />
<line x1="215" y1="88" x2="222" y2="86" stroke="black" stroke-width="1" />
<rect x="158" y="84" width="50" height="5" style="fill:#f5b024;stroke:black;stroke-width:1;fill-opacity:1;stroke-opacity:0.3" />
<rect x="222" y="84" width="50" height="5" style="fill:#f5b024;stroke:black;stroke-width:1;fill-opacity:1;stroke-opacity:0.3" />
<line x1="211" y1="93" x2="220" y2="95" stroke="black" stroke-width="1" />
<line x1="220" y1="95" x2="230" y2="93" stroke="black" stroke-width="1" />
<rect x="161" y="91" width="50" height="5" style="fill:#5d3c2d;stroke:black;stroke-width:1;fill-opacity:1;stroke-opacity:0.3" />
<rect x="230" y="91" width="50" height="5" style="fill:#5d3c2d;stroke:black;stroke-width:1;fill-opacity:1;stroke-opacity:0.3" />
<line x1="211" y1="100" x2="225" y2="102" stroke="black" stroke-width="1" />
<line x1="225" y1="102" x2="240" y2="100" stroke="black" stroke-width="1" />
<rect x="161" y="98" width="50" height="5" style="fill:#5d3c2d;stroke:black;stroke-width:1;fill-opacity:1;stroke-opacity:0.3" />
<rect x="240" y="98" width="50" height="5" style="fill:#5d3c2d;stroke:black;stroke-width:1;fill-opacity:1;stroke-opacity:0.3" />
<line x1="212" y1="107" x2="224" y2="109" stroke="black" stroke-width="1" />
<line x1="224" y1="109" x2="237" y2="107" stroke="black" stroke-width="1" />
<rect x="162" y="105" width="50" height="5" style="fill:#5d3c2d;stroke:black;stroke-width:1;fill-opacity:1;stroke-opacity:0.3" />
<rect x="237" y="105" width="50" height="5" style="fill:#5d3c2d;stroke:black;stroke-width:1;fill-opacity:1;stroke-opacity:0.3" />
<line x1="245" y1="114" x2="249" y2="116" stroke="black" stroke-width="1" />
<line x1="249" y1="116" x2="253" y2="114" stroke="black" stroke-width="1" />
<rect x="169" y="112" width="75" height="5" style="fill:#5d3c2d;stroke:black;stroke-width:1;fill-opacity:1;stroke-opacity:0.3" />
<rect x="253" y="112" width="46" height="5" style="fill:#5d3c2d;stroke:black;stroke-width:1;fill-opacity:1;stroke-opacity:0.3" />
<line x1="299" y1="114" x2="370" y2="114" stroke="pink" stroke-width="1" />
<rect x="370" y="112" width="29" height="5" style="fill:#5d3c2d;stroke:black;stroke-width:1;fill-opacity:1;stroke-opacity:0.3" />
<line x1="224" y1="121" x2="249" y2="123" stroke="black" stroke-width="1" />
<line x1="249" y1="123" x2="275" y2="121" stroke="black" stroke-width="1" />
<rect x="174" y="119" width="50" height="5" style="fill:#5d3c2d;stroke:black;stroke-width:1;fill-opacity:1;stroke-opacity:0.3" />
<rect x="275" y="119" width="24" height="5" style="fill:#5d3c2d;stroke:black;stroke-width:1;fill-opacity:1;stroke-opacity:0.3" />
<line x1="299" y1="121" x2="370" y2="121" stroke="pink" stroke-width="1" />
<rect x="370" y="119" width="26" height="5" style="fill:#5d3c2d;stroke:black;stroke-width:1;fill-opacity:1;stroke-opacity:0.3" />
<line x1="251" y1="128" x2="263" y2="130" stroke="black" stroke-width="1" />
<line x1="263" y1="130" x2="275" y2="128" stroke="black" stroke-width="1" />
<rect x="176" y="126" width="75" height="5" style="fill:#5d3c2d;stroke:black;stroke-width:1;fill-opacity:1;stroke-opacity:0.3" />
<rect x="275" y="126" width="75" height="5" style="fill:#5d3c2d;stroke:black;stroke-width:1;fill-opacity:1;stroke-opacity:0.3" />
<line x1="230" y1="135" x2="233" y2="137" stroke="black" stroke-width="1" />
<line x1="233" y1="137" x2="237" y2="135" stroke="black" stroke-width="1" />
<rect x="179" y="133" width="50" height="5" style="fill:#5d3c2d;stroke:black;stroke-width:1;fill-opacity:1;stroke-opacity:0.3" />
<rect x="237" y="133" width="50" height="5" style="fill:#5d3c2d;stroke:black;stroke-width:1;fill-opacity:1;stroke-opacity:0.3" />
<line x1="256" y1="142" x2="264" y2="144" stroke="black" stroke-width="1" />
<line x1="264" y1="144" x2="273" y2="142" stroke="black" stroke-width="1" />
<rect x="180" y="140" width="75" height="5" style="fill:#5d3c2d;stroke:black;stroke-width:1;fill-opacity:1;stroke-opacity:0.3" />
<rect x="273" y="140" width="26" height="5" style="fill:#5d3c2d;stroke:black;stroke-width:1;fill-opacity:1;stroke-opacity:0.3" />
<line x1="299" y1="142" x2="370" y2="142" stroke="pink" stroke-width="1" />
<rect x="370" y="140" width="48" height="5" style="fill:#5d3c2d;stroke:black;stroke-width:1;fill-opacity:1;stroke-opacity:0.3" />
<line x1="237" y1="149" x2="259" y2="151" stroke="black" stroke-width="1" />
<line x1="259" y1="151" x2="281" y2="149" stroke="black" stroke-width="1" />
<rect x="186" y="147" width="50" height="5" style="fill:#5d3c2d;stroke:black;stroke-width:1;fill-opacity:1;stroke-opacity:0.3" />
<rect x="281" y="147" width="18" height="5" style="fill:#5d3c2d;stroke:black;stroke-width:1;fill-opacity:1;stroke-opacity:0.3" />
<line x1="299" y1="149" x2="370" y2="149" stroke="pink" stroke-width="1" />
<rect x="370" y="147" width="31" height="5" style="fill:#5d3c2d;stroke:black;stroke-width:1;fill-opacity:1;stroke-opacity:0.3" />
<line x1="237" y1="156" x2="258" y2="158" stroke="black" stroke-width="1" />
<line x1="258" y1="158" x2="279" y2="156" stroke="black" stroke-width="1" />
<rect x="186" y="154" width="50" height="5" style="fill:#5d3c2d;stroke:black;stroke-width:1;fill-opacity:1;stroke-opacity:0.3" />
<rect x="279" y="154" width="20" height="5" style="fill:#5d3c2d;stroke:black;stroke-width:1;fill-opacity:1;stroke-opacity:0.3" />
<line x1="299" y1="156" x2="370" y2="156" stroke="pink" stroke-width="1" />
<rect x="370" y="154" width="29" height="5" style="fill:#5d3c2d;stroke:black;stroke-width:1;fill-opacity:1;stroke-opacity:0.3" />
<line x1="238" y1="163" x2="250" y2="165" stroke="black" stroke-width="1" />
<line x1="250" y1="165" x2="262" y2="163" stroke="black" stroke-width="1" />
<rect x="188" y="161" width="50" height="5" style="fill:#5d3c2d;stroke:black;stroke-width:1;fill-opacity:1;stroke-opacity:0.3" />
<rect x="262" y="161" width="37" height="5" style="fill:#5d3c2d;stroke:black;stroke-width:1;fill-opacity:1;stroke-opacity:0.3" />
<line x1="299" y1="163" x2="370" y2="163" stroke="pink" stroke-width="1" />
<rect x="370" y="161" width="12" height="5" style="fill:#5d3c2d;stroke:black;stroke-width:1;fill-opacity:1;stroke-opacity:0.3" />
<line x1="259" y1="30" x2="265" y2="32" stroke="black" stroke-width="1" />
<line x1="265" y1="32" x2="272" y2="30" stroke="black" stroke-width="1" />
<rect x="190" y="28" width="68" height="5" style="fill:#5d3c2d;stroke:black;stroke-width:1;fill-opacity:1;stroke-opacity:0.3" />
<rect x="272" y="28" width="27" height="5" style="fill:#5d3c2d;stroke:black;stroke-width:1;fill-opacity:1;stroke-opacity:0.3" />
<line x1="299" y1="30" x2="370" y2="30" stroke="pink" stroke-width="1" />
<rect x="370" y="28" width="48" height="5" style="fill:#5d3c2d;stroke:black;stroke-width:1;fill-opacity:1;stroke-opacity:0.3" />
<line x1="247" y1="37" x2="309" y2="39" stroke="black" stroke-width="1" />
<line x1="309" y1="39" x2="372" y2="37" stroke="black" stroke-width="1" />
<rect x="197" y="35" width="50" height="5" style="fill:#5d3c2d;stroke:black;stroke-width:1;fill-opacity:1;stroke-opacity:0.3" />
<rect x="372" y="35" width="50" height="5" style="fill:#5d3c2d;stroke:black;stroke-width:1;fill-opacity:1;stroke-opacity:0.3" />
<line x1="370" y1="65" x2="374" y2="67" stroke="black" stroke-width="1" />
<line x1="374" y1="67" x2="379" y2="65" stroke="black" stroke-width="1" />
<rect x="250" y="63" width="49" height="5" style="fill:#5d3c2d;stroke:black;stroke-width:1;fill-opacity:1;stroke-opacity:0.3" />
<line x1="299" y1="65" x2="370" y2="65" stroke="pink" stroke-width="1" />
<rect x="370" y="63" width="0" height="5" style="fill:#5d3c2d;stroke:black;stroke-width:1;fill-opacity:1;stroke-opacity:0.3" />
<rect x="379" y="63" width="50" height="5" style="fill:#5d3c2d;stroke:black;stroke-width:1;fill-opacity:1;stroke-opacity:0.3" />
<line x1="376" y1="58" x2="383" y2="60" stroke="black" stroke-width="1" />
<line x1="383" y1="60" x2="391" y2="58" stroke="black" stroke-width="1" />
<rect x="256" y="56" width="43" height="5" style="fill:#5d3c2d;stroke:black;stroke-width:1;fill-opacity:1;stroke-opacity:0.3" />
<line x1="299" y1="58" x2="370" y2="58" stroke="pink" stroke-width="1" />
<rect x="370" y="56" width="6" height="5" style="fill:#5d3c2d;stroke:black;stroke-width:1;fill-opacity:1;stroke-opacity:0.3" />
<rect x="391" y="56" width="50" height="5" style="fill:#5d3c2d;stroke:black;stroke-width:1;fill-opacity:1;stroke-opacity:0.3" />
<line x1="424" y1="86" x2="431" y2="88" stroke="black" stroke-width="1" />
<line x1="431" y1="88" x2="438" y2="86" stroke="black" stroke-width="1" />
<rect x="279" y="84" width="20" height="5" style="fill:#5d3c2d;stroke:black;stroke-width:1;fill-opacity:1;stroke-opacity:0.3" />
<line x1="299" y1="86" x2="370" y2="86" stroke="pink" stroke-width="1" />
<rect x="370" y="84" width="54" height="5" style="fill:#5d3c2d;stroke:black;stroke-width:1;fill-opacity:1;stroke-opacity:0.3" />
<rect x="438" y="84" width="75" height="5" style="fill:#5d3c2d;stroke:black;stroke-width:1;fill-opacity:1;stroke-opacity:0.3" />
<line x1="427" y1="93" x2="431" y2="95" stroke="black" stroke-width="1" />
<line x1="431" y1="95" x2="435" y2="93" stroke="black" stroke-width="1" />
<rect x="281" y="91" width="18" height="5" style="fill:#5d3c2d;stroke:black;stroke-width:1;fill-opacity:1;stroke-opacity:0.3" />
<line x1="299" y1="93" x2="370" y2="93" stroke="pink" stroke-width="1" />
<rect x="370" y="91" width="57" height="5" style="fill:#5d3c2d;stroke:black;stroke-width:1;fill-opacity:1;stroke-opacity:0.3" />
<rect x="435" y="91" width="75" height="5" style="fill:#5d3c2d;stroke:black;stroke-width:1;fill-opacity:1;stroke-opacity:0.3" />
<line x1="412" y1="51" x2="425" y2="53" stroke="black" stroke-width="1" />
<line x1="425" y1="53" x2="439" y2="51" stroke="black" stroke-width="1" />
<rect x="291" y="49" width="8" height="5" style="fill:#5d3c2d;stroke:black;stroke-width:1;fill-opacity:1;stroke-opacity:0.3" />
<line x1="299" y1="51" x2="370" y2="51" stroke="pink" stroke-width="1" />
<rect x="370" y="49" width="42" height="5" style="fill:#5d3c2d;stroke:black;stroke-width:1;fill-opacity:1;stroke-opacity:0.3" />
<rect x="439" y="49" width="50" height="5" style="fill:#5d3c2d;stroke:black;stroke-width:1;fill-opacity:1;stroke-opacity:0.3" />
<line x1="442" y1="100" x2="461" y2="102" stroke="black" stroke-width="1" />
<line x1="461" y1="102" x2="480" y2="100" stroke="black" stroke-width="1" />
<rect x="297" y="98" width="2" height="5" style="fill:#5d3c2d;stroke:black;stroke-width:1;fill-opacity:1;stroke-opacity:0.3" />
<line x1="299" y1="100" x2="370" y2="100" stroke="pink" stroke-width="1" />
<rect x="370" y="98" width="72" height="5" style="fill:#5d3c2d;stroke:black;stroke-width:1;fill-opacity:1;stroke-opacity:0.3" />
<rect x="480" y="98" width="75" height="5" style="fill:#5d3c2d;stroke:black;stroke-width:1;fill-opacity:1;stroke-opacity:0.3" />
<line x1="442" y1="107" x2="463" y2="109" stroke="black" stroke-width="1" />
<line x1="463" y1="109" x2="484" y2="107" stroke="black" stroke-width="1" />
<rect x="298" y="105" width="1" height="5" style="fill:#5d3c2d;stroke:black;stroke-width:1;fill-opacity:1;stroke-opacity:0.3" />
<line x1="299" y1="107" x2="370" y2="107" stroke="pink" stroke-width="1" />
<rect x="370" y="105" width="72" height="5" style="fill:#5d3c2d;stroke:black;stroke-width:1;fill-opacity:1;stroke-opacity:0.3" />
<rect x="484" y="105" width="69" height="5" style="fill:#5d3c2d;stroke:black;stroke-width:1;fill-opacity:1;stroke-opacity:0.3" />
<line x1="440" y1="135" x2="459" y2="137" stroke="black" stroke-width="1" />
<line x1="459" y1="137" x2="479" y2="135" stroke="black" stroke-width="1" />
<rect x="299" y="133" width="0" height="5" style="fill:#5d3c2d;stroke:black;stroke-width:1;fill-opacity:1;stroke-opacity:0.3" />
<line x1="299" y1="135" x2="370" y2="135" stroke="pink" stroke-width="1" />
<rect x="370" y="133" width="28" height="5" style="fill:#5d3c2d;stroke:black;stroke-width:1;fill-opacity:1;stroke-opacity:0.3" />
<rect x="398" y="133" width="42" height="5" style="fill:#5d3c2d;stroke:black;stroke-width:1;fill-opacity:1;stroke-opacity:0.3" />
<rect x="479" y="133" width="75" height="5" style="fill:#5d3c2d;stroke:black;stroke-width:1;fill-opacity:1;stroke-opacity:0.3" />
<line x1="445" y1="128" x2="448" y2="130" stroke="black" stroke-width="1" />
<line x1="448" y1="130" x2="451" y2="128" stroke="black" stroke-width="1" />
<rect x="370" y="126" width="74" height="5" style="fill:#5d3c2d;stroke:black;stroke-width:1;fill-opacity:1;stroke-opacity:0.3" />
<rect x="451" y="126" width="75" height="5" style="fill:#5d3c2d;stroke:black;stroke-width:1;fill-opacity:1;stroke-opacity:0.3" />
<line x1="430" y1="72" x2="441" y2="74" stroke="black" stroke-width="1" />
<line x1="441" y1="74" x2="452" y2="72" stroke="black" stroke-width="1" />
<rect x="380" y="70" width="50" height="5" style="fill:#5d3c2d;stroke:black;stroke-width:1;fill-opacity:1;stroke-opacity:0.3" />
<rect x="452" y="70" width="50" height="5" style="fill:#5d3c2d;stroke:black;stroke-width:1;fill-opacity:1;stroke-opacity:0.3" />
<line x1="431" y1="79" x2="442" y2="81" stroke="black" stroke-width="1" />
<line x1="442" y1="81" x2="454" y2="79" stroke="black" stroke-width="1" />
<rect x="381" y="77" width="50" height="5" style="fill:#5d3c2d;stroke:black;stroke-width:1;fill-opacity:1;stroke-opacity:0.3" />
<rect x="454" y="77" width="50" height="5" style="fill:#5d3c2d;stroke:black;stroke-width:1;fill-opacity:1;stroke-opacity:0.3" />
<line x1="459" y1="44" x2="469" y2="46" stroke="black" stroke-width="1" />
<line x1="469" y1="46" x2="479" y2="44" stroke="black" stroke-width="1" />
<rect x="383" y="42" width="75" height="5" style="fill:#5d3c2d;stroke:black;stroke-width:1;fill-opacity:1;stroke-opacity:0.3" />
<rect x="479" y="42" width="75" height="5" style="fill:#5d3c2d;stroke:black;stroke-width:1;fill-opacity:1;stroke-opacity:0.3" />
<line x1="436" y1="163" x2="446" y2="165" stroke="black" stroke-width="1" />
<line x1="446" y1="165" x2="456" y2="163" stroke="black" stroke-width="1" />
<rect x="386" y="161" width="50" height="5" style="fill:#5d3c2d;stroke:black;stroke-width:1;fill-opacity:1;stroke-opacity:0.3" />
<rect x="456" y="161" width="47" height="5" style="fill:#5d3c2d;stroke:black;stroke-width:1;fill-opacity:1;stroke-opacity:0.3" />
<line x1="446" y1="121" x2="450" y2="123" stroke="black" stroke-width="1" />
<line x1="450" y1="123" x2="454" y2="121" stroke="black" stroke-width="1" />
<rect x="396" y="119" width="50" height="5" style="fill:#5d3c2d;stroke:black;stroke-width:1;fill-opacity:1;stroke-opacity:0.3" />
<rect x="454" y="119" width="50" height="5" style="fill:#5d3c2d;stroke:black;stroke-width:1;fill-opacity:1;stroke-opacity:0.3" />
<line x1="450" y1="114" x2="472" y2="116" stroke="black" stroke-width="1" />
<line x1="472" y1="116" x2="494" y2="114" stroke="black" stroke-width="1" />
<rect x="400" y="112" width="50" height="5" style="fill:#5d3c2d;stroke:black;stroke-width:1;fill-opacity:1;stroke-opacity:0.3" />
<rect x="494" y="112" width="50" height="5" style="fill:#5d3c2d;stroke:black;stroke-width:1;fill-opacity:1;stroke-opacity:0.3" />
<line x1="452" y1="149" x2="461" y2="151" stroke="black" stroke-width="1" />
<line x1="461" y1="151" x2="470" y2="149" stroke="black" stroke-width="1" />
<rect x="402" y="147" width="50" height="5" style="fill:#5d3c2d;stroke:black;stroke-width:1;fill-opacity:1;stroke-opacity:0.3" />
<rect x="470" y="147" width="50" height="5" style="fill:#5d3c2d;stroke:black;stroke-width:1;fill-opacity:1;stroke-opacity:0.3" />
<line x1="452" y1="156" x2="471" y2="158" stroke="black" stroke-width="1" />
<line x1="471" y1="158" x2="490" y2="156" stroke="black" stroke-width="1" />
<rect x="402" y="154" width="50" height="5" style="fill:#5d3c2d;stroke:black;stroke-width:1;fill-opacity:1;stroke-opacity:0.3" />
<rect x="490" y="154" width="49" height="5" style="fill:#5d3c2d;stroke:black;stroke-width:1;fill-opacity:1;stroke-opacity:0.3" />
<line x1="469" y1="30" x2="480" y2="32" stroke="black" stroke-width="1" />
<line x1="480" y1="32" x2="491" y2="30" stroke="black" stroke-width="1" />
<rect x="418" y="28" width="50" height="5" style="fill:#5d3c2d;stroke:black;stroke-width:1;fill-opacity:1;stroke-opacity:0.3" />
<rect x="491" y="28" width="49" height="5" style="fill:#5d3c2d;stroke:black;stroke-width:1;fill-opacity:1;stroke-opacity:0.3" />
<line x1="469" y1="142" x2="471" y2="144" stroke="black" stroke-width="1" />
<line x1="471" y1="144" x2="474" y2="142" stroke="black" stroke-width="1" />
<rect x="419" y="140" width="50" height="5" style="fill:#5d3c2d;stroke:black;stroke-width:1;fill-opacity:1;stroke-opacity:0.3" />
<rect x="474" y="140" width="50" height="5" style="fill:#5d3c2d;stroke:black;stroke-width:1;fill-opacity:1;stroke-opacity:0.3" />
<line x1="463" y1="37" x2="467" y2="39" stroke="black" stroke-width="1" />
<line x1="467" y1="39" x2="471" y2="37" stroke="black" stroke-width="1" />
<rect x="422" y="35" width="41" height="5" style="fill:#5d3c2d;stroke:black;stroke-width:1;fill-opacity:1;stroke-opacity:0.3" />
<rect x="471" y="35" width="49" height="5" style="fill:#5d3c2d;stroke:black;stroke-width:1;fill-opacity:1;stroke-opacity:0.3" />
<line x1="480" y1="65" x2="491" y2="67" stroke="black" stroke-width="1" />
<line x1="491" y1="67" x2="503" y2="65" stroke="black" stroke-width="1" />
<rect x="429" y="63" width="50" height="5" style="fill:#5d3c2d;stroke:black;stroke-width:1;fill-opacity:1;stroke-opacity:0.3" />
<rect x="503" y="63" width="50" height="5" style="fill:#5d3c2d;stroke:black;stroke-width:1;fill-opacity:1;stroke-opacity:0.3" />
<line x1="497" y1="58" x2="499" y2="60" stroke="black" stroke-width="1" />
<line x1="499" y1="60" x2="502" y2="58" stroke="black" stroke-width="1" />
<rect x="447" y="56" width="50" height="5" style="fill:#5d3c2d;stroke:black;stroke-width:1;fill-opacity:1;stroke-opacity:0.3" />
<rect x="502" y="56" width="49" height="5" style="fill:#5d3c2d;stroke:black;stroke-width:1;fill-opacity:1;stroke-opacity:0.3" />
<line x1="547" y1="51" x2="555" y2="53" stroke="black" stroke-width="1" />
<line x1="555" y1="53" x2="563" y2="51" stroke="black" stroke-width="1" />
<rect x="497" y="49" width="50" height="5" style="fill:#5d3c2d;stroke:black;stroke-width:1;fill-opacity:1;stroke-opacity:0.3" />
<rect x="563" y="49" width="50" height="5" style="fill:#5d3c2d;stroke:black;stroke-width:1;fill-opacity:1;stroke-opacity:0.3" />
<line x1="581" y1="72" x2="584" y2="74" stroke="black" stroke-width="1" />
<line x1="584" y1="74" x2="587" y2="72" stroke="black" stroke-width="1" />
<rect x="506" y="70" width="75" height="5" style="fill:#5d3c2d;stroke:black;stroke-width:1;fill-opacity:1;stroke-opacity:0.3" />
<rect x="587" y="70" width="75" height="5" style="fill:#5d3c2d;stroke:black;stroke-width:1;fill-opacity:1;stroke-opacity:0.3" />
<line x1="587" y1="79" x2="592" y2="81" stroke="black" stroke-width="1" />
<line x1="592" y1="81" x2="598" y2="79" stroke="black" stroke-width="1" />
<rect x="511" y="77" width="75" height="5" style="fill:#5d3c2d;stroke:black;stroke-width:1;fill-opacity:1;stroke-opacity:0.3" />
<rect x="598" y="77" width="75" height="5" style="fill:#5d3c2d;stroke:black;stroke-width:1;fill-opacity:1;stroke-opacity:0.3" />
<line x1="560" y1="93" x2="566" y2="95" stroke="black" stroke-width="1" />
<line x1="566" y1="95" x2="573" y2="93" stroke="black" stroke-width="1" />
<rect x="511" y="91" width="48" height="5" style="fill:#5d3c2d;stroke:black;stroke-width:1;fill-opacity:1;stroke-opacity:0.3" />
<rect x="573" y="91" width="50" height="5" style="fill:#5d3c2d;stroke:black;stroke-width:1;fill-opacity:1;stroke-opacity:0.3" />
<line x1="588" y1="86" x2="596" y2="88" stroke="black" stroke-width="1" />
<line x1="596" y1="88" x2="604" y2="86" stroke="black" stroke-width="1" />
<rect x="514" y="84" width="73" height="5" style="fill:#5d3c2d;stroke:black;stroke-width:1;fill-opacity:1;stroke-opacity:0.3" />
<rect x="604" y="84" width="75" height="5" style="fill:#5d3c2d;stroke:black;stroke-width:1;fill-opacity:1;stroke-opacity:0.3" />
<line x1="584" y1="121" x2="591" y2="123" stroke="black" stroke-width="1" />
<line x1="591" y1="123" x2="598" y2="121" stroke="black" stroke-width="1" />
<rect x="514" y="119" width="69" height="5" style="fill:#5d3c2d;stroke:black;stroke-width:1;fill-opacity:1;stroke-opacity:0.3" />
<rect x="598" y="119" width="75" height="5" style="fill:#5d3c2d;stroke:black;stroke-width:1;fill-opacity:1;stroke-opacity:0.3" />
<line x1="589" y1="163" x2="593" y2="165" stroke="black" stroke-width="1" />
<line x1="593" y1="165" x2="597" y2="163" stroke="black" stroke-width="1" />
<rect x="514" y="161" width="74" height="5" style="fill:#5d3c2d;stroke:black;stroke-width:1;fill-opacity:1;stroke-opacity:0.3" />
<rect x="597" y="161" width="75" height="5" style="fill:#5d3c2d;stroke:black;stroke-width:1;fill-opacity:1;stroke-opacity:0.3" />
<line x1="591" y1="37" x2="610" y2="39" stroke="black" stroke-width="1" />
<line x1="610" y1="39" x2="629" y2="37" stroke="black" stroke-width="1" />
<rect x="521" y="35" width="69" height="5" style="fill:#5d3c2d;stroke:black;stroke-width:1;fill-opacity:1;stroke-opacity:0.3" />
<rect x="629" y="35" width="75" height="5" style="fill:#5d3c2d;stroke:black;stroke-width:1;fill-opacity:1;stroke-opacity:0.3" />
<line x1="587" y1="149" x2="594" y2="151" stroke="black" stroke-width="1" />
<line x1="594" y1="151" x2="602" y2="149" stroke="black" stroke-width="1" />
<rect x="522" y="147" width="64" height="5" style="fill:#5d3c2d;stroke:black;stroke-width:1;fill-opacity:1;stroke-opacity:0.3" />
<rect x="602" y="147" width="75" height="5" style="fill:#5d3c2d;stroke:black;stroke-width:1;fill-opacity:1;stroke-opacity:0.3" />
<line x1="596" y1="128" x2="612" y2="130" stroke="black" stroke-width="1" />
<line x1="612" y1="130" x2="628" y2="128" stroke="black" stroke-width="1" />
<rect x="526" y="126" width="69" height="5" style="fill:#5d3c2d;stroke:black;stroke-width:1;fill-opacity:1;stroke-opacity:0.3" />
<rect x="628" y="126" width="74" height="5" style="fill:#5d3c2d;stroke:black;stroke-width:1;fill-opacity:1;stroke-opacity:0.3" />
<line x1="577" y1="142" x2="591" y2="144" stroke="black" stroke-width="1" />
<line x1="591" y1="144" x2="606" y2="142" stroke="black" stroke-width="1" />
<rect x="526" y="140" width="50" height="5" style="fill:#5d3c2d;stroke:black;stroke-width:1;fill-opacity:1;stroke-opacity:0.3" />
<rect x="606" y="140" width="50" height="5" style="fill:#5d3c2d;stroke:black;stroke-width:1;fill-opacity:1;stroke-opacity:0.3" />
<line x1="590" y1="156" x2="601" y2="158" stroke="black" stroke-width="1" />
<line x1="601" y1="158" x2="612" y2="156" stroke="black" stroke-width="1" />
<rect x="540" y="154" width="50" height="5" style="fill:#5d3c2d;stroke:black;stroke-width:1;fill-opacity:1;stroke-opacity:0.3" />
<rect x="612" y="154" width="49" height="5" style="fill:#5d3c2d;stroke:black;stroke-width:1;fill-opacity:1;stroke-opacity:0.3" />
<line x1="589" y1="30" x2="598" y2="32" stroke="black" stroke-width="1" />
<line x1="598" y1="32" x2="607" y2="30" stroke="black" stroke-width="1" />
<rect x="542" y="28" width="46" height="5" style="fill:#5d3c2d;stroke:black;stroke-width:1;fill-opacity:1;stroke-opacity:0.3" />
<rect x="607" y="28" width="50" height="5" style="fill:#5d3c2d;stroke:black;stroke-width:1;fill-opacity:1;stroke-opacity:0.3" />
<line x1="596" y1="114" x2="613" y2="116" stroke="black" stroke-width="1" />
<line x1="613" y1="116" x2="630" y2="114" stroke="black" stroke-width="1" />
<rect x="546" y="112" width="50" height="5" style="fill:#5d3c2d;stroke:black;stroke-width:1;fill-opacity:1;stroke-opacity:0.3" />
<rect x="630" y="112" width="50" height="5" style="fill:#5d3c2d;stroke:black;stroke-width:1;fill-opacity:1;stroke-opacity:0.3" />
<line x1="609" y1="44" x2="615" y2="46" stroke="black" stroke-width="1" />
<line x1="615" y1="46" x2="622" y2="44" stroke="black" stroke-width="1" />
<rect x="568" y="42" width="41" height="5" style="fill:#5d3c2d;stroke:black;stroke-width:1;fill-opacity:1;stroke-opacity:0.3" />
<rect x="622" y="42" width="50" height="5" style="fill:#5d3c2d;stroke:black;stroke-width:1;fill-opacity:1;stroke-opacity:0.3" />
<line x1="616" y1="58" x2="622" y2="60" stroke="black" stroke-width="1" />
<line x1="622" y1="60" x2="629" y2="58" stroke="black" stroke-width="1" />
<rect x="568" y="56" width="48" height="5" style="fill:#5d3c2d;stroke:black;stroke-width:1;fill-opacity:1;stroke-opacity:0.3" />
<rect x="629" y="56" width="48" height="5" style="fill:#5d3c2d;stroke:black;stroke-width:1;fill-opacity:1;stroke-opacity:0.3" />
<line x1="645" y1="65" x2="656" y2="67" stroke="black" stroke-width="1" />
<line x1="656" y1="67" x2="668" y2="65" stroke="black" stroke-width="1" />
<rect x="571" y="63" width="74" height="5" style="fill:#5d3c2d;stroke:black;stroke-width:1;fill-opacity:1;stroke-opacity:0.3" />
<rect x="668" y="63" width="75" height="5" style="fill:#5d3c2d;stroke:black;stroke-width:1;fill-opacity:1;stroke-opacity:0.3" />
<line x1="621" y1="100" x2="629" y2="102" stroke="black" stroke-width="1" />
<line x1="629" y1="102" x2="637" y2="100" stroke="black" stroke-width="1" />
<rect x="571" y="98" width="50" height="5" style="fill:#5d3c2d;stroke:black;stroke-width:1;fill-opacity:1;stroke-opacity:0.3" />
<rect x="637" y="98" width="50" height="5" style="fill:#5d3c2d;stroke:black;stroke-width:1;fill-opacity:1;stroke-opacity:0.3" />
<line x1="624" y1="107" x2="631" y2="109" stroke="black" stroke-width="1" />
<line x1="631" y1="109" x2="639" y2="107" stroke="black" stroke-width="1" />
<rect x="574" y="105" width="50" height="5" style="fill:#5d3c2d;stroke:black;stroke-width:1;fill-opacity:1;stroke-opacity:0.3" />
<rect x="639" y="105" width="50" height="5" style="fill:#5d3c2d;stroke:black;stroke-width:1;fill-opacity:1;stroke-opacity:0.3" />
<line x1="650" y1="135" x2="655" y2="137" stroke="black" stroke-width="1" />
<line x1="655" y1="137" x2="661" y2="135" stroke="black" stroke-width="1" />
<rect x="577" y="133" width="73" height="5" style="fill:#f5b024;stroke:black;stroke-width:1;fill-opacity:1;stroke-opacity:0.3" />
<rect x="661" y="133" width="74" height="5" style="fill:#f5b024;stroke:black;stroke-width:1;fill-opacity:1;stroke-opacity:0.3" />
<line x1="662" y1="51" x2="673" y2="53" stroke="black" stroke-width="1" />
<line x1="673" y1="53" x2="684" y2="51" stroke="black" stroke-width="1" />
<rect x="613" y="49" width="49" height="5" style="fill:#f5b024;stroke:black;stroke-width:1;fill-opacity:1;stroke-opacity:0.3" />
<rect x="684" y="49" width="50" height="5" style="fill:#f5b024;stroke:black;stroke-width:1;fill-opacity:1;stroke-opacity:0.3" />
<line x1="674" y1="93" x2="682" y2="95" stroke="black" stroke-width="1" />
<line x1="682" y1="95" x2="691" y2="93" stroke="black" stroke-width="1" />
<rect x="623" y="91" width="50" height="5" style="fill:#5d3c2d;stroke:black;stroke-width:1;fill-opacity:1;stroke-opacity:0.3" />
<rect x="691" y="91" width="50" height="5" style="fill:#5d3c2d;stroke:black;stroke-width:1;fill-opacity:1;stroke-opacity:0.3" />
<line x1="734" y1="30" x2="742" y2="32" stroke="black" stroke-width="1" />
<line x1="742" y1="32" x2="750" y2="30" stroke="black" stroke-width="1" />
<rect x="659" y="28" width="75" height="5" style="fill:#5d3c2d;stroke:black;stroke-width:1;fill-opacity:1;stroke-opacity:0.3" />
<rect x="750" y="28" width="75" height="5" style="fill:#5d3c2d;stroke:black;stroke-width:1;fill-opacity:1;stroke-opacity:0.3" />
<line x1="735" y1="142" x2="748" y2="144" stroke="black" stroke-width="1" />
<line x1="748" y1="144" x2="761" y2="142" stroke="black" stroke-width="1" />
<rect x="660" y="140" width="75" height="5" style="fill:#5d3c2d;stroke:black;stroke-width:1;fill-opacity:1;stroke-opacity:0.3" />
<rect x="761" y="140" width="75" height="5" style="fill:#5d3c2d;stroke:black;stroke-width:1;fill-opacity:1;stroke-opacity:0.3" />
<line x1="715" y1="72" x2="719" y2="74" stroke="black" stroke-width="1" />
<line x1="719" y1="74" x2="723" y2="72" stroke="black" stroke-width="1" />
<rect x="665" y="70" width="49" height="5" style="fill:#5d3c2d;stroke:black;stroke-width:1;fill-opacity:1;stroke-opacity:0.3" />
<rect x="723" y="70" width="50" height="5" style="fill:#5d3c2d;stroke:black;stroke-width:1;fill-opacity:1;stroke-opacity:0.3" />
<line x1="742" y1="156" x2="751" y2="158" stroke="black" stroke-width="1" />
<line x1="751" y1="158" x2="761" y2="156" stroke="black" stroke-width="1" />
<rect x="667" y="154" width="75" height="5" style="fill:#5d3c2d;stroke:black;stroke-width:1;fill-opacity:1;stroke-opacity:0.3" />
<rect x="761" y="154" width="75" height="5" style="fill:#5d3c2d;stroke:black;stroke-width:1;fill-opacity:1;stroke-opacity:0.3" />
<line x1="723" y1="44" x2="725" y2="46" stroke="black" stroke-width="1" />
<line x1="725" y1="46" x2="728" y2="44" stroke="black" stroke-width="1" />
<rect x="674" y="42" width="48" height="5" style="fill:#5d3c2d;stroke:black;stroke-width:1;fill-opacity:1;stroke-opacity:0.3" />
<rect x="728" y="42" width="49" height="5" style="fill:#5d3c2d;stroke:black;stroke-width:1;fill-opacity:1;stroke-opacity:0.3" />
<line x1="749" y1="79" x2="752" y2="81" stroke="black" stroke-width="1" />
<line x1="752" y1="81" x2="755" y2="79" stroke="black" stroke-width="1" />
<rect x="674" y="77" width="75" height="5" style="fill:#5d3c2d;stroke:black;stroke-width:1;fill-opacity:1;stroke-opacity:0.3" />
<rect x="755" y="77" width="74" height="5" style="fill:#5d3c2d;stroke:black;stroke-width:1;fill-opacity:1;stroke-opacity:0.3" />
<line x1="750" y1="121" x2="761" y2="123" stroke="black" stroke-width="1" />
<line x1="761" y1="123" x2="772" y2="121" stroke="black" stroke-width="1" />
<rect x="675" y="119" width="75" height="5" style="fill:#5d3c2d;stroke:black;stroke-width:1;fill-opacity:1;stroke-opacity:0.3" />
<rect x="772" y="119" width="75" height="5" style="fill:#5d3c2d;stroke:black;stroke-width:1;fill-opacity:1;stroke-opacity:0.3" />
<line x1="717" y1="163" x2="735" y2="165" stroke="black" stroke-width="1" />
<line x1="735" y1="165" x2="753" y2="163" stroke="black" stroke-width="1" />
<rect x="676" y="161" width="41" height="5" style="fill:#5d3c2d;stroke:black;stroke-width:1;fill-opacity:1;stroke-opacity:0.3" />
<rect x="753" y="161" width="47" height="5" style="fill:#5d3c2d;stroke:black;stroke-width:1;fill-opacity:1;stroke-opacity:0.3" />
<line x1="755" y1="58" x2="765" y2="60" stroke="black" stroke-width="1" />
<line x1="765" y1="60" x2="775" y2="58" stroke="black" stroke-width="1" />
<rect x="680" y="56" width="75" height="5" style="fill:#5d3c2d;stroke:black;stroke-width:1;fill-opacity:1;stroke-opacity:0.3" />
<rect x="775" y="56" width="0" height="5" style="fill:#5d3c2d;stroke:black;stroke-width:1;fill-opacity:1;stroke-opacity:0.3" />
<line x1="775" y1="58" x2="791" y2="58" stroke="pink" stroke-width="1" />
<rect x="791" y="56" width="68" height="5" style="fill:#5d3c2d;stroke:black;stroke-width:1;fill-opacity:1;stroke-opacity:0.3" />
<line x1="730" y1="86" x2="740" y2="88" stroke="black" stroke-width="1" />
<line x1="740" y1="88" x2="751" y2="86" stroke="black" stroke-width="1" />
<rect x="680" y="84" width="50" height="5" style="fill:#5d3c2d;stroke:black;stroke-width:1;fill-opacity:1;stroke-opacity:0.3" />
<rect x="751" y="84" width="50" height="5" style="fill:#5d3c2d;stroke:black;stroke-width:1;fill-opacity:1;stroke-opacity:0.3" />
<line x1="730" y1="149" x2="732" y2="151" stroke="black" stroke-width="1" />
<line x1="732" y1="151" x2="735" y2="149" stroke="black" stroke-width="1" />
<rect x="680" y="147" width="50" height="5" style="fill:#5d3c2d;stroke:black;stroke-width:1;fill-opacity:1;stroke-opacity:0.3" />
<rect x="735" y="147" width="48" height="5" style="fill:#5d3c2d;stroke:black;stroke-width:1;fill-opacity:1;stroke-opacity:0.3" />
<line x1="732" y1="114" x2="758" y2="116" stroke="black" stroke-width="1" />
<line x1="758" y1="116" x2="785" y2="114" stroke="black" stroke-width="1" />
<rect x="682" y="112" width="50" height="5" style="fill:#5d3c2d;stroke:black;stroke-width:1;fill-opacity:1;stroke-opacity:0.3" />
<rect x="785" y="112" width="50" height="5" style="fill:#5d3c2d;stroke:black;stroke-width:1;fill-opacity:1;stroke-opacity:0.3" />
<line x1="738" y1="100" x2="758" y2="102" stroke="black" stroke-width="1" />
<line x1="758" y1="102" x2="778" y2="100" stroke="black" stroke-width="1" />
<rect x="688" y="98" width="50" height="5" style="fill:#5d3c2d;stroke:black;stroke-width:1;fill-opacity:1;stroke-opacity:0.3" />
<rect x="778" y="98" width="49" height="5" style="fill:#5d3c2d;stroke:black;stroke-width:1;fill-opacity:1;stroke-opacity:0.3" />
<line x1="740" y1="107" x2="746" y2="109" stroke="black" stroke-width="1" />
<line x1="746" y1="109" x2="752" y2="107" stroke="black" stroke-width="1" />
<rect x="690" y="105" width="50" height="5" style="fill:#5d3c2d;stroke:black;stroke-width:1;fill-opacity:1;stroke-opacity:0.3" />
<rect x="752" y="105" width="49" height="5" style="fill:#5d3c2d;stroke:black;stroke-width:1;fill-opacity:1;stroke-opacity:0.3" />
<line x1="779" y1="37" x2="788" y2="39" stroke="black" stroke-width="1" />
<line x1="788" y1="39" x2="798" y2="37" stroke="black" stroke-width="1" />
<rect x="704" y="35" width="74" height="5" style="fill:#5d3c2d;stroke:black;stroke-width:1;fill-opacity:1;stroke-opacity:0.3" />
<rect x="798" y="35" width="75" height="5" style="fill:#5d3c2d;stroke:black;stroke-width:1;fill-opacity:1;stroke-opacity:0.3" />
<line x1="779" y1="128" x2="785" y2="130" stroke="black" stroke-width="1" />
<line x1="785" y1="130" x2="791" y2="128" stroke="black" stroke-width="1" />
<rect x="705" y="126" width="73" height="5" style="fill:#5d3c2d;stroke:black;stroke-width:1;fill-opacity:1;stroke-opacity:0.3" />
<rect x="791" y="126" width="75" height="5" style="fill:#5d3c2d;stroke:black;stroke-width:1;fill-opacity:1;stroke-opacity:0.3" />
<line x1="781" y1="51" x2="797" y2="53" stroke="black" stroke-width="1" />
<line x1="797" y1="53" x2="813" y2="51" stroke="black" stroke-width="1" />
<rect x="734" y="49" width="46" height="5" style="fill:#5d3c2d;stroke:black;stroke-width:1;fill-opacity:1;stroke-opacity:0.3" />
<rect x="813" y="49" width="49" height="5" style="fill:#5d3c2d;stroke:black;stroke-width:1;fill-opacity:1;stroke-opacity:0.3" />
<line x1="794" y1="65" x2="808" y2="67" stroke="black" stroke-width="1" />
<line x1="808" y1="67" x2="822" y2="65" stroke="black" stroke-width="1" />
<rect x="744" y="63" width="50" height="5" style="fill:#5d3c2d;stroke:black;stroke-width:1;fill-opacity:1;stroke-opacity:0.3" />
<rect x="822" y="63" width="50" height="5" style="fill:#5d3c2d;stroke:black;stroke-width:1;fill-opacity:1;stroke-opacity:0.3" />
<line x1="808" y1="93" x2="811" y2="95" stroke="black" stroke-width="1" />
<line x1="811" y1="95" x2="814" y2="93" stroke="black" stroke-width="1" />
<rect x="758" y="91" width="49" height="5" style="fill:#5d3c2d;stroke:black;stroke-width:1;fill-opacity:1;stroke-opacity:0.3" />
<rect x="814" y="91" width="50" height="5" style="fill:#5d3c2d;stroke:black;stroke-width:1;fill-opacity:1;stroke-opacity:0.3" />
<line x1="819" y1="135" x2="833" y2="137" stroke="black" stroke-width="1" />
<line x1="833" y1="137" x2="848" y2="135" stroke="black" stroke-width="1" />
<rect x="769" y="133" width="50" height="5" style="fill:#5d3c2d;stroke:black;stroke-width:1;fill-opacity:1;stroke-opacity:0.3" />
<rect x="848" y="133" width="50" height="5" style="fill:#5d3c2d;stroke:black;stroke-width:1;fill-opacity:1;stroke-opacity:0.3" />
<line x1="823" y1="72" x2="836" y2="74" stroke="black" stroke-width="1" />
<line x1="836" y1="74" x2="850" y2="72" stroke="black" stroke-width="1" />
<rect x="773" y="70" width="50" height="5" style="fill:#5d3c2d;stroke:black;stroke-width:1;fill-opacity:1;stroke-opacity:0.3" />
<rect x="850" y="70" width="50" height="5" style="fill:#5d3c2d;stroke:black;stroke-width:1;fill-opacity:1;stroke-opacity:0.3" />
<line x1="885" y1="44" x2="890" y2="46" stroke="black" stroke-width="1" />
<line x1="890" y1="46" x2="896" y2="44" stroke="black" stroke-width="1" />
<rect x="810" y="42" width="75" height="5" style="fill:#5d3c2d;stroke:black;stroke-width:1;fill-opacity:1;stroke-opacity:0.3" />
<rect x="896" y="42" width="75" height="5" style="fill:#5d3c2d;stroke:black;stroke-width:1;fill-opacity:1;stroke-opacity:0.3" />
<line x1="883" y1="30" x2="892" y2="32" stroke="black" stroke-width="1" />
<line x1="892" y1="32" x2="902" y2="30" stroke="black" stroke-width="1" />
<rect x="833" y="28" width="50" height="5" style="fill:#f5b024;stroke:black;stroke-width:1;fill-opacity:1;stroke-opacity:0.3" />
<rect x="902" y="28" width="50" height="5" style="fill:#f5b024;stroke:black;stroke-width:1;fill-opacity:1;stroke-opacity:0.3" />
<line x1="886" y1="79" x2="894" y2="81" stroke="black" stroke-width="1" />
<line x1="894" y1="81" x2="903" y2="79" stroke="black" stroke-width="1" />
<rect x="836" y="77" width="50" height="5" style="fill:#5d3c2d;stroke:black;stroke-width:1;fill-opacity:1;stroke-opacity:0.3" />
<rect x="903" y="77" width="50" height="5" style="fill:#5d3c2d;stroke:black;stroke-width:1;fill-opacity:1;stroke-opacity:0.3" />
<line x1="897" y1="86" x2="902" y2="88" stroke="black" stroke-width="1" />
<line x1="902" y1="88" x2="907" y2="86" stroke="black" stroke-width="1" />
<rect x="846" y="84" width="50" height="5" style="fill:#5d3c2d;stroke:black;stroke-width:1;fill-opacity:1;stroke-opacity:0.3" />
<rect x="907" y="84" width="50" height="5" style="fill:#5d3c2d;stroke:black;stroke-width:1;fill-opacity:1;stroke-opacity:0.3" />
<line x1="897" y1="100" x2="900" y2="102" stroke="black" stroke-width="1" />
<line x1="900" y1="102" x2="904" y2="100" stroke="black" stroke-width="1" />
<rect x="847" y="98" width="50" height="5" style="fill:#5d3c2d;stroke:black;stroke-width:1;fill-opacity:1;stroke-opacity:0.3" />
<rect x="904" y="98" width="50" height="5" style="fill:#5d3c2d;stroke:black;stroke-width:1;fill-opacity:1;stroke-opacity:0.3" />
<line x1="897" y1="107" x2="904" y2="109" stroke="black" stroke-width="1" />
<line x1="904" y1="109" x2="911" y2="107" stroke="black" stroke-width="1" />
<rect x="847" y="105" width="50" height="5" style="fill:#5d3c2d;stroke:black;stroke-width:1;fill-opacity:1;stroke-opacity:0.3" />
<rect x="911" y="105" width="50" height="5" style="fill:#5d3c2d;stroke:black;stroke-width:1;fill-opacity:1;stroke-opacity:0.3" />
<line x1="899" y1="114" x2="907" y2="116" stroke="black" stroke-width="1" />
<line x1="907" y1="116" x2="915" y2="114" stroke="black" stroke-width="1" />
<rect x="849" y="112" width="50" height="5" style="fill:#5d3c2d;stroke:black;stroke-width:1;fill-opacity:1;stroke-opacity:0.3" />
<rect x="915" y="112" width="50" height="5" style="fill:#5d3c2d;stroke:black;stroke-width:1;fill-opacity:1;stroke-opacity:0.3" />
<line x1="900" y1="121" x2="905" y2="123" stroke="black" stroke-width="1" />
<line x1="905" y1="123" x2="910" y2="121" stroke="black" stroke-width="1" />
<rect x="850" y="119" width="50" height="5" style="fill:#5d3c2d;stroke:black;stroke-width:1;fill-opacity:1;stroke-opacity:0.3" />
<rect x="910" y="119" width="50" height="5" style="fill:#5d3c2d;stroke:black;stroke-width:1;fill-opacity:1;stroke-opacity:0.3" />
<line x1="902" y1="142" x2="906" y2="144" stroke="black" stroke-width="1" />
<line x1="906" y1="144" x2="911" y2="142" stroke="black" stroke-width="1" />
<rect x="852" y="140" width="50" height="5" style="fill:#5d3c2d;stroke:black;stroke-width:1;fill-opacity:1;stroke-opacity:0.3" />
<rect x="911" y="140" width="50" height="5" style="fill:#5d3c2d;stroke:black;stroke-width:1;fill-opacity:1;stroke-opacity:0.3" />
<line x1="903" y1="149" x2="912" y2="151" stroke="black" stroke-width="1" />
<line x1="912" y1="151" x2="922" y2="149" stroke="black" stroke-width="1" />
<rect x="853" y="147" width="50" height="5" style="fill:#5d3c2d;stroke:black;stroke-width:1;fill-opacity:1;stroke-opacity:0.3" />
<rect x="922" y="147" width="50" height="5" style="fill:#5d3c2d;stroke:black;stroke-width:1;fill-opacity:1;stroke-opacity:0.3" />
<line x1="906" y1="156" x2="924" y2="158" stroke="black" stroke-width="1" />
<line x1="924" y1="158" x2="943" y2="156" stroke="black" stroke-width="1" />
<rect x="855" y="154" width="50" height="5" style="fill:#5d3c2d;stroke:black;stroke-width:1;fill-opacity:1;stroke-opacity:0.3" />
<rect x="943" y="154" width="50" height="5" style="fill:#5d3c2d;stroke:black;stroke-width:1;fill-opacity:1;stroke-opacity:0.3" />
<line x1="906" y1="163" x2="909" y2="165" stroke="black" stroke-width="1" />
<line x1="909" y1="165" x2="913" y2="163" stroke="black" stroke-width="1" />
<rect x="856" y="161" width="50" height="5" style="fill:#5d3c2d;stroke:black;stroke-width:1;fill-opacity:1;stroke-opacity:0.3" />
<rect x="913" y="161" width="50" height="5" style="fill:#5d3c2d;stroke:black;stroke-width:1;fill-opacity:1;stroke-opacity:0.3" />
<line x1="923" y1="51" x2="928" y2="53" stroke="black" stroke-width="1" />
<line x1="928" y1="53" x2="934" y2="51" stroke="black" stroke-width="1" />
<rect x="872" y="49" width="50" height="5" style="fill:#5d3c2d;stroke:black;stroke-width:1;fill-opacity:1;stroke-opacity:0.3" />
<rect x="934" y="49" width="50" height="5" style="fill:#5d3c2d;stroke:black;stroke-width:1;fill-opacity:1;stroke-opacity:0.3" />
<line x1="923" y1="58" x2="926" y2="60" stroke="black" stroke-width="1" />
<line x1="926" y1="60" x2="929" y2="58" stroke="black" stroke-width="1" />
<rect x="873" y="56" width="50" height="5" style="fill:#5d3c2d;stroke:black;stroke-width:1;fill-opacity:1;stroke-opacity:0.3" />
<rect x="929" y="56" width="50" height="5" style="fill:#5d3c2d;stroke:black;stroke-width:1;fill-opacity:1;stroke-opacity:0.3" />
<text x="15"  y="176" style="font-family:Arial;font-size:10;stroke:black;fill:black;">all.merged.bam</text>
</svg>
    
