<?xml version="1.0" encoding="utf-8" standalone="no"?>
<!DOCTYPE svg PUBLIC "-//W3C//DTD SVG 1.1//EN"
  "http://www.w3.org/Graphics/SVG/1.1/DTD/svg11.dtd">
<svg height="1140" width="1000" version="1.1" viewBox="0 0 1000 1140" xmlns="http://www.w3.org/2000/svg" xmlns:xlink="http://www.w3.org/1999/xlink">
<line x1="58" y1="11" x2="940" y2="11" stroke="black" stroke-width="1" />
<rect x="58" y="9" width="70" height="5" style="fill:#f50002;stroke:black;stroke-width:1;fill-opacity:1;stroke-opacity:0.3" />
<rect x="129" y="9" width="126" height="5" style="fill:#53a1b5;stroke:black;stroke-width:1;fill-opacity:1;stroke-opacity:0.3" />
<rect x="256" y="9" width="17" height="5" style="fill:#f50002;stroke:black;stroke-width:1;fill-opacity:1;stroke-opacity:0.3" />
<rect x="551" y="9" width="389" height="5" style="fill:#f50002;stroke:black;stroke-width:1;fill-opacity:1;stroke-opacity:0.3" />
<text x="58"  y="23" style="font-family:Arial;font-size:10;stroke:black;fill:black;">Cre02.g102150.t1.1.v5.5 (+) chromosome_2:4735687-4737190</text>
<line x1="106" y1="30" x2="125" y2="32" stroke="black" stroke-width="1" />
<line x1="125" y1="32" x2="144" y2="30" stroke="black" stroke-width="1" />
<rect x="47" y="28" width="58" height="5" style="fill:#5d3c2d;stroke:black;stroke-width:1;fill-opacity:1;stroke-opacity:0.3" />
<rect x="144" y="28" width="58" height="5" style="fill:#5d3c2d;stroke:black;stroke-width:1;fill-opacity:1;stroke-opacity:0.3" />
<line x1="106" y1="37" x2="120" y2="39" stroke="black" stroke-width="1" />
<line x1="120" y1="39" x2="134" y2="37" stroke="black" stroke-width="1" />
<rect x="48" y="35" width="58" height="5" style="fill:#5d3c2d;stroke:black;stroke-width:1;fill-opacity:1;stroke-opacity:0.3" />
<rect x="134" y="35" width="58" height="5" style="fill:#5d3c2d;stroke:black;stroke-width:1;fill-opacity:1;stroke-opacity:0.3" />
<line x1="137" y1="44" x2="145" y2="46" stroke="black" stroke-width="1" />
<line x1="145" y1="46" x2="153" y2="44" stroke="black" stroke-width="1" />
<rect x="49" y="42" width="88" height="5" style="fill:#5d3c2d;stroke:black;stroke-width:1;fill-opacity:1;stroke-opacity:0.3" />
<rect x="153" y="42" width="87" height="5" style="fill:#5d3c2d;stroke:black;stroke-width:1;fill-opacity:1;stroke-opacity:0.3" />
<line x1="110" y1="51" x2="136" y2="53" stroke="black" stroke-width="1" />
<line x1="136" y1="53" x2="163" y2="51" stroke="black" stroke-width="1" />
<rect x="52" y="49" width="58" height="5" style="fill:#5d3c2d;stroke:black;stroke-width:1;fill-opacity:1;stroke-opacity:0.3" />
<rect x="163" y="49" width="57" height="5" style="fill:#5d3c2d;stroke:black;stroke-width:1;fill-opacity:1;stroke-opacity:0.3" />
<line x1="112" y1="58" x2="117" y2="60" stroke="black" stroke-width="1" />
<line x1="117" y1="60" x2="122" y2="58" stroke="black" stroke-width="1" />
<rect x="53" y="56" width="58" height="5" style="fill:#5d3c2d;stroke:black;stroke-width:1;fill-opacity:1;stroke-opacity:0.3" />
<rect x="122" y="56" width="58" height="5" style="fill:#5d3c2d;stroke:black;stroke-width:1;fill-opacity:1;stroke-opacity:0.3" />
<line x1="142" y1="65" x2="144" y2="67" stroke="black" stroke-width="1" />
<line x1="144" y1="67" x2="147" y2="65" stroke="black" stroke-width="1" />
<rect x="53" y="63" width="88" height="5" style="fill:#5d3c2d;stroke:black;stroke-width:1;fill-opacity:1;stroke-opacity:0.3" />
<rect x="147" y="63" width="87" height="5" style="fill:#5d3c2d;stroke:black;stroke-width:1;fill-opacity:1;stroke-opacity:0.3" />
<line x1="112" y1="72" x2="124" y2="74" stroke="black" stroke-width="1" />
<line x1="124" y1="74" x2="137" y2="72" stroke="black" stroke-width="1" />
<rect x="53" y="70" width="58" height="5" style="fill:#5d3c2d;stroke:black;stroke-width:1;fill-opacity:1;stroke-opacity:0.3" />
<rect x="137" y="70" width="58" height="5" style="fill:#5d3c2d;stroke:black;stroke-width:1;fill-opacity:1;stroke-opacity:0.3" />
<line x1="109" y1="79" x2="114" y2="81" stroke="black" stroke-width="1" />
<line x1="114" y1="81" x2="120" y2="79" stroke="black" stroke-width="1" />
<rect x="54" y="77" width="54" height="5" style="fill:#5d3c2d;stroke:black;stroke-width:1;fill-opacity:1;stroke-opacity:0.3" />
<rect x="120" y="77" width="58" height="5" style="fill:#5d3c2d;stroke:black;stroke-width:1;fill-opacity:1;stroke-opacity:0.3" />
<line x1="113" y1="86" x2="118" y2="88" stroke="black" stroke-width="1" />
<line x1="118" y1="88" x2="123" y2="86" stroke="black" stroke-width="1" />
<rect x="55" y="84" width="58" height="5" style="fill:#5d3c2d;stroke:black;stroke-width:1;fill-opacity:1;stroke-opacity:0.3" />
<rect x="123" y="84" width="58" height="5" style="fill:#5d3c2d;stroke:black;stroke-width:1;fill-opacity:1;stroke-opacity:0.3" />
<line x1="115" y1="93" x2="137" y2="95" stroke="black" stroke-width="1" />
<line x1="137" y1="95" x2="159" y2="93" stroke="black" stroke-width="1" />
<rect x="56" y="91" width="58" height="5" style="fill:#5d3c2d;stroke:black;stroke-width:1;fill-opacity:1;stroke-opacity:0.3" />
<rect x="159" y="91" width="58" height="5" style="fill:#5d3c2d;stroke:black;stroke-width:1;fill-opacity:1;stroke-opacity:0.3" />
<line x1="121" y1="100" x2="127" y2="102" stroke="black" stroke-width="1" />
<line x1="127" y1="102" x2="134" y2="100" stroke="black" stroke-width="1" />
<rect x="62" y="98" width="58" height="5" style="fill:#5d3c2d;stroke:black;stroke-width:1;fill-opacity:1;stroke-opacity:0.3" />
<rect x="134" y="98" width="58" height="5" style="fill:#5d3c2d;stroke:black;stroke-width:1;fill-opacity:1;stroke-opacity:0.3" />
<line x1="122" y1="107" x2="131" y2="109" stroke="black" stroke-width="1" />
<line x1="131" y1="109" x2="141" y2="107" stroke="black" stroke-width="1" />
<rect x="63" y="105" width="58" height="5" style="fill:#5d3c2d;stroke:black;stroke-width:1;fill-opacity:1;stroke-opacity:0.3" />
<rect x="141" y="105" width="58" height="5" style="fill:#5d3c2d;stroke:black;stroke-width:1;fill-opacity:1;stroke-opacity:0.3" />
<line x1="122" y1="114" x2="134" y2="116" stroke="black" stroke-width="1" />
<line x1="134" y1="116" x2="146" y2="114" stroke="black" stroke-width="1" />
<rect x="63" y="112" width="58" height="5" style="fill:#5d3c2d;stroke:black;stroke-width:1;fill-opacity:1;stroke-opacity:0.3" />
<rect x="146" y="112" width="58" height="5" style="fill:#5d3c2d;stroke:black;stroke-width:1;fill-opacity:1;stroke-opacity:0.3" />
<line x1="123" y1="121" x2="130" y2="123" stroke="black" stroke-width="1" />
<line x1="130" y1="123" x2="138" y2="121" stroke="black" stroke-width="1" />
<rect x="65" y="119" width="58" height="5" style="fill:#5d3c2d;stroke:black;stroke-width:1;fill-opacity:1;stroke-opacity:0.3" />
<rect x="138" y="119" width="58" height="5" style="fill:#5d3c2d;stroke:black;stroke-width:1;fill-opacity:1;stroke-opacity:0.3" />
<line x1="123" y1="128" x2="133" y2="130" stroke="black" stroke-width="1" />
<line x1="133" y1="130" x2="144" y2="128" stroke="black" stroke-width="1" />
<rect x="65" y="126" width="58" height="5" style="fill:#5d3c2d;stroke:black;stroke-width:1;fill-opacity:1;stroke-opacity:0.3" />
<rect x="144" y="126" width="57" height="5" style="fill:#5d3c2d;stroke:black;stroke-width:1;fill-opacity:1;stroke-opacity:0.3" />
<line x1="123" y1="135" x2="130" y2="137" stroke="black" stroke-width="1" />
<line x1="130" y1="137" x2="137" y2="135" stroke="black" stroke-width="1" />
<rect x="65" y="133" width="58" height="5" style="fill:#5d3c2d;stroke:black;stroke-width:1;fill-opacity:1;stroke-opacity:0.3" />
<rect x="137" y="133" width="58" height="5" style="fill:#5d3c2d;stroke:black;stroke-width:1;fill-opacity:1;stroke-opacity:0.3" />
<line x1="124" y1="142" x2="134" y2="144" stroke="black" stroke-width="1" />
<line x1="134" y1="144" x2="144" y2="142" stroke="black" stroke-width="1" />
<rect x="65" y="140" width="58" height="5" style="fill:#5d3c2d;stroke:black;stroke-width:1;fill-opacity:1;stroke-opacity:0.3" />
<rect x="144" y="140" width="58" height="5" style="fill:#5d3c2d;stroke:black;stroke-width:1;fill-opacity:1;stroke-opacity:0.3" />
<line x1="126" y1="149" x2="129" y2="151" stroke="black" stroke-width="1" />
<line x1="129" y1="151" x2="133" y2="149" stroke="black" stroke-width="1" />
<rect x="68" y="147" width="58" height="5" style="fill:#5d3c2d;stroke:black;stroke-width:1;fill-opacity:1;stroke-opacity:0.3" />
<rect x="133" y="147" width="57" height="5" style="fill:#5d3c2d;stroke:black;stroke-width:1;fill-opacity:1;stroke-opacity:0.3" />
<line x1="127" y1="156" x2="150" y2="158" stroke="black" stroke-width="1" />
<line x1="150" y1="158" x2="174" y2="156" stroke="black" stroke-width="1" />
<rect x="68" y="154" width="58" height="5" style="fill:#5d3c2d;stroke:black;stroke-width:1;fill-opacity:1;stroke-opacity:0.3" />
<rect x="174" y="154" width="58" height="5" style="fill:#5d3c2d;stroke:black;stroke-width:1;fill-opacity:1;stroke-opacity:0.3" />
<line x1="127" y1="163" x2="135" y2="165" stroke="black" stroke-width="1" />
<line x1="135" y1="165" x2="143" y2="163" stroke="black" stroke-width="1" />
<rect x="69" y="161" width="58" height="5" style="fill:#5d3c2d;stroke:black;stroke-width:1;fill-opacity:1;stroke-opacity:0.3" />
<rect x="143" y="161" width="58" height="5" style="fill:#5d3c2d;stroke:black;stroke-width:1;fill-opacity:1;stroke-opacity:0.3" />
<line x1="267" y1="79" x2="410" y2="81" stroke="black" stroke-width="1" />
<line x1="410" y1="81" x2="553" y2="79" stroke="black" stroke-width="1" />
<rect x="178" y="77" width="88" height="5" style="fill:#5d3c2d;stroke:black;stroke-width:1;fill-opacity:1;stroke-opacity:0.3" />
<rect x="553" y="77" width="88" height="5" style="fill:#5d3c2d;stroke:black;stroke-width:1;fill-opacity:1;stroke-opacity:0.3" />
<line x1="240" y1="58" x2="244" y2="60" stroke="black" stroke-width="1" />
<line x1="244" y1="60" x2="248" y2="58" stroke="black" stroke-width="1" />
<rect x="181" y="56" width="58" height="5" style="fill:#5d3c2d;stroke:black;stroke-width:1;fill-opacity:1;stroke-opacity:0.3" />
<rect x="248" y="56" width="25" height="5" style="fill:#5d3c2d;stroke:black;stroke-width:1;fill-opacity:1;stroke-opacity:0.3" />
<line x1="274" y1="58" x2="551" y2="58" stroke="pink" stroke-width="1" />
<rect x="551" y="56" width="32" height="5" style="fill:#5d3c2d;stroke:black;stroke-width:1;fill-opacity:1;stroke-opacity:0.3" />
<line x1="244" y1="86" x2="257" y2="88" stroke="black" stroke-width="1" />
<line x1="257" y1="88" x2="271" y2="86" stroke="black" stroke-width="1" />
<rect x="186" y="84" width="58" height="5" style="fill:#5d3c2d;stroke:black;stroke-width:1;fill-opacity:1;stroke-opacity:0.3" />
<rect x="271" y="84" width="2" height="5" style="fill:#5d3c2d;stroke:black;stroke-width:1;fill-opacity:1;stroke-opacity:0.3" />
<line x1="274" y1="86" x2="551" y2="86" stroke="pink" stroke-width="1" />
<rect x="551" y="84" width="55" height="5" style="fill:#5d3c2d;stroke:black;stroke-width:1;fill-opacity:1;stroke-opacity:0.3" />
<line x1="250" y1="149" x2="402" y2="151" stroke="black" stroke-width="1" />
<line x1="402" y1="151" x2="554" y2="149" stroke="black" stroke-width="1" />
<rect x="191" y="147" width="58" height="5" style="fill:#5d3c2d;stroke:black;stroke-width:1;fill-opacity:1;stroke-opacity:0.3" />
<rect x="554" y="147" width="58" height="5" style="fill:#5d3c2d;stroke:black;stroke-width:1;fill-opacity:1;stroke-opacity:0.3" />
<line x1="252" y1="37" x2="258" y2="39" stroke="black" stroke-width="1" />
<line x1="258" y1="39" x2="264" y2="37" stroke="black" stroke-width="1" />
<rect x="193" y="35" width="58" height="5" style="fill:#5d3c2d;stroke:black;stroke-width:1;fill-opacity:1;stroke-opacity:0.3" />
<rect x="264" y="35" width="10" height="5" style="fill:#5d3c2d;stroke:black;stroke-width:1;fill-opacity:1;stroke-opacity:0.3" />
<line x1="274" y1="37" x2="551" y2="37" stroke="pink" stroke-width="1" />
<rect x="551" y="35" width="48" height="5" style="fill:#5d3c2d;stroke:black;stroke-width:1;fill-opacity:1;stroke-opacity:0.3" />
<line x1="252" y1="100" x2="403" y2="102" stroke="black" stroke-width="1" />
<line x1="403" y1="102" x2="554" y2="100" stroke="black" stroke-width="1" />
<rect x="193" y="98" width="58" height="5" style="fill:#5d3c2d;stroke:black;stroke-width:1;fill-opacity:1;stroke-opacity:0.3" />
<rect x="554" y="98" width="58" height="5" style="fill:#5d3c2d;stroke:black;stroke-width:1;fill-opacity:1;stroke-opacity:0.3" />
<line x1="254" y1="135" x2="405" y2="137" stroke="black" stroke-width="1" />
<line x1="405" y1="137" x2="556" y2="135" stroke="black" stroke-width="1" />
<rect x="196" y="133" width="58" height="5" style="fill:#5d3c2d;stroke:black;stroke-width:1;fill-opacity:1;stroke-opacity:0.3" />
<rect x="556" y="133" width="58" height="5" style="fill:#5d3c2d;stroke:black;stroke-width:1;fill-opacity:1;stroke-opacity:0.3" />
<line x1="256" y1="72" x2="263" y2="74" stroke="black" stroke-width="1" />
<line x1="263" y1="74" x2="271" y2="72" stroke="black" stroke-width="1" />
<rect x="197" y="70" width="58" height="5" style="fill:#5d3c2d;stroke:black;stroke-width:1;fill-opacity:1;stroke-opacity:0.3" />
<rect x="271" y="70" width="3" height="5" style="fill:#5d3c2d;stroke:black;stroke-width:1;fill-opacity:1;stroke-opacity:0.3" />
<line x1="274" y1="72" x2="551" y2="72" stroke="pink" stroke-width="1" />
<rect x="551" y="70" width="55" height="5" style="fill:#5d3c2d;stroke:black;stroke-width:1;fill-opacity:1;stroke-opacity:0.3" />
<line x1="257" y1="121" x2="260" y2="123" stroke="black" stroke-width="1" />
<line x1="260" y1="123" x2="264" y2="121" stroke="black" stroke-width="1" />
<rect x="198" y="119" width="58" height="5" style="fill:#5d3c2d;stroke:black;stroke-width:1;fill-opacity:1;stroke-opacity:0.3" />
<rect x="264" y="119" width="10" height="5" style="fill:#5d3c2d;stroke:black;stroke-width:1;fill-opacity:1;stroke-opacity:0.3" />
<line x1="274" y1="121" x2="551" y2="121" stroke="pink" stroke-width="1" />
<rect x="551" y="119" width="48" height="5" style="fill:#5d3c2d;stroke:black;stroke-width:1;fill-opacity:1;stroke-opacity:0.3" />
<line x1="258" y1="107" x2="407" y2="109" stroke="black" stroke-width="1" />
<line x1="407" y1="109" x2="557" y2="107" stroke="black" stroke-width="1" />
<rect x="200" y="105" width="58" height="5" style="fill:#5d3c2d;stroke:black;stroke-width:1;fill-opacity:1;stroke-opacity:0.3" />
<rect x="557" y="105" width="58" height="5" style="fill:#5d3c2d;stroke:black;stroke-width:1;fill-opacity:1;stroke-opacity:0.3" />
<line x1="261" y1="128" x2="409" y2="130" stroke="black" stroke-width="1" />
<line x1="409" y1="130" x2="558" y2="128" stroke="black" stroke-width="1" />
<rect x="202" y="126" width="58" height="5" style="fill:#5d3c2d;stroke:black;stroke-width:1;fill-opacity:1;stroke-opacity:0.3" />
<rect x="558" y="126" width="58" height="5" style="fill:#5d3c2d;stroke:black;stroke-width:1;fill-opacity:1;stroke-opacity:0.3" />
<line x1="262" y1="30" x2="444" y2="32" stroke="black" stroke-width="1" />
<line x1="444" y1="32" x2="626" y2="30" stroke="black" stroke-width="1" />
<rect x="203" y="28" width="58" height="5" style="fill:#5d3c2d;stroke:black;stroke-width:1;fill-opacity:1;stroke-opacity:0.3" />
<rect x="626" y="28" width="58" height="5" style="fill:#5d3c2d;stroke:black;stroke-width:1;fill-opacity:1;stroke-opacity:0.3" />
<line x1="262" y1="142" x2="412" y2="144" stroke="black" stroke-width="1" />
<line x1="412" y1="144" x2="563" y2="142" stroke="black" stroke-width="1" />
<rect x="203" y="140" width="58" height="5" style="fill:#5d3c2d;stroke:black;stroke-width:1;fill-opacity:1;stroke-opacity:0.3" />
<rect x="563" y="140" width="58" height="5" style="fill:#5d3c2d;stroke:black;stroke-width:1;fill-opacity:1;stroke-opacity:0.3" />
<line x1="262" y1="163" x2="412" y2="165" stroke="black" stroke-width="1" />
<line x1="412" y1="165" x2="563" y2="163" stroke="black" stroke-width="1" />
<rect x="203" y="161" width="58" height="5" style="fill:#5d3c2d;stroke:black;stroke-width:1;fill-opacity:1;stroke-opacity:0.3" />
<rect x="563" y="161" width="58" height="5" style="fill:#5d3c2d;stroke:black;stroke-width:1;fill-opacity:1;stroke-opacity:0.3" />
<line x1="268" y1="114" x2="412" y2="116" stroke="black" stroke-width="1" />
<line x1="412" y1="116" x2="557" y2="114" stroke="black" stroke-width="1" />
<rect x="209" y="112" width="58" height="5" style="fill:#5d3c2d;stroke:black;stroke-width:1;fill-opacity:1;stroke-opacity:0.3" />
<rect x="557" y="112" width="58" height="5" style="fill:#5d3c2d;stroke:black;stroke-width:1;fill-opacity:1;stroke-opacity:0.3" />
<line x1="553" y1="93" x2="558" y2="95" stroke="black" stroke-width="1" />
<line x1="558" y1="95" x2="563" y2="93" stroke="black" stroke-width="1" />
<rect x="218" y="91" width="55" height="5" style="fill:#5d3c2d;stroke:black;stroke-width:1;fill-opacity:1;stroke-opacity:0.3" />
<line x1="274" y1="93" x2="551" y2="93" stroke="pink" stroke-width="1" />
<rect x="551" y="91" width="2" height="5" style="fill:#5d3c2d;stroke:black;stroke-width:1;fill-opacity:1;stroke-opacity:0.3" />
<rect x="563" y="91" width="58" height="5" style="fill:#5d3c2d;stroke:black;stroke-width:1;fill-opacity:1;stroke-opacity:0.3" />
<line x1="556" y1="51" x2="575" y2="53" stroke="black" stroke-width="1" />
<line x1="575" y1="53" x2="594" y2="51" stroke="black" stroke-width="1" />
<rect x="221" y="49" width="53" height="5" style="fill:#5d3c2d;stroke:black;stroke-width:1;fill-opacity:1;stroke-opacity:0.3" />
<line x1="274" y1="51" x2="551" y2="51" stroke="pink" stroke-width="1" />
<rect x="551" y="49" width="5" height="5" style="fill:#5d3c2d;stroke:black;stroke-width:1;fill-opacity:1;stroke-opacity:0.3" />
<rect x="594" y="49" width="58" height="5" style="fill:#5d3c2d;stroke:black;stroke-width:1;fill-opacity:1;stroke-opacity:0.3" />
<line x1="568" y1="156" x2="580" y2="158" stroke="black" stroke-width="1" />
<line x1="580" y1="158" x2="592" y2="156" stroke="black" stroke-width="1" />
<rect x="233" y="154" width="41" height="5" style="fill:#5d3c2d;stroke:black;stroke-width:1;fill-opacity:1;stroke-opacity:0.3" />
<line x1="274" y1="156" x2="551" y2="156" stroke="pink" stroke-width="1" />
<rect x="551" y="154" width="17" height="5" style="fill:#5d3c2d;stroke:black;stroke-width:1;fill-opacity:1;stroke-opacity:0.3" />
<rect x="592" y="154" width="58" height="5" style="fill:#5d3c2d;stroke:black;stroke-width:1;fill-opacity:1;stroke-opacity:0.3" />
<line x1="570" y1="65" x2="578" y2="67" stroke="black" stroke-width="1" />
<line x1="578" y1="67" x2="586" y2="65" stroke="black" stroke-width="1" />
<rect x="235" y="63" width="39" height="5" style="fill:#5d3c2d;stroke:black;stroke-width:1;fill-opacity:1;stroke-opacity:0.3" />
<line x1="274" y1="65" x2="551" y2="65" stroke="pink" stroke-width="1" />
<rect x="551" y="63" width="19" height="5" style="fill:#5d3c2d;stroke:black;stroke-width:1;fill-opacity:1;stroke-opacity:0.3" />
<rect x="586" y="63" width="57" height="5" style="fill:#5d3c2d;stroke:black;stroke-width:1;fill-opacity:1;stroke-opacity:0.3" />
<line x1="576" y1="44" x2="579" y2="46" stroke="black" stroke-width="1" />
<line x1="579" y1="46" x2="583" y2="44" stroke="black" stroke-width="1" />
<rect x="241" y="42" width="33" height="5" style="fill:#5d3c2d;stroke:black;stroke-width:1;fill-opacity:1;stroke-opacity:0.3" />
<line x1="274" y1="44" x2="551" y2="44" stroke="pink" stroke-width="1" />
<rect x="551" y="42" width="25" height="5" style="fill:#5d3c2d;stroke:black;stroke-width:1;fill-opacity:1;stroke-opacity:0.3" />
<rect x="583" y="42" width="58" height="5" style="fill:#5d3c2d;stroke:black;stroke-width:1;fill-opacity:1;stroke-opacity:0.3" />
<line x1="642" y1="58" x2="645" y2="60" stroke="black" stroke-width="1" />
<line x1="645" y1="60" x2="648" y2="58" stroke="black" stroke-width="1" />
<rect x="583" y="56" width="58" height="5" style="fill:#5d3c2d;stroke:black;stroke-width:1;fill-opacity:1;stroke-opacity:0.3" />
<rect x="648" y="56" width="58" height="5" style="fill:#5d3c2d;stroke:black;stroke-width:1;fill-opacity:1;stroke-opacity:0.3" />
<line x1="657" y1="37" x2="663" y2="39" stroke="black" stroke-width="1" />
<line x1="663" y1="39" x2="669" y2="37" stroke="black" stroke-width="1" />
<rect x="599" y="35" width="58" height="5" style="fill:#5d3c2d;stroke:black;stroke-width:1;fill-opacity:1;stroke-opacity:0.3" />
<rect x="669" y="35" width="58" height="5" style="fill:#5d3c2d;stroke:black;stroke-width:1;fill-opacity:1;stroke-opacity:0.3" />
<line x1="657" y1="121" x2="663" y2="123" stroke="black" stroke-width="1" />
<line x1="663" y1="123" x2="669" y2="121" stroke="black" stroke-width="1" />
<rect x="599" y="119" width="58" height="5" style="fill:#5d3c2d;stroke:black;stroke-width:1;fill-opacity:1;stroke-opacity:0.3" />
<rect x="669" y="119" width="58" height="5" style="fill:#5d3c2d;stroke:black;stroke-width:1;fill-opacity:1;stroke-opacity:0.3" />
<line x1="694" y1="72" x2="702" y2="74" stroke="black" stroke-width="1" />
<line x1="702" y1="74" x2="711" y2="72" stroke="black" stroke-width="1" />
<rect x="606" y="70" width="88" height="5" style="fill:#5d3c2d;stroke:black;stroke-width:1;fill-opacity:1;stroke-opacity:0.3" />
<rect x="711" y="70" width="88" height="5" style="fill:#5d3c2d;stroke:black;stroke-width:1;fill-opacity:1;stroke-opacity:0.3" />
<line x1="696" y1="86" x2="703" y2="88" stroke="black" stroke-width="1" />
<line x1="703" y1="88" x2="710" y2="86" stroke="black" stroke-width="1" />
<rect x="607" y="84" width="88" height="5" style="fill:#5d3c2d;stroke:black;stroke-width:1;fill-opacity:1;stroke-opacity:0.3" />
<rect x="710" y="84" width="88" height="5" style="fill:#5d3c2d;stroke:black;stroke-width:1;fill-opacity:1;stroke-opacity:0.3" />
<line x1="671" y1="100" x2="674" y2="102" stroke="black" stroke-width="1" />
<line x1="674" y1="102" x2="677" y2="100" stroke="black" stroke-width="1" />
<rect x="613" y="98" width="58" height="5" style="fill:#5d3c2d;stroke:black;stroke-width:1;fill-opacity:1;stroke-opacity:0.3" />
<rect x="677" y="98" width="58" height="5" style="fill:#5d3c2d;stroke:black;stroke-width:1;fill-opacity:1;stroke-opacity:0.3" />
<line x1="701" y1="149" x2="706" y2="151" stroke="black" stroke-width="1" />
<line x1="706" y1="151" x2="711" y2="149" stroke="black" stroke-width="1" />
<rect x="613" y="147" width="88" height="5" style="fill:#5d3c2d;stroke:black;stroke-width:1;fill-opacity:1;stroke-opacity:0.3" />
<rect x="711" y="147" width="88" height="5" style="fill:#5d3c2d;stroke:black;stroke-width:1;fill-opacity:1;stroke-opacity:0.3" />
<line x1="673" y1="135" x2="687" y2="137" stroke="black" stroke-width="1" />
<line x1="687" y1="137" x2="701" y2="135" stroke="black" stroke-width="1" />
<rect x="615" y="133" width="58" height="5" style="fill:#5d3c2d;stroke:black;stroke-width:1;fill-opacity:1;stroke-opacity:0.3" />
<rect x="701" y="133" width="58" height="5" style="fill:#5d3c2d;stroke:black;stroke-width:1;fill-opacity:1;stroke-opacity:0.3" />
<line x1="674" y1="107" x2="690" y2="109" stroke="black" stroke-width="1" />
<line x1="690" y1="109" x2="707" y2="107" stroke="black" stroke-width="1" />
<rect x="616" y="105" width="58" height="5" style="fill:#5d3c2d;stroke:black;stroke-width:1;fill-opacity:1;stroke-opacity:0.3" />
<rect x="707" y="105" width="58" height="5" style="fill:#5d3c2d;stroke:black;stroke-width:1;fill-opacity:1;stroke-opacity:0.3" />
<line x1="676" y1="114" x2="688" y2="116" stroke="black" stroke-width="1" />
<line x1="688" y1="116" x2="701" y2="114" stroke="black" stroke-width="1" />
<rect x="617" y="112" width="58" height="5" style="fill:#f5b024;stroke:black;stroke-width:1;fill-opacity:1;stroke-opacity:0.3" />
<rect x="701" y="112" width="58" height="5" style="fill:#f5b024;stroke:black;stroke-width:1;fill-opacity:1;stroke-opacity:0.3" />
<line x1="677" y1="128" x2="683" y2="130" stroke="black" stroke-width="1" />
<line x1="683" y1="130" x2="690" y2="128" stroke="black" stroke-width="1" />
<rect x="618" y="126" width="58" height="5" style="fill:#5d3c2d;stroke:black;stroke-width:1;fill-opacity:1;stroke-opacity:0.3" />
<rect x="690" y="126" width="58" height="5" style="fill:#5d3c2d;stroke:black;stroke-width:1;fill-opacity:1;stroke-opacity:0.3" />
<line x1="680" y1="93" x2="691" y2="95" stroke="black" stroke-width="1" />
<line x1="691" y1="95" x2="702" y2="93" stroke="black" stroke-width="1" />
<rect x="622" y="91" width="58" height="5" style="fill:#5d3c2d;stroke:black;stroke-width:1;fill-opacity:1;stroke-opacity:0.3" />
<rect x="702" y="91" width="58" height="5" style="fill:#5d3c2d;stroke:black;stroke-width:1;fill-opacity:1;stroke-opacity:0.3" />
<line x1="681" y1="142" x2="688" y2="144" stroke="black" stroke-width="1" />
<line x1="688" y1="144" x2="696" y2="142" stroke="black" stroke-width="1" />
<rect x="622" y="140" width="58" height="5" style="fill:#5d3c2d;stroke:black;stroke-width:1;fill-opacity:1;stroke-opacity:0.3" />
<rect x="696" y="140" width="49" height="5" style="fill:#5d3c2d;stroke:black;stroke-width:1;fill-opacity:1;stroke-opacity:0.3" />
<line x1="681" y1="163" x2="686" y2="165" stroke="black" stroke-width="1" />
<line x1="686" y1="165" x2="691" y2="163" stroke="black" stroke-width="1" />
<rect x="622" y="161" width="58" height="5" style="fill:#5d3c2d;stroke:black;stroke-width:1;fill-opacity:1;stroke-opacity:0.3" />
<rect x="691" y="161" width="58" height="5" style="fill:#5d3c2d;stroke:black;stroke-width:1;fill-opacity:1;stroke-opacity:0.3" />
<line x1="697" y1="79" x2="708" y2="81" stroke="black" stroke-width="1" />
<line x1="708" y1="81" x2="720" y2="79" stroke="black" stroke-width="1" />
<rect x="641" y="77" width="56" height="5" style="fill:#f5b024;stroke:black;stroke-width:1;fill-opacity:1;stroke-opacity:0.3" />
<rect x="720" y="77" width="58" height="5" style="fill:#f5b024;stroke:black;stroke-width:1;fill-opacity:1;stroke-opacity:0.3" />
<line x1="700" y1="44" x2="710" y2="46" stroke="black" stroke-width="1" />
<line x1="710" y1="46" x2="720" y2="44" stroke="black" stroke-width="1" />
<rect x="642" y="42" width="58" height="5" style="fill:#f5b024;stroke:black;stroke-width:1;fill-opacity:1;stroke-opacity:0.3" />
<rect x="720" y="42" width="58" height="5" style="fill:#f5b024;stroke:black;stroke-width:1;fill-opacity:1;stroke-opacity:0.3" />
<line x1="703" y1="65" x2="715" y2="67" stroke="black" stroke-width="1" />
<line x1="715" y1="67" x2="728" y2="65" stroke="black" stroke-width="1" />
<rect x="644" y="63" width="58" height="5" style="fill:#5d3c2d;stroke:black;stroke-width:1;fill-opacity:1;stroke-opacity:0.3" />
<rect x="728" y="63" width="58" height="5" style="fill:#5d3c2d;stroke:black;stroke-width:1;fill-opacity:1;stroke-opacity:0.3" />
<line x1="709" y1="51" x2="718" y2="53" stroke="black" stroke-width="1" />
<line x1="718" y1="53" x2="727" y2="51" stroke="black" stroke-width="1" />
<rect x="653" y="49" width="55" height="5" style="fill:#5d3c2d;stroke:black;stroke-width:1;fill-opacity:1;stroke-opacity:0.3" />
<rect x="727" y="49" width="58" height="5" style="fill:#5d3c2d;stroke:black;stroke-width:1;fill-opacity:1;stroke-opacity:0.3" />
<line x1="712" y1="156" x2="716" y2="158" stroke="black" stroke-width="1" />
<line x1="716" y1="158" x2="721" y2="156" stroke="black" stroke-width="1" />
<rect x="653" y="154" width="58" height="5" style="fill:#5d3c2d;stroke:black;stroke-width:1;fill-opacity:1;stroke-opacity:0.3" />
<rect x="721" y="154" width="58" height="5" style="fill:#5d3c2d;stroke:black;stroke-width:1;fill-opacity:1;stroke-opacity:0.3" />
<line x1="743" y1="30" x2="748" y2="32" stroke="black" stroke-width="1" />
<line x1="748" y1="32" x2="754" y2="30" stroke="black" stroke-width="1" />
<rect x="684" y="28" width="58" height="5" style="fill:#f5b024;stroke:black;stroke-width:1;fill-opacity:1;stroke-opacity:0.3" />
<rect x="754" y="28" width="58" height="5" style="fill:#f5b024;stroke:black;stroke-width:1;fill-opacity:1;stroke-opacity:0.3" />
<line x1="765" y1="58" x2="770" y2="60" stroke="black" stroke-width="1" />
<line x1="770" y1="60" x2="775" y2="58" stroke="black" stroke-width="1" />
<rect x="707" y="56" width="58" height="5" style="fill:#5d3c2d;stroke:black;stroke-width:1;fill-opacity:1;stroke-opacity:0.3" />
<rect x="775" y="56" width="58" height="5" style="fill:#5d3c2d;stroke:black;stroke-width:1;fill-opacity:1;stroke-opacity:0.3" />
<line x1="787" y1="37" x2="801" y2="39" stroke="black" stroke-width="1" />
<line x1="801" y1="39" x2="816" y2="37" stroke="black" stroke-width="1" />
<rect x="728" y="35" width="58" height="5" style="fill:#5d3c2d;stroke:black;stroke-width:1;fill-opacity:1;stroke-opacity:0.3" />
<rect x="816" y="35" width="58" height="5" style="fill:#5d3c2d;stroke:black;stroke-width:1;fill-opacity:1;stroke-opacity:0.3" />
<line x1="785" y1="121" x2="790" y2="123" stroke="black" stroke-width="1" />
<line x1="790" y1="123" x2="796" y2="121" stroke="black" stroke-width="1" />
<rect x="730" y="119" width="55" height="5" style="fill:#5d3c2d;stroke:black;stroke-width:1;fill-opacity:1;stroke-opacity:0.3" />
<rect x="796" y="119" width="58" height="5" style="fill:#5d3c2d;stroke:black;stroke-width:1;fill-opacity:1;stroke-opacity:0.3" />
<line x1="795" y1="100" x2="800" y2="102" stroke="black" stroke-width="1" />
<line x1="800" y1="102" x2="805" y2="100" stroke="black" stroke-width="1" />
<rect x="736" y="98" width="58" height="5" style="fill:#5d3c2d;stroke:black;stroke-width:1;fill-opacity:1;stroke-opacity:0.3" />
<rect x="805" y="98" width="56" height="5" style="fill:#5d3c2d;stroke:black;stroke-width:1;fill-opacity:1;stroke-opacity:0.3" />
<line x1="861" y1="100" x2="1691" y2="100" stroke="pink" stroke-width="1" />
<rect x="1691" y="98" width="2" height="5" style="fill:#5d3c2d;stroke:black;stroke-width:1;fill-opacity:1;stroke-opacity:0.3" />
<line x1="805" y1="142" x2="811" y2="144" stroke="black" stroke-width="1" />
<line x1="811" y1="144" x2="817" y2="142" stroke="black" stroke-width="1" />
<rect x="746" y="140" width="58" height="5" style="fill:#5d3c2d;stroke:black;stroke-width:1;fill-opacity:1;stroke-opacity:0.3" />
<rect x="817" y="140" width="58" height="5" style="fill:#5d3c2d;stroke:black;stroke-width:1;fill-opacity:1;stroke-opacity:0.3" />
<line x1="808" y1="128" x2="812" y2="130" stroke="black" stroke-width="1" />
<line x1="812" y1="130" x2="816" y2="128" stroke="black" stroke-width="1" />
<rect x="749" y="126" width="58" height="5" style="fill:#5d3c2d;stroke:black;stroke-width:1;fill-opacity:1;stroke-opacity:0.3" />
<rect x="816" y="126" width="58" height="5" style="fill:#5d3c2d;stroke:black;stroke-width:1;fill-opacity:1;stroke-opacity:0.3" />
<line x1="809" y1="163" x2="812" y2="165" stroke="black" stroke-width="1" />
<line x1="812" y1="165" x2="816" y2="163" stroke="black" stroke-width="1" />
<rect x="750" y="161" width="58" height="5" style="fill:#5d3c2d;stroke:black;stroke-width:1;fill-opacity:1;stroke-opacity:0.3" />
<rect x="816" y="161" width="58" height="5" style="fill:#5d3c2d;stroke:black;stroke-width:1;fill-opacity:1;stroke-opacity:0.3" />
<line x1="820" y1="93" x2="823" y2="95" stroke="black" stroke-width="1" />
<line x1="823" y1="95" x2="826" y2="93" stroke="black" stroke-width="1" />
<rect x="761" y="91" width="58" height="5" style="fill:#5d3c2d;stroke:black;stroke-width:1;fill-opacity:1;stroke-opacity:0.3" />
<rect x="826" y="91" width="58" height="5" style="fill:#5d3c2d;stroke:black;stroke-width:1;fill-opacity:1;stroke-opacity:0.3" />
<line x1="809" y1="114" x2="813" y2="116" stroke="black" stroke-width="1" />
<line x1="813" y1="116" x2="818" y2="114" stroke="black" stroke-width="1" />
<rect x="761" y="112" width="48" height="5" style="fill:#f5b024;stroke:black;stroke-width:1;fill-opacity:1;stroke-opacity:0.3" />
<rect x="818" y="112" width="58" height="5" style="fill:#f5b024;stroke:black;stroke-width:1;fill-opacity:1;stroke-opacity:0.3" />
<line x1="820" y1="135" x2="828" y2="137" stroke="black" stroke-width="1" />
<line x1="828" y1="137" x2="837" y2="135" stroke="black" stroke-width="1" />
<rect x="761" y="133" width="58" height="5" style="fill:#5d3c2d;stroke:black;stroke-width:1;fill-opacity:1;stroke-opacity:0.3" />
<rect x="837" y="133" width="58" height="5" style="fill:#5d3c2d;stroke:black;stroke-width:1;fill-opacity:1;stroke-opacity:0.3" />
<line x1="824" y1="107" x2="830" y2="109" stroke="black" stroke-width="1" />
<line x1="830" y1="109" x2="837" y2="107" stroke="black" stroke-width="1" />
<rect x="765" y="105" width="58" height="5" style="fill:#f5b024;stroke:black;stroke-width:1;fill-opacity:1;stroke-opacity:0.3" />
<rect x="837" y="105" width="58" height="5" style="fill:#f5b024;stroke:black;stroke-width:1;fill-opacity:1;stroke-opacity:0.3" />
<line x1="840" y1="44" x2="855" y2="46" stroke="black" stroke-width="1" />
<line x1="855" y1="46" x2="871" y2="44" stroke="black" stroke-width="1" />
<rect x="782" y="42" width="58" height="5" style="fill:#f5b024;stroke:black;stroke-width:1;fill-opacity:1;stroke-opacity:0.3" />
<rect x="871" y="42" width="56" height="5" style="fill:#f5b024;stroke:black;stroke-width:1;fill-opacity:1;stroke-opacity:0.3" />
<line x1="927" y1="44" x2="1683" y2="44" stroke="pink" stroke-width="1" />
<rect x="1683" y="42" width="1" height="5" style="fill:#f5b024;stroke:black;stroke-width:1;fill-opacity:1;stroke-opacity:0.3" />
<line x1="840" y1="79" x2="848" y2="81" stroke="black" stroke-width="1" />
<line x1="848" y1="81" x2="857" y2="79" stroke="black" stroke-width="1" />
<rect x="782" y="77" width="58" height="5" style="fill:#5d3c2d;stroke:black;stroke-width:1;fill-opacity:1;stroke-opacity:0.3" />
<rect x="857" y="77" width="3" height="5" style="fill:#5d3c2d;stroke:black;stroke-width:1;fill-opacity:1;stroke-opacity:0.3" />
<line x1="861" y1="79" x2="1691" y2="79" stroke="pink" stroke-width="1" />
<rect x="1691" y="77" width="55" height="5" style="fill:#5d3c2d;stroke:black;stroke-width:1;fill-opacity:1;stroke-opacity:0.3" />
<line x1="841" y1="156" x2="850" y2="158" stroke="black" stroke-width="1" />
<line x1="850" y1="158" x2="859" y2="156" stroke="black" stroke-width="1" />
<rect x="782" y="154" width="58" height="5" style="fill:#5d3c2d;stroke:black;stroke-width:1;fill-opacity:1;stroke-opacity:0.3" />
<rect x="859" y="154" width="1" height="5" style="fill:#5d3c2d;stroke:black;stroke-width:1;fill-opacity:1;stroke-opacity:0.3" />
<line x1="861" y1="156" x2="1691" y2="156" stroke="pink" stroke-width="1" />
<rect x="1691" y="154" width="56" height="5" style="fill:#5d3c2d;stroke:black;stroke-width:1;fill-opacity:1;stroke-opacity:0.3" />
<line x1="844" y1="51" x2="850" y2="53" stroke="black" stroke-width="1" />
<line x1="850" y1="53" x2="857" y2="51" stroke="black" stroke-width="1" />
<rect x="785" y="49" width="58" height="5" style="fill:#5d3c2d;stroke:black;stroke-width:1;fill-opacity:1;stroke-opacity:0.3" />
<rect x="857" y="49" width="4" height="5" style="fill:#5d3c2d;stroke:black;stroke-width:1;fill-opacity:1;stroke-opacity:0.3" />
<line x1="861" y1="51" x2="1691" y2="51" stroke="pink" stroke-width="1" />
<rect x="1691" y="49" width="54" height="5" style="fill:#5d3c2d;stroke:black;stroke-width:1;fill-opacity:1;stroke-opacity:0.3" />
<line x1="845" y1="65" x2="852" y2="67" stroke="black" stroke-width="1" />
<line x1="852" y1="67" x2="859" y2="65" stroke="black" stroke-width="1" />
<rect x="786" y="63" width="58" height="5" style="fill:#5d3c2d;stroke:black;stroke-width:1;fill-opacity:1;stroke-opacity:0.3" />
<rect x="859" y="63" width="2" height="5" style="fill:#5d3c2d;stroke:black;stroke-width:1;fill-opacity:1;stroke-opacity:0.3" />
<line x1="861" y1="65" x2="1691" y2="65" stroke="pink" stroke-width="1" />
<rect x="1691" y="63" width="55" height="5" style="fill:#5d3c2d;stroke:black;stroke-width:1;fill-opacity:1;stroke-opacity:0.3" />
<line x1="860" y1="72" x2="872" y2="74" stroke="black" stroke-width="1" />
<line x1="872" y1="74" x2="885" y2="72" stroke="black" stroke-width="1" />
<rect x="801" y="70" width="58" height="5" style="fill:#5d3c2d;stroke:black;stroke-width:1;fill-opacity:1;stroke-opacity:0.3" />
<rect x="885" y="70" width="57" height="5" style="fill:#5d3c2d;stroke:black;stroke-width:1;fill-opacity:1;stroke-opacity:0.3" />
<line x1="860" y1="86" x2="870" y2="88" stroke="black" stroke-width="1" />
<line x1="870" y1="88" x2="880" y2="86" stroke="black" stroke-width="1" />
<rect x="801" y="84" width="58" height="5" style="fill:#5d3c2d;stroke:black;stroke-width:1;fill-opacity:1;stroke-opacity:0.3" />
<rect x="880" y="84" width="58" height="5" style="fill:#5d3c2d;stroke:black;stroke-width:1;fill-opacity:1;stroke-opacity:0.3" />
<line x1="867" y1="149" x2="872" y2="151" stroke="black" stroke-width="1" />
<line x1="872" y1="151" x2="877" y2="149" stroke="black" stroke-width="1" />
<rect x="808" y="147" width="58" height="5" style="fill:#5d3c2d;stroke:black;stroke-width:1;fill-opacity:1;stroke-opacity:0.3" />
<rect x="877" y="147" width="58" height="5" style="fill:#5d3c2d;stroke:black;stroke-width:1;fill-opacity:1;stroke-opacity:0.3" />
<line x1="890" y1="30" x2="896" y2="32" stroke="black" stroke-width="1" />
<line x1="896" y1="32" x2="902" y2="30" stroke="black" stroke-width="1" />
<rect x="832" y="28" width="58" height="5" style="fill:#5d3c2d;stroke:black;stroke-width:1;fill-opacity:1;stroke-opacity:0.3" />
<rect x="902" y="28" width="16" height="5" style="fill:#5d3c2d;stroke:black;stroke-width:1;fill-opacity:1;stroke-opacity:0.3" />
<rect x="919" y="28" width="42" height="5" style="fill:#5d3c2d;stroke:black;stroke-width:1;fill-opacity:1;stroke-opacity:0.3" />
<line x1="894" y1="58" x2="899" y2="60" stroke="black" stroke-width="1" />
<line x1="899" y1="60" x2="905" y2="58" stroke="black" stroke-width="1" />
<rect x="836" y="56" width="58" height="5" style="fill:#5d3c2d;stroke:black;stroke-width:1;fill-opacity:1;stroke-opacity:0.3" />
<rect x="905" y="56" width="22" height="5" style="fill:#5d3c2d;stroke:black;stroke-width:1;fill-opacity:1;stroke-opacity:0.3" />
<line x1="927" y1="58" x2="1683" y2="58" stroke="pink" stroke-width="1" />
<rect x="1683" y="56" width="36" height="5" style="fill:#5d3c2d;stroke:black;stroke-width:1;fill-opacity:1;stroke-opacity:0.3" />
<text x="15"  y="176" style="font-family:Arial;font-size:10;stroke:black;fill:black;">all.merged.bam</text>
</svg>
    
