<?xml version="1.0" encoding="utf-8" standalone="no"?>
<!DOCTYPE svg PUBLIC "-//W3C//DTD SVG 1.1//EN"
  "http://www.w3.org/Graphics/SVG/1.1/DTD/svg11.dtd">
<svg height="1140" width="1000" version="1.1" viewBox="0 0 1000 1140" xmlns="http://www.w3.org/2000/svg" xmlns:xlink="http://www.w3.org/1999/xlink">
<line x1="35" y1="11" x2="964" y2="11" stroke="black" stroke-width="1" />
<rect x="35" y="9" width="146" height="5" style="fill:#f50002;stroke:black;stroke-width:1;fill-opacity:1;stroke-opacity:0.3" />
<rect x="182" y="9" width="160" height="5" style="fill:#53a1b5;stroke:black;stroke-width:1;fill-opacity:1;stroke-opacity:0.3" />
<rect x="406" y="9" width="472" height="5" style="fill:#53a1b5;stroke:black;stroke-width:1;fill-opacity:1;stroke-opacity:0.3" />
<rect x="879" y="9" width="84" height="5" style="fill:#f50002;stroke:black;stroke-width:1;fill-opacity:1;stroke-opacity:0.3" />
<text x="35"  y="23" style="font-family:Arial;font-size:10;stroke:black;fill:black;">Cre02.g095041.t1.1.v5.5 (-) chromosome_2:3008150-3010785</text>
<line x1="265" y1="30" x2="268" y2="32" stroke="black" stroke-width="1" />
<line x1="268" y1="32" x2="271" y2="30" stroke="black" stroke-width="1" />
<rect x="230" y="28" width="35" height="5" style="fill:#f5b024;stroke:black;stroke-width:1;fill-opacity:1;stroke-opacity:0.3" />
<rect x="271" y="28" width="35" height="5" style="fill:#f5b024;stroke:black;stroke-width:1;fill-opacity:1;stroke-opacity:0.3" />
<line x1="483" y1="30" x2="489" y2="32" stroke="black" stroke-width="1" />
<line x1="489" y1="32" x2="495" y2="30" stroke="black" stroke-width="1" />
<rect x="430" y="28" width="52" height="5" style="fill:#f5b024;stroke:black;stroke-width:1;fill-opacity:1;stroke-opacity:0.3" />
<rect x="495" y="28" width="52" height="5" style="fill:#f5b024;stroke:black;stroke-width:1;fill-opacity:1;stroke-opacity:0.3" />
<line x1="487" y1="37" x2="497" y2="39" stroke="black" stroke-width="1" />
<line x1="497" y1="39" x2="508" y2="37" stroke="black" stroke-width="1" />
<rect x="452" y="35" width="35" height="5" style="fill:#f5b024;stroke:black;stroke-width:1;fill-opacity:1;stroke-opacity:0.3" />
<rect x="508" y="35" width="35" height="5" style="fill:#f5b024;stroke:black;stroke-width:1;fill-opacity:1;stroke-opacity:0.3" />
<line x1="576" y1="44" x2="584" y2="46" stroke="black" stroke-width="1" />
<line x1="584" y1="46" x2="593" y2="44" stroke="black" stroke-width="1" />
<rect x="540" y="42" width="35" height="5" style="fill:#f5b024;stroke:black;stroke-width:1;fill-opacity:1;stroke-opacity:0.3" />
<rect x="593" y="42" width="35" height="5" style="fill:#f5b024;stroke:black;stroke-width:1;fill-opacity:1;stroke-opacity:0.3" />
<line x1="590" y1="30" x2="599" y2="32" stroke="black" stroke-width="1" />
<line x1="599" y1="32" x2="608" y2="30" stroke="black" stroke-width="1" />
<rect x="555" y="28" width="35" height="5" style="fill:#f5b024;stroke:black;stroke-width:1;fill-opacity:1;stroke-opacity:0.3" />
<rect x="608" y="28" width="35" height="5" style="fill:#f5b024;stroke:black;stroke-width:1;fill-opacity:1;stroke-opacity:0.3" />
<line x1="653" y1="37" x2="658" y2="39" stroke="black" stroke-width="1" />
<line x1="658" y1="39" x2="664" y2="37" stroke="black" stroke-width="1" />
<rect x="617" y="35" width="35" height="5" style="fill:#f5b024;stroke:black;stroke-width:1;fill-opacity:1;stroke-opacity:0.3" />
<rect x="664" y="35" width="35" height="5" style="fill:#f5b024;stroke:black;stroke-width:1;fill-opacity:1;stroke-opacity:0.3" />
<line x1="776" y1="30" x2="779" y2="32" stroke="black" stroke-width="1" />
<line x1="779" y1="32" x2="782" y2="30" stroke="black" stroke-width="1" />
<rect x="741" y="28" width="35" height="5" style="fill:#f5b024;stroke:black;stroke-width:1;fill-opacity:1;stroke-opacity:0.3" />
<rect x="782" y="28" width="35" height="5" style="fill:#f5b024;stroke:black;stroke-width:1;fill-opacity:1;stroke-opacity:0.3" />
<line x1="895" y1="30" x2="899" y2="32" stroke="black" stroke-width="1" />
<line x1="899" y1="32" x2="904" y2="30" stroke="black" stroke-width="1" />
<rect x="860" y="28" width="35" height="5" style="fill:#f5b024;stroke:black;stroke-width:1;fill-opacity:1;stroke-opacity:0.3" />
<rect x="904" y="28" width="35" height="5" style="fill:#f5b024;stroke:black;stroke-width:1;fill-opacity:1;stroke-opacity:0.3" />
<text x="15"  y="176" style="font-family:Arial;font-size:10;stroke:black;fill:black;">all.merged.bam</text>
</svg>
    
