<?xml version="1.0" encoding="utf-8" standalone="no"?>
<!DOCTYPE svg PUBLIC "-//W3C//DTD SVG 1.1//EN"
  "http://www.w3.org/Graphics/SVG/1.1/DTD/svg11.dtd">
<svg height="1140" width="1000" version="1.1" viewBox="0 0 1000 1140" xmlns="http://www.w3.org/2000/svg" xmlns:xlink="http://www.w3.org/1999/xlink">
<line x1="47" y1="11" x2="952" y2="11" stroke="black" stroke-width="1" />
<rect x="47" y="9" width="31" height="5" style="fill:#f50002;stroke:black;stroke-width:1;fill-opacity:1;stroke-opacity:0.3" />
<rect x="78" y="9" width="298" height="5" style="fill:#53a1b5;stroke:black;stroke-width:1;fill-opacity:1;stroke-opacity:0.3" />
<rect x="377" y="9" width="574" height="5" style="fill:#f50002;stroke:black;stroke-width:1;fill-opacity:1;stroke-opacity:0.3" />
<text x="47"  y="23" style="font-family:Arial;font-size:10;stroke:black;fill:black;">Cre08.g365065.t2.1.v5.5 (+) chromosome_8:1611201-1613125</text>
<line x1="381" y1="30" x2="401" y2="32" stroke="black" stroke-width="1" />
<line x1="401" y1="32" x2="422" y2="30" stroke="black" stroke-width="1" />
<rect x="334" y="28" width="47" height="5" style="fill:#5d3c2d;stroke:black;stroke-width:1;fill-opacity:1;stroke-opacity:0.3" />
<rect x="422" y="28" width="47" height="5" style="fill:#5d3c2d;stroke:black;stroke-width:1;fill-opacity:1;stroke-opacity:0.3" />
<line x1="506" y1="37" x2="514" y2="39" stroke="black" stroke-width="1" />
<line x1="514" y1="39" x2="522" y2="37" stroke="black" stroke-width="1" />
<rect x="459" y="35" width="47" height="5" style="fill:#5d3c2d;stroke:black;stroke-width:1;fill-opacity:1;stroke-opacity:0.3" />
<rect x="522" y="35" width="47" height="5" style="fill:#5d3c2d;stroke:black;stroke-width:1;fill-opacity:1;stroke-opacity:0.3" />
<line x1="506" y1="44" x2="514" y2="46" stroke="black" stroke-width="1" />
<line x1="514" y1="46" x2="522" y2="44" stroke="black" stroke-width="1" />
<rect x="459" y="42" width="47" height="5" style="fill:#5d3c2d;stroke:black;stroke-width:1;fill-opacity:1;stroke-opacity:0.3" />
<rect x="522" y="42" width="47" height="5" style="fill:#5d3c2d;stroke:black;stroke-width:1;fill-opacity:1;stroke-opacity:0.3" />
<line x1="567" y1="30" x2="572" y2="32" stroke="black" stroke-width="1" />
<line x1="572" y1="32" x2="578" y2="30" stroke="black" stroke-width="1" />
<rect x="520" y="28" width="47" height="5" style="fill:#5d3c2d;stroke:black;stroke-width:1;fill-opacity:1;stroke-opacity:0.3" />
<rect x="578" y="28" width="47" height="5" style="fill:#5d3c2d;stroke:black;stroke-width:1;fill-opacity:1;stroke-opacity:0.3" />
<text x="15"  y="176" style="font-family:Arial;font-size:10;stroke:black;fill:black;">all.merged.bam</text>
</svg>
    
