<?xml version="1.0" encoding="utf-8" standalone="no"?>
<!DOCTYPE svg PUBLIC "-//W3C//DTD SVG 1.1//EN"
  "http://www.w3.org/Graphics/SVG/1.1/DTD/svg11.dtd">
<svg height="1140" width="1000" version="1.1" viewBox="0 0 1000 1140" xmlns="http://www.w3.org/2000/svg" xmlns:xlink="http://www.w3.org/1999/xlink">
<line x1="54" y1="11" x2="945" y2="11" stroke="black" stroke-width="1" />
<rect x="54" y="9" width="237" height="5" style="fill:#f50002;stroke:black;stroke-width:1;fill-opacity:1;stroke-opacity:0.3" />
<rect x="292" y="9" width="2" height="5" style="fill:#53a1b5;stroke:black;stroke-width:1;fill-opacity:1;stroke-opacity:0.3" />
<rect x="390" y="9" width="106" height="5" style="fill:#53a1b5;stroke:black;stroke-width:1;fill-opacity:1;stroke-opacity:0.3" />
<rect x="591" y="9" width="72" height="5" style="fill:#53a1b5;stroke:black;stroke-width:1;fill-opacity:1;stroke-opacity:0.3" />
<rect x="818" y="9" width="69" height="5" style="fill:#53a1b5;stroke:black;stroke-width:1;fill-opacity:1;stroke-opacity:0.3" />
<rect x="888" y="9" width="56" height="5" style="fill:#f50002;stroke:black;stroke-width:1;fill-opacity:1;stroke-opacity:0.3" />
<text x="54"  y="23" style="font-family:Arial;font-size:10;stroke:black;fill:black;">Cre05.g238270.t1.1.v5.5 (-) chromosome_5:2949804-2951449</text>
<line x1="72" y1="30" x2="75" y2="32" stroke="black" stroke-width="1" />
<line x1="75" y1="32" x2="78" y2="30" stroke="black" stroke-width="1" />
<rect x="17" y="28" width="54" height="5" style="fill:#f5b024;stroke:black;stroke-width:1;fill-opacity:1;stroke-opacity:0.3" />
<rect x="78" y="28" width="54" height="5" style="fill:#f5b024;stroke:black;stroke-width:1;fill-opacity:1;stroke-opacity:0.3" />
<line x1="123" y1="37" x2="128" y2="39" stroke="black" stroke-width="1" />
<line x1="128" y1="39" x2="133" y2="37" stroke="black" stroke-width="1" />
<rect x="69" y="35" width="54" height="5" style="fill:#f5b024;stroke:black;stroke-width:1;fill-opacity:1;stroke-opacity:0.3" />
<rect x="133" y="35" width="54" height="5" style="fill:#f5b024;stroke:black;stroke-width:1;fill-opacity:1;stroke-opacity:0.3" />
<line x1="151" y1="44" x2="170" y2="46" stroke="black" stroke-width="1" />
<line x1="170" y1="46" x2="189" y2="44" stroke="black" stroke-width="1" />
<rect x="96" y="42" width="54" height="5" style="fill:#f5b024;stroke:black;stroke-width:1;fill-opacity:1;stroke-opacity:0.3" />
<rect x="189" y="42" width="54" height="5" style="fill:#f5b024;stroke:black;stroke-width:1;fill-opacity:1;stroke-opacity:0.3" />
<line x1="435" y1="30" x2="439" y2="32" stroke="black" stroke-width="1" />
<line x1="439" y1="32" x2="443" y2="30" stroke="black" stroke-width="1" />
<rect x="389" y="28" width="46" height="5" style="fill:#f5b024;stroke:black;stroke-width:1;fill-opacity:1;stroke-opacity:0.3" />
<rect x="443" y="28" width="54" height="5" style="fill:#f5b024;stroke:black;stroke-width:1;fill-opacity:1;stroke-opacity:0.3" />
<line x1="436" y1="37" x2="439" y2="39" stroke="black" stroke-width="1" />
<line x1="439" y1="39" x2="443" y2="37" stroke="black" stroke-width="1" />
<rect x="389" y="35" width="46" height="5" style="fill:#f5b024;stroke:black;stroke-width:1;fill-opacity:1;stroke-opacity:0.3" />
<rect x="443" y="35" width="53" height="5" style="fill:#f5b024;stroke:black;stroke-width:1;fill-opacity:1;stroke-opacity:0.3" />
<line x1="644" y1="30" x2="648" y2="32" stroke="black" stroke-width="1" />
<line x1="648" y1="32" x2="653" y2="30" stroke="black" stroke-width="1" />
<rect x="589" y="28" width="54" height="5" style="fill:#f5b024;stroke:black;stroke-width:1;fill-opacity:1;stroke-opacity:0.3" />
<rect x="653" y="28" width="10" height="5" style="fill:#f5b024;stroke:black;stroke-width:1;fill-opacity:1;stroke-opacity:0.3" />
<line x1="664" y1="30" x2="818" y2="30" stroke="pink" stroke-width="1" />
<rect x="818" y="28" width="43" height="5" style="fill:#f5b024;stroke:black;stroke-width:1;fill-opacity:1;stroke-opacity:0.3" />
<line x1="645" y1="37" x2="740" y2="39" stroke="black" stroke-width="1" />
<line x1="740" y1="39" x2="835" y2="37" stroke="black" stroke-width="1" />
<rect x="593" y="35" width="52" height="5" style="fill:#f5b024;stroke:black;stroke-width:1;fill-opacity:1;stroke-opacity:0.3" />
<rect x="835" y="35" width="54" height="5" style="fill:#f5b024;stroke:black;stroke-width:1;fill-opacity:1;stroke-opacity:0.3" />
<line x1="647" y1="44" x2="743" y2="46" stroke="black" stroke-width="1" />
<line x1="743" y1="46" x2="839" y2="44" stroke="black" stroke-width="1" />
<rect x="593" y="42" width="54" height="5" style="fill:#f5b024;stroke:black;stroke-width:1;fill-opacity:1;stroke-opacity:0.3" />
<rect x="839" y="42" width="54" height="5" style="fill:#f5b024;stroke:black;stroke-width:1;fill-opacity:1;stroke-opacity:0.3" />
<line x1="650" y1="51" x2="744" y2="53" stroke="black" stroke-width="1" />
<line x1="744" y1="53" x2="838" y2="51" stroke="black" stroke-width="1" />
<rect x="595" y="49" width="54" height="5" style="fill:#f5b024;stroke:black;stroke-width:1;fill-opacity:1;stroke-opacity:0.3" />
<rect x="838" y="49" width="54" height="5" style="fill:#f5b024;stroke:black;stroke-width:1;fill-opacity:1;stroke-opacity:0.3" />
<line x1="650" y1="58" x2="655" y2="60" stroke="black" stroke-width="1" />
<line x1="655" y1="60" x2="660" y2="58" stroke="black" stroke-width="1" />
<rect x="595" y="56" width="54" height="5" style="fill:#f5b024;stroke:black;stroke-width:1;fill-opacity:1;stroke-opacity:0.3" />
<rect x="660" y="56" width="4" height="5" style="fill:#f5b024;stroke:black;stroke-width:1;fill-opacity:1;stroke-opacity:0.3" />
<line x1="664" y1="58" x2="818" y2="58" stroke="pink" stroke-width="1" />
<rect x="818" y="56" width="49" height="5" style="fill:#f5b024;stroke:black;stroke-width:1;fill-opacity:1;stroke-opacity:0.3" />
<line x1="650" y1="65" x2="735" y2="67" stroke="black" stroke-width="1" />
<line x1="735" y1="67" x2="820" y2="65" stroke="black" stroke-width="1" />
<rect x="595" y="63" width="54" height="5" style="fill:#f5b024;stroke:black;stroke-width:1;fill-opacity:1;stroke-opacity:0.3" />
<rect x="820" y="63" width="54" height="5" style="fill:#f5b024;stroke:black;stroke-width:1;fill-opacity:1;stroke-opacity:0.3" />
<line x1="652" y1="72" x2="743" y2="74" stroke="black" stroke-width="1" />
<line x1="743" y1="74" x2="834" y2="72" stroke="black" stroke-width="1" />
<rect x="598" y="70" width="54" height="5" style="fill:#f5b024;stroke:black;stroke-width:1;fill-opacity:1;stroke-opacity:0.3" />
<rect x="834" y="70" width="54" height="5" style="fill:#f5b024;stroke:black;stroke-width:1;fill-opacity:1;stroke-opacity:0.3" />
<line x1="656" y1="79" x2="658" y2="81" stroke="black" stroke-width="1" />
<line x1="658" y1="81" x2="661" y2="79" stroke="black" stroke-width="1" />
<rect x="602" y="77" width="54" height="5" style="fill:#f5b024;stroke:black;stroke-width:1;fill-opacity:1;stroke-opacity:0.3" />
<rect x="661" y="77" width="2" height="5" style="fill:#f5b024;stroke:black;stroke-width:1;fill-opacity:1;stroke-opacity:0.3" />
<line x1="664" y1="79" x2="818" y2="79" stroke="pink" stroke-width="1" />
<rect x="818" y="77" width="51" height="5" style="fill:#f5b024;stroke:black;stroke-width:1;fill-opacity:1;stroke-opacity:0.3" />
<line x1="819" y1="86" x2="823" y2="88" stroke="black" stroke-width="1" />
<line x1="823" y1="88" x2="827" y2="86" stroke="black" stroke-width="1" />
<rect x="611" y="84" width="53" height="5" style="fill:#f5b024;stroke:black;stroke-width:1;fill-opacity:1;stroke-opacity:0.3" />
<line x1="664" y1="86" x2="818" y2="86" stroke="pink" stroke-width="1" />
<rect x="818" y="84" width="0" height="5" style="fill:#f5b024;stroke:black;stroke-width:1;fill-opacity:1;stroke-opacity:0.3" />
<rect x="827" y="84" width="54" height="5" style="fill:#f5b024;stroke:black;stroke-width:1;fill-opacity:1;stroke-opacity:0.3" />
<line x1="825" y1="93" x2="856" y2="95" stroke="black" stroke-width="1" />
<line x1="856" y1="95" x2="887" y2="93" stroke="black" stroke-width="1" />
<rect x="617" y="91" width="47" height="5" style="fill:#f5b024;stroke:black;stroke-width:1;fill-opacity:1;stroke-opacity:0.3" />
<line x1="664" y1="93" x2="818" y2="93" stroke="pink" stroke-width="1" />
<rect x="818" y="91" width="7" height="5" style="fill:#f5b024;stroke:black;stroke-width:1;fill-opacity:1;stroke-opacity:0.3" />
<rect x="887" y="91" width="54" height="5" style="fill:#f5b024;stroke:black;stroke-width:1;fill-opacity:1;stroke-opacity:0.3" />
<line x1="852" y1="100" x2="863" y2="102" stroke="black" stroke-width="1" />
<line x1="863" y1="102" x2="874" y2="100" stroke="black" stroke-width="1" />
<rect x="644" y="98" width="20" height="5" style="fill:#f5b024;stroke:black;stroke-width:1;fill-opacity:1;stroke-opacity:0.3" />
<line x1="664" y1="100" x2="818" y2="100" stroke="pink" stroke-width="1" />
<rect x="818" y="98" width="34" height="5" style="fill:#f5b024;stroke:black;stroke-width:1;fill-opacity:1;stroke-opacity:0.3" />
<rect x="874" y="98" width="54" height="5" style="fill:#f5b024;stroke:black;stroke-width:1;fill-opacity:1;stroke-opacity:0.3" />
<line x1="854" y1="107" x2="857" y2="109" stroke="black" stroke-width="1" />
<line x1="857" y1="109" x2="861" y2="107" stroke="black" stroke-width="1" />
<rect x="646" y="105" width="18" height="5" style="fill:#f5b024;stroke:black;stroke-width:1;fill-opacity:1;stroke-opacity:0.3" />
<line x1="664" y1="107" x2="818" y2="107" stroke="pink" stroke-width="1" />
<rect x="818" y="105" width="35" height="5" style="fill:#f5b024;stroke:black;stroke-width:1;fill-opacity:1;stroke-opacity:0.3" />
<rect x="861" y="105" width="54" height="5" style="fill:#f5b024;stroke:black;stroke-width:1;fill-opacity:1;stroke-opacity:0.3" />
<line x1="854" y1="114" x2="857" y2="116" stroke="black" stroke-width="1" />
<line x1="857" y1="116" x2="861" y2="114" stroke="black" stroke-width="1" />
<rect x="646" y="112" width="18" height="5" style="fill:#f5b024;stroke:black;stroke-width:1;fill-opacity:1;stroke-opacity:0.3" />
<line x1="664" y1="114" x2="818" y2="114" stroke="pink" stroke-width="1" />
<rect x="818" y="112" width="35" height="5" style="fill:#f5b024;stroke:black;stroke-width:1;fill-opacity:1;stroke-opacity:0.3" />
<rect x="861" y="112" width="54" height="5" style="fill:#f5b024;stroke:black;stroke-width:1;fill-opacity:1;stroke-opacity:0.3" />
<line x1="855" y1="121" x2="870" y2="123" stroke="black" stroke-width="1" />
<line x1="870" y1="123" x2="885" y2="121" stroke="black" stroke-width="1" />
<rect x="647" y="119" width="16" height="5" style="fill:#f5b024;stroke:black;stroke-width:1;fill-opacity:1;stroke-opacity:0.3" />
<line x1="664" y1="121" x2="818" y2="121" stroke="pink" stroke-width="1" />
<rect x="818" y="119" width="37" height="5" style="fill:#f5b024;stroke:black;stroke-width:1;fill-opacity:1;stroke-opacity:0.3" />
<rect x="885" y="119" width="54" height="5" style="fill:#f5b024;stroke:black;stroke-width:1;fill-opacity:1;stroke-opacity:0.3" />
<line x1="856" y1="128" x2="870" y2="130" stroke="black" stroke-width="1" />
<line x1="870" y1="130" x2="884" y2="128" stroke="black" stroke-width="1" />
<rect x="648" y="126" width="16" height="5" style="fill:#f5b024;stroke:black;stroke-width:1;fill-opacity:1;stroke-opacity:0.3" />
<line x1="664" y1="128" x2="818" y2="128" stroke="pink" stroke-width="1" />
<rect x="818" y="126" width="37" height="5" style="fill:#f5b024;stroke:black;stroke-width:1;fill-opacity:1;stroke-opacity:0.3" />
<rect x="884" y="126" width="54" height="5" style="fill:#f5b024;stroke:black;stroke-width:1;fill-opacity:1;stroke-opacity:0.3" />
<line x1="856" y1="135" x2="863" y2="137" stroke="black" stroke-width="1" />
<line x1="863" y1="137" x2="870" y2="135" stroke="black" stroke-width="1" />
<rect x="648" y="133" width="15" height="5" style="fill:#f5b024;stroke:black;stroke-width:1;fill-opacity:1;stroke-opacity:0.3" />
<line x1="664" y1="135" x2="818" y2="135" stroke="pink" stroke-width="1" />
<rect x="818" y="133" width="38" height="5" style="fill:#f5b024;stroke:black;stroke-width:1;fill-opacity:1;stroke-opacity:0.3" />
<rect x="870" y="133" width="54" height="5" style="fill:#f5b024;stroke:black;stroke-width:1;fill-opacity:1;stroke-opacity:0.3" />
<line x1="856" y1="142" x2="870" y2="144" stroke="black" stroke-width="1" />
<line x1="870" y1="144" x2="885" y2="142" stroke="black" stroke-width="1" />
<rect x="649" y="140" width="15" height="5" style="fill:#f5b024;stroke:black;stroke-width:1;fill-opacity:1;stroke-opacity:0.3" />
<line x1="664" y1="142" x2="818" y2="142" stroke="pink" stroke-width="1" />
<rect x="818" y="140" width="38" height="5" style="fill:#f5b024;stroke:black;stroke-width:1;fill-opacity:1;stroke-opacity:0.3" />
<rect x="885" y="140" width="54" height="5" style="fill:#f5b024;stroke:black;stroke-width:1;fill-opacity:1;stroke-opacity:0.3" />
<line x1="856" y1="149" x2="869" y2="151" stroke="black" stroke-width="1" />
<line x1="869" y1="151" x2="883" y2="149" stroke="black" stroke-width="1" />
<rect x="649" y="147" width="15" height="5" style="fill:#f5b024;stroke:black;stroke-width:1;fill-opacity:1;stroke-opacity:0.3" />
<line x1="664" y1="149" x2="818" y2="149" stroke="pink" stroke-width="1" />
<rect x="818" y="147" width="38" height="5" style="fill:#f5b024;stroke:black;stroke-width:1;fill-opacity:1;stroke-opacity:0.3" />
<rect x="883" y="147" width="54" height="5" style="fill:#f5b024;stroke:black;stroke-width:1;fill-opacity:1;stroke-opacity:0.3" />
<line x1="856" y1="156" x2="861" y2="158" stroke="black" stroke-width="1" />
<line x1="861" y1="158" x2="867" y2="156" stroke="black" stroke-width="1" />
<rect x="650" y="154" width="14" height="5" style="fill:#f5b024;stroke:black;stroke-width:1;fill-opacity:1;stroke-opacity:0.3" />
<line x1="664" y1="156" x2="818" y2="156" stroke="pink" stroke-width="1" />
<rect x="818" y="154" width="38" height="5" style="fill:#f5b024;stroke:black;stroke-width:1;fill-opacity:1;stroke-opacity:0.3" />
<rect x="867" y="154" width="54" height="5" style="fill:#f5b024;stroke:black;stroke-width:1;fill-opacity:1;stroke-opacity:0.3" />
<line x1="858" y1="163" x2="862" y2="165" stroke="black" stroke-width="1" />
<line x1="862" y1="165" x2="866" y2="163" stroke="black" stroke-width="1" />
<rect x="650" y="161" width="14" height="5" style="fill:#f5b024;stroke:black;stroke-width:1;fill-opacity:1;stroke-opacity:0.3" />
<line x1="664" y1="163" x2="818" y2="163" stroke="pink" stroke-width="1" />
<rect x="818" y="161" width="40" height="5" style="fill:#f5b024;stroke:black;stroke-width:1;fill-opacity:1;stroke-opacity:0.3" />
<rect x="866" y="161" width="54" height="5" style="fill:#f5b024;stroke:black;stroke-width:1;fill-opacity:1;stroke-opacity:0.3" />
<text x="15"  y="176" style="font-family:Arial;font-size:10;stroke:black;fill:black;">all.merged.bam</text>
</svg>
    
