<?xml version="1.0" encoding="utf-8" standalone="no"?>
<!DOCTYPE svg PUBLIC "-//W3C//DTD SVG 1.1//EN"
  "http://www.w3.org/Graphics/SVG/1.1/DTD/svg11.dtd">
<svg height="1140" width="1000" version="1.1" viewBox="0 0 1000 1140" xmlns="http://www.w3.org/2000/svg" xmlns:xlink="http://www.w3.org/1999/xlink">
<line x1="31" y1="11" x2="968" y2="11" stroke="black" stroke-width="1" />
<rect x="31" y="9" width="22" height="5" style="fill:#f50002;stroke:black;stroke-width:1;fill-opacity:1;stroke-opacity:0.3" />
<rect x="189" y="9" width="30" height="5" style="fill:#f50002;stroke:black;stroke-width:1;fill-opacity:1;stroke-opacity:0.3" />
<rect x="220" y="9" width="365" height="5" style="fill:#53a1b5;stroke:black;stroke-width:1;fill-opacity:1;stroke-opacity:0.3" />
<rect x="585" y="9" width="125" height="5" style="fill:#f50002;stroke:black;stroke-width:1;fill-opacity:1;stroke-opacity:0.3" />
<rect x="804" y="9" width="163" height="5" style="fill:#f50002;stroke:black;stroke-width:1;fill-opacity:1;stroke-opacity:0.3" />
<text x="31"  y="23" style="font-family:Arial;font-size:10;stroke:black;fill:black;">Cre02.g073350.t1.2.v5.5 (+) chromosome_2:44436-47429</text>
<line x1="76" y1="30" x2="79" y2="32" stroke="black" stroke-width="1" />
<line x1="79" y1="32" x2="82" y2="30" stroke="black" stroke-width="1" />
<rect x="29" y="28" width="46" height="5" style="fill:#5d3c2d;stroke:black;stroke-width:1;fill-opacity:1;stroke-opacity:0.3" />
<rect x="82" y="28" width="41" height="5" style="fill:#5d3c2d;stroke:black;stroke-width:1;fill-opacity:1;stroke-opacity:0.3" />
<line x1="102" y1="37" x2="433" y2="39" stroke="black" stroke-width="1" />
<line x1="433" y1="39" x2="764" y2="37" stroke="black" stroke-width="1" />
<rect x="74" y="35" width="28" height="5" style="fill:#f5b024;stroke:black;stroke-width:1;fill-opacity:1;stroke-opacity:0.3" />
<rect x="764" y="35" width="27" height="5" style="fill:#f5b024;stroke:black;stroke-width:1;fill-opacity:1;stroke-opacity:0.3" />
<line x1="103" y1="44" x2="433" y2="46" stroke="black" stroke-width="1" />
<line x1="433" y1="46" x2="764" y2="44" stroke="black" stroke-width="1" />
<rect x="74" y="42" width="29" height="5" style="fill:#5d3c2d;stroke:black;stroke-width:1;fill-opacity:1;stroke-opacity:0.3" />
<rect x="764" y="42" width="25" height="5" style="fill:#5d3c2d;stroke:black;stroke-width:1;fill-opacity:1;stroke-opacity:0.3" />
<line x1="105" y1="51" x2="434" y2="53" stroke="black" stroke-width="1" />
<line x1="434" y1="53" x2="764" y2="51" stroke="black" stroke-width="1" />
<rect x="74" y="49" width="30" height="5" style="fill:#f5b024;stroke:black;stroke-width:1;fill-opacity:1;stroke-opacity:0.3" />
<rect x="764" y="49" width="27" height="5" style="fill:#f5b024;stroke:black;stroke-width:1;fill-opacity:1;stroke-opacity:0.3" />
<line x1="105" y1="58" x2="436" y2="60" stroke="black" stroke-width="1" />
<line x1="436" y1="60" x2="768" y2="58" stroke="black" stroke-width="1" />
<rect x="74" y="56" width="31" height="5" style="fill:#5d3c2d;stroke:black;stroke-width:1;fill-opacity:1;stroke-opacity:0.3" />
<rect x="768" y="56" width="27" height="5" style="fill:#5d3c2d;stroke:black;stroke-width:1;fill-opacity:1;stroke-opacity:0.3" />
<line x1="106" y1="65" x2="435" y2="67" stroke="black" stroke-width="1" />
<line x1="435" y1="67" x2="765" y2="65" stroke="black" stroke-width="1" />
<rect x="74" y="63" width="31" height="5" style="fill:#f5b024;stroke:black;stroke-width:1;fill-opacity:1;stroke-opacity:0.3" />
<rect x="765" y="63" width="26" height="5" style="fill:#f5b024;stroke:black;stroke-width:1;fill-opacity:1;stroke-opacity:0.3" />
<line x1="106" y1="72" x2="435" y2="74" stroke="black" stroke-width="1" />
<line x1="435" y1="74" x2="764" y2="72" stroke="black" stroke-width="1" />
<rect x="74" y="70" width="31" height="5" style="fill:#f5b024;stroke:black;stroke-width:1;fill-opacity:1;stroke-opacity:0.3" />
<rect x="764" y="70" width="25" height="5" style="fill:#f5b024;stroke:black;stroke-width:1;fill-opacity:1;stroke-opacity:0.3" />
<line x1="106" y1="79" x2="435" y2="81" stroke="black" stroke-width="1" />
<line x1="435" y1="81" x2="764" y2="79" stroke="black" stroke-width="1" />
<rect x="74" y="77" width="31" height="5" style="fill:#f5b024;stroke:black;stroke-width:1;fill-opacity:1;stroke-opacity:0.3" />
<rect x="764" y="77" width="27" height="5" style="fill:#f5b024;stroke:black;stroke-width:1;fill-opacity:1;stroke-opacity:0.3" />
<line x1="106" y1="86" x2="435" y2="88" stroke="black" stroke-width="1" />
<line x1="435" y1="88" x2="764" y2="86" stroke="black" stroke-width="1" />
<rect x="74" y="84" width="31" height="5" style="fill:#5d3c2d;stroke:black;stroke-width:1;fill-opacity:1;stroke-opacity:0.3" />
<rect x="764" y="84" width="27" height="5" style="fill:#5d3c2d;stroke:black;stroke-width:1;fill-opacity:1;stroke-opacity:0.3" />
<line x1="106" y1="93" x2="434" y2="95" stroke="black" stroke-width="1" />
<line x1="434" y1="95" x2="763" y2="93" stroke="black" stroke-width="1" />
<rect x="74" y="91" width="31" height="5" style="fill:#f5b024;stroke:black;stroke-width:1;fill-opacity:1;stroke-opacity:0.3" />
<rect x="763" y="91" width="30" height="5" style="fill:#f5b024;stroke:black;stroke-width:1;fill-opacity:1;stroke-opacity:0.3" />
<line x1="101" y1="100" x2="444" y2="102" stroke="black" stroke-width="1" />
<line x1="444" y1="102" x2="788" y2="100" stroke="black" stroke-width="1" />
<rect x="75" y="98" width="26" height="5" style="fill:#5d3c2d;stroke:black;stroke-width:1;fill-opacity:1;stroke-opacity:0.3" />
<rect x="788" y="98" width="30" height="5" style="fill:#5d3c2d;stroke:black;stroke-width:1;fill-opacity:1;stroke-opacity:0.3" />
<line x1="121" y1="107" x2="442" y2="109" stroke="black" stroke-width="1" />
<line x1="442" y1="109" x2="764" y2="107" stroke="black" stroke-width="1" />
<rect x="75" y="105" width="46" height="5" style="fill:#5d3c2d;stroke:black;stroke-width:1;fill-opacity:1;stroke-opacity:0.3" />
<rect x="764" y="105" width="41" height="5" style="fill:#5d3c2d;stroke:black;stroke-width:1;fill-opacity:1;stroke-opacity:0.3" />
<line x1="162" y1="30" x2="477" y2="32" stroke="black" stroke-width="1" />
<line x1="477" y1="32" x2="792" y2="30" stroke="black" stroke-width="1" />
<rect x="135" y="28" width="26" height="5" style="fill:#5d3c2d;stroke:black;stroke-width:1;fill-opacity:1;stroke-opacity:0.3" />
<rect x="792" y="28" width="31" height="5" style="fill:#5d3c2d;stroke:black;stroke-width:1;fill-opacity:1;stroke-opacity:0.3" />
<line x1="206" y1="114" x2="217" y2="116" stroke="black" stroke-width="1" />
<line x1="217" y1="116" x2="228" y2="114" stroke="black" stroke-width="1" />
<rect x="175" y="112" width="30" height="5" style="fill:#5d3c2d;stroke:black;stroke-width:1;fill-opacity:1;stroke-opacity:0.3" />
<rect x="228" y="112" width="30" height="5" style="fill:#5d3c2d;stroke:black;stroke-width:1;fill-opacity:1;stroke-opacity:0.3" />
<line x1="207" y1="121" x2="211" y2="123" stroke="black" stroke-width="1" />
<line x1="211" y1="123" x2="215" y2="121" stroke="black" stroke-width="1" />
<rect x="176" y="119" width="31" height="5" style="fill:#5d3c2d;stroke:black;stroke-width:1;fill-opacity:1;stroke-opacity:0.3" />
<rect x="215" y="119" width="30" height="5" style="fill:#5d3c2d;stroke:black;stroke-width:1;fill-opacity:1;stroke-opacity:0.3" />
<line x1="224" y1="128" x2="227" y2="130" stroke="black" stroke-width="1" />
<line x1="227" y1="130" x2="231" y2="128" stroke="black" stroke-width="1" />
<rect x="178" y="126" width="45" height="5" style="fill:#5d3c2d;stroke:black;stroke-width:1;fill-opacity:1;stroke-opacity:0.3" />
<rect x="231" y="126" width="45" height="5" style="fill:#5d3c2d;stroke:black;stroke-width:1;fill-opacity:1;stroke-opacity:0.3" />
<line x1="226" y1="135" x2="228" y2="137" stroke="black" stroke-width="1" />
<line x1="228" y1="137" x2="231" y2="135" stroke="black" stroke-width="1" />
<rect x="180" y="133" width="46" height="5" style="fill:#5d3c2d;stroke:black;stroke-width:1;fill-opacity:1;stroke-opacity:0.3" />
<rect x="231" y="133" width="46" height="5" style="fill:#5d3c2d;stroke:black;stroke-width:1;fill-opacity:1;stroke-opacity:0.3" />
<line x1="211" y1="142" x2="229" y2="144" stroke="black" stroke-width="1" />
<line x1="229" y1="144" x2="247" y2="142" stroke="black" stroke-width="1" />
<rect x="180" y="140" width="31" height="5" style="fill:#5d3c2d;stroke:black;stroke-width:1;fill-opacity:1;stroke-opacity:0.3" />
<rect x="247" y="140" width="31" height="5" style="fill:#5d3c2d;stroke:black;stroke-width:1;fill-opacity:1;stroke-opacity:0.3" />
<line x1="227" y1="149" x2="229" y2="151" stroke="black" stroke-width="1" />
<line x1="229" y1="151" x2="231" y2="149" stroke="black" stroke-width="1" />
<rect x="180" y="147" width="46" height="5" style="fill:#5d3c2d;stroke:black;stroke-width:1;fill-opacity:1;stroke-opacity:0.3" />
<rect x="231" y="147" width="46" height="5" style="fill:#5d3c2d;stroke:black;stroke-width:1;fill-opacity:1;stroke-opacity:0.3" />
<line x1="213" y1="156" x2="217" y2="158" stroke="black" stroke-width="1" />
<line x1="217" y1="158" x2="222" y2="156" stroke="black" stroke-width="1" />
<rect x="182" y="154" width="31" height="5" style="fill:#5d3c2d;stroke:black;stroke-width:1;fill-opacity:1;stroke-opacity:0.3" />
<rect x="222" y="154" width="31" height="5" style="fill:#5d3c2d;stroke:black;stroke-width:1;fill-opacity:1;stroke-opacity:0.3" />
<line x1="229" y1="163" x2="236" y2="165" stroke="black" stroke-width="1" />
<line x1="236" y1="165" x2="244" y2="163" stroke="black" stroke-width="1" />
<rect x="182" y="161" width="46" height="5" style="fill:#5d3c2d;stroke:black;stroke-width:1;fill-opacity:1;stroke-opacity:0.3" />
<rect x="244" y="161" width="46" height="5" style="fill:#5d3c2d;stroke:black;stroke-width:1;fill-opacity:1;stroke-opacity:0.3" />
<line x1="277" y1="121" x2="280" y2="123" stroke="black" stroke-width="1" />
<line x1="280" y1="123" x2="283" y2="121" stroke="black" stroke-width="1" />
<rect x="246" y="119" width="31" height="5" style="fill:#5d3c2d;stroke:black;stroke-width:1;fill-opacity:1;stroke-opacity:0.3" />
<rect x="283" y="119" width="31" height="5" style="fill:#5d3c2d;stroke:black;stroke-width:1;fill-opacity:1;stroke-opacity:0.3" />
<line x1="285" y1="156" x2="294" y2="158" stroke="black" stroke-width="1" />
<line x1="294" y1="158" x2="303" y2="156" stroke="black" stroke-width="1" />
<rect x="254" y="154" width="31" height="5" style="fill:#5d3c2d;stroke:black;stroke-width:1;fill-opacity:1;stroke-opacity:0.3" />
<rect x="303" y="154" width="31" height="5" style="fill:#5d3c2d;stroke:black;stroke-width:1;fill-opacity:1;stroke-opacity:0.3" />
<line x1="290" y1="114" x2="301" y2="116" stroke="black" stroke-width="1" />
<line x1="301" y1="116" x2="312" y2="114" stroke="black" stroke-width="1" />
<rect x="259" y="112" width="31" height="5" style="fill:#5d3c2d;stroke:black;stroke-width:1;fill-opacity:1;stroke-opacity:0.3" />
<rect x="312" y="112" width="31" height="5" style="fill:#5d3c2d;stroke:black;stroke-width:1;fill-opacity:1;stroke-opacity:0.3" />
<line x1="309" y1="128" x2="311" y2="130" stroke="black" stroke-width="1" />
<line x1="311" y1="130" x2="313" y2="128" stroke="black" stroke-width="1" />
<rect x="278" y="126" width="31" height="5" style="fill:#5d3c2d;stroke:black;stroke-width:1;fill-opacity:1;stroke-opacity:0.3" />
<rect x="313" y="126" width="30" height="5" style="fill:#5d3c2d;stroke:black;stroke-width:1;fill-opacity:1;stroke-opacity:0.3" />
<line x1="309" y1="135" x2="314" y2="137" stroke="black" stroke-width="1" />
<line x1="314" y1="137" x2="320" y2="135" stroke="black" stroke-width="1" />
<rect x="278" y="133" width="31" height="5" style="fill:#5d3c2d;stroke:black;stroke-width:1;fill-opacity:1;stroke-opacity:0.3" />
<rect x="320" y="133" width="31" height="5" style="fill:#5d3c2d;stroke:black;stroke-width:1;fill-opacity:1;stroke-opacity:0.3" />
<line x1="312" y1="142" x2="314" y2="144" stroke="black" stroke-width="1" />
<line x1="314" y1="144" x2="316" y2="142" stroke="black" stroke-width="1" />
<rect x="281" y="140" width="31" height="5" style="fill:#5d3c2d;stroke:black;stroke-width:1;fill-opacity:1;stroke-opacity:0.3" />
<rect x="316" y="140" width="31" height="5" style="fill:#5d3c2d;stroke:black;stroke-width:1;fill-opacity:1;stroke-opacity:0.3" />
<line x1="313" y1="149" x2="314" y2="151" stroke="black" stroke-width="1" />
<line x1="314" y1="151" x2="316" y2="149" stroke="black" stroke-width="1" />
<rect x="282" y="147" width="31" height="5" style="fill:#5d3c2d;stroke:black;stroke-width:1;fill-opacity:1;stroke-opacity:0.3" />
<rect x="316" y="147" width="31" height="5" style="fill:#5d3c2d;stroke:black;stroke-width:1;fill-opacity:1;stroke-opacity:0.3" />
<line x1="329" y1="163" x2="343" y2="165" stroke="black" stroke-width="1" />
<line x1="343" y1="165" x2="357" y2="163" stroke="black" stroke-width="1" />
<rect x="298" y="161" width="31" height="5" style="fill:#5d3c2d;stroke:black;stroke-width:1;fill-opacity:1;stroke-opacity:0.3" />
<rect x="357" y="161" width="31" height="5" style="fill:#5d3c2d;stroke:black;stroke-width:1;fill-opacity:1;stroke-opacity:0.3" />
<line x1="346" y1="121" x2="352" y2="123" stroke="black" stroke-width="1" />
<line x1="352" y1="123" x2="358" y2="121" stroke="black" stroke-width="1" />
<rect x="314" y="119" width="31" height="5" style="fill:#5d3c2d;stroke:black;stroke-width:1;fill-opacity:1;stroke-opacity:0.3" />
<rect x="358" y="119" width="31" height="5" style="fill:#5d3c2d;stroke:black;stroke-width:1;fill-opacity:1;stroke-opacity:0.3" />
<line x1="365" y1="156" x2="371" y2="158" stroke="black" stroke-width="1" />
<line x1="371" y1="158" x2="377" y2="156" stroke="black" stroke-width="1" />
<rect x="334" y="154" width="31" height="5" style="fill:#5d3c2d;stroke:black;stroke-width:1;fill-opacity:1;stroke-opacity:0.3" />
<rect x="377" y="154" width="31" height="5" style="fill:#5d3c2d;stroke:black;stroke-width:1;fill-opacity:1;stroke-opacity:0.3" />
<line x1="375" y1="114" x2="377" y2="116" stroke="black" stroke-width="1" />
<line x1="377" y1="116" x2="379" y2="114" stroke="black" stroke-width="1" />
<rect x="343" y="112" width="31" height="5" style="fill:#5d3c2d;stroke:black;stroke-width:1;fill-opacity:1;stroke-opacity:0.3" />
<rect x="379" y="112" width="31" height="5" style="fill:#5d3c2d;stroke:black;stroke-width:1;fill-opacity:1;stroke-opacity:0.3" />
<line x1="375" y1="128" x2="378" y2="130" stroke="black" stroke-width="1" />
<line x1="378" y1="130" x2="382" y2="128" stroke="black" stroke-width="1" />
<rect x="344" y="126" width="31" height="5" style="fill:#5d3c2d;stroke:black;stroke-width:1;fill-opacity:1;stroke-opacity:0.3" />
<rect x="382" y="126" width="31" height="5" style="fill:#5d3c2d;stroke:black;stroke-width:1;fill-opacity:1;stroke-opacity:0.3" />
<line x1="379" y1="142" x2="380" y2="144" stroke="black" stroke-width="1" />
<line x1="380" y1="144" x2="382" y2="142" stroke="black" stroke-width="1" />
<rect x="348" y="140" width="31" height="5" style="fill:#5d3c2d;stroke:black;stroke-width:1;fill-opacity:1;stroke-opacity:0.3" />
<rect x="382" y="140" width="31" height="5" style="fill:#5d3c2d;stroke:black;stroke-width:1;fill-opacity:1;stroke-opacity:0.3" />
<line x1="379" y1="149" x2="380" y2="151" stroke="black" stroke-width="1" />
<line x1="380" y1="151" x2="382" y2="149" stroke="black" stroke-width="1" />
<rect x="348" y="147" width="31" height="5" style="fill:#5d3c2d;stroke:black;stroke-width:1;fill-opacity:1;stroke-opacity:0.3" />
<rect x="382" y="147" width="31" height="5" style="fill:#5d3c2d;stroke:black;stroke-width:1;fill-opacity:1;stroke-opacity:0.3" />
<line x1="382" y1="135" x2="396" y2="137" stroke="black" stroke-width="1" />
<line x1="396" y1="137" x2="410" y2="135" stroke="black" stroke-width="1" />
<rect x="351" y="133" width="31" height="5" style="fill:#5d3c2d;stroke:black;stroke-width:1;fill-opacity:1;stroke-opacity:0.3" />
<rect x="410" y="133" width="31" height="5" style="fill:#5d3c2d;stroke:black;stroke-width:1;fill-opacity:1;stroke-opacity:0.3" />
<line x1="437" y1="121" x2="439" y2="123" stroke="black" stroke-width="1" />
<line x1="439" y1="123" x2="441" y2="121" stroke="black" stroke-width="1" />
<rect x="390" y="119" width="46" height="5" style="fill:#5d3c2d;stroke:black;stroke-width:1;fill-opacity:1;stroke-opacity:0.3" />
<rect x="441" y="119" width="41" height="5" style="fill:#5d3c2d;stroke:black;stroke-width:1;fill-opacity:1;stroke-opacity:0.3" />
<line x1="429" y1="163" x2="441" y2="165" stroke="black" stroke-width="1" />
<line x1="441" y1="165" x2="453" y2="163" stroke="black" stroke-width="1" />
<rect x="397" y="161" width="31" height="5" style="fill:#5d3c2d;stroke:black;stroke-width:1;fill-opacity:1;stroke-opacity:0.3" />
<rect x="453" y="161" width="31" height="5" style="fill:#5d3c2d;stroke:black;stroke-width:1;fill-opacity:1;stroke-opacity:0.3" />
<line x1="443" y1="114" x2="445" y2="116" stroke="black" stroke-width="1" />
<line x1="445" y1="116" x2="448" y2="114" stroke="black" stroke-width="1" />
<rect x="412" y="112" width="31" height="5" style="fill:#5d3c2d;stroke:black;stroke-width:1;fill-opacity:1;stroke-opacity:0.3" />
<rect x="448" y="112" width="31" height="5" style="fill:#5d3c2d;stroke:black;stroke-width:1;fill-opacity:1;stroke-opacity:0.3" />
<line x1="460" y1="156" x2="463" y2="158" stroke="black" stroke-width="1" />
<line x1="463" y1="158" x2="466" y2="156" stroke="black" stroke-width="1" />
<rect x="413" y="154" width="46" height="5" style="fill:#5d3c2d;stroke:black;stroke-width:1;fill-opacity:1;stroke-opacity:0.3" />
<rect x="466" y="154" width="46" height="5" style="fill:#5d3c2d;stroke:black;stroke-width:1;fill-opacity:1;stroke-opacity:0.3" />
<line x1="445" y1="128" x2="448" y2="130" stroke="black" stroke-width="1" />
<line x1="448" y1="130" x2="452" y2="128" stroke="black" stroke-width="1" />
<rect x="414" y="126" width="31" height="5" style="fill:#5d3c2d;stroke:black;stroke-width:1;fill-opacity:1;stroke-opacity:0.3" />
<rect x="452" y="126" width="31" height="5" style="fill:#5d3c2d;stroke:black;stroke-width:1;fill-opacity:1;stroke-opacity:0.3" />
<line x1="465" y1="142" x2="468" y2="144" stroke="black" stroke-width="1" />
<line x1="468" y1="144" x2="471" y2="142" stroke="black" stroke-width="1" />
<rect x="418" y="140" width="46" height="5" style="fill:#5d3c2d;stroke:black;stroke-width:1;fill-opacity:1;stroke-opacity:0.3" />
<rect x="471" y="140" width="46" height="5" style="fill:#5d3c2d;stroke:black;stroke-width:1;fill-opacity:1;stroke-opacity:0.3" />
<line x1="465" y1="149" x2="468" y2="151" stroke="black" stroke-width="1" />
<line x1="468" y1="151" x2="471" y2="149" stroke="black" stroke-width="1" />
<rect x="418" y="147" width="46" height="5" style="fill:#5d3c2d;stroke:black;stroke-width:1;fill-opacity:1;stroke-opacity:0.3" />
<rect x="471" y="147" width="46" height="5" style="fill:#5d3c2d;stroke:black;stroke-width:1;fill-opacity:1;stroke-opacity:0.3" />
<line x1="474" y1="135" x2="481" y2="137" stroke="black" stroke-width="1" />
<line x1="481" y1="137" x2="488" y2="135" stroke="black" stroke-width="1" />
<rect x="443" y="133" width="31" height="5" style="fill:#5d3c2d;stroke:black;stroke-width:1;fill-opacity:1;stroke-opacity:0.3" />
<rect x="488" y="133" width="31" height="5" style="fill:#5d3c2d;stroke:black;stroke-width:1;fill-opacity:1;stroke-opacity:0.3" />
<line x1="512" y1="114" x2="524" y2="116" stroke="black" stroke-width="1" />
<line x1="524" y1="116" x2="536" y2="114" stroke="black" stroke-width="1" />
<rect x="480" y="112" width="31" height="5" style="fill:#5d3c2d;stroke:black;stroke-width:1;fill-opacity:1;stroke-opacity:0.3" />
<rect x="536" y="112" width="31" height="5" style="fill:#5d3c2d;stroke:black;stroke-width:1;fill-opacity:1;stroke-opacity:0.3" />
<line x1="529" y1="121" x2="542" y2="123" stroke="black" stroke-width="1" />
<line x1="542" y1="123" x2="556" y2="121" stroke="black" stroke-width="1" />
<rect x="483" y="119" width="46" height="5" style="fill:#5d3c2d;stroke:black;stroke-width:1;fill-opacity:1;stroke-opacity:0.3" />
<rect x="556" y="119" width="46" height="5" style="fill:#5d3c2d;stroke:black;stroke-width:1;fill-opacity:1;stroke-opacity:0.3" />
<line x1="531" y1="128" x2="538" y2="130" stroke="black" stroke-width="1" />
<line x1="538" y1="130" x2="545" y2="128" stroke="black" stroke-width="1" />
<rect x="484" y="126" width="46" height="5" style="fill:#5d3c2d;stroke:black;stroke-width:1;fill-opacity:1;stroke-opacity:0.3" />
<rect x="545" y="126" width="46" height="5" style="fill:#5d3c2d;stroke:black;stroke-width:1;fill-opacity:1;stroke-opacity:0.3" />
<line x1="516" y1="163" x2="521" y2="165" stroke="black" stroke-width="1" />
<line x1="521" y1="165" x2="526" y2="163" stroke="black" stroke-width="1" />
<rect x="485" y="161" width="31" height="5" style="fill:#5d3c2d;stroke:black;stroke-width:1;fill-opacity:1;stroke-opacity:0.3" />
<rect x="526" y="161" width="30" height="5" style="fill:#5d3c2d;stroke:black;stroke-width:1;fill-opacity:1;stroke-opacity:0.3" />
<line x1="568" y1="135" x2="582" y2="137" stroke="black" stroke-width="1" />
<line x1="582" y1="137" x2="597" y2="135" stroke="black" stroke-width="1" />
<rect x="521" y="133" width="46" height="5" style="fill:#5d3c2d;stroke:black;stroke-width:1;fill-opacity:1;stroke-opacity:0.3" />
<rect x="597" y="133" width="46" height="5" style="fill:#5d3c2d;stroke:black;stroke-width:1;fill-opacity:1;stroke-opacity:0.3" />
<line x1="568" y1="142" x2="573" y2="144" stroke="black" stroke-width="1" />
<line x1="573" y1="144" x2="579" y2="142" stroke="black" stroke-width="1" />
<rect x="526" y="140" width="41" height="5" style="fill:#5d3c2d;stroke:black;stroke-width:1;fill-opacity:1;stroke-opacity:0.3" />
<rect x="579" y="140" width="46" height="5" style="fill:#5d3c2d;stroke:black;stroke-width:1;fill-opacity:1;stroke-opacity:0.3" />
<line x1="557" y1="149" x2="564" y2="151" stroke="black" stroke-width="1" />
<line x1="564" y1="151" x2="571" y2="149" stroke="black" stroke-width="1" />
<rect x="526" y="147" width="31" height="5" style="fill:#5d3c2d;stroke:black;stroke-width:1;fill-opacity:1;stroke-opacity:0.3" />
<rect x="571" y="147" width="31" height="5" style="fill:#5d3c2d;stroke:black;stroke-width:1;fill-opacity:1;stroke-opacity:0.3" />
<line x1="574" y1="156" x2="585" y2="158" stroke="black" stroke-width="1" />
<line x1="585" y1="158" x2="597" y2="156" stroke="black" stroke-width="1" />
<rect x="527" y="154" width="46" height="5" style="fill:#5d3c2d;stroke:black;stroke-width:1;fill-opacity:1;stroke-opacity:0.3" />
<rect x="597" y="154" width="46" height="5" style="fill:#5d3c2d;stroke:black;stroke-width:1;fill-opacity:1;stroke-opacity:0.3" />
<line x1="599" y1="163" x2="601" y2="165" stroke="black" stroke-width="1" />
<line x1="601" y1="165" x2="604" y2="163" stroke="black" stroke-width="1" />
<rect x="560" y="161" width="39" height="5" style="fill:#5d3c2d;stroke:black;stroke-width:1;fill-opacity:1;stroke-opacity:0.3" />
<rect x="604" y="161" width="46" height="5" style="fill:#5d3c2d;stroke:black;stroke-width:1;fill-opacity:1;stroke-opacity:0.3" />
<line x1="600" y1="114" x2="602" y2="116" stroke="black" stroke-width="1" />
<line x1="602" y1="116" x2="604" y2="114" stroke="black" stroke-width="1" />
<rect x="568" y="112" width="31" height="5" style="fill:#5d3c2d;stroke:black;stroke-width:1;fill-opacity:1;stroke-opacity:0.3" />
<rect x="604" y="112" width="30" height="5" style="fill:#5d3c2d;stroke:black;stroke-width:1;fill-opacity:1;stroke-opacity:0.3" />
<line x1="624" y1="128" x2="632" y2="130" stroke="black" stroke-width="1" />
<line x1="632" y1="130" x2="640" y2="128" stroke="black" stroke-width="1" />
<rect x="593" y="126" width="31" height="5" style="fill:#f5b024;stroke:black;stroke-width:1;fill-opacity:1;stroke-opacity:0.3" />
<rect x="640" y="126" width="30" height="5" style="fill:#f5b024;stroke:black;stroke-width:1;fill-opacity:1;stroke-opacity:0.3" />
<line x1="635" y1="121" x2="637" y2="123" stroke="black" stroke-width="1" />
<line x1="637" y1="123" x2="640" y2="121" stroke="black" stroke-width="1" />
<rect x="603" y="119" width="31" height="5" style="fill:#5d3c2d;stroke:black;stroke-width:1;fill-opacity:1;stroke-opacity:0.3" />
<rect x="640" y="119" width="31" height="5" style="fill:#5d3c2d;stroke:black;stroke-width:1;fill-opacity:1;stroke-opacity:0.3" />
<line x1="635" y1="149" x2="637" y2="151" stroke="black" stroke-width="1" />
<line x1="637" y1="151" x2="640" y2="149" stroke="black" stroke-width="1" />
<rect x="603" y="147" width="31" height="5" style="fill:#5d3c2d;stroke:black;stroke-width:1;fill-opacity:1;stroke-opacity:0.3" />
<rect x="640" y="147" width="30" height="5" style="fill:#5d3c2d;stroke:black;stroke-width:1;fill-opacity:1;stroke-opacity:0.3" />
<line x1="658" y1="142" x2="662" y2="144" stroke="black" stroke-width="1" />
<line x1="662" y1="144" x2="667" y2="142" stroke="black" stroke-width="1" />
<rect x="627" y="140" width="31" height="5" style="fill:#5d3c2d;stroke:black;stroke-width:1;fill-opacity:1;stroke-opacity:0.3" />
<rect x="667" y="140" width="31" height="5" style="fill:#5d3c2d;stroke:black;stroke-width:1;fill-opacity:1;stroke-opacity:0.3" />
<line x1="771" y1="114" x2="773" y2="116" stroke="black" stroke-width="1" />
<line x1="773" y1="116" x2="776" y2="114" stroke="black" stroke-width="1" />
<rect x="740" y="112" width="31" height="5" style="fill:#5d3c2d;stroke:black;stroke-width:1;fill-opacity:1;stroke-opacity:0.3" />
<rect x="776" y="112" width="15" height="5" style="fill:#5d3c2d;stroke:black;stroke-width:1;fill-opacity:1;stroke-opacity:0.3" />
<rect x="791" y="112" width="15" height="5" style="fill:#5d3c2d;stroke:black;stroke-width:1;fill-opacity:1;stroke-opacity:0.3" />
<line x1="771" y1="121" x2="783" y2="123" stroke="black" stroke-width="1" />
<line x1="783" y1="123" x2="796" y2="121" stroke="black" stroke-width="1" />
<rect x="740" y="119" width="31" height="5" style="fill:#5d3c2d;stroke:black;stroke-width:1;fill-opacity:1;stroke-opacity:0.3" />
<rect x="796" y="119" width="31" height="5" style="fill:#5d3c2d;stroke:black;stroke-width:1;fill-opacity:1;stroke-opacity:0.3" />
<line x1="791" y1="128" x2="793" y2="130" stroke="black" stroke-width="1" />
<line x1="793" y1="130" x2="796" y2="128" stroke="black" stroke-width="1" />
<rect x="744" y="126" width="46" height="5" style="fill:#5d3c2d;stroke:black;stroke-width:1;fill-opacity:1;stroke-opacity:0.3" />
<rect x="796" y="126" width="46" height="5" style="fill:#5d3c2d;stroke:black;stroke-width:1;fill-opacity:1;stroke-opacity:0.3" />
<line x1="776" y1="135" x2="793" y2="137" stroke="black" stroke-width="1" />
<line x1="793" y1="137" x2="810" y2="135" stroke="black" stroke-width="1" />
<rect x="744" y="133" width="31" height="5" style="fill:#5d3c2d;stroke:black;stroke-width:1;fill-opacity:1;stroke-opacity:0.3" />
<rect x="810" y="133" width="30" height="5" style="fill:#5d3c2d;stroke:black;stroke-width:1;fill-opacity:1;stroke-opacity:0.3" />
<line x1="786" y1="142" x2="807" y2="144" stroke="black" stroke-width="1" />
<line x1="807" y1="144" x2="828" y2="142" stroke="black" stroke-width="1" />
<rect x="755" y="140" width="31" height="5" style="fill:#5d3c2d;stroke:black;stroke-width:1;fill-opacity:1;stroke-opacity:0.3" />
<rect x="828" y="140" width="31" height="5" style="fill:#5d3c2d;stroke:black;stroke-width:1;fill-opacity:1;stroke-opacity:0.3" />
<line x1="788" y1="149" x2="790" y2="151" stroke="black" stroke-width="1" />
<line x1="790" y1="151" x2="793" y2="149" stroke="black" stroke-width="1" />
<rect x="762" y="147" width="26" height="5" style="fill:#5d3c2d;stroke:black;stroke-width:1;fill-opacity:1;stroke-opacity:0.3" />
<rect x="793" y="147" width="31" height="5" style="fill:#5d3c2d;stroke:black;stroke-width:1;fill-opacity:1;stroke-opacity:0.3" />
<line x1="790" y1="156" x2="793" y2="158" stroke="black" stroke-width="1" />
<line x1="793" y1="158" x2="797" y2="156" stroke="black" stroke-width="1" />
<rect x="764" y="154" width="25" height="5" style="fill:#5d3c2d;stroke:black;stroke-width:1;fill-opacity:1;stroke-opacity:0.3" />
<rect x="797" y="154" width="31" height="5" style="fill:#5d3c2d;stroke:black;stroke-width:1;fill-opacity:1;stroke-opacity:0.3" />
<line x1="796" y1="163" x2="802" y2="165" stroke="black" stroke-width="1" />
<line x1="802" y1="165" x2="809" y2="163" stroke="black" stroke-width="1" />
<rect x="765" y="161" width="31" height="5" style="fill:#5d3c2d;stroke:black;stroke-width:1;fill-opacity:1;stroke-opacity:0.3" />
<rect x="809" y="161" width="31" height="5" style="fill:#5d3c2d;stroke:black;stroke-width:1;fill-opacity:1;stroke-opacity:0.3" />
<line x1="821" y1="44" x2="824" y2="46" stroke="black" stroke-width="1" />
<line x1="824" y1="46" x2="828" y2="44" stroke="black" stroke-width="1" />
<rect x="790" y="42" width="31" height="5" style="fill:#5d3c2d;stroke:black;stroke-width:1;fill-opacity:1;stroke-opacity:0.3" />
<rect x="828" y="42" width="31" height="5" style="fill:#5d3c2d;stroke:black;stroke-width:1;fill-opacity:1;stroke-opacity:0.3" />
<line x1="822" y1="72" x2="824" y2="74" stroke="black" stroke-width="1" />
<line x1="824" y1="74" x2="826" y2="72" stroke="black" stroke-width="1" />
<rect x="790" y="70" width="31" height="5" style="fill:#5d3c2d;stroke:black;stroke-width:1;fill-opacity:1;stroke-opacity:0.3" />
<rect x="826" y="70" width="31" height="5" style="fill:#5d3c2d;stroke:black;stroke-width:1;fill-opacity:1;stroke-opacity:0.3" />
<line x1="823" y1="37" x2="825" y2="39" stroke="black" stroke-width="1" />
<line x1="825" y1="39" x2="827" y2="37" stroke="black" stroke-width="1" />
<rect x="791" y="35" width="31" height="5" style="fill:#5d3c2d;stroke:black;stroke-width:1;fill-opacity:1;stroke-opacity:0.3" />
<rect x="827" y="35" width="31" height="5" style="fill:#5d3c2d;stroke:black;stroke-width:1;fill-opacity:1;stroke-opacity:0.3" />
<line x1="823" y1="51" x2="825" y2="53" stroke="black" stroke-width="1" />
<line x1="825" y1="53" x2="828" y2="51" stroke="black" stroke-width="1" />
<rect x="791" y="49" width="31" height="5" style="fill:#5d3c2d;stroke:black;stroke-width:1;fill-opacity:1;stroke-opacity:0.3" />
<rect x="828" y="49" width="31" height="5" style="fill:#5d3c2d;stroke:black;stroke-width:1;fill-opacity:1;stroke-opacity:0.3" />
<line x1="838" y1="65" x2="847" y2="67" stroke="black" stroke-width="1" />
<line x1="847" y1="67" x2="857" y2="65" stroke="black" stroke-width="1" />
<rect x="792" y="63" width="45" height="5" style="fill:#5d3c2d;stroke:black;stroke-width:1;fill-opacity:1;stroke-opacity:0.3" />
<rect x="857" y="63" width="46" height="5" style="fill:#5d3c2d;stroke:black;stroke-width:1;fill-opacity:1;stroke-opacity:0.3" />
<line x1="823" y1="79" x2="828" y2="81" stroke="black" stroke-width="1" />
<line x1="828" y1="81" x2="833" y2="79" stroke="black" stroke-width="1" />
<rect x="793" y="77" width="30" height="5" style="fill:#5d3c2d;stroke:black;stroke-width:1;fill-opacity:1;stroke-opacity:0.3" />
<rect x="833" y="77" width="31" height="5" style="fill:#5d3c2d;stroke:black;stroke-width:1;fill-opacity:1;stroke-opacity:0.3" />
<line x1="825" y1="86" x2="829" y2="88" stroke="black" stroke-width="1" />
<line x1="829" y1="88" x2="833" y2="86" stroke="black" stroke-width="1" />
<rect x="794" y="84" width="31" height="5" style="fill:#5d3c2d;stroke:black;stroke-width:1;fill-opacity:1;stroke-opacity:0.3" />
<rect x="833" y="84" width="31" height="5" style="fill:#5d3c2d;stroke:black;stroke-width:1;fill-opacity:1;stroke-opacity:0.3" />
<line x1="844" y1="58" x2="847" y2="60" stroke="black" stroke-width="1" />
<line x1="847" y1="60" x2="850" y2="58" stroke="black" stroke-width="1" />
<rect x="797" y="56" width="46" height="5" style="fill:#5d3c2d;stroke:black;stroke-width:1;fill-opacity:1;stroke-opacity:0.3" />
<rect x="850" y="56" width="46" height="5" style="fill:#5d3c2d;stroke:black;stroke-width:1;fill-opacity:1;stroke-opacity:0.3" />
<line x1="844" y1="93" x2="847" y2="95" stroke="black" stroke-width="1" />
<line x1="847" y1="95" x2="850" y2="93" stroke="black" stroke-width="1" />
<rect x="797" y="91" width="46" height="5" style="fill:#5d3c2d;stroke:black;stroke-width:1;fill-opacity:1;stroke-opacity:0.3" />
<rect x="850" y="91" width="46" height="5" style="fill:#5d3c2d;stroke:black;stroke-width:1;fill-opacity:1;stroke-opacity:0.3" />
<line x1="838" y1="107" x2="856" y2="109" stroke="black" stroke-width="1" />
<line x1="856" y1="109" x2="874" y2="107" stroke="black" stroke-width="1" />
<rect x="806" y="105" width="31" height="5" style="fill:#5d3c2d;stroke:black;stroke-width:1;fill-opacity:1;stroke-opacity:0.3" />
<rect x="874" y="105" width="31" height="5" style="fill:#5d3c2d;stroke:black;stroke-width:1;fill-opacity:1;stroke-opacity:0.3" />
<line x1="841" y1="114" x2="852" y2="116" stroke="black" stroke-width="1" />
<line x1="852" y1="116" x2="864" y2="114" stroke="black" stroke-width="1" />
<rect x="810" y="112" width="31" height="5" style="fill:#5d3c2d;stroke:black;stroke-width:1;fill-opacity:1;stroke-opacity:0.3" />
<rect x="864" y="112" width="31" height="5" style="fill:#5d3c2d;stroke:black;stroke-width:1;fill-opacity:1;stroke-opacity:0.3" />
<line x1="851" y1="100" x2="853" y2="102" stroke="black" stroke-width="1" />
<line x1="853" y1="102" x2="856" y2="100" stroke="black" stroke-width="1" />
<rect x="820" y="98" width="31" height="5" style="fill:#5d3c2d;stroke:black;stroke-width:1;fill-opacity:1;stroke-opacity:0.3" />
<rect x="856" y="98" width="30" height="5" style="fill:#5d3c2d;stroke:black;stroke-width:1;fill-opacity:1;stroke-opacity:0.3" />
<line x1="854" y1="30" x2="863" y2="32" stroke="black" stroke-width="1" />
<line x1="863" y1="32" x2="873" y2="30" stroke="black" stroke-width="1" />
<rect x="823" y="28" width="30" height="5" style="fill:#5d3c2d;stroke:black;stroke-width:1;fill-opacity:1;stroke-opacity:0.3" />
<rect x="873" y="28" width="31" height="5" style="fill:#5d3c2d;stroke:black;stroke-width:1;fill-opacity:1;stroke-opacity:0.3" />
<line x1="855" y1="149" x2="860" y2="151" stroke="black" stroke-width="1" />
<line x1="860" y1="151" x2="865" y2="149" stroke="black" stroke-width="1" />
<rect x="824" y="147" width="31" height="5" style="fill:#5d3c2d;stroke:black;stroke-width:1;fill-opacity:1;stroke-opacity:0.3" />
<rect x="865" y="147" width="31" height="5" style="fill:#5d3c2d;stroke:black;stroke-width:1;fill-opacity:1;stroke-opacity:0.3" />
<line x1="875" y1="121" x2="877" y2="123" stroke="black" stroke-width="1" />
<line x1="877" y1="123" x2="879" y2="121" stroke="black" stroke-width="1" />
<rect x="844" y="119" width="31" height="5" style="fill:#5d3c2d;stroke:black;stroke-width:1;fill-opacity:1;stroke-opacity:0.3" />
<rect x="879" y="119" width="31" height="5" style="fill:#5d3c2d;stroke:black;stroke-width:1;fill-opacity:1;stroke-opacity:0.3" />
<line x1="878" y1="128" x2="879" y2="130" stroke="black" stroke-width="1" />
<line x1="879" y1="130" x2="881" y2="128" stroke="black" stroke-width="1" />
<rect x="847" y="126" width="31" height="5" style="fill:#5d3c2d;stroke:black;stroke-width:1;fill-opacity:1;stroke-opacity:0.3" />
<rect x="881" y="126" width="31" height="5" style="fill:#5d3c2d;stroke:black;stroke-width:1;fill-opacity:1;stroke-opacity:0.3" />
<line x1="879" y1="135" x2="886" y2="137" stroke="black" stroke-width="1" />
<line x1="886" y1="137" x2="894" y2="135" stroke="black" stroke-width="1" />
<rect x="848" y="133" width="31" height="5" style="fill:#5d3c2d;stroke:black;stroke-width:1;fill-opacity:1;stroke-opacity:0.3" />
<rect x="894" y="133" width="31" height="5" style="fill:#5d3c2d;stroke:black;stroke-width:1;fill-opacity:1;stroke-opacity:0.3" />
<line x1="891" y1="37" x2="893" y2="39" stroke="black" stroke-width="1" />
<line x1="893" y1="39" x2="895" y2="37" stroke="black" stroke-width="1" />
<rect x="859" y="35" width="31" height="5" style="fill:#5d3c2d;stroke:black;stroke-width:1;fill-opacity:1;stroke-opacity:0.3" />
<rect x="895" y="35" width="31" height="5" style="fill:#5d3c2d;stroke:black;stroke-width:1;fill-opacity:1;stroke-opacity:0.3" />
<line x1="891" y1="44" x2="895" y2="46" stroke="black" stroke-width="1" />
<line x1="895" y1="46" x2="899" y2="44" stroke="black" stroke-width="1" />
<rect x="860" y="42" width="31" height="5" style="fill:#5d3c2d;stroke:black;stroke-width:1;fill-opacity:1;stroke-opacity:0.3" />
<rect x="899" y="42" width="31" height="5" style="fill:#5d3c2d;stroke:black;stroke-width:1;fill-opacity:1;stroke-opacity:0.3" />
<line x1="891" y1="51" x2="893" y2="53" stroke="black" stroke-width="1" />
<line x1="893" y1="53" x2="895" y2="51" stroke="black" stroke-width="1" />
<rect x="860" y="49" width="31" height="5" style="fill:#5d3c2d;stroke:black;stroke-width:1;fill-opacity:1;stroke-opacity:0.3" />
<rect x="895" y="49" width="31" height="5" style="fill:#5d3c2d;stroke:black;stroke-width:1;fill-opacity:1;stroke-opacity:0.3" />
<line x1="892" y1="72" x2="893" y2="74" stroke="black" stroke-width="1" />
<line x1="893" y1="74" x2="895" y2="72" stroke="black" stroke-width="1" />
<rect x="860" y="70" width="31" height="5" style="fill:#5d3c2d;stroke:black;stroke-width:1;fill-opacity:1;stroke-opacity:0.3" />
<rect x="895" y="70" width="31" height="5" style="fill:#5d3c2d;stroke:black;stroke-width:1;fill-opacity:1;stroke-opacity:0.3" />
<line x1="897" y1="79" x2="901" y2="81" stroke="black" stroke-width="1" />
<line x1="901" y1="81" x2="906" y2="79" stroke="black" stroke-width="1" />
<rect x="865" y="77" width="31" height="5" style="fill:#5d3c2d;stroke:black;stroke-width:1;fill-opacity:1;stroke-opacity:0.3" />
<rect x="906" y="77" width="31" height="5" style="fill:#5d3c2d;stroke:black;stroke-width:1;fill-opacity:1;stroke-opacity:0.3" />
<line x1="911" y1="86" x2="916" y2="88" stroke="black" stroke-width="1" />
<line x1="916" y1="88" x2="922" y2="86" stroke="black" stroke-width="1" />
<rect x="867" y="84" width="44" height="5" style="fill:#5d3c2d;stroke:black;stroke-width:1;fill-opacity:1;stroke-opacity:0.3" />
<rect x="922" y="84" width="46" height="5" style="fill:#5d3c2d;stroke:black;stroke-width:1;fill-opacity:1;stroke-opacity:0.3" />
<line x1="906" y1="142" x2="914" y2="144" stroke="black" stroke-width="1" />
<line x1="914" y1="144" x2="922" y2="142" stroke="black" stroke-width="1" />
<rect x="875" y="140" width="31" height="5" style="fill:#5d3c2d;stroke:black;stroke-width:1;fill-opacity:1;stroke-opacity:0.3" />
<rect x="922" y="140" width="31" height="5" style="fill:#5d3c2d;stroke:black;stroke-width:1;fill-opacity:1;stroke-opacity:0.3" />
<line x1="909" y1="156" x2="918" y2="158" stroke="black" stroke-width="1" />
<line x1="918" y1="158" x2="927" y2="156" stroke="black" stroke-width="1" />
<rect x="878" y="154" width="31" height="5" style="fill:#5d3c2d;stroke:black;stroke-width:1;fill-opacity:1;stroke-opacity:0.3" />
<rect x="927" y="154" width="30" height="5" style="fill:#5d3c2d;stroke:black;stroke-width:1;fill-opacity:1;stroke-opacity:0.3" />
<line x1="913" y1="163" x2="921" y2="165" stroke="black" stroke-width="1" />
<line x1="921" y1="165" x2="930" y2="163" stroke="black" stroke-width="1" />
<rect x="881" y="161" width="31" height="5" style="fill:#5d3c2d;stroke:black;stroke-width:1;fill-opacity:1;stroke-opacity:0.3" />
<rect x="930" y="161" width="31" height="5" style="fill:#5d3c2d;stroke:black;stroke-width:1;fill-opacity:1;stroke-opacity:0.3" />
<line x1="931" y1="58" x2="933" y2="60" stroke="black" stroke-width="1" />
<line x1="933" y1="60" x2="935" y2="58" stroke="black" stroke-width="1" />
<rect x="900" y="56" width="31" height="5" style="fill:#5d3c2d;stroke:black;stroke-width:1;fill-opacity:1;stroke-opacity:0.3" />
<rect x="935" y="56" width="31" height="5" style="fill:#5d3c2d;stroke:black;stroke-width:1;fill-opacity:1;stroke-opacity:0.3" />
<line x1="931" y1="93" x2="934" y2="95" stroke="black" stroke-width="1" />
<line x1="934" y1="95" x2="938" y2="93" stroke="black" stroke-width="1" />
<rect x="900" y="91" width="31" height="5" style="fill:#5d3c2d;stroke:black;stroke-width:1;fill-opacity:1;stroke-opacity:0.3" />
<rect x="938" y="91" width="31" height="5" style="fill:#5d3c2d;stroke:black;stroke-width:1;fill-opacity:1;stroke-opacity:0.3" />
<line x1="933" y1="100" x2="935" y2="102" stroke="black" stroke-width="1" />
<line x1="935" y1="102" x2="938" y2="100" stroke="black" stroke-width="1" />
<rect x="902" y="98" width="31" height="5" style="fill:#5d3c2d;stroke:black;stroke-width:1;fill-opacity:1;stroke-opacity:0.3" />
<rect x="938" y="98" width="31" height="5" style="fill:#5d3c2d;stroke:black;stroke-width:1;fill-opacity:1;stroke-opacity:0.3" />
<line x1="933" y1="114" x2="940" y2="116" stroke="black" stroke-width="1" />
<line x1="940" y1="116" x2="948" y2="114" stroke="black" stroke-width="1" />
<rect x="902" y="112" width="31" height="5" style="fill:#5d3c2d;stroke:black;stroke-width:1;fill-opacity:1;stroke-opacity:0.3" />
<rect x="948" y="112" width="31" height="5" style="fill:#5d3c2d;stroke:black;stroke-width:1;fill-opacity:1;stroke-opacity:0.3" />
<line x1="938" y1="30" x2="950" y2="32" stroke="black" stroke-width="1" />
<line x1="950" y1="32" x2="962" y2="30" stroke="black" stroke-width="1" />
<rect x="907" y="28" width="31" height="5" style="fill:#5d3c2d;stroke:black;stroke-width:1;fill-opacity:1;stroke-opacity:0.3" />
<rect x="962" y="28" width="31" height="5" style="fill:#5d3c2d;stroke:black;stroke-width:1;fill-opacity:1;stroke-opacity:0.3" />
<line x1="940" y1="65" x2="946" y2="67" stroke="black" stroke-width="1" />
<line x1="946" y1="67" x2="953" y2="65" stroke="black" stroke-width="1" />
<rect x="909" y="63" width="31" height="5" style="fill:#5d3c2d;stroke:black;stroke-width:1;fill-opacity:1;stroke-opacity:0.3" />
<rect x="953" y="63" width="31" height="5" style="fill:#5d3c2d;stroke:black;stroke-width:1;fill-opacity:1;stroke-opacity:0.3" />
<line x1="949" y1="107" x2="953" y2="109" stroke="black" stroke-width="1" />
<line x1="953" y1="109" x2="957" y2="107" stroke="black" stroke-width="1" />
<rect x="918" y="105" width="31" height="5" style="fill:#5d3c2d;stroke:black;stroke-width:1;fill-opacity:1;stroke-opacity:0.3" />
<rect x="957" y="105" width="31" height="5" style="fill:#5d3c2d;stroke:black;stroke-width:1;fill-opacity:1;stroke-opacity:0.3" />
<line x1="952" y1="121" x2="954" y2="123" stroke="black" stroke-width="1" />
<line x1="954" y1="123" x2="956" y2="121" stroke="black" stroke-width="1" />
<rect x="920" y="119" width="31" height="5" style="fill:#5d3c2d;stroke:black;stroke-width:1;fill-opacity:1;stroke-opacity:0.3" />
<rect x="956" y="119" width="31" height="5" style="fill:#5d3c2d;stroke:black;stroke-width:1;fill-opacity:1;stroke-opacity:0.3" />
<text x="15"  y="176" style="font-family:Arial;font-size:10;stroke:black;fill:black;">all.merged.bam</text>
</svg>
    
