<?xml version="1.0" encoding="utf-8" standalone="no"?>
<!DOCTYPE svg PUBLIC "-//W3C//DTD SVG 1.1//EN"
  "http://www.w3.org/Graphics/SVG/1.1/DTD/svg11.dtd">
<svg height="1140" width="1000" version="1.1" viewBox="0 0 1000 1140" xmlns="http://www.w3.org/2000/svg" xmlns:xlink="http://www.w3.org/1999/xlink">
<line x1="86" y1="11" x2="912" y2="11" stroke="black" stroke-width="1" />
<rect x="86" y="9" width="80" height="5" style="fill:#f50002;stroke:black;stroke-width:1;fill-opacity:1;stroke-opacity:0.3" />
<rect x="167" y="9" width="44" height="5" style="fill:#53a1b5;stroke:black;stroke-width:1;fill-opacity:1;stroke-opacity:0.3" />
<rect x="279" y="9" width="41" height="5" style="fill:#53a1b5;stroke:black;stroke-width:1;fill-opacity:1;stroke-opacity:0.3" />
<rect x="486" y="9" width="22" height="5" style="fill:#53a1b5;stroke:black;stroke-width:1;fill-opacity:1;stroke-opacity:0.3" />
<rect x="798" y="9" width="30" height="5" style="fill:#53a1b5;stroke:black;stroke-width:1;fill-opacity:1;stroke-opacity:0.3" />
<rect x="829" y="9" width="83" height="5" style="fill:#f50002;stroke:black;stroke-width:1;fill-opacity:1;stroke-opacity:0.3" />
<text x="86"  y="23" style="font-family:Arial;font-size:10;stroke:black;fill:black;">Cre03.g207050.t1.2.v5.5 (+) chromosome_3:7288444-7289403</text>
<line x1="148" y1="30" x2="153" y2="32" stroke="black" stroke-width="1" />
<line x1="153" y1="32" x2="159" y2="30" stroke="black" stroke-width="1" />
<rect x="62" y="28" width="86" height="5" style="fill:#5d3c2d;stroke:black;stroke-width:1;fill-opacity:1;stroke-opacity:0.3" />
<rect x="159" y="28" width="53" height="5" style="fill:#5d3c2d;stroke:black;stroke-width:1;fill-opacity:1;stroke-opacity:0.3" />
<line x1="212" y1="30" x2="279" y2="30" stroke="pink" stroke-width="1" />
<rect x="279" y="28" width="32" height="5" style="fill:#5d3c2d;stroke:black;stroke-width:1;fill-opacity:1;stroke-opacity:0.3" />
<line x1="195" y1="37" x2="350" y2="39" stroke="black" stroke-width="1" />
<line x1="350" y1="39" x2="506" y2="37" stroke="black" stroke-width="1" />
<rect x="109" y="35" width="86" height="5" style="fill:#5d3c2d;stroke:black;stroke-width:1;fill-opacity:1;stroke-opacity:0.3" />
<rect x="506" y="35" width="2" height="5" style="fill:#5d3c2d;stroke:black;stroke-width:1;fill-opacity:1;stroke-opacity:0.3" />
<line x1="509" y1="37" x2="798" y2="37" stroke="pink" stroke-width="1" />
<rect x="798" y="35" width="82" height="5" style="fill:#5d3c2d;stroke:black;stroke-width:1;fill-opacity:1;stroke-opacity:0.3" />
<line x1="205" y1="44" x2="249" y2="46" stroke="black" stroke-width="1" />
<line x1="249" y1="46" x2="293" y2="44" stroke="black" stroke-width="1" />
<rect x="118" y="42" width="86" height="5" style="fill:#5d3c2d;stroke:black;stroke-width:1;fill-opacity:1;stroke-opacity:0.3" />
<rect x="293" y="42" width="27" height="5" style="fill:#5d3c2d;stroke:black;stroke-width:1;fill-opacity:1;stroke-opacity:0.3" />
<line x1="321" y1="44" x2="486" y2="44" stroke="pink" stroke-width="1" />
<rect x="486" y="42" width="23" height="5" style="fill:#5d3c2d;stroke:black;stroke-width:1;fill-opacity:1;stroke-opacity:0.3" />
<line x1="509" y1="44" x2="798" y2="44" stroke="pink" stroke-width="1" />
<rect x="798" y="42" width="35" height="5" style="fill:#5d3c2d;stroke:black;stroke-width:1;fill-opacity:1;stroke-opacity:0.3" />
<line x1="205" y1="51" x2="245" y2="53" stroke="black" stroke-width="1" />
<line x1="245" y1="53" x2="286" y2="51" stroke="black" stroke-width="1" />
<rect x="118" y="49" width="86" height="5" style="fill:#5d3c2d;stroke:black;stroke-width:1;fill-opacity:1;stroke-opacity:0.3" />
<rect x="286" y="49" width="35" height="5" style="fill:#5d3c2d;stroke:black;stroke-width:1;fill-opacity:1;stroke-opacity:0.3" />
<line x1="321" y1="51" x2="486" y2="51" stroke="pink" stroke-width="1" />
<rect x="486" y="49" width="23" height="5" style="fill:#5d3c2d;stroke:black;stroke-width:1;fill-opacity:1;stroke-opacity:0.3" />
<line x1="509" y1="51" x2="798" y2="51" stroke="pink" stroke-width="1" />
<rect x="798" y="49" width="27" height="5" style="fill:#5d3c2d;stroke:black;stroke-width:1;fill-opacity:1;stroke-opacity:0.3" />
<line x1="206" y1="58" x2="245" y2="60" stroke="black" stroke-width="1" />
<line x1="245" y1="60" x2="285" y2="58" stroke="black" stroke-width="1" />
<rect x="119" y="56" width="86" height="5" style="fill:#5d3c2d;stroke:black;stroke-width:1;fill-opacity:1;stroke-opacity:0.3" />
<rect x="285" y="56" width="36" height="5" style="fill:#5d3c2d;stroke:black;stroke-width:1;fill-opacity:1;stroke-opacity:0.3" />
<line x1="321" y1="58" x2="486" y2="58" stroke="pink" stroke-width="1" />
<rect x="486" y="56" width="23" height="5" style="fill:#5d3c2d;stroke:black;stroke-width:1;fill-opacity:1;stroke-opacity:0.3" />
<line x1="509" y1="58" x2="798" y2="58" stroke="pink" stroke-width="1" />
<rect x="798" y="56" width="26" height="5" style="fill:#5d3c2d;stroke:black;stroke-width:1;fill-opacity:1;stroke-opacity:0.3" />
<line x1="206" y1="65" x2="245" y2="67" stroke="black" stroke-width="1" />
<line x1="245" y1="67" x2="285" y2="65" stroke="black" stroke-width="1" />
<rect x="119" y="63" width="86" height="5" style="fill:#5d3c2d;stroke:black;stroke-width:1;fill-opacity:1;stroke-opacity:0.3" />
<rect x="285" y="63" width="36" height="5" style="fill:#5d3c2d;stroke:black;stroke-width:1;fill-opacity:1;stroke-opacity:0.3" />
<line x1="321" y1="65" x2="486" y2="65" stroke="pink" stroke-width="1" />
<rect x="486" y="63" width="23" height="5" style="fill:#5d3c2d;stroke:black;stroke-width:1;fill-opacity:1;stroke-opacity:0.3" />
<line x1="509" y1="65" x2="798" y2="65" stroke="pink" stroke-width="1" />
<rect x="798" y="63" width="26" height="5" style="fill:#5d3c2d;stroke:black;stroke-width:1;fill-opacity:1;stroke-opacity:0.3" />
<line x1="206" y1="72" x2="249" y2="74" stroke="black" stroke-width="1" />
<line x1="249" y1="74" x2="293" y2="72" stroke="black" stroke-width="1" />
<rect x="119" y="70" width="86" height="5" style="fill:#5d3c2d;stroke:black;stroke-width:1;fill-opacity:1;stroke-opacity:0.3" />
<rect x="293" y="70" width="28" height="5" style="fill:#5d3c2d;stroke:black;stroke-width:1;fill-opacity:1;stroke-opacity:0.3" />
<line x1="321" y1="72" x2="486" y2="72" stroke="pink" stroke-width="1" />
<rect x="486" y="70" width="23" height="5" style="fill:#5d3c2d;stroke:black;stroke-width:1;fill-opacity:1;stroke-opacity:0.3" />
<line x1="509" y1="72" x2="798" y2="72" stroke="pink" stroke-width="1" />
<rect x="798" y="70" width="34" height="5" style="fill:#5d3c2d;stroke:black;stroke-width:1;fill-opacity:1;stroke-opacity:0.3" />
<line x1="206" y1="79" x2="251" y2="81" stroke="black" stroke-width="1" />
<line x1="251" y1="81" x2="297" y2="79" stroke="black" stroke-width="1" />
<rect x="120" y="77" width="86" height="5" style="fill:#5d3c2d;stroke:black;stroke-width:1;fill-opacity:1;stroke-opacity:0.3" />
<rect x="297" y="77" width="24" height="5" style="fill:#5d3c2d;stroke:black;stroke-width:1;fill-opacity:1;stroke-opacity:0.3" />
<line x1="321" y1="79" x2="486" y2="79" stroke="pink" stroke-width="1" />
<rect x="486" y="77" width="23" height="5" style="fill:#5d3c2d;stroke:black;stroke-width:1;fill-opacity:1;stroke-opacity:0.3" />
<line x1="509" y1="79" x2="798" y2="79" stroke="pink" stroke-width="1" />
<rect x="798" y="77" width="38" height="5" style="fill:#5d3c2d;stroke:black;stroke-width:1;fill-opacity:1;stroke-opacity:0.3" />
<line x1="206" y1="86" x2="251" y2="88" stroke="black" stroke-width="1" />
<line x1="251" y1="88" x2="297" y2="86" stroke="black" stroke-width="1" />
<rect x="120" y="84" width="86" height="5" style="fill:#5d3c2d;stroke:black;stroke-width:1;fill-opacity:1;stroke-opacity:0.3" />
<rect x="297" y="84" width="24" height="5" style="fill:#5d3c2d;stroke:black;stroke-width:1;fill-opacity:1;stroke-opacity:0.3" />
<line x1="321" y1="86" x2="486" y2="86" stroke="pink" stroke-width="1" />
<rect x="486" y="84" width="23" height="5" style="fill:#5d3c2d;stroke:black;stroke-width:1;fill-opacity:1;stroke-opacity:0.3" />
<line x1="509" y1="86" x2="798" y2="86" stroke="pink" stroke-width="1" />
<rect x="798" y="84" width="38" height="5" style="fill:#5d3c2d;stroke:black;stroke-width:1;fill-opacity:1;stroke-opacity:0.3" />
<line x1="208" y1="93" x2="246" y2="95" stroke="black" stroke-width="1" />
<line x1="246" y1="95" x2="285" y2="93" stroke="black" stroke-width="1" />
<rect x="122" y="91" width="86" height="5" style="fill:#5d3c2d;stroke:black;stroke-width:1;fill-opacity:1;stroke-opacity:0.3" />
<rect x="285" y="91" width="36" height="5" style="fill:#5d3c2d;stroke:black;stroke-width:1;fill-opacity:1;stroke-opacity:0.3" />
<line x1="321" y1="93" x2="486" y2="93" stroke="pink" stroke-width="1" />
<rect x="486" y="91" width="23" height="5" style="fill:#5d3c2d;stroke:black;stroke-width:1;fill-opacity:1;stroke-opacity:0.3" />
<line x1="509" y1="93" x2="798" y2="93" stroke="pink" stroke-width="1" />
<rect x="798" y="91" width="26" height="5" style="fill:#5d3c2d;stroke:black;stroke-width:1;fill-opacity:1;stroke-opacity:0.3" />
<line x1="208" y1="100" x2="246" y2="102" stroke="black" stroke-width="1" />
<line x1="246" y1="102" x2="285" y2="100" stroke="black" stroke-width="1" />
<rect x="122" y="98" width="86" height="5" style="fill:#5d3c2d;stroke:black;stroke-width:1;fill-opacity:1;stroke-opacity:0.3" />
<rect x="285" y="98" width="36" height="5" style="fill:#5d3c2d;stroke:black;stroke-width:1;fill-opacity:1;stroke-opacity:0.3" />
<line x1="321" y1="100" x2="486" y2="100" stroke="pink" stroke-width="1" />
<rect x="486" y="98" width="23" height="5" style="fill:#5d3c2d;stroke:black;stroke-width:1;fill-opacity:1;stroke-opacity:0.3" />
<line x1="509" y1="100" x2="798" y2="100" stroke="pink" stroke-width="1" />
<rect x="798" y="98" width="26" height="5" style="fill:#5d3c2d;stroke:black;stroke-width:1;fill-opacity:1;stroke-opacity:0.3" />
<line x1="208" y1="107" x2="357" y2="109" stroke="black" stroke-width="1" />
<line x1="357" y1="109" x2="506" y2="107" stroke="black" stroke-width="1" />
<rect x="122" y="105" width="86" height="5" style="fill:#5d3c2d;stroke:black;stroke-width:1;fill-opacity:1;stroke-opacity:0.3" />
<rect x="506" y="105" width="3" height="5" style="fill:#5d3c2d;stroke:black;stroke-width:1;fill-opacity:1;stroke-opacity:0.3" />
<line x1="509" y1="107" x2="798" y2="107" stroke="pink" stroke-width="1" />
<rect x="798" y="105" width="82" height="5" style="fill:#5d3c2d;stroke:black;stroke-width:1;fill-opacity:1;stroke-opacity:0.3" />
<line x1="209" y1="114" x2="505" y2="116" stroke="black" stroke-width="1" />
<line x1="505" y1="116" x2="802" y2="114" stroke="black" stroke-width="1" />
<rect x="123" y="112" width="86" height="5" style="fill:#5d3c2d;stroke:black;stroke-width:1;fill-opacity:1;stroke-opacity:0.3" />
<rect x="802" y="112" width="86" height="5" style="fill:#5d3c2d;stroke:black;stroke-width:1;fill-opacity:1;stroke-opacity:0.3" />
<line x1="209" y1="121" x2="247" y2="123" stroke="black" stroke-width="1" />
<line x1="247" y1="123" x2="285" y2="121" stroke="black" stroke-width="1" />
<rect x="123" y="119" width="86" height="5" style="fill:#5d3c2d;stroke:black;stroke-width:1;fill-opacity:1;stroke-opacity:0.3" />
<rect x="285" y="119" width="36" height="5" style="fill:#5d3c2d;stroke:black;stroke-width:1;fill-opacity:1;stroke-opacity:0.3" />
<line x1="321" y1="121" x2="486" y2="121" stroke="pink" stroke-width="1" />
<rect x="486" y="119" width="23" height="5" style="fill:#5d3c2d;stroke:black;stroke-width:1;fill-opacity:1;stroke-opacity:0.3" />
<line x1="509" y1="121" x2="798" y2="121" stroke="pink" stroke-width="1" />
<rect x="798" y="119" width="26" height="5" style="fill:#5d3c2d;stroke:black;stroke-width:1;fill-opacity:1;stroke-opacity:0.3" />
<line x1="211" y1="128" x2="245" y2="130" stroke="black" stroke-width="1" />
<line x1="245" y1="130" x2="279" y2="128" stroke="black" stroke-width="1" />
<rect x="125" y="126" width="86" height="5" style="fill:#5d3c2d;stroke:black;stroke-width:1;fill-opacity:1;stroke-opacity:0.3" />
<rect x="279" y="126" width="42" height="5" style="fill:#5d3c2d;stroke:black;stroke-width:1;fill-opacity:1;stroke-opacity:0.3" />
<line x1="321" y1="128" x2="486" y2="128" stroke="pink" stroke-width="1" />
<rect x="486" y="126" width="23" height="5" style="fill:#5d3c2d;stroke:black;stroke-width:1;fill-opacity:1;stroke-opacity:0.3" />
<line x1="509" y1="128" x2="798" y2="128" stroke="pink" stroke-width="1" />
<rect x="798" y="126" width="20" height="5" style="fill:#5d3c2d;stroke:black;stroke-width:1;fill-opacity:1;stroke-opacity:0.3" />
<line x1="211" y1="135" x2="514" y2="137" stroke="black" stroke-width="1" />
<line x1="514" y1="137" x2="818" y2="135" stroke="black" stroke-width="1" />
<rect x="125" y="133" width="86" height="5" style="fill:#5d3c2d;stroke:black;stroke-width:1;fill-opacity:1;stroke-opacity:0.3" />
<rect x="818" y="133" width="86" height="5" style="fill:#5d3c2d;stroke:black;stroke-width:1;fill-opacity:1;stroke-opacity:0.3" />
<line x1="211" y1="142" x2="247" y2="144" stroke="black" stroke-width="1" />
<line x1="247" y1="144" x2="283" y2="142" stroke="black" stroke-width="1" />
<rect x="125" y="140" width="86" height="5" style="fill:#5d3c2d;stroke:black;stroke-width:1;fill-opacity:1;stroke-opacity:0.3" />
<rect x="283" y="140" width="37" height="5" style="fill:#5d3c2d;stroke:black;stroke-width:1;fill-opacity:1;stroke-opacity:0.3" />
<line x1="321" y1="142" x2="486" y2="142" stroke="pink" stroke-width="1" />
<rect x="486" y="140" width="23" height="5" style="fill:#5d3c2d;stroke:black;stroke-width:1;fill-opacity:1;stroke-opacity:0.3" />
<line x1="509" y1="142" x2="798" y2="142" stroke="pink" stroke-width="1" />
<rect x="798" y="140" width="25" height="5" style="fill:#5d3c2d;stroke:black;stroke-width:1;fill-opacity:1;stroke-opacity:0.3" />
<line x1="211" y1="149" x2="515" y2="151" stroke="black" stroke-width="1" />
<line x1="515" y1="151" x2="819" y2="149" stroke="black" stroke-width="1" />
<rect x="125" y="147" width="86" height="5" style="fill:#5d3c2d;stroke:black;stroke-width:1;fill-opacity:1;stroke-opacity:0.3" />
<rect x="819" y="147" width="86" height="5" style="fill:#5d3c2d;stroke:black;stroke-width:1;fill-opacity:1;stroke-opacity:0.3" />
<line x1="211" y1="156" x2="246" y2="158" stroke="black" stroke-width="1" />
<line x1="246" y1="158" x2="282" y2="156" stroke="black" stroke-width="1" />
<rect x="125" y="154" width="86" height="5" style="fill:#5d3c2d;stroke:black;stroke-width:1;fill-opacity:1;stroke-opacity:0.3" />
<rect x="282" y="154" width="38" height="5" style="fill:#5d3c2d;stroke:black;stroke-width:1;fill-opacity:1;stroke-opacity:0.3" />
<line x1="321" y1="156" x2="486" y2="156" stroke="pink" stroke-width="1" />
<rect x="486" y="154" width="23" height="5" style="fill:#5d3c2d;stroke:black;stroke-width:1;fill-opacity:1;stroke-opacity:0.3" />
<line x1="509" y1="156" x2="798" y2="156" stroke="pink" stroke-width="1" />
<rect x="798" y="154" width="24" height="5" style="fill:#5d3c2d;stroke:black;stroke-width:1;fill-opacity:1;stroke-opacity:0.3" />
<line x1="211" y1="163" x2="519" y2="165" stroke="black" stroke-width="1" />
<line x1="519" y1="165" x2="828" y2="163" stroke="black" stroke-width="1" />
<rect x="125" y="161" width="86" height="5" style="fill:#5d3c2d;stroke:black;stroke-width:1;fill-opacity:1;stroke-opacity:0.3" />
<rect x="828" y="161" width="86" height="5" style="fill:#5d3c2d;stroke:black;stroke-width:1;fill-opacity:1;stroke-opacity:0.3" />
<line x1="417" y1="30" x2="428" y2="32" stroke="black" stroke-width="1" />
<line x1="428" y1="32" x2="439" y2="30" stroke="black" stroke-width="1" />
<rect x="331" y="28" width="86" height="5" style="fill:#5d3c2d;stroke:black;stroke-width:1;fill-opacity:1;stroke-opacity:0.3" />
<rect x="439" y="28" width="69" height="5" style="fill:#5d3c2d;stroke:black;stroke-width:1;fill-opacity:1;stroke-opacity:0.3" />
<line x1="509" y1="30" x2="798" y2="30" stroke="pink" stroke-width="1" />
<rect x="798" y="28" width="15" height="5" style="fill:#5d3c2d;stroke:black;stroke-width:1;fill-opacity:1;stroke-opacity:0.3" />
<text x="15"  y="176" style="font-family:Arial;font-size:10;stroke:black;fill:black;">all.merged.bam</text>
</svg>
    
