<?xml version="1.0" encoding="utf-8" standalone="no"?>
<!DOCTYPE svg PUBLIC "-//W3C//DTD SVG 1.1//EN"
  "http://www.w3.org/Graphics/SVG/1.1/DTD/svg11.dtd">
<svg height="1140" width="1000" version="1.1" viewBox="0 0 1000 1140" xmlns="http://www.w3.org/2000/svg" xmlns:xlink="http://www.w3.org/1999/xlink">
<line x1="70" y1="11" x2="928" y2="11" stroke="black" stroke-width="1" />
<rect x="70" y="9" width="31" height="5" style="fill:#f50002;stroke:black;stroke-width:1;fill-opacity:1;stroke-opacity:0.3" />
<rect x="102" y="9" width="286" height="5" style="fill:#53a1b5;stroke:black;stroke-width:1;fill-opacity:1;stroke-opacity:0.3" />
<rect x="389" y="9" width="539" height="5" style="fill:#f50002;stroke:black;stroke-width:1;fill-opacity:1;stroke-opacity:0.3" />
<text x="70"  y="23" style="font-family:Arial;font-size:10;stroke:black;fill:black;">Cre06.g264650.t1.2.v5.5 (+) chromosome_6:2051306-2052527</text>
<line x1="164" y1="30" x2="170" y2="32" stroke="black" stroke-width="1" />
<line x1="170" y1="32" x2="177" y2="30" stroke="black" stroke-width="1" />
<rect x="94" y="28" width="70" height="5" style="fill:#5d3c2d;stroke:black;stroke-width:1;fill-opacity:1;stroke-opacity:0.3" />
<rect x="177" y="28" width="70" height="5" style="fill:#5d3c2d;stroke:black;stroke-width:1;fill-opacity:1;stroke-opacity:0.3" />
<line x1="180" y1="37" x2="195" y2="39" stroke="black" stroke-width="1" />
<line x1="195" y1="39" x2="210" y2="37" stroke="black" stroke-width="1" />
<rect x="110" y="35" width="70" height="5" style="fill:#5d3c2d;stroke:black;stroke-width:1;fill-opacity:1;stroke-opacity:0.3" />
<rect x="210" y="35" width="70" height="5" style="fill:#5d3c2d;stroke:black;stroke-width:1;fill-opacity:1;stroke-opacity:0.3" />
<line x1="220" y1="44" x2="232" y2="46" stroke="black" stroke-width="1" />
<line x1="232" y1="46" x2="245" y2="44" stroke="black" stroke-width="1" />
<rect x="150" y="42" width="70" height="5" style="fill:#5d3c2d;stroke:black;stroke-width:1;fill-opacity:1;stroke-opacity:0.3" />
<rect x="245" y="42" width="70" height="5" style="fill:#5d3c2d;stroke:black;stroke-width:1;fill-opacity:1;stroke-opacity:0.3" />
<line x1="536" y1="30" x2="543" y2="32" stroke="black" stroke-width="1" />
<line x1="543" y1="32" x2="551" y2="30" stroke="black" stroke-width="1" />
<rect x="466" y="28" width="70" height="5" style="fill:#5d3c2d;stroke:black;stroke-width:1;fill-opacity:1;stroke-opacity:0.3" />
<rect x="551" y="28" width="70" height="5" style="fill:#5d3c2d;stroke:black;stroke-width:1;fill-opacity:1;stroke-opacity:0.3" />
<line x1="793" y1="30" x2="796" y2="32" stroke="black" stroke-width="1" />
<line x1="796" y1="32" x2="800" y2="30" stroke="black" stroke-width="1" />
<rect x="722" y="28" width="70" height="5" style="fill:#5d3c2d;stroke:black;stroke-width:1;fill-opacity:1;stroke-opacity:0.3" />
<rect x="800" y="28" width="70" height="5" style="fill:#5d3c2d;stroke:black;stroke-width:1;fill-opacity:1;stroke-opacity:0.3" />
<line x1="911" y1="37" x2="917" y2="39" stroke="black" stroke-width="1" />
<line x1="917" y1="39" x2="923" y2="37" stroke="black" stroke-width="1" />
<rect x="847" y="35" width="63" height="5" style="fill:#f5b024;stroke:black;stroke-width:1;fill-opacity:1;stroke-opacity:0.3" />
<rect x="923" y="35" width="70" height="5" style="fill:#f5b024;stroke:black;stroke-width:1;fill-opacity:1;stroke-opacity:0.3" />
<line x1="912" y1="44" x2="917" y2="46" stroke="black" stroke-width="1" />
<line x1="917" y1="46" x2="923" y2="44" stroke="black" stroke-width="1" />
<rect x="847" y="42" width="65" height="5" style="fill:#f5b024;stroke:black;stroke-width:1;fill-opacity:1;stroke-opacity:0.3" />
<rect x="923" y="42" width="70" height="5" style="fill:#f5b024;stroke:black;stroke-width:1;fill-opacity:1;stroke-opacity:0.3" />
<line x1="918" y1="51" x2="923" y2="53" stroke="black" stroke-width="1" />
<line x1="923" y1="53" x2="928" y2="51" stroke="black" stroke-width="1" />
<rect x="850" y="49" width="67" height="5" style="fill:#f5b024;stroke:black;stroke-width:1;fill-opacity:1;stroke-opacity:0.3" />
<rect x="928" y="49" width="70" height="5" style="fill:#f5b024;stroke:black;stroke-width:1;fill-opacity:1;stroke-opacity:0.3" />
<line x1="912" y1="58" x2="917" y2="60" stroke="black" stroke-width="1" />
<line x1="917" y1="60" x2="923" y2="58" stroke="black" stroke-width="1" />
<rect x="852" y="56" width="59" height="5" style="fill:#f5b024;stroke:black;stroke-width:1;fill-opacity:1;stroke-opacity:0.3" />
<rect x="923" y="56" width="70" height="5" style="fill:#f5b024;stroke:black;stroke-width:1;fill-opacity:1;stroke-opacity:0.3" />
<line x1="913" y1="65" x2="917" y2="67" stroke="black" stroke-width="1" />
<line x1="917" y1="67" x2="921" y2="65" stroke="black" stroke-width="1" />
<rect x="852" y="63" width="61" height="5" style="fill:#f5b024;stroke:black;stroke-width:1;fill-opacity:1;stroke-opacity:0.3" />
<rect x="921" y="63" width="70" height="5" style="fill:#f5b024;stroke:black;stroke-width:1;fill-opacity:1;stroke-opacity:0.3" />
<line x1="914" y1="72" x2="919" y2="74" stroke="black" stroke-width="1" />
<line x1="919" y1="74" x2="925" y2="72" stroke="black" stroke-width="1" />
<rect x="852" y="70" width="61" height="5" style="fill:#5d3c2d;stroke:black;stroke-width:1;fill-opacity:1;stroke-opacity:0.3" />
<rect x="925" y="70" width="70" height="5" style="fill:#5d3c2d;stroke:black;stroke-width:1;fill-opacity:1;stroke-opacity:0.3" />
<line x1="912" y1="79" x2="917" y2="81" stroke="black" stroke-width="1" />
<line x1="917" y1="81" x2="923" y2="79" stroke="black" stroke-width="1" />
<rect x="852" y="77" width="59" height="5" style="fill:#f5b024;stroke:black;stroke-width:1;fill-opacity:1;stroke-opacity:0.3" />
<rect x="923" y="77" width="70" height="5" style="fill:#f5b024;stroke:black;stroke-width:1;fill-opacity:1;stroke-opacity:0.3" />
<line x1="909" y1="86" x2="914" y2="88" stroke="black" stroke-width="1" />
<line x1="914" y1="88" x2="919" y2="86" stroke="black" stroke-width="1" />
<rect x="852" y="84" width="57" height="5" style="fill:#f5b024;stroke:black;stroke-width:1;fill-opacity:1;stroke-opacity:0.3" />
<rect x="919" y="84" width="70" height="5" style="fill:#f5b024;stroke:black;stroke-width:1;fill-opacity:1;stroke-opacity:0.3" />
<line x1="913" y1="93" x2="918" y2="95" stroke="black" stroke-width="1" />
<line x1="918" y1="95" x2="923" y2="93" stroke="black" stroke-width="1" />
<rect x="852" y="91" width="61" height="5" style="fill:#f5b024;stroke:black;stroke-width:1;fill-opacity:1;stroke-opacity:0.3" />
<rect x="923" y="91" width="70" height="5" style="fill:#f5b024;stroke:black;stroke-width:1;fill-opacity:1;stroke-opacity:0.3" />
<text x="15"  y="176" style="font-family:Arial;font-size:10;stroke:black;fill:black;">all.merged.bam</text>
</svg>
    
