<?xml version="1.0" encoding="utf-8" standalone="no"?>
<!DOCTYPE svg PUBLIC "-//W3C//DTD SVG 1.1//EN"
  "http://www.w3.org/Graphics/SVG/1.1/DTD/svg11.dtd">
<svg height="1140" width="1000" version="1.1" viewBox="0 0 1000 1140" xmlns="http://www.w3.org/2000/svg" xmlns:xlink="http://www.w3.org/1999/xlink">
<line x1="47" y1="11" x2="952" y2="11" stroke="black" stroke-width="1" />
<rect x="47" y="9" width="307" height="5" style="fill:#f50002;stroke:black;stroke-width:1;fill-opacity:1;stroke-opacity:0.3" />
<rect x="355" y="9" width="30" height="5" style="fill:#53a1b5;stroke:black;stroke-width:1;fill-opacity:1;stroke-opacity:0.3" />
<rect x="451" y="9" width="36" height="5" style="fill:#53a1b5;stroke:black;stroke-width:1;fill-opacity:1;stroke-opacity:0.3" />
<rect x="652" y="9" width="38" height="5" style="fill:#53a1b5;stroke:black;stroke-width:1;fill-opacity:1;stroke-opacity:0.3" />
<rect x="860" y="9" width="7" height="5" style="fill:#53a1b5;stroke:black;stroke-width:1;fill-opacity:1;stroke-opacity:0.3" />
<rect x="867" y="9" width="84" height="5" style="fill:#f50002;stroke:black;stroke-width:1;fill-opacity:1;stroke-opacity:0.3" />
<text x="47"  y="23" style="font-family:Arial;font-size:10;stroke:black;fill:black;">Cre08.g369350.t1.1.v5.5 (-) chromosome_8:2161552-2163463</text>
<line x1="94" y1="30" x2="117" y2="32" stroke="black" stroke-width="1" />
<line x1="117" y1="32" x2="141" y2="30" stroke="black" stroke-width="1" />
<rect x="47" y="28" width="46" height="5" style="fill:#f5b024;stroke:black;stroke-width:1;fill-opacity:1;stroke-opacity:0.3" />
<rect x="141" y="28" width="47" height="5" style="fill:#f5b024;stroke:black;stroke-width:1;fill-opacity:1;stroke-opacity:0.3" />
<line x1="94" y1="37" x2="117" y2="39" stroke="black" stroke-width="1" />
<line x1="117" y1="39" x2="141" y2="37" stroke="black" stroke-width="1" />
<rect x="47" y="35" width="46" height="5" style="fill:#f5b024;stroke:black;stroke-width:1;fill-opacity:1;stroke-opacity:0.3" />
<rect x="141" y="35" width="47" height="5" style="fill:#f5b024;stroke:black;stroke-width:1;fill-opacity:1;stroke-opacity:0.3" />
<line x1="94" y1="44" x2="101" y2="46" stroke="black" stroke-width="1" />
<line x1="101" y1="46" x2="109" y2="44" stroke="black" stroke-width="1" />
<rect x="47" y="42" width="46" height="5" style="fill:#f5b024;stroke:black;stroke-width:1;fill-opacity:1;stroke-opacity:0.3" />
<rect x="109" y="42" width="47" height="5" style="fill:#f5b024;stroke:black;stroke-width:1;fill-opacity:1;stroke-opacity:0.3" />
<line x1="94" y1="51" x2="104" y2="53" stroke="black" stroke-width="1" />
<line x1="104" y1="53" x2="115" y2="51" stroke="black" stroke-width="1" />
<rect x="47" y="49" width="46" height="5" style="fill:#f5b024;stroke:black;stroke-width:1;fill-opacity:1;stroke-opacity:0.3" />
<rect x="115" y="49" width="47" height="5" style="fill:#f5b024;stroke:black;stroke-width:1;fill-opacity:1;stroke-opacity:0.3" />
<line x1="94" y1="58" x2="97" y2="60" stroke="black" stroke-width="1" />
<line x1="97" y1="60" x2="101" y2="58" stroke="black" stroke-width="1" />
<rect x="47" y="56" width="46" height="5" style="fill:#f5b024;stroke:black;stroke-width:1;fill-opacity:1;stroke-opacity:0.3" />
<rect x="101" y="56" width="47" height="5" style="fill:#f5b024;stroke:black;stroke-width:1;fill-opacity:1;stroke-opacity:0.3" />
<line x1="94" y1="65" x2="100" y2="67" stroke="black" stroke-width="1" />
<line x1="100" y1="67" x2="107" y2="65" stroke="black" stroke-width="1" />
<rect x="47" y="63" width="46" height="5" style="fill:#f5b024;stroke:black;stroke-width:1;fill-opacity:1;stroke-opacity:0.3" />
<rect x="107" y="63" width="47" height="5" style="fill:#f5b024;stroke:black;stroke-width:1;fill-opacity:1;stroke-opacity:0.3" />
<line x1="95" y1="72" x2="109" y2="74" stroke="black" stroke-width="1" />
<line x1="109" y1="74" x2="123" y2="72" stroke="black" stroke-width="1" />
<rect x="47" y="70" width="47" height="5" style="fill:#f5b024;stroke:black;stroke-width:1;fill-opacity:1;stroke-opacity:0.3" />
<rect x="123" y="70" width="47" height="5" style="fill:#f5b024;stroke:black;stroke-width:1;fill-opacity:1;stroke-opacity:0.3" />
<line x1="94" y1="79" x2="97" y2="81" stroke="black" stroke-width="1" />
<line x1="97" y1="81" x2="101" y2="79" stroke="black" stroke-width="1" />
<rect x="47" y="77" width="46" height="5" style="fill:#f5b024;stroke:black;stroke-width:1;fill-opacity:1;stroke-opacity:0.3" />
<rect x="101" y="77" width="47" height="5" style="fill:#f5b024;stroke:black;stroke-width:1;fill-opacity:1;stroke-opacity:0.3" />
<line x1="95" y1="86" x2="110" y2="88" stroke="black" stroke-width="1" />
<line x1="110" y1="88" x2="126" y2="86" stroke="black" stroke-width="1" />
<rect x="47" y="84" width="47" height="5" style="fill:#f5b024;stroke:black;stroke-width:1;fill-opacity:1;stroke-opacity:0.3" />
<rect x="126" y="84" width="47" height="5" style="fill:#f5b024;stroke:black;stroke-width:1;fill-opacity:1;stroke-opacity:0.3" />
<line x1="95" y1="93" x2="102" y2="95" stroke="black" stroke-width="1" />
<line x1="102" y1="95" x2="110" y2="93" stroke="black" stroke-width="1" />
<rect x="47" y="91" width="47" height="5" style="fill:#f5b024;stroke:black;stroke-width:1;fill-opacity:1;stroke-opacity:0.3" />
<rect x="110" y="91" width="47" height="5" style="fill:#f5b024;stroke:black;stroke-width:1;fill-opacity:1;stroke-opacity:0.3" />
<line x1="95" y1="100" x2="111" y2="102" stroke="black" stroke-width="1" />
<line x1="111" y1="102" x2="128" y2="100" stroke="black" stroke-width="1" />
<rect x="48" y="98" width="47" height="5" style="fill:#f5b024;stroke:black;stroke-width:1;fill-opacity:1;stroke-opacity:0.3" />
<rect x="128" y="98" width="47" height="5" style="fill:#f5b024;stroke:black;stroke-width:1;fill-opacity:1;stroke-opacity:0.3" />
<line x1="94" y1="107" x2="105" y2="109" stroke="black" stroke-width="1" />
<line x1="105" y1="109" x2="116" y2="107" stroke="black" stroke-width="1" />
<rect x="48" y="105" width="46" height="5" style="fill:#f5b024;stroke:black;stroke-width:1;fill-opacity:1;stroke-opacity:0.3" />
<rect x="116" y="105" width="47" height="5" style="fill:#f5b024;stroke:black;stroke-width:1;fill-opacity:1;stroke-opacity:0.3" />
<line x1="95" y1="114" x2="102" y2="116" stroke="black" stroke-width="1" />
<line x1="102" y1="116" x2="109" y2="114" stroke="black" stroke-width="1" />
<rect x="48" y="112" width="46" height="5" style="fill:#5d3c2d;stroke:black;stroke-width:1;fill-opacity:1;stroke-opacity:0.3" />
<rect x="109" y="112" width="46" height="5" style="fill:#5d3c2d;stroke:black;stroke-width:1;fill-opacity:1;stroke-opacity:0.3" />
<line x1="95" y1="121" x2="99" y2="123" stroke="black" stroke-width="1" />
<line x1="99" y1="123" x2="104" y2="121" stroke="black" stroke-width="1" />
<rect x="48" y="119" width="46" height="5" style="fill:#f5b024;stroke:black;stroke-width:1;fill-opacity:1;stroke-opacity:0.3" />
<rect x="104" y="119" width="47" height="5" style="fill:#f5b024;stroke:black;stroke-width:1;fill-opacity:1;stroke-opacity:0.3" />
<line x1="95" y1="128" x2="100" y2="130" stroke="black" stroke-width="1" />
<line x1="100" y1="130" x2="106" y2="128" stroke="black" stroke-width="1" />
<rect x="48" y="126" width="46" height="5" style="fill:#f5b024;stroke:black;stroke-width:1;fill-opacity:1;stroke-opacity:0.3" />
<rect x="106" y="126" width="47" height="5" style="fill:#f5b024;stroke:black;stroke-width:1;fill-opacity:1;stroke-opacity:0.3" />
<line x1="95" y1="135" x2="100" y2="137" stroke="black" stroke-width="1" />
<line x1="100" y1="137" x2="106" y2="135" stroke="black" stroke-width="1" />
<rect x="48" y="133" width="46" height="5" style="fill:#f5b024;stroke:black;stroke-width:1;fill-opacity:1;stroke-opacity:0.3" />
<rect x="106" y="133" width="47" height="5" style="fill:#f5b024;stroke:black;stroke-width:1;fill-opacity:1;stroke-opacity:0.3" />
<line x1="95" y1="142" x2="100" y2="144" stroke="black" stroke-width="1" />
<line x1="100" y1="144" x2="106" y2="142" stroke="black" stroke-width="1" />
<rect x="48" y="140" width="46" height="5" style="fill:#f5b024;stroke:black;stroke-width:1;fill-opacity:1;stroke-opacity:0.3" />
<rect x="106" y="140" width="47" height="5" style="fill:#f5b024;stroke:black;stroke-width:1;fill-opacity:1;stroke-opacity:0.3" />
<line x1="95" y1="149" x2="117" y2="151" stroke="black" stroke-width="1" />
<line x1="117" y1="151" x2="140" y2="149" stroke="black" stroke-width="1" />
<rect x="48" y="147" width="47" height="5" style="fill:#f5b024;stroke:black;stroke-width:1;fill-opacity:1;stroke-opacity:0.3" />
<rect x="140" y="147" width="47" height="5" style="fill:#f5b024;stroke:black;stroke-width:1;fill-opacity:1;stroke-opacity:0.3" />
<line x1="96" y1="156" x2="111" y2="158" stroke="black" stroke-width="1" />
<line x1="111" y1="158" x2="126" y2="156" stroke="black" stroke-width="1" />
<rect x="48" y="154" width="47" height="5" style="fill:#f5b024;stroke:black;stroke-width:1;fill-opacity:1;stroke-opacity:0.3" />
<rect x="126" y="154" width="47" height="5" style="fill:#f5b024;stroke:black;stroke-width:1;fill-opacity:1;stroke-opacity:0.3" />
<line x1="96" y1="163" x2="118" y2="165" stroke="black" stroke-width="1" />
<line x1="118" y1="165" x2="140" y2="163" stroke="black" stroke-width="1" />
<rect x="49" y="161" width="47" height="5" style="fill:#f5b024;stroke:black;stroke-width:1;fill-opacity:1;stroke-opacity:0.3" />
<rect x="140" y="161" width="47" height="5" style="fill:#f5b024;stroke:black;stroke-width:1;fill-opacity:1;stroke-opacity:0.3" />
<line x1="196" y1="58" x2="220" y2="60" stroke="black" stroke-width="1" />
<line x1="220" y1="60" x2="244" y2="58" stroke="black" stroke-width="1" />
<rect x="148" y="56" width="47" height="5" style="fill:#f5b024;stroke:black;stroke-width:1;fill-opacity:1;stroke-opacity:0.3" />
<rect x="244" y="56" width="47" height="5" style="fill:#f5b024;stroke:black;stroke-width:1;fill-opacity:1;stroke-opacity:0.3" />
<line x1="198" y1="79" x2="214" y2="81" stroke="black" stroke-width="1" />
<line x1="214" y1="81" x2="230" y2="79" stroke="black" stroke-width="1" />
<rect x="151" y="77" width="47" height="5" style="fill:#5d3c2d;stroke:black;stroke-width:1;fill-opacity:1;stroke-opacity:0.3" />
<rect x="230" y="77" width="41" height="5" style="fill:#5d3c2d;stroke:black;stroke-width:1;fill-opacity:1;stroke-opacity:0.3" />
<line x1="200" y1="121" x2="211" y2="123" stroke="black" stroke-width="1" />
<line x1="211" y1="123" x2="223" y2="121" stroke="black" stroke-width="1" />
<rect x="152" y="119" width="47" height="5" style="fill:#f5b024;stroke:black;stroke-width:1;fill-opacity:1;stroke-opacity:0.3" />
<rect x="223" y="119" width="47" height="5" style="fill:#f5b024;stroke:black;stroke-width:1;fill-opacity:1;stroke-opacity:0.3" />
<line x1="204" y1="44" x2="214" y2="46" stroke="black" stroke-width="1" />
<line x1="214" y1="46" x2="225" y2="44" stroke="black" stroke-width="1" />
<rect x="156" y="42" width="47" height="5" style="fill:#5d3c2d;stroke:black;stroke-width:1;fill-opacity:1;stroke-opacity:0.3" />
<rect x="225" y="42" width="47" height="5" style="fill:#5d3c2d;stroke:black;stroke-width:1;fill-opacity:1;stroke-opacity:0.3" />
<line x1="218" y1="51" x2="221" y2="53" stroke="black" stroke-width="1" />
<line x1="221" y1="53" x2="225" y2="51" stroke="black" stroke-width="1" />
<rect x="171" y="49" width="46" height="5" style="fill:#f5b024;stroke:black;stroke-width:1;fill-opacity:1;stroke-opacity:0.3" />
<rect x="225" y="49" width="47" height="5" style="fill:#f5b024;stroke:black;stroke-width:1;fill-opacity:1;stroke-opacity:0.3" />
<line x1="219" y1="65" x2="229" y2="67" stroke="black" stroke-width="1" />
<line x1="229" y1="67" x2="240" y2="65" stroke="black" stroke-width="1" />
<rect x="172" y="63" width="47" height="5" style="fill:#5d3c2d;stroke:black;stroke-width:1;fill-opacity:1;stroke-opacity:0.3" />
<rect x="240" y="63" width="47" height="5" style="fill:#5d3c2d;stroke:black;stroke-width:1;fill-opacity:1;stroke-opacity:0.3" />
<line x1="219" y1="72" x2="239" y2="74" stroke="black" stroke-width="1" />
<line x1="239" y1="74" x2="259" y2="72" stroke="black" stroke-width="1" />
<rect x="172" y="70" width="47" height="5" style="fill:#f5b024;stroke:black;stroke-width:1;fill-opacity:1;stroke-opacity:0.3" />
<rect x="259" y="70" width="47" height="5" style="fill:#f5b024;stroke:black;stroke-width:1;fill-opacity:1;stroke-opacity:0.3" />
<line x1="220" y1="93" x2="231" y2="95" stroke="black" stroke-width="1" />
<line x1="231" y1="95" x2="243" y2="93" stroke="black" stroke-width="1" />
<rect x="173" y="91" width="46" height="5" style="fill:#f5b024;stroke:black;stroke-width:1;fill-opacity:1;stroke-opacity:0.3" />
<rect x="243" y="91" width="47" height="5" style="fill:#f5b024;stroke:black;stroke-width:1;fill-opacity:1;stroke-opacity:0.3" />
<line x1="221" y1="86" x2="224" y2="88" stroke="black" stroke-width="1" />
<line x1="224" y1="88" x2="227" y2="86" stroke="black" stroke-width="1" />
<rect x="174" y="84" width="47" height="5" style="fill:#f5b024;stroke:black;stroke-width:1;fill-opacity:1;stroke-opacity:0.3" />
<rect x="227" y="84" width="47" height="5" style="fill:#f5b024;stroke:black;stroke-width:1;fill-opacity:1;stroke-opacity:0.3" />
<line x1="221" y1="107" x2="224" y2="109" stroke="black" stroke-width="1" />
<line x1="224" y1="109" x2="227" y2="107" stroke="black" stroke-width="1" />
<rect x="174" y="105" width="47" height="5" style="fill:#f5b024;stroke:black;stroke-width:1;fill-opacity:1;stroke-opacity:0.3" />
<rect x="227" y="105" width="47" height="5" style="fill:#f5b024;stroke:black;stroke-width:1;fill-opacity:1;stroke-opacity:0.3" />
<line x1="223" y1="100" x2="238" y2="102" stroke="black" stroke-width="1" />
<line x1="238" y1="102" x2="254" y2="100" stroke="black" stroke-width="1" />
<rect x="176" y="98" width="47" height="5" style="fill:#f5b024;stroke:black;stroke-width:1;fill-opacity:1;stroke-opacity:0.3" />
<rect x="254" y="98" width="47" height="5" style="fill:#f5b024;stroke:black;stroke-width:1;fill-opacity:1;stroke-opacity:0.3" />
<line x1="223" y1="114" x2="225" y2="116" stroke="black" stroke-width="1" />
<line x1="225" y1="116" x2="228" y2="114" stroke="black" stroke-width="1" />
<rect x="176" y="112" width="47" height="5" style="fill:#f5b024;stroke:black;stroke-width:1;fill-opacity:1;stroke-opacity:0.3" />
<rect x="228" y="112" width="47" height="5" style="fill:#f5b024;stroke:black;stroke-width:1;fill-opacity:1;stroke-opacity:0.3" />
<line x1="227" y1="128" x2="238" y2="130" stroke="black" stroke-width="1" />
<line x1="238" y1="130" x2="249" y2="128" stroke="black" stroke-width="1" />
<rect x="180" y="126" width="47" height="5" style="fill:#f5b024;stroke:black;stroke-width:1;fill-opacity:1;stroke-opacity:0.3" />
<rect x="249" y="126" width="47" height="5" style="fill:#f5b024;stroke:black;stroke-width:1;fill-opacity:1;stroke-opacity:0.3" />
<line x1="227" y1="135" x2="232" y2="137" stroke="black" stroke-width="1" />
<line x1="232" y1="137" x2="238" y2="135" stroke="black" stroke-width="1" />
<rect x="180" y="133" width="47" height="5" style="fill:#f5b024;stroke:black;stroke-width:1;fill-opacity:1;stroke-opacity:0.3" />
<rect x="238" y="133" width="47" height="5" style="fill:#f5b024;stroke:black;stroke-width:1;fill-opacity:1;stroke-opacity:0.3" />
<line x1="227" y1="142" x2="231" y2="144" stroke="black" stroke-width="1" />
<line x1="231" y1="144" x2="236" y2="142" stroke="black" stroke-width="1" />
<rect x="180" y="140" width="46" height="5" style="fill:#5d3c2d;stroke:black;stroke-width:1;fill-opacity:1;stroke-opacity:0.3" />
<rect x="236" y="140" width="47" height="5" style="fill:#5d3c2d;stroke:black;stroke-width:1;fill-opacity:1;stroke-opacity:0.3" />
<line x1="228" y1="156" x2="234" y2="158" stroke="black" stroke-width="1" />
<line x1="234" y1="158" x2="240" y2="156" stroke="black" stroke-width="1" />
<rect x="181" y="154" width="47" height="5" style="fill:#f5b024;stroke:black;stroke-width:1;fill-opacity:1;stroke-opacity:0.3" />
<rect x="240" y="154" width="47" height="5" style="fill:#f5b024;stroke:black;stroke-width:1;fill-opacity:1;stroke-opacity:0.3" />
<line x1="235" y1="149" x2="237" y2="151" stroke="black" stroke-width="1" />
<line x1="237" y1="151" x2="240" y2="149" stroke="black" stroke-width="1" />
<rect x="188" y="147" width="47" height="5" style="fill:#f5b024;stroke:black;stroke-width:1;fill-opacity:1;stroke-opacity:0.3" />
<rect x="240" y="147" width="47" height="5" style="fill:#f5b024;stroke:black;stroke-width:1;fill-opacity:1;stroke-opacity:0.3" />
<line x1="235" y1="163" x2="241" y2="165" stroke="black" stroke-width="1" />
<line x1="241" y1="165" x2="248" y2="163" stroke="black" stroke-width="1" />
<rect x="188" y="161" width="47" height="5" style="fill:#f5b024;stroke:black;stroke-width:1;fill-opacity:1;stroke-opacity:0.3" />
<rect x="248" y="161" width="47" height="5" style="fill:#f5b024;stroke:black;stroke-width:1;fill-opacity:1;stroke-opacity:0.3" />
<line x1="236" y1="30" x2="238" y2="32" stroke="black" stroke-width="1" />
<line x1="238" y1="32" x2="241" y2="30" stroke="black" stroke-width="1" />
<rect x="189" y="28" width="47" height="5" style="fill:#5d3c2d;stroke:black;stroke-width:1;fill-opacity:1;stroke-opacity:0.3" />
<rect x="241" y="28" width="47" height="5" style="fill:#5d3c2d;stroke:black;stroke-width:1;fill-opacity:1;stroke-opacity:0.3" />
<line x1="237" y1="37" x2="247" y2="39" stroke="black" stroke-width="1" />
<line x1="247" y1="39" x2="257" y2="37" stroke="black" stroke-width="1" />
<rect x="189" y="35" width="47" height="5" style="fill:#f5b024;stroke:black;stroke-width:1;fill-opacity:1;stroke-opacity:0.3" />
<rect x="257" y="35" width="47" height="5" style="fill:#f5b024;stroke:black;stroke-width:1;fill-opacity:1;stroke-opacity:0.3" />
<line x1="320" y1="44" x2="332" y2="46" stroke="black" stroke-width="1" />
<line x1="332" y1="46" x2="345" y2="44" stroke="black" stroke-width="1" />
<rect x="273" y="42" width="46" height="5" style="fill:#f5b024;stroke:black;stroke-width:1;fill-opacity:1;stroke-opacity:0.3" />
<rect x="345" y="42" width="41" height="5" style="fill:#f5b024;stroke:black;stroke-width:1;fill-opacity:1;stroke-opacity:0.3" />
<line x1="386" y1="44" x2="451" y2="44" stroke="pink" stroke-width="1" />
<rect x="451" y="42" width="5" height="5" style="fill:#f5b024;stroke:black;stroke-width:1;fill-opacity:1;stroke-opacity:0.3" />
<line x1="321" y1="51" x2="333" y2="53" stroke="black" stroke-width="1" />
<line x1="333" y1="53" x2="345" y2="51" stroke="black" stroke-width="1" />
<rect x="274" y="49" width="47" height="5" style="fill:#5d3c2d;stroke:black;stroke-width:1;fill-opacity:1;stroke-opacity:0.3" />
<rect x="345" y="49" width="41" height="5" style="fill:#5d3c2d;stroke:black;stroke-width:1;fill-opacity:1;stroke-opacity:0.3" />
<line x1="386" y1="51" x2="451" y2="51" stroke="pink" stroke-width="1" />
<rect x="451" y="49" width="5" height="5" style="fill:#5d3c2d;stroke:black;stroke-width:1;fill-opacity:1;stroke-opacity:0.3" />
<line x1="321" y1="79" x2="336" y2="81" stroke="black" stroke-width="1" />
<line x1="336" y1="81" x2="352" y2="79" stroke="black" stroke-width="1" />
<rect x="274" y="77" width="47" height="5" style="fill:#f5b024;stroke:black;stroke-width:1;fill-opacity:1;stroke-opacity:0.3" />
<rect x="352" y="77" width="34" height="5" style="fill:#f5b024;stroke:black;stroke-width:1;fill-opacity:1;stroke-opacity:0.3" />
<line x1="386" y1="79" x2="451" y2="79" stroke="pink" stroke-width="1" />
<rect x="451" y="77" width="12" height="5" style="fill:#f5b024;stroke:black;stroke-width:1;fill-opacity:1;stroke-opacity:0.3" />
<line x1="321" y1="121" x2="323" y2="123" stroke="black" stroke-width="1" />
<line x1="323" y1="123" x2="326" y2="121" stroke="black" stroke-width="1" />
<rect x="274" y="119" width="47" height="5" style="fill:#f5b024;stroke:black;stroke-width:1;fill-opacity:1;stroke-opacity:0.3" />
<rect x="326" y="119" width="47" height="5" style="fill:#f5b024;stroke:black;stroke-width:1;fill-opacity:1;stroke-opacity:0.3" />
<line x1="321" y1="86" x2="335" y2="88" stroke="black" stroke-width="1" />
<line x1="335" y1="88" x2="349" y2="86" stroke="black" stroke-width="1" />
<rect x="275" y="84" width="46" height="5" style="fill:#f5b024;stroke:black;stroke-width:1;fill-opacity:1;stroke-opacity:0.3" />
<rect x="349" y="84" width="37" height="5" style="fill:#f5b024;stroke:black;stroke-width:1;fill-opacity:1;stroke-opacity:0.3" />
<line x1="386" y1="86" x2="451" y2="86" stroke="pink" stroke-width="1" />
<rect x="451" y="84" width="9" height="5" style="fill:#f5b024;stroke:black;stroke-width:1;fill-opacity:1;stroke-opacity:0.3" />
<line x1="322" y1="107" x2="325" y2="109" stroke="black" stroke-width="1" />
<line x1="325" y1="109" x2="328" y2="107" stroke="black" stroke-width="1" />
<rect x="275" y="105" width="47" height="5" style="fill:#f5b024;stroke:black;stroke-width:1;fill-opacity:1;stroke-opacity:0.3" />
<rect x="328" y="105" width="47" height="5" style="fill:#f5b024;stroke:black;stroke-width:1;fill-opacity:1;stroke-opacity:0.3" />
<line x1="323" y1="114" x2="327" y2="116" stroke="black" stroke-width="1" />
<line x1="327" y1="116" x2="331" y2="114" stroke="black" stroke-width="1" />
<rect x="276" y="112" width="47" height="5" style="fill:#f5b024;stroke:black;stroke-width:1;fill-opacity:1;stroke-opacity:0.3" />
<rect x="331" y="112" width="47" height="5" style="fill:#f5b024;stroke:black;stroke-width:1;fill-opacity:1;stroke-opacity:0.3" />
<line x1="332" y1="142" x2="338" y2="144" stroke="black" stroke-width="1" />
<line x1="338" y1="144" x2="345" y2="142" stroke="black" stroke-width="1" />
<rect x="285" y="140" width="47" height="5" style="fill:#f5b024;stroke:black;stroke-width:1;fill-opacity:1;stroke-opacity:0.3" />
<rect x="345" y="140" width="41" height="5" style="fill:#f5b024;stroke:black;stroke-width:1;fill-opacity:1;stroke-opacity:0.3" />
<line x1="386" y1="142" x2="451" y2="142" stroke="pink" stroke-width="1" />
<rect x="451" y="140" width="6" height="5" style="fill:#f5b024;stroke:black;stroke-width:1;fill-opacity:1;stroke-opacity:0.3" />
<line x1="334" y1="135" x2="339" y2="137" stroke="black" stroke-width="1" />
<line x1="339" y1="137" x2="345" y2="135" stroke="black" stroke-width="1" />
<rect x="286" y="133" width="47" height="5" style="fill:#f5b024;stroke:black;stroke-width:1;fill-opacity:1;stroke-opacity:0.3" />
<rect x="345" y="133" width="41" height="5" style="fill:#f5b024;stroke:black;stroke-width:1;fill-opacity:1;stroke-opacity:0.3" />
<line x1="386" y1="135" x2="451" y2="135" stroke="pink" stroke-width="1" />
<rect x="451" y="133" width="5" height="5" style="fill:#f5b024;stroke:black;stroke-width:1;fill-opacity:1;stroke-opacity:0.3" />
<line x1="333" y1="156" x2="340" y2="158" stroke="black" stroke-width="1" />
<line x1="340" y1="158" x2="348" y2="156" stroke="black" stroke-width="1" />
<rect x="287" y="154" width="46" height="5" style="fill:#f5b024;stroke:black;stroke-width:1;fill-opacity:1;stroke-opacity:0.3" />
<rect x="348" y="154" width="38" height="5" style="fill:#f5b024;stroke:black;stroke-width:1;fill-opacity:1;stroke-opacity:0.3" />
<line x1="386" y1="156" x2="451" y2="156" stroke="pink" stroke-width="1" />
<rect x="451" y="154" width="8" height="5" style="fill:#f5b024;stroke:black;stroke-width:1;fill-opacity:1;stroke-opacity:0.3" />
<line x1="335" y1="65" x2="338" y2="67" stroke="black" stroke-width="1" />
<line x1="338" y1="67" x2="341" y2="65" stroke="black" stroke-width="1" />
<rect x="287" y="63" width="47" height="5" style="fill:#f5b024;stroke:black;stroke-width:1;fill-opacity:1;stroke-opacity:0.3" />
<rect x="341" y="63" width="47" height="5" style="fill:#f5b024;stroke:black;stroke-width:1;fill-opacity:1;stroke-opacity:0.3" />
<line x1="337" y1="30" x2="347" y2="32" stroke="black" stroke-width="1" />
<line x1="347" y1="32" x2="357" y2="30" stroke="black" stroke-width="1" />
<rect x="290" y="28" width="47" height="5" style="fill:#f5b024;stroke:black;stroke-width:1;fill-opacity:1;stroke-opacity:0.3" />
<rect x="357" y="28" width="29" height="5" style="fill:#f5b024;stroke:black;stroke-width:1;fill-opacity:1;stroke-opacity:0.3" />
<line x1="386" y1="30" x2="451" y2="30" stroke="pink" stroke-width="1" />
<rect x="451" y="28" width="17" height="5" style="fill:#f5b024;stroke:black;stroke-width:1;fill-opacity:1;stroke-opacity:0.3" />
<line x1="339" y1="58" x2="346" y2="60" stroke="black" stroke-width="1" />
<line x1="346" y1="60" x2="353" y2="58" stroke="black" stroke-width="1" />
<rect x="292" y="56" width="46" height="5" style="fill:#f5b024;stroke:black;stroke-width:1;fill-opacity:1;stroke-opacity:0.3" />
<rect x="353" y="56" width="33" height="5" style="fill:#f5b024;stroke:black;stroke-width:1;fill-opacity:1;stroke-opacity:0.3" />
<line x1="386" y1="58" x2="451" y2="58" stroke="pink" stroke-width="1" />
<rect x="451" y="56" width="13" height="5" style="fill:#f5b024;stroke:black;stroke-width:1;fill-opacity:1;stroke-opacity:0.3" />
<line x1="344" y1="93" x2="350" y2="95" stroke="black" stroke-width="1" />
<line x1="350" y1="95" x2="357" y2="93" stroke="black" stroke-width="1" />
<rect x="297" y="91" width="47" height="5" style="fill:#f5b024;stroke:black;stroke-width:1;fill-opacity:1;stroke-opacity:0.3" />
<rect x="357" y="91" width="29" height="5" style="fill:#f5b024;stroke:black;stroke-width:1;fill-opacity:1;stroke-opacity:0.3" />
<line x1="386" y1="93" x2="451" y2="93" stroke="pink" stroke-width="1" />
<rect x="451" y="91" width="17" height="5" style="fill:#f5b024;stroke:black;stroke-width:1;fill-opacity:1;stroke-opacity:0.3" />
<line x1="346" y1="128" x2="355" y2="130" stroke="black" stroke-width="1" />
<line x1="355" y1="130" x2="365" y2="128" stroke="black" stroke-width="1" />
<rect x="298" y="126" width="47" height="5" style="fill:#f5b024;stroke:black;stroke-width:1;fill-opacity:1;stroke-opacity:0.3" />
<rect x="365" y="126" width="21" height="5" style="fill:#f5b024;stroke:black;stroke-width:1;fill-opacity:1;stroke-opacity:0.3" />
<line x1="386" y1="128" x2="451" y2="128" stroke="pink" stroke-width="1" />
<rect x="451" y="126" width="25" height="5" style="fill:#f5b024;stroke:black;stroke-width:1;fill-opacity:1;stroke-opacity:0.3" />
<line x1="346" y1="149" x2="351" y2="151" stroke="black" stroke-width="1" />
<line x1="351" y1="151" x2="357" y2="149" stroke="black" stroke-width="1" />
<rect x="299" y="147" width="47" height="5" style="fill:#f5b024;stroke:black;stroke-width:1;fill-opacity:1;stroke-opacity:0.3" />
<rect x="357" y="147" width="29" height="5" style="fill:#f5b024;stroke:black;stroke-width:1;fill-opacity:1;stroke-opacity:0.3" />
<line x1="386" y1="149" x2="451" y2="149" stroke="pink" stroke-width="1" />
<rect x="451" y="147" width="17" height="5" style="fill:#f5b024;stroke:black;stroke-width:1;fill-opacity:1;stroke-opacity:0.3" />
<line x1="346" y1="163" x2="359" y2="165" stroke="black" stroke-width="1" />
<line x1="359" y1="165" x2="372" y2="163" stroke="black" stroke-width="1" />
<rect x="299" y="161" width="47" height="5" style="fill:#f5b024;stroke:black;stroke-width:1;fill-opacity:1;stroke-opacity:0.3" />
<rect x="372" y="161" width="14" height="5" style="fill:#f5b024;stroke:black;stroke-width:1;fill-opacity:1;stroke-opacity:0.3" />
<line x1="386" y1="163" x2="451" y2="163" stroke="pink" stroke-width="1" />
<rect x="451" y="161" width="33" height="5" style="fill:#f5b024;stroke:black;stroke-width:1;fill-opacity:1;stroke-opacity:0.3" />
<line x1="350" y1="100" x2="361" y2="102" stroke="black" stroke-width="1" />
<line x1="361" y1="102" x2="372" y2="100" stroke="black" stroke-width="1" />
<rect x="303" y="98" width="47" height="5" style="fill:#f5b024;stroke:black;stroke-width:1;fill-opacity:1;stroke-opacity:0.3" />
<rect x="372" y="98" width="14" height="5" style="fill:#f5b024;stroke:black;stroke-width:1;fill-opacity:1;stroke-opacity:0.3" />
<line x1="386" y1="100" x2="451" y2="100" stroke="pink" stroke-width="1" />
<rect x="451" y="98" width="32" height="5" style="fill:#f5b024;stroke:black;stroke-width:1;fill-opacity:1;stroke-opacity:0.3" />
<line x1="357" y1="37" x2="361" y2="39" stroke="black" stroke-width="1" />
<line x1="361" y1="39" x2="365" y2="37" stroke="black" stroke-width="1" />
<rect x="311" y="35" width="46" height="5" style="fill:#f5b024;stroke:black;stroke-width:1;fill-opacity:1;stroke-opacity:0.3" />
<rect x="365" y="35" width="21" height="5" style="fill:#f5b024;stroke:black;stroke-width:1;fill-opacity:1;stroke-opacity:0.3" />
<line x1="386" y1="37" x2="451" y2="37" stroke="pink" stroke-width="1" />
<rect x="451" y="35" width="26" height="5" style="fill:#f5b024;stroke:black;stroke-width:1;fill-opacity:1;stroke-opacity:0.3" />
<line x1="358" y1="72" x2="363" y2="74" stroke="black" stroke-width="1" />
<line x1="363" y1="74" x2="368" y2="72" stroke="black" stroke-width="1" />
<rect x="311" y="70" width="47" height="5" style="fill:#f5b024;stroke:black;stroke-width:1;fill-opacity:1;stroke-opacity:0.3" />
<rect x="368" y="70" width="17" height="5" style="fill:#f5b024;stroke:black;stroke-width:1;fill-opacity:1;stroke-opacity:0.3" />
<line x1="386" y1="72" x2="451" y2="72" stroke="pink" stroke-width="1" />
<rect x="451" y="70" width="29" height="5" style="fill:#f5b024;stroke:black;stroke-width:1;fill-opacity:1;stroke-opacity:0.3" />
<line x1="657" y1="107" x2="661" y2="109" stroke="black" stroke-width="1" />
<line x1="661" y1="109" x2="666" y2="107" stroke="black" stroke-width="1" />
<rect x="381" y="105" width="5" height="5" style="fill:#f5b024;stroke:black;stroke-width:1;fill-opacity:1;stroke-opacity:0.3" />
<line x1="386" y1="107" x2="451" y2="107" stroke="pink" stroke-width="1" />
<rect x="451" y="105" width="36" height="5" style="fill:#f5b024;stroke:black;stroke-width:1;fill-opacity:1;stroke-opacity:0.3" />
<line x1="488" y1="107" x2="652" y2="107" stroke="pink" stroke-width="1" />
<rect x="652" y="105" width="4" height="5" style="fill:#f5b024;stroke:black;stroke-width:1;fill-opacity:1;stroke-opacity:0.3" />
<rect x="666" y="105" width="26" height="5" style="fill:#f5b024;stroke:black;stroke-width:1;fill-opacity:1;stroke-opacity:0.3" />
<line x1="692" y1="107" x2="860" y2="107" stroke="pink" stroke-width="1" />
<rect x="860" y="105" width="21" height="5" style="fill:#f5b024;stroke:black;stroke-width:1;fill-opacity:1;stroke-opacity:0.3" />
<line x1="658" y1="114" x2="660" y2="116" stroke="black" stroke-width="1" />
<line x1="660" y1="116" x2="663" y2="114" stroke="black" stroke-width="1" />
<rect x="382" y="112" width="4" height="5" style="fill:#f5b024;stroke:black;stroke-width:1;fill-opacity:1;stroke-opacity:0.3" />
<line x1="386" y1="114" x2="451" y2="114" stroke="pink" stroke-width="1" />
<rect x="451" y="112" width="36" height="5" style="fill:#f5b024;stroke:black;stroke-width:1;fill-opacity:1;stroke-opacity:0.3" />
<line x1="488" y1="114" x2="652" y2="114" stroke="pink" stroke-width="1" />
<rect x="652" y="112" width="5" height="5" style="fill:#f5b024;stroke:black;stroke-width:1;fill-opacity:1;stroke-opacity:0.3" />
<rect x="663" y="112" width="28" height="5" style="fill:#f5b024;stroke:black;stroke-width:1;fill-opacity:1;stroke-opacity:0.3" />
<line x1="692" y1="114" x2="860" y2="114" stroke="pink" stroke-width="1" />
<rect x="860" y="112" width="18" height="5" style="fill:#f5b024;stroke:black;stroke-width:1;fill-opacity:1;stroke-opacity:0.3" />
<line x1="666" y1="65" x2="675" y2="67" stroke="black" stroke-width="1" />
<line x1="675" y1="67" x2="684" y2="65" stroke="black" stroke-width="1" />
<rect x="454" y="63" width="34" height="5" style="fill:#f5b024;stroke:black;stroke-width:1;fill-opacity:1;stroke-opacity:0.3" />
<line x1="488" y1="65" x2="652" y2="65" stroke="pink" stroke-width="1" />
<rect x="652" y="63" width="13" height="5" style="fill:#f5b024;stroke:black;stroke-width:1;fill-opacity:1;stroke-opacity:0.3" />
<rect x="684" y="63" width="7" height="5" style="fill:#f5b024;stroke:black;stroke-width:1;fill-opacity:1;stroke-opacity:0.3" />
<line x1="692" y1="65" x2="860" y2="65" stroke="pink" stroke-width="1" />
<rect x="860" y="63" width="39" height="5" style="fill:#f5b024;stroke:black;stroke-width:1;fill-opacity:1;stroke-opacity:0.3" />
<line x1="671" y1="44" x2="771" y2="46" stroke="black" stroke-width="1" />
<line x1="771" y1="46" x2="872" y2="44" stroke="black" stroke-width="1" />
<rect x="460" y="42" width="27" height="5" style="fill:#f5b024;stroke:black;stroke-width:1;fill-opacity:1;stroke-opacity:0.3" />
<line x1="488" y1="44" x2="652" y2="44" stroke="pink" stroke-width="1" />
<rect x="652" y="42" width="18" height="5" style="fill:#f5b024;stroke:black;stroke-width:1;fill-opacity:1;stroke-opacity:0.3" />
<rect x="872" y="42" width="47" height="5" style="fill:#f5b024;stroke:black;stroke-width:1;fill-opacity:1;stroke-opacity:0.3" />
<line x1="689" y1="30" x2="775" y2="32" stroke="black" stroke-width="1" />
<line x1="775" y1="32" x2="861" y2="30" stroke="black" stroke-width="1" />
<rect x="478" y="28" width="10" height="5" style="fill:#f5b024;stroke:black;stroke-width:1;fill-opacity:1;stroke-opacity:0.3" />
<line x1="488" y1="30" x2="652" y2="30" stroke="pink" stroke-width="1" />
<rect x="652" y="28" width="36" height="5" style="fill:#f5b024;stroke:black;stroke-width:1;fill-opacity:1;stroke-opacity:0.3" />
<rect x="861" y="28" width="47" height="5" style="fill:#f5b024;stroke:black;stroke-width:1;fill-opacity:1;stroke-opacity:0.3" />
<line x1="690" y1="37" x2="795" y2="39" stroke="black" stroke-width="1" />
<line x1="795" y1="39" x2="900" y2="37" stroke="black" stroke-width="1" />
<rect x="479" y="35" width="9" height="5" style="fill:#f5b024;stroke:black;stroke-width:1;fill-opacity:1;stroke-opacity:0.3" />
<line x1="488" y1="37" x2="652" y2="37" stroke="pink" stroke-width="1" />
<rect x="652" y="35" width="37" height="5" style="fill:#f5b024;stroke:black;stroke-width:1;fill-opacity:1;stroke-opacity:0.3" />
<rect x="900" y="35" width="47" height="5" style="fill:#f5b024;stroke:black;stroke-width:1;fill-opacity:1;stroke-opacity:0.3" />
<line x1="691" y1="51" x2="781" y2="53" stroke="black" stroke-width="1" />
<line x1="781" y1="53" x2="871" y2="51" stroke="black" stroke-width="1" />
<rect x="479" y="49" width="8" height="5" style="fill:#f5b024;stroke:black;stroke-width:1;fill-opacity:1;stroke-opacity:0.3" />
<line x1="488" y1="51" x2="652" y2="51" stroke="pink" stroke-width="1" />
<rect x="652" y="49" width="38" height="5" style="fill:#f5b024;stroke:black;stroke-width:1;fill-opacity:1;stroke-opacity:0.3" />
<rect x="871" y="49" width="47" height="5" style="fill:#f5b024;stroke:black;stroke-width:1;fill-opacity:1;stroke-opacity:0.3" />
<line x1="867" y1="58" x2="874" y2="60" stroke="black" stroke-width="1" />
<line x1="874" y1="60" x2="881" y2="58" stroke="black" stroke-width="1" />
<rect x="487" y="56" width="0" height="5" style="fill:#f5b024;stroke:black;stroke-width:1;fill-opacity:1;stroke-opacity:0.3" />
<line x1="488" y1="58" x2="652" y2="58" stroke="pink" stroke-width="1" />
<rect x="652" y="56" width="39" height="5" style="fill:#f5b024;stroke:black;stroke-width:1;fill-opacity:1;stroke-opacity:0.3" />
<line x1="692" y1="58" x2="860" y2="58" stroke="pink" stroke-width="1" />
<rect x="860" y="56" width="7" height="5" style="fill:#f5b024;stroke:black;stroke-width:1;fill-opacity:1;stroke-opacity:0.3" />
<rect x="881" y="56" width="47" height="5" style="fill:#f5b024;stroke:black;stroke-width:1;fill-opacity:1;stroke-opacity:0.3" />
<line x1="867" y1="72" x2="875" y2="74" stroke="black" stroke-width="1" />
<line x1="875" y1="74" x2="883" y2="72" stroke="black" stroke-width="1" />
<rect x="652" y="70" width="39" height="5" style="fill:#f5b024;stroke:black;stroke-width:1;fill-opacity:1;stroke-opacity:0.3" />
<line x1="692" y1="72" x2="860" y2="72" stroke="pink" stroke-width="1" />
<rect x="860" y="70" width="7" height="5" style="fill:#f5b024;stroke:black;stroke-width:1;fill-opacity:1;stroke-opacity:0.3" />
<rect x="883" y="70" width="47" height="5" style="fill:#f5b024;stroke:black;stroke-width:1;fill-opacity:1;stroke-opacity:0.3" />
<line x1="868" y1="79" x2="872" y2="81" stroke="black" stroke-width="1" />
<line x1="872" y1="81" x2="876" y2="79" stroke="black" stroke-width="1" />
<rect x="652" y="77" width="39" height="5" style="fill:#f5b024;stroke:black;stroke-width:1;fill-opacity:1;stroke-opacity:0.3" />
<line x1="692" y1="79" x2="860" y2="79" stroke="pink" stroke-width="1" />
<rect x="860" y="77" width="8" height="5" style="fill:#f5b024;stroke:black;stroke-width:1;fill-opacity:1;stroke-opacity:0.3" />
<rect x="876" y="77" width="47" height="5" style="fill:#f5b024;stroke:black;stroke-width:1;fill-opacity:1;stroke-opacity:0.3" />
<line x1="872" y1="86" x2="877" y2="88" stroke="black" stroke-width="1" />
<line x1="877" y1="88" x2="883" y2="86" stroke="black" stroke-width="1" />
<rect x="657" y="84" width="35" height="5" style="fill:#f5b024;stroke:black;stroke-width:1;fill-opacity:1;stroke-opacity:0.3" />
<line x1="692" y1="86" x2="860" y2="86" stroke="pink" stroke-width="1" />
<rect x="860" y="84" width="11" height="5" style="fill:#f5b024;stroke:black;stroke-width:1;fill-opacity:1;stroke-opacity:0.3" />
<rect x="883" y="84" width="47" height="5" style="fill:#f5b024;stroke:black;stroke-width:1;fill-opacity:1;stroke-opacity:0.3" />
<line x1="875" y1="93" x2="889" y2="95" stroke="black" stroke-width="1" />
<line x1="889" y1="95" x2="904" y2="93" stroke="black" stroke-width="1" />
<rect x="660" y="91" width="32" height="5" style="fill:#f5b024;stroke:black;stroke-width:1;fill-opacity:1;stroke-opacity:0.3" />
<line x1="692" y1="93" x2="860" y2="93" stroke="pink" stroke-width="1" />
<rect x="860" y="91" width="15" height="5" style="fill:#f5b024;stroke:black;stroke-width:1;fill-opacity:1;stroke-opacity:0.3" />
<rect x="904" y="91" width="47" height="5" style="fill:#f5b024;stroke:black;stroke-width:1;fill-opacity:1;stroke-opacity:0.3" />
<line x1="875" y1="100" x2="882" y2="102" stroke="black" stroke-width="1" />
<line x1="882" y1="102" x2="889" y2="100" stroke="black" stroke-width="1" />
<rect x="660" y="98" width="32" height="5" style="fill:#f5b024;stroke:black;stroke-width:1;fill-opacity:1;stroke-opacity:0.3" />
<line x1="692" y1="100" x2="860" y2="100" stroke="pink" stroke-width="1" />
<rect x="860" y="98" width="15" height="5" style="fill:#f5b024;stroke:black;stroke-width:1;fill-opacity:1;stroke-opacity:0.3" />
<rect x="889" y="98" width="47" height="5" style="fill:#f5b024;stroke:black;stroke-width:1;fill-opacity:1;stroke-opacity:0.3" />
<line x1="885" y1="121" x2="888" y2="123" stroke="black" stroke-width="1" />
<line x1="888" y1="123" x2="892" y2="121" stroke="black" stroke-width="1" />
<rect x="670" y="119" width="21" height="5" style="fill:#f5b024;stroke:black;stroke-width:1;fill-opacity:1;stroke-opacity:0.3" />
<line x1="692" y1="121" x2="860" y2="121" stroke="pink" stroke-width="1" />
<rect x="860" y="119" width="25" height="5" style="fill:#f5b024;stroke:black;stroke-width:1;fill-opacity:1;stroke-opacity:0.3" />
<rect x="892" y="119" width="47" height="5" style="fill:#f5b024;stroke:black;stroke-width:1;fill-opacity:1;stroke-opacity:0.3" />
<line x1="891" y1="128" x2="897" y2="130" stroke="black" stroke-width="1" />
<line x1="897" y1="130" x2="904" y2="128" stroke="black" stroke-width="1" />
<rect x="675" y="126" width="16" height="5" style="fill:#f5b024;stroke:black;stroke-width:1;fill-opacity:1;stroke-opacity:0.3" />
<line x1="692" y1="128" x2="860" y2="128" stroke="pink" stroke-width="1" />
<rect x="860" y="126" width="30" height="5" style="fill:#f5b024;stroke:black;stroke-width:1;fill-opacity:1;stroke-opacity:0.3" />
<rect x="904" y="126" width="47" height="5" style="fill:#f5b024;stroke:black;stroke-width:1;fill-opacity:1;stroke-opacity:0.3" />
<line x1="892" y1="135" x2="895" y2="137" stroke="black" stroke-width="1" />
<line x1="895" y1="137" x2="898" y2="135" stroke="black" stroke-width="1" />
<rect x="677" y="133" width="14" height="5" style="fill:#f5b024;stroke:black;stroke-width:1;fill-opacity:1;stroke-opacity:0.3" />
<line x1="692" y1="135" x2="860" y2="135" stroke="pink" stroke-width="1" />
<rect x="860" y="133" width="32" height="5" style="fill:#f5b024;stroke:black;stroke-width:1;fill-opacity:1;stroke-opacity:0.3" />
<rect x="898" y="133" width="47" height="5" style="fill:#f5b024;stroke:black;stroke-width:1;fill-opacity:1;stroke-opacity:0.3" />
<line x1="892" y1="142" x2="895" y2="144" stroke="black" stroke-width="1" />
<line x1="895" y1="144" x2="898" y2="142" stroke="black" stroke-width="1" />
<rect x="677" y="140" width="14" height="5" style="fill:#f5b024;stroke:black;stroke-width:1;fill-opacity:1;stroke-opacity:0.3" />
<line x1="692" y1="142" x2="860" y2="142" stroke="pink" stroke-width="1" />
<rect x="860" y="140" width="32" height="5" style="fill:#f5b024;stroke:black;stroke-width:1;fill-opacity:1;stroke-opacity:0.3" />
<rect x="898" y="140" width="47" height="5" style="fill:#f5b024;stroke:black;stroke-width:1;fill-opacity:1;stroke-opacity:0.3" />
<line x1="892" y1="149" x2="898" y2="151" stroke="black" stroke-width="1" />
<line x1="898" y1="151" x2="905" y2="149" stroke="black" stroke-width="1" />
<rect x="678" y="147" width="13" height="5" style="fill:#f5b024;stroke:black;stroke-width:1;fill-opacity:1;stroke-opacity:0.3" />
<line x1="692" y1="149" x2="860" y2="149" stroke="pink" stroke-width="1" />
<rect x="860" y="147" width="32" height="5" style="fill:#f5b024;stroke:black;stroke-width:1;fill-opacity:1;stroke-opacity:0.3" />
<rect x="905" y="147" width="47" height="5" style="fill:#f5b024;stroke:black;stroke-width:1;fill-opacity:1;stroke-opacity:0.3" />
<line x1="894" y1="156" x2="898" y2="158" stroke="black" stroke-width="1" />
<line x1="898" y1="158" x2="903" y2="156" stroke="black" stroke-width="1" />
<rect x="678" y="154" width="13" height="5" style="fill:#f5b024;stroke:black;stroke-width:1;fill-opacity:1;stroke-opacity:0.3" />
<line x1="692" y1="156" x2="860" y2="156" stroke="pink" stroke-width="1" />
<rect x="860" y="154" width="34" height="5" style="fill:#f5b024;stroke:black;stroke-width:1;fill-opacity:1;stroke-opacity:0.3" />
<rect x="903" y="154" width="47" height="5" style="fill:#f5b024;stroke:black;stroke-width:1;fill-opacity:1;stroke-opacity:0.3" />
<text x="15"  y="176" style="font-family:Arial;font-size:10;stroke:black;fill:black;">all.merged.bam</text>
</svg>
    
