<?xml version="1.0" encoding="utf-8" standalone="no"?>
<!DOCTYPE svg PUBLIC "-//W3C//DTD SVG 1.1//EN"
  "http://www.w3.org/Graphics/SVG/1.1/DTD/svg11.dtd">
<svg height="1140" width="1000" version="1.1" viewBox="0 0 1000 1140" xmlns="http://www.w3.org/2000/svg" xmlns:xlink="http://www.w3.org/1999/xlink">
<line x1="55" y1="11" x2="944" y2="11" stroke="black" stroke-width="1" />
<rect x="55" y="9" width="309" height="5" style="fill:#f50002;stroke:black;stroke-width:1;fill-opacity:1;stroke-opacity:0.3" />
<rect x="507" y="9" width="38" height="5" style="fill:#f50002;stroke:black;stroke-width:1;fill-opacity:1;stroke-opacity:0.3" />
<rect x="665" y="9" width="84" height="5" style="fill:#f50002;stroke:black;stroke-width:1;fill-opacity:1;stroke-opacity:0.3" />
<rect x="750" y="9" width="90" height="5" style="fill:#53a1b5;stroke:black;stroke-width:1;fill-opacity:1;stroke-opacity:0.3" />
<rect x="841" y="9" width="102" height="5" style="fill:#f50002;stroke:black;stroke-width:1;fill-opacity:1;stroke-opacity:0.3" />
<text x="55"  y="23" style="font-family:Arial;font-size:10;stroke:black;fill:black;">Cre09.g398556.t1.1.v5.5 (+) chromosome_9:1427459-1429070</text>
<line x1="150" y1="30" x2="162" y2="32" stroke="black" stroke-width="1" />
<line x1="162" y1="32" x2="174" y2="30" stroke="black" stroke-width="1" />
<rect x="95" y="28" width="55" height="5" style="fill:#5d3c2d;stroke:black;stroke-width:1;fill-opacity:1;stroke-opacity:0.3" />
<rect x="174" y="28" width="26" height="5" style="fill:#5d3c2d;stroke:black;stroke-width:1;fill-opacity:1;stroke-opacity:0.3" />
<line x1="201" y1="30" x2="468" y2="30" stroke="pink" stroke-width="1" />
<rect x="468" y="28" width="28" height="5" style="fill:#5d3c2d;stroke:black;stroke-width:1;fill-opacity:1;stroke-opacity:0.3" />
<line x1="150" y1="37" x2="162" y2="39" stroke="black" stroke-width="1" />
<line x1="162" y1="39" x2="174" y2="37" stroke="black" stroke-width="1" />
<rect x="95" y="35" width="55" height="5" style="fill:#5d3c2d;stroke:black;stroke-width:1;fill-opacity:1;stroke-opacity:0.3" />
<rect x="174" y="35" width="26" height="5" style="fill:#5d3c2d;stroke:black;stroke-width:1;fill-opacity:1;stroke-opacity:0.3" />
<line x1="201" y1="37" x2="468" y2="37" stroke="pink" stroke-width="1" />
<rect x="468" y="35" width="28" height="5" style="fill:#5d3c2d;stroke:black;stroke-width:1;fill-opacity:1;stroke-opacity:0.3" />
<line x1="502" y1="44" x2="520" y2="46" stroke="black" stroke-width="1" />
<line x1="520" y1="46" x2="539" y2="44" stroke="black" stroke-width="1" />
<rect x="179" y="42" width="21" height="5" style="fill:#5d3c2d;stroke:black;stroke-width:1;fill-opacity:1;stroke-opacity:0.3" />
<line x1="201" y1="44" x2="468" y2="44" stroke="pink" stroke-width="1" />
<rect x="468" y="42" width="33" height="5" style="fill:#5d3c2d;stroke:black;stroke-width:1;fill-opacity:1;stroke-opacity:0.3" />
<rect x="539" y="42" width="54" height="5" style="fill:#5d3c2d;stroke:black;stroke-width:1;fill-opacity:1;stroke-opacity:0.3" />
<line x1="330" y1="51" x2="348" y2="53" stroke="black" stroke-width="1" />
<line x1="348" y1="53" x2="367" y2="51" stroke="black" stroke-width="1" />
<rect x="274" y="49" width="55" height="5" style="fill:#5d3c2d;stroke:black;stroke-width:1;fill-opacity:1;stroke-opacity:0.3" />
<rect x="367" y="49" width="55" height="5" style="fill:#5d3c2d;stroke:black;stroke-width:1;fill-opacity:1;stroke-opacity:0.3" />
<line x1="330" y1="58" x2="348" y2="60" stroke="black" stroke-width="1" />
<line x1="348" y1="60" x2="367" y2="58" stroke="black" stroke-width="1" />
<rect x="274" y="56" width="55" height="5" style="fill:#5d3c2d;stroke:black;stroke-width:1;fill-opacity:1;stroke-opacity:0.3" />
<rect x="367" y="56" width="55" height="5" style="fill:#5d3c2d;stroke:black;stroke-width:1;fill-opacity:1;stroke-opacity:0.3" />
<line x1="386" y1="65" x2="405" y2="67" stroke="black" stroke-width="1" />
<line x1="405" y1="67" x2="425" y2="65" stroke="black" stroke-width="1" />
<rect x="331" y="63" width="55" height="5" style="fill:#5d3c2d;stroke:black;stroke-width:1;fill-opacity:1;stroke-opacity:0.3" />
<rect x="425" y="63" width="55" height="5" style="fill:#5d3c2d;stroke:black;stroke-width:1;fill-opacity:1;stroke-opacity:0.3" />
<line x1="471" y1="72" x2="489" y2="74" stroke="black" stroke-width="1" />
<line x1="489" y1="74" x2="508" y2="72" stroke="black" stroke-width="1" />
<rect x="389" y="70" width="82" height="5" style="fill:#5d3c2d;stroke:black;stroke-width:1;fill-opacity:1;stroke-opacity:0.3" />
<rect x="508" y="70" width="82" height="5" style="fill:#5d3c2d;stroke:black;stroke-width:1;fill-opacity:1;stroke-opacity:0.3" />
<line x1="580" y1="30" x2="590" y2="32" stroke="black" stroke-width="1" />
<line x1="590" y1="32" x2="600" y2="30" stroke="black" stroke-width="1" />
<rect x="525" y="28" width="55" height="5" style="fill:#5d3c2d;stroke:black;stroke-width:1;fill-opacity:1;stroke-opacity:0.3" />
<rect x="600" y="28" width="55" height="5" style="fill:#5d3c2d;stroke:black;stroke-width:1;fill-opacity:1;stroke-opacity:0.3" />
<line x1="705" y1="37" x2="709" y2="39" stroke="black" stroke-width="1" />
<line x1="709" y1="39" x2="714" y2="37" stroke="black" stroke-width="1" />
<rect x="530" y="35" width="14" height="5" style="fill:#5d3c2d;stroke:black;stroke-width:1;fill-opacity:1;stroke-opacity:0.3" />
<line x1="545" y1="37" x2="665" y2="37" stroke="pink" stroke-width="1" />
<rect x="665" y="35" width="40" height="5" style="fill:#5d3c2d;stroke:black;stroke-width:1;fill-opacity:1;stroke-opacity:0.3" />
<rect x="714" y="35" width="55" height="5" style="fill:#5d3c2d;stroke:black;stroke-width:1;fill-opacity:1;stroke-opacity:0.3" />
<line x1="684" y1="44" x2="688" y2="46" stroke="black" stroke-width="1" />
<line x1="688" y1="46" x2="692" y2="44" stroke="black" stroke-width="1" />
<rect x="601" y="42" width="82" height="5" style="fill:#5d3c2d;stroke:black;stroke-width:1;fill-opacity:1;stroke-opacity:0.3" />
<rect x="692" y="42" width="81" height="5" style="fill:#5d3c2d;stroke:black;stroke-width:1;fill-opacity:1;stroke-opacity:0.3" />
<line x1="910" y1="30" x2="922" y2="32" stroke="black" stroke-width="1" />
<line x1="922" y1="32" x2="935" y2="30" stroke="black" stroke-width="1" />
<rect x="854" y="28" width="55" height="5" style="fill:#5d3c2d;stroke:black;stroke-width:1;fill-opacity:1;stroke-opacity:0.3" />
<rect x="935" y="28" width="55" height="5" style="fill:#5d3c2d;stroke:black;stroke-width:1;fill-opacity:1;stroke-opacity:0.3" />
<text x="15"  y="176" style="font-family:Arial;font-size:10;stroke:black;fill:black;">all.merged.bam</text>
</svg>
    
