<?xml version="1.0" encoding="utf-8" standalone="no"?>
<!DOCTYPE svg PUBLIC "-//W3C//DTD SVG 1.1//EN"
  "http://www.w3.org/Graphics/SVG/1.1/DTD/svg11.dtd">
<svg height="1140" width="1000" version="1.1" viewBox="0 0 1000 1140" xmlns="http://www.w3.org/2000/svg" xmlns:xlink="http://www.w3.org/1999/xlink">
<line x1="62" y1="11" x2="936" y2="11" stroke="black" stroke-width="1" />
<rect x="62" y="9" width="486" height="5" style="fill:#f50002;stroke:black;stroke-width:1;fill-opacity:1;stroke-opacity:0.3" />
<rect x="550" y="9" width="168" height="5" style="fill:#53a1b5;stroke:black;stroke-width:1;fill-opacity:1;stroke-opacity:0.3" />
<rect x="719" y="9" width="216" height="5" style="fill:#f50002;stroke:black;stroke-width:1;fill-opacity:1;stroke-opacity:0.3" />
<text x="62"  y="23" style="font-family:Arial;font-size:10;stroke:black;fill:black;">Cre03.g208300.t1.2.v5.5 (+) chromosome_3:7151676-7153067</text>
<line x1="126" y1="30" x2="130" y2="32" stroke="black" stroke-width="1" />
<line x1="130" y1="32" x2="135" y2="30" stroke="black" stroke-width="1" />
<rect x="64" y="28" width="62" height="5" style="fill:#5d3c2d;stroke:black;stroke-width:1;fill-opacity:1;stroke-opacity:0.3" />
<rect x="135" y="28" width="62" height="5" style="fill:#5d3c2d;stroke:black;stroke-width:1;fill-opacity:1;stroke-opacity:0.3" />
<line x1="211" y1="37" x2="215" y2="39" stroke="black" stroke-width="1" />
<line x1="215" y1="39" x2="219" y2="37" stroke="black" stroke-width="1" />
<rect x="121" y="35" width="89" height="5" style="fill:#5d3c2d;stroke:black;stroke-width:1;fill-opacity:1;stroke-opacity:0.3" />
<rect x="219" y="35" width="94" height="5" style="fill:#5d3c2d;stroke:black;stroke-width:1;fill-opacity:1;stroke-opacity:0.3" />
<line x1="180" y1="44" x2="200" y2="46" stroke="black" stroke-width="1" />
<line x1="200" y1="46" x2="221" y2="44" stroke="black" stroke-width="1" />
<rect x="121" y="42" width="59" height="5" style="fill:#5d3c2d;stroke:black;stroke-width:1;fill-opacity:1;stroke-opacity:0.3" />
<rect x="221" y="42" width="62" height="5" style="fill:#5d3c2d;stroke:black;stroke-width:1;fill-opacity:1;stroke-opacity:0.3" />
<line x1="179" y1="51" x2="196" y2="53" stroke="black" stroke-width="1" />
<line x1="196" y1="53" x2="214" y2="51" stroke="black" stroke-width="1" />
<rect x="125" y="49" width="54" height="5" style="fill:#5d3c2d;stroke:black;stroke-width:1;fill-opacity:1;stroke-opacity:0.3" />
<rect x="214" y="49" width="62" height="5" style="fill:#5d3c2d;stroke:black;stroke-width:1;fill-opacity:1;stroke-opacity:0.3" />
<line x1="190" y1="58" x2="204" y2="60" stroke="black" stroke-width="1" />
<line x1="204" y1="60" x2="218" y2="58" stroke="black" stroke-width="1" />
<rect x="128" y="56" width="61" height="5" style="fill:#5d3c2d;stroke:black;stroke-width:1;fill-opacity:1;stroke-opacity:0.3" />
<rect x="218" y="56" width="61" height="5" style="fill:#5d3c2d;stroke:black;stroke-width:1;fill-opacity:1;stroke-opacity:0.3" />
<line x1="192" y1="65" x2="205" y2="67" stroke="black" stroke-width="1" />
<line x1="205" y1="67" x2="219" y2="65" stroke="black" stroke-width="1" />
<rect x="130" y="63" width="62" height="5" style="fill:#5d3c2d;stroke:black;stroke-width:1;fill-opacity:1;stroke-opacity:0.3" />
<rect x="219" y="63" width="62" height="5" style="fill:#5d3c2d;stroke:black;stroke-width:1;fill-opacity:1;stroke-opacity:0.3" />
<line x1="190" y1="72" x2="222" y2="74" stroke="black" stroke-width="1" />
<line x1="222" y1="74" x2="254" y2="72" stroke="black" stroke-width="1" />
<rect x="131" y="70" width="58" height="5" style="fill:#5d3c2d;stroke:black;stroke-width:1;fill-opacity:1;stroke-opacity:0.3" />
<rect x="254" y="70" width="62" height="5" style="fill:#5d3c2d;stroke:black;stroke-width:1;fill-opacity:1;stroke-opacity:0.3" />
<line x1="207" y1="79" x2="217" y2="81" stroke="black" stroke-width="1" />
<line x1="217" y1="81" x2="227" y2="79" stroke="black" stroke-width="1" />
<rect x="148" y="77" width="59" height="5" style="fill:#f5b024;stroke:black;stroke-width:1;fill-opacity:1;stroke-opacity:0.3" />
<rect x="227" y="77" width="61" height="5" style="fill:#f5b024;stroke:black;stroke-width:1;fill-opacity:1;stroke-opacity:0.3" />
<line x1="219" y1="86" x2="242" y2="88" stroke="black" stroke-width="1" />
<line x1="242" y1="88" x2="265" y2="86" stroke="black" stroke-width="1" />
<rect x="156" y="84" width="57" height="5" style="fill:#5d3c2d;stroke:black;stroke-width:1;fill-opacity:1;stroke-opacity:0.3" />
<rect x="213" y="84" width="5" height="5" style="fill:#5d3c2d;stroke:black;stroke-width:1;fill-opacity:1;stroke-opacity:0.3" />
<rect x="265" y="84" width="62" height="5" style="fill:#5d3c2d;stroke:black;stroke-width:1;fill-opacity:1;stroke-opacity:0.3" />
<line x1="216" y1="93" x2="219" y2="95" stroke="black" stroke-width="1" />
<line x1="219" y1="95" x2="222" y2="93" stroke="black" stroke-width="1" />
<rect x="158" y="91" width="58" height="5" style="fill:#5d3c2d;stroke:black;stroke-width:1;fill-opacity:1;stroke-opacity:0.3" />
<rect x="222" y="91" width="62" height="5" style="fill:#5d3c2d;stroke:black;stroke-width:1;fill-opacity:1;stroke-opacity:0.3" />
<line x1="216" y1="100" x2="229" y2="102" stroke="black" stroke-width="1" />
<line x1="229" y1="102" x2="243" y2="100" stroke="black" stroke-width="1" />
<rect x="160" y="98" width="56" height="5" style="fill:#5d3c2d;stroke:black;stroke-width:1;fill-opacity:1;stroke-opacity:0.3" />
<rect x="243" y="98" width="62" height="5" style="fill:#5d3c2d;stroke:black;stroke-width:1;fill-opacity:1;stroke-opacity:0.3" />
<line x1="233" y1="107" x2="244" y2="109" stroke="black" stroke-width="1" />
<line x1="244" y1="109" x2="256" y2="107" stroke="black" stroke-width="1" />
<rect x="170" y="105" width="45" height="5" style="fill:#5d3c2d;stroke:black;stroke-width:1;fill-opacity:1;stroke-opacity:0.3" />
<rect x="216" y="105" width="16" height="5" style="fill:#5d3c2d;stroke:black;stroke-width:1;fill-opacity:1;stroke-opacity:0.3" />
<rect x="256" y="105" width="62" height="5" style="fill:#5d3c2d;stroke:black;stroke-width:1;fill-opacity:1;stroke-opacity:0.3" />
<line x1="234" y1="114" x2="245" y2="116" stroke="black" stroke-width="1" />
<line x1="245" y1="116" x2="256" y2="114" stroke="black" stroke-width="1" />
<rect x="171" y="112" width="45" height="5" style="fill:#5d3c2d;stroke:black;stroke-width:1;fill-opacity:1;stroke-opacity:0.3" />
<rect x="217" y="112" width="16" height="5" style="fill:#5d3c2d;stroke:black;stroke-width:1;fill-opacity:1;stroke-opacity:0.3" />
<rect x="256" y="112" width="62" height="5" style="fill:#5d3c2d;stroke:black;stroke-width:1;fill-opacity:1;stroke-opacity:0.3" />
<line x1="296" y1="30" x2="315" y2="32" stroke="black" stroke-width="1" />
<line x1="315" y1="32" x2="334" y2="30" stroke="black" stroke-width="1" />
<rect x="202" y="28" width="11" height="5" style="fill:#5d3c2d;stroke:black;stroke-width:1;fill-opacity:1;stroke-opacity:0.3" />
<rect x="214" y="28" width="82" height="5" style="fill:#5d3c2d;stroke:black;stroke-width:1;fill-opacity:1;stroke-opacity:0.3" />
<rect x="334" y="28" width="94" height="5" style="fill:#5d3c2d;stroke:black;stroke-width:1;fill-opacity:1;stroke-opacity:0.3" />
<line x1="300" y1="121" x2="317" y2="123" stroke="black" stroke-width="1" />
<line x1="317" y1="123" x2="335" y2="121" stroke="black" stroke-width="1" />
<rect x="206" y="119" width="8" height="5" style="fill:#5d3c2d;stroke:black;stroke-width:1;fill-opacity:1;stroke-opacity:0.3" />
<rect x="214" y="119" width="86" height="5" style="fill:#5d3c2d;stroke:black;stroke-width:1;fill-opacity:1;stroke-opacity:0.3" />
<rect x="335" y="119" width="93" height="5" style="fill:#5d3c2d;stroke:black;stroke-width:1;fill-opacity:1;stroke-opacity:0.3" />
<line x1="300" y1="128" x2="318" y2="130" stroke="black" stroke-width="1" />
<line x1="318" y1="130" x2="337" y2="128" stroke="black" stroke-width="1" />
<rect x="206" y="126" width="7" height="5" style="fill:#5d3c2d;stroke:black;stroke-width:1;fill-opacity:1;stroke-opacity:0.3" />
<rect x="214" y="126" width="86" height="5" style="fill:#5d3c2d;stroke:black;stroke-width:1;fill-opacity:1;stroke-opacity:0.3" />
<rect x="337" y="126" width="94" height="5" style="fill:#5d3c2d;stroke:black;stroke-width:1;fill-opacity:1;stroke-opacity:0.3" />
<line x1="311" y1="135" x2="324" y2="137" stroke="black" stroke-width="1" />
<line x1="324" y1="137" x2="338" y2="135" stroke="black" stroke-width="1" />
<rect x="217" y="133" width="94" height="5" style="fill:#5d3c2d;stroke:black;stroke-width:1;fill-opacity:1;stroke-opacity:0.3" />
<rect x="338" y="133" width="89" height="5" style="fill:#5d3c2d;stroke:black;stroke-width:1;fill-opacity:1;stroke-opacity:0.3" />
<line x1="311" y1="142" x2="322" y2="144" stroke="black" stroke-width="1" />
<line x1="322" y1="144" x2="334" y2="142" stroke="black" stroke-width="1" />
<rect x="217" y="140" width="94" height="5" style="fill:#5d3c2d;stroke:black;stroke-width:1;fill-opacity:1;stroke-opacity:0.3" />
<rect x="334" y="140" width="94" height="5" style="fill:#5d3c2d;stroke:black;stroke-width:1;fill-opacity:1;stroke-opacity:0.3" />
<line x1="272" y1="149" x2="302" y2="151" stroke="black" stroke-width="1" />
<line x1="302" y1="151" x2="332" y2="149" stroke="black" stroke-width="1" />
<rect x="221" y="147" width="50" height="5" style="fill:#5d3c2d;stroke:black;stroke-width:1;fill-opacity:1;stroke-opacity:0.3" />
<rect x="332" y="147" width="59" height="5" style="fill:#5d3c2d;stroke:black;stroke-width:1;fill-opacity:1;stroke-opacity:0.3" />
<line x1="285" y1="156" x2="308" y2="158" stroke="black" stroke-width="1" />
<line x1="308" y1="158" x2="332" y2="156" stroke="black" stroke-width="1" />
<rect x="222" y="154" width="62" height="5" style="fill:#5d3c2d;stroke:black;stroke-width:1;fill-opacity:1;stroke-opacity:0.3" />
<rect x="332" y="154" width="59" height="5" style="fill:#5d3c2d;stroke:black;stroke-width:1;fill-opacity:1;stroke-opacity:0.3" />
<line x1="285" y1="163" x2="308" y2="165" stroke="black" stroke-width="1" />
<line x1="308" y1="165" x2="332" y2="163" stroke="black" stroke-width="1" />
<rect x="222" y="161" width="62" height="5" style="fill:#5d3c2d;stroke:black;stroke-width:1;fill-opacity:1;stroke-opacity:0.3" />
<rect x="332" y="161" width="59" height="5" style="fill:#5d3c2d;stroke:black;stroke-width:1;fill-opacity:1;stroke-opacity:0.3" />
<line x1="420" y1="37" x2="442" y2="39" stroke="black" stroke-width="1" />
<line x1="442" y1="39" x2="465" y2="37" stroke="black" stroke-width="1" />
<rect x="326" y="35" width="94" height="5" style="fill:#5d3c2d;stroke:black;stroke-width:1;fill-opacity:1;stroke-opacity:0.3" />
<rect x="465" y="35" width="87" height="5" style="fill:#5d3c2d;stroke:black;stroke-width:1;fill-opacity:1;stroke-opacity:0.3" />
<line x1="391" y1="44" x2="438" y2="46" stroke="black" stroke-width="1" />
<line x1="438" y1="46" x2="485" y2="44" stroke="black" stroke-width="1" />
<rect x="332" y="42" width="59" height="5" style="fill:#5d3c2d;stroke:black;stroke-width:1;fill-opacity:1;stroke-opacity:0.3" />
<rect x="485" y="42" width="62" height="5" style="fill:#5d3c2d;stroke:black;stroke-width:1;fill-opacity:1;stroke-opacity:0.3" />
<line x1="389" y1="51" x2="434" y2="53" stroke="black" stroke-width="1" />
<line x1="434" y1="53" x2="479" y2="51" stroke="black" stroke-width="1" />
<rect x="332" y="49" width="57" height="5" style="fill:#5d3c2d;stroke:black;stroke-width:1;fill-opacity:1;stroke-opacity:0.3" />
<rect x="479" y="49" width="62" height="5" style="fill:#5d3c2d;stroke:black;stroke-width:1;fill-opacity:1;stroke-opacity:0.3" />
<line x1="431" y1="58" x2="449" y2="60" stroke="black" stroke-width="1" />
<line x1="449" y1="60" x2="467" y2="58" stroke="black" stroke-width="1" />
<rect x="337" y="56" width="94" height="5" style="fill:#5d3c2d;stroke:black;stroke-width:1;fill-opacity:1;stroke-opacity:0.3" />
<rect x="467" y="56" width="89" height="5" style="fill:#5d3c2d;stroke:black;stroke-width:1;fill-opacity:1;stroke-opacity:0.3" />
<line x1="411" y1="65" x2="439" y2="67" stroke="black" stroke-width="1" />
<line x1="439" y1="67" x2="468" y2="65" stroke="black" stroke-width="1" />
<rect x="351" y="63" width="60" height="5" style="fill:#5d3c2d;stroke:black;stroke-width:1;fill-opacity:1;stroke-opacity:0.3" />
<rect x="468" y="63" width="62" height="5" style="fill:#5d3c2d;stroke:black;stroke-width:1;fill-opacity:1;stroke-opacity:0.3" />
<line x1="412" y1="72" x2="448" y2="74" stroke="black" stroke-width="1" />
<line x1="448" y1="74" x2="484" y2="72" stroke="black" stroke-width="1" />
<rect x="351" y="70" width="60" height="5" style="fill:#5d3c2d;stroke:black;stroke-width:1;fill-opacity:1;stroke-opacity:0.3" />
<rect x="484" y="70" width="62" height="5" style="fill:#5d3c2d;stroke:black;stroke-width:1;fill-opacity:1;stroke-opacity:0.3" />
<line x1="445" y1="79" x2="458" y2="81" stroke="black" stroke-width="1" />
<line x1="458" y1="81" x2="471" y2="79" stroke="black" stroke-width="1" />
<rect x="351" y="77" width="94" height="5" style="fill:#5d3c2d;stroke:black;stroke-width:1;fill-opacity:1;stroke-opacity:0.3" />
<rect x="471" y="77" width="92" height="5" style="fill:#5d3c2d;stroke:black;stroke-width:1;fill-opacity:1;stroke-opacity:0.3" />
<line x1="417" y1="86" x2="447" y2="88" stroke="black" stroke-width="1" />
<line x1="447" y1="88" x2="478" y2="86" stroke="black" stroke-width="1" />
<rect x="356" y="84" width="61" height="5" style="fill:#5d3c2d;stroke:black;stroke-width:1;fill-opacity:1;stroke-opacity:0.3" />
<rect x="478" y="84" width="53" height="5" style="fill:#5d3c2d;stroke:black;stroke-width:1;fill-opacity:1;stroke-opacity:0.3" />
<line x1="417" y1="93" x2="442" y2="95" stroke="black" stroke-width="1" />
<line x1="442" y1="95" x2="467" y2="93" stroke="black" stroke-width="1" />
<rect x="359" y="91" width="57" height="5" style="fill:#5d3c2d;stroke:black;stroke-width:1;fill-opacity:1;stroke-opacity:0.3" />
<rect x="467" y="91" width="58" height="5" style="fill:#5d3c2d;stroke:black;stroke-width:1;fill-opacity:1;stroke-opacity:0.3" />
<line x1="417" y1="100" x2="442" y2="102" stroke="black" stroke-width="1" />
<line x1="442" y1="102" x2="468" y2="100" stroke="black" stroke-width="1" />
<rect x="359" y="98" width="57" height="5" style="fill:#5d3c2d;stroke:black;stroke-width:1;fill-opacity:1;stroke-opacity:0.3" />
<rect x="468" y="98" width="62" height="5" style="fill:#5d3c2d;stroke:black;stroke-width:1;fill-opacity:1;stroke-opacity:0.3" />
<line x1="423" y1="107" x2="445" y2="109" stroke="black" stroke-width="1" />
<line x1="445" y1="109" x2="467" y2="107" stroke="black" stroke-width="1" />
<rect x="363" y="105" width="60" height="5" style="fill:#5d3c2d;stroke:black;stroke-width:1;fill-opacity:1;stroke-opacity:0.3" />
<rect x="467" y="105" width="59" height="5" style="fill:#5d3c2d;stroke:black;stroke-width:1;fill-opacity:1;stroke-opacity:0.3" />
<line x1="427" y1="114" x2="455" y2="116" stroke="black" stroke-width="1" />
<line x1="455" y1="116" x2="484" y2="114" stroke="black" stroke-width="1" />
<rect x="364" y="112" width="62" height="5" style="fill:#5d3c2d;stroke:black;stroke-width:1;fill-opacity:1;stroke-opacity:0.3" />
<rect x="484" y="112" width="62" height="5" style="fill:#5d3c2d;stroke:black;stroke-width:1;fill-opacity:1;stroke-opacity:0.3" />
<line x1="528" y1="30" x2="533" y2="32" stroke="black" stroke-width="1" />
<line x1="533" y1="32" x2="539" y2="30" stroke="black" stroke-width="1" />
<rect x="476" y="28" width="52" height="5" style="fill:#5d3c2d;stroke:black;stroke-width:1;fill-opacity:1;stroke-opacity:0.3" />
<rect x="539" y="28" width="54" height="5" style="fill:#5d3c2d;stroke:black;stroke-width:1;fill-opacity:1;stroke-opacity:0.3" />
<text x="15"  y="176" style="font-family:Arial;font-size:10;stroke:black;fill:black;">all.merged.bam</text>
</svg>
    
