<?xml version="1.0" encoding="utf-8" standalone="no"?>
<!DOCTYPE svg PUBLIC "-//W3C//DTD SVG 1.1//EN"
  "http://www.w3.org/Graphics/SVG/1.1/DTD/svg11.dtd">
<svg height="1140" width="1000" version="1.1" viewBox="0 0 1000 1140" xmlns="http://www.w3.org/2000/svg" xmlns:xlink="http://www.w3.org/1999/xlink">
<line x1="18" y1="11" x2="980" y2="11" stroke="black" stroke-width="1" />
<rect x="18" y="9" width="52" height="5" style="fill:#f50002;stroke:black;stroke-width:1;fill-opacity:1;stroke-opacity:0.3" />
<rect x="96" y="9" width="0" height="5" style="fill:#f50002;stroke:black;stroke-width:1;fill-opacity:1;stroke-opacity:0.3" />
<rect x="97" y="9" width="49" height="5" style="fill:#53a1b5;stroke:black;stroke-width:1;fill-opacity:1;stroke-opacity:0.3" />
<rect x="328" y="9" width="44" height="5" style="fill:#53a1b5;stroke:black;stroke-width:1;fill-opacity:1;stroke-opacity:0.3" />
<rect x="396" y="9" width="13" height="5" style="fill:#53a1b5;stroke:black;stroke-width:1;fill-opacity:1;stroke-opacity:0.3" />
<rect x="438" y="9" width="13" height="5" style="fill:#53a1b5;stroke:black;stroke-width:1;fill-opacity:1;stroke-opacity:0.3" />
<rect x="475" y="9" width="40" height="5" style="fill:#53a1b5;stroke:black;stroke-width:1;fill-opacity:1;stroke-opacity:0.3" />
<rect x="540" y="9" width="151" height="5" style="fill:#53a1b5;stroke:black;stroke-width:1;fill-opacity:1;stroke-opacity:0.3" />
<rect x="691" y="9" width="289" height="5" style="fill:#f50002;stroke:black;stroke-width:1;fill-opacity:1;stroke-opacity:0.3" />
<text x="18"  y="23" style="font-family:Arial;font-size:10;stroke:black;fill:black;">Cre09.g414416.t1.1.v5.5 (+) chromosome_9:7570418-7575509</text>
<line x1="66" y1="30" x2="81" y2="32" stroke="black" stroke-width="1" />
<line x1="81" y1="32" x2="96" y2="30" stroke="black" stroke-width="1" />
<rect x="47" y="28" width="18" height="5" style="fill:#5d3c2d;stroke:black;stroke-width:1;fill-opacity:1;stroke-opacity:0.3" />
<rect x="96" y="28" width="18" height="5" style="fill:#5d3c2d;stroke:black;stroke-width:1;fill-opacity:1;stroke-opacity:0.3" />
<line x1="70" y1="37" x2="87" y2="39" stroke="black" stroke-width="1" />
<line x1="87" y1="39" x2="105" y2="37" stroke="black" stroke-width="1" />
<rect x="51" y="35" width="18" height="5" style="fill:#5d3c2d;stroke:black;stroke-width:1;fill-opacity:1;stroke-opacity:0.3" />
<rect x="105" y="35" width="18" height="5" style="fill:#5d3c2d;stroke:black;stroke-width:1;fill-opacity:1;stroke-opacity:0.3" />
<line x1="110" y1="44" x2="115" y2="46" stroke="black" stroke-width="1" />
<line x1="115" y1="46" x2="121" y2="44" stroke="black" stroke-width="1" />
<rect x="66" y="42" width="5" height="5" style="fill:#5d3c2d;stroke:black;stroke-width:1;fill-opacity:1;stroke-opacity:0.3" />
<line x1="71" y1="44" x2="96" y2="44" stroke="pink" stroke-width="1" />
<rect x="96" y="42" width="13" height="5" style="fill:#5d3c2d;stroke:black;stroke-width:1;fill-opacity:1;stroke-opacity:0.3" />
<rect x="121" y="42" width="18" height="5" style="fill:#5d3c2d;stroke:black;stroke-width:1;fill-opacity:1;stroke-opacity:0.3" />
<line x1="113" y1="51" x2="117" y2="53" stroke="black" stroke-width="1" />
<line x1="117" y1="53" x2="121" y2="51" stroke="black" stroke-width="1" />
<rect x="69" y="49" width="2" height="5" style="fill:#5d3c2d;stroke:black;stroke-width:1;fill-opacity:1;stroke-opacity:0.3" />
<line x1="71" y1="51" x2="96" y2="51" stroke="pink" stroke-width="1" />
<rect x="96" y="49" width="16" height="5" style="fill:#5d3c2d;stroke:black;stroke-width:1;fill-opacity:1;stroke-opacity:0.3" />
<rect x="121" y="49" width="18" height="5" style="fill:#5d3c2d;stroke:black;stroke-width:1;fill-opacity:1;stroke-opacity:0.3" />
<line x1="118" y1="58" x2="120" y2="60" stroke="black" stroke-width="1" />
<line x1="120" y1="60" x2="122" y2="58" stroke="black" stroke-width="1" />
<rect x="99" y="56" width="18" height="5" style="fill:#5d3c2d;stroke:black;stroke-width:1;fill-opacity:1;stroke-opacity:0.3" />
<rect x="122" y="56" width="18" height="5" style="fill:#5d3c2d;stroke:black;stroke-width:1;fill-opacity:1;stroke-opacity:0.3" />
<line x1="124" y1="65" x2="126" y2="67" stroke="black" stroke-width="1" />
<line x1="126" y1="67" x2="128" y2="65" stroke="black" stroke-width="1" />
<rect x="106" y="63" width="18" height="5" style="fill:#5d3c2d;stroke:black;stroke-width:1;fill-opacity:1;stroke-opacity:0.3" />
<rect x="128" y="63" width="18" height="5" style="fill:#5d3c2d;stroke:black;stroke-width:1;fill-opacity:1;stroke-opacity:0.3" />
<line x1="371" y1="30" x2="384" y2="32" stroke="black" stroke-width="1" />
<line x1="384" y1="32" x2="398" y2="30" stroke="black" stroke-width="1" />
<rect x="352" y="28" width="18" height="5" style="fill:#5d3c2d;stroke:black;stroke-width:1;fill-opacity:1;stroke-opacity:0.3" />
<rect x="398" y="28" width="11" height="5" style="fill:#5d3c2d;stroke:black;stroke-width:1;fill-opacity:1;stroke-opacity:0.3" />
<line x1="410" y1="30" x2="438" y2="30" stroke="pink" stroke-width="1" />
<rect x="438" y="28" width="7" height="5" style="fill:#5d3c2d;stroke:black;stroke-width:1;fill-opacity:1;stroke-opacity:0.3" />
<line x1="497" y1="30" x2="501" y2="32" stroke="black" stroke-width="1" />
<line x1="501" y1="32" x2="505" y2="30" stroke="black" stroke-width="1" />
<rect x="478" y="28" width="18" height="5" style="fill:#5d3c2d;stroke:black;stroke-width:1;fill-opacity:1;stroke-opacity:0.3" />
<rect x="505" y="28" width="11" height="5" style="fill:#5d3c2d;stroke:black;stroke-width:1;fill-opacity:1;stroke-opacity:0.3" />
<line x1="516" y1="30" x2="540" y2="30" stroke="pink" stroke-width="1" />
<rect x="540" y="28" width="7" height="5" style="fill:#5d3c2d;stroke:black;stroke-width:1;fill-opacity:1;stroke-opacity:0.3" />
<line x1="639" y1="30" x2="647" y2="32" stroke="black" stroke-width="1" />
<line x1="647" y1="32" x2="656" y2="30" stroke="black" stroke-width="1" />
<rect x="620" y="28" width="18" height="5" style="fill:#5d3c2d;stroke:black;stroke-width:1;fill-opacity:1;stroke-opacity:0.3" />
<rect x="656" y="28" width="18" height="5" style="fill:#5d3c2d;stroke:black;stroke-width:1;fill-opacity:1;stroke-opacity:0.3" />
<line x1="647" y1="37" x2="652" y2="39" stroke="black" stroke-width="1" />
<line x1="652" y1="39" x2="657" y2="37" stroke="black" stroke-width="1" />
<rect x="629" y="35" width="18" height="5" style="fill:#5d3c2d;stroke:black;stroke-width:1;fill-opacity:1;stroke-opacity:0.3" />
<rect x="657" y="35" width="18" height="5" style="fill:#5d3c2d;stroke:black;stroke-width:1;fill-opacity:1;stroke-opacity:0.3" />
<line x1="665" y1="44" x2="679" y2="46" stroke="black" stroke-width="1" />
<line x1="679" y1="46" x2="694" y2="44" stroke="black" stroke-width="1" />
<rect x="646" y="42" width="18" height="5" style="fill:#5d3c2d;stroke:black;stroke-width:1;fill-opacity:1;stroke-opacity:0.3" />
<rect x="694" y="42" width="18" height="5" style="fill:#5d3c2d;stroke:black;stroke-width:1;fill-opacity:1;stroke-opacity:0.3" />
<line x1="694" y1="51" x2="695" y2="53" stroke="black" stroke-width="1" />
<line x1="695" y1="53" x2="697" y2="51" stroke="black" stroke-width="1" />
<rect x="675" y="49" width="18" height="5" style="fill:#5d3c2d;stroke:black;stroke-width:1;fill-opacity:1;stroke-opacity:0.3" />
<rect x="697" y="49" width="18" height="5" style="fill:#5d3c2d;stroke:black;stroke-width:1;fill-opacity:1;stroke-opacity:0.3" />
<line x1="696" y1="30" x2="704" y2="32" stroke="black" stroke-width="1" />
<line x1="704" y1="32" x2="713" y2="30" stroke="black" stroke-width="1" />
<rect x="677" y="28" width="18" height="5" style="fill:#5d3c2d;stroke:black;stroke-width:1;fill-opacity:1;stroke-opacity:0.3" />
<rect x="713" y="28" width="18" height="5" style="fill:#5d3c2d;stroke:black;stroke-width:1;fill-opacity:1;stroke-opacity:0.3" />
<line x1="711" y1="37" x2="716" y2="39" stroke="black" stroke-width="1" />
<line x1="716" y1="39" x2="721" y2="37" stroke="black" stroke-width="1" />
<rect x="692" y="35" width="18" height="5" style="fill:#5d3c2d;stroke:black;stroke-width:1;fill-opacity:1;stroke-opacity:0.3" />
<rect x="721" y="35" width="18" height="5" style="fill:#5d3c2d;stroke:black;stroke-width:1;fill-opacity:1;stroke-opacity:0.3" />
<line x1="718" y1="58" x2="725" y2="60" stroke="black" stroke-width="1" />
<line x1="725" y1="60" x2="732" y2="58" stroke="black" stroke-width="1" />
<rect x="699" y="56" width="18" height="5" style="fill:#5d3c2d;stroke:black;stroke-width:1;fill-opacity:1;stroke-opacity:0.3" />
<rect x="732" y="56" width="18" height="5" style="fill:#5d3c2d;stroke:black;stroke-width:1;fill-opacity:1;stroke-opacity:0.3" />
<line x1="727" y1="65" x2="733" y2="67" stroke="black" stroke-width="1" />
<line x1="733" y1="67" x2="740" y2="65" stroke="black" stroke-width="1" />
<rect x="708" y="63" width="18" height="5" style="fill:#5d3c2d;stroke:black;stroke-width:1;fill-opacity:1;stroke-opacity:0.3" />
<rect x="740" y="63" width="18" height="5" style="fill:#5d3c2d;stroke:black;stroke-width:1;fill-opacity:1;stroke-opacity:0.3" />
<line x1="762" y1="30" x2="765" y2="32" stroke="black" stroke-width="1" />
<line x1="765" y1="32" x2="768" y2="30" stroke="black" stroke-width="1" />
<rect x="743" y="28" width="18" height="5" style="fill:#5d3c2d;stroke:black;stroke-width:1;fill-opacity:1;stroke-opacity:0.3" />
<rect x="768" y="28" width="18" height="5" style="fill:#5d3c2d;stroke:black;stroke-width:1;fill-opacity:1;stroke-opacity:0.3" />
<line x1="766" y1="37" x2="771" y2="39" stroke="black" stroke-width="1" />
<line x1="771" y1="39" x2="777" y2="37" stroke="black" stroke-width="1" />
<rect x="747" y="35" width="18" height="5" style="fill:#5d3c2d;stroke:black;stroke-width:1;fill-opacity:1;stroke-opacity:0.3" />
<rect x="777" y="35" width="18" height="5" style="fill:#5d3c2d;stroke:black;stroke-width:1;fill-opacity:1;stroke-opacity:0.3" />
<line x1="782" y1="44" x2="784" y2="46" stroke="black" stroke-width="1" />
<line x1="784" y1="46" x2="787" y2="44" stroke="black" stroke-width="1" />
<rect x="763" y="42" width="18" height="5" style="fill:#5d3c2d;stroke:black;stroke-width:1;fill-opacity:1;stroke-opacity:0.3" />
<rect x="787" y="42" width="18" height="5" style="fill:#5d3c2d;stroke:black;stroke-width:1;fill-opacity:1;stroke-opacity:0.3" />
<line x1="817" y1="30" x2="824" y2="32" stroke="black" stroke-width="1" />
<line x1="824" y1="32" x2="831" y2="30" stroke="black" stroke-width="1" />
<rect x="798" y="28" width="18" height="5" style="fill:#5d3c2d;stroke:black;stroke-width:1;fill-opacity:1;stroke-opacity:0.3" />
<rect x="831" y="28" width="18" height="5" style="fill:#5d3c2d;stroke:black;stroke-width:1;fill-opacity:1;stroke-opacity:0.3" />
<line x1="817" y1="37" x2="821" y2="39" stroke="black" stroke-width="1" />
<line x1="821" y1="39" x2="825" y2="37" stroke="black" stroke-width="1" />
<rect x="798" y="35" width="18" height="5" style="fill:#5d3c2d;stroke:black;stroke-width:1;fill-opacity:1;stroke-opacity:0.3" />
<rect x="825" y="35" width="18" height="5" style="fill:#5d3c2d;stroke:black;stroke-width:1;fill-opacity:1;stroke-opacity:0.3" />
<line x1="817" y1="51" x2="825" y2="53" stroke="black" stroke-width="1" />
<line x1="825" y1="53" x2="834" y2="51" stroke="black" stroke-width="1" />
<rect x="798" y="49" width="18" height="5" style="fill:#5d3c2d;stroke:black;stroke-width:1;fill-opacity:1;stroke-opacity:0.3" />
<rect x="834" y="49" width="18" height="5" style="fill:#5d3c2d;stroke:black;stroke-width:1;fill-opacity:1;stroke-opacity:0.3" />
<line x1="842" y1="44" x2="844" y2="46" stroke="black" stroke-width="1" />
<line x1="844" y1="46" x2="847" y2="44" stroke="black" stroke-width="1" />
<rect x="814" y="42" width="28" height="5" style="fill:#5d3c2d;stroke:black;stroke-width:1;fill-opacity:1;stroke-opacity:0.3" />
<rect x="847" y="42" width="28" height="5" style="fill:#5d3c2d;stroke:black;stroke-width:1;fill-opacity:1;stroke-opacity:0.3" />
<line x1="838" y1="58" x2="840" y2="60" stroke="black" stroke-width="1" />
<line x1="840" y1="60" x2="842" y2="58" stroke="black" stroke-width="1" />
<rect x="819" y="56" width="18" height="5" style="fill:#5d3c2d;stroke:black;stroke-width:1;fill-opacity:1;stroke-opacity:0.3" />
<rect x="842" y="56" width="18" height="5" style="fill:#5d3c2d;stroke:black;stroke-width:1;fill-opacity:1;stroke-opacity:0.3" />
<line x1="838" y1="65" x2="841" y2="67" stroke="black" stroke-width="1" />
<line x1="841" y1="67" x2="844" y2="65" stroke="black" stroke-width="1" />
<rect x="819" y="63" width="18" height="5" style="fill:#5d3c2d;stroke:black;stroke-width:1;fill-opacity:1;stroke-opacity:0.3" />
<rect x="844" y="63" width="18" height="5" style="fill:#5d3c2d;stroke:black;stroke-width:1;fill-opacity:1;stroke-opacity:0.3" />
<line x1="848" y1="72" x2="850" y2="74" stroke="black" stroke-width="1" />
<line x1="850" y1="74" x2="852" y2="72" stroke="black" stroke-width="1" />
<rect x="820" y="70" width="28" height="5" style="fill:#5d3c2d;stroke:black;stroke-width:1;fill-opacity:1;stroke-opacity:0.3" />
<rect x="852" y="70" width="28" height="5" style="fill:#5d3c2d;stroke:black;stroke-width:1;fill-opacity:1;stroke-opacity:0.3" />
<line x1="839" y1="79" x2="841" y2="81" stroke="black" stroke-width="1" />
<line x1="841" y1="81" x2="844" y2="79" stroke="black" stroke-width="1" />
<rect x="820" y="77" width="18" height="5" style="fill:#5d3c2d;stroke:black;stroke-width:1;fill-opacity:1;stroke-opacity:0.3" />
<rect x="844" y="77" width="18" height="5" style="fill:#5d3c2d;stroke:black;stroke-width:1;fill-opacity:1;stroke-opacity:0.3" />
<line x1="853" y1="86" x2="855" y2="88" stroke="black" stroke-width="1" />
<line x1="855" y1="88" x2="858" y2="86" stroke="black" stroke-width="1" />
<rect x="825" y="84" width="27" height="5" style="fill:#5d3c2d;stroke:black;stroke-width:1;fill-opacity:1;stroke-opacity:0.3" />
<rect x="858" y="84" width="28" height="5" style="fill:#5d3c2d;stroke:black;stroke-width:1;fill-opacity:1;stroke-opacity:0.3" />
<line x1="845" y1="93" x2="846" y2="95" stroke="black" stroke-width="1" />
<line x1="846" y1="95" x2="847" y2="93" stroke="black" stroke-width="1" />
<rect x="827" y="91" width="18" height="5" style="fill:#5d3c2d;stroke:black;stroke-width:1;fill-opacity:1;stroke-opacity:0.3" />
<rect x="847" y="91" width="18" height="5" style="fill:#5d3c2d;stroke:black;stroke-width:1;fill-opacity:1;stroke-opacity:0.3" />
<line x1="845" y1="100" x2="846" y2="102" stroke="black" stroke-width="1" />
<line x1="846" y1="102" x2="847" y2="100" stroke="black" stroke-width="1" />
<rect x="827" y="98" width="18" height="5" style="fill:#5d3c2d;stroke:black;stroke-width:1;fill-opacity:1;stroke-opacity:0.3" />
<rect x="847" y="98" width="18" height="5" style="fill:#5d3c2d;stroke:black;stroke-width:1;fill-opacity:1;stroke-opacity:0.3" />
<line x1="846" y1="107" x2="849" y2="109" stroke="black" stroke-width="1" />
<line x1="849" y1="109" x2="853" y2="107" stroke="black" stroke-width="1" />
<rect x="827" y="105" width="18" height="5" style="fill:#5d3c2d;stroke:black;stroke-width:1;fill-opacity:1;stroke-opacity:0.3" />
<rect x="853" y="105" width="18" height="5" style="fill:#5d3c2d;stroke:black;stroke-width:1;fill-opacity:1;stroke-opacity:0.3" />
<line x1="855" y1="114" x2="856" y2="116" stroke="black" stroke-width="1" />
<line x1="856" y1="116" x2="858" y2="114" stroke="black" stroke-width="1" />
<rect x="836" y="112" width="18" height="5" style="fill:#5d3c2d;stroke:black;stroke-width:1;fill-opacity:1;stroke-opacity:0.3" />
<rect x="858" y="112" width="18" height="5" style="fill:#5d3c2d;stroke:black;stroke-width:1;fill-opacity:1;stroke-opacity:0.3" />
<line x1="865" y1="37" x2="873" y2="39" stroke="black" stroke-width="1" />
<line x1="873" y1="39" x2="882" y2="37" stroke="black" stroke-width="1" />
<rect x="846" y="35" width="18" height="5" style="fill:#5d3c2d;stroke:black;stroke-width:1;fill-opacity:1;stroke-opacity:0.3" />
<rect x="882" y="35" width="18" height="5" style="fill:#5d3c2d;stroke:black;stroke-width:1;fill-opacity:1;stroke-opacity:0.3" />
<line x1="879" y1="30" x2="880" y2="32" stroke="black" stroke-width="1" />
<line x1="880" y1="32" x2="882" y2="30" stroke="black" stroke-width="1" />
<rect x="860" y="28" width="18" height="5" style="fill:#5d3c2d;stroke:black;stroke-width:1;fill-opacity:1;stroke-opacity:0.3" />
<rect x="882" y="28" width="18" height="5" style="fill:#5d3c2d;stroke:black;stroke-width:1;fill-opacity:1;stroke-opacity:0.3" />
<line x1="879" y1="51" x2="880" y2="53" stroke="black" stroke-width="1" />
<line x1="880" y1="53" x2="882" y2="51" stroke="black" stroke-width="1" />
<rect x="860" y="49" width="18" height="5" style="fill:#5d3c2d;stroke:black;stroke-width:1;fill-opacity:1;stroke-opacity:0.3" />
<rect x="882" y="49" width="18" height="5" style="fill:#5d3c2d;stroke:black;stroke-width:1;fill-opacity:1;stroke-opacity:0.3" />
<line x1="891" y1="58" x2="893" y2="60" stroke="black" stroke-width="1" />
<line x1="893" y1="60" x2="895" y2="58" stroke="black" stroke-width="1" />
<rect x="872" y="56" width="18" height="5" style="fill:#5d3c2d;stroke:black;stroke-width:1;fill-opacity:1;stroke-opacity:0.3" />
<rect x="895" y="56" width="18" height="5" style="fill:#5d3c2d;stroke:black;stroke-width:1;fill-opacity:1;stroke-opacity:0.3" />
<line x1="893" y1="65" x2="899" y2="67" stroke="black" stroke-width="1" />
<line x1="899" y1="67" x2="906" y2="65" stroke="black" stroke-width="1" />
<rect x="875" y="63" width="18" height="5" style="fill:#5d3c2d;stroke:black;stroke-width:1;fill-opacity:1;stroke-opacity:0.3" />
<rect x="906" y="63" width="18" height="5" style="fill:#5d3c2d;stroke:black;stroke-width:1;fill-opacity:1;stroke-opacity:0.3" />
<line x1="900" y1="44" x2="905" y2="46" stroke="black" stroke-width="1" />
<line x1="905" y1="46" x2="911" y2="44" stroke="black" stroke-width="1" />
<rect x="881" y="42" width="18" height="5" style="fill:#5d3c2d;stroke:black;stroke-width:1;fill-opacity:1;stroke-opacity:0.3" />
<rect x="911" y="42" width="18" height="5" style="fill:#5d3c2d;stroke:black;stroke-width:1;fill-opacity:1;stroke-opacity:0.3" />
<line x1="902" y1="72" x2="903" y2="74" stroke="black" stroke-width="1" />
<line x1="903" y1="74" x2="905" y2="72" stroke="black" stroke-width="1" />
<rect x="883" y="70" width="18" height="5" style="fill:#5d3c2d;stroke:black;stroke-width:1;fill-opacity:1;stroke-opacity:0.3" />
<rect x="905" y="70" width="18" height="5" style="fill:#5d3c2d;stroke:black;stroke-width:1;fill-opacity:1;stroke-opacity:0.3" />
<line x1="915" y1="79" x2="916" y2="81" stroke="black" stroke-width="1" />
<line x1="916" y1="81" x2="918" y2="79" stroke="black" stroke-width="1" />
<rect x="896" y="77" width="18" height="5" style="fill:#5d3c2d;stroke:black;stroke-width:1;fill-opacity:1;stroke-opacity:0.3" />
<rect x="918" y="77" width="18" height="5" style="fill:#5d3c2d;stroke:black;stroke-width:1;fill-opacity:1;stroke-opacity:0.3" />
<line x1="948" y1="30" x2="955" y2="32" stroke="black" stroke-width="1" />
<line x1="955" y1="32" x2="962" y2="30" stroke="black" stroke-width="1" />
<rect x="930" y="28" width="18" height="5" style="fill:#5d3c2d;stroke:black;stroke-width:1;fill-opacity:1;stroke-opacity:0.3" />
<rect x="962" y="28" width="18" height="5" style="fill:#5d3c2d;stroke:black;stroke-width:1;fill-opacity:1;stroke-opacity:0.3" />
<text x="15"  y="176" style="font-family:Arial;font-size:10;stroke:black;fill:black;">all.merged.bam</text>
</svg>
    
