<?xml version="1.0" encoding="utf-8" standalone="no"?>
<!DOCTYPE svg PUBLIC "-//W3C//DTD SVG 1.1//EN"
  "http://www.w3.org/Graphics/SVG/1.1/DTD/svg11.dtd">
<svg height="1140" width="1000" version="1.1" viewBox="0 0 1000 1140" xmlns="http://www.w3.org/2000/svg" xmlns:xlink="http://www.w3.org/1999/xlink">
<line x1="43" y1="11" x2="956" y2="11" stroke="black" stroke-width="1" />
<rect x="43" y="9" width="115" height="5" style="fill:#f50002;stroke:black;stroke-width:1;fill-opacity:1;stroke-opacity:0.3" />
<rect x="158" y="9" width="3" height="5" style="fill:#53a1b5;stroke:black;stroke-width:1;fill-opacity:1;stroke-opacity:0.3" />
<rect x="256" y="9" width="49" height="5" style="fill:#53a1b5;stroke:black;stroke-width:1;fill-opacity:1;stroke-opacity:0.3" />
<rect x="429" y="9" width="28" height="5" style="fill:#53a1b5;stroke:black;stroke-width:1;fill-opacity:1;stroke-opacity:0.3" />
<rect x="458" y="9" width="52" height="5" style="fill:#f50002;stroke:black;stroke-width:1;fill-opacity:1;stroke-opacity:0.3" />
<rect x="675" y="9" width="281" height="5" style="fill:#f50002;stroke:black;stroke-width:1;fill-opacity:1;stroke-opacity:0.3" />
<text x="43"  y="23" style="font-family:Arial;font-size:10;stroke:black;fill:black;">Cre02.g143067.t2.1.v5.5 (+) chromosome_2:9019076-9021197</text>
<line x1="74" y1="30" x2="79" y2="32" stroke="black" stroke-width="1" />
<line x1="79" y1="32" x2="84" y2="30" stroke="black" stroke-width="1" />
<rect x="31" y="28" width="43" height="5" style="fill:#5d3c2d;stroke:black;stroke-width:1;fill-opacity:1;stroke-opacity:0.3" />
<rect x="84" y="28" width="43" height="5" style="fill:#5d3c2d;stroke:black;stroke-width:1;fill-opacity:1;stroke-opacity:0.3" />
<line x1="101" y1="37" x2="109" y2="39" stroke="black" stroke-width="1" />
<line x1="109" y1="39" x2="118" y2="37" stroke="black" stroke-width="1" />
<rect x="36" y="35" width="64" height="5" style="fill:#5d3c2d;stroke:black;stroke-width:1;fill-opacity:1;stroke-opacity:0.3" />
<rect x="118" y="35" width="64" height="5" style="fill:#5d3c2d;stroke:black;stroke-width:1;fill-opacity:1;stroke-opacity:0.3" />
<line x1="79" y1="44" x2="97" y2="46" stroke="black" stroke-width="1" />
<line x1="97" y1="46" x2="115" y2="44" stroke="black" stroke-width="1" />
<rect x="36" y="42" width="43" height="5" style="fill:#5d3c2d;stroke:black;stroke-width:1;fill-opacity:1;stroke-opacity:0.3" />
<rect x="115" y="42" width="43" height="5" style="fill:#5d3c2d;stroke:black;stroke-width:1;fill-opacity:1;stroke-opacity:0.3" />
<line x1="101" y1="51" x2="109" y2="53" stroke="black" stroke-width="1" />
<line x1="109" y1="53" x2="118" y2="51" stroke="black" stroke-width="1" />
<rect x="36" y="49" width="64" height="5" style="fill:#5d3c2d;stroke:black;stroke-width:1;fill-opacity:1;stroke-opacity:0.3" />
<rect x="118" y="49" width="64" height="5" style="fill:#5d3c2d;stroke:black;stroke-width:1;fill-opacity:1;stroke-opacity:0.3" />
<line x1="80" y1="58" x2="95" y2="60" stroke="black" stroke-width="1" />
<line x1="95" y1="60" x2="110" y2="58" stroke="black" stroke-width="1" />
<rect x="37" y="56" width="43" height="5" style="fill:#5d3c2d;stroke:black;stroke-width:1;fill-opacity:1;stroke-opacity:0.3" />
<rect x="110" y="56" width="43" height="5" style="fill:#5d3c2d;stroke:black;stroke-width:1;fill-opacity:1;stroke-opacity:0.3" />
<line x1="83" y1="65" x2="96" y2="67" stroke="black" stroke-width="1" />
<line x1="96" y1="67" x2="109" y2="65" stroke="black" stroke-width="1" />
<rect x="40" y="63" width="43" height="5" style="fill:#5d3c2d;stroke:black;stroke-width:1;fill-opacity:1;stroke-opacity:0.3" />
<rect x="109" y="63" width="42" height="5" style="fill:#5d3c2d;stroke:black;stroke-width:1;fill-opacity:1;stroke-opacity:0.3" />
<line x1="85" y1="72" x2="97" y2="74" stroke="black" stroke-width="1" />
<line x1="97" y1="74" x2="109" y2="72" stroke="black" stroke-width="1" />
<rect x="42" y="70" width="43" height="5" style="fill:#5d3c2d;stroke:black;stroke-width:1;fill-opacity:1;stroke-opacity:0.3" />
<rect x="109" y="70" width="43" height="5" style="fill:#5d3c2d;stroke:black;stroke-width:1;fill-opacity:1;stroke-opacity:0.3" />
<line x1="85" y1="79" x2="97" y2="81" stroke="black" stroke-width="1" />
<line x1="97" y1="81" x2="109" y2="79" stroke="black" stroke-width="1" />
<rect x="42" y="77" width="43" height="5" style="fill:#5d3c2d;stroke:black;stroke-width:1;fill-opacity:1;stroke-opacity:0.3" />
<rect x="109" y="77" width="43" height="5" style="fill:#5d3c2d;stroke:black;stroke-width:1;fill-opacity:1;stroke-opacity:0.3" />
<line x1="86" y1="86" x2="94" y2="88" stroke="black" stroke-width="1" />
<line x1="94" y1="88" x2="102" y2="86" stroke="black" stroke-width="1" />
<rect x="43" y="84" width="43" height="5" style="fill:#5d3c2d;stroke:black;stroke-width:1;fill-opacity:1;stroke-opacity:0.3" />
<rect x="102" y="84" width="43" height="5" style="fill:#5d3c2d;stroke:black;stroke-width:1;fill-opacity:1;stroke-opacity:0.3" />
<line x1="88" y1="93" x2="98" y2="95" stroke="black" stroke-width="1" />
<line x1="98" y1="95" x2="109" y2="93" stroke="black" stroke-width="1" />
<rect x="45" y="91" width="43" height="5" style="fill:#5d3c2d;stroke:black;stroke-width:1;fill-opacity:1;stroke-opacity:0.3" />
<rect x="109" y="91" width="43" height="5" style="fill:#5d3c2d;stroke:black;stroke-width:1;fill-opacity:1;stroke-opacity:0.3" />
<line x1="88" y1="100" x2="96" y2="102" stroke="black" stroke-width="1" />
<line x1="96" y1="102" x2="104" y2="100" stroke="black" stroke-width="1" />
<rect x="45" y="98" width="43" height="5" style="fill:#5d3c2d;stroke:black;stroke-width:1;fill-opacity:1;stroke-opacity:0.3" />
<rect x="104" y="98" width="43" height="5" style="fill:#5d3c2d;stroke:black;stroke-width:1;fill-opacity:1;stroke-opacity:0.3" />
<line x1="110" y1="107" x2="114" y2="109" stroke="black" stroke-width="1" />
<line x1="114" y1="109" x2="119" y2="107" stroke="black" stroke-width="1" />
<rect x="45" y="105" width="64" height="5" style="fill:#5d3c2d;stroke:black;stroke-width:1;fill-opacity:1;stroke-opacity:0.3" />
<rect x="119" y="105" width="64" height="5" style="fill:#5d3c2d;stroke:black;stroke-width:1;fill-opacity:1;stroke-opacity:0.3" />
<line x1="88" y1="114" x2="91" y2="116" stroke="black" stroke-width="1" />
<line x1="91" y1="116" x2="94" y2="114" stroke="black" stroke-width="1" />
<rect x="45" y="112" width="43" height="5" style="fill:#5d3c2d;stroke:black;stroke-width:1;fill-opacity:1;stroke-opacity:0.3" />
<rect x="94" y="112" width="43" height="5" style="fill:#5d3c2d;stroke:black;stroke-width:1;fill-opacity:1;stroke-opacity:0.3" />
<line x1="88" y1="121" x2="98" y2="123" stroke="black" stroke-width="1" />
<line x1="98" y1="123" x2="109" y2="121" stroke="black" stroke-width="1" />
<rect x="45" y="119" width="43" height="5" style="fill:#5d3c2d;stroke:black;stroke-width:1;fill-opacity:1;stroke-opacity:0.3" />
<rect x="109" y="119" width="43" height="5" style="fill:#5d3c2d;stroke:black;stroke-width:1;fill-opacity:1;stroke-opacity:0.3" />
<line x1="89" y1="128" x2="94" y2="130" stroke="black" stroke-width="1" />
<line x1="94" y1="130" x2="100" y2="128" stroke="black" stroke-width="1" />
<rect x="46" y="126" width="43" height="5" style="fill:#5d3c2d;stroke:black;stroke-width:1;fill-opacity:1;stroke-opacity:0.3" />
<rect x="100" y="126" width="42" height="5" style="fill:#5d3c2d;stroke:black;stroke-width:1;fill-opacity:1;stroke-opacity:0.3" />
<line x1="90" y1="135" x2="102" y2="137" stroke="black" stroke-width="1" />
<line x1="102" y1="137" x2="115" y2="135" stroke="black" stroke-width="1" />
<rect x="46" y="133" width="43" height="5" style="fill:#5d3c2d;stroke:black;stroke-width:1;fill-opacity:1;stroke-opacity:0.3" />
<rect x="115" y="133" width="43" height="5" style="fill:#5d3c2d;stroke:black;stroke-width:1;fill-opacity:1;stroke-opacity:0.3" />
<line x1="81" y1="142" x2="96" y2="144" stroke="black" stroke-width="1" />
<line x1="96" y1="144" x2="112" y2="142" stroke="black" stroke-width="1" />
<rect x="46" y="140" width="34" height="5" style="fill:#5d3c2d;stroke:black;stroke-width:1;fill-opacity:1;stroke-opacity:0.3" />
<rect x="112" y="140" width="43" height="5" style="fill:#5d3c2d;stroke:black;stroke-width:1;fill-opacity:1;stroke-opacity:0.3" />
<line x1="90" y1="149" x2="102" y2="151" stroke="black" stroke-width="1" />
<line x1="102" y1="151" x2="115" y2="149" stroke="black" stroke-width="1" />
<rect x="47" y="147" width="43" height="5" style="fill:#5d3c2d;stroke:black;stroke-width:1;fill-opacity:1;stroke-opacity:0.3" />
<rect x="115" y="147" width="43" height="5" style="fill:#5d3c2d;stroke:black;stroke-width:1;fill-opacity:1;stroke-opacity:0.3" />
<line x1="90" y1="156" x2="99" y2="158" stroke="black" stroke-width="1" />
<line x1="99" y1="158" x2="109" y2="156" stroke="black" stroke-width="1" />
<rect x="47" y="154" width="43" height="5" style="fill:#5d3c2d;stroke:black;stroke-width:1;fill-opacity:1;stroke-opacity:0.3" />
<rect x="109" y="154" width="43" height="5" style="fill:#5d3c2d;stroke:black;stroke-width:1;fill-opacity:1;stroke-opacity:0.3" />
<line x1="90" y1="163" x2="97" y2="165" stroke="black" stroke-width="1" />
<line x1="97" y1="165" x2="104" y2="163" stroke="black" stroke-width="1" />
<rect x="47" y="161" width="43" height="5" style="fill:#5d3c2d;stroke:black;stroke-width:1;fill-opacity:1;stroke-opacity:0.3" />
<rect x="104" y="161" width="43" height="5" style="fill:#5d3c2d;stroke:black;stroke-width:1;fill-opacity:1;stroke-opacity:0.3" />
<line x1="254" y1="30" x2="263" y2="32" stroke="black" stroke-width="1" />
<line x1="263" y1="32" x2="273" y2="30" stroke="black" stroke-width="1" />
<rect x="127" y="28" width="34" height="5" style="fill:#5d3c2d;stroke:black;stroke-width:1;fill-opacity:1;stroke-opacity:0.3" />
<line x1="162" y1="30" x2="246" y2="30" stroke="pink" stroke-width="1" />
<rect x="246" y="28" width="8" height="5" style="fill:#5d3c2d;stroke:black;stroke-width:1;fill-opacity:1;stroke-opacity:0.3" />
<rect x="273" y="28" width="33" height="5" style="fill:#5d3c2d;stroke:black;stroke-width:1;fill-opacity:1;stroke-opacity:0.3" />
<line x1="307" y1="30" x2="429" y2="30" stroke="pink" stroke-width="1" />
<rect x="429" y="28" width="9" height="5" style="fill:#5d3c2d;stroke:black;stroke-width:1;fill-opacity:1;stroke-opacity:0.3" />
<line x1="276" y1="114" x2="282" y2="116" stroke="black" stroke-width="1" />
<line x1="282" y1="116" x2="288" y2="114" stroke="black" stroke-width="1" />
<rect x="139" y="112" width="23" height="5" style="fill:#5d3c2d;stroke:black;stroke-width:1;fill-opacity:1;stroke-opacity:0.3" />
<line x1="162" y1="114" x2="256" y2="114" stroke="pink" stroke-width="1" />
<rect x="256" y="112" width="19" height="5" style="fill:#5d3c2d;stroke:black;stroke-width:1;fill-opacity:1;stroke-opacity:0.3" />
<rect x="288" y="112" width="7" height="5" style="fill:#5d3c2d;stroke:black;stroke-width:1;fill-opacity:1;stroke-opacity:0.3" />
<line x1="296" y1="114" x2="429" y2="114" stroke="pink" stroke-width="1" />
<rect x="429" y="112" width="35" height="5" style="fill:#5d3c2d;stroke:black;stroke-width:1;fill-opacity:1;stroke-opacity:0.3" />
<line x1="280" y1="128" x2="285" y2="130" stroke="black" stroke-width="1" />
<line x1="285" y1="130" x2="290" y2="128" stroke="black" stroke-width="1" />
<rect x="142" y="126" width="19" height="5" style="fill:#5d3c2d;stroke:black;stroke-width:1;fill-opacity:1;stroke-opacity:0.3" />
<line x1="162" y1="128" x2="256" y2="128" stroke="pink" stroke-width="1" />
<rect x="256" y="126" width="23" height="5" style="fill:#5d3c2d;stroke:black;stroke-width:1;fill-opacity:1;stroke-opacity:0.3" />
<rect x="290" y="126" width="16" height="5" style="fill:#5d3c2d;stroke:black;stroke-width:1;fill-opacity:1;stroke-opacity:0.3" />
<line x1="307" y1="128" x2="429" y2="128" stroke="pink" stroke-width="1" />
<rect x="429" y="126" width="26" height="5" style="fill:#5d3c2d;stroke:black;stroke-width:1;fill-opacity:1;stroke-opacity:0.3" />
<line x1="283" y1="86" x2="357" y2="88" stroke="black" stroke-width="1" />
<line x1="357" y1="88" x2="431" y2="86" stroke="black" stroke-width="1" />
<rect x="145" y="84" width="16" height="5" style="fill:#5d3c2d;stroke:black;stroke-width:1;fill-opacity:1;stroke-opacity:0.3" />
<line x1="162" y1="86" x2="256" y2="86" stroke="pink" stroke-width="1" />
<rect x="256" y="84" width="26" height="5" style="fill:#5d3c2d;stroke:black;stroke-width:1;fill-opacity:1;stroke-opacity:0.3" />
<rect x="431" y="84" width="43" height="5" style="fill:#5d3c2d;stroke:black;stroke-width:1;fill-opacity:1;stroke-opacity:0.3" />
<line x1="284" y1="163" x2="363" y2="165" stroke="black" stroke-width="1" />
<line x1="363" y1="165" x2="442" y2="163" stroke="black" stroke-width="1" />
<rect x="147" y="161" width="15" height="5" style="fill:#5d3c2d;stroke:black;stroke-width:1;fill-opacity:1;stroke-opacity:0.3" />
<line x1="162" y1="163" x2="256" y2="163" stroke="pink" stroke-width="1" />
<rect x="256" y="161" width="27" height="5" style="fill:#5d3c2d;stroke:black;stroke-width:1;fill-opacity:1;stroke-opacity:0.3" />
<rect x="442" y="161" width="43" height="5" style="fill:#5d3c2d;stroke:black;stroke-width:1;fill-opacity:1;stroke-opacity:0.3" />
<line x1="285" y1="100" x2="360" y2="102" stroke="black" stroke-width="1" />
<line x1="360" y1="102" x2="436" y2="100" stroke="black" stroke-width="1" />
<rect x="147" y="98" width="14" height="5" style="fill:#5d3c2d;stroke:black;stroke-width:1;fill-opacity:1;stroke-opacity:0.3" />
<line x1="162" y1="100" x2="256" y2="100" stroke="pink" stroke-width="1" />
<rect x="256" y="98" width="28" height="5" style="fill:#5d3c2d;stroke:black;stroke-width:1;fill-opacity:1;stroke-opacity:0.3" />
<rect x="436" y="98" width="43" height="5" style="fill:#5d3c2d;stroke:black;stroke-width:1;fill-opacity:1;stroke-opacity:0.3" />
<line x1="289" y1="65" x2="363" y2="67" stroke="black" stroke-width="1" />
<line x1="363" y1="67" x2="437" y2="65" stroke="black" stroke-width="1" />
<rect x="152" y="63" width="10" height="5" style="fill:#f5b024;stroke:black;stroke-width:1;fill-opacity:1;stroke-opacity:0.3" />
<line x1="162" y1="65" x2="256" y2="65" stroke="pink" stroke-width="1" />
<rect x="256" y="63" width="32" height="5" style="fill:#f5b024;stroke:black;stroke-width:1;fill-opacity:1;stroke-opacity:0.3" />
<rect x="437" y="63" width="43" height="5" style="fill:#f5b024;stroke:black;stroke-width:1;fill-opacity:1;stroke-opacity:0.3" />
<line x1="290" y1="72" x2="366" y2="74" stroke="black" stroke-width="1" />
<line x1="366" y1="74" x2="442" y2="72" stroke="black" stroke-width="1" />
<rect x="152" y="70" width="9" height="5" style="fill:#5d3c2d;stroke:black;stroke-width:1;fill-opacity:1;stroke-opacity:0.3" />
<line x1="162" y1="72" x2="256" y2="72" stroke="pink" stroke-width="1" />
<rect x="256" y="70" width="33" height="5" style="fill:#5d3c2d;stroke:black;stroke-width:1;fill-opacity:1;stroke-opacity:0.3" />
<rect x="442" y="70" width="43" height="5" style="fill:#5d3c2d;stroke:black;stroke-width:1;fill-opacity:1;stroke-opacity:0.3" />
<line x1="290" y1="79" x2="361" y2="81" stroke="black" stroke-width="1" />
<line x1="361" y1="81" x2="432" y2="79" stroke="black" stroke-width="1" />
<rect x="152" y="77" width="9" height="5" style="fill:#5d3c2d;stroke:black;stroke-width:1;fill-opacity:1;stroke-opacity:0.3" />
<line x1="162" y1="79" x2="256" y2="79" stroke="pink" stroke-width="1" />
<rect x="256" y="77" width="33" height="5" style="fill:#5d3c2d;stroke:black;stroke-width:1;fill-opacity:1;stroke-opacity:0.3" />
<rect x="432" y="77" width="42" height="5" style="fill:#5d3c2d;stroke:black;stroke-width:1;fill-opacity:1;stroke-opacity:0.3" />
<line x1="291" y1="58" x2="362" y2="60" stroke="black" stroke-width="1" />
<line x1="362" y1="60" x2="433" y2="58" stroke="black" stroke-width="1" />
<rect x="154" y="56" width="8" height="5" style="fill:#5d3c2d;stroke:black;stroke-width:1;fill-opacity:1;stroke-opacity:0.3" />
<line x1="162" y1="58" x2="256" y2="58" stroke="pink" stroke-width="1" />
<rect x="256" y="56" width="34" height="5" style="fill:#5d3c2d;stroke:black;stroke-width:1;fill-opacity:1;stroke-opacity:0.3" />
<rect x="433" y="56" width="42" height="5" style="fill:#5d3c2d;stroke:black;stroke-width:1;fill-opacity:1;stroke-opacity:0.3" />
<line x1="291" y1="93" x2="374" y2="95" stroke="black" stroke-width="1" />
<line x1="374" y1="95" x2="458" y2="93" stroke="black" stroke-width="1" />
<rect x="154" y="91" width="7" height="5" style="fill:#5d3c2d;stroke:black;stroke-width:1;fill-opacity:1;stroke-opacity:0.3" />
<line x1="162" y1="93" x2="256" y2="93" stroke="pink" stroke-width="1" />
<rect x="256" y="91" width="35" height="5" style="fill:#5d3c2d;stroke:black;stroke-width:1;fill-opacity:1;stroke-opacity:0.3" />
<rect x="458" y="91" width="43" height="5" style="fill:#5d3c2d;stroke:black;stroke-width:1;fill-opacity:1;stroke-opacity:0.3" />
<line x1="293" y1="121" x2="363" y2="123" stroke="black" stroke-width="1" />
<line x1="363" y1="123" x2="434" y2="121" stroke="black" stroke-width="1" />
<rect x="155" y="119" width="6" height="5" style="fill:#5d3c2d;stroke:black;stroke-width:1;fill-opacity:1;stroke-opacity:0.3" />
<line x1="162" y1="121" x2="256" y2="121" stroke="pink" stroke-width="1" />
<rect x="256" y="119" width="36" height="5" style="fill:#5d3c2d;stroke:black;stroke-width:1;fill-opacity:1;stroke-opacity:0.3" />
<rect x="434" y="119" width="43" height="5" style="fill:#5d3c2d;stroke:black;stroke-width:1;fill-opacity:1;stroke-opacity:0.3" />
<line x1="293" y1="142" x2="363" y2="144" stroke="black" stroke-width="1" />
<line x1="363" y1="144" x2="433" y2="142" stroke="black" stroke-width="1" />
<rect x="156" y="140" width="6" height="5" style="fill:#5d3c2d;stroke:black;stroke-width:1;fill-opacity:1;stroke-opacity:0.3" />
<line x1="162" y1="142" x2="256" y2="142" stroke="pink" stroke-width="1" />
<rect x="256" y="140" width="37" height="5" style="fill:#5d3c2d;stroke:black;stroke-width:1;fill-opacity:1;stroke-opacity:0.3" />
<rect x="433" y="140" width="43" height="5" style="fill:#5d3c2d;stroke:black;stroke-width:1;fill-opacity:1;stroke-opacity:0.3" />
<line x1="293" y1="156" x2="365" y2="158" stroke="black" stroke-width="1" />
<line x1="365" y1="158" x2="437" y2="156" stroke="black" stroke-width="1" />
<rect x="156" y="154" width="6" height="5" style="fill:#5d3c2d;stroke:black;stroke-width:1;fill-opacity:1;stroke-opacity:0.3" />
<line x1="162" y1="156" x2="256" y2="156" stroke="pink" stroke-width="1" />
<rect x="256" y="154" width="37" height="5" style="fill:#5d3c2d;stroke:black;stroke-width:1;fill-opacity:1;stroke-opacity:0.3" />
<rect x="437" y="154" width="43" height="5" style="fill:#5d3c2d;stroke:black;stroke-width:1;fill-opacity:1;stroke-opacity:0.3" />
<line x1="295" y1="44" x2="364" y2="46" stroke="black" stroke-width="1" />
<line x1="364" y1="46" x2="434" y2="44" stroke="black" stroke-width="1" />
<rect x="158" y="42" width="3" height="5" style="fill:#5d3c2d;stroke:black;stroke-width:1;fill-opacity:1;stroke-opacity:0.3" />
<line x1="162" y1="44" x2="256" y2="44" stroke="pink" stroke-width="1" />
<rect x="256" y="42" width="39" height="5" style="fill:#5d3c2d;stroke:black;stroke-width:1;fill-opacity:1;stroke-opacity:0.3" />
<rect x="434" y="42" width="43" height="5" style="fill:#5d3c2d;stroke:black;stroke-width:1;fill-opacity:1;stroke-opacity:0.3" />
<line x1="295" y1="135" x2="366" y2="137" stroke="black" stroke-width="1" />
<line x1="366" y1="137" x2="437" y2="135" stroke="black" stroke-width="1" />
<rect x="158" y="133" width="3" height="5" style="fill:#5d3c2d;stroke:black;stroke-width:1;fill-opacity:1;stroke-opacity:0.3" />
<line x1="162" y1="135" x2="256" y2="135" stroke="pink" stroke-width="1" />
<rect x="256" y="133" width="39" height="5" style="fill:#5d3c2d;stroke:black;stroke-width:1;fill-opacity:1;stroke-opacity:0.3" />
<rect x="437" y="133" width="43" height="5" style="fill:#5d3c2d;stroke:black;stroke-width:1;fill-opacity:1;stroke-opacity:0.3" />
<line x1="295" y1="149" x2="367" y2="151" stroke="black" stroke-width="1" />
<line x1="367" y1="151" x2="439" y2="149" stroke="black" stroke-width="1" />
<rect x="158" y="147" width="3" height="5" style="fill:#5d3c2d;stroke:black;stroke-width:1;fill-opacity:1;stroke-opacity:0.3" />
<line x1="162" y1="149" x2="256" y2="149" stroke="pink" stroke-width="1" />
<rect x="256" y="147" width="39" height="5" style="fill:#5d3c2d;stroke:black;stroke-width:1;fill-opacity:1;stroke-opacity:0.3" />
<rect x="439" y="147" width="42" height="5" style="fill:#5d3c2d;stroke:black;stroke-width:1;fill-opacity:1;stroke-opacity:0.3" />
<line x1="248" y1="37" x2="270" y2="39" stroke="black" stroke-width="1" />
<line x1="270" y1="39" x2="292" y2="37" stroke="black" stroke-width="1" />
<rect x="205" y="35" width="43" height="5" style="fill:#5d3c2d;stroke:black;stroke-width:1;fill-opacity:1;stroke-opacity:0.3" />
<rect x="292" y="35" width="3" height="5" style="fill:#5d3c2d;stroke:black;stroke-width:1;fill-opacity:1;stroke-opacity:0.3" />
<line x1="296" y1="37" x2="429" y2="37" stroke="pink" stroke-width="1" />
<rect x="429" y="35" width="39" height="5" style="fill:#5d3c2d;stroke:black;stroke-width:1;fill-opacity:1;stroke-opacity:0.3" />
<line x1="260" y1="51" x2="348" y2="53" stroke="black" stroke-width="1" />
<line x1="348" y1="53" x2="436" y2="51" stroke="black" stroke-width="1" />
<rect x="217" y="49" width="43" height="5" style="fill:#5d3c2d;stroke:black;stroke-width:1;fill-opacity:1;stroke-opacity:0.3" />
<rect x="436" y="49" width="43" height="5" style="fill:#5d3c2d;stroke:black;stroke-width:1;fill-opacity:1;stroke-opacity:0.3" />
<line x1="297" y1="107" x2="367" y2="109" stroke="black" stroke-width="1" />
<line x1="367" y1="109" x2="437" y2="107" stroke="black" stroke-width="1" />
<rect x="256" y="105" width="40" height="5" style="fill:#5d3c2d;stroke:black;stroke-width:1;fill-opacity:1;stroke-opacity:0.3" />
<rect x="437" y="105" width="43" height="5" style="fill:#5d3c2d;stroke:black;stroke-width:1;fill-opacity:1;stroke-opacity:0.3" />
<line x1="482" y1="30" x2="489" y2="32" stroke="black" stroke-width="1" />
<line x1="489" y1="32" x2="497" y2="30" stroke="black" stroke-width="1" />
<rect x="439" y="28" width="43" height="5" style="fill:#5d3c2d;stroke:black;stroke-width:1;fill-opacity:1;stroke-opacity:0.3" />
<rect x="497" y="28" width="14" height="5" style="fill:#5d3c2d;stroke:black;stroke-width:1;fill-opacity:1;stroke-opacity:0.3" />
<line x1="511" y1="30" x2="843" y2="30" stroke="pink" stroke-width="1" />
<rect x="843" y="28" width="17" height="5" style="fill:#5d3c2d;stroke:black;stroke-width:1;fill-opacity:1;stroke-opacity:0.3" />
<line x1="860" y1="30" x2="944" y2="30" stroke="pink" stroke-width="1" />
<rect x="944" y="28" width="11" height="5" style="fill:#5d3c2d;stroke:black;stroke-width:1;fill-opacity:1;stroke-opacity:0.3" />
<line x1="499" y1="128" x2="671" y2="130" stroke="black" stroke-width="1" />
<line x1="671" y1="130" x2="844" y2="128" stroke="black" stroke-width="1" />
<rect x="456" y="126" width="43" height="5" style="fill:#5d3c2d;stroke:black;stroke-width:1;fill-opacity:1;stroke-opacity:0.3" />
<rect x="844" y="126" width="15" height="5" style="fill:#5d3c2d;stroke:black;stroke-width:1;fill-opacity:1;stroke-opacity:0.3" />
<line x1="860" y1="128" x2="944" y2="128" stroke="pink" stroke-width="1" />
<rect x="944" y="126" width="27" height="5" style="fill:#5d3c2d;stroke:black;stroke-width:1;fill-opacity:1;stroke-opacity:0.3" />
<line x1="508" y1="114" x2="677" y2="116" stroke="black" stroke-width="1" />
<line x1="677" y1="116" x2="847" y2="114" stroke="black" stroke-width="1" />
<rect x="465" y="112" width="43" height="5" style="fill:#5d3c2d;stroke:black;stroke-width:1;fill-opacity:1;stroke-opacity:0.3" />
<rect x="847" y="112" width="12" height="5" style="fill:#5d3c2d;stroke:black;stroke-width:1;fill-opacity:1;stroke-opacity:0.3" />
<line x1="860" y1="114" x2="944" y2="114" stroke="pink" stroke-width="1" />
<rect x="944" y="112" width="28" height="5" style="fill:#5d3c2d;stroke:black;stroke-width:1;fill-opacity:1;stroke-opacity:0.3" />
<line x1="973" y1="114" x2="1070" y2="114" stroke="pink" stroke-width="1" />
<rect x="1070" y="112" width="0" height="5" style="fill:#5d3c2d;stroke:black;stroke-width:1;fill-opacity:1;stroke-opacity:0.3" />
<line x1="676" y1="37" x2="815" y2="39" stroke="black" stroke-width="1" />
<line x1="815" y1="39" x2="954" y2="37" stroke="black" stroke-width="1" />
<rect x="469" y="35" width="42" height="5" style="fill:#5d3c2d;stroke:black;stroke-width:1;fill-opacity:1;stroke-opacity:0.3" />
<line x1="511" y1="37" x2="675" y2="37" stroke="pink" stroke-width="1" />
<rect x="675" y="35" width="0" height="5" style="fill:#5d3c2d;stroke:black;stroke-width:1;fill-opacity:1;stroke-opacity:0.3" />
<rect x="954" y="35" width="18" height="5" style="fill:#5d3c2d;stroke:black;stroke-width:1;fill-opacity:1;stroke-opacity:0.3" />
<line x1="973" y1="37" x2="1070" y2="37" stroke="pink" stroke-width="1" />
<rect x="1070" y="35" width="23" height="5" style="fill:#5d3c2d;stroke:black;stroke-width:1;fill-opacity:1;stroke-opacity:0.3" />
<line x1="1094" y1="37" x2="1154" y2="37" stroke="pink" stroke-width="1" />
<rect x="1154" y="35" width="0" height="5" style="fill:#5d3c2d;stroke:black;stroke-width:1;fill-opacity:1;stroke-opacity:0.3" />
<line x1="849" y1="79" x2="899" y2="81" stroke="black" stroke-width="1" />
<line x1="899" y1="81" x2="950" y2="79" stroke="black" stroke-width="1" />
<rect x="475" y="77" width="36" height="5" style="fill:#5d3c2d;stroke:black;stroke-width:1;fill-opacity:1;stroke-opacity:0.3" />
<line x1="511" y1="79" x2="843" y2="79" stroke="pink" stroke-width="1" />
<rect x="843" y="77" width="6" height="5" style="fill:#5d3c2d;stroke:black;stroke-width:1;fill-opacity:1;stroke-opacity:0.3" />
<rect x="950" y="77" width="23" height="5" style="fill:#5d3c2d;stroke:black;stroke-width:1;fill-opacity:1;stroke-opacity:0.3" />
<line x1="973" y1="79" x2="1070" y2="79" stroke="pink" stroke-width="1" />
<rect x="1070" y="77" width="19" height="5" style="fill:#5d3c2d;stroke:black;stroke-width:1;fill-opacity:1;stroke-opacity:0.3" />
<line x1="850" y1="58" x2="900" y2="60" stroke="black" stroke-width="1" />
<line x1="900" y1="60" x2="950" y2="58" stroke="black" stroke-width="1" />
<rect x="475" y="56" width="35" height="5" style="fill:#5d3c2d;stroke:black;stroke-width:1;fill-opacity:1;stroke-opacity:0.3" />
<line x1="511" y1="58" x2="843" y2="58" stroke="pink" stroke-width="1" />
<rect x="843" y="56" width="7" height="5" style="fill:#5d3c2d;stroke:black;stroke-width:1;fill-opacity:1;stroke-opacity:0.3" />
<rect x="950" y="56" width="23" height="5" style="fill:#5d3c2d;stroke:black;stroke-width:1;fill-opacity:1;stroke-opacity:0.3" />
<line x1="973" y1="58" x2="1070" y2="58" stroke="pink" stroke-width="1" />
<rect x="1070" y="56" width="19" height="5" style="fill:#5d3c2d;stroke:black;stroke-width:1;fill-opacity:1;stroke-opacity:0.3" />
<line x1="683" y1="86" x2="688" y2="88" stroke="black" stroke-width="1" />
<line x1="688" y1="88" x2="694" y2="86" stroke="black" stroke-width="1" />
<rect x="476" y="84" width="34" height="5" style="fill:#5d3c2d;stroke:black;stroke-width:1;fill-opacity:1;stroke-opacity:0.3" />
<line x1="511" y1="86" x2="675" y2="86" stroke="pink" stroke-width="1" />
<rect x="675" y="84" width="8" height="5" style="fill:#5d3c2d;stroke:black;stroke-width:1;fill-opacity:1;stroke-opacity:0.3" />
<rect x="694" y="84" width="11" height="5" style="fill:#5d3c2d;stroke:black;stroke-width:1;fill-opacity:1;stroke-opacity:0.3" />
<line x1="705" y1="86" x2="843" y2="86" stroke="pink" stroke-width="1" />
<rect x="843" y="84" width="17" height="5" style="fill:#5d3c2d;stroke:black;stroke-width:1;fill-opacity:1;stroke-opacity:0.3" />
<line x1="860" y1="86" x2="944" y2="86" stroke="pink" stroke-width="1" />
<rect x="944" y="84" width="14" height="5" style="fill:#5d3c2d;stroke:black;stroke-width:1;fill-opacity:1;stroke-opacity:0.3" />
<line x1="519" y1="142" x2="521" y2="144" stroke="black" stroke-width="1" />
<line x1="521" y1="144" x2="524" y2="142" stroke="black" stroke-width="1" />
<rect x="476" y="140" width="43" height="5" style="fill:#5d3c2d;stroke:black;stroke-width:1;fill-opacity:1;stroke-opacity:0.3" />
<rect x="524" y="140" width="42" height="5" style="fill:#5d3c2d;stroke:black;stroke-width:1;fill-opacity:1;stroke-opacity:0.3" />
<line x1="683" y1="121" x2="687" y2="123" stroke="black" stroke-width="1" />
<line x1="687" y1="123" x2="692" y2="121" stroke="black" stroke-width="1" />
<rect x="477" y="119" width="34" height="5" style="fill:#5d3c2d;stroke:black;stroke-width:1;fill-opacity:1;stroke-opacity:0.3" />
<line x1="511" y1="121" x2="675" y2="121" stroke="pink" stroke-width="1" />
<rect x="675" y="119" width="8" height="5" style="fill:#5d3c2d;stroke:black;stroke-width:1;fill-opacity:1;stroke-opacity:0.3" />
<rect x="692" y="119" width="13" height="5" style="fill:#5d3c2d;stroke:black;stroke-width:1;fill-opacity:1;stroke-opacity:0.3" />
<line x1="705" y1="121" x2="843" y2="121" stroke="pink" stroke-width="1" />
<rect x="843" y="119" width="17" height="5" style="fill:#5d3c2d;stroke:black;stroke-width:1;fill-opacity:1;stroke-opacity:0.3" />
<line x1="860" y1="121" x2="944" y2="121" stroke="pink" stroke-width="1" />
<rect x="944" y="119" width="12" height="5" style="fill:#5d3c2d;stroke:black;stroke-width:1;fill-opacity:1;stroke-opacity:0.3" />
<line x1="684" y1="44" x2="763" y2="46" stroke="black" stroke-width="1" />
<line x1="763" y1="46" x2="843" y2="44" stroke="black" stroke-width="1" />
<rect x="478" y="42" width="33" height="5" style="fill:#5d3c2d;stroke:black;stroke-width:1;fill-opacity:1;stroke-opacity:0.3" />
<line x1="511" y1="44" x2="675" y2="44" stroke="pink" stroke-width="1" />
<rect x="675" y="42" width="9" height="5" style="fill:#5d3c2d;stroke:black;stroke-width:1;fill-opacity:1;stroke-opacity:0.3" />
<rect x="843" y="42" width="16" height="5" style="fill:#5d3c2d;stroke:black;stroke-width:1;fill-opacity:1;stroke-opacity:0.3" />
<line x1="860" y1="44" x2="944" y2="44" stroke="pink" stroke-width="1" />
<rect x="944" y="42" width="26" height="5" style="fill:#5d3c2d;stroke:black;stroke-width:1;fill-opacity:1;stroke-opacity:0.3" />
<line x1="854" y1="51" x2="902" y2="53" stroke="black" stroke-width="1" />
<line x1="902" y1="53" x2="950" y2="51" stroke="black" stroke-width="1" />
<rect x="479" y="49" width="32" height="5" style="fill:#5d3c2d;stroke:black;stroke-width:1;fill-opacity:1;stroke-opacity:0.3" />
<line x1="511" y1="51" x2="843" y2="51" stroke="pink" stroke-width="1" />
<rect x="843" y="49" width="10" height="5" style="fill:#5d3c2d;stroke:black;stroke-width:1;fill-opacity:1;stroke-opacity:0.3" />
<rect x="950" y="49" width="23" height="5" style="fill:#5d3c2d;stroke:black;stroke-width:1;fill-opacity:1;stroke-opacity:0.3" />
<line x1="973" y1="51" x2="1070" y2="51" stroke="pink" stroke-width="1" />
<rect x="1070" y="49" width="19" height="5" style="fill:#5d3c2d;stroke:black;stroke-width:1;fill-opacity:1;stroke-opacity:0.3" />
<line x1="686" y1="100" x2="764" y2="102" stroke="black" stroke-width="1" />
<line x1="764" y1="102" x2="843" y2="100" stroke="black" stroke-width="1" />
<rect x="479" y="98" width="32" height="5" style="fill:#5d3c2d;stroke:black;stroke-width:1;fill-opacity:1;stroke-opacity:0.3" />
<line x1="511" y1="100" x2="675" y2="100" stroke="pink" stroke-width="1" />
<rect x="675" y="98" width="10" height="5" style="fill:#5d3c2d;stroke:black;stroke-width:1;fill-opacity:1;stroke-opacity:0.3" />
<rect x="843" y="98" width="16" height="5" style="fill:#5d3c2d;stroke:black;stroke-width:1;fill-opacity:1;stroke-opacity:0.3" />
<line x1="860" y1="100" x2="927" y2="100" stroke="pink" stroke-width="1" />
<rect x="927" y="98" width="26" height="5" style="fill:#5d3c2d;stroke:black;stroke-width:1;fill-opacity:1;stroke-opacity:0.3" />
<line x1="687" y1="65" x2="767" y2="67" stroke="black" stroke-width="1" />
<line x1="767" y1="67" x2="847" y2="65" stroke="black" stroke-width="1" />
<rect x="481" y="63" width="30" height="5" style="fill:#5d3c2d;stroke:black;stroke-width:1;fill-opacity:1;stroke-opacity:0.3" />
<line x1="511" y1="65" x2="675" y2="65" stroke="pink" stroke-width="1" />
<rect x="675" y="63" width="12" height="5" style="fill:#5d3c2d;stroke:black;stroke-width:1;fill-opacity:1;stroke-opacity:0.3" />
<rect x="847" y="63" width="13" height="5" style="fill:#5d3c2d;stroke:black;stroke-width:1;fill-opacity:1;stroke-opacity:0.3" />
<line x1="860" y1="65" x2="944" y2="65" stroke="pink" stroke-width="1" />
<rect x="944" y="63" width="28" height="5" style="fill:#5d3c2d;stroke:black;stroke-width:1;fill-opacity:1;stroke-opacity:0.3" />
<line x1="973" y1="65" x2="1070" y2="65" stroke="pink" stroke-width="1" />
<rect x="1070" y="63" width="0" height="5" style="fill:#5d3c2d;stroke:black;stroke-width:1;fill-opacity:1;stroke-opacity:0.3" />
<line x1="689" y1="107" x2="767" y2="109" stroke="black" stroke-width="1" />
<line x1="767" y1="109" x2="845" y2="107" stroke="black" stroke-width="1" />
<rect x="482" y="105" width="29" height="5" style="fill:#5d3c2d;stroke:black;stroke-width:1;fill-opacity:1;stroke-opacity:0.3" />
<line x1="511" y1="107" x2="675" y2="107" stroke="pink" stroke-width="1" />
<rect x="675" y="105" width="13" height="5" style="fill:#5d3c2d;stroke:black;stroke-width:1;fill-opacity:1;stroke-opacity:0.3" />
<rect x="845" y="105" width="15" height="5" style="fill:#5d3c2d;stroke:black;stroke-width:1;fill-opacity:1;stroke-opacity:0.3" />
<line x1="860" y1="107" x2="944" y2="107" stroke="pink" stroke-width="1" />
<rect x="944" y="105" width="27" height="5" style="fill:#5d3c2d;stroke:black;stroke-width:1;fill-opacity:1;stroke-opacity:0.3" />
<line x1="689" y1="135" x2="767" y2="137" stroke="black" stroke-width="1" />
<line x1="767" y1="137" x2="845" y2="135" stroke="black" stroke-width="1" />
<rect x="482" y="133" width="29" height="5" style="fill:#5d3c2d;stroke:black;stroke-width:1;fill-opacity:1;stroke-opacity:0.3" />
<line x1="511" y1="135" x2="675" y2="135" stroke="pink" stroke-width="1" />
<rect x="675" y="133" width="13" height="5" style="fill:#5d3c2d;stroke:black;stroke-width:1;fill-opacity:1;stroke-opacity:0.3" />
<rect x="845" y="133" width="15" height="5" style="fill:#5d3c2d;stroke:black;stroke-width:1;fill-opacity:1;stroke-opacity:0.3" />
<line x1="860" y1="135" x2="944" y2="135" stroke="pink" stroke-width="1" />
<rect x="944" y="133" width="27" height="5" style="fill:#5d3c2d;stroke:black;stroke-width:1;fill-opacity:1;stroke-opacity:0.3" />
<line x1="689" y1="149" x2="692" y2="151" stroke="black" stroke-width="1" />
<line x1="692" y1="151" x2="695" y2="149" stroke="black" stroke-width="1" />
<rect x="482" y="147" width="29" height="5" style="fill:#5d3c2d;stroke:black;stroke-width:1;fill-opacity:1;stroke-opacity:0.3" />
<line x1="511" y1="149" x2="675" y2="149" stroke="pink" stroke-width="1" />
<rect x="675" y="147" width="13" height="5" style="fill:#5d3c2d;stroke:black;stroke-width:1;fill-opacity:1;stroke-opacity:0.3" />
<rect x="695" y="147" width="10" height="5" style="fill:#5d3c2d;stroke:black;stroke-width:1;fill-opacity:1;stroke-opacity:0.3" />
<line x1="705" y1="149" x2="843" y2="149" stroke="pink" stroke-width="1" />
<rect x="843" y="147" width="17" height="5" style="fill:#5d3c2d;stroke:black;stroke-width:1;fill-opacity:1;stroke-opacity:0.3" />
<line x1="860" y1="149" x2="944" y2="149" stroke="pink" stroke-width="1" />
<rect x="944" y="147" width="13" height="5" style="fill:#5d3c2d;stroke:black;stroke-width:1;fill-opacity:1;stroke-opacity:0.3" />
<line x1="858" y1="156" x2="904" y2="158" stroke="black" stroke-width="1" />
<line x1="904" y1="158" x2="950" y2="156" stroke="black" stroke-width="1" />
<rect x="484" y="154" width="27" height="5" style="fill:#5d3c2d;stroke:black;stroke-width:1;fill-opacity:1;stroke-opacity:0.3" />
<line x1="511" y1="156" x2="843" y2="156" stroke="pink" stroke-width="1" />
<rect x="843" y="154" width="15" height="5" style="fill:#5d3c2d;stroke:black;stroke-width:1;fill-opacity:1;stroke-opacity:0.3" />
<rect x="950" y="154" width="23" height="5" style="fill:#5d3c2d;stroke:black;stroke-width:1;fill-opacity:1;stroke-opacity:0.3" />
<line x1="973" y1="156" x2="1070" y2="156" stroke="pink" stroke-width="1" />
<rect x="1070" y="154" width="19" height="5" style="fill:#5d3c2d;stroke:black;stroke-width:1;fill-opacity:1;stroke-opacity:0.3" />
<line x1="945" y1="72" x2="947" y2="74" stroke="black" stroke-width="1" />
<line x1="947" y1="74" x2="950" y2="72" stroke="black" stroke-width="1" />
<rect x="486" y="70" width="24" height="5" style="fill:#5d3c2d;stroke:black;stroke-width:1;fill-opacity:1;stroke-opacity:0.3" />
<line x1="511" y1="72" x2="843" y2="72" stroke="pink" stroke-width="1" />
<rect x="843" y="70" width="17" height="5" style="fill:#5d3c2d;stroke:black;stroke-width:1;fill-opacity:1;stroke-opacity:0.3" />
<line x1="860" y1="72" x2="944" y2="72" stroke="pink" stroke-width="1" />
<rect x="944" y="70" width="0" height="5" style="fill:#5d3c2d;stroke:black;stroke-width:1;fill-opacity:1;stroke-opacity:0.3" />
<rect x="950" y="70" width="23" height="5" style="fill:#5d3c2d;stroke:black;stroke-width:1;fill-opacity:1;stroke-opacity:0.3" />
<line x1="973" y1="72" x2="1070" y2="72" stroke="pink" stroke-width="1" />
<rect x="1070" y="70" width="19" height="5" style="fill:#5d3c2d;stroke:black;stroke-width:1;fill-opacity:1;stroke-opacity:0.3" />
<line x1="946" y1="163" x2="950" y2="165" stroke="black" stroke-width="1" />
<line x1="950" y1="165" x2="954" y2="163" stroke="black" stroke-width="1" />
<rect x="487" y="161" width="24" height="5" style="fill:#5d3c2d;stroke:black;stroke-width:1;fill-opacity:1;stroke-opacity:0.3" />
<line x1="511" y1="163" x2="843" y2="163" stroke="pink" stroke-width="1" />
<rect x="843" y="161" width="17" height="5" style="fill:#5d3c2d;stroke:black;stroke-width:1;fill-opacity:1;stroke-opacity:0.3" />
<line x1="860" y1="163" x2="944" y2="163" stroke="pink" stroke-width="1" />
<rect x="944" y="161" width="1" height="5" style="fill:#5d3c2d;stroke:black;stroke-width:1;fill-opacity:1;stroke-opacity:0.3" />
<rect x="954" y="161" width="18" height="5" style="fill:#5d3c2d;stroke:black;stroke-width:1;fill-opacity:1;stroke-opacity:0.3" />
<line x1="973" y1="163" x2="1070" y2="163" stroke="pink" stroke-width="1" />
<rect x="1070" y="161" width="23" height="5" style="fill:#5d3c2d;stroke:black;stroke-width:1;fill-opacity:1;stroke-opacity:0.3" />
<line x1="1094" y1="163" x2="1154" y2="163" stroke="pink" stroke-width="1" />
<rect x="1154" y="161" width="0" height="5" style="fill:#5d3c2d;stroke:black;stroke-width:1;fill-opacity:1;stroke-opacity:0.3" />
<line x1="850" y1="93" x2="899" y2="95" stroke="black" stroke-width="1" />
<line x1="899" y1="95" x2="949" y2="93" stroke="black" stroke-width="1" />
<rect x="506" y="91" width="4" height="5" style="fill:#5d3c2d;stroke:black;stroke-width:1;fill-opacity:1;stroke-opacity:0.3" />
<line x1="511" y1="93" x2="675" y2="93" stroke="pink" stroke-width="1" />
<rect x="675" y="91" width="30" height="5" style="fill:#5d3c2d;stroke:black;stroke-width:1;fill-opacity:1;stroke-opacity:0.3" />
<line x1="705" y1="93" x2="843" y2="93" stroke="pink" stroke-width="1" />
<rect x="843" y="91" width="7" height="5" style="fill:#5d3c2d;stroke:black;stroke-width:1;fill-opacity:1;stroke-opacity:0.3" />
<rect x="949" y="91" width="24" height="5" style="fill:#5d3c2d;stroke:black;stroke-width:1;fill-opacity:1;stroke-opacity:0.3" />
<line x1="973" y1="93" x2="1070" y2="93" stroke="pink" stroke-width="1" />
<rect x="1070" y="91" width="18" height="5" style="fill:#5d3c2d;stroke:black;stroke-width:1;fill-opacity:1;stroke-opacity:0.3" />
<line x1="948" y1="142" x2="951" y2="144" stroke="black" stroke-width="1" />
<line x1="951" y1="144" x2="954" y2="142" stroke="black" stroke-width="1" />
<rect x="683" y="140" width="22" height="5" style="fill:#5d3c2d;stroke:black;stroke-width:1;fill-opacity:1;stroke-opacity:0.3" />
<line x1="705" y1="142" x2="843" y2="142" stroke="pink" stroke-width="1" />
<rect x="843" y="140" width="17" height="5" style="fill:#5d3c2d;stroke:black;stroke-width:1;fill-opacity:1;stroke-opacity:0.3" />
<line x1="860" y1="142" x2="944" y2="142" stroke="pink" stroke-width="1" />
<rect x="944" y="140" width="3" height="5" style="fill:#5d3c2d;stroke:black;stroke-width:1;fill-opacity:1;stroke-opacity:0.3" />
<rect x="954" y="140" width="19" height="5" style="fill:#5d3c2d;stroke:black;stroke-width:1;fill-opacity:1;stroke-opacity:0.3" />
<line x1="973" y1="142" x2="1070" y2="142" stroke="pink" stroke-width="1" />
<rect x="1070" y="140" width="23" height="5" style="fill:#5d3c2d;stroke:black;stroke-width:1;fill-opacity:1;stroke-opacity:0.3" />
<text x="15"  y="176" style="font-family:Arial;font-size:10;stroke:black;fill:black;">all.merged.bam</text>
</svg>
    
