<?xml version="1.0" encoding="utf-8" standalone="no"?>
<!DOCTYPE svg PUBLIC "-//W3C//DTD SVG 1.1//EN"
  "http://www.w3.org/Graphics/SVG/1.1/DTD/svg11.dtd">
<svg height="1140" width="1000" version="1.1" viewBox="0 0 1000 1140" xmlns="http://www.w3.org/2000/svg" xmlns:xlink="http://www.w3.org/1999/xlink">
<line x1="52" y1="11" x2="947" y2="11" stroke="black" stroke-width="1" />
<rect x="52" y="9" width="72" height="5" style="fill:#f50002;stroke:black;stroke-width:1;fill-opacity:1;stroke-opacity:0.3" />
<rect x="125" y="9" width="91" height="5" style="fill:#53a1b5;stroke:black;stroke-width:1;fill-opacity:1;stroke-opacity:0.3" />
<rect x="448" y="9" width="300" height="5" style="fill:#53a1b5;stroke:black;stroke-width:1;fill-opacity:1;stroke-opacity:0.3" />
<rect x="748" y="9" width="198" height="5" style="fill:#f50002;stroke:black;stroke-width:1;fill-opacity:1;stroke-opacity:0.3" />
<text x="52"  y="23" style="font-family:Arial;font-size:10;stroke:black;fill:black;">Cre09.g391430.t1.1.v5.5 (+) chromosome_9:3782473-3784184</text>
<line x1="173" y1="30" x2="176" y2="32" stroke="black" stroke-width="1" />
<line x1="176" y1="32" x2="180" y2="30" stroke="black" stroke-width="1" />
<rect x="120" y="28" width="52" height="5" style="fill:#f5b024;stroke:black;stroke-width:1;fill-opacity:1;stroke-opacity:0.3" />
<rect x="180" y="28" width="52" height="5" style="fill:#f5b024;stroke:black;stroke-width:1;fill-opacity:1;stroke-opacity:0.3" />
<line x1="720" y1="30" x2="730" y2="32" stroke="black" stroke-width="1" />
<line x1="730" y1="32" x2="740" y2="30" stroke="black" stroke-width="1" />
<rect x="667" y="28" width="52" height="5" style="fill:#f5b024;stroke:black;stroke-width:1;fill-opacity:1;stroke-opacity:0.3" />
<rect x="740" y="28" width="52" height="5" style="fill:#f5b024;stroke:black;stroke-width:1;fill-opacity:1;stroke-opacity:0.3" />
<line x1="750" y1="37" x2="754" y2="39" stroke="black" stroke-width="1" />
<line x1="754" y1="39" x2="758" y2="37" stroke="black" stroke-width="1" />
<rect x="697" y="35" width="52" height="5" style="fill:#5d3c2d;stroke:black;stroke-width:1;fill-opacity:1;stroke-opacity:0.3" />
<rect x="758" y="35" width="52" height="5" style="fill:#5d3c2d;stroke:black;stroke-width:1;fill-opacity:1;stroke-opacity:0.3" />
<line x1="828" y1="44" x2="835" y2="46" stroke="black" stroke-width="1" />
<line x1="835" y1="46" x2="842" y2="44" stroke="black" stroke-width="1" />
<rect x="776" y="42" width="52" height="5" style="fill:#5d3c2d;stroke:black;stroke-width:1;fill-opacity:1;stroke-opacity:0.3" />
<rect x="842" y="42" width="52" height="5" style="fill:#5d3c2d;stroke:black;stroke-width:1;fill-opacity:1;stroke-opacity:0.3" />
<line x1="843" y1="30" x2="856" y2="32" stroke="black" stroke-width="1" />
<line x1="856" y1="32" x2="870" y2="30" stroke="black" stroke-width="1" />
<rect x="793" y="28" width="49" height="5" style="fill:#5d3c2d;stroke:black;stroke-width:1;fill-opacity:1;stroke-opacity:0.3" />
<rect x="870" y="28" width="52" height="5" style="fill:#5d3c2d;stroke:black;stroke-width:1;fill-opacity:1;stroke-opacity:0.3" />
<text x="15"  y="176" style="font-family:Arial;font-size:10;stroke:black;fill:black;">all.merged.bam</text>
</svg>
    
