<?xml version="1.0" encoding="utf-8" standalone="no"?>
<!DOCTYPE svg PUBLIC "-//W3C//DTD SVG 1.1//EN"
  "http://www.w3.org/Graphics/SVG/1.1/DTD/svg11.dtd">
<svg height="1140" width="1000" version="1.1" viewBox="0 0 1000 1140" xmlns="http://www.w3.org/2000/svg" xmlns:xlink="http://www.w3.org/1999/xlink">
<line x1="37" y1="11" x2="962" y2="11" stroke="black" stroke-width="1" />
<rect x="37" y="9" width="22" height="5" style="fill:#f50002;stroke:black;stroke-width:1;fill-opacity:1;stroke-opacity:0.3" />
<rect x="59" y="9" width="19" height="5" style="fill:#53a1b5;stroke:black;stroke-width:1;fill-opacity:1;stroke-opacity:0.3" />
<rect x="141" y="9" width="42" height="5" style="fill:#53a1b5;stroke:black;stroke-width:1;fill-opacity:1;stroke-opacity:0.3" />
<rect x="562" y="9" width="23" height="5" style="fill:#53a1b5;stroke:black;stroke-width:1;fill-opacity:1;stroke-opacity:0.3" />
<rect x="645" y="9" width="24" height="5" style="fill:#53a1b5;stroke:black;stroke-width:1;fill-opacity:1;stroke-opacity:0.3" />
<rect x="732" y="9" width="50" height="5" style="fill:#53a1b5;stroke:black;stroke-width:1;fill-opacity:1;stroke-opacity:0.3" />
<rect x="841" y="9" width="37" height="5" style="fill:#53a1b5;stroke:black;stroke-width:1;fill-opacity:1;stroke-opacity:0.3" />
<rect x="908" y="9" width="0" height="5" style="fill:#53a1b5;stroke:black;stroke-width:1;fill-opacity:1;stroke-opacity:0.3" />
<rect x="909" y="9" width="52" height="5" style="fill:#f50002;stroke:black;stroke-width:1;fill-opacity:1;stroke-opacity:0.3" />
<text x="37"  y="23" style="font-family:Arial;font-size:10;stroke:black;fill:black;">Cre01.g027000.t1.2.v5.5 (-) chromosome_1:4112494-4114965</text>
<line x1="43" y1="30" x2="45" y2="32" stroke="black" stroke-width="1" />
<line x1="45" y1="32" x2="48" y2="30" stroke="black" stroke-width="1" />
<rect x="5" y="28" width="37" height="5" style="fill:#f5b024;stroke:black;stroke-width:1;fill-opacity:1;stroke-opacity:0.3" />
<rect x="48" y="28" width="30" height="5" style="fill:#f5b024;stroke:black;stroke-width:1;fill-opacity:1;stroke-opacity:0.3" />
<line x1="79" y1="30" x2="141" y2="30" stroke="pink" stroke-width="1" />
<rect x="141" y="28" width="6" height="5" style="fill:#f5b024;stroke:black;stroke-width:1;fill-opacity:1;stroke-opacity:0.3" />
<line x1="48" y1="37" x2="51" y2="39" stroke="black" stroke-width="1" />
<line x1="51" y1="39" x2="55" y2="37" stroke="black" stroke-width="1" />
<rect x="10" y="35" width="37" height="5" style="fill:#f5b024;stroke:black;stroke-width:1;fill-opacity:1;stroke-opacity:0.3" />
<rect x="55" y="35" width="37" height="5" style="fill:#f5b024;stroke:black;stroke-width:1;fill-opacity:1;stroke-opacity:0.3" />
<line x1="148" y1="44" x2="154" y2="46" stroke="black" stroke-width="1" />
<line x1="154" y1="46" x2="161" y2="44" stroke="black" stroke-width="1" />
<rect x="30" y="42" width="48" height="5" style="fill:#f5b024;stroke:black;stroke-width:1;fill-opacity:1;stroke-opacity:0.3" />
<line x1="79" y1="44" x2="141" y2="44" stroke="pink" stroke-width="1" />
<rect x="141" y="42" width="7" height="5" style="fill:#f5b024;stroke:black;stroke-width:1;fill-opacity:1;stroke-opacity:0.3" />
<rect x="161" y="42" width="23" height="5" style="fill:#f5b024;stroke:black;stroke-width:1;fill-opacity:1;stroke-opacity:0.3" />
<line x1="184" y1="44" x2="562" y2="44" stroke="pink" stroke-width="1" />
<rect x="562" y="42" width="23" height="5" style="fill:#f5b024;stroke:black;stroke-width:1;fill-opacity:1;stroke-opacity:0.3" />
<line x1="585" y1="44" x2="645" y2="44" stroke="pink" stroke-width="1" />
<rect x="645" y="42" width="8" height="5" style="fill:#f5b024;stroke:black;stroke-width:1;fill-opacity:1;stroke-opacity:0.3" />
<line x1="68" y1="51" x2="106" y2="53" stroke="black" stroke-width="1" />
<line x1="106" y1="53" x2="144" y2="51" stroke="black" stroke-width="1" />
<rect x="31" y="49" width="37" height="5" style="fill:#f5b024;stroke:black;stroke-width:1;fill-opacity:1;stroke-opacity:0.3" />
<rect x="144" y="49" width="37" height="5" style="fill:#f5b024;stroke:black;stroke-width:1;fill-opacity:1;stroke-opacity:0.3" />
<line x1="69" y1="58" x2="72" y2="60" stroke="black" stroke-width="1" />
<line x1="72" y1="60" x2="75" y2="58" stroke="black" stroke-width="1" />
<rect x="32" y="56" width="37" height="5" style="fill:#f5b024;stroke:black;stroke-width:1;fill-opacity:1;stroke-opacity:0.3" />
<rect x="75" y="56" width="3" height="5" style="fill:#f5b024;stroke:black;stroke-width:1;fill-opacity:1;stroke-opacity:0.3" />
<line x1="79" y1="58" x2="141" y2="58" stroke="pink" stroke-width="1" />
<rect x="141" y="56" width="34" height="5" style="fill:#f5b024;stroke:black;stroke-width:1;fill-opacity:1;stroke-opacity:0.3" />
<line x1="70" y1="65" x2="73" y2="67" stroke="black" stroke-width="1" />
<line x1="73" y1="67" x2="76" y2="65" stroke="black" stroke-width="1" />
<rect x="34" y="63" width="36" height="5" style="fill:#f5b024;stroke:black;stroke-width:1;fill-opacity:1;stroke-opacity:0.3" />
<rect x="76" y="63" width="2" height="5" style="fill:#f5b024;stroke:black;stroke-width:1;fill-opacity:1;stroke-opacity:0.3" />
<line x1="79" y1="65" x2="141" y2="65" stroke="pink" stroke-width="1" />
<rect x="141" y="63" width="34" height="5" style="fill:#f5b024;stroke:black;stroke-width:1;fill-opacity:1;stroke-opacity:0.3" />
<line x1="73" y1="72" x2="75" y2="74" stroke="black" stroke-width="1" />
<line x1="75" y1="74" x2="77" y2="72" stroke="black" stroke-width="1" />
<rect x="36" y="70" width="37" height="5" style="fill:#f5b024;stroke:black;stroke-width:1;fill-opacity:1;stroke-opacity:0.3" />
<rect x="77" y="70" width="2" height="5" style="fill:#f5b024;stroke:black;stroke-width:1;fill-opacity:1;stroke-opacity:0.3" />
<line x1="79" y1="72" x2="141" y2="72" stroke="pink" stroke-width="1" />
<rect x="141" y="70" width="35" height="5" style="fill:#f5b024;stroke:black;stroke-width:1;fill-opacity:1;stroke-opacity:0.3" />
<line x1="73" y1="79" x2="108" y2="81" stroke="black" stroke-width="1" />
<line x1="108" y1="81" x2="144" y2="79" stroke="black" stroke-width="1" />
<rect x="36" y="77" width="37" height="5" style="fill:#f5b024;stroke:black;stroke-width:1;fill-opacity:1;stroke-opacity:0.3" />
<rect x="144" y="77" width="37" height="5" style="fill:#f5b024;stroke:black;stroke-width:1;fill-opacity:1;stroke-opacity:0.3" />
<line x1="73" y1="86" x2="115" y2="88" stroke="black" stroke-width="1" />
<line x1="115" y1="88" x2="158" y2="86" stroke="black" stroke-width="1" />
<rect x="36" y="84" width="37" height="5" style="fill:#f5b024;stroke:black;stroke-width:1;fill-opacity:1;stroke-opacity:0.3" />
<rect x="158" y="84" width="26" height="5" style="fill:#f5b024;stroke:black;stroke-width:1;fill-opacity:1;stroke-opacity:0.3" />
<line x1="184" y1="86" x2="562" y2="86" stroke="pink" stroke-width="1" />
<rect x="562" y="84" width="10" height="5" style="fill:#f5b024;stroke:black;stroke-width:1;fill-opacity:1;stroke-opacity:0.3" />
<line x1="73" y1="93" x2="120" y2="95" stroke="black" stroke-width="1" />
<line x1="120" y1="95" x2="168" y2="93" stroke="black" stroke-width="1" />
<rect x="36" y="91" width="37" height="5" style="fill:#f5b024;stroke:black;stroke-width:1;fill-opacity:1;stroke-opacity:0.3" />
<rect x="168" y="91" width="16" height="5" style="fill:#f5b024;stroke:black;stroke-width:1;fill-opacity:1;stroke-opacity:0.3" />
<line x1="184" y1="93" x2="562" y2="93" stroke="pink" stroke-width="1" />
<rect x="562" y="91" width="20" height="5" style="fill:#f5b024;stroke:black;stroke-width:1;fill-opacity:1;stroke-opacity:0.3" />
<line x1="73" y1="100" x2="120" y2="102" stroke="black" stroke-width="1" />
<line x1="120" y1="102" x2="168" y2="100" stroke="black" stroke-width="1" />
<rect x="36" y="98" width="37" height="5" style="fill:#f5b024;stroke:black;stroke-width:1;fill-opacity:1;stroke-opacity:0.3" />
<rect x="168" y="98" width="16" height="5" style="fill:#f5b024;stroke:black;stroke-width:1;fill-opacity:1;stroke-opacity:0.3" />
<line x1="184" y1="100" x2="562" y2="100" stroke="pink" stroke-width="1" />
<rect x="562" y="98" width="20" height="5" style="fill:#f5b024;stroke:black;stroke-width:1;fill-opacity:1;stroke-opacity:0.3" />
<line x1="73" y1="107" x2="109" y2="109" stroke="black" stroke-width="1" />
<line x1="109" y1="109" x2="146" y2="107" stroke="black" stroke-width="1" />
<rect x="36" y="105" width="37" height="5" style="fill:#f5b024;stroke:black;stroke-width:1;fill-opacity:1;stroke-opacity:0.3" />
<rect x="146" y="105" width="37" height="5" style="fill:#f5b024;stroke:black;stroke-width:1;fill-opacity:1;stroke-opacity:0.3" />
<line x1="73" y1="114" x2="116" y2="116" stroke="black" stroke-width="1" />
<line x1="116" y1="116" x2="159" y2="114" stroke="black" stroke-width="1" />
<rect x="36" y="112" width="37" height="5" style="fill:#f5b024;stroke:black;stroke-width:1;fill-opacity:1;stroke-opacity:0.3" />
<rect x="159" y="112" width="25" height="5" style="fill:#f5b024;stroke:black;stroke-width:1;fill-opacity:1;stroke-opacity:0.3" />
<line x1="184" y1="114" x2="562" y2="114" stroke="pink" stroke-width="1" />
<rect x="562" y="112" width="12" height="5" style="fill:#f5b024;stroke:black;stroke-width:1;fill-opacity:1;stroke-opacity:0.3" />
<line x1="73" y1="121" x2="76" y2="123" stroke="black" stroke-width="1" />
<line x1="76" y1="123" x2="79" y2="121" stroke="black" stroke-width="1" />
<rect x="36" y="119" width="37" height="5" style="fill:#f5b024;stroke:black;stroke-width:1;fill-opacity:1;stroke-opacity:0.3" />
<rect x="79" y="119" width="37" height="5" style="fill:#f5b024;stroke:black;stroke-width:1;fill-opacity:1;stroke-opacity:0.3" />
<line x1="73" y1="128" x2="114" y2="130" stroke="black" stroke-width="1" />
<line x1="114" y1="130" x2="156" y2="128" stroke="black" stroke-width="1" />
<rect x="36" y="126" width="37" height="5" style="fill:#f5b024;stroke:black;stroke-width:1;fill-opacity:1;stroke-opacity:0.3" />
<rect x="156" y="126" width="28" height="5" style="fill:#f5b024;stroke:black;stroke-width:1;fill-opacity:1;stroke-opacity:0.3" />
<line x1="184" y1="128" x2="562" y2="128" stroke="pink" stroke-width="1" />
<rect x="562" y="126" width="9" height="5" style="fill:#f5b024;stroke:black;stroke-width:1;fill-opacity:1;stroke-opacity:0.3" />
<line x1="73" y1="135" x2="110" y2="137" stroke="black" stroke-width="1" />
<line x1="110" y1="137" x2="147" y2="135" stroke="black" stroke-width="1" />
<rect x="36" y="133" width="37" height="5" style="fill:#f5b024;stroke:black;stroke-width:1;fill-opacity:1;stroke-opacity:0.3" />
<rect x="147" y="133" width="37" height="5" style="fill:#f5b024;stroke:black;stroke-width:1;fill-opacity:1;stroke-opacity:0.3" />
<line x1="184" y1="135" x2="645" y2="135" stroke="pink" stroke-width="1" />
<rect x="645" y="133" width="0" height="5" style="fill:#f5b024;stroke:black;stroke-width:1;fill-opacity:1;stroke-opacity:0.3" />
<line x1="70" y1="142" x2="73" y2="144" stroke="black" stroke-width="1" />
<line x1="73" y1="144" x2="76" y2="142" stroke="black" stroke-width="1" />
<rect x="36" y="140" width="34" height="5" style="fill:#f5b024;stroke:black;stroke-width:1;fill-opacity:1;stroke-opacity:0.3" />
<rect x="76" y="140" width="2" height="5" style="fill:#f5b024;stroke:black;stroke-width:1;fill-opacity:1;stroke-opacity:0.3" />
<line x1="79" y1="142" x2="141" y2="142" stroke="pink" stroke-width="1" />
<rect x="141" y="140" width="34" height="5" style="fill:#f5b024;stroke:black;stroke-width:1;fill-opacity:1;stroke-opacity:0.3" />
<line x1="72" y1="149" x2="108" y2="151" stroke="black" stroke-width="1" />
<line x1="108" y1="151" x2="144" y2="149" stroke="black" stroke-width="1" />
<rect x="36" y="147" width="36" height="5" style="fill:#f5b024;stroke:black;stroke-width:1;fill-opacity:1;stroke-opacity:0.3" />
<rect x="144" y="147" width="37" height="5" style="fill:#f5b024;stroke:black;stroke-width:1;fill-opacity:1;stroke-opacity:0.3" />
<line x1="73" y1="156" x2="123" y2="158" stroke="black" stroke-width="1" />
<line x1="123" y1="158" x2="174" y2="156" stroke="black" stroke-width="1" />
<rect x="36" y="154" width="37" height="5" style="fill:#f5b024;stroke:black;stroke-width:1;fill-opacity:1;stroke-opacity:0.3" />
<rect x="174" y="154" width="10" height="5" style="fill:#f5b024;stroke:black;stroke-width:1;fill-opacity:1;stroke-opacity:0.3" />
<line x1="184" y1="156" x2="562" y2="156" stroke="pink" stroke-width="1" />
<rect x="562" y="154" width="23" height="5" style="fill:#f5b024;stroke:black;stroke-width:1;fill-opacity:1;stroke-opacity:0.3" />
<line x1="585" y1="156" x2="645" y2="156" stroke="pink" stroke-width="1" />
<rect x="645" y="154" width="2" height="5" style="fill:#f5b024;stroke:black;stroke-width:1;fill-opacity:1;stroke-opacity:0.3" />
<line x1="74" y1="163" x2="114" y2="165" stroke="black" stroke-width="1" />
<line x1="114" y1="165" x2="155" y2="163" stroke="black" stroke-width="1" />
<rect x="36" y="161" width="37" height="5" style="fill:#f5b024;stroke:black;stroke-width:1;fill-opacity:1;stroke-opacity:0.3" />
<rect x="155" y="161" width="29" height="5" style="fill:#f5b024;stroke:black;stroke-width:1;fill-opacity:1;stroke-opacity:0.3" />
<line x1="184" y1="163" x2="562" y2="163" stroke="pink" stroke-width="1" />
<rect x="562" y="161" width="8" height="5" style="fill:#f5b024;stroke:black;stroke-width:1;fill-opacity:1;stroke-opacity:0.3" />
<line x1="132" y1="37" x2="143" y2="39" stroke="black" stroke-width="1" />
<line x1="143" y1="39" x2="154" y2="37" stroke="black" stroke-width="1" />
<rect x="95" y="35" width="36" height="5" style="fill:#f5b024;stroke:black;stroke-width:1;fill-opacity:1;stroke-opacity:0.3" />
<rect x="154" y="35" width="37" height="5" style="fill:#f5b024;stroke:black;stroke-width:1;fill-opacity:1;stroke-opacity:0.3" />
<line x1="156" y1="121" x2="163" y2="123" stroke="black" stroke-width="1" />
<line x1="163" y1="123" x2="170" y2="121" stroke="black" stroke-width="1" />
<rect x="118" y="119" width="37" height="5" style="fill:#f5b024;stroke:black;stroke-width:1;fill-opacity:1;stroke-opacity:0.3" />
<rect x="170" y="119" width="37" height="5" style="fill:#f5b024;stroke:black;stroke-width:1;fill-opacity:1;stroke-opacity:0.3" />
<line x1="184" y1="30" x2="378" y2="32" stroke="black" stroke-width="1" />
<line x1="378" y1="32" x2="572" y2="30" stroke="black" stroke-width="1" />
<rect x="148" y="28" width="35" height="5" style="fill:#f5b024;stroke:black;stroke-width:1;fill-opacity:1;stroke-opacity:0.3" />
<rect x="572" y="28" width="13" height="5" style="fill:#f5b024;stroke:black;stroke-width:1;fill-opacity:1;stroke-opacity:0.3" />
<line x1="585" y1="30" x2="645" y2="30" stroke="pink" stroke-width="1" />
<rect x="645" y="28" width="24" height="5" style="fill:#f5b024;stroke:black;stroke-width:1;fill-opacity:1;stroke-opacity:0.3" />
<line x1="650" y1="58" x2="655" y2="60" stroke="black" stroke-width="1" />
<line x1="655" y1="60" x2="660" y2="58" stroke="black" stroke-width="1" />
<rect x="175" y="56" width="8" height="5" style="fill:#f5b024;stroke:black;stroke-width:1;fill-opacity:1;stroke-opacity:0.3" />
<line x1="184" y1="58" x2="562" y2="58" stroke="pink" stroke-width="1" />
<rect x="562" y="56" width="23" height="5" style="fill:#f5b024;stroke:black;stroke-width:1;fill-opacity:1;stroke-opacity:0.3" />
<line x1="585" y1="58" x2="645" y2="58" stroke="pink" stroke-width="1" />
<rect x="645" y="56" width="4" height="5" style="fill:#f5b024;stroke:black;stroke-width:1;fill-opacity:1;stroke-opacity:0.3" />
<rect x="660" y="56" width="10" height="5" style="fill:#f5b024;stroke:black;stroke-width:1;fill-opacity:1;stroke-opacity:0.3" />
<line x1="671" y1="58" x2="732" y2="58" stroke="pink" stroke-width="1" />
<rect x="732" y="56" width="27" height="5" style="fill:#f5b024;stroke:black;stroke-width:1;fill-opacity:1;stroke-opacity:0.3" />
<line x1="650" y1="65" x2="715" y2="67" stroke="black" stroke-width="1" />
<line x1="715" y1="67" x2="781" y2="65" stroke="black" stroke-width="1" />
<rect x="176" y="63" width="8" height="5" style="fill:#f5b024;stroke:black;stroke-width:1;fill-opacity:1;stroke-opacity:0.3" />
<line x1="184" y1="65" x2="562" y2="65" stroke="pink" stroke-width="1" />
<rect x="562" y="63" width="23" height="5" style="fill:#f5b024;stroke:black;stroke-width:1;fill-opacity:1;stroke-opacity:0.3" />
<line x1="585" y1="65" x2="645" y2="65" stroke="pink" stroke-width="1" />
<rect x="645" y="63" width="4" height="5" style="fill:#f5b024;stroke:black;stroke-width:1;fill-opacity:1;stroke-opacity:0.3" />
<rect x="781" y="63" width="1" height="5" style="fill:#f5b024;stroke:black;stroke-width:1;fill-opacity:1;stroke-opacity:0.3" />
<line x1="783" y1="65" x2="841" y2="65" stroke="pink" stroke-width="1" />
<rect x="841" y="63" width="35" height="5" style="fill:#f5b024;stroke:black;stroke-width:1;fill-opacity:1;stroke-opacity:0.3" />
<line x1="650" y1="142" x2="658" y2="144" stroke="black" stroke-width="1" />
<line x1="658" y1="144" x2="667" y2="142" stroke="black" stroke-width="1" />
<rect x="176" y="140" width="8" height="5" style="fill:#f5b024;stroke:black;stroke-width:1;fill-opacity:1;stroke-opacity:0.3" />
<line x1="184" y1="142" x2="562" y2="142" stroke="pink" stroke-width="1" />
<rect x="562" y="140" width="23" height="5" style="fill:#f5b024;stroke:black;stroke-width:1;fill-opacity:1;stroke-opacity:0.3" />
<line x1="585" y1="142" x2="645" y2="142" stroke="pink" stroke-width="1" />
<rect x="645" y="140" width="4" height="5" style="fill:#f5b024;stroke:black;stroke-width:1;fill-opacity:1;stroke-opacity:0.3" />
<rect x="667" y="140" width="3" height="5" style="fill:#f5b024;stroke:black;stroke-width:1;fill-opacity:1;stroke-opacity:0.3" />
<line x1="671" y1="142" x2="732" y2="142" stroke="pink" stroke-width="1" />
<rect x="732" y="140" width="33" height="5" style="fill:#f5b024;stroke:black;stroke-width:1;fill-opacity:1;stroke-opacity:0.3" />
<line x1="651" y1="72" x2="653" y2="74" stroke="black" stroke-width="1" />
<line x1="653" y1="74" x2="656" y2="72" stroke="black" stroke-width="1" />
<rect x="177" y="70" width="7" height="5" style="fill:#f5b024;stroke:black;stroke-width:1;fill-opacity:1;stroke-opacity:0.3" />
<line x1="184" y1="72" x2="562" y2="72" stroke="pink" stroke-width="1" />
<rect x="562" y="70" width="23" height="5" style="fill:#f5b024;stroke:black;stroke-width:1;fill-opacity:1;stroke-opacity:0.3" />
<line x1="585" y1="72" x2="645" y2="72" stroke="pink" stroke-width="1" />
<rect x="645" y="70" width="5" height="5" style="fill:#f5b024;stroke:black;stroke-width:1;fill-opacity:1;stroke-opacity:0.3" />
<rect x="656" y="70" width="14" height="5" style="fill:#f5b024;stroke:black;stroke-width:1;fill-opacity:1;stroke-opacity:0.3" />
<line x1="671" y1="72" x2="732" y2="72" stroke="pink" stroke-width="1" />
<rect x="732" y="70" width="23" height="5" style="fill:#f5b024;stroke:black;stroke-width:1;fill-opacity:1;stroke-opacity:0.3" />
<line x1="657" y1="51" x2="658" y2="53" stroke="black" stroke-width="1" />
<line x1="658" y1="53" x2="660" y2="51" stroke="black" stroke-width="1" />
<rect x="182" y="49" width="2" height="5" style="fill:#f5b024;stroke:black;stroke-width:1;fill-opacity:1;stroke-opacity:0.3" />
<line x1="184" y1="51" x2="562" y2="51" stroke="pink" stroke-width="1" />
<rect x="562" y="49" width="23" height="5" style="fill:#f5b024;stroke:black;stroke-width:1;fill-opacity:1;stroke-opacity:0.3" />
<line x1="585" y1="51" x2="645" y2="51" stroke="pink" stroke-width="1" />
<rect x="645" y="49" width="11" height="5" style="fill:#f5b024;stroke:black;stroke-width:1;fill-opacity:1;stroke-opacity:0.3" />
<rect x="660" y="49" width="10" height="5" style="fill:#f5b024;stroke:black;stroke-width:1;fill-opacity:1;stroke-opacity:0.3" />
<line x1="671" y1="51" x2="732" y2="51" stroke="pink" stroke-width="1" />
<rect x="732" y="49" width="27" height="5" style="fill:#f5b024;stroke:black;stroke-width:1;fill-opacity:1;stroke-opacity:0.3" />
<line x1="655" y1="79" x2="657" y2="81" stroke="black" stroke-width="1" />
<line x1="657" y1="81" x2="660" y2="79" stroke="black" stroke-width="1" />
<rect x="182" y="77" width="2" height="5" style="fill:#f5b024;stroke:black;stroke-width:1;fill-opacity:1;stroke-opacity:0.3" />
<line x1="184" y1="79" x2="562" y2="79" stroke="pink" stroke-width="1" />
<rect x="562" y="77" width="23" height="5" style="fill:#f5b024;stroke:black;stroke-width:1;fill-opacity:1;stroke-opacity:0.3" />
<line x1="585" y1="79" x2="645" y2="79" stroke="pink" stroke-width="1" />
<rect x="645" y="77" width="9" height="5" style="fill:#f5b024;stroke:black;stroke-width:1;fill-opacity:1;stroke-opacity:0.3" />
<rect x="660" y="77" width="10" height="5" style="fill:#f5b024;stroke:black;stroke-width:1;fill-opacity:1;stroke-opacity:0.3" />
<line x1="671" y1="79" x2="732" y2="79" stroke="pink" stroke-width="1" />
<rect x="732" y="77" width="27" height="5" style="fill:#f5b024;stroke:black;stroke-width:1;fill-opacity:1;stroke-opacity:0.3" />
<line x1="657" y1="149" x2="659" y2="151" stroke="black" stroke-width="1" />
<line x1="659" y1="151" x2="661" y2="149" stroke="black" stroke-width="1" />
<rect x="182" y="147" width="2" height="5" style="fill:#f5b024;stroke:black;stroke-width:1;fill-opacity:1;stroke-opacity:0.3" />
<line x1="184" y1="149" x2="562" y2="149" stroke="pink" stroke-width="1" />
<rect x="562" y="147" width="23" height="5" style="fill:#f5b024;stroke:black;stroke-width:1;fill-opacity:1;stroke-opacity:0.3" />
<line x1="585" y1="149" x2="645" y2="149" stroke="pink" stroke-width="1" />
<rect x="645" y="147" width="11" height="5" style="fill:#f5b024;stroke:black;stroke-width:1;fill-opacity:1;stroke-opacity:0.3" />
<rect x="661" y="147" width="9" height="5" style="fill:#f5b024;stroke:black;stroke-width:1;fill-opacity:1;stroke-opacity:0.3" />
<line x1="671" y1="149" x2="732" y2="149" stroke="pink" stroke-width="1" />
<rect x="732" y="147" width="28" height="5" style="fill:#f5b024;stroke:black;stroke-width:1;fill-opacity:1;stroke-opacity:0.3" />
<line x1="744" y1="107" x2="759" y2="109" stroke="black" stroke-width="1" />
<line x1="759" y1="109" x2="774" y2="107" stroke="black" stroke-width="1" />
<rect x="184" y="105" width="0" height="5" style="fill:#f5b024;stroke:black;stroke-width:1;fill-opacity:1;stroke-opacity:0.3" />
<line x1="184" y1="107" x2="645" y2="107" stroke="pink" stroke-width="1" />
<rect x="645" y="105" width="25" height="5" style="fill:#f5b024;stroke:black;stroke-width:1;fill-opacity:1;stroke-opacity:0.3" />
<line x1="671" y1="107" x2="732" y2="107" stroke="pink" stroke-width="1" />
<rect x="732" y="105" width="11" height="5" style="fill:#f5b024;stroke:black;stroke-width:1;fill-opacity:1;stroke-opacity:0.3" />
<rect x="774" y="105" width="8" height="5" style="fill:#f5b024;stroke:black;stroke-width:1;fill-opacity:1;stroke-opacity:0.3" />
<line x1="783" y1="107" x2="841" y2="107" stroke="pink" stroke-width="1" />
<rect x="841" y="105" width="28" height="5" style="fill:#f5b024;stroke:black;stroke-width:1;fill-opacity:1;stroke-opacity:0.3" />
<line x1="233" y1="37" x2="235" y2="39" stroke="black" stroke-width="1" />
<line x1="235" y1="39" x2="238" y2="37" stroke="black" stroke-width="1" />
<rect x="195" y="35" width="37" height="5" style="fill:#f5b024;stroke:black;stroke-width:1;fill-opacity:1;stroke-opacity:0.3" />
<rect x="238" y="35" width="37" height="5" style="fill:#f5b024;stroke:black;stroke-width:1;fill-opacity:1;stroke-opacity:0.3" />
<line x1="245" y1="121" x2="247" y2="123" stroke="black" stroke-width="1" />
<line x1="247" y1="123" x2="250" y2="121" stroke="black" stroke-width="1" />
<rect x="207" y="119" width="37" height="5" style="fill:#f5b024;stroke:black;stroke-width:1;fill-opacity:1;stroke-opacity:0.3" />
<rect x="250" y="119" width="37" height="5" style="fill:#f5b024;stroke:black;stroke-width:1;fill-opacity:1;stroke-opacity:0.3" />
<line x1="313" y1="37" x2="317" y2="39" stroke="black" stroke-width="1" />
<line x1="317" y1="39" x2="321" y2="37" stroke="black" stroke-width="1" />
<rect x="276" y="35" width="37" height="5" style="fill:#f5b024;stroke:black;stroke-width:1;fill-opacity:1;stroke-opacity:0.3" />
<rect x="321" y="35" width="37" height="5" style="fill:#f5b024;stroke:black;stroke-width:1;fill-opacity:1;stroke-opacity:0.3" />
<line x1="325" y1="121" x2="329" y2="123" stroke="black" stroke-width="1" />
<line x1="329" y1="123" x2="333" y2="121" stroke="black" stroke-width="1" />
<rect x="288" y="119" width="37" height="5" style="fill:#f5b024;stroke:black;stroke-width:1;fill-opacity:1;stroke-opacity:0.3" />
<rect x="333" y="119" width="37" height="5" style="fill:#f5b024;stroke:black;stroke-width:1;fill-opacity:1;stroke-opacity:0.3" />
<line x1="396" y1="37" x2="400" y2="39" stroke="black" stroke-width="1" />
<line x1="400" y1="39" x2="404" y2="37" stroke="black" stroke-width="1" />
<rect x="359" y="35" width="37" height="5" style="fill:#f5b024;stroke:black;stroke-width:1;fill-opacity:1;stroke-opacity:0.3" />
<rect x="404" y="35" width="37" height="5" style="fill:#f5b024;stroke:black;stroke-width:1;fill-opacity:1;stroke-opacity:0.3" />
<line x1="410" y1="121" x2="417" y2="123" stroke="black" stroke-width="1" />
<line x1="417" y1="123" x2="424" y2="121" stroke="black" stroke-width="1" />
<rect x="372" y="119" width="37" height="5" style="fill:#f5b024;stroke:black;stroke-width:1;fill-opacity:1;stroke-opacity:0.3" />
<rect x="424" y="119" width="37" height="5" style="fill:#f5b024;stroke:black;stroke-width:1;fill-opacity:1;stroke-opacity:0.3" />
<line x1="478" y1="37" x2="487" y2="39" stroke="black" stroke-width="1" />
<line x1="487" y1="39" x2="497" y2="37" stroke="black" stroke-width="1" />
<rect x="441" y="35" width="36" height="5" style="fill:#f5b024;stroke:black;stroke-width:1;fill-opacity:1;stroke-opacity:0.3" />
<rect x="497" y="35" width="34" height="5" style="fill:#f5b024;stroke:black;stroke-width:1;fill-opacity:1;stroke-opacity:0.3" />
<line x1="500" y1="121" x2="503" y2="123" stroke="black" stroke-width="1" />
<line x1="503" y1="123" x2="506" y2="121" stroke="black" stroke-width="1" />
<rect x="462" y="119" width="37" height="5" style="fill:#f5b024;stroke:black;stroke-width:1;fill-opacity:1;stroke-opacity:0.3" />
<rect x="506" y="119" width="37" height="5" style="fill:#f5b024;stroke:black;stroke-width:1;fill-opacity:1;stroke-opacity:0.3" />
<line x1="576" y1="37" x2="613" y2="39" stroke="black" stroke-width="1" />
<line x1="613" y1="39" x2="651" y2="37" stroke="black" stroke-width="1" />
<rect x="538" y="35" width="37" height="5" style="fill:#f5b024;stroke:black;stroke-width:1;fill-opacity:1;stroke-opacity:0.3" />
<rect x="651" y="35" width="19" height="5" style="fill:#f5b024;stroke:black;stroke-width:1;fill-opacity:1;stroke-opacity:0.3" />
<line x1="671" y1="37" x2="732" y2="37" stroke="pink" stroke-width="1" />
<rect x="732" y="35" width="17" height="5" style="fill:#f5b024;stroke:black;stroke-width:1;fill-opacity:1;stroke-opacity:0.3" />
<line x1="583" y1="121" x2="615" y2="123" stroke="black" stroke-width="1" />
<line x1="615" y1="123" x2="647" y2="121" stroke="black" stroke-width="1" />
<rect x="546" y="119" width="37" height="5" style="fill:#f5b024;stroke:black;stroke-width:1;fill-opacity:1;stroke-opacity:0.3" />
<rect x="647" y="119" width="23" height="5" style="fill:#f5b024;stroke:black;stroke-width:1;fill-opacity:1;stroke-opacity:0.3" />
<line x1="671" y1="121" x2="732" y2="121" stroke="pink" stroke-width="1" />
<rect x="732" y="119" width="13" height="5" style="fill:#f5b024;stroke:black;stroke-width:1;fill-opacity:1;stroke-opacity:0.3" />
<line x1="666" y1="163" x2="699" y2="165" stroke="black" stroke-width="1" />
<line x1="699" y1="165" x2="733" y2="163" stroke="black" stroke-width="1" />
<rect x="570" y="161" width="15" height="5" style="fill:#f5b024;stroke:black;stroke-width:1;fill-opacity:1;stroke-opacity:0.3" />
<line x1="585" y1="163" x2="645" y2="163" stroke="pink" stroke-width="1" />
<rect x="645" y="161" width="20" height="5" style="fill:#f5b024;stroke:black;stroke-width:1;fill-opacity:1;stroke-opacity:0.3" />
<rect x="733" y="161" width="37" height="5" style="fill:#f5b024;stroke:black;stroke-width:1;fill-opacity:1;stroke-opacity:0.3" />
<line x1="668" y1="128" x2="708" y2="130" stroke="black" stroke-width="1" />
<line x1="708" y1="130" x2="748" y2="128" stroke="black" stroke-width="1" />
<rect x="571" y="126" width="14" height="5" style="fill:#f5b024;stroke:black;stroke-width:1;fill-opacity:1;stroke-opacity:0.3" />
<line x1="585" y1="128" x2="645" y2="128" stroke="pink" stroke-width="1" />
<rect x="645" y="126" width="22" height="5" style="fill:#f5b024;stroke:black;stroke-width:1;fill-opacity:1;stroke-opacity:0.3" />
<rect x="748" y="126" width="35" height="5" style="fill:#f5b024;stroke:black;stroke-width:1;fill-opacity:1;stroke-opacity:0.3" />
<line x1="783" y1="128" x2="841" y2="128" stroke="pink" stroke-width="1" />
<rect x="841" y="126" width="2" height="5" style="fill:#f5b024;stroke:black;stroke-width:1;fill-opacity:1;stroke-opacity:0.3" />
<line x1="670" y1="86" x2="706" y2="88" stroke="black" stroke-width="1" />
<line x1="706" y1="88" x2="743" y2="86" stroke="black" stroke-width="1" />
<rect x="572" y="84" width="12" height="5" style="fill:#f5b024;stroke:black;stroke-width:1;fill-opacity:1;stroke-opacity:0.3" />
<line x1="585" y1="86" x2="645" y2="86" stroke="pink" stroke-width="1" />
<rect x="645" y="84" width="24" height="5" style="fill:#f5b024;stroke:black;stroke-width:1;fill-opacity:1;stroke-opacity:0.3" />
<rect x="743" y="84" width="37" height="5" style="fill:#f5b024;stroke:black;stroke-width:1;fill-opacity:1;stroke-opacity:0.3" />
<line x1="733" y1="114" x2="745" y2="116" stroke="black" stroke-width="1" />
<line x1="745" y1="116" x2="757" y2="114" stroke="black" stroke-width="1" />
<rect x="574" y="112" width="11" height="5" style="fill:#f5b024;stroke:black;stroke-width:1;fill-opacity:1;stroke-opacity:0.3" />
<line x1="585" y1="114" x2="645" y2="114" stroke="pink" stroke-width="1" />
<rect x="645" y="112" width="25" height="5" style="fill:#f5b024;stroke:black;stroke-width:1;fill-opacity:1;stroke-opacity:0.3" />
<line x1="671" y1="114" x2="732" y2="114" stroke="pink" stroke-width="1" />
<rect x="732" y="112" width="1" height="5" style="fill:#f5b024;stroke:black;stroke-width:1;fill-opacity:1;stroke-opacity:0.3" />
<rect x="757" y="112" width="25" height="5" style="fill:#f5b024;stroke:black;stroke-width:1;fill-opacity:1;stroke-opacity:0.3" />
<line x1="783" y1="114" x2="841" y2="114" stroke="pink" stroke-width="1" />
<rect x="841" y="112" width="11" height="5" style="fill:#f5b024;stroke:black;stroke-width:1;fill-opacity:1;stroke-opacity:0.3" />
<line x1="742" y1="100" x2="747" y2="102" stroke="black" stroke-width="1" />
<line x1="747" y1="102" x2="753" y2="100" stroke="black" stroke-width="1" />
<rect x="582" y="98" width="2" height="5" style="fill:#f5b024;stroke:black;stroke-width:1;fill-opacity:1;stroke-opacity:0.3" />
<line x1="585" y1="100" x2="645" y2="100" stroke="pink" stroke-width="1" />
<rect x="645" y="98" width="25" height="5" style="fill:#f5b024;stroke:black;stroke-width:1;fill-opacity:1;stroke-opacity:0.3" />
<line x1="671" y1="100" x2="732" y2="100" stroke="pink" stroke-width="1" />
<rect x="732" y="98" width="9" height="5" style="fill:#f5b024;stroke:black;stroke-width:1;fill-opacity:1;stroke-opacity:0.3" />
<rect x="753" y="98" width="29" height="5" style="fill:#f5b024;stroke:black;stroke-width:1;fill-opacity:1;stroke-opacity:0.3" />
<line x1="783" y1="100" x2="841" y2="100" stroke="pink" stroke-width="1" />
<rect x="841" y="98" width="7" height="5" style="fill:#f5b024;stroke:black;stroke-width:1;fill-opacity:1;stroke-opacity:0.3" />
<line x1="742" y1="93" x2="744" y2="95" stroke="black" stroke-width="1" />
<line x1="744" y1="95" x2="747" y2="93" stroke="black" stroke-width="1" />
<rect x="583" y="91" width="2" height="5" style="fill:#f5b024;stroke:black;stroke-width:1;fill-opacity:1;stroke-opacity:0.3" />
<line x1="585" y1="93" x2="645" y2="93" stroke="pink" stroke-width="1" />
<rect x="645" y="91" width="25" height="5" style="fill:#f5b024;stroke:black;stroke-width:1;fill-opacity:1;stroke-opacity:0.3" />
<line x1="671" y1="93" x2="732" y2="93" stroke="pink" stroke-width="1" />
<rect x="732" y="91" width="9" height="5" style="fill:#f5b024;stroke:black;stroke-width:1;fill-opacity:1;stroke-opacity:0.3" />
<rect x="747" y="91" width="35" height="5" style="fill:#f5b024;stroke:black;stroke-width:1;fill-opacity:1;stroke-opacity:0.3" />
<line x1="783" y1="93" x2="841" y2="93" stroke="pink" stroke-width="1" />
<rect x="841" y="91" width="1" height="5" style="fill:#f5b024;stroke:black;stroke-width:1;fill-opacity:1;stroke-opacity:0.3" />
<line x1="742" y1="135" x2="745" y2="137" stroke="black" stroke-width="1" />
<line x1="745" y1="137" x2="748" y2="135" stroke="black" stroke-width="1" />
<rect x="646" y="133" width="24" height="5" style="fill:#f5b024;stroke:black;stroke-width:1;fill-opacity:1;stroke-opacity:0.3" />
<line x1="671" y1="135" x2="732" y2="135" stroke="pink" stroke-width="1" />
<rect x="732" y="133" width="10" height="5" style="fill:#f5b024;stroke:black;stroke-width:1;fill-opacity:1;stroke-opacity:0.3" />
<rect x="748" y="133" width="34" height="5" style="fill:#f5b024;stroke:black;stroke-width:1;fill-opacity:1;stroke-opacity:0.3" />
<line x1="783" y1="135" x2="841" y2="135" stroke="pink" stroke-width="1" />
<rect x="841" y="133" width="2" height="5" style="fill:#f5b024;stroke:black;stroke-width:1;fill-opacity:1;stroke-opacity:0.3" />
<line x1="748" y1="156" x2="750" y2="158" stroke="black" stroke-width="1" />
<line x1="750" y1="158" x2="753" y2="156" stroke="black" stroke-width="1" />
<rect x="648" y="154" width="22" height="5" style="fill:#f5b024;stroke:black;stroke-width:1;fill-opacity:1;stroke-opacity:0.3" />
<line x1="671" y1="156" x2="732" y2="156" stroke="pink" stroke-width="1" />
<rect x="732" y="154" width="15" height="5" style="fill:#f5b024;stroke:black;stroke-width:1;fill-opacity:1;stroke-opacity:0.3" />
<rect x="753" y="154" width="29" height="5" style="fill:#f5b024;stroke:black;stroke-width:1;fill-opacity:1;stroke-opacity:0.3" />
<line x1="783" y1="156" x2="841" y2="156" stroke="pink" stroke-width="1" />
<rect x="841" y="154" width="7" height="5" style="fill:#f5b024;stroke:black;stroke-width:1;fill-opacity:1;stroke-opacity:0.3" />
<line x1="754" y1="44" x2="761" y2="46" stroke="black" stroke-width="1" />
<line x1="761" y1="46" x2="769" y2="44" stroke="black" stroke-width="1" />
<rect x="654" y="42" width="16" height="5" style="fill:#f5b024;stroke:black;stroke-width:1;fill-opacity:1;stroke-opacity:0.3" />
<line x1="671" y1="44" x2="732" y2="44" stroke="pink" stroke-width="1" />
<rect x="732" y="42" width="21" height="5" style="fill:#f5b024;stroke:black;stroke-width:1;fill-opacity:1;stroke-opacity:0.3" />
<rect x="769" y="42" width="14" height="5" style="fill:#f5b024;stroke:black;stroke-width:1;fill-opacity:1;stroke-opacity:0.3" />
<line x1="783" y1="44" x2="841" y2="44" stroke="pink" stroke-width="1" />
<rect x="841" y="42" width="23" height="5" style="fill:#f5b024;stroke:black;stroke-width:1;fill-opacity:1;stroke-opacity:0.3" />
<line x1="769" y1="30" x2="775" y2="32" stroke="black" stroke-width="1" />
<line x1="775" y1="32" x2="781" y2="30" stroke="black" stroke-width="1" />
<rect x="670" y="28" width="0" height="5" style="fill:#f5b024;stroke:black;stroke-width:1;fill-opacity:1;stroke-opacity:0.3" />
<line x1="671" y1="30" x2="732" y2="30" stroke="pink" stroke-width="1" />
<rect x="732" y="28" width="36" height="5" style="fill:#f5b024;stroke:black;stroke-width:1;fill-opacity:1;stroke-opacity:0.3" />
<rect x="781" y="28" width="1" height="5" style="fill:#f5b024;stroke:black;stroke-width:1;fill-opacity:1;stroke-opacity:0.3" />
<line x1="783" y1="30" x2="841" y2="30" stroke="pink" stroke-width="1" />
<rect x="841" y="28" width="35" height="5" style="fill:#f5b024;stroke:black;stroke-width:1;fill-opacity:1;stroke-opacity:0.3" />
<line x1="842" y1="121" x2="845" y2="123" stroke="black" stroke-width="1" />
<line x1="845" y1="123" x2="849" y2="121" stroke="black" stroke-width="1" />
<rect x="746" y="119" width="36" height="5" style="fill:#f5b024;stroke:black;stroke-width:1;fill-opacity:1;stroke-opacity:0.3" />
<line x1="783" y1="121" x2="841" y2="121" stroke="pink" stroke-width="1" />
<rect x="841" y="119" width="0" height="5" style="fill:#f5b024;stroke:black;stroke-width:1;fill-opacity:1;stroke-opacity:0.3" />
<rect x="849" y="119" width="30" height="5" style="fill:#f5b024;stroke:black;stroke-width:1;fill-opacity:1;stroke-opacity:0.3" />
<line x1="879" y1="121" x2="908" y2="121" stroke="pink" stroke-width="1" />
<rect x="908" y="119" width="7" height="5" style="fill:#f5b024;stroke:black;stroke-width:1;fill-opacity:1;stroke-opacity:0.3" />
<line x1="845" y1="37" x2="847" y2="39" stroke="black" stroke-width="1" />
<line x1="847" y1="39" x2="849" y2="37" stroke="black" stroke-width="1" />
<rect x="750" y="35" width="32" height="5" style="fill:#f5b024;stroke:black;stroke-width:1;fill-opacity:1;stroke-opacity:0.3" />
<line x1="783" y1="37" x2="841" y2="37" stroke="pink" stroke-width="1" />
<rect x="841" y="35" width="4" height="5" style="fill:#f5b024;stroke:black;stroke-width:1;fill-opacity:1;stroke-opacity:0.3" />
<rect x="849" y="35" width="29" height="5" style="fill:#f5b024;stroke:black;stroke-width:1;fill-opacity:1;stroke-opacity:0.3" />
<line x1="879" y1="37" x2="908" y2="37" stroke="pink" stroke-width="1" />
<rect x="908" y="35" width="7" height="5" style="fill:#f5b024;stroke:black;stroke-width:1;fill-opacity:1;stroke-opacity:0.3" />
<line x1="862" y1="51" x2="867" y2="53" stroke="black" stroke-width="1" />
<line x1="867" y1="53" x2="873" y2="51" stroke="black" stroke-width="1" />
<rect x="767" y="49" width="16" height="5" style="fill:#f5b024;stroke:black;stroke-width:1;fill-opacity:1;stroke-opacity:0.3" />
<line x1="783" y1="51" x2="841" y2="51" stroke="pink" stroke-width="1" />
<rect x="841" y="49" width="21" height="5" style="fill:#f5b024;stroke:black;stroke-width:1;fill-opacity:1;stroke-opacity:0.3" />
<rect x="873" y="49" width="37" height="5" style="fill:#f5b024;stroke:black;stroke-width:1;fill-opacity:1;stroke-opacity:0.3" />
<line x1="864" y1="58" x2="870" y2="60" stroke="black" stroke-width="1" />
<line x1="870" y1="60" x2="877" y2="58" stroke="black" stroke-width="1" />
<rect x="768" y="56" width="14" height="5" style="fill:#f5b024;stroke:black;stroke-width:1;fill-opacity:1;stroke-opacity:0.3" />
<line x1="783" y1="58" x2="841" y2="58" stroke="pink" stroke-width="1" />
<rect x="841" y="56" width="22" height="5" style="fill:#f5b024;stroke:black;stroke-width:1;fill-opacity:1;stroke-opacity:0.3" />
<rect x="877" y="56" width="37" height="5" style="fill:#f5b024;stroke:black;stroke-width:1;fill-opacity:1;stroke-opacity:0.3" />
<line x1="864" y1="72" x2="870" y2="74" stroke="black" stroke-width="1" />
<line x1="870" y1="74" x2="877" y2="72" stroke="black" stroke-width="1" />
<rect x="769" y="70" width="14" height="5" style="fill:#f5b024;stroke:black;stroke-width:1;fill-opacity:1;stroke-opacity:0.3" />
<line x1="783" y1="72" x2="841" y2="72" stroke="pink" stroke-width="1" />
<rect x="841" y="70" width="23" height="5" style="fill:#f5b024;stroke:black;stroke-width:1;fill-opacity:1;stroke-opacity:0.3" />
<rect x="877" y="70" width="37" height="5" style="fill:#f5b024;stroke:black;stroke-width:1;fill-opacity:1;stroke-opacity:0.3" />
<line x1="864" y1="79" x2="866" y2="81" stroke="black" stroke-width="1" />
<line x1="866" y1="81" x2="869" y2="79" stroke="black" stroke-width="1" />
<rect x="769" y="77" width="13" height="5" style="fill:#f5b024;stroke:black;stroke-width:1;fill-opacity:1;stroke-opacity:0.3" />
<line x1="783" y1="79" x2="841" y2="79" stroke="pink" stroke-width="1" />
<rect x="841" y="77" width="23" height="5" style="fill:#f5b024;stroke:black;stroke-width:1;fill-opacity:1;stroke-opacity:0.3" />
<rect x="869" y="77" width="37" height="5" style="fill:#f5b024;stroke:black;stroke-width:1;fill-opacity:1;stroke-opacity:0.3" />
<line x1="866" y1="142" x2="870" y2="144" stroke="black" stroke-width="1" />
<line x1="870" y1="144" x2="874" y2="142" stroke="black" stroke-width="1" />
<rect x="771" y="140" width="11" height="5" style="fill:#f5b024;stroke:black;stroke-width:1;fill-opacity:1;stroke-opacity:0.3" />
<line x1="783" y1="142" x2="841" y2="142" stroke="pink" stroke-width="1" />
<rect x="841" y="140" width="25" height="5" style="fill:#f5b024;stroke:black;stroke-width:1;fill-opacity:1;stroke-opacity:0.3" />
<rect x="874" y="140" width="37" height="5" style="fill:#f5b024;stroke:black;stroke-width:1;fill-opacity:1;stroke-opacity:0.3" />
<line x1="866" y1="149" x2="869" y2="151" stroke="black" stroke-width="1" />
<line x1="869" y1="151" x2="873" y2="149" stroke="black" stroke-width="1" />
<rect x="771" y="147" width="11" height="5" style="fill:#f5b024;stroke:black;stroke-width:1;fill-opacity:1;stroke-opacity:0.3" />
<line x1="783" y1="149" x2="841" y2="149" stroke="pink" stroke-width="1" />
<rect x="841" y="147" width="25" height="5" style="fill:#f5b024;stroke:black;stroke-width:1;fill-opacity:1;stroke-opacity:0.3" />
<rect x="873" y="147" width="37" height="5" style="fill:#f5b024;stroke:black;stroke-width:1;fill-opacity:1;stroke-opacity:0.3" />
<line x1="934" y1="44" x2="936" y2="46" stroke="black" stroke-width="1" />
<line x1="936" y1="46" x2="938" y2="44" stroke="black" stroke-width="1" />
<rect x="868" y="42" width="11" height="5" style="fill:#f5b024;stroke:black;stroke-width:1;fill-opacity:1;stroke-opacity:0.3" />
<line x1="879" y1="44" x2="908" y2="44" stroke="pink" stroke-width="1" />
<rect x="908" y="42" width="26" height="5" style="fill:#f5b024;stroke:black;stroke-width:1;fill-opacity:1;stroke-opacity:0.3" />
<rect x="938" y="42" width="37" height="5" style="fill:#f5b024;stroke:black;stroke-width:1;fill-opacity:1;stroke-opacity:0.3" />
<text x="15"  y="176" style="font-family:Arial;font-size:10;stroke:black;fill:black;">all.merged.bam</text>
</svg>
    
