<?xml version="1.0" encoding="utf-8" standalone="no"?>
<!DOCTYPE svg PUBLIC "-//W3C//DTD SVG 1.1//EN"
  "http://www.w3.org/Graphics/SVG/1.1/DTD/svg11.dtd">
<svg height="1140" width="1000" version="1.1" viewBox="0 0 1000 1140" xmlns="http://www.w3.org/2000/svg" xmlns:xlink="http://www.w3.org/1999/xlink">
<line x1="14" y1="11" x2="985" y2="11" stroke="black" stroke-width="1" />
<rect x="14" y="9" width="225" height="5" style="fill:#f50002;stroke:black;stroke-width:1;fill-opacity:1;stroke-opacity:0.3" />
<rect x="239" y="9" width="329" height="5" style="fill:#53a1b5;stroke:black;stroke-width:1;fill-opacity:1;stroke-opacity:0.3" />
<rect x="588" y="9" width="45" height="5" style="fill:#53a1b5;stroke:black;stroke-width:1;fill-opacity:1;stroke-opacity:0.3" />
<rect x="651" y="9" width="35" height="5" style="fill:#53a1b5;stroke:black;stroke-width:1;fill-opacity:1;stroke-opacity:0.3" />
<rect x="706" y="9" width="21" height="5" style="fill:#53a1b5;stroke:black;stroke-width:1;fill-opacity:1;stroke-opacity:0.3" />
<rect x="750" y="9" width="17" height="5" style="fill:#53a1b5;stroke:black;stroke-width:1;fill-opacity:1;stroke-opacity:0.3" />
<rect x="823" y="9" width="36" height="5" style="fill:#53a1b5;stroke:black;stroke-width:1;fill-opacity:1;stroke-opacity:0.3" />
<rect x="882" y="9" width="0" height="5" style="fill:#53a1b5;stroke:black;stroke-width:1;fill-opacity:1;stroke-opacity:0.3" />
<rect x="882" y="9" width="102" height="5" style="fill:#f50002;stroke:black;stroke-width:1;fill-opacity:1;stroke-opacity:0.3" />
<text x="14"  y="23" style="font-family:Arial;font-size:10;stroke:black;fill:black;">Cre01.g019550.t1.2.v5.5 (-) chromosome_1:3133273-3139895</text>
<line x1="37" y1="30" x2="39" y2="32" stroke="black" stroke-width="1" />
<line x1="39" y1="32" x2="42" y2="30" stroke="black" stroke-width="1" />
<rect x="23" y="28" width="14" height="5" style="fill:#f5b024;stroke:black;stroke-width:1;fill-opacity:1;stroke-opacity:0.3" />
<rect x="42" y="28" width="14" height="5" style="fill:#f5b024;stroke:black;stroke-width:1;fill-opacity:1;stroke-opacity:0.3" />
<line x1="51" y1="37" x2="52" y2="39" stroke="black" stroke-width="1" />
<line x1="52" y1="39" x2="53" y2="37" stroke="black" stroke-width="1" />
<rect x="29" y="35" width="21" height="5" style="fill:#f5b024;stroke:black;stroke-width:1;fill-opacity:1;stroke-opacity:0.3" />
<rect x="53" y="35" width="21" height="5" style="fill:#f5b024;stroke:black;stroke-width:1;fill-opacity:1;stroke-opacity:0.3" />
<line x1="44" y1="44" x2="55" y2="46" stroke="black" stroke-width="1" />
<line x1="55" y1="46" x2="67" y2="44" stroke="black" stroke-width="1" />
<rect x="30" y="42" width="14" height="5" style="fill:#f5b024;stroke:black;stroke-width:1;fill-opacity:1;stroke-opacity:0.3" />
<rect x="67" y="42" width="14" height="5" style="fill:#f5b024;stroke:black;stroke-width:1;fill-opacity:1;stroke-opacity:0.3" />
<line x1="44" y1="51" x2="45" y2="53" stroke="black" stroke-width="1" />
<line x1="45" y1="53" x2="47" y2="51" stroke="black" stroke-width="1" />
<rect x="30" y="49" width="14" height="5" style="fill:#f5b024;stroke:black;stroke-width:1;fill-opacity:1;stroke-opacity:0.3" />
<rect x="47" y="49" width="14" height="5" style="fill:#f5b024;stroke:black;stroke-width:1;fill-opacity:1;stroke-opacity:0.3" />
<line x1="45" y1="58" x2="46" y2="60" stroke="black" stroke-width="1" />
<line x1="46" y1="60" x2="48" y2="58" stroke="black" stroke-width="1" />
<rect x="30" y="56" width="14" height="5" style="fill:#f5b024;stroke:black;stroke-width:1;fill-opacity:1;stroke-opacity:0.3" />
<rect x="48" y="56" width="14" height="5" style="fill:#f5b024;stroke:black;stroke-width:1;fill-opacity:1;stroke-opacity:0.3" />
<line x1="49" y1="65" x2="51" y2="67" stroke="black" stroke-width="1" />
<line x1="51" y1="67" x2="54" y2="65" stroke="black" stroke-width="1" />
<rect x="34" y="63" width="14" height="5" style="fill:#f5b024;stroke:black;stroke-width:1;fill-opacity:1;stroke-opacity:0.3" />
<rect x="54" y="63" width="14" height="5" style="fill:#f5b024;stroke:black;stroke-width:1;fill-opacity:1;stroke-opacity:0.3" />
<line x1="64" y1="72" x2="68" y2="74" stroke="black" stroke-width="1" />
<line x1="68" y1="74" x2="72" y2="72" stroke="black" stroke-width="1" />
<rect x="49" y="70" width="14" height="5" style="fill:#f5b024;stroke:black;stroke-width:1;fill-opacity:1;stroke-opacity:0.3" />
<rect x="72" y="70" width="14" height="5" style="fill:#f5b024;stroke:black;stroke-width:1;fill-opacity:1;stroke-opacity:0.3" />
<line x1="74" y1="79" x2="75" y2="81" stroke="black" stroke-width="1" />
<line x1="75" y1="81" x2="76" y2="79" stroke="black" stroke-width="1" />
<rect x="52" y="77" width="21" height="5" style="fill:#f5b024;stroke:black;stroke-width:1;fill-opacity:1;stroke-opacity:0.3" />
<rect x="76" y="77" width="21" height="5" style="fill:#f5b024;stroke:black;stroke-width:1;fill-opacity:1;stroke-opacity:0.3" />
<line x1="76" y1="30" x2="77" y2="32" stroke="black" stroke-width="1" />
<line x1="77" y1="32" x2="79" y2="30" stroke="black" stroke-width="1" />
<rect x="62" y="28" width="14" height="5" style="fill:#f5b024;stroke:black;stroke-width:1;fill-opacity:1;stroke-opacity:0.3" />
<rect x="79" y="28" width="14" height="5" style="fill:#f5b024;stroke:black;stroke-width:1;fill-opacity:1;stroke-opacity:0.3" />
<line x1="78" y1="51" x2="79" y2="53" stroke="black" stroke-width="1" />
<line x1="79" y1="53" x2="80" y2="51" stroke="black" stroke-width="1" />
<rect x="63" y="49" width="14" height="5" style="fill:#f5b024;stroke:black;stroke-width:1;fill-opacity:1;stroke-opacity:0.3" />
<rect x="80" y="49" width="14" height="5" style="fill:#f5b024;stroke:black;stroke-width:1;fill-opacity:1;stroke-opacity:0.3" />
<line x1="78" y1="58" x2="80" y2="60" stroke="black" stroke-width="1" />
<line x1="80" y1="60" x2="83" y2="58" stroke="black" stroke-width="1" />
<rect x="63" y="56" width="14" height="5" style="fill:#f5b024;stroke:black;stroke-width:1;fill-opacity:1;stroke-opacity:0.3" />
<rect x="83" y="56" width="14" height="5" style="fill:#f5b024;stroke:black;stroke-width:1;fill-opacity:1;stroke-opacity:0.3" />
<line x1="78" y1="86" x2="80" y2="88" stroke="black" stroke-width="1" />
<line x1="80" y1="88" x2="82" y2="86" stroke="black" stroke-width="1" />
<rect x="63" y="84" width="14" height="5" style="fill:#f5b024;stroke:black;stroke-width:1;fill-opacity:1;stroke-opacity:0.3" />
<rect x="82" y="84" width="14" height="5" style="fill:#f5b024;stroke:black;stroke-width:1;fill-opacity:1;stroke-opacity:0.3" />
<line x1="91" y1="37" x2="96" y2="39" stroke="black" stroke-width="1" />
<line x1="96" y1="39" x2="102" y2="37" stroke="black" stroke-width="1" />
<rect x="77" y="35" width="14" height="5" style="fill:#f5b024;stroke:black;stroke-width:1;fill-opacity:1;stroke-opacity:0.3" />
<rect x="102" y="35" width="14" height="5" style="fill:#f5b024;stroke:black;stroke-width:1;fill-opacity:1;stroke-opacity:0.3" />
<line x1="95" y1="65" x2="96" y2="67" stroke="black" stroke-width="1" />
<line x1="96" y1="67" x2="97" y2="65" stroke="black" stroke-width="1" />
<rect x="80" y="63" width="14" height="5" style="fill:#f5b024;stroke:black;stroke-width:1;fill-opacity:1;stroke-opacity:0.3" />
<rect x="97" y="63" width="12" height="5" style="fill:#f5b024;stroke:black;stroke-width:1;fill-opacity:1;stroke-opacity:0.3" />
<line x1="100" y1="44" x2="108" y2="46" stroke="black" stroke-width="1" />
<line x1="108" y1="46" x2="116" y2="44" stroke="black" stroke-width="1" />
<rect x="85" y="42" width="14" height="5" style="fill:#f5b024;stroke:black;stroke-width:1;fill-opacity:1;stroke-opacity:0.3" />
<rect x="116" y="42" width="14" height="5" style="fill:#f5b024;stroke:black;stroke-width:1;fill-opacity:1;stroke-opacity:0.3" />
<line x1="104" y1="72" x2="106" y2="74" stroke="black" stroke-width="1" />
<line x1="106" y1="74" x2="109" y2="72" stroke="black" stroke-width="1" />
<rect x="89" y="70" width="14" height="5" style="fill:#f5b024;stroke:black;stroke-width:1;fill-opacity:1;stroke-opacity:0.3" />
<rect x="109" y="70" width="14" height="5" style="fill:#f5b024;stroke:black;stroke-width:1;fill-opacity:1;stroke-opacity:0.3" />
<line x1="104" y1="93" x2="106" y2="95" stroke="black" stroke-width="1" />
<line x1="106" y1="95" x2="109" y2="93" stroke="black" stroke-width="1" />
<rect x="89" y="91" width="14" height="5" style="fill:#5d3c2d;stroke:black;stroke-width:1;fill-opacity:1;stroke-opacity:0.3" />
<rect x="109" y="91" width="14" height="5" style="fill:#5d3c2d;stroke:black;stroke-width:1;fill-opacity:1;stroke-opacity:0.3" />
<line x1="112" y1="30" x2="114" y2="32" stroke="black" stroke-width="1" />
<line x1="114" y1="32" x2="117" y2="30" stroke="black" stroke-width="1" />
<rect x="97" y="28" width="14" height="5" style="fill:#f5b024;stroke:black;stroke-width:1;fill-opacity:1;stroke-opacity:0.3" />
<rect x="117" y="28" width="14" height="5" style="fill:#f5b024;stroke:black;stroke-width:1;fill-opacity:1;stroke-opacity:0.3" />
<line x1="112" y1="51" x2="114" y2="53" stroke="black" stroke-width="1" />
<line x1="114" y1="53" x2="116" y2="51" stroke="black" stroke-width="1" />
<rect x="97" y="49" width="14" height="5" style="fill:#f5b024;stroke:black;stroke-width:1;fill-opacity:1;stroke-opacity:0.3" />
<rect x="116" y="49" width="14" height="5" style="fill:#f5b024;stroke:black;stroke-width:1;fill-opacity:1;stroke-opacity:0.3" />
<line x1="124" y1="58" x2="126" y2="60" stroke="black" stroke-width="1" />
<line x1="126" y1="60" x2="129" y2="58" stroke="black" stroke-width="1" />
<rect x="110" y="56" width="14" height="5" style="fill:#f5b024;stroke:black;stroke-width:1;fill-opacity:1;stroke-opacity:0.3" />
<rect x="129" y="56" width="14" height="5" style="fill:#f5b024;stroke:black;stroke-width:1;fill-opacity:1;stroke-opacity:0.3" />
<line x1="124" y1="79" x2="126" y2="81" stroke="black" stroke-width="1" />
<line x1="126" y1="81" x2="129" y2="79" stroke="black" stroke-width="1" />
<rect x="110" y="77" width="14" height="5" style="fill:#f5b024;stroke:black;stroke-width:1;fill-opacity:1;stroke-opacity:0.3" />
<rect x="129" y="77" width="14" height="5" style="fill:#f5b024;stroke:black;stroke-width:1;fill-opacity:1;stroke-opacity:0.3" />
<line x1="135" y1="37" x2="137" y2="39" stroke="black" stroke-width="1" />
<line x1="137" y1="39" x2="139" y2="37" stroke="black" stroke-width="1" />
<rect x="120" y="35" width="14" height="5" style="fill:#f5b024;stroke:black;stroke-width:1;fill-opacity:1;stroke-opacity:0.3" />
<rect x="139" y="35" width="14" height="5" style="fill:#f5b024;stroke:black;stroke-width:1;fill-opacity:1;stroke-opacity:0.3" />
<line x1="142" y1="65" x2="145" y2="67" stroke="black" stroke-width="1" />
<line x1="145" y1="67" x2="148" y2="65" stroke="black" stroke-width="1" />
<rect x="128" y="63" width="14" height="5" style="fill:#f5b024;stroke:black;stroke-width:1;fill-opacity:1;stroke-opacity:0.3" />
<rect x="148" y="63" width="14" height="5" style="fill:#f5b024;stroke:black;stroke-width:1;fill-opacity:1;stroke-opacity:0.3" />
<line x1="148" y1="30" x2="155" y2="32" stroke="black" stroke-width="1" />
<line x1="155" y1="32" x2="162" y2="30" stroke="black" stroke-width="1" />
<rect x="133" y="28" width="14" height="5" style="fill:#f5b024;stroke:black;stroke-width:1;fill-opacity:1;stroke-opacity:0.3" />
<rect x="162" y="28" width="14" height="5" style="fill:#f5b024;stroke:black;stroke-width:1;fill-opacity:1;stroke-opacity:0.3" />
<line x1="151" y1="44" x2="152" y2="46" stroke="black" stroke-width="1" />
<line x1="152" y1="46" x2="153" y2="44" stroke="black" stroke-width="1" />
<rect x="136" y="42" width="14" height="5" style="fill:#f5b024;stroke:black;stroke-width:1;fill-opacity:1;stroke-opacity:0.3" />
<rect x="153" y="42" width="14" height="5" style="fill:#f5b024;stroke:black;stroke-width:1;fill-opacity:1;stroke-opacity:0.3" />
<line x1="170" y1="37" x2="174" y2="39" stroke="black" stroke-width="1" />
<line x1="174" y1="39" x2="179" y2="37" stroke="black" stroke-width="1" />
<rect x="156" y="35" width="14" height="5" style="fill:#f5b024;stroke:black;stroke-width:1;fill-opacity:1;stroke-opacity:0.3" />
<rect x="179" y="35" width="14" height="5" style="fill:#f5b024;stroke:black;stroke-width:1;fill-opacity:1;stroke-opacity:0.3" />
<line x1="178" y1="51" x2="179" y2="53" stroke="black" stroke-width="1" />
<line x1="179" y1="53" x2="181" y2="51" stroke="black" stroke-width="1" />
<rect x="164" y="49" width="14" height="5" style="fill:#f5b024;stroke:black;stroke-width:1;fill-opacity:1;stroke-opacity:0.3" />
<rect x="181" y="49" width="14" height="5" style="fill:#f5b024;stroke:black;stroke-width:1;fill-opacity:1;stroke-opacity:0.3" />
<line x1="182" y1="44" x2="185" y2="46" stroke="black" stroke-width="1" />
<line x1="185" y1="46" x2="189" y2="44" stroke="black" stroke-width="1" />
<rect x="168" y="42" width="14" height="5" style="fill:#f5b024;stroke:black;stroke-width:1;fill-opacity:1;stroke-opacity:0.3" />
<rect x="189" y="42" width="14" height="5" style="fill:#f5b024;stroke:black;stroke-width:1;fill-opacity:1;stroke-opacity:0.3" />
<line x1="184" y1="58" x2="188" y2="60" stroke="black" stroke-width="1" />
<line x1="188" y1="60" x2="192" y2="58" stroke="black" stroke-width="1" />
<rect x="170" y="56" width="14" height="5" style="fill:#f5b024;stroke:black;stroke-width:1;fill-opacity:1;stroke-opacity:0.3" />
<rect x="192" y="56" width="14" height="5" style="fill:#f5b024;stroke:black;stroke-width:1;fill-opacity:1;stroke-opacity:0.3" />
<line x1="191" y1="30" x2="192" y2="32" stroke="black" stroke-width="1" />
<line x1="192" y1="32" x2="194" y2="30" stroke="black" stroke-width="1" />
<rect x="177" y="28" width="14" height="5" style="fill:#f5b024;stroke:black;stroke-width:1;fill-opacity:1;stroke-opacity:0.3" />
<rect x="194" y="28" width="14" height="5" style="fill:#f5b024;stroke:black;stroke-width:1;fill-opacity:1;stroke-opacity:0.3" />
<line x1="194" y1="65" x2="197" y2="67" stroke="black" stroke-width="1" />
<line x1="197" y1="67" x2="200" y2="65" stroke="black" stroke-width="1" />
<rect x="179" y="63" width="14" height="5" style="fill:#f5b024;stroke:black;stroke-width:1;fill-opacity:1;stroke-opacity:0.3" />
<rect x="200" y="63" width="14" height="5" style="fill:#f5b024;stroke:black;stroke-width:1;fill-opacity:1;stroke-opacity:0.3" />
<line x1="198" y1="72" x2="200" y2="74" stroke="black" stroke-width="1" />
<line x1="200" y1="74" x2="203" y2="72" stroke="black" stroke-width="1" />
<rect x="183" y="70" width="14" height="5" style="fill:#f5b024;stroke:black;stroke-width:1;fill-opacity:1;stroke-opacity:0.3" />
<rect x="203" y="70" width="14" height="5" style="fill:#f5b024;stroke:black;stroke-width:1;fill-opacity:1;stroke-opacity:0.3" />
<line x1="198" y1="79" x2="199" y2="81" stroke="black" stroke-width="1" />
<line x1="199" y1="81" x2="200" y2="79" stroke="black" stroke-width="1" />
<rect x="183" y="77" width="14" height="5" style="fill:#5d3c2d;stroke:black;stroke-width:1;fill-opacity:1;stroke-opacity:0.3" />
<rect x="200" y="77" width="14" height="5" style="fill:#5d3c2d;stroke:black;stroke-width:1;fill-opacity:1;stroke-opacity:0.3" />
<line x1="209" y1="86" x2="210" y2="88" stroke="black" stroke-width="1" />
<line x1="210" y1="88" x2="211" y2="86" stroke="black" stroke-width="1" />
<rect x="187" y="84" width="21" height="5" style="fill:#f5b024;stroke:black;stroke-width:1;fill-opacity:1;stroke-opacity:0.3" />
<rect x="211" y="84" width="21" height="5" style="fill:#f5b024;stroke:black;stroke-width:1;fill-opacity:1;stroke-opacity:0.3" />
<line x1="205" y1="93" x2="208" y2="95" stroke="black" stroke-width="1" />
<line x1="208" y1="95" x2="212" y2="93" stroke="black" stroke-width="1" />
<rect x="191" y="91" width="14" height="5" style="fill:#f5b024;stroke:black;stroke-width:1;fill-opacity:1;stroke-opacity:0.3" />
<rect x="212" y="91" width="14" height="5" style="fill:#f5b024;stroke:black;stroke-width:1;fill-opacity:1;stroke-opacity:0.3" />
<line x1="208" y1="100" x2="209" y2="102" stroke="black" stroke-width="1" />
<line x1="209" y1="102" x2="211" y2="100" stroke="black" stroke-width="1" />
<rect x="193" y="98" width="14" height="5" style="fill:#f5b024;stroke:black;stroke-width:1;fill-opacity:1;stroke-opacity:0.3" />
<rect x="211" y="98" width="14" height="5" style="fill:#f5b024;stroke:black;stroke-width:1;fill-opacity:1;stroke-opacity:0.3" />
<line x1="217" y1="37" x2="218" y2="39" stroke="black" stroke-width="1" />
<line x1="218" y1="39" x2="219" y2="37" stroke="black" stroke-width="1" />
<rect x="203" y="35" width="14" height="5" style="fill:#f5b024;stroke:black;stroke-width:1;fill-opacity:1;stroke-opacity:0.3" />
<rect x="219" y="35" width="14" height="5" style="fill:#f5b024;stroke:black;stroke-width:1;fill-opacity:1;stroke-opacity:0.3" />
<line x1="217" y1="51" x2="221" y2="53" stroke="black" stroke-width="1" />
<line x1="221" y1="53" x2="225" y2="51" stroke="black" stroke-width="1" />
<rect x="203" y="49" width="14" height="5" style="fill:#f5b024;stroke:black;stroke-width:1;fill-opacity:1;stroke-opacity:0.3" />
<rect x="225" y="49" width="14" height="5" style="fill:#f5b024;stroke:black;stroke-width:1;fill-opacity:1;stroke-opacity:0.3" />
<line x1="218" y1="107" x2="222" y2="109" stroke="black" stroke-width="1" />
<line x1="222" y1="109" x2="226" y2="107" stroke="black" stroke-width="1" />
<rect x="203" y="105" width="14" height="5" style="fill:#f5b024;stroke:black;stroke-width:1;fill-opacity:1;stroke-opacity:0.3" />
<rect x="226" y="105" width="14" height="5" style="fill:#f5b024;stroke:black;stroke-width:1;fill-opacity:1;stroke-opacity:0.3" />
<line x1="227" y1="30" x2="227" y2="32" stroke="black" stroke-width="1" />
<line x1="227" y1="32" x2="228" y2="30" stroke="black" stroke-width="1" />
<rect x="212" y="28" width="14" height="5" style="fill:#f5b024;stroke:black;stroke-width:1;fill-opacity:1;stroke-opacity:0.3" />
<rect x="228" y="28" width="14" height="5" style="fill:#f5b024;stroke:black;stroke-width:1;fill-opacity:1;stroke-opacity:0.3" />
<line x1="233" y1="44" x2="234" y2="46" stroke="black" stroke-width="1" />
<line x1="234" y1="46" x2="236" y2="44" stroke="black" stroke-width="1" />
<rect x="218" y="42" width="14" height="5" style="fill:#f5b024;stroke:black;stroke-width:1;fill-opacity:1;stroke-opacity:0.3" />
<rect x="236" y="42" width="14" height="5" style="fill:#f5b024;stroke:black;stroke-width:1;fill-opacity:1;stroke-opacity:0.3" />
<line x1="245" y1="58" x2="248" y2="60" stroke="black" stroke-width="1" />
<line x1="248" y1="60" x2="251" y2="58" stroke="black" stroke-width="1" />
<rect x="231" y="56" width="14" height="5" style="fill:#f5b024;stroke:black;stroke-width:1;fill-opacity:1;stroke-opacity:0.3" />
<rect x="251" y="56" width="14" height="5" style="fill:#f5b024;stroke:black;stroke-width:1;fill-opacity:1;stroke-opacity:0.3" />
<line x1="253" y1="37" x2="254" y2="39" stroke="black" stroke-width="1" />
<line x1="254" y1="39" x2="255" y2="37" stroke="black" stroke-width="1" />
<rect x="239" y="35" width="14" height="5" style="fill:#f5b024;stroke:black;stroke-width:1;fill-opacity:1;stroke-opacity:0.3" />
<rect x="255" y="35" width="14" height="5" style="fill:#f5b024;stroke:black;stroke-width:1;fill-opacity:1;stroke-opacity:0.3" />
<line x1="291" y1="30" x2="293" y2="32" stroke="black" stroke-width="1" />
<line x1="293" y1="32" x2="296" y2="30" stroke="black" stroke-width="1" />
<rect x="277" y="28" width="14" height="5" style="fill:#f5b024;stroke:black;stroke-width:1;fill-opacity:1;stroke-opacity:0.3" />
<rect x="296" y="28" width="14" height="5" style="fill:#f5b024;stroke:black;stroke-width:1;fill-opacity:1;stroke-opacity:0.3" />
<line x1="291" y1="37" x2="293" y2="39" stroke="black" stroke-width="1" />
<line x1="293" y1="39" x2="296" y2="37" stroke="black" stroke-width="1" />
<rect x="277" y="35" width="14" height="5" style="fill:#f5b024;stroke:black;stroke-width:1;fill-opacity:1;stroke-opacity:0.3" />
<rect x="296" y="35" width="14" height="5" style="fill:#f5b024;stroke:black;stroke-width:1;fill-opacity:1;stroke-opacity:0.3" />
<line x1="291" y1="44" x2="298" y2="46" stroke="black" stroke-width="1" />
<line x1="298" y1="46" x2="306" y2="44" stroke="black" stroke-width="1" />
<rect x="277" y="42" width="14" height="5" style="fill:#f5b024;stroke:black;stroke-width:1;fill-opacity:1;stroke-opacity:0.3" />
<rect x="306" y="42" width="14" height="5" style="fill:#f5b024;stroke:black;stroke-width:1;fill-opacity:1;stroke-opacity:0.3" />
<line x1="301" y1="51" x2="307" y2="53" stroke="black" stroke-width="1" />
<line x1="307" y1="53" x2="313" y2="51" stroke="black" stroke-width="1" />
<rect x="286" y="49" width="14" height="5" style="fill:#f5b024;stroke:black;stroke-width:1;fill-opacity:1;stroke-opacity:0.3" />
<rect x="313" y="49" width="14" height="5" style="fill:#f5b024;stroke:black;stroke-width:1;fill-opacity:1;stroke-opacity:0.3" />
<line x1="319" y1="58" x2="320" y2="60" stroke="black" stroke-width="1" />
<line x1="320" y1="60" x2="322" y2="58" stroke="black" stroke-width="1" />
<rect x="304" y="56" width="14" height="5" style="fill:#f5b024;stroke:black;stroke-width:1;fill-opacity:1;stroke-opacity:0.3" />
<rect x="322" y="56" width="14" height="5" style="fill:#f5b024;stroke:black;stroke-width:1;fill-opacity:1;stroke-opacity:0.3" />
<line x1="320" y1="65" x2="321" y2="67" stroke="black" stroke-width="1" />
<line x1="321" y1="67" x2="322" y2="65" stroke="black" stroke-width="1" />
<rect x="305" y="63" width="14" height="5" style="fill:#f5b024;stroke:black;stroke-width:1;fill-opacity:1;stroke-opacity:0.3" />
<rect x="322" y="63" width="14" height="5" style="fill:#f5b024;stroke:black;stroke-width:1;fill-opacity:1;stroke-opacity:0.3" />
<line x1="327" y1="30" x2="331" y2="32" stroke="black" stroke-width="1" />
<line x1="331" y1="32" x2="336" y2="30" stroke="black" stroke-width="1" />
<rect x="312" y="28" width="14" height="5" style="fill:#f5b024;stroke:black;stroke-width:1;fill-opacity:1;stroke-opacity:0.3" />
<rect x="336" y="28" width="14" height="5" style="fill:#f5b024;stroke:black;stroke-width:1;fill-opacity:1;stroke-opacity:0.3" />
<line x1="328" y1="37" x2="331" y2="39" stroke="black" stroke-width="1" />
<line x1="331" y1="39" x2="335" y2="37" stroke="black" stroke-width="1" />
<rect x="313" y="35" width="14" height="5" style="fill:#f5b024;stroke:black;stroke-width:1;fill-opacity:1;stroke-opacity:0.3" />
<rect x="335" y="35" width="14" height="5" style="fill:#f5b024;stroke:black;stroke-width:1;fill-opacity:1;stroke-opacity:0.3" />
<line x1="338" y1="44" x2="340" y2="46" stroke="black" stroke-width="1" />
<line x1="340" y1="46" x2="343" y2="44" stroke="black" stroke-width="1" />
<rect x="323" y="42" width="14" height="5" style="fill:#f5b024;stroke:black;stroke-width:1;fill-opacity:1;stroke-opacity:0.3" />
<rect x="343" y="42" width="14" height="5" style="fill:#f5b024;stroke:black;stroke-width:1;fill-opacity:1;stroke-opacity:0.3" />
<line x1="341" y1="72" x2="343" y2="74" stroke="black" stroke-width="1" />
<line x1="343" y1="74" x2="345" y2="72" stroke="black" stroke-width="1" />
<rect x="326" y="70" width="14" height="5" style="fill:#f5b024;stroke:black;stroke-width:1;fill-opacity:1;stroke-opacity:0.3" />
<rect x="345" y="70" width="14" height="5" style="fill:#f5b024;stroke:black;stroke-width:1;fill-opacity:1;stroke-opacity:0.3" />
<line x1="341" y1="79" x2="343" y2="81" stroke="black" stroke-width="1" />
<line x1="343" y1="81" x2="345" y2="79" stroke="black" stroke-width="1" />
<rect x="327" y="77" width="14" height="5" style="fill:#f5b024;stroke:black;stroke-width:1;fill-opacity:1;stroke-opacity:0.3" />
<rect x="345" y="77" width="14" height="5" style="fill:#f5b024;stroke:black;stroke-width:1;fill-opacity:1;stroke-opacity:0.3" />
<line x1="342" y1="51" x2="343" y2="53" stroke="black" stroke-width="1" />
<line x1="343" y1="53" x2="345" y2="51" stroke="black" stroke-width="1" />
<rect x="328" y="49" width="14" height="5" style="fill:#5d3c2d;stroke:black;stroke-width:1;fill-opacity:1;stroke-opacity:0.3" />
<rect x="345" y="49" width="14" height="5" style="fill:#5d3c2d;stroke:black;stroke-width:1;fill-opacity:1;stroke-opacity:0.3" />
<line x1="342" y1="86" x2="343" y2="88" stroke="black" stroke-width="1" />
<line x1="343" y1="88" x2="345" y2="86" stroke="black" stroke-width="1" />
<rect x="328" y="84" width="14" height="5" style="fill:#f5b024;stroke:black;stroke-width:1;fill-opacity:1;stroke-opacity:0.3" />
<rect x="345" y="84" width="14" height="5" style="fill:#f5b024;stroke:black;stroke-width:1;fill-opacity:1;stroke-opacity:0.3" />
<line x1="346" y1="93" x2="348" y2="95" stroke="black" stroke-width="1" />
<line x1="348" y1="95" x2="351" y2="93" stroke="black" stroke-width="1" />
<rect x="331" y="91" width="14" height="5" style="fill:#f5b024;stroke:black;stroke-width:1;fill-opacity:1;stroke-opacity:0.3" />
<rect x="351" y="91" width="14" height="5" style="fill:#f5b024;stroke:black;stroke-width:1;fill-opacity:1;stroke-opacity:0.3" />
<line x1="349" y1="100" x2="351" y2="102" stroke="black" stroke-width="1" />
<line x1="351" y1="102" x2="353" y2="100" stroke="black" stroke-width="1" />
<rect x="335" y="98" width="14" height="5" style="fill:#f5b024;stroke:black;stroke-width:1;fill-opacity:1;stroke-opacity:0.3" />
<rect x="353" y="98" width="14" height="5" style="fill:#f5b024;stroke:black;stroke-width:1;fill-opacity:1;stroke-opacity:0.3" />
<line x1="350" y1="107" x2="351" y2="109" stroke="black" stroke-width="1" />
<line x1="351" y1="109" x2="353" y2="107" stroke="black" stroke-width="1" />
<rect x="336" y="105" width="14" height="5" style="fill:#f5b024;stroke:black;stroke-width:1;fill-opacity:1;stroke-opacity:0.3" />
<rect x="353" y="105" width="14" height="5" style="fill:#f5b024;stroke:black;stroke-width:1;fill-opacity:1;stroke-opacity:0.3" />
<line x1="350" y1="114" x2="351" y2="116" stroke="black" stroke-width="1" />
<line x1="351" y1="116" x2="353" y2="114" stroke="black" stroke-width="1" />
<rect x="336" y="112" width="14" height="5" style="fill:#f5b024;stroke:black;stroke-width:1;fill-opacity:1;stroke-opacity:0.3" />
<rect x="353" y="112" width="14" height="5" style="fill:#f5b024;stroke:black;stroke-width:1;fill-opacity:1;stroke-opacity:0.3" />
<line x1="368" y1="30" x2="375" y2="32" stroke="black" stroke-width="1" />
<line x1="375" y1="32" x2="383" y2="30" stroke="black" stroke-width="1" />
<rect x="353" y="28" width="14" height="5" style="fill:#f5b024;stroke:black;stroke-width:1;fill-opacity:1;stroke-opacity:0.3" />
<rect x="383" y="28" width="14" height="5" style="fill:#f5b024;stroke:black;stroke-width:1;fill-opacity:1;stroke-opacity:0.3" />
<line x1="370" y1="37" x2="371" y2="39" stroke="black" stroke-width="1" />
<line x1="371" y1="39" x2="373" y2="37" stroke="black" stroke-width="1" />
<rect x="356" y="35" width="14" height="5" style="fill:#f5b024;stroke:black;stroke-width:1;fill-opacity:1;stroke-opacity:0.3" />
<rect x="373" y="35" width="12" height="5" style="fill:#f5b024;stroke:black;stroke-width:1;fill-opacity:1;stroke-opacity:0.3" />
<line x1="380" y1="44" x2="382" y2="46" stroke="black" stroke-width="1" />
<line x1="382" y1="46" x2="385" y2="44" stroke="black" stroke-width="1" />
<rect x="365" y="42" width="14" height="5" style="fill:#f5b024;stroke:black;stroke-width:1;fill-opacity:1;stroke-opacity:0.3" />
<rect x="385" y="42" width="14" height="5" style="fill:#f5b024;stroke:black;stroke-width:1;fill-opacity:1;stroke-opacity:0.3" />
<line x1="381" y1="51" x2="385" y2="53" stroke="black" stroke-width="1" />
<line x1="385" y1="53" x2="390" y2="51" stroke="black" stroke-width="1" />
<rect x="367" y="49" width="14" height="5" style="fill:#f5b024;stroke:black;stroke-width:1;fill-opacity:1;stroke-opacity:0.3" />
<rect x="390" y="49" width="14" height="5" style="fill:#f5b024;stroke:black;stroke-width:1;fill-opacity:1;stroke-opacity:0.3" />
<line x1="384" y1="58" x2="384" y2="60" stroke="black" stroke-width="1" />
<line x1="384" y1="60" x2="385" y2="58" stroke="black" stroke-width="1" />
<rect x="370" y="56" width="13" height="5" style="fill:#f5b024;stroke:black;stroke-width:1;fill-opacity:1;stroke-opacity:0.3" />
<rect x="385" y="56" width="14" height="5" style="fill:#f5b024;stroke:black;stroke-width:1;fill-opacity:1;stroke-opacity:0.3" />
<line x1="386" y1="65" x2="387" y2="67" stroke="black" stroke-width="1" />
<line x1="387" y1="67" x2="389" y2="65" stroke="black" stroke-width="1" />
<rect x="371" y="63" width="14" height="5" style="fill:#f5b024;stroke:black;stroke-width:1;fill-opacity:1;stroke-opacity:0.3" />
<rect x="389" y="63" width="14" height="5" style="fill:#f5b024;stroke:black;stroke-width:1;fill-opacity:1;stroke-opacity:0.3" />
<line x1="402" y1="37" x2="403" y2="39" stroke="black" stroke-width="1" />
<line x1="403" y1="39" x2="405" y2="37" stroke="black" stroke-width="1" />
<rect x="388" y="35" width="14" height="5" style="fill:#f5b024;stroke:black;stroke-width:1;fill-opacity:1;stroke-opacity:0.3" />
<rect x="405" y="35" width="14" height="5" style="fill:#f5b024;stroke:black;stroke-width:1;fill-opacity:1;stroke-opacity:0.3" />
<line x1="407" y1="72" x2="413" y2="74" stroke="black" stroke-width="1" />
<line x1="413" y1="74" x2="419" y2="72" stroke="black" stroke-width="1" />
<rect x="392" y="70" width="14" height="5" style="fill:#f5b024;stroke:black;stroke-width:1;fill-opacity:1;stroke-opacity:0.3" />
<rect x="419" y="70" width="14" height="5" style="fill:#f5b024;stroke:black;stroke-width:1;fill-opacity:1;stroke-opacity:0.3" />
<line x1="432" y1="30" x2="436" y2="32" stroke="black" stroke-width="1" />
<line x1="436" y1="32" x2="441" y2="30" stroke="black" stroke-width="1" />
<rect x="417" y="28" width="14" height="5" style="fill:#f5b024;stroke:black;stroke-width:1;fill-opacity:1;stroke-opacity:0.3" />
<rect x="441" y="28" width="14" height="5" style="fill:#f5b024;stroke:black;stroke-width:1;fill-opacity:1;stroke-opacity:0.3" />
<line x1="432" y1="44" x2="436" y2="46" stroke="black" stroke-width="1" />
<line x1="436" y1="46" x2="440" y2="44" stroke="black" stroke-width="1" />
<rect x="418" y="42" width="14" height="5" style="fill:#f5b024;stroke:black;stroke-width:1;fill-opacity:1;stroke-opacity:0.3" />
<rect x="440" y="42" width="14" height="5" style="fill:#f5b024;stroke:black;stroke-width:1;fill-opacity:1;stroke-opacity:0.3" />
<line x1="448" y1="37" x2="449" y2="39" stroke="black" stroke-width="1" />
<line x1="449" y1="39" x2="450" y2="37" stroke="black" stroke-width="1" />
<rect x="434" y="35" width="14" height="5" style="fill:#f5b024;stroke:black;stroke-width:1;fill-opacity:1;stroke-opacity:0.3" />
<rect x="450" y="35" width="14" height="5" style="fill:#f5b024;stroke:black;stroke-width:1;fill-opacity:1;stroke-opacity:0.3" />
<line x1="452" y1="51" x2="453" y2="53" stroke="black" stroke-width="1" />
<line x1="453" y1="53" x2="455" y2="51" stroke="black" stroke-width="1" />
<rect x="438" y="49" width="14" height="5" style="fill:#f5b024;stroke:black;stroke-width:1;fill-opacity:1;stroke-opacity:0.3" />
<rect x="455" y="49" width="14" height="5" style="fill:#f5b024;stroke:black;stroke-width:1;fill-opacity:1;stroke-opacity:0.3" />
<line x1="452" y1="58" x2="454" y2="60" stroke="black" stroke-width="1" />
<line x1="454" y1="60" x2="456" y2="58" stroke="black" stroke-width="1" />
<rect x="438" y="56" width="14" height="5" style="fill:#f5b024;stroke:black;stroke-width:1;fill-opacity:1;stroke-opacity:0.3" />
<rect x="456" y="56" width="14" height="5" style="fill:#f5b024;stroke:black;stroke-width:1;fill-opacity:1;stroke-opacity:0.3" />
<line x1="456" y1="65" x2="457" y2="67" stroke="black" stroke-width="1" />
<line x1="457" y1="67" x2="459" y2="65" stroke="black" stroke-width="1" />
<rect x="441" y="63" width="14" height="5" style="fill:#f5b024;stroke:black;stroke-width:1;fill-opacity:1;stroke-opacity:0.3" />
<rect x="459" y="63" width="14" height="5" style="fill:#f5b024;stroke:black;stroke-width:1;fill-opacity:1;stroke-opacity:0.3" />
<line x1="465" y1="72" x2="468" y2="74" stroke="black" stroke-width="1" />
<line x1="468" y1="74" x2="471" y2="72" stroke="black" stroke-width="1" />
<rect x="451" y="70" width="14" height="5" style="fill:#f5b024;stroke:black;stroke-width:1;fill-opacity:1;stroke-opacity:0.3" />
<rect x="471" y="70" width="10" height="5" style="fill:#f5b024;stroke:black;stroke-width:1;fill-opacity:1;stroke-opacity:0.3" />
<rect x="482" y="70" width="3" height="5" style="fill:#f5b024;stroke:black;stroke-width:1;fill-opacity:1;stroke-opacity:0.3" />
<line x1="471" y1="30" x2="472" y2="32" stroke="black" stroke-width="1" />
<line x1="472" y1="32" x2="473" y2="30" stroke="black" stroke-width="1" />
<rect x="456" y="28" width="14" height="5" style="fill:#f5b024;stroke:black;stroke-width:1;fill-opacity:1;stroke-opacity:0.3" />
<rect x="473" y="28" width="14" height="5" style="fill:#f5b024;stroke:black;stroke-width:1;fill-opacity:1;stroke-opacity:0.3" />
<line x1="471" y1="44" x2="475" y2="46" stroke="black" stroke-width="1" />
<line x1="475" y1="46" x2="480" y2="44" stroke="black" stroke-width="1" />
<rect x="456" y="42" width="14" height="5" style="fill:#f5b024;stroke:black;stroke-width:1;fill-opacity:1;stroke-opacity:0.3" />
<rect x="480" y="42" width="14" height="5" style="fill:#f5b024;stroke:black;stroke-width:1;fill-opacity:1;stroke-opacity:0.3" />
<line x1="477" y1="79" x2="479" y2="81" stroke="black" stroke-width="1" />
<line x1="479" y1="81" x2="482" y2="79" stroke="black" stroke-width="1" />
<rect x="462" y="77" width="14" height="5" style="fill:#f5b024;stroke:black;stroke-width:1;fill-opacity:1;stroke-opacity:0.3" />
<rect x="482" y="77" width="14" height="5" style="fill:#f5b024;stroke:black;stroke-width:1;fill-opacity:1;stroke-opacity:0.3" />
<line x1="484" y1="37" x2="491" y2="39" stroke="black" stroke-width="1" />
<line x1="491" y1="39" x2="498" y2="37" stroke="black" stroke-width="1" />
<rect x="469" y="35" width="14" height="5" style="fill:#f5b024;stroke:black;stroke-width:1;fill-opacity:1;stroke-opacity:0.3" />
<rect x="498" y="35" width="14" height="5" style="fill:#f5b024;stroke:black;stroke-width:1;fill-opacity:1;stroke-opacity:0.3" />
<line x1="487" y1="51" x2="490" y2="53" stroke="black" stroke-width="1" />
<line x1="490" y1="53" x2="493" y2="51" stroke="black" stroke-width="1" />
<rect x="472" y="49" width="14" height="5" style="fill:#f5b024;stroke:black;stroke-width:1;fill-opacity:1;stroke-opacity:0.3" />
<rect x="493" y="49" width="14" height="5" style="fill:#f5b024;stroke:black;stroke-width:1;fill-opacity:1;stroke-opacity:0.3" />
<line x1="499" y1="58" x2="504" y2="60" stroke="black" stroke-width="1" />
<line x1="504" y1="60" x2="509" y2="58" stroke="black" stroke-width="1" />
<rect x="484" y="56" width="14" height="5" style="fill:#f5b024;stroke:black;stroke-width:1;fill-opacity:1;stroke-opacity:0.3" />
<rect x="509" y="56" width="14" height="5" style="fill:#f5b024;stroke:black;stroke-width:1;fill-opacity:1;stroke-opacity:0.3" />
<line x1="502" y1="30" x2="508" y2="32" stroke="black" stroke-width="1" />
<line x1="508" y1="32" x2="514" y2="30" stroke="black" stroke-width="1" />
<rect x="487" y="28" width="14" height="5" style="fill:#f5b024;stroke:black;stroke-width:1;fill-opacity:1;stroke-opacity:0.3" />
<rect x="514" y="28" width="14" height="5" style="fill:#f5b024;stroke:black;stroke-width:1;fill-opacity:1;stroke-opacity:0.3" />
<line x1="505" y1="65" x2="509" y2="67" stroke="black" stroke-width="1" />
<line x1="509" y1="67" x2="514" y2="65" stroke="black" stroke-width="1" />
<rect x="491" y="63" width="14" height="5" style="fill:#f5b024;stroke:black;stroke-width:1;fill-opacity:1;stroke-opacity:0.3" />
<rect x="514" y="63" width="14" height="5" style="fill:#f5b024;stroke:black;stroke-width:1;fill-opacity:1;stroke-opacity:0.3" />
<line x1="505" y1="72" x2="509" y2="74" stroke="black" stroke-width="1" />
<line x1="509" y1="74" x2="514" y2="72" stroke="black" stroke-width="1" />
<rect x="491" y="70" width="14" height="5" style="fill:#f5b024;stroke:black;stroke-width:1;fill-opacity:1;stroke-opacity:0.3" />
<rect x="514" y="70" width="14" height="5" style="fill:#f5b024;stroke:black;stroke-width:1;fill-opacity:1;stroke-opacity:0.3" />
<line x1="508" y1="86" x2="509" y2="88" stroke="black" stroke-width="1" />
<line x1="509" y1="88" x2="511" y2="86" stroke="black" stroke-width="1" />
<rect x="494" y="84" width="14" height="5" style="fill:#f5b024;stroke:black;stroke-width:1;fill-opacity:1;stroke-opacity:0.3" />
<rect x="511" y="84" width="14" height="5" style="fill:#f5b024;stroke:black;stroke-width:1;fill-opacity:1;stroke-opacity:0.3" />
<line x1="515" y1="44" x2="517" y2="46" stroke="black" stroke-width="1" />
<line x1="517" y1="46" x2="520" y2="44" stroke="black" stroke-width="1" />
<rect x="501" y="42" width="14" height="5" style="fill:#f5b024;stroke:black;stroke-width:1;fill-opacity:1;stroke-opacity:0.3" />
<rect x="520" y="42" width="14" height="5" style="fill:#f5b024;stroke:black;stroke-width:1;fill-opacity:1;stroke-opacity:0.3" />
<line x1="533" y1="37" x2="535" y2="39" stroke="black" stroke-width="1" />
<line x1="535" y1="39" x2="537" y2="37" stroke="black" stroke-width="1" />
<rect x="518" y="35" width="14" height="5" style="fill:#f5b024;stroke:black;stroke-width:1;fill-opacity:1;stroke-opacity:0.3" />
<rect x="537" y="35" width="14" height="5" style="fill:#f5b024;stroke:black;stroke-width:1;fill-opacity:1;stroke-opacity:0.3" />
<line x1="535" y1="51" x2="536" y2="53" stroke="black" stroke-width="1" />
<line x1="536" y1="53" x2="538" y2="51" stroke="black" stroke-width="1" />
<rect x="521" y="49" width="14" height="5" style="fill:#f5b024;stroke:black;stroke-width:1;fill-opacity:1;stroke-opacity:0.3" />
<rect x="538" y="49" width="14" height="5" style="fill:#f5b024;stroke:black;stroke-width:1;fill-opacity:1;stroke-opacity:0.3" />
<line x1="542" y1="58" x2="549" y2="60" stroke="black" stroke-width="1" />
<line x1="549" y1="60" x2="557" y2="58" stroke="black" stroke-width="1" />
<rect x="527" y="56" width="14" height="5" style="fill:#f5b024;stroke:black;stroke-width:1;fill-opacity:1;stroke-opacity:0.3" />
<rect x="557" y="56" width="11" height="5" style="fill:#f5b024;stroke:black;stroke-width:1;fill-opacity:1;stroke-opacity:0.3" />
<line x1="569" y1="58" x2="588" y2="58" stroke="pink" stroke-width="1" />
<rect x="588" y="56" width="2" height="5" style="fill:#f5b024;stroke:black;stroke-width:1;fill-opacity:1;stroke-opacity:0.3" />
<line x1="553" y1="30" x2="556" y2="32" stroke="black" stroke-width="1" />
<line x1="556" y1="32" x2="559" y2="30" stroke="black" stroke-width="1" />
<rect x="539" y="28" width="14" height="5" style="fill:#f5b024;stroke:black;stroke-width:1;fill-opacity:1;stroke-opacity:0.3" />
<rect x="559" y="28" width="9" height="5" style="fill:#f5b024;stroke:black;stroke-width:1;fill-opacity:1;stroke-opacity:0.3" />
<line x1="569" y1="30" x2="588" y2="30" stroke="pink" stroke-width="1" />
<rect x="588" y="28" width="4" height="5" style="fill:#f5b024;stroke:black;stroke-width:1;fill-opacity:1;stroke-opacity:0.3" />
<line x1="562" y1="44" x2="576" y2="46" stroke="black" stroke-width="1" />
<line x1="576" y1="46" x2="590" y2="44" stroke="black" stroke-width="1" />
<rect x="548" y="42" width="14" height="5" style="fill:#f5b024;stroke:black;stroke-width:1;fill-opacity:1;stroke-opacity:0.3" />
<rect x="590" y="42" width="14" height="5" style="fill:#f5b024;stroke:black;stroke-width:1;fill-opacity:1;stroke-opacity:0.3" />
<line x1="588" y1="37" x2="590" y2="39" stroke="black" stroke-width="1" />
<line x1="590" y1="39" x2="592" y2="37" stroke="black" stroke-width="1" />
<rect x="555" y="35" width="14" height="5" style="fill:#f5b024;stroke:black;stroke-width:1;fill-opacity:1;stroke-opacity:0.3" />
<line x1="569" y1="37" x2="588" y2="37" stroke="pink" stroke-width="1" />
<rect x="588" y="35" width="0" height="5" style="fill:#f5b024;stroke:black;stroke-width:1;fill-opacity:1;stroke-opacity:0.3" />
<rect x="592" y="35" width="14" height="5" style="fill:#f5b024;stroke:black;stroke-width:1;fill-opacity:1;stroke-opacity:0.3" />
<line x1="600" y1="51" x2="604" y2="53" stroke="black" stroke-width="1" />
<line x1="604" y1="53" x2="609" y2="51" stroke="black" stroke-width="1" />
<rect x="559" y="49" width="9" height="5" style="fill:#f5b024;stroke:black;stroke-width:1;fill-opacity:1;stroke-opacity:0.3" />
<line x1="569" y1="51" x2="588" y2="51" stroke="pink" stroke-width="1" />
<rect x="588" y="49" width="12" height="5" style="fill:#f5b024;stroke:black;stroke-width:1;fill-opacity:1;stroke-opacity:0.3" />
<rect x="609" y="49" width="21" height="5" style="fill:#f5b024;stroke:black;stroke-width:1;fill-opacity:1;stroke-opacity:0.3" />
<line x1="611" y1="30" x2="616" y2="32" stroke="black" stroke-width="1" />
<line x1="616" y1="32" x2="621" y2="30" stroke="black" stroke-width="1" />
<rect x="596" y="28" width="14" height="5" style="fill:#f5b024;stroke:black;stroke-width:1;fill-opacity:1;stroke-opacity:0.3" />
<rect x="621" y="28" width="12" height="5" style="fill:#f5b024;stroke:black;stroke-width:1;fill-opacity:1;stroke-opacity:0.3" />
<line x1="634" y1="30" x2="651" y2="30" stroke="pink" stroke-width="1" />
<rect x="651" y="28" width="2" height="5" style="fill:#f5b024;stroke:black;stroke-width:1;fill-opacity:1;stroke-opacity:0.3" />
<line x1="624" y1="37" x2="625" y2="39" stroke="black" stroke-width="1" />
<line x1="625" y1="39" x2="627" y2="37" stroke="black" stroke-width="1" />
<rect x="610" y="35" width="14" height="5" style="fill:#f5b024;stroke:black;stroke-width:1;fill-opacity:1;stroke-opacity:0.3" />
<rect x="627" y="35" width="6" height="5" style="fill:#f5b024;stroke:black;stroke-width:1;fill-opacity:1;stroke-opacity:0.3" />
<line x1="634" y1="37" x2="651" y2="37" stroke="pink" stroke-width="1" />
<rect x="651" y="35" width="8" height="5" style="fill:#f5b024;stroke:black;stroke-width:1;fill-opacity:1;stroke-opacity:0.3" />
<line x1="653" y1="44" x2="655" y2="46" stroke="black" stroke-width="1" />
<line x1="655" y1="46" x2="658" y2="44" stroke="black" stroke-width="1" />
<rect x="613" y="42" width="20" height="5" style="fill:#f5b024;stroke:black;stroke-width:1;fill-opacity:1;stroke-opacity:0.3" />
<line x1="634" y1="44" x2="651" y2="44" stroke="pink" stroke-width="1" />
<rect x="651" y="42" width="1" height="5" style="fill:#f5b024;stroke:black;stroke-width:1;fill-opacity:1;stroke-opacity:0.3" />
<rect x="658" y="42" width="21" height="5" style="fill:#f5b024;stroke:black;stroke-width:1;fill-opacity:1;stroke-opacity:0.3" />
<line x1="630" y1="58" x2="641" y2="60" stroke="black" stroke-width="1" />
<line x1="641" y1="60" x2="652" y2="58" stroke="black" stroke-width="1" />
<rect x="616" y="56" width="14" height="5" style="fill:#f5b024;stroke:black;stroke-width:1;fill-opacity:1;stroke-opacity:0.3" />
<rect x="652" y="56" width="14" height="5" style="fill:#f5b024;stroke:black;stroke-width:1;fill-opacity:1;stroke-opacity:0.3" />
<line x1="632" y1="65" x2="644" y2="67" stroke="black" stroke-width="1" />
<line x1="644" y1="67" x2="657" y2="65" stroke="black" stroke-width="1" />
<rect x="617" y="63" width="14" height="5" style="fill:#f5b024;stroke:black;stroke-width:1;fill-opacity:1;stroke-opacity:0.3" />
<rect x="657" y="63" width="14" height="5" style="fill:#f5b024;stroke:black;stroke-width:1;fill-opacity:1;stroke-opacity:0.3" />
<line x1="633" y1="72" x2="645" y2="74" stroke="black" stroke-width="1" />
<line x1="645" y1="74" x2="657" y2="72" stroke="black" stroke-width="1" />
<rect x="618" y="70" width="14" height="5" style="fill:#f5b024;stroke:black;stroke-width:1;fill-opacity:1;stroke-opacity:0.3" />
<rect x="657" y="70" width="14" height="5" style="fill:#f5b024;stroke:black;stroke-width:1;fill-opacity:1;stroke-opacity:0.3" />
<line x1="668" y1="51" x2="670" y2="53" stroke="black" stroke-width="1" />
<line x1="670" y1="53" x2="672" y2="51" stroke="black" stroke-width="1" />
<rect x="653" y="49" width="14" height="5" style="fill:#f5b024;stroke:black;stroke-width:1;fill-opacity:1;stroke-opacity:0.3" />
<rect x="672" y="49" width="14" height="5" style="fill:#f5b024;stroke:black;stroke-width:1;fill-opacity:1;stroke-opacity:0.3" />
<line x1="687" y1="51" x2="706" y2="51" stroke="pink" stroke-width="1" />
<rect x="706" y="49" width="0" height="5" style="fill:#f5b024;stroke:black;stroke-width:1;fill-opacity:1;stroke-opacity:0.3" />
<line x1="669" y1="30" x2="670" y2="32" stroke="black" stroke-width="1" />
<line x1="670" y1="32" x2="672" y2="30" stroke="black" stroke-width="1" />
<rect x="655" y="28" width="14" height="5" style="fill:#f5b024;stroke:black;stroke-width:1;fill-opacity:1;stroke-opacity:0.3" />
<rect x="672" y="28" width="14" height="5" style="fill:#f5b024;stroke:black;stroke-width:1;fill-opacity:1;stroke-opacity:0.3" />
<line x1="685" y1="37" x2="697" y2="39" stroke="black" stroke-width="1" />
<line x1="697" y1="39" x2="710" y2="37" stroke="black" stroke-width="1" />
<rect x="670" y="35" width="14" height="5" style="fill:#f5b024;stroke:black;stroke-width:1;fill-opacity:1;stroke-opacity:0.3" />
<rect x="710" y="35" width="14" height="5" style="fill:#f5b024;stroke:black;stroke-width:1;fill-opacity:1;stroke-opacity:0.3" />
<line x1="718" y1="44" x2="721" y2="46" stroke="black" stroke-width="1" />
<line x1="721" y1="46" x2="724" y2="44" stroke="black" stroke-width="1" />
<rect x="684" y="42" width="2" height="5" style="fill:#f5b024;stroke:black;stroke-width:1;fill-opacity:1;stroke-opacity:0.3" />
<line x1="687" y1="44" x2="706" y2="44" stroke="pink" stroke-width="1" />
<rect x="706" y="42" width="11" height="5" style="fill:#f5b024;stroke:black;stroke-width:1;fill-opacity:1;stroke-opacity:0.3" />
<rect x="724" y="42" width="3" height="5" style="fill:#f5b024;stroke:black;stroke-width:1;fill-opacity:1;stroke-opacity:0.3" />
<line x1="728" y1="44" x2="750" y2="44" stroke="pink" stroke-width="1" />
<rect x="750" y="42" width="10" height="5" style="fill:#f5b024;stroke:black;stroke-width:1;fill-opacity:1;stroke-opacity:0.3" />
<line x1="718" y1="58" x2="736" y2="60" stroke="black" stroke-width="1" />
<line x1="736" y1="60" x2="754" y2="58" stroke="black" stroke-width="1" />
<rect x="684" y="56" width="2" height="5" style="fill:#f5b024;stroke:black;stroke-width:1;fill-opacity:1;stroke-opacity:0.3" />
<line x1="687" y1="58" x2="706" y2="58" stroke="pink" stroke-width="1" />
<rect x="706" y="56" width="11" height="5" style="fill:#f5b024;stroke:black;stroke-width:1;fill-opacity:1;stroke-opacity:0.3" />
<rect x="754" y="56" width="14" height="5" style="fill:#f5b024;stroke:black;stroke-width:1;fill-opacity:1;stroke-opacity:0.3" />
<line x1="720" y1="30" x2="722" y2="32" stroke="black" stroke-width="1" />
<line x1="722" y1="32" x2="724" y2="30" stroke="black" stroke-width="1" />
<rect x="706" y="28" width="14" height="5" style="fill:#f5b024;stroke:black;stroke-width:1;fill-opacity:1;stroke-opacity:0.3" />
<rect x="724" y="28" width="3" height="5" style="fill:#f5b024;stroke:black;stroke-width:1;fill-opacity:1;stroke-opacity:0.3" />
<line x1="728" y1="30" x2="750" y2="30" stroke="pink" stroke-width="1" />
<rect x="750" y="28" width="10" height="5" style="fill:#f5b024;stroke:black;stroke-width:1;fill-opacity:1;stroke-opacity:0.3" />
<line x1="843" y1="30" x2="847" y2="32" stroke="black" stroke-width="1" />
<line x1="847" y1="32" x2="851" y2="30" stroke="black" stroke-width="1" />
<rect x="829" y="28" width="14" height="5" style="fill:#f5b024;stroke:black;stroke-width:1;fill-opacity:1;stroke-opacity:0.3" />
<rect x="851" y="28" width="9" height="5" style="fill:#f5b024;stroke:black;stroke-width:1;fill-opacity:1;stroke-opacity:0.3" />
<line x1="860" y1="30" x2="882" y2="30" stroke="pink" stroke-width="1" />
<rect x="882" y="28" width="5" height="5" style="fill:#f5b024;stroke:black;stroke-width:1;fill-opacity:1;stroke-opacity:0.3" />
<line x1="851" y1="37" x2="853" y2="39" stroke="black" stroke-width="1" />
<line x1="853" y1="39" x2="855" y2="37" stroke="black" stroke-width="1" />
<rect x="837" y="35" width="14" height="5" style="fill:#f5b024;stroke:black;stroke-width:1;fill-opacity:1;stroke-opacity:0.3" />
<rect x="855" y="35" width="5" height="5" style="fill:#f5b024;stroke:black;stroke-width:1;fill-opacity:1;stroke-opacity:0.3" />
<line x1="860" y1="37" x2="882" y2="37" stroke="pink" stroke-width="1" />
<rect x="882" y="35" width="9" height="5" style="fill:#f5b024;stroke:black;stroke-width:1;fill-opacity:1;stroke-opacity:0.3" />
<line x1="851" y1="44" x2="853" y2="46" stroke="black" stroke-width="1" />
<line x1="853" y1="46" x2="855" y2="44" stroke="black" stroke-width="1" />
<rect x="837" y="42" width="14" height="5" style="fill:#f5b024;stroke:black;stroke-width:1;fill-opacity:1;stroke-opacity:0.3" />
<rect x="855" y="42" width="5" height="5" style="fill:#f5b024;stroke:black;stroke-width:1;fill-opacity:1;stroke-opacity:0.3" />
<line x1="860" y1="44" x2="882" y2="44" stroke="pink" stroke-width="1" />
<rect x="882" y="42" width="9" height="5" style="fill:#f5b024;stroke:black;stroke-width:1;fill-opacity:1;stroke-opacity:0.3" />
<text x="15"  y="176" style="font-family:Arial;font-size:10;stroke:black;fill:black;">all.merged.bam</text>
</svg>
    
