<?xml version="1.0" encoding="utf-8" standalone="no"?>
<!DOCTYPE svg PUBLIC "-//W3C//DTD SVG 1.1//EN"
  "http://www.w3.org/Graphics/SVG/1.1/DTD/svg11.dtd">
<svg height="1140" width="1000" version="1.1" viewBox="0 0 1000 1140" xmlns="http://www.w3.org/2000/svg" xmlns:xlink="http://www.w3.org/1999/xlink">
<line x1="79" y1="11" x2="919" y2="11" stroke="black" stroke-width="1" />
<rect x="79" y="9" width="35" height="5" style="fill:#f50002;stroke:black;stroke-width:1;fill-opacity:1;stroke-opacity:0.3" />
<rect x="116" y="9" width="57" height="5" style="fill:#53a1b5;stroke:black;stroke-width:1;fill-opacity:1;stroke-opacity:0.3" />
<rect x="761" y="9" width="89" height="5" style="fill:#53a1b5;stroke:black;stroke-width:1;fill-opacity:1;stroke-opacity:0.3" />
<rect x="851" y="9" width="67" height="5" style="fill:#f50002;stroke:black;stroke-width:1;fill-opacity:1;stroke-opacity:0.3" />
<text x="79"  y="23" style="font-family:Arial;font-size:10;stroke:black;fill:black;">Cre02.g091600.t1.1.v5.5 (+) chromosome_2:2439955-2441006</text>
<line x1="141" y1="30" x2="157" y2="32" stroke="black" stroke-width="1" />
<line x1="157" y1="32" x2="173" y2="30" stroke="black" stroke-width="1" />
<rect x="21" y="28" width="119" height="5" style="fill:#5d3c2d;stroke:black;stroke-width:1;fill-opacity:1;stroke-opacity:0.3" />
<rect x="173" y="28" width="1" height="5" style="fill:#5d3c2d;stroke:black;stroke-width:1;fill-opacity:1;stroke-opacity:0.3" />
<line x1="174" y1="30" x2="761" y2="30" stroke="pink" stroke-width="1" />
<rect x="761" y="28" width="118" height="5" style="fill:#5d3c2d;stroke:black;stroke-width:1;fill-opacity:1;stroke-opacity:0.3" />
<line x1="103" y1="37" x2="118" y2="39" stroke="black" stroke-width="1" />
<line x1="118" y1="39" x2="133" y2="37" stroke="black" stroke-width="1" />
<rect x="23" y="35" width="79" height="5" style="fill:#5d3c2d;stroke:black;stroke-width:1;fill-opacity:1;stroke-opacity:0.3" />
<rect x="133" y="35" width="79" height="5" style="fill:#5d3c2d;stroke:black;stroke-width:1;fill-opacity:1;stroke-opacity:0.3" />
<line x1="103" y1="44" x2="118" y2="46" stroke="black" stroke-width="1" />
<line x1="118" y1="46" x2="133" y2="44" stroke="black" stroke-width="1" />
<rect x="23" y="42" width="79" height="5" style="fill:#5d3c2d;stroke:black;stroke-width:1;fill-opacity:1;stroke-opacity:0.3" />
<rect x="133" y="42" width="79" height="5" style="fill:#5d3c2d;stroke:black;stroke-width:1;fill-opacity:1;stroke-opacity:0.3" />
<line x1="108" y1="51" x2="125" y2="53" stroke="black" stroke-width="1" />
<line x1="125" y1="53" x2="142" y2="51" stroke="black" stroke-width="1" />
<rect x="28" y="49" width="79" height="5" style="fill:#5d3c2d;stroke:black;stroke-width:1;fill-opacity:1;stroke-opacity:0.3" />
<rect x="142" y="49" width="32" height="5" style="fill:#5d3c2d;stroke:black;stroke-width:1;fill-opacity:1;stroke-opacity:0.3" />
<line x1="174" y1="51" x2="761" y2="51" stroke="pink" stroke-width="1" />
<rect x="761" y="49" width="47" height="5" style="fill:#5d3c2d;stroke:black;stroke-width:1;fill-opacity:1;stroke-opacity:0.3" />
<line x1="109" y1="58" x2="127" y2="60" stroke="black" stroke-width="1" />
<line x1="127" y1="60" x2="146" y2="58" stroke="black" stroke-width="1" />
<rect x="29" y="56" width="79" height="5" style="fill:#5d3c2d;stroke:black;stroke-width:1;fill-opacity:1;stroke-opacity:0.3" />
<rect x="146" y="56" width="27" height="5" style="fill:#5d3c2d;stroke:black;stroke-width:1;fill-opacity:1;stroke-opacity:0.3" />
<line x1="174" y1="58" x2="761" y2="58" stroke="pink" stroke-width="1" />
<rect x="761" y="56" width="47" height="5" style="fill:#5d3c2d;stroke:black;stroke-width:1;fill-opacity:1;stroke-opacity:0.3" />
<line x1="109" y1="65" x2="127" y2="67" stroke="black" stroke-width="1" />
<line x1="127" y1="67" x2="146" y2="65" stroke="black" stroke-width="1" />
<rect x="29" y="63" width="79" height="5" style="fill:#5d3c2d;stroke:black;stroke-width:1;fill-opacity:1;stroke-opacity:0.3" />
<rect x="146" y="63" width="27" height="5" style="fill:#5d3c2d;stroke:black;stroke-width:1;fill-opacity:1;stroke-opacity:0.3" />
<line x1="174" y1="65" x2="761" y2="65" stroke="pink" stroke-width="1" />
<rect x="761" y="63" width="47" height="5" style="fill:#5d3c2d;stroke:black;stroke-width:1;fill-opacity:1;stroke-opacity:0.3" />
<line x1="109" y1="72" x2="130" y2="74" stroke="black" stroke-width="1" />
<line x1="130" y1="74" x2="152" y2="72" stroke="black" stroke-width="1" />
<rect x="29" y="70" width="79" height="5" style="fill:#5d3c2d;stroke:black;stroke-width:1;fill-opacity:1;stroke-opacity:0.3" />
<rect x="152" y="70" width="22" height="5" style="fill:#5d3c2d;stroke:black;stroke-width:1;fill-opacity:1;stroke-opacity:0.3" />
<line x1="174" y1="72" x2="761" y2="72" stroke="pink" stroke-width="1" />
<rect x="761" y="70" width="57" height="5" style="fill:#5d3c2d;stroke:black;stroke-width:1;fill-opacity:1;stroke-opacity:0.3" />
<line x1="112" y1="79" x2="123" y2="81" stroke="black" stroke-width="1" />
<line x1="123" y1="81" x2="134" y2="79" stroke="black" stroke-width="1" />
<rect x="32" y="77" width="79" height="5" style="fill:#5d3c2d;stroke:black;stroke-width:1;fill-opacity:1;stroke-opacity:0.3" />
<rect x="134" y="77" width="39" height="5" style="fill:#5d3c2d;stroke:black;stroke-width:1;fill-opacity:1;stroke-opacity:0.3" />
<line x1="174" y1="79" x2="761" y2="79" stroke="pink" stroke-width="1" />
<rect x="761" y="77" width="39" height="5" style="fill:#5d3c2d;stroke:black;stroke-width:1;fill-opacity:1;stroke-opacity:0.3" />
<line x1="112" y1="86" x2="123" y2="88" stroke="black" stroke-width="1" />
<line x1="123" y1="88" x2="134" y2="86" stroke="black" stroke-width="1" />
<rect x="32" y="84" width="79" height="5" style="fill:#5d3c2d;stroke:black;stroke-width:1;fill-opacity:1;stroke-opacity:0.3" />
<rect x="134" y="84" width="39" height="5" style="fill:#5d3c2d;stroke:black;stroke-width:1;fill-opacity:1;stroke-opacity:0.3" />
<line x1="174" y1="86" x2="761" y2="86" stroke="pink" stroke-width="1" />
<rect x="761" y="84" width="39" height="5" style="fill:#5d3c2d;stroke:black;stroke-width:1;fill-opacity:1;stroke-opacity:0.3" />
<line x1="115" y1="93" x2="120" y2="95" stroke="black" stroke-width="1" />
<line x1="120" y1="95" x2="126" y2="93" stroke="black" stroke-width="1" />
<rect x="35" y="91" width="79" height="5" style="fill:#5d3c2d;stroke:black;stroke-width:1;fill-opacity:1;stroke-opacity:0.3" />
<rect x="126" y="91" width="47" height="5" style="fill:#5d3c2d;stroke:black;stroke-width:1;fill-opacity:1;stroke-opacity:0.3" />
<line x1="174" y1="93" x2="761" y2="93" stroke="pink" stroke-width="1" />
<rect x="761" y="91" width="31" height="5" style="fill:#5d3c2d;stroke:black;stroke-width:1;fill-opacity:1;stroke-opacity:0.3" />
<line x1="115" y1="100" x2="124" y2="102" stroke="black" stroke-width="1" />
<line x1="124" y1="102" x2="134" y2="100" stroke="black" stroke-width="1" />
<rect x="35" y="98" width="79" height="5" style="fill:#5d3c2d;stroke:black;stroke-width:1;fill-opacity:1;stroke-opacity:0.3" />
<rect x="134" y="98" width="40" height="5" style="fill:#5d3c2d;stroke:black;stroke-width:1;fill-opacity:1;stroke-opacity:0.3" />
<line x1="174" y1="100" x2="761" y2="100" stroke="pink" stroke-width="1" />
<rect x="761" y="98" width="39" height="5" style="fill:#5d3c2d;stroke:black;stroke-width:1;fill-opacity:1;stroke-opacity:0.3" />
<line x1="115" y1="107" x2="124" y2="109" stroke="black" stroke-width="1" />
<line x1="124" y1="109" x2="134" y2="107" stroke="black" stroke-width="1" />
<rect x="35" y="105" width="79" height="5" style="fill:#5d3c2d;stroke:black;stroke-width:1;fill-opacity:1;stroke-opacity:0.3" />
<rect x="134" y="105" width="40" height="5" style="fill:#5d3c2d;stroke:black;stroke-width:1;fill-opacity:1;stroke-opacity:0.3" />
<line x1="174" y1="107" x2="761" y2="107" stroke="pink" stroke-width="1" />
<rect x="761" y="105" width="38" height="5" style="fill:#5d3c2d;stroke:black;stroke-width:1;fill-opacity:1;stroke-opacity:0.3" />
<line x1="115" y1="114" x2="124" y2="116" stroke="black" stroke-width="1" />
<line x1="124" y1="116" x2="134" y2="114" stroke="black" stroke-width="1" />
<rect x="35" y="112" width="79" height="5" style="fill:#5d3c2d;stroke:black;stroke-width:1;fill-opacity:1;stroke-opacity:0.3" />
<rect x="134" y="112" width="40" height="5" style="fill:#5d3c2d;stroke:black;stroke-width:1;fill-opacity:1;stroke-opacity:0.3" />
<line x1="174" y1="114" x2="761" y2="114" stroke="pink" stroke-width="1" />
<rect x="761" y="112" width="38" height="5" style="fill:#5d3c2d;stroke:black;stroke-width:1;fill-opacity:1;stroke-opacity:0.3" />
<line x1="123" y1="121" x2="136" y2="123" stroke="black" stroke-width="1" />
<line x1="136" y1="123" x2="150" y2="121" stroke="black" stroke-width="1" />
<rect x="43" y="119" width="79" height="5" style="fill:#5d3c2d;stroke:black;stroke-width:1;fill-opacity:1;stroke-opacity:0.3" />
<rect x="150" y="119" width="23" height="5" style="fill:#5d3c2d;stroke:black;stroke-width:1;fill-opacity:1;stroke-opacity:0.3" />
<line x1="174" y1="121" x2="761" y2="121" stroke="pink" stroke-width="1" />
<rect x="761" y="119" width="55" height="5" style="fill:#5d3c2d;stroke:black;stroke-width:1;fill-opacity:1;stroke-opacity:0.3" />
<line x1="129" y1="128" x2="138" y2="130" stroke="black" stroke-width="1" />
<line x1="138" y1="130" x2="148" y2="128" stroke="black" stroke-width="1" />
<rect x="49" y="126" width="79" height="5" style="fill:#5d3c2d;stroke:black;stroke-width:1;fill-opacity:1;stroke-opacity:0.3" />
<rect x="148" y="126" width="26" height="5" style="fill:#5d3c2d;stroke:black;stroke-width:1;fill-opacity:1;stroke-opacity:0.3" />
<line x1="174" y1="128" x2="761" y2="128" stroke="pink" stroke-width="1" />
<rect x="761" y="126" width="53" height="5" style="fill:#5d3c2d;stroke:black;stroke-width:1;fill-opacity:1;stroke-opacity:0.3" />
<line x1="136" y1="135" x2="156" y2="137" stroke="black" stroke-width="1" />
<line x1="156" y1="137" x2="176" y2="135" stroke="black" stroke-width="1" />
<rect x="56" y="133" width="79" height="5" style="fill:#5d3c2d;stroke:black;stroke-width:1;fill-opacity:1;stroke-opacity:0.3" />
<rect x="176" y="133" width="79" height="5" style="fill:#5d3c2d;stroke:black;stroke-width:1;fill-opacity:1;stroke-opacity:0.3" />
<line x1="136" y1="142" x2="144" y2="144" stroke="black" stroke-width="1" />
<line x1="144" y1="144" x2="152" y2="142" stroke="black" stroke-width="1" />
<rect x="56" y="140" width="79" height="5" style="fill:#5d3c2d;stroke:black;stroke-width:1;fill-opacity:1;stroke-opacity:0.3" />
<rect x="152" y="140" width="22" height="5" style="fill:#5d3c2d;stroke:black;stroke-width:1;fill-opacity:1;stroke-opacity:0.3" />
<line x1="174" y1="142" x2="761" y2="142" stroke="pink" stroke-width="1" />
<rect x="761" y="140" width="55" height="5" style="fill:#5d3c2d;stroke:black;stroke-width:1;fill-opacity:1;stroke-opacity:0.3" />
<line x1="138" y1="149" x2="145" y2="151" stroke="black" stroke-width="1" />
<line x1="145" y1="151" x2="153" y2="149" stroke="black" stroke-width="1" />
<rect x="58" y="147" width="79" height="5" style="fill:#5d3c2d;stroke:black;stroke-width:1;fill-opacity:1;stroke-opacity:0.3" />
<rect x="153" y="147" width="21" height="5" style="fill:#5d3c2d;stroke:black;stroke-width:1;fill-opacity:1;stroke-opacity:0.3" />
<line x1="174" y1="149" x2="761" y2="149" stroke="pink" stroke-width="1" />
<rect x="761" y="147" width="58" height="5" style="fill:#5d3c2d;stroke:black;stroke-width:1;fill-opacity:1;stroke-opacity:0.3" />
<line x1="139" y1="156" x2="148" y2="158" stroke="black" stroke-width="1" />
<line x1="148" y1="158" x2="158" y2="156" stroke="black" stroke-width="1" />
<rect x="59" y="154" width="79" height="5" style="fill:#5d3c2d;stroke:black;stroke-width:1;fill-opacity:1;stroke-opacity:0.3" />
<rect x="158" y="154" width="16" height="5" style="fill:#5d3c2d;stroke:black;stroke-width:1;fill-opacity:1;stroke-opacity:0.3" />
<line x1="174" y1="156" x2="761" y2="156" stroke="pink" stroke-width="1" />
<rect x="761" y="154" width="62" height="5" style="fill:#5d3c2d;stroke:black;stroke-width:1;fill-opacity:1;stroke-opacity:0.3" />
<line x1="144" y1="163" x2="149" y2="165" stroke="black" stroke-width="1" />
<line x1="149" y1="165" x2="154" y2="163" stroke="black" stroke-width="1" />
<rect x="64" y="161" width="79" height="5" style="fill:#5d3c2d;stroke:black;stroke-width:1;fill-opacity:1;stroke-opacity:0.3" />
<rect x="154" y="161" width="20" height="5" style="fill:#5d3c2d;stroke:black;stroke-width:1;fill-opacity:1;stroke-opacity:0.3" />
<line x1="174" y1="163" x2="761" y2="163" stroke="pink" stroke-width="1" />
<rect x="761" y="161" width="59" height="5" style="fill:#5d3c2d;stroke:black;stroke-width:1;fill-opacity:1;stroke-opacity:0.3" />
<line x1="502" y1="37" x2="518" y2="39" stroke="black" stroke-width="1" />
<line x1="518" y1="39" x2="534" y2="37" stroke="black" stroke-width="1" />
<rect x="422" y="35" width="79" height="5" style="fill:#f5b024;stroke:black;stroke-width:1;fill-opacity:1;stroke-opacity:0.3" />
<rect x="534" y="35" width="62" height="5" style="fill:#f5b024;stroke:black;stroke-width:1;fill-opacity:1;stroke-opacity:0.3" />
<line x1="596" y1="37" x2="737" y2="37" stroke="pink" stroke-width="1" />
<rect x="737" y="35" width="17" height="5" style="fill:#f5b024;stroke:black;stroke-width:1;fill-opacity:1;stroke-opacity:0.3" />
<line x1="823" y1="44" x2="835" y2="46" stroke="black" stroke-width="1" />
<line x1="835" y1="46" x2="848" y2="44" stroke="black" stroke-width="1" />
<rect x="743" y="42" width="79" height="5" style="fill:#5d3c2d;stroke:black;stroke-width:1;fill-opacity:1;stroke-opacity:0.3" />
<rect x="848" y="42" width="46" height="5" style="fill:#5d3c2d;stroke:black;stroke-width:1;fill-opacity:1;stroke-opacity:0.3" />
<line x1="894" y1="44" x2="998" y2="44" stroke="pink" stroke-width="1" />
<rect x="998" y="42" width="33" height="5" style="fill:#5d3c2d;stroke:black;stroke-width:1;fill-opacity:1;stroke-opacity:0.3" />
<line x1="836" y1="37" x2="844" y2="39" stroke="black" stroke-width="1" />
<line x1="844" y1="39" x2="853" y2="37" stroke="black" stroke-width="1" />
<rect x="759" y="35" width="76" height="5" style="fill:#5d3c2d;stroke:black;stroke-width:1;fill-opacity:1;stroke-opacity:0.3" />
<rect x="853" y="35" width="41" height="5" style="fill:#5d3c2d;stroke:black;stroke-width:1;fill-opacity:1;stroke-opacity:0.3" />
<line x1="894" y1="37" x2="998" y2="37" stroke="pink" stroke-width="1" />
<rect x="998" y="35" width="36" height="5" style="fill:#5d3c2d;stroke:black;stroke-width:1;fill-opacity:1;stroke-opacity:0.3" />
<line x1="840" y1="135" x2="873" y2="137" stroke="black" stroke-width="1" />
<line x1="873" y1="137" x2="906" y2="135" stroke="black" stroke-width="1" />
<rect x="760" y="133" width="79" height="5" style="fill:#5d3c2d;stroke:black;stroke-width:1;fill-opacity:1;stroke-opacity:0.3" />
<rect x="906" y="133" width="79" height="5" style="fill:#5d3c2d;stroke:black;stroke-width:1;fill-opacity:1;stroke-opacity:0.3" />
<line x1="894" y1="51" x2="899" y2="53" stroke="black" stroke-width="1" />
<line x1="899" y1="53" x2="904" y2="51" stroke="black" stroke-width="1" />
<rect x="814" y="49" width="79" height="5" style="fill:#f5b024;stroke:black;stroke-width:1;fill-opacity:1;stroke-opacity:0.3" />
<rect x="904" y="49" width="79" height="5" style="fill:#f5b024;stroke:black;stroke-width:1;fill-opacity:1;stroke-opacity:0.3" />
<text x="15"  y="176" style="font-family:Arial;font-size:10;stroke:black;fill:black;">all.merged.bam</text>
</svg>
    
