<?xml version="1.0" encoding="utf-8" standalone="no"?>
<!DOCTYPE svg PUBLIC "-//W3C//DTD SVG 1.1//EN"
  "http://www.w3.org/Graphics/SVG/1.1/DTD/svg11.dtd">
<svg height="1140" width="1000" version="1.1" viewBox="0 0 1000 1140" xmlns="http://www.w3.org/2000/svg" xmlns:xlink="http://www.w3.org/1999/xlink">
<line x1="91" y1="11" x2="907" y2="11" stroke="black" stroke-width="1" />
<rect x="91" y="9" width="246" height="5" style="fill:#f50002;stroke:black;stroke-width:1;fill-opacity:1;stroke-opacity:0.3" />
<rect x="338" y="9" width="96" height="5" style="fill:#53a1b5;stroke:black;stroke-width:1;fill-opacity:1;stroke-opacity:0.3" />
<rect x="566" y="9" width="191" height="5" style="fill:#53a1b5;stroke:black;stroke-width:1;fill-opacity:1;stroke-opacity:0.3" />
<rect x="759" y="9" width="148" height="5" style="fill:#f50002;stroke:black;stroke-width:1;fill-opacity:1;stroke-opacity:0.3" />
<text x="91"  y="23" style="font-family:Arial;font-size:10;stroke:black;fill:black;">Cre04.g219576.t1.1.v5.5 (-) chromosome_4:2127240-2128135</text>
<line x1="221" y1="30" x2="234" y2="32" stroke="black" stroke-width="1" />
<line x1="234" y1="32" x2="248" y2="30" stroke="black" stroke-width="1" />
<rect x="130" y="28" width="91" height="5" style="fill:#f5b024;stroke:black;stroke-width:1;fill-opacity:1;stroke-opacity:0.3" />
<rect x="248" y="28" width="91" height="5" style="fill:#f5b024;stroke:black;stroke-width:1;fill-opacity:1;stroke-opacity:0.3" />
<line x1="240" y1="37" x2="254" y2="39" stroke="black" stroke-width="1" />
<line x1="254" y1="39" x2="269" y2="37" stroke="black" stroke-width="1" />
<rect x="150" y="35" width="90" height="5" style="fill:#f5b024;stroke:black;stroke-width:1;fill-opacity:1;stroke-opacity:0.3" />
<rect x="269" y="35" width="91" height="5" style="fill:#f5b024;stroke:black;stroke-width:1;fill-opacity:1;stroke-opacity:0.3" />
<line x1="828" y1="30" x2="837" y2="32" stroke="black" stroke-width="1" />
<line x1="837" y1="32" x2="846" y2="30" stroke="black" stroke-width="1" />
<rect x="737" y="28" width="91" height="5" style="fill:#f5b024;stroke:black;stroke-width:1;fill-opacity:1;stroke-opacity:0.3" />
<rect x="846" y="28" width="91" height="5" style="fill:#f5b024;stroke:black;stroke-width:1;fill-opacity:1;stroke-opacity:0.3" />
<text x="15"  y="176" style="font-family:Arial;font-size:10;stroke:black;fill:black;">all.merged.bam</text>
</svg>
    
