<?xml version="1.0" encoding="utf-8" standalone="no"?>
<!DOCTYPE svg PUBLIC "-//W3C//DTD SVG 1.1//EN"
  "http://www.w3.org/Graphics/SVG/1.1/DTD/svg11.dtd">
<svg height="1140" width="1000" version="1.1" viewBox="0 0 1000 1140" xmlns="http://www.w3.org/2000/svg" xmlns:xlink="http://www.w3.org/1999/xlink">
<line x1="39" y1="11" x2="959" y2="11" stroke="black" stroke-width="1" />
<rect x="39" y="9" width="75" height="5" style="fill:#f50002;stroke:black;stroke-width:1;fill-opacity:1;stroke-opacity:0.3" />
<rect x="115" y="9" width="36" height="5" style="fill:#53a1b5;stroke:black;stroke-width:1;fill-opacity:1;stroke-opacity:0.3" />
<rect x="249" y="9" width="64" height="5" style="fill:#53a1b5;stroke:black;stroke-width:1;fill-opacity:1;stroke-opacity:0.3" />
<rect x="374" y="9" width="63" height="5" style="fill:#53a1b5;stroke:black;stroke-width:1;fill-opacity:1;stroke-opacity:0.3" />
<rect x="517" y="9" width="17" height="5" style="fill:#53a1b5;stroke:black;stroke-width:1;fill-opacity:1;stroke-opacity:0.3" />
<rect x="582" y="9" width="12" height="5" style="fill:#53a1b5;stroke:black;stroke-width:1;fill-opacity:1;stroke-opacity:0.3" />
<rect x="595" y="9" width="364" height="5" style="fill:#f50002;stroke:black;stroke-width:1;fill-opacity:1;stroke-opacity:0.3" />
<text x="39"  y="23" style="font-family:Arial;font-size:10;stroke:black;fill:black;">Cre09.g394065.t2.1.v5.5 (+) chromosome_9:4181276-4183597</text>
<line x1="151" y1="30" x2="203" y2="32" stroke="black" stroke-width="1" />
<line x1="203" y1="32" x2="256" y2="30" stroke="black" stroke-width="1" />
<rect x="91" y="28" width="59" height="5" style="fill:#5d3c2d;stroke:black;stroke-width:1;fill-opacity:1;stroke-opacity:0.3" />
<rect x="256" y="28" width="57" height="5" style="fill:#5d3c2d;stroke:black;stroke-width:1;fill-opacity:1;stroke-opacity:0.3" />
<line x1="314" y1="30" x2="374" y2="30" stroke="pink" stroke-width="1" />
<rect x="374" y="28" width="1" height="5" style="fill:#5d3c2d;stroke:black;stroke-width:1;fill-opacity:1;stroke-opacity:0.3" />
<line x1="131" y1="37" x2="134" y2="39" stroke="black" stroke-width="1" />
<line x1="134" y1="39" x2="137" y2="37" stroke="black" stroke-width="1" />
<rect x="91" y="35" width="39" height="5" style="fill:#5d3c2d;stroke:black;stroke-width:1;fill-opacity:1;stroke-opacity:0.3" />
<rect x="137" y="35" width="15" height="5" style="fill:#5d3c2d;stroke:black;stroke-width:1;fill-opacity:1;stroke-opacity:0.3" />
<line x1="153" y1="37" x2="249" y2="37" stroke="pink" stroke-width="1" />
<rect x="249" y="35" width="22" height="5" style="fill:#5d3c2d;stroke:black;stroke-width:1;fill-opacity:1;stroke-opacity:0.3" />
<line x1="131" y1="44" x2="137" y2="46" stroke="black" stroke-width="1" />
<line x1="137" y1="46" x2="143" y2="44" stroke="black" stroke-width="1" />
<rect x="91" y="42" width="39" height="5" style="fill:#5d3c2d;stroke:black;stroke-width:1;fill-opacity:1;stroke-opacity:0.3" />
<rect x="143" y="42" width="9" height="5" style="fill:#5d3c2d;stroke:black;stroke-width:1;fill-opacity:1;stroke-opacity:0.3" />
<line x1="153" y1="44" x2="249" y2="44" stroke="pink" stroke-width="1" />
<rect x="249" y="42" width="30" height="5" style="fill:#5d3c2d;stroke:black;stroke-width:1;fill-opacity:1;stroke-opacity:0.3" />
<line x1="151" y1="51" x2="203" y2="53" stroke="black" stroke-width="1" />
<line x1="203" y1="53" x2="256" y2="51" stroke="black" stroke-width="1" />
<rect x="91" y="49" width="59" height="5" style="fill:#5d3c2d;stroke:black;stroke-width:1;fill-opacity:1;stroke-opacity:0.3" />
<rect x="256" y="49" width="58" height="5" style="fill:#5d3c2d;stroke:black;stroke-width:1;fill-opacity:1;stroke-opacity:0.3" />
<line x1="314" y1="51" x2="374" y2="51" stroke="pink" stroke-width="1" />
<rect x="374" y="49" width="0" height="5" style="fill:#5d3c2d;stroke:black;stroke-width:1;fill-opacity:1;stroke-opacity:0.3" />
<line x1="151" y1="58" x2="204" y2="60" stroke="black" stroke-width="1" />
<line x1="204" y1="60" x2="258" y2="58" stroke="black" stroke-width="1" />
<rect x="91" y="56" width="59" height="5" style="fill:#5d3c2d;stroke:black;stroke-width:1;fill-opacity:1;stroke-opacity:0.3" />
<rect x="258" y="56" width="56" height="5" style="fill:#5d3c2d;stroke:black;stroke-width:1;fill-opacity:1;stroke-opacity:0.3" />
<line x1="314" y1="58" x2="374" y2="58" stroke="pink" stroke-width="1" />
<rect x="374" y="56" width="3" height="5" style="fill:#5d3c2d;stroke:black;stroke-width:1;fill-opacity:1;stroke-opacity:0.3" />
<line x1="131" y1="65" x2="137" y2="67" stroke="black" stroke-width="1" />
<line x1="137" y1="67" x2="143" y2="65" stroke="black" stroke-width="1" />
<rect x="91" y="63" width="39" height="5" style="fill:#5d3c2d;stroke:black;stroke-width:1;fill-opacity:1;stroke-opacity:0.3" />
<rect x="143" y="63" width="9" height="5" style="fill:#5d3c2d;stroke:black;stroke-width:1;fill-opacity:1;stroke-opacity:0.3" />
<line x1="153" y1="65" x2="249" y2="65" stroke="pink" stroke-width="1" />
<rect x="249" y="63" width="29" height="5" style="fill:#5d3c2d;stroke:black;stroke-width:1;fill-opacity:1;stroke-opacity:0.3" />
<line x1="151" y1="72" x2="209" y2="74" stroke="black" stroke-width="1" />
<line x1="209" y1="74" x2="268" y2="72" stroke="black" stroke-width="1" />
<rect x="91" y="70" width="59" height="5" style="fill:#5d3c2d;stroke:black;stroke-width:1;fill-opacity:1;stroke-opacity:0.3" />
<rect x="268" y="70" width="45" height="5" style="fill:#5d3c2d;stroke:black;stroke-width:1;fill-opacity:1;stroke-opacity:0.3" />
<line x1="314" y1="72" x2="374" y2="72" stroke="pink" stroke-width="1" />
<rect x="374" y="70" width="13" height="5" style="fill:#5d3c2d;stroke:black;stroke-width:1;fill-opacity:1;stroke-opacity:0.3" />
<line x1="151" y1="79" x2="203" y2="81" stroke="black" stroke-width="1" />
<line x1="203" y1="81" x2="256" y2="79" stroke="black" stroke-width="1" />
<rect x="91" y="77" width="59" height="5" style="fill:#5d3c2d;stroke:black;stroke-width:1;fill-opacity:1;stroke-opacity:0.3" />
<rect x="256" y="77" width="58" height="5" style="fill:#5d3c2d;stroke:black;stroke-width:1;fill-opacity:1;stroke-opacity:0.3" />
<line x1="314" y1="79" x2="374" y2="79" stroke="pink" stroke-width="1" />
<rect x="374" y="77" width="1" height="5" style="fill:#5d3c2d;stroke:black;stroke-width:1;fill-opacity:1;stroke-opacity:0.3" />
<line x1="151" y1="86" x2="202" y2="88" stroke="black" stroke-width="1" />
<line x1="202" y1="88" x2="254" y2="86" stroke="black" stroke-width="1" />
<rect x="91" y="84" width="59" height="5" style="fill:#5d3c2d;stroke:black;stroke-width:1;fill-opacity:1;stroke-opacity:0.3" />
<rect x="254" y="84" width="59" height="5" style="fill:#5d3c2d;stroke:black;stroke-width:1;fill-opacity:1;stroke-opacity:0.3" />
<line x1="151" y1="93" x2="203" y2="95" stroke="black" stroke-width="1" />
<line x1="203" y1="95" x2="255" y2="93" stroke="black" stroke-width="1" />
<rect x="91" y="91" width="59" height="5" style="fill:#5d3c2d;stroke:black;stroke-width:1;fill-opacity:1;stroke-opacity:0.3" />
<rect x="255" y="91" width="58" height="5" style="fill:#5d3c2d;stroke:black;stroke-width:1;fill-opacity:1;stroke-opacity:0.3" />
<line x1="314" y1="93" x2="374" y2="93" stroke="pink" stroke-width="1" />
<rect x="374" y="91" width="0" height="5" style="fill:#5d3c2d;stroke:black;stroke-width:1;fill-opacity:1;stroke-opacity:0.3" />
<line x1="131" y1="100" x2="138" y2="102" stroke="black" stroke-width="1" />
<line x1="138" y1="102" x2="145" y2="100" stroke="black" stroke-width="1" />
<rect x="91" y="98" width="39" height="5" style="fill:#5d3c2d;stroke:black;stroke-width:1;fill-opacity:1;stroke-opacity:0.3" />
<rect x="145" y="98" width="7" height="5" style="fill:#5d3c2d;stroke:black;stroke-width:1;fill-opacity:1;stroke-opacity:0.3" />
<line x1="153" y1="100" x2="249" y2="100" stroke="pink" stroke-width="1" />
<rect x="249" y="98" width="32" height="5" style="fill:#5d3c2d;stroke:black;stroke-width:1;fill-opacity:1;stroke-opacity:0.3" />
<line x1="151" y1="107" x2="202" y2="109" stroke="black" stroke-width="1" />
<line x1="202" y1="109" x2="254" y2="107" stroke="black" stroke-width="1" />
<rect x="91" y="105" width="59" height="5" style="fill:#5d3c2d;stroke:black;stroke-width:1;fill-opacity:1;stroke-opacity:0.3" />
<rect x="254" y="105" width="59" height="5" style="fill:#5d3c2d;stroke:black;stroke-width:1;fill-opacity:1;stroke-opacity:0.3" />
<line x1="131" y1="114" x2="138" y2="116" stroke="black" stroke-width="1" />
<line x1="138" y1="116" x2="146" y2="114" stroke="black" stroke-width="1" />
<rect x="91" y="112" width="39" height="5" style="fill:#5d3c2d;stroke:black;stroke-width:1;fill-opacity:1;stroke-opacity:0.3" />
<rect x="146" y="112" width="6" height="5" style="fill:#5d3c2d;stroke:black;stroke-width:1;fill-opacity:1;stroke-opacity:0.3" />
<line x1="153" y1="114" x2="249" y2="114" stroke="pink" stroke-width="1" />
<rect x="249" y="112" width="33" height="5" style="fill:#5d3c2d;stroke:black;stroke-width:1;fill-opacity:1;stroke-opacity:0.3" />
<line x1="151" y1="121" x2="212" y2="123" stroke="black" stroke-width="1" />
<line x1="212" y1="123" x2="274" y2="121" stroke="black" stroke-width="1" />
<rect x="91" y="119" width="59" height="5" style="fill:#5d3c2d;stroke:black;stroke-width:1;fill-opacity:1;stroke-opacity:0.3" />
<rect x="274" y="119" width="39" height="5" style="fill:#5d3c2d;stroke:black;stroke-width:1;fill-opacity:1;stroke-opacity:0.3" />
<line x1="314" y1="121" x2="374" y2="121" stroke="pink" stroke-width="1" />
<rect x="374" y="119" width="19" height="5" style="fill:#5d3c2d;stroke:black;stroke-width:1;fill-opacity:1;stroke-opacity:0.3" />
<line x1="151" y1="128" x2="203" y2="130" stroke="black" stroke-width="1" />
<line x1="203" y1="130" x2="255" y2="128" stroke="black" stroke-width="1" />
<rect x="91" y="126" width="59" height="5" style="fill:#5d3c2d;stroke:black;stroke-width:1;fill-opacity:1;stroke-opacity:0.3" />
<rect x="255" y="126" width="59" height="5" style="fill:#5d3c2d;stroke:black;stroke-width:1;fill-opacity:1;stroke-opacity:0.3" />
<line x1="314" y1="128" x2="374" y2="128" stroke="pink" stroke-width="1" />
<rect x="374" y="126" width="0" height="5" style="fill:#5d3c2d;stroke:black;stroke-width:1;fill-opacity:1;stroke-opacity:0.3" />
<line x1="131" y1="135" x2="141" y2="137" stroke="black" stroke-width="1" />
<line x1="141" y1="137" x2="151" y2="135" stroke="black" stroke-width="1" />
<rect x="91" y="133" width="39" height="5" style="fill:#5d3c2d;stroke:black;stroke-width:1;fill-opacity:1;stroke-opacity:0.3" />
<rect x="151" y="133" width="1" height="5" style="fill:#5d3c2d;stroke:black;stroke-width:1;fill-opacity:1;stroke-opacity:0.3" />
<line x1="153" y1="135" x2="249" y2="135" stroke="pink" stroke-width="1" />
<rect x="249" y="133" width="38" height="5" style="fill:#5d3c2d;stroke:black;stroke-width:1;fill-opacity:1;stroke-opacity:0.3" />
<line x1="151" y1="142" x2="203" y2="144" stroke="black" stroke-width="1" />
<line x1="203" y1="144" x2="255" y2="142" stroke="black" stroke-width="1" />
<rect x="91" y="140" width="59" height="5" style="fill:#5d3c2d;stroke:black;stroke-width:1;fill-opacity:1;stroke-opacity:0.3" />
<rect x="255" y="140" width="58" height="5" style="fill:#5d3c2d;stroke:black;stroke-width:1;fill-opacity:1;stroke-opacity:0.3" />
<line x1="314" y1="142" x2="374" y2="142" stroke="pink" stroke-width="1" />
<rect x="374" y="140" width="0" height="5" style="fill:#5d3c2d;stroke:black;stroke-width:1;fill-opacity:1;stroke-opacity:0.3" />
<line x1="151" y1="149" x2="210" y2="151" stroke="black" stroke-width="1" />
<line x1="210" y1="151" x2="269" y2="149" stroke="black" stroke-width="1" />
<rect x="91" y="147" width="59" height="5" style="fill:#5d3c2d;stroke:black;stroke-width:1;fill-opacity:1;stroke-opacity:0.3" />
<rect x="269" y="147" width="45" height="5" style="fill:#5d3c2d;stroke:black;stroke-width:1;fill-opacity:1;stroke-opacity:0.3" />
<line x1="314" y1="149" x2="374" y2="149" stroke="pink" stroke-width="1" />
<rect x="374" y="147" width="13" height="5" style="fill:#5d3c2d;stroke:black;stroke-width:1;fill-opacity:1;stroke-opacity:0.3" />
<line x1="151" y1="156" x2="202" y2="158" stroke="black" stroke-width="1" />
<line x1="202" y1="158" x2="254" y2="156" stroke="black" stroke-width="1" />
<rect x="91" y="154" width="59" height="5" style="fill:#5d3c2d;stroke:black;stroke-width:1;fill-opacity:1;stroke-opacity:0.3" />
<rect x="254" y="154" width="59" height="5" style="fill:#5d3c2d;stroke:black;stroke-width:1;fill-opacity:1;stroke-opacity:0.3" />
<line x1="151" y1="163" x2="206" y2="165" stroke="black" stroke-width="1" />
<line x1="206" y1="165" x2="261" y2="163" stroke="black" stroke-width="1" />
<rect x="91" y="161" width="59" height="5" style="fill:#5d3c2d;stroke:black;stroke-width:1;fill-opacity:1;stroke-opacity:0.3" />
<rect x="261" y="161" width="53" height="5" style="fill:#5d3c2d;stroke:black;stroke-width:1;fill-opacity:1;stroke-opacity:0.3" />
<line x1="314" y1="163" x2="374" y2="163" stroke="pink" stroke-width="1" />
<rect x="374" y="161" width="6" height="5" style="fill:#5d3c2d;stroke:black;stroke-width:1;fill-opacity:1;stroke-opacity:0.3" />
<line x1="312" y1="37" x2="346" y2="39" stroke="black" stroke-width="1" />
<line x1="346" y1="39" x2="381" y2="37" stroke="black" stroke-width="1" />
<rect x="272" y="35" width="39" height="5" style="fill:#5d3c2d;stroke:black;stroke-width:1;fill-opacity:1;stroke-opacity:0.3" />
<rect x="381" y="35" width="39" height="5" style="fill:#5d3c2d;stroke:black;stroke-width:1;fill-opacity:1;stroke-opacity:0.3" />
<line x1="379" y1="65" x2="384" y2="67" stroke="black" stroke-width="1" />
<line x1="384" y1="67" x2="390" y2="65" stroke="black" stroke-width="1" />
<rect x="279" y="63" width="34" height="5" style="fill:#5d3c2d;stroke:black;stroke-width:1;fill-opacity:1;stroke-opacity:0.3" />
<line x1="314" y1="65" x2="374" y2="65" stroke="pink" stroke-width="1" />
<rect x="374" y="63" width="4" height="5" style="fill:#5d3c2d;stroke:black;stroke-width:1;fill-opacity:1;stroke-opacity:0.3" />
<rect x="390" y="63" width="39" height="5" style="fill:#5d3c2d;stroke:black;stroke-width:1;fill-opacity:1;stroke-opacity:0.3" />
<line x1="379" y1="44" x2="384" y2="46" stroke="black" stroke-width="1" />
<line x1="384" y1="46" x2="390" y2="44" stroke="black" stroke-width="1" />
<rect x="280" y="42" width="34" height="5" style="fill:#5d3c2d;stroke:black;stroke-width:1;fill-opacity:1;stroke-opacity:0.3" />
<line x1="314" y1="44" x2="374" y2="44" stroke="pink" stroke-width="1" />
<rect x="374" y="42" width="5" height="5" style="fill:#5d3c2d;stroke:black;stroke-width:1;fill-opacity:1;stroke-opacity:0.3" />
<rect x="390" y="42" width="39" height="5" style="fill:#5d3c2d;stroke:black;stroke-width:1;fill-opacity:1;stroke-opacity:0.3" />
<line x1="381" y1="100" x2="387" y2="102" stroke="black" stroke-width="1" />
<line x1="387" y1="102" x2="394" y2="100" stroke="black" stroke-width="1" />
<rect x="281" y="98" width="32" height="5" style="fill:#5d3c2d;stroke:black;stroke-width:1;fill-opacity:1;stroke-opacity:0.3" />
<line x1="314" y1="100" x2="374" y2="100" stroke="pink" stroke-width="1" />
<rect x="374" y="98" width="7" height="5" style="fill:#5d3c2d;stroke:black;stroke-width:1;fill-opacity:1;stroke-opacity:0.3" />
<rect x="394" y="98" width="39" height="5" style="fill:#5d3c2d;stroke:black;stroke-width:1;fill-opacity:1;stroke-opacity:0.3" />
<line x1="402" y1="114" x2="419" y2="116" stroke="black" stroke-width="1" />
<line x1="419" y1="116" x2="436" y2="114" stroke="black" stroke-width="1" />
<rect x="283" y="112" width="31" height="5" style="fill:#5d3c2d;stroke:black;stroke-width:1;fill-opacity:1;stroke-opacity:0.3" />
<line x1="314" y1="114" x2="374" y2="114" stroke="pink" stroke-width="1" />
<rect x="374" y="112" width="28" height="5" style="fill:#5d3c2d;stroke:black;stroke-width:1;fill-opacity:1;stroke-opacity:0.3" />
<rect x="436" y="112" width="1" height="5" style="fill:#5d3c2d;stroke:black;stroke-width:1;fill-opacity:1;stroke-opacity:0.3" />
<line x1="437" y1="114" x2="517" y2="114" stroke="pink" stroke-width="1" />
<rect x="517" y="112" width="17" height="5" style="fill:#5d3c2d;stroke:black;stroke-width:1;fill-opacity:1;stroke-opacity:0.3" />
<line x1="535" y1="114" x2="582" y2="114" stroke="pink" stroke-width="1" />
<rect x="582" y="112" width="40" height="5" style="fill:#5d3c2d;stroke:black;stroke-width:1;fill-opacity:1;stroke-opacity:0.3" />
<line x1="387" y1="135" x2="396" y2="137" stroke="black" stroke-width="1" />
<line x1="396" y1="137" x2="405" y2="135" stroke="black" stroke-width="1" />
<rect x="287" y="133" width="26" height="5" style="fill:#5d3c2d;stroke:black;stroke-width:1;fill-opacity:1;stroke-opacity:0.3" />
<line x1="314" y1="135" x2="374" y2="135" stroke="pink" stroke-width="1" />
<rect x="374" y="133" width="13" height="5" style="fill:#5d3c2d;stroke:black;stroke-width:1;fill-opacity:1;stroke-opacity:0.3" />
<rect x="405" y="133" width="32" height="5" style="fill:#5d3c2d;stroke:black;stroke-width:1;fill-opacity:1;stroke-opacity:0.3" />
<line x1="437" y1="135" x2="517" y2="135" stroke="pink" stroke-width="1" />
<rect x="517" y="133" width="7" height="5" style="fill:#5d3c2d;stroke:black;stroke-width:1;fill-opacity:1;stroke-opacity:0.3" />
<line x1="433" y1="107" x2="480" y2="109" stroke="black" stroke-width="1" />
<line x1="480" y1="109" x2="527" y2="107" stroke="black" stroke-width="1" />
<rect x="314" y="105" width="0" height="5" style="fill:#5d3c2d;stroke:black;stroke-width:1;fill-opacity:1;stroke-opacity:0.3" />
<line x1="314" y1="107" x2="374" y2="107" stroke="pink" stroke-width="1" />
<rect x="374" y="105" width="59" height="5" style="fill:#5d3c2d;stroke:black;stroke-width:1;fill-opacity:1;stroke-opacity:0.3" />
<rect x="527" y="105" width="8" height="5" style="fill:#5d3c2d;stroke:black;stroke-width:1;fill-opacity:1;stroke-opacity:0.3" />
<line x1="535" y1="107" x2="582" y2="107" stroke="pink" stroke-width="1" />
<rect x="582" y="105" width="50" height="5" style="fill:#5d3c2d;stroke:black;stroke-width:1;fill-opacity:1;stroke-opacity:0.3" />
<line x1="385" y1="86" x2="389" y2="88" stroke="black" stroke-width="1" />
<line x1="389" y1="88" x2="393" y2="86" stroke="black" stroke-width="1" />
<rect x="345" y="84" width="39" height="5" style="fill:#5d3c2d;stroke:black;stroke-width:1;fill-opacity:1;stroke-opacity:0.3" />
<rect x="393" y="84" width="39" height="5" style="fill:#5d3c2d;stroke:black;stroke-width:1;fill-opacity:1;stroke-opacity:0.3" />
<line x1="407" y1="156" x2="412" y2="158" stroke="black" stroke-width="1" />
<line x1="412" y1="158" x2="417" y2="156" stroke="black" stroke-width="1" />
<rect x="367" y="154" width="39" height="5" style="fill:#5d3c2d;stroke:black;stroke-width:1;fill-opacity:1;stroke-opacity:0.3" />
<rect x="417" y="154" width="20" height="5" style="fill:#5d3c2d;stroke:black;stroke-width:1;fill-opacity:1;stroke-opacity:0.3" />
<line x1="437" y1="156" x2="517" y2="156" stroke="pink" stroke-width="1" />
<rect x="517" y="154" width="19" height="5" style="fill:#5d3c2d;stroke:black;stroke-width:1;fill-opacity:1;stroke-opacity:0.3" />
<line x1="434" y1="128" x2="478" y2="130" stroke="black" stroke-width="1" />
<line x1="478" y1="130" x2="522" y2="128" stroke="black" stroke-width="1" />
<rect x="374" y="126" width="59" height="5" style="fill:#5d3c2d;stroke:black;stroke-width:1;fill-opacity:1;stroke-opacity:0.3" />
<rect x="522" y="126" width="12" height="5" style="fill:#5d3c2d;stroke:black;stroke-width:1;fill-opacity:1;stroke-opacity:0.3" />
<line x1="535" y1="128" x2="582" y2="128" stroke="pink" stroke-width="1" />
<rect x="582" y="126" width="46" height="5" style="fill:#5d3c2d;stroke:black;stroke-width:1;fill-opacity:1;stroke-opacity:0.3" />
<line x1="434" y1="51" x2="479" y2="53" stroke="black" stroke-width="1" />
<line x1="479" y1="53" x2="525" y2="51" stroke="black" stroke-width="1" />
<rect x="375" y="49" width="59" height="5" style="fill:#5d3c2d;stroke:black;stroke-width:1;fill-opacity:1;stroke-opacity:0.3" />
<rect x="525" y="49" width="9" height="5" style="fill:#5d3c2d;stroke:black;stroke-width:1;fill-opacity:1;stroke-opacity:0.3" />
<line x1="535" y1="51" x2="582" y2="51" stroke="pink" stroke-width="1" />
<rect x="582" y="49" width="49" height="5" style="fill:#5d3c2d;stroke:black;stroke-width:1;fill-opacity:1;stroke-opacity:0.3" />
<line x1="434" y1="93" x2="480" y2="95" stroke="black" stroke-width="1" />
<line x1="480" y1="95" x2="526" y2="93" stroke="black" stroke-width="1" />
<rect x="375" y="91" width="59" height="5" style="fill:#5d3c2d;stroke:black;stroke-width:1;fill-opacity:1;stroke-opacity:0.3" />
<rect x="526" y="91" width="9" height="5" style="fill:#5d3c2d;stroke:black;stroke-width:1;fill-opacity:1;stroke-opacity:0.3" />
<line x1="535" y1="93" x2="582" y2="93" stroke="pink" stroke-width="1" />
<rect x="582" y="91" width="49" height="5" style="fill:#5d3c2d;stroke:black;stroke-width:1;fill-opacity:1;stroke-opacity:0.3" />
<line x1="414" y1="142" x2="502" y2="144" stroke="black" stroke-width="1" />
<line x1="502" y1="144" x2="591" y2="142" stroke="black" stroke-width="1" />
<rect x="375" y="140" width="39" height="5" style="fill:#5d3c2d;stroke:black;stroke-width:1;fill-opacity:1;stroke-opacity:0.3" />
<rect x="591" y="140" width="39" height="5" style="fill:#5d3c2d;stroke:black;stroke-width:1;fill-opacity:1;stroke-opacity:0.3" />
<line x1="415" y1="79" x2="417" y2="81" stroke="black" stroke-width="1" />
<line x1="417" y1="81" x2="419" y2="79" stroke="black" stroke-width="1" />
<rect x="375" y="77" width="39" height="5" style="fill:#5d3c2d;stroke:black;stroke-width:1;fill-opacity:1;stroke-opacity:0.3" />
<rect x="419" y="77" width="18" height="5" style="fill:#5d3c2d;stroke:black;stroke-width:1;fill-opacity:1;stroke-opacity:0.3" />
<line x1="437" y1="79" x2="517" y2="79" stroke="pink" stroke-width="1" />
<rect x="517" y="77" width="17" height="5" style="fill:#5d3c2d;stroke:black;stroke-width:1;fill-opacity:1;stroke-opacity:0.3" />
<line x1="535" y1="79" x2="582" y2="79" stroke="pink" stroke-width="1" />
<rect x="582" y="77" width="3" height="5" style="fill:#5d3c2d;stroke:black;stroke-width:1;fill-opacity:1;stroke-opacity:0.3" />
<line x1="435" y1="30" x2="481" y2="32" stroke="black" stroke-width="1" />
<line x1="481" y1="32" x2="528" y2="30" stroke="black" stroke-width="1" />
<rect x="375" y="28" width="59" height="5" style="fill:#5d3c2d;stroke:black;stroke-width:1;fill-opacity:1;stroke-opacity:0.3" />
<rect x="528" y="28" width="7" height="5" style="fill:#5d3c2d;stroke:black;stroke-width:1;fill-opacity:1;stroke-opacity:0.3" />
<line x1="535" y1="30" x2="582" y2="30" stroke="pink" stroke-width="1" />
<rect x="582" y="28" width="51" height="5" style="fill:#5d3c2d;stroke:black;stroke-width:1;fill-opacity:1;stroke-opacity:0.3" />
<line x1="416" y1="58" x2="502" y2="60" stroke="black" stroke-width="1" />
<line x1="502" y1="60" x2="588" y2="58" stroke="black" stroke-width="1" />
<rect x="377" y="56" width="39" height="5" style="fill:#5d3c2d;stroke:black;stroke-width:1;fill-opacity:1;stroke-opacity:0.3" />
<rect x="588" y="56" width="39" height="5" style="fill:#5d3c2d;stroke:black;stroke-width:1;fill-opacity:1;stroke-opacity:0.3" />
<line x1="420" y1="163" x2="425" y2="165" stroke="black" stroke-width="1" />
<line x1="425" y1="165" x2="431" y2="163" stroke="black" stroke-width="1" />
<rect x="380" y="161" width="39" height="5" style="fill:#5d3c2d;stroke:black;stroke-width:1;fill-opacity:1;stroke-opacity:0.3" />
<rect x="431" y="161" width="5" height="5" style="fill:#5d3c2d;stroke:black;stroke-width:1;fill-opacity:1;stroke-opacity:0.3" />
<line x1="437" y1="163" x2="517" y2="163" stroke="pink" stroke-width="1" />
<rect x="517" y="161" width="17" height="5" style="fill:#5d3c2d;stroke:black;stroke-width:1;fill-opacity:1;stroke-opacity:0.3" />
<line x1="535" y1="163" x2="582" y2="163" stroke="pink" stroke-width="1" />
<rect x="582" y="161" width="15" height="5" style="fill:#5d3c2d;stroke:black;stroke-width:1;fill-opacity:1;stroke-opacity:0.3" />
<line x1="428" y1="72" x2="475" y2="74" stroke="black" stroke-width="1" />
<line x1="475" y1="74" x2="522" y2="72" stroke="black" stroke-width="1" />
<rect x="388" y="70" width="39" height="5" style="fill:#5d3c2d;stroke:black;stroke-width:1;fill-opacity:1;stroke-opacity:0.3" />
<rect x="522" y="70" width="12" height="5" style="fill:#5d3c2d;stroke:black;stroke-width:1;fill-opacity:1;stroke-opacity:0.3" />
<line x1="535" y1="72" x2="582" y2="72" stroke="pink" stroke-width="1" />
<rect x="582" y="70" width="26" height="5" style="fill:#5d3c2d;stroke:black;stroke-width:1;fill-opacity:1;stroke-opacity:0.3" />
<line x1="528" y1="149" x2="562" y2="151" stroke="black" stroke-width="1" />
<line x1="562" y1="151" x2="596" y2="149" stroke="black" stroke-width="1" />
<rect x="388" y="147" width="49" height="5" style="fill:#5d3c2d;stroke:black;stroke-width:1;fill-opacity:1;stroke-opacity:0.3" />
<line x1="437" y1="149" x2="517" y2="149" stroke="pink" stroke-width="1" />
<rect x="517" y="147" width="10" height="5" style="fill:#5d3c2d;stroke:black;stroke-width:1;fill-opacity:1;stroke-opacity:0.3" />
<rect x="596" y="147" width="59" height="5" style="fill:#5d3c2d;stroke:black;stroke-width:1;fill-opacity:1;stroke-opacity:0.3" />
<line x1="434" y1="121" x2="483" y2="123" stroke="black" stroke-width="1" />
<line x1="483" y1="123" x2="532" y2="121" stroke="black" stroke-width="1" />
<rect x="395" y="119" width="39" height="5" style="fill:#5d3c2d;stroke:black;stroke-width:1;fill-opacity:1;stroke-opacity:0.3" />
<rect x="532" y="119" width="3" height="5" style="fill:#5d3c2d;stroke:black;stroke-width:1;fill-opacity:1;stroke-opacity:0.3" />
<line x1="535" y1="121" x2="582" y2="121" stroke="pink" stroke-width="1" />
<rect x="582" y="119" width="36" height="5" style="fill:#5d3c2d;stroke:black;stroke-width:1;fill-opacity:1;stroke-opacity:0.3" />
<line x1="587" y1="37" x2="596" y2="39" stroke="black" stroke-width="1" />
<line x1="596" y1="39" x2="605" y2="37" stroke="black" stroke-width="1" />
<rect x="420" y="35" width="17" height="5" style="fill:#5d3c2d;stroke:black;stroke-width:1;fill-opacity:1;stroke-opacity:0.3" />
<line x1="437" y1="37" x2="517" y2="37" stroke="pink" stroke-width="1" />
<rect x="517" y="35" width="17" height="5" style="fill:#5d3c2d;stroke:black;stroke-width:1;fill-opacity:1;stroke-opacity:0.3" />
<line x1="535" y1="37" x2="582" y2="37" stroke="pink" stroke-width="1" />
<rect x="582" y="35" width="4" height="5" style="fill:#5d3c2d;stroke:black;stroke-width:1;fill-opacity:1;stroke-opacity:0.3" />
<rect x="605" y="35" width="39" height="5" style="fill:#5d3c2d;stroke:black;stroke-width:1;fill-opacity:1;stroke-opacity:0.3" />
<line x1="596" y1="44" x2="606" y2="46" stroke="black" stroke-width="1" />
<line x1="606" y1="46" x2="616" y2="44" stroke="black" stroke-width="1" />
<rect x="429" y="42" width="7" height="5" style="fill:#5d3c2d;stroke:black;stroke-width:1;fill-opacity:1;stroke-opacity:0.3" />
<line x1="437" y1="44" x2="517" y2="44" stroke="pink" stroke-width="1" />
<rect x="517" y="42" width="17" height="5" style="fill:#5d3c2d;stroke:black;stroke-width:1;fill-opacity:1;stroke-opacity:0.3" />
<line x1="535" y1="44" x2="582" y2="44" stroke="pink" stroke-width="1" />
<rect x="582" y="42" width="13" height="5" style="fill:#5d3c2d;stroke:black;stroke-width:1;fill-opacity:1;stroke-opacity:0.3" />
<rect x="616" y="42" width="39" height="5" style="fill:#5d3c2d;stroke:black;stroke-width:1;fill-opacity:1;stroke-opacity:0.3" />
<line x1="596" y1="65" x2="603" y2="67" stroke="black" stroke-width="1" />
<line x1="603" y1="67" x2="611" y2="65" stroke="black" stroke-width="1" />
<rect x="429" y="63" width="7" height="5" style="fill:#5d3c2d;stroke:black;stroke-width:1;fill-opacity:1;stroke-opacity:0.3" />
<line x1="437" y1="65" x2="517" y2="65" stroke="pink" stroke-width="1" />
<rect x="517" y="63" width="17" height="5" style="fill:#5d3c2d;stroke:black;stroke-width:1;fill-opacity:1;stroke-opacity:0.3" />
<line x1="535" y1="65" x2="582" y2="65" stroke="pink" stroke-width="1" />
<rect x="582" y="63" width="13" height="5" style="fill:#5d3c2d;stroke:black;stroke-width:1;fill-opacity:1;stroke-opacity:0.3" />
<rect x="611" y="63" width="39" height="5" style="fill:#5d3c2d;stroke:black;stroke-width:1;fill-opacity:1;stroke-opacity:0.3" />
<line x1="599" y1="86" x2="606" y2="88" stroke="black" stroke-width="1" />
<line x1="606" y1="88" x2="613" y2="86" stroke="black" stroke-width="1" />
<rect x="433" y="84" width="4" height="5" style="fill:#5d3c2d;stroke:black;stroke-width:1;fill-opacity:1;stroke-opacity:0.3" />
<line x1="437" y1="86" x2="517" y2="86" stroke="pink" stroke-width="1" />
<rect x="517" y="84" width="17" height="5" style="fill:#5d3c2d;stroke:black;stroke-width:1;fill-opacity:1;stroke-opacity:0.3" />
<line x1="535" y1="86" x2="582" y2="86" stroke="pink" stroke-width="1" />
<rect x="582" y="84" width="17" height="5" style="fill:#5d3c2d;stroke:black;stroke-width:1;fill-opacity:1;stroke-opacity:0.3" />
<rect x="613" y="84" width="39" height="5" style="fill:#5d3c2d;stroke:black;stroke-width:1;fill-opacity:1;stroke-opacity:0.3" />
<line x1="601" y1="100" x2="606" y2="102" stroke="black" stroke-width="1" />
<line x1="606" y1="102" x2="612" y2="100" stroke="black" stroke-width="1" />
<rect x="434" y="98" width="3" height="5" style="fill:#5d3c2d;stroke:black;stroke-width:1;fill-opacity:1;stroke-opacity:0.3" />
<line x1="437" y1="100" x2="517" y2="100" stroke="pink" stroke-width="1" />
<rect x="517" y="98" width="17" height="5" style="fill:#5d3c2d;stroke:black;stroke-width:1;fill-opacity:1;stroke-opacity:0.3" />
<line x1="535" y1="100" x2="582" y2="100" stroke="pink" stroke-width="1" />
<rect x="582" y="98" width="18" height="5" style="fill:#5d3c2d;stroke:black;stroke-width:1;fill-opacity:1;stroke-opacity:0.3" />
<rect x="612" y="98" width="39" height="5" style="fill:#5d3c2d;stroke:black;stroke-width:1;fill-opacity:1;stroke-opacity:0.3" />
<line x1="610" y1="135" x2="612" y2="137" stroke="black" stroke-width="1" />
<line x1="612" y1="137" x2="615" y2="135" stroke="black" stroke-width="1" />
<rect x="524" y="133" width="10" height="5" style="fill:#5d3c2d;stroke:black;stroke-width:1;fill-opacity:1;stroke-opacity:0.3" />
<line x1="535" y1="135" x2="582" y2="135" stroke="pink" stroke-width="1" />
<rect x="582" y="133" width="28" height="5" style="fill:#5d3c2d;stroke:black;stroke-width:1;fill-opacity:1;stroke-opacity:0.3" />
<rect x="615" y="133" width="39" height="5" style="fill:#5d3c2d;stroke:black;stroke-width:1;fill-opacity:1;stroke-opacity:0.3" />
<line x1="614" y1="156" x2="636" y2="158" stroke="black" stroke-width="1" />
<line x1="636" y1="158" x2="658" y2="156" stroke="black" stroke-width="1" />
<rect x="555" y="154" width="59" height="5" style="fill:#5d3c2d;stroke:black;stroke-width:1;fill-opacity:1;stroke-opacity:0.3" />
<rect x="658" y="154" width="59" height="5" style="fill:#5d3c2d;stroke:black;stroke-width:1;fill-opacity:1;stroke-opacity:0.3" />
<line x1="625" y1="79" x2="627" y2="81" stroke="black" stroke-width="1" />
<line x1="627" y1="81" x2="629" y2="79" stroke="black" stroke-width="1" />
<rect x="585" y="77" width="39" height="5" style="fill:#5d3c2d;stroke:black;stroke-width:1;fill-opacity:1;stroke-opacity:0.3" />
<rect x="629" y="77" width="39" height="5" style="fill:#5d3c2d;stroke:black;stroke-width:1;fill-opacity:1;stroke-opacity:0.3" />
<line x1="637" y1="163" x2="641" y2="165" stroke="black" stroke-width="1" />
<line x1="641" y1="165" x2="645" y2="163" stroke="black" stroke-width="1" />
<rect x="598" y="161" width="39" height="5" style="fill:#5d3c2d;stroke:black;stroke-width:1;fill-opacity:1;stroke-opacity:0.3" />
<rect x="645" y="161" width="39" height="5" style="fill:#5d3c2d;stroke:black;stroke-width:1;fill-opacity:1;stroke-opacity:0.3" />
<line x1="649" y1="72" x2="663" y2="74" stroke="black" stroke-width="1" />
<line x1="663" y1="74" x2="678" y2="72" stroke="black" stroke-width="1" />
<rect x="609" y="70" width="39" height="5" style="fill:#5d3c2d;stroke:black;stroke-width:1;fill-opacity:1;stroke-opacity:0.3" />
<rect x="678" y="70" width="39" height="5" style="fill:#5d3c2d;stroke:black;stroke-width:1;fill-opacity:1;stroke-opacity:0.3" />
<line x1="659" y1="121" x2="662" y2="123" stroke="black" stroke-width="1" />
<line x1="662" y1="123" x2="665" y2="121" stroke="black" stroke-width="1" />
<rect x="619" y="119" width="39" height="5" style="fill:#5d3c2d;stroke:black;stroke-width:1;fill-opacity:1;stroke-opacity:0.3" />
<rect x="665" y="119" width="39" height="5" style="fill:#5d3c2d;stroke:black;stroke-width:1;fill-opacity:1;stroke-opacity:0.3" />
<line x1="662" y1="114" x2="664" y2="116" stroke="black" stroke-width="1" />
<line x1="664" y1="116" x2="666" y2="114" stroke="black" stroke-width="1" />
<rect x="623" y="112" width="39" height="5" style="fill:#5d3c2d;stroke:black;stroke-width:1;fill-opacity:1;stroke-opacity:0.3" />
<rect x="666" y="112" width="39" height="5" style="fill:#5d3c2d;stroke:black;stroke-width:1;fill-opacity:1;stroke-opacity:0.3" />
<line x1="667" y1="58" x2="672" y2="60" stroke="black" stroke-width="1" />
<line x1="672" y1="60" x2="678" y2="58" stroke="black" stroke-width="1" />
<rect x="628" y="56" width="39" height="5" style="fill:#5d3c2d;stroke:black;stroke-width:1;fill-opacity:1;stroke-opacity:0.3" />
<rect x="678" y="56" width="39" height="5" style="fill:#5d3c2d;stroke:black;stroke-width:1;fill-opacity:1;stroke-opacity:0.3" />
<line x1="669" y1="128" x2="673" y2="130" stroke="black" stroke-width="1" />
<line x1="673" y1="130" x2="678" y2="128" stroke="black" stroke-width="1" />
<rect x="629" y="126" width="39" height="5" style="fill:#5d3c2d;stroke:black;stroke-width:1;fill-opacity:1;stroke-opacity:0.3" />
<rect x="678" y="126" width="39" height="5" style="fill:#5d3c2d;stroke:black;stroke-width:1;fill-opacity:1;stroke-opacity:0.3" />
<line x1="670" y1="142" x2="679" y2="144" stroke="black" stroke-width="1" />
<line x1="679" y1="144" x2="689" y2="142" stroke="black" stroke-width="1" />
<rect x="630" y="140" width="39" height="5" style="fill:#5d3c2d;stroke:black;stroke-width:1;fill-opacity:1;stroke-opacity:0.3" />
<rect x="689" y="140" width="39" height="5" style="fill:#5d3c2d;stroke:black;stroke-width:1;fill-opacity:1;stroke-opacity:0.3" />
<line x1="671" y1="51" x2="674" y2="53" stroke="black" stroke-width="1" />
<line x1="674" y1="53" x2="678" y2="51" stroke="black" stroke-width="1" />
<rect x="632" y="49" width="39" height="5" style="fill:#5d3c2d;stroke:black;stroke-width:1;fill-opacity:1;stroke-opacity:0.3" />
<rect x="678" y="49" width="39" height="5" style="fill:#5d3c2d;stroke:black;stroke-width:1;fill-opacity:1;stroke-opacity:0.3" />
<line x1="672" y1="93" x2="674" y2="95" stroke="black" stroke-width="1" />
<line x1="674" y1="95" x2="677" y2="93" stroke="black" stroke-width="1" />
<rect x="632" y="91" width="39" height="5" style="fill:#5d3c2d;stroke:black;stroke-width:1;fill-opacity:1;stroke-opacity:0.3" />
<rect x="677" y="91" width="39" height="5" style="fill:#5d3c2d;stroke:black;stroke-width:1;fill-opacity:1;stroke-opacity:0.3" />
<line x1="672" y1="107" x2="675" y2="109" stroke="black" stroke-width="1" />
<line x1="675" y1="109" x2="678" y2="107" stroke="black" stroke-width="1" />
<rect x="633" y="105" width="39" height="5" style="fill:#5d3c2d;stroke:black;stroke-width:1;fill-opacity:1;stroke-opacity:0.3" />
<rect x="678" y="105" width="39" height="5" style="fill:#5d3c2d;stroke:black;stroke-width:1;fill-opacity:1;stroke-opacity:0.3" />
<line x1="673" y1="30" x2="675" y2="32" stroke="black" stroke-width="1" />
<line x1="675" y1="32" x2="678" y2="30" stroke="black" stroke-width="1" />
<rect x="633" y="28" width="39" height="5" style="fill:#5d3c2d;stroke:black;stroke-width:1;fill-opacity:1;stroke-opacity:0.3" />
<rect x="678" y="28" width="39" height="5" style="fill:#5d3c2d;stroke:black;stroke-width:1;fill-opacity:1;stroke-opacity:0.3" />
<line x1="684" y1="37" x2="686" y2="39" stroke="black" stroke-width="1" />
<line x1="686" y1="39" x2="689" y2="37" stroke="black" stroke-width="1" />
<rect x="645" y="35" width="39" height="5" style="fill:#5d3c2d;stroke:black;stroke-width:1;fill-opacity:1;stroke-opacity:0.3" />
<rect x="689" y="35" width="39" height="5" style="fill:#5d3c2d;stroke:black;stroke-width:1;fill-opacity:1;stroke-opacity:0.3" />
<line x1="690" y1="65" x2="695" y2="67" stroke="black" stroke-width="1" />
<line x1="695" y1="67" x2="700" y2="65" stroke="black" stroke-width="1" />
<rect x="651" y="63" width="39" height="5" style="fill:#5d3c2d;stroke:black;stroke-width:1;fill-opacity:1;stroke-opacity:0.3" />
<rect x="700" y="63" width="39" height="5" style="fill:#5d3c2d;stroke:black;stroke-width:1;fill-opacity:1;stroke-opacity:0.3" />
<line x1="691" y1="100" x2="695" y2="102" stroke="black" stroke-width="1" />
<line x1="695" y1="102" x2="700" y2="100" stroke="black" stroke-width="1" />
<rect x="651" y="98" width="39" height="5" style="fill:#5d3c2d;stroke:black;stroke-width:1;fill-opacity:1;stroke-opacity:0.3" />
<rect x="700" y="98" width="39" height="5" style="fill:#5d3c2d;stroke:black;stroke-width:1;fill-opacity:1;stroke-opacity:0.3" />
<line x1="692" y1="86" x2="695" y2="88" stroke="black" stroke-width="1" />
<line x1="695" y1="88" x2="699" y2="86" stroke="black" stroke-width="1" />
<rect x="652" y="84" width="39" height="5" style="fill:#5d3c2d;stroke:black;stroke-width:1;fill-opacity:1;stroke-opacity:0.3" />
<rect x="699" y="84" width="39" height="5" style="fill:#5d3c2d;stroke:black;stroke-width:1;fill-opacity:1;stroke-opacity:0.3" />
<line x1="696" y1="44" x2="698" y2="46" stroke="black" stroke-width="1" />
<line x1="698" y1="46" x2="701" y2="44" stroke="black" stroke-width="1" />
<rect x="657" y="42" width="39" height="5" style="fill:#5d3c2d;stroke:black;stroke-width:1;fill-opacity:1;stroke-opacity:0.3" />
<rect x="701" y="42" width="39" height="5" style="fill:#5d3c2d;stroke:black;stroke-width:1;fill-opacity:1;stroke-opacity:0.3" />
<line x1="696" y1="135" x2="698" y2="137" stroke="black" stroke-width="1" />
<line x1="698" y1="137" x2="701" y2="135" stroke="black" stroke-width="1" />
<rect x="657" y="133" width="39" height="5" style="fill:#5d3c2d;stroke:black;stroke-width:1;fill-opacity:1;stroke-opacity:0.3" />
<rect x="701" y="133" width="39" height="5" style="fill:#5d3c2d;stroke:black;stroke-width:1;fill-opacity:1;stroke-opacity:0.3" />
<line x1="696" y1="149" x2="698" y2="151" stroke="black" stroke-width="1" />
<line x1="698" y1="151" x2="701" y2="149" stroke="black" stroke-width="1" />
<rect x="657" y="147" width="39" height="5" style="fill:#5d3c2d;stroke:black;stroke-width:1;fill-opacity:1;stroke-opacity:0.3" />
<rect x="701" y="147" width="39" height="5" style="fill:#5d3c2d;stroke:black;stroke-width:1;fill-opacity:1;stroke-opacity:0.3" />
<line x1="710" y1="79" x2="717" y2="81" stroke="black" stroke-width="1" />
<line x1="717" y1="81" x2="725" y2="79" stroke="black" stroke-width="1" />
<rect x="671" y="77" width="39" height="5" style="fill:#f5b024;stroke:black;stroke-width:1;fill-opacity:1;stroke-opacity:0.3" />
<rect x="725" y="77" width="39" height="5" style="fill:#f5b024;stroke:black;stroke-width:1;fill-opacity:1;stroke-opacity:0.3" />
<line x1="724" y1="163" x2="731" y2="165" stroke="black" stroke-width="1" />
<line x1="731" y1="165" x2="738" y2="163" stroke="black" stroke-width="1" />
<rect x="684" y="161" width="39" height="5" style="fill:#5d3c2d;stroke:black;stroke-width:1;fill-opacity:1;stroke-opacity:0.3" />
<rect x="738" y="161" width="39" height="5" style="fill:#5d3c2d;stroke:black;stroke-width:1;fill-opacity:1;stroke-opacity:0.3" />
<line x1="785" y1="30" x2="790" y2="32" stroke="black" stroke-width="1" />
<line x1="790" y1="32" x2="796" y2="30" stroke="black" stroke-width="1" />
<rect x="746" y="28" width="39" height="5" style="fill:#5d3c2d;stroke:black;stroke-width:1;fill-opacity:1;stroke-opacity:0.3" />
<rect x="796" y="28" width="39" height="5" style="fill:#5d3c2d;stroke:black;stroke-width:1;fill-opacity:1;stroke-opacity:0.3" />
<line x1="791" y1="37" x2="802" y2="39" stroke="black" stroke-width="1" />
<line x1="802" y1="39" x2="813" y2="37" stroke="black" stroke-width="1" />
<rect x="752" y="35" width="39" height="5" style="fill:#5d3c2d;stroke:black;stroke-width:1;fill-opacity:1;stroke-opacity:0.3" />
<rect x="813" y="35" width="39" height="5" style="fill:#5d3c2d;stroke:black;stroke-width:1;fill-opacity:1;stroke-opacity:0.3" />
<line x1="847" y1="44" x2="851" y2="46" stroke="black" stroke-width="1" />
<line x1="851" y1="46" x2="855" y2="44" stroke="black" stroke-width="1" />
<rect x="788" y="42" width="59" height="5" style="fill:#5d3c2d;stroke:black;stroke-width:1;fill-opacity:1;stroke-opacity:0.3" />
<rect x="855" y="42" width="59" height="5" style="fill:#5d3c2d;stroke:black;stroke-width:1;fill-opacity:1;stroke-opacity:0.3" />
<line x1="847" y1="51" x2="851" y2="53" stroke="black" stroke-width="1" />
<line x1="851" y1="53" x2="855" y2="51" stroke="black" stroke-width="1" />
<rect x="788" y="49" width="59" height="5" style="fill:#5d3c2d;stroke:black;stroke-width:1;fill-opacity:1;stroke-opacity:0.3" />
<rect x="855" y="49" width="59" height="5" style="fill:#5d3c2d;stroke:black;stroke-width:1;fill-opacity:1;stroke-opacity:0.3" />
<text x="15"  y="176" style="font-family:Arial;font-size:10;stroke:black;fill:black;">all.merged.bam</text>
</svg>
    
