<?xml version="1.0" encoding="utf-8" standalone="no"?>
<!DOCTYPE svg PUBLIC "-//W3C//DTD SVG 1.1//EN"
  "http://www.w3.org/Graphics/SVG/1.1/DTD/svg11.dtd">
<svg height="1140" width="1000" version="1.1" viewBox="0 0 1000 1140" xmlns="http://www.w3.org/2000/svg" xmlns:xlink="http://www.w3.org/1999/xlink">
<line x1="46" y1="11" x2="953" y2="11" stroke="black" stroke-width="1" />
<rect x="46" y="9" width="185" height="5" style="fill:#f50002;stroke:black;stroke-width:1;fill-opacity:1;stroke-opacity:0.3" />
<rect x="232" y="9" width="96" height="5" style="fill:#53a1b5;stroke:black;stroke-width:1;fill-opacity:1;stroke-opacity:0.3" />
<rect x="400" y="9" width="47" height="5" style="fill:#53a1b5;stroke:black;stroke-width:1;fill-opacity:1;stroke-opacity:0.3" />
<rect x="524" y="9" width="33" height="5" style="fill:#53a1b5;stroke:black;stroke-width:1;fill-opacity:1;stroke-opacity:0.3" />
<rect x="586" y="9" width="7" height="5" style="fill:#53a1b5;stroke:black;stroke-width:1;fill-opacity:1;stroke-opacity:0.3" />
<rect x="594" y="9" width="358" height="5" style="fill:#f50002;stroke:black;stroke-width:1;fill-opacity:1;stroke-opacity:0.3" />
<text x="46"  y="23" style="font-family:Arial;font-size:10;stroke:black;fill:black;">Cre02.g142950.t1.2.v5.5 (-) chromosome_2:7702447-7704412</text>
<line x1="68" y1="30" x2="73" y2="32" stroke="black" stroke-width="1" />
<line x1="73" y1="32" x2="78" y2="30" stroke="black" stroke-width="1" />
<rect x="22" y="28" width="46" height="5" style="fill:#f5b024;stroke:black;stroke-width:1;fill-opacity:1;stroke-opacity:0.3" />
<rect x="78" y="28" width="46" height="5" style="fill:#f5b024;stroke:black;stroke-width:1;fill-opacity:1;stroke-opacity:0.3" />
<line x1="68" y1="37" x2="71" y2="39" stroke="black" stroke-width="1" />
<line x1="71" y1="39" x2="75" y2="37" stroke="black" stroke-width="1" />
<rect x="23" y="35" width="45" height="5" style="fill:#f5b024;stroke:black;stroke-width:1;fill-opacity:1;stroke-opacity:0.3" />
<rect x="75" y="35" width="46" height="5" style="fill:#f5b024;stroke:black;stroke-width:1;fill-opacity:1;stroke-opacity:0.3" />
<line x1="91" y1="44" x2="99" y2="46" stroke="black" stroke-width="1" />
<line x1="99" y1="46" x2="108" y2="44" stroke="black" stroke-width="1" />
<rect x="23" y="42" width="68" height="5" style="fill:#f5b024;stroke:black;stroke-width:1;fill-opacity:1;stroke-opacity:0.3" />
<rect x="108" y="42" width="69" height="5" style="fill:#f5b024;stroke:black;stroke-width:1;fill-opacity:1;stroke-opacity:0.3" />
<line x1="68" y1="51" x2="71" y2="53" stroke="black" stroke-width="1" />
<line x1="71" y1="53" x2="75" y2="51" stroke="black" stroke-width="1" />
<rect x="23" y="49" width="45" height="5" style="fill:#f5b024;stroke:black;stroke-width:1;fill-opacity:1;stroke-opacity:0.3" />
<rect x="75" y="49" width="46" height="5" style="fill:#f5b024;stroke:black;stroke-width:1;fill-opacity:1;stroke-opacity:0.3" />
<line x1="69" y1="58" x2="76" y2="60" stroke="black" stroke-width="1" />
<line x1="76" y1="60" x2="84" y2="58" stroke="black" stroke-width="1" />
<rect x="23" y="56" width="46" height="5" style="fill:#f5b024;stroke:black;stroke-width:1;fill-opacity:1;stroke-opacity:0.3" />
<rect x="84" y="56" width="46" height="5" style="fill:#f5b024;stroke:black;stroke-width:1;fill-opacity:1;stroke-opacity:0.3" />
<line x1="69" y1="65" x2="76" y2="67" stroke="black" stroke-width="1" />
<line x1="76" y1="67" x2="83" y2="65" stroke="black" stroke-width="1" />
<rect x="23" y="63" width="46" height="5" style="fill:#f5b024;stroke:black;stroke-width:1;fill-opacity:1;stroke-opacity:0.3" />
<rect x="83" y="63" width="46" height="5" style="fill:#f5b024;stroke:black;stroke-width:1;fill-opacity:1;stroke-opacity:0.3" />
<line x1="71" y1="72" x2="81" y2="74" stroke="black" stroke-width="1" />
<line x1="81" y1="74" x2="92" y2="72" stroke="black" stroke-width="1" />
<rect x="24" y="70" width="46" height="5" style="fill:#f5b024;stroke:black;stroke-width:1;fill-opacity:1;stroke-opacity:0.3" />
<rect x="92" y="70" width="46" height="5" style="fill:#f5b024;stroke:black;stroke-width:1;fill-opacity:1;stroke-opacity:0.3" />
<line x1="74" y1="79" x2="77" y2="81" stroke="black" stroke-width="1" />
<line x1="77" y1="81" x2="80" y2="79" stroke="black" stroke-width="1" />
<rect x="28" y="77" width="46" height="5" style="fill:#f5b024;stroke:black;stroke-width:1;fill-opacity:1;stroke-opacity:0.3" />
<rect x="80" y="77" width="46" height="5" style="fill:#f5b024;stroke:black;stroke-width:1;fill-opacity:1;stroke-opacity:0.3" />
<line x1="74" y1="86" x2="77" y2="88" stroke="black" stroke-width="1" />
<line x1="77" y1="88" x2="80" y2="86" stroke="black" stroke-width="1" />
<rect x="28" y="84" width="46" height="5" style="fill:#f5b024;stroke:black;stroke-width:1;fill-opacity:1;stroke-opacity:0.3" />
<rect x="80" y="84" width="46" height="5" style="fill:#f5b024;stroke:black;stroke-width:1;fill-opacity:1;stroke-opacity:0.3" />
<line x1="78" y1="93" x2="82" y2="95" stroke="black" stroke-width="1" />
<line x1="82" y1="95" x2="86" y2="93" stroke="black" stroke-width="1" />
<rect x="32" y="91" width="45" height="5" style="fill:#f5b024;stroke:black;stroke-width:1;fill-opacity:1;stroke-opacity:0.3" />
<rect x="86" y="91" width="46" height="5" style="fill:#f5b024;stroke:black;stroke-width:1;fill-opacity:1;stroke-opacity:0.3" />
<line x1="78" y1="100" x2="82" y2="102" stroke="black" stroke-width="1" />
<line x1="82" y1="102" x2="87" y2="100" stroke="black" stroke-width="1" />
<rect x="32" y="98" width="45" height="5" style="fill:#f5b024;stroke:black;stroke-width:1;fill-opacity:1;stroke-opacity:0.3" />
<rect x="87" y="98" width="46" height="5" style="fill:#f5b024;stroke:black;stroke-width:1;fill-opacity:1;stroke-opacity:0.3" />
<line x1="79" y1="107" x2="92" y2="109" stroke="black" stroke-width="1" />
<line x1="92" y1="109" x2="106" y2="107" stroke="black" stroke-width="1" />
<rect x="33" y="105" width="46" height="5" style="fill:#f5b024;stroke:black;stroke-width:1;fill-opacity:1;stroke-opacity:0.3" />
<rect x="106" y="105" width="46" height="5" style="fill:#f5b024;stroke:black;stroke-width:1;fill-opacity:1;stroke-opacity:0.3" />
<line x1="79" y1="114" x2="84" y2="116" stroke="black" stroke-width="1" />
<line x1="84" y1="116" x2="89" y2="114" stroke="black" stroke-width="1" />
<rect x="33" y="112" width="46" height="5" style="fill:#f5b024;stroke:black;stroke-width:1;fill-opacity:1;stroke-opacity:0.3" />
<rect x="89" y="112" width="46" height="5" style="fill:#f5b024;stroke:black;stroke-width:1;fill-opacity:1;stroke-opacity:0.3" />
<line x1="80" y1="121" x2="93" y2="123" stroke="black" stroke-width="1" />
<line x1="93" y1="123" x2="106" y2="121" stroke="black" stroke-width="1" />
<rect x="34" y="119" width="46" height="5" style="fill:#f5b024;stroke:black;stroke-width:1;fill-opacity:1;stroke-opacity:0.3" />
<rect x="106" y="119" width="46" height="5" style="fill:#f5b024;stroke:black;stroke-width:1;fill-opacity:1;stroke-opacity:0.3" />
<line x1="80" y1="128" x2="85" y2="130" stroke="black" stroke-width="1" />
<line x1="85" y1="130" x2="90" y2="128" stroke="black" stroke-width="1" />
<rect x="34" y="126" width="46" height="5" style="fill:#5d3c2d;stroke:black;stroke-width:1;fill-opacity:1;stroke-opacity:0.3" />
<rect x="90" y="126" width="46" height="5" style="fill:#5d3c2d;stroke:black;stroke-width:1;fill-opacity:1;stroke-opacity:0.3" />
<line x1="80" y1="135" x2="85" y2="137" stroke="black" stroke-width="1" />
<line x1="85" y1="137" x2="90" y2="135" stroke="black" stroke-width="1" />
<rect x="34" y="133" width="46" height="5" style="fill:#f5b024;stroke:black;stroke-width:1;fill-opacity:1;stroke-opacity:0.3" />
<rect x="90" y="133" width="46" height="5" style="fill:#f5b024;stroke:black;stroke-width:1;fill-opacity:1;stroke-opacity:0.3" />
<line x1="83" y1="142" x2="85" y2="144" stroke="black" stroke-width="1" />
<line x1="85" y1="144" x2="87" y2="142" stroke="black" stroke-width="1" />
<rect x="36" y="140" width="46" height="5" style="fill:#f5b024;stroke:black;stroke-width:1;fill-opacity:1;stroke-opacity:0.3" />
<rect x="87" y="140" width="46" height="5" style="fill:#f5b024;stroke:black;stroke-width:1;fill-opacity:1;stroke-opacity:0.3" />
<line x1="84" y1="149" x2="87" y2="151" stroke="black" stroke-width="1" />
<line x1="87" y1="151" x2="90" y2="149" stroke="black" stroke-width="1" />
<rect x="37" y="147" width="46" height="5" style="fill:#f5b024;stroke:black;stroke-width:1;fill-opacity:1;stroke-opacity:0.3" />
<rect x="90" y="147" width="46" height="5" style="fill:#f5b024;stroke:black;stroke-width:1;fill-opacity:1;stroke-opacity:0.3" />
<line x1="84" y1="156" x2="88" y2="158" stroke="black" stroke-width="1" />
<line x1="88" y1="158" x2="92" y2="156" stroke="black" stroke-width="1" />
<rect x="37" y="154" width="46" height="5" style="fill:#f5b024;stroke:black;stroke-width:1;fill-opacity:1;stroke-opacity:0.3" />
<rect x="92" y="154" width="46" height="5" style="fill:#f5b024;stroke:black;stroke-width:1;fill-opacity:1;stroke-opacity:0.3" />
<line x1="84" y1="163" x2="88" y2="165" stroke="black" stroke-width="1" />
<line x1="88" y1="165" x2="92" y2="163" stroke="black" stroke-width="1" />
<rect x="37" y="161" width="46" height="5" style="fill:#f5b024;stroke:black;stroke-width:1;fill-opacity:1;stroke-opacity:0.3" />
<rect x="92" y="161" width="46" height="5" style="fill:#f5b024;stroke:black;stroke-width:1;fill-opacity:1;stroke-opacity:0.3" />
<line x1="169" y1="37" x2="173" y2="39" stroke="black" stroke-width="1" />
<line x1="173" y1="39" x2="177" y2="37" stroke="black" stroke-width="1" />
<rect x="123" y="35" width="46" height="5" style="fill:#f5b024;stroke:black;stroke-width:1;fill-opacity:1;stroke-opacity:0.3" />
<rect x="177" y="35" width="46" height="5" style="fill:#f5b024;stroke:black;stroke-width:1;fill-opacity:1;stroke-opacity:0.3" />
<line x1="169" y1="51" x2="174" y2="53" stroke="black" stroke-width="1" />
<line x1="174" y1="53" x2="179" y2="51" stroke="black" stroke-width="1" />
<rect x="123" y="49" width="46" height="5" style="fill:#f5b024;stroke:black;stroke-width:1;fill-opacity:1;stroke-opacity:0.3" />
<rect x="179" y="49" width="46" height="5" style="fill:#f5b024;stroke:black;stroke-width:1;fill-opacity:1;stroke-opacity:0.3" />
<line x1="170" y1="30" x2="187" y2="32" stroke="black" stroke-width="1" />
<line x1="187" y1="32" x2="205" y2="30" stroke="black" stroke-width="1" />
<rect x="124" y="28" width="46" height="5" style="fill:#f5b024;stroke:black;stroke-width:1;fill-opacity:1;stroke-opacity:0.3" />
<rect x="205" y="28" width="46" height="5" style="fill:#f5b024;stroke:black;stroke-width:1;fill-opacity:1;stroke-opacity:0.3" />
<line x1="172" y1="79" x2="179" y2="81" stroke="black" stroke-width="1" />
<line x1="179" y1="81" x2="187" y2="79" stroke="black" stroke-width="1" />
<rect x="126" y="77" width="45" height="5" style="fill:#f5b024;stroke:black;stroke-width:1;fill-opacity:1;stroke-opacity:0.3" />
<rect x="187" y="77" width="46" height="5" style="fill:#f5b024;stroke:black;stroke-width:1;fill-opacity:1;stroke-opacity:0.3" />
<line x1="174" y1="86" x2="177" y2="88" stroke="black" stroke-width="1" />
<line x1="177" y1="88" x2="180" y2="86" stroke="black" stroke-width="1" />
<rect x="128" y="84" width="46" height="5" style="fill:#f5b024;stroke:black;stroke-width:1;fill-opacity:1;stroke-opacity:0.3" />
<rect x="180" y="84" width="46" height="5" style="fill:#f5b024;stroke:black;stroke-width:1;fill-opacity:1;stroke-opacity:0.3" />
<line x1="176" y1="65" x2="192" y2="67" stroke="black" stroke-width="1" />
<line x1="192" y1="67" x2="208" y2="65" stroke="black" stroke-width="1" />
<rect x="130" y="63" width="46" height="5" style="fill:#f5b024;stroke:black;stroke-width:1;fill-opacity:1;stroke-opacity:0.3" />
<rect x="208" y="63" width="46" height="5" style="fill:#f5b024;stroke:black;stroke-width:1;fill-opacity:1;stroke-opacity:0.3" />
<line x1="176" y1="58" x2="185" y2="60" stroke="black" stroke-width="1" />
<line x1="185" y1="60" x2="194" y2="58" stroke="black" stroke-width="1" />
<rect x="130" y="56" width="45" height="5" style="fill:#f5b024;stroke:black;stroke-width:1;fill-opacity:1;stroke-opacity:0.3" />
<rect x="194" y="56" width="46" height="5" style="fill:#f5b024;stroke:black;stroke-width:1;fill-opacity:1;stroke-opacity:0.3" />
<line x1="178" y1="93" x2="200" y2="95" stroke="black" stroke-width="1" />
<line x1="200" y1="95" x2="222" y2="93" stroke="black" stroke-width="1" />
<rect x="132" y="91" width="46" height="5" style="fill:#f5b024;stroke:black;stroke-width:1;fill-opacity:1;stroke-opacity:0.3" />
<rect x="222" y="91" width="46" height="5" style="fill:#f5b024;stroke:black;stroke-width:1;fill-opacity:1;stroke-opacity:0.3" />
<line x1="180" y1="100" x2="191" y2="102" stroke="black" stroke-width="1" />
<line x1="191" y1="102" x2="202" y2="100" stroke="black" stroke-width="1" />
<rect x="133" y="98" width="46" height="5" style="fill:#f5b024;stroke:black;stroke-width:1;fill-opacity:1;stroke-opacity:0.3" />
<rect x="202" y="98" width="46" height="5" style="fill:#f5b024;stroke:black;stroke-width:1;fill-opacity:1;stroke-opacity:0.3" />
<line x1="180" y1="142" x2="184" y2="144" stroke="black" stroke-width="1" />
<line x1="184" y1="144" x2="188" y2="142" stroke="black" stroke-width="1" />
<rect x="133" y="140" width="46" height="5" style="fill:#f5b024;stroke:black;stroke-width:1;fill-opacity:1;stroke-opacity:0.3" />
<rect x="188" y="140" width="46" height="5" style="fill:#f5b024;stroke:black;stroke-width:1;fill-opacity:1;stroke-opacity:0.3" />
<line x1="181" y1="114" x2="199" y2="116" stroke="black" stroke-width="1" />
<line x1="199" y1="116" x2="217" y2="114" stroke="black" stroke-width="1" />
<rect x="135" y="112" width="46" height="5" style="fill:#f5b024;stroke:black;stroke-width:1;fill-opacity:1;stroke-opacity:0.3" />
<rect x="217" y="112" width="46" height="5" style="fill:#f5b024;stroke:black;stroke-width:1;fill-opacity:1;stroke-opacity:0.3" />
<line x1="184" y1="128" x2="197" y2="130" stroke="black" stroke-width="1" />
<line x1="197" y1="130" x2="210" y2="128" stroke="black" stroke-width="1" />
<rect x="138" y="126" width="46" height="5" style="fill:#f5b024;stroke:black;stroke-width:1;fill-opacity:1;stroke-opacity:0.3" />
<rect x="210" y="126" width="46" height="5" style="fill:#f5b024;stroke:black;stroke-width:1;fill-opacity:1;stroke-opacity:0.3" />
<line x1="187" y1="72" x2="190" y2="74" stroke="black" stroke-width="1" />
<line x1="190" y1="74" x2="193" y2="72" stroke="black" stroke-width="1" />
<rect x="141" y="70" width="46" height="5" style="fill:#f5b024;stroke:black;stroke-width:1;fill-opacity:1;stroke-opacity:0.3" />
<rect x="193" y="70" width="46" height="5" style="fill:#f5b024;stroke:black;stroke-width:1;fill-opacity:1;stroke-opacity:0.3" />
<line x1="192" y1="135" x2="195" y2="137" stroke="black" stroke-width="1" />
<line x1="195" y1="137" x2="198" y2="135" stroke="black" stroke-width="1" />
<rect x="146" y="133" width="46" height="5" style="fill:#f5b024;stroke:black;stroke-width:1;fill-opacity:1;stroke-opacity:0.3" />
<rect x="198" y="133" width="46" height="5" style="fill:#f5b024;stroke:black;stroke-width:1;fill-opacity:1;stroke-opacity:0.3" />
<line x1="192" y1="149" x2="195" y2="151" stroke="black" stroke-width="1" />
<line x1="195" y1="151" x2="198" y2="149" stroke="black" stroke-width="1" />
<rect x="147" y="147" width="45" height="5" style="fill:#f5b024;stroke:black;stroke-width:1;fill-opacity:1;stroke-opacity:0.3" />
<rect x="198" y="147" width="46" height="5" style="fill:#f5b024;stroke:black;stroke-width:1;fill-opacity:1;stroke-opacity:0.3" />
<line x1="193" y1="156" x2="202" y2="158" stroke="black" stroke-width="1" />
<line x1="202" y1="158" x2="212" y2="156" stroke="black" stroke-width="1" />
<rect x="147" y="154" width="46" height="5" style="fill:#f5b024;stroke:black;stroke-width:1;fill-opacity:1;stroke-opacity:0.3" />
<rect x="212" y="154" width="46" height="5" style="fill:#f5b024;stroke:black;stroke-width:1;fill-opacity:1;stroke-opacity:0.3" />
<line x1="193" y1="163" x2="199" y2="165" stroke="black" stroke-width="1" />
<line x1="199" y1="165" x2="206" y2="163" stroke="black" stroke-width="1" />
<rect x="147" y="161" width="46" height="5" style="fill:#f5b024;stroke:black;stroke-width:1;fill-opacity:1;stroke-opacity:0.3" />
<rect x="206" y="161" width="46" height="5" style="fill:#f5b024;stroke:black;stroke-width:1;fill-opacity:1;stroke-opacity:0.3" />
<line x1="208" y1="107" x2="212" y2="109" stroke="black" stroke-width="1" />
<line x1="212" y1="109" x2="216" y2="107" stroke="black" stroke-width="1" />
<rect x="162" y="105" width="46" height="5" style="fill:#f5b024;stroke:black;stroke-width:1;fill-opacity:1;stroke-opacity:0.3" />
<rect x="216" y="105" width="46" height="5" style="fill:#f5b024;stroke:black;stroke-width:1;fill-opacity:1;stroke-opacity:0.3" />
<line x1="209" y1="121" x2="220" y2="123" stroke="black" stroke-width="1" />
<line x1="220" y1="123" x2="231" y2="121" stroke="black" stroke-width="1" />
<rect x="165" y="119" width="44" height="5" style="fill:#f5b024;stroke:black;stroke-width:1;fill-opacity:1;stroke-opacity:0.3" />
<rect x="231" y="119" width="46" height="5" style="fill:#f5b024;stroke:black;stroke-width:1;fill-opacity:1;stroke-opacity:0.3" />
<line x1="224" y1="44" x2="236" y2="46" stroke="black" stroke-width="1" />
<line x1="236" y1="46" x2="248" y2="44" stroke="black" stroke-width="1" />
<rect x="178" y="42" width="46" height="5" style="fill:#f5b024;stroke:black;stroke-width:1;fill-opacity:1;stroke-opacity:0.3" />
<rect x="248" y="42" width="46" height="5" style="fill:#f5b024;stroke:black;stroke-width:1;fill-opacity:1;stroke-opacity:0.3" />
<line x1="289" y1="37" x2="294" y2="39" stroke="black" stroke-width="1" />
<line x1="294" y1="39" x2="299" y2="37" stroke="black" stroke-width="1" />
<rect x="223" y="35" width="65" height="5" style="fill:#5d3c2d;stroke:black;stroke-width:1;fill-opacity:1;stroke-opacity:0.3" />
<rect x="299" y="35" width="30" height="5" style="fill:#5d3c2d;stroke:black;stroke-width:1;fill-opacity:1;stroke-opacity:0.3" />
<line x1="329" y1="37" x2="400" y2="37" stroke="pink" stroke-width="1" />
<rect x="400" y="35" width="33" height="5" style="fill:#5d3c2d;stroke:black;stroke-width:1;fill-opacity:1;stroke-opacity:0.3" />
<line x1="289" y1="51" x2="294" y2="53" stroke="black" stroke-width="1" />
<line x1="294" y1="53" x2="299" y2="51" stroke="black" stroke-width="1" />
<rect x="225" y="49" width="63" height="5" style="fill:#5d3c2d;stroke:black;stroke-width:1;fill-opacity:1;stroke-opacity:0.3" />
<rect x="299" y="49" width="29" height="5" style="fill:#5d3c2d;stroke:black;stroke-width:1;fill-opacity:1;stroke-opacity:0.3" />
<line x1="329" y1="51" x2="400" y2="51" stroke="pink" stroke-width="1" />
<rect x="400" y="49" width="33" height="5" style="fill:#5d3c2d;stroke:black;stroke-width:1;fill-opacity:1;stroke-opacity:0.3" />
<line x1="274" y1="86" x2="282" y2="88" stroke="black" stroke-width="1" />
<line x1="282" y1="88" x2="290" y2="86" stroke="black" stroke-width="1" />
<rect x="228" y="84" width="46" height="5" style="fill:#f5b024;stroke:black;stroke-width:1;fill-opacity:1;stroke-opacity:0.3" />
<rect x="290" y="84" width="38" height="5" style="fill:#f5b024;stroke:black;stroke-width:1;fill-opacity:1;stroke-opacity:0.3" />
<line x1="329" y1="86" x2="400" y2="86" stroke="pink" stroke-width="1" />
<rect x="400" y="84" width="7" height="5" style="fill:#f5b024;stroke:black;stroke-width:1;fill-opacity:1;stroke-opacity:0.3" />
<line x1="280" y1="79" x2="290" y2="81" stroke="black" stroke-width="1" />
<line x1="290" y1="81" x2="301" y2="79" stroke="black" stroke-width="1" />
<rect x="234" y="77" width="46" height="5" style="fill:#f5b024;stroke:black;stroke-width:1;fill-opacity:1;stroke-opacity:0.3" />
<rect x="301" y="77" width="27" height="5" style="fill:#f5b024;stroke:black;stroke-width:1;fill-opacity:1;stroke-opacity:0.3" />
<line x1="329" y1="79" x2="400" y2="79" stroke="pink" stroke-width="1" />
<rect x="400" y="77" width="18" height="5" style="fill:#f5b024;stroke:black;stroke-width:1;fill-opacity:1;stroke-opacity:0.3" />
<line x1="282" y1="142" x2="284" y2="144" stroke="black" stroke-width="1" />
<line x1="284" y1="144" x2="287" y2="142" stroke="black" stroke-width="1" />
<rect x="236" y="140" width="45" height="5" style="fill:#f5b024;stroke:black;stroke-width:1;fill-opacity:1;stroke-opacity:0.3" />
<rect x="287" y="140" width="41" height="5" style="fill:#f5b024;stroke:black;stroke-width:1;fill-opacity:1;stroke-opacity:0.3" />
<line x1="329" y1="142" x2="400" y2="142" stroke="pink" stroke-width="1" />
<rect x="400" y="140" width="4" height="5" style="fill:#f5b024;stroke:black;stroke-width:1;fill-opacity:1;stroke-opacity:0.3" />
<line x1="285" y1="72" x2="288" y2="74" stroke="black" stroke-width="1" />
<line x1="288" y1="74" x2="291" y2="72" stroke="black" stroke-width="1" />
<rect x="239" y="70" width="46" height="5" style="fill:#f5b024;stroke:black;stroke-width:1;fill-opacity:1;stroke-opacity:0.3" />
<rect x="291" y="70" width="37" height="5" style="fill:#f5b024;stroke:black;stroke-width:1;fill-opacity:1;stroke-opacity:0.3" />
<line x1="329" y1="72" x2="400" y2="72" stroke="pink" stroke-width="1" />
<rect x="400" y="70" width="8" height="5" style="fill:#f5b024;stroke:black;stroke-width:1;fill-opacity:1;stroke-opacity:0.3" />
<line x1="318" y1="58" x2="322" y2="60" stroke="black" stroke-width="1" />
<line x1="322" y1="60" x2="326" y2="58" stroke="black" stroke-width="1" />
<rect x="248" y="56" width="69" height="5" style="fill:#f5b024;stroke:black;stroke-width:1;fill-opacity:1;stroke-opacity:0.3" />
<rect x="326" y="56" width="2" height="5" style="fill:#f5b024;stroke:black;stroke-width:1;fill-opacity:1;stroke-opacity:0.3" />
<line x1="329" y1="58" x2="400" y2="58" stroke="pink" stroke-width="1" />
<rect x="400" y="56" width="47" height="5" style="fill:#f5b024;stroke:black;stroke-width:1;fill-opacity:1;stroke-opacity:0.3" />
<line x1="447" y1="58" x2="524" y2="58" stroke="pink" stroke-width="1" />
<rect x="524" y="56" width="18" height="5" style="fill:#f5b024;stroke:black;stroke-width:1;fill-opacity:1;stroke-opacity:0.3" />
<line x1="304" y1="30" x2="306" y2="32" stroke="black" stroke-width="1" />
<line x1="306" y1="32" x2="309" y2="30" stroke="black" stroke-width="1" />
<rect x="258" y="28" width="46" height="5" style="fill:#f5b024;stroke:black;stroke-width:1;fill-opacity:1;stroke-opacity:0.3" />
<rect x="309" y="28" width="19" height="5" style="fill:#f5b024;stroke:black;stroke-width:1;fill-opacity:1;stroke-opacity:0.3" />
<line x1="329" y1="30" x2="400" y2="30" stroke="pink" stroke-width="1" />
<rect x="400" y="28" width="26" height="5" style="fill:#f5b024;stroke:black;stroke-width:1;fill-opacity:1;stroke-opacity:0.3" />
<line x1="304" y1="65" x2="306" y2="67" stroke="black" stroke-width="1" />
<line x1="306" y1="67" x2="309" y2="65" stroke="black" stroke-width="1" />
<rect x="258" y="63" width="46" height="5" style="fill:#f5b024;stroke:black;stroke-width:1;fill-opacity:1;stroke-opacity:0.3" />
<rect x="309" y="63" width="19" height="5" style="fill:#f5b024;stroke:black;stroke-width:1;fill-opacity:1;stroke-opacity:0.3" />
<line x1="329" y1="65" x2="400" y2="65" stroke="pink" stroke-width="1" />
<rect x="400" y="63" width="26" height="5" style="fill:#f5b024;stroke:black;stroke-width:1;fill-opacity:1;stroke-opacity:0.3" />
<line x1="304" y1="100" x2="306" y2="102" stroke="black" stroke-width="1" />
<line x1="306" y1="102" x2="309" y2="100" stroke="black" stroke-width="1" />
<rect x="258" y="98" width="46" height="5" style="fill:#5d3c2d;stroke:black;stroke-width:1;fill-opacity:1;stroke-opacity:0.3" />
<rect x="309" y="98" width="19" height="5" style="fill:#5d3c2d;stroke:black;stroke-width:1;fill-opacity:1;stroke-opacity:0.3" />
<line x1="329" y1="100" x2="400" y2="100" stroke="pink" stroke-width="1" />
<rect x="400" y="98" width="26" height="5" style="fill:#5d3c2d;stroke:black;stroke-width:1;fill-opacity:1;stroke-opacity:0.3" />
<line x1="304" y1="128" x2="306" y2="130" stroke="black" stroke-width="1" />
<line x1="306" y1="130" x2="309" y2="128" stroke="black" stroke-width="1" />
<rect x="258" y="126" width="46" height="5" style="fill:#5d3c2d;stroke:black;stroke-width:1;fill-opacity:1;stroke-opacity:0.3" />
<rect x="309" y="126" width="19" height="5" style="fill:#5d3c2d;stroke:black;stroke-width:1;fill-opacity:1;stroke-opacity:0.3" />
<line x1="329" y1="128" x2="400" y2="128" stroke="pink" stroke-width="1" />
<rect x="400" y="126" width="26" height="5" style="fill:#5d3c2d;stroke:black;stroke-width:1;fill-opacity:1;stroke-opacity:0.3" />
<line x1="306" y1="135" x2="312" y2="137" stroke="black" stroke-width="1" />
<line x1="312" y1="137" x2="319" y2="135" stroke="black" stroke-width="1" />
<rect x="259" y="133" width="46" height="5" style="fill:#f5b024;stroke:black;stroke-width:1;fill-opacity:1;stroke-opacity:0.3" />
<rect x="319" y="133" width="9" height="5" style="fill:#f5b024;stroke:black;stroke-width:1;fill-opacity:1;stroke-opacity:0.3" />
<line x1="329" y1="135" x2="400" y2="135" stroke="pink" stroke-width="1" />
<rect x="400" y="133" width="36" height="5" style="fill:#f5b024;stroke:black;stroke-width:1;fill-opacity:1;stroke-opacity:0.3" />
<line x1="306" y1="149" x2="315" y2="151" stroke="black" stroke-width="1" />
<line x1="315" y1="151" x2="325" y2="149" stroke="black" stroke-width="1" />
<rect x="259" y="147" width="46" height="5" style="fill:#f5b024;stroke:black;stroke-width:1;fill-opacity:1;stroke-opacity:0.3" />
<rect x="325" y="147" width="4" height="5" style="fill:#f5b024;stroke:black;stroke-width:1;fill-opacity:1;stroke-opacity:0.3" />
<line x1="329" y1="149" x2="400" y2="149" stroke="pink" stroke-width="1" />
<rect x="400" y="147" width="42" height="5" style="fill:#f5b024;stroke:black;stroke-width:1;fill-opacity:1;stroke-opacity:0.3" />
<line x1="307" y1="156" x2="354" y2="158" stroke="black" stroke-width="1" />
<line x1="354" y1="158" x2="401" y2="156" stroke="black" stroke-width="1" />
<rect x="260" y="154" width="46" height="5" style="fill:#f5b024;stroke:black;stroke-width:1;fill-opacity:1;stroke-opacity:0.3" />
<rect x="401" y="154" width="46" height="5" style="fill:#f5b024;stroke:black;stroke-width:1;fill-opacity:1;stroke-opacity:0.3" />
<line x1="307" y1="163" x2="312" y2="165" stroke="black" stroke-width="1" />
<line x1="312" y1="165" x2="317" y2="163" stroke="black" stroke-width="1" />
<rect x="260" y="161" width="46" height="5" style="fill:#f5b024;stroke:black;stroke-width:1;fill-opacity:1;stroke-opacity:0.3" />
<rect x="317" y="161" width="11" height="5" style="fill:#f5b024;stroke:black;stroke-width:1;fill-opacity:1;stroke-opacity:0.3" />
<line x1="329" y1="163" x2="400" y2="163" stroke="pink" stroke-width="1" />
<rect x="400" y="161" width="34" height="5" style="fill:#f5b024;stroke:black;stroke-width:1;fill-opacity:1;stroke-opacity:0.3" />
<line x1="313" y1="107" x2="318" y2="109" stroke="black" stroke-width="1" />
<line x1="318" y1="109" x2="324" y2="107" stroke="black" stroke-width="1" />
<rect x="266" y="105" width="46" height="5" style="fill:#f5b024;stroke:black;stroke-width:1;fill-opacity:1;stroke-opacity:0.3" />
<rect x="324" y="105" width="4" height="5" style="fill:#f5b024;stroke:black;stroke-width:1;fill-opacity:1;stroke-opacity:0.3" />
<line x1="329" y1="107" x2="400" y2="107" stroke="pink" stroke-width="1" />
<rect x="400" y="105" width="41" height="5" style="fill:#f5b024;stroke:black;stroke-width:1;fill-opacity:1;stroke-opacity:0.3" />
<line x1="313" y1="114" x2="357" y2="116" stroke="black" stroke-width="1" />
<line x1="357" y1="116" x2="401" y2="114" stroke="black" stroke-width="1" />
<rect x="267" y="112" width="45" height="5" style="fill:#f5b024;stroke:black;stroke-width:1;fill-opacity:1;stroke-opacity:0.3" />
<rect x="401" y="112" width="46" height="5" style="fill:#f5b024;stroke:black;stroke-width:1;fill-opacity:1;stroke-opacity:0.3" />
<line x1="318" y1="93" x2="320" y2="95" stroke="black" stroke-width="1" />
<line x1="320" y1="95" x2="323" y2="93" stroke="black" stroke-width="1" />
<rect x="271" y="91" width="46" height="5" style="fill:#f5b024;stroke:black;stroke-width:1;fill-opacity:1;stroke-opacity:0.3" />
<rect x="323" y="91" width="5" height="5" style="fill:#f5b024;stroke:black;stroke-width:1;fill-opacity:1;stroke-opacity:0.3" />
<line x1="329" y1="93" x2="400" y2="93" stroke="pink" stroke-width="1" />
<rect x="400" y="91" width="40" height="5" style="fill:#f5b024;stroke:black;stroke-width:1;fill-opacity:1;stroke-opacity:0.3" />
<line x1="421" y1="121" x2="427" y2="123" stroke="black" stroke-width="1" />
<line x1="427" y1="123" x2="433" y2="121" stroke="black" stroke-width="1" />
<rect x="280" y="119" width="48" height="5" style="fill:#f5b024;stroke:black;stroke-width:1;fill-opacity:1;stroke-opacity:0.3" />
<line x1="329" y1="121" x2="400" y2="121" stroke="pink" stroke-width="1" />
<rect x="400" y="119" width="20" height="5" style="fill:#f5b024;stroke:black;stroke-width:1;fill-opacity:1;stroke-opacity:0.3" />
<rect x="433" y="119" width="13" height="5" style="fill:#f5b024;stroke:black;stroke-width:1;fill-opacity:1;stroke-opacity:0.3" />
<line x1="447" y1="121" x2="524" y2="121" stroke="pink" stroke-width="1" />
<rect x="524" y="119" width="34" height="5" style="fill:#f5b024;stroke:black;stroke-width:1;fill-opacity:1;stroke-opacity:0.3" />
<line x1="558" y1="121" x2="586" y2="121" stroke="pink" stroke-width="1" />
<rect x="586" y="119" width="20" height="5" style="fill:#f5b024;stroke:black;stroke-width:1;fill-opacity:1;stroke-opacity:0.3" />
<line x1="415" y1="44" x2="420" y2="46" stroke="black" stroke-width="1" />
<line x1="420" y1="46" x2="425" y2="44" stroke="black" stroke-width="1" />
<rect x="298" y="42" width="30" height="5" style="fill:#f5b024;stroke:black;stroke-width:1;fill-opacity:1;stroke-opacity:0.3" />
<line x1="329" y1="44" x2="400" y2="44" stroke="pink" stroke-width="1" />
<rect x="400" y="42" width="15" height="5" style="fill:#f5b024;stroke:black;stroke-width:1;fill-opacity:1;stroke-opacity:0.3" />
<rect x="425" y="42" width="22" height="5" style="fill:#f5b024;stroke:black;stroke-width:1;fill-opacity:1;stroke-opacity:0.3" />
<line x1="447" y1="44" x2="524" y2="44" stroke="pink" stroke-width="1" />
<rect x="524" y="42" width="23" height="5" style="fill:#f5b024;stroke:black;stroke-width:1;fill-opacity:1;stroke-opacity:0.3" />
<line x1="549" y1="142" x2="576" y2="144" stroke="black" stroke-width="1" />
<line x1="576" y1="144" x2="603" y2="142" stroke="black" stroke-width="1" />
<rect x="404" y="140" width="42" height="5" style="fill:#f5b024;stroke:black;stroke-width:1;fill-opacity:1;stroke-opacity:0.3" />
<line x1="447" y1="142" x2="524" y2="142" stroke="pink" stroke-width="1" />
<rect x="524" y="140" width="25" height="5" style="fill:#f5b024;stroke:black;stroke-width:1;fill-opacity:1;stroke-opacity:0.3" />
<rect x="603" y="140" width="69" height="5" style="fill:#f5b024;stroke:black;stroke-width:1;fill-opacity:1;stroke-opacity:0.3" />
<line x1="532" y1="72" x2="535" y2="74" stroke="black" stroke-width="1" />
<line x1="535" y1="74" x2="538" y2="72" stroke="black" stroke-width="1" />
<rect x="409" y="70" width="37" height="5" style="fill:#f5b024;stroke:black;stroke-width:1;fill-opacity:1;stroke-opacity:0.3" />
<line x1="447" y1="72" x2="524" y2="72" stroke="pink" stroke-width="1" />
<rect x="524" y="70" width="8" height="5" style="fill:#f5b024;stroke:black;stroke-width:1;fill-opacity:1;stroke-opacity:0.3" />
<rect x="538" y="70" width="19" height="5" style="fill:#f5b024;stroke:black;stroke-width:1;fill-opacity:1;stroke-opacity:0.3" />
<line x1="558" y1="72" x2="586" y2="72" stroke="pink" stroke-width="1" />
<rect x="586" y="70" width="26" height="5" style="fill:#f5b024;stroke:black;stroke-width:1;fill-opacity:1;stroke-opacity:0.3" />
<line x1="539" y1="86" x2="563" y2="88" stroke="black" stroke-width="1" />
<line x1="563" y1="88" x2="588" y2="86" stroke="black" stroke-width="1" />
<rect x="417" y="84" width="30" height="5" style="fill:#f5b024;stroke:black;stroke-width:1;fill-opacity:1;stroke-opacity:0.3" />
<line x1="447" y1="86" x2="524" y2="86" stroke="pink" stroke-width="1" />
<rect x="524" y="84" width="15" height="5" style="fill:#f5b024;stroke:black;stroke-width:1;fill-opacity:1;stroke-opacity:0.3" />
<rect x="588" y="84" width="46" height="5" style="fill:#f5b024;stroke:black;stroke-width:1;fill-opacity:1;stroke-opacity:0.3" />
<line x1="542" y1="79" x2="566" y2="81" stroke="black" stroke-width="1" />
<line x1="566" y1="81" x2="591" y2="79" stroke="black" stroke-width="1" />
<rect x="419" y="77" width="28" height="5" style="fill:#f5b024;stroke:black;stroke-width:1;fill-opacity:1;stroke-opacity:0.3" />
<line x1="447" y1="79" x2="524" y2="79" stroke="pink" stroke-width="1" />
<rect x="524" y="77" width="18" height="5" style="fill:#f5b024;stroke:black;stroke-width:1;fill-opacity:1;stroke-opacity:0.3" />
<rect x="591" y="77" width="46" height="5" style="fill:#f5b024;stroke:black;stroke-width:1;fill-opacity:1;stroke-opacity:0.3" />
<line x1="552" y1="30" x2="573" y2="32" stroke="black" stroke-width="1" />
<line x1="573" y1="32" x2="595" y2="30" stroke="black" stroke-width="1" />
<rect x="431" y="28" width="16" height="5" style="fill:#5d3c2d;stroke:black;stroke-width:1;fill-opacity:1;stroke-opacity:0.3" />
<line x1="447" y1="30" x2="524" y2="30" stroke="pink" stroke-width="1" />
<rect x="524" y="28" width="28" height="5" style="fill:#5d3c2d;stroke:black;stroke-width:1;fill-opacity:1;stroke-opacity:0.3" />
<rect x="595" y="28" width="39" height="5" style="fill:#5d3c2d;stroke:black;stroke-width:1;fill-opacity:1;stroke-opacity:0.3" />
<line x1="553" y1="65" x2="578" y2="67" stroke="black" stroke-width="1" />
<line x1="578" y1="67" x2="603" y2="65" stroke="black" stroke-width="1" />
<rect x="432" y="63" width="15" height="5" style="fill:#f5b024;stroke:black;stroke-width:1;fill-opacity:1;stroke-opacity:0.3" />
<line x1="447" y1="65" x2="524" y2="65" stroke="pink" stroke-width="1" />
<rect x="524" y="63" width="29" height="5" style="fill:#f5b024;stroke:black;stroke-width:1;fill-opacity:1;stroke-opacity:0.3" />
<rect x="603" y="63" width="46" height="5" style="fill:#f5b024;stroke:black;stroke-width:1;fill-opacity:1;stroke-opacity:0.3" />
<line x1="555" y1="100" x2="572" y2="102" stroke="black" stroke-width="1" />
<line x1="572" y1="102" x2="590" y2="100" stroke="black" stroke-width="1" />
<rect x="433" y="98" width="14" height="5" style="fill:#f5b024;stroke:black;stroke-width:1;fill-opacity:1;stroke-opacity:0.3" />
<line x1="447" y1="100" x2="524" y2="100" stroke="pink" stroke-width="1" />
<rect x="524" y="98" width="31" height="5" style="fill:#f5b024;stroke:black;stroke-width:1;fill-opacity:1;stroke-opacity:0.3" />
<rect x="590" y="98" width="46" height="5" style="fill:#f5b024;stroke:black;stroke-width:1;fill-opacity:1;stroke-opacity:0.3" />
<line x1="556" y1="37" x2="575" y2="39" stroke="black" stroke-width="1" />
<line x1="575" y1="39" x2="594" y2="37" stroke="black" stroke-width="1" />
<rect x="434" y="35" width="12" height="5" style="fill:#f5b024;stroke:black;stroke-width:1;fill-opacity:1;stroke-opacity:0.3" />
<line x1="447" y1="37" x2="524" y2="37" stroke="pink" stroke-width="1" />
<rect x="524" y="35" width="32" height="5" style="fill:#f5b024;stroke:black;stroke-width:1;fill-opacity:1;stroke-opacity:0.3" />
<rect x="594" y="35" width="46" height="5" style="fill:#f5b024;stroke:black;stroke-width:1;fill-opacity:1;stroke-opacity:0.3" />
<line x1="556" y1="51" x2="590" y2="53" stroke="black" stroke-width="1" />
<line x1="590" y1="53" x2="625" y2="51" stroke="black" stroke-width="1" />
<rect x="434" y="49" width="12" height="5" style="fill:#f5b024;stroke:black;stroke-width:1;fill-opacity:1;stroke-opacity:0.3" />
<line x1="447" y1="51" x2="524" y2="51" stroke="pink" stroke-width="1" />
<rect x="524" y="49" width="32" height="5" style="fill:#f5b024;stroke:black;stroke-width:1;fill-opacity:1;stroke-opacity:0.3" />
<rect x="625" y="49" width="46" height="5" style="fill:#f5b024;stroke:black;stroke-width:1;fill-opacity:1;stroke-opacity:0.3" />
<line x1="557" y1="128" x2="583" y2="130" stroke="black" stroke-width="1" />
<line x1="583" y1="130" x2="610" y2="128" stroke="black" stroke-width="1" />
<rect x="434" y="126" width="12" height="5" style="fill:#f5b024;stroke:black;stroke-width:1;fill-opacity:1;stroke-opacity:0.3" />
<line x1="447" y1="128" x2="524" y2="128" stroke="pink" stroke-width="1" />
<rect x="524" y="126" width="33" height="5" style="fill:#f5b024;stroke:black;stroke-width:1;fill-opacity:1;stroke-opacity:0.3" />
<rect x="610" y="126" width="46" height="5" style="fill:#f5b024;stroke:black;stroke-width:1;fill-opacity:1;stroke-opacity:0.3" />
<line x1="558" y1="163" x2="576" y2="165" stroke="black" stroke-width="1" />
<line x1="576" y1="165" x2="594" y2="163" stroke="black" stroke-width="1" />
<rect x="435" y="161" width="12" height="5" style="fill:#f5b024;stroke:black;stroke-width:1;fill-opacity:1;stroke-opacity:0.3" />
<line x1="447" y1="163" x2="524" y2="163" stroke="pink" stroke-width="1" />
<rect x="524" y="161" width="34" height="5" style="fill:#f5b024;stroke:black;stroke-width:1;fill-opacity:1;stroke-opacity:0.3" />
<rect x="594" y="161" width="46" height="5" style="fill:#f5b024;stroke:black;stroke-width:1;fill-opacity:1;stroke-opacity:0.3" />
<line x1="559" y1="135" x2="576" y2="137" stroke="black" stroke-width="1" />
<line x1="576" y1="137" x2="594" y2="135" stroke="black" stroke-width="1" />
<rect x="437" y="133" width="10" height="5" style="fill:#5d3c2d;stroke:black;stroke-width:1;fill-opacity:1;stroke-opacity:0.3" />
<line x1="447" y1="135" x2="524" y2="135" stroke="pink" stroke-width="1" />
<rect x="524" y="133" width="35" height="5" style="fill:#5d3c2d;stroke:black;stroke-width:1;fill-opacity:1;stroke-opacity:0.3" />
<rect x="594" y="133" width="45" height="5" style="fill:#5d3c2d;stroke:black;stroke-width:1;fill-opacity:1;stroke-opacity:0.3" />
<line x1="588" y1="93" x2="590" y2="95" stroke="black" stroke-width="1" />
<line x1="590" y1="95" x2="592" y2="93" stroke="black" stroke-width="1" />
<rect x="441" y="91" width="6" height="5" style="fill:#f5b024;stroke:black;stroke-width:1;fill-opacity:1;stroke-opacity:0.3" />
<line x1="447" y1="93" x2="524" y2="93" stroke="pink" stroke-width="1" />
<rect x="524" y="91" width="34" height="5" style="fill:#f5b024;stroke:black;stroke-width:1;fill-opacity:1;stroke-opacity:0.3" />
<line x1="558" y1="93" x2="586" y2="93" stroke="pink" stroke-width="1" />
<rect x="586" y="91" width="1" height="5" style="fill:#f5b024;stroke:black;stroke-width:1;fill-opacity:1;stroke-opacity:0.3" />
<rect x="592" y="91" width="46" height="5" style="fill:#f5b024;stroke:black;stroke-width:1;fill-opacity:1;stroke-opacity:0.3" />
<line x1="594" y1="107" x2="602" y2="109" stroke="black" stroke-width="1" />
<line x1="602" y1="109" x2="610" y2="107" stroke="black" stroke-width="1" />
<rect x="443" y="105" width="4" height="5" style="fill:#f5b024;stroke:black;stroke-width:1;fill-opacity:1;stroke-opacity:0.3" />
<line x1="447" y1="107" x2="524" y2="107" stroke="pink" stroke-width="1" />
<rect x="524" y="105" width="34" height="5" style="fill:#f5b024;stroke:black;stroke-width:1;fill-opacity:1;stroke-opacity:0.3" />
<line x1="558" y1="107" x2="586" y2="107" stroke="pink" stroke-width="1" />
<rect x="586" y="105" width="7" height="5" style="fill:#f5b024;stroke:black;stroke-width:1;fill-opacity:1;stroke-opacity:0.3" />
<rect x="610" y="105" width="46" height="5" style="fill:#f5b024;stroke:black;stroke-width:1;fill-opacity:1;stroke-opacity:0.3" />
<line x1="594" y1="149" x2="604" y2="151" stroke="black" stroke-width="1" />
<line x1="604" y1="151" x2="615" y2="149" stroke="black" stroke-width="1" />
<rect x="443" y="147" width="4" height="5" style="fill:#f5b024;stroke:black;stroke-width:1;fill-opacity:1;stroke-opacity:0.3" />
<line x1="447" y1="149" x2="524" y2="149" stroke="pink" stroke-width="1" />
<rect x="524" y="147" width="34" height="5" style="fill:#f5b024;stroke:black;stroke-width:1;fill-opacity:1;stroke-opacity:0.3" />
<line x1="558" y1="149" x2="586" y2="149" stroke="pink" stroke-width="1" />
<rect x="586" y="147" width="7" height="5" style="fill:#f5b024;stroke:black;stroke-width:1;fill-opacity:1;stroke-opacity:0.3" />
<rect x="615" y="147" width="46" height="5" style="fill:#f5b024;stroke:black;stroke-width:1;fill-opacity:1;stroke-opacity:0.3" />
<line x1="595" y1="114" x2="602" y2="116" stroke="black" stroke-width="1" />
<line x1="602" y1="116" x2="610" y2="114" stroke="black" stroke-width="1" />
<rect x="523" y="112" width="35" height="5" style="fill:#f5b024;stroke:black;stroke-width:1;fill-opacity:1;stroke-opacity:0.3" />
<line x1="558" y1="114" x2="586" y2="114" stroke="pink" stroke-width="1" />
<rect x="586" y="112" width="8" height="5" style="fill:#f5b024;stroke:black;stroke-width:1;fill-opacity:1;stroke-opacity:0.3" />
<rect x="610" y="112" width="46" height="5" style="fill:#f5b024;stroke:black;stroke-width:1;fill-opacity:1;stroke-opacity:0.3" />
<line x1="598" y1="156" x2="611" y2="158" stroke="black" stroke-width="1" />
<line x1="611" y1="158" x2="624" y2="156" stroke="black" stroke-width="1" />
<rect x="524" y="154" width="33" height="5" style="fill:#f5b024;stroke:black;stroke-width:1;fill-opacity:1;stroke-opacity:0.3" />
<line x1="558" y1="156" x2="586" y2="156" stroke="pink" stroke-width="1" />
<rect x="586" y="154" width="12" height="5" style="fill:#f5b024;stroke:black;stroke-width:1;fill-opacity:1;stroke-opacity:0.3" />
<rect x="624" y="154" width="46" height="5" style="fill:#f5b024;stroke:black;stroke-width:1;fill-opacity:1;stroke-opacity:0.3" />
<line x1="699" y1="30" x2="709" y2="32" stroke="black" stroke-width="1" />
<line x1="709" y1="32" x2="719" y2="30" stroke="black" stroke-width="1" />
<rect x="653" y="28" width="46" height="5" style="fill:#5d3c2d;stroke:black;stroke-width:1;fill-opacity:1;stroke-opacity:0.3" />
<rect x="719" y="28" width="46" height="5" style="fill:#5d3c2d;stroke:black;stroke-width:1;fill-opacity:1;stroke-opacity:0.3" />
<line x1="840" y1="30" x2="846" y2="32" stroke="black" stroke-width="1" />
<line x1="846" y1="32" x2="852" y2="30" stroke="black" stroke-width="1" />
<rect x="771" y="28" width="69" height="5" style="fill:#5d3c2d;stroke:black;stroke-width:1;fill-opacity:1;stroke-opacity:0.3" />
<rect x="852" y="28" width="11" height="5" style="fill:#5d3c2d;stroke:black;stroke-width:1;fill-opacity:1;stroke-opacity:0.3" />
<line x1="863" y1="30" x2="958" y2="30" stroke="pink" stroke-width="1" />
<rect x="958" y="28" width="57" height="5" style="fill:#5d3c2d;stroke:black;stroke-width:1;fill-opacity:1;stroke-opacity:0.3" />
<line x1="858" y1="37" x2="874" y2="39" stroke="black" stroke-width="1" />
<line x1="874" y1="39" x2="891" y2="37" stroke="black" stroke-width="1" />
<rect x="812" y="35" width="46" height="5" style="fill:#5d3c2d;stroke:black;stroke-width:1;fill-opacity:1;stroke-opacity:0.3" />
<rect x="891" y="35" width="46" height="5" style="fill:#5d3c2d;stroke:black;stroke-width:1;fill-opacity:1;stroke-opacity:0.3" />
<line x1="858" y1="44" x2="874" y2="46" stroke="black" stroke-width="1" />
<line x1="874" y1="46" x2="891" y2="44" stroke="black" stroke-width="1" />
<rect x="812" y="42" width="45" height="5" style="fill:#5d3c2d;stroke:black;stroke-width:1;fill-opacity:1;stroke-opacity:0.3" />
<rect x="891" y="42" width="46" height="5" style="fill:#5d3c2d;stroke:black;stroke-width:1;fill-opacity:1;stroke-opacity:0.3" />
<text x="15"  y="176" style="font-family:Arial;font-size:10;stroke:black;fill:black;">all.merged.bam</text>
</svg>
    
