<?xml version="1.0" encoding="utf-8" standalone="no"?>
<!DOCTYPE svg PUBLIC "-//W3C//DTD SVG 1.1//EN"
  "http://www.w3.org/Graphics/SVG/1.1/DTD/svg11.dtd">
<svg height="1140" width="1000" version="1.1" viewBox="0 0 1000 1140" xmlns="http://www.w3.org/2000/svg" xmlns:xlink="http://www.w3.org/1999/xlink">
<line x1="27" y1="11" x2="972" y2="11" stroke="black" stroke-width="1" />
<rect x="27" y="9" width="184" height="5" style="fill:#f50002;stroke:black;stroke-width:1;fill-opacity:1;stroke-opacity:0.3" />
<rect x="212" y="9" width="251" height="5" style="fill:#53a1b5;stroke:black;stroke-width:1;fill-opacity:1;stroke-opacity:0.3" />
<rect x="534" y="9" width="208" height="5" style="fill:#53a1b5;stroke:black;stroke-width:1;fill-opacity:1;stroke-opacity:0.3" />
<rect x="862" y="9" width="71" height="5" style="fill:#53a1b5;stroke:black;stroke-width:1;fill-opacity:1;stroke-opacity:0.3" />
<rect x="933" y="9" width="38" height="5" style="fill:#f50002;stroke:black;stroke-width:1;fill-opacity:1;stroke-opacity:0.3" />
<text x="27"  y="23" style="font-family:Arial;font-size:10;stroke:black;fill:black;">Cre08.g359000.t1.2.v5.5 (-) chromosome_8:509125-512533</text>
<line x1="287" y1="30" x2="303" y2="32" stroke="black" stroke-width="1" />
<line x1="303" y1="32" x2="319" y2="30" stroke="black" stroke-width="1" />
<rect x="259" y="28" width="27" height="5" style="fill:#f5b024;stroke:black;stroke-width:1;fill-opacity:1;stroke-opacity:0.3" />
<rect x="319" y="28" width="24" height="5" style="fill:#f5b024;stroke:black;stroke-width:1;fill-opacity:1;stroke-opacity:0.3" />
<line x1="434" y1="30" x2="438" y2="32" stroke="black" stroke-width="1" />
<line x1="438" y1="32" x2="443" y2="30" stroke="black" stroke-width="1" />
<rect x="407" y="28" width="27" height="5" style="fill:#f5b024;stroke:black;stroke-width:1;fill-opacity:1;stroke-opacity:0.3" />
<rect x="443" y="28" width="20" height="5" style="fill:#f5b024;stroke:black;stroke-width:1;fill-opacity:1;stroke-opacity:0.3" />
<line x1="464" y1="30" x2="534" y2="30" stroke="pink" stroke-width="1" />
<rect x="534" y="28" width="7" height="5" style="fill:#f5b024;stroke:black;stroke-width:1;fill-opacity:1;stroke-opacity:0.3" />
<text x="15"  y="176" style="font-family:Arial;font-size:10;stroke:black;fill:black;">all.merged.bam</text>
</svg>
    
