<?xml version="1.0" encoding="utf-8" standalone="no"?>
<!DOCTYPE svg PUBLIC "-//W3C//DTD SVG 1.1//EN"
  "http://www.w3.org/Graphics/SVG/1.1/DTD/svg11.dtd">
<svg height="1140" width="1000" version="1.1" viewBox="0 0 1000 1140" xmlns="http://www.w3.org/2000/svg" xmlns:xlink="http://www.w3.org/1999/xlink">
<line x1="51" y1="11" x2="948" y2="11" stroke="black" stroke-width="1" />
<rect x="51" y="9" width="427" height="5" style="fill:#f50002;stroke:black;stroke-width:1;fill-opacity:1;stroke-opacity:0.3" />
<rect x="479" y="9" width="102" height="5" style="fill:#53a1b5;stroke:black;stroke-width:1;fill-opacity:1;stroke-opacity:0.3" />
<rect x="582" y="9" width="365" height="5" style="fill:#f50002;stroke:black;stroke-width:1;fill-opacity:1;stroke-opacity:0.3" />
<text x="51"  y="23" style="font-family:Arial;font-size:10;stroke:black;fill:black;">Cre03.g146847.t1.1.v5.5 (-) chromosome_3:931646-933397</text>
<line x1="57" y1="30" x2="80" y2="32" stroke="black" stroke-width="1" />
<line x1="80" y1="32" x2="103" y2="30" stroke="black" stroke-width="1" />
<rect x="6" y="28" width="51" height="5" style="fill:#f5b024;stroke:black;stroke-width:1;fill-opacity:1;stroke-opacity:0.3" />
<rect x="103" y="28" width="51" height="5" style="fill:#f5b024;stroke:black;stroke-width:1;fill-opacity:1;stroke-opacity:0.3" />
<line x1="57" y1="37" x2="63" y2="39" stroke="black" stroke-width="1" />
<line x1="63" y1="39" x2="70" y2="37" stroke="black" stroke-width="1" />
<rect x="6" y="35" width="50" height="5" style="fill:#f5b024;stroke:black;stroke-width:1;fill-opacity:1;stroke-opacity:0.3" />
<rect x="70" y="35" width="51" height="5" style="fill:#f5b024;stroke:black;stroke-width:1;fill-opacity:1;stroke-opacity:0.3" />
<line x1="62" y1="44" x2="66" y2="46" stroke="black" stroke-width="1" />
<line x1="66" y1="46" x2="70" y2="44" stroke="black" stroke-width="1" />
<rect x="11" y="42" width="51" height="5" style="fill:#f5b024;stroke:black;stroke-width:1;fill-opacity:1;stroke-opacity:0.3" />
<rect x="70" y="42" width="51" height="5" style="fill:#f5b024;stroke:black;stroke-width:1;fill-opacity:1;stroke-opacity:0.3" />
<line x1="63" y1="51" x2="100" y2="53" stroke="black" stroke-width="1" />
<line x1="100" y1="53" x2="138" y2="51" stroke="black" stroke-width="1" />
<rect x="12" y="49" width="51" height="5" style="fill:#f5b024;stroke:black;stroke-width:1;fill-opacity:1;stroke-opacity:0.3" />
<rect x="138" y="49" width="51" height="5" style="fill:#f5b024;stroke:black;stroke-width:1;fill-opacity:1;stroke-opacity:0.3" />
<line x1="108" y1="58" x2="119" y2="60" stroke="black" stroke-width="1" />
<line x1="119" y1="60" x2="131" y2="58" stroke="black" stroke-width="1" />
<rect x="56" y="56" width="51" height="5" style="fill:#f5b024;stroke:black;stroke-width:1;fill-opacity:1;stroke-opacity:0.3" />
<rect x="131" y="56" width="51" height="5" style="fill:#f5b024;stroke:black;stroke-width:1;fill-opacity:1;stroke-opacity:0.3" />
<line x1="120" y1="65" x2="129" y2="67" stroke="black" stroke-width="1" />
<line x1="129" y1="67" x2="139" y2="65" stroke="black" stroke-width="1" />
<rect x="69" y="63" width="51" height="5" style="fill:#5d3c2d;stroke:black;stroke-width:1;fill-opacity:1;stroke-opacity:0.3" />
<rect x="139" y="63" width="51" height="5" style="fill:#5d3c2d;stroke:black;stroke-width:1;fill-opacity:1;stroke-opacity:0.3" />
<line x1="123" y1="72" x2="148" y2="74" stroke="black" stroke-width="1" />
<line x1="148" y1="74" x2="174" y2="72" stroke="black" stroke-width="1" />
<rect x="72" y="70" width="51" height="5" style="fill:#f5b024;stroke:black;stroke-width:1;fill-opacity:1;stroke-opacity:0.3" />
<rect x="174" y="70" width="51" height="5" style="fill:#f5b024;stroke:black;stroke-width:1;fill-opacity:1;stroke-opacity:0.3" />
<line x1="135" y1="79" x2="146" y2="81" stroke="black" stroke-width="1" />
<line x1="146" y1="81" x2="157" y2="79" stroke="black" stroke-width="1" />
<rect x="84" y="77" width="51" height="5" style="fill:#f5b024;stroke:black;stroke-width:1;fill-opacity:1;stroke-opacity:0.3" />
<rect x="157" y="77" width="51" height="5" style="fill:#f5b024;stroke:black;stroke-width:1;fill-opacity:1;stroke-opacity:0.3" />
<line x1="140" y1="86" x2="145" y2="88" stroke="black" stroke-width="1" />
<line x1="145" y1="88" x2="150" y2="86" stroke="black" stroke-width="1" />
<rect x="89" y="84" width="51" height="5" style="fill:#f5b024;stroke:black;stroke-width:1;fill-opacity:1;stroke-opacity:0.3" />
<rect x="150" y="84" width="51" height="5" style="fill:#f5b024;stroke:black;stroke-width:1;fill-opacity:1;stroke-opacity:0.3" />
<line x1="141" y1="93" x2="145" y2="95" stroke="black" stroke-width="1" />
<line x1="145" y1="95" x2="150" y2="93" stroke="black" stroke-width="1" />
<rect x="90" y="91" width="51" height="5" style="fill:#5d3c2d;stroke:black;stroke-width:1;fill-opacity:1;stroke-opacity:0.3" />
<rect x="150" y="91" width="51" height="5" style="fill:#5d3c2d;stroke:black;stroke-width:1;fill-opacity:1;stroke-opacity:0.3" />
<line x1="142" y1="100" x2="146" y2="102" stroke="black" stroke-width="1" />
<line x1="146" y1="102" x2="150" y2="100" stroke="black" stroke-width="1" />
<rect x="91" y="98" width="51" height="5" style="fill:#5d3c2d;stroke:black;stroke-width:1;fill-opacity:1;stroke-opacity:0.3" />
<rect x="150" y="98" width="51" height="5" style="fill:#5d3c2d;stroke:black;stroke-width:1;fill-opacity:1;stroke-opacity:0.3" />
<line x1="149" y1="107" x2="153" y2="109" stroke="black" stroke-width="1" />
<line x1="153" y1="109" x2="158" y2="107" stroke="black" stroke-width="1" />
<rect x="97" y="105" width="51" height="5" style="fill:#f5b024;stroke:black;stroke-width:1;fill-opacity:1;stroke-opacity:0.3" />
<rect x="158" y="105" width="51" height="5" style="fill:#f5b024;stroke:black;stroke-width:1;fill-opacity:1;stroke-opacity:0.3" />
<line x1="151" y1="114" x2="154" y2="116" stroke="black" stroke-width="1" />
<line x1="154" y1="116" x2="158" y2="114" stroke="black" stroke-width="1" />
<rect x="100" y="112" width="51" height="5" style="fill:#f5b024;stroke:black;stroke-width:1;fill-opacity:1;stroke-opacity:0.3" />
<rect x="158" y="112" width="51" height="5" style="fill:#f5b024;stroke:black;stroke-width:1;fill-opacity:1;stroke-opacity:0.3" />
<line x1="152" y1="121" x2="156" y2="123" stroke="black" stroke-width="1" />
<line x1="156" y1="123" x2="160" y2="121" stroke="black" stroke-width="1" />
<rect x="100" y="119" width="51" height="5" style="fill:#5d3c2d;stroke:black;stroke-width:1;fill-opacity:1;stroke-opacity:0.3" />
<rect x="160" y="119" width="51" height="5" style="fill:#5d3c2d;stroke:black;stroke-width:1;fill-opacity:1;stroke-opacity:0.3" />
<line x1="153" y1="128" x2="155" y2="130" stroke="black" stroke-width="1" />
<line x1="155" y1="130" x2="158" y2="128" stroke="black" stroke-width="1" />
<rect x="101" y="126" width="51" height="5" style="fill:#5d3c2d;stroke:black;stroke-width:1;fill-opacity:1;stroke-opacity:0.3" />
<rect x="158" y="126" width="51" height="5" style="fill:#5d3c2d;stroke:black;stroke-width:1;fill-opacity:1;stroke-opacity:0.3" />
<line x1="164" y1="135" x2="177" y2="137" stroke="black" stroke-width="1" />
<line x1="177" y1="137" x2="191" y2="135" stroke="black" stroke-width="1" />
<rect x="114" y="133" width="50" height="5" style="fill:#f5b024;stroke:black;stroke-width:1;fill-opacity:1;stroke-opacity:0.3" />
<rect x="191" y="133" width="51" height="5" style="fill:#f5b024;stroke:black;stroke-width:1;fill-opacity:1;stroke-opacity:0.3" />
<line x1="192" y1="142" x2="199" y2="144" stroke="black" stroke-width="1" />
<line x1="199" y1="144" x2="206" y2="142" stroke="black" stroke-width="1" />
<rect x="115" y="140" width="76" height="5" style="fill:#f5b024;stroke:black;stroke-width:1;fill-opacity:1;stroke-opacity:0.3" />
<rect x="206" y="140" width="76" height="5" style="fill:#f5b024;stroke:black;stroke-width:1;fill-opacity:1;stroke-opacity:0.3" />
<line x1="165" y1="149" x2="169" y2="151" stroke="black" stroke-width="1" />
<line x1="169" y1="151" x2="173" y2="149" stroke="black" stroke-width="1" />
<rect x="116" y="147" width="49" height="5" style="fill:#f5b024;stroke:black;stroke-width:1;fill-opacity:1;stroke-opacity:0.3" />
<rect x="173" y="147" width="51" height="5" style="fill:#f5b024;stroke:black;stroke-width:1;fill-opacity:1;stroke-opacity:0.3" />
<line x1="167" y1="156" x2="199" y2="158" stroke="black" stroke-width="1" />
<line x1="199" y1="158" x2="231" y2="156" stroke="black" stroke-width="1" />
<rect x="118" y="154" width="49" height="5" style="fill:#5d3c2d;stroke:black;stroke-width:1;fill-opacity:1;stroke-opacity:0.3" />
<rect x="231" y="154" width="51" height="5" style="fill:#5d3c2d;stroke:black;stroke-width:1;fill-opacity:1;stroke-opacity:0.3" />
<line x1="174" y1="37" x2="191" y2="39" stroke="black" stroke-width="1" />
<line x1="191" y1="39" x2="209" y2="37" stroke="black" stroke-width="1" />
<rect x="123" y="35" width="50" height="5" style="fill:#f5b024;stroke:black;stroke-width:1;fill-opacity:1;stroke-opacity:0.3" />
<rect x="209" y="35" width="51" height="5" style="fill:#f5b024;stroke:black;stroke-width:1;fill-opacity:1;stroke-opacity:0.3" />
<line x1="174" y1="44" x2="187" y2="46" stroke="black" stroke-width="1" />
<line x1="187" y1="46" x2="200" y2="44" stroke="black" stroke-width="1" />
<rect x="124" y="42" width="49" height="5" style="fill:#f5b024;stroke:black;stroke-width:1;fill-opacity:1;stroke-opacity:0.3" />
<rect x="200" y="42" width="51" height="5" style="fill:#f5b024;stroke:black;stroke-width:1;fill-opacity:1;stroke-opacity:0.3" />
<line x1="174" y1="163" x2="187" y2="165" stroke="black" stroke-width="1" />
<line x1="187" y1="165" x2="200" y2="163" stroke="black" stroke-width="1" />
<rect x="124" y="161" width="49" height="5" style="fill:#f5b024;stroke:black;stroke-width:1;fill-opacity:1;stroke-opacity:0.3" />
<rect x="200" y="161" width="51" height="5" style="fill:#f5b024;stroke:black;stroke-width:1;fill-opacity:1;stroke-opacity:0.3" />
<line x1="226" y1="30" x2="234" y2="32" stroke="black" stroke-width="1" />
<line x1="234" y1="32" x2="243" y2="30" stroke="black" stroke-width="1" />
<rect x="175" y="28" width="51" height="5" style="fill:#f5b024;stroke:black;stroke-width:1;fill-opacity:1;stroke-opacity:0.3" />
<rect x="243" y="28" width="51" height="5" style="fill:#f5b024;stroke:black;stroke-width:1;fill-opacity:1;stroke-opacity:0.3" />
<line x1="259" y1="58" x2="273" y2="60" stroke="black" stroke-width="1" />
<line x1="273" y1="60" x2="288" y2="58" stroke="black" stroke-width="1" />
<rect x="182" y="56" width="76" height="5" style="fill:#f5b024;stroke:black;stroke-width:1;fill-opacity:1;stroke-opacity:0.3" />
<rect x="288" y="56" width="76" height="5" style="fill:#f5b024;stroke:black;stroke-width:1;fill-opacity:1;stroke-opacity:0.3" />
<line x1="241" y1="51" x2="243" y2="53" stroke="black" stroke-width="1" />
<line x1="243" y1="53" x2="246" y2="51" stroke="black" stroke-width="1" />
<rect x="190" y="49" width="51" height="5" style="fill:#5d3c2d;stroke:black;stroke-width:1;fill-opacity:1;stroke-opacity:0.3" />
<rect x="246" y="49" width="51" height="5" style="fill:#5d3c2d;stroke:black;stroke-width:1;fill-opacity:1;stroke-opacity:0.3" />
<line x1="246" y1="65" x2="252" y2="67" stroke="black" stroke-width="1" />
<line x1="252" y1="67" x2="258" y2="65" stroke="black" stroke-width="1" />
<rect x="195" y="63" width="51" height="5" style="fill:#5d3c2d;stroke:black;stroke-width:1;fill-opacity:1;stroke-opacity:0.3" />
<rect x="258" y="63" width="51" height="5" style="fill:#5d3c2d;stroke:black;stroke-width:1;fill-opacity:1;stroke-opacity:0.3" />
<line x1="259" y1="79" x2="267" y2="81" stroke="black" stroke-width="1" />
<line x1="267" y1="81" x2="275" y2="79" stroke="black" stroke-width="1" />
<rect x="209" y="77" width="50" height="5" style="fill:#f5b024;stroke:black;stroke-width:1;fill-opacity:1;stroke-opacity:0.3" />
<rect x="275" y="77" width="51" height="5" style="fill:#f5b024;stroke:black;stroke-width:1;fill-opacity:1;stroke-opacity:0.3" />
<line x1="259" y1="86" x2="266" y2="88" stroke="black" stroke-width="1" />
<line x1="266" y1="88" x2="274" y2="86" stroke="black" stroke-width="1" />
<rect x="210" y="84" width="49" height="5" style="fill:#f5b024;stroke:black;stroke-width:1;fill-opacity:1;stroke-opacity:0.3" />
<rect x="274" y="84" width="51" height="5" style="fill:#f5b024;stroke:black;stroke-width:1;fill-opacity:1;stroke-opacity:0.3" />
<line x1="262" y1="93" x2="265" y2="95" stroke="black" stroke-width="1" />
<line x1="265" y1="95" x2="269" y2="93" stroke="black" stroke-width="1" />
<rect x="211" y="91" width="51" height="5" style="fill:#f5b024;stroke:black;stroke-width:1;fill-opacity:1;stroke-opacity:0.3" />
<rect x="269" y="91" width="50" height="5" style="fill:#f5b024;stroke:black;stroke-width:1;fill-opacity:1;stroke-opacity:0.3" />
<line x1="263" y1="100" x2="271" y2="102" stroke="black" stroke-width="1" />
<line x1="271" y1="102" x2="279" y2="100" stroke="black" stroke-width="1" />
<rect x="212" y="98" width="51" height="5" style="fill:#f5b024;stroke:black;stroke-width:1;fill-opacity:1;stroke-opacity:0.3" />
<rect x="279" y="98" width="51" height="5" style="fill:#f5b024;stroke:black;stroke-width:1;fill-opacity:1;stroke-opacity:0.3" />
<line x1="263" y1="107" x2="267" y2="109" stroke="black" stroke-width="1" />
<line x1="267" y1="109" x2="271" y2="107" stroke="black" stroke-width="1" />
<rect x="212" y="105" width="51" height="5" style="fill:#5d3c2d;stroke:black;stroke-width:1;fill-opacity:1;stroke-opacity:0.3" />
<rect x="271" y="105" width="50" height="5" style="fill:#5d3c2d;stroke:black;stroke-width:1;fill-opacity:1;stroke-opacity:0.3" />
<line x1="269" y1="114" x2="272" y2="116" stroke="black" stroke-width="1" />
<line x1="272" y1="116" x2="276" y2="114" stroke="black" stroke-width="1" />
<rect x="218" y="112" width="51" height="5" style="fill:#5d3c2d;stroke:black;stroke-width:1;fill-opacity:1;stroke-opacity:0.3" />
<rect x="276" y="112" width="51" height="5" style="fill:#5d3c2d;stroke:black;stroke-width:1;fill-opacity:1;stroke-opacity:0.3" />
<line x1="278" y1="72" x2="288" y2="74" stroke="black" stroke-width="1" />
<line x1="288" y1="74" x2="298" y2="72" stroke="black" stroke-width="1" />
<rect x="227" y="70" width="51" height="5" style="fill:#f5b024;stroke:black;stroke-width:1;fill-opacity:1;stroke-opacity:0.3" />
<rect x="298" y="70" width="51" height="5" style="fill:#f5b024;stroke:black;stroke-width:1;fill-opacity:1;stroke-opacity:0.3" />
<line x1="279" y1="121" x2="282" y2="123" stroke="black" stroke-width="1" />
<line x1="282" y1="123" x2="286" y2="121" stroke="black" stroke-width="1" />
<rect x="228" y="119" width="51" height="5" style="fill:#f5b024;stroke:black;stroke-width:1;fill-opacity:1;stroke-opacity:0.3" />
<rect x="286" y="119" width="51" height="5" style="fill:#f5b024;stroke:black;stroke-width:1;fill-opacity:1;stroke-opacity:0.3" />
<line x1="279" y1="128" x2="282" y2="130" stroke="black" stroke-width="1" />
<line x1="282" y1="130" x2="285" y2="128" stroke="black" stroke-width="1" />
<rect x="230" y="126" width="49" height="5" style="fill:#f5b024;stroke:black;stroke-width:1;fill-opacity:1;stroke-opacity:0.3" />
<rect x="285" y="126" width="51" height="5" style="fill:#f5b024;stroke:black;stroke-width:1;fill-opacity:1;stroke-opacity:0.3" />
<line x1="285" y1="149" x2="290" y2="151" stroke="black" stroke-width="1" />
<line x1="290" y1="151" x2="296" y2="149" stroke="black" stroke-width="1" />
<rect x="234" y="147" width="51" height="5" style="fill:#f5b024;stroke:black;stroke-width:1;fill-opacity:1;stroke-opacity:0.3" />
<rect x="296" y="147" width="51" height="5" style="fill:#f5b024;stroke:black;stroke-width:1;fill-opacity:1;stroke-opacity:0.3" />
<line x1="295" y1="135" x2="302" y2="137" stroke="black" stroke-width="1" />
<line x1="302" y1="137" x2="309" y2="135" stroke="black" stroke-width="1" />
<rect x="243" y="133" width="51" height="5" style="fill:#f5b024;stroke:black;stroke-width:1;fill-opacity:1;stroke-opacity:0.3" />
<rect x="309" y="133" width="51" height="5" style="fill:#f5b024;stroke:black;stroke-width:1;fill-opacity:1;stroke-opacity:0.3" />
<line x1="330" y1="37" x2="348" y2="39" stroke="black" stroke-width="1" />
<line x1="348" y1="39" x2="366" y2="37" stroke="black" stroke-width="1" />
<rect x="279" y="35" width="51" height="5" style="fill:#f5b024;stroke:black;stroke-width:1;fill-opacity:1;stroke-opacity:0.3" />
<rect x="366" y="35" width="51" height="5" style="fill:#f5b024;stroke:black;stroke-width:1;fill-opacity:1;stroke-opacity:0.3" />
<line x1="329" y1="44" x2="338" y2="46" stroke="black" stroke-width="1" />
<line x1="338" y1="46" x2="348" y2="44" stroke="black" stroke-width="1" />
<rect x="280" y="42" width="49" height="5" style="fill:#f5b024;stroke:black;stroke-width:1;fill-opacity:1;stroke-opacity:0.3" />
<rect x="348" y="42" width="51" height="5" style="fill:#f5b024;stroke:black;stroke-width:1;fill-opacity:1;stroke-opacity:0.3" />
<line x1="339" y1="142" x2="344" y2="144" stroke="black" stroke-width="1" />
<line x1="344" y1="144" x2="349" y2="142" stroke="black" stroke-width="1" />
<rect x="288" y="140" width="51" height="5" style="fill:#f5b024;stroke:black;stroke-width:1;fill-opacity:1;stroke-opacity:0.3" />
<rect x="349" y="140" width="51" height="5" style="fill:#f5b024;stroke:black;stroke-width:1;fill-opacity:1;stroke-opacity:0.3" />
<line x1="365" y1="156" x2="375" y2="158" stroke="black" stroke-width="1" />
<line x1="375" y1="158" x2="385" y2="156" stroke="black" stroke-width="1" />
<rect x="288" y="154" width="76" height="5" style="fill:#f5b024;stroke:black;stroke-width:1;fill-opacity:1;stroke-opacity:0.3" />
<rect x="385" y="154" width="76" height="5" style="fill:#f5b024;stroke:black;stroke-width:1;fill-opacity:1;stroke-opacity:0.3" />
<line x1="340" y1="163" x2="356" y2="165" stroke="black" stroke-width="1" />
<line x1="356" y1="165" x2="373" y2="163" stroke="black" stroke-width="1" />
<rect x="288" y="161" width="51" height="5" style="fill:#f5b024;stroke:black;stroke-width:1;fill-opacity:1;stroke-opacity:0.3" />
<rect x="373" y="161" width="51" height="5" style="fill:#f5b024;stroke:black;stroke-width:1;fill-opacity:1;stroke-opacity:0.3" />
<line x1="359" y1="30" x2="365" y2="32" stroke="black" stroke-width="1" />
<line x1="365" y1="32" x2="372" y2="30" stroke="black" stroke-width="1" />
<rect x="307" y="28" width="51" height="5" style="fill:#f5b024;stroke:black;stroke-width:1;fill-opacity:1;stroke-opacity:0.3" />
<rect x="372" y="28" width="51" height="5" style="fill:#f5b024;stroke:black;stroke-width:1;fill-opacity:1;stroke-opacity:0.3" />
<line x1="358" y1="51" x2="373" y2="53" stroke="black" stroke-width="1" />
<line x1="373" y1="53" x2="388" y2="51" stroke="black" stroke-width="1" />
<rect x="307" y="49" width="50" height="5" style="fill:#f5b024;stroke:black;stroke-width:1;fill-opacity:1;stroke-opacity:0.3" />
<rect x="388" y="49" width="51" height="5" style="fill:#f5b024;stroke:black;stroke-width:1;fill-opacity:1;stroke-opacity:0.3" />
<line x1="359" y1="65" x2="367" y2="67" stroke="black" stroke-width="1" />
<line x1="367" y1="67" x2="375" y2="65" stroke="black" stroke-width="1" />
<rect x="309" y="63" width="49" height="5" style="fill:#f5b024;stroke:black;stroke-width:1;fill-opacity:1;stroke-opacity:0.3" />
<rect x="375" y="63" width="51" height="5" style="fill:#f5b024;stroke:black;stroke-width:1;fill-opacity:1;stroke-opacity:0.3" />
<line x1="371" y1="93" x2="378" y2="95" stroke="black" stroke-width="1" />
<line x1="378" y1="95" x2="385" y2="93" stroke="black" stroke-width="1" />
<rect x="320" y="91" width="51" height="5" style="fill:#f5b024;stroke:black;stroke-width:1;fill-opacity:1;stroke-opacity:0.3" />
<rect x="385" y="91" width="51" height="5" style="fill:#f5b024;stroke:black;stroke-width:1;fill-opacity:1;stroke-opacity:0.3" />
<line x1="375" y1="107" x2="379" y2="109" stroke="black" stroke-width="1" />
<line x1="379" y1="109" x2="383" y2="107" stroke="black" stroke-width="1" />
<rect x="323" y="105" width="51" height="5" style="fill:#f5b024;stroke:black;stroke-width:1;fill-opacity:1;stroke-opacity:0.3" />
<rect x="383" y="105" width="51" height="5" style="fill:#f5b024;stroke:black;stroke-width:1;fill-opacity:1;stroke-opacity:0.3" />
<line x1="381" y1="79" x2="384" y2="81" stroke="black" stroke-width="1" />
<line x1="384" y1="81" x2="387" y2="79" stroke="black" stroke-width="1" />
<rect x="330" y="77" width="51" height="5" style="fill:#f5b024;stroke:black;stroke-width:1;fill-opacity:1;stroke-opacity:0.3" />
<rect x="387" y="77" width="51" height="5" style="fill:#f5b024;stroke:black;stroke-width:1;fill-opacity:1;stroke-opacity:0.3" />
<line x1="397" y1="86" x2="415" y2="88" stroke="black" stroke-width="1" />
<line x1="415" y1="88" x2="434" y2="86" stroke="black" stroke-width="1" />
<rect x="347" y="84" width="50" height="5" style="fill:#f5b024;stroke:black;stroke-width:1;fill-opacity:1;stroke-opacity:0.3" />
<rect x="434" y="84" width="51" height="5" style="fill:#f5b024;stroke:black;stroke-width:1;fill-opacity:1;stroke-opacity:0.3" />
<line x1="396" y1="100" x2="402" y2="102" stroke="black" stroke-width="1" />
<line x1="402" y1="102" x2="408" y2="100" stroke="black" stroke-width="1" />
<rect x="347" y="98" width="49" height="5" style="fill:#f5b024;stroke:black;stroke-width:1;fill-opacity:1;stroke-opacity:0.3" />
<rect x="408" y="98" width="51" height="5" style="fill:#f5b024;stroke:black;stroke-width:1;fill-opacity:1;stroke-opacity:0.3" />
<line x1="401" y1="72" x2="404" y2="74" stroke="black" stroke-width="1" />
<line x1="404" y1="74" x2="407" y2="72" stroke="black" stroke-width="1" />
<rect x="349" y="70" width="51" height="5" style="fill:#f5b024;stroke:black;stroke-width:1;fill-opacity:1;stroke-opacity:0.3" />
<rect x="407" y="70" width="51" height="5" style="fill:#f5b024;stroke:black;stroke-width:1;fill-opacity:1;stroke-opacity:0.3" />
<line x1="403" y1="114" x2="415" y2="116" stroke="black" stroke-width="1" />
<line x1="415" y1="116" x2="428" y2="114" stroke="black" stroke-width="1" />
<rect x="352" y="112" width="51" height="5" style="fill:#f5b024;stroke:black;stroke-width:1;fill-opacity:1;stroke-opacity:0.3" />
<rect x="428" y="112" width="51" height="5" style="fill:#f5b024;stroke:black;stroke-width:1;fill-opacity:1;stroke-opacity:0.3" />
<line x1="404" y1="121" x2="417" y2="123" stroke="black" stroke-width="1" />
<line x1="417" y1="123" x2="430" y2="121" stroke="black" stroke-width="1" />
<rect x="352" y="119" width="51" height="5" style="fill:#f5b024;stroke:black;stroke-width:1;fill-opacity:1;stroke-opacity:0.3" />
<rect x="430" y="119" width="51" height="5" style="fill:#f5b024;stroke:black;stroke-width:1;fill-opacity:1;stroke-opacity:0.3" />
<line x1="429" y1="128" x2="434" y2="130" stroke="black" stroke-width="1" />
<line x1="434" y1="130" x2="439" y2="128" stroke="black" stroke-width="1" />
<rect x="352" y="126" width="76" height="5" style="fill:#f5b024;stroke:black;stroke-width:1;fill-opacity:1;stroke-opacity:0.3" />
<rect x="439" y="126" width="76" height="5" style="fill:#f5b024;stroke:black;stroke-width:1;fill-opacity:1;stroke-opacity:0.3" />
<line x1="405" y1="149" x2="408" y2="151" stroke="black" stroke-width="1" />
<line x1="408" y1="151" x2="411" y2="149" stroke="black" stroke-width="1" />
<rect x="353" y="147" width="51" height="5" style="fill:#f5b024;stroke:black;stroke-width:1;fill-opacity:1;stroke-opacity:0.3" />
<rect x="411" y="147" width="51" height="5" style="fill:#f5b024;stroke:black;stroke-width:1;fill-opacity:1;stroke-opacity:0.3" />
<line x1="412" y1="135" x2="423" y2="137" stroke="black" stroke-width="1" />
<line x1="423" y1="137" x2="434" y2="135" stroke="black" stroke-width="1" />
<rect x="361" y="133" width="51" height="5" style="fill:#f5b024;stroke:black;stroke-width:1;fill-opacity:1;stroke-opacity:0.3" />
<rect x="434" y="133" width="51" height="5" style="fill:#f5b024;stroke:black;stroke-width:1;fill-opacity:1;stroke-opacity:0.3" />
<line x1="423" y1="58" x2="430" y2="60" stroke="black" stroke-width="1" />
<line x1="430" y1="60" x2="437" y2="58" stroke="black" stroke-width="1" />
<rect x="372" y="56" width="50" height="5" style="fill:#f5b024;stroke:black;stroke-width:1;fill-opacity:1;stroke-opacity:0.3" />
<rect x="437" y="56" width="51" height="5" style="fill:#f5b024;stroke:black;stroke-width:1;fill-opacity:1;stroke-opacity:0.3" />
<line x1="463" y1="44" x2="469" y2="46" stroke="black" stroke-width="1" />
<line x1="469" y1="46" x2="476" y2="44" stroke="black" stroke-width="1" />
<rect x="411" y="42" width="51" height="5" style="fill:#f5b024;stroke:black;stroke-width:1;fill-opacity:1;stroke-opacity:0.3" />
<rect x="476" y="42" width="51" height="5" style="fill:#f5b024;stroke:black;stroke-width:1;fill-opacity:1;stroke-opacity:0.3" />
<line x1="465" y1="142" x2="478" y2="144" stroke="black" stroke-width="1" />
<line x1="478" y1="144" x2="491" y2="142" stroke="black" stroke-width="1" />
<rect x="414" y="140" width="51" height="5" style="fill:#f5b024;stroke:black;stroke-width:1;fill-opacity:1;stroke-opacity:0.3" />
<rect x="491" y="140" width="51" height="5" style="fill:#f5b024;stroke:black;stroke-width:1;fill-opacity:1;stroke-opacity:0.3" />
<line x1="476" y1="30" x2="479" y2="32" stroke="black" stroke-width="1" />
<line x1="479" y1="32" x2="483" y2="30" stroke="black" stroke-width="1" />
<rect x="425" y="28" width="51" height="5" style="fill:#f5b024;stroke:black;stroke-width:1;fill-opacity:1;stroke-opacity:0.3" />
<rect x="483" y="28" width="51" height="5" style="fill:#f5b024;stroke:black;stroke-width:1;fill-opacity:1;stroke-opacity:0.3" />
<line x1="478" y1="37" x2="484" y2="39" stroke="black" stroke-width="1" />
<line x1="484" y1="39" x2="490" y2="37" stroke="black" stroke-width="1" />
<rect x="427" y="35" width="51" height="5" style="fill:#f5b024;stroke:black;stroke-width:1;fill-opacity:1;stroke-opacity:0.3" />
<rect x="490" y="35" width="51" height="5" style="fill:#f5b024;stroke:black;stroke-width:1;fill-opacity:1;stroke-opacity:0.3" />
<line x1="478" y1="65" x2="484" y2="67" stroke="black" stroke-width="1" />
<line x1="484" y1="67" x2="490" y2="65" stroke="black" stroke-width="1" />
<rect x="427" y="63" width="51" height="5" style="fill:#f5b024;stroke:black;stroke-width:1;fill-opacity:1;stroke-opacity:0.3" />
<rect x="490" y="63" width="51" height="5" style="fill:#f5b024;stroke:black;stroke-width:1;fill-opacity:1;stroke-opacity:0.3" />
<line x1="489" y1="93" x2="494" y2="95" stroke="black" stroke-width="1" />
<line x1="494" y1="95" x2="500" y2="93" stroke="black" stroke-width="1" />
<rect x="438" y="91" width="50" height="5" style="fill:#f5b024;stroke:black;stroke-width:1;fill-opacity:1;stroke-opacity:0.3" />
<rect x="500" y="91" width="51" height="5" style="fill:#f5b024;stroke:black;stroke-width:1;fill-opacity:1;stroke-opacity:0.3" />
<line x1="489" y1="107" x2="496" y2="109" stroke="black" stroke-width="1" />
<line x1="496" y1="109" x2="504" y2="107" stroke="black" stroke-width="1" />
<rect x="438" y="105" width="50" height="5" style="fill:#f5b024;stroke:black;stroke-width:1;fill-opacity:1;stroke-opacity:0.3" />
<rect x="504" y="105" width="51" height="5" style="fill:#f5b024;stroke:black;stroke-width:1;fill-opacity:1;stroke-opacity:0.3" />
<line x1="529" y1="51" x2="533" y2="53" stroke="black" stroke-width="1" />
<line x1="533" y1="53" x2="538" y2="51" stroke="black" stroke-width="1" />
<rect x="453" y="49" width="76" height="5" style="fill:#f5b024;stroke:black;stroke-width:1;fill-opacity:1;stroke-opacity:0.3" />
<rect x="538" y="49" width="25" height="5" style="fill:#f5b024;stroke:black;stroke-width:1;fill-opacity:1;stroke-opacity:0.3" />
<line x1="564" y1="51" x2="618" y2="51" stroke="pink" stroke-width="1" />
<rect x="618" y="49" width="48" height="5" style="fill:#f5b024;stroke:black;stroke-width:1;fill-opacity:1;stroke-opacity:0.3" />
<line x1="510" y1="72" x2="517" y2="74" stroke="black" stroke-width="1" />
<line x1="517" y1="74" x2="524" y2="72" stroke="black" stroke-width="1" />
<rect x="459" y="70" width="51" height="5" style="fill:#5d3c2d;stroke:black;stroke-width:1;fill-opacity:1;stroke-opacity:0.3" />
<rect x="524" y="70" width="51" height="5" style="fill:#5d3c2d;stroke:black;stroke-width:1;fill-opacity:1;stroke-opacity:0.3" />
<line x1="522" y1="79" x2="540" y2="81" stroke="black" stroke-width="1" />
<line x1="540" y1="81" x2="558" y2="79" stroke="black" stroke-width="1" />
<rect x="471" y="77" width="51" height="5" style="fill:#f5b024;stroke:black;stroke-width:1;fill-opacity:1;stroke-opacity:0.3" />
<rect x="558" y="77" width="51" height="5" style="fill:#f5b024;stroke:black;stroke-width:1;fill-opacity:1;stroke-opacity:0.3" />
<line x1="572" y1="58" x2="583" y2="60" stroke="black" stroke-width="1" />
<line x1="583" y1="60" x2="595" y2="58" stroke="black" stroke-width="1" />
<rect x="495" y="56" width="76" height="5" style="fill:#f5b024;stroke:black;stroke-width:1;fill-opacity:1;stroke-opacity:0.3" />
<rect x="595" y="56" width="76" height="5" style="fill:#f5b024;stroke:black;stroke-width:1;fill-opacity:1;stroke-opacity:0.3" />
<line x1="574" y1="86" x2="578" y2="88" stroke="black" stroke-width="1" />
<line x1="578" y1="88" x2="582" y2="86" stroke="black" stroke-width="1" />
<rect x="497" y="84" width="76" height="5" style="fill:#f5b024;stroke:black;stroke-width:1;fill-opacity:1;stroke-opacity:0.3" />
<rect x="582" y="84" width="76" height="5" style="fill:#f5b024;stroke:black;stroke-width:1;fill-opacity:1;stroke-opacity:0.3" />
<line x1="580" y1="100" x2="589" y2="102" stroke="black" stroke-width="1" />
<line x1="589" y1="102" x2="598" y2="100" stroke="black" stroke-width="1" />
<rect x="503" y="98" width="76" height="5" style="fill:#f5b024;stroke:black;stroke-width:1;fill-opacity:1;stroke-opacity:0.3" />
<rect x="598" y="98" width="76" height="5" style="fill:#f5b024;stroke:black;stroke-width:1;fill-opacity:1;stroke-opacity:0.3" />
<line x1="553" y1="114" x2="557" y2="116" stroke="black" stroke-width="1" />
<line x1="557" y1="116" x2="561" y2="114" stroke="black" stroke-width="1" />
<rect x="505" y="112" width="48" height="5" style="fill:#f5b024;stroke:black;stroke-width:1;fill-opacity:1;stroke-opacity:0.3" />
<rect x="561" y="112" width="50" height="5" style="fill:#f5b024;stroke:black;stroke-width:1;fill-opacity:1;stroke-opacity:0.3" />
<line x1="576" y1="121" x2="610" y2="123" stroke="black" stroke-width="1" />
<line x1="610" y1="123" x2="645" y2="121" stroke="black" stroke-width="1" />
<rect x="525" y="119" width="51" height="5" style="fill:#f5b024;stroke:black;stroke-width:1;fill-opacity:1;stroke-opacity:0.3" />
<rect x="645" y="119" width="51" height="5" style="fill:#f5b024;stroke:black;stroke-width:1;fill-opacity:1;stroke-opacity:0.3" />
<line x1="582" y1="44" x2="604" y2="46" stroke="black" stroke-width="1" />
<line x1="604" y1="46" x2="626" y2="44" stroke="black" stroke-width="1" />
<rect x="532" y="42" width="50" height="5" style="fill:#f5b024;stroke:black;stroke-width:1;fill-opacity:1;stroke-opacity:0.3" />
<rect x="626" y="42" width="51" height="5" style="fill:#f5b024;stroke:black;stroke-width:1;fill-opacity:1;stroke-opacity:0.3" />
<line x1="608" y1="128" x2="611" y2="130" stroke="black" stroke-width="1" />
<line x1="611" y1="130" x2="615" y2="128" stroke="black" stroke-width="1" />
<rect x="532" y="126" width="76" height="5" style="fill:#f5b024;stroke:black;stroke-width:1;fill-opacity:1;stroke-opacity:0.3" />
<rect x="615" y="126" width="76" height="5" style="fill:#f5b024;stroke:black;stroke-width:1;fill-opacity:1;stroke-opacity:0.3" />
<line x1="587" y1="30" x2="589" y2="32" stroke="black" stroke-width="1" />
<line x1="589" y1="32" x2="592" y2="30" stroke="black" stroke-width="1" />
<rect x="535" y="28" width="51" height="5" style="fill:#f5b024;stroke:black;stroke-width:1;fill-opacity:1;stroke-opacity:0.3" />
<rect x="592" y="28" width="51" height="5" style="fill:#f5b024;stroke:black;stroke-width:1;fill-opacity:1;stroke-opacity:0.3" />
<line x1="588" y1="135" x2="594" y2="137" stroke="black" stroke-width="1" />
<line x1="594" y1="137" x2="600" y2="135" stroke="black" stroke-width="1" />
<rect x="536" y="133" width="51" height="5" style="fill:#f5b024;stroke:black;stroke-width:1;fill-opacity:1;stroke-opacity:0.3" />
<rect x="600" y="133" width="51" height="5" style="fill:#f5b024;stroke:black;stroke-width:1;fill-opacity:1;stroke-opacity:0.3" />
<line x1="601" y1="37" x2="619" y2="39" stroke="black" stroke-width="1" />
<line x1="619" y1="39" x2="638" y2="37" stroke="black" stroke-width="1" />
<rect x="550" y="35" width="51" height="5" style="fill:#f5b024;stroke:black;stroke-width:1;fill-opacity:1;stroke-opacity:0.3" />
<rect x="638" y="35" width="51" height="5" style="fill:#f5b024;stroke:black;stroke-width:1;fill-opacity:1;stroke-opacity:0.3" />
<line x1="605" y1="65" x2="625" y2="67" stroke="black" stroke-width="1" />
<line x1="625" y1="67" x2="646" y2="65" stroke="black" stroke-width="1" />
<rect x="555" y="63" width="50" height="5" style="fill:#f5b024;stroke:black;stroke-width:1;fill-opacity:1;stroke-opacity:0.3" />
<rect x="646" y="63" width="51" height="5" style="fill:#f5b024;stroke:black;stroke-width:1;fill-opacity:1;stroke-opacity:0.3" />
<line x1="610" y1="93" x2="633" y2="95" stroke="black" stroke-width="1" />
<line x1="633" y1="95" x2="657" y2="93" stroke="black" stroke-width="1" />
<rect x="559" y="91" width="51" height="5" style="fill:#f5b024;stroke:black;stroke-width:1;fill-opacity:1;stroke-opacity:0.3" />
<rect x="657" y="91" width="51" height="5" style="fill:#f5b024;stroke:black;stroke-width:1;fill-opacity:1;stroke-opacity:0.3" />
<line x1="612" y1="107" x2="617" y2="109" stroke="black" stroke-width="1" />
<line x1="617" y1="109" x2="623" y2="107" stroke="black" stroke-width="1" />
<rect x="560" y="105" width="51" height="5" style="fill:#f5b024;stroke:black;stroke-width:1;fill-opacity:1;stroke-opacity:0.3" />
<rect x="623" y="105" width="51" height="5" style="fill:#f5b024;stroke:black;stroke-width:1;fill-opacity:1;stroke-opacity:0.3" />
<line x1="621" y1="142" x2="631" y2="144" stroke="black" stroke-width="1" />
<line x1="631" y1="144" x2="641" y2="142" stroke="black" stroke-width="1" />
<rect x="571" y="140" width="50" height="5" style="fill:#f5b024;stroke:black;stroke-width:1;fill-opacity:1;stroke-opacity:0.3" />
<rect x="641" y="140" width="51" height="5" style="fill:#f5b024;stroke:black;stroke-width:1;fill-opacity:1;stroke-opacity:0.3" />
<line x1="621" y1="149" x2="631" y2="151" stroke="black" stroke-width="1" />
<line x1="631" y1="151" x2="641" y2="149" stroke="black" stroke-width="1" />
<rect x="571" y="147" width="50" height="5" style="fill:#f5b024;stroke:black;stroke-width:1;fill-opacity:1;stroke-opacity:0.3" />
<rect x="641" y="147" width="51" height="5" style="fill:#f5b024;stroke:black;stroke-width:1;fill-opacity:1;stroke-opacity:0.3" />
<line x1="641" y1="72" x2="660" y2="74" stroke="black" stroke-width="1" />
<line x1="660" y1="74" x2="679" y2="72" stroke="black" stroke-width="1" />
<rect x="591" y="70" width="50" height="5" style="fill:#f5b024;stroke:black;stroke-width:1;fill-opacity:1;stroke-opacity:0.3" />
<rect x="679" y="70" width="51" height="5" style="fill:#f5b024;stroke:black;stroke-width:1;fill-opacity:1;stroke-opacity:0.3" />
<line x1="642" y1="156" x2="671" y2="158" stroke="black" stroke-width="1" />
<line x1="671" y1="158" x2="700" y2="156" stroke="black" stroke-width="1" />
<rect x="592" y="154" width="50" height="5" style="fill:#f5b024;stroke:black;stroke-width:1;fill-opacity:1;stroke-opacity:0.3" />
<rect x="700" y="154" width="51" height="5" style="fill:#f5b024;stroke:black;stroke-width:1;fill-opacity:1;stroke-opacity:0.3" />
<line x1="649" y1="163" x2="664" y2="165" stroke="black" stroke-width="1" />
<line x1="664" y1="165" x2="679" y2="163" stroke="black" stroke-width="1" />
<rect x="597" y="161" width="51" height="5" style="fill:#f5b024;stroke:black;stroke-width:1;fill-opacity:1;stroke-opacity:0.3" />
<rect x="679" y="161" width="51" height="5" style="fill:#f5b024;stroke:black;stroke-width:1;fill-opacity:1;stroke-opacity:0.3" />
<line x1="663" y1="79" x2="668" y2="81" stroke="black" stroke-width="1" />
<line x1="668" y1="81" x2="674" y2="79" stroke="black" stroke-width="1" />
<rect x="613" y="77" width="50" height="5" style="fill:#f5b024;stroke:black;stroke-width:1;fill-opacity:1;stroke-opacity:0.3" />
<rect x="674" y="77" width="51" height="5" style="fill:#f5b024;stroke:black;stroke-width:1;fill-opacity:1;stroke-opacity:0.3" />
<line x1="664" y1="114" x2="701" y2="116" stroke="black" stroke-width="1" />
<line x1="701" y1="116" x2="739" y2="114" stroke="black" stroke-width="1" />
<rect x="614" y="112" width="49" height="5" style="fill:#f5b024;stroke:black;stroke-width:1;fill-opacity:1;stroke-opacity:0.3" />
<rect x="739" y="112" width="51" height="5" style="fill:#f5b024;stroke:black;stroke-width:1;fill-opacity:1;stroke-opacity:0.3" />
<line x1="697" y1="30" x2="701" y2="32" stroke="black" stroke-width="1" />
<line x1="701" y1="32" x2="706" y2="30" stroke="black" stroke-width="1" />
<rect x="646" y="28" width="51" height="5" style="fill:#f5b024;stroke:black;stroke-width:1;fill-opacity:1;stroke-opacity:0.3" />
<rect x="706" y="28" width="51" height="5" style="fill:#f5b024;stroke:black;stroke-width:1;fill-opacity:1;stroke-opacity:0.3" />
<line x1="704" y1="135" x2="713" y2="137" stroke="black" stroke-width="1" />
<line x1="713" y1="137" x2="722" y2="135" stroke="black" stroke-width="1" />
<rect x="653" y="133" width="51" height="5" style="fill:#f5b024;stroke:black;stroke-width:1;fill-opacity:1;stroke-opacity:0.3" />
<rect x="722" y="133" width="51" height="5" style="fill:#f5b024;stroke:black;stroke-width:1;fill-opacity:1;stroke-opacity:0.3" />
<line x1="805" y1="37" x2="814" y2="39" stroke="black" stroke-width="1" />
<line x1="814" y1="39" x2="824" y2="37" stroke="black" stroke-width="1" />
<rect x="754" y="35" width="50" height="5" style="fill:#f5b024;stroke:black;stroke-width:1;fill-opacity:1;stroke-opacity:0.3" />
<rect x="824" y="35" width="51" height="5" style="fill:#f5b024;stroke:black;stroke-width:1;fill-opacity:1;stroke-opacity:0.3" />
<line x1="828" y1="30" x2="831" y2="32" stroke="black" stroke-width="1" />
<line x1="831" y1="32" x2="834" y2="30" stroke="black" stroke-width="1" />
<rect x="777" y="28" width="51" height="5" style="fill:#f5b024;stroke:black;stroke-width:1;fill-opacity:1;stroke-opacity:0.3" />
<rect x="834" y="28" width="51" height="5" style="fill:#f5b024;stroke:black;stroke-width:1;fill-opacity:1;stroke-opacity:0.3" />
<text x="15"  y="176" style="font-family:Arial;font-size:10;stroke:black;fill:black;">all.merged.bam</text>
</svg>
    
