<?xml version="1.0" encoding="utf-8" standalone="no"?>
<!DOCTYPE svg PUBLIC "-//W3C//DTD SVG 1.1//EN"
  "http://www.w3.org/Graphics/SVG/1.1/DTD/svg11.dtd">
<svg height="1140" width="1000" version="1.1" viewBox="0 0 1000 1140" xmlns="http://www.w3.org/2000/svg" xmlns:xlink="http://www.w3.org/1999/xlink">
<line x1="27" y1="11" x2="972" y2="11" stroke="black" stroke-width="1" />
<rect x="27" y="9" width="65" height="5" style="fill:#f50002;stroke:black;stroke-width:1;fill-opacity:1;stroke-opacity:0.3" />
<rect x="157" y="9" width="10" height="5" style="fill:#f50002;stroke:black;stroke-width:1;fill-opacity:1;stroke-opacity:0.3" />
<rect x="239" y="9" width="0" height="5" style="fill:#f50002;stroke:black;stroke-width:1;fill-opacity:1;stroke-opacity:0.3" />
<rect x="240" y="9" width="56" height="5" style="fill:#53a1b5;stroke:black;stroke-width:1;fill-opacity:1;stroke-opacity:0.3" />
<rect x="375" y="9" width="24" height="5" style="fill:#53a1b5;stroke:black;stroke-width:1;fill-opacity:1;stroke-opacity:0.3" />
<rect x="466" y="9" width="33" height="5" style="fill:#53a1b5;stroke:black;stroke-width:1;fill-opacity:1;stroke-opacity:0.3" />
<rect x="574" y="9" width="35" height="5" style="fill:#53a1b5;stroke:black;stroke-width:1;fill-opacity:1;stroke-opacity:0.3" />
<rect x="676" y="9" width="33" height="5" style="fill:#53a1b5;stroke:black;stroke-width:1;fill-opacity:1;stroke-opacity:0.3" />
<rect x="784" y="9" width="42" height="5" style="fill:#53a1b5;stroke:black;stroke-width:1;fill-opacity:1;stroke-opacity:0.3" />
<rect x="826" y="9" width="145" height="5" style="fill:#f50002;stroke:black;stroke-width:1;fill-opacity:1;stroke-opacity:0.3" />
<text x="27"  y="23" style="font-family:Arial;font-size:10;stroke:black;fill:black;">Cre03.g154050.t1.2.v5.5 (+) chromosome_3:1774172-1777597</text>
<line x1="93" y1="30" x2="167" y2="32" stroke="black" stroke-width="1" />
<line x1="167" y1="32" x2="241" y2="30" stroke="black" stroke-width="1" />
<rect x="65" y="28" width="27" height="5" style="fill:#5d3c2d;stroke:black;stroke-width:1;fill-opacity:1;stroke-opacity:0.3" />
<rect x="241" y="28" width="27" height="5" style="fill:#5d3c2d;stroke:black;stroke-width:1;fill-opacity:1;stroke-opacity:0.3" />
<line x1="128" y1="37" x2="131" y2="39" stroke="black" stroke-width="1" />
<line x1="131" y1="39" x2="134" y2="37" stroke="black" stroke-width="1" />
<rect x="100" y="35" width="27" height="5" style="fill:#5d3c2d;stroke:black;stroke-width:1;fill-opacity:1;stroke-opacity:0.3" />
<rect x="134" y="35" width="27" height="5" style="fill:#5d3c2d;stroke:black;stroke-width:1;fill-opacity:1;stroke-opacity:0.3" />
<line x1="379" y1="30" x2="382" y2="32" stroke="black" stroke-width="1" />
<line x1="382" y1="32" x2="386" y2="30" stroke="black" stroke-width="1" />
<rect x="273" y="28" width="23" height="5" style="fill:#5d3c2d;stroke:black;stroke-width:1;fill-opacity:1;stroke-opacity:0.3" />
<line x1="297" y1="30" x2="375" y2="30" stroke="pink" stroke-width="1" />
<rect x="375" y="28" width="3" height="5" style="fill:#5d3c2d;stroke:black;stroke-width:1;fill-opacity:1;stroke-opacity:0.3" />
<rect x="386" y="28" width="13" height="5" style="fill:#5d3c2d;stroke:black;stroke-width:1;fill-opacity:1;stroke-opacity:0.3" />
<line x1="400" y1="30" x2="466" y2="30" stroke="pink" stroke-width="1" />
<rect x="466" y="28" width="13" height="5" style="fill:#5d3c2d;stroke:black;stroke-width:1;fill-opacity:1;stroke-opacity:0.3" />
<line x1="325" y1="37" x2="328" y2="39" stroke="black" stroke-width="1" />
<line x1="328" y1="39" x2="332" y2="37" stroke="black" stroke-width="1" />
<rect x="297" y="35" width="27" height="5" style="fill:#f5b024;stroke:black;stroke-width:1;fill-opacity:1;stroke-opacity:0.3" />
<rect x="332" y="35" width="27" height="5" style="fill:#f5b024;stroke:black;stroke-width:1;fill-opacity:1;stroke-opacity:0.3" />
<line x1="490" y1="37" x2="494" y2="39" stroke="black" stroke-width="1" />
<line x1="494" y1="39" x2="498" y2="37" stroke="black" stroke-width="1" />
<rect x="397" y="35" width="3" height="5" style="fill:#5d3c2d;stroke:black;stroke-width:1;fill-opacity:1;stroke-opacity:0.3" />
<line x1="400" y1="37" x2="466" y2="37" stroke="pink" stroke-width="1" />
<rect x="466" y="35" width="24" height="5" style="fill:#5d3c2d;stroke:black;stroke-width:1;fill-opacity:1;stroke-opacity:0.3" />
<rect x="498" y="35" width="2" height="5" style="fill:#5d3c2d;stroke:black;stroke-width:1;fill-opacity:1;stroke-opacity:0.3" />
<line x1="500" y1="37" x2="574" y2="37" stroke="pink" stroke-width="1" />
<rect x="574" y="35" width="25" height="5" style="fill:#5d3c2d;stroke:black;stroke-width:1;fill-opacity:1;stroke-opacity:0.3" />
<line x1="443" y1="44" x2="448" y2="46" stroke="black" stroke-width="1" />
<line x1="448" y1="46" x2="454" y2="44" stroke="black" stroke-width="1" />
<rect x="416" y="42" width="27" height="5" style="fill:#f5b024;stroke:black;stroke-width:1;fill-opacity:1;stroke-opacity:0.3" />
<rect x="454" y="42" width="27" height="5" style="fill:#f5b024;stroke:black;stroke-width:1;fill-opacity:1;stroke-opacity:0.3" />
<line x1="460" y1="51" x2="472" y2="53" stroke="black" stroke-width="1" />
<line x1="472" y1="53" x2="484" y2="51" stroke="black" stroke-width="1" />
<rect x="433" y="49" width="27" height="5" style="fill:#5d3c2d;stroke:black;stroke-width:1;fill-opacity:1;stroke-opacity:0.3" />
<rect x="484" y="49" width="27" height="5" style="fill:#5d3c2d;stroke:black;stroke-width:1;fill-opacity:1;stroke-opacity:0.3" />
<line x1="493" y1="58" x2="539" y2="60" stroke="black" stroke-width="1" />
<line x1="539" y1="60" x2="585" y2="58" stroke="black" stroke-width="1" />
<rect x="466" y="56" width="27" height="5" style="fill:#5d3c2d;stroke:black;stroke-width:1;fill-opacity:1;stroke-opacity:0.3" />
<rect x="585" y="56" width="25" height="5" style="fill:#5d3c2d;stroke:black;stroke-width:1;fill-opacity:1;stroke-opacity:0.3" />
<line x1="610" y1="58" x2="1533" y2="58" stroke="pink" stroke-width="1" />
<rect x="1533" y="56" width="1" height="5" style="fill:#5d3c2d;stroke:black;stroke-width:1;fill-opacity:1;stroke-opacity:0.3" />
<line x1="493" y1="65" x2="539" y2="67" stroke="black" stroke-width="1" />
<line x1="539" y1="67" x2="585" y2="65" stroke="black" stroke-width="1" />
<rect x="466" y="63" width="27" height="5" style="fill:#5d3c2d;stroke:black;stroke-width:1;fill-opacity:1;stroke-opacity:0.3" />
<rect x="585" y="63" width="25" height="5" style="fill:#5d3c2d;stroke:black;stroke-width:1;fill-opacity:1;stroke-opacity:0.3" />
<line x1="610" y1="65" x2="1533" y2="65" stroke="pink" stroke-width="1" />
<rect x="1533" y="63" width="1" height="5" style="fill:#5d3c2d;stroke:black;stroke-width:1;fill-opacity:1;stroke-opacity:0.3" />
<line x1="500" y1="72" x2="543" y2="74" stroke="black" stroke-width="1" />
<line x1="543" y1="74" x2="587" y2="72" stroke="black" stroke-width="1" />
<rect x="472" y="70" width="27" height="5" style="fill:#5d3c2d;stroke:black;stroke-width:1;fill-opacity:1;stroke-opacity:0.3" />
<rect x="587" y="70" width="22" height="5" style="fill:#5d3c2d;stroke:black;stroke-width:1;fill-opacity:1;stroke-opacity:0.3" />
<line x1="610" y1="72" x2="676" y2="72" stroke="pink" stroke-width="1" />
<rect x="676" y="70" width="4" height="5" style="fill:#5d3c2d;stroke:black;stroke-width:1;fill-opacity:1;stroke-opacity:0.3" />
<line x1="527" y1="30" x2="532" y2="32" stroke="black" stroke-width="1" />
<line x1="532" y1="32" x2="538" y2="30" stroke="black" stroke-width="1" />
<rect x="500" y="28" width="27" height="5" style="fill:#5d3c2d;stroke:black;stroke-width:1;fill-opacity:1;stroke-opacity:0.3" />
<rect x="538" y="28" width="27" height="5" style="fill:#5d3c2d;stroke:black;stroke-width:1;fill-opacity:1;stroke-opacity:0.3" />
<line x1="611" y1="30" x2="644" y2="32" stroke="black" stroke-width="1" />
<line x1="644" y1="32" x2="678" y2="30" stroke="black" stroke-width="1" />
<rect x="584" y="28" width="26" height="5" style="fill:#5d3c2d;stroke:black;stroke-width:1;fill-opacity:1;stroke-opacity:0.3" />
<rect x="678" y="28" width="27" height="5" style="fill:#5d3c2d;stroke:black;stroke-width:1;fill-opacity:1;stroke-opacity:0.3" />
<line x1="691" y1="37" x2="695" y2="39" stroke="black" stroke-width="1" />
<line x1="695" y1="39" x2="700" y2="37" stroke="black" stroke-width="1" />
<rect x="664" y="35" width="27" height="5" style="fill:#f5b024;stroke:black;stroke-width:1;fill-opacity:1;stroke-opacity:0.3" />
<rect x="700" y="35" width="27" height="5" style="fill:#f5b024;stroke:black;stroke-width:1;fill-opacity:1;stroke-opacity:0.3" />
<line x1="759" y1="30" x2="764" y2="32" stroke="black" stroke-width="1" />
<line x1="764" y1="32" x2="770" y2="30" stroke="black" stroke-width="1" />
<rect x="718" y="28" width="41" height="5" style="fill:#f5b024;stroke:black;stroke-width:1;fill-opacity:1;stroke-opacity:0.3" />
<rect x="770" y="28" width="41" height="5" style="fill:#f5b024;stroke:black;stroke-width:1;fill-opacity:1;stroke-opacity:0.3" />
<line x1="775" y1="37" x2="780" y2="39" stroke="black" stroke-width="1" />
<line x1="780" y1="39" x2="786" y2="37" stroke="black" stroke-width="1" />
<rect x="748" y="35" width="27" height="5" style="fill:#f5b024;stroke:black;stroke-width:1;fill-opacity:1;stroke-opacity:0.3" />
<rect x="786" y="35" width="27" height="5" style="fill:#f5b024;stroke:black;stroke-width:1;fill-opacity:1;stroke-opacity:0.3" />
<line x1="810" y1="44" x2="815" y2="46" stroke="black" stroke-width="1" />
<line x1="815" y1="46" x2="821" y2="44" stroke="black" stroke-width="1" />
<rect x="783" y="42" width="26" height="5" style="fill:#5d3c2d;stroke:black;stroke-width:1;fill-opacity:1;stroke-opacity:0.3" />
<rect x="821" y="42" width="27" height="5" style="fill:#5d3c2d;stroke:black;stroke-width:1;fill-opacity:1;stroke-opacity:0.3" />
<line x1="822" y1="51" x2="824" y2="53" stroke="black" stroke-width="1" />
<line x1="824" y1="53" x2="827" y2="51" stroke="black" stroke-width="1" />
<rect x="794" y="49" width="27" height="5" style="fill:#5d3c2d;stroke:black;stroke-width:1;fill-opacity:1;stroke-opacity:0.3" />
<rect x="827" y="49" width="27" height="5" style="fill:#5d3c2d;stroke:black;stroke-width:1;fill-opacity:1;stroke-opacity:0.3" />
<line x1="829" y1="72" x2="851" y2="74" stroke="black" stroke-width="1" />
<line x1="851" y1="74" x2="874" y2="72" stroke="black" stroke-width="1" />
<rect x="801" y="70" width="27" height="5" style="fill:#5d3c2d;stroke:black;stroke-width:1;fill-opacity:1;stroke-opacity:0.3" />
<rect x="874" y="70" width="27" height="5" style="fill:#5d3c2d;stroke:black;stroke-width:1;fill-opacity:1;stroke-opacity:0.3" />
<line x1="845" y1="30" x2="848" y2="32" stroke="black" stroke-width="1" />
<line x1="848" y1="32" x2="852" y2="30" stroke="black" stroke-width="1" />
<rect x="818" y="28" width="27" height="5" style="fill:#5d3c2d;stroke:black;stroke-width:1;fill-opacity:1;stroke-opacity:0.3" />
<rect x="852" y="28" width="26" height="5" style="fill:#5d3c2d;stroke:black;stroke-width:1;fill-opacity:1;stroke-opacity:0.3" />
<line x1="845" y1="37" x2="848" y2="39" stroke="black" stroke-width="1" />
<line x1="848" y1="39" x2="852" y2="37" stroke="black" stroke-width="1" />
<rect x="818" y="35" width="27" height="5" style="fill:#5d3c2d;stroke:black;stroke-width:1;fill-opacity:1;stroke-opacity:0.3" />
<rect x="852" y="35" width="26" height="5" style="fill:#5d3c2d;stroke:black;stroke-width:1;fill-opacity:1;stroke-opacity:0.3" />
<line x1="876" y1="44" x2="879" y2="46" stroke="black" stroke-width="1" />
<line x1="879" y1="46" x2="883" y2="44" stroke="black" stroke-width="1" />
<rect x="849" y="42" width="27" height="5" style="fill:#5d3c2d;stroke:black;stroke-width:1;fill-opacity:1;stroke-opacity:0.3" />
<rect x="883" y="42" width="27" height="5" style="fill:#5d3c2d;stroke:black;stroke-width:1;fill-opacity:1;stroke-opacity:0.3" />
<line x1="879" y1="79" x2="881" y2="81" stroke="black" stroke-width="1" />
<line x1="881" y1="81" x2="883" y2="79" stroke="black" stroke-width="1" />
<rect x="851" y="77" width="27" height="5" style="fill:#f5b024;stroke:black;stroke-width:1;fill-opacity:1;stroke-opacity:0.3" />
<rect x="883" y="77" width="27" height="5" style="fill:#f5b024;stroke:black;stroke-width:1;fill-opacity:1;stroke-opacity:0.3" />
<line x1="886" y1="51" x2="894" y2="53" stroke="black" stroke-width="1" />
<line x1="894" y1="53" x2="902" y2="51" stroke="black" stroke-width="1" />
<rect x="859" y="49" width="27" height="5" style="fill:#f5b024;stroke:black;stroke-width:1;fill-opacity:1;stroke-opacity:0.3" />
<rect x="902" y="49" width="27" height="5" style="fill:#f5b024;stroke:black;stroke-width:1;fill-opacity:1;stroke-opacity:0.3" />
<line x1="887" y1="86" x2="893" y2="88" stroke="black" stroke-width="1" />
<line x1="893" y1="88" x2="900" y2="86" stroke="black" stroke-width="1" />
<rect x="860" y="84" width="27" height="5" style="fill:#f5b024;stroke:black;stroke-width:1;fill-opacity:1;stroke-opacity:0.3" />
<rect x="900" y="84" width="27" height="5" style="fill:#f5b024;stroke:black;stroke-width:1;fill-opacity:1;stroke-opacity:0.3" />
<line x1="888" y1="93" x2="890" y2="95" stroke="black" stroke-width="1" />
<line x1="890" y1="95" x2="892" y2="93" stroke="black" stroke-width="1" />
<rect x="860" y="91" width="27" height="5" style="fill:#5d3c2d;stroke:black;stroke-width:1;fill-opacity:1;stroke-opacity:0.3" />
<rect x="892" y="91" width="27" height="5" style="fill:#5d3c2d;stroke:black;stroke-width:1;fill-opacity:1;stroke-opacity:0.3" />
<line x1="895" y1="100" x2="898" y2="102" stroke="black" stroke-width="1" />
<line x1="898" y1="102" x2="901" y2="100" stroke="black" stroke-width="1" />
<rect x="867" y="98" width="27" height="5" style="fill:#5d3c2d;stroke:black;stroke-width:1;fill-opacity:1;stroke-opacity:0.3" />
<rect x="901" y="98" width="27" height="5" style="fill:#5d3c2d;stroke:black;stroke-width:1;fill-opacity:1;stroke-opacity:0.3" />
<line x1="903" y1="107" x2="907" y2="109" stroke="black" stroke-width="1" />
<line x1="907" y1="109" x2="912" y2="107" stroke="black" stroke-width="1" />
<rect x="875" y="105" width="27" height="5" style="fill:#5d3c2d;stroke:black;stroke-width:1;fill-opacity:1;stroke-opacity:0.3" />
<rect x="912" y="105" width="27" height="5" style="fill:#5d3c2d;stroke:black;stroke-width:1;fill-opacity:1;stroke-opacity:0.3" />
<line x1="903" y1="114" x2="907" y2="116" stroke="black" stroke-width="1" />
<line x1="907" y1="116" x2="912" y2="114" stroke="black" stroke-width="1" />
<rect x="875" y="112" width="27" height="5" style="fill:#5d3c2d;stroke:black;stroke-width:1;fill-opacity:1;stroke-opacity:0.3" />
<rect x="912" y="112" width="27" height="5" style="fill:#5d3c2d;stroke:black;stroke-width:1;fill-opacity:1;stroke-opacity:0.3" />
<line x1="907" y1="30" x2="911" y2="32" stroke="black" stroke-width="1" />
<line x1="911" y1="32" x2="915" y2="30" stroke="black" stroke-width="1" />
<rect x="880" y="28" width="27" height="5" style="fill:#5d3c2d;stroke:black;stroke-width:1;fill-opacity:1;stroke-opacity:0.3" />
<rect x="915" y="28" width="27" height="5" style="fill:#5d3c2d;stroke:black;stroke-width:1;fill-opacity:1;stroke-opacity:0.3" />
<line x1="936" y1="37" x2="939" y2="39" stroke="black" stroke-width="1" />
<line x1="939" y1="39" x2="942" y2="37" stroke="black" stroke-width="1" />
<rect x="908" y="35" width="27" height="5" style="fill:#5d3c2d;stroke:black;stroke-width:1;fill-opacity:1;stroke-opacity:0.3" />
<rect x="942" y="35" width="27" height="5" style="fill:#5d3c2d;stroke:black;stroke-width:1;fill-opacity:1;stroke-opacity:0.3" />
<line x1="937" y1="72" x2="938" y2="74" stroke="black" stroke-width="1" />
<line x1="938" y1="74" x2="940" y2="72" stroke="black" stroke-width="1" />
<rect x="909" y="70" width="27" height="5" style="fill:#f5b024;stroke:black;stroke-width:1;fill-opacity:1;stroke-opacity:0.3" />
<rect x="940" y="70" width="27" height="5" style="fill:#f5b024;stroke:black;stroke-width:1;fill-opacity:1;stroke-opacity:0.3" />
<text x="15"  y="176" style="font-family:Arial;font-size:10;stroke:black;fill:black;">all.merged.bam</text>
</svg>
    
