<?xml version="1.0" encoding="utf-8" standalone="no"?>
<!DOCTYPE svg PUBLIC "-//W3C//DTD SVG 1.1//EN"
  "http://www.w3.org/Graphics/SVG/1.1/DTD/svg11.dtd">
<svg height="1140" width="1000" version="1.1" viewBox="0 0 1000 1140" xmlns="http://www.w3.org/2000/svg" xmlns:xlink="http://www.w3.org/1999/xlink">
<line x1="60" y1="11" x2="939" y2="11" stroke="black" stroke-width="1" />
<rect x="60" y="9" width="34" height="5" style="fill:#f50002;stroke:black;stroke-width:1;fill-opacity:1;stroke-opacity:0.3" />
<rect x="95" y="9" width="442" height="5" style="fill:#53a1b5;stroke:black;stroke-width:1;fill-opacity:1;stroke-opacity:0.3" />
<rect x="538" y="9" width="400" height="5" style="fill:#f50002;stroke:black;stroke-width:1;fill-opacity:1;stroke-opacity:0.3" />
<text x="60"  y="23" style="font-family:Arial;font-size:10;stroke:black;fill:black;">Cre03.g144667.t1.1.v5.5 (+) chromosome_3:318846-320305</text>
<line x1="118" y1="30" x2="126" y2="32" stroke="black" stroke-width="1" />
<line x1="126" y1="32" x2="135" y2="30" stroke="black" stroke-width="1" />
<rect x="57" y="28" width="60" height="5" style="fill:#5d3c2d;stroke:black;stroke-width:1;fill-opacity:1;stroke-opacity:0.3" />
<rect x="135" y="28" width="60" height="5" style="fill:#5d3c2d;stroke:black;stroke-width:1;fill-opacity:1;stroke-opacity:0.3" />
<line x1="118" y1="37" x2="127" y2="39" stroke="black" stroke-width="1" />
<line x1="127" y1="39" x2="136" y2="37" stroke="black" stroke-width="1" />
<rect x="57" y="35" width="60" height="5" style="fill:#5d3c2d;stroke:black;stroke-width:1;fill-opacity:1;stroke-opacity:0.3" />
<rect x="136" y="35" width="60" height="5" style="fill:#5d3c2d;stroke:black;stroke-width:1;fill-opacity:1;stroke-opacity:0.3" />
<line x1="118" y1="44" x2="122" y2="46" stroke="black" stroke-width="1" />
<line x1="122" y1="46" x2="127" y2="44" stroke="black" stroke-width="1" />
<rect x="58" y="42" width="60" height="5" style="fill:#5d3c2d;stroke:black;stroke-width:1;fill-opacity:1;stroke-opacity:0.3" />
<rect x="127" y="42" width="59" height="5" style="fill:#5d3c2d;stroke:black;stroke-width:1;fill-opacity:1;stroke-opacity:0.3" />
<line x1="119" y1="51" x2="135" y2="53" stroke="black" stroke-width="1" />
<line x1="135" y1="53" x2="151" y2="51" stroke="black" stroke-width="1" />
<rect x="59" y="49" width="60" height="5" style="fill:#5d3c2d;stroke:black;stroke-width:1;fill-opacity:1;stroke-opacity:0.3" />
<rect x="151" y="49" width="60" height="5" style="fill:#5d3c2d;stroke:black;stroke-width:1;fill-opacity:1;stroke-opacity:0.3" />
<line x1="150" y1="58" x2="181" y2="60" stroke="black" stroke-width="1" />
<line x1="181" y1="60" x2="213" y2="58" stroke="black" stroke-width="1" />
<rect x="59" y="56" width="90" height="5" style="fill:#5d3c2d;stroke:black;stroke-width:1;fill-opacity:1;stroke-opacity:0.3" />
<rect x="213" y="56" width="90" height="5" style="fill:#5d3c2d;stroke:black;stroke-width:1;fill-opacity:1;stroke-opacity:0.3" />
<line x1="120" y1="65" x2="125" y2="67" stroke="black" stroke-width="1" />
<line x1="125" y1="67" x2="131" y2="65" stroke="black" stroke-width="1" />
<rect x="60" y="63" width="60" height="5" style="fill:#5d3c2d;stroke:black;stroke-width:1;fill-opacity:1;stroke-opacity:0.3" />
<rect x="131" y="63" width="60" height="5" style="fill:#5d3c2d;stroke:black;stroke-width:1;fill-opacity:1;stroke-opacity:0.3" />
<line x1="120" y1="72" x2="157" y2="74" stroke="black" stroke-width="1" />
<line x1="157" y1="74" x2="195" y2="72" stroke="black" stroke-width="1" />
<rect x="60" y="70" width="60" height="5" style="fill:#5d3c2d;stroke:black;stroke-width:1;fill-opacity:1;stroke-opacity:0.3" />
<rect x="195" y="70" width="60" height="5" style="fill:#5d3c2d;stroke:black;stroke-width:1;fill-opacity:1;stroke-opacity:0.3" />
<line x1="120" y1="79" x2="123" y2="81" stroke="black" stroke-width="1" />
<line x1="123" y1="81" x2="127" y2="79" stroke="black" stroke-width="1" />
<rect x="60" y="77" width="60" height="5" style="fill:#5d3c2d;stroke:black;stroke-width:1;fill-opacity:1;stroke-opacity:0.3" />
<rect x="127" y="77" width="60" height="5" style="fill:#5d3c2d;stroke:black;stroke-width:1;fill-opacity:1;stroke-opacity:0.3" />
<line x1="120" y1="86" x2="125" y2="88" stroke="black" stroke-width="1" />
<line x1="125" y1="88" x2="131" y2="86" stroke="black" stroke-width="1" />
<rect x="60" y="84" width="60" height="5" style="fill:#5d3c2d;stroke:black;stroke-width:1;fill-opacity:1;stroke-opacity:0.3" />
<rect x="131" y="84" width="60" height="5" style="fill:#5d3c2d;stroke:black;stroke-width:1;fill-opacity:1;stroke-opacity:0.3" />
<line x1="150" y1="93" x2="159" y2="95" stroke="black" stroke-width="1" />
<line x1="159" y1="95" x2="169" y2="93" stroke="black" stroke-width="1" />
<rect x="60" y="91" width="90" height="5" style="fill:#5d3c2d;stroke:black;stroke-width:1;fill-opacity:1;stroke-opacity:0.3" />
<rect x="169" y="91" width="89" height="5" style="fill:#5d3c2d;stroke:black;stroke-width:1;fill-opacity:1;stroke-opacity:0.3" />
<line x1="121" y1="100" x2="135" y2="102" stroke="black" stroke-width="1" />
<line x1="135" y1="102" x2="150" y2="100" stroke="black" stroke-width="1" />
<rect x="61" y="98" width="60" height="5" style="fill:#5d3c2d;stroke:black;stroke-width:1;fill-opacity:1;stroke-opacity:0.3" />
<rect x="150" y="98" width="60" height="5" style="fill:#5d3c2d;stroke:black;stroke-width:1;fill-opacity:1;stroke-opacity:0.3" />
<line x1="151" y1="107" x2="159" y2="109" stroke="black" stroke-width="1" />
<line x1="159" y1="109" x2="168" y2="107" stroke="black" stroke-width="1" />
<rect x="61" y="105" width="90" height="5" style="fill:#5d3c2d;stroke:black;stroke-width:1;fill-opacity:1;stroke-opacity:0.3" />
<rect x="168" y="105" width="89" height="5" style="fill:#5d3c2d;stroke:black;stroke-width:1;fill-opacity:1;stroke-opacity:0.3" />
<line x1="120" y1="114" x2="125" y2="116" stroke="black" stroke-width="1" />
<line x1="125" y1="116" x2="131" y2="114" stroke="black" stroke-width="1" />
<rect x="61" y="112" width="59" height="5" style="fill:#5d3c2d;stroke:black;stroke-width:1;fill-opacity:1;stroke-opacity:0.3" />
<rect x="131" y="112" width="60" height="5" style="fill:#5d3c2d;stroke:black;stroke-width:1;fill-opacity:1;stroke-opacity:0.3" />
<line x1="122" y1="121" x2="128" y2="123" stroke="black" stroke-width="1" />
<line x1="128" y1="123" x2="135" y2="121" stroke="black" stroke-width="1" />
<rect x="62" y="119" width="60" height="5" style="fill:#5d3c2d;stroke:black;stroke-width:1;fill-opacity:1;stroke-opacity:0.3" />
<rect x="135" y="119" width="60" height="5" style="fill:#5d3c2d;stroke:black;stroke-width:1;fill-opacity:1;stroke-opacity:0.3" />
<line x1="122" y1="128" x2="128" y2="130" stroke="black" stroke-width="1" />
<line x1="128" y1="130" x2="135" y2="128" stroke="black" stroke-width="1" />
<rect x="62" y="126" width="60" height="5" style="fill:#5d3c2d;stroke:black;stroke-width:1;fill-opacity:1;stroke-opacity:0.3" />
<rect x="135" y="126" width="60" height="5" style="fill:#5d3c2d;stroke:black;stroke-width:1;fill-opacity:1;stroke-opacity:0.3" />
<line x1="122" y1="135" x2="129" y2="137" stroke="black" stroke-width="1" />
<line x1="129" y1="137" x2="137" y2="135" stroke="black" stroke-width="1" />
<rect x="62" y="133" width="60" height="5" style="fill:#5d3c2d;stroke:black;stroke-width:1;fill-opacity:1;stroke-opacity:0.3" />
<rect x="137" y="133" width="60" height="5" style="fill:#5d3c2d;stroke:black;stroke-width:1;fill-opacity:1;stroke-opacity:0.3" />
<line x1="122" y1="142" x2="139" y2="144" stroke="black" stroke-width="1" />
<line x1="139" y1="144" x2="157" y2="142" stroke="black" stroke-width="1" />
<rect x="62" y="140" width="60" height="5" style="fill:#5d3c2d;stroke:black;stroke-width:1;fill-opacity:1;stroke-opacity:0.3" />
<rect x="157" y="140" width="59" height="5" style="fill:#5d3c2d;stroke:black;stroke-width:1;fill-opacity:1;stroke-opacity:0.3" />
<line x1="122" y1="149" x2="139" y2="151" stroke="black" stroke-width="1" />
<line x1="139" y1="151" x2="157" y2="149" stroke="black" stroke-width="1" />
<rect x="62" y="147" width="60" height="5" style="fill:#5d3c2d;stroke:black;stroke-width:1;fill-opacity:1;stroke-opacity:0.3" />
<rect x="157" y="147" width="59" height="5" style="fill:#5d3c2d;stroke:black;stroke-width:1;fill-opacity:1;stroke-opacity:0.3" />
<line x1="123" y1="156" x2="160" y2="158" stroke="black" stroke-width="1" />
<line x1="160" y1="158" x2="198" y2="156" stroke="black" stroke-width="1" />
<rect x="63" y="154" width="60" height="5" style="fill:#5d3c2d;stroke:black;stroke-width:1;fill-opacity:1;stroke-opacity:0.3" />
<rect x="198" y="154" width="60" height="5" style="fill:#5d3c2d;stroke:black;stroke-width:1;fill-opacity:1;stroke-opacity:0.3" />
<line x1="124" y1="163" x2="130" y2="165" stroke="black" stroke-width="1" />
<line x1="130" y1="165" x2="136" y2="163" stroke="black" stroke-width="1" />
<rect x="63" y="161" width="60" height="5" style="fill:#5d3c2d;stroke:black;stroke-width:1;fill-opacity:1;stroke-opacity:0.3" />
<rect x="136" y="161" width="60" height="5" style="fill:#5d3c2d;stroke:black;stroke-width:1;fill-opacity:1;stroke-opacity:0.3" />
<line x1="247" y1="44" x2="254" y2="46" stroke="black" stroke-width="1" />
<line x1="254" y1="46" x2="262" y2="44" stroke="black" stroke-width="1" />
<rect x="187" y="42" width="60" height="5" style="fill:#5d3c2d;stroke:black;stroke-width:1;fill-opacity:1;stroke-opacity:0.3" />
<rect x="262" y="42" width="60" height="5" style="fill:#5d3c2d;stroke:black;stroke-width:1;fill-opacity:1;stroke-opacity:0.3" />
<line x1="247" y1="79" x2="254" y2="81" stroke="black" stroke-width="1" />
<line x1="254" y1="81" x2="262" y2="79" stroke="black" stroke-width="1" />
<rect x="187" y="77" width="60" height="5" style="fill:#5d3c2d;stroke:black;stroke-width:1;fill-opacity:1;stroke-opacity:0.3" />
<rect x="262" y="77" width="60" height="5" style="fill:#5d3c2d;stroke:black;stroke-width:1;fill-opacity:1;stroke-opacity:0.3" />
<line x1="251" y1="65" x2="257" y2="67" stroke="black" stroke-width="1" />
<line x1="257" y1="67" x2="264" y2="65" stroke="black" stroke-width="1" />
<rect x="192" y="63" width="59" height="5" style="fill:#5d3c2d;stroke:black;stroke-width:1;fill-opacity:1;stroke-opacity:0.3" />
<rect x="264" y="63" width="60" height="5" style="fill:#5d3c2d;stroke:black;stroke-width:1;fill-opacity:1;stroke-opacity:0.3" />
<line x1="251" y1="86" x2="257" y2="88" stroke="black" stroke-width="1" />
<line x1="257" y1="88" x2="264" y2="86" stroke="black" stroke-width="1" />
<rect x="192" y="84" width="59" height="5" style="fill:#5d3c2d;stroke:black;stroke-width:1;fill-opacity:1;stroke-opacity:0.3" />
<rect x="264" y="84" width="60" height="5" style="fill:#5d3c2d;stroke:black;stroke-width:1;fill-opacity:1;stroke-opacity:0.3" />
<line x1="257" y1="30" x2="260" y2="32" stroke="black" stroke-width="1" />
<line x1="260" y1="32" x2="263" y2="30" stroke="black" stroke-width="1" />
<rect x="196" y="28" width="60" height="5" style="fill:#5d3c2d;stroke:black;stroke-width:1;fill-opacity:1;stroke-opacity:0.3" />
<rect x="263" y="28" width="59" height="5" style="fill:#5d3c2d;stroke:black;stroke-width:1;fill-opacity:1;stroke-opacity:0.3" />
<line x1="257" y1="37" x2="260" y2="39" stroke="black" stroke-width="1" />
<line x1="260" y1="39" x2="264" y2="37" stroke="black" stroke-width="1" />
<rect x="197" y="35" width="60" height="5" style="fill:#5d3c2d;stroke:black;stroke-width:1;fill-opacity:1;stroke-opacity:0.3" />
<rect x="264" y="35" width="60" height="5" style="fill:#5d3c2d;stroke:black;stroke-width:1;fill-opacity:1;stroke-opacity:0.3" />
<line x1="257" y1="114" x2="261" y2="116" stroke="black" stroke-width="1" />
<line x1="261" y1="116" x2="265" y2="114" stroke="black" stroke-width="1" />
<rect x="197" y="112" width="60" height="5" style="fill:#5d3c2d;stroke:black;stroke-width:1;fill-opacity:1;stroke-opacity:0.3" />
<rect x="265" y="112" width="60" height="5" style="fill:#5d3c2d;stroke:black;stroke-width:1;fill-opacity:1;stroke-opacity:0.3" />
<line x1="258" y1="121" x2="269" y2="123" stroke="black" stroke-width="1" />
<line x1="269" y1="123" x2="281" y2="121" stroke="black" stroke-width="1" />
<rect x="198" y="119" width="60" height="5" style="fill:#5d3c2d;stroke:black;stroke-width:1;fill-opacity:1;stroke-opacity:0.3" />
<rect x="281" y="119" width="60" height="5" style="fill:#5d3c2d;stroke:black;stroke-width:1;fill-opacity:1;stroke-opacity:0.3" />
<line x1="258" y1="128" x2="261" y2="130" stroke="black" stroke-width="1" />
<line x1="261" y1="130" x2="264" y2="128" stroke="black" stroke-width="1" />
<rect x="198" y="126" width="60" height="5" style="fill:#5d3c2d;stroke:black;stroke-width:1;fill-opacity:1;stroke-opacity:0.3" />
<rect x="264" y="126" width="60" height="5" style="fill:#5d3c2d;stroke:black;stroke-width:1;fill-opacity:1;stroke-opacity:0.3" />
<line x1="258" y1="135" x2="261" y2="137" stroke="black" stroke-width="1" />
<line x1="261" y1="137" x2="265" y2="135" stroke="black" stroke-width="1" />
<rect x="198" y="133" width="60" height="5" style="fill:#5d3c2d;stroke:black;stroke-width:1;fill-opacity:1;stroke-opacity:0.3" />
<rect x="265" y="133" width="60" height="5" style="fill:#5d3c2d;stroke:black;stroke-width:1;fill-opacity:1;stroke-opacity:0.3" />
<line x1="259" y1="163" x2="268" y2="165" stroke="black" stroke-width="1" />
<line x1="268" y1="165" x2="277" y2="163" stroke="black" stroke-width="1" />
<rect x="199" y="161" width="60" height="5" style="fill:#5d3c2d;stroke:black;stroke-width:1;fill-opacity:1;stroke-opacity:0.3" />
<rect x="277" y="161" width="60" height="5" style="fill:#5d3c2d;stroke:black;stroke-width:1;fill-opacity:1;stroke-opacity:0.3" />
<line x1="274" y1="51" x2="294" y2="53" stroke="black" stroke-width="1" />
<line x1="294" y1="53" x2="315" y2="51" stroke="black" stroke-width="1" />
<rect x="213" y="49" width="60" height="5" style="fill:#5d3c2d;stroke:black;stroke-width:1;fill-opacity:1;stroke-opacity:0.3" />
<rect x="315" y="49" width="60" height="5" style="fill:#5d3c2d;stroke:black;stroke-width:1;fill-opacity:1;stroke-opacity:0.3" />
<line x1="274" y1="100" x2="282" y2="102" stroke="black" stroke-width="1" />
<line x1="282" y1="102" x2="290" y2="100" stroke="black" stroke-width="1" />
<rect x="213" y="98" width="60" height="5" style="fill:#5d3c2d;stroke:black;stroke-width:1;fill-opacity:1;stroke-opacity:0.3" />
<rect x="290" y="98" width="60" height="5" style="fill:#5d3c2d;stroke:black;stroke-width:1;fill-opacity:1;stroke-opacity:0.3" />
<line x1="277" y1="142" x2="309" y2="144" stroke="black" stroke-width="1" />
<line x1="309" y1="144" x2="341" y2="142" stroke="black" stroke-width="1" />
<rect x="217" y="140" width="60" height="5" style="fill:#5d3c2d;stroke:black;stroke-width:1;fill-opacity:1;stroke-opacity:0.3" />
<rect x="341" y="140" width="60" height="5" style="fill:#5d3c2d;stroke:black;stroke-width:1;fill-opacity:1;stroke-opacity:0.3" />
<line x1="282" y1="149" x2="287" y2="151" stroke="black" stroke-width="1" />
<line x1="287" y1="151" x2="292" y2="149" stroke="black" stroke-width="1" />
<rect x="222" y="147" width="60" height="5" style="fill:#5d3c2d;stroke:black;stroke-width:1;fill-opacity:1;stroke-opacity:0.3" />
<rect x="292" y="147" width="58" height="5" style="fill:#5d3c2d;stroke:black;stroke-width:1;fill-opacity:1;stroke-opacity:0.3" />
<line x1="316" y1="72" x2="322" y2="74" stroke="black" stroke-width="1" />
<line x1="322" y1="74" x2="329" y2="72" stroke="black" stroke-width="1" />
<rect x="256" y="70" width="60" height="5" style="fill:#5d3c2d;stroke:black;stroke-width:1;fill-opacity:1;stroke-opacity:0.3" />
<rect x="329" y="70" width="60" height="5" style="fill:#5d3c2d;stroke:black;stroke-width:1;fill-opacity:1;stroke-opacity:0.3" />
<line x1="318" y1="107" x2="321" y2="109" stroke="black" stroke-width="1" />
<line x1="321" y1="109" x2="324" y2="107" stroke="black" stroke-width="1" />
<rect x="258" y="105" width="60" height="5" style="fill:#5d3c2d;stroke:black;stroke-width:1;fill-opacity:1;stroke-opacity:0.3" />
<rect x="324" y="105" width="60" height="5" style="fill:#5d3c2d;stroke:black;stroke-width:1;fill-opacity:1;stroke-opacity:0.3" />
<line x1="318" y1="156" x2="331" y2="158" stroke="black" stroke-width="1" />
<line x1="331" y1="158" x2="345" y2="156" stroke="black" stroke-width="1" />
<rect x="258" y="154" width="60" height="5" style="fill:#5d3c2d;stroke:black;stroke-width:1;fill-opacity:1;stroke-opacity:0.3" />
<rect x="345" y="154" width="60" height="5" style="fill:#5d3c2d;stroke:black;stroke-width:1;fill-opacity:1;stroke-opacity:0.3" />
<line x1="319" y1="93" x2="340" y2="95" stroke="black" stroke-width="1" />
<line x1="340" y1="95" x2="362" y2="93" stroke="black" stroke-width="1" />
<rect x="259" y="91" width="60" height="5" style="fill:#5d3c2d;stroke:black;stroke-width:1;fill-opacity:1;stroke-opacity:0.3" />
<rect x="362" y="91" width="60" height="5" style="fill:#5d3c2d;stroke:black;stroke-width:1;fill-opacity:1;stroke-opacity:0.3" />
<line x1="393" y1="58" x2="407" y2="60" stroke="black" stroke-width="1" />
<line x1="407" y1="60" x2="421" y2="58" stroke="black" stroke-width="1" />
<rect x="303" y="56" width="90" height="5" style="fill:#5d3c2d;stroke:black;stroke-width:1;fill-opacity:1;stroke-opacity:0.3" />
<rect x="421" y="56" width="90" height="5" style="fill:#5d3c2d;stroke:black;stroke-width:1;fill-opacity:1;stroke-opacity:0.3" />
<line x1="412" y1="30" x2="416" y2="32" stroke="black" stroke-width="1" />
<line x1="416" y1="32" x2="421" y2="30" stroke="black" stroke-width="1" />
<rect x="322" y="28" width="90" height="5" style="fill:#5d3c2d;stroke:black;stroke-width:1;fill-opacity:1;stroke-opacity:0.3" />
<rect x="421" y="28" width="89" height="5" style="fill:#5d3c2d;stroke:black;stroke-width:1;fill-opacity:1;stroke-opacity:0.3" />
<line x1="383" y1="44" x2="389" y2="46" stroke="black" stroke-width="1" />
<line x1="389" y1="46" x2="395" y2="44" stroke="black" stroke-width="1" />
<rect x="322" y="42" width="60" height="5" style="fill:#5d3c2d;stroke:black;stroke-width:1;fill-opacity:1;stroke-opacity:0.3" />
<rect x="395" y="42" width="60" height="5" style="fill:#5d3c2d;stroke:black;stroke-width:1;fill-opacity:1;stroke-opacity:0.3" />
<line x1="383" y1="79" x2="391" y2="81" stroke="black" stroke-width="1" />
<line x1="391" y1="81" x2="399" y2="79" stroke="black" stroke-width="1" />
<rect x="322" y="77" width="60" height="5" style="fill:#f5b024;stroke:black;stroke-width:1;fill-opacity:1;stroke-opacity:0.3" />
<rect x="399" y="77" width="59" height="5" style="fill:#f5b024;stroke:black;stroke-width:1;fill-opacity:1;stroke-opacity:0.3" />
<line x1="384" y1="37" x2="416" y2="39" stroke="black" stroke-width="1" />
<line x1="416" y1="39" x2="449" y2="37" stroke="black" stroke-width="1" />
<rect x="324" y="35" width="60" height="5" style="fill:#5d3c2d;stroke:black;stroke-width:1;fill-opacity:1;stroke-opacity:0.3" />
<rect x="449" y="35" width="60" height="5" style="fill:#5d3c2d;stroke:black;stroke-width:1;fill-opacity:1;stroke-opacity:0.3" />
<line x1="384" y1="65" x2="405" y2="67" stroke="black" stroke-width="1" />
<line x1="405" y1="67" x2="427" y2="65" stroke="black" stroke-width="1" />
<rect x="324" y="63" width="60" height="5" style="fill:#5d3c2d;stroke:black;stroke-width:1;fill-opacity:1;stroke-opacity:0.3" />
<rect x="427" y="63" width="60" height="5" style="fill:#5d3c2d;stroke:black;stroke-width:1;fill-opacity:1;stroke-opacity:0.3" />
<line x1="385" y1="86" x2="403" y2="88" stroke="black" stroke-width="1" />
<line x1="403" y1="88" x2="422" y2="86" stroke="black" stroke-width="1" />
<rect x="325" y="84" width="60" height="5" style="fill:#5d3c2d;stroke:black;stroke-width:1;fill-opacity:1;stroke-opacity:0.3" />
<rect x="422" y="84" width="60" height="5" style="fill:#5d3c2d;stroke:black;stroke-width:1;fill-opacity:1;stroke-opacity:0.3" />
<line x1="390" y1="114" x2="406" y2="116" stroke="black" stroke-width="1" />
<line x1="406" y1="116" x2="422" y2="114" stroke="black" stroke-width="1" />
<rect x="330" y="112" width="60" height="5" style="fill:#f5b024;stroke:black;stroke-width:1;fill-opacity:1;stroke-opacity:0.3" />
<rect x="422" y="112" width="60" height="5" style="fill:#f5b024;stroke:black;stroke-width:1;fill-opacity:1;stroke-opacity:0.3" />
<line x1="390" y1="128" x2="454" y2="130" stroke="black" stroke-width="1" />
<line x1="454" y1="130" x2="519" y2="128" stroke="black" stroke-width="1" />
<rect x="330" y="126" width="60" height="5" style="fill:#5d3c2d;stroke:black;stroke-width:1;fill-opacity:1;stroke-opacity:0.3" />
<rect x="519" y="126" width="60" height="5" style="fill:#5d3c2d;stroke:black;stroke-width:1;fill-opacity:1;stroke-opacity:0.3" />
<line x1="390" y1="135" x2="423" y2="137" stroke="black" stroke-width="1" />
<line x1="423" y1="137" x2="457" y2="135" stroke="black" stroke-width="1" />
<rect x="330" y="133" width="60" height="5" style="fill:#5d3c2d;stroke:black;stroke-width:1;fill-opacity:1;stroke-opacity:0.3" />
<rect x="457" y="133" width="60" height="5" style="fill:#5d3c2d;stroke:black;stroke-width:1;fill-opacity:1;stroke-opacity:0.3" />
<line x1="398" y1="163" x2="413" y2="165" stroke="black" stroke-width="1" />
<line x1="413" y1="165" x2="429" y2="163" stroke="black" stroke-width="1" />
<rect x="338" y="161" width="60" height="5" style="fill:#5d3c2d;stroke:black;stroke-width:1;fill-opacity:1;stroke-opacity:0.3" />
<rect x="429" y="161" width="59" height="5" style="fill:#5d3c2d;stroke:black;stroke-width:1;fill-opacity:1;stroke-opacity:0.3" />
<line x1="403" y1="121" x2="429" y2="123" stroke="black" stroke-width="1" />
<line x1="429" y1="123" x2="456" y2="121" stroke="black" stroke-width="1" />
<rect x="342" y="119" width="60" height="5" style="fill:#5d3c2d;stroke:black;stroke-width:1;fill-opacity:1;stroke-opacity:0.3" />
<rect x="456" y="119" width="59" height="5" style="fill:#5d3c2d;stroke:black;stroke-width:1;fill-opacity:1;stroke-opacity:0.3" />
<line x1="411" y1="100" x2="431" y2="102" stroke="black" stroke-width="1" />
<line x1="431" y1="102" x2="451" y2="100" stroke="black" stroke-width="1" />
<rect x="351" y="98" width="60" height="5" style="fill:#5d3c2d;stroke:black;stroke-width:1;fill-opacity:1;stroke-opacity:0.3" />
<rect x="451" y="98" width="60" height="5" style="fill:#5d3c2d;stroke:black;stroke-width:1;fill-opacity:1;stroke-opacity:0.3" />
<line x1="412" y1="149" x2="416" y2="151" stroke="black" stroke-width="1" />
<line x1="416" y1="151" x2="421" y2="149" stroke="black" stroke-width="1" />
<rect x="351" y="147" width="60" height="5" style="fill:#5d3c2d;stroke:black;stroke-width:1;fill-opacity:1;stroke-opacity:0.3" />
<rect x="421" y="147" width="60" height="5" style="fill:#5d3c2d;stroke:black;stroke-width:1;fill-opacity:1;stroke-opacity:0.3" />
<line x1="437" y1="51" x2="444" y2="53" stroke="black" stroke-width="1" />
<line x1="444" y1="53" x2="451" y2="51" stroke="black" stroke-width="1" />
<rect x="377" y="49" width="60" height="5" style="fill:#5d3c2d;stroke:black;stroke-width:1;fill-opacity:1;stroke-opacity:0.3" />
<rect x="451" y="49" width="60" height="5" style="fill:#5d3c2d;stroke:black;stroke-width:1;fill-opacity:1;stroke-opacity:0.3" />
<line x1="445" y1="107" x2="448" y2="109" stroke="black" stroke-width="1" />
<line x1="448" y1="109" x2="452" y2="107" stroke="black" stroke-width="1" />
<rect x="384" y="105" width="60" height="5" style="fill:#f5b024;stroke:black;stroke-width:1;fill-opacity:1;stroke-opacity:0.3" />
<rect x="452" y="105" width="59" height="5" style="fill:#f5b024;stroke:black;stroke-width:1;fill-opacity:1;stroke-opacity:0.3" />
<line x1="480" y1="72" x2="485" y2="74" stroke="black" stroke-width="1" />
<line x1="485" y1="74" x2="491" y2="72" stroke="black" stroke-width="1" />
<rect x="389" y="70" width="90" height="5" style="fill:#5d3c2d;stroke:black;stroke-width:1;fill-opacity:1;stroke-opacity:0.3" />
<rect x="491" y="70" width="90" height="5" style="fill:#5d3c2d;stroke:black;stroke-width:1;fill-opacity:1;stroke-opacity:0.3" />
<line x1="462" y1="142" x2="490" y2="144" stroke="black" stroke-width="1" />
<line x1="490" y1="144" x2="519" y2="142" stroke="black" stroke-width="1" />
<rect x="402" y="140" width="60" height="5" style="fill:#5d3c2d;stroke:black;stroke-width:1;fill-opacity:1;stroke-opacity:0.3" />
<rect x="519" y="140" width="60" height="5" style="fill:#5d3c2d;stroke:black;stroke-width:1;fill-opacity:1;stroke-opacity:0.3" />
<line x1="466" y1="156" x2="495" y2="158" stroke="black" stroke-width="1" />
<line x1="495" y1="158" x2="525" y2="156" stroke="black" stroke-width="1" />
<rect x="406" y="154" width="60" height="5" style="fill:#5d3c2d;stroke:black;stroke-width:1;fill-opacity:1;stroke-opacity:0.3" />
<rect x="525" y="154" width="60" height="5" style="fill:#5d3c2d;stroke:black;stroke-width:1;fill-opacity:1;stroke-opacity:0.3" />
<line x1="483" y1="93" x2="493" y2="95" stroke="black" stroke-width="1" />
<line x1="493" y1="95" x2="504" y2="93" stroke="black" stroke-width="1" />
<rect x="422" y="91" width="60" height="5" style="fill:#5d3c2d;stroke:black;stroke-width:1;fill-opacity:1;stroke-opacity:0.3" />
<rect x="504" y="91" width="60" height="5" style="fill:#5d3c2d;stroke:black;stroke-width:1;fill-opacity:1;stroke-opacity:0.3" />
<line x1="515" y1="44" x2="518" y2="46" stroke="black" stroke-width="1" />
<line x1="518" y1="46" x2="522" y2="44" stroke="black" stroke-width="1" />
<rect x="455" y="42" width="60" height="5" style="fill:#5d3c2d;stroke:black;stroke-width:1;fill-opacity:1;stroke-opacity:0.3" />
<rect x="522" y="42" width="59" height="5" style="fill:#5d3c2d;stroke:black;stroke-width:1;fill-opacity:1;stroke-opacity:0.3" />
<line x1="518" y1="79" x2="522" y2="81" stroke="black" stroke-width="1" />
<line x1="522" y1="81" x2="526" y2="79" stroke="black" stroke-width="1" />
<rect x="458" y="77" width="60" height="5" style="fill:#5d3c2d;stroke:black;stroke-width:1;fill-opacity:1;stroke-opacity:0.3" />
<rect x="526" y="77" width="60" height="5" style="fill:#5d3c2d;stroke:black;stroke-width:1;fill-opacity:1;stroke-opacity:0.3" />
<line x1="541" y1="149" x2="562" y2="151" stroke="black" stroke-width="1" />
<line x1="562" y1="151" x2="583" y2="149" stroke="black" stroke-width="1" />
<rect x="481" y="147" width="60" height="5" style="fill:#5d3c2d;stroke:black;stroke-width:1;fill-opacity:1;stroke-opacity:0.3" />
<rect x="583" y="147" width="58" height="5" style="fill:#5d3c2d;stroke:black;stroke-width:1;fill-opacity:1;stroke-opacity:0.3" />
<line x1="543" y1="86" x2="551" y2="88" stroke="black" stroke-width="1" />
<line x1="551" y1="88" x2="559" y2="86" stroke="black" stroke-width="1" />
<rect x="483" y="84" width="60" height="5" style="fill:#5d3c2d;stroke:black;stroke-width:1;fill-opacity:1;stroke-opacity:0.3" />
<rect x="559" y="84" width="59" height="5" style="fill:#5d3c2d;stroke:black;stroke-width:1;fill-opacity:1;stroke-opacity:0.3" />
<line x1="574" y1="114" x2="587" y2="116" stroke="black" stroke-width="1" />
<line x1="587" y1="116" x2="601" y2="114" stroke="black" stroke-width="1" />
<rect x="485" y="112" width="88" height="5" style="fill:#5d3c2d;stroke:black;stroke-width:1;fill-opacity:1;stroke-opacity:0.3" />
<rect x="601" y="112" width="90" height="5" style="fill:#5d3c2d;stroke:black;stroke-width:1;fill-opacity:1;stroke-opacity:0.3" />
<line x1="578" y1="65" x2="583" y2="67" stroke="black" stroke-width="1" />
<line x1="583" y1="67" x2="589" y2="65" stroke="black" stroke-width="1" />
<rect x="487" y="63" width="90" height="5" style="fill:#5d3c2d;stroke:black;stroke-width:1;fill-opacity:1;stroke-opacity:0.3" />
<rect x="589" y="63" width="81" height="5" style="fill:#5d3c2d;stroke:black;stroke-width:1;fill-opacity:1;stroke-opacity:0.3" />
<line x1="561" y1="163" x2="585" y2="165" stroke="black" stroke-width="1" />
<line x1="585" y1="165" x2="610" y2="163" stroke="black" stroke-width="1" />
<rect x="501" y="161" width="60" height="5" style="fill:#5d3c2d;stroke:black;stroke-width:1;fill-opacity:1;stroke-opacity:0.3" />
<rect x="610" y="161" width="60" height="5" style="fill:#5d3c2d;stroke:black;stroke-width:1;fill-opacity:1;stroke-opacity:0.3" />
<line x1="571" y1="30" x2="601" y2="32" stroke="black" stroke-width="1" />
<line x1="601" y1="32" x2="631" y2="30" stroke="black" stroke-width="1" />
<rect x="511" y="28" width="60" height="5" style="fill:#5d3c2d;stroke:black;stroke-width:1;fill-opacity:1;stroke-opacity:0.3" />
<rect x="631" y="28" width="60" height="5" style="fill:#5d3c2d;stroke:black;stroke-width:1;fill-opacity:1;stroke-opacity:0.3" />
<line x1="572" y1="37" x2="576" y2="39" stroke="black" stroke-width="1" />
<line x1="576" y1="39" x2="581" y2="37" stroke="black" stroke-width="1" />
<rect x="512" y="35" width="60" height="5" style="fill:#5d3c2d;stroke:black;stroke-width:1;fill-opacity:1;stroke-opacity:0.3" />
<rect x="581" y="35" width="59" height="5" style="fill:#5d3c2d;stroke:black;stroke-width:1;fill-opacity:1;stroke-opacity:0.3" />
<line x1="572" y1="51" x2="590" y2="53" stroke="black" stroke-width="1" />
<line x1="590" y1="53" x2="609" y2="51" stroke="black" stroke-width="1" />
<rect x="512" y="49" width="60" height="5" style="fill:#5d3c2d;stroke:black;stroke-width:1;fill-opacity:1;stroke-opacity:0.3" />
<rect x="609" y="49" width="60" height="5" style="fill:#5d3c2d;stroke:black;stroke-width:1;fill-opacity:1;stroke-opacity:0.3" />
<line x1="578" y1="58" x2="583" y2="60" stroke="black" stroke-width="1" />
<line x1="583" y1="60" x2="589" y2="58" stroke="black" stroke-width="1" />
<rect x="518" y="56" width="60" height="5" style="fill:#5d3c2d;stroke:black;stroke-width:1;fill-opacity:1;stroke-opacity:0.3" />
<rect x="589" y="56" width="51" height="5" style="fill:#5d3c2d;stroke:black;stroke-width:1;fill-opacity:1;stroke-opacity:0.3" />
<line x1="611" y1="100" x2="617" y2="102" stroke="black" stroke-width="1" />
<line x1="617" y1="102" x2="624" y2="100" stroke="black" stroke-width="1" />
<rect x="521" y="98" width="90" height="5" style="fill:#5d3c2d;stroke:black;stroke-width:1;fill-opacity:1;stroke-opacity:0.3" />
<rect x="624" y="98" width="90" height="5" style="fill:#5d3c2d;stroke:black;stroke-width:1;fill-opacity:1;stroke-opacity:0.3" />
<line x1="606" y1="107" x2="617" y2="109" stroke="black" stroke-width="1" />
<line x1="617" y1="109" x2="629" y2="107" stroke="black" stroke-width="1" />
<rect x="524" y="105" width="81" height="5" style="fill:#5d3c2d;stroke:black;stroke-width:1;fill-opacity:1;stroke-opacity:0.3" />
<rect x="629" y="105" width="90" height="5" style="fill:#5d3c2d;stroke:black;stroke-width:1;fill-opacity:1;stroke-opacity:0.3" />
<line x1="585" y1="121" x2="602" y2="123" stroke="black" stroke-width="1" />
<line x1="602" y1="123" x2="619" y2="121" stroke="black" stroke-width="1" />
<rect x="525" y="119" width="60" height="5" style="fill:#5d3c2d;stroke:black;stroke-width:1;fill-opacity:1;stroke-opacity:0.3" />
<rect x="619" y="119" width="60" height="5" style="fill:#5d3c2d;stroke:black;stroke-width:1;fill-opacity:1;stroke-opacity:0.3" />
<line x1="585" y1="135" x2="601" y2="137" stroke="black" stroke-width="1" />
<line x1="601" y1="137" x2="618" y2="135" stroke="black" stroke-width="1" />
<rect x="525" y="133" width="60" height="5" style="fill:#5d3c2d;stroke:black;stroke-width:1;fill-opacity:1;stroke-opacity:0.3" />
<rect x="618" y="133" width="60" height="5" style="fill:#5d3c2d;stroke:black;stroke-width:1;fill-opacity:1;stroke-opacity:0.3" />
<line x1="626" y1="93" x2="640" y2="95" stroke="black" stroke-width="1" />
<line x1="640" y1="95" x2="654" y2="93" stroke="black" stroke-width="1" />
<rect x="566" y="91" width="60" height="5" style="fill:#5d3c2d;stroke:black;stroke-width:1;fill-opacity:1;stroke-opacity:0.3" />
<rect x="654" y="91" width="60" height="5" style="fill:#5d3c2d;stroke:black;stroke-width:1;fill-opacity:1;stroke-opacity:0.3" />
<line x1="639" y1="128" x2="649" y2="130" stroke="black" stroke-width="1" />
<line x1="649" y1="130" x2="660" y2="128" stroke="black" stroke-width="1" />
<rect x="580" y="126" width="59" height="5" style="fill:#f5b024;stroke:black;stroke-width:1;fill-opacity:1;stroke-opacity:0.3" />
<rect x="660" y="126" width="60" height="5" style="fill:#f5b024;stroke:black;stroke-width:1;fill-opacity:1;stroke-opacity:0.3" />
<line x1="642" y1="44" x2="651" y2="46" stroke="black" stroke-width="1" />
<line x1="651" y1="46" x2="660" y2="44" stroke="black" stroke-width="1" />
<rect x="582" y="42" width="60" height="5" style="fill:#5d3c2d;stroke:black;stroke-width:1;fill-opacity:1;stroke-opacity:0.3" />
<rect x="660" y="42" width="60" height="5" style="fill:#5d3c2d;stroke:black;stroke-width:1;fill-opacity:1;stroke-opacity:0.3" />
<line x1="639" y1="72" x2="643" y2="74" stroke="black" stroke-width="1" />
<line x1="643" y1="74" x2="647" y2="72" stroke="black" stroke-width="1" />
<rect x="582" y="70" width="57" height="5" style="fill:#5d3c2d;stroke:black;stroke-width:1;fill-opacity:1;stroke-opacity:0.3" />
<rect x="647" y="70" width="60" height="5" style="fill:#5d3c2d;stroke:black;stroke-width:1;fill-opacity:1;stroke-opacity:0.3" />
<line x1="643" y1="142" x2="651" y2="144" stroke="black" stroke-width="1" />
<line x1="651" y1="144" x2="659" y2="142" stroke="black" stroke-width="1" />
<rect x="583" y="140" width="60" height="5" style="fill:#5d3c2d;stroke:black;stroke-width:1;fill-opacity:1;stroke-opacity:0.3" />
<rect x="659" y="140" width="60" height="5" style="fill:#5d3c2d;stroke:black;stroke-width:1;fill-opacity:1;stroke-opacity:0.3" />
<line x1="647" y1="79" x2="679" y2="81" stroke="black" stroke-width="1" />
<line x1="679" y1="81" x2="711" y2="79" stroke="black" stroke-width="1" />
<rect x="587" y="77" width="60" height="5" style="fill:#5d3c2d;stroke:black;stroke-width:1;fill-opacity:1;stroke-opacity:0.3" />
<rect x="711" y="77" width="60" height="5" style="fill:#5d3c2d;stroke:black;stroke-width:1;fill-opacity:1;stroke-opacity:0.3" />
<line x1="648" y1="156" x2="654" y2="158" stroke="black" stroke-width="1" />
<line x1="654" y1="158" x2="661" y2="156" stroke="black" stroke-width="1" />
<rect x="588" y="154" width="60" height="5" style="fill:#5d3c2d;stroke:black;stroke-width:1;fill-opacity:1;stroke-opacity:0.3" />
<rect x="661" y="154" width="59" height="5" style="fill:#5d3c2d;stroke:black;stroke-width:1;fill-opacity:1;stroke-opacity:0.3" />
<line x1="679" y1="86" x2="693" y2="88" stroke="black" stroke-width="1" />
<line x1="693" y1="88" x2="708" y2="86" stroke="black" stroke-width="1" />
<rect x="619" y="84" width="60" height="5" style="fill:#5d3c2d;stroke:black;stroke-width:1;fill-opacity:1;stroke-opacity:0.3" />
<rect x="708" y="84" width="60" height="5" style="fill:#5d3c2d;stroke:black;stroke-width:1;fill-opacity:1;stroke-opacity:0.3" />
<line x1="733" y1="37" x2="746" y2="39" stroke="black" stroke-width="1" />
<line x1="746" y1="39" x2="760" y2="37" stroke="black" stroke-width="1" />
<rect x="642" y="35" width="90" height="5" style="fill:#5d3c2d;stroke:black;stroke-width:1;fill-opacity:1;stroke-opacity:0.3" />
<rect x="760" y="35" width="84" height="5" style="fill:#5d3c2d;stroke:black;stroke-width:1;fill-opacity:1;stroke-opacity:0.3" />
<line x1="703" y1="58" x2="712" y2="60" stroke="black" stroke-width="1" />
<line x1="712" y1="60" x2="721" y2="58" stroke="black" stroke-width="1" />
<rect x="642" y="56" width="60" height="5" style="fill:#5d3c2d;stroke:black;stroke-width:1;fill-opacity:1;stroke-opacity:0.3" />
<rect x="721" y="56" width="60" height="5" style="fill:#5d3c2d;stroke:black;stroke-width:1;fill-opacity:1;stroke-opacity:0.3" />
<line x1="703" y1="149" x2="712" y2="151" stroke="black" stroke-width="1" />
<line x1="712" y1="151" x2="722" y2="149" stroke="black" stroke-width="1" />
<rect x="643" y="147" width="59" height="5" style="fill:#5d3c2d;stroke:black;stroke-width:1;fill-opacity:1;stroke-opacity:0.3" />
<rect x="722" y="147" width="60" height="5" style="fill:#5d3c2d;stroke:black;stroke-width:1;fill-opacity:1;stroke-opacity:0.3" />
<line x1="729" y1="51" x2="738" y2="53" stroke="black" stroke-width="1" />
<line x1="738" y1="53" x2="748" y2="51" stroke="black" stroke-width="1" />
<rect x="669" y="49" width="60" height="5" style="fill:#5d3c2d;stroke:black;stroke-width:1;fill-opacity:1;stroke-opacity:0.3" />
<rect x="748" y="49" width="59" height="5" style="fill:#5d3c2d;stroke:black;stroke-width:1;fill-opacity:1;stroke-opacity:0.3" />
<line x1="731" y1="65" x2="747" y2="67" stroke="black" stroke-width="1" />
<line x1="747" y1="67" x2="763" y2="65" stroke="black" stroke-width="1" />
<rect x="671" y="63" width="60" height="5" style="fill:#5d3c2d;stroke:black;stroke-width:1;fill-opacity:1;stroke-opacity:0.3" />
<rect x="763" y="63" width="60" height="5" style="fill:#5d3c2d;stroke:black;stroke-width:1;fill-opacity:1;stroke-opacity:0.3" />
<line x1="731" y1="163" x2="743" y2="165" stroke="black" stroke-width="1" />
<line x1="743" y1="165" x2="756" y2="163" stroke="black" stroke-width="1" />
<rect x="671" y="161" width="60" height="5" style="fill:#5d3c2d;stroke:black;stroke-width:1;fill-opacity:1;stroke-opacity:0.3" />
<rect x="756" y="161" width="60" height="5" style="fill:#5d3c2d;stroke:black;stroke-width:1;fill-opacity:1;stroke-opacity:0.3" />
<line x1="739" y1="135" x2="755" y2="137" stroke="black" stroke-width="1" />
<line x1="755" y1="137" x2="771" y2="135" stroke="black" stroke-width="1" />
<rect x="678" y="133" width="60" height="5" style="fill:#5d3c2d;stroke:black;stroke-width:1;fill-opacity:1;stroke-opacity:0.3" />
<rect x="771" y="133" width="59" height="5" style="fill:#5d3c2d;stroke:black;stroke-width:1;fill-opacity:1;stroke-opacity:0.3" />
<line x1="740" y1="121" x2="743" y2="123" stroke="black" stroke-width="1" />
<line x1="743" y1="123" x2="747" y2="121" stroke="black" stroke-width="1" />
<rect x="680" y="119" width="60" height="5" style="fill:#5d3c2d;stroke:black;stroke-width:1;fill-opacity:1;stroke-opacity:0.3" />
<rect x="747" y="119" width="60" height="5" style="fill:#5d3c2d;stroke:black;stroke-width:1;fill-opacity:1;stroke-opacity:0.3" />
<line x1="751" y1="30" x2="760" y2="32" stroke="black" stroke-width="1" />
<line x1="760" y1="32" x2="770" y2="30" stroke="black" stroke-width="1" />
<rect x="691" y="28" width="60" height="5" style="fill:#5d3c2d;stroke:black;stroke-width:1;fill-opacity:1;stroke-opacity:0.3" />
<rect x="770" y="28" width="60" height="5" style="fill:#5d3c2d;stroke:black;stroke-width:1;fill-opacity:1;stroke-opacity:0.3" />
<line x1="751" y1="114" x2="757" y2="116" stroke="black" stroke-width="1" />
<line x1="757" y1="116" x2="763" y2="114" stroke="black" stroke-width="1" />
<rect x="691" y="112" width="60" height="5" style="fill:#5d3c2d;stroke:black;stroke-width:1;fill-opacity:1;stroke-opacity:0.3" />
<rect x="763" y="112" width="60" height="5" style="fill:#5d3c2d;stroke:black;stroke-width:1;fill-opacity:1;stroke-opacity:0.3" />
<line x1="768" y1="72" x2="774" y2="74" stroke="black" stroke-width="1" />
<line x1="774" y1="74" x2="780" y2="72" stroke="black" stroke-width="1" />
<rect x="708" y="70" width="59" height="5" style="fill:#f5b024;stroke:black;stroke-width:1;fill-opacity:1;stroke-opacity:0.3" />
<rect x="780" y="70" width="59" height="5" style="fill:#f5b024;stroke:black;stroke-width:1;fill-opacity:1;stroke-opacity:0.3" />
<line x1="775" y1="93" x2="781" y2="95" stroke="black" stroke-width="1" />
<line x1="781" y1="95" x2="788" y2="93" stroke="black" stroke-width="1" />
<rect x="715" y="91" width="60" height="5" style="fill:#5d3c2d;stroke:black;stroke-width:1;fill-opacity:1;stroke-opacity:0.3" />
<rect x="788" y="91" width="60" height="5" style="fill:#5d3c2d;stroke:black;stroke-width:1;fill-opacity:1;stroke-opacity:0.3" />
<line x1="775" y1="100" x2="816" y2="102" stroke="black" stroke-width="1" />
<line x1="816" y1="102" x2="857" y2="100" stroke="black" stroke-width="1" />
<rect x="715" y="98" width="60" height="5" style="fill:#5d3c2d;stroke:black;stroke-width:1;fill-opacity:1;stroke-opacity:0.3" />
<rect x="857" y="98" width="60" height="5" style="fill:#5d3c2d;stroke:black;stroke-width:1;fill-opacity:1;stroke-opacity:0.3" />
<line x1="769" y1="107" x2="778" y2="109" stroke="black" stroke-width="1" />
<line x1="778" y1="109" x2="788" y2="107" stroke="black" stroke-width="1" />
<rect x="719" y="105" width="49" height="5" style="fill:#f5b024;stroke:black;stroke-width:1;fill-opacity:1;stroke-opacity:0.3" />
<rect x="788" y="105" width="60" height="5" style="fill:#f5b024;stroke:black;stroke-width:1;fill-opacity:1;stroke-opacity:0.3" />
<line x1="780" y1="44" x2="817" y2="46" stroke="black" stroke-width="1" />
<line x1="817" y1="46" x2="855" y2="44" stroke="black" stroke-width="1" />
<rect x="720" y="42" width="60" height="5" style="fill:#5d3c2d;stroke:black;stroke-width:1;fill-opacity:1;stroke-opacity:0.3" />
<rect x="855" y="42" width="59" height="5" style="fill:#5d3c2d;stroke:black;stroke-width:1;fill-opacity:1;stroke-opacity:0.3" />
<line x1="770" y1="128" x2="778" y2="130" stroke="black" stroke-width="1" />
<line x1="778" y1="130" x2="787" y2="128" stroke="black" stroke-width="1" />
<rect x="720" y="126" width="50" height="5" style="fill:#5d3c2d;stroke:black;stroke-width:1;fill-opacity:1;stroke-opacity:0.3" />
<rect x="787" y="126" width="60" height="5" style="fill:#5d3c2d;stroke:black;stroke-width:1;fill-opacity:1;stroke-opacity:0.3" />
<line x1="780" y1="142" x2="783" y2="144" stroke="black" stroke-width="1" />
<line x1="783" y1="144" x2="787" y2="142" stroke="black" stroke-width="1" />
<rect x="720" y="140" width="60" height="5" style="fill:#5d3c2d;stroke:black;stroke-width:1;fill-opacity:1;stroke-opacity:0.3" />
<rect x="787" y="140" width="59" height="5" style="fill:#5d3c2d;stroke:black;stroke-width:1;fill-opacity:1;stroke-opacity:0.3" />
<line x1="781" y1="156" x2="784" y2="158" stroke="black" stroke-width="1" />
<line x1="784" y1="158" x2="787" y2="156" stroke="black" stroke-width="1" />
<rect x="721" y="154" width="60" height="5" style="fill:#5d3c2d;stroke:black;stroke-width:1;fill-opacity:1;stroke-opacity:0.3" />
<rect x="787" y="154" width="60" height="5" style="fill:#5d3c2d;stroke:black;stroke-width:1;fill-opacity:1;stroke-opacity:0.3" />
<line x1="828" y1="86" x2="847" y2="88" stroke="black" stroke-width="1" />
<line x1="847" y1="88" x2="866" y2="86" stroke="black" stroke-width="1" />
<rect x="768" y="84" width="60" height="5" style="fill:#5d3c2d;stroke:black;stroke-width:1;fill-opacity:1;stroke-opacity:0.3" />
<rect x="866" y="84" width="60" height="5" style="fill:#5d3c2d;stroke:black;stroke-width:1;fill-opacity:1;stroke-opacity:0.3" />
<line x1="832" y1="79" x2="844" y2="81" stroke="black" stroke-width="1" />
<line x1="844" y1="81" x2="857" y2="79" stroke="black" stroke-width="1" />
<rect x="772" y="77" width="60" height="5" style="fill:#5d3c2d;stroke:black;stroke-width:1;fill-opacity:1;stroke-opacity:0.3" />
<rect x="857" y="77" width="60" height="5" style="fill:#5d3c2d;stroke:black;stroke-width:1;fill-opacity:1;stroke-opacity:0.3" />
<line x1="842" y1="58" x2="854" y2="60" stroke="black" stroke-width="1" />
<line x1="854" y1="60" x2="866" y2="58" stroke="black" stroke-width="1" />
<rect x="781" y="56" width="60" height="5" style="fill:#5d3c2d;stroke:black;stroke-width:1;fill-opacity:1;stroke-opacity:0.3" />
<rect x="866" y="56" width="59" height="5" style="fill:#5d3c2d;stroke:black;stroke-width:1;fill-opacity:1;stroke-opacity:0.3" />
<line x1="842" y1="149" x2="853" y2="151" stroke="black" stroke-width="1" />
<line x1="853" y1="151" x2="865" y2="149" stroke="black" stroke-width="1" />
<rect x="782" y="147" width="60" height="5" style="fill:#5d3c2d;stroke:black;stroke-width:1;fill-opacity:1;stroke-opacity:0.3" />
<rect x="865" y="147" width="60" height="5" style="fill:#5d3c2d;stroke:black;stroke-width:1;fill-opacity:1;stroke-opacity:0.3" />
<line x1="871" y1="51" x2="875" y2="53" stroke="black" stroke-width="1" />
<line x1="875" y1="53" x2="880" y2="51" stroke="black" stroke-width="1" />
<rect x="810" y="49" width="60" height="5" style="fill:#5d3c2d;stroke:black;stroke-width:1;fill-opacity:1;stroke-opacity:0.3" />
<rect x="880" y="49" width="60" height="5" style="fill:#5d3c2d;stroke:black;stroke-width:1;fill-opacity:1;stroke-opacity:0.3" />
<line x1="872" y1="121" x2="876" y2="123" stroke="black" stroke-width="1" />
<line x1="876" y1="123" x2="881" y2="121" stroke="black" stroke-width="1" />
<rect x="812" y="119" width="60" height="5" style="fill:#5d3c2d;stroke:black;stroke-width:1;fill-opacity:1;stroke-opacity:0.3" />
<rect x="881" y="119" width="59" height="5" style="fill:#5d3c2d;stroke:black;stroke-width:1;fill-opacity:1;stroke-opacity:0.3" />
<line x1="877" y1="163" x2="880" y2="165" stroke="black" stroke-width="1" />
<line x1="880" y1="165" x2="883" y2="163" stroke="black" stroke-width="1" />
<rect x="816" y="161" width="60" height="5" style="fill:#5d3c2d;stroke:black;stroke-width:1;fill-opacity:1;stroke-opacity:0.3" />
<rect x="883" y="161" width="60" height="5" style="fill:#5d3c2d;stroke:black;stroke-width:1;fill-opacity:1;stroke-opacity:0.3" />
<text x="15"  y="176" style="font-family:Arial;font-size:10;stroke:black;fill:black;">all.merged.bam</text>
</svg>
    
