<?xml version="1.0" encoding="utf-8" standalone="no"?>
<!DOCTYPE svg PUBLIC "-//W3C//DTD SVG 1.1//EN"
  "http://www.w3.org/Graphics/SVG/1.1/DTD/svg11.dtd">
<svg height="1140" width="1000" version="1.1" viewBox="0 0 1000 1140" xmlns="http://www.w3.org/2000/svg" xmlns:xlink="http://www.w3.org/1999/xlink">
<line x1="23" y1="11" x2="975" y2="11" stroke="black" stroke-width="1" />
<rect x="23" y="9" width="616" height="5" style="fill:#f50002;stroke:black;stroke-width:1;fill-opacity:1;stroke-opacity:0.3" />
<rect x="640" y="9" width="75" height="5" style="fill:#53a1b5;stroke:black;stroke-width:1;fill-opacity:1;stroke-opacity:0.3" />
<rect x="715" y="9" width="43" height="5" style="fill:#f50002;stroke:black;stroke-width:1;fill-opacity:1;stroke-opacity:0.3" />
<rect x="847" y="9" width="128" height="5" style="fill:#f50002;stroke:black;stroke-width:1;fill-opacity:1;stroke-opacity:0.3" />
<text x="23"  y="23" style="font-family:Arial;font-size:10;stroke:black;fill:black;">Cre06.g254213.t1.1.v5.5 (-) chromosome_6:805723-809708</text>
<line x1="123" y1="30" x2="125" y2="32" stroke="black" stroke-width="1" />
<line x1="125" y1="32" x2="128" y2="30" stroke="black" stroke-width="1" />
<rect x="100" y="28" width="23" height="5" style="fill:#f5b024;stroke:black;stroke-width:1;fill-opacity:1;stroke-opacity:0.3" />
<rect x="128" y="28" width="23" height="5" style="fill:#f5b024;stroke:black;stroke-width:1;fill-opacity:1;stroke-opacity:0.3" />
<line x1="573" y1="30" x2="583" y2="32" stroke="black" stroke-width="1" />
<line x1="583" y1="32" x2="593" y2="30" stroke="black" stroke-width="1" />
<rect x="549" y="28" width="23" height="5" style="fill:#5d3c2d;stroke:black;stroke-width:1;fill-opacity:1;stroke-opacity:0.3" />
<rect x="593" y="28" width="23" height="5" style="fill:#5d3c2d;stroke:black;stroke-width:1;fill-opacity:1;stroke-opacity:0.3" />
<line x1="612" y1="37" x2="613" y2="39" stroke="black" stroke-width="1" />
<line x1="613" y1="39" x2="615" y2="37" stroke="black" stroke-width="1" />
<rect x="588" y="35" width="23" height="5" style="fill:#f5b024;stroke:black;stroke-width:1;fill-opacity:1;stroke-opacity:0.3" />
<rect x="615" y="35" width="23" height="5" style="fill:#f5b024;stroke:black;stroke-width:1;fill-opacity:1;stroke-opacity:0.3" />
<line x1="642" y1="44" x2="644" y2="46" stroke="black" stroke-width="1" />
<line x1="644" y1="46" x2="646" y2="44" stroke="black" stroke-width="1" />
<rect x="606" y="42" width="35" height="5" style="fill:#f5b024;stroke:black;stroke-width:1;fill-opacity:1;stroke-opacity:0.3" />
<rect x="646" y="42" width="35" height="5" style="fill:#f5b024;stroke:black;stroke-width:1;fill-opacity:1;stroke-opacity:0.3" />
<line x1="657" y1="30" x2="658" y2="32" stroke="black" stroke-width="1" />
<line x1="658" y1="32" x2="660" y2="30" stroke="black" stroke-width="1" />
<rect x="622" y="28" width="35" height="5" style="fill:#f5b024;stroke:black;stroke-width:1;fill-opacity:1;stroke-opacity:0.3" />
<rect x="660" y="28" width="34" height="5" style="fill:#f5b024;stroke:black;stroke-width:1;fill-opacity:1;stroke-opacity:0.3" />
<line x1="647" y1="51" x2="659" y2="53" stroke="black" stroke-width="1" />
<line x1="659" y1="53" x2="671" y2="51" stroke="black" stroke-width="1" />
<rect x="624" y="49" width="23" height="5" style="fill:#f5b024;stroke:black;stroke-width:1;fill-opacity:1;stroke-opacity:0.3" />
<rect x="671" y="49" width="23" height="5" style="fill:#f5b024;stroke:black;stroke-width:1;fill-opacity:1;stroke-opacity:0.3" />
<line x1="660" y1="58" x2="661" y2="60" stroke="black" stroke-width="1" />
<line x1="661" y1="60" x2="663" y2="58" stroke="black" stroke-width="1" />
<rect x="624" y="56" width="35" height="5" style="fill:#f5b024;stroke:black;stroke-width:1;fill-opacity:1;stroke-opacity:0.3" />
<rect x="663" y="56" width="35" height="5" style="fill:#f5b024;stroke:black;stroke-width:1;fill-opacity:1;stroke-opacity:0.3" />
<line x1="660" y1="65" x2="661" y2="67" stroke="black" stroke-width="1" />
<line x1="661" y1="67" x2="663" y2="65" stroke="black" stroke-width="1" />
<rect x="624" y="63" width="35" height="5" style="fill:#f5b024;stroke:black;stroke-width:1;fill-opacity:1;stroke-opacity:0.3" />
<rect x="663" y="63" width="34" height="5" style="fill:#f5b024;stroke:black;stroke-width:1;fill-opacity:1;stroke-opacity:0.3" />
<line x1="660" y1="72" x2="661" y2="74" stroke="black" stroke-width="1" />
<line x1="661" y1="74" x2="662" y2="72" stroke="black" stroke-width="1" />
<rect x="624" y="70" width="35" height="5" style="fill:#f5b024;stroke:black;stroke-width:1;fill-opacity:1;stroke-opacity:0.3" />
<rect x="662" y="70" width="35" height="5" style="fill:#f5b024;stroke:black;stroke-width:1;fill-opacity:1;stroke-opacity:0.3" />
<line x1="660" y1="79" x2="661" y2="81" stroke="black" stroke-width="1" />
<line x1="661" y1="81" x2="662" y2="79" stroke="black" stroke-width="1" />
<rect x="624" y="77" width="35" height="5" style="fill:#f5b024;stroke:black;stroke-width:1;fill-opacity:1;stroke-opacity:0.3" />
<rect x="662" y="77" width="35" height="5" style="fill:#f5b024;stroke:black;stroke-width:1;fill-opacity:1;stroke-opacity:0.3" />
<line x1="660" y1="86" x2="661" y2="88" stroke="black" stroke-width="1" />
<line x1="661" y1="88" x2="662" y2="86" stroke="black" stroke-width="1" />
<rect x="624" y="84" width="35" height="5" style="fill:#f5b024;stroke:black;stroke-width:1;fill-opacity:1;stroke-opacity:0.3" />
<rect x="662" y="84" width="35" height="5" style="fill:#f5b024;stroke:black;stroke-width:1;fill-opacity:1;stroke-opacity:0.3" />
<line x1="649" y1="93" x2="651" y2="95" stroke="black" stroke-width="1" />
<line x1="651" y1="95" x2="653" y2="93" stroke="black" stroke-width="1" />
<rect x="625" y="91" width="23" height="5" style="fill:#f5b024;stroke:black;stroke-width:1;fill-opacity:1;stroke-opacity:0.3" />
<rect x="653" y="91" width="23" height="5" style="fill:#f5b024;stroke:black;stroke-width:1;fill-opacity:1;stroke-opacity:0.3" />
<line x1="659" y1="100" x2="660" y2="102" stroke="black" stroke-width="1" />
<line x1="660" y1="102" x2="662" y2="100" stroke="black" stroke-width="1" />
<rect x="626" y="98" width="32" height="5" style="fill:#f5b024;stroke:black;stroke-width:1;fill-opacity:1;stroke-opacity:0.3" />
<rect x="662" y="98" width="32" height="5" style="fill:#f5b024;stroke:black;stroke-width:1;fill-opacity:1;stroke-opacity:0.3" />
<line x1="660" y1="107" x2="662" y2="109" stroke="black" stroke-width="1" />
<line x1="662" y1="109" x2="665" y2="107" stroke="black" stroke-width="1" />
<rect x="626" y="105" width="34" height="5" style="fill:#f5b024;stroke:black;stroke-width:1;fill-opacity:1;stroke-opacity:0.3" />
<rect x="665" y="105" width="35" height="5" style="fill:#f5b024;stroke:black;stroke-width:1;fill-opacity:1;stroke-opacity:0.3" />
<line x1="658" y1="114" x2="660" y2="116" stroke="black" stroke-width="1" />
<line x1="660" y1="116" x2="662" y2="114" stroke="black" stroke-width="1" />
<rect x="626" y="112" width="32" height="5" style="fill:#f5b024;stroke:black;stroke-width:1;fill-opacity:1;stroke-opacity:0.3" />
<rect x="662" y="112" width="35" height="5" style="fill:#f5b024;stroke:black;stroke-width:1;fill-opacity:1;stroke-opacity:0.3" />
<line x1="662" y1="121" x2="665" y2="123" stroke="black" stroke-width="1" />
<line x1="665" y1="123" x2="668" y2="121" stroke="black" stroke-width="1" />
<rect x="627" y="119" width="35" height="5" style="fill:#f5b024;stroke:black;stroke-width:1;fill-opacity:1;stroke-opacity:0.3" />
<rect x="668" y="119" width="35" height="5" style="fill:#f5b024;stroke:black;stroke-width:1;fill-opacity:1;stroke-opacity:0.3" />
<line x1="662" y1="128" x2="664" y2="130" stroke="black" stroke-width="1" />
<line x1="664" y1="130" x2="666" y2="128" stroke="black" stroke-width="1" />
<rect x="627" y="126" width="35" height="5" style="fill:#f5b024;stroke:black;stroke-width:1;fill-opacity:1;stroke-opacity:0.3" />
<rect x="666" y="126" width="35" height="5" style="fill:#f5b024;stroke:black;stroke-width:1;fill-opacity:1;stroke-opacity:0.3" />
<line x1="663" y1="135" x2="664" y2="137" stroke="black" stroke-width="1" />
<line x1="664" y1="137" x2="666" y2="135" stroke="black" stroke-width="1" />
<rect x="627" y="133" width="35" height="5" style="fill:#f5b024;stroke:black;stroke-width:1;fill-opacity:1;stroke-opacity:0.3" />
<rect x="666" y="133" width="35" height="5" style="fill:#f5b024;stroke:black;stroke-width:1;fill-opacity:1;stroke-opacity:0.3" />
<line x1="664" y1="142" x2="666" y2="144" stroke="black" stroke-width="1" />
<line x1="666" y1="144" x2="668" y2="142" stroke="black" stroke-width="1" />
<rect x="628" y="140" width="35" height="5" style="fill:#f5b024;stroke:black;stroke-width:1;fill-opacity:1;stroke-opacity:0.3" />
<rect x="668" y="140" width="35" height="5" style="fill:#f5b024;stroke:black;stroke-width:1;fill-opacity:1;stroke-opacity:0.3" />
<line x1="665" y1="149" x2="675" y2="151" stroke="black" stroke-width="1" />
<line x1="675" y1="151" x2="686" y2="149" stroke="black" stroke-width="1" />
<rect x="629" y="147" width="35" height="5" style="fill:#f5b024;stroke:black;stroke-width:1;fill-opacity:1;stroke-opacity:0.3" />
<rect x="686" y="147" width="35" height="5" style="fill:#f5b024;stroke:black;stroke-width:1;fill-opacity:1;stroke-opacity:0.3" />
<line x1="665" y1="156" x2="666" y2="158" stroke="black" stroke-width="1" />
<line x1="666" y1="158" x2="668" y2="156" stroke="black" stroke-width="1" />
<rect x="629" y="154" width="28" height="5" style="fill:#f5b024;stroke:black;stroke-width:1;fill-opacity:1;stroke-opacity:0.3" />
<rect x="657" y="154" width="7" height="5" style="fill:#f5b024;stroke:black;stroke-width:1;fill-opacity:1;stroke-opacity:0.3" />
<rect x="668" y="154" width="35" height="5" style="fill:#f5b024;stroke:black;stroke-width:1;fill-opacity:1;stroke-opacity:0.3" />
<line x1="665" y1="163" x2="670" y2="165" stroke="black" stroke-width="1" />
<line x1="670" y1="165" x2="675" y2="163" stroke="black" stroke-width="1" />
<rect x="629" y="161" width="35" height="5" style="fill:#5d3c2d;stroke:black;stroke-width:1;fill-opacity:1;stroke-opacity:0.3" />
<rect x="675" y="161" width="35" height="5" style="fill:#5d3c2d;stroke:black;stroke-width:1;fill-opacity:1;stroke-opacity:0.3" />
<line x1="676" y1="37" x2="681" y2="39" stroke="black" stroke-width="1" />
<line x1="681" y1="39" x2="686" y2="37" stroke="black" stroke-width="1" />
<rect x="640" y="35" width="22" height="5" style="fill:#f5b024;stroke:black;stroke-width:1;fill-opacity:1;stroke-opacity:0.3" />
<rect x="663" y="35" width="12" height="5" style="fill:#f5b024;stroke:black;stroke-width:1;fill-opacity:1;stroke-opacity:0.3" />
<rect x="686" y="35" width="35" height="5" style="fill:#f5b024;stroke:black;stroke-width:1;fill-opacity:1;stroke-opacity:0.3" />
<line x1="734" y1="30" x2="743" y2="32" stroke="black" stroke-width="1" />
<line x1="743" y1="32" x2="753" y2="30" stroke="black" stroke-width="1" />
<rect x="698" y="28" width="35" height="5" style="fill:#f5b024;stroke:black;stroke-width:1;fill-opacity:1;stroke-opacity:0.3" />
<rect x="753" y="28" width="35" height="5" style="fill:#f5b024;stroke:black;stroke-width:1;fill-opacity:1;stroke-opacity:0.3" />
<line x1="748" y1="44" x2="750" y2="46" stroke="black" stroke-width="1" />
<line x1="750" y1="46" x2="752" y2="44" stroke="black" stroke-width="1" />
<rect x="712" y="42" width="35" height="5" style="fill:#f5b024;stroke:black;stroke-width:1;fill-opacity:1;stroke-opacity:0.3" />
<rect x="752" y="42" width="35" height="5" style="fill:#f5b024;stroke:black;stroke-width:1;fill-opacity:1;stroke-opacity:0.3" />
<line x1="749" y1="51" x2="754" y2="53" stroke="black" stroke-width="1" />
<line x1="754" y1="53" x2="760" y2="51" stroke="black" stroke-width="1" />
<rect x="714" y="49" width="35" height="5" style="fill:#f5b024;stroke:black;stroke-width:1;fill-opacity:1;stroke-opacity:0.3" />
<rect x="760" y="49" width="35" height="5" style="fill:#f5b024;stroke:black;stroke-width:1;fill-opacity:1;stroke-opacity:0.3" />
<line x1="753" y1="58" x2="754" y2="60" stroke="black" stroke-width="1" />
<line x1="754" y1="60" x2="755" y2="58" stroke="black" stroke-width="1" />
<rect x="717" y="56" width="35" height="5" style="fill:#f5b024;stroke:black;stroke-width:1;fill-opacity:1;stroke-opacity:0.3" />
<rect x="755" y="56" width="35" height="5" style="fill:#f5b024;stroke:black;stroke-width:1;fill-opacity:1;stroke-opacity:0.3" />
<line x1="816" y1="30" x2="819" y2="32" stroke="black" stroke-width="1" />
<line x1="819" y1="32" x2="822" y2="30" stroke="black" stroke-width="1" />
<rect x="793" y="28" width="23" height="5" style="fill:#f5b024;stroke:black;stroke-width:1;fill-opacity:1;stroke-opacity:0.3" />
<rect x="822" y="28" width="23" height="5" style="fill:#f5b024;stroke:black;stroke-width:1;fill-opacity:1;stroke-opacity:0.3" />
<line x1="817" y1="37" x2="832" y2="39" stroke="black" stroke-width="1" />
<line x1="832" y1="39" x2="848" y2="37" stroke="black" stroke-width="1" />
<rect x="793" y="35" width="23" height="5" style="fill:#f5b024;stroke:black;stroke-width:1;fill-opacity:1;stroke-opacity:0.3" />
<rect x="848" y="35" width="23" height="5" style="fill:#f5b024;stroke:black;stroke-width:1;fill-opacity:1;stroke-opacity:0.3" />
<line x1="813" y1="44" x2="819" y2="46" stroke="black" stroke-width="1" />
<line x1="819" y1="46" x2="825" y2="44" stroke="black" stroke-width="1" />
<rect x="793" y="42" width="20" height="5" style="fill:#f5b024;stroke:black;stroke-width:1;fill-opacity:1;stroke-opacity:0.3" />
<rect x="825" y="42" width="23" height="5" style="fill:#f5b024;stroke:black;stroke-width:1;fill-opacity:1;stroke-opacity:0.3" />
<line x1="816" y1="58" x2="827" y2="60" stroke="black" stroke-width="1" />
<line x1="827" y1="60" x2="838" y2="58" stroke="black" stroke-width="1" />
<rect x="794" y="56" width="21" height="5" style="fill:#f5b024;stroke:black;stroke-width:1;fill-opacity:1;stroke-opacity:0.3" />
<rect x="838" y="56" width="23" height="5" style="fill:#f5b024;stroke:black;stroke-width:1;fill-opacity:1;stroke-opacity:0.3" />
<line x1="819" y1="65" x2="820" y2="67" stroke="black" stroke-width="1" />
<line x1="820" y1="67" x2="822" y2="65" stroke="black" stroke-width="1" />
<rect x="795" y="63" width="23" height="5" style="fill:#f5b024;stroke:black;stroke-width:1;fill-opacity:1;stroke-opacity:0.3" />
<rect x="822" y="63" width="23" height="5" style="fill:#f5b024;stroke:black;stroke-width:1;fill-opacity:1;stroke-opacity:0.3" />
<line x1="819" y1="72" x2="825" y2="74" stroke="black" stroke-width="1" />
<line x1="825" y1="74" x2="831" y2="72" stroke="black" stroke-width="1" />
<rect x="795" y="70" width="23" height="5" style="fill:#f5b024;stroke:black;stroke-width:1;fill-opacity:1;stroke-opacity:0.3" />
<rect x="831" y="70" width="22" height="5" style="fill:#f5b024;stroke:black;stroke-width:1;fill-opacity:1;stroke-opacity:0.3" />
<line x1="820" y1="79" x2="830" y2="81" stroke="black" stroke-width="1" />
<line x1="830" y1="81" x2="841" y2="79" stroke="black" stroke-width="1" />
<rect x="796" y="77" width="23" height="5" style="fill:#f5b024;stroke:black;stroke-width:1;fill-opacity:1;stroke-opacity:0.3" />
<rect x="841" y="77" width="21" height="5" style="fill:#f5b024;stroke:black;stroke-width:1;fill-opacity:1;stroke-opacity:0.3" />
<line x1="821" y1="51" x2="823" y2="53" stroke="black" stroke-width="1" />
<line x1="823" y1="53" x2="826" y2="51" stroke="black" stroke-width="1" />
<rect x="797" y="49" width="23" height="5" style="fill:#f5b024;stroke:black;stroke-width:1;fill-opacity:1;stroke-opacity:0.3" />
<rect x="826" y="49" width="23" height="5" style="fill:#f5b024;stroke:black;stroke-width:1;fill-opacity:1;stroke-opacity:0.3" />
<line x1="833" y1="86" x2="842" y2="88" stroke="black" stroke-width="1" />
<line x1="842" y1="88" x2="852" y2="86" stroke="black" stroke-width="1" />
<rect x="797" y="84" width="35" height="5" style="fill:#f5b024;stroke:black;stroke-width:1;fill-opacity:1;stroke-opacity:0.3" />
<rect x="852" y="84" width="35" height="5" style="fill:#f5b024;stroke:black;stroke-width:1;fill-opacity:1;stroke-opacity:0.3" />
<line x1="821" y1="93" x2="823" y2="95" stroke="black" stroke-width="1" />
<line x1="823" y1="95" x2="825" y2="93" stroke="black" stroke-width="1" />
<rect x="797" y="91" width="23" height="5" style="fill:#f5b024;stroke:black;stroke-width:1;fill-opacity:1;stroke-opacity:0.3" />
<rect x="825" y="91" width="23" height="5" style="fill:#f5b024;stroke:black;stroke-width:1;fill-opacity:1;stroke-opacity:0.3" />
<line x1="821" y1="100" x2="838" y2="102" stroke="black" stroke-width="1" />
<line x1="838" y1="102" x2="856" y2="100" stroke="black" stroke-width="1" />
<rect x="797" y="98" width="23" height="5" style="fill:#5d3c2d;stroke:black;stroke-width:1;fill-opacity:1;stroke-opacity:0.3" />
<rect x="856" y="98" width="23" height="5" style="fill:#5d3c2d;stroke:black;stroke-width:1;fill-opacity:1;stroke-opacity:0.3" />
<line x1="833" y1="107" x2="835" y2="109" stroke="black" stroke-width="1" />
<line x1="835" y1="109" x2="837" y2="107" stroke="black" stroke-width="1" />
<rect x="797" y="105" width="35" height="5" style="fill:#f5b024;stroke:black;stroke-width:1;fill-opacity:1;stroke-opacity:0.3" />
<rect x="837" y="105" width="35" height="5" style="fill:#f5b024;stroke:black;stroke-width:1;fill-opacity:1;stroke-opacity:0.3" />
<line x1="821" y1="114" x2="824" y2="116" stroke="black" stroke-width="1" />
<line x1="824" y1="116" x2="827" y2="114" stroke="black" stroke-width="1" />
<rect x="797" y="112" width="23" height="5" style="fill:#f5b024;stroke:black;stroke-width:1;fill-opacity:1;stroke-opacity:0.3" />
<rect x="827" y="112" width="23" height="5" style="fill:#f5b024;stroke:black;stroke-width:1;fill-opacity:1;stroke-opacity:0.3" />
<line x1="822" y1="121" x2="823" y2="123" stroke="black" stroke-width="1" />
<line x1="823" y1="123" x2="825" y2="121" stroke="black" stroke-width="1" />
<rect x="798" y="119" width="23" height="5" style="fill:#f5b024;stroke:black;stroke-width:1;fill-opacity:1;stroke-opacity:0.3" />
<rect x="825" y="119" width="23" height="5" style="fill:#f5b024;stroke:black;stroke-width:1;fill-opacity:1;stroke-opacity:0.3" />
<line x1="822" y1="128" x2="823" y2="130" stroke="black" stroke-width="1" />
<line x1="823" y1="130" x2="824" y2="128" stroke="black" stroke-width="1" />
<rect x="798" y="126" width="23" height="5" style="fill:#5d3c2d;stroke:black;stroke-width:1;fill-opacity:1;stroke-opacity:0.3" />
<rect x="824" y="126" width="23" height="5" style="fill:#5d3c2d;stroke:black;stroke-width:1;fill-opacity:1;stroke-opacity:0.3" />
<line x1="822" y1="135" x2="823" y2="137" stroke="black" stroke-width="1" />
<line x1="823" y1="137" x2="825" y2="135" stroke="black" stroke-width="1" />
<rect x="798" y="133" width="23" height="5" style="fill:#f5b024;stroke:black;stroke-width:1;fill-opacity:1;stroke-opacity:0.3" />
<rect x="825" y="133" width="23" height="5" style="fill:#f5b024;stroke:black;stroke-width:1;fill-opacity:1;stroke-opacity:0.3" />
<line x1="822" y1="142" x2="834" y2="144" stroke="black" stroke-width="1" />
<line x1="834" y1="144" x2="846" y2="142" stroke="black" stroke-width="1" />
<rect x="799" y="140" width="23" height="5" style="fill:#f5b024;stroke:black;stroke-width:1;fill-opacity:1;stroke-opacity:0.3" />
<rect x="846" y="140" width="23" height="5" style="fill:#f5b024;stroke:black;stroke-width:1;fill-opacity:1;stroke-opacity:0.3" />
<line x1="837" y1="149" x2="838" y2="151" stroke="black" stroke-width="1" />
<line x1="838" y1="151" x2="840" y2="149" stroke="black" stroke-width="1" />
<rect x="801" y="147" width="35" height="5" style="fill:#f5b024;stroke:black;stroke-width:1;fill-opacity:1;stroke-opacity:0.3" />
<rect x="840" y="147" width="35" height="5" style="fill:#f5b024;stroke:black;stroke-width:1;fill-opacity:1;stroke-opacity:0.3" />
<line x1="843" y1="156" x2="849" y2="158" stroke="black" stroke-width="1" />
<line x1="849" y1="158" x2="855" y2="156" stroke="black" stroke-width="1" />
<rect x="807" y="154" width="35" height="5" style="fill:#f5b024;stroke:black;stroke-width:1;fill-opacity:1;stroke-opacity:0.3" />
<rect x="855" y="154" width="35" height="5" style="fill:#f5b024;stroke:black;stroke-width:1;fill-opacity:1;stroke-opacity:0.3" />
<line x1="831" y1="163" x2="834" y2="165" stroke="black" stroke-width="1" />
<line x1="834" y1="165" x2="838" y2="163" stroke="black" stroke-width="1" />
<rect x="807" y="161" width="23" height="5" style="fill:#f5b024;stroke:black;stroke-width:1;fill-opacity:1;stroke-opacity:0.3" />
<rect x="838" y="161" width="23" height="5" style="fill:#f5b024;stroke:black;stroke-width:1;fill-opacity:1;stroke-opacity:0.3" />
<text x="15"  y="176" style="font-family:Arial;font-size:10;stroke:black;fill:black;">all.merged.bam</text>
</svg>
    
