<?xml version="1.0" encoding="utf-8" standalone="no"?>
<!DOCTYPE svg PUBLIC "-//W3C//DTD SVG 1.1//EN"
  "http://www.w3.org/Graphics/SVG/1.1/DTD/svg11.dtd">
<svg height="1140" width="1000" version="1.1" viewBox="0 0 1000 1140" xmlns="http://www.w3.org/2000/svg" xmlns:xlink="http://www.w3.org/1999/xlink">
<line x1="91" y1="11" x2="907" y2="11" stroke="black" stroke-width="1" />
<rect x="91" y="9" width="380" height="5" style="fill:#f50002;stroke:black;stroke-width:1;fill-opacity:1;stroke-opacity:0.3" />
<rect x="473" y="9" width="224" height="5" style="fill:#53a1b5;stroke:black;stroke-width:1;fill-opacity:1;stroke-opacity:0.3" />
<rect x="698" y="9" width="208" height="5" style="fill:#f50002;stroke:black;stroke-width:1;fill-opacity:1;stroke-opacity:0.3" />
<text x="91"  y="23" style="font-family:Arial;font-size:10;stroke:black;fill:black;">Cre06.g302305.t1.2.v5.5 (+) chromosome_6:7777217-7778108</text>
<line x1="280" y1="30" x2="297" y2="32" stroke="black" stroke-width="1" />
<line x1="297" y1="32" x2="315" y2="30" stroke="black" stroke-width="1" />
<rect x="189" y="28" width="90" height="5" style="fill:#f5b024;stroke:black;stroke-width:1;fill-opacity:1;stroke-opacity:0.3" />
<rect x="315" y="28" width="91" height="5" style="fill:#f5b024;stroke:black;stroke-width:1;fill-opacity:1;stroke-opacity:0.3" />
<line x1="290" y1="37" x2="313" y2="39" stroke="black" stroke-width="1" />
<line x1="313" y1="39" x2="336" y2="37" stroke="black" stroke-width="1" />
<rect x="199" y="35" width="90" height="5" style="fill:#5d3c2d;stroke:black;stroke-width:1;fill-opacity:1;stroke-opacity:0.3" />
<rect x="336" y="35" width="91" height="5" style="fill:#5d3c2d;stroke:black;stroke-width:1;fill-opacity:1;stroke-opacity:0.3" />
<line x1="291" y1="44" x2="307" y2="46" stroke="black" stroke-width="1" />
<line x1="307" y1="46" x2="323" y2="44" stroke="black" stroke-width="1" />
<rect x="199" y="42" width="91" height="5" style="fill:#5d3c2d;stroke:black;stroke-width:1;fill-opacity:1;stroke-opacity:0.3" />
<rect x="323" y="42" width="91" height="5" style="fill:#5d3c2d;stroke:black;stroke-width:1;fill-opacity:1;stroke-opacity:0.3" />
<line x1="284" y1="51" x2="293" y2="53" stroke="black" stroke-width="1" />
<line x1="293" y1="53" x2="303" y2="51" stroke="black" stroke-width="1" />
<rect x="206" y="49" width="77" height="5" style="fill:#5d3c2d;stroke:black;stroke-width:1;fill-opacity:1;stroke-opacity:0.3" />
<rect x="303" y="49" width="91" height="5" style="fill:#5d3c2d;stroke:black;stroke-width:1;fill-opacity:1;stroke-opacity:0.3" />
<line x1="301" y1="58" x2="322" y2="60" stroke="black" stroke-width="1" />
<line x1="322" y1="60" x2="343" y2="58" stroke="black" stroke-width="1" />
<rect x="209" y="56" width="91" height="5" style="fill:#5d3c2d;stroke:black;stroke-width:1;fill-opacity:1;stroke-opacity:0.3" />
<rect x="343" y="56" width="91" height="5" style="fill:#5d3c2d;stroke:black;stroke-width:1;fill-opacity:1;stroke-opacity:0.3" />
<line x1="301" y1="65" x2="322" y2="67" stroke="black" stroke-width="1" />
<line x1="322" y1="67" x2="343" y2="65" stroke="black" stroke-width="1" />
<rect x="209" y="63" width="91" height="5" style="fill:#5d3c2d;stroke:black;stroke-width:1;fill-opacity:1;stroke-opacity:0.3" />
<rect x="343" y="63" width="91" height="5" style="fill:#5d3c2d;stroke:black;stroke-width:1;fill-opacity:1;stroke-opacity:0.3" />
<line x1="306" y1="72" x2="326" y2="74" stroke="black" stroke-width="1" />
<line x1="326" y1="74" x2="346" y2="72" stroke="black" stroke-width="1" />
<rect x="215" y="70" width="91" height="5" style="fill:#5d3c2d;stroke:black;stroke-width:1;fill-opacity:1;stroke-opacity:0.3" />
<rect x="346" y="70" width="91" height="5" style="fill:#5d3c2d;stroke:black;stroke-width:1;fill-opacity:1;stroke-opacity:0.3" />
<line x1="306" y1="79" x2="311" y2="81" stroke="black" stroke-width="1" />
<line x1="311" y1="81" x2="317" y2="79" stroke="black" stroke-width="1" />
<rect x="215" y="77" width="91" height="5" style="fill:#5d3c2d;stroke:black;stroke-width:1;fill-opacity:1;stroke-opacity:0.3" />
<rect x="317" y="77" width="91" height="5" style="fill:#5d3c2d;stroke:black;stroke-width:1;fill-opacity:1;stroke-opacity:0.3" />
<line x1="306" y1="86" x2="316" y2="88" stroke="black" stroke-width="1" />
<line x1="316" y1="88" x2="326" y2="86" stroke="black" stroke-width="1" />
<rect x="215" y="84" width="91" height="5" style="fill:#5d3c2d;stroke:black;stroke-width:1;fill-opacity:1;stroke-opacity:0.3" />
<rect x="326" y="84" width="91" height="5" style="fill:#5d3c2d;stroke:black;stroke-width:1;fill-opacity:1;stroke-opacity:0.3" />
<line x1="306" y1="93" x2="321" y2="95" stroke="black" stroke-width="1" />
<line x1="321" y1="95" x2="337" y2="93" stroke="black" stroke-width="1" />
<rect x="215" y="91" width="91" height="5" style="fill:#5d3c2d;stroke:black;stroke-width:1;fill-opacity:1;stroke-opacity:0.3" />
<rect x="337" y="91" width="91" height="5" style="fill:#5d3c2d;stroke:black;stroke-width:1;fill-opacity:1;stroke-opacity:0.3" />
<line x1="306" y1="100" x2="314" y2="102" stroke="black" stroke-width="1" />
<line x1="314" y1="102" x2="322" y2="100" stroke="black" stroke-width="1" />
<rect x="215" y="98" width="91" height="5" style="fill:#5d3c2d;stroke:black;stroke-width:1;fill-opacity:1;stroke-opacity:0.3" />
<rect x="322" y="98" width="91" height="5" style="fill:#5d3c2d;stroke:black;stroke-width:1;fill-opacity:1;stroke-opacity:0.3" />
<line x1="306" y1="107" x2="335" y2="109" stroke="black" stroke-width="1" />
<line x1="335" y1="109" x2="364" y2="107" stroke="black" stroke-width="1" />
<rect x="215" y="105" width="91" height="5" style="fill:#5d3c2d;stroke:black;stroke-width:1;fill-opacity:1;stroke-opacity:0.3" />
<rect x="364" y="105" width="90" height="5" style="fill:#5d3c2d;stroke:black;stroke-width:1;fill-opacity:1;stroke-opacity:0.3" />
<line x1="306" y1="114" x2="326" y2="116" stroke="black" stroke-width="1" />
<line x1="326" y1="116" x2="346" y2="114" stroke="black" stroke-width="1" />
<rect x="215" y="112" width="91" height="5" style="fill:#5d3c2d;stroke:black;stroke-width:1;fill-opacity:1;stroke-opacity:0.3" />
<rect x="346" y="112" width="91" height="5" style="fill:#5d3c2d;stroke:black;stroke-width:1;fill-opacity:1;stroke-opacity:0.3" />
<line x1="306" y1="121" x2="321" y2="123" stroke="black" stroke-width="1" />
<line x1="321" y1="123" x2="336" y2="121" stroke="black" stroke-width="1" />
<rect x="215" y="119" width="91" height="5" style="fill:#5d3c2d;stroke:black;stroke-width:1;fill-opacity:1;stroke-opacity:0.3" />
<rect x="336" y="119" width="91" height="5" style="fill:#5d3c2d;stroke:black;stroke-width:1;fill-opacity:1;stroke-opacity:0.3" />
<line x1="306" y1="128" x2="326" y2="130" stroke="black" stroke-width="1" />
<line x1="326" y1="130" x2="347" y2="128" stroke="black" stroke-width="1" />
<rect x="215" y="126" width="91" height="5" style="fill:#5d3c2d;stroke:black;stroke-width:1;fill-opacity:1;stroke-opacity:0.3" />
<rect x="347" y="126" width="87" height="5" style="fill:#5d3c2d;stroke:black;stroke-width:1;fill-opacity:1;stroke-opacity:0.3" />
<line x1="306" y1="135" x2="314" y2="137" stroke="black" stroke-width="1" />
<line x1="314" y1="137" x2="322" y2="135" stroke="black" stroke-width="1" />
<rect x="215" y="133" width="91" height="5" style="fill:#5d3c2d;stroke:black;stroke-width:1;fill-opacity:1;stroke-opacity:0.3" />
<rect x="322" y="133" width="91" height="5" style="fill:#5d3c2d;stroke:black;stroke-width:1;fill-opacity:1;stroke-opacity:0.3" />
<line x1="311" y1="142" x2="346" y2="144" stroke="black" stroke-width="1" />
<line x1="346" y1="144" x2="381" y2="142" stroke="black" stroke-width="1" />
<rect x="219" y="140" width="91" height="5" style="fill:#5d3c2d;stroke:black;stroke-width:1;fill-opacity:1;stroke-opacity:0.3" />
<rect x="381" y="140" width="90" height="5" style="fill:#5d3c2d;stroke:black;stroke-width:1;fill-opacity:1;stroke-opacity:0.3" />
<line x1="311" y1="149" x2="329" y2="151" stroke="black" stroke-width="1" />
<line x1="329" y1="151" x2="347" y2="149" stroke="black" stroke-width="1" />
<rect x="219" y="147" width="91" height="5" style="fill:#5d3c2d;stroke:black;stroke-width:1;fill-opacity:1;stroke-opacity:0.3" />
<rect x="347" y="147" width="91" height="5" style="fill:#5d3c2d;stroke:black;stroke-width:1;fill-opacity:1;stroke-opacity:0.3" />
<line x1="311" y1="156" x2="356" y2="158" stroke="black" stroke-width="1" />
<line x1="356" y1="158" x2="401" y2="156" stroke="black" stroke-width="1" />
<rect x="219" y="154" width="91" height="5" style="fill:#5d3c2d;stroke:black;stroke-width:1;fill-opacity:1;stroke-opacity:0.3" />
<rect x="401" y="154" width="91" height="5" style="fill:#5d3c2d;stroke:black;stroke-width:1;fill-opacity:1;stroke-opacity:0.3" />
<line x1="311" y1="163" x2="315" y2="165" stroke="black" stroke-width="1" />
<line x1="315" y1="165" x2="320" y2="163" stroke="black" stroke-width="1" />
<rect x="219" y="161" width="91" height="5" style="fill:#5d3c2d;stroke:black;stroke-width:1;fill-opacity:1;stroke-opacity:0.3" />
<rect x="320" y="161" width="91" height="5" style="fill:#5d3c2d;stroke:black;stroke-width:1;fill-opacity:1;stroke-opacity:0.3" />
<line x1="487" y1="51" x2="497" y2="53" stroke="black" stroke-width="1" />
<line x1="497" y1="53" x2="507" y2="51" stroke="black" stroke-width="1" />
<rect x="395" y="49" width="91" height="5" style="fill:#5d3c2d;stroke:black;stroke-width:1;fill-opacity:1;stroke-opacity:0.3" />
<rect x="507" y="49" width="91" height="5" style="fill:#5d3c2d;stroke:black;stroke-width:1;fill-opacity:1;stroke-opacity:0.3" />
<line x1="505" y1="30" x2="516" y2="32" stroke="black" stroke-width="1" />
<line x1="516" y1="32" x2="528" y2="30" stroke="black" stroke-width="1" />
<rect x="413" y="28" width="91" height="5" style="fill:#5d3c2d;stroke:black;stroke-width:1;fill-opacity:1;stroke-opacity:0.3" />
<rect x="528" y="28" width="91" height="5" style="fill:#5d3c2d;stroke:black;stroke-width:1;fill-opacity:1;stroke-opacity:0.3" />
<line x1="506" y1="44" x2="516" y2="46" stroke="black" stroke-width="1" />
<line x1="516" y1="46" x2="527" y2="44" stroke="black" stroke-width="1" />
<rect x="414" y="42" width="91" height="5" style="fill:#5d3c2d;stroke:black;stroke-width:1;fill-opacity:1;stroke-opacity:0.3" />
<rect x="527" y="42" width="91" height="5" style="fill:#5d3c2d;stroke:black;stroke-width:1;fill-opacity:1;stroke-opacity:0.3" />
<line x1="638" y1="79" x2="648" y2="81" stroke="black" stroke-width="1" />
<line x1="648" y1="81" x2="659" y2="79" stroke="black" stroke-width="1" />
<rect x="414" y="77" width="21" height="5" style="fill:#5d3c2d;stroke:black;stroke-width:1;fill-opacity:1;stroke-opacity:0.3" />
<line x1="436" y1="79" x2="568" y2="79" stroke="pink" stroke-width="1" />
<rect x="568" y="77" width="69" height="5" style="fill:#5d3c2d;stroke:black;stroke-width:1;fill-opacity:1;stroke-opacity:0.3" />
<rect x="659" y="77" width="15" height="5" style="fill:#5d3c2d;stroke:black;stroke-width:1;fill-opacity:1;stroke-opacity:0.3" />
<line x1="674" y1="79" x2="1347" y2="79" stroke="pink" stroke-width="1" />
<rect x="1347" y="77" width="30" height="5" style="fill:#5d3c2d;stroke:black;stroke-width:1;fill-opacity:1;stroke-opacity:0.3" />
<line x1="1378" y1="79" x2="1607" y2="79" stroke="pink" stroke-width="1" />
<rect x="1607" y="77" width="45" height="5" style="fill:#5d3c2d;stroke:black;stroke-width:1;fill-opacity:1;stroke-opacity:0.3" />
<line x1="509" y1="100" x2="517" y2="102" stroke="black" stroke-width="1" />
<line x1="517" y1="102" x2="525" y2="100" stroke="black" stroke-width="1" />
<rect x="417" y="98" width="91" height="5" style="fill:#5d3c2d;stroke:black;stroke-width:1;fill-opacity:1;stroke-opacity:0.3" />
<rect x="525" y="98" width="91" height="5" style="fill:#5d3c2d;stroke:black;stroke-width:1;fill-opacity:1;stroke-opacity:0.3" />
<line x1="509" y1="135" x2="557" y2="137" stroke="black" stroke-width="1" />
<line x1="557" y1="137" x2="606" y2="135" stroke="black" stroke-width="1" />
<rect x="417" y="133" width="91" height="5" style="fill:#5d3c2d;stroke:black;stroke-width:1;fill-opacity:1;stroke-opacity:0.3" />
<rect x="606" y="133" width="89" height="5" style="fill:#5d3c2d;stroke:black;stroke-width:1;fill-opacity:1;stroke-opacity:0.3" />
<line x1="510" y1="86" x2="532" y2="88" stroke="black" stroke-width="1" />
<line x1="532" y1="88" x2="554" y2="86" stroke="black" stroke-width="1" />
<rect x="418" y="84" width="91" height="5" style="fill:#5d3c2d;stroke:black;stroke-width:1;fill-opacity:1;stroke-opacity:0.3" />
<rect x="554" y="84" width="91" height="5" style="fill:#5d3c2d;stroke:black;stroke-width:1;fill-opacity:1;stroke-opacity:0.3" />
<line x1="510" y1="163" x2="527" y2="165" stroke="black" stroke-width="1" />
<line x1="527" y1="165" x2="544" y2="163" stroke="black" stroke-width="1" />
<rect x="419" y="161" width="91" height="5" style="fill:#5d3c2d;stroke:black;stroke-width:1;fill-opacity:1;stroke-opacity:0.3" />
<rect x="544" y="161" width="91" height="5" style="fill:#5d3c2d;stroke:black;stroke-width:1;fill-opacity:1;stroke-opacity:0.3" />
<line x1="521" y1="37" x2="555" y2="39" stroke="black" stroke-width="1" />
<line x1="555" y1="39" x2="589" y2="37" stroke="black" stroke-width="1" />
<rect x="429" y="35" width="91" height="5" style="fill:#5d3c2d;stroke:black;stroke-width:1;fill-opacity:1;stroke-opacity:0.3" />
<rect x="589" y="35" width="91" height="5" style="fill:#5d3c2d;stroke:black;stroke-width:1;fill-opacity:1;stroke-opacity:0.3" />
<line x1="521" y1="93" x2="526" y2="95" stroke="black" stroke-width="1" />
<line x1="526" y1="95" x2="531" y2="93" stroke="black" stroke-width="1" />
<rect x="429" y="91" width="91" height="5" style="fill:#5d3c2d;stroke:black;stroke-width:1;fill-opacity:1;stroke-opacity:0.3" />
<rect x="531" y="91" width="91" height="5" style="fill:#5d3c2d;stroke:black;stroke-width:1;fill-opacity:1;stroke-opacity:0.3" />
<line x1="566" y1="121" x2="584" y2="123" stroke="black" stroke-width="1" />
<line x1="584" y1="123" x2="603" y2="121" stroke="black" stroke-width="1" />
<rect x="429" y="119" width="137" height="5" style="fill:#5d3c2d;stroke:black;stroke-width:1;fill-opacity:1;stroke-opacity:0.3" />
<rect x="603" y="119" width="136" height="5" style="fill:#5d3c2d;stroke:black;stroke-width:1;fill-opacity:1;stroke-opacity:0.3" />
<line x1="527" y1="58" x2="538" y2="60" stroke="black" stroke-width="1" />
<line x1="538" y1="60" x2="549" y2="58" stroke="black" stroke-width="1" />
<rect x="435" y="56" width="91" height="5" style="fill:#5d3c2d;stroke:black;stroke-width:1;fill-opacity:1;stroke-opacity:0.3" />
<rect x="549" y="56" width="91" height="5" style="fill:#5d3c2d;stroke:black;stroke-width:1;fill-opacity:1;stroke-opacity:0.3" />
<line x1="532" y1="65" x2="578" y2="67" stroke="black" stroke-width="1" />
<line x1="578" y1="67" x2="624" y2="65" stroke="black" stroke-width="1" />
<rect x="441" y="63" width="91" height="5" style="fill:#5d3c2d;stroke:black;stroke-width:1;fill-opacity:1;stroke-opacity:0.3" />
<rect x="624" y="63" width="50" height="5" style="fill:#5d3c2d;stroke:black;stroke-width:1;fill-opacity:1;stroke-opacity:0.3" />
<line x1="674" y1="65" x2="1347" y2="65" stroke="pink" stroke-width="1" />
<rect x="1347" y="63" width="30" height="5" style="fill:#5d3c2d;stroke:black;stroke-width:1;fill-opacity:1;stroke-opacity:0.3" />
<line x1="1378" y1="65" x2="1607" y2="65" stroke="pink" stroke-width="1" />
<rect x="1607" y="63" width="10" height="5" style="fill:#5d3c2d;stroke:black;stroke-width:1;fill-opacity:1;stroke-opacity:0.3" />
<line x1="532" y1="72" x2="537" y2="74" stroke="black" stroke-width="1" />
<line x1="537" y1="74" x2="543" y2="72" stroke="black" stroke-width="1" />
<rect x="441" y="70" width="91" height="5" style="fill:#5d3c2d;stroke:black;stroke-width:1;fill-opacity:1;stroke-opacity:0.3" />
<rect x="543" y="70" width="90" height="5" style="fill:#5d3c2d;stroke:black;stroke-width:1;fill-opacity:1;stroke-opacity:0.3" />
<line x1="532" y1="114" x2="540" y2="116" stroke="black" stroke-width="1" />
<line x1="540" y1="116" x2="549" y2="114" stroke="black" stroke-width="1" />
<rect x="441" y="112" width="91" height="5" style="fill:#5d3c2d;stroke:black;stroke-width:1;fill-opacity:1;stroke-opacity:0.3" />
<rect x="549" y="112" width="90" height="5" style="fill:#5d3c2d;stroke:black;stroke-width:1;fill-opacity:1;stroke-opacity:0.3" />
<line x1="536" y1="128" x2="556" y2="130" stroke="black" stroke-width="1" />
<line x1="556" y1="130" x2="577" y2="128" stroke="black" stroke-width="1" />
<rect x="445" y="126" width="91" height="5" style="fill:#5d3c2d;stroke:black;stroke-width:1;fill-opacity:1;stroke-opacity:0.3" />
<rect x="577" y="126" width="91" height="5" style="fill:#5d3c2d;stroke:black;stroke-width:1;fill-opacity:1;stroke-opacity:0.3" />
<line x1="538" y1="149" x2="544" y2="151" stroke="black" stroke-width="1" />
<line x1="544" y1="151" x2="550" y2="149" stroke="black" stroke-width="1" />
<rect x="446" y="147" width="91" height="5" style="fill:#5d3c2d;stroke:black;stroke-width:1;fill-opacity:1;stroke-opacity:0.3" />
<rect x="550" y="147" width="91" height="5" style="fill:#5d3c2d;stroke:black;stroke-width:1;fill-opacity:1;stroke-opacity:0.3" />
<line x1="547" y1="107" x2="568" y2="109" stroke="black" stroke-width="1" />
<line x1="568" y1="109" x2="590" y2="107" stroke="black" stroke-width="1" />
<rect x="456" y="105" width="91" height="5" style="fill:#5d3c2d;stroke:black;stroke-width:1;fill-opacity:1;stroke-opacity:0.3" />
<rect x="590" y="105" width="91" height="5" style="fill:#5d3c2d;stroke:black;stroke-width:1;fill-opacity:1;stroke-opacity:0.3" />
<line x1="564" y1="142" x2="572" y2="144" stroke="black" stroke-width="1" />
<line x1="572" y1="144" x2="581" y2="142" stroke="black" stroke-width="1" />
<rect x="472" y="140" width="91" height="5" style="fill:#5d3c2d;stroke:black;stroke-width:1;fill-opacity:1;stroke-opacity:0.3" />
<rect x="581" y="140" width="91" height="5" style="fill:#5d3c2d;stroke:black;stroke-width:1;fill-opacity:1;stroke-opacity:0.3" />
<line x1="586" y1="156" x2="616" y2="158" stroke="black" stroke-width="1" />
<line x1="616" y1="158" x2="646" y2="156" stroke="black" stroke-width="1" />
<rect x="494" y="154" width="91" height="5" style="fill:#f5b024;stroke:black;stroke-width:1;fill-opacity:1;stroke-opacity:0.3" />
<rect x="646" y="154" width="88" height="5" style="fill:#f5b024;stroke:black;stroke-width:1;fill-opacity:1;stroke-opacity:0.3" />
<line x1="691" y1="51" x2="723" y2="53" stroke="black" stroke-width="1" />
<line x1="723" y1="53" x2="755" y2="51" stroke="black" stroke-width="1" />
<rect x="599" y="49" width="91" height="5" style="fill:#5d3c2d;stroke:black;stroke-width:1;fill-opacity:1;stroke-opacity:0.3" />
<rect x="755" y="49" width="91" height="5" style="fill:#5d3c2d;stroke:black;stroke-width:1;fill-opacity:1;stroke-opacity:0.3" />
<line x1="710" y1="44" x2="724" y2="46" stroke="black" stroke-width="1" />
<line x1="724" y1="46" x2="739" y2="44" stroke="black" stroke-width="1" />
<rect x="619" y="42" width="91" height="5" style="fill:#f5b024;stroke:black;stroke-width:1;fill-opacity:1;stroke-opacity:0.3" />
<rect x="739" y="42" width="91" height="5" style="fill:#f5b024;stroke:black;stroke-width:1;fill-opacity:1;stroke-opacity:0.3" />
<line x1="711" y1="30" x2="746" y2="32" stroke="black" stroke-width="1" />
<line x1="746" y1="32" x2="782" y2="30" stroke="black" stroke-width="1" />
<rect x="619" y="28" width="91" height="5" style="fill:#5d3c2d;stroke:black;stroke-width:1;fill-opacity:1;stroke-opacity:0.3" />
<rect x="782" y="28" width="91" height="5" style="fill:#5d3c2d;stroke:black;stroke-width:1;fill-opacity:1;stroke-opacity:0.3" />
<line x1="711" y1="100" x2="746" y2="102" stroke="black" stroke-width="1" />
<line x1="746" y1="102" x2="782" y2="100" stroke="black" stroke-width="1" />
<rect x="619" y="98" width="91" height="5" style="fill:#5d3c2d;stroke:black;stroke-width:1;fill-opacity:1;stroke-opacity:0.3" />
<rect x="782" y="98" width="91" height="5" style="fill:#5d3c2d;stroke:black;stroke-width:1;fill-opacity:1;stroke-opacity:0.3" />
<line x1="717" y1="93" x2="749" y2="95" stroke="black" stroke-width="1" />
<line x1="749" y1="95" x2="782" y2="93" stroke="black" stroke-width="1" />
<rect x="626" y="91" width="91" height="5" style="fill:#5d3c2d;stroke:black;stroke-width:1;fill-opacity:1;stroke-opacity:0.3" />
<rect x="782" y="91" width="91" height="5" style="fill:#5d3c2d;stroke:black;stroke-width:1;fill-opacity:1;stroke-opacity:0.3" />
<line x1="727" y1="72" x2="754" y2="74" stroke="black" stroke-width="1" />
<line x1="754" y1="74" x2="782" y2="72" stroke="black" stroke-width="1" />
<rect x="635" y="70" width="91" height="5" style="fill:#5d3c2d;stroke:black;stroke-width:1;fill-opacity:1;stroke-opacity:0.3" />
<rect x="782" y="70" width="90" height="5" style="fill:#5d3c2d;stroke:black;stroke-width:1;fill-opacity:1;stroke-opacity:0.3" />
<line x1="728" y1="163" x2="735" y2="165" stroke="black" stroke-width="1" />
<line x1="735" y1="165" x2="743" y2="163" stroke="black" stroke-width="1" />
<rect x="636" y="161" width="91" height="5" style="fill:#5d3c2d;stroke:black;stroke-width:1;fill-opacity:1;stroke-opacity:0.3" />
<rect x="743" y="161" width="91" height="5" style="fill:#5d3c2d;stroke:black;stroke-width:1;fill-opacity:1;stroke-opacity:0.3" />
<line x1="733" y1="58" x2="738" y2="60" stroke="black" stroke-width="1" />
<line x1="738" y1="60" x2="743" y2="58" stroke="black" stroke-width="1" />
<rect x="641" y="56" width="91" height="5" style="fill:#5d3c2d;stroke:black;stroke-width:1;fill-opacity:1;stroke-opacity:0.3" />
<rect x="743" y="56" width="91" height="5" style="fill:#5d3c2d;stroke:black;stroke-width:1;fill-opacity:1;stroke-opacity:0.3" />
<line x1="734" y1="114" x2="738" y2="116" stroke="black" stroke-width="1" />
<line x1="738" y1="116" x2="743" y2="114" stroke="black" stroke-width="1" />
<rect x="643" y="112" width="90" height="5" style="fill:#5d3c2d;stroke:black;stroke-width:1;fill-opacity:1;stroke-opacity:0.3" />
<rect x="743" y="112" width="91" height="5" style="fill:#5d3c2d;stroke:black;stroke-width:1;fill-opacity:1;stroke-opacity:0.3" />
<line x1="735" y1="149" x2="748" y2="151" stroke="black" stroke-width="1" />
<line x1="748" y1="151" x2="761" y2="149" stroke="black" stroke-width="1" />
<rect x="643" y="147" width="91" height="5" style="fill:#5d3c2d;stroke:black;stroke-width:1;fill-opacity:1;stroke-opacity:0.3" />
<rect x="761" y="147" width="90" height="5" style="fill:#5d3c2d;stroke:black;stroke-width:1;fill-opacity:1;stroke-opacity:0.3" />
<line x1="738" y1="86" x2="758" y2="88" stroke="black" stroke-width="1" />
<line x1="758" y1="88" x2="778" y2="86" stroke="black" stroke-width="1" />
<rect x="646" y="84" width="91" height="5" style="fill:#5d3c2d;stroke:black;stroke-width:1;fill-opacity:1;stroke-opacity:0.3" />
<rect x="778" y="84" width="91" height="5" style="fill:#5d3c2d;stroke:black;stroke-width:1;fill-opacity:1;stroke-opacity:0.3" />
<line x1="760" y1="128" x2="769" y2="130" stroke="black" stroke-width="1" />
<line x1="769" y1="130" x2="779" y2="128" stroke="black" stroke-width="1" />
<rect x="669" y="126" width="91" height="5" style="fill:#5d3c2d;stroke:black;stroke-width:1;fill-opacity:1;stroke-opacity:0.3" />
<rect x="779" y="126" width="91" height="5" style="fill:#5d3c2d;stroke:black;stroke-width:1;fill-opacity:1;stroke-opacity:0.3" />
<line x1="764" y1="142" x2="787" y2="144" stroke="black" stroke-width="1" />
<line x1="787" y1="144" x2="810" y2="142" stroke="black" stroke-width="1" />
<rect x="673" y="140" width="91" height="5" style="fill:#5d3c2d;stroke:black;stroke-width:1;fill-opacity:1;stroke-opacity:0.3" />
<rect x="810" y="140" width="87" height="5" style="fill:#5d3c2d;stroke:black;stroke-width:1;fill-opacity:1;stroke-opacity:0.3" />
<line x1="775" y1="37" x2="788" y2="39" stroke="black" stroke-width="1" />
<line x1="788" y1="39" x2="802" y2="37" stroke="black" stroke-width="1" />
<rect x="684" y="35" width="91" height="5" style="fill:#5d3c2d;stroke:black;stroke-width:1;fill-opacity:1;stroke-opacity:0.3" />
<rect x="802" y="35" width="90" height="5" style="fill:#5d3c2d;stroke:black;stroke-width:1;fill-opacity:1;stroke-opacity:0.3" />
<line x1="776" y1="107" x2="792" y2="109" stroke="black" stroke-width="1" />
<line x1="792" y1="109" x2="809" y2="107" stroke="black" stroke-width="1" />
<rect x="684" y="105" width="91" height="5" style="fill:#5d3c2d;stroke:black;stroke-width:1;fill-opacity:1;stroke-opacity:0.3" />
<rect x="809" y="105" width="91" height="5" style="fill:#5d3c2d;stroke:black;stroke-width:1;fill-opacity:1;stroke-opacity:0.3" />
<line x1="789" y1="135" x2="813" y2="137" stroke="black" stroke-width="1" />
<line x1="813" y1="137" x2="838" y2="135" stroke="black" stroke-width="1" />
<rect x="697" y="133" width="91" height="5" style="fill:#5d3c2d;stroke:black;stroke-width:1;fill-opacity:1;stroke-opacity:0.3" />
<rect x="838" y="133" width="91" height="5" style="fill:#5d3c2d;stroke:black;stroke-width:1;fill-opacity:1;stroke-opacity:0.3" />
<line x1="828" y1="156" x2="835" y2="158" stroke="black" stroke-width="1" />
<line x1="835" y1="158" x2="842" y2="156" stroke="black" stroke-width="1" />
<rect x="737" y="154" width="91" height="5" style="fill:#5d3c2d;stroke:black;stroke-width:1;fill-opacity:1;stroke-opacity:0.3" />
<rect x="842" y="154" width="91" height="5" style="fill:#5d3c2d;stroke:black;stroke-width:1;fill-opacity:1;stroke-opacity:0.3" />
<line x1="831" y1="121" x2="837" y2="123" stroke="black" stroke-width="1" />
<line x1="837" y1="123" x2="843" y2="121" stroke="black" stroke-width="1" />
<rect x="739" y="119" width="91" height="5" style="fill:#f5b024;stroke:black;stroke-width:1;fill-opacity:1;stroke-opacity:0.3" />
<rect x="843" y="119" width="91" height="5" style="fill:#f5b024;stroke:black;stroke-width:1;fill-opacity:1;stroke-opacity:0.3" />
<text x="15"  y="176" style="font-family:Arial;font-size:10;stroke:black;fill:black;">all.merged.bam</text>
</svg>
    
