<?xml version="1.0" encoding="utf-8" standalone="no"?>
<!DOCTYPE svg PUBLIC "-//W3C//DTD SVG 1.1//EN"
  "http://www.w3.org/Graphics/SVG/1.1/DTD/svg11.dtd">
<svg height="1140" width="1000" version="1.1" viewBox="0 0 1000 1140" xmlns="http://www.w3.org/2000/svg" xmlns:xlink="http://www.w3.org/1999/xlink">
<line x1="29" y1="11" x2="969" y2="11" stroke="black" stroke-width="1" />
<rect x="29" y="9" width="81" height="5" style="fill:#f50002;stroke:black;stroke-width:1;fill-opacity:1;stroke-opacity:0.3" />
<rect x="111" y="9" width="560" height="5" style="fill:#53a1b5;stroke:black;stroke-width:1;fill-opacity:1;stroke-opacity:0.3" />
<rect x="725" y="9" width="80" height="5" style="fill:#53a1b5;stroke:black;stroke-width:1;fill-opacity:1;stroke-opacity:0.3" />
<rect x="806" y="9" width="162" height="5" style="fill:#f50002;stroke:black;stroke-width:1;fill-opacity:1;stroke-opacity:0.3" />
<text x="29"  y="23" style="font-family:Arial;font-size:10;stroke:black;fill:black;">Cre08.g374926.t1.1.v5.5 (+) chromosome_8:3458887-3462048</text>
<line x1="48" y1="30" x2="50" y2="32" stroke="black" stroke-width="1" />
<line x1="50" y1="32" x2="53" y2="30" stroke="black" stroke-width="1" />
<rect x="18" y="28" width="29" height="5" style="fill:#5d3c2d;stroke:black;stroke-width:1;fill-opacity:1;stroke-opacity:0.3" />
<rect x="53" y="28" width="29" height="5" style="fill:#5d3c2d;stroke:black;stroke-width:1;fill-opacity:1;stroke-opacity:0.3" />
<line x1="91" y1="37" x2="96" y2="39" stroke="black" stroke-width="1" />
<line x1="96" y1="39" x2="101" y2="37" stroke="black" stroke-width="1" />
<rect x="61" y="35" width="29" height="5" style="fill:#5d3c2d;stroke:black;stroke-width:1;fill-opacity:1;stroke-opacity:0.3" />
<rect x="101" y="35" width="29" height="5" style="fill:#5d3c2d;stroke:black;stroke-width:1;fill-opacity:1;stroke-opacity:0.3" />
<line x1="125" y1="44" x2="127" y2="46" stroke="black" stroke-width="1" />
<line x1="127" y1="46" x2="130" y2="44" stroke="black" stroke-width="1" />
<rect x="81" y="42" width="44" height="5" style="fill:#5d3c2d;stroke:black;stroke-width:1;fill-opacity:1;stroke-opacity:0.3" />
<rect x="130" y="42" width="44" height="5" style="fill:#5d3c2d;stroke:black;stroke-width:1;fill-opacity:1;stroke-opacity:0.3" />
<line x1="135" y1="30" x2="141" y2="32" stroke="black" stroke-width="1" />
<line x1="141" y1="32" x2="147" y2="30" stroke="black" stroke-width="1" />
<rect x="105" y="28" width="29" height="5" style="fill:#5d3c2d;stroke:black;stroke-width:1;fill-opacity:1;stroke-opacity:0.3" />
<rect x="147" y="28" width="29" height="5" style="fill:#5d3c2d;stroke:black;stroke-width:1;fill-opacity:1;stroke-opacity:0.3" />
<line x1="221" y1="37" x2="225" y2="39" stroke="black" stroke-width="1" />
<line x1="225" y1="39" x2="229" y2="37" stroke="black" stroke-width="1" />
<rect x="176" y="35" width="44" height="5" style="fill:#5d3c2d;stroke:black;stroke-width:1;fill-opacity:1;stroke-opacity:0.3" />
<rect x="229" y="35" width="44" height="5" style="fill:#5d3c2d;stroke:black;stroke-width:1;fill-opacity:1;stroke-opacity:0.3" />
<line x1="214" y1="30" x2="233" y2="32" stroke="black" stroke-width="1" />
<line x1="233" y1="32" x2="252" y2="30" stroke="black" stroke-width="1" />
<rect x="185" y="28" width="29" height="5" style="fill:#5d3c2d;stroke:black;stroke-width:1;fill-opacity:1;stroke-opacity:0.3" />
<rect x="252" y="28" width="29" height="5" style="fill:#5d3c2d;stroke:black;stroke-width:1;fill-opacity:1;stroke-opacity:0.3" />
<line x1="220" y1="44" x2="221" y2="46" stroke="black" stroke-width="1" />
<line x1="221" y1="46" x2="223" y2="44" stroke="black" stroke-width="1" />
<rect x="190" y="42" width="29" height="5" style="fill:#5d3c2d;stroke:black;stroke-width:1;fill-opacity:1;stroke-opacity:0.3" />
<rect x="223" y="42" width="29" height="5" style="fill:#5d3c2d;stroke:black;stroke-width:1;fill-opacity:1;stroke-opacity:0.3" />
<line x1="248" y1="51" x2="259" y2="53" stroke="black" stroke-width="1" />
<line x1="259" y1="53" x2="270" y2="51" stroke="black" stroke-width="1" />
<rect x="218" y="49" width="29" height="5" style="fill:#5d3c2d;stroke:black;stroke-width:1;fill-opacity:1;stroke-opacity:0.3" />
<rect x="270" y="49" width="29" height="5" style="fill:#5d3c2d;stroke:black;stroke-width:1;fill-opacity:1;stroke-opacity:0.3" />
<line x1="261" y1="58" x2="269" y2="60" stroke="black" stroke-width="1" />
<line x1="269" y1="60" x2="277" y2="58" stroke="black" stroke-width="1" />
<rect x="231" y="56" width="29" height="5" style="fill:#5d3c2d;stroke:black;stroke-width:1;fill-opacity:1;stroke-opacity:0.3" />
<rect x="277" y="56" width="29" height="5" style="fill:#5d3c2d;stroke:black;stroke-width:1;fill-opacity:1;stroke-opacity:0.3" />
<line x1="285" y1="65" x2="287" y2="67" stroke="black" stroke-width="1" />
<line x1="287" y1="67" x2="290" y2="65" stroke="black" stroke-width="1" />
<rect x="240" y="63" width="44" height="5" style="fill:#5d3c2d;stroke:black;stroke-width:1;fill-opacity:1;stroke-opacity:0.3" />
<rect x="290" y="63" width="44" height="5" style="fill:#5d3c2d;stroke:black;stroke-width:1;fill-opacity:1;stroke-opacity:0.3" />
<line x1="277" y1="72" x2="284" y2="74" stroke="black" stroke-width="1" />
<line x1="284" y1="74" x2="291" y2="72" stroke="black" stroke-width="1" />
<rect x="247" y="70" width="29" height="5" style="fill:#5d3c2d;stroke:black;stroke-width:1;fill-opacity:1;stroke-opacity:0.3" />
<rect x="291" y="70" width="29" height="5" style="fill:#5d3c2d;stroke:black;stroke-width:1;fill-opacity:1;stroke-opacity:0.3" />
<line x1="295" y1="79" x2="312" y2="81" stroke="black" stroke-width="1" />
<line x1="312" y1="81" x2="329" y2="79" stroke="black" stroke-width="1" />
<rect x="251" y="77" width="44" height="5" style="fill:#5d3c2d;stroke:black;stroke-width:1;fill-opacity:1;stroke-opacity:0.3" />
<rect x="329" y="77" width="44" height="5" style="fill:#5d3c2d;stroke:black;stroke-width:1;fill-opacity:1;stroke-opacity:0.3" />
<line x1="288" y1="44" x2="295" y2="46" stroke="black" stroke-width="1" />
<line x1="295" y1="46" x2="303" y2="44" stroke="black" stroke-width="1" />
<rect x="259" y="42" width="29" height="5" style="fill:#5d3c2d;stroke:black;stroke-width:1;fill-opacity:1;stroke-opacity:0.3" />
<rect x="303" y="42" width="29" height="5" style="fill:#5d3c2d;stroke:black;stroke-width:1;fill-opacity:1;stroke-opacity:0.3" />
<line x1="300" y1="86" x2="301" y2="88" stroke="black" stroke-width="1" />
<line x1="301" y1="88" x2="303" y2="86" stroke="black" stroke-width="1" />
<rect x="270" y="84" width="29" height="5" style="fill:#5d3c2d;stroke:black;stroke-width:1;fill-opacity:1;stroke-opacity:0.3" />
<rect x="303" y="84" width="29" height="5" style="fill:#5d3c2d;stroke:black;stroke-width:1;fill-opacity:1;stroke-opacity:0.3" />
<line x1="312" y1="30" x2="314" y2="32" stroke="black" stroke-width="1" />
<line x1="314" y1="32" x2="317" y2="30" stroke="black" stroke-width="1" />
<rect x="282" y="28" width="29" height="5" style="fill:#5d3c2d;stroke:black;stroke-width:1;fill-opacity:1;stroke-opacity:0.3" />
<rect x="317" y="28" width="29" height="5" style="fill:#5d3c2d;stroke:black;stroke-width:1;fill-opacity:1;stroke-opacity:0.3" />
<line x1="361" y1="37" x2="370" y2="39" stroke="black" stroke-width="1" />
<line x1="370" y1="39" x2="380" y2="37" stroke="black" stroke-width="1" />
<rect x="331" y="35" width="29" height="5" style="fill:#f5b024;stroke:black;stroke-width:1;fill-opacity:1;stroke-opacity:0.3" />
<rect x="380" y="35" width="29" height="5" style="fill:#f5b024;stroke:black;stroke-width:1;fill-opacity:1;stroke-opacity:0.3" />
<line x1="366" y1="44" x2="369" y2="46" stroke="black" stroke-width="1" />
<line x1="369" y1="46" x2="372" y2="44" stroke="black" stroke-width="1" />
<rect x="336" y="42" width="29" height="5" style="fill:#5d3c2d;stroke:black;stroke-width:1;fill-opacity:1;stroke-opacity:0.3" />
<rect x="372" y="42" width="29" height="5" style="fill:#5d3c2d;stroke:black;stroke-width:1;fill-opacity:1;stroke-opacity:0.3" />
<line x1="435" y1="30" x2="440" y2="32" stroke="black" stroke-width="1" />
<line x1="440" y1="32" x2="446" y2="30" stroke="black" stroke-width="1" />
<rect x="405" y="28" width="29" height="5" style="fill:#5d3c2d;stroke:black;stroke-width:1;fill-opacity:1;stroke-opacity:0.3" />
<rect x="446" y="28" width="29" height="5" style="fill:#5d3c2d;stroke:black;stroke-width:1;fill-opacity:1;stroke-opacity:0.3" />
<line x1="476" y1="37" x2="486" y2="39" stroke="black" stroke-width="1" />
<line x1="486" y1="39" x2="496" y2="37" stroke="black" stroke-width="1" />
<rect x="431" y="35" width="44" height="5" style="fill:#5d3c2d;stroke:black;stroke-width:1;fill-opacity:1;stroke-opacity:0.3" />
<rect x="496" y="35" width="43" height="5" style="fill:#5d3c2d;stroke:black;stroke-width:1;fill-opacity:1;stroke-opacity:0.3" />
<line x1="482" y1="44" x2="483" y2="46" stroke="black" stroke-width="1" />
<line x1="483" y1="46" x2="485" y2="44" stroke="black" stroke-width="1" />
<rect x="453" y="42" width="29" height="5" style="fill:#5d3c2d;stroke:black;stroke-width:1;fill-opacity:1;stroke-opacity:0.3" />
<rect x="485" y="42" width="29" height="5" style="fill:#5d3c2d;stroke:black;stroke-width:1;fill-opacity:1;stroke-opacity:0.3" />
<line x1="498" y1="51" x2="504" y2="53" stroke="black" stroke-width="1" />
<line x1="504" y1="53" x2="510" y2="51" stroke="black" stroke-width="1" />
<rect x="468" y="49" width="29" height="5" style="fill:#5d3c2d;stroke:black;stroke-width:1;fill-opacity:1;stroke-opacity:0.3" />
<rect x="510" y="49" width="29" height="5" style="fill:#5d3c2d;stroke:black;stroke-width:1;fill-opacity:1;stroke-opacity:0.3" />
<line x1="547" y1="30" x2="554" y2="32" stroke="black" stroke-width="1" />
<line x1="554" y1="32" x2="562" y2="30" stroke="black" stroke-width="1" />
<rect x="518" y="28" width="28" height="5" style="fill:#5d3c2d;stroke:black;stroke-width:1;fill-opacity:1;stroke-opacity:0.3" />
<rect x="562" y="28" width="29" height="5" style="fill:#5d3c2d;stroke:black;stroke-width:1;fill-opacity:1;stroke-opacity:0.3" />
<line x1="553" y1="44" x2="557" y2="46" stroke="black" stroke-width="1" />
<line x1="557" y1="46" x2="562" y2="44" stroke="black" stroke-width="1" />
<rect x="523" y="42" width="29" height="5" style="fill:#5d3c2d;stroke:black;stroke-width:1;fill-opacity:1;stroke-opacity:0.3" />
<rect x="562" y="42" width="29" height="5" style="fill:#5d3c2d;stroke:black;stroke-width:1;fill-opacity:1;stroke-opacity:0.3" />
<line x1="553" y1="58" x2="556" y2="60" stroke="black" stroke-width="1" />
<line x1="556" y1="60" x2="559" y2="58" stroke="black" stroke-width="1" />
<rect x="523" y="56" width="29" height="5" style="fill:#5d3c2d;stroke:black;stroke-width:1;fill-opacity:1;stroke-opacity:0.3" />
<rect x="559" y="56" width="29" height="5" style="fill:#5d3c2d;stroke:black;stroke-width:1;fill-opacity:1;stroke-opacity:0.3" />
<line x1="561" y1="65" x2="564" y2="67" stroke="black" stroke-width="1" />
<line x1="564" y1="67" x2="567" y2="65" stroke="black" stroke-width="1" />
<rect x="531" y="63" width="29" height="5" style="fill:#5d3c2d;stroke:black;stroke-width:1;fill-opacity:1;stroke-opacity:0.3" />
<rect x="567" y="63" width="29" height="5" style="fill:#5d3c2d;stroke:black;stroke-width:1;fill-opacity:1;stroke-opacity:0.3" />
<line x1="568" y1="72" x2="570" y2="74" stroke="black" stroke-width="1" />
<line x1="570" y1="74" x2="573" y2="72" stroke="black" stroke-width="1" />
<rect x="538" y="70" width="29" height="5" style="fill:#f5b024;stroke:black;stroke-width:1;fill-opacity:1;stroke-opacity:0.3" />
<rect x="573" y="70" width="29" height="5" style="fill:#f5b024;stroke:black;stroke-width:1;fill-opacity:1;stroke-opacity:0.3" />
<line x1="601" y1="37" x2="609" y2="39" stroke="black" stroke-width="1" />
<line x1="609" y1="39" x2="618" y2="37" stroke="black" stroke-width="1" />
<rect x="571" y="35" width="29" height="5" style="fill:#f5b024;stroke:black;stroke-width:1;fill-opacity:1;stroke-opacity:0.3" />
<rect x="618" y="35" width="29" height="5" style="fill:#f5b024;stroke:black;stroke-width:1;fill-opacity:1;stroke-opacity:0.3" />
<line x1="619" y1="51" x2="623" y2="53" stroke="black" stroke-width="1" />
<line x1="623" y1="53" x2="628" y2="51" stroke="black" stroke-width="1" />
<rect x="575" y="49" width="44" height="5" style="fill:#f5b024;stroke:black;stroke-width:1;fill-opacity:1;stroke-opacity:0.3" />
<rect x="628" y="49" width="44" height="5" style="fill:#f5b024;stroke:black;stroke-width:1;fill-opacity:1;stroke-opacity:0.3" />
<line x1="672" y1="51" x2="718" y2="51" stroke="pink" stroke-width="1" />
<rect x="718" y="49" width="0" height="5" style="fill:#f5b024;stroke:black;stroke-width:1;fill-opacity:1;stroke-opacity:0.3" />
<line x1="608" y1="79" x2="610" y2="81" stroke="black" stroke-width="1" />
<line x1="610" y1="81" x2="612" y2="79" stroke="black" stroke-width="1" />
<rect x="579" y="77" width="29" height="5" style="fill:#5d3c2d;stroke:black;stroke-width:1;fill-opacity:1;stroke-opacity:0.3" />
<rect x="612" y="77" width="29" height="5" style="fill:#5d3c2d;stroke:black;stroke-width:1;fill-opacity:1;stroke-opacity:0.3" />
<line x1="614" y1="86" x2="628" y2="88" stroke="black" stroke-width="1" />
<line x1="628" y1="88" x2="642" y2="86" stroke="black" stroke-width="1" />
<rect x="584" y="84" width="29" height="5" style="fill:#5d3c2d;stroke:black;stroke-width:1;fill-opacity:1;stroke-opacity:0.3" />
<rect x="642" y="84" width="29" height="5" style="fill:#5d3c2d;stroke:black;stroke-width:1;fill-opacity:1;stroke-opacity:0.3" />
<line x1="618" y1="58" x2="620" y2="60" stroke="black" stroke-width="1" />
<line x1="620" y1="60" x2="622" y2="58" stroke="black" stroke-width="1" />
<rect x="589" y="56" width="29" height="5" style="fill:#5d3c2d;stroke:black;stroke-width:1;fill-opacity:1;stroke-opacity:0.3" />
<rect x="622" y="56" width="29" height="5" style="fill:#5d3c2d;stroke:black;stroke-width:1;fill-opacity:1;stroke-opacity:0.3" />
<line x1="636" y1="44" x2="639" y2="46" stroke="black" stroke-width="1" />
<line x1="639" y1="46" x2="642" y2="44" stroke="black" stroke-width="1" />
<rect x="591" y="42" width="44" height="5" style="fill:#5d3c2d;stroke:black;stroke-width:1;fill-opacity:1;stroke-opacity:0.3" />
<rect x="642" y="42" width="44" height="5" style="fill:#5d3c2d;stroke:black;stroke-width:1;fill-opacity:1;stroke-opacity:0.3" />
<line x1="639" y1="30" x2="642" y2="32" stroke="black" stroke-width="1" />
<line x1="642" y1="32" x2="646" y2="30" stroke="black" stroke-width="1" />
<rect x="594" y="28" width="44" height="5" style="fill:#5d3c2d;stroke:black;stroke-width:1;fill-opacity:1;stroke-opacity:0.3" />
<rect x="646" y="28" width="26" height="5" style="fill:#5d3c2d;stroke:black;stroke-width:1;fill-opacity:1;stroke-opacity:0.3" />
<line x1="672" y1="30" x2="725" y2="30" stroke="pink" stroke-width="1" />
<rect x="725" y="28" width="17" height="5" style="fill:#5d3c2d;stroke:black;stroke-width:1;fill-opacity:1;stroke-opacity:0.3" />
<line x1="626" y1="93" x2="629" y2="95" stroke="black" stroke-width="1" />
<line x1="629" y1="95" x2="632" y2="93" stroke="black" stroke-width="1" />
<rect x="596" y="91" width="29" height="5" style="fill:#f5b024;stroke:black;stroke-width:1;fill-opacity:1;stroke-opacity:0.3" />
<rect x="632" y="91" width="29" height="5" style="fill:#f5b024;stroke:black;stroke-width:1;fill-opacity:1;stroke-opacity:0.3" />
<line x1="631" y1="65" x2="634" y2="67" stroke="black" stroke-width="1" />
<line x1="634" y1="67" x2="638" y2="65" stroke="black" stroke-width="1" />
<rect x="601" y="63" width="29" height="5" style="fill:#5d3c2d;stroke:black;stroke-width:1;fill-opacity:1;stroke-opacity:0.3" />
<rect x="638" y="63" width="29" height="5" style="fill:#5d3c2d;stroke:black;stroke-width:1;fill-opacity:1;stroke-opacity:0.3" />
<line x1="635" y1="72" x2="637" y2="74" stroke="black" stroke-width="1" />
<line x1="637" y1="74" x2="639" y2="72" stroke="black" stroke-width="1" />
<rect x="606" y="70" width="29" height="5" style="fill:#5d3c2d;stroke:black;stroke-width:1;fill-opacity:1;stroke-opacity:0.3" />
<rect x="639" y="70" width="29" height="5" style="fill:#5d3c2d;stroke:black;stroke-width:1;fill-opacity:1;stroke-opacity:0.3" />
<line x1="676" y1="79" x2="681" y2="81" stroke="black" stroke-width="1" />
<line x1="681" y1="81" x2="686" y2="79" stroke="black" stroke-width="1" />
<rect x="647" y="77" width="29" height="5" style="fill:#5d3c2d;stroke:black;stroke-width:1;fill-opacity:1;stroke-opacity:0.3" />
<rect x="686" y="77" width="29" height="5" style="fill:#5d3c2d;stroke:black;stroke-width:1;fill-opacity:1;stroke-opacity:0.3" />
<line x1="735" y1="37" x2="740" y2="39" stroke="black" stroke-width="1" />
<line x1="740" y1="39" x2="746" y2="37" stroke="black" stroke-width="1" />
<rect x="652" y="35" width="20" height="5" style="fill:#5d3c2d;stroke:black;stroke-width:1;fill-opacity:1;stroke-opacity:0.3" />
<line x1="672" y1="37" x2="725" y2="37" stroke="pink" stroke-width="1" />
<rect x="725" y="35" width="9" height="5" style="fill:#5d3c2d;stroke:black;stroke-width:1;fill-opacity:1;stroke-opacity:0.3" />
<rect x="746" y="35" width="28" height="5" style="fill:#5d3c2d;stroke:black;stroke-width:1;fill-opacity:1;stroke-opacity:0.3" />
<line x1="749" y1="58" x2="753" y2="60" stroke="black" stroke-width="1" />
<line x1="753" y1="60" x2="758" y2="58" stroke="black" stroke-width="1" />
<rect x="666" y="56" width="5" height="5" style="fill:#5d3c2d;stroke:black;stroke-width:1;fill-opacity:1;stroke-opacity:0.3" />
<line x1="672" y1="58" x2="725" y2="58" stroke="pink" stroke-width="1" />
<rect x="725" y="56" width="23" height="5" style="fill:#5d3c2d;stroke:black;stroke-width:1;fill-opacity:1;stroke-opacity:0.3" />
<rect x="758" y="56" width="29" height="5" style="fill:#5d3c2d;stroke:black;stroke-width:1;fill-opacity:1;stroke-opacity:0.3" />
<line x1="753" y1="65" x2="756" y2="67" stroke="black" stroke-width="1" />
<line x1="756" y1="67" x2="759" y2="65" stroke="black" stroke-width="1" />
<rect x="670" y="63" width="2" height="5" style="fill:#5d3c2d;stroke:black;stroke-width:1;fill-opacity:1;stroke-opacity:0.3" />
<line x1="672" y1="65" x2="725" y2="65" stroke="pink" stroke-width="1" />
<rect x="725" y="63" width="27" height="5" style="fill:#5d3c2d;stroke:black;stroke-width:1;fill-opacity:1;stroke-opacity:0.3" />
<rect x="759" y="63" width="29" height="5" style="fill:#5d3c2d;stroke:black;stroke-width:1;fill-opacity:1;stroke-opacity:0.3" />
<line x1="753" y1="72" x2="755" y2="74" stroke="black" stroke-width="1" />
<line x1="755" y1="74" x2="757" y2="72" stroke="black" stroke-width="1" />
<rect x="670" y="70" width="2" height="5" style="fill:#5d3c2d;stroke:black;stroke-width:1;fill-opacity:1;stroke-opacity:0.3" />
<line x1="672" y1="72" x2="725" y2="72" stroke="pink" stroke-width="1" />
<rect x="725" y="70" width="27" height="5" style="fill:#5d3c2d;stroke:black;stroke-width:1;fill-opacity:1;stroke-opacity:0.3" />
<rect x="757" y="70" width="29" height="5" style="fill:#5d3c2d;stroke:black;stroke-width:1;fill-opacity:1;stroke-opacity:0.3" />
<line x1="769" y1="44" x2="775" y2="46" stroke="black" stroke-width="1" />
<line x1="775" y1="46" x2="782" y2="44" stroke="black" stroke-width="1" />
<rect x="739" y="42" width="29" height="5" style="fill:#5d3c2d;stroke:black;stroke-width:1;fill-opacity:1;stroke-opacity:0.3" />
<rect x="782" y="42" width="29" height="5" style="fill:#5d3c2d;stroke:black;stroke-width:1;fill-opacity:1;stroke-opacity:0.3" />
<line x1="771" y1="51" x2="778" y2="53" stroke="black" stroke-width="1" />
<line x1="778" y1="53" x2="786" y2="51" stroke="black" stroke-width="1" />
<rect x="742" y="49" width="29" height="5" style="fill:#5d3c2d;stroke:black;stroke-width:1;fill-opacity:1;stroke-opacity:0.3" />
<rect x="786" y="49" width="29" height="5" style="fill:#5d3c2d;stroke:black;stroke-width:1;fill-opacity:1;stroke-opacity:0.3" />
<line x1="774" y1="30" x2="778" y2="32" stroke="black" stroke-width="1" />
<line x1="778" y1="32" x2="783" y2="30" stroke="black" stroke-width="1" />
<rect x="744" y="28" width="29" height="5" style="fill:#5d3c2d;stroke:black;stroke-width:1;fill-opacity:1;stroke-opacity:0.3" />
<rect x="783" y="28" width="29" height="5" style="fill:#5d3c2d;stroke:black;stroke-width:1;fill-opacity:1;stroke-opacity:0.3" />
<line x1="780" y1="79" x2="781" y2="81" stroke="black" stroke-width="1" />
<line x1="781" y1="81" x2="783" y2="79" stroke="black" stroke-width="1" />
<rect x="750" y="77" width="29" height="5" style="fill:#5d3c2d;stroke:black;stroke-width:1;fill-opacity:1;stroke-opacity:0.3" />
<rect x="783" y="77" width="29" height="5" style="fill:#5d3c2d;stroke:black;stroke-width:1;fill-opacity:1;stroke-opacity:0.3" />
<line x1="791" y1="86" x2="798" y2="88" stroke="black" stroke-width="1" />
<line x1="798" y1="88" x2="805" y2="86" stroke="black" stroke-width="1" />
<rect x="762" y="84" width="29" height="5" style="fill:#5d3c2d;stroke:black;stroke-width:1;fill-opacity:1;stroke-opacity:0.3" />
<rect x="805" y="84" width="29" height="5" style="fill:#5d3c2d;stroke:black;stroke-width:1;fill-opacity:1;stroke-opacity:0.3" />
<line x1="790" y1="93" x2="795" y2="95" stroke="black" stroke-width="1" />
<line x1="795" y1="95" x2="800" y2="93" stroke="black" stroke-width="1" />
<rect x="762" y="91" width="28" height="5" style="fill:#5d3c2d;stroke:black;stroke-width:1;fill-opacity:1;stroke-opacity:0.3" />
<rect x="800" y="91" width="29" height="5" style="fill:#5d3c2d;stroke:black;stroke-width:1;fill-opacity:1;stroke-opacity:0.3" />
<line x1="811" y1="100" x2="825" y2="102" stroke="black" stroke-width="1" />
<line x1="825" y1="102" x2="840" y2="100" stroke="black" stroke-width="1" />
<rect x="767" y="98" width="44" height="5" style="fill:#f5b024;stroke:black;stroke-width:1;fill-opacity:1;stroke-opacity:0.3" />
<rect x="840" y="98" width="43" height="5" style="fill:#f5b024;stroke:black;stroke-width:1;fill-opacity:1;stroke-opacity:0.3" />
<line x1="802" y1="107" x2="808" y2="109" stroke="black" stroke-width="1" />
<line x1="808" y1="109" x2="814" y2="107" stroke="black" stroke-width="1" />
<rect x="773" y="105" width="29" height="5" style="fill:#f5b024;stroke:black;stroke-width:1;fill-opacity:1;stroke-opacity:0.3" />
<rect x="814" y="105" width="29" height="5" style="fill:#f5b024;stroke:black;stroke-width:1;fill-opacity:1;stroke-opacity:0.3" />
<line x1="803" y1="114" x2="806" y2="116" stroke="black" stroke-width="1" />
<line x1="806" y1="116" x2="809" y2="114" stroke="black" stroke-width="1" />
<rect x="774" y="112" width="29" height="5" style="fill:#f5b024;stroke:black;stroke-width:1;fill-opacity:1;stroke-opacity:0.3" />
<rect x="809" y="112" width="29" height="5" style="fill:#f5b024;stroke:black;stroke-width:1;fill-opacity:1;stroke-opacity:0.3" />
<line x1="818" y1="37" x2="822" y2="39" stroke="black" stroke-width="1" />
<line x1="822" y1="39" x2="827" y2="37" stroke="black" stroke-width="1" />
<rect x="789" y="35" width="29" height="5" style="fill:#5d3c2d;stroke:black;stroke-width:1;fill-opacity:1;stroke-opacity:0.3" />
<rect x="827" y="35" width="29" height="5" style="fill:#5d3c2d;stroke:black;stroke-width:1;fill-opacity:1;stroke-opacity:0.3" />
<line x1="836" y1="58" x2="838" y2="60" stroke="black" stroke-width="1" />
<line x1="838" y1="60" x2="840" y2="58" stroke="black" stroke-width="1" />
<rect x="806" y="56" width="29" height="5" style="fill:#5d3c2d;stroke:black;stroke-width:1;fill-opacity:1;stroke-opacity:0.3" />
<rect x="840" y="56" width="29" height="5" style="fill:#5d3c2d;stroke:black;stroke-width:1;fill-opacity:1;stroke-opacity:0.3" />
<line x1="855" y1="65" x2="857" y2="67" stroke="black" stroke-width="1" />
<line x1="857" y1="67" x2="859" y2="65" stroke="black" stroke-width="1" />
<rect x="811" y="63" width="44" height="5" style="fill:#f5b024;stroke:black;stroke-width:1;fill-opacity:1;stroke-opacity:0.3" />
<rect x="859" y="63" width="44" height="5" style="fill:#f5b024;stroke:black;stroke-width:1;fill-opacity:1;stroke-opacity:0.3" />
<line x1="841" y1="72" x2="845" y2="74" stroke="black" stroke-width="1" />
<line x1="845" y1="74" x2="850" y2="72" stroke="black" stroke-width="1" />
<rect x="812" y="70" width="29" height="5" style="fill:#5d3c2d;stroke:black;stroke-width:1;fill-opacity:1;stroke-opacity:0.3" />
<rect x="850" y="70" width="29" height="5" style="fill:#5d3c2d;stroke:black;stroke-width:1;fill-opacity:1;stroke-opacity:0.3" />
<line x1="842" y1="121" x2="845" y2="123" stroke="black" stroke-width="1" />
<line x1="845" y1="123" x2="849" y2="121" stroke="black" stroke-width="1" />
<rect x="812" y="119" width="29" height="5" style="fill:#5d3c2d;stroke:black;stroke-width:1;fill-opacity:1;stroke-opacity:0.3" />
<rect x="849" y="119" width="29" height="5" style="fill:#5d3c2d;stroke:black;stroke-width:1;fill-opacity:1;stroke-opacity:0.3" />
<line x1="848" y1="30" x2="853" y2="32" stroke="black" stroke-width="1" />
<line x1="853" y1="32" x2="858" y2="30" stroke="black" stroke-width="1" />
<rect x="818" y="28" width="29" height="5" style="fill:#5d3c2d;stroke:black;stroke-width:1;fill-opacity:1;stroke-opacity:0.3" />
<rect x="858" y="28" width="29" height="5" style="fill:#5d3c2d;stroke:black;stroke-width:1;fill-opacity:1;stroke-opacity:0.3" />
<line x1="875" y1="44" x2="878" y2="46" stroke="black" stroke-width="1" />
<line x1="878" y1="46" x2="881" y2="44" stroke="black" stroke-width="1" />
<rect x="830" y="42" width="44" height="5" style="fill:#5d3c2d;stroke:black;stroke-width:1;fill-opacity:1;stroke-opacity:0.3" />
<rect x="881" y="42" width="41" height="5" style="fill:#5d3c2d;stroke:black;stroke-width:1;fill-opacity:1;stroke-opacity:0.3" />
<line x1="875" y1="51" x2="876" y2="53" stroke="black" stroke-width="1" />
<line x1="876" y1="53" x2="878" y2="51" stroke="black" stroke-width="1" />
<rect x="831" y="49" width="44" height="5" style="fill:#5d3c2d;stroke:black;stroke-width:1;fill-opacity:1;stroke-opacity:0.3" />
<rect x="878" y="49" width="44" height="5" style="fill:#5d3c2d;stroke:black;stroke-width:1;fill-opacity:1;stroke-opacity:0.3" />
<line x1="865" y1="79" x2="868" y2="81" stroke="black" stroke-width="1" />
<line x1="868" y1="81" x2="872" y2="79" stroke="black" stroke-width="1" />
<rect x="835" y="77" width="29" height="5" style="fill:#5d3c2d;stroke:black;stroke-width:1;fill-opacity:1;stroke-opacity:0.3" />
<rect x="872" y="77" width="29" height="5" style="fill:#5d3c2d;stroke:black;stroke-width:1;fill-opacity:1;stroke-opacity:0.3" />
<line x1="875" y1="86" x2="884" y2="88" stroke="black" stroke-width="1" />
<line x1="884" y1="88" x2="893" y2="86" stroke="black" stroke-width="1" />
<rect x="845" y="84" width="29" height="5" style="fill:#5d3c2d;stroke:black;stroke-width:1;fill-opacity:1;stroke-opacity:0.3" />
<rect x="893" y="84" width="29" height="5" style="fill:#5d3c2d;stroke:black;stroke-width:1;fill-opacity:1;stroke-opacity:0.3" />
<line x1="881" y1="93" x2="887" y2="95" stroke="black" stroke-width="1" />
<line x1="887" y1="95" x2="893" y2="93" stroke="black" stroke-width="1" />
<rect x="851" y="91" width="29" height="5" style="fill:#5d3c2d;stroke:black;stroke-width:1;fill-opacity:1;stroke-opacity:0.3" />
<rect x="893" y="91" width="29" height="5" style="fill:#5d3c2d;stroke:black;stroke-width:1;fill-opacity:1;stroke-opacity:0.3" />
<line x1="881" y1="107" x2="883" y2="109" stroke="black" stroke-width="1" />
<line x1="883" y1="109" x2="886" y2="107" stroke="black" stroke-width="1" />
<rect x="851" y="105" width="29" height="5" style="fill:#5d3c2d;stroke:black;stroke-width:1;fill-opacity:1;stroke-opacity:0.3" />
<rect x="886" y="105" width="29" height="5" style="fill:#5d3c2d;stroke:black;stroke-width:1;fill-opacity:1;stroke-opacity:0.3" />
<line x1="896" y1="37" x2="901" y2="39" stroke="black" stroke-width="1" />
<line x1="901" y1="39" x2="906" y2="37" stroke="black" stroke-width="1" />
<rect x="866" y="35" width="29" height="5" style="fill:#5d3c2d;stroke:black;stroke-width:1;fill-opacity:1;stroke-opacity:0.3" />
<rect x="906" y="35" width="29" height="5" style="fill:#5d3c2d;stroke:black;stroke-width:1;fill-opacity:1;stroke-opacity:0.3" />
<line x1="899" y1="114" x2="906" y2="116" stroke="black" stroke-width="1" />
<line x1="906" y1="116" x2="913" y2="114" stroke="black" stroke-width="1" />
<rect x="869" y="112" width="29" height="5" style="fill:#5d3c2d;stroke:black;stroke-width:1;fill-opacity:1;stroke-opacity:0.3" />
<rect x="913" y="112" width="29" height="5" style="fill:#5d3c2d;stroke:black;stroke-width:1;fill-opacity:1;stroke-opacity:0.3" />
<line x1="902" y1="58" x2="907" y2="60" stroke="black" stroke-width="1" />
<line x1="907" y1="60" x2="913" y2="58" stroke="black" stroke-width="1" />
<rect x="872" y="56" width="29" height="5" style="fill:#5d3c2d;stroke:black;stroke-width:1;fill-opacity:1;stroke-opacity:0.3" />
<rect x="913" y="56" width="29" height="5" style="fill:#5d3c2d;stroke:black;stroke-width:1;fill-opacity:1;stroke-opacity:0.3" />
<line x1="904" y1="128" x2="908" y2="130" stroke="black" stroke-width="1" />
<line x1="908" y1="130" x2="913" y2="128" stroke="black" stroke-width="1" />
<rect x="875" y="126" width="29" height="5" style="fill:#5d3c2d;stroke:black;stroke-width:1;fill-opacity:1;stroke-opacity:0.3" />
<rect x="913" y="126" width="29" height="5" style="fill:#5d3c2d;stroke:black;stroke-width:1;fill-opacity:1;stroke-opacity:0.3" />
<line x1="921" y1="30" x2="926" y2="32" stroke="black" stroke-width="1" />
<line x1="926" y1="32" x2="931" y2="30" stroke="black" stroke-width="1" />
<rect x="891" y="28" width="29" height="5" style="fill:#5d3c2d;stroke:black;stroke-width:1;fill-opacity:1;stroke-opacity:0.3" />
<rect x="931" y="28" width="29" height="5" style="fill:#5d3c2d;stroke:black;stroke-width:1;fill-opacity:1;stroke-opacity:0.3" />
<text x="15"  y="176" style="font-family:Arial;font-size:10;stroke:black;fill:black;">all.merged.bam</text>
</svg>
    
