<?xml version="1.0" encoding="utf-8" standalone="no"?>
<!DOCTYPE svg PUBLIC "-//W3C//DTD SVG 1.1//EN"
  "http://www.w3.org/Graphics/SVG/1.1/DTD/svg11.dtd">
<svg height="1140" width="1000" version="1.1" viewBox="0 0 1000 1140" xmlns="http://www.w3.org/2000/svg" xmlns:xlink="http://www.w3.org/1999/xlink">
<line x1="28" y1="11" x2="970" y2="11" stroke="black" stroke-width="1" />
<rect x="28" y="9" width="204" height="5" style="fill:#f50002;stroke:black;stroke-width:1;fill-opacity:1;stroke-opacity:0.3" />
<rect x="783" y="9" width="2" height="5" style="fill:#f50002;stroke:black;stroke-width:1;fill-opacity:1;stroke-opacity:0.3" />
<rect x="786" y="9" width="62" height="5" style="fill:#53a1b5;stroke:black;stroke-width:1;fill-opacity:1;stroke-opacity:0.3" />
<rect x="887" y="9" width="9" height="5" style="fill:#53a1b5;stroke:black;stroke-width:1;fill-opacity:1;stroke-opacity:0.3" />
<rect x="897" y="9" width="73" height="5" style="fill:#f50002;stroke:black;stroke-width:1;fill-opacity:1;stroke-opacity:0.3" />
<text x="28"  y="23" style="font-family:Arial;font-size:10;stroke:black;fill:black;">Cre08.g359166.t1.1.v5.5 (-) chromosome_8:530246-533512</text>
<line x1="58" y1="30" x2="216" y2="32" stroke="black" stroke-width="1" />
<line x1="216" y1="32" x2="374" y2="30" stroke="black" stroke-width="1" />
<rect x="29" y="28" width="28" height="5" style="fill:#5d3c2d;stroke:black;stroke-width:1;fill-opacity:1;stroke-opacity:0.3" />
<rect x="374" y="28" width="28" height="5" style="fill:#5d3c2d;stroke:black;stroke-width:1;fill-opacity:1;stroke-opacity:0.3" />
<line x1="64" y1="37" x2="214" y2="39" stroke="black" stroke-width="1" />
<line x1="214" y1="39" x2="364" y2="37" stroke="black" stroke-width="1" />
<rect x="35" y="35" width="28" height="5" style="fill:#5d3c2d;stroke:black;stroke-width:1;fill-opacity:1;stroke-opacity:0.3" />
<rect x="364" y="35" width="28" height="5" style="fill:#5d3c2d;stroke:black;stroke-width:1;fill-opacity:1;stroke-opacity:0.3" />
<line x1="78" y1="44" x2="214" y2="46" stroke="black" stroke-width="1" />
<line x1="214" y1="46" x2="350" y2="44" stroke="black" stroke-width="1" />
<rect x="35" y="42" width="42" height="5" style="fill:#5d3c2d;stroke:black;stroke-width:1;fill-opacity:1;stroke-opacity:0.3" />
<rect x="350" y="42" width="42" height="5" style="fill:#5d3c2d;stroke:black;stroke-width:1;fill-opacity:1;stroke-opacity:0.3" />
<line x1="81" y1="51" x2="222" y2="53" stroke="black" stroke-width="1" />
<line x1="222" y1="53" x2="364" y2="51" stroke="black" stroke-width="1" />
<rect x="38" y="49" width="42" height="5" style="fill:#f5b024;stroke:black;stroke-width:1;fill-opacity:1;stroke-opacity:0.3" />
<rect x="364" y="49" width="43" height="5" style="fill:#f5b024;stroke:black;stroke-width:1;fill-opacity:1;stroke-opacity:0.3" />
<line x1="76" y1="58" x2="231" y2="60" stroke="black" stroke-width="1" />
<line x1="231" y1="60" x2="387" y2="58" stroke="black" stroke-width="1" />
<rect x="47" y="56" width="28" height="5" style="fill:#f5b024;stroke:black;stroke-width:1;fill-opacity:1;stroke-opacity:0.3" />
<rect x="387" y="56" width="28" height="5" style="fill:#f5b024;stroke:black;stroke-width:1;fill-opacity:1;stroke-opacity:0.3" />
<line x1="89" y1="65" x2="226" y2="67" stroke="black" stroke-width="1" />
<line x1="226" y1="67" x2="364" y2="65" stroke="black" stroke-width="1" />
<rect x="47" y="63" width="42" height="5" style="fill:#f5b024;stroke:black;stroke-width:1;fill-opacity:1;stroke-opacity:0.3" />
<rect x="364" y="63" width="43" height="5" style="fill:#f5b024;stroke:black;stroke-width:1;fill-opacity:1;stroke-opacity:0.3" />
<line x1="104" y1="72" x2="258" y2="74" stroke="black" stroke-width="1" />
<line x1="258" y1="74" x2="413" y2="72" stroke="black" stroke-width="1" />
<rect x="76" y="70" width="28" height="5" style="fill:#f5b024;stroke:black;stroke-width:1;fill-opacity:1;stroke-opacity:0.3" />
<rect x="413" y="70" width="28" height="5" style="fill:#f5b024;stroke:black;stroke-width:1;fill-opacity:1;stroke-opacity:0.3" />
<line x1="111" y1="79" x2="114" y2="81" stroke="black" stroke-width="1" />
<line x1="114" y1="81" x2="117" y2="79" stroke="black" stroke-width="1" />
<rect x="82" y="77" width="28" height="5" style="fill:#f5b024;stroke:black;stroke-width:1;fill-opacity:1;stroke-opacity:0.3" />
<rect x="117" y="77" width="28" height="5" style="fill:#f5b024;stroke:black;stroke-width:1;fill-opacity:1;stroke-opacity:0.3" />
<line x1="139" y1="86" x2="295" y2="88" stroke="black" stroke-width="1" />
<line x1="295" y1="88" x2="451" y2="86" stroke="black" stroke-width="1" />
<rect x="110" y="84" width="28" height="5" style="fill:#f5b024;stroke:black;stroke-width:1;fill-opacity:1;stroke-opacity:0.3" />
<rect x="451" y="84" width="28" height="5" style="fill:#f5b024;stroke:black;stroke-width:1;fill-opacity:1;stroke-opacity:0.3" />
<line x1="158" y1="93" x2="162" y2="95" stroke="black" stroke-width="1" />
<line x1="162" y1="95" x2="166" y2="93" stroke="black" stroke-width="1" />
<rect x="129" y="91" width="28" height="5" style="fill:#f5b024;stroke:black;stroke-width:1;fill-opacity:1;stroke-opacity:0.3" />
<rect x="166" y="91" width="28" height="5" style="fill:#f5b024;stroke:black;stroke-width:1;fill-opacity:1;stroke-opacity:0.3" />
<line x1="173" y1="100" x2="323" y2="102" stroke="black" stroke-width="1" />
<line x1="323" y1="102" x2="473" y2="100" stroke="black" stroke-width="1" />
<rect x="144" y="98" width="28" height="5" style="fill:#f5b024;stroke:black;stroke-width:1;fill-opacity:1;stroke-opacity:0.3" />
<rect x="473" y="98" width="28" height="5" style="fill:#f5b024;stroke:black;stroke-width:1;fill-opacity:1;stroke-opacity:0.3" />
<line x1="173" y1="107" x2="330" y2="109" stroke="black" stroke-width="1" />
<line x1="330" y1="109" x2="488" y2="107" stroke="black" stroke-width="1" />
<rect x="144" y="105" width="28" height="5" style="fill:#f5b024;stroke:black;stroke-width:1;fill-opacity:1;stroke-opacity:0.3" />
<rect x="488" y="105" width="28" height="5" style="fill:#f5b024;stroke:black;stroke-width:1;fill-opacity:1;stroke-opacity:0.3" />
<line x1="176" y1="79" x2="325" y2="81" stroke="black" stroke-width="1" />
<line x1="325" y1="81" x2="475" y2="79" stroke="black" stroke-width="1" />
<rect x="147" y="77" width="28" height="5" style="fill:#5d3c2d;stroke:black;stroke-width:1;fill-opacity:1;stroke-opacity:0.3" />
<rect x="475" y="77" width="28" height="5" style="fill:#5d3c2d;stroke:black;stroke-width:1;fill-opacity:1;stroke-opacity:0.3" />
<line x1="193" y1="114" x2="329" y2="116" stroke="black" stroke-width="1" />
<line x1="329" y1="116" x2="466" y2="114" stroke="black" stroke-width="1" />
<rect x="156" y="112" width="36" height="5" style="fill:#5d3c2d;stroke:black;stroke-width:1;fill-opacity:1;stroke-opacity:0.3" />
<rect x="466" y="112" width="36" height="5" style="fill:#5d3c2d;stroke:black;stroke-width:1;fill-opacity:1;stroke-opacity:0.3" />
<line x1="203" y1="121" x2="340" y2="123" stroke="black" stroke-width="1" />
<line x1="340" y1="123" x2="477" y2="121" stroke="black" stroke-width="1" />
<rect x="167" y="119" width="36" height="5" style="fill:#f5b024;stroke:black;stroke-width:1;fill-opacity:1;stroke-opacity:0.3" />
<rect x="477" y="119" width="36" height="5" style="fill:#f5b024;stroke:black;stroke-width:1;fill-opacity:1;stroke-opacity:0.3" />
<line x1="217" y1="128" x2="354" y2="130" stroke="black" stroke-width="1" />
<line x1="354" y1="130" x2="492" y2="128" stroke="black" stroke-width="1" />
<rect x="173" y="126" width="43" height="5" style="fill:#f5b024;stroke:black;stroke-width:1;fill-opacity:1;stroke-opacity:0.3" />
<rect x="492" y="126" width="43" height="5" style="fill:#f5b024;stroke:black;stroke-width:1;fill-opacity:1;stroke-opacity:0.3" />
<line x1="202" y1="135" x2="353" y2="137" stroke="black" stroke-width="1" />
<line x1="353" y1="137" x2="504" y2="135" stroke="black" stroke-width="1" />
<rect x="175" y="133" width="27" height="5" style="fill:#f5b024;stroke:black;stroke-width:1;fill-opacity:1;stroke-opacity:0.3" />
<rect x="504" y="133" width="28" height="5" style="fill:#f5b024;stroke:black;stroke-width:1;fill-opacity:1;stroke-opacity:0.3" />
<line x1="202" y1="142" x2="357" y2="144" stroke="black" stroke-width="1" />
<line x1="357" y1="144" x2="513" y2="142" stroke="black" stroke-width="1" />
<rect x="175" y="140" width="27" height="5" style="fill:#f5b024;stroke:black;stroke-width:1;fill-opacity:1;stroke-opacity:0.3" />
<rect x="513" y="140" width="28" height="5" style="fill:#f5b024;stroke:black;stroke-width:1;fill-opacity:1;stroke-opacity:0.3" />
<line x1="274" y1="93" x2="424" y2="95" stroke="black" stroke-width="1" />
<line x1="424" y1="95" x2="575" y2="93" stroke="black" stroke-width="1" />
<rect x="245" y="91" width="28" height="5" style="fill:#f5b024;stroke:black;stroke-width:1;fill-opacity:1;stroke-opacity:0.3" />
<rect x="575" y="91" width="28" height="5" style="fill:#f5b024;stroke:black;stroke-width:1;fill-opacity:1;stroke-opacity:0.3" />
<line x1="276" y1="149" x2="425" y2="151" stroke="black" stroke-width="1" />
<line x1="425" y1="151" x2="574" y2="149" stroke="black" stroke-width="1" />
<rect x="247" y="147" width="28" height="5" style="fill:#f5b024;stroke:black;stroke-width:1;fill-opacity:1;stroke-opacity:0.3" />
<rect x="574" y="147" width="28" height="5" style="fill:#f5b024;stroke:black;stroke-width:1;fill-opacity:1;stroke-opacity:0.3" />
<line x1="385" y1="156" x2="387" y2="158" stroke="black" stroke-width="1" />
<line x1="387" y1="158" x2="389" y2="156" stroke="black" stroke-width="1" />
<rect x="357" y="154" width="28" height="5" style="fill:#f5b024;stroke:black;stroke-width:1;fill-opacity:1;stroke-opacity:0.3" />
<rect x="389" y="154" width="28" height="5" style="fill:#f5b024;stroke:black;stroke-width:1;fill-opacity:1;stroke-opacity:0.3" />
<line x1="422" y1="37" x2="424" y2="39" stroke="black" stroke-width="1" />
<line x1="424" y1="39" x2="427" y2="37" stroke="black" stroke-width="1" />
<rect x="393" y="35" width="28" height="5" style="fill:#f5b024;stroke:black;stroke-width:1;fill-opacity:1;stroke-opacity:0.3" />
<rect x="427" y="35" width="28" height="5" style="fill:#f5b024;stroke:black;stroke-width:1;fill-opacity:1;stroke-opacity:0.3" />
<line x1="439" y1="30" x2="450" y2="32" stroke="black" stroke-width="1" />
<line x1="450" y1="32" x2="461" y2="30" stroke="black" stroke-width="1" />
<rect x="410" y="28" width="28" height="5" style="fill:#f5b024;stroke:black;stroke-width:1;fill-opacity:1;stroke-opacity:0.3" />
<rect x="461" y="28" width="28" height="5" style="fill:#f5b024;stroke:black;stroke-width:1;fill-opacity:1;stroke-opacity:0.3" />
<line x1="472" y1="44" x2="475" y2="46" stroke="black" stroke-width="1" />
<line x1="475" y1="46" x2="479" y2="44" stroke="black" stroke-width="1" />
<rect x="443" y="42" width="28" height="5" style="fill:#f5b024;stroke:black;stroke-width:1;fill-opacity:1;stroke-opacity:0.3" />
<rect x="479" y="42" width="28" height="5" style="fill:#f5b024;stroke:black;stroke-width:1;fill-opacity:1;stroke-opacity:0.3" />
<line x1="478" y1="51" x2="482" y2="53" stroke="black" stroke-width="1" />
<line x1="482" y1="53" x2="487" y2="51" stroke="black" stroke-width="1" />
<rect x="449" y="49" width="28" height="5" style="fill:#f5b024;stroke:black;stroke-width:1;fill-opacity:1;stroke-opacity:0.3" />
<rect x="487" y="49" width="28" height="5" style="fill:#f5b024;stroke:black;stroke-width:1;fill-opacity:1;stroke-opacity:0.3" />
<line x1="504" y1="37" x2="515" y2="39" stroke="black" stroke-width="1" />
<line x1="515" y1="39" x2="527" y2="37" stroke="black" stroke-width="1" />
<rect x="475" y="35" width="28" height="5" style="fill:#f5b024;stroke:black;stroke-width:1;fill-opacity:1;stroke-opacity:0.3" />
<rect x="527" y="35" width="28" height="5" style="fill:#f5b024;stroke:black;stroke-width:1;fill-opacity:1;stroke-opacity:0.3" />
<text x="15"  y="176" style="font-family:Arial;font-size:10;stroke:black;fill:black;">all.merged.bam</text>
</svg>
    
