<?xml version="1.0" encoding="utf-8" standalone="no"?>
<!DOCTYPE svg PUBLIC "-//W3C//DTD SVG 1.1//EN"
  "http://www.w3.org/Graphics/SVG/1.1/DTD/svg11.dtd">
<svg height="1140" width="1000" version="1.1" viewBox="0 0 1000 1140" xmlns="http://www.w3.org/2000/svg" xmlns:xlink="http://www.w3.org/1999/xlink">
<line x1="35" y1="11" x2="964" y2="11" stroke="black" stroke-width="1" />
<rect x="35" y="9" width="186" height="5" style="fill:#f50002;stroke:black;stroke-width:1;fill-opacity:1;stroke-opacity:0.3" />
<rect x="222" y="9" width="105" height="5" style="fill:#53a1b5;stroke:black;stroke-width:1;fill-opacity:1;stroke-opacity:0.3" />
<rect x="377" y="9" width="566" height="5" style="fill:#53a1b5;stroke:black;stroke-width:1;fill-opacity:1;stroke-opacity:0.3" />
<rect x="944" y="9" width="19" height="5" style="fill:#f50002;stroke:black;stroke-width:1;fill-opacity:1;stroke-opacity:0.3" />
<text x="35"  y="23" style="font-family:Arial;font-size:10;stroke:black;fill:black;">Cre07.g341552.t1.1.v5.5 (+) chromosome_7:4288391-4291025</text>
<line x1="77" y1="30" x2="85" y2="32" stroke="black" stroke-width="1" />
<line x1="85" y1="32" x2="94" y2="30" stroke="black" stroke-width="1" />
<rect x="41" y="28" width="35" height="5" style="fill:#5d3c2d;stroke:black;stroke-width:1;fill-opacity:1;stroke-opacity:0.3" />
<rect x="94" y="28" width="35" height="5" style="fill:#5d3c2d;stroke:black;stroke-width:1;fill-opacity:1;stroke-opacity:0.3" />
<line x1="210" y1="30" x2="212" y2="32" stroke="black" stroke-width="1" />
<line x1="212" y1="32" x2="214" y2="30" stroke="black" stroke-width="1" />
<rect x="157" y="28" width="52" height="5" style="fill:#5d3c2d;stroke:black;stroke-width:1;fill-opacity:1;stroke-opacity:0.3" />
<rect x="214" y="28" width="52" height="5" style="fill:#5d3c2d;stroke:black;stroke-width:1;fill-opacity:1;stroke-opacity:0.3" />
<line x1="197" y1="37" x2="211" y2="39" stroke="black" stroke-width="1" />
<line x1="211" y1="39" x2="226" y2="37" stroke="black" stroke-width="1" />
<rect x="162" y="35" width="35" height="5" style="fill:#5d3c2d;stroke:black;stroke-width:1;fill-opacity:1;stroke-opacity:0.3" />
<rect x="226" y="35" width="35" height="5" style="fill:#5d3c2d;stroke:black;stroke-width:1;fill-opacity:1;stroke-opacity:0.3" />
<line x1="207" y1="44" x2="215" y2="46" stroke="black" stroke-width="1" />
<line x1="215" y1="46" x2="224" y2="44" stroke="black" stroke-width="1" />
<rect x="172" y="42" width="35" height="5" style="fill:#5d3c2d;stroke:black;stroke-width:1;fill-opacity:1;stroke-opacity:0.3" />
<rect x="224" y="42" width="35" height="5" style="fill:#5d3c2d;stroke:black;stroke-width:1;fill-opacity:1;stroke-opacity:0.3" />
<line x1="208" y1="51" x2="211" y2="53" stroke="black" stroke-width="1" />
<line x1="211" y1="53" x2="215" y2="51" stroke="black" stroke-width="1" />
<rect x="173" y="49" width="35" height="5" style="fill:#5d3c2d;stroke:black;stroke-width:1;fill-opacity:1;stroke-opacity:0.3" />
<rect x="215" y="49" width="35" height="5" style="fill:#5d3c2d;stroke:black;stroke-width:1;fill-opacity:1;stroke-opacity:0.3" />
<line x1="241" y1="58" x2="246" y2="60" stroke="black" stroke-width="1" />
<line x1="246" y1="60" x2="252" y2="58" stroke="black" stroke-width="1" />
<rect x="206" y="56" width="35" height="5" style="fill:#5d3c2d;stroke:black;stroke-width:1;fill-opacity:1;stroke-opacity:0.3" />
<rect x="252" y="56" width="35" height="5" style="fill:#5d3c2d;stroke:black;stroke-width:1;fill-opacity:1;stroke-opacity:0.3" />
<line x1="244" y1="65" x2="255" y2="67" stroke="black" stroke-width="1" />
<line x1="255" y1="67" x2="266" y2="65" stroke="black" stroke-width="1" />
<rect x="209" y="63" width="35" height="5" style="fill:#5d3c2d;stroke:black;stroke-width:1;fill-opacity:1;stroke-opacity:0.3" />
<rect x="266" y="63" width="35" height="5" style="fill:#5d3c2d;stroke:black;stroke-width:1;fill-opacity:1;stroke-opacity:0.3" />
<line x1="245" y1="72" x2="261" y2="74" stroke="black" stroke-width="1" />
<line x1="261" y1="74" x2="277" y2="72" stroke="black" stroke-width="1" />
<rect x="209" y="70" width="35" height="5" style="fill:#5d3c2d;stroke:black;stroke-width:1;fill-opacity:1;stroke-opacity:0.3" />
<rect x="277" y="70" width="33" height="5" style="fill:#5d3c2d;stroke:black;stroke-width:1;fill-opacity:1;stroke-opacity:0.3" />
<line x1="271" y1="79" x2="280" y2="81" stroke="black" stroke-width="1" />
<line x1="280" y1="81" x2="289" y2="79" stroke="black" stroke-width="1" />
<rect x="236" y="77" width="35" height="5" style="fill:#5d3c2d;stroke:black;stroke-width:1;fill-opacity:1;stroke-opacity:0.3" />
<rect x="289" y="77" width="35" height="5" style="fill:#5d3c2d;stroke:black;stroke-width:1;fill-opacity:1;stroke-opacity:0.3" />
<line x1="317" y1="30" x2="321" y2="32" stroke="black" stroke-width="1" />
<line x1="321" y1="32" x2="326" y2="30" stroke="black" stroke-width="1" />
<rect x="281" y="28" width="35" height="5" style="fill:#5d3c2d;stroke:black;stroke-width:1;fill-opacity:1;stroke-opacity:0.3" />
<rect x="326" y="28" width="34" height="5" style="fill:#5d3c2d;stroke:black;stroke-width:1;fill-opacity:1;stroke-opacity:0.3" />
<line x1="321" y1="37" x2="323" y2="39" stroke="black" stroke-width="1" />
<line x1="323" y1="39" x2="326" y2="37" stroke="black" stroke-width="1" />
<rect x="286" y="35" width="35" height="5" style="fill:#5d3c2d;stroke:black;stroke-width:1;fill-opacity:1;stroke-opacity:0.3" />
<rect x="326" y="35" width="35" height="5" style="fill:#5d3c2d;stroke:black;stroke-width:1;fill-opacity:1;stroke-opacity:0.3" />
<line x1="331" y1="44" x2="339" y2="46" stroke="black" stroke-width="1" />
<line x1="339" y1="46" x2="348" y2="44" stroke="black" stroke-width="1" />
<rect x="296" y="42" width="35" height="5" style="fill:#5d3c2d;stroke:black;stroke-width:1;fill-opacity:1;stroke-opacity:0.3" />
<rect x="348" y="42" width="35" height="5" style="fill:#5d3c2d;stroke:black;stroke-width:1;fill-opacity:1;stroke-opacity:0.3" />
<line x1="812" y1="30" x2="815" y2="32" stroke="black" stroke-width="1" />
<line x1="815" y1="32" x2="818" y2="30" stroke="black" stroke-width="1" />
<rect x="777" y="28" width="35" height="5" style="fill:#5d3c2d;stroke:black;stroke-width:1;fill-opacity:1;stroke-opacity:0.3" />
<rect x="818" y="28" width="34" height="5" style="fill:#5d3c2d;stroke:black;stroke-width:1;fill-opacity:1;stroke-opacity:0.3" />
<line x1="814" y1="37" x2="815" y2="39" stroke="black" stroke-width="1" />
<line x1="815" y1="39" x2="817" y2="37" stroke="black" stroke-width="1" />
<rect x="779" y="35" width="35" height="5" style="fill:#5d3c2d;stroke:black;stroke-width:1;fill-opacity:1;stroke-opacity:0.3" />
<rect x="817" y="35" width="35" height="5" style="fill:#5d3c2d;stroke:black;stroke-width:1;fill-opacity:1;stroke-opacity:0.3" />
<line x1="871" y1="44" x2="883" y2="46" stroke="black" stroke-width="1" />
<line x1="883" y1="46" x2="895" y2="44" stroke="black" stroke-width="1" />
<rect x="818" y="42" width="52" height="5" style="fill:#5d3c2d;stroke:black;stroke-width:1;fill-opacity:1;stroke-opacity:0.3" />
<rect x="895" y="42" width="52" height="5" style="fill:#5d3c2d;stroke:black;stroke-width:1;fill-opacity:1;stroke-opacity:0.3" />
<line x1="865" y1="51" x2="876" y2="53" stroke="black" stroke-width="1" />
<line x1="876" y1="53" x2="887" y2="51" stroke="black" stroke-width="1" />
<rect x="830" y="49" width="35" height="5" style="fill:#5d3c2d;stroke:black;stroke-width:1;fill-opacity:1;stroke-opacity:0.3" />
<rect x="887" y="49" width="34" height="5" style="fill:#5d3c2d;stroke:black;stroke-width:1;fill-opacity:1;stroke-opacity:0.3" />
<line x1="890" y1="30" x2="898" y2="32" stroke="black" stroke-width="1" />
<line x1="898" y1="32" x2="906" y2="30" stroke="black" stroke-width="1" />
<rect x="855" y="28" width="34" height="5" style="fill:#5d3c2d;stroke:black;stroke-width:1;fill-opacity:1;stroke-opacity:0.3" />
<rect x="906" y="28" width="35" height="5" style="fill:#5d3c2d;stroke:black;stroke-width:1;fill-opacity:1;stroke-opacity:0.3" />
<line x1="898" y1="37" x2="904" y2="39" stroke="black" stroke-width="1" />
<line x1="904" y1="39" x2="910" y2="37" stroke="black" stroke-width="1" />
<rect x="863" y="35" width="35" height="5" style="fill:#5d3c2d;stroke:black;stroke-width:1;fill-opacity:1;stroke-opacity:0.3" />
<rect x="910" y="35" width="35" height="5" style="fill:#5d3c2d;stroke:black;stroke-width:1;fill-opacity:1;stroke-opacity:0.3" />
<text x="15"  y="176" style="font-family:Arial;font-size:10;stroke:black;fill:black;">all.merged.bam</text>
</svg>
    
