<?xml version="1.0" encoding="utf-8" standalone="no"?>
<!DOCTYPE svg PUBLIC "-//W3C//DTD SVG 1.1//EN"
  "http://www.w3.org/Graphics/SVG/1.1/DTD/svg11.dtd">
<svg height="1140" width="1000" version="1.1" viewBox="0 0 1000 1140" xmlns="http://www.w3.org/2000/svg" xmlns:xlink="http://www.w3.org/1999/xlink">
<line x1="58" y1="11" x2="940" y2="11" stroke="black" stroke-width="1" />
<rect x="58" y="9" width="21" height="5" style="fill:#f50002;stroke:black;stroke-width:1;fill-opacity:1;stroke-opacity:0.3" />
<rect x="80" y="9" width="32" height="5" style="fill:#53a1b5;stroke:black;stroke-width:1;fill-opacity:1;stroke-opacity:0.3" />
<rect x="175" y="9" width="74" height="5" style="fill:#53a1b5;stroke:black;stroke-width:1;fill-opacity:1;stroke-opacity:0.3" />
<rect x="448" y="9" width="37" height="5" style="fill:#53a1b5;stroke:black;stroke-width:1;fill-opacity:1;stroke-opacity:0.3" />
<rect x="487" y="9" width="453" height="5" style="fill:#f50002;stroke:black;stroke-width:1;fill-opacity:1;stroke-opacity:0.3" />
<text x="58"  y="23" style="font-family:Arial;font-size:10;stroke:black;fill:black;">Cre06.g256950.t1.2.v5.5 (+) chromosome_6:1127346-1128847</text>
<line x1="84" y1="30" x2="99" y2="32" stroke="black" stroke-width="1" />
<line x1="99" y1="32" x2="114" y2="30" stroke="black" stroke-width="1" />
<rect x="25" y="28" width="58" height="5" style="fill:#5d3c2d;stroke:black;stroke-width:1;fill-opacity:1;stroke-opacity:0.3" />
<rect x="114" y="28" width="58" height="5" style="fill:#5d3c2d;stroke:black;stroke-width:1;fill-opacity:1;stroke-opacity:0.3" />
<line x1="232" y1="30" x2="342" y2="32" stroke="black" stroke-width="1" />
<line x1="342" y1="32" x2="453" y2="30" stroke="black" stroke-width="1" />
<rect x="175" y="28" width="56" height="5" style="fill:#5d3c2d;stroke:black;stroke-width:1;fill-opacity:1;stroke-opacity:0.3" />
<rect x="453" y="28" width="58" height="5" style="fill:#5d3c2d;stroke:black;stroke-width:1;fill-opacity:1;stroke-opacity:0.3" />
<line x1="250" y1="37" x2="355" y2="39" stroke="black" stroke-width="1" />
<line x1="355" y1="39" x2="461" y2="37" stroke="black" stroke-width="1" />
<rect x="194" y="35" width="56" height="5" style="fill:#5d3c2d;stroke:black;stroke-width:1;fill-opacity:1;stroke-opacity:0.3" />
<rect x="461" y="35" width="58" height="5" style="fill:#5d3c2d;stroke:black;stroke-width:1;fill-opacity:1;stroke-opacity:0.3" />
<line x1="628" y1="30" x2="637" y2="32" stroke="black" stroke-width="1" />
<line x1="637" y1="32" x2="647" y2="30" stroke="black" stroke-width="1" />
<rect x="569" y="28" width="58" height="5" style="fill:#5d3c2d;stroke:black;stroke-width:1;fill-opacity:1;stroke-opacity:0.3" />
<rect x="647" y="28" width="58" height="5" style="fill:#5d3c2d;stroke:black;stroke-width:1;fill-opacity:1;stroke-opacity:0.3" />
<text x="15"  y="176" style="font-family:Arial;font-size:10;stroke:black;fill:black;">all.merged.bam</text>
</svg>
    
