<?xml version="1.0" encoding="utf-8" standalone="no"?>
<!DOCTYPE svg PUBLIC "-//W3C//DTD SVG 1.1//EN"
  "http://www.w3.org/Graphics/SVG/1.1/DTD/svg11.dtd">
<svg height="1140" width="1000" version="1.1" viewBox="0 0 1000 1140" xmlns="http://www.w3.org/2000/svg" xmlns:xlink="http://www.w3.org/1999/xlink">
<line x1="37" y1="11" x2="962" y2="11" stroke="black" stroke-width="1" />
<rect x="37" y="9" width="102" height="5" style="fill:#f50002;stroke:black;stroke-width:1;fill-opacity:1;stroke-opacity:0.3" />
<rect x="140" y="9" width="76" height="5" style="fill:#53a1b5;stroke:black;stroke-width:1;fill-opacity:1;stroke-opacity:0.3" />
<rect x="263" y="9" width="387" height="5" style="fill:#53a1b5;stroke:black;stroke-width:1;fill-opacity:1;stroke-opacity:0.3" />
<rect x="834" y="9" width="94" height="5" style="fill:#53a1b5;stroke:black;stroke-width:1;fill-opacity:1;stroke-opacity:0.3" />
<rect x="928" y="9" width="33" height="5" style="fill:#f50002;stroke:black;stroke-width:1;fill-opacity:1;stroke-opacity:0.3" />
<text x="37"  y="23" style="font-family:Arial;font-size:10;stroke:black;fill:black;">Cre09.g392988.t1.1.v5.5 (-) chromosome_9:4016826-4019325</text>
<line x1="73" y1="30" x2="77" y2="32" stroke="black" stroke-width="1" />
<line x1="77" y1="32" x2="82" y2="30" stroke="black" stroke-width="1" />
<rect x="36" y="28" width="37" height="5" style="fill:#f5b024;stroke:black;stroke-width:1;fill-opacity:1;stroke-opacity:0.3" />
<rect x="82" y="28" width="37" height="5" style="fill:#f5b024;stroke:black;stroke-width:1;fill-opacity:1;stroke-opacity:0.3" />
<line x1="73" y1="37" x2="78" y2="39" stroke="black" stroke-width="1" />
<line x1="78" y1="39" x2="84" y2="37" stroke="black" stroke-width="1" />
<rect x="36" y="35" width="37" height="5" style="fill:#f5b024;stroke:black;stroke-width:1;fill-opacity:1;stroke-opacity:0.3" />
<rect x="84" y="35" width="37" height="5" style="fill:#f5b024;stroke:black;stroke-width:1;fill-opacity:1;stroke-opacity:0.3" />
<line x1="74" y1="44" x2="76" y2="46" stroke="black" stroke-width="1" />
<line x1="76" y1="46" x2="79" y2="44" stroke="black" stroke-width="1" />
<rect x="37" y="42" width="36" height="5" style="fill:#f5b024;stroke:black;stroke-width:1;fill-opacity:1;stroke-opacity:0.3" />
<rect x="79" y="42" width="37" height="5" style="fill:#f5b024;stroke:black;stroke-width:1;fill-opacity:1;stroke-opacity:0.3" />
<line x1="74" y1="51" x2="87" y2="53" stroke="black" stroke-width="1" />
<line x1="87" y1="53" x2="101" y2="51" stroke="black" stroke-width="1" />
<rect x="37" y="49" width="37" height="5" style="fill:#f5b024;stroke:black;stroke-width:1;fill-opacity:1;stroke-opacity:0.3" />
<rect x="101" y="49" width="37" height="5" style="fill:#f5b024;stroke:black;stroke-width:1;fill-opacity:1;stroke-opacity:0.3" />
<line x1="87" y1="58" x2="89" y2="60" stroke="black" stroke-width="1" />
<line x1="89" y1="60" x2="91" y2="58" stroke="black" stroke-width="1" />
<rect x="50" y="56" width="37" height="5" style="fill:#f5b024;stroke:black;stroke-width:1;fill-opacity:1;stroke-opacity:0.3" />
<rect x="91" y="56" width="37" height="5" style="fill:#f5b024;stroke:black;stroke-width:1;fill-opacity:1;stroke-opacity:0.3" />
<line x1="87" y1="65" x2="89" y2="67" stroke="black" stroke-width="1" />
<line x1="89" y1="67" x2="91" y2="65" stroke="black" stroke-width="1" />
<rect x="50" y="63" width="37" height="5" style="fill:#f5b024;stroke:black;stroke-width:1;fill-opacity:1;stroke-opacity:0.3" />
<rect x="91" y="63" width="37" height="5" style="fill:#f5b024;stroke:black;stroke-width:1;fill-opacity:1;stroke-opacity:0.3" />
<line x1="100" y1="72" x2="105" y2="74" stroke="black" stroke-width="1" />
<line x1="105" y1="74" x2="111" y2="72" stroke="black" stroke-width="1" />
<rect x="63" y="70" width="37" height="5" style="fill:#f5b024;stroke:black;stroke-width:1;fill-opacity:1;stroke-opacity:0.3" />
<rect x="111" y="70" width="37" height="5" style="fill:#f5b024;stroke:black;stroke-width:1;fill-opacity:1;stroke-opacity:0.3" />
<line x1="100" y1="79" x2="104" y2="81" stroke="black" stroke-width="1" />
<line x1="104" y1="81" x2="108" y2="79" stroke="black" stroke-width="1" />
<rect x="63" y="77" width="37" height="5" style="fill:#f5b024;stroke:black;stroke-width:1;fill-opacity:1;stroke-opacity:0.3" />
<rect x="108" y="77" width="37" height="5" style="fill:#f5b024;stroke:black;stroke-width:1;fill-opacity:1;stroke-opacity:0.3" />
<line x1="101" y1="86" x2="106" y2="88" stroke="black" stroke-width="1" />
<line x1="106" y1="88" x2="111" y2="86" stroke="black" stroke-width="1" />
<rect x="64" y="84" width="37" height="5" style="fill:#f5b024;stroke:black;stroke-width:1;fill-opacity:1;stroke-opacity:0.3" />
<rect x="111" y="84" width="37" height="5" style="fill:#f5b024;stroke:black;stroke-width:1;fill-opacity:1;stroke-opacity:0.3" />
<line x1="101" y1="93" x2="106" y2="95" stroke="black" stroke-width="1" />
<line x1="106" y1="95" x2="112" y2="93" stroke="black" stroke-width="1" />
<rect x="64" y="91" width="37" height="5" style="fill:#f5b024;stroke:black;stroke-width:1;fill-opacity:1;stroke-opacity:0.3" />
<rect x="112" y="91" width="37" height="5" style="fill:#f5b024;stroke:black;stroke-width:1;fill-opacity:1;stroke-opacity:0.3" />
<line x1="101" y1="100" x2="106" y2="102" stroke="black" stroke-width="1" />
<line x1="106" y1="102" x2="111" y2="100" stroke="black" stroke-width="1" />
<rect x="64" y="98" width="37" height="5" style="fill:#f5b024;stroke:black;stroke-width:1;fill-opacity:1;stroke-opacity:0.3" />
<rect x="111" y="98" width="37" height="5" style="fill:#f5b024;stroke:black;stroke-width:1;fill-opacity:1;stroke-opacity:0.3" />
<line x1="120" y1="107" x2="125" y2="109" stroke="black" stroke-width="1" />
<line x1="125" y1="109" x2="131" y2="107" stroke="black" stroke-width="1" />
<rect x="64" y="105" width="55" height="5" style="fill:#f5b024;stroke:black;stroke-width:1;fill-opacity:1;stroke-opacity:0.3" />
<rect x="131" y="105" width="55" height="5" style="fill:#f5b024;stroke:black;stroke-width:1;fill-opacity:1;stroke-opacity:0.3" />
<line x1="105" y1="114" x2="114" y2="116" stroke="black" stroke-width="1" />
<line x1="114" y1="116" x2="123" y2="114" stroke="black" stroke-width="1" />
<rect x="68" y="112" width="37" height="5" style="fill:#f5b024;stroke:black;stroke-width:1;fill-opacity:1;stroke-opacity:0.3" />
<rect x="123" y="112" width="37" height="5" style="fill:#f5b024;stroke:black;stroke-width:1;fill-opacity:1;stroke-opacity:0.3" />
<line x1="107" y1="121" x2="125" y2="123" stroke="black" stroke-width="1" />
<line x1="125" y1="123" x2="143" y2="121" stroke="black" stroke-width="1" />
<rect x="70" y="119" width="36" height="5" style="fill:#f5b024;stroke:black;stroke-width:1;fill-opacity:1;stroke-opacity:0.3" />
<rect x="143" y="119" width="37" height="5" style="fill:#f5b024;stroke:black;stroke-width:1;fill-opacity:1;stroke-opacity:0.3" />
<line x1="108" y1="128" x2="110" y2="130" stroke="black" stroke-width="1" />
<line x1="110" y1="130" x2="112" y2="128" stroke="black" stroke-width="1" />
<rect x="71" y="126" width="37" height="5" style="fill:#f5b024;stroke:black;stroke-width:1;fill-opacity:1;stroke-opacity:0.3" />
<rect x="112" y="126" width="37" height="5" style="fill:#f5b024;stroke:black;stroke-width:1;fill-opacity:1;stroke-opacity:0.3" />
<line x1="111" y1="135" x2="113" y2="137" stroke="black" stroke-width="1" />
<line x1="113" y1="137" x2="115" y2="135" stroke="black" stroke-width="1" />
<rect x="74" y="133" width="36" height="5" style="fill:#f5b024;stroke:black;stroke-width:1;fill-opacity:1;stroke-opacity:0.3" />
<rect x="115" y="133" width="37" height="5" style="fill:#f5b024;stroke:black;stroke-width:1;fill-opacity:1;stroke-opacity:0.3" />
<line x1="111" y1="142" x2="113" y2="144" stroke="black" stroke-width="1" />
<line x1="113" y1="144" x2="115" y2="142" stroke="black" stroke-width="1" />
<rect x="74" y="140" width="36" height="5" style="fill:#f5b024;stroke:black;stroke-width:1;fill-opacity:1;stroke-opacity:0.3" />
<rect x="115" y="140" width="37" height="5" style="fill:#f5b024;stroke:black;stroke-width:1;fill-opacity:1;stroke-opacity:0.3" />
<line x1="111" y1="149" x2="116" y2="151" stroke="black" stroke-width="1" />
<line x1="116" y1="151" x2="121" y2="149" stroke="black" stroke-width="1" />
<rect x="74" y="147" width="37" height="5" style="fill:#f5b024;stroke:black;stroke-width:1;fill-opacity:1;stroke-opacity:0.3" />
<rect x="121" y="147" width="37" height="5" style="fill:#f5b024;stroke:black;stroke-width:1;fill-opacity:1;stroke-opacity:0.3" />
<line x1="113" y1="156" x2="115" y2="158" stroke="black" stroke-width="1" />
<line x1="115" y1="158" x2="118" y2="156" stroke="black" stroke-width="1" />
<rect x="76" y="154" width="37" height="5" style="fill:#f5b024;stroke:black;stroke-width:1;fill-opacity:1;stroke-opacity:0.3" />
<rect x="118" y="154" width="37" height="5" style="fill:#f5b024;stroke:black;stroke-width:1;fill-opacity:1;stroke-opacity:0.3" />
<line x1="123" y1="163" x2="130" y2="165" stroke="black" stroke-width="1" />
<line x1="130" y1="165" x2="137" y2="163" stroke="black" stroke-width="1" />
<rect x="86" y="161" width="36" height="5" style="fill:#f5b024;stroke:black;stroke-width:1;fill-opacity:1;stroke-opacity:0.3" />
<rect x="137" y="161" width="37" height="5" style="fill:#f5b024;stroke:black;stroke-width:1;fill-opacity:1;stroke-opacity:0.3" />
<line x1="153" y1="44" x2="156" y2="46" stroke="black" stroke-width="1" />
<line x1="156" y1="46" x2="160" y2="44" stroke="black" stroke-width="1" />
<rect x="117" y="42" width="36" height="5" style="fill:#f5b024;stroke:black;stroke-width:1;fill-opacity:1;stroke-opacity:0.3" />
<rect x="160" y="42" width="37" height="5" style="fill:#f5b024;stroke:black;stroke-width:1;fill-opacity:1;stroke-opacity:0.3" />
<line x1="163" y1="30" x2="165" y2="32" stroke="black" stroke-width="1" />
<line x1="165" y1="32" x2="168" y2="30" stroke="black" stroke-width="1" />
<rect x="127" y="28" width="36" height="5" style="fill:#f5b024;stroke:black;stroke-width:1;fill-opacity:1;stroke-opacity:0.3" />
<rect x="168" y="28" width="37" height="5" style="fill:#f5b024;stroke:black;stroke-width:1;fill-opacity:1;stroke-opacity:0.3" />
<line x1="164" y1="37" x2="172" y2="39" stroke="black" stroke-width="1" />
<line x1="172" y1="39" x2="181" y2="37" stroke="black" stroke-width="1" />
<rect x="127" y="35" width="37" height="5" style="fill:#f5b024;stroke:black;stroke-width:1;fill-opacity:1;stroke-opacity:0.3" />
<rect x="181" y="35" width="35" height="5" style="fill:#f5b024;stroke:black;stroke-width:1;fill-opacity:1;stroke-opacity:0.3" />
<line x1="178" y1="51" x2="181" y2="53" stroke="black" stroke-width="1" />
<line x1="181" y1="53" x2="184" y2="51" stroke="black" stroke-width="1" />
<rect x="141" y="49" width="37" height="5" style="fill:#f5b024;stroke:black;stroke-width:1;fill-opacity:1;stroke-opacity:0.3" />
<rect x="184" y="49" width="31" height="5" style="fill:#f5b024;stroke:black;stroke-width:1;fill-opacity:1;stroke-opacity:0.3" />
<line x1="216" y1="51" x2="524" y2="51" stroke="pink" stroke-width="1" />
<rect x="524" y="49" width="5" height="5" style="fill:#f5b024;stroke:black;stroke-width:1;fill-opacity:1;stroke-opacity:0.3" />
<line x1="181" y1="58" x2="185" y2="60" stroke="black" stroke-width="1" />
<line x1="185" y1="60" x2="189" y2="58" stroke="black" stroke-width="1" />
<rect x="144" y="56" width="37" height="5" style="fill:#f5b024;stroke:black;stroke-width:1;fill-opacity:1;stroke-opacity:0.3" />
<rect x="189" y="56" width="37" height="5" style="fill:#f5b024;stroke:black;stroke-width:1;fill-opacity:1;stroke-opacity:0.3" />
<line x1="182" y1="65" x2="193" y2="67" stroke="black" stroke-width="1" />
<line x1="193" y1="67" x2="205" y2="65" stroke="black" stroke-width="1" />
<rect x="145" y="63" width="37" height="5" style="fill:#f5b024;stroke:black;stroke-width:1;fill-opacity:1;stroke-opacity:0.3" />
<rect x="205" y="63" width="10" height="5" style="fill:#f5b024;stroke:black;stroke-width:1;fill-opacity:1;stroke-opacity:0.3" />
<line x1="216" y1="65" x2="524" y2="65" stroke="pink" stroke-width="1" />
<rect x="524" y="63" width="26" height="5" style="fill:#f5b024;stroke:black;stroke-width:1;fill-opacity:1;stroke-opacity:0.3" />
<line x1="187" y1="72" x2="191" y2="74" stroke="black" stroke-width="1" />
<line x1="191" y1="74" x2="195" y2="72" stroke="black" stroke-width="1" />
<rect x="150" y="70" width="37" height="5" style="fill:#f5b024;stroke:black;stroke-width:1;fill-opacity:1;stroke-opacity:0.3" />
<rect x="195" y="70" width="21" height="5" style="fill:#f5b024;stroke:black;stroke-width:1;fill-opacity:1;stroke-opacity:0.3" />
<line x1="216" y1="72" x2="524" y2="72" stroke="pink" stroke-width="1" />
<rect x="524" y="70" width="15" height="5" style="fill:#f5b024;stroke:black;stroke-width:1;fill-opacity:1;stroke-opacity:0.3" />
<line x1="187" y1="79" x2="196" y2="81" stroke="black" stroke-width="1" />
<line x1="196" y1="81" x2="206" y2="79" stroke="black" stroke-width="1" />
<rect x="150" y="77" width="37" height="5" style="fill:#f5b024;stroke:black;stroke-width:1;fill-opacity:1;stroke-opacity:0.3" />
<rect x="206" y="77" width="10" height="5" style="fill:#f5b024;stroke:black;stroke-width:1;fill-opacity:1;stroke-opacity:0.3" />
<line x1="216" y1="79" x2="524" y2="79" stroke="pink" stroke-width="1" />
<rect x="524" y="77" width="27" height="5" style="fill:#f5b024;stroke:black;stroke-width:1;fill-opacity:1;stroke-opacity:0.3" />
<line x1="187" y1="86" x2="359" y2="88" stroke="black" stroke-width="1" />
<line x1="359" y1="88" x2="532" y2="86" stroke="black" stroke-width="1" />
<rect x="150" y="84" width="37" height="5" style="fill:#f5b024;stroke:black;stroke-width:1;fill-opacity:1;stroke-opacity:0.3" />
<rect x="532" y="84" width="37" height="5" style="fill:#f5b024;stroke:black;stroke-width:1;fill-opacity:1;stroke-opacity:0.3" />
<line x1="190" y1="93" x2="197" y2="95" stroke="black" stroke-width="1" />
<line x1="197" y1="95" x2="204" y2="93" stroke="black" stroke-width="1" />
<rect x="152" y="91" width="37" height="5" style="fill:#f5b024;stroke:black;stroke-width:1;fill-opacity:1;stroke-opacity:0.3" />
<rect x="204" y="91" width="12" height="5" style="fill:#f5b024;stroke:black;stroke-width:1;fill-opacity:1;stroke-opacity:0.3" />
<line x1="216" y1="93" x2="524" y2="93" stroke="pink" stroke-width="1" />
<rect x="524" y="91" width="24" height="5" style="fill:#f5b024;stroke:black;stroke-width:1;fill-opacity:1;stroke-opacity:0.3" />
<line x1="212" y1="100" x2="368" y2="102" stroke="black" stroke-width="1" />
<line x1="368" y1="102" x2="524" y2="100" stroke="black" stroke-width="1" />
<rect x="175" y="98" width="37" height="5" style="fill:#f5b024;stroke:black;stroke-width:1;fill-opacity:1;stroke-opacity:0.3" />
<rect x="524" y="98" width="35" height="5" style="fill:#f5b024;stroke:black;stroke-width:1;fill-opacity:1;stroke-opacity:0.3" />
<line x1="212" y1="114" x2="369" y2="116" stroke="black" stroke-width="1" />
<line x1="369" y1="116" x2="526" y2="114" stroke="black" stroke-width="1" />
<rect x="175" y="112" width="37" height="5" style="fill:#f5b024;stroke:black;stroke-width:1;fill-opacity:1;stroke-opacity:0.3" />
<rect x="526" y="112" width="37" height="5" style="fill:#f5b024;stroke:black;stroke-width:1;fill-opacity:1;stroke-opacity:0.3" />
<line x1="212" y1="128" x2="372" y2="130" stroke="black" stroke-width="1" />
<line x1="372" y1="130" x2="532" y2="128" stroke="black" stroke-width="1" />
<rect x="175" y="126" width="37" height="5" style="fill:#f5b024;stroke:black;stroke-width:1;fill-opacity:1;stroke-opacity:0.3" />
<rect x="532" y="126" width="37" height="5" style="fill:#f5b024;stroke:black;stroke-width:1;fill-opacity:1;stroke-opacity:0.3" />
<line x1="212" y1="135" x2="371" y2="137" stroke="black" stroke-width="1" />
<line x1="371" y1="137" x2="530" y2="135" stroke="black" stroke-width="1" />
<rect x="175" y="133" width="37" height="5" style="fill:#f5b024;stroke:black;stroke-width:1;fill-opacity:1;stroke-opacity:0.3" />
<rect x="530" y="133" width="37" height="5" style="fill:#f5b024;stroke:black;stroke-width:1;fill-opacity:1;stroke-opacity:0.3" />
<line x1="212" y1="142" x2="367" y2="144" stroke="black" stroke-width="1" />
<line x1="367" y1="144" x2="523" y2="142" stroke="black" stroke-width="1" />
<rect x="176" y="140" width="36" height="5" style="fill:#f5b024;stroke:black;stroke-width:1;fill-opacity:1;stroke-opacity:0.3" />
<rect x="523" y="140" width="35" height="5" style="fill:#f5b024;stroke:black;stroke-width:1;fill-opacity:1;stroke-opacity:0.3" />
<line x1="215" y1="149" x2="372" y2="151" stroke="black" stroke-width="1" />
<line x1="372" y1="151" x2="530" y2="149" stroke="black" stroke-width="1" />
<rect x="178" y="147" width="37" height="5" style="fill:#f5b024;stroke:black;stroke-width:1;fill-opacity:1;stroke-opacity:0.3" />
<rect x="530" y="147" width="37" height="5" style="fill:#f5b024;stroke:black;stroke-width:1;fill-opacity:1;stroke-opacity:0.3" />
<line x1="215" y1="156" x2="369" y2="158" stroke="black" stroke-width="1" />
<line x1="369" y1="158" x2="524" y2="156" stroke="black" stroke-width="1" />
<rect x="178" y="154" width="37" height="5" style="fill:#f5b024;stroke:black;stroke-width:1;fill-opacity:1;stroke-opacity:0.3" />
<rect x="524" y="154" width="37" height="5" style="fill:#f5b024;stroke:black;stroke-width:1;fill-opacity:1;stroke-opacity:0.3" />
<line x1="525" y1="121" x2="534" y2="123" stroke="black" stroke-width="1" />
<line x1="534" y1="123" x2="544" y2="121" stroke="black" stroke-width="1" />
<rect x="180" y="119" width="35" height="5" style="fill:#f5b024;stroke:black;stroke-width:1;fill-opacity:1;stroke-opacity:0.3" />
<line x1="216" y1="121" x2="524" y2="121" stroke="pink" stroke-width="1" />
<rect x="524" y="119" width="1" height="5" style="fill:#f5b024;stroke:black;stroke-width:1;fill-opacity:1;stroke-opacity:0.3" />
<rect x="544" y="119" width="37" height="5" style="fill:#f5b024;stroke:black;stroke-width:1;fill-opacity:1;stroke-opacity:0.3" />
<line x1="526" y1="163" x2="528" y2="165" stroke="black" stroke-width="1" />
<line x1="528" y1="165" x2="530" y2="163" stroke="black" stroke-width="1" />
<rect x="181" y="161" width="34" height="5" style="fill:#f5b024;stroke:black;stroke-width:1;fill-opacity:1;stroke-opacity:0.3" />
<line x1="216" y1="163" x2="524" y2="163" stroke="pink" stroke-width="1" />
<rect x="524" y="161" width="1" height="5" style="fill:#f5b024;stroke:black;stroke-width:1;fill-opacity:1;stroke-opacity:0.3" />
<rect x="530" y="161" width="37" height="5" style="fill:#f5b024;stroke:black;stroke-width:1;fill-opacity:1;stroke-opacity:0.3" />
<line x1="534" y1="107" x2="536" y2="109" stroke="black" stroke-width="1" />
<line x1="536" y1="109" x2="538" y2="107" stroke="black" stroke-width="1" />
<rect x="190" y="105" width="26" height="5" style="fill:#f5b024;stroke:black;stroke-width:1;fill-opacity:1;stroke-opacity:0.3" />
<line x1="216" y1="107" x2="524" y2="107" stroke="pink" stroke-width="1" />
<rect x="524" y="105" width="10" height="5" style="fill:#f5b024;stroke:black;stroke-width:1;fill-opacity:1;stroke-opacity:0.3" />
<rect x="538" y="105" width="37" height="5" style="fill:#f5b024;stroke:black;stroke-width:1;fill-opacity:1;stroke-opacity:0.3" />
<line x1="544" y1="44" x2="548" y2="46" stroke="black" stroke-width="1" />
<line x1="548" y1="46" x2="552" y2="44" stroke="black" stroke-width="1" />
<rect x="200" y="42" width="16" height="5" style="fill:#f5b024;stroke:black;stroke-width:1;fill-opacity:1;stroke-opacity:0.3" />
<line x1="216" y1="44" x2="524" y2="44" stroke="pink" stroke-width="1" />
<rect x="524" y="42" width="20" height="5" style="fill:#f5b024;stroke:black;stroke-width:1;fill-opacity:1;stroke-opacity:0.3" />
<rect x="552" y="42" width="37" height="5" style="fill:#f5b024;stroke:black;stroke-width:1;fill-opacity:1;stroke-opacity:0.3" />
<line x1="560" y1="30" x2="568" y2="32" stroke="black" stroke-width="1" />
<line x1="568" y1="32" x2="577" y2="30" stroke="black" stroke-width="1" />
<rect x="215" y="28" width="0" height="5" style="fill:#f5b024;stroke:black;stroke-width:1;fill-opacity:1;stroke-opacity:0.3" />
<line x1="216" y1="30" x2="524" y2="30" stroke="pink" stroke-width="1" />
<rect x="524" y="28" width="36" height="5" style="fill:#f5b024;stroke:black;stroke-width:1;fill-opacity:1;stroke-opacity:0.3" />
<rect x="577" y="28" width="37" height="5" style="fill:#f5b024;stroke:black;stroke-width:1;fill-opacity:1;stroke-opacity:0.3" />
<line x1="279" y1="37" x2="305" y2="39" stroke="black" stroke-width="1" />
<line x1="305" y1="39" x2="332" y2="37" stroke="black" stroke-width="1" />
<rect x="242" y="35" width="36" height="5" style="fill:#f5b024;stroke:black;stroke-width:1;fill-opacity:1;stroke-opacity:0.3" />
<rect x="332" y="35" width="37" height="5" style="fill:#f5b024;stroke:black;stroke-width:1;fill-opacity:1;stroke-opacity:0.3" />
<line x1="280" y1="58" x2="288" y2="60" stroke="black" stroke-width="1" />
<line x1="288" y1="60" x2="297" y2="58" stroke="black" stroke-width="1" />
<rect x="243" y="56" width="37" height="5" style="fill:#5d3c2d;stroke:black;stroke-width:1;fill-opacity:1;stroke-opacity:0.3" />
<rect x="297" y="56" width="37" height="5" style="fill:#5d3c2d;stroke:black;stroke-width:1;fill-opacity:1;stroke-opacity:0.3" />
<line x1="563" y1="37" x2="568" y2="39" stroke="black" stroke-width="1" />
<line x1="568" y1="39" x2="573" y2="37" stroke="black" stroke-width="1" />
<rect x="526" y="35" width="37" height="5" style="fill:#f5b024;stroke:black;stroke-width:1;fill-opacity:1;stroke-opacity:0.3" />
<rect x="573" y="35" width="37" height="5" style="fill:#f5b024;stroke:black;stroke-width:1;fill-opacity:1;stroke-opacity:0.3" />
<line x1="565" y1="58" x2="567" y2="60" stroke="black" stroke-width="1" />
<line x1="567" y1="60" x2="569" y2="58" stroke="black" stroke-width="1" />
<rect x="528" y="56" width="37" height="5" style="fill:#f5b024;stroke:black;stroke-width:1;fill-opacity:1;stroke-opacity:0.3" />
<rect x="569" y="56" width="37" height="5" style="fill:#f5b024;stroke:black;stroke-width:1;fill-opacity:1;stroke-opacity:0.3" />
<line x1="566" y1="51" x2="571" y2="53" stroke="black" stroke-width="1" />
<line x1="571" y1="53" x2="576" y2="51" stroke="black" stroke-width="1" />
<rect x="529" y="49" width="37" height="5" style="fill:#f5b024;stroke:black;stroke-width:1;fill-opacity:1;stroke-opacity:0.3" />
<rect x="576" y="49" width="37" height="5" style="fill:#f5b024;stroke:black;stroke-width:1;fill-opacity:1;stroke-opacity:0.3" />
<line x1="581" y1="72" x2="593" y2="74" stroke="black" stroke-width="1" />
<line x1="593" y1="74" x2="605" y2="72" stroke="black" stroke-width="1" />
<rect x="544" y="70" width="37" height="5" style="fill:#f5b024;stroke:black;stroke-width:1;fill-opacity:1;stroke-opacity:0.3" />
<rect x="605" y="70" width="37" height="5" style="fill:#f5b024;stroke:black;stroke-width:1;fill-opacity:1;stroke-opacity:0.3" />
<line x1="585" y1="93" x2="601" y2="95" stroke="black" stroke-width="1" />
<line x1="601" y1="95" x2="618" y2="93" stroke="black" stroke-width="1" />
<rect x="548" y="91" width="37" height="5" style="fill:#f5b024;stroke:black;stroke-width:1;fill-opacity:1;stroke-opacity:0.3" />
<rect x="618" y="91" width="37" height="5" style="fill:#f5b024;stroke:black;stroke-width:1;fill-opacity:1;stroke-opacity:0.3" />
<line x1="587" y1="65" x2="594" y2="67" stroke="black" stroke-width="1" />
<line x1="594" y1="67" x2="602" y2="65" stroke="black" stroke-width="1" />
<rect x="550" y="63" width="37" height="5" style="fill:#f5b024;stroke:black;stroke-width:1;fill-opacity:1;stroke-opacity:0.3" />
<rect x="602" y="63" width="37" height="5" style="fill:#f5b024;stroke:black;stroke-width:1;fill-opacity:1;stroke-opacity:0.3" />
<line x1="589" y1="79" x2="603" y2="81" stroke="black" stroke-width="1" />
<line x1="603" y1="81" x2="617" y2="79" stroke="black" stroke-width="1" />
<rect x="552" y="77" width="37" height="5" style="fill:#f5b024;stroke:black;stroke-width:1;fill-opacity:1;stroke-opacity:0.3" />
<rect x="617" y="77" width="37" height="5" style="fill:#f5b024;stroke:black;stroke-width:1;fill-opacity:1;stroke-opacity:0.3" />
<line x1="598" y1="100" x2="616" y2="102" stroke="black" stroke-width="1" />
<line x1="616" y1="102" x2="634" y2="100" stroke="black" stroke-width="1" />
<rect x="561" y="98" width="36" height="5" style="fill:#f5b024;stroke:black;stroke-width:1;fill-opacity:1;stroke-opacity:0.3" />
<rect x="634" y="98" width="37" height="5" style="fill:#f5b024;stroke:black;stroke-width:1;fill-opacity:1;stroke-opacity:0.3" />
<line x1="598" y1="142" x2="604" y2="144" stroke="black" stroke-width="1" />
<line x1="604" y1="144" x2="610" y2="142" stroke="black" stroke-width="1" />
<rect x="561" y="140" width="36" height="5" style="fill:#f5b024;stroke:black;stroke-width:1;fill-opacity:1;stroke-opacity:0.3" />
<rect x="610" y="140" width="37" height="5" style="fill:#f5b024;stroke:black;stroke-width:1;fill-opacity:1;stroke-opacity:0.3" />
<line x1="601" y1="114" x2="603" y2="116" stroke="black" stroke-width="1" />
<line x1="603" y1="116" x2="605" y2="114" stroke="black" stroke-width="1" />
<rect x="564" y="112" width="37" height="5" style="fill:#f5b024;stroke:black;stroke-width:1;fill-opacity:1;stroke-opacity:0.3" />
<rect x="605" y="112" width="37" height="5" style="fill:#f5b024;stroke:black;stroke-width:1;fill-opacity:1;stroke-opacity:0.3" />
<line x1="608" y1="86" x2="629" y2="88" stroke="black" stroke-width="1" />
<line x1="629" y1="88" x2="651" y2="86" stroke="black" stroke-width="1" />
<rect x="571" y="84" width="37" height="5" style="fill:#f5b024;stroke:black;stroke-width:1;fill-opacity:1;stroke-opacity:0.3" />
<rect x="651" y="84" width="37" height="5" style="fill:#f5b024;stroke:black;stroke-width:1;fill-opacity:1;stroke-opacity:0.3" />
<line x1="627" y1="128" x2="634" y2="130" stroke="black" stroke-width="1" />
<line x1="634" y1="130" x2="641" y2="128" stroke="black" stroke-width="1" />
<rect x="572" y="126" width="55" height="5" style="fill:#f5b024;stroke:black;stroke-width:1;fill-opacity:1;stroke-opacity:0.3" />
<rect x="641" y="126" width="55" height="5" style="fill:#f5b024;stroke:black;stroke-width:1;fill-opacity:1;stroke-opacity:0.3" />
<line x1="626" y1="44" x2="635" y2="46" stroke="black" stroke-width="1" />
<line x1="635" y1="46" x2="645" y2="44" stroke="black" stroke-width="1" />
<rect x="589" y="42" width="36" height="5" style="fill:#f5b024;stroke:black;stroke-width:1;fill-opacity:1;stroke-opacity:0.3" />
<rect x="645" y="42" width="37" height="5" style="fill:#f5b024;stroke:black;stroke-width:1;fill-opacity:1;stroke-opacity:0.3" />
<line x1="627" y1="107" x2="646" y2="109" stroke="black" stroke-width="1" />
<line x1="646" y1="109" x2="665" y2="107" stroke="black" stroke-width="1" />
<rect x="590" y="105" width="37" height="5" style="fill:#f5b024;stroke:black;stroke-width:1;fill-opacity:1;stroke-opacity:0.3" />
<rect x="665" y="105" width="37" height="5" style="fill:#f5b024;stroke:black;stroke-width:1;fill-opacity:1;stroke-opacity:0.3" />
<line x1="629" y1="121" x2="633" y2="123" stroke="black" stroke-width="1" />
<line x1="633" y1="123" x2="638" y2="121" stroke="black" stroke-width="1" />
<rect x="592" y="119" width="37" height="5" style="fill:#f5b024;stroke:black;stroke-width:1;fill-opacity:1;stroke-opacity:0.3" />
<rect x="638" y="119" width="37" height="5" style="fill:#f5b024;stroke:black;stroke-width:1;fill-opacity:1;stroke-opacity:0.3" />
<line x1="632" y1="135" x2="636" y2="137" stroke="black" stroke-width="1" />
<line x1="636" y1="137" x2="640" y2="135" stroke="black" stroke-width="1" />
<rect x="595" y="133" width="37" height="5" style="fill:#f5b024;stroke:black;stroke-width:1;fill-opacity:1;stroke-opacity:0.3" />
<rect x="640" y="133" width="10" height="5" style="fill:#f5b024;stroke:black;stroke-width:1;fill-opacity:1;stroke-opacity:0.3" />
<line x1="651" y1="135" x2="712" y2="135" stroke="pink" stroke-width="1" />
<rect x="712" y="133" width="26" height="5" style="fill:#f5b024;stroke:black;stroke-width:1;fill-opacity:1;stroke-opacity:0.3" />
<line x1="636" y1="149" x2="639" y2="151" stroke="black" stroke-width="1" />
<line x1="639" y1="151" x2="642" y2="149" stroke="black" stroke-width="1" />
<rect x="599" y="147" width="37" height="5" style="fill:#f5b024;stroke:black;stroke-width:1;fill-opacity:1;stroke-opacity:0.3" />
<rect x="642" y="147" width="8" height="5" style="fill:#f5b024;stroke:black;stroke-width:1;fill-opacity:1;stroke-opacity:0.3" />
<line x1="651" y1="149" x2="712" y2="149" stroke="pink" stroke-width="1" />
<rect x="712" y="147" width="28" height="5" style="fill:#f5b024;stroke:black;stroke-width:1;fill-opacity:1;stroke-opacity:0.3" />
<line x1="644" y1="58" x2="711" y2="60" stroke="black" stroke-width="1" />
<line x1="711" y1="60" x2="778" y2="58" stroke="black" stroke-width="1" />
<rect x="607" y="56" width="37" height="5" style="fill:#f5b024;stroke:black;stroke-width:1;fill-opacity:1;stroke-opacity:0.3" />
<rect x="778" y="56" width="37" height="5" style="fill:#f5b024;stroke:black;stroke-width:1;fill-opacity:1;stroke-opacity:0.3" />
<line x1="647" y1="37" x2="652" y2="39" stroke="black" stroke-width="1" />
<line x1="652" y1="39" x2="657" y2="37" stroke="black" stroke-width="1" />
<rect x="610" y="35" width="37" height="5" style="fill:#f5b024;stroke:black;stroke-width:1;fill-opacity:1;stroke-opacity:0.3" />
<rect x="657" y="35" width="37" height="5" style="fill:#f5b024;stroke:black;stroke-width:1;fill-opacity:1;stroke-opacity:0.3" />
<line x1="677" y1="30" x2="684" y2="32" stroke="black" stroke-width="1" />
<line x1="684" y1="32" x2="692" y2="30" stroke="black" stroke-width="1" />
<rect x="641" y="28" width="36" height="5" style="fill:#f5b024;stroke:black;stroke-width:1;fill-opacity:1;stroke-opacity:0.3" />
<rect x="692" y="28" width="37" height="5" style="fill:#f5b024;stroke:black;stroke-width:1;fill-opacity:1;stroke-opacity:0.3" />
<line x1="680" y1="51" x2="694" y2="53" stroke="black" stroke-width="1" />
<line x1="694" y1="53" x2="709" y2="51" stroke="black" stroke-width="1" />
<rect x="643" y="49" width="37" height="5" style="fill:#f5b024;stroke:black;stroke-width:1;fill-opacity:1;stroke-opacity:0.3" />
<rect x="709" y="49" width="37" height="5" style="fill:#f5b024;stroke:black;stroke-width:1;fill-opacity:1;stroke-opacity:0.3" />
<line x1="682" y1="65" x2="692" y2="67" stroke="black" stroke-width="1" />
<line x1="692" y1="67" x2="702" y2="65" stroke="black" stroke-width="1" />
<rect x="645" y="63" width="37" height="5" style="fill:#f5b024;stroke:black;stroke-width:1;fill-opacity:1;stroke-opacity:0.3" />
<rect x="702" y="63" width="37" height="5" style="fill:#f5b024;stroke:black;stroke-width:1;fill-opacity:1;stroke-opacity:0.3" />
<line x1="701" y1="72" x2="707" y2="74" stroke="black" stroke-width="1" />
<line x1="707" y1="74" x2="713" y2="72" stroke="black" stroke-width="1" />
<rect x="645" y="70" width="55" height="5" style="fill:#f5b024;stroke:black;stroke-width:1;fill-opacity:1;stroke-opacity:0.3" />
<rect x="713" y="70" width="55" height="5" style="fill:#f5b024;stroke:black;stroke-width:1;fill-opacity:1;stroke-opacity:0.3" />
<line x1="691" y1="79" x2="709" y2="81" stroke="black" stroke-width="1" />
<line x1="709" y1="81" x2="727" y2="79" stroke="black" stroke-width="1" />
<rect x="654" y="77" width="37" height="5" style="fill:#f5b024;stroke:black;stroke-width:1;fill-opacity:1;stroke-opacity:0.3" />
<rect x="727" y="77" width="37" height="5" style="fill:#f5b024;stroke:black;stroke-width:1;fill-opacity:1;stroke-opacity:0.3" />
<line x1="694" y1="93" x2="702" y2="95" stroke="black" stroke-width="1" />
<line x1="702" y1="95" x2="710" y2="93" stroke="black" stroke-width="1" />
<rect x="657" y="91" width="37" height="5" style="fill:#f5b024;stroke:black;stroke-width:1;fill-opacity:1;stroke-opacity:0.3" />
<rect x="710" y="91" width="37" height="5" style="fill:#f5b024;stroke:black;stroke-width:1;fill-opacity:1;stroke-opacity:0.3" />
<line x1="695" y1="114" x2="710" y2="116" stroke="black" stroke-width="1" />
<line x1="710" y1="116" x2="725" y2="114" stroke="black" stroke-width="1" />
<rect x="658" y="112" width="37" height="5" style="fill:#f5b024;stroke:black;stroke-width:1;fill-opacity:1;stroke-opacity:0.3" />
<rect x="725" y="112" width="37" height="5" style="fill:#f5b024;stroke:black;stroke-width:1;fill-opacity:1;stroke-opacity:0.3" />
<line x1="695" y1="142" x2="698" y2="144" stroke="black" stroke-width="1" />
<line x1="698" y1="144" x2="701" y2="142" stroke="black" stroke-width="1" />
<rect x="659" y="140" width="36" height="5" style="fill:#5d3c2d;stroke:black;stroke-width:1;fill-opacity:1;stroke-opacity:0.3" />
<rect x="701" y="140" width="37" height="5" style="fill:#5d3c2d;stroke:black;stroke-width:1;fill-opacity:1;stroke-opacity:0.3" />
<line x1="698" y1="156" x2="703" y2="158" stroke="black" stroke-width="1" />
<line x1="703" y1="158" x2="708" y2="156" stroke="black" stroke-width="1" />
<rect x="661" y="154" width="37" height="5" style="fill:#f5b024;stroke:black;stroke-width:1;fill-opacity:1;stroke-opacity:0.3" />
<rect x="708" y="154" width="37" height="5" style="fill:#f5b024;stroke:black;stroke-width:1;fill-opacity:1;stroke-opacity:0.3" />
<line x1="705" y1="163" x2="708" y2="165" stroke="black" stroke-width="1" />
<line x1="708" y1="165" x2="712" y2="163" stroke="black" stroke-width="1" />
<rect x="668" y="161" width="37" height="5" style="fill:#f5b024;stroke:black;stroke-width:1;fill-opacity:1;stroke-opacity:0.3" />
<rect x="712" y="161" width="37" height="5" style="fill:#f5b024;stroke:black;stroke-width:1;fill-opacity:1;stroke-opacity:0.3" />
<line x1="713" y1="100" x2="718" y2="102" stroke="black" stroke-width="1" />
<line x1="718" y1="102" x2="723" y2="100" stroke="black" stroke-width="1" />
<rect x="677" y="98" width="36" height="5" style="fill:#f5b024;stroke:black;stroke-width:1;fill-opacity:1;stroke-opacity:0.3" />
<rect x="723" y="98" width="37" height="5" style="fill:#f5b024;stroke:black;stroke-width:1;fill-opacity:1;stroke-opacity:0.3" />
<line x1="732" y1="121" x2="736" y2="123" stroke="black" stroke-width="1" />
<line x1="736" y1="123" x2="741" y2="121" stroke="black" stroke-width="1" />
<rect x="677" y="119" width="55" height="5" style="fill:#f5b024;stroke:black;stroke-width:1;fill-opacity:1;stroke-opacity:0.3" />
<rect x="741" y="119" width="55" height="5" style="fill:#f5b024;stroke:black;stroke-width:1;fill-opacity:1;stroke-opacity:0.3" />
<line x1="722" y1="44" x2="729" y2="46" stroke="black" stroke-width="1" />
<line x1="729" y1="46" x2="736" y2="44" stroke="black" stroke-width="1" />
<rect x="685" y="42" width="37" height="5" style="fill:#f5b024;stroke:black;stroke-width:1;fill-opacity:1;stroke-opacity:0.3" />
<rect x="736" y="42" width="37" height="5" style="fill:#f5b024;stroke:black;stroke-width:1;fill-opacity:1;stroke-opacity:0.3" />
<line x1="721" y1="86" x2="723" y2="88" stroke="black" stroke-width="1" />
<line x1="723" y1="88" x2="726" y2="86" stroke="black" stroke-width="1" />
<rect x="688" y="84" width="32" height="5" style="fill:#f5b024;stroke:black;stroke-width:1;fill-opacity:1;stroke-opacity:0.3" />
<rect x="726" y="84" width="37" height="5" style="fill:#f5b024;stroke:black;stroke-width:1;fill-opacity:1;stroke-opacity:0.3" />
<line x1="732" y1="37" x2="737" y2="39" stroke="black" stroke-width="1" />
<line x1="737" y1="39" x2="742" y2="37" stroke="black" stroke-width="1" />
<rect x="695" y="35" width="37" height="5" style="fill:#f5b024;stroke:black;stroke-width:1;fill-opacity:1;stroke-opacity:0.3" />
<rect x="742" y="35" width="37" height="5" style="fill:#f5b024;stroke:black;stroke-width:1;fill-opacity:1;stroke-opacity:0.3" />
<line x1="734" y1="128" x2="743" y2="130" stroke="black" stroke-width="1" />
<line x1="743" y1="130" x2="753" y2="128" stroke="black" stroke-width="1" />
<rect x="697" y="126" width="37" height="5" style="fill:#f5b024;stroke:black;stroke-width:1;fill-opacity:1;stroke-opacity:0.3" />
<rect x="753" y="126" width="37" height="5" style="fill:#f5b024;stroke:black;stroke-width:1;fill-opacity:1;stroke-opacity:0.3" />
<line x1="760" y1="107" x2="762" y2="109" stroke="black" stroke-width="1" />
<line x1="762" y1="109" x2="765" y2="107" stroke="black" stroke-width="1" />
<rect x="704" y="105" width="55" height="5" style="fill:#f5b024;stroke:black;stroke-width:1;fill-opacity:1;stroke-opacity:0.3" />
<rect x="765" y="105" width="55" height="5" style="fill:#f5b024;stroke:black;stroke-width:1;fill-opacity:1;stroke-opacity:0.3" />
<line x1="767" y1="30" x2="773" y2="32" stroke="black" stroke-width="1" />
<line x1="773" y1="32" x2="779" y2="30" stroke="black" stroke-width="1" />
<rect x="730" y="28" width="37" height="5" style="fill:#f5b024;stroke:black;stroke-width:1;fill-opacity:1;stroke-opacity:0.3" />
<rect x="779" y="28" width="35" height="5" style="fill:#f5b024;stroke:black;stroke-width:1;fill-opacity:1;stroke-opacity:0.3" />
<line x1="778" y1="65" x2="786" y2="67" stroke="black" stroke-width="1" />
<line x1="786" y1="67" x2="795" y2="65" stroke="black" stroke-width="1" />
<rect x="741" y="63" width="36" height="5" style="fill:#f5b024;stroke:black;stroke-width:1;fill-opacity:1;stroke-opacity:0.3" />
<rect x="795" y="63" width="37" height="5" style="fill:#f5b024;stroke:black;stroke-width:1;fill-opacity:1;stroke-opacity:0.3" />
<line x1="779" y1="135" x2="785" y2="137" stroke="black" stroke-width="1" />
<line x1="785" y1="137" x2="792" y2="135" stroke="black" stroke-width="1" />
<rect x="742" y="133" width="37" height="5" style="fill:#f5b024;stroke:black;stroke-width:1;fill-opacity:1;stroke-opacity:0.3" />
<rect x="792" y="133" width="37" height="5" style="fill:#f5b024;stroke:black;stroke-width:1;fill-opacity:1;stroke-opacity:0.3" />
<line x1="779" y1="142" x2="781" y2="144" stroke="black" stroke-width="1" />
<line x1="781" y1="144" x2="783" y2="142" stroke="black" stroke-width="1" />
<rect x="742" y="140" width="37" height="5" style="fill:#f5b024;stroke:black;stroke-width:1;fill-opacity:1;stroke-opacity:0.3" />
<rect x="783" y="140" width="37" height="5" style="fill:#f5b024;stroke:black;stroke-width:1;fill-opacity:1;stroke-opacity:0.3" />
<line x1="779" y1="149" x2="784" y2="151" stroke="black" stroke-width="1" />
<line x1="784" y1="151" x2="790" y2="149" stroke="black" stroke-width="1" />
<rect x="742" y="147" width="37" height="5" style="fill:#f5b024;stroke:black;stroke-width:1;fill-opacity:1;stroke-opacity:0.3" />
<rect x="790" y="147" width="37" height="5" style="fill:#f5b024;stroke:black;stroke-width:1;fill-opacity:1;stroke-opacity:0.3" />
<line x1="787" y1="51" x2="791" y2="53" stroke="black" stroke-width="1" />
<line x1="791" y1="53" x2="795" y2="51" stroke="black" stroke-width="1" />
<rect x="750" y="49" width="37" height="5" style="fill:#f5b024;stroke:black;stroke-width:1;fill-opacity:1;stroke-opacity:0.3" />
<rect x="795" y="49" width="36" height="5" style="fill:#f5b024;stroke:black;stroke-width:1;fill-opacity:1;stroke-opacity:0.3" />
<text x="15"  y="176" style="font-family:Arial;font-size:10;stroke:black;fill:black;">all.merged.bam</text>
</svg>
    
