<?xml version="1.0" encoding="utf-8" standalone="no"?>
<!DOCTYPE svg PUBLIC "-//W3C//DTD SVG 1.1//EN"
  "http://www.w3.org/Graphics/SVG/1.1/DTD/svg11.dtd">
<svg height="1140" width="1000" version="1.1" viewBox="0 0 1000 1140" xmlns="http://www.w3.org/2000/svg" xmlns:xlink="http://www.w3.org/1999/xlink">
<line x1="41" y1="11" x2="957" y2="11" stroke="black" stroke-width="1" />
<rect x="41" y="9" width="153" height="5" style="fill:#f50002;stroke:black;stroke-width:1;fill-opacity:1;stroke-opacity:0.3" />
<rect x="195" y="9" width="222" height="5" style="fill:#53a1b5;stroke:black;stroke-width:1;fill-opacity:1;stroke-opacity:0.3" />
<rect x="696" y="9" width="20" height="5" style="fill:#53a1b5;stroke:black;stroke-width:1;fill-opacity:1;stroke-opacity:0.3" />
<rect x="717" y="9" width="240" height="5" style="fill:#f50002;stroke:black;stroke-width:1;fill-opacity:1;stroke-opacity:0.3" />
<text x="41"  y="23" style="font-family:Arial;font-size:10;stroke:black;fill:black;">Cre02.g095047.t1.1.v5.5 (-) chromosome_2:3057660-3059855</text>
<line x1="80" y1="30" x2="91" y2="32" stroke="black" stroke-width="1" />
<line x1="91" y1="32" x2="102" y2="30" stroke="black" stroke-width="1" />
<rect x="38" y="28" width="41" height="5" style="fill:#f5b024;stroke:black;stroke-width:1;fill-opacity:1;stroke-opacity:0.3" />
<rect x="102" y="28" width="41" height="5" style="fill:#f5b024;stroke:black;stroke-width:1;fill-opacity:1;stroke-opacity:0.3" />
<line x1="80" y1="37" x2="82" y2="39" stroke="black" stroke-width="1" />
<line x1="82" y1="39" x2="85" y2="37" stroke="black" stroke-width="1" />
<rect x="39" y="35" width="41" height="5" style="fill:#f5b024;stroke:black;stroke-width:1;fill-opacity:1;stroke-opacity:0.3" />
<rect x="85" y="35" width="41" height="5" style="fill:#f5b024;stroke:black;stroke-width:1;fill-opacity:1;stroke-opacity:0.3" />
<line x1="173" y1="37" x2="185" y2="39" stroke="black" stroke-width="1" />
<line x1="185" y1="39" x2="197" y2="37" stroke="black" stroke-width="1" />
<rect x="131" y="35" width="41" height="5" style="fill:#5d3c2d;stroke:black;stroke-width:1;fill-opacity:1;stroke-opacity:0.3" />
<rect x="197" y="35" width="41" height="5" style="fill:#5d3c2d;stroke:black;stroke-width:1;fill-opacity:1;stroke-opacity:0.3" />
<line x1="181" y1="44" x2="191" y2="46" stroke="black" stroke-width="1" />
<line x1="191" y1="46" x2="201" y2="44" stroke="black" stroke-width="1" />
<rect x="140" y="42" width="41" height="5" style="fill:#f5b024;stroke:black;stroke-width:1;fill-opacity:1;stroke-opacity:0.3" />
<rect x="201" y="42" width="41" height="5" style="fill:#f5b024;stroke:black;stroke-width:1;fill-opacity:1;stroke-opacity:0.3" />
<line x1="192" y1="30" x2="200" y2="32" stroke="black" stroke-width="1" />
<line x1="200" y1="32" x2="208" y2="30" stroke="black" stroke-width="1" />
<rect x="151" y="28" width="41" height="5" style="fill:#f5b024;stroke:black;stroke-width:1;fill-opacity:1;stroke-opacity:0.3" />
<rect x="208" y="28" width="41" height="5" style="fill:#f5b024;stroke:black;stroke-width:1;fill-opacity:1;stroke-opacity:0.3" />
<line x1="214" y1="51" x2="216" y2="53" stroke="black" stroke-width="1" />
<line x1="216" y1="53" x2="218" y2="51" stroke="black" stroke-width="1" />
<rect x="151" y="49" width="62" height="5" style="fill:#f5b024;stroke:black;stroke-width:1;fill-opacity:1;stroke-opacity:0.3" />
<rect x="218" y="49" width="57" height="5" style="fill:#f5b024;stroke:black;stroke-width:1;fill-opacity:1;stroke-opacity:0.3" />
<line x1="211" y1="58" x2="240" y2="60" stroke="black" stroke-width="1" />
<line x1="240" y1="60" x2="269" y2="58" stroke="black" stroke-width="1" />
<rect x="169" y="56" width="41" height="5" style="fill:#f5b024;stroke:black;stroke-width:1;fill-opacity:1;stroke-opacity:0.3" />
<rect x="269" y="56" width="41" height="5" style="fill:#f5b024;stroke:black;stroke-width:1;fill-opacity:1;stroke-opacity:0.3" />
<line x1="219" y1="65" x2="222" y2="67" stroke="black" stroke-width="1" />
<line x1="222" y1="67" x2="226" y2="65" stroke="black" stroke-width="1" />
<rect x="177" y="63" width="41" height="5" style="fill:#f5b024;stroke:black;stroke-width:1;fill-opacity:1;stroke-opacity:0.3" />
<rect x="226" y="63" width="41" height="5" style="fill:#f5b024;stroke:black;stroke-width:1;fill-opacity:1;stroke-opacity:0.3" />
<line x1="229" y1="72" x2="233" y2="74" stroke="black" stroke-width="1" />
<line x1="233" y1="74" x2="238" y2="72" stroke="black" stroke-width="1" />
<rect x="187" y="70" width="41" height="5" style="fill:#f5b024;stroke:black;stroke-width:1;fill-opacity:1;stroke-opacity:0.3" />
<rect x="238" y="70" width="41" height="5" style="fill:#f5b024;stroke:black;stroke-width:1;fill-opacity:1;stroke-opacity:0.3" />
<line x1="251" y1="79" x2="285" y2="81" stroke="black" stroke-width="1" />
<line x1="285" y1="81" x2="319" y2="79" stroke="black" stroke-width="1" />
<rect x="209" y="77" width="41" height="5" style="fill:#5d3c2d;stroke:black;stroke-width:1;fill-opacity:1;stroke-opacity:0.3" />
<rect x="319" y="77" width="41" height="5" style="fill:#5d3c2d;stroke:black;stroke-width:1;fill-opacity:1;stroke-opacity:0.3" />
<line x1="256" y1="86" x2="260" y2="88" stroke="black" stroke-width="1" />
<line x1="260" y1="88" x2="264" y2="86" stroke="black" stroke-width="1" />
<rect x="215" y="84" width="40" height="5" style="fill:#f5b024;stroke:black;stroke-width:1;fill-opacity:1;stroke-opacity:0.3" />
<rect x="264" y="84" width="41" height="5" style="fill:#f5b024;stroke:black;stroke-width:1;fill-opacity:1;stroke-opacity:0.3" />
<line x1="262" y1="93" x2="273" y2="95" stroke="black" stroke-width="1" />
<line x1="273" y1="95" x2="284" y2="93" stroke="black" stroke-width="1" />
<rect x="221" y="91" width="41" height="5" style="fill:#f5b024;stroke:black;stroke-width:1;fill-opacity:1;stroke-opacity:0.3" />
<rect x="284" y="91" width="41" height="5" style="fill:#f5b024;stroke:black;stroke-width:1;fill-opacity:1;stroke-opacity:0.3" />
<line x1="262" y1="100" x2="269" y2="102" stroke="black" stroke-width="1" />
<line x1="269" y1="102" x2="276" y2="100" stroke="black" stroke-width="1" />
<rect x="221" y="98" width="41" height="5" style="fill:#f5b024;stroke:black;stroke-width:1;fill-opacity:1;stroke-opacity:0.3" />
<rect x="276" y="98" width="41" height="5" style="fill:#f5b024;stroke:black;stroke-width:1;fill-opacity:1;stroke-opacity:0.3" />
<line x1="269" y1="107" x2="288" y2="109" stroke="black" stroke-width="1" />
<line x1="288" y1="109" x2="308" y2="107" stroke="black" stroke-width="1" />
<rect x="227" y="105" width="41" height="5" style="fill:#5d3c2d;stroke:black;stroke-width:1;fill-opacity:1;stroke-opacity:0.3" />
<rect x="308" y="105" width="41" height="5" style="fill:#5d3c2d;stroke:black;stroke-width:1;fill-opacity:1;stroke-opacity:0.3" />
<line x1="269" y1="114" x2="286" y2="116" stroke="black" stroke-width="1" />
<line x1="286" y1="116" x2="304" y2="114" stroke="black" stroke-width="1" />
<rect x="228" y="112" width="40" height="5" style="fill:#5d3c2d;stroke:black;stroke-width:1;fill-opacity:1;stroke-opacity:0.3" />
<rect x="304" y="112" width="41" height="5" style="fill:#5d3c2d;stroke:black;stroke-width:1;fill-opacity:1;stroke-opacity:0.3" />
<line x1="270" y1="121" x2="290" y2="123" stroke="black" stroke-width="1" />
<line x1="290" y1="123" x2="310" y2="121" stroke="black" stroke-width="1" />
<rect x="228" y="119" width="41" height="5" style="fill:#5d3c2d;stroke:black;stroke-width:1;fill-opacity:1;stroke-opacity:0.3" />
<rect x="310" y="119" width="41" height="5" style="fill:#5d3c2d;stroke:black;stroke-width:1;fill-opacity:1;stroke-opacity:0.3" />
<line x1="270" y1="128" x2="281" y2="130" stroke="black" stroke-width="1" />
<line x1="281" y1="130" x2="292" y2="128" stroke="black" stroke-width="1" />
<rect x="228" y="126" width="41" height="5" style="fill:#f5b024;stroke:black;stroke-width:1;fill-opacity:1;stroke-opacity:0.3" />
<rect x="292" y="126" width="37" height="5" style="fill:#f5b024;stroke:black;stroke-width:1;fill-opacity:1;stroke-opacity:0.3" />
<line x1="270" y1="135" x2="288" y2="137" stroke="black" stroke-width="1" />
<line x1="288" y1="137" x2="306" y2="135" stroke="black" stroke-width="1" />
<rect x="229" y="133" width="41" height="5" style="fill:#5d3c2d;stroke:black;stroke-width:1;fill-opacity:1;stroke-opacity:0.3" />
<rect x="306" y="133" width="40" height="5" style="fill:#5d3c2d;stroke:black;stroke-width:1;fill-opacity:1;stroke-opacity:0.3" />
<line x1="270" y1="142" x2="290" y2="144" stroke="black" stroke-width="1" />
<line x1="290" y1="144" x2="310" y2="142" stroke="black" stroke-width="1" />
<rect x="229" y="140" width="40" height="5" style="fill:#f5b024;stroke:black;stroke-width:1;fill-opacity:1;stroke-opacity:0.3" />
<rect x="310" y="140" width="41" height="5" style="fill:#f5b024;stroke:black;stroke-width:1;fill-opacity:1;stroke-opacity:0.3" />
<line x1="271" y1="149" x2="283" y2="151" stroke="black" stroke-width="1" />
<line x1="283" y1="151" x2="296" y2="149" stroke="black" stroke-width="1" />
<rect x="229" y="147" width="41" height="5" style="fill:#f5b024;stroke:black;stroke-width:1;fill-opacity:1;stroke-opacity:0.3" />
<rect x="296" y="147" width="41" height="5" style="fill:#f5b024;stroke:black;stroke-width:1;fill-opacity:1;stroke-opacity:0.3" />
<line x1="270" y1="156" x2="289" y2="158" stroke="black" stroke-width="1" />
<line x1="289" y1="158" x2="308" y2="156" stroke="black" stroke-width="1" />
<rect x="230" y="154" width="40" height="5" style="fill:#f5b024;stroke:black;stroke-width:1;fill-opacity:1;stroke-opacity:0.3" />
<rect x="308" y="154" width="41" height="5" style="fill:#f5b024;stroke:black;stroke-width:1;fill-opacity:1;stroke-opacity:0.3" />
<line x1="273" y1="163" x2="290" y2="165" stroke="black" stroke-width="1" />
<line x1="290" y1="165" x2="308" y2="163" stroke="black" stroke-width="1" />
<rect x="231" y="161" width="41" height="5" style="fill:#f5b024;stroke:black;stroke-width:1;fill-opacity:1;stroke-opacity:0.3" />
<rect x="308" y="161" width="41" height="5" style="fill:#f5b024;stroke:black;stroke-width:1;fill-opacity:1;stroke-opacity:0.3" />
<line x1="283" y1="37" x2="285" y2="39" stroke="black" stroke-width="1" />
<line x1="285" y1="39" x2="287" y2="37" stroke="black" stroke-width="1" />
<rect x="242" y="35" width="41" height="5" style="fill:#f5b024;stroke:black;stroke-width:1;fill-opacity:1;stroke-opacity:0.3" />
<rect x="287" y="35" width="41" height="5" style="fill:#f5b024;stroke:black;stroke-width:1;fill-opacity:1;stroke-opacity:0.3" />
<line x1="285" y1="44" x2="297" y2="46" stroke="black" stroke-width="1" />
<line x1="297" y1="46" x2="309" y2="44" stroke="black" stroke-width="1" />
<rect x="243" y="42" width="41" height="5" style="fill:#f5b024;stroke:black;stroke-width:1;fill-opacity:1;stroke-opacity:0.3" />
<rect x="309" y="42" width="41" height="5" style="fill:#f5b024;stroke:black;stroke-width:1;fill-opacity:1;stroke-opacity:0.3" />
<line x1="291" y1="30" x2="299" y2="32" stroke="black" stroke-width="1" />
<line x1="299" y1="32" x2="307" y2="30" stroke="black" stroke-width="1" />
<rect x="250" y="28" width="40" height="5" style="fill:#f5b024;stroke:black;stroke-width:1;fill-opacity:1;stroke-opacity:0.3" />
<rect x="307" y="28" width="41" height="5" style="fill:#f5b024;stroke:black;stroke-width:1;fill-opacity:1;stroke-opacity:0.3" />
<line x1="311" y1="65" x2="313" y2="67" stroke="black" stroke-width="1" />
<line x1="313" y1="67" x2="315" y2="65" stroke="black" stroke-width="1" />
<rect x="270" y="63" width="41" height="5" style="fill:#5d3c2d;stroke:black;stroke-width:1;fill-opacity:1;stroke-opacity:0.3" />
<rect x="315" y="63" width="41" height="5" style="fill:#5d3c2d;stroke:black;stroke-width:1;fill-opacity:1;stroke-opacity:0.3" />
<line x1="325" y1="51" x2="336" y2="53" stroke="black" stroke-width="1" />
<line x1="336" y1="53" x2="347" y2="51" stroke="black" stroke-width="1" />
<rect x="287" y="49" width="37" height="5" style="fill:#f5b024;stroke:black;stroke-width:1;fill-opacity:1;stroke-opacity:0.3" />
<rect x="347" y="49" width="41" height="5" style="fill:#f5b024;stroke:black;stroke-width:1;fill-opacity:1;stroke-opacity:0.3" />
<line x1="330" y1="72" x2="338" y2="74" stroke="black" stroke-width="1" />
<line x1="338" y1="74" x2="347" y2="72" stroke="black" stroke-width="1" />
<rect x="289" y="70" width="41" height="5" style="fill:#f5b024;stroke:black;stroke-width:1;fill-opacity:1;stroke-opacity:0.3" />
<rect x="347" y="70" width="41" height="5" style="fill:#f5b024;stroke:black;stroke-width:1;fill-opacity:1;stroke-opacity:0.3" />
<line x1="364" y1="58" x2="366" y2="60" stroke="black" stroke-width="1" />
<line x1="366" y1="60" x2="368" y2="58" stroke="black" stroke-width="1" />
<rect x="323" y="56" width="41" height="5" style="fill:#f5b024;stroke:black;stroke-width:1;fill-opacity:1;stroke-opacity:0.3" />
<rect x="368" y="56" width="41" height="5" style="fill:#f5b024;stroke:black;stroke-width:1;fill-opacity:1;stroke-opacity:0.3" />
<line x1="382" y1="37" x2="385" y2="39" stroke="black" stroke-width="1" />
<line x1="385" y1="39" x2="388" y2="37" stroke="black" stroke-width="1" />
<rect x="340" y="35" width="41" height="5" style="fill:#f5b024;stroke:black;stroke-width:1;fill-opacity:1;stroke-opacity:0.3" />
<rect x="388" y="35" width="41" height="5" style="fill:#f5b024;stroke:black;stroke-width:1;fill-opacity:1;stroke-opacity:0.3" />
<line x1="385" y1="86" x2="388" y2="88" stroke="black" stroke-width="1" />
<line x1="388" y1="88" x2="392" y2="86" stroke="black" stroke-width="1" />
<rect x="343" y="84" width="41" height="5" style="fill:#f5b024;stroke:black;stroke-width:1;fill-opacity:1;stroke-opacity:0.3" />
<rect x="392" y="84" width="41" height="5" style="fill:#f5b024;stroke:black;stroke-width:1;fill-opacity:1;stroke-opacity:0.3" />
<line x1="386" y1="93" x2="399" y2="95" stroke="black" stroke-width="1" />
<line x1="399" y1="95" x2="413" y2="93" stroke="black" stroke-width="1" />
<rect x="345" y="91" width="41" height="5" style="fill:#f5b024;stroke:black;stroke-width:1;fill-opacity:1;stroke-opacity:0.3" />
<rect x="413" y="91" width="41" height="5" style="fill:#f5b024;stroke:black;stroke-width:1;fill-opacity:1;stroke-opacity:0.3" />
<line x1="409" y1="100" x2="419" y2="102" stroke="black" stroke-width="1" />
<line x1="419" y1="102" x2="430" y2="100" stroke="black" stroke-width="1" />
<rect x="347" y="98" width="62" height="5" style="fill:#f5b024;stroke:black;stroke-width:1;fill-opacity:1;stroke-opacity:0.3" />
<rect x="430" y="98" width="62" height="5" style="fill:#f5b024;stroke:black;stroke-width:1;fill-opacity:1;stroke-opacity:0.3" />
<line x1="389" y1="114" x2="392" y2="116" stroke="black" stroke-width="1" />
<line x1="392" y1="116" x2="395" y2="114" stroke="black" stroke-width="1" />
<rect x="348" y="112" width="41" height="5" style="fill:#f5b024;stroke:black;stroke-width:1;fill-opacity:1;stroke-opacity:0.3" />
<rect x="395" y="112" width="41" height="5" style="fill:#f5b024;stroke:black;stroke-width:1;fill-opacity:1;stroke-opacity:0.3" />
<line x1="392" y1="30" x2="405" y2="32" stroke="black" stroke-width="1" />
<line x1="405" y1="32" x2="418" y2="30" stroke="black" stroke-width="1" />
<rect x="351" y="28" width="41" height="5" style="fill:#f5b024;stroke:black;stroke-width:1;fill-opacity:1;stroke-opacity:0.3" />
<rect x="418" y="28" width="41" height="5" style="fill:#f5b024;stroke:black;stroke-width:1;fill-opacity:1;stroke-opacity:0.3" />
<line x1="402" y1="44" x2="410" y2="46" stroke="black" stroke-width="1" />
<line x1="410" y1="46" x2="419" y2="44" stroke="black" stroke-width="1" />
<rect x="361" y="42" width="41" height="5" style="fill:#f5b024;stroke:black;stroke-width:1;fill-opacity:1;stroke-opacity:0.3" />
<rect x="419" y="42" width="41" height="5" style="fill:#f5b024;stroke:black;stroke-width:1;fill-opacity:1;stroke-opacity:0.3" />
<line x1="411" y1="65" x2="422" y2="67" stroke="black" stroke-width="1" />
<line x1="422" y1="67" x2="434" y2="65" stroke="black" stroke-width="1" />
<rect x="369" y="63" width="41" height="5" style="fill:#f5b024;stroke:black;stroke-width:1;fill-opacity:1;stroke-opacity:0.3" />
<rect x="434" y="63" width="41" height="5" style="fill:#f5b024;stroke:black;stroke-width:1;fill-opacity:1;stroke-opacity:0.3" />
<line x1="411" y1="79" x2="414" y2="81" stroke="black" stroke-width="1" />
<line x1="414" y1="81" x2="417" y2="79" stroke="black" stroke-width="1" />
<rect x="370" y="77" width="41" height="5" style="fill:#f5b024;stroke:black;stroke-width:1;fill-opacity:1;stroke-opacity:0.3" />
<rect x="417" y="77" width="41" height="5" style="fill:#f5b024;stroke:black;stroke-width:1;fill-opacity:1;stroke-opacity:0.3" />
<line x1="423" y1="107" x2="435" y2="109" stroke="black" stroke-width="1" />
<line x1="435" y1="109" x2="447" y2="107" stroke="black" stroke-width="1" />
<rect x="381" y="105" width="41" height="5" style="fill:#f5b024;stroke:black;stroke-width:1;fill-opacity:1;stroke-opacity:0.3" />
<rect x="447" y="105" width="41" height="5" style="fill:#f5b024;stroke:black;stroke-width:1;fill-opacity:1;stroke-opacity:0.3" />
<line x1="445" y1="51" x2="460" y2="53" stroke="black" stroke-width="1" />
<line x1="460" y1="53" x2="476" y2="51" stroke="black" stroke-width="1" />
<rect x="403" y="49" width="41" height="5" style="fill:#f5b024;stroke:black;stroke-width:1;fill-opacity:1;stroke-opacity:0.3" />
<rect x="476" y="49" width="41" height="5" style="fill:#f5b024;stroke:black;stroke-width:1;fill-opacity:1;stroke-opacity:0.3" />
<line x1="463" y1="58" x2="473" y2="60" stroke="black" stroke-width="1" />
<line x1="473" y1="60" x2="484" y2="58" stroke="black" stroke-width="1" />
<rect x="421" y="56" width="41" height="5" style="fill:#f5b024;stroke:black;stroke-width:1;fill-opacity:1;stroke-opacity:0.3" />
<rect x="484" y="56" width="41" height="5" style="fill:#f5b024;stroke:black;stroke-width:1;fill-opacity:1;stroke-opacity:0.3" />
<line x1="835" y1="30" x2="851" y2="32" stroke="black" stroke-width="1" />
<line x1="851" y1="32" x2="868" y2="30" stroke="black" stroke-width="1" />
<rect x="795" y="28" width="40" height="5" style="fill:#f5b024;stroke:black;stroke-width:1;fill-opacity:1;stroke-opacity:0.3" />
<rect x="868" y="28" width="41" height="5" style="fill:#f5b024;stroke:black;stroke-width:1;fill-opacity:1;stroke-opacity:0.3" />
<line x1="831" y1="37" x2="851" y2="39" stroke="black" stroke-width="1" />
<line x1="851" y1="39" x2="872" y2="37" stroke="black" stroke-width="1" />
<rect x="795" y="35" width="35" height="5" style="fill:#f5b024;stroke:black;stroke-width:1;fill-opacity:1;stroke-opacity:0.3" />
<rect x="872" y="35" width="41" height="5" style="fill:#f5b024;stroke:black;stroke-width:1;fill-opacity:1;stroke-opacity:0.3" />
<line x1="852" y1="44" x2="856" y2="46" stroke="black" stroke-width="1" />
<line x1="856" y1="46" x2="861" y2="44" stroke="black" stroke-width="1" />
<rect x="795" y="42" width="56" height="5" style="fill:#f5b024;stroke:black;stroke-width:1;fill-opacity:1;stroke-opacity:0.3" />
<rect x="861" y="42" width="55" height="5" style="fill:#f5b024;stroke:black;stroke-width:1;fill-opacity:1;stroke-opacity:0.3" />
<line x1="832" y1="51" x2="849" y2="53" stroke="black" stroke-width="1" />
<line x1="849" y1="53" x2="867" y2="51" stroke="black" stroke-width="1" />
<rect x="795" y="49" width="36" height="5" style="fill:#f5b024;stroke:black;stroke-width:1;fill-opacity:1;stroke-opacity:0.3" />
<rect x="867" y="49" width="41" height="5" style="fill:#f5b024;stroke:black;stroke-width:1;fill-opacity:1;stroke-opacity:0.3" />
<line x1="855" y1="58" x2="858" y2="60" stroke="black" stroke-width="1" />
<line x1="858" y1="60" x2="861" y2="58" stroke="black" stroke-width="1" />
<rect x="795" y="56" width="59" height="5" style="fill:#f5b024;stroke:black;stroke-width:1;fill-opacity:1;stroke-opacity:0.3" />
<rect x="861" y="56" width="53" height="5" style="fill:#f5b024;stroke:black;stroke-width:1;fill-opacity:1;stroke-opacity:0.3" />
<line x1="830" y1="65" x2="847" y2="67" stroke="black" stroke-width="1" />
<line x1="847" y1="67" x2="864" y2="65" stroke="black" stroke-width="1" />
<rect x="795" y="63" width="34" height="5" style="fill:#f5b024;stroke:black;stroke-width:1;fill-opacity:1;stroke-opacity:0.3" />
<rect x="864" y="63" width="41" height="5" style="fill:#f5b024;stroke:black;stroke-width:1;fill-opacity:1;stroke-opacity:0.3" />
<line x1="835" y1="72" x2="851" y2="74" stroke="black" stroke-width="1" />
<line x1="851" y1="74" x2="868" y2="72" stroke="black" stroke-width="1" />
<rect x="795" y="70" width="39" height="5" style="fill:#f5b024;stroke:black;stroke-width:1;fill-opacity:1;stroke-opacity:0.3" />
<rect x="868" y="70" width="41" height="5" style="fill:#f5b024;stroke:black;stroke-width:1;fill-opacity:1;stroke-opacity:0.3" />
<line x1="854" y1="79" x2="857" y2="81" stroke="black" stroke-width="1" />
<line x1="857" y1="81" x2="861" y2="79" stroke="black" stroke-width="1" />
<rect x="795" y="77" width="58" height="5" style="fill:#f5b024;stroke:black;stroke-width:1;fill-opacity:1;stroke-opacity:0.3" />
<rect x="861" y="77" width="50" height="5" style="fill:#f5b024;stroke:black;stroke-width:1;fill-opacity:1;stroke-opacity:0.3" />
<line x1="830" y1="86" x2="850" y2="88" stroke="black" stroke-width="1" />
<line x1="850" y1="88" x2="870" y2="86" stroke="black" stroke-width="1" />
<rect x="795" y="84" width="35" height="5" style="fill:#f5b024;stroke:black;stroke-width:1;fill-opacity:1;stroke-opacity:0.3" />
<rect x="870" y="84" width="41" height="5" style="fill:#f5b024;stroke:black;stroke-width:1;fill-opacity:1;stroke-opacity:0.3" />
<line x1="853" y1="93" x2="857" y2="95" stroke="black" stroke-width="1" />
<line x1="857" y1="95" x2="861" y2="93" stroke="black" stroke-width="1" />
<rect x="795" y="91" width="57" height="5" style="fill:#f5b024;stroke:black;stroke-width:1;fill-opacity:1;stroke-opacity:0.3" />
<rect x="861" y="91" width="53" height="5" style="fill:#f5b024;stroke:black;stroke-width:1;fill-opacity:1;stroke-opacity:0.3" />
<line x1="837" y1="100" x2="855" y2="102" stroke="black" stroke-width="1" />
<line x1="855" y1="102" x2="873" y2="100" stroke="black" stroke-width="1" />
<rect x="796" y="98" width="41" height="5" style="fill:#f5b024;stroke:black;stroke-width:1;fill-opacity:1;stroke-opacity:0.3" />
<rect x="873" y="98" width="41" height="5" style="fill:#f5b024;stroke:black;stroke-width:1;fill-opacity:1;stroke-opacity:0.3" />
<line x1="837" y1="107" x2="853" y2="109" stroke="black" stroke-width="1" />
<line x1="853" y1="109" x2="869" y2="107" stroke="black" stroke-width="1" />
<rect x="796" y="105" width="41" height="5" style="fill:#f5b024;stroke:black;stroke-width:1;fill-opacity:1;stroke-opacity:0.3" />
<rect x="869" y="105" width="41" height="5" style="fill:#f5b024;stroke:black;stroke-width:1;fill-opacity:1;stroke-opacity:0.3" />
<line x1="835" y1="114" x2="850" y2="116" stroke="black" stroke-width="1" />
<line x1="850" y1="116" x2="865" y2="114" stroke="black" stroke-width="1" />
<rect x="796" y="112" width="39" height="5" style="fill:#f5b024;stroke:black;stroke-width:1;fill-opacity:1;stroke-opacity:0.3" />
<rect x="865" y="112" width="41" height="5" style="fill:#f5b024;stroke:black;stroke-width:1;fill-opacity:1;stroke-opacity:0.3" />
<line x1="837" y1="121" x2="854" y2="123" stroke="black" stroke-width="1" />
<line x1="854" y1="123" x2="872" y2="121" stroke="black" stroke-width="1" />
<rect x="796" y="119" width="41" height="5" style="fill:#f5b024;stroke:black;stroke-width:1;fill-opacity:1;stroke-opacity:0.3" />
<rect x="872" y="119" width="41" height="5" style="fill:#f5b024;stroke:black;stroke-width:1;fill-opacity:1;stroke-opacity:0.3" />
<line x1="835" y1="128" x2="848" y2="130" stroke="black" stroke-width="1" />
<line x1="848" y1="130" x2="862" y2="128" stroke="black" stroke-width="1" />
<rect x="796" y="126" width="38" height="5" style="fill:#f5b024;stroke:black;stroke-width:1;fill-opacity:1;stroke-opacity:0.3" />
<rect x="862" y="126" width="41" height="5" style="fill:#f5b024;stroke:black;stroke-width:1;fill-opacity:1;stroke-opacity:0.3" />
<line x1="837" y1="135" x2="851" y2="137" stroke="black" stroke-width="1" />
<line x1="851" y1="137" x2="866" y2="135" stroke="black" stroke-width="1" />
<rect x="796" y="133" width="41" height="5" style="fill:#f5b024;stroke:black;stroke-width:1;fill-opacity:1;stroke-opacity:0.3" />
<rect x="866" y="133" width="41" height="5" style="fill:#f5b024;stroke:black;stroke-width:1;fill-opacity:1;stroke-opacity:0.3" />
<line x1="837" y1="142" x2="854" y2="144" stroke="black" stroke-width="1" />
<line x1="854" y1="144" x2="872" y2="142" stroke="black" stroke-width="1" />
<rect x="796" y="140" width="41" height="5" style="fill:#f5b024;stroke:black;stroke-width:1;fill-opacity:1;stroke-opacity:0.3" />
<rect x="872" y="140" width="41" height="5" style="fill:#f5b024;stroke:black;stroke-width:1;fill-opacity:1;stroke-opacity:0.3" />
<line x1="837" y1="149" x2="852" y2="151" stroke="black" stroke-width="1" />
<line x1="852" y1="151" x2="868" y2="149" stroke="black" stroke-width="1" />
<rect x="796" y="147" width="41" height="5" style="fill:#f5b024;stroke:black;stroke-width:1;fill-opacity:1;stroke-opacity:0.3" />
<rect x="868" y="147" width="41" height="5" style="fill:#f5b024;stroke:black;stroke-width:1;fill-opacity:1;stroke-opacity:0.3" />
<line x1="837" y1="156" x2="853" y2="158" stroke="black" stroke-width="1" />
<line x1="853" y1="158" x2="869" y2="156" stroke="black" stroke-width="1" />
<rect x="796" y="154" width="41" height="5" style="fill:#f5b024;stroke:black;stroke-width:1;fill-opacity:1;stroke-opacity:0.3" />
<rect x="869" y="154" width="41" height="5" style="fill:#f5b024;stroke:black;stroke-width:1;fill-opacity:1;stroke-opacity:0.3" />
<line x1="837" y1="163" x2="850" y2="165" stroke="black" stroke-width="1" />
<line x1="850" y1="165" x2="864" y2="163" stroke="black" stroke-width="1" />
<rect x="796" y="161" width="41" height="5" style="fill:#f5b024;stroke:black;stroke-width:1;fill-opacity:1;stroke-opacity:0.3" />
<rect x="864" y="161" width="41" height="5" style="fill:#f5b024;stroke:black;stroke-width:1;fill-opacity:1;stroke-opacity:0.3" />
<text x="15"  y="176" style="font-family:Arial;font-size:10;stroke:black;fill:black;">all.merged.bam</text>
</svg>
    
