<?xml version="1.0" encoding="utf-8" standalone="no"?>
<!DOCTYPE svg PUBLIC "-//W3C//DTD SVG 1.1//EN"
  "http://www.w3.org/Graphics/SVG/1.1/DTD/svg11.dtd">
<svg height="1140" width="1000" version="1.1" viewBox="0 0 1000 1140" xmlns="http://www.w3.org/2000/svg" xmlns:xlink="http://www.w3.org/1999/xlink">
<line x1="36" y1="11" x2="962" y2="11" stroke="black" stroke-width="1" />
<rect x="36" y="9" width="173" height="5" style="fill:#f50002;stroke:black;stroke-width:1;fill-opacity:1;stroke-opacity:0.3" />
<rect x="210" y="9" width="33" height="5" style="fill:#53a1b5;stroke:black;stroke-width:1;fill-opacity:1;stroke-opacity:0.3" />
<rect x="306" y="9" width="60" height="5" style="fill:#53a1b5;stroke:black;stroke-width:1;fill-opacity:1;stroke-opacity:0.3" />
<rect x="582" y="9" width="74" height="5" style="fill:#53a1b5;stroke:black;stroke-width:1;fill-opacity:1;stroke-opacity:0.3" />
<rect x="714" y="9" width="27" height="5" style="fill:#53a1b5;stroke:black;stroke-width:1;fill-opacity:1;stroke-opacity:0.3" />
<rect x="853" y="9" width="41" height="5" style="fill:#53a1b5;stroke:black;stroke-width:1;fill-opacity:1;stroke-opacity:0.3" />
<rect x="894" y="9" width="68" height="5" style="fill:#f50002;stroke:black;stroke-width:1;fill-opacity:1;stroke-opacity:0.3" />
<text x="36"  y="23" style="font-family:Arial;font-size:10;stroke:black;fill:black;">Cre02.g095061.t1.1.v5.5 (-) chromosome_2:3138112-3140635</text>
<line x1="58" y1="30" x2="60" y2="32" stroke="black" stroke-width="1" />
<line x1="60" y1="32" x2="63" y2="30" stroke="black" stroke-width="1" />
<rect x="2" y="28" width="55" height="5" style="fill:#f5b024;stroke:black;stroke-width:1;fill-opacity:1;stroke-opacity:0.3" />
<rect x="63" y="28" width="54" height="5" style="fill:#f5b024;stroke:black;stroke-width:1;fill-opacity:1;stroke-opacity:0.3" />
<line x1="114" y1="37" x2="118" y2="39" stroke="black" stroke-width="1" />
<line x1="118" y1="39" x2="122" y2="37" stroke="black" stroke-width="1" />
<rect x="78" y="35" width="36" height="5" style="fill:#f5b024;stroke:black;stroke-width:1;fill-opacity:1;stroke-opacity:0.3" />
<rect x="122" y="35" width="36" height="5" style="fill:#f5b024;stroke:black;stroke-width:1;fill-opacity:1;stroke-opacity:0.3" />
<line x1="118" y1="44" x2="125" y2="46" stroke="black" stroke-width="1" />
<line x1="125" y1="46" x2="133" y2="44" stroke="black" stroke-width="1" />
<rect x="81" y="42" width="36" height="5" style="fill:#f5b024;stroke:black;stroke-width:1;fill-opacity:1;stroke-opacity:0.3" />
<rect x="133" y="42" width="36" height="5" style="fill:#f5b024;stroke:black;stroke-width:1;fill-opacity:1;stroke-opacity:0.3" />
<line x1="118" y1="51" x2="123" y2="53" stroke="black" stroke-width="1" />
<line x1="123" y1="53" x2="129" y2="51" stroke="black" stroke-width="1" />
<rect x="81" y="49" width="36" height="5" style="fill:#f5b024;stroke:black;stroke-width:1;fill-opacity:1;stroke-opacity:0.3" />
<rect x="129" y="49" width="36" height="5" style="fill:#f5b024;stroke:black;stroke-width:1;fill-opacity:1;stroke-opacity:0.3" />
<line x1="130" y1="58" x2="136" y2="60" stroke="black" stroke-width="1" />
<line x1="136" y1="60" x2="143" y2="58" stroke="black" stroke-width="1" />
<rect x="93" y="56" width="36" height="5" style="fill:#5d3c2d;stroke:black;stroke-width:1;fill-opacity:1;stroke-opacity:0.3" />
<rect x="143" y="56" width="36" height="5" style="fill:#5d3c2d;stroke:black;stroke-width:1;fill-opacity:1;stroke-opacity:0.3" />
<line x1="140" y1="65" x2="148" y2="67" stroke="black" stroke-width="1" />
<line x1="148" y1="67" x2="157" y2="65" stroke="black" stroke-width="1" />
<rect x="103" y="63" width="36" height="5" style="fill:#f5b024;stroke:black;stroke-width:1;fill-opacity:1;stroke-opacity:0.3" />
<rect x="157" y="63" width="36" height="5" style="fill:#f5b024;stroke:black;stroke-width:1;fill-opacity:1;stroke-opacity:0.3" />
<line x1="142" y1="72" x2="144" y2="74" stroke="black" stroke-width="1" />
<line x1="144" y1="74" x2="146" y2="72" stroke="black" stroke-width="1" />
<rect x="106" y="70" width="36" height="5" style="fill:#5d3c2d;stroke:black;stroke-width:1;fill-opacity:1;stroke-opacity:0.3" />
<rect x="146" y="70" width="36" height="5" style="fill:#5d3c2d;stroke:black;stroke-width:1;fill-opacity:1;stroke-opacity:0.3" />
<line x1="144" y1="79" x2="147" y2="81" stroke="black" stroke-width="1" />
<line x1="147" y1="81" x2="151" y2="79" stroke="black" stroke-width="1" />
<rect x="107" y="77" width="36" height="5" style="fill:#f5b024;stroke:black;stroke-width:1;fill-opacity:1;stroke-opacity:0.3" />
<rect x="151" y="77" width="36" height="5" style="fill:#f5b024;stroke:black;stroke-width:1;fill-opacity:1;stroke-opacity:0.3" />
<line x1="144" y1="86" x2="147" y2="88" stroke="black" stroke-width="1" />
<line x1="147" y1="88" x2="151" y2="86" stroke="black" stroke-width="1" />
<rect x="107" y="84" width="36" height="5" style="fill:#f5b024;stroke:black;stroke-width:1;fill-opacity:1;stroke-opacity:0.3" />
<rect x="151" y="84" width="36" height="5" style="fill:#f5b024;stroke:black;stroke-width:1;fill-opacity:1;stroke-opacity:0.3" />
<line x1="157" y1="30" x2="166" y2="32" stroke="black" stroke-width="1" />
<line x1="166" y1="32" x2="176" y2="30" stroke="black" stroke-width="1" />
<rect x="120" y="28" width="36" height="5" style="fill:#f5b024;stroke:black;stroke-width:1;fill-opacity:1;stroke-opacity:0.3" />
<rect x="176" y="28" width="36" height="5" style="fill:#f5b024;stroke:black;stroke-width:1;fill-opacity:1;stroke-opacity:0.3" />
<line x1="162" y1="93" x2="166" y2="95" stroke="black" stroke-width="1" />
<line x1="166" y1="95" x2="170" y2="93" stroke="black" stroke-width="1" />
<rect x="125" y="91" width="36" height="5" style="fill:#f5b024;stroke:black;stroke-width:1;fill-opacity:1;stroke-opacity:0.3" />
<rect x="170" y="91" width="36" height="5" style="fill:#f5b024;stroke:black;stroke-width:1;fill-opacity:1;stroke-opacity:0.3" />
<line x1="166" y1="100" x2="169" y2="102" stroke="black" stroke-width="1" />
<line x1="169" y1="102" x2="172" y2="100" stroke="black" stroke-width="1" />
<rect x="130" y="98" width="35" height="5" style="fill:#f5b024;stroke:black;stroke-width:1;fill-opacity:1;stroke-opacity:0.3" />
<rect x="172" y="98" width="36" height="5" style="fill:#f5b024;stroke:black;stroke-width:1;fill-opacity:1;stroke-opacity:0.3" />
<line x1="170" y1="107" x2="174" y2="109" stroke="black" stroke-width="1" />
<line x1="174" y1="109" x2="179" y2="107" stroke="black" stroke-width="1" />
<rect x="133" y="105" width="36" height="5" style="fill:#5d3c2d;stroke:black;stroke-width:1;fill-opacity:1;stroke-opacity:0.3" />
<rect x="179" y="105" width="36" height="5" style="fill:#5d3c2d;stroke:black;stroke-width:1;fill-opacity:1;stroke-opacity:0.3" />
<line x1="170" y1="114" x2="173" y2="116" stroke="black" stroke-width="1" />
<line x1="173" y1="116" x2="177" y2="114" stroke="black" stroke-width="1" />
<rect x="133" y="112" width="36" height="5" style="fill:#f5b024;stroke:black;stroke-width:1;fill-opacity:1;stroke-opacity:0.3" />
<rect x="177" y="112" width="36" height="5" style="fill:#f5b024;stroke:black;stroke-width:1;fill-opacity:1;stroke-opacity:0.3" />
<line x1="167" y1="121" x2="179" y2="123" stroke="black" stroke-width="1" />
<line x1="179" y1="123" x2="192" y2="121" stroke="black" stroke-width="1" />
<rect x="133" y="119" width="33" height="5" style="fill:#f5b024;stroke:black;stroke-width:1;fill-opacity:1;stroke-opacity:0.3" />
<rect x="192" y="119" width="29" height="5" style="fill:#f5b024;stroke:black;stroke-width:1;fill-opacity:1;stroke-opacity:0.3" />
<line x1="221" y1="121" x2="5871" y2="121" stroke="pink" stroke-width="1" />
<rect x="5871" y="119" width="6" height="5" style="fill:#f5b024;stroke:black;stroke-width:1;fill-opacity:1;stroke-opacity:0.3" />
<line x1="170" y1="128" x2="175" y2="130" stroke="black" stroke-width="1" />
<line x1="175" y1="130" x2="181" y2="128" stroke="black" stroke-width="1" />
<rect x="133" y="126" width="36" height="5" style="fill:#f5b024;stroke:black;stroke-width:1;fill-opacity:1;stroke-opacity:0.3" />
<rect x="181" y="126" width="36" height="5" style="fill:#f5b024;stroke:black;stroke-width:1;fill-opacity:1;stroke-opacity:0.3" />
<line x1="192" y1="135" x2="194" y2="137" stroke="black" stroke-width="1" />
<line x1="194" y1="137" x2="197" y2="135" stroke="black" stroke-width="1" />
<rect x="156" y="133" width="36" height="5" style="fill:#f5b024;stroke:black;stroke-width:1;fill-opacity:1;stroke-opacity:0.3" />
<rect x="197" y="133" width="30" height="5" style="fill:#f5b024;stroke:black;stroke-width:1;fill-opacity:1;stroke-opacity:0.3" />
<line x1="227" y1="135" x2="5871" y2="135" stroke="pink" stroke-width="1" />
<rect x="5871" y="133" width="6" height="5" style="fill:#f5b024;stroke:black;stroke-width:1;fill-opacity:1;stroke-opacity:0.3" />
<line x1="223" y1="142" x2="228" y2="144" stroke="black" stroke-width="1" />
<line x1="228" y1="144" x2="234" y2="142" stroke="black" stroke-width="1" />
<rect x="156" y="140" width="25" height="5" style="fill:#f5b024;stroke:black;stroke-width:1;fill-opacity:1;stroke-opacity:0.3" />
<line x1="181" y1="142" x2="211" y2="142" stroke="pink" stroke-width="1" />
<rect x="211" y="140" width="11" height="5" style="fill:#f5b024;stroke:black;stroke-width:1;fill-opacity:1;stroke-opacity:0.3" />
<rect x="234" y="140" width="9" height="5" style="fill:#f5b024;stroke:black;stroke-width:1;fill-opacity:1;stroke-opacity:0.3" />
<line x1="244" y1="142" x2="306" y2="142" stroke="pink" stroke-width="1" />
<rect x="306" y="140" width="26" height="5" style="fill:#f5b024;stroke:black;stroke-width:1;fill-opacity:1;stroke-opacity:0.3" />
<line x1="200" y1="37" x2="202" y2="39" stroke="black" stroke-width="1" />
<line x1="202" y1="39" x2="204" y2="37" stroke="black" stroke-width="1" />
<rect x="164" y="35" width="36" height="5" style="fill:#f5b024;stroke:black;stroke-width:1;fill-opacity:1;stroke-opacity:0.3" />
<rect x="204" y="35" width="36" height="5" style="fill:#f5b024;stroke:black;stroke-width:1;fill-opacity:1;stroke-opacity:0.3" />
<line x1="203" y1="51" x2="207" y2="53" stroke="black" stroke-width="1" />
<line x1="207" y1="53" x2="211" y2="51" stroke="black" stroke-width="1" />
<rect x="167" y="49" width="36" height="5" style="fill:#f5b024;stroke:black;stroke-width:1;fill-opacity:1;stroke-opacity:0.3" />
<rect x="211" y="49" width="32" height="5" style="fill:#f5b024;stroke:black;stroke-width:1;fill-opacity:1;stroke-opacity:0.3" />
<line x1="244" y1="51" x2="306" y2="51" stroke="pink" stroke-width="1" />
<rect x="306" y="49" width="4" height="5" style="fill:#f5b024;stroke:black;stroke-width:1;fill-opacity:1;stroke-opacity:0.3" />
<line x1="203" y1="149" x2="210" y2="151" stroke="black" stroke-width="1" />
<line x1="210" y1="151" x2="217" y2="149" stroke="black" stroke-width="1" />
<rect x="167" y="147" width="36" height="5" style="fill:#f5b024;stroke:black;stroke-width:1;fill-opacity:1;stroke-opacity:0.3" />
<rect x="217" y="147" width="26" height="5" style="fill:#f5b024;stroke:black;stroke-width:1;fill-opacity:1;stroke-opacity:0.3" />
<line x1="244" y1="149" x2="306" y2="149" stroke="pink" stroke-width="1" />
<rect x="306" y="147" width="9" height="5" style="fill:#f5b024;stroke:black;stroke-width:1;fill-opacity:1;stroke-opacity:0.3" />
<line x1="207" y1="44" x2="209" y2="46" stroke="black" stroke-width="1" />
<line x1="209" y1="46" x2="211" y2="44" stroke="black" stroke-width="1" />
<rect x="171" y="42" width="36" height="5" style="fill:#f5b024;stroke:black;stroke-width:1;fill-opacity:1;stroke-opacity:0.3" />
<rect x="211" y="42" width="32" height="5" style="fill:#f5b024;stroke:black;stroke-width:1;fill-opacity:1;stroke-opacity:0.3" />
<line x1="244" y1="44" x2="306" y2="44" stroke="pink" stroke-width="1" />
<rect x="306" y="42" width="4" height="5" style="fill:#f5b024;stroke:black;stroke-width:1;fill-opacity:1;stroke-opacity:0.3" />
<line x1="207" y1="156" x2="209" y2="158" stroke="black" stroke-width="1" />
<line x1="209" y1="158" x2="211" y2="156" stroke="black" stroke-width="1" />
<rect x="171" y="154" width="36" height="5" style="fill:#f5b024;stroke:black;stroke-width:1;fill-opacity:1;stroke-opacity:0.3" />
<rect x="211" y="154" width="32" height="5" style="fill:#f5b024;stroke:black;stroke-width:1;fill-opacity:1;stroke-opacity:0.3" />
<line x1="244" y1="156" x2="306" y2="156" stroke="pink" stroke-width="1" />
<rect x="306" y="154" width="4" height="5" style="fill:#f5b024;stroke:black;stroke-width:1;fill-opacity:1;stroke-opacity:0.3" />
<line x1="210" y1="163" x2="213" y2="165" stroke="black" stroke-width="1" />
<line x1="213" y1="165" x2="217" y2="163" stroke="black" stroke-width="1" />
<rect x="174" y="161" width="36" height="5" style="fill:#f5b024;stroke:black;stroke-width:1;fill-opacity:1;stroke-opacity:0.3" />
<rect x="217" y="161" width="26" height="5" style="fill:#f5b024;stroke:black;stroke-width:1;fill-opacity:1;stroke-opacity:0.3" />
<line x1="244" y1="163" x2="306" y2="163" stroke="pink" stroke-width="1" />
<rect x="306" y="161" width="10" height="5" style="fill:#f5b024;stroke:black;stroke-width:1;fill-opacity:1;stroke-opacity:0.3" />
<line x1="222" y1="58" x2="276" y2="60" stroke="black" stroke-width="1" />
<line x1="276" y1="60" x2="330" y2="58" stroke="black" stroke-width="1" />
<rect x="185" y="56" width="36" height="5" style="fill:#f5b024;stroke:black;stroke-width:1;fill-opacity:1;stroke-opacity:0.3" />
<rect x="330" y="56" width="36" height="5" style="fill:#f5b024;stroke:black;stroke-width:1;fill-opacity:1;stroke-opacity:0.3" />
<line x1="223" y1="72" x2="229" y2="74" stroke="black" stroke-width="1" />
<line x1="229" y1="74" x2="236" y2="72" stroke="black" stroke-width="1" />
<rect x="187" y="70" width="36" height="5" style="fill:#f5b024;stroke:black;stroke-width:1;fill-opacity:1;stroke-opacity:0.3" />
<rect x="236" y="70" width="8" height="5" style="fill:#f5b024;stroke:black;stroke-width:1;fill-opacity:1;stroke-opacity:0.3" />
<line x1="244" y1="72" x2="306" y2="72" stroke="pink" stroke-width="1" />
<rect x="306" y="70" width="28" height="5" style="fill:#f5b024;stroke:black;stroke-width:1;fill-opacity:1;stroke-opacity:0.3" />
<line x1="236" y1="65" x2="278" y2="67" stroke="black" stroke-width="1" />
<line x1="278" y1="67" x2="320" y2="65" stroke="black" stroke-width="1" />
<rect x="199" y="63" width="36" height="5" style="fill:#f5b024;stroke:black;stroke-width:1;fill-opacity:1;stroke-opacity:0.3" />
<rect x="320" y="63" width="36" height="5" style="fill:#f5b024;stroke:black;stroke-width:1;fill-opacity:1;stroke-opacity:0.3" />
<line x1="240" y1="79" x2="279" y2="81" stroke="black" stroke-width="1" />
<line x1="279" y1="81" x2="319" y2="79" stroke="black" stroke-width="1" />
<rect x="204" y="77" width="35" height="5" style="fill:#f5b024;stroke:black;stroke-width:1;fill-opacity:1;stroke-opacity:0.3" />
<rect x="319" y="77" width="36" height="5" style="fill:#f5b024;stroke:black;stroke-width:1;fill-opacity:1;stroke-opacity:0.3" />
<line x1="244" y1="86" x2="276" y2="88" stroke="black" stroke-width="1" />
<line x1="276" y1="88" x2="308" y2="86" stroke="black" stroke-width="1" />
<rect x="211" y="84" width="33" height="5" style="fill:#f5b024;stroke:black;stroke-width:1;fill-opacity:1;stroke-opacity:0.3" />
<rect x="308" y="84" width="36" height="5" style="fill:#f5b024;stroke:black;stroke-width:1;fill-opacity:1;stroke-opacity:0.3" />
<line x1="244" y1="93" x2="275" y2="95" stroke="black" stroke-width="1" />
<line x1="275" y1="95" x2="306" y2="93" stroke="black" stroke-width="1" />
<rect x="211" y="91" width="32" height="5" style="fill:#f5b024;stroke:black;stroke-width:1;fill-opacity:1;stroke-opacity:0.3" />
<rect x="306" y="91" width="36" height="5" style="fill:#f5b024;stroke:black;stroke-width:1;fill-opacity:1;stroke-opacity:0.3" />
<line x1="313" y1="30" x2="318" y2="32" stroke="black" stroke-width="1" />
<line x1="318" y1="32" x2="324" y2="30" stroke="black" stroke-width="1" />
<rect x="214" y="28" width="29" height="5" style="fill:#f5b024;stroke:black;stroke-width:1;fill-opacity:1;stroke-opacity:0.3" />
<line x1="244" y1="30" x2="306" y2="30" stroke="pink" stroke-width="1" />
<rect x="306" y="28" width="6" height="5" style="fill:#f5b024;stroke:black;stroke-width:1;fill-opacity:1;stroke-opacity:0.3" />
<rect x="324" y="28" width="36" height="5" style="fill:#f5b024;stroke:black;stroke-width:1;fill-opacity:1;stroke-opacity:0.3" />
<line x1="319" y1="100" x2="321" y2="102" stroke="black" stroke-width="1" />
<line x1="321" y1="102" x2="323" y2="100" stroke="black" stroke-width="1" />
<rect x="220" y="98" width="23" height="5" style="fill:#f5b024;stroke:black;stroke-width:1;fill-opacity:1;stroke-opacity:0.3" />
<line x1="244" y1="100" x2="306" y2="100" stroke="pink" stroke-width="1" />
<rect x="306" y="98" width="12" height="5" style="fill:#f5b024;stroke:black;stroke-width:1;fill-opacity:1;stroke-opacity:0.3" />
<rect x="323" y="98" width="36" height="5" style="fill:#f5b024;stroke:black;stroke-width:1;fill-opacity:1;stroke-opacity:0.3" />
<line x1="320" y1="107" x2="330" y2="109" stroke="black" stroke-width="1" />
<line x1="330" y1="109" x2="340" y2="107" stroke="black" stroke-width="1" />
<rect x="220" y="105" width="23" height="5" style="fill:#f5b024;stroke:black;stroke-width:1;fill-opacity:1;stroke-opacity:0.3" />
<line x1="244" y1="107" x2="306" y2="107" stroke="pink" stroke-width="1" />
<rect x="306" y="105" width="13" height="5" style="fill:#f5b024;stroke:black;stroke-width:1;fill-opacity:1;stroke-opacity:0.3" />
<rect x="340" y="105" width="26" height="5" style="fill:#f5b024;stroke:black;stroke-width:1;fill-opacity:1;stroke-opacity:0.3" />
<line x1="367" y1="107" x2="582" y2="107" stroke="pink" stroke-width="1" />
<rect x="582" y="105" width="10" height="5" style="fill:#f5b024;stroke:black;stroke-width:1;fill-opacity:1;stroke-opacity:0.3" />
<line x1="323" y1="114" x2="331" y2="116" stroke="black" stroke-width="1" />
<line x1="331" y1="116" x2="340" y2="114" stroke="black" stroke-width="1" />
<rect x="224" y="112" width="19" height="5" style="fill:#f5b024;stroke:black;stroke-width:1;fill-opacity:1;stroke-opacity:0.3" />
<line x1="244" y1="114" x2="306" y2="114" stroke="pink" stroke-width="1" />
<rect x="306" y="112" width="16" height="5" style="fill:#f5b024;stroke:black;stroke-width:1;fill-opacity:1;stroke-opacity:0.3" />
<rect x="340" y="112" width="26" height="5" style="fill:#f5b024;stroke:black;stroke-width:1;fill-opacity:1;stroke-opacity:0.3" />
<line x1="367" y1="114" x2="582" y2="114" stroke="pink" stroke-width="1" />
<rect x="582" y="112" width="10" height="5" style="fill:#f5b024;stroke:black;stroke-width:1;fill-opacity:1;stroke-opacity:0.3" />
<line x1="323" y1="128" x2="331" y2="130" stroke="black" stroke-width="1" />
<line x1="331" y1="130" x2="340" y2="128" stroke="black" stroke-width="1" />
<rect x="224" y="126" width="19" height="5" style="fill:#f5b024;stroke:black;stroke-width:1;fill-opacity:1;stroke-opacity:0.3" />
<line x1="244" y1="128" x2="306" y2="128" stroke="pink" stroke-width="1" />
<rect x="306" y="126" width="16" height="5" style="fill:#f5b024;stroke:black;stroke-width:1;fill-opacity:1;stroke-opacity:0.3" />
<rect x="340" y="126" width="26" height="5" style="fill:#f5b024;stroke:black;stroke-width:1;fill-opacity:1;stroke-opacity:0.3" />
<line x1="367" y1="128" x2="582" y2="128" stroke="pink" stroke-width="1" />
<rect x="582" y="126" width="10" height="5" style="fill:#f5b024;stroke:black;stroke-width:1;fill-opacity:1;stroke-opacity:0.3" />
<line x1="342" y1="37" x2="347" y2="39" stroke="black" stroke-width="1" />
<line x1="347" y1="39" x2="353" y2="37" stroke="black" stroke-width="1" />
<rect x="243" y="35" width="1" height="5" style="fill:#f5b024;stroke:black;stroke-width:1;fill-opacity:1;stroke-opacity:0.3" />
<line x1="244" y1="37" x2="306" y2="37" stroke="pink" stroke-width="1" />
<rect x="306" y="35" width="35" height="5" style="fill:#f5b024;stroke:black;stroke-width:1;fill-opacity:1;stroke-opacity:0.3" />
<rect x="353" y="35" width="13" height="5" style="fill:#f5b024;stroke:black;stroke-width:1;fill-opacity:1;stroke-opacity:0.3" />
<line x1="367" y1="37" x2="582" y2="37" stroke="pink" stroke-width="1" />
<rect x="582" y="35" width="23" height="5" style="fill:#f5b024;stroke:black;stroke-width:1;fill-opacity:1;stroke-opacity:0.3" />
<line x1="348" y1="44" x2="466" y2="46" stroke="black" stroke-width="1" />
<line x1="466" y1="46" x2="585" y2="44" stroke="black" stroke-width="1" />
<rect x="311" y="42" width="36" height="5" style="fill:#f5b024;stroke:black;stroke-width:1;fill-opacity:1;stroke-opacity:0.3" />
<rect x="585" y="42" width="36" height="5" style="fill:#f5b024;stroke:black;stroke-width:1;fill-opacity:1;stroke-opacity:0.3" />
<line x1="348" y1="51" x2="351" y2="53" stroke="black" stroke-width="1" />
<line x1="351" y1="53" x2="354" y2="51" stroke="black" stroke-width="1" />
<rect x="311" y="49" width="36" height="5" style="fill:#f5b024;stroke:black;stroke-width:1;fill-opacity:1;stroke-opacity:0.3" />
<rect x="354" y="49" width="12" height="5" style="fill:#f5b024;stroke:black;stroke-width:1;fill-opacity:1;stroke-opacity:0.3" />
<line x1="367" y1="51" x2="582" y2="51" stroke="pink" stroke-width="1" />
<rect x="582" y="49" width="23" height="5" style="fill:#f5b024;stroke:black;stroke-width:1;fill-opacity:1;stroke-opacity:0.3" />
<line x1="348" y1="156" x2="355" y2="158" stroke="black" stroke-width="1" />
<line x1="355" y1="158" x2="362" y2="156" stroke="black" stroke-width="1" />
<rect x="312" y="154" width="36" height="5" style="fill:#f5b024;stroke:black;stroke-width:1;fill-opacity:1;stroke-opacity:0.3" />
<rect x="362" y="154" width="4" height="5" style="fill:#f5b024;stroke:black;stroke-width:1;fill-opacity:1;stroke-opacity:0.3" />
<line x1="367" y1="156" x2="582" y2="156" stroke="pink" stroke-width="1" />
<rect x="582" y="154" width="32" height="5" style="fill:#f5b024;stroke:black;stroke-width:1;fill-opacity:1;stroke-opacity:0.3" />
<line x1="353" y1="149" x2="357" y2="151" stroke="black" stroke-width="1" />
<line x1="357" y1="151" x2="361" y2="149" stroke="black" stroke-width="1" />
<rect x="317" y="147" width="36" height="5" style="fill:#f5b024;stroke:black;stroke-width:1;fill-opacity:1;stroke-opacity:0.3" />
<rect x="361" y="147" width="5" height="5" style="fill:#f5b024;stroke:black;stroke-width:1;fill-opacity:1;stroke-opacity:0.3" />
<line x1="367" y1="149" x2="582" y2="149" stroke="pink" stroke-width="1" />
<rect x="582" y="147" width="30" height="5" style="fill:#f5b024;stroke:black;stroke-width:1;fill-opacity:1;stroke-opacity:0.3" />
<line x1="582" y1="163" x2="585" y2="165" stroke="black" stroke-width="1" />
<line x1="585" y1="165" x2="588" y2="163" stroke="black" stroke-width="1" />
<rect x="331" y="161" width="35" height="5" style="fill:#f5b024;stroke:black;stroke-width:1;fill-opacity:1;stroke-opacity:0.3" />
<line x1="367" y1="163" x2="582" y2="163" stroke="pink" stroke-width="1" />
<rect x="582" y="161" width="0" height="5" style="fill:#f5b024;stroke:black;stroke-width:1;fill-opacity:1;stroke-opacity:0.3" />
<rect x="588" y="161" width="36" height="5" style="fill:#f5b024;stroke:black;stroke-width:1;fill-opacity:1;stroke-opacity:0.3" />
<line x1="371" y1="72" x2="489" y2="74" stroke="black" stroke-width="1" />
<line x1="489" y1="74" x2="607" y2="72" stroke="black" stroke-width="1" />
<rect x="335" y="70" width="36" height="5" style="fill:#f5b024;stroke:black;stroke-width:1;fill-opacity:1;stroke-opacity:0.3" />
<rect x="607" y="70" width="36" height="5" style="fill:#f5b024;stroke:black;stroke-width:1;fill-opacity:1;stroke-opacity:0.3" />
<line x1="372" y1="142" x2="478" y2="144" stroke="black" stroke-width="1" />
<line x1="478" y1="144" x2="584" y2="142" stroke="black" stroke-width="1" />
<rect x="337" y="140" width="35" height="5" style="fill:#f5b024;stroke:black;stroke-width:1;fill-opacity:1;stroke-opacity:0.3" />
<rect x="584" y="140" width="36" height="5" style="fill:#f5b024;stroke:black;stroke-width:1;fill-opacity:1;stroke-opacity:0.3" />
<line x1="602" y1="86" x2="617" y2="88" stroke="black" stroke-width="1" />
<line x1="617" y1="88" x2="633" y2="86" stroke="black" stroke-width="1" />
<rect x="349" y="84" width="17" height="5" style="fill:#f5b024;stroke:black;stroke-width:1;fill-opacity:1;stroke-opacity:0.3" />
<line x1="367" y1="86" x2="582" y2="86" stroke="pink" stroke-width="1" />
<rect x="582" y="84" width="19" height="5" style="fill:#f5b024;stroke:black;stroke-width:1;fill-opacity:1;stroke-opacity:0.3" />
<rect x="633" y="84" width="23" height="5" style="fill:#f5b024;stroke:black;stroke-width:1;fill-opacity:1;stroke-opacity:0.3" />
<line x1="657" y1="86" x2="725" y2="86" stroke="pink" stroke-width="1" />
<rect x="725" y="84" width="12" height="5" style="fill:#f5b024;stroke:black;stroke-width:1;fill-opacity:1;stroke-opacity:0.3" />
<line x1="429" y1="30" x2="431" y2="32" stroke="black" stroke-width="1" />
<line x1="431" y1="32" x2="434" y2="30" stroke="black" stroke-width="1" />
<rect x="392" y="28" width="36" height="5" style="fill:#f5b024;stroke:black;stroke-width:1;fill-opacity:1;stroke-opacity:0.3" />
<rect x="434" y="28" width="36" height="5" style="fill:#f5b024;stroke:black;stroke-width:1;fill-opacity:1;stroke-opacity:0.3" />
<line x1="628" y1="30" x2="639" y2="32" stroke="black" stroke-width="1" />
<line x1="639" y1="32" x2="651" y2="30" stroke="black" stroke-width="1" />
<rect x="591" y="28" width="36" height="5" style="fill:#f5b024;stroke:black;stroke-width:1;fill-opacity:1;stroke-opacity:0.3" />
<rect x="651" y="28" width="6" height="5" style="fill:#f5b024;stroke:black;stroke-width:1;fill-opacity:1;stroke-opacity:0.3" />
<line x1="657" y1="30" x2="725" y2="30" stroke="pink" stroke-width="1" />
<rect x="725" y="28" width="17" height="5" style="fill:#f5b024;stroke:black;stroke-width:1;fill-opacity:1;stroke-opacity:0.3" />
<line x1="742" y1="30" x2="853" y2="30" stroke="pink" stroke-width="1" />
<rect x="853" y="28" width="12" height="5" style="fill:#f5b024;stroke:black;stroke-width:1;fill-opacity:1;stroke-opacity:0.3" />
<line x1="650" y1="37" x2="759" y2="39" stroke="black" stroke-width="1" />
<line x1="759" y1="39" x2="869" y2="37" stroke="black" stroke-width="1" />
<rect x="614" y="35" width="36" height="5" style="fill:#f5b024;stroke:black;stroke-width:1;fill-opacity:1;stroke-opacity:0.3" />
<rect x="869" y="35" width="36" height="5" style="fill:#f5b024;stroke:black;stroke-width:1;fill-opacity:1;stroke-opacity:0.3" />
<line x1="736" y1="44" x2="796" y2="46" stroke="black" stroke-width="1" />
<line x1="796" y1="46" x2="857" y2="44" stroke="black" stroke-width="1" />
<rect x="633" y="42" width="24" height="5" style="fill:#f5b024;stroke:black;stroke-width:1;fill-opacity:1;stroke-opacity:0.3" />
<line x1="657" y1="44" x2="725" y2="44" stroke="pink" stroke-width="1" />
<rect x="725" y="42" width="11" height="5" style="fill:#f5b024;stroke:black;stroke-width:1;fill-opacity:1;stroke-opacity:0.3" />
<rect x="857" y="42" width="36" height="5" style="fill:#f5b024;stroke:black;stroke-width:1;fill-opacity:1;stroke-opacity:0.3" />
<line x1="874" y1="51" x2="877" y2="53" stroke="black" stroke-width="1" />
<line x1="877" y1="53" x2="881" y2="51" stroke="black" stroke-width="1" />
<rect x="726" y="49" width="15" height="5" style="fill:#f5b024;stroke:black;stroke-width:1;fill-opacity:1;stroke-opacity:0.3" />
<line x1="742" y1="51" x2="853" y2="51" stroke="pink" stroke-width="1" />
<rect x="853" y="49" width="20" height="5" style="fill:#f5b024;stroke:black;stroke-width:1;fill-opacity:1;stroke-opacity:0.3" />
<rect x="881" y="49" width="36" height="5" style="fill:#f5b024;stroke:black;stroke-width:1;fill-opacity:1;stroke-opacity:0.3" />
<line x1="893" y1="58" x2="899" y2="60" stroke="black" stroke-width="1" />
<line x1="899" y1="60" x2="906" y2="58" stroke="black" stroke-width="1" />
<rect x="857" y="56" width="36" height="5" style="fill:#f5b024;stroke:black;stroke-width:1;fill-opacity:1;stroke-opacity:0.3" />
<rect x="906" y="56" width="36" height="5" style="fill:#f5b024;stroke:black;stroke-width:1;fill-opacity:1;stroke-opacity:0.3" />
<text x="15"  y="176" style="font-family:Arial;font-size:10;stroke:black;fill:black;">all.merged.bam</text>
</svg>
    
