<?xml version="1.0" encoding="utf-8" standalone="no"?>
<!DOCTYPE svg PUBLIC "-//W3C//DTD SVG 1.1//EN"
  "http://www.w3.org/Graphics/SVG/1.1/DTD/svg11.dtd">
<svg height="1140" width="1000" version="1.1" viewBox="0 0 1000 1140" xmlns="http://www.w3.org/2000/svg" xmlns:xlink="http://www.w3.org/1999/xlink">
<line x1="47" y1="11" x2="952" y2="11" stroke="black" stroke-width="1" />
<rect x="47" y="9" width="216" height="5" style="fill:#f50002;stroke:black;stroke-width:1;fill-opacity:1;stroke-opacity:0.3" />
<rect x="264" y="9" width="36" height="5" style="fill:#53a1b5;stroke:black;stroke-width:1;fill-opacity:1;stroke-opacity:0.3" />
<rect x="395" y="9" width="56" height="5" style="fill:#53a1b5;stroke:black;stroke-width:1;fill-opacity:1;stroke-opacity:0.3" />
<rect x="585" y="9" width="21" height="5" style="fill:#53a1b5;stroke:black;stroke-width:1;fill-opacity:1;stroke-opacity:0.3" />
<rect x="673" y="9" width="30" height="5" style="fill:#53a1b5;stroke:black;stroke-width:1;fill-opacity:1;stroke-opacity:0.3" />
<rect x="759" y="9" width="29" height="5" style="fill:#53a1b5;stroke:black;stroke-width:1;fill-opacity:1;stroke-opacity:0.3" />
<rect x="789" y="9" width="163" height="5" style="fill:#f50002;stroke:black;stroke-width:1;fill-opacity:1;stroke-opacity:0.3" />
<text x="47"  y="23" style="font-family:Arial;font-size:10;stroke:black;fill:black;">Cre06.g281750.t1.2.v5.5 (-) chromosome_6:5192432-5194345</text>
<line x1="74" y1="30" x2="76" y2="32" stroke="black" stroke-width="1" />
<line x1="76" y1="32" x2="79" y2="30" stroke="black" stroke-width="1" />
<rect x="27" y="28" width="47" height="5" style="fill:#f5b024;stroke:black;stroke-width:1;fill-opacity:1;stroke-opacity:0.3" />
<rect x="79" y="28" width="47" height="5" style="fill:#f5b024;stroke:black;stroke-width:1;fill-opacity:1;stroke-opacity:0.3" />
<line x1="74" y1="37" x2="76" y2="39" stroke="black" stroke-width="1" />
<line x1="76" y1="39" x2="79" y2="37" stroke="black" stroke-width="1" />
<rect x="27" y="35" width="47" height="5" style="fill:#f5b024;stroke:black;stroke-width:1;fill-opacity:1;stroke-opacity:0.3" />
<rect x="79" y="35" width="47" height="5" style="fill:#f5b024;stroke:black;stroke-width:1;fill-opacity:1;stroke-opacity:0.3" />
<line x1="94" y1="44" x2="96" y2="46" stroke="black" stroke-width="1" />
<line x1="96" y1="46" x2="98" y2="44" stroke="black" stroke-width="1" />
<rect x="46" y="42" width="47" height="5" style="fill:#f5b024;stroke:black;stroke-width:1;fill-opacity:1;stroke-opacity:0.3" />
<rect x="98" y="42" width="47" height="5" style="fill:#f5b024;stroke:black;stroke-width:1;fill-opacity:1;stroke-opacity:0.3" />
<line x1="117" y1="51" x2="122" y2="53" stroke="black" stroke-width="1" />
<line x1="122" y1="53" x2="127" y2="51" stroke="black" stroke-width="1" />
<rect x="46" y="49" width="70" height="5" style="fill:#f5b024;stroke:black;stroke-width:1;fill-opacity:1;stroke-opacity:0.3" />
<rect x="127" y="49" width="70" height="5" style="fill:#f5b024;stroke:black;stroke-width:1;fill-opacity:1;stroke-opacity:0.3" />
<line x1="94" y1="58" x2="96" y2="60" stroke="black" stroke-width="1" />
<line x1="96" y1="60" x2="98" y2="58" stroke="black" stroke-width="1" />
<rect x="46" y="56" width="47" height="5" style="fill:#f5b024;stroke:black;stroke-width:1;fill-opacity:1;stroke-opacity:0.3" />
<rect x="98" y="56" width="47" height="5" style="fill:#f5b024;stroke:black;stroke-width:1;fill-opacity:1;stroke-opacity:0.3" />
<line x1="94" y1="65" x2="96" y2="67" stroke="black" stroke-width="1" />
<line x1="96" y1="67" x2="98" y2="65" stroke="black" stroke-width="1" />
<rect x="46" y="63" width="47" height="5" style="fill:#f5b024;stroke:black;stroke-width:1;fill-opacity:1;stroke-opacity:0.3" />
<rect x="98" y="63" width="47" height="5" style="fill:#f5b024;stroke:black;stroke-width:1;fill-opacity:1;stroke-opacity:0.3" />
<line x1="94" y1="72" x2="138" y2="74" stroke="black" stroke-width="1" />
<line x1="138" y1="74" x2="183" y2="72" stroke="black" stroke-width="1" />
<rect x="47" y="70" width="47" height="5" style="fill:#f5b024;stroke:black;stroke-width:1;fill-opacity:1;stroke-opacity:0.3" />
<rect x="183" y="70" width="47" height="5" style="fill:#f5b024;stroke:black;stroke-width:1;fill-opacity:1;stroke-opacity:0.3" />
<line x1="95" y1="79" x2="101" y2="81" stroke="black" stroke-width="1" />
<line x1="101" y1="81" x2="108" y2="79" stroke="black" stroke-width="1" />
<rect x="47" y="77" width="47" height="5" style="fill:#f5b024;stroke:black;stroke-width:1;fill-opacity:1;stroke-opacity:0.3" />
<rect x="108" y="77" width="47" height="5" style="fill:#f5b024;stroke:black;stroke-width:1;fill-opacity:1;stroke-opacity:0.3" />
<line x1="95" y1="86" x2="102" y2="88" stroke="black" stroke-width="1" />
<line x1="102" y1="88" x2="110" y2="86" stroke="black" stroke-width="1" />
<rect x="47" y="84" width="47" height="5" style="fill:#f5b024;stroke:black;stroke-width:1;fill-opacity:1;stroke-opacity:0.3" />
<rect x="110" y="84" width="47" height="5" style="fill:#f5b024;stroke:black;stroke-width:1;fill-opacity:1;stroke-opacity:0.3" />
<line x1="119" y1="93" x2="126" y2="95" stroke="black" stroke-width="1" />
<line x1="126" y1="95" x2="134" y2="93" stroke="black" stroke-width="1" />
<rect x="48" y="91" width="70" height="5" style="fill:#f5b024;stroke:black;stroke-width:1;fill-opacity:1;stroke-opacity:0.3" />
<rect x="134" y="91" width="70" height="5" style="fill:#f5b024;stroke:black;stroke-width:1;fill-opacity:1;stroke-opacity:0.3" />
<line x1="97" y1="100" x2="104" y2="102" stroke="black" stroke-width="1" />
<line x1="104" y1="102" x2="112" y2="100" stroke="black" stroke-width="1" />
<rect x="50" y="98" width="47" height="5" style="fill:#5d3c2d;stroke:black;stroke-width:1;fill-opacity:1;stroke-opacity:0.3" />
<rect x="112" y="98" width="47" height="5" style="fill:#5d3c2d;stroke:black;stroke-width:1;fill-opacity:1;stroke-opacity:0.3" />
<line x1="99" y1="107" x2="108" y2="109" stroke="black" stroke-width="1" />
<line x1="108" y1="109" x2="117" y2="107" stroke="black" stroke-width="1" />
<rect x="52" y="105" width="46" height="5" style="fill:#f5b024;stroke:black;stroke-width:1;fill-opacity:1;stroke-opacity:0.3" />
<rect x="117" y="105" width="47" height="5" style="fill:#f5b024;stroke:black;stroke-width:1;fill-opacity:1;stroke-opacity:0.3" />
<line x1="100" y1="114" x2="103" y2="116" stroke="black" stroke-width="1" />
<line x1="103" y1="116" x2="107" y2="114" stroke="black" stroke-width="1" />
<rect x="52" y="112" width="47" height="5" style="fill:#f5b024;stroke:black;stroke-width:1;fill-opacity:1;stroke-opacity:0.3" />
<rect x="107" y="112" width="47" height="5" style="fill:#f5b024;stroke:black;stroke-width:1;fill-opacity:1;stroke-opacity:0.3" />
<line x1="107" y1="121" x2="118" y2="123" stroke="black" stroke-width="1" />
<line x1="118" y1="123" x2="130" y2="121" stroke="black" stroke-width="1" />
<rect x="60" y="119" width="47" height="5" style="fill:#f5b024;stroke:black;stroke-width:1;fill-opacity:1;stroke-opacity:0.3" />
<rect x="130" y="119" width="47" height="5" style="fill:#f5b024;stroke:black;stroke-width:1;fill-opacity:1;stroke-opacity:0.3" />
<line x1="107" y1="128" x2="110" y2="130" stroke="black" stroke-width="1" />
<line x1="110" y1="130" x2="113" y2="128" stroke="black" stroke-width="1" />
<rect x="61" y="126" width="46" height="5" style="fill:#f5b024;stroke:black;stroke-width:1;fill-opacity:1;stroke-opacity:0.3" />
<rect x="113" y="126" width="44" height="5" style="fill:#f5b024;stroke:black;stroke-width:1;fill-opacity:1;stroke-opacity:0.3" />
<line x1="110" y1="135" x2="116" y2="137" stroke="black" stroke-width="1" />
<line x1="116" y1="137" x2="123" y2="135" stroke="black" stroke-width="1" />
<rect x="62" y="133" width="47" height="5" style="fill:#f5b024;stroke:black;stroke-width:1;fill-opacity:1;stroke-opacity:0.3" />
<rect x="123" y="133" width="47" height="5" style="fill:#f5b024;stroke:black;stroke-width:1;fill-opacity:1;stroke-opacity:0.3" />
<line x1="140" y1="142" x2="143" y2="144" stroke="black" stroke-width="1" />
<line x1="143" y1="144" x2="146" y2="142" stroke="black" stroke-width="1" />
<rect x="69" y="140" width="70" height="5" style="fill:#f5b024;stroke:black;stroke-width:1;fill-opacity:1;stroke-opacity:0.3" />
<rect x="146" y="140" width="70" height="5" style="fill:#f5b024;stroke:black;stroke-width:1;fill-opacity:1;stroke-opacity:0.3" />
<line x1="118" y1="149" x2="120" y2="151" stroke="black" stroke-width="1" />
<line x1="120" y1="151" x2="122" y2="149" stroke="black" stroke-width="1" />
<rect x="70" y="147" width="47" height="5" style="fill:#5d3c2d;stroke:black;stroke-width:1;fill-opacity:1;stroke-opacity:0.3" />
<rect x="122" y="147" width="47" height="5" style="fill:#5d3c2d;stroke:black;stroke-width:1;fill-opacity:1;stroke-opacity:0.3" />
<line x1="124" y1="156" x2="127" y2="158" stroke="black" stroke-width="1" />
<line x1="127" y1="158" x2="130" y2="156" stroke="black" stroke-width="1" />
<rect x="77" y="154" width="47" height="5" style="fill:#f5b024;stroke:black;stroke-width:1;fill-opacity:1;stroke-opacity:0.3" />
<rect x="130" y="154" width="47" height="5" style="fill:#f5b024;stroke:black;stroke-width:1;fill-opacity:1;stroke-opacity:0.3" />
<line x1="124" y1="163" x2="145" y2="165" stroke="black" stroke-width="1" />
<line x1="145" y1="165" x2="167" y2="163" stroke="black" stroke-width="1" />
<rect x="77" y="161" width="47" height="5" style="fill:#f5b024;stroke:black;stroke-width:1;fill-opacity:1;stroke-opacity:0.3" />
<rect x="167" y="161" width="47" height="5" style="fill:#f5b024;stroke:black;stroke-width:1;fill-opacity:1;stroke-opacity:0.3" />
<line x1="174" y1="30" x2="188" y2="32" stroke="black" stroke-width="1" />
<line x1="188" y1="32" x2="203" y2="30" stroke="black" stroke-width="1" />
<rect x="127" y="28" width="47" height="5" style="fill:#f5b024;stroke:black;stroke-width:1;fill-opacity:1;stroke-opacity:0.3" />
<rect x="203" y="28" width="47" height="5" style="fill:#f5b024;stroke:black;stroke-width:1;fill-opacity:1;stroke-opacity:0.3" />
<line x1="167" y1="37" x2="169" y2="39" stroke="black" stroke-width="1" />
<line x1="169" y1="39" x2="172" y2="37" stroke="black" stroke-width="1" />
<rect x="127" y="35" width="40" height="5" style="fill:#f5b024;stroke:black;stroke-width:1;fill-opacity:1;stroke-opacity:0.3" />
<rect x="172" y="35" width="47" height="5" style="fill:#f5b024;stroke:black;stroke-width:1;fill-opacity:1;stroke-opacity:0.3" />
<line x1="193" y1="44" x2="206" y2="46" stroke="black" stroke-width="1" />
<line x1="206" y1="46" x2="219" y2="44" stroke="black" stroke-width="1" />
<rect x="146" y="42" width="47" height="5" style="fill:#f5b024;stroke:black;stroke-width:1;fill-opacity:1;stroke-opacity:0.3" />
<rect x="219" y="42" width="47" height="5" style="fill:#f5b024;stroke:black;stroke-width:1;fill-opacity:1;stroke-opacity:0.3" />
<line x1="195" y1="58" x2="206" y2="60" stroke="black" stroke-width="1" />
<line x1="206" y1="60" x2="217" y2="58" stroke="black" stroke-width="1" />
<rect x="148" y="56" width="47" height="5" style="fill:#f5b024;stroke:black;stroke-width:1;fill-opacity:1;stroke-opacity:0.3" />
<rect x="217" y="56" width="47" height="5" style="fill:#f5b024;stroke:black;stroke-width:1;fill-opacity:1;stroke-opacity:0.3" />
<line x1="195" y1="65" x2="199" y2="67" stroke="black" stroke-width="1" />
<line x1="199" y1="67" x2="203" y2="65" stroke="black" stroke-width="1" />
<rect x="148" y="63" width="47" height="5" style="fill:#f5b024;stroke:black;stroke-width:1;fill-opacity:1;stroke-opacity:0.3" />
<rect x="203" y="63" width="47" height="5" style="fill:#f5b024;stroke:black;stroke-width:1;fill-opacity:1;stroke-opacity:0.3" />
<line x1="202" y1="79" x2="223" y2="81" stroke="black" stroke-width="1" />
<line x1="223" y1="81" x2="244" y2="79" stroke="black" stroke-width="1" />
<rect x="155" y="77" width="47" height="5" style="fill:#f5b024;stroke:black;stroke-width:1;fill-opacity:1;stroke-opacity:0.3" />
<rect x="244" y="77" width="47" height="5" style="fill:#f5b024;stroke:black;stroke-width:1;fill-opacity:1;stroke-opacity:0.3" />
<line x1="206" y1="86" x2="225" y2="88" stroke="black" stroke-width="1" />
<line x1="225" y1="88" x2="244" y2="86" stroke="black" stroke-width="1" />
<rect x="159" y="84" width="47" height="5" style="fill:#f5b024;stroke:black;stroke-width:1;fill-opacity:1;stroke-opacity:0.3" />
<rect x="244" y="84" width="47" height="5" style="fill:#f5b024;stroke:black;stroke-width:1;fill-opacity:1;stroke-opacity:0.3" />
<line x1="207" y1="100" x2="209" y2="102" stroke="black" stroke-width="1" />
<line x1="209" y1="102" x2="212" y2="100" stroke="black" stroke-width="1" />
<rect x="159" y="98" width="47" height="5" style="fill:#f5b024;stroke:black;stroke-width:1;fill-opacity:1;stroke-opacity:0.3" />
<rect x="212" y="98" width="47" height="5" style="fill:#f5b024;stroke:black;stroke-width:1;fill-opacity:1;stroke-opacity:0.3" />
<line x1="207" y1="114" x2="214" y2="116" stroke="black" stroke-width="1" />
<line x1="214" y1="116" x2="221" y2="114" stroke="black" stroke-width="1" />
<rect x="159" y="112" width="47" height="5" style="fill:#f5b024;stroke:black;stroke-width:1;fill-opacity:1;stroke-opacity:0.3" />
<rect x="221" y="112" width="47" height="5" style="fill:#f5b024;stroke:black;stroke-width:1;fill-opacity:1;stroke-opacity:0.3" />
<line x1="207" y1="128" x2="228" y2="130" stroke="black" stroke-width="1" />
<line x1="228" y1="130" x2="249" y2="128" stroke="black" stroke-width="1" />
<rect x="160" y="126" width="47" height="5" style="fill:#f5b024;stroke:black;stroke-width:1;fill-opacity:1;stroke-opacity:0.3" />
<rect x="249" y="126" width="47" height="5" style="fill:#f5b024;stroke:black;stroke-width:1;fill-opacity:1;stroke-opacity:0.3" />
<line x1="215" y1="107" x2="312" y2="109" stroke="black" stroke-width="1" />
<line x1="312" y1="109" x2="409" y2="107" stroke="black" stroke-width="1" />
<rect x="168" y="105" width="47" height="5" style="fill:#f5b024;stroke:black;stroke-width:1;fill-opacity:1;stroke-opacity:0.3" />
<rect x="409" y="105" width="43" height="5" style="fill:#f5b024;stroke:black;stroke-width:1;fill-opacity:1;stroke-opacity:0.3" />
<line x1="453" y1="107" x2="585" y2="107" stroke="pink" stroke-width="1" />
<rect x="585" y="105" width="0" height="5" style="fill:#f5b024;stroke:black;stroke-width:1;fill-opacity:1;stroke-opacity:0.3" />
<line x1="219" y1="135" x2="225" y2="137" stroke="black" stroke-width="1" />
<line x1="225" y1="137" x2="232" y2="135" stroke="black" stroke-width="1" />
<rect x="172" y="133" width="47" height="5" style="fill:#f5b024;stroke:black;stroke-width:1;fill-opacity:1;stroke-opacity:0.3" />
<rect x="232" y="133" width="47" height="5" style="fill:#f5b024;stroke:black;stroke-width:1;fill-opacity:1;stroke-opacity:0.3" />
<line x1="220" y1="149" x2="230" y2="151" stroke="black" stroke-width="1" />
<line x1="230" y1="151" x2="241" y2="149" stroke="black" stroke-width="1" />
<rect x="173" y="147" width="47" height="5" style="fill:#f5b024;stroke:black;stroke-width:1;fill-opacity:1;stroke-opacity:0.3" />
<rect x="241" y="147" width="47" height="5" style="fill:#f5b024;stroke:black;stroke-width:1;fill-opacity:1;stroke-opacity:0.3" />
<line x1="249" y1="121" x2="259" y2="123" stroke="black" stroke-width="1" />
<line x1="259" y1="123" x2="269" y2="121" stroke="black" stroke-width="1" />
<rect x="179" y="119" width="70" height="5" style="fill:#f5b024;stroke:black;stroke-width:1;fill-opacity:1;stroke-opacity:0.3" />
<rect x="269" y="119" width="31" height="5" style="fill:#f5b024;stroke:black;stroke-width:1;fill-opacity:1;stroke-opacity:0.3" />
<line x1="301" y1="121" x2="395" y2="121" stroke="pink" stroke-width="1" />
<rect x="395" y="119" width="39" height="5" style="fill:#f5b024;stroke:black;stroke-width:1;fill-opacity:1;stroke-opacity:0.3" />
<line x1="228" y1="156" x2="241" y2="158" stroke="black" stroke-width="1" />
<line x1="241" y1="158" x2="254" y2="156" stroke="black" stroke-width="1" />
<rect x="180" y="154" width="47" height="5" style="fill:#f5b024;stroke:black;stroke-width:1;fill-opacity:1;stroke-opacity:0.3" />
<rect x="254" y="154" width="46" height="5" style="fill:#f5b024;stroke:black;stroke-width:1;fill-opacity:1;stroke-opacity:0.3" />
<line x1="301" y1="156" x2="395" y2="156" stroke="pink" stroke-width="1" />
<rect x="395" y="154" width="0" height="5" style="fill:#f5b024;stroke:black;stroke-width:1;fill-opacity:1;stroke-opacity:0.3" />
<line x1="248" y1="51" x2="253" y2="53" stroke="black" stroke-width="1" />
<line x1="253" y1="53" x2="259" y2="51" stroke="black" stroke-width="1" />
<rect x="201" y="49" width="47" height="5" style="fill:#f5b024;stroke:black;stroke-width:1;fill-opacity:1;stroke-opacity:0.3" />
<rect x="259" y="49" width="42" height="5" style="fill:#f5b024;stroke:black;stroke-width:1;fill-opacity:1;stroke-opacity:0.3" />
<line x1="301" y1="51" x2="395" y2="51" stroke="pink" stroke-width="1" />
<rect x="395" y="49" width="5" height="5" style="fill:#f5b024;stroke:black;stroke-width:1;fill-opacity:1;stroke-opacity:0.3" />
<line x1="254" y1="93" x2="265" y2="95" stroke="black" stroke-width="1" />
<line x1="265" y1="95" x2="276" y2="93" stroke="black" stroke-width="1" />
<rect x="207" y="91" width="47" height="5" style="fill:#f5b024;stroke:black;stroke-width:1;fill-opacity:1;stroke-opacity:0.3" />
<rect x="276" y="91" width="24" height="5" style="fill:#f5b024;stroke:black;stroke-width:1;fill-opacity:1;stroke-opacity:0.3" />
<line x1="301" y1="93" x2="395" y2="93" stroke="pink" stroke-width="1" />
<rect x="395" y="91" width="22" height="5" style="fill:#f5b024;stroke:black;stroke-width:1;fill-opacity:1;stroke-opacity:0.3" />
<line x1="287" y1="163" x2="346" y2="165" stroke="black" stroke-width="1" />
<line x1="346" y1="165" x2="405" y2="163" stroke="black" stroke-width="1" />
<rect x="216" y="161" width="70" height="5" style="fill:#f5b024;stroke:black;stroke-width:1;fill-opacity:1;stroke-opacity:0.3" />
<rect x="405" y="161" width="47" height="5" style="fill:#f5b024;stroke:black;stroke-width:1;fill-opacity:1;stroke-opacity:0.3" />
<line x1="453" y1="163" x2="585" y2="163" stroke="pink" stroke-width="1" />
<rect x="585" y="161" width="22" height="5" style="fill:#f5b024;stroke:black;stroke-width:1;fill-opacity:1;stroke-opacity:0.3" />
<line x1="607" y1="163" x2="673" y2="163" stroke="pink" stroke-width="1" />
<rect x="673" y="161" width="0" height="5" style="fill:#f5b024;stroke:black;stroke-width:1;fill-opacity:1;stroke-opacity:0.3" />
<line x1="266" y1="142" x2="269" y2="144" stroke="black" stroke-width="1" />
<line x1="269" y1="144" x2="273" y2="142" stroke="black" stroke-width="1" />
<rect x="219" y="140" width="47" height="5" style="fill:#f5b024;stroke:black;stroke-width:1;fill-opacity:1;stroke-opacity:0.3" />
<rect x="273" y="140" width="27" height="5" style="fill:#f5b024;stroke:black;stroke-width:1;fill-opacity:1;stroke-opacity:0.3" />
<line x1="301" y1="142" x2="395" y2="142" stroke="pink" stroke-width="1" />
<rect x="395" y="140" width="19" height="5" style="fill:#f5b024;stroke:black;stroke-width:1;fill-opacity:1;stroke-opacity:0.3" />
<line x1="265" y1="37" x2="270" y2="39" stroke="black" stroke-width="1" />
<line x1="270" y1="39" x2="275" y2="37" stroke="black" stroke-width="1" />
<rect x="219" y="35" width="45" height="5" style="fill:#f5b024;stroke:black;stroke-width:1;fill-opacity:1;stroke-opacity:0.3" />
<rect x="275" y="35" width="26" height="5" style="fill:#f5b024;stroke:black;stroke-width:1;fill-opacity:1;stroke-opacity:0.3" />
<line x1="301" y1="37" x2="395" y2="37" stroke="pink" stroke-width="1" />
<rect x="395" y="35" width="21" height="5" style="fill:#f5b024;stroke:black;stroke-width:1;fill-opacity:1;stroke-opacity:0.3" />
<line x1="279" y1="72" x2="287" y2="74" stroke="black" stroke-width="1" />
<line x1="287" y1="74" x2="296" y2="72" stroke="black" stroke-width="1" />
<rect x="232" y="70" width="47" height="5" style="fill:#f5b024;stroke:black;stroke-width:1;fill-opacity:1;stroke-opacity:0.3" />
<rect x="296" y="70" width="4" height="5" style="fill:#f5b024;stroke:black;stroke-width:1;fill-opacity:1;stroke-opacity:0.3" />
<line x1="301" y1="72" x2="395" y2="72" stroke="pink" stroke-width="1" />
<rect x="395" y="70" width="42" height="5" style="fill:#f5b024;stroke:black;stroke-width:1;fill-opacity:1;stroke-opacity:0.3" />
<line x1="297" y1="30" x2="350" y2="32" stroke="black" stroke-width="1" />
<line x1="350" y1="32" x2="403" y2="30" stroke="black" stroke-width="1" />
<rect x="250" y="28" width="46" height="5" style="fill:#f5b024;stroke:black;stroke-width:1;fill-opacity:1;stroke-opacity:0.3" />
<rect x="403" y="28" width="47" height="5" style="fill:#f5b024;stroke:black;stroke-width:1;fill-opacity:1;stroke-opacity:0.3" />
<line x1="299" y1="65" x2="352" y2="67" stroke="black" stroke-width="1" />
<line x1="352" y1="67" x2="406" y2="65" stroke="black" stroke-width="1" />
<rect x="252" y="63" width="47" height="5" style="fill:#f5b024;stroke:black;stroke-width:1;fill-opacity:1;stroke-opacity:0.3" />
<rect x="406" y="63" width="46" height="5" style="fill:#f5b024;stroke:black;stroke-width:1;fill-opacity:1;stroke-opacity:0.3" />
<line x1="453" y1="65" x2="585" y2="65" stroke="pink" stroke-width="1" />
<rect x="585" y="63" width="0" height="5" style="fill:#f5b024;stroke:black;stroke-width:1;fill-opacity:1;stroke-opacity:0.3" />
<line x1="402" y1="100" x2="406" y2="102" stroke="black" stroke-width="1" />
<line x1="406" y1="102" x2="410" y2="100" stroke="black" stroke-width="1" />
<rect x="260" y="98" width="41" height="5" style="fill:#f5b024;stroke:black;stroke-width:1;fill-opacity:1;stroke-opacity:0.3" />
<line x1="301" y1="100" x2="395" y2="100" stroke="pink" stroke-width="1" />
<rect x="395" y="98" width="6" height="5" style="fill:#f5b024;stroke:black;stroke-width:1;fill-opacity:1;stroke-opacity:0.3" />
<rect x="410" y="98" width="43" height="5" style="fill:#f5b024;stroke:black;stroke-width:1;fill-opacity:1;stroke-opacity:0.3" />
<line x1="453" y1="100" x2="585" y2="100" stroke="pink" stroke-width="1" />
<rect x="585" y="98" width="4" height="5" style="fill:#f5b024;stroke:black;stroke-width:1;fill-opacity:1;stroke-opacity:0.3" />
<line x1="407" y1="58" x2="413" y2="60" stroke="black" stroke-width="1" />
<line x1="413" y1="60" x2="419" y2="58" stroke="black" stroke-width="1" />
<rect x="265" y="56" width="35" height="5" style="fill:#f5b024;stroke:black;stroke-width:1;fill-opacity:1;stroke-opacity:0.3" />
<line x1="301" y1="58" x2="395" y2="58" stroke="pink" stroke-width="1" />
<rect x="395" y="56" width="11" height="5" style="fill:#f5b024;stroke:black;stroke-width:1;fill-opacity:1;stroke-opacity:0.3" />
<rect x="419" y="56" width="33" height="5" style="fill:#f5b024;stroke:black;stroke-width:1;fill-opacity:1;stroke-opacity:0.3" />
<line x1="453" y1="58" x2="585" y2="58" stroke="pink" stroke-width="1" />
<rect x="585" y="56" width="13" height="5" style="fill:#f5b024;stroke:black;stroke-width:1;fill-opacity:1;stroke-opacity:0.3" />
<line x1="412" y1="44" x2="415" y2="46" stroke="black" stroke-width="1" />
<line x1="415" y1="46" x2="418" y2="44" stroke="black" stroke-width="1" />
<rect x="271" y="42" width="30" height="5" style="fill:#f5b024;stroke:black;stroke-width:1;fill-opacity:1;stroke-opacity:0.3" />
<line x1="301" y1="44" x2="395" y2="44" stroke="pink" stroke-width="1" />
<rect x="395" y="42" width="17" height="5" style="fill:#f5b024;stroke:black;stroke-width:1;fill-opacity:1;stroke-opacity:0.3" />
<rect x="418" y="42" width="35" height="5" style="fill:#f5b024;stroke:black;stroke-width:1;fill-opacity:1;stroke-opacity:0.3" />
<line x1="453" y1="44" x2="585" y2="44" stroke="pink" stroke-width="1" />
<rect x="585" y="42" width="12" height="5" style="fill:#f5b024;stroke:black;stroke-width:1;fill-opacity:1;stroke-opacity:0.3" />
<line x1="412" y1="114" x2="415" y2="116" stroke="black" stroke-width="1" />
<line x1="415" y1="116" x2="418" y2="114" stroke="black" stroke-width="1" />
<rect x="271" y="112" width="30" height="5" style="fill:#f5b024;stroke:black;stroke-width:1;fill-opacity:1;stroke-opacity:0.3" />
<line x1="301" y1="114" x2="395" y2="114" stroke="pink" stroke-width="1" />
<rect x="395" y="112" width="17" height="5" style="fill:#f5b024;stroke:black;stroke-width:1;fill-opacity:1;stroke-opacity:0.3" />
<rect x="418" y="112" width="34" height="5" style="fill:#f5b024;stroke:black;stroke-width:1;fill-opacity:1;stroke-opacity:0.3" />
<line x1="453" y1="114" x2="585" y2="114" stroke="pink" stroke-width="1" />
<rect x="585" y="112" width="12" height="5" style="fill:#f5b024;stroke:black;stroke-width:1;fill-opacity:1;stroke-opacity:0.3" />
<line x1="422" y1="135" x2="426" y2="137" stroke="black" stroke-width="1" />
<line x1="426" y1="137" x2="430" y2="135" stroke="black" stroke-width="1" />
<rect x="280" y="133" width="20" height="5" style="fill:#f5b024;stroke:black;stroke-width:1;fill-opacity:1;stroke-opacity:0.3" />
<line x1="301" y1="135" x2="395" y2="135" stroke="pink" stroke-width="1" />
<rect x="395" y="133" width="26" height="5" style="fill:#f5b024;stroke:black;stroke-width:1;fill-opacity:1;stroke-opacity:0.3" />
<rect x="430" y="133" width="22" height="5" style="fill:#f5b024;stroke:black;stroke-width:1;fill-opacity:1;stroke-opacity:0.3" />
<line x1="453" y1="135" x2="585" y2="135" stroke="pink" stroke-width="1" />
<rect x="585" y="133" width="22" height="5" style="fill:#f5b024;stroke:black;stroke-width:1;fill-opacity:1;stroke-opacity:0.3" />
<line x1="607" y1="135" x2="673" y2="135" stroke="pink" stroke-width="1" />
<rect x="673" y="133" width="2" height="5" style="fill:#f5b024;stroke:black;stroke-width:1;fill-opacity:1;stroke-opacity:0.3" />
<line x1="402" y1="79" x2="407" y2="81" stroke="black" stroke-width="1" />
<line x1="407" y1="81" x2="412" y2="79" stroke="black" stroke-width="1" />
<rect x="355" y="77" width="47" height="5" style="fill:#f5b024;stroke:black;stroke-width:1;fill-opacity:1;stroke-opacity:0.3" />
<rect x="412" y="77" width="40" height="5" style="fill:#f5b024;stroke:black;stroke-width:1;fill-opacity:1;stroke-opacity:0.3" />
<line x1="453" y1="79" x2="585" y2="79" stroke="pink" stroke-width="1" />
<rect x="585" y="77" width="6" height="5" style="fill:#f5b024;stroke:black;stroke-width:1;fill-opacity:1;stroke-opacity:0.3" />
<line x1="442" y1="86" x2="516" y2="88" stroke="black" stroke-width="1" />
<line x1="516" y1="88" x2="591" y2="86" stroke="black" stroke-width="1" />
<rect x="395" y="84" width="46" height="5" style="fill:#f5b024;stroke:black;stroke-width:1;fill-opacity:1;stroke-opacity:0.3" />
<rect x="591" y="84" width="15" height="5" style="fill:#f5b024;stroke:black;stroke-width:1;fill-opacity:1;stroke-opacity:0.3" />
<line x1="607" y1="86" x2="673" y2="86" stroke="pink" stroke-width="1" />
<rect x="673" y="84" width="31" height="5" style="fill:#f5b024;stroke:black;stroke-width:1;fill-opacity:1;stroke-opacity:0.3" />
<line x1="602" y1="128" x2="637" y2="130" stroke="black" stroke-width="1" />
<line x1="637" y1="130" x2="673" y2="128" stroke="black" stroke-width="1" />
<rect x="399" y="126" width="53" height="5" style="fill:#f5b024;stroke:black;stroke-width:1;fill-opacity:1;stroke-opacity:0.3" />
<line x1="453" y1="128" x2="585" y2="128" stroke="pink" stroke-width="1" />
<rect x="585" y="126" width="17" height="5" style="fill:#f5b024;stroke:black;stroke-width:1;fill-opacity:1;stroke-opacity:0.3" />
<rect x="673" y="126" width="31" height="5" style="fill:#f5b024;stroke:black;stroke-width:1;fill-opacity:1;stroke-opacity:0.3" />
<line x1="704" y1="128" x2="759" y2="128" stroke="pink" stroke-width="1" />
<rect x="759" y="126" width="38" height="5" style="fill:#f5b024;stroke:black;stroke-width:1;fill-opacity:1;stroke-opacity:0.3" />
<line x1="447" y1="149" x2="449" y2="151" stroke="black" stroke-width="1" />
<line x1="449" y1="151" x2="452" y2="149" stroke="black" stroke-width="1" />
<rect x="399" y="147" width="47" height="5" style="fill:#f5b024;stroke:black;stroke-width:1;fill-opacity:1;stroke-opacity:0.3" />
<rect x="452" y="147" width="0" height="5" style="fill:#f5b024;stroke:black;stroke-width:1;fill-opacity:1;stroke-opacity:0.3" />
<line x1="453" y1="149" x2="585" y2="149" stroke="pink" stroke-width="1" />
<rect x="585" y="147" width="22" height="5" style="fill:#f5b024;stroke:black;stroke-width:1;fill-opacity:1;stroke-opacity:0.3" />
<line x1="607" y1="149" x2="673" y2="149" stroke="pink" stroke-width="1" />
<rect x="673" y="147" width="24" height="5" style="fill:#f5b024;stroke:black;stroke-width:1;fill-opacity:1;stroke-opacity:0.3" />
<line x1="449" y1="51" x2="525" y2="53" stroke="black" stroke-width="1" />
<line x1="525" y1="53" x2="602" y2="51" stroke="black" stroke-width="1" />
<rect x="402" y="49" width="47" height="5" style="fill:#f5b024;stroke:black;stroke-width:1;fill-opacity:1;stroke-opacity:0.3" />
<rect x="602" y="49" width="4" height="5" style="fill:#f5b024;stroke:black;stroke-width:1;fill-opacity:1;stroke-opacity:0.3" />
<line x1="607" y1="51" x2="673" y2="51" stroke="pink" stroke-width="1" />
<rect x="673" y="49" width="31" height="5" style="fill:#f5b024;stroke:black;stroke-width:1;fill-opacity:1;stroke-opacity:0.3" />
<line x1="704" y1="51" x2="759" y2="51" stroke="pink" stroke-width="1" />
<rect x="759" y="49" width="11" height="5" style="fill:#f5b024;stroke:black;stroke-width:1;fill-opacity:1;stroke-opacity:0.3" />
<line x1="449" y1="156" x2="517" y2="158" stroke="black" stroke-width="1" />
<line x1="517" y1="158" x2="586" y2="156" stroke="black" stroke-width="1" />
<rect x="403" y="154" width="46" height="5" style="fill:#f5b024;stroke:black;stroke-width:1;fill-opacity:1;stroke-opacity:0.3" />
<rect x="586" y="154" width="21" height="5" style="fill:#f5b024;stroke:black;stroke-width:1;fill-opacity:1;stroke-opacity:0.3" />
<line x1="607" y1="156" x2="673" y2="156" stroke="pink" stroke-width="1" />
<rect x="673" y="154" width="26" height="5" style="fill:#f5b024;stroke:black;stroke-width:1;fill-opacity:1;stroke-opacity:0.3" />
<line x1="596" y1="142" x2="641" y2="144" stroke="black" stroke-width="1" />
<line x1="641" y1="144" x2="687" y2="142" stroke="black" stroke-width="1" />
<rect x="416" y="140" width="36" height="5" style="fill:#f5b024;stroke:black;stroke-width:1;fill-opacity:1;stroke-opacity:0.3" />
<line x1="453" y1="142" x2="585" y2="142" stroke="pink" stroke-width="1" />
<rect x="585" y="140" width="10" height="5" style="fill:#f5b024;stroke:black;stroke-width:1;fill-opacity:1;stroke-opacity:0.3" />
<rect x="687" y="140" width="17" height="5" style="fill:#f5b024;stroke:black;stroke-width:1;fill-opacity:1;stroke-opacity:0.3" />
<line x1="704" y1="142" x2="759" y2="142" stroke="pink" stroke-width="1" />
<rect x="759" y="140" width="30" height="5" style="fill:#f5b024;stroke:black;stroke-width:1;fill-opacity:1;stroke-opacity:0.3" />
<line x1="601" y1="37" x2="641" y2="39" stroke="black" stroke-width="1" />
<line x1="641" y1="39" x2="682" y2="37" stroke="black" stroke-width="1" />
<rect x="422" y="35" width="30" height="5" style="fill:#f5b024;stroke:black;stroke-width:1;fill-opacity:1;stroke-opacity:0.3" />
<line x1="453" y1="37" x2="585" y2="37" stroke="pink" stroke-width="1" />
<rect x="585" y="35" width="16" height="5" style="fill:#f5b024;stroke:black;stroke-width:1;fill-opacity:1;stroke-opacity:0.3" />
<rect x="682" y="35" width="22" height="5" style="fill:#f5b024;stroke:black;stroke-width:1;fill-opacity:1;stroke-opacity:0.3" />
<line x1="704" y1="37" x2="759" y2="37" stroke="pink" stroke-width="1" />
<rect x="759" y="35" width="24" height="5" style="fill:#f5b024;stroke:black;stroke-width:1;fill-opacity:1;stroke-opacity:0.3" />
<line x1="601" y1="93" x2="639" y2="95" stroke="black" stroke-width="1" />
<line x1="639" y1="95" x2="678" y2="93" stroke="black" stroke-width="1" />
<rect x="422" y="91" width="30" height="5" style="fill:#f5b024;stroke:black;stroke-width:1;fill-opacity:1;stroke-opacity:0.3" />
<line x1="453" y1="93" x2="585" y2="93" stroke="pink" stroke-width="1" />
<rect x="585" y="91" width="16" height="5" style="fill:#f5b024;stroke:black;stroke-width:1;fill-opacity:1;stroke-opacity:0.3" />
<rect x="678" y="91" width="26" height="5" style="fill:#f5b024;stroke:black;stroke-width:1;fill-opacity:1;stroke-opacity:0.3" />
<line x1="704" y1="93" x2="759" y2="93" stroke="pink" stroke-width="1" />
<rect x="759" y="91" width="20" height="5" style="fill:#f5b024;stroke:black;stroke-width:1;fill-opacity:1;stroke-opacity:0.3" />
<line x1="676" y1="72" x2="718" y2="74" stroke="black" stroke-width="1" />
<line x1="718" y1="74" x2="760" y2="72" stroke="black" stroke-width="1" />
<rect x="439" y="70" width="13" height="5" style="fill:#f5b024;stroke:black;stroke-width:1;fill-opacity:1;stroke-opacity:0.3" />
<line x1="453" y1="72" x2="585" y2="72" stroke="pink" stroke-width="1" />
<rect x="585" y="70" width="22" height="5" style="fill:#f5b024;stroke:black;stroke-width:1;fill-opacity:1;stroke-opacity:0.3" />
<line x1="607" y1="72" x2="673" y2="72" stroke="pink" stroke-width="1" />
<rect x="673" y="70" width="2" height="5" style="fill:#f5b024;stroke:black;stroke-width:1;fill-opacity:1;stroke-opacity:0.3" />
<rect x="760" y="70" width="47" height="5" style="fill:#f5b024;stroke:black;stroke-width:1;fill-opacity:1;stroke-opacity:0.3" />
<line x1="676" y1="121" x2="718" y2="123" stroke="black" stroke-width="1" />
<line x1="718" y1="123" x2="760" y2="121" stroke="black" stroke-width="1" />
<rect x="439" y="119" width="13" height="5" style="fill:#f5b024;stroke:black;stroke-width:1;fill-opacity:1;stroke-opacity:0.3" />
<line x1="453" y1="121" x2="585" y2="121" stroke="pink" stroke-width="1" />
<rect x="585" y="119" width="22" height="5" style="fill:#f5b024;stroke:black;stroke-width:1;fill-opacity:1;stroke-opacity:0.3" />
<line x1="607" y1="121" x2="673" y2="121" stroke="pink" stroke-width="1" />
<rect x="673" y="119" width="3" height="5" style="fill:#f5b024;stroke:black;stroke-width:1;fill-opacity:1;stroke-opacity:0.3" />
<rect x="760" y="119" width="47" height="5" style="fill:#f5b024;stroke:black;stroke-width:1;fill-opacity:1;stroke-opacity:0.3" />
<line x1="697" y1="30" x2="729" y2="32" stroke="black" stroke-width="1" />
<line x1="729" y1="32" x2="762" y2="30" stroke="black" stroke-width="1" />
<rect x="452" y="28" width="0" height="5" style="fill:#f5b024;stroke:black;stroke-width:1;fill-opacity:1;stroke-opacity:0.3" />
<line x1="453" y1="30" x2="585" y2="30" stroke="pink" stroke-width="1" />
<rect x="585" y="28" width="22" height="5" style="fill:#f5b024;stroke:black;stroke-width:1;fill-opacity:1;stroke-opacity:0.3" />
<line x1="607" y1="30" x2="673" y2="30" stroke="pink" stroke-width="1" />
<rect x="673" y="28" width="23" height="5" style="fill:#f5b024;stroke:black;stroke-width:1;fill-opacity:1;stroke-opacity:0.3" />
<rect x="762" y="28" width="47" height="5" style="fill:#f5b024;stroke:black;stroke-width:1;fill-opacity:1;stroke-opacity:0.3" />
<line x1="699" y1="65" x2="743" y2="67" stroke="black" stroke-width="1" />
<line x1="743" y1="67" x2="787" y2="65" stroke="black" stroke-width="1" />
<rect x="585" y="63" width="21" height="5" style="fill:#f5b024;stroke:black;stroke-width:1;fill-opacity:1;stroke-opacity:0.3" />
<line x1="607" y1="65" x2="673" y2="65" stroke="pink" stroke-width="1" />
<rect x="673" y="63" width="25" height="5" style="fill:#f5b024;stroke:black;stroke-width:1;fill-opacity:1;stroke-opacity:0.3" />
<rect x="787" y="63" width="47" height="5" style="fill:#f5b024;stroke:black;stroke-width:1;fill-opacity:1;stroke-opacity:0.3" />
<line x1="699" y1="107" x2="732" y2="109" stroke="black" stroke-width="1" />
<line x1="732" y1="109" x2="766" y2="107" stroke="black" stroke-width="1" />
<rect x="585" y="105" width="21" height="5" style="fill:#f5b024;stroke:black;stroke-width:1;fill-opacity:1;stroke-opacity:0.3" />
<line x1="607" y1="107" x2="673" y2="107" stroke="pink" stroke-width="1" />
<rect x="673" y="105" width="25" height="5" style="fill:#f5b024;stroke:black;stroke-width:1;fill-opacity:1;stroke-opacity:0.3" />
<rect x="766" y="105" width="47" height="5" style="fill:#f5b024;stroke:black;stroke-width:1;fill-opacity:1;stroke-opacity:0.3" />
<line x1="703" y1="100" x2="734" y2="102" stroke="black" stroke-width="1" />
<line x1="734" y1="102" x2="766" y2="100" stroke="black" stroke-width="1" />
<rect x="590" y="98" width="17" height="5" style="fill:#f5b024;stroke:black;stroke-width:1;fill-opacity:1;stroke-opacity:0.3" />
<line x1="607" y1="100" x2="673" y2="100" stroke="pink" stroke-width="1" />
<rect x="673" y="98" width="30" height="5" style="fill:#f5b024;stroke:black;stroke-width:1;fill-opacity:1;stroke-opacity:0.3" />
<rect x="766" y="98" width="47" height="5" style="fill:#f5b024;stroke:black;stroke-width:1;fill-opacity:1;stroke-opacity:0.3" />
<line x1="705" y1="79" x2="738" y2="81" stroke="black" stroke-width="1" />
<line x1="738" y1="81" x2="771" y2="79" stroke="black" stroke-width="1" />
<rect x="592" y="77" width="14" height="5" style="fill:#f5b024;stroke:black;stroke-width:1;fill-opacity:1;stroke-opacity:0.3" />
<line x1="607" y1="79" x2="673" y2="79" stroke="pink" stroke-width="1" />
<rect x="673" y="77" width="32" height="5" style="fill:#f5b024;stroke:black;stroke-width:1;fill-opacity:1;stroke-opacity:0.3" />
<rect x="771" y="77" width="47" height="5" style="fill:#f5b024;stroke:black;stroke-width:1;fill-opacity:1;stroke-opacity:0.3" />
<line x1="767" y1="44" x2="769" y2="46" stroke="black" stroke-width="1" />
<line x1="769" y1="46" x2="772" y2="44" stroke="black" stroke-width="1" />
<rect x="599" y="42" width="7" height="5" style="fill:#f5b024;stroke:black;stroke-width:1;fill-opacity:1;stroke-opacity:0.3" />
<line x1="607" y1="44" x2="673" y2="44" stroke="pink" stroke-width="1" />
<rect x="673" y="42" width="31" height="5" style="fill:#f5b024;stroke:black;stroke-width:1;fill-opacity:1;stroke-opacity:0.3" />
<line x1="704" y1="44" x2="759" y2="44" stroke="pink" stroke-width="1" />
<rect x="759" y="42" width="8" height="5" style="fill:#f5b024;stroke:black;stroke-width:1;fill-opacity:1;stroke-opacity:0.3" />
<rect x="772" y="42" width="47" height="5" style="fill:#f5b024;stroke:black;stroke-width:1;fill-opacity:1;stroke-opacity:0.3" />
<line x1="767" y1="58" x2="771" y2="60" stroke="black" stroke-width="1" />
<line x1="771" y1="60" x2="775" y2="58" stroke="black" stroke-width="1" />
<rect x="599" y="56" width="7" height="5" style="fill:#f5b024;stroke:black;stroke-width:1;fill-opacity:1;stroke-opacity:0.3" />
<line x1="607" y1="58" x2="673" y2="58" stroke="pink" stroke-width="1" />
<rect x="673" y="56" width="31" height="5" style="fill:#f5b024;stroke:black;stroke-width:1;fill-opacity:1;stroke-opacity:0.3" />
<line x1="704" y1="58" x2="759" y2="58" stroke="pink" stroke-width="1" />
<rect x="759" y="56" width="8" height="5" style="fill:#f5b024;stroke:black;stroke-width:1;fill-opacity:1;stroke-opacity:0.3" />
<rect x="775" y="56" width="47" height="5" style="fill:#f5b024;stroke:black;stroke-width:1;fill-opacity:1;stroke-opacity:0.3" />
<line x1="771" y1="114" x2="785" y2="116" stroke="black" stroke-width="1" />
<line x1="785" y1="116" x2="800" y2="114" stroke="black" stroke-width="1" />
<rect x="604" y="112" width="2" height="5" style="fill:#f5b024;stroke:black;stroke-width:1;fill-opacity:1;stroke-opacity:0.3" />
<line x1="607" y1="114" x2="673" y2="114" stroke="pink" stroke-width="1" />
<rect x="673" y="112" width="31" height="5" style="fill:#f5b024;stroke:black;stroke-width:1;fill-opacity:1;stroke-opacity:0.3" />
<line x1="704" y1="114" x2="759" y2="114" stroke="pink" stroke-width="1" />
<rect x="759" y="112" width="12" height="5" style="fill:#f5b024;stroke:black;stroke-width:1;fill-opacity:1;stroke-opacity:0.3" />
<rect x="800" y="112" width="47" height="5" style="fill:#f5b024;stroke:black;stroke-width:1;fill-opacity:1;stroke-opacity:0.3" />
<line x1="784" y1="135" x2="795" y2="137" stroke="black" stroke-width="1" />
<line x1="795" y1="137" x2="807" y2="135" stroke="black" stroke-width="1" />
<rect x="683" y="133" width="21" height="5" style="fill:#5d3c2d;stroke:black;stroke-width:1;fill-opacity:1;stroke-opacity:0.3" />
<line x1="704" y1="135" x2="759" y2="135" stroke="pink" stroke-width="1" />
<rect x="759" y="133" width="25" height="5" style="fill:#5d3c2d;stroke:black;stroke-width:1;fill-opacity:1;stroke-opacity:0.3" />
<rect x="807" y="133" width="47" height="5" style="fill:#5d3c2d;stroke:black;stroke-width:1;fill-opacity:1;stroke-opacity:0.3" />
<line x1="785" y1="163" x2="793" y2="165" stroke="black" stroke-width="1" />
<line x1="793" y1="165" x2="802" y2="163" stroke="black" stroke-width="1" />
<rect x="683" y="161" width="21" height="5" style="fill:#f5b024;stroke:black;stroke-width:1;fill-opacity:1;stroke-opacity:0.3" />
<line x1="704" y1="163" x2="759" y2="163" stroke="pink" stroke-width="1" />
<rect x="759" y="161" width="26" height="5" style="fill:#f5b024;stroke:black;stroke-width:1;fill-opacity:1;stroke-opacity:0.3" />
<rect x="802" y="161" width="47" height="5" style="fill:#f5b024;stroke:black;stroke-width:1;fill-opacity:1;stroke-opacity:0.3" />
<line x1="823" y1="149" x2="827" y2="151" stroke="black" stroke-width="1" />
<line x1="827" y1="151" x2="832" y2="149" stroke="black" stroke-width="1" />
<rect x="697" y="147" width="7" height="5" style="fill:#f5b024;stroke:black;stroke-width:1;fill-opacity:1;stroke-opacity:0.3" />
<line x1="704" y1="149" x2="759" y2="149" stroke="pink" stroke-width="1" />
<rect x="759" y="147" width="63" height="5" style="fill:#f5b024;stroke:black;stroke-width:1;fill-opacity:1;stroke-opacity:0.3" />
<rect x="832" y="147" width="70" height="5" style="fill:#f5b024;stroke:black;stroke-width:1;fill-opacity:1;stroke-opacity:0.3" />
<line x1="805" y1="156" x2="816" y2="158" stroke="black" stroke-width="1" />
<line x1="816" y1="158" x2="828" y2="156" stroke="black" stroke-width="1" />
<rect x="703" y="154" width="0" height="5" style="fill:#f5b024;stroke:black;stroke-width:1;fill-opacity:1;stroke-opacity:0.3" />
<line x1="704" y1="156" x2="759" y2="156" stroke="pink" stroke-width="1" />
<rect x="759" y="154" width="46" height="5" style="fill:#f5b024;stroke:black;stroke-width:1;fill-opacity:1;stroke-opacity:0.3" />
<rect x="828" y="154" width="47" height="5" style="fill:#f5b024;stroke:black;stroke-width:1;fill-opacity:1;stroke-opacity:0.3" />
<line x1="806" y1="86" x2="812" y2="88" stroke="black" stroke-width="1" />
<line x1="812" y1="88" x2="819" y2="86" stroke="black" stroke-width="1" />
<rect x="759" y="84" width="47" height="5" style="fill:#f5b024;stroke:black;stroke-width:1;fill-opacity:1;stroke-opacity:0.3" />
<rect x="819" y="84" width="47" height="5" style="fill:#f5b024;stroke:black;stroke-width:1;fill-opacity:1;stroke-opacity:0.3" />
<line x1="820" y1="51" x2="830" y2="53" stroke="black" stroke-width="1" />
<line x1="830" y1="53" x2="841" y2="51" stroke="black" stroke-width="1" />
<rect x="773" y="49" width="47" height="5" style="fill:#f5b024;stroke:black;stroke-width:1;fill-opacity:1;stroke-opacity:0.3" />
<rect x="841" y="49" width="47" height="5" style="fill:#f5b024;stroke:black;stroke-width:1;fill-opacity:1;stroke-opacity:0.3" />
<line x1="857" y1="37" x2="862" y2="39" stroke="black" stroke-width="1" />
<line x1="862" y1="39" x2="868" y2="37" stroke="black" stroke-width="1" />
<rect x="787" y="35" width="70" height="5" style="fill:#f5b024;stroke:black;stroke-width:1;fill-opacity:1;stroke-opacity:0.3" />
<rect x="868" y="35" width="70" height="5" style="fill:#f5b024;stroke:black;stroke-width:1;fill-opacity:1;stroke-opacity:0.3" />
<line x1="839" y1="93" x2="846" y2="95" stroke="black" stroke-width="1" />
<line x1="846" y1="95" x2="854" y2="93" stroke="black" stroke-width="1" />
<rect x="792" y="91" width="47" height="5" style="fill:#f5b024;stroke:black;stroke-width:1;fill-opacity:1;stroke-opacity:0.3" />
<rect x="854" y="91" width="47" height="5" style="fill:#f5b024;stroke:black;stroke-width:1;fill-opacity:1;stroke-opacity:0.3" />
<line x1="865" y1="142" x2="871" y2="144" stroke="black" stroke-width="1" />
<line x1="871" y1="144" x2="877" y2="142" stroke="black" stroke-width="1" />
<rect x="794" y="140" width="70" height="5" style="fill:#f5b024;stroke:black;stroke-width:1;fill-opacity:1;stroke-opacity:0.3" />
<rect x="877" y="140" width="70" height="5" style="fill:#f5b024;stroke:black;stroke-width:1;fill-opacity:1;stroke-opacity:0.3" />
<line x1="846" y1="128" x2="851" y2="130" stroke="black" stroke-width="1" />
<line x1="851" y1="130" x2="857" y2="128" stroke="black" stroke-width="1" />
<rect x="798" y="126" width="47" height="5" style="fill:#f5b024;stroke:black;stroke-width:1;fill-opacity:1;stroke-opacity:0.3" />
<rect x="857" y="126" width="47" height="5" style="fill:#f5b024;stroke:black;stroke-width:1;fill-opacity:1;stroke-opacity:0.3" />
<line x1="857" y1="30" x2="878" y2="32" stroke="black" stroke-width="1" />
<line x1="878" y1="32" x2="899" y2="30" stroke="black" stroke-width="1" />
<rect x="809" y="28" width="47" height="5" style="fill:#f5b024;stroke:black;stroke-width:1;fill-opacity:1;stroke-opacity:0.3" />
<rect x="899" y="28" width="47" height="5" style="fill:#f5b024;stroke:black;stroke-width:1;fill-opacity:1;stroke-opacity:0.3" />
<line x1="862" y1="72" x2="879" y2="74" stroke="black" stroke-width="1" />
<line x1="879" y1="74" x2="897" y2="72" stroke="black" stroke-width="1" />
<rect x="815" y="70" width="47" height="5" style="fill:#f5b024;stroke:black;stroke-width:1;fill-opacity:1;stroke-opacity:0.3" />
<rect x="897" y="70" width="47" height="5" style="fill:#f5b024;stroke:black;stroke-width:1;fill-opacity:1;stroke-opacity:0.3" />
<text x="15"  y="176" style="font-family:Arial;font-size:10;stroke:black;fill:black;">all.merged.bam</text>
</svg>
    
