<?xml version="1.0" encoding="utf-8" standalone="no"?>
<!DOCTYPE svg PUBLIC "-//W3C//DTD SVG 1.1//EN"
  "http://www.w3.org/Graphics/SVG/1.1/DTD/svg11.dtd">
<svg height="1140" width="1000" version="1.1" viewBox="0 0 1000 1140" xmlns="http://www.w3.org/2000/svg" xmlns:xlink="http://www.w3.org/1999/xlink">
<line x1="134" y1="11" x2="864" y2="11" stroke="black" stroke-width="1" />
<rect x="134" y="9" width="64" height="5" style="fill:#f50002;stroke:black;stroke-width:1;fill-opacity:1;stroke-opacity:0.3" />
<rect x="199" y="9" width="328" height="5" style="fill:#53a1b5;stroke:black;stroke-width:1;fill-opacity:1;stroke-opacity:0.3" />
<rect x="529" y="9" width="335" height="5" style="fill:#f50002;stroke:black;stroke-width:1;fill-opacity:1;stroke-opacity:0.3" />
<text x="134"  y="23" style="font-family:Arial;font-size:10;stroke:black;fill:black;">Cre02.g115583.t1.1.v5.5 (+) chromosome_2:6413498-6414043</text>
<line x1="280" y1="30" x2="286" y2="32" stroke="black" stroke-width="1" />
<line x1="286" y1="32" x2="293" y2="30" stroke="black" stroke-width="1" />
<rect x="146" y="28" width="134" height="5" style="fill:#5d3c2d;stroke:black;stroke-width:1;fill-opacity:1;stroke-opacity:0.3" />
<rect x="293" y="28" width="134" height="5" style="fill:#5d3c2d;stroke:black;stroke-width:1;fill-opacity:1;stroke-opacity:0.3" />
<line x1="288" y1="37" x2="296" y2="39" stroke="black" stroke-width="1" />
<line x1="296" y1="39" x2="305" y2="37" stroke="black" stroke-width="1" />
<rect x="154" y="35" width="134" height="5" style="fill:#5d3c2d;stroke:black;stroke-width:1;fill-opacity:1;stroke-opacity:0.3" />
<rect x="305" y="35" width="128" height="5" style="fill:#5d3c2d;stroke:black;stroke-width:1;fill-opacity:1;stroke-opacity:0.3" />
<line x1="352" y1="44" x2="424" y2="46" stroke="black" stroke-width="1" />
<line x1="424" y1="46" x2="497" y2="44" stroke="black" stroke-width="1" />
<rect x="218" y="42" width="134" height="5" style="fill:#5d3c2d;stroke:black;stroke-width:1;fill-opacity:1;stroke-opacity:0.3" />
<rect x="497" y="42" width="134" height="5" style="fill:#5d3c2d;stroke:black;stroke-width:1;fill-opacity:1;stroke-opacity:0.3" />
<line x1="364" y1="51" x2="389" y2="53" stroke="black" stroke-width="1" />
<line x1="389" y1="53" x2="415" y2="51" stroke="black" stroke-width="1" />
<rect x="230" y="49" width="134" height="5" style="fill:#5d3c2d;stroke:black;stroke-width:1;fill-opacity:1;stroke-opacity:0.3" />
<rect x="415" y="49" width="134" height="5" style="fill:#5d3c2d;stroke:black;stroke-width:1;fill-opacity:1;stroke-opacity:0.3" />
<line x1="367" y1="58" x2="400" y2="60" stroke="black" stroke-width="1" />
<line x1="400" y1="60" x2="434" y2="58" stroke="black" stroke-width="1" />
<rect x="233" y="56" width="134" height="5" style="fill:#5d3c2d;stroke:black;stroke-width:1;fill-opacity:1;stroke-opacity:0.3" />
<rect x="434" y="56" width="134" height="5" style="fill:#5d3c2d;stroke:black;stroke-width:1;fill-opacity:1;stroke-opacity:0.3" />
<line x1="376" y1="65" x2="430" y2="67" stroke="black" stroke-width="1" />
<line x1="430" y1="67" x2="485" y2="65" stroke="black" stroke-width="1" />
<rect x="242" y="63" width="134" height="5" style="fill:#5d3c2d;stroke:black;stroke-width:1;fill-opacity:1;stroke-opacity:0.3" />
<rect x="485" y="63" width="134" height="5" style="fill:#5d3c2d;stroke:black;stroke-width:1;fill-opacity:1;stroke-opacity:0.3" />
<line x1="403" y1="72" x2="420" y2="74" stroke="black" stroke-width="1" />
<line x1="420" y1="74" x2="438" y2="72" stroke="black" stroke-width="1" />
<rect x="269" y="70" width="134" height="5" style="fill:#5d3c2d;stroke:black;stroke-width:1;fill-opacity:1;stroke-opacity:0.3" />
<rect x="438" y="70" width="130" height="5" style="fill:#5d3c2d;stroke:black;stroke-width:1;fill-opacity:1;stroke-opacity:0.3" />
<line x1="479" y1="79" x2="492" y2="81" stroke="black" stroke-width="1" />
<line x1="492" y1="81" x2="506" y2="79" stroke="black" stroke-width="1" />
<rect x="278" y="77" width="201" height="5" style="fill:#5d3c2d;stroke:black;stroke-width:1;fill-opacity:1;stroke-opacity:0.3" />
<rect x="506" y="77" width="201" height="5" style="fill:#5d3c2d;stroke:black;stroke-width:1;fill-opacity:1;stroke-opacity:0.3" />
<line x1="411" y1="86" x2="458" y2="88" stroke="black" stroke-width="1" />
<line x1="458" y1="88" x2="506" y2="86" stroke="black" stroke-width="1" />
<rect x="278" y="84" width="132" height="5" style="fill:#5d3c2d;stroke:black;stroke-width:1;fill-opacity:1;stroke-opacity:0.3" />
<rect x="506" y="84" width="134" height="5" style="fill:#5d3c2d;stroke:black;stroke-width:1;fill-opacity:1;stroke-opacity:0.3" />
<line x1="411" y1="93" x2="458" y2="95" stroke="black" stroke-width="1" />
<line x1="458" y1="95" x2="506" y2="93" stroke="black" stroke-width="1" />
<rect x="278" y="91" width="132" height="5" style="fill:#5d3c2d;stroke:black;stroke-width:1;fill-opacity:1;stroke-opacity:0.3" />
<rect x="506" y="91" width="134" height="5" style="fill:#5d3c2d;stroke:black;stroke-width:1;fill-opacity:1;stroke-opacity:0.3" />
<line x1="436" y1="100" x2="459" y2="102" stroke="black" stroke-width="1" />
<line x1="459" y1="102" x2="483" y2="100" stroke="black" stroke-width="1" />
<rect x="302" y="98" width="134" height="5" style="fill:#5d3c2d;stroke:black;stroke-width:1;fill-opacity:1;stroke-opacity:0.3" />
<rect x="483" y="98" width="134" height="5" style="fill:#5d3c2d;stroke:black;stroke-width:1;fill-opacity:1;stroke-opacity:0.3" />
<line x1="436" y1="107" x2="457" y2="109" stroke="black" stroke-width="1" />
<line x1="457" y1="109" x2="479" y2="107" stroke="black" stroke-width="1" />
<rect x="302" y="105" width="134" height="5" style="fill:#5d3c2d;stroke:black;stroke-width:1;fill-opacity:1;stroke-opacity:0.3" />
<rect x="479" y="105" width="134" height="5" style="fill:#5d3c2d;stroke:black;stroke-width:1;fill-opacity:1;stroke-opacity:0.3" />
<line x1="451" y1="114" x2="475" y2="116" stroke="black" stroke-width="1" />
<line x1="475" y1="116" x2="500" y2="114" stroke="black" stroke-width="1" />
<rect x="317" y="112" width="134" height="5" style="fill:#5d3c2d;stroke:black;stroke-width:1;fill-opacity:1;stroke-opacity:0.3" />
<rect x="500" y="112" width="134" height="5" style="fill:#5d3c2d;stroke:black;stroke-width:1;fill-opacity:1;stroke-opacity:0.3" />
<line x1="451" y1="121" x2="475" y2="123" stroke="black" stroke-width="1" />
<line x1="475" y1="123" x2="500" y2="121" stroke="black" stroke-width="1" />
<rect x="317" y="119" width="134" height="5" style="fill:#5d3c2d;stroke:black;stroke-width:1;fill-opacity:1;stroke-opacity:0.3" />
<rect x="500" y="119" width="134" height="5" style="fill:#5d3c2d;stroke:black;stroke-width:1;fill-opacity:1;stroke-opacity:0.3" />
<line x1="483" y1="128" x2="496" y2="130" stroke="black" stroke-width="1" />
<line x1="496" y1="130" x2="509" y2="128" stroke="black" stroke-width="1" />
<rect x="349" y="126" width="134" height="5" style="fill:#5d3c2d;stroke:black;stroke-width:1;fill-opacity:1;stroke-opacity:0.3" />
<rect x="509" y="126" width="134" height="5" style="fill:#5d3c2d;stroke:black;stroke-width:1;fill-opacity:1;stroke-opacity:0.3" />
<line x1="573" y1="135" x2="582" y2="137" stroke="black" stroke-width="1" />
<line x1="582" y1="137" x2="591" y2="135" stroke="black" stroke-width="1" />
<rect x="372" y="133" width="201" height="5" style="fill:#5d3c2d;stroke:black;stroke-width:1;fill-opacity:1;stroke-opacity:0.3" />
<rect x="591" y="133" width="199" height="5" style="fill:#5d3c2d;stroke:black;stroke-width:1;fill-opacity:1;stroke-opacity:0.3" />
<line x1="506" y1="142" x2="559" y2="144" stroke="black" stroke-width="1" />
<line x1="559" y1="144" x2="613" y2="142" stroke="black" stroke-width="1" />
<rect x="372" y="140" width="134" height="5" style="fill:#5d3c2d;stroke:black;stroke-width:1;fill-opacity:1;stroke-opacity:0.3" />
<rect x="613" y="140" width="134" height="5" style="fill:#5d3c2d;stroke:black;stroke-width:1;fill-opacity:1;stroke-opacity:0.3" />
<line x1="573" y1="149" x2="600" y2="151" stroke="black" stroke-width="1" />
<line x1="600" y1="151" x2="628" y2="149" stroke="black" stroke-width="1" />
<rect x="372" y="147" width="201" height="5" style="fill:#5d3c2d;stroke:black;stroke-width:1;fill-opacity:1;stroke-opacity:0.3" />
<rect x="628" y="147" width="201" height="5" style="fill:#5d3c2d;stroke:black;stroke-width:1;fill-opacity:1;stroke-opacity:0.3" />
<line x1="548" y1="156" x2="620" y2="158" stroke="black" stroke-width="1" />
<line x1="620" y1="158" x2="693" y2="156" stroke="black" stroke-width="1" />
<rect x="414" y="154" width="134" height="5" style="fill:#5d3c2d;stroke:black;stroke-width:1;fill-opacity:1;stroke-opacity:0.3" />
<rect x="693" y="154" width="134" height="5" style="fill:#5d3c2d;stroke:black;stroke-width:1;fill-opacity:1;stroke-opacity:0.3" />
<line x1="550" y1="163" x2="594" y2="165" stroke="black" stroke-width="1" />
<line x1="594" y1="165" x2="638" y2="163" stroke="black" stroke-width="1" />
<rect x="416" y="161" width="134" height="5" style="fill:#5d3c2d;stroke:black;stroke-width:1;fill-opacity:1;stroke-opacity:0.3" />
<rect x="638" y="161" width="134" height="5" style="fill:#5d3c2d;stroke:black;stroke-width:1;fill-opacity:1;stroke-opacity:0.3" />
<line x1="587" y1="30" x2="638" y2="32" stroke="black" stroke-width="1" />
<line x1="638" y1="32" x2="690" y2="30" stroke="black" stroke-width="1" />
<rect x="453" y="28" width="134" height="5" style="fill:#5d3c2d;stroke:black;stroke-width:1;fill-opacity:1;stroke-opacity:0.3" />
<rect x="690" y="28" width="134" height="5" style="fill:#5d3c2d;stroke:black;stroke-width:1;fill-opacity:1;stroke-opacity:0.3" />
<line x1="588" y1="37" x2="601" y2="39" stroke="black" stroke-width="1" />
<line x1="601" y1="39" x2="615" y2="37" stroke="black" stroke-width="1" />
<rect x="454" y="35" width="134" height="5" style="fill:#5d3c2d;stroke:black;stroke-width:1;fill-opacity:1;stroke-opacity:0.3" />
<rect x="615" y="35" width="134" height="5" style="fill:#5d3c2d;stroke:black;stroke-width:1;fill-opacity:1;stroke-opacity:0.3" />
<text x="15"  y="176" style="font-family:Arial;font-size:10;stroke:black;fill:black;">all.merged.bam</text>
</svg>
    
