<?xml version="1.0" encoding="utf-8" standalone="no"?>
<!DOCTYPE svg PUBLIC "-//W3C//DTD SVG 1.1//EN"
  "http://www.w3.org/Graphics/SVG/1.1/DTD/svg11.dtd">
<svg height="1140" width="1000" version="1.1" viewBox="0 0 1000 1140" xmlns="http://www.w3.org/2000/svg" xmlns:xlink="http://www.w3.org/1999/xlink">
<line x1="63" y1="11" x2="935" y2="11" stroke="black" stroke-width="1" />
<rect x="63" y="9" width="266" height="5" style="fill:#f50002;stroke:black;stroke-width:1;fill-opacity:1;stroke-opacity:0.3" />
<rect x="330" y="9" width="110" height="5" style="fill:#53a1b5;stroke:black;stroke-width:1;fill-opacity:1;stroke-opacity:0.3" />
<rect x="545" y="9" width="48" height="5" style="fill:#53a1b5;stroke:black;stroke-width:1;fill-opacity:1;stroke-opacity:0.3" />
<rect x="655" y="9" width="44" height="5" style="fill:#53a1b5;stroke:black;stroke-width:1;fill-opacity:1;stroke-opacity:0.3" />
<rect x="774" y="9" width="5" height="5" style="fill:#53a1b5;stroke:black;stroke-width:1;fill-opacity:1;stroke-opacity:0.3" />
<rect x="781" y="9" width="154" height="5" style="fill:#f50002;stroke:black;stroke-width:1;fill-opacity:1;stroke-opacity:0.3" />
<text x="63"  y="23" style="font-family:Arial;font-size:10;stroke:black;fill:black;">Cre06.g279100.t1.2.v5.5 (-) chromosome_6:4887160-4888531</text>
<line x1="127" y1="30" x2="131" y2="32" stroke="black" stroke-width="1" />
<line x1="131" y1="32" x2="136" y2="30" stroke="black" stroke-width="1" />
<rect x="63" y="28" width="63" height="5" style="fill:#f5b024;stroke:black;stroke-width:1;fill-opacity:1;stroke-opacity:0.3" />
<rect x="136" y="28" width="63" height="5" style="fill:#f5b024;stroke:black;stroke-width:1;fill-opacity:1;stroke-opacity:0.3" />
<line x1="127" y1="37" x2="178" y2="39" stroke="black" stroke-width="1" />
<line x1="178" y1="39" x2="230" y2="37" stroke="black" stroke-width="1" />
<rect x="64" y="35" width="62" height="5" style="fill:#f5b024;stroke:black;stroke-width:1;fill-opacity:1;stroke-opacity:0.3" />
<rect x="230" y="35" width="63" height="5" style="fill:#f5b024;stroke:black;stroke-width:1;fill-opacity:1;stroke-opacity:0.3" />
<line x1="159" y1="44" x2="167" y2="46" stroke="black" stroke-width="1" />
<line x1="167" y1="46" x2="175" y2="44" stroke="black" stroke-width="1" />
<rect x="64" y="42" width="95" height="5" style="fill:#5d3c2d;stroke:black;stroke-width:1;fill-opacity:1;stroke-opacity:0.3" />
<rect x="175" y="42" width="95" height="5" style="fill:#5d3c2d;stroke:black;stroke-width:1;fill-opacity:1;stroke-opacity:0.3" />
<line x1="127" y1="51" x2="136" y2="53" stroke="black" stroke-width="1" />
<line x1="136" y1="53" x2="145" y2="51" stroke="black" stroke-width="1" />
<rect x="64" y="49" width="62" height="5" style="fill:#f5b024;stroke:black;stroke-width:1;fill-opacity:1;stroke-opacity:0.3" />
<rect x="145" y="49" width="63" height="5" style="fill:#f5b024;stroke:black;stroke-width:1;fill-opacity:1;stroke-opacity:0.3" />
<line x1="127" y1="58" x2="132" y2="60" stroke="black" stroke-width="1" />
<line x1="132" y1="60" x2="137" y2="58" stroke="black" stroke-width="1" />
<rect x="64" y="56" width="63" height="5" style="fill:#f5b024;stroke:black;stroke-width:1;fill-opacity:1;stroke-opacity:0.3" />
<rect x="137" y="56" width="63" height="5" style="fill:#f5b024;stroke:black;stroke-width:1;fill-opacity:1;stroke-opacity:0.3" />
<line x1="127" y1="65" x2="135" y2="67" stroke="black" stroke-width="1" />
<line x1="135" y1="67" x2="143" y2="65" stroke="black" stroke-width="1" />
<rect x="64" y="63" width="63" height="5" style="fill:#f5b024;stroke:black;stroke-width:1;fill-opacity:1;stroke-opacity:0.3" />
<rect x="143" y="63" width="63" height="5" style="fill:#f5b024;stroke:black;stroke-width:1;fill-opacity:1;stroke-opacity:0.3" />
<line x1="127" y1="72" x2="136" y2="74" stroke="black" stroke-width="1" />
<line x1="136" y1="74" x2="145" y2="72" stroke="black" stroke-width="1" />
<rect x="64" y="70" width="62" height="5" style="fill:#f5b024;stroke:black;stroke-width:1;fill-opacity:1;stroke-opacity:0.3" />
<rect x="145" y="70" width="63" height="5" style="fill:#f5b024;stroke:black;stroke-width:1;fill-opacity:1;stroke-opacity:0.3" />
<line x1="127" y1="79" x2="150" y2="81" stroke="black" stroke-width="1" />
<line x1="150" y1="81" x2="173" y2="79" stroke="black" stroke-width="1" />
<rect x="64" y="77" width="62" height="5" style="fill:#f5b024;stroke:black;stroke-width:1;fill-opacity:1;stroke-opacity:0.3" />
<rect x="173" y="77" width="63" height="5" style="fill:#f5b024;stroke:black;stroke-width:1;fill-opacity:1;stroke-opacity:0.3" />
<line x1="127" y1="86" x2="135" y2="88" stroke="black" stroke-width="1" />
<line x1="135" y1="88" x2="143" y2="86" stroke="black" stroke-width="1" />
<rect x="64" y="84" width="62" height="5" style="fill:#f5b024;stroke:black;stroke-width:1;fill-opacity:1;stroke-opacity:0.3" />
<rect x="143" y="84" width="63" height="5" style="fill:#f5b024;stroke:black;stroke-width:1;fill-opacity:1;stroke-opacity:0.3" />
<line x1="127" y1="93" x2="136" y2="95" stroke="black" stroke-width="1" />
<line x1="136" y1="95" x2="145" y2="93" stroke="black" stroke-width="1" />
<rect x="64" y="91" width="62" height="5" style="fill:#f5b024;stroke:black;stroke-width:1;fill-opacity:1;stroke-opacity:0.3" />
<rect x="145" y="91" width="63" height="5" style="fill:#f5b024;stroke:black;stroke-width:1;fill-opacity:1;stroke-opacity:0.3" />
<line x1="127" y1="100" x2="131" y2="102" stroke="black" stroke-width="1" />
<line x1="131" y1="102" x2="136" y2="100" stroke="black" stroke-width="1" />
<rect x="64" y="98" width="62" height="5" style="fill:#f5b024;stroke:black;stroke-width:1;fill-opacity:1;stroke-opacity:0.3" />
<rect x="136" y="98" width="63" height="5" style="fill:#f5b024;stroke:black;stroke-width:1;fill-opacity:1;stroke-opacity:0.3" />
<line x1="127" y1="107" x2="136" y2="109" stroke="black" stroke-width="1" />
<line x1="136" y1="109" x2="146" y2="107" stroke="black" stroke-width="1" />
<rect x="64" y="105" width="63" height="5" style="fill:#f5b024;stroke:black;stroke-width:1;fill-opacity:1;stroke-opacity:0.3" />
<rect x="146" y="105" width="63" height="5" style="fill:#f5b024;stroke:black;stroke-width:1;fill-opacity:1;stroke-opacity:0.3" />
<line x1="127" y1="114" x2="130" y2="116" stroke="black" stroke-width="1" />
<line x1="130" y1="116" x2="134" y2="114" stroke="black" stroke-width="1" />
<rect x="64" y="112" width="62" height="5" style="fill:#5d3c2d;stroke:black;stroke-width:1;fill-opacity:1;stroke-opacity:0.3" />
<rect x="134" y="112" width="59" height="5" style="fill:#5d3c2d;stroke:black;stroke-width:1;fill-opacity:1;stroke-opacity:0.3" />
<line x1="127" y1="121" x2="144" y2="123" stroke="black" stroke-width="1" />
<line x1="144" y1="123" x2="162" y2="121" stroke="black" stroke-width="1" />
<rect x="64" y="119" width="62" height="5" style="fill:#f5b024;stroke:black;stroke-width:1;fill-opacity:1;stroke-opacity:0.3" />
<rect x="162" y="119" width="63" height="5" style="fill:#f5b024;stroke:black;stroke-width:1;fill-opacity:1;stroke-opacity:0.3" />
<line x1="127" y1="128" x2="136" y2="130" stroke="black" stroke-width="1" />
<line x1="136" y1="130" x2="145" y2="128" stroke="black" stroke-width="1" />
<rect x="64" y="126" width="62" height="5" style="fill:#f5b024;stroke:black;stroke-width:1;fill-opacity:1;stroke-opacity:0.3" />
<rect x="145" y="126" width="63" height="5" style="fill:#f5b024;stroke:black;stroke-width:1;fill-opacity:1;stroke-opacity:0.3" />
<line x1="128" y1="135" x2="133" y2="137" stroke="black" stroke-width="1" />
<line x1="133" y1="137" x2="139" y2="135" stroke="black" stroke-width="1" />
<rect x="64" y="133" width="63" height="5" style="fill:#f5b024;stroke:black;stroke-width:1;fill-opacity:1;stroke-opacity:0.3" />
<rect x="139" y="133" width="63" height="5" style="fill:#f5b024;stroke:black;stroke-width:1;fill-opacity:1;stroke-opacity:0.3" />
<line x1="128" y1="142" x2="137" y2="144" stroke="black" stroke-width="1" />
<line x1="137" y1="144" x2="146" y2="142" stroke="black" stroke-width="1" />
<rect x="64" y="140" width="63" height="5" style="fill:#f5b024;stroke:black;stroke-width:1;fill-opacity:1;stroke-opacity:0.3" />
<rect x="146" y="140" width="63" height="5" style="fill:#f5b024;stroke:black;stroke-width:1;fill-opacity:1;stroke-opacity:0.3" />
<line x1="128" y1="149" x2="139" y2="151" stroke="black" stroke-width="1" />
<line x1="139" y1="151" x2="150" y2="149" stroke="black" stroke-width="1" />
<rect x="64" y="147" width="63" height="5" style="fill:#f5b024;stroke:black;stroke-width:1;fill-opacity:1;stroke-opacity:0.3" />
<rect x="150" y="147" width="63" height="5" style="fill:#f5b024;stroke:black;stroke-width:1;fill-opacity:1;stroke-opacity:0.3" />
<line x1="128" y1="156" x2="140" y2="158" stroke="black" stroke-width="1" />
<line x1="140" y1="158" x2="153" y2="156" stroke="black" stroke-width="1" />
<rect x="64" y="154" width="63" height="5" style="fill:#f5b024;stroke:black;stroke-width:1;fill-opacity:1;stroke-opacity:0.3" />
<rect x="153" y="154" width="63" height="5" style="fill:#f5b024;stroke:black;stroke-width:1;fill-opacity:1;stroke-opacity:0.3" />
<line x1="128" y1="163" x2="132" y2="165" stroke="black" stroke-width="1" />
<line x1="132" y1="165" x2="136" y2="163" stroke="black" stroke-width="1" />
<rect x="64" y="161" width="63" height="5" style="fill:#f5b024;stroke:black;stroke-width:1;fill-opacity:1;stroke-opacity:0.3" />
<rect x="136" y="161" width="63" height="5" style="fill:#f5b024;stroke:black;stroke-width:1;fill-opacity:1;stroke-opacity:0.3" />
<line x1="255" y1="114" x2="261" y2="116" stroke="black" stroke-width="1" />
<line x1="261" y1="116" x2="267" y2="114" stroke="black" stroke-width="1" />
<rect x="194" y="112" width="61" height="5" style="fill:#f5b024;stroke:black;stroke-width:1;fill-opacity:1;stroke-opacity:0.3" />
<rect x="267" y="112" width="63" height="5" style="fill:#f5b024;stroke:black;stroke-width:1;fill-opacity:1;stroke-opacity:0.3" />
<line x1="267" y1="30" x2="280" y2="32" stroke="black" stroke-width="1" />
<line x1="280" y1="32" x2="294" y2="30" stroke="black" stroke-width="1" />
<rect x="203" y="28" width="63" height="5" style="fill:#f5b024;stroke:black;stroke-width:1;fill-opacity:1;stroke-opacity:0.3" />
<rect x="294" y="28" width="63" height="5" style="fill:#f5b024;stroke:black;stroke-width:1;fill-opacity:1;stroke-opacity:0.3" />
<line x1="267" y1="58" x2="286" y2="60" stroke="black" stroke-width="1" />
<line x1="286" y1="60" x2="305" y2="58" stroke="black" stroke-width="1" />
<rect x="203" y="56" width="63" height="5" style="fill:#f5b024;stroke:black;stroke-width:1;fill-opacity:1;stroke-opacity:0.3" />
<rect x="305" y="56" width="63" height="5" style="fill:#f5b024;stroke:black;stroke-width:1;fill-opacity:1;stroke-opacity:0.3" />
<line x1="267" y1="100" x2="274" y2="102" stroke="black" stroke-width="1" />
<line x1="274" y1="102" x2="281" y2="100" stroke="black" stroke-width="1" />
<rect x="204" y="98" width="63" height="5" style="fill:#f5b024;stroke:black;stroke-width:1;fill-opacity:1;stroke-opacity:0.3" />
<rect x="281" y="98" width="63" height="5" style="fill:#f5b024;stroke:black;stroke-width:1;fill-opacity:1;stroke-opacity:0.3" />
<line x1="269" y1="135" x2="278" y2="137" stroke="black" stroke-width="1" />
<line x1="278" y1="137" x2="287" y2="135" stroke="black" stroke-width="1" />
<rect x="205" y="133" width="63" height="5" style="fill:#f5b024;stroke:black;stroke-width:1;fill-opacity:1;stroke-opacity:0.3" />
<rect x="287" y="133" width="63" height="5" style="fill:#f5b024;stroke:black;stroke-width:1;fill-opacity:1;stroke-opacity:0.3" />
<line x1="269" y1="163" x2="303" y2="165" stroke="black" stroke-width="1" />
<line x1="303" y1="165" x2="337" y2="163" stroke="black" stroke-width="1" />
<rect x="205" y="161" width="63" height="5" style="fill:#f5b024;stroke:black;stroke-width:1;fill-opacity:1;stroke-opacity:0.3" />
<rect x="337" y="161" width="63" height="5" style="fill:#f5b024;stroke:black;stroke-width:1;fill-opacity:1;stroke-opacity:0.3" />
<line x1="268" y1="65" x2="274" y2="67" stroke="black" stroke-width="1" />
<line x1="274" y1="67" x2="281" y2="65" stroke="black" stroke-width="1" />
<rect x="207" y="63" width="61" height="5" style="fill:#f5b024;stroke:black;stroke-width:1;fill-opacity:1;stroke-opacity:0.3" />
<rect x="281" y="63" width="63" height="5" style="fill:#f5b024;stroke:black;stroke-width:1;fill-opacity:1;stroke-opacity:0.3" />
<line x1="270" y1="86" x2="292" y2="88" stroke="black" stroke-width="1" />
<line x1="292" y1="88" x2="314" y2="86" stroke="black" stroke-width="1" />
<rect x="208" y="84" width="62" height="5" style="fill:#f5b024;stroke:black;stroke-width:1;fill-opacity:1;stroke-opacity:0.3" />
<rect x="314" y="84" width="63" height="5" style="fill:#f5b024;stroke:black;stroke-width:1;fill-opacity:1;stroke-opacity:0.3" />
<line x1="271" y1="51" x2="301" y2="53" stroke="black" stroke-width="1" />
<line x1="301" y1="53" x2="331" y2="51" stroke="black" stroke-width="1" />
<rect x="209" y="49" width="62" height="5" style="fill:#f5b024;stroke:black;stroke-width:1;fill-opacity:1;stroke-opacity:0.3" />
<rect x="331" y="49" width="63" height="5" style="fill:#f5b024;stroke:black;stroke-width:1;fill-opacity:1;stroke-opacity:0.3" />
<line x1="273" y1="72" x2="287" y2="74" stroke="black" stroke-width="1" />
<line x1="287" y1="74" x2="302" y2="72" stroke="black" stroke-width="1" />
<rect x="209" y="70" width="63" height="5" style="fill:#f5b024;stroke:black;stroke-width:1;fill-opacity:1;stroke-opacity:0.3" />
<rect x="302" y="70" width="63" height="5" style="fill:#f5b024;stroke:black;stroke-width:1;fill-opacity:1;stroke-opacity:0.3" />
<line x1="273" y1="93" x2="276" y2="95" stroke="black" stroke-width="1" />
<line x1="276" y1="95" x2="279" y2="93" stroke="black" stroke-width="1" />
<rect x="209" y="91" width="63" height="5" style="fill:#f5b024;stroke:black;stroke-width:1;fill-opacity:1;stroke-opacity:0.3" />
<rect x="279" y="91" width="63" height="5" style="fill:#f5b024;stroke:black;stroke-width:1;fill-opacity:1;stroke-opacity:0.3" />
<line x1="273" y1="107" x2="276" y2="109" stroke="black" stroke-width="1" />
<line x1="276" y1="109" x2="280" y2="107" stroke="black" stroke-width="1" />
<rect x="209" y="105" width="63" height="5" style="fill:#f5b024;stroke:black;stroke-width:1;fill-opacity:1;stroke-opacity:0.3" />
<rect x="280" y="105" width="63" height="5" style="fill:#f5b024;stroke:black;stroke-width:1;fill-opacity:1;stroke-opacity:0.3" />
<line x1="273" y1="128" x2="289" y2="130" stroke="black" stroke-width="1" />
<line x1="289" y1="130" x2="305" y2="128" stroke="black" stroke-width="1" />
<rect x="209" y="126" width="63" height="5" style="fill:#f5b024;stroke:black;stroke-width:1;fill-opacity:1;stroke-opacity:0.3" />
<rect x="305" y="126" width="63" height="5" style="fill:#f5b024;stroke:black;stroke-width:1;fill-opacity:1;stroke-opacity:0.3" />
<line x1="272" y1="142" x2="281" y2="144" stroke="black" stroke-width="1" />
<line x1="281" y1="144" x2="291" y2="142" stroke="black" stroke-width="1" />
<rect x="209" y="140" width="62" height="5" style="fill:#f5b024;stroke:black;stroke-width:1;fill-opacity:1;stroke-opacity:0.3" />
<rect x="291" y="140" width="63" height="5" style="fill:#f5b024;stroke:black;stroke-width:1;fill-opacity:1;stroke-opacity:0.3" />
<line x1="279" y1="149" x2="286" y2="151" stroke="black" stroke-width="1" />
<line x1="286" y1="151" x2="293" y2="149" stroke="black" stroke-width="1" />
<rect x="216" y="147" width="63" height="5" style="fill:#f5b024;stroke:black;stroke-width:1;fill-opacity:1;stroke-opacity:0.3" />
<rect x="293" y="147" width="63" height="5" style="fill:#f5b024;stroke:black;stroke-width:1;fill-opacity:1;stroke-opacity:0.3" />
<line x1="280" y1="156" x2="298" y2="158" stroke="black" stroke-width="1" />
<line x1="298" y1="158" x2="316" y2="156" stroke="black" stroke-width="1" />
<rect x="216" y="154" width="63" height="5" style="fill:#f5b024;stroke:black;stroke-width:1;fill-opacity:1;stroke-opacity:0.3" />
<rect x="316" y="154" width="63" height="5" style="fill:#f5b024;stroke:black;stroke-width:1;fill-opacity:1;stroke-opacity:0.3" />
<line x1="290" y1="121" x2="302" y2="123" stroke="black" stroke-width="1" />
<line x1="302" y1="123" x2="315" y2="121" stroke="black" stroke-width="1" />
<rect x="226" y="119" width="63" height="5" style="fill:#f5b024;stroke:black;stroke-width:1;fill-opacity:1;stroke-opacity:0.3" />
<rect x="315" y="119" width="63" height="5" style="fill:#f5b024;stroke:black;stroke-width:1;fill-opacity:1;stroke-opacity:0.3" />
<line x1="302" y1="79" x2="320" y2="81" stroke="black" stroke-width="1" />
<line x1="320" y1="81" x2="338" y2="79" stroke="black" stroke-width="1" />
<rect x="238" y="77" width="63" height="5" style="fill:#f5b024;stroke:black;stroke-width:1;fill-opacity:1;stroke-opacity:0.3" />
<rect x="338" y="77" width="63" height="5" style="fill:#f5b024;stroke:black;stroke-width:1;fill-opacity:1;stroke-opacity:0.3" />
<line x1="336" y1="44" x2="339" y2="46" stroke="black" stroke-width="1" />
<line x1="339" y1="46" x2="342" y2="44" stroke="black" stroke-width="1" />
<rect x="272" y="42" width="63" height="5" style="fill:#f5b024;stroke:black;stroke-width:1;fill-opacity:1;stroke-opacity:0.3" />
<rect x="342" y="42" width="63" height="5" style="fill:#f5b024;stroke:black;stroke-width:1;fill-opacity:1;stroke-opacity:0.3" />
<line x1="357" y1="37" x2="365" y2="39" stroke="black" stroke-width="1" />
<line x1="365" y1="39" x2="374" y2="37" stroke="black" stroke-width="1" />
<rect x="294" y="35" width="40" height="5" style="fill:#f5b024;stroke:black;stroke-width:1;fill-opacity:1;stroke-opacity:0.3" />
<rect x="335" y="35" width="22" height="5" style="fill:#f5b024;stroke:black;stroke-width:1;fill-opacity:1;stroke-opacity:0.3" />
<rect x="374" y="35" width="63" height="5" style="fill:#f5b024;stroke:black;stroke-width:1;fill-opacity:1;stroke-opacity:0.3" />
<line x1="386" y1="114" x2="402" y2="116" stroke="black" stroke-width="1" />
<line x1="402" y1="116" x2="419" y2="114" stroke="black" stroke-width="1" />
<rect x="333" y="112" width="53" height="5" style="fill:#f5b024;stroke:black;stroke-width:1;fill-opacity:1;stroke-opacity:0.3" />
<rect x="419" y="112" width="21" height="5" style="fill:#f5b024;stroke:black;stroke-width:1;fill-opacity:1;stroke-opacity:0.3" />
<line x1="441" y1="114" x2="545" y2="114" stroke="pink" stroke-width="1" />
<rect x="545" y="112" width="41" height="5" style="fill:#f5b024;stroke:black;stroke-width:1;fill-opacity:1;stroke-opacity:0.3" />
<line x1="409" y1="65" x2="416" y2="67" stroke="black" stroke-width="1" />
<line x1="416" y1="67" x2="423" y2="65" stroke="black" stroke-width="1" />
<rect x="345" y="63" width="63" height="5" style="fill:#f5b024;stroke:black;stroke-width:1;fill-opacity:1;stroke-opacity:0.3" />
<rect x="423" y="63" width="17" height="5" style="fill:#f5b024;stroke:black;stroke-width:1;fill-opacity:1;stroke-opacity:0.3" />
<line x1="441" y1="65" x2="545" y2="65" stroke="pink" stroke-width="1" />
<rect x="545" y="63" width="34" height="5" style="fill:#f5b024;stroke:black;stroke-width:1;fill-opacity:1;stroke-opacity:0.3" />
<line x1="440" y1="93" x2="493" y2="95" stroke="black" stroke-width="1" />
<line x1="493" y1="95" x2="546" y2="93" stroke="black" stroke-width="1" />
<rect x="345" y="91" width="95" height="5" style="fill:#f5b024;stroke:black;stroke-width:1;fill-opacity:1;stroke-opacity:0.3" />
<rect x="546" y="91" width="48" height="5" style="fill:#f5b024;stroke:black;stroke-width:1;fill-opacity:1;stroke-opacity:0.3" />
<line x1="595" y1="93" x2="655" y2="93" stroke="pink" stroke-width="1" />
<rect x="655" y="91" width="45" height="5" style="fill:#f5b024;stroke:black;stroke-width:1;fill-opacity:1;stroke-opacity:0.3" />
<line x1="701" y1="93" x2="774" y2="93" stroke="pink" stroke-width="1" />
<rect x="774" y="91" width="1" height="5" style="fill:#f5b024;stroke:black;stroke-width:1;fill-opacity:1;stroke-opacity:0.3" />
<line x1="409" y1="100" x2="416" y2="102" stroke="black" stroke-width="1" />
<line x1="416" y1="102" x2="424" y2="100" stroke="black" stroke-width="1" />
<rect x="346" y="98" width="63" height="5" style="fill:#f5b024;stroke:black;stroke-width:1;fill-opacity:1;stroke-opacity:0.3" />
<rect x="424" y="98" width="17" height="5" style="fill:#f5b024;stroke:black;stroke-width:1;fill-opacity:1;stroke-opacity:0.3" />
<line x1="441" y1="100" x2="545" y2="100" stroke="pink" stroke-width="1" />
<rect x="545" y="98" width="46" height="5" style="fill:#f5b024;stroke:black;stroke-width:1;fill-opacity:1;stroke-opacity:0.3" />
<line x1="409" y1="107" x2="482" y2="109" stroke="black" stroke-width="1" />
<line x1="482" y1="109" x2="555" y2="107" stroke="black" stroke-width="1" />
<rect x="346" y="105" width="63" height="5" style="fill:#f5b024;stroke:black;stroke-width:1;fill-opacity:1;stroke-opacity:0.3" />
<rect x="555" y="105" width="40" height="5" style="fill:#f5b024;stroke:black;stroke-width:1;fill-opacity:1;stroke-opacity:0.3" />
<line x1="595" y1="107" x2="655" y2="107" stroke="pink" stroke-width="1" />
<rect x="655" y="105" width="23" height="5" style="fill:#f5b024;stroke:black;stroke-width:1;fill-opacity:1;stroke-opacity:0.3" />
<line x1="415" y1="135" x2="485" y2="137" stroke="black" stroke-width="1" />
<line x1="485" y1="137" x2="555" y2="135" stroke="black" stroke-width="1" />
<rect x="351" y="133" width="63" height="5" style="fill:#f5b024;stroke:black;stroke-width:1;fill-opacity:1;stroke-opacity:0.3" />
<rect x="555" y="133" width="40" height="5" style="fill:#f5b024;stroke:black;stroke-width:1;fill-opacity:1;stroke-opacity:0.3" />
<line x1="595" y1="135" x2="655" y2="135" stroke="pink" stroke-width="1" />
<rect x="655" y="133" width="23" height="5" style="fill:#f5b024;stroke:black;stroke-width:1;fill-opacity:1;stroke-opacity:0.3" />
<line x1="419" y1="142" x2="426" y2="144" stroke="black" stroke-width="1" />
<line x1="426" y1="144" x2="433" y2="142" stroke="black" stroke-width="1" />
<rect x="356" y="140" width="63" height="5" style="fill:#f5b024;stroke:black;stroke-width:1;fill-opacity:1;stroke-opacity:0.3" />
<rect x="433" y="140" width="8" height="5" style="fill:#f5b024;stroke:black;stroke-width:1;fill-opacity:1;stroke-opacity:0.3" />
<line x1="441" y1="142" x2="545" y2="142" stroke="pink" stroke-width="1" />
<rect x="545" y="140" width="49" height="5" style="fill:#f5b024;stroke:black;stroke-width:1;fill-opacity:1;stroke-opacity:0.3" />
<line x1="595" y1="142" x2="655" y2="142" stroke="pink" stroke-width="1" />
<rect x="655" y="140" width="5" height="5" style="fill:#f5b024;stroke:black;stroke-width:1;fill-opacity:1;stroke-opacity:0.3" />
<line x1="422" y1="30" x2="493" y2="32" stroke="black" stroke-width="1" />
<line x1="493" y1="32" x2="564" y2="30" stroke="black" stroke-width="1" />
<rect x="358" y="28" width="63" height="5" style="fill:#f5b024;stroke:black;stroke-width:1;fill-opacity:1;stroke-opacity:0.3" />
<rect x="564" y="28" width="30" height="5" style="fill:#f5b024;stroke:black;stroke-width:1;fill-opacity:1;stroke-opacity:0.3" />
<line x1="595" y1="30" x2="655" y2="30" stroke="pink" stroke-width="1" />
<rect x="655" y="28" width="33" height="5" style="fill:#f5b024;stroke:black;stroke-width:1;fill-opacity:1;stroke-opacity:0.3" />
<line x1="423" y1="149" x2="427" y2="151" stroke="black" stroke-width="1" />
<line x1="427" y1="151" x2="432" y2="149" stroke="black" stroke-width="1" />
<rect x="360" y="147" width="63" height="5" style="fill:#f5b024;stroke:black;stroke-width:1;fill-opacity:1;stroke-opacity:0.3" />
<rect x="432" y="147" width="8" height="5" style="fill:#f5b024;stroke:black;stroke-width:1;fill-opacity:1;stroke-opacity:0.3" />
<line x1="441" y1="149" x2="545" y2="149" stroke="pink" stroke-width="1" />
<rect x="545" y="147" width="49" height="5" style="fill:#f5b024;stroke:black;stroke-width:1;fill-opacity:1;stroke-opacity:0.3" />
<line x1="595" y1="149" x2="655" y2="149" stroke="pink" stroke-width="1" />
<rect x="655" y="147" width="5" height="5" style="fill:#f5b024;stroke:black;stroke-width:1;fill-opacity:1;stroke-opacity:0.3" />
<line x1="430" y1="72" x2="492" y2="74" stroke="black" stroke-width="1" />
<line x1="492" y1="74" x2="554" y2="72" stroke="black" stroke-width="1" />
<rect x="367" y="70" width="63" height="5" style="fill:#f5b024;stroke:black;stroke-width:1;fill-opacity:1;stroke-opacity:0.3" />
<rect x="554" y="70" width="41" height="5" style="fill:#f5b024;stroke:black;stroke-width:1;fill-opacity:1;stroke-opacity:0.3" />
<line x1="595" y1="72" x2="655" y2="72" stroke="pink" stroke-width="1" />
<rect x="655" y="70" width="22" height="5" style="fill:#f5b024;stroke:black;stroke-width:1;fill-opacity:1;stroke-opacity:0.3" />
<line x1="433" y1="58" x2="489" y2="60" stroke="black" stroke-width="1" />
<line x1="489" y1="60" x2="545" y2="58" stroke="black" stroke-width="1" />
<rect x="369" y="56" width="63" height="5" style="fill:#f5b024;stroke:black;stroke-width:1;fill-opacity:1;stroke-opacity:0.3" />
<rect x="545" y="56" width="49" height="5" style="fill:#f5b024;stroke:black;stroke-width:1;fill-opacity:1;stroke-opacity:0.3" />
<line x1="595" y1="58" x2="655" y2="58" stroke="pink" stroke-width="1" />
<rect x="655" y="56" width="13" height="5" style="fill:#f5b024;stroke:black;stroke-width:1;fill-opacity:1;stroke-opacity:0.3" />
<line x1="568" y1="128" x2="612" y2="130" stroke="black" stroke-width="1" />
<line x1="612" y1="130" x2="656" y2="128" stroke="black" stroke-width="1" />
<rect x="369" y="126" width="71" height="5" style="fill:#f5b024;stroke:black;stroke-width:1;fill-opacity:1;stroke-opacity:0.3" />
<line x1="441" y1="128" x2="545" y2="128" stroke="pink" stroke-width="1" />
<rect x="545" y="126" width="22" height="5" style="fill:#f5b024;stroke:black;stroke-width:1;fill-opacity:1;stroke-opacity:0.3" />
<rect x="656" y="126" width="44" height="5" style="fill:#f5b024;stroke:black;stroke-width:1;fill-opacity:1;stroke-opacity:0.3" />
<line x1="701" y1="128" x2="774" y2="128" stroke="pink" stroke-width="1" />
<rect x="774" y="126" width="50" height="5" style="fill:#f5b024;stroke:black;stroke-width:1;fill-opacity:1;stroke-opacity:0.3" />
<line x1="556" y1="86" x2="566" y2="88" stroke="black" stroke-width="1" />
<line x1="566" y1="88" x2="576" y2="86" stroke="black" stroke-width="1" />
<rect x="388" y="84" width="52" height="5" style="fill:#f5b024;stroke:black;stroke-width:1;fill-opacity:1;stroke-opacity:0.3" />
<line x1="441" y1="86" x2="545" y2="86" stroke="pink" stroke-width="1" />
<rect x="545" y="84" width="10" height="5" style="fill:#f5b024;stroke:black;stroke-width:1;fill-opacity:1;stroke-opacity:0.3" />
<rect x="576" y="84" width="19" height="5" style="fill:#f5b024;stroke:black;stroke-width:1;fill-opacity:1;stroke-opacity:0.3" />
<line x1="595" y1="86" x2="655" y2="86" stroke="pink" stroke-width="1" />
<rect x="655" y="84" width="44" height="5" style="fill:#f5b024;stroke:black;stroke-width:1;fill-opacity:1;stroke-opacity:0.3" />
<line x1="556" y1="121" x2="561" y2="123" stroke="black" stroke-width="1" />
<line x1="561" y1="123" x2="566" y2="121" stroke="black" stroke-width="1" />
<rect x="388" y="119" width="52" height="5" style="fill:#f5b024;stroke:black;stroke-width:1;fill-opacity:1;stroke-opacity:0.3" />
<line x1="441" y1="121" x2="545" y2="121" stroke="pink" stroke-width="1" />
<rect x="545" y="119" width="10" height="5" style="fill:#f5b024;stroke:black;stroke-width:1;fill-opacity:1;stroke-opacity:0.3" />
<rect x="566" y="119" width="28" height="5" style="fill:#f5b024;stroke:black;stroke-width:1;fill-opacity:1;stroke-opacity:0.3" />
<line x1="595" y1="121" x2="655" y2="121" stroke="pink" stroke-width="1" />
<rect x="655" y="119" width="34" height="5" style="fill:#f5b024;stroke:black;stroke-width:1;fill-opacity:1;stroke-opacity:0.3" />
<line x1="557" y1="156" x2="574" y2="158" stroke="black" stroke-width="1" />
<line x1="574" y1="158" x2="592" y2="156" stroke="black" stroke-width="1" />
<rect x="389" y="154" width="52" height="5" style="fill:#f5b024;stroke:black;stroke-width:1;fill-opacity:1;stroke-opacity:0.3" />
<line x1="441" y1="156" x2="545" y2="156" stroke="pink" stroke-width="1" />
<rect x="545" y="154" width="11" height="5" style="fill:#f5b024;stroke:black;stroke-width:1;fill-opacity:1;stroke-opacity:0.3" />
<rect x="592" y="154" width="2" height="5" style="fill:#f5b024;stroke:black;stroke-width:1;fill-opacity:1;stroke-opacity:0.3" />
<line x1="595" y1="156" x2="655" y2="156" stroke="pink" stroke-width="1" />
<rect x="655" y="154" width="45" height="5" style="fill:#f5b024;stroke:black;stroke-width:1;fill-opacity:1;stroke-opacity:0.3" />
<line x1="701" y1="156" x2="774" y2="156" stroke="pink" stroke-width="1" />
<rect x="774" y="154" width="15" height="5" style="fill:#f5b024;stroke:black;stroke-width:1;fill-opacity:1;stroke-opacity:0.3" />
<line x1="562" y1="51" x2="569" y2="53" stroke="black" stroke-width="1" />
<line x1="569" y1="53" x2="576" y2="51" stroke="black" stroke-width="1" />
<rect x="395" y="49" width="46" height="5" style="fill:#f5b024;stroke:black;stroke-width:1;fill-opacity:1;stroke-opacity:0.3" />
<line x1="441" y1="51" x2="545" y2="51" stroke="pink" stroke-width="1" />
<rect x="545" y="49" width="17" height="5" style="fill:#f5b024;stroke:black;stroke-width:1;fill-opacity:1;stroke-opacity:0.3" />
<rect x="576" y="49" width="18" height="5" style="fill:#f5b024;stroke:black;stroke-width:1;fill-opacity:1;stroke-opacity:0.3" />
<line x1="595" y1="51" x2="655" y2="51" stroke="pink" stroke-width="1" />
<rect x="655" y="49" width="45" height="5" style="fill:#f5b024;stroke:black;stroke-width:1;fill-opacity:1;stroke-opacity:0.3" />
<line x1="569" y1="163" x2="573" y2="165" stroke="black" stroke-width="1" />
<line x1="573" y1="165" x2="578" y2="163" stroke="black" stroke-width="1" />
<rect x="401" y="161" width="40" height="5" style="fill:#f5b024;stroke:black;stroke-width:1;fill-opacity:1;stroke-opacity:0.3" />
<line x1="441" y1="163" x2="545" y2="163" stroke="pink" stroke-width="1" />
<rect x="545" y="161" width="23" height="5" style="fill:#f5b024;stroke:black;stroke-width:1;fill-opacity:1;stroke-opacity:0.3" />
<rect x="578" y="161" width="16" height="5" style="fill:#f5b024;stroke:black;stroke-width:1;fill-opacity:1;stroke-opacity:0.3" />
<line x1="595" y1="163" x2="655" y2="163" stroke="pink" stroke-width="1" />
<rect x="655" y="161" width="45" height="5" style="fill:#f5b024;stroke:black;stroke-width:1;fill-opacity:1;stroke-opacity:0.3" />
<line x1="701" y1="163" x2="774" y2="163" stroke="pink" stroke-width="1" />
<rect x="774" y="161" width="1" height="5" style="fill:#f5b024;stroke:black;stroke-width:1;fill-opacity:1;stroke-opacity:0.3" />
<line x1="467" y1="79" x2="479" y2="81" stroke="black" stroke-width="1" />
<line x1="479" y1="81" x2="492" y2="79" stroke="black" stroke-width="1" />
<rect x="403" y="77" width="63" height="5" style="fill:#f5b024;stroke:black;stroke-width:1;fill-opacity:1;stroke-opacity:0.3" />
<rect x="492" y="77" width="63" height="5" style="fill:#f5b024;stroke:black;stroke-width:1;fill-opacity:1;stroke-opacity:0.3" />
<line x1="574" y1="44" x2="578" y2="46" stroke="black" stroke-width="1" />
<line x1="578" y1="46" x2="583" y2="44" stroke="black" stroke-width="1" />
<rect x="406" y="42" width="34" height="5" style="fill:#f5b024;stroke:black;stroke-width:1;fill-opacity:1;stroke-opacity:0.3" />
<line x1="441" y1="44" x2="545" y2="44" stroke="pink" stroke-width="1" />
<rect x="545" y="42" width="28" height="5" style="fill:#f5b024;stroke:black;stroke-width:1;fill-opacity:1;stroke-opacity:0.3" />
<rect x="583" y="42" width="11" height="5" style="fill:#f5b024;stroke:black;stroke-width:1;fill-opacity:1;stroke-opacity:0.3" />
<line x1="595" y1="44" x2="655" y2="44" stroke="pink" stroke-width="1" />
<rect x="655" y="42" width="45" height="5" style="fill:#f5b024;stroke:black;stroke-width:1;fill-opacity:1;stroke-opacity:0.3" />
<line x1="701" y1="44" x2="774" y2="44" stroke="pink" stroke-width="1" />
<rect x="774" y="42" width="6" height="5" style="fill:#f5b024;stroke:black;stroke-width:1;fill-opacity:1;stroke-opacity:0.3" />
<line x1="666" y1="37" x2="669" y2="39" stroke="black" stroke-width="1" />
<line x1="669" y1="39" x2="673" y2="37" stroke="black" stroke-width="1" />
<rect x="438" y="35" width="3" height="5" style="fill:#f5b024;stroke:black;stroke-width:1;fill-opacity:1;stroke-opacity:0.3" />
<line x1="441" y1="37" x2="545" y2="37" stroke="pink" stroke-width="1" />
<rect x="545" y="35" width="49" height="5" style="fill:#f5b024;stroke:black;stroke-width:1;fill-opacity:1;stroke-opacity:0.3" />
<line x1="595" y1="37" x2="655" y2="37" stroke="pink" stroke-width="1" />
<rect x="655" y="35" width="10" height="5" style="fill:#f5b024;stroke:black;stroke-width:1;fill-opacity:1;stroke-opacity:0.3" />
<rect x="673" y="35" width="27" height="5" style="fill:#f5b024;stroke:black;stroke-width:1;fill-opacity:1;stroke-opacity:0.3" />
<line x1="701" y1="37" x2="774" y2="37" stroke="pink" stroke-width="1" />
<rect x="774" y="35" width="35" height="5" style="fill:#f5b024;stroke:black;stroke-width:1;fill-opacity:1;stroke-opacity:0.3" />
<line x1="680" y1="79" x2="683" y2="81" stroke="black" stroke-width="1" />
<line x1="683" y1="81" x2="687" y2="79" stroke="black" stroke-width="1" />
<rect x="555" y="77" width="39" height="5" style="fill:#f5b024;stroke:black;stroke-width:1;fill-opacity:1;stroke-opacity:0.3" />
<line x1="595" y1="79" x2="655" y2="79" stroke="pink" stroke-width="1" />
<rect x="655" y="77" width="24" height="5" style="fill:#f5b024;stroke:black;stroke-width:1;fill-opacity:1;stroke-opacity:0.3" />
<rect x="687" y="77" width="13" height="5" style="fill:#f5b024;stroke:black;stroke-width:1;fill-opacity:1;stroke-opacity:0.3" />
<line x1="701" y1="79" x2="774" y2="79" stroke="pink" stroke-width="1" />
<rect x="774" y="77" width="49" height="5" style="fill:#f5b024;stroke:black;stroke-width:1;fill-opacity:1;stroke-opacity:0.3" />
<line x1="802" y1="65" x2="819" y2="67" stroke="black" stroke-width="1" />
<line x1="819" y1="67" x2="836" y2="65" stroke="black" stroke-width="1" />
<rect x="581" y="63" width="13" height="5" style="fill:#f5b024;stroke:black;stroke-width:1;fill-opacity:1;stroke-opacity:0.3" />
<line x1="595" y1="65" x2="655" y2="65" stroke="pink" stroke-width="1" />
<rect x="655" y="63" width="45" height="5" style="fill:#f5b024;stroke:black;stroke-width:1;fill-opacity:1;stroke-opacity:0.3" />
<line x1="701" y1="65" x2="774" y2="65" stroke="pink" stroke-width="1" />
<rect x="774" y="63" width="27" height="5" style="fill:#f5b024;stroke:black;stroke-width:1;fill-opacity:1;stroke-opacity:0.3" />
<rect x="836" y="63" width="92" height="5" style="fill:#f5b024;stroke:black;stroke-width:1;fill-opacity:1;stroke-opacity:0.3" />
<line x1="786" y1="114" x2="791" y2="116" stroke="black" stroke-width="1" />
<line x1="791" y1="116" x2="796" y2="114" stroke="black" stroke-width="1" />
<rect x="588" y="112" width="6" height="5" style="fill:#f5b024;stroke:black;stroke-width:1;fill-opacity:1;stroke-opacity:0.3" />
<line x1="595" y1="114" x2="655" y2="114" stroke="pink" stroke-width="1" />
<rect x="655" y="112" width="45" height="5" style="fill:#f5b024;stroke:black;stroke-width:1;fill-opacity:1;stroke-opacity:0.3" />
<line x1="701" y1="114" x2="774" y2="114" stroke="pink" stroke-width="1" />
<rect x="774" y="112" width="11" height="5" style="fill:#f5b024;stroke:black;stroke-width:1;fill-opacity:1;stroke-opacity:0.3" />
<rect x="796" y="112" width="63" height="5" style="fill:#f5b024;stroke:black;stroke-width:1;fill-opacity:1;stroke-opacity:0.3" />
<line x1="791" y1="100" x2="801" y2="102" stroke="black" stroke-width="1" />
<line x1="801" y1="102" x2="811" y2="100" stroke="black" stroke-width="1" />
<rect x="593" y="98" width="1" height="5" style="fill:#f5b024;stroke:black;stroke-width:1;fill-opacity:1;stroke-opacity:0.3" />
<line x1="595" y1="100" x2="655" y2="100" stroke="pink" stroke-width="1" />
<rect x="655" y="98" width="45" height="5" style="fill:#f5b024;stroke:black;stroke-width:1;fill-opacity:1;stroke-opacity:0.3" />
<line x1="701" y1="100" x2="774" y2="100" stroke="pink" stroke-width="1" />
<rect x="774" y="98" width="16" height="5" style="fill:#f5b024;stroke:black;stroke-width:1;fill-opacity:1;stroke-opacity:0.3" />
<rect x="811" y="98" width="63" height="5" style="fill:#f5b024;stroke:black;stroke-width:1;fill-opacity:1;stroke-opacity:0.3" />
<line x1="797" y1="149" x2="825" y2="151" stroke="black" stroke-width="1" />
<line x1="825" y1="151" x2="853" y2="149" stroke="black" stroke-width="1" />
<rect x="660" y="147" width="40" height="5" style="fill:#f5b024;stroke:black;stroke-width:1;fill-opacity:1;stroke-opacity:0.3" />
<line x1="701" y1="149" x2="774" y2="149" stroke="pink" stroke-width="1" />
<rect x="774" y="147" width="22" height="5" style="fill:#f5b024;stroke:black;stroke-width:1;fill-opacity:1;stroke-opacity:0.3" />
<rect x="853" y="147" width="63" height="5" style="fill:#f5b024;stroke:black;stroke-width:1;fill-opacity:1;stroke-opacity:0.3" />
<line x1="799" y1="142" x2="803" y2="144" stroke="black" stroke-width="1" />
<line x1="803" y1="144" x2="807" y2="142" stroke="black" stroke-width="1" />
<rect x="662" y="140" width="38" height="5" style="fill:#f5b024;stroke:black;stroke-width:1;fill-opacity:1;stroke-opacity:0.3" />
<line x1="701" y1="142" x2="774" y2="142" stroke="pink" stroke-width="1" />
<rect x="774" y="140" width="24" height="5" style="fill:#f5b024;stroke:black;stroke-width:1;fill-opacity:1;stroke-opacity:0.3" />
<rect x="807" y="140" width="63" height="5" style="fill:#f5b024;stroke:black;stroke-width:1;fill-opacity:1;stroke-opacity:0.3" />
<line x1="809" y1="58" x2="814" y2="60" stroke="black" stroke-width="1" />
<line x1="814" y1="60" x2="819" y2="58" stroke="black" stroke-width="1" />
<rect x="672" y="56" width="28" height="5" style="fill:#f5b024;stroke:black;stroke-width:1;fill-opacity:1;stroke-opacity:0.3" />
<line x1="701" y1="58" x2="774" y2="58" stroke="pink" stroke-width="1" />
<rect x="774" y="56" width="34" height="5" style="fill:#f5b024;stroke:black;stroke-width:1;fill-opacity:1;stroke-opacity:0.3" />
<rect x="819" y="56" width="63" height="5" style="fill:#f5b024;stroke:black;stroke-width:1;fill-opacity:1;stroke-opacity:0.3" />
<line x1="815" y1="72" x2="834" y2="74" stroke="black" stroke-width="1" />
<line x1="834" y1="74" x2="853" y2="72" stroke="black" stroke-width="1" />
<rect x="678" y="70" width="22" height="5" style="fill:#f5b024;stroke:black;stroke-width:1;fill-opacity:1;stroke-opacity:0.3" />
<line x1="701" y1="72" x2="774" y2="72" stroke="pink" stroke-width="1" />
<rect x="774" y="70" width="40" height="5" style="fill:#f5b024;stroke:black;stroke-width:1;fill-opacity:1;stroke-opacity:0.3" />
<rect x="853" y="70" width="63" height="5" style="fill:#f5b024;stroke:black;stroke-width:1;fill-opacity:1;stroke-opacity:0.3" />
<line x1="816" y1="107" x2="830" y2="109" stroke="black" stroke-width="1" />
<line x1="830" y1="109" x2="845" y2="107" stroke="black" stroke-width="1" />
<rect x="679" y="105" width="21" height="5" style="fill:#f5b024;stroke:black;stroke-width:1;fill-opacity:1;stroke-opacity:0.3" />
<line x1="701" y1="107" x2="774" y2="107" stroke="pink" stroke-width="1" />
<rect x="774" y="105" width="41" height="5" style="fill:#f5b024;stroke:black;stroke-width:1;fill-opacity:1;stroke-opacity:0.3" />
<rect x="845" y="105" width="63" height="5" style="fill:#f5b024;stroke:black;stroke-width:1;fill-opacity:1;stroke-opacity:0.3" />
<line x1="819" y1="135" x2="824" y2="137" stroke="black" stroke-width="1" />
<line x1="824" y1="137" x2="829" y2="135" stroke="black" stroke-width="1" />
<rect x="682" y="133" width="18" height="5" style="fill:#f5b024;stroke:black;stroke-width:1;fill-opacity:1;stroke-opacity:0.3" />
<line x1="701" y1="135" x2="774" y2="135" stroke="pink" stroke-width="1" />
<rect x="774" y="133" width="45" height="5" style="fill:#f5b024;stroke:black;stroke-width:1;fill-opacity:1;stroke-opacity:0.3" />
<rect x="829" y="133" width="63" height="5" style="fill:#f5b024;stroke:black;stroke-width:1;fill-opacity:1;stroke-opacity:0.3" />
<line x1="827" y1="30" x2="836" y2="32" stroke="black" stroke-width="1" />
<line x1="836" y1="32" x2="846" y2="30" stroke="black" stroke-width="1" />
<rect x="690" y="28" width="10" height="5" style="fill:#f5b024;stroke:black;stroke-width:1;fill-opacity:1;stroke-opacity:0.3" />
<line x1="701" y1="30" x2="774" y2="30" stroke="pink" stroke-width="1" />
<rect x="774" y="28" width="52" height="5" style="fill:#f5b024;stroke:black;stroke-width:1;fill-opacity:1;stroke-opacity:0.3" />
<rect x="846" y="28" width="63" height="5" style="fill:#f5b024;stroke:black;stroke-width:1;fill-opacity:1;stroke-opacity:0.3" />
<line x1="828" y1="121" x2="837" y2="123" stroke="black" stroke-width="1" />
<line x1="837" y1="123" x2="846" y2="121" stroke="black" stroke-width="1" />
<rect x="691" y="119" width="9" height="5" style="fill:#f5b024;stroke:black;stroke-width:1;fill-opacity:1;stroke-opacity:0.3" />
<line x1="701" y1="121" x2="774" y2="121" stroke="pink" stroke-width="1" />
<rect x="774" y="119" width="54" height="5" style="fill:#f5b024;stroke:black;stroke-width:1;fill-opacity:1;stroke-opacity:0.3" />
<rect x="846" y="119" width="63" height="5" style="fill:#f5b024;stroke:black;stroke-width:1;fill-opacity:1;stroke-opacity:0.3" />
<line x1="837" y1="86" x2="845" y2="88" stroke="black" stroke-width="1" />
<line x1="845" y1="88" x2="853" y2="86" stroke="black" stroke-width="1" />
<rect x="700" y="84" width="0" height="5" style="fill:#f5b024;stroke:black;stroke-width:1;fill-opacity:1;stroke-opacity:0.3" />
<line x1="701" y1="86" x2="774" y2="86" stroke="pink" stroke-width="1" />
<rect x="774" y="84" width="62" height="5" style="fill:#f5b024;stroke:black;stroke-width:1;fill-opacity:1;stroke-opacity:0.3" />
<rect x="853" y="84" width="63" height="5" style="fill:#f5b024;stroke:black;stroke-width:1;fill-opacity:1;stroke-opacity:0.3" />
<line x1="782" y1="51" x2="789" y2="53" stroke="black" stroke-width="1" />
<line x1="789" y1="53" x2="797" y2="51" stroke="black" stroke-width="1" />
<rect x="718" y="49" width="63" height="5" style="fill:#f5b024;stroke:black;stroke-width:1;fill-opacity:1;stroke-opacity:0.3" />
<rect x="797" y="49" width="63" height="5" style="fill:#f5b024;stroke:black;stroke-width:1;fill-opacity:1;stroke-opacity:0.3" />
<line x1="840" y1="93" x2="846" y2="95" stroke="black" stroke-width="1" />
<line x1="846" y1="95" x2="853" y2="93" stroke="black" stroke-width="1" />
<rect x="776" y="91" width="63" height="5" style="fill:#f5b024;stroke:black;stroke-width:1;fill-opacity:1;stroke-opacity:0.3" />
<rect x="853" y="91" width="63" height="5" style="fill:#f5b024;stroke:black;stroke-width:1;fill-opacity:1;stroke-opacity:0.3" />
<line x1="840" y1="163" x2="848" y2="165" stroke="black" stroke-width="1" />
<line x1="848" y1="165" x2="856" y2="163" stroke="black" stroke-width="1" />
<rect x="776" y="161" width="63" height="5" style="fill:#f5b024;stroke:black;stroke-width:1;fill-opacity:1;stroke-opacity:0.3" />
<rect x="856" y="161" width="63" height="5" style="fill:#f5b024;stroke:black;stroke-width:1;fill-opacity:1;stroke-opacity:0.3" />
<line x1="851" y1="44" x2="858" y2="46" stroke="black" stroke-width="1" />
<line x1="858" y1="46" x2="866" y2="44" stroke="black" stroke-width="1" />
<rect x="787" y="42" width="63" height="5" style="fill:#f5b024;stroke:black;stroke-width:1;fill-opacity:1;stroke-opacity:0.3" />
<rect x="866" y="42" width="63" height="5" style="fill:#f5b024;stroke:black;stroke-width:1;fill-opacity:1;stroke-opacity:0.3" />
<line x1="855" y1="156" x2="858" y2="158" stroke="black" stroke-width="1" />
<line x1="858" y1="158" x2="862" y2="156" stroke="black" stroke-width="1" />
<rect x="792" y="154" width="62" height="5" style="fill:#f5b024;stroke:black;stroke-width:1;fill-opacity:1;stroke-opacity:0.3" />
<rect x="862" y="154" width="63" height="5" style="fill:#f5b024;stroke:black;stroke-width:1;fill-opacity:1;stroke-opacity:0.3" />
<text x="15"  y="176" style="font-family:Arial;font-size:10;stroke:black;fill:black;">all.merged.bam</text>
</svg>
    
