<?xml version="1.0" encoding="utf-8" standalone="no"?>
<!DOCTYPE svg PUBLIC "-//W3C//DTD SVG 1.1//EN"
  "http://www.w3.org/Graphics/SVG/1.1/DTD/svg11.dtd">
<svg height="1140" width="1000" version="1.1" viewBox="0 0 1000 1140" xmlns="http://www.w3.org/2000/svg" xmlns:xlink="http://www.w3.org/1999/xlink">
<line x1="28" y1="11" x2="971" y2="11" stroke="black" stroke-width="1" />
<rect x="28" y="9" width="121" height="5" style="fill:#f50002;stroke:black;stroke-width:1;fill-opacity:1;stroke-opacity:0.3" />
<rect x="149" y="9" width="86" height="5" style="fill:#53a1b5;stroke:black;stroke-width:1;fill-opacity:1;stroke-opacity:0.3" />
<rect x="310" y="9" width="15" height="5" style="fill:#53a1b5;stroke:black;stroke-width:1;fill-opacity:1;stroke-opacity:0.3" />
<rect x="423" y="9" width="29" height="5" style="fill:#53a1b5;stroke:black;stroke-width:1;fill-opacity:1;stroke-opacity:0.3" />
<rect x="525" y="9" width="157" height="5" style="fill:#53a1b5;stroke:black;stroke-width:1;fill-opacity:1;stroke-opacity:0.3" />
<rect x="778" y="9" width="116" height="5" style="fill:#53a1b5;stroke:black;stroke-width:1;fill-opacity:1;stroke-opacity:0.3" />
<rect x="895" y="9" width="76" height="5" style="fill:#f50002;stroke:black;stroke-width:1;fill-opacity:1;stroke-opacity:0.3" />
<text x="28"  y="23" style="font-family:Arial;font-size:10;stroke:black;fill:black;">Cre08.g380500.t1.2.v5.5 (-) chromosome_8:4217051-4220389</text>
<line x1="113" y1="30" x2="116" y2="32" stroke="black" stroke-width="1" />
<line x1="116" y1="32" x2="119" y2="30" stroke="black" stroke-width="1" />
<rect x="85" y="28" width="28" height="5" style="fill:#f5b024;stroke:black;stroke-width:1;fill-opacity:1;stroke-opacity:0.3" />
<rect x="119" y="28" width="28" height="5" style="fill:#f5b024;stroke:black;stroke-width:1;fill-opacity:1;stroke-opacity:0.3" />
<line x1="238" y1="30" x2="273" y2="32" stroke="black" stroke-width="1" />
<line x1="273" y1="32" x2="309" y2="30" stroke="black" stroke-width="1" />
<rect x="212" y="28" width="26" height="5" style="fill:#5d3c2d;stroke:black;stroke-width:1;fill-opacity:1;stroke-opacity:0.3" />
<rect x="309" y="28" width="28" height="5" style="fill:#5d3c2d;stroke:black;stroke-width:1;fill-opacity:1;stroke-opacity:0.3" />
<line x1="262" y1="37" x2="264" y2="39" stroke="black" stroke-width="1" />
<line x1="264" y1="39" x2="267" y2="37" stroke="black" stroke-width="1" />
<rect x="233" y="35" width="28" height="5" style="fill:#f5b024;stroke:black;stroke-width:1;fill-opacity:1;stroke-opacity:0.3" />
<rect x="267" y="35" width="27" height="5" style="fill:#f5b024;stroke:black;stroke-width:1;fill-opacity:1;stroke-opacity:0.3" />
<line x1="401" y1="30" x2="407" y2="32" stroke="black" stroke-width="1" />
<line x1="407" y1="32" x2="413" y2="30" stroke="black" stroke-width="1" />
<rect x="373" y="28" width="28" height="5" style="fill:#5d3c2d;stroke:black;stroke-width:1;fill-opacity:1;stroke-opacity:0.3" />
<rect x="413" y="28" width="25" height="5" style="fill:#5d3c2d;stroke:black;stroke-width:1;fill-opacity:1;stroke-opacity:0.3" />
<line x1="401" y1="37" x2="407" y2="39" stroke="black" stroke-width="1" />
<line x1="407" y1="39" x2="413" y2="37" stroke="black" stroke-width="1" />
<rect x="373" y="35" width="28" height="5" style="fill:#5d3c2d;stroke:black;stroke-width:1;fill-opacity:1;stroke-opacity:0.3" />
<rect x="413" y="35" width="25" height="5" style="fill:#5d3c2d;stroke:black;stroke-width:1;fill-opacity:1;stroke-opacity:0.3" />
<line x1="456" y1="44" x2="458" y2="46" stroke="black" stroke-width="1" />
<line x1="458" y1="46" x2="460" y2="44" stroke="black" stroke-width="1" />
<rect x="427" y="42" width="28" height="5" style="fill:#5d3c2d;stroke:black;stroke-width:1;fill-opacity:1;stroke-opacity:0.3" />
<rect x="460" y="42" width="28" height="5" style="fill:#5d3c2d;stroke:black;stroke-width:1;fill-opacity:1;stroke-opacity:0.3" />
<line x1="502" y1="30" x2="506" y2="32" stroke="black" stroke-width="1" />
<line x1="506" y1="32" x2="510" y2="30" stroke="black" stroke-width="1" />
<rect x="474" y="28" width="28" height="5" style="fill:#5d3c2d;stroke:black;stroke-width:1;fill-opacity:1;stroke-opacity:0.3" />
<rect x="510" y="28" width="28" height="5" style="fill:#5d3c2d;stroke:black;stroke-width:1;fill-opacity:1;stroke-opacity:0.3" />
<line x1="507" y1="37" x2="515" y2="39" stroke="black" stroke-width="1" />
<line x1="515" y1="39" x2="524" y2="37" stroke="black" stroke-width="1" />
<rect x="478" y="35" width="28" height="5" style="fill:#5d3c2d;stroke:black;stroke-width:1;fill-opacity:1;stroke-opacity:0.3" />
<rect x="524" y="35" width="28" height="5" style="fill:#5d3c2d;stroke:black;stroke-width:1;fill-opacity:1;stroke-opacity:0.3" />
<line x1="609" y1="30" x2="614" y2="32" stroke="black" stroke-width="1" />
<line x1="614" y1="32" x2="619" y2="30" stroke="black" stroke-width="1" />
<rect x="581" y="28" width="28" height="5" style="fill:#5d3c2d;stroke:black;stroke-width:1;fill-opacity:1;stroke-opacity:0.3" />
<rect x="619" y="28" width="28" height="5" style="fill:#5d3c2d;stroke:black;stroke-width:1;fill-opacity:1;stroke-opacity:0.3" />
<line x1="612" y1="37" x2="617" y2="39" stroke="black" stroke-width="1" />
<line x1="617" y1="39" x2="622" y2="37" stroke="black" stroke-width="1" />
<rect x="584" y="35" width="28" height="5" style="fill:#5d3c2d;stroke:black;stroke-width:1;fill-opacity:1;stroke-opacity:0.3" />
<rect x="622" y="35" width="28" height="5" style="fill:#5d3c2d;stroke:black;stroke-width:1;fill-opacity:1;stroke-opacity:0.3" />
<line x1="632" y1="44" x2="643" y2="46" stroke="black" stroke-width="1" />
<line x1="643" y1="46" x2="654" y2="44" stroke="black" stroke-width="1" />
<rect x="604" y="42" width="28" height="5" style="fill:#5d3c2d;stroke:black;stroke-width:1;fill-opacity:1;stroke-opacity:0.3" />
<rect x="654" y="42" width="27" height="5" style="fill:#5d3c2d;stroke:black;stroke-width:1;fill-opacity:1;stroke-opacity:0.3" />
<line x1="678" y1="30" x2="690" y2="32" stroke="black" stroke-width="1" />
<line x1="690" y1="32" x2="702" y2="30" stroke="black" stroke-width="1" />
<rect x="650" y="28" width="28" height="5" style="fill:#5d3c2d;stroke:black;stroke-width:1;fill-opacity:1;stroke-opacity:0.3" />
<rect x="702" y="28" width="28" height="5" style="fill:#5d3c2d;stroke:black;stroke-width:1;fill-opacity:1;stroke-opacity:0.3" />
<line x1="684" y1="37" x2="687" y2="39" stroke="black" stroke-width="1" />
<line x1="687" y1="39" x2="690" y2="37" stroke="black" stroke-width="1" />
<rect x="655" y="35" width="28" height="5" style="fill:#5d3c2d;stroke:black;stroke-width:1;fill-opacity:1;stroke-opacity:0.3" />
<rect x="690" y="35" width="28" height="5" style="fill:#5d3c2d;stroke:black;stroke-width:1;fill-opacity:1;stroke-opacity:0.3" />
<line x1="724" y1="44" x2="731" y2="46" stroke="black" stroke-width="1" />
<line x1="731" y1="46" x2="738" y2="44" stroke="black" stroke-width="1" />
<rect x="696" y="42" width="28" height="5" style="fill:#5d3c2d;stroke:black;stroke-width:1;fill-opacity:1;stroke-opacity:0.3" />
<rect x="738" y="42" width="28" height="5" style="fill:#5d3c2d;stroke:black;stroke-width:1;fill-opacity:1;stroke-opacity:0.3" />
<line x1="951" y1="30" x2="953" y2="32" stroke="black" stroke-width="1" />
<line x1="953" y1="32" x2="955" y2="30" stroke="black" stroke-width="1" />
<rect x="923" y="28" width="28" height="5" style="fill:#5d3c2d;stroke:black;stroke-width:1;fill-opacity:1;stroke-opacity:0.3" />
<rect x="955" y="28" width="28" height="5" style="fill:#5d3c2d;stroke:black;stroke-width:1;fill-opacity:1;stroke-opacity:0.3" />
<line x1="964" y1="37" x2="967" y2="39" stroke="black" stroke-width="1" />
<line x1="967" y1="39" x2="970" y2="37" stroke="black" stroke-width="1" />
<rect x="936" y="35" width="28" height="5" style="fill:#5d3c2d;stroke:black;stroke-width:1;fill-opacity:1;stroke-opacity:0.3" />
<rect x="970" y="35" width="28" height="5" style="fill:#5d3c2d;stroke:black;stroke-width:1;fill-opacity:1;stroke-opacity:0.3" />
<text x="15"  y="176" style="font-family:Arial;font-size:10;stroke:black;fill:black;">all.merged.bam</text>
</svg>
    
