<?xml version="1.0" encoding="utf-8" standalone="no"?>
<!DOCTYPE svg PUBLIC "-//W3C//DTD SVG 1.1//EN"
  "http://www.w3.org/Graphics/SVG/1.1/DTD/svg11.dtd">
<svg height="1140" width="1000" version="1.1" viewBox="0 0 1000 1140" xmlns="http://www.w3.org/2000/svg" xmlns:xlink="http://www.w3.org/1999/xlink">
<line x1="28" y1="11" x2="970" y2="11" stroke="black" stroke-width="1" />
<rect x="28" y="9" width="859" height="5" style="fill:#f50002;stroke:black;stroke-width:1;fill-opacity:1;stroke-opacity:0.3" />
<rect x="889" y="9" width="56" height="5" style="fill:#53a1b5;stroke:black;stroke-width:1;fill-opacity:1;stroke-opacity:0.3" />
<rect x="945" y="9" width="25" height="5" style="fill:#f50002;stroke:black;stroke-width:1;fill-opacity:1;stroke-opacity:0.3" />
<text x="28"  y="23" style="font-family:Arial;font-size:10;stroke:black;fill:black;">Cre02.g141906.t1.1.v5.5 (-) chromosome_2:8536630-8539885</text>
<line x1="70" y1="30" x2="75" y2="32" stroke="black" stroke-width="1" />
<line x1="75" y1="32" x2="81" y2="30" stroke="black" stroke-width="1" />
<rect x="41" y="28" width="28" height="5" style="fill:#f5b024;stroke:black;stroke-width:1;fill-opacity:1;stroke-opacity:0.3" />
<rect x="81" y="28" width="28" height="5" style="fill:#f5b024;stroke:black;stroke-width:1;fill-opacity:1;stroke-opacity:0.3" />
<line x1="151" y1="30" x2="158" y2="32" stroke="black" stroke-width="1" />
<line x1="158" y1="32" x2="165" y2="30" stroke="black" stroke-width="1" />
<rect x="122" y="28" width="28" height="5" style="fill:#f5b024;stroke:black;stroke-width:1;fill-opacity:1;stroke-opacity:0.3" />
<rect x="165" y="28" width="28" height="5" style="fill:#f5b024;stroke:black;stroke-width:1;fill-opacity:1;stroke-opacity:0.3" />
<line x1="190" y1="37" x2="192" y2="39" stroke="black" stroke-width="1" />
<line x1="192" y1="39" x2="194" y2="37" stroke="black" stroke-width="1" />
<rect x="162" y="35" width="28" height="5" style="fill:#f5b024;stroke:black;stroke-width:1;fill-opacity:1;stroke-opacity:0.3" />
<rect x="194" y="35" width="28" height="5" style="fill:#f5b024;stroke:black;stroke-width:1;fill-opacity:1;stroke-opacity:0.3" />
<line x1="190" y1="44" x2="192" y2="46" stroke="black" stroke-width="1" />
<line x1="192" y1="46" x2="194" y2="44" stroke="black" stroke-width="1" />
<rect x="162" y="42" width="28" height="5" style="fill:#f5b024;stroke:black;stroke-width:1;fill-opacity:1;stroke-opacity:0.3" />
<rect x="194" y="42" width="28" height="5" style="fill:#f5b024;stroke:black;stroke-width:1;fill-opacity:1;stroke-opacity:0.3" />
<line x1="195" y1="51" x2="203" y2="53" stroke="black" stroke-width="1" />
<line x1="203" y1="53" x2="211" y2="51" stroke="black" stroke-width="1" />
<rect x="166" y="49" width="28" height="5" style="fill:#f5b024;stroke:black;stroke-width:1;fill-opacity:1;stroke-opacity:0.3" />
<rect x="211" y="49" width="28" height="5" style="fill:#f5b024;stroke:black;stroke-width:1;fill-opacity:1;stroke-opacity:0.3" />
<line x1="204" y1="58" x2="207" y2="60" stroke="black" stroke-width="1" />
<line x1="207" y1="60" x2="210" y2="58" stroke="black" stroke-width="1" />
<rect x="175" y="56" width="28" height="5" style="fill:#f5b024;stroke:black;stroke-width:1;fill-opacity:1;stroke-opacity:0.3" />
<rect x="210" y="56" width="28" height="5" style="fill:#f5b024;stroke:black;stroke-width:1;fill-opacity:1;stroke-opacity:0.3" />
<line x1="205" y1="65" x2="206" y2="67" stroke="black" stroke-width="1" />
<line x1="206" y1="67" x2="208" y2="65" stroke="black" stroke-width="1" />
<rect x="176" y="63" width="28" height="5" style="fill:#5d3c2d;stroke:black;stroke-width:1;fill-opacity:1;stroke-opacity:0.3" />
<rect x="208" y="63" width="28" height="5" style="fill:#5d3c2d;stroke:black;stroke-width:1;fill-opacity:1;stroke-opacity:0.3" />
<line x1="207" y1="72" x2="208" y2="74" stroke="black" stroke-width="1" />
<line x1="208" y1="74" x2="210" y2="72" stroke="black" stroke-width="1" />
<rect x="178" y="70" width="28" height="5" style="fill:#5d3c2d;stroke:black;stroke-width:1;fill-opacity:1;stroke-opacity:0.3" />
<rect x="210" y="70" width="28" height="5" style="fill:#5d3c2d;stroke:black;stroke-width:1;fill-opacity:1;stroke-opacity:0.3" />
<line x1="208" y1="79" x2="210" y2="81" stroke="black" stroke-width="1" />
<line x1="210" y1="81" x2="212" y2="79" stroke="black" stroke-width="1" />
<rect x="179" y="77" width="28" height="5" style="fill:#5d3c2d;stroke:black;stroke-width:1;fill-opacity:1;stroke-opacity:0.3" />
<rect x="212" y="77" width="28" height="5" style="fill:#5d3c2d;stroke:black;stroke-width:1;fill-opacity:1;stroke-opacity:0.3" />
<line x1="209" y1="86" x2="214" y2="88" stroke="black" stroke-width="1" />
<line x1="214" y1="88" x2="220" y2="86" stroke="black" stroke-width="1" />
<rect x="181" y="84" width="28" height="5" style="fill:#f5b024;stroke:black;stroke-width:1;fill-opacity:1;stroke-opacity:0.3" />
<rect x="220" y="84" width="28" height="5" style="fill:#f5b024;stroke:black;stroke-width:1;fill-opacity:1;stroke-opacity:0.3" />
<line x1="210" y1="93" x2="214" y2="95" stroke="black" stroke-width="1" />
<line x1="214" y1="95" x2="218" y2="93" stroke="black" stroke-width="1" />
<rect x="181" y="91" width="28" height="5" style="fill:#5d3c2d;stroke:black;stroke-width:1;fill-opacity:1;stroke-opacity:0.3" />
<rect x="218" y="91" width="28" height="5" style="fill:#5d3c2d;stroke:black;stroke-width:1;fill-opacity:1;stroke-opacity:0.3" />
<line x1="214" y1="100" x2="216" y2="102" stroke="black" stroke-width="1" />
<line x1="216" y1="102" x2="218" y2="100" stroke="black" stroke-width="1" />
<rect x="185" y="98" width="28" height="5" style="fill:#5d3c2d;stroke:black;stroke-width:1;fill-opacity:1;stroke-opacity:0.3" />
<rect x="218" y="98" width="28" height="5" style="fill:#5d3c2d;stroke:black;stroke-width:1;fill-opacity:1;stroke-opacity:0.3" />
<line x1="235" y1="30" x2="237" y2="32" stroke="black" stroke-width="1" />
<line x1="237" y1="32" x2="239" y2="30" stroke="black" stroke-width="1" />
<rect x="206" y="28" width="28" height="5" style="fill:#5d3c2d;stroke:black;stroke-width:1;fill-opacity:1;stroke-opacity:0.3" />
<rect x="239" y="28" width="28" height="5" style="fill:#5d3c2d;stroke:black;stroke-width:1;fill-opacity:1;stroke-opacity:0.3" />
<line x1="239" y1="107" x2="247" y2="109" stroke="black" stroke-width="1" />
<line x1="247" y1="109" x2="256" y2="107" stroke="black" stroke-width="1" />
<rect x="210" y="105" width="28" height="5" style="fill:#5d3c2d;stroke:black;stroke-width:1;fill-opacity:1;stroke-opacity:0.3" />
<rect x="256" y="105" width="28" height="5" style="fill:#5d3c2d;stroke:black;stroke-width:1;fill-opacity:1;stroke-opacity:0.3" />
<line x1="331" y1="30" x2="334" y2="32" stroke="black" stroke-width="1" />
<line x1="334" y1="32" x2="337" y2="30" stroke="black" stroke-width="1" />
<rect x="302" y="28" width="28" height="5" style="fill:#f5b024;stroke:black;stroke-width:1;fill-opacity:1;stroke-opacity:0.3" />
<rect x="337" y="28" width="28" height="5" style="fill:#f5b024;stroke:black;stroke-width:1;fill-opacity:1;stroke-opacity:0.3" />
<line x1="448" y1="30" x2="450" y2="32" stroke="black" stroke-width="1" />
<line x1="450" y1="32" x2="453" y2="30" stroke="black" stroke-width="1" />
<rect x="419" y="28" width="28" height="5" style="fill:#5d3c2d;stroke:black;stroke-width:1;fill-opacity:1;stroke-opacity:0.3" />
<rect x="453" y="28" width="24" height="5" style="fill:#5d3c2d;stroke:black;stroke-width:1;fill-opacity:1;stroke-opacity:0.3" />
<line x1="739" y1="30" x2="752" y2="32" stroke="black" stroke-width="1" />
<line x1="752" y1="32" x2="765" y2="30" stroke="black" stroke-width="1" />
<rect x="711" y="28" width="28" height="5" style="fill:#f5b024;stroke:black;stroke-width:1;fill-opacity:1;stroke-opacity:0.3" />
<rect x="765" y="28" width="28" height="5" style="fill:#f5b024;stroke:black;stroke-width:1;fill-opacity:1;stroke-opacity:0.3" />
<text x="15"  y="176" style="font-family:Arial;font-size:10;stroke:black;fill:black;">all.merged.bam</text>
</svg>
    
