<?xml version="1.0" encoding="utf-8" standalone="no"?>
<!DOCTYPE svg PUBLIC "-//W3C//DTD SVG 1.1//EN"
  "http://www.w3.org/Graphics/SVG/1.1/DTD/svg11.dtd">
<svg height="1140" width="1000" version="1.1" viewBox="0 0 1000 1140" xmlns="http://www.w3.org/2000/svg" xmlns:xlink="http://www.w3.org/1999/xlink">
<line x1="18" y1="11" x2="981" y2="11" stroke="black" stroke-width="1" />
<rect x="18" y="9" width="106" height="5" style="fill:#f50002;stroke:black;stroke-width:1;fill-opacity:1;stroke-opacity:0.3" />
<rect x="228" y="9" width="22" height="5" style="fill:#f50002;stroke:black;stroke-width:1;fill-opacity:1;stroke-opacity:0.3" />
<rect x="313" y="9" width="57" height="5" style="fill:#f50002;stroke:black;stroke-width:1;fill-opacity:1;stroke-opacity:0.3" />
<rect x="393" y="9" width="48" height="5" style="fill:#f50002;stroke:black;stroke-width:1;fill-opacity:1;stroke-opacity:0.3" />
<rect x="477" y="9" width="18" height="5" style="fill:#f50002;stroke:black;stroke-width:1;fill-opacity:1;stroke-opacity:0.3" />
<rect x="578" y="9" width="32" height="5" style="fill:#f50002;stroke:black;stroke-width:1;fill-opacity:1;stroke-opacity:0.3" />
<rect x="611" y="9" width="1" height="5" style="fill:#53a1b5;stroke:black;stroke-width:1;fill-opacity:1;stroke-opacity:0.3" />
<rect x="639" y="9" width="36" height="5" style="fill:#53a1b5;stroke:black;stroke-width:1;fill-opacity:1;stroke-opacity:0.3" />
<rect x="709" y="9" width="54" height="5" style="fill:#53a1b5;stroke:black;stroke-width:1;fill-opacity:1;stroke-opacity:0.3" />
<rect x="764" y="9" width="217" height="5" style="fill:#f50002;stroke:black;stroke-width:1;fill-opacity:1;stroke-opacity:0.3" />
<text x="18"  y="23" style="font-family:Arial;font-size:10;stroke:black;fill:black;">Cre05.g237890.t1.1.v5.5 (+) chromosome_5:2858690-2864031</text>
<line x1="82" y1="30" x2="85" y2="32" stroke="black" stroke-width="1" />
<line x1="85" y1="32" x2="89" y2="30" stroke="black" stroke-width="1" />
<rect x="64" y="28" width="18" height="5" style="fill:#5d3c2d;stroke:black;stroke-width:1;fill-opacity:1;stroke-opacity:0.3" />
<rect x="89" y="28" width="18" height="5" style="fill:#5d3c2d;stroke:black;stroke-width:1;fill-opacity:1;stroke-opacity:0.3" />
<line x1="85" y1="37" x2="86" y2="39" stroke="black" stroke-width="1" />
<line x1="86" y1="39" x2="88" y2="37" stroke="black" stroke-width="1" />
<rect x="67" y="35" width="18" height="5" style="fill:#5d3c2d;stroke:black;stroke-width:1;fill-opacity:1;stroke-opacity:0.3" />
<rect x="88" y="35" width="18" height="5" style="fill:#5d3c2d;stroke:black;stroke-width:1;fill-opacity:1;stroke-opacity:0.3" />
<line x1="85" y1="44" x2="87" y2="46" stroke="black" stroke-width="1" />
<line x1="87" y1="46" x2="90" y2="44" stroke="black" stroke-width="1" />
<rect x="67" y="42" width="17" height="5" style="fill:#5d3c2d;stroke:black;stroke-width:1;fill-opacity:1;stroke-opacity:0.3" />
<rect x="90" y="42" width="17" height="5" style="fill:#5d3c2d;stroke:black;stroke-width:1;fill-opacity:1;stroke-opacity:0.3" />
<line x1="96" y1="51" x2="96" y2="53" stroke="black" stroke-width="1" />
<line x1="96" y1="53" x2="97" y2="51" stroke="black" stroke-width="1" />
<rect x="80" y="49" width="15" height="5" style="fill:#5d3c2d;stroke:black;stroke-width:1;fill-opacity:1;stroke-opacity:0.3" />
<rect x="97" y="49" width="18" height="5" style="fill:#5d3c2d;stroke:black;stroke-width:1;fill-opacity:1;stroke-opacity:0.3" />
<line x1="115" y1="58" x2="174" y2="60" stroke="black" stroke-width="1" />
<line x1="174" y1="60" x2="233" y2="58" stroke="black" stroke-width="1" />
<rect x="97" y="56" width="18" height="5" style="fill:#5d3c2d;stroke:black;stroke-width:1;fill-opacity:1;stroke-opacity:0.3" />
<rect x="233" y="56" width="16" height="5" style="fill:#5d3c2d;stroke:black;stroke-width:1;fill-opacity:1;stroke-opacity:0.3" />
<line x1="250" y1="58" x2="313" y2="58" stroke="pink" stroke-width="1" />
<rect x="313" y="56" width="0" height="5" style="fill:#5d3c2d;stroke:black;stroke-width:1;fill-opacity:1;stroke-opacity:0.3" />
<line x1="250" y1="30" x2="284" y2="32" stroke="black" stroke-width="1" />
<line x1="284" y1="32" x2="319" y2="30" stroke="black" stroke-width="1" />
<rect x="121" y="28" width="3" height="5" style="fill:#5d3c2d;stroke:black;stroke-width:1;fill-opacity:1;stroke-opacity:0.3" />
<line x1="124" y1="30" x2="228" y2="30" stroke="pink" stroke-width="1" />
<rect x="228" y="28" width="22" height="5" style="fill:#5d3c2d;stroke:black;stroke-width:1;fill-opacity:1;stroke-opacity:0.3" />
<rect x="319" y="28" width="26" height="5" style="fill:#5d3c2d;stroke:black;stroke-width:1;fill-opacity:1;stroke-opacity:0.3" />
<line x1="167" y1="37" x2="172" y2="39" stroke="black" stroke-width="1" />
<line x1="172" y1="39" x2="178" y2="37" stroke="black" stroke-width="1" />
<rect x="149" y="35" width="18" height="5" style="fill:#5d3c2d;stroke:black;stroke-width:1;fill-opacity:1;stroke-opacity:0.3" />
<rect x="178" y="35" width="18" height="5" style="fill:#5d3c2d;stroke:black;stroke-width:1;fill-opacity:1;stroke-opacity:0.3" />
<line x1="317" y1="37" x2="319" y2="39" stroke="black" stroke-width="1" />
<line x1="319" y1="39" x2="321" y2="37" stroke="black" stroke-width="1" />
<rect x="237" y="35" width="13" height="5" style="fill:#5d3c2d;stroke:black;stroke-width:1;fill-opacity:1;stroke-opacity:0.3" />
<line x1="250" y1="37" x2="313" y2="37" stroke="pink" stroke-width="1" />
<rect x="313" y="35" width="4" height="5" style="fill:#5d3c2d;stroke:black;stroke-width:1;fill-opacity:1;stroke-opacity:0.3" />
<rect x="321" y="35" width="18" height="5" style="fill:#5d3c2d;stroke:black;stroke-width:1;fill-opacity:1;stroke-opacity:0.3" />
<line x1="324" y1="44" x2="325" y2="46" stroke="black" stroke-width="1" />
<line x1="325" y1="46" x2="326" y2="44" stroke="black" stroke-width="1" />
<rect x="243" y="42" width="7" height="5" style="fill:#5d3c2d;stroke:black;stroke-width:1;fill-opacity:1;stroke-opacity:0.3" />
<line x1="250" y1="44" x2="313" y2="44" stroke="pink" stroke-width="1" />
<rect x="313" y="42" width="11" height="5" style="fill:#5d3c2d;stroke:black;stroke-width:1;fill-opacity:1;stroke-opacity:0.3" />
<rect x="326" y="42" width="18" height="5" style="fill:#5d3c2d;stroke:black;stroke-width:1;fill-opacity:1;stroke-opacity:0.3" />
<line x1="347" y1="51" x2="348" y2="53" stroke="black" stroke-width="1" />
<line x1="348" y1="53" x2="350" y2="51" stroke="black" stroke-width="1" />
<rect x="320" y="49" width="27" height="5" style="fill:#5d3c2d;stroke:black;stroke-width:1;fill-opacity:1;stroke-opacity:0.3" />
<rect x="350" y="49" width="27" height="5" style="fill:#5d3c2d;stroke:black;stroke-width:1;fill-opacity:1;stroke-opacity:0.3" />
<line x1="359" y1="37" x2="376" y2="39" stroke="black" stroke-width="1" />
<line x1="376" y1="39" x2="394" y2="37" stroke="black" stroke-width="1" />
<rect x="341" y="35" width="18" height="5" style="fill:#5d3c2d;stroke:black;stroke-width:1;fill-opacity:1;stroke-opacity:0.3" />
<rect x="394" y="35" width="18" height="5" style="fill:#5d3c2d;stroke:black;stroke-width:1;fill-opacity:1;stroke-opacity:0.3" />
<line x1="496" y1="30" x2="537" y2="32" stroke="black" stroke-width="1" />
<line x1="537" y1="32" x2="578" y2="30" stroke="black" stroke-width="1" />
<rect x="477" y="28" width="18" height="5" style="fill:#5d3c2d;stroke:black;stroke-width:1;fill-opacity:1;stroke-opacity:0.3" />
<rect x="578" y="28" width="17" height="5" style="fill:#5d3c2d;stroke:black;stroke-width:1;fill-opacity:1;stroke-opacity:0.3" />
<line x1="593" y1="37" x2="596" y2="39" stroke="black" stroke-width="1" />
<line x1="596" y1="39" x2="599" y2="37" stroke="black" stroke-width="1" />
<rect x="483" y="35" width="12" height="5" style="fill:#5d3c2d;stroke:black;stroke-width:1;fill-opacity:1;stroke-opacity:0.3" />
<line x1="496" y1="37" x2="578" y2="37" stroke="pink" stroke-width="1" />
<rect x="578" y="35" width="14" height="5" style="fill:#5d3c2d;stroke:black;stroke-width:1;fill-opacity:1;stroke-opacity:0.3" />
<rect x="599" y="35" width="13" height="5" style="fill:#5d3c2d;stroke:black;stroke-width:1;fill-opacity:1;stroke-opacity:0.3" />
<line x1="613" y1="37" x2="639" y2="37" stroke="pink" stroke-width="1" />
<rect x="639" y="35" width="13" height="5" style="fill:#5d3c2d;stroke:black;stroke-width:1;fill-opacity:1;stroke-opacity:0.3" />
<line x1="586" y1="44" x2="588" y2="46" stroke="black" stroke-width="1" />
<line x1="588" y1="46" x2="591" y2="44" stroke="black" stroke-width="1" />
<rect x="485" y="42" width="10" height="5" style="fill:#5d3c2d;stroke:black;stroke-width:1;fill-opacity:1;stroke-opacity:0.3" />
<line x1="496" y1="44" x2="578" y2="44" stroke="pink" stroke-width="1" />
<rect x="578" y="42" width="7" height="5" style="fill:#5d3c2d;stroke:black;stroke-width:1;fill-opacity:1;stroke-opacity:0.3" />
<rect x="591" y="42" width="18" height="5" style="fill:#5d3c2d;stroke:black;stroke-width:1;fill-opacity:1;stroke-opacity:0.3" />
<line x1="530" y1="51" x2="531" y2="53" stroke="black" stroke-width="1" />
<line x1="531" y1="53" x2="533" y2="51" stroke="black" stroke-width="1" />
<rect x="503" y="49" width="26" height="5" style="fill:#5d3c2d;stroke:black;stroke-width:1;fill-opacity:1;stroke-opacity:0.3" />
<rect x="533" y="49" width="27" height="5" style="fill:#5d3c2d;stroke:black;stroke-width:1;fill-opacity:1;stroke-opacity:0.3" />
<line x1="530" y1="58" x2="531" y2="60" stroke="black" stroke-width="1" />
<line x1="531" y1="60" x2="533" y2="58" stroke="black" stroke-width="1" />
<rect x="503" y="56" width="27" height="5" style="fill:#5d3c2d;stroke:black;stroke-width:1;fill-opacity:1;stroke-opacity:0.3" />
<rect x="533" y="56" width="27" height="5" style="fill:#5d3c2d;stroke:black;stroke-width:1;fill-opacity:1;stroke-opacity:0.3" />
<line x1="595" y1="51" x2="598" y2="53" stroke="black" stroke-width="1" />
<line x1="598" y1="53" x2="601" y2="51" stroke="black" stroke-width="1" />
<rect x="577" y="49" width="18" height="5" style="fill:#5d3c2d;stroke:black;stroke-width:1;fill-opacity:1;stroke-opacity:0.3" />
<rect x="601" y="49" width="18" height="5" style="fill:#5d3c2d;stroke:black;stroke-width:1;fill-opacity:1;stroke-opacity:0.3" />
<line x1="642" y1="58" x2="644" y2="60" stroke="black" stroke-width="1" />
<line x1="644" y1="60" x2="646" y2="58" stroke="black" stroke-width="1" />
<rect x="589" y="56" width="23" height="5" style="fill:#5d3c2d;stroke:black;stroke-width:1;fill-opacity:1;stroke-opacity:0.3" />
<line x1="613" y1="58" x2="639" y2="58" stroke="pink" stroke-width="1" />
<rect x="639" y="56" width="3" height="5" style="fill:#5d3c2d;stroke:black;stroke-width:1;fill-opacity:1;stroke-opacity:0.3" />
<rect x="646" y="56" width="26" height="5" style="fill:#5d3c2d;stroke:black;stroke-width:1;fill-opacity:1;stroke-opacity:0.3" />
<line x1="610" y1="65" x2="629" y2="67" stroke="black" stroke-width="1" />
<line x1="629" y1="67" x2="648" y2="65" stroke="black" stroke-width="1" />
<rect x="592" y="63" width="18" height="5" style="fill:#f5b024;stroke:black;stroke-width:1;fill-opacity:1;stroke-opacity:0.3" />
<rect x="648" y="63" width="14" height="5" style="fill:#f5b024;stroke:black;stroke-width:1;fill-opacity:1;stroke-opacity:0.3" />
<line x1="613" y1="72" x2="628" y2="74" stroke="black" stroke-width="1" />
<line x1="628" y1="74" x2="643" y2="72" stroke="black" stroke-width="1" />
<rect x="595" y="70" width="18" height="5" style="fill:#5d3c2d;stroke:black;stroke-width:1;fill-opacity:1;stroke-opacity:0.3" />
<rect x="643" y="70" width="18" height="5" style="fill:#5d3c2d;stroke:black;stroke-width:1;fill-opacity:1;stroke-opacity:0.3" />
<line x1="650" y1="30" x2="652" y2="32" stroke="black" stroke-width="1" />
<line x1="652" y1="32" x2="654" y2="30" stroke="black" stroke-width="1" />
<rect x="605" y="28" width="7" height="5" style="fill:#5d3c2d;stroke:black;stroke-width:1;fill-opacity:1;stroke-opacity:0.3" />
<line x1="613" y1="30" x2="639" y2="30" stroke="pink" stroke-width="1" />
<rect x="639" y="28" width="10" height="5" style="fill:#5d3c2d;stroke:black;stroke-width:1;fill-opacity:1;stroke-opacity:0.3" />
<rect x="654" y="28" width="18" height="5" style="fill:#5d3c2d;stroke:black;stroke-width:1;fill-opacity:1;stroke-opacity:0.3" />
<text x="15"  y="176" style="font-family:Arial;font-size:10;stroke:black;fill:black;">all.merged.bam</text>
</svg>
    
