<?xml version="1.0" encoding="utf-8" standalone="no"?>
<!DOCTYPE svg PUBLIC "-//W3C//DTD SVG 1.1//EN"
  "http://www.w3.org/Graphics/SVG/1.1/DTD/svg11.dtd">
<svg height="1140" width="1000" version="1.1" viewBox="0 0 1000 1140" xmlns="http://www.w3.org/2000/svg" xmlns:xlink="http://www.w3.org/1999/xlink">
<line x1="63" y1="11" x2="935" y2="11" stroke="black" stroke-width="1" />
<rect x="63" y="9" width="526" height="5" style="fill:#f50002;stroke:black;stroke-width:1;fill-opacity:1;stroke-opacity:0.3" />
<rect x="591" y="9" width="106" height="5" style="fill:#53a1b5;stroke:black;stroke-width:1;fill-opacity:1;stroke-opacity:0.3" />
<rect x="698" y="9" width="236" height="5" style="fill:#f50002;stroke:black;stroke-width:1;fill-opacity:1;stroke-opacity:0.3" />
<text x="63"  y="23" style="font-family:Arial;font-size:10;stroke:black;fill:black;">Cre02.g105851.t1.1.v5.5 (-) chromosome_2:5212310-5213672</text>
<line x1="108" y1="30" x2="119" y2="32" stroke="black" stroke-width="1" />
<line x1="119" y1="32" x2="131" y2="30" stroke="black" stroke-width="1" />
<rect x="47" y="28" width="61" height="5" style="fill:#f5b024;stroke:black;stroke-width:1;fill-opacity:1;stroke-opacity:0.3" />
<rect x="131" y="28" width="56" height="5" style="fill:#f5b024;stroke:black;stroke-width:1;fill-opacity:1;stroke-opacity:0.3" />
<line x1="206" y1="37" x2="213" y2="39" stroke="black" stroke-width="1" />
<line x1="213" y1="39" x2="220" y2="37" stroke="black" stroke-width="1" />
<rect x="142" y="35" width="63" height="5" style="fill:#f5b024;stroke:black;stroke-width:1;fill-opacity:1;stroke-opacity:0.3" />
<rect x="220" y="35" width="63" height="5" style="fill:#f5b024;stroke:black;stroke-width:1;fill-opacity:1;stroke-opacity:0.3" />
<line x1="463" y1="30" x2="467" y2="32" stroke="black" stroke-width="1" />
<line x1="467" y1="32" x2="471" y2="30" stroke="black" stroke-width="1" />
<rect x="367" y="28" width="95" height="5" style="fill:#f5b024;stroke:black;stroke-width:1;fill-opacity:1;stroke-opacity:0.3" />
<rect x="471" y="28" width="95" height="5" style="fill:#f5b024;stroke:black;stroke-width:1;fill-opacity:1;stroke-opacity:0.3" />
<line x1="433" y1="37" x2="456" y2="39" stroke="black" stroke-width="1" />
<line x1="456" y1="39" x2="479" y2="37" stroke="black" stroke-width="1" />
<rect x="369" y="35" width="63" height="5" style="fill:#f5b024;stroke:black;stroke-width:1;fill-opacity:1;stroke-opacity:0.3" />
<rect x="479" y="35" width="63" height="5" style="fill:#f5b024;stroke:black;stroke-width:1;fill-opacity:1;stroke-opacity:0.3" />
<line x1="460" y1="44" x2="471" y2="46" stroke="black" stroke-width="1" />
<line x1="471" y1="46" x2="482" y2="44" stroke="black" stroke-width="1" />
<rect x="396" y="42" width="63" height="5" style="fill:#f5b024;stroke:black;stroke-width:1;fill-opacity:1;stroke-opacity:0.3" />
<rect x="482" y="42" width="63" height="5" style="fill:#f5b024;stroke:black;stroke-width:1;fill-opacity:1;stroke-opacity:0.3" />
<line x1="529" y1="51" x2="533" y2="53" stroke="black" stroke-width="1" />
<line x1="533" y1="53" x2="537" y2="51" stroke="black" stroke-width="1" />
<rect x="433" y="49" width="95" height="5" style="fill:#f5b024;stroke:black;stroke-width:1;fill-opacity:1;stroke-opacity:0.3" />
<rect x="537" y="49" width="95" height="5" style="fill:#f5b024;stroke:black;stroke-width:1;fill-opacity:1;stroke-opacity:0.3" />
<line x1="499" y1="58" x2="502" y2="60" stroke="black" stroke-width="1" />
<line x1="502" y1="60" x2="506" y2="58" stroke="black" stroke-width="1" />
<rect x="435" y="56" width="63" height="5" style="fill:#f5b024;stroke:black;stroke-width:1;fill-opacity:1;stroke-opacity:0.3" />
<rect x="506" y="56" width="63" height="5" style="fill:#f5b024;stroke:black;stroke-width:1;fill-opacity:1;stroke-opacity:0.3" />
<line x1="516" y1="65" x2="524" y2="67" stroke="black" stroke-width="1" />
<line x1="524" y1="67" x2="532" y2="65" stroke="black" stroke-width="1" />
<rect x="452" y="63" width="63" height="5" style="fill:#f5b024;stroke:black;stroke-width:1;fill-opacity:1;stroke-opacity:0.3" />
<rect x="532" y="63" width="63" height="5" style="fill:#f5b024;stroke:black;stroke-width:1;fill-opacity:1;stroke-opacity:0.3" />
<line x1="584" y1="72" x2="599" y2="74" stroke="black" stroke-width="1" />
<line x1="599" y1="74" x2="614" y2="72" stroke="black" stroke-width="1" />
<rect x="488" y="70" width="95" height="5" style="fill:#f5b024;stroke:black;stroke-width:1;fill-opacity:1;stroke-opacity:0.3" />
<rect x="614" y="70" width="95" height="5" style="fill:#f5b024;stroke:black;stroke-width:1;fill-opacity:1;stroke-opacity:0.3" />
<line x1="603" y1="79" x2="607" y2="81" stroke="black" stroke-width="1" />
<line x1="607" y1="81" x2="612" y2="79" stroke="black" stroke-width="1" />
<rect x="507" y="77" width="95" height="5" style="fill:#f5b024;stroke:black;stroke-width:1;fill-opacity:1;stroke-opacity:0.3" />
<rect x="612" y="77" width="95" height="5" style="fill:#f5b024;stroke:black;stroke-width:1;fill-opacity:1;stroke-opacity:0.3" />
<line x1="582" y1="86" x2="617" y2="88" stroke="black" stroke-width="1" />
<line x1="617" y1="88" x2="652" y2="86" stroke="black" stroke-width="1" />
<rect x="518" y="84" width="63" height="5" style="fill:#f5b024;stroke:black;stroke-width:1;fill-opacity:1;stroke-opacity:0.3" />
<rect x="652" y="84" width="63" height="5" style="fill:#f5b024;stroke:black;stroke-width:1;fill-opacity:1;stroke-opacity:0.3" />
<line x1="598" y1="93" x2="607" y2="95" stroke="black" stroke-width="1" />
<line x1="607" y1="95" x2="617" y2="93" stroke="black" stroke-width="1" />
<rect x="534" y="91" width="63" height="5" style="fill:#f5b024;stroke:black;stroke-width:1;fill-opacity:1;stroke-opacity:0.3" />
<rect x="617" y="91" width="57" height="5" style="fill:#f5b024;stroke:black;stroke-width:1;fill-opacity:1;stroke-opacity:0.3" />
<line x1="598" y1="100" x2="608" y2="102" stroke="black" stroke-width="1" />
<line x1="608" y1="102" x2="619" y2="100" stroke="black" stroke-width="1" />
<rect x="534" y="98" width="63" height="5" style="fill:#f5b024;stroke:black;stroke-width:1;fill-opacity:1;stroke-opacity:0.3" />
<rect x="619" y="98" width="63" height="5" style="fill:#f5b024;stroke:black;stroke-width:1;fill-opacity:1;stroke-opacity:0.3" />
<line x1="608" y1="37" x2="615" y2="39" stroke="black" stroke-width="1" />
<line x1="615" y1="39" x2="622" y2="37" stroke="black" stroke-width="1" />
<rect x="544" y="35" width="63" height="5" style="fill:#f5b024;stroke:black;stroke-width:1;fill-opacity:1;stroke-opacity:0.3" />
<rect x="622" y="35" width="63" height="5" style="fill:#f5b024;stroke:black;stroke-width:1;fill-opacity:1;stroke-opacity:0.3" />
<line x1="610" y1="44" x2="619" y2="46" stroke="black" stroke-width="1" />
<line x1="619" y1="46" x2="628" y2="44" stroke="black" stroke-width="1" />
<rect x="547" y="42" width="63" height="5" style="fill:#f5b024;stroke:black;stroke-width:1;fill-opacity:1;stroke-opacity:0.3" />
<rect x="628" y="42" width="63" height="5" style="fill:#f5b024;stroke:black;stroke-width:1;fill-opacity:1;stroke-opacity:0.3" />
<line x1="611" y1="107" x2="625" y2="109" stroke="black" stroke-width="1" />
<line x1="625" y1="109" x2="639" y2="107" stroke="black" stroke-width="1" />
<rect x="547" y="105" width="63" height="5" style="fill:#f5b024;stroke:black;stroke-width:1;fill-opacity:1;stroke-opacity:0.3" />
<rect x="639" y="105" width="63" height="5" style="fill:#f5b024;stroke:black;stroke-width:1;fill-opacity:1;stroke-opacity:0.3" />
<line x1="611" y1="114" x2="617" y2="116" stroke="black" stroke-width="1" />
<line x1="617" y1="116" x2="623" y2="114" stroke="black" stroke-width="1" />
<rect x="547" y="112" width="63" height="5" style="fill:#f5b024;stroke:black;stroke-width:1;fill-opacity:1;stroke-opacity:0.3" />
<rect x="623" y="112" width="63" height="5" style="fill:#f5b024;stroke:black;stroke-width:1;fill-opacity:1;stroke-opacity:0.3" />
<line x1="655" y1="121" x2="665" y2="123" stroke="black" stroke-width="1" />
<line x1="665" y1="123" x2="675" y2="121" stroke="black" stroke-width="1" />
<rect x="559" y="119" width="95" height="5" style="fill:#f5b024;stroke:black;stroke-width:1;fill-opacity:1;stroke-opacity:0.3" />
<rect x="675" y="119" width="95" height="5" style="fill:#f5b024;stroke:black;stroke-width:1;fill-opacity:1;stroke-opacity:0.3" />
<line x1="626" y1="128" x2="633" y2="130" stroke="black" stroke-width="1" />
<line x1="633" y1="130" x2="640" y2="128" stroke="black" stroke-width="1" />
<rect x="563" y="126" width="63" height="5" style="fill:#f5b024;stroke:black;stroke-width:1;fill-opacity:1;stroke-opacity:0.3" />
<rect x="640" y="126" width="62" height="5" style="fill:#f5b024;stroke:black;stroke-width:1;fill-opacity:1;stroke-opacity:0.3" />
<line x1="712" y1="30" x2="724" y2="32" stroke="black" stroke-width="1" />
<line x1="724" y1="32" x2="737" y2="30" stroke="black" stroke-width="1" />
<rect x="648" y="28" width="63" height="5" style="fill:#f5b024;stroke:black;stroke-width:1;fill-opacity:1;stroke-opacity:0.3" />
<rect x="737" y="28" width="63" height="5" style="fill:#f5b024;stroke:black;stroke-width:1;fill-opacity:1;stroke-opacity:0.3" />
<line x1="779" y1="37" x2="787" y2="39" stroke="black" stroke-width="1" />
<line x1="787" y1="39" x2="795" y2="37" stroke="black" stroke-width="1" />
<rect x="715" y="35" width="63" height="5" style="fill:#f5b024;stroke:black;stroke-width:1;fill-opacity:1;stroke-opacity:0.3" />
<rect x="795" y="35" width="63" height="5" style="fill:#f5b024;stroke:black;stroke-width:1;fill-opacity:1;stroke-opacity:0.3" />
<line x1="870" y1="30" x2="875" y2="32" stroke="black" stroke-width="1" />
<line x1="875" y1="32" x2="880" y2="30" stroke="black" stroke-width="1" />
<rect x="806" y="28" width="63" height="5" style="fill:#f5b024;stroke:black;stroke-width:1;fill-opacity:1;stroke-opacity:0.3" />
<rect x="880" y="28" width="63" height="5" style="fill:#f5b024;stroke:black;stroke-width:1;fill-opacity:1;stroke-opacity:0.3" />
<text x="15"  y="176" style="font-family:Arial;font-size:10;stroke:black;fill:black;">all.merged.bam</text>
</svg>
    
