<?xml version="1.0" encoding="utf-8" standalone="no"?>
<!DOCTYPE svg PUBLIC "-//W3C//DTD SVG 1.1//EN"
  "http://www.w3.org/Graphics/SVG/1.1/DTD/svg11.dtd">
<svg height="1140" width="1000" version="1.1" viewBox="0 0 1000 1140" xmlns="http://www.w3.org/2000/svg" xmlns:xlink="http://www.w3.org/1999/xlink">
<line x1="99" y1="11" x2="899" y2="11" stroke="black" stroke-width="1" />
<rect x="99" y="9" width="107" height="5" style="fill:#f50002;stroke:black;stroke-width:1;fill-opacity:1;stroke-opacity:0.3" />
<rect x="208" y="9" width="160" height="5" style="fill:#53a1b5;stroke:black;stroke-width:1;fill-opacity:1;stroke-opacity:0.3" />
<rect x="776" y="9" width="76" height="5" style="fill:#53a1b5;stroke:black;stroke-width:1;fill-opacity:1;stroke-opacity:0.3" />
<rect x="854" y="9" width="44" height="5" style="fill:#f50002;stroke:black;stroke-width:1;fill-opacity:1;stroke-opacity:0.3" />
<text x="99"  y="23" style="font-family:Arial;font-size:10;stroke:black;fill:black;">Cre01.g007901.t2.1.v5.5 (+) chromosome_1:1522808-1523609</text>
<line x1="177" y1="30" x2="189" y2="32" stroke="black" stroke-width="1" />
<line x1="189" y1="32" x2="202" y2="30" stroke="black" stroke-width="1" />
<rect x="77" y="28" width="99" height="5" style="fill:#5d3c2d;stroke:black;stroke-width:1;fill-opacity:1;stroke-opacity:0.3" />
<rect x="202" y="28" width="99" height="5" style="fill:#5d3c2d;stroke:black;stroke-width:1;fill-opacity:1;stroke-opacity:0.3" />
<line x1="178" y1="37" x2="197" y2="39" stroke="black" stroke-width="1" />
<line x1="197" y1="39" x2="216" y2="37" stroke="black" stroke-width="1" />
<rect x="78" y="35" width="99" height="5" style="fill:#f5b024;stroke:black;stroke-width:1;fill-opacity:1;stroke-opacity:0.3" />
<rect x="216" y="35" width="99" height="5" style="fill:#f5b024;stroke:black;stroke-width:1;fill-opacity:1;stroke-opacity:0.3" />
<line x1="178" y1="44" x2="197" y2="46" stroke="black" stroke-width="1" />
<line x1="197" y1="46" x2="216" y2="44" stroke="black" stroke-width="1" />
<rect x="78" y="42" width="99" height="5" style="fill:#f5b024;stroke:black;stroke-width:1;fill-opacity:1;stroke-opacity:0.3" />
<rect x="216" y="42" width="99" height="5" style="fill:#f5b024;stroke:black;stroke-width:1;fill-opacity:1;stroke-opacity:0.3" />
<line x1="229" y1="51" x2="238" y2="53" stroke="black" stroke-width="1" />
<line x1="238" y1="53" x2="247" y2="51" stroke="black" stroke-width="1" />
<rect x="79" y="49" width="149" height="5" style="fill:#5d3c2d;stroke:black;stroke-width:1;fill-opacity:1;stroke-opacity:0.3" />
<rect x="247" y="49" width="122" height="5" style="fill:#5d3c2d;stroke:black;stroke-width:1;fill-opacity:1;stroke-opacity:0.3" />
<line x1="370" y1="51" x2="776" y2="51" stroke="pink" stroke-width="1" />
<rect x="776" y="49" width="24" height="5" style="fill:#5d3c2d;stroke:black;stroke-width:1;fill-opacity:1;stroke-opacity:0.3" />
<line x1="181" y1="58" x2="207" y2="60" stroke="black" stroke-width="1" />
<line x1="207" y1="60" x2="234" y2="58" stroke="black" stroke-width="1" />
<rect x="81" y="56" width="99" height="5" style="fill:#5d3c2d;stroke:black;stroke-width:1;fill-opacity:1;stroke-opacity:0.3" />
<rect x="234" y="56" width="99" height="5" style="fill:#5d3c2d;stroke:black;stroke-width:1;fill-opacity:1;stroke-opacity:0.3" />
<line x1="230" y1="65" x2="235" y2="67" stroke="black" stroke-width="1" />
<line x1="235" y1="67" x2="241" y2="65" stroke="black" stroke-width="1" />
<rect x="81" y="63" width="148" height="5" style="fill:#5d3c2d;stroke:black;stroke-width:1;fill-opacity:1;stroke-opacity:0.3" />
<rect x="241" y="63" width="128" height="5" style="fill:#5d3c2d;stroke:black;stroke-width:1;fill-opacity:1;stroke-opacity:0.3" />
<line x1="370" y1="65" x2="776" y2="65" stroke="pink" stroke-width="1" />
<rect x="776" y="63" width="20" height="5" style="fill:#5d3c2d;stroke:black;stroke-width:1;fill-opacity:1;stroke-opacity:0.3" />
<line x1="236" y1="72" x2="243" y2="74" stroke="black" stroke-width="1" />
<line x1="243" y1="74" x2="250" y2="72" stroke="black" stroke-width="1" />
<rect x="87" y="70" width="148" height="5" style="fill:#5d3c2d;stroke:black;stroke-width:1;fill-opacity:1;stroke-opacity:0.3" />
<rect x="250" y="70" width="119" height="5" style="fill:#5d3c2d;stroke:black;stroke-width:1;fill-opacity:1;stroke-opacity:0.3" />
<line x1="370" y1="72" x2="776" y2="72" stroke="pink" stroke-width="1" />
<rect x="776" y="70" width="29" height="5" style="fill:#5d3c2d;stroke:black;stroke-width:1;fill-opacity:1;stroke-opacity:0.3" />
<line x1="237" y1="79" x2="262" y2="81" stroke="black" stroke-width="1" />
<line x1="262" y1="81" x2="287" y2="79" stroke="black" stroke-width="1" />
<rect x="87" y="77" width="149" height="5" style="fill:#5d3c2d;stroke:black;stroke-width:1;fill-opacity:1;stroke-opacity:0.3" />
<rect x="287" y="77" width="82" height="5" style="fill:#5d3c2d;stroke:black;stroke-width:1;fill-opacity:1;stroke-opacity:0.3" />
<line x1="370" y1="79" x2="776" y2="79" stroke="pink" stroke-width="1" />
<rect x="776" y="77" width="66" height="5" style="fill:#5d3c2d;stroke:black;stroke-width:1;fill-opacity:1;stroke-opacity:0.3" />
<line x1="189" y1="86" x2="199" y2="88" stroke="black" stroke-width="1" />
<line x1="199" y1="88" x2="209" y2="86" stroke="black" stroke-width="1" />
<rect x="89" y="84" width="99" height="5" style="fill:#5d3c2d;stroke:black;stroke-width:1;fill-opacity:1;stroke-opacity:0.3" />
<rect x="209" y="84" width="99" height="5" style="fill:#5d3c2d;stroke:black;stroke-width:1;fill-opacity:1;stroke-opacity:0.3" />
<line x1="239" y1="93" x2="244" y2="95" stroke="black" stroke-width="1" />
<line x1="244" y1="95" x2="250" y2="93" stroke="black" stroke-width="1" />
<rect x="89" y="91" width="149" height="5" style="fill:#5d3c2d;stroke:black;stroke-width:1;fill-opacity:1;stroke-opacity:0.3" />
<rect x="250" y="91" width="119" height="5" style="fill:#5d3c2d;stroke:black;stroke-width:1;fill-opacity:1;stroke-opacity:0.3" />
<line x1="370" y1="93" x2="776" y2="93" stroke="pink" stroke-width="1" />
<rect x="776" y="91" width="29" height="5" style="fill:#5d3c2d;stroke:black;stroke-width:1;fill-opacity:1;stroke-opacity:0.3" />
<line x1="241" y1="100" x2="253" y2="102" stroke="black" stroke-width="1" />
<line x1="253" y1="102" x2="266" y2="100" stroke="black" stroke-width="1" />
<rect x="91" y="98" width="149" height="5" style="fill:#5d3c2d;stroke:black;stroke-width:1;fill-opacity:1;stroke-opacity:0.3" />
<rect x="266" y="98" width="103" height="5" style="fill:#5d3c2d;stroke:black;stroke-width:1;fill-opacity:1;stroke-opacity:0.3" />
<line x1="370" y1="100" x2="776" y2="100" stroke="pink" stroke-width="1" />
<rect x="776" y="98" width="44" height="5" style="fill:#5d3c2d;stroke:black;stroke-width:1;fill-opacity:1;stroke-opacity:0.3" />
<line x1="246" y1="107" x2="259" y2="109" stroke="black" stroke-width="1" />
<line x1="259" y1="109" x2="272" y2="107" stroke="black" stroke-width="1" />
<rect x="96" y="105" width="149" height="5" style="fill:#5d3c2d;stroke:black;stroke-width:1;fill-opacity:1;stroke-opacity:0.3" />
<rect x="272" y="105" width="97" height="5" style="fill:#5d3c2d;stroke:black;stroke-width:1;fill-opacity:1;stroke-opacity:0.3" />
<line x1="370" y1="107" x2="776" y2="107" stroke="pink" stroke-width="1" />
<rect x="776" y="105" width="50" height="5" style="fill:#5d3c2d;stroke:black;stroke-width:1;fill-opacity:1;stroke-opacity:0.3" />
<line x1="247" y1="114" x2="253" y2="116" stroke="black" stroke-width="1" />
<line x1="253" y1="116" x2="260" y2="114" stroke="black" stroke-width="1" />
<rect x="97" y="112" width="149" height="5" style="fill:#5d3c2d;stroke:black;stroke-width:1;fill-opacity:1;stroke-opacity:0.3" />
<rect x="260" y="112" width="109" height="5" style="fill:#5d3c2d;stroke:black;stroke-width:1;fill-opacity:1;stroke-opacity:0.3" />
<line x1="370" y1="114" x2="776" y2="114" stroke="pink" stroke-width="1" />
<rect x="776" y="112" width="39" height="5" style="fill:#5d3c2d;stroke:black;stroke-width:1;fill-opacity:1;stroke-opacity:0.3" />
<line x1="199" y1="121" x2="210" y2="123" stroke="black" stroke-width="1" />
<line x1="210" y1="123" x2="222" y2="121" stroke="black" stroke-width="1" />
<rect x="99" y="119" width="99" height="5" style="fill:#5d3c2d;stroke:black;stroke-width:1;fill-opacity:1;stroke-opacity:0.3" />
<rect x="222" y="119" width="98" height="5" style="fill:#5d3c2d;stroke:black;stroke-width:1;fill-opacity:1;stroke-opacity:0.3" />
<line x1="262" y1="128" x2="267" y2="130" stroke="black" stroke-width="1" />
<line x1="267" y1="130" x2="272" y2="128" stroke="black" stroke-width="1" />
<rect x="112" y="126" width="149" height="5" style="fill:#5d3c2d;stroke:black;stroke-width:1;fill-opacity:1;stroke-opacity:0.3" />
<rect x="272" y="126" width="97" height="5" style="fill:#5d3c2d;stroke:black;stroke-width:1;fill-opacity:1;stroke-opacity:0.3" />
<line x1="370" y1="128" x2="776" y2="128" stroke="pink" stroke-width="1" />
<rect x="776" y="126" width="50" height="5" style="fill:#5d3c2d;stroke:black;stroke-width:1;fill-opacity:1;stroke-opacity:0.3" />
<line x1="263" y1="135" x2="273" y2="137" stroke="black" stroke-width="1" />
<line x1="273" y1="137" x2="284" y2="135" stroke="black" stroke-width="1" />
<rect x="114" y="133" width="148" height="5" style="fill:#5d3c2d;stroke:black;stroke-width:1;fill-opacity:1;stroke-opacity:0.3" />
<rect x="284" y="133" width="85" height="5" style="fill:#5d3c2d;stroke:black;stroke-width:1;fill-opacity:1;stroke-opacity:0.3" />
<line x1="370" y1="135" x2="776" y2="135" stroke="pink" stroke-width="1" />
<rect x="776" y="133" width="62" height="5" style="fill:#5d3c2d;stroke:black;stroke-width:1;fill-opacity:1;stroke-opacity:0.3" />
<line x1="215" y1="142" x2="224" y2="144" stroke="black" stroke-width="1" />
<line x1="224" y1="144" x2="233" y2="142" stroke="black" stroke-width="1" />
<rect x="115" y="140" width="99" height="5" style="fill:#5d3c2d;stroke:black;stroke-width:1;fill-opacity:1;stroke-opacity:0.3" />
<rect x="233" y="140" width="99" height="5" style="fill:#5d3c2d;stroke:black;stroke-width:1;fill-opacity:1;stroke-opacity:0.3" />
<line x1="225" y1="149" x2="274" y2="151" stroke="black" stroke-width="1" />
<line x1="274" y1="151" x2="324" y2="149" stroke="black" stroke-width="1" />
<rect x="125" y="147" width="99" height="5" style="fill:#5d3c2d;stroke:black;stroke-width:1;fill-opacity:1;stroke-opacity:0.3" />
<rect x="324" y="147" width="45" height="5" style="fill:#5d3c2d;stroke:black;stroke-width:1;fill-opacity:1;stroke-opacity:0.3" />
<line x1="370" y1="149" x2="776" y2="149" stroke="pink" stroke-width="1" />
<rect x="776" y="147" width="53" height="5" style="fill:#5d3c2d;stroke:black;stroke-width:1;fill-opacity:1;stroke-opacity:0.3" />
<line x1="226" y1="156" x2="234" y2="158" stroke="black" stroke-width="1" />
<line x1="234" y1="158" x2="243" y2="156" stroke="black" stroke-width="1" />
<rect x="126" y="154" width="99" height="5" style="fill:#5d3c2d;stroke:black;stroke-width:1;fill-opacity:1;stroke-opacity:0.3" />
<rect x="243" y="154" width="99" height="5" style="fill:#5d3c2d;stroke:black;stroke-width:1;fill-opacity:1;stroke-opacity:0.3" />
<line x1="226" y1="163" x2="253" y2="165" stroke="black" stroke-width="1" />
<line x1="253" y1="165" x2="281" y2="163" stroke="black" stroke-width="1" />
<rect x="126" y="161" width="99" height="5" style="fill:#5d3c2d;stroke:black;stroke-width:1;fill-opacity:1;stroke-opacity:0.3" />
<rect x="281" y="161" width="88" height="5" style="fill:#5d3c2d;stroke:black;stroke-width:1;fill-opacity:1;stroke-opacity:0.3" />
<line x1="370" y1="163" x2="776" y2="163" stroke="pink" stroke-width="1" />
<rect x="776" y="161" width="10" height="5" style="fill:#5d3c2d;stroke:black;stroke-width:1;fill-opacity:1;stroke-opacity:0.3" />
<line x1="506" y1="30" x2="516" y2="32" stroke="black" stroke-width="1" />
<line x1="516" y1="32" x2="526" y2="30" stroke="black" stroke-width="1" />
<rect x="407" y="28" width="99" height="5" style="fill:#f5b024;stroke:black;stroke-width:1;fill-opacity:1;stroke-opacity:0.3" />
<rect x="526" y="28" width="98" height="5" style="fill:#f5b024;stroke:black;stroke-width:1;fill-opacity:1;stroke-opacity:0.3" />
<line x1="688" y1="37" x2="708" y2="39" stroke="black" stroke-width="1" />
<line x1="708" y1="39" x2="728" y2="37" stroke="black" stroke-width="1" />
<rect x="588" y="35" width="99" height="5" style="fill:#f5b024;stroke:black;stroke-width:1;fill-opacity:1;stroke-opacity:0.3" />
<rect x="728" y="35" width="99" height="5" style="fill:#f5b024;stroke:black;stroke-width:1;fill-opacity:1;stroke-opacity:0.3" />
<text x="15"  y="176" style="font-family:Arial;font-size:10;stroke:black;fill:black;">all.merged.bam</text>
</svg>
    
