<?xml version="1.0" encoding="utf-8" standalone="no"?>
<!DOCTYPE svg PUBLIC "-//W3C//DTD SVG 1.1//EN"
  "http://www.w3.org/Graphics/SVG/1.1/DTD/svg11.dtd">
<svg height="1140" width="1000" version="1.1" viewBox="0 0 1000 1140" xmlns="http://www.w3.org/2000/svg" xmlns:xlink="http://www.w3.org/1999/xlink">
<line x1="19" y1="11" x2="980" y2="11" stroke="black" stroke-width="1" />
<rect x="19" y="9" width="10" height="5" style="fill:#f50002;stroke:black;stroke-width:1;fill-opacity:1;stroke-opacity:0.3" />
<rect x="30" y="9" width="3" height="5" style="fill:#53a1b5;stroke:black;stroke-width:1;fill-opacity:1;stroke-opacity:0.3" />
<rect x="105" y="9" width="10" height="5" style="fill:#53a1b5;stroke:black;stroke-width:1;fill-opacity:1;stroke-opacity:0.3" />
<rect x="142" y="9" width="33" height="5" style="fill:#53a1b5;stroke:black;stroke-width:1;fill-opacity:1;stroke-opacity:0.3" />
<rect x="232" y="9" width="17" height="5" style="fill:#53a1b5;stroke:black;stroke-width:1;fill-opacity:1;stroke-opacity:0.3" />
<rect x="301" y="9" width="19" height="5" style="fill:#53a1b5;stroke:black;stroke-width:1;fill-opacity:1;stroke-opacity:0.3" />
<rect x="358" y="9" width="29" height="5" style="fill:#53a1b5;stroke:black;stroke-width:1;fill-opacity:1;stroke-opacity:0.3" />
<rect x="441" y="9" width="55" height="5" style="fill:#53a1b5;stroke:black;stroke-width:1;fill-opacity:1;stroke-opacity:0.3" />
<rect x="544" y="9" width="14" height="5" style="fill:#53a1b5;stroke:black;stroke-width:1;fill-opacity:1;stroke-opacity:0.3" />
<rect x="620" y="9" width="36" height="5" style="fill:#53a1b5;stroke:black;stroke-width:1;fill-opacity:1;stroke-opacity:0.3" />
<rect x="719" y="9" width="34" height="5" style="fill:#53a1b5;stroke:black;stroke-width:1;fill-opacity:1;stroke-opacity:0.3" />
<rect x="776" y="9" width="36" height="5" style="fill:#53a1b5;stroke:black;stroke-width:1;fill-opacity:1;stroke-opacity:0.3" />
<rect x="864" y="9" width="3" height="5" style="fill:#53a1b5;stroke:black;stroke-width:1;fill-opacity:1;stroke-opacity:0.3" />
<rect x="868" y="9" width="111" height="5" style="fill:#f50002;stroke:black;stroke-width:1;fill-opacity:1;stroke-opacity:0.3" />
<text x="19"  y="23" style="font-family:Arial;font-size:10;stroke:black;fill:black;">Cre07.g316526.t1.2.v5.5 (+) chromosome_7:561941-566842</text>
<line x1="150" y1="30" x2="152" y2="32" stroke="black" stroke-width="1" />
<line x1="152" y1="32" x2="155" y2="30" stroke="black" stroke-width="1" />
<rect x="105" y="28" width="10" height="5" style="fill:#5d3c2d;stroke:black;stroke-width:1;fill-opacity:1;stroke-opacity:0.3" />
<line x1="116" y1="30" x2="142" y2="30" stroke="pink" stroke-width="1" />
<rect x="142" y="28" width="7" height="5" style="fill:#5d3c2d;stroke:black;stroke-width:1;fill-opacity:1;stroke-opacity:0.3" />
<rect x="155" y="28" width="19" height="5" style="fill:#5d3c2d;stroke:black;stroke-width:1;fill-opacity:1;stroke-opacity:0.3" />
<line x1="157" y1="37" x2="196" y2="39" stroke="black" stroke-width="1" />
<line x1="196" y1="39" x2="235" y2="37" stroke="black" stroke-width="1" />
<rect x="113" y="35" width="2" height="5" style="fill:#5d3c2d;stroke:black;stroke-width:1;fill-opacity:1;stroke-opacity:0.3" />
<line x1="116" y1="37" x2="142" y2="37" stroke="pink" stroke-width="1" />
<rect x="142" y="35" width="14" height="5" style="fill:#5d3c2d;stroke:black;stroke-width:1;fill-opacity:1;stroke-opacity:0.3" />
<rect x="235" y="35" width="13" height="5" style="fill:#5d3c2d;stroke:black;stroke-width:1;fill-opacity:1;stroke-opacity:0.3" />
<line x1="249" y1="37" x2="301" y2="37" stroke="pink" stroke-width="1" />
<rect x="301" y="35" width="5" height="5" style="fill:#5d3c2d;stroke:black;stroke-width:1;fill-opacity:1;stroke-opacity:0.3" />
<line x1="313" y1="30" x2="313" y2="32" stroke="black" stroke-width="1" />
<line x1="313" y1="32" x2="314" y2="30" stroke="black" stroke-width="1" />
<rect x="231" y="28" width="17" height="5" style="fill:#5d3c2d;stroke:black;stroke-width:1;fill-opacity:1;stroke-opacity:0.3" />
<line x1="249" y1="30" x2="301" y2="30" stroke="pink" stroke-width="1" />
<rect x="301" y="28" width="11" height="5" style="fill:#5d3c2d;stroke:black;stroke-width:1;fill-opacity:1;stroke-opacity:0.3" />
<rect x="314" y="28" width="3" height="5" style="fill:#5d3c2d;stroke:black;stroke-width:1;fill-opacity:1;stroke-opacity:0.3" />
<rect x="318" y="28" width="3" height="5" style="fill:#5d3c2d;stroke:black;stroke-width:1;fill-opacity:1;stroke-opacity:0.3" />
<line x1="321" y1="30" x2="358" y2="30" stroke="pink" stroke-width="1" />
<rect x="358" y="28" width="22" height="5" style="fill:#5d3c2d;stroke:black;stroke-width:1;fill-opacity:1;stroke-opacity:0.3" />
<line x1="313" y1="44" x2="338" y2="46" stroke="black" stroke-width="1" />
<line x1="338" y1="46" x2="363" y2="44" stroke="black" stroke-width="1" />
<rect x="241" y="42" width="7" height="5" style="fill:#5d3c2d;stroke:black;stroke-width:1;fill-opacity:1;stroke-opacity:0.3" />
<line x1="249" y1="44" x2="301" y2="44" stroke="pink" stroke-width="1" />
<rect x="301" y="42" width="11" height="5" style="fill:#5d3c2d;stroke:black;stroke-width:1;fill-opacity:1;stroke-opacity:0.3" />
<rect x="363" y="42" width="19" height="5" style="fill:#5d3c2d;stroke:black;stroke-width:1;fill-opacity:1;stroke-opacity:0.3" />
<line x1="322" y1="51" x2="341" y2="53" stroke="black" stroke-width="1" />
<line x1="341" y1="53" x2="361" y2="51" stroke="black" stroke-width="1" />
<rect x="303" y="49" width="19" height="5" style="fill:#5d3c2d;stroke:black;stroke-width:1;fill-opacity:1;stroke-opacity:0.3" />
<rect x="361" y="49" width="19" height="5" style="fill:#5d3c2d;stroke:black;stroke-width:1;fill-opacity:1;stroke-opacity:0.3" />
<line x1="377" y1="37" x2="378" y2="39" stroke="black" stroke-width="1" />
<line x1="378" y1="39" x2="380" y2="37" stroke="black" stroke-width="1" />
<rect x="358" y="35" width="19" height="5" style="fill:#f5b024;stroke:black;stroke-width:1;fill-opacity:1;stroke-opacity:0.3" />
<rect x="380" y="35" width="7" height="5" style="fill:#f5b024;stroke:black;stroke-width:1;fill-opacity:1;stroke-opacity:0.3" />
<line x1="387" y1="37" x2="441" y2="37" stroke="pink" stroke-width="1" />
<rect x="441" y="35" width="11" height="5" style="fill:#f5b024;stroke:black;stroke-width:1;fill-opacity:1;stroke-opacity:0.3" />
<line x1="462" y1="30" x2="465" y2="32" stroke="black" stroke-width="1" />
<line x1="465" y1="32" x2="469" y2="30" stroke="black" stroke-width="1" />
<rect x="442" y="28" width="19" height="5" style="fill:#5d3c2d;stroke:black;stroke-width:1;fill-opacity:1;stroke-opacity:0.3" />
<rect x="469" y="28" width="19" height="5" style="fill:#5d3c2d;stroke:black;stroke-width:1;fill-opacity:1;stroke-opacity:0.3" />
<line x1="556" y1="37" x2="637" y2="39" stroke="black" stroke-width="1" />
<line x1="637" y1="39" x2="719" y2="37" stroke="black" stroke-width="1" />
<rect x="480" y="35" width="16" height="5" style="fill:#f5b024;stroke:black;stroke-width:1;fill-opacity:1;stroke-opacity:0.3" />
<line x1="497" y1="37" x2="544" y2="37" stroke="pink" stroke-width="1" />
<rect x="544" y="35" width="12" height="5" style="fill:#f5b024;stroke:black;stroke-width:1;fill-opacity:1;stroke-opacity:0.3" />
<rect x="719" y="35" width="29" height="5" style="fill:#f5b024;stroke:black;stroke-width:1;fill-opacity:1;stroke-opacity:0.3" />
<line x1="647" y1="30" x2="648" y2="32" stroke="black" stroke-width="1" />
<line x1="648" y1="32" x2="650" y2="30" stroke="black" stroke-width="1" />
<rect x="491" y="28" width="5" height="5" style="fill:#5d3c2d;stroke:black;stroke-width:1;fill-opacity:1;stroke-opacity:0.3" />
<line x1="497" y1="30" x2="544" y2="30" stroke="pink" stroke-width="1" />
<rect x="544" y="28" width="14" height="5" style="fill:#5d3c2d;stroke:black;stroke-width:1;fill-opacity:1;stroke-opacity:0.3" />
<line x1="558" y1="30" x2="638" y2="30" stroke="pink" stroke-width="1" />
<rect x="638" y="28" width="9" height="5" style="fill:#5d3c2d;stroke:black;stroke-width:1;fill-opacity:1;stroke-opacity:0.3" />
<rect x="650" y="28" width="28" height="5" style="fill:#5d3c2d;stroke:black;stroke-width:1;fill-opacity:1;stroke-opacity:0.3" />
<line x1="557" y1="44" x2="639" y2="46" stroke="black" stroke-width="1" />
<line x1="639" y1="46" x2="721" y2="44" stroke="black" stroke-width="1" />
<rect x="527" y="42" width="6" height="5" style="fill:#5d3c2d;stroke:black;stroke-width:1;fill-opacity:1;stroke-opacity:0.3" />
<rect x="533" y="42" width="23" height="5" style="fill:#5d3c2d;stroke:black;stroke-width:1;fill-opacity:1;stroke-opacity:0.3" />
<rect x="721" y="42" width="29" height="5" style="fill:#5d3c2d;stroke:black;stroke-width:1;fill-opacity:1;stroke-opacity:0.3" />
<line x1="590" y1="51" x2="598" y2="53" stroke="black" stroke-width="1" />
<line x1="598" y1="53" x2="607" y2="51" stroke="black" stroke-width="1" />
<rect x="571" y="49" width="19" height="5" style="fill:#5d3c2d;stroke:black;stroke-width:1;fill-opacity:1;stroke-opacity:0.3" />
<rect x="607" y="49" width="19" height="5" style="fill:#5d3c2d;stroke:black;stroke-width:1;fill-opacity:1;stroke-opacity:0.3" />
<line x1="603" y1="58" x2="612" y2="60" stroke="black" stroke-width="1" />
<line x1="612" y1="60" x2="622" y2="58" stroke="black" stroke-width="1" />
<rect x="583" y="56" width="19" height="5" style="fill:#5d3c2d;stroke:black;stroke-width:1;fill-opacity:1;stroke-opacity:0.3" />
<rect x="622" y="56" width="19" height="5" style="fill:#5d3c2d;stroke:black;stroke-width:1;fill-opacity:1;stroke-opacity:0.3" />
<line x1="655" y1="51" x2="659" y2="53" stroke="black" stroke-width="1" />
<line x1="659" y1="53" x2="663" y2="51" stroke="black" stroke-width="1" />
<rect x="635" y="49" width="19" height="5" style="fill:#5d3c2d;stroke:black;stroke-width:1;fill-opacity:1;stroke-opacity:0.3" />
<rect x="663" y="49" width="19" height="5" style="fill:#5d3c2d;stroke:black;stroke-width:1;fill-opacity:1;stroke-opacity:0.3" />
<line x1="669" y1="58" x2="671" y2="60" stroke="black" stroke-width="1" />
<line x1="671" y1="60" x2="674" y2="58" stroke="black" stroke-width="1" />
<rect x="649" y="56" width="19" height="5" style="fill:#5d3c2d;stroke:black;stroke-width:1;fill-opacity:1;stroke-opacity:0.3" />
<rect x="674" y="56" width="19" height="5" style="fill:#5d3c2d;stroke:black;stroke-width:1;fill-opacity:1;stroke-opacity:0.3" />
<line x1="689" y1="65" x2="697" y2="67" stroke="black" stroke-width="1" />
<line x1="697" y1="67" x2="705" y2="65" stroke="black" stroke-width="1" />
<rect x="670" y="63" width="19" height="5" style="fill:#5d3c2d;stroke:black;stroke-width:1;fill-opacity:1;stroke-opacity:0.3" />
<rect x="705" y="63" width="19" height="5" style="fill:#5d3c2d;stroke:black;stroke-width:1;fill-opacity:1;stroke-opacity:0.3" />
<line x1="706" y1="30" x2="720" y2="32" stroke="black" stroke-width="1" />
<line x1="720" y1="32" x2="735" y2="30" stroke="black" stroke-width="1" />
<rect x="686" y="28" width="19" height="5" style="fill:#5d3c2d;stroke:black;stroke-width:1;fill-opacity:1;stroke-opacity:0.3" />
<rect x="735" y="28" width="18" height="5" style="fill:#5d3c2d;stroke:black;stroke-width:1;fill-opacity:1;stroke-opacity:0.3" />
<line x1="707" y1="51" x2="708" y2="53" stroke="black" stroke-width="1" />
<line x1="708" y1="53" x2="709" y2="51" stroke="black" stroke-width="1" />
<rect x="687" y="49" width="19" height="5" style="fill:#5d3c2d;stroke:black;stroke-width:1;fill-opacity:1;stroke-opacity:0.3" />
<rect x="709" y="49" width="19" height="5" style="fill:#5d3c2d;stroke:black;stroke-width:1;fill-opacity:1;stroke-opacity:0.3" />
<line x1="738" y1="58" x2="740" y2="60" stroke="black" stroke-width="1" />
<line x1="740" y1="60" x2="743" y2="58" stroke="black" stroke-width="1" />
<rect x="719" y="56" width="19" height="5" style="fill:#5d3c2d;stroke:black;stroke-width:1;fill-opacity:1;stroke-opacity:0.3" />
<rect x="743" y="56" width="10" height="5" style="fill:#5d3c2d;stroke:black;stroke-width:1;fill-opacity:1;stroke-opacity:0.3" />
<line x1="754" y1="58" x2="776" y2="58" stroke="pink" stroke-width="1" />
<rect x="776" y="56" width="8" height="5" style="fill:#5d3c2d;stroke:black;stroke-width:1;fill-opacity:1;stroke-opacity:0.3" />
<line x1="751" y1="72" x2="764" y2="74" stroke="black" stroke-width="1" />
<line x1="764" y1="74" x2="777" y2="72" stroke="black" stroke-width="1" />
<rect x="722" y="70" width="29" height="5" style="fill:#f5b024;stroke:black;stroke-width:1;fill-opacity:1;stroke-opacity:0.3" />
<rect x="777" y="70" width="28" height="5" style="fill:#f5b024;stroke:black;stroke-width:1;fill-opacity:1;stroke-opacity:0.3" />
<line x1="873" y1="30" x2="878" y2="32" stroke="black" stroke-width="1" />
<line x1="878" y1="32" x2="883" y2="30" stroke="black" stroke-width="1" />
<rect x="793" y="28" width="19" height="5" style="fill:#f5b024;stroke:black;stroke-width:1;fill-opacity:1;stroke-opacity:0.3" />
<line x1="813" y1="30" x2="864" y2="30" stroke="pink" stroke-width="1" />
<rect x="864" y="28" width="9" height="5" style="fill:#f5b024;stroke:black;stroke-width:1;fill-opacity:1;stroke-opacity:0.3" />
<rect x="883" y="28" width="29" height="5" style="fill:#f5b024;stroke:black;stroke-width:1;fill-opacity:1;stroke-opacity:0.3" />
<line x1="865" y1="37" x2="872" y2="39" stroke="black" stroke-width="1" />
<line x1="872" y1="39" x2="880" y2="37" stroke="black" stroke-width="1" />
<rect x="795" y="35" width="18" height="5" style="fill:#5d3c2d;stroke:black;stroke-width:1;fill-opacity:1;stroke-opacity:0.3" />
<line x1="813" y1="37" x2="864" y2="37" stroke="pink" stroke-width="1" />
<rect x="864" y="35" width="1" height="5" style="fill:#5d3c2d;stroke:black;stroke-width:1;fill-opacity:1;stroke-opacity:0.3" />
<rect x="880" y="35" width="19" height="5" style="fill:#5d3c2d;stroke:black;stroke-width:1;fill-opacity:1;stroke-opacity:0.3" />
<line x1="870" y1="44" x2="871" y2="46" stroke="black" stroke-width="1" />
<line x1="871" y1="46" x2="873" y2="44" stroke="black" stroke-width="1" />
<rect x="800" y="42" width="13" height="5" style="fill:#5d3c2d;stroke:black;stroke-width:1;fill-opacity:1;stroke-opacity:0.3" />
<line x1="813" y1="44" x2="864" y2="44" stroke="pink" stroke-width="1" />
<rect x="864" y="42" width="5" height="5" style="fill:#5d3c2d;stroke:black;stroke-width:1;fill-opacity:1;stroke-opacity:0.3" />
<rect x="873" y="42" width="19" height="5" style="fill:#5d3c2d;stroke:black;stroke-width:1;fill-opacity:1;stroke-opacity:0.3" />
<line x1="885" y1="51" x2="892" y2="53" stroke="black" stroke-width="1" />
<line x1="892" y1="53" x2="900" y2="51" stroke="black" stroke-width="1" />
<rect x="865" y="49" width="19" height="5" style="fill:#5d3c2d;stroke:black;stroke-width:1;fill-opacity:1;stroke-opacity:0.3" />
<rect x="900" y="49" width="19" height="5" style="fill:#5d3c2d;stroke:black;stroke-width:1;fill-opacity:1;stroke-opacity:0.3" />
<line x1="901" y1="58" x2="902" y2="60" stroke="black" stroke-width="1" />
<line x1="902" y1="60" x2="904" y2="58" stroke="black" stroke-width="1" />
<rect x="882" y="56" width="19" height="5" style="fill:#5d3c2d;stroke:black;stroke-width:1;fill-opacity:1;stroke-opacity:0.3" />
<rect x="904" y="56" width="19" height="5" style="fill:#5d3c2d;stroke:black;stroke-width:1;fill-opacity:1;stroke-opacity:0.3" />
<line x1="902" y1="65" x2="907" y2="67" stroke="black" stroke-width="1" />
<line x1="907" y1="67" x2="912" y2="65" stroke="black" stroke-width="1" />
<rect x="882" y="63" width="19" height="5" style="fill:#5d3c2d;stroke:black;stroke-width:1;fill-opacity:1;stroke-opacity:0.3" />
<rect x="912" y="63" width="19" height="5" style="fill:#5d3c2d;stroke:black;stroke-width:1;fill-opacity:1;stroke-opacity:0.3" />
<line x1="919" y1="37" x2="927" y2="39" stroke="black" stroke-width="1" />
<line x1="927" y1="39" x2="935" y2="37" stroke="black" stroke-width="1" />
<rect x="899" y="35" width="19" height="5" style="fill:#f5b024;stroke:black;stroke-width:1;fill-opacity:1;stroke-opacity:0.3" />
<rect x="935" y="35" width="19" height="5" style="fill:#f5b024;stroke:black;stroke-width:1;fill-opacity:1;stroke-opacity:0.3" />
<line x1="920" y1="44" x2="921" y2="46" stroke="black" stroke-width="1" />
<line x1="921" y1="46" x2="923" y2="44" stroke="black" stroke-width="1" />
<rect x="901" y="42" width="19" height="5" style="fill:#5d3c2d;stroke:black;stroke-width:1;fill-opacity:1;stroke-opacity:0.3" />
<rect x="923" y="42" width="19" height="5" style="fill:#5d3c2d;stroke:black;stroke-width:1;fill-opacity:1;stroke-opacity:0.3" />
<line x1="923" y1="72" x2="927" y2="74" stroke="black" stroke-width="1" />
<line x1="927" y1="74" x2="931" y2="72" stroke="black" stroke-width="1" />
<rect x="903" y="70" width="19" height="5" style="fill:#5d3c2d;stroke:black;stroke-width:1;fill-opacity:1;stroke-opacity:0.3" />
<rect x="931" y="70" width="19" height="5" style="fill:#5d3c2d;stroke:black;stroke-width:1;fill-opacity:1;stroke-opacity:0.3" />
<line x1="936" y1="79" x2="938" y2="81" stroke="black" stroke-width="1" />
<line x1="938" y1="81" x2="940" y2="79" stroke="black" stroke-width="1" />
<rect x="906" y="77" width="29" height="5" style="fill:#5d3c2d;stroke:black;stroke-width:1;fill-opacity:1;stroke-opacity:0.3" />
<rect x="940" y="77" width="29" height="5" style="fill:#5d3c2d;stroke:black;stroke-width:1;fill-opacity:1;stroke-opacity:0.3" />
<line x1="935" y1="86" x2="937" y2="88" stroke="black" stroke-width="1" />
<line x1="937" y1="88" x2="939" y2="86" stroke="black" stroke-width="1" />
<rect x="906" y="84" width="28" height="5" style="fill:#5d3c2d;stroke:black;stroke-width:1;fill-opacity:1;stroke-opacity:0.3" />
<rect x="939" y="84" width="29" height="5" style="fill:#5d3c2d;stroke:black;stroke-width:1;fill-opacity:1;stroke-opacity:0.3" />
<line x1="938" y1="30" x2="943" y2="32" stroke="black" stroke-width="1" />
<line x1="943" y1="32" x2="948" y2="30" stroke="black" stroke-width="1" />
<rect x="919" y="28" width="19" height="5" style="fill:#5d3c2d;stroke:black;stroke-width:1;fill-opacity:1;stroke-opacity:0.3" />
<rect x="948" y="28" width="19" height="5" style="fill:#5d3c2d;stroke:black;stroke-width:1;fill-opacity:1;stroke-opacity:0.3" />
<line x1="956" y1="51" x2="958" y2="53" stroke="black" stroke-width="1" />
<line x1="958" y1="53" x2="961" y2="51" stroke="black" stroke-width="1" />
<rect x="927" y="49" width="29" height="5" style="fill:#5d3c2d;stroke:black;stroke-width:1;fill-opacity:1;stroke-opacity:0.3" />
<rect x="961" y="49" width="29" height="5" style="fill:#5d3c2d;stroke:black;stroke-width:1;fill-opacity:1;stroke-opacity:0.3" />
<line x1="953" y1="58" x2="961" y2="60" stroke="black" stroke-width="1" />
<line x1="961" y1="60" x2="970" y2="58" stroke="black" stroke-width="1" />
<rect x="933" y="56" width="19" height="5" style="fill:#5d3c2d;stroke:black;stroke-width:1;fill-opacity:1;stroke-opacity:0.3" />
<rect x="970" y="56" width="19" height="5" style="fill:#5d3c2d;stroke:black;stroke-width:1;fill-opacity:1;stroke-opacity:0.3" />
<line x1="968" y1="44" x2="970" y2="46" stroke="black" stroke-width="1" />
<line x1="970" y1="46" x2="973" y2="44" stroke="black" stroke-width="1" />
<rect x="948" y="42" width="19" height="5" style="fill:#5d3c2d;stroke:black;stroke-width:1;fill-opacity:1;stroke-opacity:0.3" />
<rect x="973" y="42" width="19" height="5" style="fill:#5d3c2d;stroke:black;stroke-width:1;fill-opacity:1;stroke-opacity:0.3" />
<text x="15"  y="176" style="font-family:Arial;font-size:10;stroke:black;fill:black;">all.merged.bam</text>
</svg>
    
