<?xml version="1.0" encoding="utf-8" standalone="no"?>
<!DOCTYPE svg PUBLIC "-//W3C//DTD SVG 1.1//EN"
  "http://www.w3.org/Graphics/SVG/1.1/DTD/svg11.dtd">
<svg height="1140" width="1000" version="1.1" viewBox="0 0 1000 1140" xmlns="http://www.w3.org/2000/svg" xmlns:xlink="http://www.w3.org/1999/xlink">
<line x1="74" y1="11" x2="924" y2="11" stroke="black" stroke-width="1" />
<rect x="74" y="9" width="86" height="5" style="fill:#f50002;stroke:black;stroke-width:1;fill-opacity:1;stroke-opacity:0.3" />
<rect x="277" y="9" width="36" height="5" style="fill:#f50002;stroke:black;stroke-width:1;fill-opacity:1;stroke-opacity:0.3" />
<rect x="315" y="9" width="371" height="5" style="fill:#53a1b5;stroke:black;stroke-width:1;fill-opacity:1;stroke-opacity:0.3" />
<rect x="753" y="9" width="137" height="5" style="fill:#53a1b5;stroke:black;stroke-width:1;fill-opacity:1;stroke-opacity:0.3" />
<rect x="891" y="9" width="33" height="5" style="fill:#f50002;stroke:black;stroke-width:1;fill-opacity:1;stroke-opacity:0.3" />
<text x="74"  y="23" style="font-family:Arial;font-size:10;stroke:black;fill:black;">Cre08.g385750.t1.2.v5.5 (-) chromosome_8:4977360-4978505</text>
<line x1="75" y1="30" x2="83" y2="32" stroke="black" stroke-width="1" />
<line x1="83" y1="32" x2="92" y2="30" stroke="black" stroke-width="1" />
<rect x="1" y="28" width="74" height="5" style="fill:#5d3c2d;stroke:black;stroke-width:1;fill-opacity:1;stroke-opacity:0.3" />
<rect x="92" y="28" width="74" height="5" style="fill:#5d3c2d;stroke:black;stroke-width:1;fill-opacity:1;stroke-opacity:0.3" />
<line x1="75" y1="37" x2="82" y2="39" stroke="black" stroke-width="1" />
<line x1="82" y1="39" x2="89" y2="37" stroke="black" stroke-width="1" />
<rect x="1" y="35" width="74" height="5" style="fill:#5d3c2d;stroke:black;stroke-width:1;fill-opacity:1;stroke-opacity:0.3" />
<rect x="89" y="35" width="74" height="5" style="fill:#5d3c2d;stroke:black;stroke-width:1;fill-opacity:1;stroke-opacity:0.3" />
<line x1="83" y1="44" x2="87" y2="46" stroke="black" stroke-width="1" />
<line x1="87" y1="46" x2="92" y2="44" stroke="black" stroke-width="1" />
<rect x="8" y="42" width="74" height="5" style="fill:#5d3c2d;stroke:black;stroke-width:1;fill-opacity:1;stroke-opacity:0.3" />
<rect x="92" y="42" width="74" height="5" style="fill:#5d3c2d;stroke:black;stroke-width:1;fill-opacity:1;stroke-opacity:0.3" />
<line x1="83" y1="51" x2="97" y2="53" stroke="black" stroke-width="1" />
<line x1="97" y1="53" x2="111" y2="51" stroke="black" stroke-width="1" />
<rect x="9" y="49" width="74" height="5" style="fill:#5d3c2d;stroke:black;stroke-width:1;fill-opacity:1;stroke-opacity:0.3" />
<rect x="111" y="49" width="74" height="5" style="fill:#5d3c2d;stroke:black;stroke-width:1;fill-opacity:1;stroke-opacity:0.3" />
<line x1="85" y1="58" x2="89" y2="60" stroke="black" stroke-width="1" />
<line x1="89" y1="60" x2="93" y2="58" stroke="black" stroke-width="1" />
<rect x="11" y="56" width="74" height="5" style="fill:#5d3c2d;stroke:black;stroke-width:1;fill-opacity:1;stroke-opacity:0.3" />
<rect x="93" y="56" width="73" height="5" style="fill:#5d3c2d;stroke:black;stroke-width:1;fill-opacity:1;stroke-opacity:0.3" />
<line x1="85" y1="65" x2="98" y2="67" stroke="black" stroke-width="1" />
<line x1="98" y1="67" x2="111" y2="65" stroke="black" stroke-width="1" />
<rect x="11" y="63" width="74" height="5" style="fill:#5d3c2d;stroke:black;stroke-width:1;fill-opacity:1;stroke-opacity:0.3" />
<rect x="111" y="63" width="74" height="5" style="fill:#5d3c2d;stroke:black;stroke-width:1;fill-opacity:1;stroke-opacity:0.3" />
<line x1="86" y1="72" x2="99" y2="74" stroke="black" stroke-width="1" />
<line x1="99" y1="74" x2="112" y2="72" stroke="black" stroke-width="1" />
<rect x="12" y="70" width="74" height="5" style="fill:#5d3c2d;stroke:black;stroke-width:1;fill-opacity:1;stroke-opacity:0.3" />
<rect x="112" y="70" width="74" height="5" style="fill:#5d3c2d;stroke:black;stroke-width:1;fill-opacity:1;stroke-opacity:0.3" />
<line x1="90" y1="79" x2="100" y2="81" stroke="black" stroke-width="1" />
<line x1="100" y1="81" x2="111" y2="79" stroke="black" stroke-width="1" />
<rect x="16" y="77" width="74" height="5" style="fill:#5d3c2d;stroke:black;stroke-width:1;fill-opacity:1;stroke-opacity:0.3" />
<rect x="111" y="77" width="74" height="5" style="fill:#5d3c2d;stroke:black;stroke-width:1;fill-opacity:1;stroke-opacity:0.3" />
<line x1="97" y1="86" x2="106" y2="88" stroke="black" stroke-width="1" />
<line x1="106" y1="88" x2="115" y2="86" stroke="black" stroke-width="1" />
<rect x="23" y="84" width="74" height="5" style="fill:#5d3c2d;stroke:black;stroke-width:1;fill-opacity:1;stroke-opacity:0.3" />
<rect x="115" y="84" width="72" height="5" style="fill:#5d3c2d;stroke:black;stroke-width:1;fill-opacity:1;stroke-opacity:0.3" />
<line x1="118" y1="93" x2="143" y2="95" stroke="black" stroke-width="1" />
<line x1="143" y1="95" x2="168" y2="93" stroke="black" stroke-width="1" />
<rect x="43" y="91" width="74" height="5" style="fill:#f5b024;stroke:black;stroke-width:1;fill-opacity:1;stroke-opacity:0.3" />
<rect x="168" y="91" width="74" height="5" style="fill:#f5b024;stroke:black;stroke-width:1;fill-opacity:1;stroke-opacity:0.3" />
<line x1="141" y1="100" x2="153" y2="102" stroke="black" stroke-width="1" />
<line x1="153" y1="102" x2="165" y2="100" stroke="black" stroke-width="1" />
<rect x="66" y="98" width="74" height="5" style="fill:#5d3c2d;stroke:black;stroke-width:1;fill-opacity:1;stroke-opacity:0.3" />
<rect x="165" y="98" width="74" height="5" style="fill:#5d3c2d;stroke:black;stroke-width:1;fill-opacity:1;stroke-opacity:0.3" />
<line x1="320" y1="107" x2="328" y2="109" stroke="black" stroke-width="1" />
<line x1="328" y1="109" x2="336" y2="107" stroke="black" stroke-width="1" />
<rect x="135" y="105" width="26" height="5" style="fill:#f5b024;stroke:black;stroke-width:1;fill-opacity:1;stroke-opacity:0.3" />
<line x1="161" y1="107" x2="277" y2="107" stroke="pink" stroke-width="1" />
<rect x="277" y="105" width="42" height="5" style="fill:#f5b024;stroke:black;stroke-width:1;fill-opacity:1;stroke-opacity:0.3" />
<rect x="336" y="105" width="74" height="5" style="fill:#f5b024;stroke:black;stroke-width:1;fill-opacity:1;stroke-opacity:0.3" />
<line x1="321" y1="114" x2="325" y2="116" stroke="black" stroke-width="1" />
<line x1="325" y1="116" x2="329" y2="114" stroke="black" stroke-width="1" />
<rect x="135" y="112" width="26" height="5" style="fill:#f5b024;stroke:black;stroke-width:1;fill-opacity:1;stroke-opacity:0.3" />
<line x1="161" y1="114" x2="277" y2="114" stroke="pink" stroke-width="1" />
<rect x="277" y="112" width="43" height="5" style="fill:#f5b024;stroke:black;stroke-width:1;fill-opacity:1;stroke-opacity:0.3" />
<rect x="329" y="112" width="74" height="5" style="fill:#f5b024;stroke:black;stroke-width:1;fill-opacity:1;stroke-opacity:0.3" />
<line x1="321" y1="121" x2="375" y2="123" stroke="black" stroke-width="1" />
<line x1="375" y1="123" x2="430" y2="121" stroke="black" stroke-width="1" />
<rect x="135" y="119" width="26" height="5" style="fill:#f5b024;stroke:black;stroke-width:1;fill-opacity:1;stroke-opacity:0.3" />
<line x1="161" y1="121" x2="277" y2="121" stroke="pink" stroke-width="1" />
<rect x="277" y="119" width="43" height="5" style="fill:#f5b024;stroke:black;stroke-width:1;fill-opacity:1;stroke-opacity:0.3" />
<rect x="430" y="119" width="74" height="5" style="fill:#f5b024;stroke:black;stroke-width:1;fill-opacity:1;stroke-opacity:0.3" />
<line x1="331" y1="128" x2="340" y2="130" stroke="black" stroke-width="1" />
<line x1="340" y1="130" x2="349" y2="128" stroke="black" stroke-width="1" />
<rect x="140" y="126" width="20" height="5" style="fill:#f5b024;stroke:black;stroke-width:1;fill-opacity:1;stroke-opacity:0.3" />
<line x1="161" y1="128" x2="277" y2="128" stroke="pink" stroke-width="1" />
<rect x="277" y="126" width="53" height="5" style="fill:#f5b024;stroke:black;stroke-width:1;fill-opacity:1;stroke-opacity:0.3" />
<rect x="349" y="126" width="74" height="5" style="fill:#f5b024;stroke:black;stroke-width:1;fill-opacity:1;stroke-opacity:0.3" />
<line x1="219" y1="135" x2="254" y2="137" stroke="black" stroke-width="1" />
<line x1="254" y1="137" x2="289" y2="135" stroke="black" stroke-width="1" />
<rect x="146" y="133" width="73" height="5" style="fill:#f5b024;stroke:black;stroke-width:1;fill-opacity:1;stroke-opacity:0.3" />
<rect x="289" y="133" width="74" height="5" style="fill:#f5b024;stroke:black;stroke-width:1;fill-opacity:1;stroke-opacity:0.3" />
<line x1="252" y1="142" x2="273" y2="144" stroke="black" stroke-width="1" />
<line x1="273" y1="144" x2="294" y2="142" stroke="black" stroke-width="1" />
<rect x="152" y="140" width="100" height="5" style="fill:#f5b024;stroke:black;stroke-width:1;fill-opacity:1;stroke-opacity:0.3" />
<rect x="294" y="140" width="111" height="5" style="fill:#f5b024;stroke:black;stroke-width:1;fill-opacity:1;stroke-opacity:0.3" />
<line x1="344" y1="149" x2="488" y2="151" stroke="black" stroke-width="1" />
<line x1="488" y1="151" x2="632" y2="149" stroke="black" stroke-width="1" />
<rect x="154" y="147" width="6" height="5" style="fill:#5d3c2d;stroke:black;stroke-width:1;fill-opacity:1;stroke-opacity:0.3" />
<line x1="161" y1="149" x2="277" y2="149" stroke="pink" stroke-width="1" />
<rect x="277" y="147" width="66" height="5" style="fill:#5d3c2d;stroke:black;stroke-width:1;fill-opacity:1;stroke-opacity:0.3" />
<rect x="632" y="147" width="54" height="5" style="fill:#5d3c2d;stroke:black;stroke-width:1;fill-opacity:1;stroke-opacity:0.3" />
<line x1="687" y1="149" x2="753" y2="149" stroke="pink" stroke-width="1" />
<rect x="753" y="147" width="19" height="5" style="fill:#5d3c2d;stroke:black;stroke-width:1;fill-opacity:1;stroke-opacity:0.3" />
<line x1="348" y1="156" x2="351" y2="158" stroke="black" stroke-width="1" />
<line x1="351" y1="158" x2="355" y2="156" stroke="black" stroke-width="1" />
<rect x="157" y="154" width="3" height="5" style="fill:#5d3c2d;stroke:black;stroke-width:1;fill-opacity:1;stroke-opacity:0.3" />
<line x1="161" y1="156" x2="277" y2="156" stroke="pink" stroke-width="1" />
<rect x="277" y="154" width="70" height="5" style="fill:#5d3c2d;stroke:black;stroke-width:1;fill-opacity:1;stroke-opacity:0.3" />
<rect x="355" y="154" width="68" height="5" style="fill:#5d3c2d;stroke:black;stroke-width:1;fill-opacity:1;stroke-opacity:0.3" />
<line x1="236" y1="163" x2="240" y2="165" stroke="black" stroke-width="1" />
<line x1="240" y1="165" x2="245" y2="163" stroke="black" stroke-width="1" />
<rect x="161" y="161" width="74" height="5" style="fill:#f5b024;stroke:black;stroke-width:1;fill-opacity:1;stroke-opacity:0.3" />
<rect x="245" y="161" width="68" height="5" style="fill:#f5b024;stroke:black;stroke-width:1;fill-opacity:1;stroke-opacity:0.3" />
<line x1="237" y1="37" x2="246" y2="39" stroke="black" stroke-width="1" />
<line x1="246" y1="39" x2="256" y2="37" stroke="black" stroke-width="1" />
<rect x="163" y="35" width="74" height="5" style="fill:#f5b024;stroke:black;stroke-width:1;fill-opacity:1;stroke-opacity:0.3" />
<rect x="256" y="35" width="74" height="5" style="fill:#f5b024;stroke:black;stroke-width:1;fill-opacity:1;stroke-opacity:0.3" />
<line x1="264" y1="30" x2="288" y2="32" stroke="black" stroke-width="1" />
<line x1="288" y1="32" x2="312" y2="30" stroke="black" stroke-width="1" />
<rect x="190" y="28" width="54" height="5" style="fill:#5d3c2d;stroke:black;stroke-width:1;fill-opacity:1;stroke-opacity:0.3" />
<rect x="245" y="28" width="19" height="5" style="fill:#5d3c2d;stroke:black;stroke-width:1;fill-opacity:1;stroke-opacity:0.3" />
<rect x="312" y="28" width="74" height="5" style="fill:#5d3c2d;stroke:black;stroke-width:1;fill-opacity:1;stroke-opacity:0.3" />
<line x1="270" y1="44" x2="273" y2="46" stroke="black" stroke-width="1" />
<line x1="273" y1="46" x2="277" y2="44" stroke="black" stroke-width="1" />
<rect x="196" y="42" width="74" height="5" style="fill:#5d3c2d;stroke:black;stroke-width:1;fill-opacity:1;stroke-opacity:0.3" />
<rect x="277" y="42" width="74" height="5" style="fill:#5d3c2d;stroke:black;stroke-width:1;fill-opacity:1;stroke-opacity:0.3" />
<line x1="272" y1="51" x2="287" y2="53" stroke="black" stroke-width="1" />
<line x1="287" y1="53" x2="303" y2="51" stroke="black" stroke-width="1" />
<rect x="199" y="49" width="72" height="5" style="fill:#f5b024;stroke:black;stroke-width:1;fill-opacity:1;stroke-opacity:0.3" />
<rect x="303" y="49" width="74" height="5" style="fill:#f5b024;stroke:black;stroke-width:1;fill-opacity:1;stroke-opacity:0.3" />
<line x1="294" y1="58" x2="306" y2="60" stroke="black" stroke-width="1" />
<line x1="306" y1="60" x2="319" y2="58" stroke="black" stroke-width="1" />
<rect x="227" y="56" width="67" height="5" style="fill:#f5b024;stroke:black;stroke-width:1;fill-opacity:1;stroke-opacity:0.3" />
<rect x="319" y="56" width="74" height="5" style="fill:#f5b024;stroke:black;stroke-width:1;fill-opacity:1;stroke-opacity:0.3" />
<line x1="303" y1="65" x2="316" y2="67" stroke="black" stroke-width="1" />
<line x1="316" y1="67" x2="329" y2="65" stroke="black" stroke-width="1" />
<rect x="228" y="63" width="74" height="5" style="fill:#f5b024;stroke:black;stroke-width:1;fill-opacity:1;stroke-opacity:0.3" />
<rect x="329" y="63" width="74" height="5" style="fill:#f5b024;stroke:black;stroke-width:1;fill-opacity:1;stroke-opacity:0.3" />
<line x1="305" y1="72" x2="309" y2="74" stroke="black" stroke-width="1" />
<line x1="309" y1="74" x2="313" y2="72" stroke="black" stroke-width="1" />
<rect x="231" y="70" width="14" height="5" style="fill:#f5b024;stroke:black;stroke-width:1;fill-opacity:1;stroke-opacity:0.3" />
<rect x="245" y="70" width="60" height="5" style="fill:#f5b024;stroke:black;stroke-width:1;fill-opacity:1;stroke-opacity:0.3" />
<rect x="313" y="70" width="74" height="5" style="fill:#f5b024;stroke:black;stroke-width:1;fill-opacity:1;stroke-opacity:0.3" />
<line x1="305" y1="79" x2="315" y2="81" stroke="black" stroke-width="1" />
<line x1="315" y1="81" x2="326" y2="79" stroke="black" stroke-width="1" />
<rect x="231" y="77" width="74" height="5" style="fill:#f5b024;stroke:black;stroke-width:1;fill-opacity:1;stroke-opacity:0.3" />
<rect x="326" y="77" width="74" height="5" style="fill:#f5b024;stroke:black;stroke-width:1;fill-opacity:1;stroke-opacity:0.3" />
<line x1="304" y1="86" x2="319" y2="88" stroke="black" stroke-width="1" />
<line x1="319" y1="88" x2="335" y2="86" stroke="black" stroke-width="1" />
<rect x="231" y="84" width="72" height="5" style="fill:#5d3c2d;stroke:black;stroke-width:1;fill-opacity:1;stroke-opacity:0.3" />
<rect x="335" y="84" width="73" height="5" style="fill:#5d3c2d;stroke:black;stroke-width:1;fill-opacity:1;stroke-opacity:0.3" />
<line x1="320" y1="93" x2="335" y2="95" stroke="black" stroke-width="1" />
<line x1="335" y1="95" x2="351" y2="93" stroke="black" stroke-width="1" />
<rect x="245" y="91" width="74" height="5" style="fill:#f5b024;stroke:black;stroke-width:1;fill-opacity:1;stroke-opacity:0.3" />
<rect x="351" y="91" width="74" height="5" style="fill:#f5b024;stroke:black;stroke-width:1;fill-opacity:1;stroke-opacity:0.3" />
<line x1="320" y1="100" x2="330" y2="102" stroke="black" stroke-width="1" />
<line x1="330" y1="102" x2="341" y2="100" stroke="black" stroke-width="1" />
<rect x="246" y="98" width="74" height="5" style="fill:#5d3c2d;stroke:black;stroke-width:1;fill-opacity:1;stroke-opacity:0.3" />
<rect x="341" y="98" width="73" height="5" style="fill:#5d3c2d;stroke:black;stroke-width:1;fill-opacity:1;stroke-opacity:0.3" />
<line x1="406" y1="37" x2="418" y2="39" stroke="black" stroke-width="1" />
<line x1="418" y1="39" x2="430" y2="37" stroke="black" stroke-width="1" />
<rect x="332" y="35" width="74" height="5" style="fill:#f5b024;stroke:black;stroke-width:1;fill-opacity:1;stroke-opacity:0.3" />
<rect x="430" y="35" width="74" height="5" style="fill:#f5b024;stroke:black;stroke-width:1;fill-opacity:1;stroke-opacity:0.3" />
<line x1="407" y1="163" x2="443" y2="165" stroke="black" stroke-width="1" />
<line x1="443" y1="165" x2="479" y2="163" stroke="black" stroke-width="1" />
<rect x="334" y="161" width="73" height="5" style="fill:#5d3c2d;stroke:black;stroke-width:1;fill-opacity:1;stroke-opacity:0.3" />
<rect x="479" y="161" width="73" height="5" style="fill:#5d3c2d;stroke:black;stroke-width:1;fill-opacity:1;stroke-opacity:0.3" />
<line x1="438" y1="44" x2="445" y2="46" stroke="black" stroke-width="1" />
<line x1="445" y1="46" x2="453" y2="44" stroke="black" stroke-width="1" />
<rect x="364" y="42" width="74" height="5" style="fill:#f5b024;stroke:black;stroke-width:1;fill-opacity:1;stroke-opacity:0.3" />
<rect x="453" y="42" width="74" height="5" style="fill:#f5b024;stroke:black;stroke-width:1;fill-opacity:1;stroke-opacity:0.3" />
<line x1="438" y1="135" x2="461" y2="137" stroke="black" stroke-width="1" />
<line x1="461" y1="137" x2="484" y2="135" stroke="black" stroke-width="1" />
<rect x="364" y="133" width="74" height="5" style="fill:#f5b024;stroke:black;stroke-width:1;fill-opacity:1;stroke-opacity:0.3" />
<rect x="484" y="133" width="74" height="5" style="fill:#f5b024;stroke:black;stroke-width:1;fill-opacity:1;stroke-opacity:0.3" />
<line x1="453" y1="51" x2="512" y2="53" stroke="black" stroke-width="1" />
<line x1="512" y1="53" x2="572" y2="51" stroke="black" stroke-width="1" />
<rect x="379" y="49" width="73" height="5" style="fill:#f5b024;stroke:black;stroke-width:1;fill-opacity:1;stroke-opacity:0.3" />
<rect x="572" y="49" width="74" height="5" style="fill:#f5b024;stroke:black;stroke-width:1;fill-opacity:1;stroke-opacity:0.3" />
<line x1="462" y1="30" x2="469" y2="32" stroke="black" stroke-width="1" />
<line x1="469" y1="32" x2="477" y2="30" stroke="black" stroke-width="1" />
<rect x="389" y="28" width="73" height="5" style="fill:#f5b024;stroke:black;stroke-width:1;fill-opacity:1;stroke-opacity:0.3" />
<rect x="477" y="28" width="74" height="5" style="fill:#f5b024;stroke:black;stroke-width:1;fill-opacity:1;stroke-opacity:0.3" />
<line x1="462" y1="72" x2="469" y2="74" stroke="black" stroke-width="1" />
<line x1="469" y1="74" x2="476" y2="72" stroke="black" stroke-width="1" />
<rect x="389" y="70" width="73" height="5" style="fill:#f5b024;stroke:black;stroke-width:1;fill-opacity:1;stroke-opacity:0.3" />
<rect x="476" y="70" width="74" height="5" style="fill:#f5b024;stroke:black;stroke-width:1;fill-opacity:1;stroke-opacity:0.3" />
<line x1="475" y1="58" x2="489" y2="60" stroke="black" stroke-width="1" />
<line x1="489" y1="60" x2="503" y2="58" stroke="black" stroke-width="1" />
<rect x="401" y="56" width="74" height="5" style="fill:#f5b024;stroke:black;stroke-width:1;fill-opacity:1;stroke-opacity:0.3" />
<rect x="503" y="56" width="74" height="5" style="fill:#f5b024;stroke:black;stroke-width:1;fill-opacity:1;stroke-opacity:0.3" />
<line x1="486" y1="65" x2="549" y2="67" stroke="black" stroke-width="1" />
<line x1="549" y1="67" x2="612" y2="65" stroke="black" stroke-width="1" />
<rect x="412" y="63" width="74" height="5" style="fill:#f5b024;stroke:black;stroke-width:1;fill-opacity:1;stroke-opacity:0.3" />
<rect x="612" y="63" width="74" height="5" style="fill:#f5b024;stroke:black;stroke-width:1;fill-opacity:1;stroke-opacity:0.3" />
<line x1="523" y1="79" x2="545" y2="81" stroke="black" stroke-width="1" />
<line x1="545" y1="81" x2="567" y2="79" stroke="black" stroke-width="1" />
<rect x="413" y="77" width="109" height="5" style="fill:#f5b024;stroke:black;stroke-width:1;fill-opacity:1;stroke-opacity:0.3" />
<rect x="567" y="77" width="111" height="5" style="fill:#f5b024;stroke:black;stroke-width:1;fill-opacity:1;stroke-opacity:0.3" />
<line x1="494" y1="86" x2="525" y2="88" stroke="black" stroke-width="1" />
<line x1="525" y1="88" x2="556" y2="86" stroke="black" stroke-width="1" />
<rect x="419" y="84" width="74" height="5" style="fill:#f5b024;stroke:black;stroke-width:1;fill-opacity:1;stroke-opacity:0.3" />
<rect x="556" y="84" width="74" height="5" style="fill:#f5b024;stroke:black;stroke-width:1;fill-opacity:1;stroke-opacity:0.3" />
<line x1="496" y1="100" x2="513" y2="102" stroke="black" stroke-width="1" />
<line x1="513" y1="102" x2="530" y2="100" stroke="black" stroke-width="1" />
<rect x="421" y="98" width="74" height="5" style="fill:#f5b024;stroke:black;stroke-width:1;fill-opacity:1;stroke-opacity:0.3" />
<rect x="530" y="98" width="74" height="5" style="fill:#f5b024;stroke:black;stroke-width:1;fill-opacity:1;stroke-opacity:0.3" />
<line x1="496" y1="107" x2="513" y2="109" stroke="black" stroke-width="1" />
<line x1="513" y1="109" x2="530" y2="107" stroke="black" stroke-width="1" />
<rect x="421" y="105" width="74" height="5" style="fill:#f5b024;stroke:black;stroke-width:1;fill-opacity:1;stroke-opacity:0.3" />
<rect x="530" y="105" width="74" height="5" style="fill:#f5b024;stroke:black;stroke-width:1;fill-opacity:1;stroke-opacity:0.3" />
<line x1="496" y1="114" x2="524" y2="116" stroke="black" stroke-width="1" />
<line x1="524" y1="116" x2="553" y2="114" stroke="black" stroke-width="1" />
<rect x="422" y="112" width="73" height="5" style="fill:#f5b024;stroke:black;stroke-width:1;fill-opacity:1;stroke-opacity:0.3" />
<rect x="553" y="112" width="74" height="5" style="fill:#f5b024;stroke:black;stroke-width:1;fill-opacity:1;stroke-opacity:0.3" />
<line x1="534" y1="142" x2="543" y2="144" stroke="black" stroke-width="1" />
<line x1="543" y1="144" x2="553" y2="142" stroke="black" stroke-width="1" />
<rect x="422" y="140" width="111" height="5" style="fill:#f5b024;stroke:black;stroke-width:1;fill-opacity:1;stroke-opacity:0.3" />
<rect x="553" y="140" width="111" height="5" style="fill:#f5b024;stroke:black;stroke-width:1;fill-opacity:1;stroke-opacity:0.3" />
<line x1="503" y1="93" x2="518" y2="95" stroke="black" stroke-width="1" />
<line x1="518" y1="95" x2="533" y2="93" stroke="black" stroke-width="1" />
<rect x="430" y="91" width="73" height="5" style="fill:#f5b024;stroke:black;stroke-width:1;fill-opacity:1;stroke-opacity:0.3" />
<rect x="533" y="91" width="74" height="5" style="fill:#f5b024;stroke:black;stroke-width:1;fill-opacity:1;stroke-opacity:0.3" />
<line x1="514" y1="128" x2="543" y2="130" stroke="black" stroke-width="1" />
<line x1="543" y1="130" x2="572" y2="128" stroke="black" stroke-width="1" />
<rect x="440" y="126" width="74" height="5" style="fill:#f5b024;stroke:black;stroke-width:1;fill-opacity:1;stroke-opacity:0.3" />
<rect x="572" y="126" width="74" height="5" style="fill:#f5b024;stroke:black;stroke-width:1;fill-opacity:1;stroke-opacity:0.3" />
<line x1="522" y1="156" x2="535" y2="158" stroke="black" stroke-width="1" />
<line x1="535" y1="158" x2="549" y2="156" stroke="black" stroke-width="1" />
<rect x="447" y="154" width="74" height="5" style="fill:#f5b024;stroke:black;stroke-width:1;fill-opacity:1;stroke-opacity:0.3" />
<rect x="549" y="154" width="72" height="5" style="fill:#f5b024;stroke:black;stroke-width:1;fill-opacity:1;stroke-opacity:0.3" />
<line x1="590" y1="37" x2="614" y2="39" stroke="black" stroke-width="1" />
<line x1="614" y1="39" x2="638" y2="37" stroke="black" stroke-width="1" />
<rect x="516" y="35" width="74" height="5" style="fill:#f5b024;stroke:black;stroke-width:1;fill-opacity:1;stroke-opacity:0.3" />
<rect x="638" y="35" width="48" height="5" style="fill:#f5b024;stroke:black;stroke-width:1;fill-opacity:1;stroke-opacity:0.3" />
<line x1="687" y1="37" x2="753" y2="37" stroke="pink" stroke-width="1" />
<rect x="753" y="35" width="26" height="5" style="fill:#f5b024;stroke:black;stroke-width:1;fill-opacity:1;stroke-opacity:0.3" />
<line x1="591" y1="121" x2="602" y2="123" stroke="black" stroke-width="1" />
<line x1="602" y1="123" x2="614" y2="121" stroke="black" stroke-width="1" />
<rect x="517" y="119" width="74" height="5" style="fill:#f5b024;stroke:black;stroke-width:1;fill-opacity:1;stroke-opacity:0.3" />
<rect x="614" y="119" width="72" height="5" style="fill:#f5b024;stroke:black;stroke-width:1;fill-opacity:1;stroke-opacity:0.3" />
<line x1="687" y1="121" x2="753" y2="121" stroke="pink" stroke-width="1" />
<rect x="753" y="119" width="1" height="5" style="fill:#f5b024;stroke:black;stroke-width:1;fill-opacity:1;stroke-opacity:0.3" />
<line x1="602" y1="44" x2="637" y2="46" stroke="black" stroke-width="1" />
<line x1="637" y1="46" x2="672" y2="44" stroke="black" stroke-width="1" />
<rect x="528" y="42" width="74" height="5" style="fill:#f5b024;stroke:black;stroke-width:1;fill-opacity:1;stroke-opacity:0.3" />
<rect x="672" y="42" width="14" height="5" style="fill:#f5b024;stroke:black;stroke-width:1;fill-opacity:1;stroke-opacity:0.3" />
<line x1="687" y1="44" x2="753" y2="44" stroke="pink" stroke-width="1" />
<rect x="753" y="42" width="59" height="5" style="fill:#f5b024;stroke:black;stroke-width:1;fill-opacity:1;stroke-opacity:0.3" />
<line x1="619" y1="72" x2="624" y2="74" stroke="black" stroke-width="1" />
<line x1="624" y1="74" x2="630" y2="72" stroke="black" stroke-width="1" />
<rect x="551" y="70" width="68" height="5" style="fill:#5d3c2d;stroke:black;stroke-width:1;fill-opacity:1;stroke-opacity:0.3" />
<rect x="630" y="70" width="57" height="5" style="fill:#5d3c2d;stroke:black;stroke-width:1;fill-opacity:1;stroke-opacity:0.3" />
<line x1="687" y1="72" x2="753" y2="72" stroke="pink" stroke-width="1" />
<rect x="753" y="70" width="17" height="5" style="fill:#5d3c2d;stroke:black;stroke-width:1;fill-opacity:1;stroke-opacity:0.3" />
<line x1="627" y1="30" x2="632" y2="32" stroke="black" stroke-width="1" />
<line x1="632" y1="32" x2="637" y2="30" stroke="black" stroke-width="1" />
<rect x="553" y="28" width="74" height="5" style="fill:#f5b024;stroke:black;stroke-width:1;fill-opacity:1;stroke-opacity:0.3" />
<rect x="637" y="28" width="49" height="5" style="fill:#f5b024;stroke:black;stroke-width:1;fill-opacity:1;stroke-opacity:0.3" />
<line x1="687" y1="30" x2="753" y2="30" stroke="pink" stroke-width="1" />
<rect x="753" y="28" width="24" height="5" style="fill:#f5b024;stroke:black;stroke-width:1;fill-opacity:1;stroke-opacity:0.3" />
<line x1="630" y1="163" x2="633" y2="165" stroke="black" stroke-width="1" />
<line x1="633" y1="165" x2="637" y2="163" stroke="black" stroke-width="1" />
<rect x="556" y="161" width="73" height="5" style="fill:#f5b024;stroke:black;stroke-width:1;fill-opacity:1;stroke-opacity:0.3" />
<rect x="637" y="161" width="49" height="5" style="fill:#f5b024;stroke:black;stroke-width:1;fill-opacity:1;stroke-opacity:0.3" />
<line x1="687" y1="163" x2="753" y2="163" stroke="pink" stroke-width="1" />
<rect x="753" y="161" width="24" height="5" style="fill:#f5b024;stroke:black;stroke-width:1;fill-opacity:1;stroke-opacity:0.3" />
<line x1="633" y1="135" x2="638" y2="137" stroke="black" stroke-width="1" />
<line x1="638" y1="137" x2="644" y2="135" stroke="black" stroke-width="1" />
<rect x="559" y="133" width="74" height="5" style="fill:#f5b024;stroke:black;stroke-width:1;fill-opacity:1;stroke-opacity:0.3" />
<rect x="644" y="133" width="42" height="5" style="fill:#f5b024;stroke:black;stroke-width:1;fill-opacity:1;stroke-opacity:0.3" />
<line x1="687" y1="135" x2="753" y2="135" stroke="pink" stroke-width="1" />
<rect x="753" y="133" width="31" height="5" style="fill:#f5b024;stroke:black;stroke-width:1;fill-opacity:1;stroke-opacity:0.3" />
<line x1="656" y1="58" x2="732" y2="60" stroke="black" stroke-width="1" />
<line x1="732" y1="60" x2="808" y2="58" stroke="black" stroke-width="1" />
<rect x="582" y="56" width="74" height="5" style="fill:#f5b024;stroke:black;stroke-width:1;fill-opacity:1;stroke-opacity:0.3" />
<rect x="808" y="56" width="74" height="5" style="fill:#f5b024;stroke:black;stroke-width:1;fill-opacity:1;stroke-opacity:0.3" />
<line x1="754" y1="93" x2="773" y2="95" stroke="black" stroke-width="1" />
<line x1="773" y1="95" x2="793" y2="93" stroke="black" stroke-width="1" />
<rect x="614" y="91" width="72" height="5" style="fill:#f5b024;stroke:black;stroke-width:1;fill-opacity:1;stroke-opacity:0.3" />
<line x1="687" y1="93" x2="753" y2="93" stroke="pink" stroke-width="1" />
<rect x="753" y="91" width="1" height="5" style="fill:#f5b024;stroke:black;stroke-width:1;fill-opacity:1;stroke-opacity:0.3" />
<rect x="793" y="91" width="74" height="5" style="fill:#f5b024;stroke:black;stroke-width:1;fill-opacity:1;stroke-opacity:0.3" />
<line x1="758" y1="100" x2="774" y2="102" stroke="black" stroke-width="1" />
<line x1="774" y1="102" x2="791" y2="100" stroke="black" stroke-width="1" />
<rect x="618" y="98" width="69" height="5" style="fill:#f5b024;stroke:black;stroke-width:1;fill-opacity:1;stroke-opacity:0.3" />
<line x1="687" y1="100" x2="753" y2="100" stroke="pink" stroke-width="1" />
<rect x="753" y="98" width="5" height="5" style="fill:#f5b024;stroke:black;stroke-width:1;fill-opacity:1;stroke-opacity:0.3" />
<rect x="791" y="98" width="74" height="5" style="fill:#f5b024;stroke:black;stroke-width:1;fill-opacity:1;stroke-opacity:0.3" />
<line x1="760" y1="107" x2="773" y2="109" stroke="black" stroke-width="1" />
<line x1="773" y1="109" x2="787" y2="107" stroke="black" stroke-width="1" />
<rect x="620" y="105" width="66" height="5" style="fill:#f5b024;stroke:black;stroke-width:1;fill-opacity:1;stroke-opacity:0.3" />
<line x1="687" y1="107" x2="753" y2="107" stroke="pink" stroke-width="1" />
<rect x="753" y="105" width="7" height="5" style="fill:#f5b024;stroke:black;stroke-width:1;fill-opacity:1;stroke-opacity:0.3" />
<rect x="787" y="105" width="73" height="5" style="fill:#f5b024;stroke:black;stroke-width:1;fill-opacity:1;stroke-opacity:0.3" />
<line x1="763" y1="156" x2="768" y2="158" stroke="black" stroke-width="1" />
<line x1="768" y1="158" x2="774" y2="156" stroke="black" stroke-width="1" />
<rect x="622" y="154" width="64" height="5" style="fill:#f5b024;stroke:black;stroke-width:1;fill-opacity:1;stroke-opacity:0.3" />
<line x1="687" y1="156" x2="753" y2="156" stroke="pink" stroke-width="1" />
<rect x="753" y="154" width="9" height="5" style="fill:#f5b024;stroke:black;stroke-width:1;fill-opacity:1;stroke-opacity:0.3" />
<rect x="774" y="154" width="74" height="5" style="fill:#f5b024;stroke:black;stroke-width:1;fill-opacity:1;stroke-opacity:0.3" />
<line x1="806" y1="114" x2="817" y2="116" stroke="black" stroke-width="1" />
<line x1="817" y1="116" x2="829" y2="114" stroke="black" stroke-width="1" />
<rect x="628" y="112" width="58" height="5" style="fill:#f5b024;stroke:black;stroke-width:1;fill-opacity:1;stroke-opacity:0.3" />
<line x1="687" y1="114" x2="753" y2="114" stroke="pink" stroke-width="1" />
<rect x="753" y="112" width="52" height="5" style="fill:#f5b024;stroke:black;stroke-width:1;fill-opacity:1;stroke-opacity:0.3" />
<rect x="829" y="112" width="111" height="5" style="fill:#f5b024;stroke:black;stroke-width:1;fill-opacity:1;stroke-opacity:0.3" />
<line x1="771" y1="86" x2="778" y2="88" stroke="black" stroke-width="1" />
<line x1="778" y1="88" x2="786" y2="86" stroke="black" stroke-width="1" />
<rect x="630" y="84" width="56" height="5" style="fill:#f5b024;stroke:black;stroke-width:1;fill-opacity:1;stroke-opacity:0.3" />
<line x1="687" y1="86" x2="753" y2="86" stroke="pink" stroke-width="1" />
<rect x="753" y="84" width="17" height="5" style="fill:#f5b024;stroke:black;stroke-width:1;fill-opacity:1;stroke-opacity:0.3" />
<rect x="786" y="84" width="74" height="5" style="fill:#f5b024;stroke:black;stroke-width:1;fill-opacity:1;stroke-opacity:0.3" />
<line x1="795" y1="51" x2="804" y2="53" stroke="black" stroke-width="1" />
<line x1="804" y1="53" x2="813" y2="51" stroke="black" stroke-width="1" />
<rect x="655" y="49" width="31" height="5" style="fill:#f5b024;stroke:black;stroke-width:1;fill-opacity:1;stroke-opacity:0.3" />
<line x1="687" y1="51" x2="753" y2="51" stroke="pink" stroke-width="1" />
<rect x="753" y="49" width="42" height="5" style="fill:#f5b024;stroke:black;stroke-width:1;fill-opacity:1;stroke-opacity:0.3" />
<rect x="813" y="49" width="74" height="5" style="fill:#f5b024;stroke:black;stroke-width:1;fill-opacity:1;stroke-opacity:0.3" />
<line x1="796" y1="128" x2="802" y2="130" stroke="black" stroke-width="1" />
<line x1="802" y1="130" x2="809" y2="128" stroke="black" stroke-width="1" />
<rect x="656" y="126" width="31" height="5" style="fill:#f5b024;stroke:black;stroke-width:1;fill-opacity:1;stroke-opacity:0.3" />
<line x1="687" y1="128" x2="753" y2="128" stroke="pink" stroke-width="1" />
<rect x="753" y="126" width="43" height="5" style="fill:#f5b024;stroke:black;stroke-width:1;fill-opacity:1;stroke-opacity:0.3" />
<rect x="809" y="126" width="73" height="5" style="fill:#f5b024;stroke:black;stroke-width:1;fill-opacity:1;stroke-opacity:0.3" />
<line x1="807" y1="142" x2="839" y2="144" stroke="black" stroke-width="1" />
<line x1="839" y1="144" x2="872" y2="142" stroke="black" stroke-width="1" />
<rect x="667" y="140" width="19" height="5" style="fill:#f5b024;stroke:black;stroke-width:1;fill-opacity:1;stroke-opacity:0.3" />
<line x1="687" y1="142" x2="753" y2="142" stroke="pink" stroke-width="1" />
<rect x="753" y="140" width="54" height="5" style="fill:#f5b024;stroke:black;stroke-width:1;fill-opacity:1;stroke-opacity:0.3" />
<rect x="872" y="140" width="74" height="5" style="fill:#f5b024;stroke:black;stroke-width:1;fill-opacity:1;stroke-opacity:0.3" />
<line x1="820" y1="79" x2="839" y2="81" stroke="black" stroke-width="1" />
<line x1="839" y1="81" x2="859" y2="79" stroke="black" stroke-width="1" />
<rect x="680" y="77" width="6" height="5" style="fill:#f5b024;stroke:black;stroke-width:1;fill-opacity:1;stroke-opacity:0.3" />
<line x1="687" y1="79" x2="753" y2="79" stroke="pink" stroke-width="1" />
<rect x="753" y="77" width="66" height="5" style="fill:#f5b024;stroke:black;stroke-width:1;fill-opacity:1;stroke-opacity:0.3" />
<rect x="859" y="77" width="74" height="5" style="fill:#f5b024;stroke:black;stroke-width:1;fill-opacity:1;stroke-opacity:0.3" />
<line x1="795" y1="65" x2="799" y2="67" stroke="black" stroke-width="1" />
<line x1="799" y1="67" x2="804" y2="65" stroke="black" stroke-width="1" />
<rect x="721" y="63" width="74" height="5" style="fill:#f5b024;stroke:black;stroke-width:1;fill-opacity:1;stroke-opacity:0.3" />
<rect x="804" y="63" width="74" height="5" style="fill:#f5b024;stroke:black;stroke-width:1;fill-opacity:1;stroke-opacity:0.3" />
<line x1="835" y1="121" x2="841" y2="123" stroke="black" stroke-width="1" />
<line x1="841" y1="123" x2="847" y2="121" stroke="black" stroke-width="1" />
<rect x="760" y="119" width="74" height="5" style="fill:#f5b024;stroke:black;stroke-width:1;fill-opacity:1;stroke-opacity:0.3" />
<rect x="847" y="119" width="73" height="5" style="fill:#f5b024;stroke:black;stroke-width:1;fill-opacity:1;stroke-opacity:0.3" />
<line x1="849" y1="72" x2="861" y2="74" stroke="black" stroke-width="1" />
<line x1="861" y1="74" x2="874" y2="72" stroke="black" stroke-width="1" />
<rect x="775" y="70" width="74" height="5" style="fill:#f5b024;stroke:black;stroke-width:1;fill-opacity:1;stroke-opacity:0.3" />
<rect x="874" y="70" width="74" height="5" style="fill:#f5b024;stroke:black;stroke-width:1;fill-opacity:1;stroke-opacity:0.3" />
<line x1="851" y1="149" x2="858" y2="151" stroke="black" stroke-width="1" />
<line x1="858" y1="151" x2="866" y2="149" stroke="black" stroke-width="1" />
<rect x="777" y="147" width="74" height="5" style="fill:#f5b024;stroke:black;stroke-width:1;fill-opacity:1;stroke-opacity:0.3" />
<rect x="866" y="147" width="74" height="5" style="fill:#f5b024;stroke:black;stroke-width:1;fill-opacity:1;stroke-opacity:0.3" />
<line x1="853" y1="30" x2="861" y2="32" stroke="black" stroke-width="1" />
<line x1="861" y1="32" x2="869" y2="30" stroke="black" stroke-width="1" />
<rect x="779" y="28" width="74" height="5" style="fill:#f5b024;stroke:black;stroke-width:1;fill-opacity:1;stroke-opacity:0.3" />
<rect x="869" y="28" width="74" height="5" style="fill:#f5b024;stroke:black;stroke-width:1;fill-opacity:1;stroke-opacity:0.3" />
<line x1="853" y1="37" x2="860" y2="39" stroke="black" stroke-width="1" />
<line x1="860" y1="39" x2="867" y2="37" stroke="black" stroke-width="1" />
<rect x="779" y="35" width="74" height="5" style="fill:#f5b024;stroke:black;stroke-width:1;fill-opacity:1;stroke-opacity:0.3" />
<rect x="867" y="35" width="74" height="5" style="fill:#f5b024;stroke:black;stroke-width:1;fill-opacity:1;stroke-opacity:0.3" />
<line x1="855" y1="163" x2="859" y2="165" stroke="black" stroke-width="1" />
<line x1="859" y1="165" x2="863" y2="163" stroke="black" stroke-width="1" />
<rect x="780" y="161" width="74" height="5" style="fill:#f5b024;stroke:black;stroke-width:1;fill-opacity:1;stroke-opacity:0.3" />
<rect x="863" y="161" width="74" height="5" style="fill:#f5b024;stroke:black;stroke-width:1;fill-opacity:1;stroke-opacity:0.3" />
<text x="15"  y="176" style="font-family:Arial;font-size:10;stroke:black;fill:black;">all.merged.bam</text>
</svg>
    
