<?xml version="1.0" encoding="utf-8" standalone="no"?>
<!DOCTYPE svg PUBLIC "-//W3C//DTD SVG 1.1//EN"
  "http://www.w3.org/Graphics/SVG/1.1/DTD/svg11.dtd">
<svg height="1140" width="1000" version="1.1" viewBox="0 0 1000 1140" xmlns="http://www.w3.org/2000/svg" xmlns:xlink="http://www.w3.org/1999/xlink">
<line x1="18" y1="11" x2="981" y2="11" stroke="black" stroke-width="1" />
<rect x="18" y="9" width="72" height="5" style="fill:#f50002;stroke:black;stroke-width:1;fill-opacity:1;stroke-opacity:0.3" />
<rect x="91" y="9" width="41" height="5" style="fill:#53a1b5;stroke:black;stroke-width:1;fill-opacity:1;stroke-opacity:0.3" />
<rect x="170" y="9" width="15" height="5" style="fill:#53a1b5;stroke:black;stroke-width:1;fill-opacity:1;stroke-opacity:0.3" />
<rect x="228" y="9" width="14" height="5" style="fill:#53a1b5;stroke:black;stroke-width:1;fill-opacity:1;stroke-opacity:0.3" />
<rect x="268" y="9" width="29" height="5" style="fill:#53a1b5;stroke:black;stroke-width:1;fill-opacity:1;stroke-opacity:0.3" />
<rect x="298" y="9" width="7" height="5" style="fill:#f50002;stroke:black;stroke-width:1;fill-opacity:1;stroke-opacity:0.3" />
<rect x="932" y="9" width="48" height="5" style="fill:#f50002;stroke:black;stroke-width:1;fill-opacity:1;stroke-opacity:0.3" />
<text x="18"  y="23" style="font-family:Arial;font-size:10;stroke:black;fill:black;">Cre02.g120100.t1.2.v5.5 (-) chromosome_2:6936683-6941921</text>
<line x1="24" y1="30" x2="27" y2="32" stroke="black" stroke-width="1" />
<line x1="27" y1="32" x2="31" y2="30" stroke="black" stroke-width="1" />
<rect x="5" y="28" width="18" height="5" style="fill:#f5b024;stroke:black;stroke-width:1;fill-opacity:1;stroke-opacity:0.3" />
<rect x="31" y="28" width="18" height="5" style="fill:#f5b024;stroke:black;stroke-width:1;fill-opacity:1;stroke-opacity:0.3" />
<line x1="36" y1="37" x2="40" y2="39" stroke="black" stroke-width="1" />
<line x1="40" y1="39" x2="45" y2="37" stroke="black" stroke-width="1" />
<rect x="17" y="35" width="18" height="5" style="fill:#f5b024;stroke:black;stroke-width:1;fill-opacity:1;stroke-opacity:0.3" />
<rect x="45" y="35" width="18" height="5" style="fill:#f5b024;stroke:black;stroke-width:1;fill-opacity:1;stroke-opacity:0.3" />
<line x1="35" y1="44" x2="36" y2="46" stroke="black" stroke-width="1" />
<line x1="36" y1="46" x2="37" y2="44" stroke="black" stroke-width="1" />
<rect x="17" y="42" width="17" height="5" style="fill:#f5b024;stroke:black;stroke-width:1;fill-opacity:1;stroke-opacity:0.3" />
<rect x="37" y="42" width="18" height="5" style="fill:#f5b024;stroke:black;stroke-width:1;fill-opacity:1;stroke-opacity:0.3" />
<line x1="36" y1="51" x2="40" y2="53" stroke="black" stroke-width="1" />
<line x1="40" y1="53" x2="44" y2="51" stroke="black" stroke-width="1" />
<rect x="17" y="49" width="18" height="5" style="fill:#f5b024;stroke:black;stroke-width:1;fill-opacity:1;stroke-opacity:0.3" />
<rect x="44" y="49" width="18" height="5" style="fill:#f5b024;stroke:black;stroke-width:1;fill-opacity:1;stroke-opacity:0.3" />
<line x1="36" y1="58" x2="39" y2="60" stroke="black" stroke-width="1" />
<line x1="39" y1="60" x2="42" y2="58" stroke="black" stroke-width="1" />
<rect x="17" y="56" width="18" height="5" style="fill:#f5b024;stroke:black;stroke-width:1;fill-opacity:1;stroke-opacity:0.3" />
<rect x="42" y="56" width="18" height="5" style="fill:#f5b024;stroke:black;stroke-width:1;fill-opacity:1;stroke-opacity:0.3" />
<line x1="33" y1="65" x2="35" y2="67" stroke="black" stroke-width="1" />
<line x1="35" y1="67" x2="37" y2="65" stroke="black" stroke-width="1" />
<rect x="17" y="63" width="15" height="5" style="fill:#f5b024;stroke:black;stroke-width:1;fill-opacity:1;stroke-opacity:0.3" />
<rect x="37" y="63" width="18" height="5" style="fill:#f5b024;stroke:black;stroke-width:1;fill-opacity:1;stroke-opacity:0.3" />
<line x1="33" y1="72" x2="35" y2="74" stroke="black" stroke-width="1" />
<line x1="35" y1="74" x2="37" y2="72" stroke="black" stroke-width="1" />
<rect x="17" y="70" width="15" height="5" style="fill:#f5b024;stroke:black;stroke-width:1;fill-opacity:1;stroke-opacity:0.3" />
<rect x="37" y="70" width="18" height="5" style="fill:#f5b024;stroke:black;stroke-width:1;fill-opacity:1;stroke-opacity:0.3" />
<line x1="36" y1="79" x2="39" y2="81" stroke="black" stroke-width="1" />
<line x1="39" y1="81" x2="42" y2="79" stroke="black" stroke-width="1" />
<rect x="17" y="77" width="18" height="5" style="fill:#f5b024;stroke:black;stroke-width:1;fill-opacity:1;stroke-opacity:0.3" />
<rect x="42" y="77" width="18" height="5" style="fill:#f5b024;stroke:black;stroke-width:1;fill-opacity:1;stroke-opacity:0.3" />
<line x1="33" y1="86" x2="34" y2="88" stroke="black" stroke-width="1" />
<line x1="34" y1="88" x2="35" y2="86" stroke="black" stroke-width="1" />
<rect x="17" y="84" width="15" height="5" style="fill:#f5b024;stroke:black;stroke-width:1;fill-opacity:1;stroke-opacity:0.3" />
<rect x="35" y="84" width="18" height="5" style="fill:#f5b024;stroke:black;stroke-width:1;fill-opacity:1;stroke-opacity:0.3" />
<line x1="36" y1="93" x2="38" y2="95" stroke="black" stroke-width="1" />
<line x1="38" y1="95" x2="40" y2="93" stroke="black" stroke-width="1" />
<rect x="17" y="91" width="18" height="5" style="fill:#f5b024;stroke:black;stroke-width:1;fill-opacity:1;stroke-opacity:0.3" />
<rect x="40" y="91" width="18" height="5" style="fill:#f5b024;stroke:black;stroke-width:1;fill-opacity:1;stroke-opacity:0.3" />
<line x1="33" y1="100" x2="41" y2="102" stroke="black" stroke-width="1" />
<line x1="41" y1="102" x2="49" y2="100" stroke="black" stroke-width="1" />
<rect x="17" y="98" width="15" height="5" style="fill:#f5b024;stroke:black;stroke-width:1;fill-opacity:1;stroke-opacity:0.3" />
<rect x="49" y="98" width="18" height="5" style="fill:#f5b024;stroke:black;stroke-width:1;fill-opacity:1;stroke-opacity:0.3" />
<line x1="35" y1="107" x2="39" y2="109" stroke="black" stroke-width="1" />
<line x1="39" y1="109" x2="43" y2="107" stroke="black" stroke-width="1" />
<rect x="17" y="105" width="18" height="5" style="fill:#f5b024;stroke:black;stroke-width:1;fill-opacity:1;stroke-opacity:0.3" />
<rect x="43" y="105" width="18" height="5" style="fill:#f5b024;stroke:black;stroke-width:1;fill-opacity:1;stroke-opacity:0.3" />
<line x1="36" y1="114" x2="38" y2="116" stroke="black" stroke-width="1" />
<line x1="38" y1="116" x2="41" y2="114" stroke="black" stroke-width="1" />
<rect x="17" y="112" width="18" height="5" style="fill:#f5b024;stroke:black;stroke-width:1;fill-opacity:1;stroke-opacity:0.3" />
<rect x="41" y="112" width="18" height="5" style="fill:#f5b024;stroke:black;stroke-width:1;fill-opacity:1;stroke-opacity:0.3" />
<line x1="36" y1="121" x2="37" y2="123" stroke="black" stroke-width="1" />
<line x1="37" y1="123" x2="38" y2="121" stroke="black" stroke-width="1" />
<rect x="18" y="119" width="18" height="5" style="fill:#f5b024;stroke:black;stroke-width:1;fill-opacity:1;stroke-opacity:0.3" />
<rect x="38" y="119" width="18" height="5" style="fill:#f5b024;stroke:black;stroke-width:1;fill-opacity:1;stroke-opacity:0.3" />
<line x1="36" y1="128" x2="37" y2="130" stroke="black" stroke-width="1" />
<line x1="37" y1="130" x2="39" y2="128" stroke="black" stroke-width="1" />
<rect x="18" y="126" width="18" height="5" style="fill:#f5b024;stroke:black;stroke-width:1;fill-opacity:1;stroke-opacity:0.3" />
<rect x="39" y="126" width="18" height="5" style="fill:#f5b024;stroke:black;stroke-width:1;fill-opacity:1;stroke-opacity:0.3" />
<line x1="36" y1="135" x2="39" y2="137" stroke="black" stroke-width="1" />
<line x1="39" y1="137" x2="43" y2="135" stroke="black" stroke-width="1" />
<rect x="18" y="133" width="18" height="5" style="fill:#f5b024;stroke:black;stroke-width:1;fill-opacity:1;stroke-opacity:0.3" />
<rect x="43" y="133" width="18" height="5" style="fill:#f5b024;stroke:black;stroke-width:1;fill-opacity:1;stroke-opacity:0.3" />
<line x1="36" y1="142" x2="38" y2="144" stroke="black" stroke-width="1" />
<line x1="38" y1="144" x2="41" y2="142" stroke="black" stroke-width="1" />
<rect x="18" y="140" width="18" height="5" style="fill:#f5b024;stroke:black;stroke-width:1;fill-opacity:1;stroke-opacity:0.3" />
<rect x="41" y="140" width="18" height="5" style="fill:#f5b024;stroke:black;stroke-width:1;fill-opacity:1;stroke-opacity:0.3" />
<line x1="36" y1="149" x2="40" y2="151" stroke="black" stroke-width="1" />
<line x1="40" y1="151" x2="45" y2="149" stroke="black" stroke-width="1" />
<rect x="18" y="147" width="5" height="5" style="fill:#f5b024;stroke:black;stroke-width:1;fill-opacity:1;stroke-opacity:0.3" />
<rect x="24" y="147" width="12" height="5" style="fill:#f5b024;stroke:black;stroke-width:1;fill-opacity:1;stroke-opacity:0.3" />
<rect x="45" y="147" width="18" height="5" style="fill:#f5b024;stroke:black;stroke-width:1;fill-opacity:1;stroke-opacity:0.3" />
<line x1="36" y1="156" x2="38" y2="158" stroke="black" stroke-width="1" />
<line x1="38" y1="158" x2="41" y2="156" stroke="black" stroke-width="1" />
<rect x="18" y="154" width="18" height="5" style="fill:#f5b024;stroke:black;stroke-width:1;fill-opacity:1;stroke-opacity:0.3" />
<rect x="41" y="154" width="18" height="5" style="fill:#f5b024;stroke:black;stroke-width:1;fill-opacity:1;stroke-opacity:0.3" />
<line x1="36" y1="163" x2="39" y2="165" stroke="black" stroke-width="1" />
<line x1="39" y1="165" x2="42" y2="163" stroke="black" stroke-width="1" />
<rect x="18" y="161" width="18" height="5" style="fill:#f5b024;stroke:black;stroke-width:1;fill-opacity:1;stroke-opacity:0.3" />
<rect x="42" y="161" width="18" height="5" style="fill:#f5b024;stroke:black;stroke-width:1;fill-opacity:1;stroke-opacity:0.3" />
<line x1="68" y1="30" x2="70" y2="32" stroke="black" stroke-width="1" />
<line x1="70" y1="32" x2="72" y2="30" stroke="black" stroke-width="1" />
<rect x="49" y="28" width="18" height="5" style="fill:#f5b024;stroke:black;stroke-width:1;fill-opacity:1;stroke-opacity:0.3" />
<rect x="72" y="28" width="18" height="5" style="fill:#f5b024;stroke:black;stroke-width:1;fill-opacity:1;stroke-opacity:0.3" />
<line x1="72" y1="86" x2="77" y2="88" stroke="black" stroke-width="1" />
<line x1="77" y1="88" x2="82" y2="86" stroke="black" stroke-width="1" />
<rect x="54" y="84" width="18" height="5" style="fill:#f5b024;stroke:black;stroke-width:1;fill-opacity:1;stroke-opacity:0.3" />
<rect x="82" y="84" width="18" height="5" style="fill:#f5b024;stroke:black;stroke-width:1;fill-opacity:1;stroke-opacity:0.3" />
<line x1="74" y1="44" x2="77" y2="46" stroke="black" stroke-width="1" />
<line x1="77" y1="46" x2="80" y2="44" stroke="black" stroke-width="1" />
<rect x="55" y="42" width="18" height="5" style="fill:#f5b024;stroke:black;stroke-width:1;fill-opacity:1;stroke-opacity:0.3" />
<rect x="80" y="42" width="18" height="5" style="fill:#f5b024;stroke:black;stroke-width:1;fill-opacity:1;stroke-opacity:0.3" />
<line x1="74" y1="65" x2="75" y2="67" stroke="black" stroke-width="1" />
<line x1="75" y1="67" x2="76" y2="65" stroke="black" stroke-width="1" />
<rect x="55" y="63" width="18" height="5" style="fill:#f5b024;stroke:black;stroke-width:1;fill-opacity:1;stroke-opacity:0.3" />
<rect x="76" y="63" width="18" height="5" style="fill:#f5b024;stroke:black;stroke-width:1;fill-opacity:1;stroke-opacity:0.3" />
<line x1="74" y1="72" x2="81" y2="74" stroke="black" stroke-width="1" />
<line x1="81" y1="74" x2="89" y2="72" stroke="black" stroke-width="1" />
<rect x="56" y="70" width="18" height="5" style="fill:#f5b024;stroke:black;stroke-width:1;fill-opacity:1;stroke-opacity:0.3" />
<rect x="89" y="70" width="16" height="5" style="fill:#f5b024;stroke:black;stroke-width:1;fill-opacity:1;stroke-opacity:0.3" />
<line x1="105" y1="72" x2="1037" y2="72" stroke="pink" stroke-width="1" />
<rect x="1037" y="70" width="2" height="5" style="fill:#f5b024;stroke:black;stroke-width:1;fill-opacity:1;stroke-opacity:0.3" />
<line x1="74" y1="121" x2="77" y2="123" stroke="black" stroke-width="1" />
<line x1="77" y1="123" x2="81" y2="121" stroke="black" stroke-width="1" />
<rect x="56" y="119" width="18" height="5" style="fill:#f5b024;stroke:black;stroke-width:1;fill-opacity:1;stroke-opacity:0.3" />
<rect x="81" y="119" width="18" height="5" style="fill:#f5b024;stroke:black;stroke-width:1;fill-opacity:1;stroke-opacity:0.3" />
<line x1="77" y1="93" x2="78" y2="95" stroke="black" stroke-width="1" />
<line x1="78" y1="95" x2="79" y2="93" stroke="black" stroke-width="1" />
<rect x="58" y="91" width="18" height="5" style="fill:#f5b024;stroke:black;stroke-width:1;fill-opacity:1;stroke-opacity:0.3" />
<rect x="79" y="91" width="18" height="5" style="fill:#f5b024;stroke:black;stroke-width:1;fill-opacity:1;stroke-opacity:0.3" />
<line x1="77" y1="128" x2="79" y2="130" stroke="black" stroke-width="1" />
<line x1="79" y1="130" x2="82" y2="128" stroke="black" stroke-width="1" />
<rect x="58" y="126" width="18" height="5" style="fill:#f5b024;stroke:black;stroke-width:1;fill-opacity:1;stroke-opacity:0.3" />
<rect x="82" y="126" width="18" height="5" style="fill:#f5b024;stroke:black;stroke-width:1;fill-opacity:1;stroke-opacity:0.3" />
<line x1="78" y1="114" x2="83" y2="116" stroke="black" stroke-width="1" />
<line x1="83" y1="116" x2="89" y2="114" stroke="black" stroke-width="1" />
<rect x="60" y="112" width="18" height="5" style="fill:#f5b024;stroke:black;stroke-width:1;fill-opacity:1;stroke-opacity:0.3" />
<rect x="89" y="112" width="16" height="5" style="fill:#f5b024;stroke:black;stroke-width:1;fill-opacity:1;stroke-opacity:0.3" />
<line x1="105" y1="114" x2="1037" y2="114" stroke="pink" stroke-width="1" />
<rect x="1037" y="112" width="1" height="5" style="fill:#f5b024;stroke:black;stroke-width:1;fill-opacity:1;stroke-opacity:0.3" />
<line x1="78" y1="142" x2="84" y2="144" stroke="black" stroke-width="1" />
<line x1="84" y1="144" x2="90" y2="142" stroke="black" stroke-width="1" />
<rect x="60" y="140" width="18" height="5" style="fill:#f5b024;stroke:black;stroke-width:1;fill-opacity:1;stroke-opacity:0.3" />
<rect x="90" y="140" width="18" height="5" style="fill:#f5b024;stroke:black;stroke-width:1;fill-opacity:1;stroke-opacity:0.3" />
<line x1="78" y1="156" x2="83" y2="158" stroke="black" stroke-width="1" />
<line x1="83" y1="158" x2="88" y2="156" stroke="black" stroke-width="1" />
<rect x="60" y="154" width="18" height="5" style="fill:#f5b024;stroke:black;stroke-width:1;fill-opacity:1;stroke-opacity:0.3" />
<rect x="88" y="154" width="17" height="5" style="fill:#f5b024;stroke:black;stroke-width:1;fill-opacity:1;stroke-opacity:0.3" />
<line x1="105" y1="156" x2="1037" y2="156" stroke="pink" stroke-width="1" />
<rect x="1037" y="154" width="0" height="5" style="fill:#f5b024;stroke:black;stroke-width:1;fill-opacity:1;stroke-opacity:0.3" />
<line x1="79" y1="58" x2="86" y2="60" stroke="black" stroke-width="1" />
<line x1="86" y1="60" x2="93" y2="58" stroke="black" stroke-width="1" />
<rect x="61" y="56" width="1" height="5" style="fill:#f5b024;stroke:black;stroke-width:1;fill-opacity:1;stroke-opacity:0.3" />
<rect x="62" y="56" width="16" height="5" style="fill:#f5b024;stroke:black;stroke-width:1;fill-opacity:1;stroke-opacity:0.3" />
<rect x="93" y="56" width="18" height="5" style="fill:#f5b024;stroke:black;stroke-width:1;fill-opacity:1;stroke-opacity:0.3" />
<line x1="79" y1="79" x2="81" y2="81" stroke="black" stroke-width="1" />
<line x1="81" y1="81" x2="83" y2="79" stroke="black" stroke-width="1" />
<rect x="61" y="77" width="18" height="5" style="fill:#f5b024;stroke:black;stroke-width:1;fill-opacity:1;stroke-opacity:0.3" />
<rect x="83" y="77" width="18" height="5" style="fill:#f5b024;stroke:black;stroke-width:1;fill-opacity:1;stroke-opacity:0.3" />
<line x1="79" y1="163" x2="85" y2="165" stroke="black" stroke-width="1" />
<line x1="85" y1="165" x2="91" y2="163" stroke="black" stroke-width="1" />
<rect x="61" y="161" width="18" height="5" style="fill:#f5b024;stroke:black;stroke-width:1;fill-opacity:1;stroke-opacity:0.3" />
<rect x="91" y="161" width="18" height="5" style="fill:#f5b024;stroke:black;stroke-width:1;fill-opacity:1;stroke-opacity:0.3" />
<line x1="79" y1="135" x2="82" y2="137" stroke="black" stroke-width="1" />
<line x1="82" y1="137" x2="85" y2="135" stroke="black" stroke-width="1" />
<rect x="61" y="133" width="18" height="5" style="fill:#f5b024;stroke:black;stroke-width:1;fill-opacity:1;stroke-opacity:0.3" />
<rect x="85" y="133" width="18" height="5" style="fill:#f5b024;stroke:black;stroke-width:1;fill-opacity:1;stroke-opacity:0.3" />
<line x1="80" y1="107" x2="82" y2="109" stroke="black" stroke-width="1" />
<line x1="82" y1="109" x2="85" y2="107" stroke="black" stroke-width="1" />
<rect x="62" y="105" width="18" height="5" style="fill:#f5b024;stroke:black;stroke-width:1;fill-opacity:1;stroke-opacity:0.3" />
<rect x="85" y="105" width="18" height="5" style="fill:#f5b024;stroke:black;stroke-width:1;fill-opacity:1;stroke-opacity:0.3" />
<line x1="83" y1="37" x2="90" y2="39" stroke="black" stroke-width="1" />
<line x1="90" y1="39" x2="98" y2="37" stroke="black" stroke-width="1" />
<rect x="64" y="35" width="18" height="5" style="fill:#f5b024;stroke:black;stroke-width:1;fill-opacity:1;stroke-opacity:0.3" />
<rect x="98" y="35" width="0" height="5" style="fill:#f5b024;stroke:black;stroke-width:1;fill-opacity:1;stroke-opacity:0.3" />
<line x1="99" y1="37" x2="1030" y2="37" stroke="pink" stroke-width="1" />
<rect x="1030" y="35" width="17" height="5" style="fill:#f5b024;stroke:black;stroke-width:1;fill-opacity:1;stroke-opacity:0.3" />
<line x1="83" y1="51" x2="84" y2="53" stroke="black" stroke-width="1" />
<line x1="84" y1="53" x2="85" y2="51" stroke="black" stroke-width="1" />
<rect x="64" y="49" width="18" height="5" style="fill:#f5b024;stroke:black;stroke-width:1;fill-opacity:1;stroke-opacity:0.3" />
<rect x="85" y="49" width="18" height="5" style="fill:#f5b024;stroke:black;stroke-width:1;fill-opacity:1;stroke-opacity:0.3" />
<line x1="83" y1="149" x2="89" y2="151" stroke="black" stroke-width="1" />
<line x1="89" y1="151" x2="95" y2="149" stroke="black" stroke-width="1" />
<rect x="64" y="147" width="18" height="5" style="fill:#f5b024;stroke:black;stroke-width:1;fill-opacity:1;stroke-opacity:0.3" />
<rect x="95" y="147" width="10" height="5" style="fill:#f5b024;stroke:black;stroke-width:1;fill-opacity:1;stroke-opacity:0.3" />
<line x1="105" y1="149" x2="1037" y2="149" stroke="pink" stroke-width="1" />
<rect x="1037" y="147" width="8" height="5" style="fill:#f5b024;stroke:black;stroke-width:1;fill-opacity:1;stroke-opacity:0.3" />
<line x1="86" y1="100" x2="87" y2="102" stroke="black" stroke-width="1" />
<line x1="87" y1="102" x2="88" y2="100" stroke="black" stroke-width="1" />
<rect x="67" y="98" width="18" height="5" style="fill:#f5b024;stroke:black;stroke-width:1;fill-opacity:1;stroke-opacity:0.3" />
<rect x="88" y="98" width="16" height="5" style="fill:#f5b024;stroke:black;stroke-width:1;fill-opacity:1;stroke-opacity:0.3" />
<line x1="105" y1="100" x2="1037" y2="100" stroke="pink" stroke-width="1" />
<rect x="1037" y="98" width="1" height="5" style="fill:#f5b024;stroke:black;stroke-width:1;fill-opacity:1;stroke-opacity:0.3" />
<line x1="108" y1="30" x2="113" y2="32" stroke="black" stroke-width="1" />
<line x1="113" y1="32" x2="119" y2="30" stroke="black" stroke-width="1" />
<rect x="91" y="28" width="17" height="5" style="fill:#f5b024;stroke:black;stroke-width:1;fill-opacity:1;stroke-opacity:0.3" />
<rect x="119" y="28" width="1" height="5" style="fill:#f5b024;stroke:black;stroke-width:1;fill-opacity:1;stroke-opacity:0.3" />
<line x1="120" y1="30" x2="1052" y2="30" stroke="pink" stroke-width="1" />
<rect x="1052" y="28" width="12" height="5" style="fill:#f5b024;stroke:black;stroke-width:1;fill-opacity:1;stroke-opacity:0.3" />
<line x1="1064" y1="30" x2="1108" y2="30" stroke="pink" stroke-width="1" />
<rect x="1108" y="28" width="4" height="5" style="fill:#f5b024;stroke:black;stroke-width:1;fill-opacity:1;stroke-opacity:0.3" />
<line x1="113" y1="65" x2="114" y2="67" stroke="black" stroke-width="1" />
<line x1="114" y1="67" x2="115" y2="65" stroke="black" stroke-width="1" />
<rect x="94" y="63" width="18" height="5" style="fill:#f5b024;stroke:black;stroke-width:1;fill-opacity:1;stroke-opacity:0.3" />
<rect x="115" y="63" width="18" height="5" style="fill:#f5b024;stroke:black;stroke-width:1;fill-opacity:1;stroke-opacity:0.3" />
<line x1="133" y1="65" x2="170" y2="65" stroke="pink" stroke-width="1" />
<rect x="170" y="63" width="0" height="5" style="fill:#f5b024;stroke:black;stroke-width:1;fill-opacity:1;stroke-opacity:0.3" />
<line x1="116" y1="93" x2="122" y2="95" stroke="black" stroke-width="1" />
<line x1="122" y1="95" x2="129" y2="93" stroke="black" stroke-width="1" />
<rect x="97" y="91" width="18" height="5" style="fill:#f5b024;stroke:black;stroke-width:1;fill-opacity:1;stroke-opacity:0.3" />
<rect x="129" y="91" width="4" height="5" style="fill:#f5b024;stroke:black;stroke-width:1;fill-opacity:1;stroke-opacity:0.3" />
<line x1="133" y1="93" x2="170" y2="93" stroke="pink" stroke-width="1" />
<rect x="170" y="91" width="14" height="5" style="fill:#f5b024;stroke:black;stroke-width:1;fill-opacity:1;stroke-opacity:0.3" />
<line x1="117" y1="44" x2="118" y2="46" stroke="black" stroke-width="1" />
<line x1="118" y1="46" x2="120" y2="44" stroke="black" stroke-width="1" />
<rect x="98" y="42" width="18" height="5" style="fill:#f5b024;stroke:black;stroke-width:1;fill-opacity:1;stroke-opacity:0.3" />
<rect x="120" y="42" width="12" height="5" style="fill:#f5b024;stroke:black;stroke-width:1;fill-opacity:1;stroke-opacity:0.3" />
<line x1="133" y1="44" x2="170" y2="44" stroke="pink" stroke-width="1" />
<rect x="170" y="42" width="5" height="5" style="fill:#f5b024;stroke:black;stroke-width:1;fill-opacity:1;stroke-opacity:0.3" />
<line x1="118" y1="121" x2="121" y2="123" stroke="black" stroke-width="1" />
<line x1="121" y1="123" x2="124" y2="121" stroke="black" stroke-width="1" />
<rect x="99" y="119" width="18" height="5" style="fill:#f5b024;stroke:black;stroke-width:1;fill-opacity:1;stroke-opacity:0.3" />
<rect x="124" y="119" width="9" height="5" style="fill:#f5b024;stroke:black;stroke-width:1;fill-opacity:1;stroke-opacity:0.3" />
<line x1="133" y1="121" x2="170" y2="121" stroke="pink" stroke-width="1" />
<rect x="170" y="119" width="9" height="5" style="fill:#f5b024;stroke:black;stroke-width:1;fill-opacity:1;stroke-opacity:0.3" />
<line x1="119" y1="86" x2="121" y2="88" stroke="black" stroke-width="1" />
<line x1="121" y1="88" x2="124" y2="86" stroke="black" stroke-width="1" />
<rect x="100" y="84" width="18" height="5" style="fill:#f5b024;stroke:black;stroke-width:1;fill-opacity:1;stroke-opacity:0.3" />
<rect x="124" y="84" width="8" height="5" style="fill:#f5b024;stroke:black;stroke-width:1;fill-opacity:1;stroke-opacity:0.3" />
<line x1="133" y1="86" x2="1108" y2="86" stroke="pink" stroke-width="1" />
<rect x="1108" y="84" width="9" height="5" style="fill:#f5b024;stroke:black;stroke-width:1;fill-opacity:1;stroke-opacity:0.3" />
<line x1="119" y1="128" x2="120" y2="130" stroke="black" stroke-width="1" />
<line x1="120" y1="130" x2="121" y2="128" stroke="black" stroke-width="1" />
<rect x="101" y="126" width="18" height="5" style="fill:#f5b024;stroke:black;stroke-width:1;fill-opacity:1;stroke-opacity:0.3" />
<rect x="121" y="126" width="11" height="5" style="fill:#f5b024;stroke:black;stroke-width:1;fill-opacity:1;stroke-opacity:0.3" />
<line x1="133" y1="128" x2="1108" y2="128" stroke="pink" stroke-width="1" />
<rect x="1108" y="126" width="6" height="5" style="fill:#f5b024;stroke:black;stroke-width:1;fill-opacity:1;stroke-opacity:0.3" />
<line x1="120" y1="79" x2="181" y2="81" stroke="black" stroke-width="1" />
<line x1="181" y1="81" x2="243" y2="79" stroke="black" stroke-width="1" />
<rect x="102" y="77" width="18" height="5" style="fill:#f5b024;stroke:black;stroke-width:1;fill-opacity:1;stroke-opacity:0.3" />
<rect x="243" y="77" width="0" height="5" style="fill:#f5b024;stroke:black;stroke-width:1;fill-opacity:1;stroke-opacity:0.3" />
<line x1="243" y1="79" x2="1056" y2="79" stroke="pink" stroke-width="1" />
<rect x="1056" y="77" width="8" height="5" style="fill:#f5b024;stroke:black;stroke-width:1;fill-opacity:1;stroke-opacity:0.3" />
<line x1="1064" y1="79" x2="1108" y2="79" stroke="pink" stroke-width="1" />
<rect x="1108" y="77" width="10" height="5" style="fill:#f5b024;stroke:black;stroke-width:1;fill-opacity:1;stroke-opacity:0.3" />
<line x1="121" y1="107" x2="124" y2="109" stroke="black" stroke-width="1" />
<line x1="124" y1="109" x2="127" y2="107" stroke="black" stroke-width="1" />
<rect x="103" y="105" width="17" height="5" style="fill:#f5b024;stroke:black;stroke-width:1;fill-opacity:1;stroke-opacity:0.3" />
<rect x="127" y="105" width="6" height="5" style="fill:#f5b024;stroke:black;stroke-width:1;fill-opacity:1;stroke-opacity:0.3" />
<line x1="133" y1="107" x2="170" y2="107" stroke="pink" stroke-width="1" />
<rect x="170" y="105" width="12" height="5" style="fill:#f5b024;stroke:black;stroke-width:1;fill-opacity:1;stroke-opacity:0.3" />
<line x1="182" y1="107" x2="1052" y2="107" stroke="pink" stroke-width="1" />
<rect x="1052" y="105" width="0" height="5" style="fill:#f5b024;stroke:black;stroke-width:1;fill-opacity:1;stroke-opacity:0.3" />
<line x1="122" y1="51" x2="123" y2="53" stroke="black" stroke-width="1" />
<line x1="123" y1="53" x2="125" y2="51" stroke="black" stroke-width="1" />
<rect x="104" y="49" width="18" height="5" style="fill:#f5b024;stroke:black;stroke-width:1;fill-opacity:1;stroke-opacity:0.3" />
<rect x="125" y="49" width="8" height="5" style="fill:#f5b024;stroke:black;stroke-width:1;fill-opacity:1;stroke-opacity:0.3" />
<line x1="133" y1="51" x2="170" y2="51" stroke="pink" stroke-width="1" />
<rect x="170" y="49" width="10" height="5" style="fill:#f5b024;stroke:black;stroke-width:1;fill-opacity:1;stroke-opacity:0.3" />
<line x1="122" y1="135" x2="125" y2="137" stroke="black" stroke-width="1" />
<line x1="125" y1="137" x2="129" y2="135" stroke="black" stroke-width="1" />
<rect x="104" y="133" width="18" height="5" style="fill:#f5b024;stroke:black;stroke-width:1;fill-opacity:1;stroke-opacity:0.3" />
<rect x="129" y="133" width="4" height="5" style="fill:#f5b024;stroke:black;stroke-width:1;fill-opacity:1;stroke-opacity:0.3" />
<line x1="133" y1="135" x2="170" y2="135" stroke="pink" stroke-width="1" />
<rect x="170" y="133" width="14" height="5" style="fill:#f5b024;stroke:black;stroke-width:1;fill-opacity:1;stroke-opacity:0.3" />
<line x1="127" y1="142" x2="129" y2="144" stroke="black" stroke-width="1" />
<line x1="129" y1="144" x2="132" y2="142" stroke="black" stroke-width="1" />
<rect x="109" y="140" width="18" height="5" style="fill:#f5b024;stroke:black;stroke-width:1;fill-opacity:1;stroke-opacity:0.3" />
<rect x="132" y="140" width="0" height="5" style="fill:#f5b024;stroke:black;stroke-width:1;fill-opacity:1;stroke-opacity:0.3" />
<line x1="133" y1="142" x2="1108" y2="142" stroke="pink" stroke-width="1" />
<rect x="1108" y="140" width="15" height="5" style="fill:#f5b024;stroke:black;stroke-width:1;fill-opacity:1;stroke-opacity:0.3" />
<line x1="127" y1="163" x2="128" y2="165" stroke="black" stroke-width="1" />
<line x1="128" y1="165" x2="130" y2="163" stroke="black" stroke-width="1" />
<rect x="109" y="161" width="18" height="5" style="fill:#5d3c2d;stroke:black;stroke-width:1;fill-opacity:1;stroke-opacity:0.3" />
<rect x="130" y="161" width="3" height="5" style="fill:#5d3c2d;stroke:black;stroke-width:1;fill-opacity:1;stroke-opacity:0.3" />
<line x1="133" y1="163" x2="1108" y2="163" stroke="pink" stroke-width="1" />
<rect x="1108" y="161" width="15" height="5" style="fill:#5d3c2d;stroke:black;stroke-width:1;fill-opacity:1;stroke-opacity:0.3" />
<line x1="129" y1="58" x2="152" y2="60" stroke="black" stroke-width="1" />
<line x1="152" y1="60" x2="175" y2="58" stroke="black" stroke-width="1" />
<rect x="111" y="56" width="18" height="5" style="fill:#f5b024;stroke:black;stroke-width:1;fill-opacity:1;stroke-opacity:0.3" />
<rect x="175" y="56" width="11" height="5" style="fill:#f5b024;stroke:black;stroke-width:1;fill-opacity:1;stroke-opacity:0.3" />
<line x1="186" y1="58" x2="1184" y2="58" stroke="pink" stroke-width="1" />
<rect x="1184" y="56" width="6" height="5" style="fill:#f5b024;stroke:black;stroke-width:1;fill-opacity:1;stroke-opacity:0.3" />
<line x1="231" y1="65" x2="250" y2="67" stroke="black" stroke-width="1" />
<line x1="250" y1="67" x2="270" y2="65" stroke="black" stroke-width="1" />
<rect x="171" y="63" width="15" height="5" style="fill:#f5b024;stroke:black;stroke-width:1;fill-opacity:1;stroke-opacity:0.3" />
<line x1="186" y1="65" x2="228" y2="65" stroke="pink" stroke-width="1" />
<rect x="228" y="63" width="2" height="5" style="fill:#f5b024;stroke:black;stroke-width:1;fill-opacity:1;stroke-opacity:0.3" />
<rect x="270" y="63" width="18" height="5" style="fill:#f5b024;stroke:black;stroke-width:1;fill-opacity:1;stroke-opacity:0.3" />
<line x1="236" y1="44" x2="238" y2="46" stroke="black" stroke-width="1" />
<line x1="238" y1="46" x2="240" y2="44" stroke="black" stroke-width="1" />
<rect x="176" y="42" width="10" height="5" style="fill:#f5b024;stroke:black;stroke-width:1;fill-opacity:1;stroke-opacity:0.3" />
<line x1="186" y1="44" x2="228" y2="44" stroke="pink" stroke-width="1" />
<rect x="228" y="42" width="8" height="5" style="fill:#f5b024;stroke:black;stroke-width:1;fill-opacity:1;stroke-opacity:0.3" />
<rect x="240" y="42" width="2" height="5" style="fill:#f5b024;stroke:black;stroke-width:1;fill-opacity:1;stroke-opacity:0.3" />
<line x1="243" y1="44" x2="268" y2="44" stroke="pink" stroke-width="1" />
<rect x="268" y="42" width="15" height="5" style="fill:#f5b024;stroke:black;stroke-width:1;fill-opacity:1;stroke-opacity:0.3" />
<line x1="240" y1="121" x2="254" y2="123" stroke="black" stroke-width="1" />
<line x1="254" y1="123" x2="269" y2="121" stroke="black" stroke-width="1" />
<rect x="180" y="119" width="6" height="5" style="fill:#f5b024;stroke:black;stroke-width:1;fill-opacity:1;stroke-opacity:0.3" />
<line x1="186" y1="121" x2="228" y2="121" stroke="pink" stroke-width="1" />
<rect x="228" y="119" width="11" height="5" style="fill:#f5b024;stroke:black;stroke-width:1;fill-opacity:1;stroke-opacity:0.3" />
<rect x="269" y="119" width="18" height="5" style="fill:#f5b024;stroke:black;stroke-width:1;fill-opacity:1;stroke-opacity:0.3" />
<line x1="241" y1="51" x2="259" y2="53" stroke="black" stroke-width="1" />
<line x1="259" y1="53" x2="278" y2="51" stroke="black" stroke-width="1" />
<rect x="180" y="49" width="5" height="5" style="fill:#f5b024;stroke:black;stroke-width:1;fill-opacity:1;stroke-opacity:0.3" />
<line x1="186" y1="51" x2="228" y2="51" stroke="pink" stroke-width="1" />
<rect x="228" y="49" width="12" height="5" style="fill:#f5b024;stroke:black;stroke-width:1;fill-opacity:1;stroke-opacity:0.3" />
<rect x="278" y="49" width="18" height="5" style="fill:#f5b024;stroke:black;stroke-width:1;fill-opacity:1;stroke-opacity:0.3" />
<line x1="270" y1="93" x2="273" y2="95" stroke="black" stroke-width="1" />
<line x1="273" y1="95" x2="277" y2="93" stroke="black" stroke-width="1" />
<rect x="184" y="91" width="1" height="5" style="fill:#f5b024;stroke:black;stroke-width:1;fill-opacity:1;stroke-opacity:0.3" />
<line x1="186" y1="93" x2="228" y2="93" stroke="pink" stroke-width="1" />
<rect x="228" y="91" width="14" height="5" style="fill:#f5b024;stroke:black;stroke-width:1;fill-opacity:1;stroke-opacity:0.3" />
<line x1="243" y1="93" x2="268" y2="93" stroke="pink" stroke-width="1" />
<rect x="268" y="91" width="2" height="5" style="fill:#f5b024;stroke:black;stroke-width:1;fill-opacity:1;stroke-opacity:0.3" />
<rect x="277" y="91" width="18" height="5" style="fill:#f5b024;stroke:black;stroke-width:1;fill-opacity:1;stroke-opacity:0.3" />
<line x1="270" y1="135" x2="275" y2="137" stroke="black" stroke-width="1" />
<line x1="275" y1="137" x2="281" y2="135" stroke="black" stroke-width="1" />
<rect x="184" y="133" width="1" height="5" style="fill:#f5b024;stroke:black;stroke-width:1;fill-opacity:1;stroke-opacity:0.3" />
<line x1="186" y1="135" x2="228" y2="135" stroke="pink" stroke-width="1" />
<rect x="228" y="133" width="14" height="5" style="fill:#f5b024;stroke:black;stroke-width:1;fill-opacity:1;stroke-opacity:0.3" />
<line x1="243" y1="135" x2="268" y2="135" stroke="pink" stroke-width="1" />
<rect x="268" y="133" width="2" height="5" style="fill:#f5b024;stroke:black;stroke-width:1;fill-opacity:1;stroke-opacity:0.3" />
<rect x="281" y="133" width="18" height="5" style="fill:#f5b024;stroke:black;stroke-width:1;fill-opacity:1;stroke-opacity:0.3" />
<line x1="471" y1="44" x2="482" y2="46" stroke="black" stroke-width="1" />
<line x1="482" y1="46" x2="493" y2="44" stroke="black" stroke-width="1" />
<rect x="453" y="42" width="18" height="5" style="fill:#f5b024;stroke:black;stroke-width:1;fill-opacity:1;stroke-opacity:0.3" />
<rect x="493" y="42" width="18" height="5" style="fill:#f5b024;stroke:black;stroke-width:1;fill-opacity:1;stroke-opacity:0.3" />
<line x1="552" y1="44" x2="561" y2="46" stroke="black" stroke-width="1" />
<line x1="561" y1="46" x2="570" y2="44" stroke="black" stroke-width="1" />
<rect x="534" y="42" width="18" height="5" style="fill:#5d3c2d;stroke:black;stroke-width:1;fill-opacity:1;stroke-opacity:0.3" />
<rect x="570" y="42" width="18" height="5" style="fill:#5d3c2d;stroke:black;stroke-width:1;fill-opacity:1;stroke-opacity:0.3" />
<line x1="552" y1="51" x2="561" y2="53" stroke="black" stroke-width="1" />
<line x1="561" y1="53" x2="570" y2="51" stroke="black" stroke-width="1" />
<rect x="534" y="49" width="18" height="5" style="fill:#5d3c2d;stroke:black;stroke-width:1;fill-opacity:1;stroke-opacity:0.3" />
<rect x="570" y="49" width="18" height="5" style="fill:#5d3c2d;stroke:black;stroke-width:1;fill-opacity:1;stroke-opacity:0.3" />
<line x1="693" y1="44" x2="698" y2="46" stroke="black" stroke-width="1" />
<line x1="698" y1="46" x2="703" y2="44" stroke="black" stroke-width="1" />
<rect x="674" y="42" width="18" height="5" style="fill:#5d3c2d;stroke:black;stroke-width:1;fill-opacity:1;stroke-opacity:0.3" />
<rect x="703" y="42" width="18" height="5" style="fill:#5d3c2d;stroke:black;stroke-width:1;fill-opacity:1;stroke-opacity:0.3" />
<line x1="831" y1="44" x2="837" y2="46" stroke="black" stroke-width="1" />
<line x1="837" y1="46" x2="844" y2="44" stroke="black" stroke-width="1" />
<rect x="812" y="42" width="18" height="5" style="fill:#f5b024;stroke:black;stroke-width:1;fill-opacity:1;stroke-opacity:0.3" />
<rect x="844" y="42" width="18" height="5" style="fill:#f5b024;stroke:black;stroke-width:1;fill-opacity:1;stroke-opacity:0.3" />
<line x1="856" y1="51" x2="857" y2="53" stroke="black" stroke-width="1" />
<line x1="857" y1="53" x2="859" y2="51" stroke="black" stroke-width="1" />
<rect x="837" y="49" width="18" height="5" style="fill:#f5b024;stroke:black;stroke-width:1;fill-opacity:1;stroke-opacity:0.3" />
<rect x="859" y="49" width="18" height="5" style="fill:#f5b024;stroke:black;stroke-width:1;fill-opacity:1;stroke-opacity:0.3" />
<line x1="956" y1="44" x2="959" y2="46" stroke="black" stroke-width="1" />
<line x1="959" y1="46" x2="962" y2="44" stroke="black" stroke-width="1" />
<rect x="938" y="42" width="18" height="5" style="fill:#f5b024;stroke:black;stroke-width:1;fill-opacity:1;stroke-opacity:0.3" />
<rect x="962" y="42" width="18" height="5" style="fill:#f5b024;stroke:black;stroke-width:1;fill-opacity:1;stroke-opacity:0.3" />
<line x1="958" y1="51" x2="959" y2="53" stroke="black" stroke-width="1" />
<line x1="959" y1="53" x2="961" y2="51" stroke="black" stroke-width="1" />
<rect x="940" y="49" width="18" height="5" style="fill:#f5b024;stroke:black;stroke-width:1;fill-opacity:1;stroke-opacity:0.3" />
<rect x="961" y="49" width="18" height="5" style="fill:#f5b024;stroke:black;stroke-width:1;fill-opacity:1;stroke-opacity:0.3" />
<text x="15"  y="176" style="font-family:Arial;font-size:10;stroke:black;fill:black;">all.merged.bam</text>
</svg>
    
