<?xml version="1.0" encoding="utf-8" standalone="no"?>
<!DOCTYPE svg PUBLIC "-//W3C//DTD SVG 1.1//EN"
  "http://www.w3.org/Graphics/SVG/1.1/DTD/svg11.dtd">
<svg height="1140" width="1000" version="1.1" viewBox="0 0 1000 1140" xmlns="http://www.w3.org/2000/svg" xmlns:xlink="http://www.w3.org/1999/xlink">
<line x1="86" y1="11" x2="912" y2="11" stroke="black" stroke-width="1" />
<rect x="86" y="9" width="47" height="5" style="fill:#f50002;stroke:black;stroke-width:1;fill-opacity:1;stroke-opacity:0.3" />
<rect x="135" y="9" width="142" height="5" style="fill:#53a1b5;stroke:black;stroke-width:1;fill-opacity:1;stroke-opacity:0.3" />
<rect x="502" y="9" width="81" height="5" style="fill:#53a1b5;stroke:black;stroke-width:1;fill-opacity:1;stroke-opacity:0.3" />
<rect x="584" y="9" width="328" height="5" style="fill:#f50002;stroke:black;stroke-width:1;fill-opacity:1;stroke-opacity:0.3" />
<text x="86"  y="23" style="font-family:Arial;font-size:10;stroke:black;fill:black;">Cre03.g151950.t1.2.v5.5 (+) chromosome_3:1503404-1504358</text>
<line x1="203" y1="30" x2="208" y2="32" stroke="black" stroke-width="1" />
<line x1="208" y1="32" x2="214" y2="30" stroke="black" stroke-width="1" />
<rect x="85" y="28" width="117" height="5" style="fill:#f5b024;stroke:black;stroke-width:1;fill-opacity:1;stroke-opacity:0.3" />
<rect x="214" y="28" width="64" height="5" style="fill:#f5b024;stroke:black;stroke-width:1;fill-opacity:1;stroke-opacity:0.3" />
<line x1="278" y1="30" x2="502" y2="30" stroke="pink" stroke-width="1" />
<rect x="502" y="28" width="65" height="5" style="fill:#f5b024;stroke:black;stroke-width:1;fill-opacity:1;stroke-opacity:0.3" />
<line x1="182" y1="37" x2="192" y2="39" stroke="black" stroke-width="1" />
<line x1="192" y1="39" x2="202" y2="37" stroke="black" stroke-width="1" />
<rect x="96" y="35" width="86" height="5" style="fill:#5d3c2d;stroke:black;stroke-width:1;fill-opacity:1;stroke-opacity:0.3" />
<rect x="202" y="35" width="76" height="5" style="fill:#5d3c2d;stroke:black;stroke-width:1;fill-opacity:1;stroke-opacity:0.3" />
<line x1="278" y1="37" x2="502" y2="37" stroke="pink" stroke-width="1" />
<rect x="502" y="35" width="10" height="5" style="fill:#5d3c2d;stroke:black;stroke-width:1;fill-opacity:1;stroke-opacity:0.3" />
<line x1="182" y1="44" x2="189" y2="46" stroke="black" stroke-width="1" />
<line x1="189" y1="46" x2="197" y2="44" stroke="black" stroke-width="1" />
<rect x="96" y="42" width="86" height="5" style="fill:#5d3c2d;stroke:black;stroke-width:1;fill-opacity:1;stroke-opacity:0.3" />
<rect x="197" y="42" width="81" height="5" style="fill:#5d3c2d;stroke:black;stroke-width:1;fill-opacity:1;stroke-opacity:0.3" />
<line x1="278" y1="44" x2="502" y2="44" stroke="pink" stroke-width="1" />
<rect x="502" y="42" width="5" height="5" style="fill:#5d3c2d;stroke:black;stroke-width:1;fill-opacity:1;stroke-opacity:0.3" />
<line x1="182" y1="51" x2="191" y2="53" stroke="black" stroke-width="1" />
<line x1="191" y1="53" x2="201" y2="51" stroke="black" stroke-width="1" />
<rect x="96" y="49" width="86" height="5" style="fill:#5d3c2d;stroke:black;stroke-width:1;fill-opacity:1;stroke-opacity:0.3" />
<rect x="201" y="49" width="77" height="5" style="fill:#5d3c2d;stroke:black;stroke-width:1;fill-opacity:1;stroke-opacity:0.3" />
<line x1="278" y1="51" x2="502" y2="51" stroke="pink" stroke-width="1" />
<rect x="502" y="49" width="9" height="5" style="fill:#5d3c2d;stroke:black;stroke-width:1;fill-opacity:1;stroke-opacity:0.3" />
<line x1="184" y1="58" x2="213" y2="60" stroke="black" stroke-width="1" />
<line x1="213" y1="60" x2="242" y2="58" stroke="black" stroke-width="1" />
<rect x="97" y="56" width="86" height="5" style="fill:#5d3c2d;stroke:black;stroke-width:1;fill-opacity:1;stroke-opacity:0.3" />
<rect x="242" y="56" width="36" height="5" style="fill:#5d3c2d;stroke:black;stroke-width:1;fill-opacity:1;stroke-opacity:0.3" />
<line x1="278" y1="58" x2="502" y2="58" stroke="pink" stroke-width="1" />
<rect x="502" y="56" width="50" height="5" style="fill:#5d3c2d;stroke:black;stroke-width:1;fill-opacity:1;stroke-opacity:0.3" />
<line x1="184" y1="65" x2="200" y2="67" stroke="black" stroke-width="1" />
<line x1="200" y1="67" x2="217" y2="65" stroke="black" stroke-width="1" />
<rect x="97" y="63" width="86" height="5" style="fill:#5d3c2d;stroke:black;stroke-width:1;fill-opacity:1;stroke-opacity:0.3" />
<rect x="217" y="63" width="61" height="5" style="fill:#5d3c2d;stroke:black;stroke-width:1;fill-opacity:1;stroke-opacity:0.3" />
<line x1="278" y1="65" x2="502" y2="65" stroke="pink" stroke-width="1" />
<rect x="502" y="63" width="25" height="5" style="fill:#5d3c2d;stroke:black;stroke-width:1;fill-opacity:1;stroke-opacity:0.3" />
<line x1="187" y1="72" x2="198" y2="74" stroke="black" stroke-width="1" />
<line x1="198" y1="74" x2="210" y2="72" stroke="black" stroke-width="1" />
<rect x="100" y="70" width="86" height="5" style="fill:#5d3c2d;stroke:black;stroke-width:1;fill-opacity:1;stroke-opacity:0.3" />
<rect x="210" y="70" width="68" height="5" style="fill:#5d3c2d;stroke:black;stroke-width:1;fill-opacity:1;stroke-opacity:0.3" />
<line x1="278" y1="72" x2="502" y2="72" stroke="pink" stroke-width="1" />
<rect x="502" y="70" width="18" height="5" style="fill:#5d3c2d;stroke:black;stroke-width:1;fill-opacity:1;stroke-opacity:0.3" />
<line x1="187" y1="79" x2="193" y2="81" stroke="black" stroke-width="1" />
<line x1="193" y1="81" x2="199" y2="79" stroke="black" stroke-width="1" />
<rect x="100" y="77" width="86" height="5" style="fill:#5d3c2d;stroke:black;stroke-width:1;fill-opacity:1;stroke-opacity:0.3" />
<rect x="199" y="77" width="79" height="5" style="fill:#5d3c2d;stroke:black;stroke-width:1;fill-opacity:1;stroke-opacity:0.3" />
<line x1="278" y1="79" x2="502" y2="79" stroke="pink" stroke-width="1" />
<rect x="502" y="77" width="6" height="5" style="fill:#5d3c2d;stroke:black;stroke-width:1;fill-opacity:1;stroke-opacity:0.3" />
<line x1="187" y1="86" x2="200" y2="88" stroke="black" stroke-width="1" />
<line x1="200" y1="88" x2="214" y2="86" stroke="black" stroke-width="1" />
<rect x="100" y="84" width="86" height="5" style="fill:#5d3c2d;stroke:black;stroke-width:1;fill-opacity:1;stroke-opacity:0.3" />
<rect x="214" y="84" width="64" height="5" style="fill:#5d3c2d;stroke:black;stroke-width:1;fill-opacity:1;stroke-opacity:0.3" />
<line x1="278" y1="86" x2="502" y2="86" stroke="pink" stroke-width="1" />
<rect x="502" y="84" width="22" height="5" style="fill:#5d3c2d;stroke:black;stroke-width:1;fill-opacity:1;stroke-opacity:0.3" />
<line x1="230" y1="93" x2="370" y2="95" stroke="black" stroke-width="1" />
<line x1="370" y1="95" x2="511" y2="93" stroke="black" stroke-width="1" />
<rect x="101" y="91" width="129" height="5" style="fill:#5d3c2d;stroke:black;stroke-width:1;fill-opacity:1;stroke-opacity:0.3" />
<rect x="511" y="91" width="129" height="5" style="fill:#5d3c2d;stroke:black;stroke-width:1;fill-opacity:1;stroke-opacity:0.3" />
<line x1="187" y1="100" x2="201" y2="102" stroke="black" stroke-width="1" />
<line x1="201" y1="102" x2="216" y2="100" stroke="black" stroke-width="1" />
<rect x="101" y="98" width="86" height="5" style="fill:#5d3c2d;stroke:black;stroke-width:1;fill-opacity:1;stroke-opacity:0.3" />
<rect x="216" y="98" width="62" height="5" style="fill:#5d3c2d;stroke:black;stroke-width:1;fill-opacity:1;stroke-opacity:0.3" />
<line x1="278" y1="100" x2="502" y2="100" stroke="pink" stroke-width="1" />
<rect x="502" y="98" width="24" height="5" style="fill:#5d3c2d;stroke:black;stroke-width:1;fill-opacity:1;stroke-opacity:0.3" />
<line x1="187" y1="107" x2="196" y2="109" stroke="black" stroke-width="1" />
<line x1="196" y1="109" x2="206" y2="107" stroke="black" stroke-width="1" />
<rect x="101" y="105" width="86" height="5" style="fill:#5d3c2d;stroke:black;stroke-width:1;fill-opacity:1;stroke-opacity:0.3" />
<rect x="206" y="105" width="72" height="5" style="fill:#5d3c2d;stroke:black;stroke-width:1;fill-opacity:1;stroke-opacity:0.3" />
<line x1="278" y1="107" x2="502" y2="107" stroke="pink" stroke-width="1" />
<rect x="502" y="105" width="13" height="5" style="fill:#5d3c2d;stroke:black;stroke-width:1;fill-opacity:1;stroke-opacity:0.3" />
<line x1="194" y1="114" x2="200" y2="116" stroke="black" stroke-width="1" />
<line x1="200" y1="116" x2="206" y2="114" stroke="black" stroke-width="1" />
<rect x="108" y="112" width="86" height="5" style="fill:#5d3c2d;stroke:black;stroke-width:1;fill-opacity:1;stroke-opacity:0.3" />
<rect x="206" y="112" width="72" height="5" style="fill:#5d3c2d;stroke:black;stroke-width:1;fill-opacity:1;stroke-opacity:0.3" />
<line x1="278" y1="114" x2="502" y2="114" stroke="pink" stroke-width="1" />
<rect x="502" y="112" width="13" height="5" style="fill:#5d3c2d;stroke:black;stroke-width:1;fill-opacity:1;stroke-opacity:0.3" />
<line x1="201" y1="121" x2="206" y2="123" stroke="black" stroke-width="1" />
<line x1="206" y1="123" x2="212" y2="121" stroke="black" stroke-width="1" />
<rect x="115" y="119" width="86" height="5" style="fill:#5d3c2d;stroke:black;stroke-width:1;fill-opacity:1;stroke-opacity:0.3" />
<rect x="212" y="119" width="66" height="5" style="fill:#5d3c2d;stroke:black;stroke-width:1;fill-opacity:1;stroke-opacity:0.3" />
<line x1="278" y1="121" x2="502" y2="121" stroke="pink" stroke-width="1" />
<rect x="502" y="119" width="19" height="5" style="fill:#5d3c2d;stroke:black;stroke-width:1;fill-opacity:1;stroke-opacity:0.3" />
<line x1="217" y1="128" x2="437" y2="130" stroke="black" stroke-width="1" />
<line x1="437" y1="130" x2="657" y2="128" stroke="black" stroke-width="1" />
<rect x="130" y="126" width="86" height="5" style="fill:#5d3c2d;stroke:black;stroke-width:1;fill-opacity:1;stroke-opacity:0.3" />
<rect x="657" y="126" width="86" height="5" style="fill:#5d3c2d;stroke:black;stroke-width:1;fill-opacity:1;stroke-opacity:0.3" />
<line x1="226" y1="135" x2="251" y2="137" stroke="black" stroke-width="1" />
<line x1="251" y1="137" x2="277" y2="135" stroke="black" stroke-width="1" />
<rect x="140" y="133" width="86" height="5" style="fill:#5d3c2d;stroke:black;stroke-width:1;fill-opacity:1;stroke-opacity:0.3" />
<rect x="277" y="133" width="1" height="5" style="fill:#5d3c2d;stroke:black;stroke-width:1;fill-opacity:1;stroke-opacity:0.3" />
<line x1="278" y1="135" x2="502" y2="135" stroke="pink" stroke-width="1" />
<rect x="502" y="133" width="84" height="5" style="fill:#5d3c2d;stroke:black;stroke-width:1;fill-opacity:1;stroke-opacity:0.3" />
<line x1="226" y1="142" x2="234" y2="144" stroke="black" stroke-width="1" />
<line x1="234" y1="144" x2="242" y2="142" stroke="black" stroke-width="1" />
<rect x="140" y="140" width="86" height="5" style="fill:#5d3c2d;stroke:black;stroke-width:1;fill-opacity:1;stroke-opacity:0.3" />
<rect x="242" y="140" width="36" height="5" style="fill:#5d3c2d;stroke:black;stroke-width:1;fill-opacity:1;stroke-opacity:0.3" />
<line x1="278" y1="142" x2="502" y2="142" stroke="pink" stroke-width="1" />
<rect x="502" y="140" width="50" height="5" style="fill:#5d3c2d;stroke:black;stroke-width:1;fill-opacity:1;stroke-opacity:0.3" />
<line x1="228" y1="149" x2="236" y2="151" stroke="black" stroke-width="1" />
<line x1="236" y1="151" x2="244" y2="149" stroke="black" stroke-width="1" />
<rect x="141" y="147" width="86" height="5" style="fill:#5d3c2d;stroke:black;stroke-width:1;fill-opacity:1;stroke-opacity:0.3" />
<rect x="244" y="147" width="34" height="5" style="fill:#5d3c2d;stroke:black;stroke-width:1;fill-opacity:1;stroke-opacity:0.3" />
<line x1="278" y1="149" x2="502" y2="149" stroke="pink" stroke-width="1" />
<rect x="502" y="147" width="51" height="5" style="fill:#5d3c2d;stroke:black;stroke-width:1;fill-opacity:1;stroke-opacity:0.3" />
<line x1="231" y1="156" x2="241" y2="158" stroke="black" stroke-width="1" />
<line x1="241" y1="158" x2="251" y2="156" stroke="black" stroke-width="1" />
<rect x="144" y="154" width="86" height="5" style="fill:#5d3c2d;stroke:black;stroke-width:1;fill-opacity:1;stroke-opacity:0.3" />
<rect x="251" y="154" width="27" height="5" style="fill:#5d3c2d;stroke:black;stroke-width:1;fill-opacity:1;stroke-opacity:0.3" />
<line x1="278" y1="156" x2="507" y2="156" stroke="pink" stroke-width="1" />
<rect x="507" y="154" width="58" height="5" style="fill:#5d3c2d;stroke:black;stroke-width:1;fill-opacity:1;stroke-opacity:0.3" />
<line x1="240" y1="163" x2="258" y2="165" stroke="black" stroke-width="1" />
<line x1="258" y1="165" x2="276" y2="163" stroke="black" stroke-width="1" />
<rect x="154" y="161" width="86" height="5" style="fill:#5d3c2d;stroke:black;stroke-width:1;fill-opacity:1;stroke-opacity:0.3" />
<rect x="276" y="161" width="2" height="5" style="fill:#5d3c2d;stroke:black;stroke-width:1;fill-opacity:1;stroke-opacity:0.3" />
<line x1="278" y1="163" x2="502" y2="163" stroke="pink" stroke-width="1" />
<rect x="502" y="161" width="83" height="5" style="fill:#5d3c2d;stroke:black;stroke-width:1;fill-opacity:1;stroke-opacity:0.3" />
<line x1="598" y1="44" x2="618" y2="46" stroke="black" stroke-width="1" />
<line x1="618" y1="46" x2="638" y2="44" stroke="black" stroke-width="1" />
<rect x="511" y="42" width="86" height="5" style="fill:#5d3c2d;stroke:black;stroke-width:1;fill-opacity:1;stroke-opacity:0.3" />
<rect x="638" y="42" width="86" height="5" style="fill:#5d3c2d;stroke:black;stroke-width:1;fill-opacity:1;stroke-opacity:0.3" />
<line x1="593" y1="37" x2="615" y2="39" stroke="black" stroke-width="1" />
<line x1="615" y1="39" x2="637" y2="37" stroke="black" stroke-width="1" />
<rect x="512" y="35" width="81" height="5" style="fill:#5d3c2d;stroke:black;stroke-width:1;fill-opacity:1;stroke-opacity:0.3" />
<rect x="637" y="35" width="86" height="5" style="fill:#5d3c2d;stroke:black;stroke-width:1;fill-opacity:1;stroke-opacity:0.3" />
<line x1="600" y1="51" x2="627" y2="53" stroke="black" stroke-width="1" />
<line x1="627" y1="53" x2="655" y2="51" stroke="black" stroke-width="1" />
<rect x="513" y="49" width="86" height="5" style="fill:#5d3c2d;stroke:black;stroke-width:1;fill-opacity:1;stroke-opacity:0.3" />
<rect x="655" y="49" width="86" height="5" style="fill:#5d3c2d;stroke:black;stroke-width:1;fill-opacity:1;stroke-opacity:0.3" />
<line x1="609" y1="72" x2="666" y2="74" stroke="black" stroke-width="1" />
<line x1="666" y1="74" x2="723" y2="72" stroke="black" stroke-width="1" />
<rect x="522" y="70" width="86" height="5" style="fill:#5d3c2d;stroke:black;stroke-width:1;fill-opacity:1;stroke-opacity:0.3" />
<rect x="723" y="70" width="86" height="5" style="fill:#5d3c2d;stroke:black;stroke-width:1;fill-opacity:1;stroke-opacity:0.3" />
<line x1="610" y1="79" x2="623" y2="81" stroke="black" stroke-width="1" />
<line x1="623" y1="81" x2="637" y2="79" stroke="black" stroke-width="1" />
<rect x="523" y="77" width="86" height="5" style="fill:#5d3c2d;stroke:black;stroke-width:1;fill-opacity:1;stroke-opacity:0.3" />
<rect x="637" y="77" width="86" height="5" style="fill:#5d3c2d;stroke:black;stroke-width:1;fill-opacity:1;stroke-opacity:0.3" />
<line x1="611" y1="86" x2="633" y2="88" stroke="black" stroke-width="1" />
<line x1="633" y1="88" x2="655" y2="86" stroke="black" stroke-width="1" />
<rect x="524" y="84" width="86" height="5" style="fill:#5d3c2d;stroke:black;stroke-width:1;fill-opacity:1;stroke-opacity:0.3" />
<rect x="655" y="84" width="86" height="5" style="fill:#5d3c2d;stroke:black;stroke-width:1;fill-opacity:1;stroke-opacity:0.3" />
<line x1="612" y1="107" x2="624" y2="109" stroke="black" stroke-width="1" />
<line x1="624" y1="109" x2="637" y2="107" stroke="black" stroke-width="1" />
<rect x="525" y="105" width="86" height="5" style="fill:#5d3c2d;stroke:black;stroke-width:1;fill-opacity:1;stroke-opacity:0.3" />
<rect x="637" y="105" width="86" height="5" style="fill:#5d3c2d;stroke:black;stroke-width:1;fill-opacity:1;stroke-opacity:0.3" />
<line x1="612" y1="100" x2="624" y2="102" stroke="black" stroke-width="1" />
<line x1="624" y1="102" x2="636" y2="100" stroke="black" stroke-width="1" />
<rect x="526" y="98" width="86" height="5" style="fill:#5d3c2d;stroke:black;stroke-width:1;fill-opacity:1;stroke-opacity:0.3" />
<rect x="636" y="98" width="86" height="5" style="fill:#5d3c2d;stroke:black;stroke-width:1;fill-opacity:1;stroke-opacity:0.3" />
<line x1="613" y1="65" x2="620" y2="67" stroke="black" stroke-width="1" />
<line x1="620" y1="67" x2="628" y2="65" stroke="black" stroke-width="1" />
<rect x="527" y="63" width="86" height="5" style="fill:#5d3c2d;stroke:black;stroke-width:1;fill-opacity:1;stroke-opacity:0.3" />
<rect x="628" y="63" width="86" height="5" style="fill:#5d3c2d;stroke:black;stroke-width:1;fill-opacity:1;stroke-opacity:0.3" />
<line x1="613" y1="114" x2="620" y2="116" stroke="black" stroke-width="1" />
<line x1="620" y1="116" x2="628" y2="114" stroke="black" stroke-width="1" />
<rect x="528" y="112" width="85" height="5" style="fill:#5d3c2d;stroke:black;stroke-width:1;fill-opacity:1;stroke-opacity:0.3" />
<rect x="628" y="112" width="86" height="5" style="fill:#5d3c2d;stroke:black;stroke-width:1;fill-opacity:1;stroke-opacity:0.3" />
<line x1="614" y1="121" x2="620" y2="123" stroke="black" stroke-width="1" />
<line x1="620" y1="123" x2="627" y2="121" stroke="black" stroke-width="1" />
<rect x="528" y="119" width="86" height="5" style="fill:#5d3c2d;stroke:black;stroke-width:1;fill-opacity:1;stroke-opacity:0.3" />
<rect x="627" y="119" width="86" height="5" style="fill:#5d3c2d;stroke:black;stroke-width:1;fill-opacity:1;stroke-opacity:0.3" />
<line x1="642" y1="58" x2="650" y2="60" stroke="black" stroke-width="1" />
<line x1="650" y1="60" x2="658" y2="58" stroke="black" stroke-width="1" />
<rect x="555" y="56" width="86" height="5" style="fill:#5d3c2d;stroke:black;stroke-width:1;fill-opacity:1;stroke-opacity:0.3" />
<rect x="658" y="56" width="86" height="5" style="fill:#5d3c2d;stroke:black;stroke-width:1;fill-opacity:1;stroke-opacity:0.3" />
<line x1="646" y1="142" x2="651" y2="144" stroke="black" stroke-width="1" />
<line x1="651" y1="144" x2="656" y2="142" stroke="black" stroke-width="1" />
<rect x="560" y="140" width="86" height="5" style="fill:#5d3c2d;stroke:black;stroke-width:1;fill-opacity:1;stroke-opacity:0.3" />
<rect x="656" y="140" width="86" height="5" style="fill:#5d3c2d;stroke:black;stroke-width:1;fill-opacity:1;stroke-opacity:0.3" />
<line x1="651" y1="149" x2="663" y2="151" stroke="black" stroke-width="1" />
<line x1="663" y1="151" x2="675" y2="149" stroke="black" stroke-width="1" />
<rect x="564" y="147" width="86" height="5" style="fill:#5d3c2d;stroke:black;stroke-width:1;fill-opacity:1;stroke-opacity:0.3" />
<rect x="675" y="147" width="86" height="5" style="fill:#5d3c2d;stroke:black;stroke-width:1;fill-opacity:1;stroke-opacity:0.3" />
<line x1="672" y1="30" x2="681" y2="32" stroke="black" stroke-width="1" />
<line x1="681" y1="32" x2="691" y2="30" stroke="black" stroke-width="1" />
<rect x="586" y="28" width="86" height="5" style="fill:#5d3c2d;stroke:black;stroke-width:1;fill-opacity:1;stroke-opacity:0.3" />
<rect x="691" y="28" width="85" height="5" style="fill:#5d3c2d;stroke:black;stroke-width:1;fill-opacity:1;stroke-opacity:0.3" />
<line x1="672" y1="156" x2="681" y2="158" stroke="black" stroke-width="1" />
<line x1="681" y1="158" x2="690" y2="156" stroke="black" stroke-width="1" />
<rect x="586" y="154" width="86" height="5" style="fill:#5d3c2d;stroke:black;stroke-width:1;fill-opacity:1;stroke-opacity:0.3" />
<rect x="690" y="154" width="86" height="5" style="fill:#5d3c2d;stroke:black;stroke-width:1;fill-opacity:1;stroke-opacity:0.3" />
<line x1="677" y1="135" x2="688" y2="137" stroke="black" stroke-width="1" />
<line x1="688" y1="137" x2="700" y2="135" stroke="black" stroke-width="1" />
<rect x="590" y="133" width="86" height="5" style="fill:#5d3c2d;stroke:black;stroke-width:1;fill-opacity:1;stroke-opacity:0.3" />
<rect x="700" y="133" width="86" height="5" style="fill:#5d3c2d;stroke:black;stroke-width:1;fill-opacity:1;stroke-opacity:0.3" />
<line x1="687" y1="163" x2="729" y2="165" stroke="black" stroke-width="1" />
<line x1="729" y1="165" x2="771" y2="163" stroke="black" stroke-width="1" />
<rect x="600" y="161" width="86" height="5" style="fill:#5d3c2d;stroke:black;stroke-width:1;fill-opacity:1;stroke-opacity:0.3" />
<rect x="771" y="161" width="84" height="5" style="fill:#5d3c2d;stroke:black;stroke-width:1;fill-opacity:1;stroke-opacity:0.3" />
<line x1="733" y1="93" x2="745" y2="95" stroke="black" stroke-width="1" />
<line x1="745" y1="95" x2="758" y2="93" stroke="black" stroke-width="1" />
<rect x="646" y="91" width="86" height="5" style="fill:#5d3c2d;stroke:black;stroke-width:1;fill-opacity:1;stroke-opacity:0.3" />
<rect x="758" y="91" width="85" height="5" style="fill:#5d3c2d;stroke:black;stroke-width:1;fill-opacity:1;stroke-opacity:0.3" />
<line x1="800" y1="121" x2="805" y2="123" stroke="black" stroke-width="1" />
<line x1="805" y1="123" x2="811" y2="121" stroke="black" stroke-width="1" />
<rect x="714" y="119" width="86" height="5" style="fill:#5d3c2d;stroke:black;stroke-width:1;fill-opacity:1;stroke-opacity:0.3" />
<rect x="811" y="119" width="86" height="5" style="fill:#5d3c2d;stroke:black;stroke-width:1;fill-opacity:1;stroke-opacity:0.3" />
<line x1="816" y1="37" x2="820" y2="39" stroke="black" stroke-width="1" />
<line x1="820" y1="39" x2="825" y2="37" stroke="black" stroke-width="1" />
<rect x="729" y="35" width="86" height="5" style="fill:#5d3c2d;stroke:black;stroke-width:1;fill-opacity:1;stroke-opacity:0.3" />
<rect x="825" y="35" width="86" height="5" style="fill:#5d3c2d;stroke:black;stroke-width:1;fill-opacity:1;stroke-opacity:0.3" />
<line x1="818" y1="44" x2="822" y2="46" stroke="black" stroke-width="1" />
<line x1="822" y1="46" x2="826" y2="44" stroke="black" stroke-width="1" />
<rect x="731" y="42" width="86" height="5" style="fill:#5d3c2d;stroke:black;stroke-width:1;fill-opacity:1;stroke-opacity:0.3" />
<rect x="826" y="42" width="86" height="5" style="fill:#5d3c2d;stroke:black;stroke-width:1;fill-opacity:1;stroke-opacity:0.3" />
<text x="15"  y="176" style="font-family:Arial;font-size:10;stroke:black;fill:black;">all.merged.bam</text>
</svg>
    
