<?xml version="1.0" encoding="utf-8" standalone="no"?>
<!DOCTYPE svg PUBLIC "-//W3C//DTD SVG 1.1//EN"
  "http://www.w3.org/Graphics/SVG/1.1/DTD/svg11.dtd">
<svg height="1140" width="1000" version="1.1" viewBox="0 0 1000 1140" xmlns="http://www.w3.org/2000/svg" xmlns:xlink="http://www.w3.org/1999/xlink">
<line x1="15" y1="11" x2="984" y2="11" stroke="black" stroke-width="1" />
<rect x="15" y="9" width="21" height="5" style="fill:#f50002;stroke:black;stroke-width:1;fill-opacity:1;stroke-opacity:0.3" />
<rect x="37" y="9" width="15" height="5" style="fill:#53a1b5;stroke:black;stroke-width:1;fill-opacity:1;stroke-opacity:0.3" />
<rect x="61" y="9" width="92" height="5" style="fill:#53a1b5;stroke:black;stroke-width:1;fill-opacity:1;stroke-opacity:0.3" />
<rect x="164" y="9" width="40" height="5" style="fill:#53a1b5;stroke:black;stroke-width:1;fill-opacity:1;stroke-opacity:0.3" />
<rect x="213" y="9" width="9" height="5" style="fill:#53a1b5;stroke:black;stroke-width:1;fill-opacity:1;stroke-opacity:0.3" />
<rect x="237" y="9" width="24" height="5" style="fill:#53a1b5;stroke:black;stroke-width:1;fill-opacity:1;stroke-opacity:0.3" />
<rect x="283" y="9" width="73" height="5" style="fill:#53a1b5;stroke:black;stroke-width:1;fill-opacity:1;stroke-opacity:0.3" />
<rect x="461" y="9" width="75" height="5" style="fill:#53a1b5;stroke:black;stroke-width:1;fill-opacity:1;stroke-opacity:0.3" />
<rect x="560" y="9" width="1" height="5" style="fill:#53a1b5;stroke:black;stroke-width:1;fill-opacity:1;stroke-opacity:0.3" />
<rect x="562" y="9" width="422" height="5" style="fill:#f50002;stroke:black;stroke-width:1;fill-opacity:1;stroke-opacity:0.3" />
<text x="15"  y="23" style="font-family:Arial;font-size:10;stroke:black;fill:black;">Cre06.g278280.t1.1.v5.5 (+) chromosome_6:4461740-4468111</text>
<line x1="341" y1="30" x2="344" y2="32" stroke="black" stroke-width="1" />
<line x1="344" y1="32" x2="347" y2="30" stroke="black" stroke-width="1" />
<rect x="326" y="28" width="15" height="5" style="fill:#5d3c2d;stroke:black;stroke-width:1;fill-opacity:1;stroke-opacity:0.3" />
<rect x="347" y="28" width="15" height="5" style="fill:#5d3c2d;stroke:black;stroke-width:1;fill-opacity:1;stroke-opacity:0.3" />
<line x1="674" y1="30" x2="675" y2="32" stroke="black" stroke-width="1" />
<line x1="675" y1="32" x2="677" y2="30" stroke="black" stroke-width="1" />
<rect x="660" y="28" width="13" height="5" style="fill:#5d3c2d;stroke:black;stroke-width:1;fill-opacity:1;stroke-opacity:0.3" />
<rect x="677" y="28" width="15" height="5" style="fill:#5d3c2d;stroke:black;stroke-width:1;fill-opacity:1;stroke-opacity:0.3" />
<line x1="682" y1="37" x2="690" y2="39" stroke="black" stroke-width="1" />
<line x1="690" y1="39" x2="699" y2="37" stroke="black" stroke-width="1" />
<rect x="670" y="35" width="12" height="5" style="fill:#f5b024;stroke:black;stroke-width:1;fill-opacity:1;stroke-opacity:0.3" />
<rect x="699" y="35" width="15" height="5" style="fill:#f5b024;stroke:black;stroke-width:1;fill-opacity:1;stroke-opacity:0.3" />
<line x1="689" y1="44" x2="691" y2="46" stroke="black" stroke-width="1" />
<line x1="691" y1="46" x2="694" y2="44" stroke="black" stroke-width="1" />
<rect x="674" y="42" width="15" height="5" style="fill:#5d3c2d;stroke:black;stroke-width:1;fill-opacity:1;stroke-opacity:0.3" />
<rect x="694" y="42" width="14" height="5" style="fill:#5d3c2d;stroke:black;stroke-width:1;fill-opacity:1;stroke-opacity:0.3" />
<line x1="775" y1="30" x2="777" y2="32" stroke="black" stroke-width="1" />
<line x1="777" y1="32" x2="779" y2="30" stroke="black" stroke-width="1" />
<rect x="760" y="28" width="15" height="5" style="fill:#5d3c2d;stroke:black;stroke-width:1;fill-opacity:1;stroke-opacity:0.3" />
<rect x="779" y="28" width="15" height="5" style="fill:#5d3c2d;stroke:black;stroke-width:1;fill-opacity:1;stroke-opacity:0.3" />
<line x1="775" y1="37" x2="777" y2="39" stroke="black" stroke-width="1" />
<line x1="777" y1="39" x2="779" y2="37" stroke="black" stroke-width="1" />
<rect x="760" y="35" width="15" height="5" style="fill:#5d3c2d;stroke:black;stroke-width:1;fill-opacity:1;stroke-opacity:0.3" />
<rect x="779" y="35" width="15" height="5" style="fill:#5d3c2d;stroke:black;stroke-width:1;fill-opacity:1;stroke-opacity:0.3" />
<line x1="783" y1="44" x2="788" y2="46" stroke="black" stroke-width="1" />
<line x1="788" y1="46" x2="793" y2="44" stroke="black" stroke-width="1" />
<rect x="760" y="42" width="22" height="5" style="fill:#5d3c2d;stroke:black;stroke-width:1;fill-opacity:1;stroke-opacity:0.3" />
<rect x="793" y="42" width="22" height="5" style="fill:#5d3c2d;stroke:black;stroke-width:1;fill-opacity:1;stroke-opacity:0.3" />
<line x1="776" y1="51" x2="777" y2="53" stroke="black" stroke-width="1" />
<line x1="777" y1="53" x2="779" y2="51" stroke="black" stroke-width="1" />
<rect x="760" y="49" width="15" height="5" style="fill:#5d3c2d;stroke:black;stroke-width:1;fill-opacity:1;stroke-opacity:0.3" />
<rect x="779" y="49" width="15" height="5" style="fill:#5d3c2d;stroke:black;stroke-width:1;fill-opacity:1;stroke-opacity:0.3" />
<line x1="776" y1="58" x2="779" y2="60" stroke="black" stroke-width="1" />
<line x1="779" y1="60" x2="782" y2="58" stroke="black" stroke-width="1" />
<rect x="760" y="56" width="15" height="5" style="fill:#5d3c2d;stroke:black;stroke-width:1;fill-opacity:1;stroke-opacity:0.3" />
<rect x="782" y="56" width="15" height="5" style="fill:#5d3c2d;stroke:black;stroke-width:1;fill-opacity:1;stroke-opacity:0.3" />
<line x1="776" y1="65" x2="777" y2="67" stroke="black" stroke-width="1" />
<line x1="777" y1="67" x2="779" y2="65" stroke="black" stroke-width="1" />
<rect x="760" y="63" width="15" height="5" style="fill:#5d3c2d;stroke:black;stroke-width:1;fill-opacity:1;stroke-opacity:0.3" />
<rect x="779" y="63" width="15" height="5" style="fill:#5d3c2d;stroke:black;stroke-width:1;fill-opacity:1;stroke-opacity:0.3" />
<line x1="776" y1="72" x2="777" y2="74" stroke="black" stroke-width="1" />
<line x1="777" y1="74" x2="779" y2="72" stroke="black" stroke-width="1" />
<rect x="761" y="70" width="15" height="5" style="fill:#5d3c2d;stroke:black;stroke-width:1;fill-opacity:1;stroke-opacity:0.3" />
<rect x="779" y="70" width="15" height="5" style="fill:#5d3c2d;stroke:black;stroke-width:1;fill-opacity:1;stroke-opacity:0.3" />
<line x1="776" y1="79" x2="781" y2="81" stroke="black" stroke-width="1" />
<line x1="781" y1="81" x2="787" y2="79" stroke="black" stroke-width="1" />
<rect x="761" y="77" width="15" height="5" style="fill:#5d3c2d;stroke:black;stroke-width:1;fill-opacity:1;stroke-opacity:0.3" />
<rect x="787" y="77" width="15" height="5" style="fill:#5d3c2d;stroke:black;stroke-width:1;fill-opacity:1;stroke-opacity:0.3" />
<line x1="776" y1="86" x2="777" y2="88" stroke="black" stroke-width="1" />
<line x1="777" y1="88" x2="779" y2="86" stroke="black" stroke-width="1" />
<rect x="761" y="84" width="14" height="5" style="fill:#5d3c2d;stroke:black;stroke-width:1;fill-opacity:1;stroke-opacity:0.3" />
<rect x="779" y="84" width="15" height="5" style="fill:#5d3c2d;stroke:black;stroke-width:1;fill-opacity:1;stroke-opacity:0.3" />
<line x1="777" y1="93" x2="778" y2="95" stroke="black" stroke-width="1" />
<line x1="778" y1="95" x2="779" y2="93" stroke="black" stroke-width="1" />
<rect x="762" y="91" width="15" height="5" style="fill:#5d3c2d;stroke:black;stroke-width:1;fill-opacity:1;stroke-opacity:0.3" />
<rect x="779" y="91" width="15" height="5" style="fill:#5d3c2d;stroke:black;stroke-width:1;fill-opacity:1;stroke-opacity:0.3" />
<line x1="777" y1="100" x2="778" y2="102" stroke="black" stroke-width="1" />
<line x1="778" y1="102" x2="779" y2="100" stroke="black" stroke-width="1" />
<rect x="762" y="98" width="15" height="5" style="fill:#5d3c2d;stroke:black;stroke-width:1;fill-opacity:1;stroke-opacity:0.3" />
<rect x="779" y="98" width="15" height="5" style="fill:#5d3c2d;stroke:black;stroke-width:1;fill-opacity:1;stroke-opacity:0.3" />
<line x1="777" y1="107" x2="778" y2="109" stroke="black" stroke-width="1" />
<line x1="778" y1="109" x2="779" y2="107" stroke="black" stroke-width="1" />
<rect x="762" y="105" width="15" height="5" style="fill:#5d3c2d;stroke:black;stroke-width:1;fill-opacity:1;stroke-opacity:0.3" />
<rect x="779" y="105" width="15" height="5" style="fill:#5d3c2d;stroke:black;stroke-width:1;fill-opacity:1;stroke-opacity:0.3" />
<line x1="777" y1="114" x2="778" y2="116" stroke="black" stroke-width="1" />
<line x1="778" y1="116" x2="779" y2="114" stroke="black" stroke-width="1" />
<rect x="762" y="112" width="15" height="5" style="fill:#5d3c2d;stroke:black;stroke-width:1;fill-opacity:1;stroke-opacity:0.3" />
<rect x="779" y="112" width="15" height="5" style="fill:#5d3c2d;stroke:black;stroke-width:1;fill-opacity:1;stroke-opacity:0.3" />
<line x1="777" y1="121" x2="778" y2="123" stroke="black" stroke-width="1" />
<line x1="778" y1="123" x2="779" y2="121" stroke="black" stroke-width="1" />
<rect x="762" y="119" width="15" height="5" style="fill:#5d3c2d;stroke:black;stroke-width:1;fill-opacity:1;stroke-opacity:0.3" />
<rect x="779" y="119" width="15" height="5" style="fill:#5d3c2d;stroke:black;stroke-width:1;fill-opacity:1;stroke-opacity:0.3" />
<line x1="777" y1="128" x2="778" y2="130" stroke="black" stroke-width="1" />
<line x1="778" y1="130" x2="779" y2="128" stroke="black" stroke-width="1" />
<rect x="762" y="126" width="15" height="5" style="fill:#5d3c2d;stroke:black;stroke-width:1;fill-opacity:1;stroke-opacity:0.3" />
<rect x="779" y="126" width="15" height="5" style="fill:#5d3c2d;stroke:black;stroke-width:1;fill-opacity:1;stroke-opacity:0.3" />
<line x1="777" y1="135" x2="778" y2="137" stroke="black" stroke-width="1" />
<line x1="778" y1="137" x2="779" y2="135" stroke="black" stroke-width="1" />
<rect x="762" y="133" width="15" height="5" style="fill:#5d3c2d;stroke:black;stroke-width:1;fill-opacity:1;stroke-opacity:0.3" />
<rect x="779" y="133" width="15" height="5" style="fill:#5d3c2d;stroke:black;stroke-width:1;fill-opacity:1;stroke-opacity:0.3" />
<line x1="777" y1="142" x2="778" y2="144" stroke="black" stroke-width="1" />
<line x1="778" y1="144" x2="779" y2="142" stroke="black" stroke-width="1" />
<rect x="762" y="140" width="15" height="5" style="fill:#5d3c2d;stroke:black;stroke-width:1;fill-opacity:1;stroke-opacity:0.3" />
<rect x="779" y="140" width="15" height="5" style="fill:#5d3c2d;stroke:black;stroke-width:1;fill-opacity:1;stroke-opacity:0.3" />
<line x1="777" y1="149" x2="778" y2="151" stroke="black" stroke-width="1" />
<line x1="778" y1="151" x2="779" y2="149" stroke="black" stroke-width="1" />
<rect x="762" y="147" width="15" height="5" style="fill:#5d3c2d;stroke:black;stroke-width:1;fill-opacity:1;stroke-opacity:0.3" />
<rect x="779" y="147" width="15" height="5" style="fill:#5d3c2d;stroke:black;stroke-width:1;fill-opacity:1;stroke-opacity:0.3" />
<line x1="777" y1="156" x2="778" y2="158" stroke="black" stroke-width="1" />
<line x1="778" y1="158" x2="780" y2="156" stroke="black" stroke-width="1" />
<rect x="762" y="154" width="15" height="5" style="fill:#5d3c2d;stroke:black;stroke-width:1;fill-opacity:1;stroke-opacity:0.3" />
<rect x="780" y="154" width="15" height="5" style="fill:#5d3c2d;stroke:black;stroke-width:1;fill-opacity:1;stroke-opacity:0.3" />
<line x1="778" y1="163" x2="783" y2="165" stroke="black" stroke-width="1" />
<line x1="783" y1="165" x2="788" y2="163" stroke="black" stroke-width="1" />
<rect x="763" y="161" width="15" height="5" style="fill:#5d3c2d;stroke:black;stroke-width:1;fill-opacity:1;stroke-opacity:0.3" />
<rect x="788" y="161" width="15" height="5" style="fill:#5d3c2d;stroke:black;stroke-width:1;fill-opacity:1;stroke-opacity:0.3" />
<line x1="817" y1="128" x2="837" y2="130" stroke="black" stroke-width="1" />
<line x1="837" y1="130" x2="857" y2="128" stroke="black" stroke-width="1" />
<rect x="794" y="126" width="22" height="5" style="fill:#5d3c2d;stroke:black;stroke-width:1;fill-opacity:1;stroke-opacity:0.3" />
<rect x="857" y="126" width="7" height="5" style="fill:#5d3c2d;stroke:black;stroke-width:1;fill-opacity:1;stroke-opacity:0.3" />
<line x1="864" y1="128" x2="911" y2="128" stroke="pink" stroke-width="1" />
<rect x="911" y="126" width="15" height="5" style="fill:#5d3c2d;stroke:black;stroke-width:1;fill-opacity:1;stroke-opacity:0.3" />
<line x1="809" y1="30" x2="832" y2="32" stroke="black" stroke-width="1" />
<line x1="832" y1="32" x2="855" y2="30" stroke="black" stroke-width="1" />
<rect x="794" y="28" width="14" height="5" style="fill:#5d3c2d;stroke:black;stroke-width:1;fill-opacity:1;stroke-opacity:0.3" />
<rect x="855" y="28" width="8" height="5" style="fill:#5d3c2d;stroke:black;stroke-width:1;fill-opacity:1;stroke-opacity:0.3" />
<line x1="864" y1="30" x2="911" y2="30" stroke="pink" stroke-width="1" />
<rect x="911" y="28" width="5" height="5" style="fill:#5d3c2d;stroke:black;stroke-width:1;fill-opacity:1;stroke-opacity:0.3" />
<line x1="810" y1="37" x2="834" y2="39" stroke="black" stroke-width="1" />
<line x1="834" y1="39" x2="858" y2="37" stroke="black" stroke-width="1" />
<rect x="795" y="35" width="15" height="5" style="fill:#5d3c2d;stroke:black;stroke-width:1;fill-opacity:1;stroke-opacity:0.3" />
<rect x="858" y="35" width="6" height="5" style="fill:#5d3c2d;stroke:black;stroke-width:1;fill-opacity:1;stroke-opacity:0.3" />
<line x1="864" y1="37" x2="911" y2="37" stroke="pink" stroke-width="1" />
<rect x="911" y="35" width="8" height="5" style="fill:#5d3c2d;stroke:black;stroke-width:1;fill-opacity:1;stroke-opacity:0.3" />
<line x1="811" y1="51" x2="830" y2="53" stroke="black" stroke-width="1" />
<line x1="830" y1="53" x2="850" y2="51" stroke="black" stroke-width="1" />
<rect x="795" y="49" width="15" height="5" style="fill:#5d3c2d;stroke:black;stroke-width:1;fill-opacity:1;stroke-opacity:0.3" />
<rect x="850" y="49" width="14" height="5" style="fill:#5d3c2d;stroke:black;stroke-width:1;fill-opacity:1;stroke-opacity:0.3" />
<line x1="864" y1="51" x2="911" y2="51" stroke="pink" stroke-width="1" />
<rect x="911" y="49" width="0" height="5" style="fill:#5d3c2d;stroke:black;stroke-width:1;fill-opacity:1;stroke-opacity:0.3" />
<line x1="811" y1="65" x2="832" y2="67" stroke="black" stroke-width="1" />
<line x1="832" y1="67" x2="854" y2="65" stroke="black" stroke-width="1" />
<rect x="796" y="63" width="15" height="5" style="fill:#5d3c2d;stroke:black;stroke-width:1;fill-opacity:1;stroke-opacity:0.3" />
<rect x="854" y="63" width="10" height="5" style="fill:#5d3c2d;stroke:black;stroke-width:1;fill-opacity:1;stroke-opacity:0.3" />
<line x1="864" y1="65" x2="911" y2="65" stroke="pink" stroke-width="1" />
<rect x="911" y="63" width="4" height="5" style="fill:#5d3c2d;stroke:black;stroke-width:1;fill-opacity:1;stroke-opacity:0.3" />
<line x1="811" y1="72" x2="832" y2="74" stroke="black" stroke-width="1" />
<line x1="832" y1="74" x2="854" y2="72" stroke="black" stroke-width="1" />
<rect x="796" y="70" width="15" height="5" style="fill:#5d3c2d;stroke:black;stroke-width:1;fill-opacity:1;stroke-opacity:0.3" />
<rect x="854" y="70" width="10" height="5" style="fill:#5d3c2d;stroke:black;stroke-width:1;fill-opacity:1;stroke-opacity:0.3" />
<line x1="864" y1="72" x2="911" y2="72" stroke="pink" stroke-width="1" />
<rect x="911" y="70" width="4" height="5" style="fill:#5d3c2d;stroke:black;stroke-width:1;fill-opacity:1;stroke-opacity:0.3" />
<line x1="811" y1="86" x2="833" y2="88" stroke="black" stroke-width="1" />
<line x1="833" y1="88" x2="855" y2="86" stroke="black" stroke-width="1" />
<rect x="796" y="84" width="15" height="5" style="fill:#5d3c2d;stroke:black;stroke-width:1;fill-opacity:1;stroke-opacity:0.3" />
<rect x="855" y="84" width="9" height="5" style="fill:#5d3c2d;stroke:black;stroke-width:1;fill-opacity:1;stroke-opacity:0.3" />
<line x1="864" y1="86" x2="927" y2="86" stroke="pink" stroke-width="1" />
<rect x="927" y="84" width="5" height="5" style="fill:#5d3c2d;stroke:black;stroke-width:1;fill-opacity:1;stroke-opacity:0.3" />
<line x1="812" y1="93" x2="835" y2="95" stroke="black" stroke-width="1" />
<line x1="835" y1="95" x2="858" y2="93" stroke="black" stroke-width="1" />
<rect x="796" y="91" width="15" height="5" style="fill:#5d3c2d;stroke:black;stroke-width:1;fill-opacity:1;stroke-opacity:0.3" />
<rect x="858" y="91" width="6" height="5" style="fill:#5d3c2d;stroke:black;stroke-width:1;fill-opacity:1;stroke-opacity:0.3" />
<line x1="864" y1="93" x2="911" y2="93" stroke="pink" stroke-width="1" />
<rect x="911" y="91" width="8" height="5" style="fill:#5d3c2d;stroke:black;stroke-width:1;fill-opacity:1;stroke-opacity:0.3" />
<line x1="853" y1="100" x2="855" y2="102" stroke="black" stroke-width="1" />
<line x1="855" y1="102" x2="858" y2="100" stroke="black" stroke-width="1" />
<rect x="796" y="98" width="20" height="5" style="fill:#5d3c2d;stroke:black;stroke-width:1;fill-opacity:1;stroke-opacity:0.3" />
<line x1="817" y1="100" x2="850" y2="100" stroke="pink" stroke-width="1" />
<rect x="850" y="98" width="2" height="5" style="fill:#5d3c2d;stroke:black;stroke-width:1;fill-opacity:1;stroke-opacity:0.3" />
<rect x="858" y="98" width="6" height="5" style="fill:#5d3c2d;stroke:black;stroke-width:1;fill-opacity:1;stroke-opacity:0.3" />
<line x1="864" y1="100" x2="911" y2="100" stroke="pink" stroke-width="1" />
<rect x="911" y="98" width="16" height="5" style="fill:#5d3c2d;stroke:black;stroke-width:1;fill-opacity:1;stroke-opacity:0.3" />
<line x1="812" y1="107" x2="814" y2="109" stroke="black" stroke-width="1" />
<line x1="814" y1="109" x2="816" y2="107" stroke="black" stroke-width="1" />
<rect x="796" y="105" width="15" height="5" style="fill:#5d3c2d;stroke:black;stroke-width:1;fill-opacity:1;stroke-opacity:0.3" />
<rect x="816" y="105" width="0" height="5" style="fill:#5d3c2d;stroke:black;stroke-width:1;fill-opacity:1;stroke-opacity:0.3" />
<line x1="817" y1="107" x2="850" y2="107" stroke="pink" stroke-width="1" />
<rect x="850" y="105" width="14" height="5" style="fill:#5d3c2d;stroke:black;stroke-width:1;fill-opacity:1;stroke-opacity:0.3" />
<line x1="864" y1="107" x2="927" y2="107" stroke="pink" stroke-width="1" />
<rect x="927" y="105" width="0" height="5" style="fill:#5d3c2d;stroke:black;stroke-width:1;fill-opacity:1;stroke-opacity:0.3" />
<line x1="812" y1="114" x2="813" y2="116" stroke="black" stroke-width="1" />
<line x1="813" y1="116" x2="814" y2="114" stroke="black" stroke-width="1" />
<rect x="796" y="112" width="15" height="5" style="fill:#f5b024;stroke:black;stroke-width:1;fill-opacity:1;stroke-opacity:0.3" />
<rect x="814" y="112" width="2" height="5" style="fill:#f5b024;stroke:black;stroke-width:1;fill-opacity:1;stroke-opacity:0.3" />
<line x1="817" y1="114" x2="850" y2="114" stroke="pink" stroke-width="1" />
<rect x="850" y="112" width="12" height="5" style="fill:#f5b024;stroke:black;stroke-width:1;fill-opacity:1;stroke-opacity:0.3" />
<line x1="812" y1="121" x2="835" y2="123" stroke="black" stroke-width="1" />
<line x1="835" y1="123" x2="858" y2="121" stroke="black" stroke-width="1" />
<rect x="797" y="119" width="15" height="5" style="fill:#5d3c2d;stroke:black;stroke-width:1;fill-opacity:1;stroke-opacity:0.3" />
<rect x="858" y="119" width="6" height="5" style="fill:#5d3c2d;stroke:black;stroke-width:1;fill-opacity:1;stroke-opacity:0.3" />
<line x1="864" y1="121" x2="911" y2="121" stroke="pink" stroke-width="1" />
<rect x="911" y="119" width="8" height="5" style="fill:#5d3c2d;stroke:black;stroke-width:1;fill-opacity:1;stroke-opacity:0.3" />
<line x1="812" y1="135" x2="814" y2="137" stroke="black" stroke-width="1" />
<line x1="814" y1="137" x2="816" y2="135" stroke="black" stroke-width="1" />
<rect x="797" y="133" width="15" height="5" style="fill:#5d3c2d;stroke:black;stroke-width:1;fill-opacity:1;stroke-opacity:0.3" />
<rect x="816" y="133" width="0" height="5" style="fill:#5d3c2d;stroke:black;stroke-width:1;fill-opacity:1;stroke-opacity:0.3" />
<line x1="817" y1="135" x2="850" y2="135" stroke="pink" stroke-width="1" />
<rect x="850" y="133" width="14" height="5" style="fill:#5d3c2d;stroke:black;stroke-width:1;fill-opacity:1;stroke-opacity:0.3" />
<line x1="864" y1="135" x2="911" y2="135" stroke="pink" stroke-width="1" />
<rect x="911" y="133" width="0" height="5" style="fill:#5d3c2d;stroke:black;stroke-width:1;fill-opacity:1;stroke-opacity:0.3" />
<line x1="812" y1="142" x2="814" y2="144" stroke="black" stroke-width="1" />
<line x1="814" y1="144" x2="816" y2="142" stroke="black" stroke-width="1" />
<rect x="797" y="140" width="15" height="5" style="fill:#5d3c2d;stroke:black;stroke-width:1;fill-opacity:1;stroke-opacity:0.3" />
<rect x="816" y="140" width="0" height="5" style="fill:#5d3c2d;stroke:black;stroke-width:1;fill-opacity:1;stroke-opacity:0.3" />
<line x1="817" y1="142" x2="850" y2="142" stroke="pink" stroke-width="1" />
<rect x="850" y="140" width="14" height="5" style="fill:#5d3c2d;stroke:black;stroke-width:1;fill-opacity:1;stroke-opacity:0.3" />
<line x1="864" y1="142" x2="911" y2="142" stroke="pink" stroke-width="1" />
<rect x="911" y="140" width="0" height="5" style="fill:#5d3c2d;stroke:black;stroke-width:1;fill-opacity:1;stroke-opacity:0.3" />
<line x1="812" y1="149" x2="814" y2="151" stroke="black" stroke-width="1" />
<line x1="814" y1="151" x2="816" y2="149" stroke="black" stroke-width="1" />
<rect x="797" y="147" width="15" height="5" style="fill:#5d3c2d;stroke:black;stroke-width:1;fill-opacity:1;stroke-opacity:0.3" />
<rect x="816" y="147" width="0" height="5" style="fill:#5d3c2d;stroke:black;stroke-width:1;fill-opacity:1;stroke-opacity:0.3" />
<line x1="817" y1="149" x2="850" y2="149" stroke="pink" stroke-width="1" />
<rect x="850" y="147" width="14" height="5" style="fill:#5d3c2d;stroke:black;stroke-width:1;fill-opacity:1;stroke-opacity:0.3" />
<line x1="864" y1="149" x2="927" y2="149" stroke="pink" stroke-width="1" />
<rect x="927" y="147" width="0" height="5" style="fill:#5d3c2d;stroke:black;stroke-width:1;fill-opacity:1;stroke-opacity:0.3" />
<line x1="812" y1="156" x2="831" y2="158" stroke="black" stroke-width="1" />
<line x1="831" y1="158" x2="851" y2="156" stroke="black" stroke-width="1" />
<rect x="797" y="154" width="15" height="5" style="fill:#5d3c2d;stroke:black;stroke-width:1;fill-opacity:1;stroke-opacity:0.3" />
<rect x="851" y="154" width="13" height="5" style="fill:#5d3c2d;stroke:black;stroke-width:1;fill-opacity:1;stroke-opacity:0.3" />
<line x1="864" y1="156" x2="911" y2="156" stroke="pink" stroke-width="1" />
<rect x="911" y="154" width="1" height="5" style="fill:#5d3c2d;stroke:black;stroke-width:1;fill-opacity:1;stroke-opacity:0.3" />
<line x1="813" y1="58" x2="832" y2="60" stroke="black" stroke-width="1" />
<line x1="832" y1="60" x2="851" y2="58" stroke="black" stroke-width="1" />
<rect x="797" y="56" width="15" height="5" style="fill:#5d3c2d;stroke:black;stroke-width:1;fill-opacity:1;stroke-opacity:0.3" />
<rect x="851" y="56" width="13" height="5" style="fill:#5d3c2d;stroke:black;stroke-width:1;fill-opacity:1;stroke-opacity:0.3" />
<line x1="864" y1="58" x2="911" y2="58" stroke="pink" stroke-width="1" />
<rect x="911" y="56" width="1" height="5" style="fill:#5d3c2d;stroke:black;stroke-width:1;fill-opacity:1;stroke-opacity:0.3" />
<line x1="851" y1="79" x2="853" y2="81" stroke="black" stroke-width="1" />
<line x1="853" y1="81" x2="855" y2="79" stroke="black" stroke-width="1" />
<rect x="803" y="77" width="13" height="5" style="fill:#5d3c2d;stroke:black;stroke-width:1;fill-opacity:1;stroke-opacity:0.3" />
<line x1="817" y1="79" x2="850" y2="79" stroke="pink" stroke-width="1" />
<rect x="850" y="77" width="1" height="5" style="fill:#5d3c2d;stroke:black;stroke-width:1;fill-opacity:1;stroke-opacity:0.3" />
<rect x="855" y="77" width="9" height="5" style="fill:#5d3c2d;stroke:black;stroke-width:1;fill-opacity:1;stroke-opacity:0.3" />
<line x1="864" y1="79" x2="911" y2="79" stroke="pink" stroke-width="1" />
<rect x="911" y="77" width="5" height="5" style="fill:#5d3c2d;stroke:black;stroke-width:1;fill-opacity:1;stroke-opacity:0.3" />
<line x1="852" y1="163" x2="855" y2="165" stroke="black" stroke-width="1" />
<line x1="855" y1="165" x2="859" y2="163" stroke="black" stroke-width="1" />
<rect x="804" y="161" width="13" height="5" style="fill:#5d3c2d;stroke:black;stroke-width:1;fill-opacity:1;stroke-opacity:0.3" />
<line x1="817" y1="163" x2="850" y2="163" stroke="pink" stroke-width="1" />
<rect x="850" y="161" width="1" height="5" style="fill:#5d3c2d;stroke:black;stroke-width:1;fill-opacity:1;stroke-opacity:0.3" />
<rect x="859" y="161" width="5" height="5" style="fill:#5d3c2d;stroke:black;stroke-width:1;fill-opacity:1;stroke-opacity:0.3" />
<line x1="864" y1="163" x2="911" y2="163" stroke="pink" stroke-width="1" />
<rect x="911" y="161" width="10" height="5" style="fill:#5d3c2d;stroke:black;stroke-width:1;fill-opacity:1;stroke-opacity:0.3" />
<line x1="865" y1="44" x2="889" y2="46" stroke="black" stroke-width="1" />
<line x1="889" y1="46" x2="914" y2="44" stroke="black" stroke-width="1" />
<rect x="816" y="42" width="0" height="5" style="fill:#5d3c2d;stroke:black;stroke-width:1;fill-opacity:1;stroke-opacity:0.3" />
<line x1="817" y1="44" x2="850" y2="44" stroke="pink" stroke-width="1" />
<rect x="850" y="42" width="14" height="5" style="fill:#5d3c2d;stroke:black;stroke-width:1;fill-opacity:1;stroke-opacity:0.3" />
<rect x="914" y="42" width="15" height="5" style="fill:#5d3c2d;stroke:black;stroke-width:1;fill-opacity:1;stroke-opacity:0.3" />
<line x1="925" y1="114" x2="926" y2="116" stroke="black" stroke-width="1" />
<line x1="926" y1="116" x2="927" y2="114" stroke="black" stroke-width="1" />
<rect x="863" y="112" width="1" height="5" style="fill:#5d3c2d;stroke:black;stroke-width:1;fill-opacity:1;stroke-opacity:0.3" />
<line x1="864" y1="114" x2="911" y2="114" stroke="pink" stroke-width="1" />
<rect x="911" y="112" width="13" height="5" style="fill:#5d3c2d;stroke:black;stroke-width:1;fill-opacity:1;stroke-opacity:0.3" />
<rect x="927" y="112" width="13" height="5" style="fill:#5d3c2d;stroke:black;stroke-width:1;fill-opacity:1;stroke-opacity:0.3" />
<line x1="940" y1="114" x2="998" y2="114" stroke="pink" stroke-width="1" />
<rect x="998" y="112" width="1" height="5" style="fill:#5d3c2d;stroke:black;stroke-width:1;fill-opacity:1;stroke-opacity:0.3" />
<line x1="927" y1="51" x2="929" y2="53" stroke="black" stroke-width="1" />
<line x1="929" y1="53" x2="931" y2="51" stroke="black" stroke-width="1" />
<rect x="912" y="49" width="15" height="5" style="fill:#5d3c2d;stroke:black;stroke-width:1;fill-opacity:1;stroke-opacity:0.3" />
<rect x="931" y="49" width="9" height="5" style="fill:#5d3c2d;stroke:black;stroke-width:1;fill-opacity:1;stroke-opacity:0.3" />
<line x1="940" y1="51" x2="1179" y2="51" stroke="pink" stroke-width="1" />
<rect x="1179" y="49" width="6" height="5" style="fill:#5d3c2d;stroke:black;stroke-width:1;fill-opacity:1;stroke-opacity:0.3" />
<line x1="928" y1="135" x2="932" y2="137" stroke="black" stroke-width="1" />
<line x1="932" y1="137" x2="937" y2="135" stroke="black" stroke-width="1" />
<rect x="913" y="133" width="15" height="5" style="fill:#5d3c2d;stroke:black;stroke-width:1;fill-opacity:1;stroke-opacity:0.3" />
<rect x="937" y="133" width="3" height="5" style="fill:#5d3c2d;stroke:black;stroke-width:1;fill-opacity:1;stroke-opacity:0.3" />
<line x1="940" y1="135" x2="998" y2="135" stroke="pink" stroke-width="1" />
<rect x="998" y="133" width="10" height="5" style="fill:#5d3c2d;stroke:black;stroke-width:1;fill-opacity:1;stroke-opacity:0.3" />
<line x1="1009" y1="135" x2="1239" y2="135" stroke="pink" stroke-width="1" />
<rect x="1239" y="133" width="1" height="5" style="fill:#5d3c2d;stroke:black;stroke-width:1;fill-opacity:1;stroke-opacity:0.3" />
<line x1="929" y1="58" x2="930" y2="60" stroke="black" stroke-width="1" />
<line x1="930" y1="60" x2="932" y2="58" stroke="black" stroke-width="1" />
<rect x="913" y="56" width="15" height="5" style="fill:#5d3c2d;stroke:black;stroke-width:1;fill-opacity:1;stroke-opacity:0.3" />
<rect x="932" y="56" width="8" height="5" style="fill:#5d3c2d;stroke:black;stroke-width:1;fill-opacity:1;stroke-opacity:0.3" />
<line x1="940" y1="58" x2="998" y2="58" stroke="pink" stroke-width="1" />
<rect x="998" y="56" width="6" height="5" style="fill:#5d3c2d;stroke:black;stroke-width:1;fill-opacity:1;stroke-opacity:0.3" />
<line x1="929" y1="142" x2="932" y2="144" stroke="black" stroke-width="1" />
<line x1="932" y1="144" x2="936" y2="142" stroke="black" stroke-width="1" />
<rect x="914" y="140" width="15" height="5" style="fill:#f5b024;stroke:black;stroke-width:1;fill-opacity:1;stroke-opacity:0.3" />
<rect x="936" y="140" width="4" height="5" style="fill:#f5b024;stroke:black;stroke-width:1;fill-opacity:1;stroke-opacity:0.3" />
<line x1="940" y1="142" x2="1179" y2="142" stroke="pink" stroke-width="1" />
<rect x="1179" y="140" width="10" height="5" style="fill:#f5b024;stroke:black;stroke-width:1;fill-opacity:1;stroke-opacity:0.3" />
<line x1="929" y1="156" x2="932" y2="158" stroke="black" stroke-width="1" />
<line x1="932" y1="158" x2="936" y2="156" stroke="black" stroke-width="1" />
<rect x="914" y="154" width="15" height="5" style="fill:#5d3c2d;stroke:black;stroke-width:1;fill-opacity:1;stroke-opacity:0.3" />
<rect x="936" y="154" width="4" height="5" style="fill:#5d3c2d;stroke:black;stroke-width:1;fill-opacity:1;stroke-opacity:0.3" />
<line x1="940" y1="156" x2="998" y2="156" stroke="pink" stroke-width="1" />
<rect x="998" y="154" width="10" height="5" style="fill:#5d3c2d;stroke:black;stroke-width:1;fill-opacity:1;stroke-opacity:0.3" />
<line x1="931" y1="65" x2="933" y2="67" stroke="black" stroke-width="1" />
<line x1="933" y1="67" x2="936" y2="65" stroke="black" stroke-width="1" />
<rect x="916" y="63" width="15" height="5" style="fill:#5d3c2d;stroke:black;stroke-width:1;fill-opacity:1;stroke-opacity:0.3" />
<rect x="936" y="63" width="4" height="5" style="fill:#5d3c2d;stroke:black;stroke-width:1;fill-opacity:1;stroke-opacity:0.3" />
<line x1="940" y1="65" x2="998" y2="65" stroke="pink" stroke-width="1" />
<rect x="998" y="63" width="10" height="5" style="fill:#5d3c2d;stroke:black;stroke-width:1;fill-opacity:1;stroke-opacity:0.3" />
<line x1="932" y1="72" x2="934" y2="74" stroke="black" stroke-width="1" />
<line x1="934" y1="74" x2="936" y2="72" stroke="black" stroke-width="1" />
<rect x="917" y="70" width="15" height="5" style="fill:#f5b024;stroke:black;stroke-width:1;fill-opacity:1;stroke-opacity:0.3" />
<rect x="936" y="70" width="4" height="5" style="fill:#f5b024;stroke:black;stroke-width:1;fill-opacity:1;stroke-opacity:0.3" />
<line x1="940" y1="72" x2="998" y2="72" stroke="pink" stroke-width="1" />
<rect x="998" y="70" width="10" height="5" style="fill:#f5b024;stroke:black;stroke-width:1;fill-opacity:1;stroke-opacity:0.3" />
<line x1="1009" y1="72" x2="1239" y2="72" stroke="pink" stroke-width="1" />
<rect x="1239" y="70" width="0" height="5" style="fill:#f5b024;stroke:black;stroke-width:1;fill-opacity:1;stroke-opacity:0.3" />
<line x1="932" y1="79" x2="934" y2="81" stroke="black" stroke-width="1" />
<line x1="934" y1="81" x2="937" y2="79" stroke="black" stroke-width="1" />
<rect x="917" y="77" width="15" height="5" style="fill:#5d3c2d;stroke:black;stroke-width:1;fill-opacity:1;stroke-opacity:0.3" />
<rect x="937" y="77" width="3" height="5" style="fill:#5d3c2d;stroke:black;stroke-width:1;fill-opacity:1;stroke-opacity:0.3" />
<line x1="940" y1="79" x2="998" y2="79" stroke="pink" stroke-width="1" />
<rect x="998" y="77" width="10" height="5" style="fill:#5d3c2d;stroke:black;stroke-width:1;fill-opacity:1;stroke-opacity:0.3" />
<line x1="1009" y1="79" x2="1057" y2="79" stroke="pink" stroke-width="1" />
<rect x="1057" y="77" width="1" height="5" style="fill:#5d3c2d;stroke:black;stroke-width:1;fill-opacity:1;stroke-opacity:0.3" />
<line x1="933" y1="30" x2="935" y2="32" stroke="black" stroke-width="1" />
<line x1="935" y1="32" x2="937" y2="30" stroke="black" stroke-width="1" />
<rect x="917" y="28" width="15" height="5" style="fill:#5d3c2d;stroke:black;stroke-width:1;fill-opacity:1;stroke-opacity:0.3" />
<rect x="937" y="28" width="2" height="5" style="fill:#5d3c2d;stroke:black;stroke-width:1;fill-opacity:1;stroke-opacity:0.3" />
<line x1="940" y1="30" x2="998" y2="30" stroke="pink" stroke-width="1" />
<rect x="998" y="28" width="10" height="5" style="fill:#5d3c2d;stroke:black;stroke-width:1;fill-opacity:1;stroke-opacity:0.3" />
<line x1="1009" y1="30" x2="1057" y2="30" stroke="pink" stroke-width="1" />
<rect x="1057" y="28" width="1" height="5" style="fill:#5d3c2d;stroke:black;stroke-width:1;fill-opacity:1;stroke-opacity:0.3" />
<line x1="935" y1="37" x2="936" y2="39" stroke="black" stroke-width="1" />
<line x1="936" y1="39" x2="938" y2="37" stroke="black" stroke-width="1" />
<rect x="920" y="35" width="15" height="5" style="fill:#5d3c2d;stroke:black;stroke-width:1;fill-opacity:1;stroke-opacity:0.3" />
<rect x="938" y="35" width="2" height="5" style="fill:#5d3c2d;stroke:black;stroke-width:1;fill-opacity:1;stroke-opacity:0.3" />
<line x1="940" y1="37" x2="998" y2="37" stroke="pink" stroke-width="1" />
<rect x="998" y="35" width="10" height="5" style="fill:#5d3c2d;stroke:black;stroke-width:1;fill-opacity:1;stroke-opacity:0.3" />
<line x1="1009" y1="37" x2="1057" y2="37" stroke="pink" stroke-width="1" />
<rect x="1057" y="35" width="1" height="5" style="fill:#5d3c2d;stroke:black;stroke-width:1;fill-opacity:1;stroke-opacity:0.3" />
<line x1="935" y1="121" x2="936" y2="123" stroke="black" stroke-width="1" />
<line x1="936" y1="123" x2="937" y2="121" stroke="black" stroke-width="1" />
<rect x="920" y="119" width="15" height="5" style="fill:#5d3c2d;stroke:black;stroke-width:1;fill-opacity:1;stroke-opacity:0.3" />
<rect x="937" y="119" width="3" height="5" style="fill:#5d3c2d;stroke:black;stroke-width:1;fill-opacity:1;stroke-opacity:0.3" />
<line x1="940" y1="121" x2="998" y2="121" stroke="pink" stroke-width="1" />
<rect x="998" y="119" width="10" height="5" style="fill:#5d3c2d;stroke:black;stroke-width:1;fill-opacity:1;stroke-opacity:0.3" />
<line x1="1009" y1="121" x2="1057" y2="121" stroke="pink" stroke-width="1" />
<rect x="1057" y="119" width="0" height="5" style="fill:#5d3c2d;stroke:black;stroke-width:1;fill-opacity:1;stroke-opacity:0.3" />
<line x1="935" y1="93" x2="936" y2="95" stroke="black" stroke-width="1" />
<line x1="936" y1="95" x2="937" y2="93" stroke="black" stroke-width="1" />
<rect x="920" y="91" width="15" height="5" style="fill:#5d3c2d;stroke:black;stroke-width:1;fill-opacity:1;stroke-opacity:0.3" />
<rect x="937" y="91" width="3" height="5" style="fill:#5d3c2d;stroke:black;stroke-width:1;fill-opacity:1;stroke-opacity:0.3" />
<line x1="940" y1="93" x2="998" y2="93" stroke="pink" stroke-width="1" />
<rect x="998" y="91" width="10" height="5" style="fill:#5d3c2d;stroke:black;stroke-width:1;fill-opacity:1;stroke-opacity:0.3" />
<line x1="1009" y1="93" x2="1057" y2="93" stroke="pink" stroke-width="1" />
<rect x="1057" y="91" width="1" height="5" style="fill:#5d3c2d;stroke:black;stroke-width:1;fill-opacity:1;stroke-opacity:0.3" />
<line x1="938" y1="163" x2="938" y2="165" stroke="black" stroke-width="1" />
<line x1="938" y1="165" x2="939" y2="163" stroke="black" stroke-width="1" />
<rect x="923" y="161" width="15" height="5" style="fill:#5d3c2d;stroke:black;stroke-width:1;fill-opacity:1;stroke-opacity:0.3" />
<rect x="939" y="161" width="0" height="5" style="fill:#5d3c2d;stroke:black;stroke-width:1;fill-opacity:1;stroke-opacity:0.3" />
<line x1="940" y1="163" x2="1179" y2="163" stroke="pink" stroke-width="1" />
<rect x="1179" y="161" width="14" height="5" style="fill:#5d3c2d;stroke:black;stroke-width:1;fill-opacity:1;stroke-opacity:0.3" />
<text x="15"  y="176" style="font-family:Arial;font-size:10;stroke:black;fill:black;">all.merged.bam</text>
</svg>
    
