<?xml version="1.0" encoding="utf-8" standalone="no"?>
<!DOCTYPE svg PUBLIC "-//W3C//DTD SVG 1.1//EN"
  "http://www.w3.org/Graphics/SVG/1.1/DTD/svg11.dtd">
<svg height="1140" width="1000" version="1.1" viewBox="0 0 1000 1140" xmlns="http://www.w3.org/2000/svg" xmlns:xlink="http://www.w3.org/1999/xlink">
<line x1="45" y1="11" x2="954" y2="11" stroke="black" stroke-width="1" />
<rect x="45" y="9" width="42" height="5" style="fill:#f50002;stroke:black;stroke-width:1;fill-opacity:1;stroke-opacity:0.3" />
<rect x="88" y="9" width="11" height="5" style="fill:#53a1b5;stroke:black;stroke-width:1;fill-opacity:1;stroke-opacity:0.3" />
<rect x="229" y="9" width="10" height="5" style="fill:#53a1b5;stroke:black;stroke-width:1;fill-opacity:1;stroke-opacity:0.3" />
<rect x="427" y="9" width="30" height="5" style="fill:#53a1b5;stroke:black;stroke-width:1;fill-opacity:1;stroke-opacity:0.3" />
<rect x="607" y="9" width="15" height="5" style="fill:#53a1b5;stroke:black;stroke-width:1;fill-opacity:1;stroke-opacity:0.3" />
<rect x="764" y="9" width="26" height="5" style="fill:#53a1b5;stroke:black;stroke-width:1;fill-opacity:1;stroke-opacity:0.3" />
<rect x="791" y="9" width="162" height="5" style="fill:#f50002;stroke:black;stroke-width:1;fill-opacity:1;stroke-opacity:0.3" />
<text x="45"  y="23" style="font-family:Arial;font-size:10;stroke:black;fill:black;">Cre03.g166300.t1.2.v5.5 (+) chromosome_3:3314597-3316596</text>
<line x1="456" y1="30" x2="613" y2="32" stroke="black" stroke-width="1" />
<line x1="613" y1="32" x2="770" y2="30" stroke="black" stroke-width="1" />
<rect x="95" y="28" width="5" height="5" style="fill:#5d3c2d;stroke:black;stroke-width:1;fill-opacity:1;stroke-opacity:0.3" />
<line x1="100" y1="30" x2="229" y2="30" stroke="pink" stroke-width="1" />
<rect x="229" y="28" width="11" height="5" style="fill:#5d3c2d;stroke:black;stroke-width:1;fill-opacity:1;stroke-opacity:0.3" />
<line x1="240" y1="30" x2="427" y2="30" stroke="pink" stroke-width="1" />
<rect x="427" y="28" width="29" height="5" style="fill:#5d3c2d;stroke:black;stroke-width:1;fill-opacity:1;stroke-opacity:0.3" />
<rect x="770" y="28" width="45" height="5" style="fill:#5d3c2d;stroke:black;stroke-width:1;fill-opacity:1;stroke-opacity:0.3" />
<line x1="456" y1="37" x2="613" y2="39" stroke="black" stroke-width="1" />
<line x1="613" y1="39" x2="770" y2="37" stroke="black" stroke-width="1" />
<rect x="95" y="35" width="5" height="5" style="fill:#5d3c2d;stroke:black;stroke-width:1;fill-opacity:1;stroke-opacity:0.3" />
<line x1="100" y1="37" x2="229" y2="37" stroke="pink" stroke-width="1" />
<rect x="229" y="35" width="11" height="5" style="fill:#5d3c2d;stroke:black;stroke-width:1;fill-opacity:1;stroke-opacity:0.3" />
<line x1="240" y1="37" x2="427" y2="37" stroke="pink" stroke-width="1" />
<rect x="427" y="35" width="29" height="5" style="fill:#5d3c2d;stroke:black;stroke-width:1;fill-opacity:1;stroke-opacity:0.3" />
<rect x="770" y="35" width="45" height="5" style="fill:#5d3c2d;stroke:black;stroke-width:1;fill-opacity:1;stroke-opacity:0.3" />
<line x1="785" y1="44" x2="798" y2="46" stroke="black" stroke-width="1" />
<line x1="798" y1="46" x2="811" y2="44" stroke="black" stroke-width="1" />
<rect x="450" y="42" width="8" height="5" style="fill:#f5b024;stroke:black;stroke-width:1;fill-opacity:1;stroke-opacity:0.3" />
<line x1="458" y1="44" x2="607" y2="44" stroke="pink" stroke-width="1" />
<rect x="607" y="42" width="16" height="5" style="fill:#f5b024;stroke:black;stroke-width:1;fill-opacity:1;stroke-opacity:0.3" />
<line x1="624" y1="44" x2="764" y2="44" stroke="pink" stroke-width="1" />
<rect x="764" y="42" width="20" height="5" style="fill:#f5b024;stroke:black;stroke-width:1;fill-opacity:1;stroke-opacity:0.3" />
<rect x="811" y="42" width="45" height="5" style="fill:#f5b024;stroke:black;stroke-width:1;fill-opacity:1;stroke-opacity:0.3" />
<text x="15"  y="176" style="font-family:Arial;font-size:10;stroke:black;fill:black;">all.merged.bam</text>
</svg>
    
