<?xml version="1.0" encoding="utf-8" standalone="no"?>
<!DOCTYPE svg PUBLIC "-//W3C//DTD SVG 1.1//EN"
  "http://www.w3.org/Graphics/SVG/1.1/DTD/svg11.dtd">
<svg height="1140" width="1000" version="1.1" viewBox="0 0 1000 1140" xmlns="http://www.w3.org/2000/svg" xmlns:xlink="http://www.w3.org/1999/xlink">
<line x1="57" y1="11" x2="942" y2="11" stroke="black" stroke-width="1" />
<rect x="57" y="9" width="59" height="5" style="fill:#f50002;stroke:black;stroke-width:1;fill-opacity:1;stroke-opacity:0.3" />
<rect x="117" y="9" width="257" height="5" style="fill:#53a1b5;stroke:black;stroke-width:1;fill-opacity:1;stroke-opacity:0.3" />
<rect x="593" y="9" width="77" height="5" style="fill:#53a1b5;stroke:black;stroke-width:1;fill-opacity:1;stroke-opacity:0.3" />
<rect x="670" y="9" width="271" height="5" style="fill:#f50002;stroke:black;stroke-width:1;fill-opacity:1;stroke-opacity:0.3" />
<text x="57"  y="23" style="font-family:Arial;font-size:10;stroke:black;fill:black;">Cre06.g283300.t1.2.v5.5 (+) chromosome_6:5330896-5332447</text>
<line x1="138" y1="30" x2="149" y2="32" stroke="black" stroke-width="1" />
<line x1="149" y1="32" x2="161" y2="30" stroke="black" stroke-width="1" />
<rect x="53" y="28" width="85" height="5" style="fill:#5d3c2d;stroke:black;stroke-width:1;fill-opacity:1;stroke-opacity:0.3" />
<rect x="161" y="28" width="85" height="5" style="fill:#5d3c2d;stroke:black;stroke-width:1;fill-opacity:1;stroke-opacity:0.3" />
<line x1="110" y1="37" x2="127" y2="39" stroke="black" stroke-width="1" />
<line x1="127" y1="39" x2="144" y2="37" stroke="black" stroke-width="1" />
<rect x="53" y="35" width="57" height="5" style="fill:#5d3c2d;stroke:black;stroke-width:1;fill-opacity:1;stroke-opacity:0.3" />
<rect x="144" y="35" width="57" height="5" style="fill:#5d3c2d;stroke:black;stroke-width:1;fill-opacity:1;stroke-opacity:0.3" />
<line x1="110" y1="44" x2="114" y2="46" stroke="black" stroke-width="1" />
<line x1="114" y1="46" x2="118" y2="44" stroke="black" stroke-width="1" />
<rect x="54" y="42" width="56" height="5" style="fill:#5d3c2d;stroke:black;stroke-width:1;fill-opacity:1;stroke-opacity:0.3" />
<rect x="118" y="42" width="57" height="5" style="fill:#5d3c2d;stroke:black;stroke-width:1;fill-opacity:1;stroke-opacity:0.3" />
<line x1="140" y1="51" x2="151" y2="53" stroke="black" stroke-width="1" />
<line x1="151" y1="53" x2="162" y2="51" stroke="black" stroke-width="1" />
<rect x="54" y="49" width="85" height="5" style="fill:#5d3c2d;stroke:black;stroke-width:1;fill-opacity:1;stroke-opacity:0.3" />
<rect x="162" y="49" width="85" height="5" style="fill:#5d3c2d;stroke:black;stroke-width:1;fill-opacity:1;stroke-opacity:0.3" />
<line x1="111" y1="58" x2="128" y2="60" stroke="black" stroke-width="1" />
<line x1="128" y1="60" x2="146" y2="58" stroke="black" stroke-width="1" />
<rect x="54" y="56" width="57" height="5" style="fill:#5d3c2d;stroke:black;stroke-width:1;fill-opacity:1;stroke-opacity:0.3" />
<rect x="146" y="56" width="57" height="5" style="fill:#5d3c2d;stroke:black;stroke-width:1;fill-opacity:1;stroke-opacity:0.3" />
<line x1="111" y1="65" x2="115" y2="67" stroke="black" stroke-width="1" />
<line x1="115" y1="67" x2="119" y2="65" stroke="black" stroke-width="1" />
<rect x="54" y="63" width="57" height="5" style="fill:#5d3c2d;stroke:black;stroke-width:1;fill-opacity:1;stroke-opacity:0.3" />
<rect x="119" y="63" width="56" height="5" style="fill:#5d3c2d;stroke:black;stroke-width:1;fill-opacity:1;stroke-opacity:0.3" />
<line x1="111" y1="72" x2="128" y2="74" stroke="black" stroke-width="1" />
<line x1="128" y1="74" x2="146" y2="72" stroke="black" stroke-width="1" />
<rect x="54" y="70" width="57" height="5" style="fill:#5d3c2d;stroke:black;stroke-width:1;fill-opacity:1;stroke-opacity:0.3" />
<rect x="146" y="70" width="57" height="5" style="fill:#5d3c2d;stroke:black;stroke-width:1;fill-opacity:1;stroke-opacity:0.3" />
<line x1="140" y1="79" x2="151" y2="81" stroke="black" stroke-width="1" />
<line x1="151" y1="81" x2="162" y2="79" stroke="black" stroke-width="1" />
<rect x="55" y="77" width="85" height="5" style="fill:#5d3c2d;stroke:black;stroke-width:1;fill-opacity:1;stroke-opacity:0.3" />
<rect x="162" y="77" width="85" height="5" style="fill:#5d3c2d;stroke:black;stroke-width:1;fill-opacity:1;stroke-opacity:0.3" />
<line x1="112" y1="86" x2="129" y2="88" stroke="black" stroke-width="1" />
<line x1="129" y1="88" x2="146" y2="86" stroke="black" stroke-width="1" />
<rect x="55" y="84" width="57" height="5" style="fill:#5d3c2d;stroke:black;stroke-width:1;fill-opacity:1;stroke-opacity:0.3" />
<rect x="146" y="84" width="55" height="5" style="fill:#5d3c2d;stroke:black;stroke-width:1;fill-opacity:1;stroke-opacity:0.3" />
<line x1="112" y1="93" x2="129" y2="95" stroke="black" stroke-width="1" />
<line x1="129" y1="95" x2="146" y2="93" stroke="black" stroke-width="1" />
<rect x="55" y="91" width="57" height="5" style="fill:#5d3c2d;stroke:black;stroke-width:1;fill-opacity:1;stroke-opacity:0.3" />
<rect x="146" y="91" width="55" height="5" style="fill:#5d3c2d;stroke:black;stroke-width:1;fill-opacity:1;stroke-opacity:0.3" />
<line x1="112" y1="100" x2="125" y2="102" stroke="black" stroke-width="1" />
<line x1="125" y1="102" x2="138" y2="100" stroke="black" stroke-width="1" />
<rect x="55" y="98" width="57" height="5" style="fill:#5d3c2d;stroke:black;stroke-width:1;fill-opacity:1;stroke-opacity:0.3" />
<rect x="138" y="98" width="57" height="5" style="fill:#5d3c2d;stroke:black;stroke-width:1;fill-opacity:1;stroke-opacity:0.3" />
<line x1="140" y1="107" x2="151" y2="109" stroke="black" stroke-width="1" />
<line x1="151" y1="109" x2="162" y2="107" stroke="black" stroke-width="1" />
<rect x="55" y="105" width="85" height="5" style="fill:#5d3c2d;stroke:black;stroke-width:1;fill-opacity:1;stroke-opacity:0.3" />
<rect x="162" y="105" width="85" height="5" style="fill:#5d3c2d;stroke:black;stroke-width:1;fill-opacity:1;stroke-opacity:0.3" />
<line x1="112" y1="114" x2="115" y2="116" stroke="black" stroke-width="1" />
<line x1="115" y1="116" x2="118" y2="114" stroke="black" stroke-width="1" />
<rect x="55" y="112" width="57" height="5" style="fill:#5d3c2d;stroke:black;stroke-width:1;fill-opacity:1;stroke-opacity:0.3" />
<rect x="118" y="112" width="55" height="5" style="fill:#5d3c2d;stroke:black;stroke-width:1;fill-opacity:1;stroke-opacity:0.3" />
<line x1="113" y1="121" x2="119" y2="123" stroke="black" stroke-width="1" />
<line x1="119" y1="123" x2="126" y2="121" stroke="black" stroke-width="1" />
<rect x="55" y="119" width="57" height="5" style="fill:#5d3c2d;stroke:black;stroke-width:1;fill-opacity:1;stroke-opacity:0.3" />
<rect x="126" y="119" width="57" height="5" style="fill:#5d3c2d;stroke:black;stroke-width:1;fill-opacity:1;stroke-opacity:0.3" />
<line x1="113" y1="128" x2="116" y2="130" stroke="black" stroke-width="1" />
<line x1="116" y1="130" x2="120" y2="128" stroke="black" stroke-width="1" />
<rect x="55" y="126" width="57" height="5" style="fill:#5d3c2d;stroke:black;stroke-width:1;fill-opacity:1;stroke-opacity:0.3" />
<rect x="120" y="126" width="55" height="5" style="fill:#5d3c2d;stroke:black;stroke-width:1;fill-opacity:1;stroke-opacity:0.3" />
<line x1="113" y1="135" x2="117" y2="137" stroke="black" stroke-width="1" />
<line x1="117" y1="137" x2="122" y2="135" stroke="black" stroke-width="1" />
<rect x="55" y="133" width="57" height="5" style="fill:#5d3c2d;stroke:black;stroke-width:1;fill-opacity:1;stroke-opacity:0.3" />
<rect x="122" y="133" width="57" height="5" style="fill:#5d3c2d;stroke:black;stroke-width:1;fill-opacity:1;stroke-opacity:0.3" />
<line x1="113" y1="142" x2="119" y2="144" stroke="black" stroke-width="1" />
<line x1="119" y1="144" x2="126" y2="142" stroke="black" stroke-width="1" />
<rect x="55" y="140" width="57" height="5" style="fill:#5d3c2d;stroke:black;stroke-width:1;fill-opacity:1;stroke-opacity:0.3" />
<rect x="126" y="140" width="57" height="5" style="fill:#5d3c2d;stroke:black;stroke-width:1;fill-opacity:1;stroke-opacity:0.3" />
<line x1="113" y1="149" x2="129" y2="151" stroke="black" stroke-width="1" />
<line x1="129" y1="151" x2="145" y2="149" stroke="black" stroke-width="1" />
<rect x="55" y="147" width="57" height="5" style="fill:#5d3c2d;stroke:black;stroke-width:1;fill-opacity:1;stroke-opacity:0.3" />
<rect x="145" y="147" width="57" height="5" style="fill:#5d3c2d;stroke:black;stroke-width:1;fill-opacity:1;stroke-opacity:0.3" />
<line x1="113" y1="156" x2="129" y2="158" stroke="black" stroke-width="1" />
<line x1="129" y1="158" x2="146" y2="156" stroke="black" stroke-width="1" />
<rect x="56" y="154" width="57" height="5" style="fill:#5d3c2d;stroke:black;stroke-width:1;fill-opacity:1;stroke-opacity:0.3" />
<rect x="146" y="154" width="56" height="5" style="fill:#5d3c2d;stroke:black;stroke-width:1;fill-opacity:1;stroke-opacity:0.3" />
<line x1="113" y1="163" x2="116" y2="165" stroke="black" stroke-width="1" />
<line x1="116" y1="165" x2="119" y2="163" stroke="black" stroke-width="1" />
<rect x="56" y="161" width="57" height="5" style="fill:#5d3c2d;stroke:black;stroke-width:1;fill-opacity:1;stroke-opacity:0.3" />
<rect x="119" y="161" width="57" height="5" style="fill:#5d3c2d;stroke:black;stroke-width:1;fill-opacity:1;stroke-opacity:0.3" />
<line x1="261" y1="44" x2="271" y2="46" stroke="black" stroke-width="1" />
<line x1="271" y1="46" x2="281" y2="44" stroke="black" stroke-width="1" />
<rect x="175" y="42" width="85" height="5" style="fill:#5d3c2d;stroke:black;stroke-width:1;fill-opacity:1;stroke-opacity:0.3" />
<rect x="281" y="42" width="85" height="5" style="fill:#5d3c2d;stroke:black;stroke-width:1;fill-opacity:1;stroke-opacity:0.3" />
<line x1="236" y1="65" x2="248" y2="67" stroke="black" stroke-width="1" />
<line x1="248" y1="67" x2="260" y2="65" stroke="black" stroke-width="1" />
<rect x="179" y="63" width="57" height="5" style="fill:#f5b024;stroke:black;stroke-width:1;fill-opacity:1;stroke-opacity:0.3" />
<rect x="260" y="63" width="57" height="5" style="fill:#f5b024;stroke:black;stroke-width:1;fill-opacity:1;stroke-opacity:0.3" />
<line x1="238" y1="114" x2="245" y2="116" stroke="black" stroke-width="1" />
<line x1="245" y1="116" x2="253" y2="114" stroke="black" stroke-width="1" />
<rect x="180" y="112" width="57" height="5" style="fill:#5d3c2d;stroke:black;stroke-width:1;fill-opacity:1;stroke-opacity:0.3" />
<rect x="253" y="112" width="57" height="5" style="fill:#5d3c2d;stroke:black;stroke-width:1;fill-opacity:1;stroke-opacity:0.3" />
<line x1="266" y1="128" x2="271" y2="130" stroke="black" stroke-width="1" />
<line x1="271" y1="130" x2="276" y2="128" stroke="black" stroke-width="1" />
<rect x="181" y="126" width="85" height="5" style="fill:#5d3c2d;stroke:black;stroke-width:1;fill-opacity:1;stroke-opacity:0.3" />
<rect x="276" y="126" width="85" height="5" style="fill:#5d3c2d;stroke:black;stroke-width:1;fill-opacity:1;stroke-opacity:0.3" />
<line x1="267" y1="135" x2="271" y2="137" stroke="black" stroke-width="1" />
<line x1="271" y1="137" x2="275" y2="135" stroke="black" stroke-width="1" />
<rect x="182" y="133" width="85" height="5" style="fill:#5d3c2d;stroke:black;stroke-width:1;fill-opacity:1;stroke-opacity:0.3" />
<rect x="275" y="133" width="85" height="5" style="fill:#5d3c2d;stroke:black;stroke-width:1;fill-opacity:1;stroke-opacity:0.3" />
<line x1="268" y1="163" x2="272" y2="165" stroke="black" stroke-width="1" />
<line x1="272" y1="165" x2="276" y2="163" stroke="black" stroke-width="1" />
<rect x="182" y="161" width="85" height="5" style="fill:#5d3c2d;stroke:black;stroke-width:1;fill-opacity:1;stroke-opacity:0.3" />
<rect x="276" y="161" width="85" height="5" style="fill:#5d3c2d;stroke:black;stroke-width:1;fill-opacity:1;stroke-opacity:0.3" />
<line x1="240" y1="121" x2="244" y2="123" stroke="black" stroke-width="1" />
<line x1="244" y1="123" x2="248" y2="121" stroke="black" stroke-width="1" />
<rect x="183" y="119" width="57" height="5" style="fill:#5d3c2d;stroke:black;stroke-width:1;fill-opacity:1;stroke-opacity:0.3" />
<rect x="248" y="119" width="57" height="5" style="fill:#5d3c2d;stroke:black;stroke-width:1;fill-opacity:1;stroke-opacity:0.3" />
<line x1="240" y1="142" x2="245" y2="144" stroke="black" stroke-width="1" />
<line x1="245" y1="144" x2="250" y2="142" stroke="black" stroke-width="1" />
<rect x="183" y="140" width="57" height="5" style="fill:#5d3c2d;stroke:black;stroke-width:1;fill-opacity:1;stroke-opacity:0.3" />
<rect x="250" y="140" width="55" height="5" style="fill:#5d3c2d;stroke:black;stroke-width:1;fill-opacity:1;stroke-opacity:0.3" />
<line x1="252" y1="100" x2="255" y2="102" stroke="black" stroke-width="1" />
<line x1="255" y1="102" x2="259" y2="100" stroke="black" stroke-width="1" />
<rect x="195" y="98" width="57" height="5" style="fill:#5d3c2d;stroke:black;stroke-width:1;fill-opacity:1;stroke-opacity:0.3" />
<rect x="259" y="98" width="57" height="5" style="fill:#5d3c2d;stroke:black;stroke-width:1;fill-opacity:1;stroke-opacity:0.3" />
<line x1="259" y1="37" x2="270" y2="39" stroke="black" stroke-width="1" />
<line x1="270" y1="39" x2="281" y2="37" stroke="black" stroke-width="1" />
<rect x="202" y="35" width="57" height="5" style="fill:#5d3c2d;stroke:black;stroke-width:1;fill-opacity:1;stroke-opacity:0.3" />
<rect x="281" y="35" width="57" height="5" style="fill:#5d3c2d;stroke:black;stroke-width:1;fill-opacity:1;stroke-opacity:0.3" />
<line x1="260" y1="58" x2="269" y2="60" stroke="black" stroke-width="1" />
<line x1="269" y1="60" x2="279" y2="58" stroke="black" stroke-width="1" />
<rect x="203" y="56" width="57" height="5" style="fill:#5d3c2d;stroke:black;stroke-width:1;fill-opacity:1;stroke-opacity:0.3" />
<rect x="279" y="56" width="57" height="5" style="fill:#5d3c2d;stroke:black;stroke-width:1;fill-opacity:1;stroke-opacity:0.3" />
<line x1="261" y1="72" x2="283" y2="74" stroke="black" stroke-width="1" />
<line x1="283" y1="74" x2="306" y2="72" stroke="black" stroke-width="1" />
<rect x="204" y="70" width="57" height="5" style="fill:#5d3c2d;stroke:black;stroke-width:1;fill-opacity:1;stroke-opacity:0.3" />
<rect x="306" y="70" width="57" height="5" style="fill:#5d3c2d;stroke:black;stroke-width:1;fill-opacity:1;stroke-opacity:0.3" />
<line x1="263" y1="86" x2="272" y2="88" stroke="black" stroke-width="1" />
<line x1="272" y1="88" x2="281" y2="86" stroke="black" stroke-width="1" />
<rect x="206" y="84" width="57" height="5" style="fill:#5d3c2d;stroke:black;stroke-width:1;fill-opacity:1;stroke-opacity:0.3" />
<rect x="281" y="84" width="56" height="5" style="fill:#5d3c2d;stroke:black;stroke-width:1;fill-opacity:1;stroke-opacity:0.3" />
<line x1="267" y1="93" x2="279" y2="95" stroke="black" stroke-width="1" />
<line x1="279" y1="95" x2="291" y2="93" stroke="black" stroke-width="1" />
<rect x="210" y="91" width="57" height="5" style="fill:#5d3c2d;stroke:black;stroke-width:1;fill-opacity:1;stroke-opacity:0.3" />
<rect x="291" y="91" width="50" height="5" style="fill:#5d3c2d;stroke:black;stroke-width:1;fill-opacity:1;stroke-opacity:0.3" />
<line x1="268" y1="149" x2="275" y2="151" stroke="black" stroke-width="1" />
<line x1="275" y1="151" x2="283" y2="149" stroke="black" stroke-width="1" />
<rect x="211" y="147" width="57" height="5" style="fill:#5d3c2d;stroke:black;stroke-width:1;fill-opacity:1;stroke-opacity:0.3" />
<rect x="283" y="147" width="57" height="5" style="fill:#5d3c2d;stroke:black;stroke-width:1;fill-opacity:1;stroke-opacity:0.3" />
<line x1="268" y1="156" x2="274" y2="158" stroke="black" stroke-width="1" />
<line x1="274" y1="158" x2="280" y2="156" stroke="black" stroke-width="1" />
<rect x="211" y="154" width="57" height="5" style="fill:#5d3c2d;stroke:black;stroke-width:1;fill-opacity:1;stroke-opacity:0.3" />
<rect x="280" y="154" width="55" height="5" style="fill:#5d3c2d;stroke:black;stroke-width:1;fill-opacity:1;stroke-opacity:0.3" />
<line x1="305" y1="30" x2="316" y2="32" stroke="black" stroke-width="1" />
<line x1="316" y1="32" x2="328" y2="30" stroke="black" stroke-width="1" />
<rect x="248" y="28" width="57" height="5" style="fill:#5d3c2d;stroke:black;stroke-width:1;fill-opacity:1;stroke-opacity:0.3" />
<rect x="328" y="28" width="46" height="5" style="fill:#5d3c2d;stroke:black;stroke-width:1;fill-opacity:1;stroke-opacity:0.3" />
<line x1="375" y1="30" x2="593" y2="30" stroke="pink" stroke-width="1" />
<rect x="593" y="28" width="10" height="5" style="fill:#5d3c2d;stroke:black;stroke-width:1;fill-opacity:1;stroke-opacity:0.3" />
<line x1="334" y1="51" x2="347" y2="53" stroke="black" stroke-width="1" />
<line x1="347" y1="53" x2="361" y2="51" stroke="black" stroke-width="1" />
<rect x="248" y="49" width="85" height="5" style="fill:#5d3c2d;stroke:black;stroke-width:1;fill-opacity:1;stroke-opacity:0.3" />
<rect x="361" y="49" width="13" height="5" style="fill:#5d3c2d;stroke:black;stroke-width:1;fill-opacity:1;stroke-opacity:0.3" />
<line x1="375" y1="51" x2="593" y2="51" stroke="pink" stroke-width="1" />
<rect x="593" y="49" width="72" height="5" style="fill:#5d3c2d;stroke:black;stroke-width:1;fill-opacity:1;stroke-opacity:0.3" />
<line x1="307" y1="79" x2="317" y2="81" stroke="black" stroke-width="1" />
<line x1="317" y1="81" x2="327" y2="79" stroke="black" stroke-width="1" />
<rect x="250" y="77" width="57" height="5" style="fill:#5d3c2d;stroke:black;stroke-width:1;fill-opacity:1;stroke-opacity:0.3" />
<rect x="327" y="77" width="47" height="5" style="fill:#5d3c2d;stroke:black;stroke-width:1;fill-opacity:1;stroke-opacity:0.3" />
<line x1="375" y1="79" x2="593" y2="79" stroke="pink" stroke-width="1" />
<rect x="593" y="77" width="7" height="5" style="fill:#5d3c2d;stroke:black;stroke-width:1;fill-opacity:1;stroke-opacity:0.3" />
<line x1="307" y1="107" x2="317" y2="109" stroke="black" stroke-width="1" />
<line x1="317" y1="109" x2="328" y2="107" stroke="black" stroke-width="1" />
<rect x="250" y="105" width="57" height="5" style="fill:#5d3c2d;stroke:black;stroke-width:1;fill-opacity:1;stroke-opacity:0.3" />
<rect x="328" y="105" width="46" height="5" style="fill:#5d3c2d;stroke:black;stroke-width:1;fill-opacity:1;stroke-opacity:0.3" />
<line x1="375" y1="107" x2="593" y2="107" stroke="pink" stroke-width="1" />
<rect x="593" y="105" width="10" height="5" style="fill:#5d3c2d;stroke:black;stroke-width:1;fill-opacity:1;stroke-opacity:0.3" />
<line x1="363" y1="121" x2="368" y2="123" stroke="black" stroke-width="1" />
<line x1="368" y1="123" x2="373" y2="121" stroke="black" stroke-width="1" />
<rect x="306" y="119" width="57" height="5" style="fill:#5d3c2d;stroke:black;stroke-width:1;fill-opacity:1;stroke-opacity:0.3" />
<rect x="373" y="119" width="1" height="5" style="fill:#5d3c2d;stroke:black;stroke-width:1;fill-opacity:1;stroke-opacity:0.3" />
<line x1="375" y1="121" x2="593" y2="121" stroke="pink" stroke-width="1" />
<rect x="593" y="119" width="55" height="5" style="fill:#5d3c2d;stroke:black;stroke-width:1;fill-opacity:1;stroke-opacity:0.3" />
<line x1="364" y1="142" x2="485" y2="144" stroke="black" stroke-width="1" />
<line x1="485" y1="144" x2="607" y2="142" stroke="black" stroke-width="1" />
<rect x="307" y="140" width="57" height="5" style="fill:#5d3c2d;stroke:black;stroke-width:1;fill-opacity:1;stroke-opacity:0.3" />
<rect x="607" y="140" width="55" height="5" style="fill:#5d3c2d;stroke:black;stroke-width:1;fill-opacity:1;stroke-opacity:0.3" />
<line x1="370" y1="114" x2="508" y2="116" stroke="black" stroke-width="1" />
<line x1="508" y1="116" x2="647" y2="114" stroke="black" stroke-width="1" />
<rect x="313" y="112" width="56" height="5" style="fill:#f5b024;stroke:black;stroke-width:1;fill-opacity:1;stroke-opacity:0.3" />
<rect x="647" y="112" width="57" height="5" style="fill:#f5b024;stroke:black;stroke-width:1;fill-opacity:1;stroke-opacity:0.3" />
<line x1="373" y1="100" x2="504" y2="102" stroke="black" stroke-width="1" />
<line x1="504" y1="102" x2="636" y2="100" stroke="black" stroke-width="1" />
<rect x="316" y="98" width="57" height="5" style="fill:#f5b024;stroke:black;stroke-width:1;fill-opacity:1;stroke-opacity:0.3" />
<rect x="636" y="98" width="57" height="5" style="fill:#f5b024;stroke:black;stroke-width:1;fill-opacity:1;stroke-opacity:0.3" />
<line x1="375" y1="65" x2="489" y2="67" stroke="black" stroke-width="1" />
<line x1="489" y1="67" x2="603" y2="65" stroke="black" stroke-width="1" />
<rect x="317" y="63" width="57" height="5" style="fill:#5d3c2d;stroke:black;stroke-width:1;fill-opacity:1;stroke-opacity:0.3" />
<rect x="603" y="63" width="57" height="5" style="fill:#5d3c2d;stroke:black;stroke-width:1;fill-opacity:1;stroke-opacity:0.3" />
<line x1="612" y1="58" x2="625" y2="60" stroke="black" stroke-width="1" />
<line x1="625" y1="60" x2="639" y2="58" stroke="black" stroke-width="1" />
<rect x="337" y="56" width="37" height="5" style="fill:#5d3c2d;stroke:black;stroke-width:1;fill-opacity:1;stroke-opacity:0.3" />
<line x1="375" y1="58" x2="593" y2="58" stroke="pink" stroke-width="1" />
<rect x="593" y="56" width="19" height="5" style="fill:#5d3c2d;stroke:black;stroke-width:1;fill-opacity:1;stroke-opacity:0.3" />
<rect x="639" y="56" width="57" height="5" style="fill:#5d3c2d;stroke:black;stroke-width:1;fill-opacity:1;stroke-opacity:0.3" />
<line x1="641" y1="156" x2="663" y2="158" stroke="black" stroke-width="1" />
<line x1="663" y1="158" x2="686" y2="156" stroke="black" stroke-width="1" />
<rect x="337" y="154" width="37" height="5" style="fill:#5d3c2d;stroke:black;stroke-width:1;fill-opacity:1;stroke-opacity:0.3" />
<line x1="375" y1="156" x2="593" y2="156" stroke="pink" stroke-width="1" />
<rect x="593" y="154" width="48" height="5" style="fill:#5d3c2d;stroke:black;stroke-width:1;fill-opacity:1;stroke-opacity:0.3" />
<rect x="686" y="154" width="85" height="5" style="fill:#5d3c2d;stroke:black;stroke-width:1;fill-opacity:1;stroke-opacity:0.3" />
<line x1="613" y1="86" x2="625" y2="88" stroke="black" stroke-width="1" />
<line x1="625" y1="88" x2="637" y2="86" stroke="black" stroke-width="1" />
<rect x="338" y="84" width="36" height="5" style="fill:#5d3c2d;stroke:black;stroke-width:1;fill-opacity:1;stroke-opacity:0.3" />
<line x1="375" y1="86" x2="593" y2="86" stroke="pink" stroke-width="1" />
<rect x="593" y="84" width="20" height="5" style="fill:#5d3c2d;stroke:black;stroke-width:1;fill-opacity:1;stroke-opacity:0.3" />
<rect x="637" y="84" width="56" height="5" style="fill:#5d3c2d;stroke:black;stroke-width:1;fill-opacity:1;stroke-opacity:0.3" />
<line x1="614" y1="37" x2="641" y2="39" stroke="black" stroke-width="1" />
<line x1="641" y1="39" x2="668" y2="37" stroke="black" stroke-width="1" />
<rect x="339" y="35" width="35" height="5" style="fill:#5d3c2d;stroke:black;stroke-width:1;fill-opacity:1;stroke-opacity:0.3" />
<line x1="375" y1="37" x2="593" y2="37" stroke="pink" stroke-width="1" />
<rect x="593" y="35" width="21" height="5" style="fill:#5d3c2d;stroke:black;stroke-width:1;fill-opacity:1;stroke-opacity:0.3" />
<rect x="668" y="35" width="57" height="5" style="fill:#5d3c2d;stroke:black;stroke-width:1;fill-opacity:1;stroke-opacity:0.3" />
<line x1="643" y1="149" x2="647" y2="151" stroke="black" stroke-width="1" />
<line x1="647" y1="151" x2="652" y2="149" stroke="black" stroke-width="1" />
<rect x="340" y="147" width="34" height="5" style="fill:#5d3c2d;stroke:black;stroke-width:1;fill-opacity:1;stroke-opacity:0.3" />
<line x1="375" y1="149" x2="593" y2="149" stroke="pink" stroke-width="1" />
<rect x="593" y="147" width="50" height="5" style="fill:#5d3c2d;stroke:black;stroke-width:1;fill-opacity:1;stroke-opacity:0.3" />
<rect x="652" y="147" width="85" height="5" style="fill:#5d3c2d;stroke:black;stroke-width:1;fill-opacity:1;stroke-opacity:0.3" />
<line x1="610" y1="93" x2="619" y2="95" stroke="black" stroke-width="1" />
<line x1="619" y1="95" x2="629" y2="93" stroke="black" stroke-width="1" />
<rect x="342" y="91" width="32" height="5" style="fill:#f5b024;stroke:black;stroke-width:1;fill-opacity:1;stroke-opacity:0.3" />
<line x1="375" y1="93" x2="593" y2="93" stroke="pink" stroke-width="1" />
<rect x="593" y="91" width="17" height="5" style="fill:#f5b024;stroke:black;stroke-width:1;fill-opacity:1;stroke-opacity:0.3" />
<rect x="629" y="91" width="56" height="5" style="fill:#f5b024;stroke:black;stroke-width:1;fill-opacity:1;stroke-opacity:0.3" />
<line x1="638" y1="128" x2="656" y2="130" stroke="black" stroke-width="1" />
<line x1="656" y1="130" x2="675" y2="128" stroke="black" stroke-width="1" />
<rect x="363" y="126" width="11" height="5" style="fill:#5d3c2d;stroke:black;stroke-width:1;fill-opacity:1;stroke-opacity:0.3" />
<line x1="375" y1="128" x2="593" y2="128" stroke="pink" stroke-width="1" />
<rect x="593" y="126" width="45" height="5" style="fill:#5d3c2d;stroke:black;stroke-width:1;fill-opacity:1;stroke-opacity:0.3" />
<rect x="675" y="126" width="57" height="5" style="fill:#5d3c2d;stroke:black;stroke-width:1;fill-opacity:1;stroke-opacity:0.3" />
<line x1="638" y1="135" x2="641" y2="137" stroke="black" stroke-width="1" />
<line x1="641" y1="137" x2="644" y2="135" stroke="black" stroke-width="1" />
<rect x="363" y="133" width="11" height="5" style="fill:#5d3c2d;stroke:black;stroke-width:1;fill-opacity:1;stroke-opacity:0.3" />
<line x1="375" y1="135" x2="593" y2="135" stroke="pink" stroke-width="1" />
<rect x="593" y="133" width="45" height="5" style="fill:#5d3c2d;stroke:black;stroke-width:1;fill-opacity:1;stroke-opacity:0.3" />
<rect x="644" y="133" width="57" height="5" style="fill:#5d3c2d;stroke:black;stroke-width:1;fill-opacity:1;stroke-opacity:0.3" />
<line x1="638" y1="163" x2="648" y2="165" stroke="black" stroke-width="1" />
<line x1="648" y1="165" x2="659" y2="163" stroke="black" stroke-width="1" />
<rect x="363" y="161" width="11" height="5" style="fill:#5d3c2d;stroke:black;stroke-width:1;fill-opacity:1;stroke-opacity:0.3" />
<line x1="375" y1="163" x2="593" y2="163" stroke="pink" stroke-width="1" />
<rect x="593" y="161" width="45" height="5" style="fill:#5d3c2d;stroke:black;stroke-width:1;fill-opacity:1;stroke-opacity:0.3" />
<rect x="659" y="161" width="55" height="5" style="fill:#5d3c2d;stroke:black;stroke-width:1;fill-opacity:1;stroke-opacity:0.3" />
<line x1="639" y1="72" x2="642" y2="74" stroke="black" stroke-width="1" />
<line x1="642" y1="74" x2="646" y2="72" stroke="black" stroke-width="1" />
<rect x="364" y="70" width="10" height="5" style="fill:#5d3c2d;stroke:black;stroke-width:1;fill-opacity:1;stroke-opacity:0.3" />
<line x1="375" y1="72" x2="593" y2="72" stroke="pink" stroke-width="1" />
<rect x="593" y="70" width="46" height="5" style="fill:#5d3c2d;stroke:black;stroke-width:1;fill-opacity:1;stroke-opacity:0.3" />
<rect x="646" y="70" width="57" height="5" style="fill:#5d3c2d;stroke:black;stroke-width:1;fill-opacity:1;stroke-opacity:0.3" />
<line x1="670" y1="44" x2="682" y2="46" stroke="black" stroke-width="1" />
<line x1="682" y1="46" x2="694" y2="44" stroke="black" stroke-width="1" />
<rect x="367" y="42" width="7" height="5" style="fill:#5d3c2d;stroke:black;stroke-width:1;fill-opacity:1;stroke-opacity:0.3" />
<line x1="375" y1="44" x2="593" y2="44" stroke="pink" stroke-width="1" />
<rect x="593" y="42" width="77" height="5" style="fill:#5d3c2d;stroke:black;stroke-width:1;fill-opacity:1;stroke-opacity:0.3" />
<rect x="694" y="42" width="85" height="5" style="fill:#5d3c2d;stroke:black;stroke-width:1;fill-opacity:1;stroke-opacity:0.3" />
<line x1="659" y1="79" x2="672" y2="81" stroke="black" stroke-width="1" />
<line x1="672" y1="81" x2="686" y2="79" stroke="black" stroke-width="1" />
<rect x="602" y="77" width="57" height="5" style="fill:#5d3c2d;stroke:black;stroke-width:1;fill-opacity:1;stroke-opacity:0.3" />
<rect x="686" y="77" width="55" height="5" style="fill:#5d3c2d;stroke:black;stroke-width:1;fill-opacity:1;stroke-opacity:0.3" />
<line x1="660" y1="30" x2="667" y2="32" stroke="black" stroke-width="1" />
<line x1="667" y1="32" x2="675" y2="30" stroke="black" stroke-width="1" />
<rect x="603" y="28" width="57" height="5" style="fill:#5d3c2d;stroke:black;stroke-width:1;fill-opacity:1;stroke-opacity:0.3" />
<rect x="675" y="28" width="57" height="5" style="fill:#5d3c2d;stroke:black;stroke-width:1;fill-opacity:1;stroke-opacity:0.3" />
<line x1="682" y1="107" x2="688" y2="109" stroke="black" stroke-width="1" />
<line x1="688" y1="109" x2="694" y2="107" stroke="black" stroke-width="1" />
<rect x="603" y="105" width="78" height="5" style="fill:#5d3c2d;stroke:black;stroke-width:1;fill-opacity:1;stroke-opacity:0.3" />
<rect x="694" y="105" width="85" height="5" style="fill:#5d3c2d;stroke:black;stroke-width:1;fill-opacity:1;stroke-opacity:0.3" />
<line x1="706" y1="121" x2="757" y2="123" stroke="black" stroke-width="1" />
<line x1="757" y1="123" x2="808" y2="121" stroke="black" stroke-width="1" />
<rect x="649" y="119" width="57" height="5" style="fill:#5d3c2d;stroke:black;stroke-width:1;fill-opacity:1;stroke-opacity:0.3" />
<rect x="808" y="119" width="57" height="5" style="fill:#5d3c2d;stroke:black;stroke-width:1;fill-opacity:1;stroke-opacity:0.3" />
<line x1="718" y1="65" x2="792" y2="67" stroke="black" stroke-width="1" />
<line x1="792" y1="67" x2="866" y2="65" stroke="black" stroke-width="1" />
<rect x="660" y="63" width="57" height="5" style="fill:#5d3c2d;stroke:black;stroke-width:1;fill-opacity:1;stroke-opacity:0.3" />
<rect x="866" y="63" width="57" height="5" style="fill:#5d3c2d;stroke:black;stroke-width:1;fill-opacity:1;stroke-opacity:0.3" />
<line x1="721" y1="142" x2="725" y2="144" stroke="black" stroke-width="1" />
<line x1="725" y1="144" x2="729" y2="142" stroke="black" stroke-width="1" />
<rect x="664" y="140" width="57" height="5" style="fill:#5d3c2d;stroke:black;stroke-width:1;fill-opacity:1;stroke-opacity:0.3" />
<rect x="729" y="140" width="56" height="5" style="fill:#5d3c2d;stroke:black;stroke-width:1;fill-opacity:1;stroke-opacity:0.3" />
<line x1="722" y1="51" x2="725" y2="53" stroke="black" stroke-width="1" />
<line x1="725" y1="53" x2="728" y2="51" stroke="black" stroke-width="1" />
<rect x="665" y="49" width="57" height="5" style="fill:#5d3c2d;stroke:black;stroke-width:1;fill-opacity:1;stroke-opacity:0.3" />
<rect x="728" y="49" width="57" height="5" style="fill:#5d3c2d;stroke:black;stroke-width:1;fill-opacity:1;stroke-opacity:0.3" />
<line x1="743" y1="93" x2="774" y2="95" stroke="black" stroke-width="1" />
<line x1="774" y1="95" x2="806" y2="93" stroke="black" stroke-width="1" />
<rect x="686" y="91" width="57" height="5" style="fill:#5d3c2d;stroke:black;stroke-width:1;fill-opacity:1;stroke-opacity:0.3" />
<rect x="806" y="91" width="57" height="5" style="fill:#5d3c2d;stroke:black;stroke-width:1;fill-opacity:1;stroke-opacity:0.3" />
<line x1="751" y1="86" x2="757" y2="88" stroke="black" stroke-width="1" />
<line x1="757" y1="88" x2="764" y2="86" stroke="black" stroke-width="1" />
<rect x="694" y="84" width="57" height="5" style="fill:#5d3c2d;stroke:black;stroke-width:1;fill-opacity:1;stroke-opacity:0.3" />
<rect x="764" y="84" width="57" height="5" style="fill:#5d3c2d;stroke:black;stroke-width:1;fill-opacity:1;stroke-opacity:0.3" />
<line x1="751" y1="100" x2="763" y2="102" stroke="black" stroke-width="1" />
<line x1="763" y1="102" x2="775" y2="100" stroke="black" stroke-width="1" />
<rect x="694" y="98" width="57" height="5" style="fill:#5d3c2d;stroke:black;stroke-width:1;fill-opacity:1;stroke-opacity:0.3" />
<rect x="775" y="98" width="57" height="5" style="fill:#5d3c2d;stroke:black;stroke-width:1;fill-opacity:1;stroke-opacity:0.3" />
<line x1="753" y1="58" x2="757" y2="60" stroke="black" stroke-width="1" />
<line x1="757" y1="60" x2="762" y2="58" stroke="black" stroke-width="1" />
<rect x="696" y="56" width="57" height="5" style="fill:#5d3c2d;stroke:black;stroke-width:1;fill-opacity:1;stroke-opacity:0.3" />
<rect x="762" y="56" width="57" height="5" style="fill:#5d3c2d;stroke:black;stroke-width:1;fill-opacity:1;stroke-opacity:0.3" />
<line x1="758" y1="135" x2="765" y2="137" stroke="black" stroke-width="1" />
<line x1="765" y1="137" x2="772" y2="135" stroke="black" stroke-width="1" />
<rect x="701" y="133" width="57" height="5" style="fill:#5d3c2d;stroke:black;stroke-width:1;fill-opacity:1;stroke-opacity:0.3" />
<rect x="772" y="133" width="57" height="5" style="fill:#5d3c2d;stroke:black;stroke-width:1;fill-opacity:1;stroke-opacity:0.3" />
<line x1="762" y1="72" x2="769" y2="74" stroke="black" stroke-width="1" />
<line x1="769" y1="74" x2="777" y2="72" stroke="black" stroke-width="1" />
<rect x="705" y="70" width="57" height="5" style="fill:#5d3c2d;stroke:black;stroke-width:1;fill-opacity:1;stroke-opacity:0.3" />
<rect x="777" y="70" width="56" height="5" style="fill:#5d3c2d;stroke:black;stroke-width:1;fill-opacity:1;stroke-opacity:0.3" />
<line x1="762" y1="114" x2="785" y2="116" stroke="black" stroke-width="1" />
<line x1="785" y1="116" x2="808" y2="114" stroke="black" stroke-width="1" />
<rect x="705" y="112" width="57" height="5" style="fill:#5d3c2d;stroke:black;stroke-width:1;fill-opacity:1;stroke-opacity:0.3" />
<rect x="808" y="112" width="57" height="5" style="fill:#5d3c2d;stroke:black;stroke-width:1;fill-opacity:1;stroke-opacity:0.3" />
<line x1="772" y1="163" x2="776" y2="165" stroke="black" stroke-width="1" />
<line x1="776" y1="165" x2="780" y2="163" stroke="black" stroke-width="1" />
<rect x="715" y="161" width="57" height="5" style="fill:#5d3c2d;stroke:black;stroke-width:1;fill-opacity:1;stroke-opacity:0.3" />
<rect x="780" y="161" width="56" height="5" style="fill:#5d3c2d;stroke:black;stroke-width:1;fill-opacity:1;stroke-opacity:0.3" />
<line x1="784" y1="37" x2="796" y2="39" stroke="black" stroke-width="1" />
<line x1="796" y1="39" x2="808" y2="37" stroke="black" stroke-width="1" />
<rect x="727" y="35" width="57" height="5" style="fill:#5d3c2d;stroke:black;stroke-width:1;fill-opacity:1;stroke-opacity:0.3" />
<rect x="808" y="35" width="57" height="5" style="fill:#5d3c2d;stroke:black;stroke-width:1;fill-opacity:1;stroke-opacity:0.3" />
<line x1="789" y1="128" x2="798" y2="130" stroke="black" stroke-width="1" />
<line x1="798" y1="130" x2="807" y2="128" stroke="black" stroke-width="1" />
<rect x="732" y="126" width="57" height="5" style="fill:#5d3c2d;stroke:black;stroke-width:1;fill-opacity:1;stroke-opacity:0.3" />
<rect x="807" y="126" width="57" height="5" style="fill:#5d3c2d;stroke:black;stroke-width:1;fill-opacity:1;stroke-opacity:0.3" />
<line x1="789" y1="30" x2="798" y2="32" stroke="black" stroke-width="1" />
<line x1="798" y1="32" x2="808" y2="30" stroke="black" stroke-width="1" />
<rect x="732" y="28" width="57" height="5" style="fill:#5d3c2d;stroke:black;stroke-width:1;fill-opacity:1;stroke-opacity:0.3" />
<rect x="808" y="28" width="57" height="5" style="fill:#5d3c2d;stroke:black;stroke-width:1;fill-opacity:1;stroke-opacity:0.3" />
<line x1="795" y1="149" x2="813" y2="151" stroke="black" stroke-width="1" />
<line x1="813" y1="151" x2="831" y2="149" stroke="black" stroke-width="1" />
<rect x="738" y="147" width="57" height="5" style="fill:#5d3c2d;stroke:black;stroke-width:1;fill-opacity:1;stroke-opacity:0.3" />
<rect x="831" y="147" width="57" height="5" style="fill:#5d3c2d;stroke:black;stroke-width:1;fill-opacity:1;stroke-opacity:0.3" />
<line x1="799" y1="79" x2="807" y2="81" stroke="black" stroke-width="1" />
<line x1="807" y1="81" x2="815" y2="79" stroke="black" stroke-width="1" />
<rect x="742" y="77" width="57" height="5" style="fill:#5d3c2d;stroke:black;stroke-width:1;fill-opacity:1;stroke-opacity:0.3" />
<rect x="815" y="77" width="57" height="5" style="fill:#5d3c2d;stroke:black;stroke-width:1;fill-opacity:1;stroke-opacity:0.3" />
<line x1="831" y1="156" x2="843" y2="158" stroke="black" stroke-width="1" />
<line x1="843" y1="158" x2="855" y2="156" stroke="black" stroke-width="1" />
<rect x="773" y="154" width="57" height="5" style="fill:#5d3c2d;stroke:black;stroke-width:1;fill-opacity:1;stroke-opacity:0.3" />
<rect x="855" y="154" width="55" height="5" style="fill:#5d3c2d;stroke:black;stroke-width:1;fill-opacity:1;stroke-opacity:0.3" />
<line x1="837" y1="44" x2="844" y2="46" stroke="black" stroke-width="1" />
<line x1="844" y1="46" x2="852" y2="44" stroke="black" stroke-width="1" />
<rect x="780" y="42" width="57" height="5" style="fill:#5d3c2d;stroke:black;stroke-width:1;fill-opacity:1;stroke-opacity:0.3" />
<rect x="852" y="42" width="57" height="5" style="fill:#5d3c2d;stroke:black;stroke-width:1;fill-opacity:1;stroke-opacity:0.3" />
<line x1="840" y1="107" x2="846" y2="109" stroke="black" stroke-width="1" />
<line x1="846" y1="109" x2="853" y2="107" stroke="black" stroke-width="1" />
<rect x="783" y="105" width="57" height="5" style="fill:#5d3c2d;stroke:black;stroke-width:1;fill-opacity:1;stroke-opacity:0.3" />
<rect x="853" y="105" width="57" height="5" style="fill:#5d3c2d;stroke:black;stroke-width:1;fill-opacity:1;stroke-opacity:0.3" />
<line x1="843" y1="51" x2="848" y2="53" stroke="black" stroke-width="1" />
<line x1="848" y1="53" x2="853" y2="51" stroke="black" stroke-width="1" />
<rect x="786" y="49" width="57" height="5" style="fill:#f5b024;stroke:black;stroke-width:1;fill-opacity:1;stroke-opacity:0.3" />
<rect x="853" y="49" width="57" height="5" style="fill:#f5b024;stroke:black;stroke-width:1;fill-opacity:1;stroke-opacity:0.3" />
<line x1="843" y1="142" x2="846" y2="144" stroke="black" stroke-width="1" />
<line x1="846" y1="144" x2="850" y2="142" stroke="black" stroke-width="1" />
<rect x="786" y="140" width="57" height="5" style="fill:#5d3c2d;stroke:black;stroke-width:1;fill-opacity:1;stroke-opacity:0.3" />
<rect x="850" y="140" width="57" height="5" style="fill:#5d3c2d;stroke:black;stroke-width:1;fill-opacity:1;stroke-opacity:0.3" />
<line x1="876" y1="58" x2="880" y2="60" stroke="black" stroke-width="1" />
<line x1="880" y1="60" x2="884" y2="58" stroke="black" stroke-width="1" />
<rect x="819" y="56" width="57" height="5" style="fill:#5d3c2d;stroke:black;stroke-width:1;fill-opacity:1;stroke-opacity:0.3" />
<rect x="884" y="56" width="57" height="5" style="fill:#5d3c2d;stroke:black;stroke-width:1;fill-opacity:1;stroke-opacity:0.3" />
<line x1="878" y1="86" x2="881" y2="88" stroke="black" stroke-width="1" />
<line x1="881" y1="88" x2="885" y2="86" stroke="black" stroke-width="1" />
<rect x="821" y="84" width="57" height="5" style="fill:#5d3c2d;stroke:black;stroke-width:1;fill-opacity:1;stroke-opacity:0.3" />
<rect x="885" y="84" width="57" height="5" style="fill:#5d3c2d;stroke:black;stroke-width:1;fill-opacity:1;stroke-opacity:0.3" />
<line x1="889" y1="135" x2="901" y2="137" stroke="black" stroke-width="1" />
<line x1="901" y1="137" x2="914" y2="135" stroke="black" stroke-width="1" />
<rect x="832" y="133" width="57" height="5" style="fill:#f5b024;stroke:black;stroke-width:1;fill-opacity:1;stroke-opacity:0.3" />
<rect x="914" y="133" width="56" height="5" style="fill:#f5b024;stroke:black;stroke-width:1;fill-opacity:1;stroke-opacity:0.3" />
<line x1="889" y1="100" x2="893" y2="102" stroke="black" stroke-width="1" />
<line x1="893" y1="102" x2="897" y2="100" stroke="black" stroke-width="1" />
<rect x="832" y="98" width="57" height="5" style="fill:#5d3c2d;stroke:black;stroke-width:1;fill-opacity:1;stroke-opacity:0.3" />
<rect x="897" y="98" width="57" height="5" style="fill:#5d3c2d;stroke:black;stroke-width:1;fill-opacity:1;stroke-opacity:0.3" />
<line x1="892" y1="72" x2="898" y2="74" stroke="black" stroke-width="1" />
<line x1="898" y1="74" x2="905" y2="72" stroke="black" stroke-width="1" />
<rect x="835" y="70" width="57" height="5" style="fill:#5d3c2d;stroke:black;stroke-width:1;fill-opacity:1;stroke-opacity:0.3" />
<rect x="905" y="70" width="57" height="5" style="fill:#5d3c2d;stroke:black;stroke-width:1;fill-opacity:1;stroke-opacity:0.3" />
<line x1="894" y1="163" x2="912" y2="165" stroke="black" stroke-width="1" />
<line x1="912" y1="165" x2="930" y2="163" stroke="black" stroke-width="1" />
<rect x="837" y="161" width="57" height="5" style="fill:#5d3c2d;stroke:black;stroke-width:1;fill-opacity:1;stroke-opacity:0.3" />
<rect x="930" y="161" width="56" height="5" style="fill:#5d3c2d;stroke:black;stroke-width:1;fill-opacity:1;stroke-opacity:0.3" />
<line x1="921" y1="93" x2="924" y2="95" stroke="black" stroke-width="1" />
<line x1="924" y1="95" x2="928" y2="93" stroke="black" stroke-width="1" />
<rect x="864" y="91" width="57" height="5" style="fill:#5d3c2d;stroke:black;stroke-width:1;fill-opacity:1;stroke-opacity:0.3" />
<rect x="928" y="91" width="57" height="5" style="fill:#5d3c2d;stroke:black;stroke-width:1;fill-opacity:1;stroke-opacity:0.3" />
<line x1="921" y1="128" x2="930" y2="130" stroke="black" stroke-width="1" />
<line x1="930" y1="130" x2="940" y2="128" stroke="black" stroke-width="1" />
<rect x="864" y="126" width="57" height="5" style="fill:#5d3c2d;stroke:black;stroke-width:1;fill-opacity:1;stroke-opacity:0.3" />
<rect x="940" y="126" width="57" height="5" style="fill:#5d3c2d;stroke:black;stroke-width:1;fill-opacity:1;stroke-opacity:0.3" />
<line x1="922" y1="30" x2="925" y2="32" stroke="black" stroke-width="1" />
<line x1="925" y1="32" x2="928" y2="30" stroke="black" stroke-width="1" />
<rect x="865" y="28" width="57" height="5" style="fill:#5d3c2d;stroke:black;stroke-width:1;fill-opacity:1;stroke-opacity:0.3" />
<rect x="928" y="28" width="15" height="5" style="fill:#5d3c2d;stroke:black;stroke-width:1;fill-opacity:1;stroke-opacity:0.3" />
<line x1="944" y1="30" x2="1010" y2="30" stroke="pink" stroke-width="1" />
<rect x="1010" y="28" width="41" height="5" style="fill:#5d3c2d;stroke:black;stroke-width:1;fill-opacity:1;stroke-opacity:0.3" />
<line x1="929" y1="37" x2="935" y2="39" stroke="black" stroke-width="1" />
<line x1="935" y1="39" x2="941" y2="37" stroke="black" stroke-width="1" />
<rect x="872" y="35" width="57" height="5" style="fill:#5d3c2d;stroke:black;stroke-width:1;fill-opacity:1;stroke-opacity:0.3" />
<rect x="941" y="35" width="57" height="5" style="fill:#5d3c2d;stroke:black;stroke-width:1;fill-opacity:1;stroke-opacity:0.3" />
<text x="15"  y="176" style="font-family:Arial;font-size:10;stroke:black;fill:black;">all.merged.bam</text>
</svg>
    
