<?xml version="1.0" encoding="utf-8" standalone="no"?>
<!DOCTYPE svg PUBLIC "-//W3C//DTD SVG 1.1//EN"
  "http://www.w3.org/Graphics/SVG/1.1/DTD/svg11.dtd">
<svg height="1140" width="1000" version="1.1" viewBox="0 0 1000 1140" xmlns="http://www.w3.org/2000/svg" xmlns:xlink="http://www.w3.org/1999/xlink">
<line x1="55" y1="11" x2="944" y2="11" stroke="black" stroke-width="1" />
<rect x="55" y="9" width="248" height="5" style="fill:#f50002;stroke:black;stroke-width:1;fill-opacity:1;stroke-opacity:0.3" />
<rect x="304" y="9" width="33" height="5" style="fill:#53a1b5;stroke:black;stroke-width:1;fill-opacity:1;stroke-opacity:0.3" />
<rect x="445" y="9" width="9" height="5" style="fill:#53a1b5;stroke:black;stroke-width:1;fill-opacity:1;stroke-opacity:0.3" />
<rect x="732" y="9" width="95" height="5" style="fill:#53a1b5;stroke:black;stroke-width:1;fill-opacity:1;stroke-opacity:0.3" />
<rect x="828" y="9" width="115" height="5" style="fill:#f50002;stroke:black;stroke-width:1;fill-opacity:1;stroke-opacity:0.3" />
<text x="55"  y="23" style="font-family:Arial;font-size:10;stroke:black;fill:black;">Cre03.g144927.t1.1.v5.5 (-) chromosome_3:413426-415031</text>
<line x1="834" y1="30" x2="839" y2="32" stroke="black" stroke-width="1" />
<line x1="839" y1="32" x2="844" y2="30" stroke="black" stroke-width="1" />
<rect x="779" y="28" width="55" height="5" style="fill:#5d3c2d;stroke:black;stroke-width:1;fill-opacity:1;stroke-opacity:0.3" />
<rect x="844" y="28" width="55" height="5" style="fill:#5d3c2d;stroke:black;stroke-width:1;fill-opacity:1;stroke-opacity:0.3" />
<line x1="842" y1="37" x2="845" y2="39" stroke="black" stroke-width="1" />
<line x1="845" y1="39" x2="849" y2="37" stroke="black" stroke-width="1" />
<rect x="787" y="35" width="55" height="5" style="fill:#5d3c2d;stroke:black;stroke-width:1;fill-opacity:1;stroke-opacity:0.3" />
<rect x="849" y="35" width="53" height="5" style="fill:#5d3c2d;stroke:black;stroke-width:1;fill-opacity:1;stroke-opacity:0.3" />
<line x1="842" y1="44" x2="845" y2="46" stroke="black" stroke-width="1" />
<line x1="845" y1="46" x2="848" y2="44" stroke="black" stroke-width="1" />
<rect x="787" y="42" width="55" height="5" style="fill:#5d3c2d;stroke:black;stroke-width:1;fill-opacity:1;stroke-opacity:0.3" />
<rect x="848" y="42" width="53" height="5" style="fill:#5d3c2d;stroke:black;stroke-width:1;fill-opacity:1;stroke-opacity:0.3" />
<line x1="901" y1="44" x2="3995" y2="44" stroke="pink" stroke-width="1" />
<rect x="3995" y="42" width="1" height="5" style="fill:#5d3c2d;stroke:black;stroke-width:1;fill-opacity:1;stroke-opacity:0.3" />
<line x1="852" y1="51" x2="856" y2="53" stroke="black" stroke-width="1" />
<line x1="856" y1="53" x2="861" y2="51" stroke="black" stroke-width="1" />
<rect x="797" y="49" width="55" height="5" style="fill:#f5b024;stroke:black;stroke-width:1;fill-opacity:1;stroke-opacity:0.3" />
<rect x="861" y="49" width="55" height="5" style="fill:#f5b024;stroke:black;stroke-width:1;fill-opacity:1;stroke-opacity:0.3" />
<line x1="853" y1="58" x2="857" y2="60" stroke="black" stroke-width="1" />
<line x1="857" y1="60" x2="861" y2="58" stroke="black" stroke-width="1" />
<rect x="797" y="56" width="55" height="5" style="fill:#f5b024;stroke:black;stroke-width:1;fill-opacity:1;stroke-opacity:0.3" />
<rect x="861" y="56" width="55" height="5" style="fill:#f5b024;stroke:black;stroke-width:1;fill-opacity:1;stroke-opacity:0.3" />
<line x1="854" y1="65" x2="861" y2="67" stroke="black" stroke-width="1" />
<line x1="861" y1="67" x2="868" y2="65" stroke="black" stroke-width="1" />
<rect x="799" y="63" width="55" height="5" style="fill:#f5b024;stroke:black;stroke-width:1;fill-opacity:1;stroke-opacity:0.3" />
<rect x="868" y="63" width="55" height="5" style="fill:#f5b024;stroke:black;stroke-width:1;fill-opacity:1;stroke-opacity:0.3" />
<line x1="864" y1="72" x2="868" y2="74" stroke="black" stroke-width="1" />
<line x1="868" y1="74" x2="872" y2="72" stroke="black" stroke-width="1" />
<rect x="809" y="70" width="54" height="5" style="fill:#f5b024;stroke:black;stroke-width:1;fill-opacity:1;stroke-opacity:0.3" />
<rect x="872" y="70" width="55" height="5" style="fill:#f5b024;stroke:black;stroke-width:1;fill-opacity:1;stroke-opacity:0.3" />
<line x1="866" y1="79" x2="870" y2="81" stroke="black" stroke-width="1" />
<line x1="870" y1="81" x2="875" y2="79" stroke="black" stroke-width="1" />
<rect x="811" y="77" width="55" height="5" style="fill:#f5b024;stroke:black;stroke-width:1;fill-opacity:1;stroke-opacity:0.3" />
<rect x="875" y="77" width="55" height="5" style="fill:#f5b024;stroke:black;stroke-width:1;fill-opacity:1;stroke-opacity:0.3" />
<line x1="898" y1="86" x2="901" y2="88" stroke="black" stroke-width="1" />
<line x1="901" y1="88" x2="905" y2="86" stroke="black" stroke-width="1" />
<rect x="843" y="84" width="55" height="5" style="fill:#5d3c2d;stroke:black;stroke-width:1;fill-opacity:1;stroke-opacity:0.3" />
<rect x="905" y="84" width="12" height="5" style="fill:#5d3c2d;stroke:black;stroke-width:1;fill-opacity:1;stroke-opacity:0.3" />
<line x1="918" y1="86" x2="3975" y2="86" stroke="pink" stroke-width="1" />
<rect x="3975" y="84" width="42" height="5" style="fill:#5d3c2d;stroke:black;stroke-width:1;fill-opacity:1;stroke-opacity:0.3" />
<text x="15"  y="176" style="font-family:Arial;font-size:10;stroke:black;fill:black;">all.merged.bam</text>
</svg>
    
