<?xml version="1.0" encoding="utf-8" standalone="no"?>
<!DOCTYPE svg PUBLIC "-//W3C//DTD SVG 1.1//EN"
  "http://www.w3.org/Graphics/SVG/1.1/DTD/svg11.dtd">
<svg height="1140" width="1000" version="1.1" viewBox="0 0 1000 1140" xmlns="http://www.w3.org/2000/svg" xmlns:xlink="http://www.w3.org/1999/xlink">
<line x1="40" y1="11" x2="958" y2="11" stroke="black" stroke-width="1" />
<rect x="40" y="9" width="82" height="5" style="fill:#f50002;stroke:black;stroke-width:1;fill-opacity:1;stroke-opacity:0.3" />
<rect x="123" y="9" width="88" height="5" style="fill:#53a1b5;stroke:black;stroke-width:1;fill-opacity:1;stroke-opacity:0.3" />
<rect x="364" y="9" width="41" height="5" style="fill:#53a1b5;stroke:black;stroke-width:1;fill-opacity:1;stroke-opacity:0.3" />
<rect x="585" y="9" width="26" height="5" style="fill:#53a1b5;stroke:black;stroke-width:1;fill-opacity:1;stroke-opacity:0.3" />
<rect x="719" y="9" width="54" height="5" style="fill:#53a1b5;stroke:black;stroke-width:1;fill-opacity:1;stroke-opacity:0.3" />
<rect x="774" y="9" width="184" height="5" style="fill:#f50002;stroke:black;stroke-width:1;fill-opacity:1;stroke-opacity:0.3" />
<text x="40"  y="23" style="font-family:Arial;font-size:10;stroke:black;fill:black;">Cre01.g027100.t1.2.v5.5 (+) chromosome_1:4117136-4119389</text>
<line x1="64" y1="30" x2="72" y2="32" stroke="black" stroke-width="1" />
<line x1="72" y1="32" x2="80" y2="30" stroke="black" stroke-width="1" />
<rect x="29" y="28" width="34" height="5" style="fill:#5d3c2d;stroke:black;stroke-width:1;fill-opacity:1;stroke-opacity:0.3" />
<rect x="80" y="28" width="40" height="5" style="fill:#5d3c2d;stroke:black;stroke-width:1;fill-opacity:1;stroke-opacity:0.3" />
<line x1="72" y1="37" x2="77" y2="39" stroke="black" stroke-width="1" />
<line x1="77" y1="39" x2="83" y2="37" stroke="black" stroke-width="1" />
<rect x="31" y="35" width="40" height="5" style="fill:#5d3c2d;stroke:black;stroke-width:1;fill-opacity:1;stroke-opacity:0.3" />
<rect x="83" y="35" width="40" height="5" style="fill:#5d3c2d;stroke:black;stroke-width:1;fill-opacity:1;stroke-opacity:0.3" />
<line x1="74" y1="44" x2="92" y2="46" stroke="black" stroke-width="1" />
<line x1="92" y1="46" x2="110" y2="44" stroke="black" stroke-width="1" />
<rect x="33" y="42" width="40" height="5" style="fill:#5d3c2d;stroke:black;stroke-width:1;fill-opacity:1;stroke-opacity:0.3" />
<rect x="110" y="42" width="40" height="5" style="fill:#5d3c2d;stroke:black;stroke-width:1;fill-opacity:1;stroke-opacity:0.3" />
<line x1="74" y1="51" x2="81" y2="53" stroke="black" stroke-width="1" />
<line x1="81" y1="53" x2="88" y2="51" stroke="black" stroke-width="1" />
<rect x="34" y="49" width="40" height="5" style="fill:#5d3c2d;stroke:black;stroke-width:1;fill-opacity:1;stroke-opacity:0.3" />
<rect x="88" y="49" width="40" height="5" style="fill:#5d3c2d;stroke:black;stroke-width:1;fill-opacity:1;stroke-opacity:0.3" />
<line x1="74" y1="58" x2="89" y2="60" stroke="black" stroke-width="1" />
<line x1="89" y1="60" x2="104" y2="58" stroke="black" stroke-width="1" />
<rect x="34" y="56" width="40" height="5" style="fill:#5d3c2d;stroke:black;stroke-width:1;fill-opacity:1;stroke-opacity:0.3" />
<rect x="104" y="56" width="40" height="5" style="fill:#5d3c2d;stroke:black;stroke-width:1;fill-opacity:1;stroke-opacity:0.3" />
<line x1="74" y1="65" x2="91" y2="67" stroke="black" stroke-width="1" />
<line x1="91" y1="67" x2="108" y2="65" stroke="black" stroke-width="1" />
<rect x="34" y="63" width="40" height="5" style="fill:#5d3c2d;stroke:black;stroke-width:1;fill-opacity:1;stroke-opacity:0.3" />
<rect x="108" y="63" width="40" height="5" style="fill:#5d3c2d;stroke:black;stroke-width:1;fill-opacity:1;stroke-opacity:0.3" />
<line x1="75" y1="72" x2="87" y2="74" stroke="black" stroke-width="1" />
<line x1="87" y1="74" x2="99" y2="72" stroke="black" stroke-width="1" />
<rect x="34" y="70" width="40" height="5" style="fill:#5d3c2d;stroke:black;stroke-width:1;fill-opacity:1;stroke-opacity:0.3" />
<rect x="99" y="70" width="40" height="5" style="fill:#5d3c2d;stroke:black;stroke-width:1;fill-opacity:1;stroke-opacity:0.3" />
<line x1="75" y1="79" x2="78" y2="81" stroke="black" stroke-width="1" />
<line x1="78" y1="81" x2="82" y2="79" stroke="black" stroke-width="1" />
<rect x="34" y="77" width="40" height="5" style="fill:#5d3c2d;stroke:black;stroke-width:1;fill-opacity:1;stroke-opacity:0.3" />
<rect x="82" y="77" width="39" height="5" style="fill:#5d3c2d;stroke:black;stroke-width:1;fill-opacity:1;stroke-opacity:0.3" />
<line x1="75" y1="86" x2="81" y2="88" stroke="black" stroke-width="1" />
<line x1="81" y1="88" x2="87" y2="86" stroke="black" stroke-width="1" />
<rect x="34" y="84" width="40" height="5" style="fill:#5d3c2d;stroke:black;stroke-width:1;fill-opacity:1;stroke-opacity:0.3" />
<rect x="87" y="84" width="40" height="5" style="fill:#5d3c2d;stroke:black;stroke-width:1;fill-opacity:1;stroke-opacity:0.3" />
<line x1="75" y1="93" x2="86" y2="95" stroke="black" stroke-width="1" />
<line x1="86" y1="95" x2="98" y2="93" stroke="black" stroke-width="1" />
<rect x="34" y="91" width="40" height="5" style="fill:#5d3c2d;stroke:black;stroke-width:1;fill-opacity:1;stroke-opacity:0.3" />
<rect x="98" y="91" width="40" height="5" style="fill:#5d3c2d;stroke:black;stroke-width:1;fill-opacity:1;stroke-opacity:0.3" />
<line x1="75" y1="100" x2="79" y2="102" stroke="black" stroke-width="1" />
<line x1="79" y1="102" x2="84" y2="100" stroke="black" stroke-width="1" />
<rect x="34" y="98" width="40" height="5" style="fill:#5d3c2d;stroke:black;stroke-width:1;fill-opacity:1;stroke-opacity:0.3" />
<rect x="84" y="98" width="39" height="5" style="fill:#5d3c2d;stroke:black;stroke-width:1;fill-opacity:1;stroke-opacity:0.3" />
<line x1="75" y1="107" x2="87" y2="109" stroke="black" stroke-width="1" />
<line x1="87" y1="109" x2="99" y2="107" stroke="black" stroke-width="1" />
<rect x="34" y="105" width="40" height="5" style="fill:#5d3c2d;stroke:black;stroke-width:1;fill-opacity:1;stroke-opacity:0.3" />
<rect x="99" y="105" width="40" height="5" style="fill:#5d3c2d;stroke:black;stroke-width:1;fill-opacity:1;stroke-opacity:0.3" />
<line x1="76" y1="114" x2="78" y2="116" stroke="black" stroke-width="1" />
<line x1="78" y1="116" x2="80" y2="114" stroke="black" stroke-width="1" />
<rect x="35" y="112" width="40" height="5" style="fill:#5d3c2d;stroke:black;stroke-width:1;fill-opacity:1;stroke-opacity:0.3" />
<rect x="80" y="112" width="40" height="5" style="fill:#5d3c2d;stroke:black;stroke-width:1;fill-opacity:1;stroke-opacity:0.3" />
<line x1="76" y1="121" x2="79" y2="123" stroke="black" stroke-width="1" />
<line x1="79" y1="123" x2="83" y2="121" stroke="black" stroke-width="1" />
<rect x="35" y="119" width="40" height="5" style="fill:#5d3c2d;stroke:black;stroke-width:1;fill-opacity:1;stroke-opacity:0.3" />
<rect x="83" y="119" width="40" height="5" style="fill:#5d3c2d;stroke:black;stroke-width:1;fill-opacity:1;stroke-opacity:0.3" />
<line x1="76" y1="128" x2="82" y2="130" stroke="black" stroke-width="1" />
<line x1="82" y1="130" x2="88" y2="128" stroke="black" stroke-width="1" />
<rect x="35" y="126" width="40" height="5" style="fill:#5d3c2d;stroke:black;stroke-width:1;fill-opacity:1;stroke-opacity:0.3" />
<rect x="88" y="126" width="40" height="5" style="fill:#5d3c2d;stroke:black;stroke-width:1;fill-opacity:1;stroke-opacity:0.3" />
<line x1="76" y1="135" x2="89" y2="137" stroke="black" stroke-width="1" />
<line x1="89" y1="137" x2="102" y2="135" stroke="black" stroke-width="1" />
<rect x="35" y="133" width="40" height="5" style="fill:#5d3c2d;stroke:black;stroke-width:1;fill-opacity:1;stroke-opacity:0.3" />
<rect x="102" y="133" width="40" height="5" style="fill:#5d3c2d;stroke:black;stroke-width:1;fill-opacity:1;stroke-opacity:0.3" />
<line x1="76" y1="142" x2="87" y2="144" stroke="black" stroke-width="1" />
<line x1="87" y1="144" x2="99" y2="142" stroke="black" stroke-width="1" />
<rect x="35" y="140" width="40" height="5" style="fill:#5d3c2d;stroke:black;stroke-width:1;fill-opacity:1;stroke-opacity:0.3" />
<rect x="99" y="140" width="40" height="5" style="fill:#5d3c2d;stroke:black;stroke-width:1;fill-opacity:1;stroke-opacity:0.3" />
<line x1="76" y1="149" x2="78" y2="151" stroke="black" stroke-width="1" />
<line x1="78" y1="151" x2="81" y2="149" stroke="black" stroke-width="1" />
<rect x="35" y="147" width="40" height="5" style="fill:#5d3c2d;stroke:black;stroke-width:1;fill-opacity:1;stroke-opacity:0.3" />
<rect x="81" y="147" width="39" height="5" style="fill:#5d3c2d;stroke:black;stroke-width:1;fill-opacity:1;stroke-opacity:0.3" />
<line x1="76" y1="156" x2="79" y2="158" stroke="black" stroke-width="1" />
<line x1="79" y1="158" x2="82" y2="156" stroke="black" stroke-width="1" />
<rect x="35" y="154" width="40" height="5" style="fill:#5d3c2d;stroke:black;stroke-width:1;fill-opacity:1;stroke-opacity:0.3" />
<rect x="82" y="154" width="40" height="5" style="fill:#5d3c2d;stroke:black;stroke-width:1;fill-opacity:1;stroke-opacity:0.3" />
<line x1="76" y1="163" x2="87" y2="165" stroke="black" stroke-width="1" />
<line x1="87" y1="165" x2="98" y2="163" stroke="black" stroke-width="1" />
<rect x="35" y="161" width="40" height="5" style="fill:#5d3c2d;stroke:black;stroke-width:1;fill-opacity:1;stroke-opacity:0.3" />
<rect x="98" y="161" width="40" height="5" style="fill:#5d3c2d;stroke:black;stroke-width:1;fill-opacity:1;stroke-opacity:0.3" />
<line x1="162" y1="30" x2="165" y2="32" stroke="black" stroke-width="1" />
<line x1="165" y1="32" x2="168" y2="30" stroke="black" stroke-width="1" />
<rect x="121" y="28" width="40" height="5" style="fill:#5d3c2d;stroke:black;stroke-width:1;fill-opacity:1;stroke-opacity:0.3" />
<rect x="168" y="28" width="40" height="5" style="fill:#5d3c2d;stroke:black;stroke-width:1;fill-opacity:1;stroke-opacity:0.3" />
<line x1="164" y1="79" x2="166" y2="81" stroke="black" stroke-width="1" />
<line x1="166" y1="81" x2="169" y2="79" stroke="black" stroke-width="1" />
<rect x="123" y="77" width="40" height="5" style="fill:#f5b024;stroke:black;stroke-width:1;fill-opacity:1;stroke-opacity:0.3" />
<rect x="169" y="77" width="40" height="5" style="fill:#f5b024;stroke:black;stroke-width:1;fill-opacity:1;stroke-opacity:0.3" />
<line x1="165" y1="37" x2="167" y2="39" stroke="black" stroke-width="1" />
<line x1="167" y1="39" x2="169" y2="37" stroke="black" stroke-width="1" />
<rect x="124" y="35" width="40" height="5" style="fill:#f5b024;stroke:black;stroke-width:1;fill-opacity:1;stroke-opacity:0.3" />
<rect x="169" y="35" width="40" height="5" style="fill:#f5b024;stroke:black;stroke-width:1;fill-opacity:1;stroke-opacity:0.3" />
<line x1="165" y1="100" x2="269" y2="102" stroke="black" stroke-width="1" />
<line x1="269" y1="102" x2="374" y2="100" stroke="black" stroke-width="1" />
<rect x="124" y="98" width="40" height="5" style="fill:#5d3c2d;stroke:black;stroke-width:1;fill-opacity:1;stroke-opacity:0.3" />
<rect x="374" y="98" width="32" height="5" style="fill:#5d3c2d;stroke:black;stroke-width:1;fill-opacity:1;stroke-opacity:0.3" />
<line x1="406" y1="100" x2="585" y2="100" stroke="pink" stroke-width="1" />
<rect x="585" y="98" width="8" height="5" style="fill:#5d3c2d;stroke:black;stroke-width:1;fill-opacity:1;stroke-opacity:0.3" />
<line x1="166" y1="114" x2="174" y2="116" stroke="black" stroke-width="1" />
<line x1="174" y1="116" x2="182" y2="114" stroke="black" stroke-width="1" />
<rect x="125" y="112" width="40" height="5" style="fill:#f5b024;stroke:black;stroke-width:1;fill-opacity:1;stroke-opacity:0.3" />
<rect x="182" y="112" width="30" height="5" style="fill:#f5b024;stroke:black;stroke-width:1;fill-opacity:1;stroke-opacity:0.3" />
<line x1="212" y1="114" x2="364" y2="114" stroke="pink" stroke-width="1" />
<rect x="364" y="112" width="10" height="5" style="fill:#f5b024;stroke:black;stroke-width:1;fill-opacity:1;stroke-opacity:0.3" />
<line x1="166" y1="121" x2="174" y2="123" stroke="black" stroke-width="1" />
<line x1="174" y1="123" x2="183" y2="121" stroke="black" stroke-width="1" />
<rect x="125" y="119" width="40" height="5" style="fill:#5d3c2d;stroke:black;stroke-width:1;fill-opacity:1;stroke-opacity:0.3" />
<rect x="183" y="119" width="29" height="5" style="fill:#5d3c2d;stroke:black;stroke-width:1;fill-opacity:1;stroke-opacity:0.3" />
<line x1="212" y1="121" x2="364" y2="121" stroke="pink" stroke-width="1" />
<rect x="364" y="119" width="11" height="5" style="fill:#5d3c2d;stroke:black;stroke-width:1;fill-opacity:1;stroke-opacity:0.3" />
<line x1="166" y1="149" x2="269" y2="151" stroke="black" stroke-width="1" />
<line x1="269" y1="151" x2="373" y2="149" stroke="black" stroke-width="1" />
<rect x="125" y="147" width="40" height="5" style="fill:#5d3c2d;stroke:black;stroke-width:1;fill-opacity:1;stroke-opacity:0.3" />
<rect x="373" y="147" width="33" height="5" style="fill:#5d3c2d;stroke:black;stroke-width:1;fill-opacity:1;stroke-opacity:0.3" />
<line x1="406" y1="149" x2="585" y2="149" stroke="pink" stroke-width="1" />
<rect x="585" y="147" width="7" height="5" style="fill:#5d3c2d;stroke:black;stroke-width:1;fill-opacity:1;stroke-opacity:0.3" />
<line x1="166" y1="156" x2="169" y2="158" stroke="black" stroke-width="1" />
<line x1="169" y1="158" x2="173" y2="156" stroke="black" stroke-width="1" />
<rect x="125" y="154" width="40" height="5" style="fill:#f5b024;stroke:black;stroke-width:1;fill-opacity:1;stroke-opacity:0.3" />
<rect x="173" y="154" width="39" height="5" style="fill:#f5b024;stroke:black;stroke-width:1;fill-opacity:1;stroke-opacity:0.3" />
<line x1="171" y1="51" x2="189" y2="53" stroke="black" stroke-width="1" />
<line x1="189" y1="53" x2="207" y2="51" stroke="black" stroke-width="1" />
<rect x="130" y="49" width="40" height="5" style="fill:#5d3c2d;stroke:black;stroke-width:1;fill-opacity:1;stroke-opacity:0.3" />
<rect x="207" y="49" width="5" height="5" style="fill:#5d3c2d;stroke:black;stroke-width:1;fill-opacity:1;stroke-opacity:0.3" />
<line x1="212" y1="51" x2="364" y2="51" stroke="pink" stroke-width="1" />
<rect x="364" y="49" width="35" height="5" style="fill:#5d3c2d;stroke:black;stroke-width:1;fill-opacity:1;stroke-opacity:0.3" />
<line x1="171" y1="86" x2="179" y2="88" stroke="black" stroke-width="1" />
<line x1="179" y1="88" x2="187" y2="86" stroke="black" stroke-width="1" />
<rect x="130" y="84" width="40" height="5" style="fill:#5d3c2d;stroke:black;stroke-width:1;fill-opacity:1;stroke-opacity:0.3" />
<rect x="187" y="84" width="25" height="5" style="fill:#5d3c2d;stroke:black;stroke-width:1;fill-opacity:1;stroke-opacity:0.3" />
<line x1="212" y1="86" x2="364" y2="86" stroke="pink" stroke-width="1" />
<rect x="364" y="84" width="15" height="5" style="fill:#5d3c2d;stroke:black;stroke-width:1;fill-opacity:1;stroke-opacity:0.3" />
<line x1="173" y1="128" x2="182" y2="130" stroke="black" stroke-width="1" />
<line x1="182" y1="130" x2="192" y2="128" stroke="black" stroke-width="1" />
<rect x="132" y="126" width="40" height="5" style="fill:#5d3c2d;stroke:black;stroke-width:1;fill-opacity:1;stroke-opacity:0.3" />
<rect x="192" y="126" width="20" height="5" style="fill:#5d3c2d;stroke:black;stroke-width:1;fill-opacity:1;stroke-opacity:0.3" />
<line x1="212" y1="128" x2="364" y2="128" stroke="pink" stroke-width="1" />
<rect x="364" y="126" width="20" height="5" style="fill:#5d3c2d;stroke:black;stroke-width:1;fill-opacity:1;stroke-opacity:0.3" />
<line x1="181" y1="72" x2="190" y2="74" stroke="black" stroke-width="1" />
<line x1="190" y1="74" x2="199" y2="72" stroke="black" stroke-width="1" />
<rect x="140" y="70" width="40" height="5" style="fill:#5d3c2d;stroke:black;stroke-width:1;fill-opacity:1;stroke-opacity:0.3" />
<rect x="199" y="70" width="13" height="5" style="fill:#5d3c2d;stroke:black;stroke-width:1;fill-opacity:1;stroke-opacity:0.3" />
<line x1="212" y1="72" x2="364" y2="72" stroke="pink" stroke-width="1" />
<rect x="364" y="70" width="27" height="5" style="fill:#5d3c2d;stroke:black;stroke-width:1;fill-opacity:1;stroke-opacity:0.3" />
<line x1="181" y1="93" x2="273" y2="95" stroke="black" stroke-width="1" />
<line x1="273" y1="95" x2="366" y2="93" stroke="black" stroke-width="1" />
<rect x="141" y="91" width="40" height="5" style="fill:#5d3c2d;stroke:black;stroke-width:1;fill-opacity:1;stroke-opacity:0.3" />
<rect x="366" y="91" width="39" height="5" style="fill:#5d3c2d;stroke:black;stroke-width:1;fill-opacity:1;stroke-opacity:0.3" />
<line x1="406" y1="93" x2="585" y2="93" stroke="pink" stroke-width="1" />
<rect x="585" y="91" width="0" height="5" style="fill:#5d3c2d;stroke:black;stroke-width:1;fill-opacity:1;stroke-opacity:0.3" />
<line x1="182" y1="107" x2="188" y2="109" stroke="black" stroke-width="1" />
<line x1="188" y1="109" x2="195" y2="107" stroke="black" stroke-width="1" />
<rect x="141" y="105" width="40" height="5" style="fill:#5d3c2d;stroke:black;stroke-width:1;fill-opacity:1;stroke-opacity:0.3" />
<rect x="195" y="105" width="17" height="5" style="fill:#5d3c2d;stroke:black;stroke-width:1;fill-opacity:1;stroke-opacity:0.3" />
<line x1="212" y1="107" x2="364" y2="107" stroke="pink" stroke-width="1" />
<rect x="364" y="105" width="23" height="5" style="fill:#5d3c2d;stroke:black;stroke-width:1;fill-opacity:1;stroke-opacity:0.3" />
<line x1="182" y1="142" x2="189" y2="144" stroke="black" stroke-width="1" />
<line x1="189" y1="144" x2="197" y2="142" stroke="black" stroke-width="1" />
<rect x="142" y="140" width="40" height="5" style="fill:#f5b024;stroke:black;stroke-width:1;fill-opacity:1;stroke-opacity:0.3" />
<rect x="197" y="140" width="15" height="5" style="fill:#f5b024;stroke:black;stroke-width:1;fill-opacity:1;stroke-opacity:0.3" />
<line x1="212" y1="142" x2="364" y2="142" stroke="pink" stroke-width="1" />
<rect x="364" y="140" width="25" height="5" style="fill:#f5b024;stroke:black;stroke-width:1;fill-opacity:1;stroke-opacity:0.3" />
<line x1="185" y1="135" x2="189" y2="137" stroke="black" stroke-width="1" />
<line x1="189" y1="137" x2="193" y2="135" stroke="black" stroke-width="1" />
<rect x="144" y="133" width="40" height="5" style="fill:#f5b024;stroke:black;stroke-width:1;fill-opacity:1;stroke-opacity:0.3" />
<rect x="193" y="133" width="19" height="5" style="fill:#f5b024;stroke:black;stroke-width:1;fill-opacity:1;stroke-opacity:0.3" />
<line x1="212" y1="135" x2="364" y2="135" stroke="pink" stroke-width="1" />
<rect x="364" y="133" width="21" height="5" style="fill:#f5b024;stroke:black;stroke-width:1;fill-opacity:1;stroke-opacity:0.3" />
<line x1="185" y1="58" x2="189" y2="60" stroke="black" stroke-width="1" />
<line x1="189" y1="60" x2="193" y2="58" stroke="black" stroke-width="1" />
<rect x="145" y="56" width="40" height="5" style="fill:#5d3c2d;stroke:black;stroke-width:1;fill-opacity:1;stroke-opacity:0.3" />
<rect x="193" y="56" width="19" height="5" style="fill:#5d3c2d;stroke:black;stroke-width:1;fill-opacity:1;stroke-opacity:0.3" />
<line x1="212" y1="58" x2="364" y2="58" stroke="pink" stroke-width="1" />
<rect x="364" y="56" width="21" height="5" style="fill:#5d3c2d;stroke:black;stroke-width:1;fill-opacity:1;stroke-opacity:0.3" />
<line x1="206" y1="163" x2="292" y2="165" stroke="black" stroke-width="1" />
<line x1="292" y1="165" x2="379" y2="163" stroke="black" stroke-width="1" />
<rect x="145" y="161" width="61" height="5" style="fill:#5d3c2d;stroke:black;stroke-width:1;fill-opacity:1;stroke-opacity:0.3" />
<rect x="379" y="161" width="26" height="5" style="fill:#5d3c2d;stroke:black;stroke-width:1;fill-opacity:1;stroke-opacity:0.3" />
<line x1="406" y1="163" x2="585" y2="163" stroke="pink" stroke-width="1" />
<rect x="585" y="161" width="26" height="5" style="fill:#5d3c2d;stroke:black;stroke-width:1;fill-opacity:1;stroke-opacity:0.3" />
<line x1="612" y1="163" x2="719" y2="163" stroke="pink" stroke-width="1" />
<rect x="719" y="161" width="7" height="5" style="fill:#5d3c2d;stroke:black;stroke-width:1;fill-opacity:1;stroke-opacity:0.3" />
<line x1="191" y1="44" x2="195" y2="46" stroke="black" stroke-width="1" />
<line x1="195" y1="46" x2="200" y2="44" stroke="black" stroke-width="1" />
<rect x="151" y="42" width="40" height="5" style="fill:#5d3c2d;stroke:black;stroke-width:1;fill-opacity:1;stroke-opacity:0.3" />
<rect x="200" y="42" width="12" height="5" style="fill:#5d3c2d;stroke:black;stroke-width:1;fill-opacity:1;stroke-opacity:0.3" />
<line x1="212" y1="44" x2="364" y2="44" stroke="pink" stroke-width="1" />
<rect x="364" y="42" width="28" height="5" style="fill:#5d3c2d;stroke:black;stroke-width:1;fill-opacity:1;stroke-opacity:0.3" />
<line x1="191" y1="65" x2="193" y2="67" stroke="black" stroke-width="1" />
<line x1="193" y1="67" x2="195" y2="65" stroke="black" stroke-width="1" />
<rect x="151" y="63" width="40" height="5" style="fill:#5d3c2d;stroke:black;stroke-width:1;fill-opacity:1;stroke-opacity:0.3" />
<rect x="195" y="63" width="17" height="5" style="fill:#5d3c2d;stroke:black;stroke-width:1;fill-opacity:1;stroke-opacity:0.3" />
<line x1="212" y1="65" x2="364" y2="65" stroke="pink" stroke-width="1" />
<rect x="364" y="63" width="23" height="5" style="fill:#5d3c2d;stroke:black;stroke-width:1;fill-opacity:1;stroke-opacity:0.3" />
<line x1="403" y1="30" x2="500" y2="32" stroke="black" stroke-width="1" />
<line x1="500" y1="32" x2="597" y2="30" stroke="black" stroke-width="1" />
<rect x="210" y="28" width="2" height="5" style="fill:#5d3c2d;stroke:black;stroke-width:1;fill-opacity:1;stroke-opacity:0.3" />
<line x1="212" y1="30" x2="364" y2="30" stroke="pink" stroke-width="1" />
<rect x="364" y="28" width="38" height="5" style="fill:#5d3c2d;stroke:black;stroke-width:1;fill-opacity:1;stroke-opacity:0.3" />
<rect x="597" y="28" width="14" height="5" style="fill:#5d3c2d;stroke:black;stroke-width:1;fill-opacity:1;stroke-opacity:0.3" />
<line x1="612" y1="30" x2="719" y2="30" stroke="pink" stroke-width="1" />
<rect x="719" y="28" width="26" height="5" style="fill:#5d3c2d;stroke:black;stroke-width:1;fill-opacity:1;stroke-opacity:0.3" />
<line x1="403" y1="37" x2="500" y2="39" stroke="black" stroke-width="1" />
<line x1="500" y1="39" x2="597" y2="37" stroke="black" stroke-width="1" />
<rect x="210" y="35" width="2" height="5" style="fill:#5d3c2d;stroke:black;stroke-width:1;fill-opacity:1;stroke-opacity:0.3" />
<line x1="212" y1="37" x2="364" y2="37" stroke="pink" stroke-width="1" />
<rect x="364" y="35" width="38" height="5" style="fill:#5d3c2d;stroke:black;stroke-width:1;fill-opacity:1;stroke-opacity:0.3" />
<rect x="597" y="35" width="14" height="5" style="fill:#5d3c2d;stroke:black;stroke-width:1;fill-opacity:1;stroke-opacity:0.3" />
<line x1="612" y1="37" x2="719" y2="37" stroke="pink" stroke-width="1" />
<rect x="719" y="35" width="26" height="5" style="fill:#5d3c2d;stroke:black;stroke-width:1;fill-opacity:1;stroke-opacity:0.3" />
<line x1="403" y1="79" x2="500" y2="81" stroke="black" stroke-width="1" />
<line x1="500" y1="81" x2="597" y2="79" stroke="black" stroke-width="1" />
<rect x="210" y="77" width="2" height="5" style="fill:#5d3c2d;stroke:black;stroke-width:1;fill-opacity:1;stroke-opacity:0.3" />
<line x1="212" y1="79" x2="364" y2="79" stroke="pink" stroke-width="1" />
<rect x="364" y="77" width="38" height="5" style="fill:#5d3c2d;stroke:black;stroke-width:1;fill-opacity:1;stroke-opacity:0.3" />
<rect x="597" y="77" width="14" height="5" style="fill:#5d3c2d;stroke:black;stroke-width:1;fill-opacity:1;stroke-opacity:0.3" />
<line x1="612" y1="79" x2="719" y2="79" stroke="pink" stroke-width="1" />
<rect x="719" y="77" width="26" height="5" style="fill:#5d3c2d;stroke:black;stroke-width:1;fill-opacity:1;stroke-opacity:0.3" />
<line x1="259" y1="156" x2="261" y2="158" stroke="black" stroke-width="1" />
<line x1="261" y1="158" x2="264" y2="156" stroke="black" stroke-width="1" />
<rect x="219" y="154" width="40" height="5" style="fill:#5d3c2d;stroke:black;stroke-width:1;fill-opacity:1;stroke-opacity:0.3" />
<rect x="264" y="154" width="40" height="5" style="fill:#5d3c2d;stroke:black;stroke-width:1;fill-opacity:1;stroke-opacity:0.3" />
<line x1="346" y1="156" x2="356" y2="158" stroke="black" stroke-width="1" />
<line x1="356" y1="158" x2="366" y2="156" stroke="black" stroke-width="1" />
<rect x="305" y="154" width="40" height="5" style="fill:#5d3c2d;stroke:black;stroke-width:1;fill-opacity:1;stroke-opacity:0.3" />
<rect x="366" y="154" width="39" height="5" style="fill:#5d3c2d;stroke:black;stroke-width:1;fill-opacity:1;stroke-opacity:0.3" />
<line x1="406" y1="156" x2="585" y2="156" stroke="pink" stroke-width="1" />
<rect x="585" y="154" width="0" height="5" style="fill:#5d3c2d;stroke:black;stroke-width:1;fill-opacity:1;stroke-opacity:0.3" />
<line x1="594" y1="114" x2="665" y2="116" stroke="black" stroke-width="1" />
<line x1="665" y1="116" x2="737" y2="114" stroke="black" stroke-width="1" />
<rect x="375" y="112" width="31" height="5" style="fill:#5d3c2d;stroke:black;stroke-width:1;fill-opacity:1;stroke-opacity:0.3" />
<line x1="406" y1="114" x2="585" y2="114" stroke="pink" stroke-width="1" />
<rect x="585" y="112" width="9" height="5" style="fill:#5d3c2d;stroke:black;stroke-width:1;fill-opacity:1;stroke-opacity:0.3" />
<rect x="737" y="112" width="40" height="5" style="fill:#5d3c2d;stroke:black;stroke-width:1;fill-opacity:1;stroke-opacity:0.3" />
<line x1="595" y1="121" x2="598" y2="123" stroke="black" stroke-width="1" />
<line x1="598" y1="123" x2="601" y2="121" stroke="black" stroke-width="1" />
<rect x="376" y="119" width="30" height="5" style="fill:#5d3c2d;stroke:black;stroke-width:1;fill-opacity:1;stroke-opacity:0.3" />
<line x1="406" y1="121" x2="585" y2="121" stroke="pink" stroke-width="1" />
<rect x="585" y="119" width="10" height="5" style="fill:#5d3c2d;stroke:black;stroke-width:1;fill-opacity:1;stroke-opacity:0.3" />
<rect x="601" y="119" width="10" height="5" style="fill:#5d3c2d;stroke:black;stroke-width:1;fill-opacity:1;stroke-opacity:0.3" />
<line x1="612" y1="121" x2="719" y2="121" stroke="pink" stroke-width="1" />
<rect x="719" y="119" width="29" height="5" style="fill:#5d3c2d;stroke:black;stroke-width:1;fill-opacity:1;stroke-opacity:0.3" />
<line x1="599" y1="86" x2="661" y2="88" stroke="black" stroke-width="1" />
<line x1="661" y1="88" x2="724" y2="86" stroke="black" stroke-width="1" />
<rect x="379" y="84" width="26" height="5" style="fill:#5d3c2d;stroke:black;stroke-width:1;fill-opacity:1;stroke-opacity:0.3" />
<line x1="406" y1="86" x2="585" y2="86" stroke="pink" stroke-width="1" />
<rect x="585" y="84" width="13" height="5" style="fill:#5d3c2d;stroke:black;stroke-width:1;fill-opacity:1;stroke-opacity:0.3" />
<rect x="724" y="84" width="39" height="5" style="fill:#5d3c2d;stroke:black;stroke-width:1;fill-opacity:1;stroke-opacity:0.3" />
<line x1="604" y1="128" x2="606" y2="130" stroke="black" stroke-width="1" />
<line x1="606" y1="130" x2="608" y2="128" stroke="black" stroke-width="1" />
<rect x="385" y="126" width="21" height="5" style="fill:#5d3c2d;stroke:black;stroke-width:1;fill-opacity:1;stroke-opacity:0.3" />
<line x1="406" y1="128" x2="585" y2="128" stroke="pink" stroke-width="1" />
<rect x="585" y="126" width="19" height="5" style="fill:#5d3c2d;stroke:black;stroke-width:1;fill-opacity:1;stroke-opacity:0.3" />
<rect x="608" y="126" width="3" height="5" style="fill:#5d3c2d;stroke:black;stroke-width:1;fill-opacity:1;stroke-opacity:0.3" />
<line x1="612" y1="128" x2="719" y2="128" stroke="pink" stroke-width="1" />
<rect x="719" y="126" width="36" height="5" style="fill:#5d3c2d;stroke:black;stroke-width:1;fill-opacity:1;stroke-opacity:0.3" />
<line x1="733" y1="58" x2="735" y2="60" stroke="black" stroke-width="1" />
<line x1="735" y1="60" x2="737" y2="58" stroke="black" stroke-width="1" />
<rect x="386" y="56" width="20" height="5" style="fill:#5d3c2d;stroke:black;stroke-width:1;fill-opacity:1;stroke-opacity:0.3" />
<line x1="406" y1="58" x2="585" y2="58" stroke="pink" stroke-width="1" />
<rect x="585" y="56" width="26" height="5" style="fill:#5d3c2d;stroke:black;stroke-width:1;fill-opacity:1;stroke-opacity:0.3" />
<line x1="612" y1="58" x2="719" y2="58" stroke="pink" stroke-width="1" />
<rect x="719" y="56" width="13" height="5" style="fill:#5d3c2d;stroke:black;stroke-width:1;fill-opacity:1;stroke-opacity:0.3" />
<rect x="737" y="56" width="61" height="5" style="fill:#5d3c2d;stroke:black;stroke-width:1;fill-opacity:1;stroke-opacity:0.3" />
<line x1="606" y1="135" x2="683" y2="137" stroke="black" stroke-width="1" />
<line x1="683" y1="137" x2="760" y2="135" stroke="black" stroke-width="1" />
<rect x="386" y="133" width="19" height="5" style="fill:#5d3c2d;stroke:black;stroke-width:1;fill-opacity:1;stroke-opacity:0.3" />
<line x1="406" y1="135" x2="585" y2="135" stroke="pink" stroke-width="1" />
<rect x="585" y="133" width="20" height="5" style="fill:#5d3c2d;stroke:black;stroke-width:1;fill-opacity:1;stroke-opacity:0.3" />
<rect x="760" y="133" width="40" height="5" style="fill:#5d3c2d;stroke:black;stroke-width:1;fill-opacity:1;stroke-opacity:0.3" />
<line x1="607" y1="65" x2="669" y2="67" stroke="black" stroke-width="1" />
<line x1="669" y1="67" x2="731" y2="65" stroke="black" stroke-width="1" />
<rect x="388" y="63" width="18" height="5" style="fill:#5d3c2d;stroke:black;stroke-width:1;fill-opacity:1;stroke-opacity:0.3" />
<line x1="406" y1="65" x2="585" y2="65" stroke="pink" stroke-width="1" />
<rect x="585" y="63" width="22" height="5" style="fill:#5d3c2d;stroke:black;stroke-width:1;fill-opacity:1;stroke-opacity:0.3" />
<rect x="731" y="63" width="40" height="5" style="fill:#5d3c2d;stroke:black;stroke-width:1;fill-opacity:1;stroke-opacity:0.3" />
<line x1="609" y1="107" x2="665" y2="109" stroke="black" stroke-width="1" />
<line x1="665" y1="109" x2="721" y2="107" stroke="black" stroke-width="1" />
<rect x="389" y="105" width="17" height="5" style="fill:#5d3c2d;stroke:black;stroke-width:1;fill-opacity:1;stroke-opacity:0.3" />
<line x1="406" y1="107" x2="585" y2="107" stroke="pink" stroke-width="1" />
<rect x="585" y="105" width="23" height="5" style="fill:#5d3c2d;stroke:black;stroke-width:1;fill-opacity:1;stroke-opacity:0.3" />
<rect x="721" y="105" width="40" height="5" style="fill:#5d3c2d;stroke:black;stroke-width:1;fill-opacity:1;stroke-opacity:0.3" />
<line x1="609" y1="142" x2="670" y2="144" stroke="black" stroke-width="1" />
<line x1="670" y1="144" x2="731" y2="142" stroke="black" stroke-width="1" />
<rect x="389" y="140" width="16" height="5" style="fill:#5d3c2d;stroke:black;stroke-width:1;fill-opacity:1;stroke-opacity:0.3" />
<line x1="406" y1="142" x2="585" y2="142" stroke="pink" stroke-width="1" />
<rect x="585" y="140" width="24" height="5" style="fill:#5d3c2d;stroke:black;stroke-width:1;fill-opacity:1;stroke-opacity:0.3" />
<rect x="731" y="140" width="40" height="5" style="fill:#5d3c2d;stroke:black;stroke-width:1;fill-opacity:1;stroke-opacity:0.3" />
<line x1="612" y1="72" x2="676" y2="74" stroke="black" stroke-width="1" />
<line x1="676" y1="74" x2="741" y2="72" stroke="black" stroke-width="1" />
<rect x="392" y="70" width="14" height="5" style="fill:#5d3c2d;stroke:black;stroke-width:1;fill-opacity:1;stroke-opacity:0.3" />
<line x1="406" y1="72" x2="585" y2="72" stroke="pink" stroke-width="1" />
<rect x="585" y="70" width="26" height="5" style="fill:#5d3c2d;stroke:black;stroke-width:1;fill-opacity:1;stroke-opacity:0.3" />
<rect x="741" y="70" width="40" height="5" style="fill:#5d3c2d;stroke:black;stroke-width:1;fill-opacity:1;stroke-opacity:0.3" />
<line x1="720" y1="44" x2="728" y2="46" stroke="black" stroke-width="1" />
<line x1="728" y1="46" x2="737" y2="44" stroke="black" stroke-width="1" />
<rect x="393" y="42" width="13" height="5" style="fill:#5d3c2d;stroke:black;stroke-width:1;fill-opacity:1;stroke-opacity:0.3" />
<line x1="406" y1="44" x2="585" y2="44" stroke="pink" stroke-width="1" />
<rect x="585" y="42" width="26" height="5" style="fill:#5d3c2d;stroke:black;stroke-width:1;fill-opacity:1;stroke-opacity:0.3" />
<line x1="612" y1="44" x2="719" y2="44" stroke="pink" stroke-width="1" />
<rect x="719" y="42" width="0" height="5" style="fill:#5d3c2d;stroke:black;stroke-width:1;fill-opacity:1;stroke-opacity:0.3" />
<rect x="737" y="42" width="39" height="5" style="fill:#5d3c2d;stroke:black;stroke-width:1;fill-opacity:1;stroke-opacity:0.3" />
<line x1="726" y1="51" x2="728" y2="53" stroke="black" stroke-width="1" />
<line x1="728" y1="53" x2="731" y2="51" stroke="black" stroke-width="1" />
<rect x="400" y="49" width="6" height="5" style="fill:#5d3c2d;stroke:black;stroke-width:1;fill-opacity:1;stroke-opacity:0.3" />
<line x1="406" y1="51" x2="585" y2="51" stroke="pink" stroke-width="1" />
<rect x="585" y="49" width="26" height="5" style="fill:#5d3c2d;stroke:black;stroke-width:1;fill-opacity:1;stroke-opacity:0.3" />
<line x1="612" y1="51" x2="719" y2="51" stroke="pink" stroke-width="1" />
<rect x="719" y="49" width="7" height="5" style="fill:#5d3c2d;stroke:black;stroke-width:1;fill-opacity:1;stroke-opacity:0.3" />
<rect x="731" y="49" width="40" height="5" style="fill:#5d3c2d;stroke:black;stroke-width:1;fill-opacity:1;stroke-opacity:0.3" />
<line x1="734" y1="93" x2="760" y2="95" stroke="black" stroke-width="1" />
<line x1="760" y1="95" x2="787" y2="93" stroke="black" stroke-width="1" />
<rect x="586" y="91" width="26" height="5" style="fill:#5d3c2d;stroke:black;stroke-width:1;fill-opacity:1;stroke-opacity:0.3" />
<line x1="612" y1="93" x2="719" y2="93" stroke="pink" stroke-width="1" />
<rect x="719" y="91" width="14" height="5" style="fill:#5d3c2d;stroke:black;stroke-width:1;fill-opacity:1;stroke-opacity:0.3" />
<rect x="787" y="91" width="40" height="5" style="fill:#5d3c2d;stroke:black;stroke-width:1;fill-opacity:1;stroke-opacity:0.3" />
<line x1="734" y1="156" x2="748" y2="158" stroke="black" stroke-width="1" />
<line x1="748" y1="158" x2="763" y2="156" stroke="black" stroke-width="1" />
<rect x="586" y="154" width="26" height="5" style="fill:#5d3c2d;stroke:black;stroke-width:1;fill-opacity:1;stroke-opacity:0.3" />
<line x1="612" y1="156" x2="719" y2="156" stroke="pink" stroke-width="1" />
<rect x="719" y="154" width="14" height="5" style="fill:#5d3c2d;stroke:black;stroke-width:1;fill-opacity:1;stroke-opacity:0.3" />
<rect x="763" y="154" width="40" height="5" style="fill:#5d3c2d;stroke:black;stroke-width:1;fill-opacity:1;stroke-opacity:0.3" />
<line x1="740" y1="149" x2="745" y2="151" stroke="black" stroke-width="1" />
<line x1="745" y1="151" x2="751" y2="149" stroke="black" stroke-width="1" />
<rect x="592" y="147" width="19" height="5" style="fill:#5d3c2d;stroke:black;stroke-width:1;fill-opacity:1;stroke-opacity:0.3" />
<line x1="612" y1="149" x2="719" y2="149" stroke="pink" stroke-width="1" />
<rect x="719" y="147" width="21" height="5" style="fill:#5d3c2d;stroke:black;stroke-width:1;fill-opacity:1;stroke-opacity:0.3" />
<rect x="751" y="147" width="39" height="5" style="fill:#5d3c2d;stroke:black;stroke-width:1;fill-opacity:1;stroke-opacity:0.3" />
<line x1="741" y1="100" x2="750" y2="102" stroke="black" stroke-width="1" />
<line x1="750" y1="102" x2="759" y2="100" stroke="black" stroke-width="1" />
<rect x="593" y="98" width="18" height="5" style="fill:#f5b024;stroke:black;stroke-width:1;fill-opacity:1;stroke-opacity:0.3" />
<line x1="612" y1="100" x2="719" y2="100" stroke="pink" stroke-width="1" />
<rect x="719" y="98" width="22" height="5" style="fill:#f5b024;stroke:black;stroke-width:1;fill-opacity:1;stroke-opacity:0.3" />
<rect x="759" y="98" width="40" height="5" style="fill:#f5b024;stroke:black;stroke-width:1;fill-opacity:1;stroke-opacity:0.3" />
<line x1="767" y1="163" x2="787" y2="165" stroke="black" stroke-width="1" />
<line x1="787" y1="165" x2="808" y2="163" stroke="black" stroke-width="1" />
<rect x="726" y="161" width="40" height="5" style="fill:#5d3c2d;stroke:black;stroke-width:1;fill-opacity:1;stroke-opacity:0.3" />
<rect x="808" y="161" width="40" height="5" style="fill:#5d3c2d;stroke:black;stroke-width:1;fill-opacity:1;stroke-opacity:0.3" />
<line x1="786" y1="30" x2="813" y2="32" stroke="black" stroke-width="1" />
<line x1="813" y1="32" x2="840" y2="30" stroke="black" stroke-width="1" />
<rect x="746" y="28" width="40" height="5" style="fill:#5d3c2d;stroke:black;stroke-width:1;fill-opacity:1;stroke-opacity:0.3" />
<rect x="840" y="28" width="40" height="5" style="fill:#5d3c2d;stroke:black;stroke-width:1;fill-opacity:1;stroke-opacity:0.3" />
<line x1="786" y1="37" x2="810" y2="39" stroke="black" stroke-width="1" />
<line x1="810" y1="39" x2="834" y2="37" stroke="black" stroke-width="1" />
<rect x="746" y="35" width="40" height="5" style="fill:#5d3c2d;stroke:black;stroke-width:1;fill-opacity:1;stroke-opacity:0.3" />
<rect x="834" y="35" width="40" height="5" style="fill:#5d3c2d;stroke:black;stroke-width:1;fill-opacity:1;stroke-opacity:0.3" />
<line x1="786" y1="79" x2="797" y2="81" stroke="black" stroke-width="1" />
<line x1="797" y1="81" x2="809" y2="79" stroke="black" stroke-width="1" />
<rect x="746" y="77" width="40" height="5" style="fill:#5d3c2d;stroke:black;stroke-width:1;fill-opacity:1;stroke-opacity:0.3" />
<rect x="809" y="77" width="39" height="5" style="fill:#5d3c2d;stroke:black;stroke-width:1;fill-opacity:1;stroke-opacity:0.3" />
<line x1="792" y1="121" x2="800" y2="123" stroke="black" stroke-width="1" />
<line x1="800" y1="123" x2="809" y2="121" stroke="black" stroke-width="1" />
<rect x="752" y="119" width="40" height="5" style="fill:#5d3c2d;stroke:black;stroke-width:1;fill-opacity:1;stroke-opacity:0.3" />
<rect x="809" y="119" width="40" height="5" style="fill:#5d3c2d;stroke:black;stroke-width:1;fill-opacity:1;stroke-opacity:0.3" />
<line x1="797" y1="128" x2="806" y2="130" stroke="black" stroke-width="1" />
<line x1="806" y1="130" x2="816" y2="128" stroke="black" stroke-width="1" />
<rect x="756" y="126" width="40" height="5" style="fill:#5d3c2d;stroke:black;stroke-width:1;fill-opacity:1;stroke-opacity:0.3" />
<rect x="816" y="126" width="40" height="5" style="fill:#5d3c2d;stroke:black;stroke-width:1;fill-opacity:1;stroke-opacity:0.3" />
<line x1="802" y1="107" x2="810" y2="109" stroke="black" stroke-width="1" />
<line x1="810" y1="109" x2="818" y2="107" stroke="black" stroke-width="1" />
<rect x="762" y="105" width="40" height="5" style="fill:#5d3c2d;stroke:black;stroke-width:1;fill-opacity:1;stroke-opacity:0.3" />
<rect x="818" y="105" width="40" height="5" style="fill:#5d3c2d;stroke:black;stroke-width:1;fill-opacity:1;stroke-opacity:0.3" />
<line x1="805" y1="86" x2="807" y2="88" stroke="black" stroke-width="1" />
<line x1="807" y1="88" x2="810" y2="86" stroke="black" stroke-width="1" />
<rect x="764" y="84" width="40" height="5" style="fill:#5d3c2d;stroke:black;stroke-width:1;fill-opacity:1;stroke-opacity:0.3" />
<rect x="810" y="84" width="39" height="5" style="fill:#5d3c2d;stroke:black;stroke-width:1;fill-opacity:1;stroke-opacity:0.3" />
<line x1="813" y1="51" x2="836" y2="53" stroke="black" stroke-width="1" />
<line x1="836" y1="53" x2="860" y2="51" stroke="black" stroke-width="1" />
<rect x="773" y="49" width="40" height="5" style="fill:#5d3c2d;stroke:black;stroke-width:1;fill-opacity:1;stroke-opacity:0.3" />
<rect x="860" y="49" width="40" height="5" style="fill:#5d3c2d;stroke:black;stroke-width:1;fill-opacity:1;stroke-opacity:0.3" />
<line x1="814" y1="65" x2="816" y2="67" stroke="black" stroke-width="1" />
<line x1="816" y1="67" x2="819" y2="65" stroke="black" stroke-width="1" />
<rect x="773" y="63" width="40" height="5" style="fill:#5d3c2d;stroke:black;stroke-width:1;fill-opacity:1;stroke-opacity:0.3" />
<rect x="819" y="63" width="40" height="5" style="fill:#5d3c2d;stroke:black;stroke-width:1;fill-opacity:1;stroke-opacity:0.3" />
<line x1="834" y1="142" x2="837" y2="144" stroke="black" stroke-width="1" />
<line x1="837" y1="144" x2="840" y2="142" stroke="black" stroke-width="1" />
<rect x="773" y="140" width="61" height="5" style="fill:#5d3c2d;stroke:black;stroke-width:1;fill-opacity:1;stroke-opacity:0.3" />
<rect x="840" y="140" width="60" height="5" style="fill:#5d3c2d;stroke:black;stroke-width:1;fill-opacity:1;stroke-opacity:0.3" />
<line x1="817" y1="44" x2="825" y2="46" stroke="black" stroke-width="1" />
<line x1="825" y1="46" x2="833" y2="44" stroke="black" stroke-width="1" />
<rect x="776" y="42" width="40" height="5" style="fill:#5d3c2d;stroke:black;stroke-width:1;fill-opacity:1;stroke-opacity:0.3" />
<rect x="833" y="42" width="40" height="5" style="fill:#5d3c2d;stroke:black;stroke-width:1;fill-opacity:1;stroke-opacity:0.3" />
<line x1="819" y1="114" x2="828" y2="116" stroke="black" stroke-width="1" />
<line x1="828" y1="116" x2="837" y2="114" stroke="black" stroke-width="1" />
<rect x="779" y="112" width="40" height="5" style="fill:#5d3c2d;stroke:black;stroke-width:1;fill-opacity:1;stroke-opacity:0.3" />
<rect x="837" y="112" width="40" height="5" style="fill:#5d3c2d;stroke:black;stroke-width:1;fill-opacity:1;stroke-opacity:0.3" />
<line x1="822" y1="72" x2="829" y2="74" stroke="black" stroke-width="1" />
<line x1="829" y1="74" x2="837" y2="72" stroke="black" stroke-width="1" />
<rect x="781" y="70" width="40" height="5" style="fill:#5d3c2d;stroke:black;stroke-width:1;fill-opacity:1;stroke-opacity:0.3" />
<rect x="837" y="70" width="35" height="5" style="fill:#5d3c2d;stroke:black;stroke-width:1;fill-opacity:1;stroke-opacity:0.3" />
<line x1="831" y1="149" x2="838" y2="151" stroke="black" stroke-width="1" />
<line x1="838" y1="151" x2="845" y2="149" stroke="black" stroke-width="1" />
<rect x="790" y="147" width="40" height="5" style="fill:#5d3c2d;stroke:black;stroke-width:1;fill-opacity:1;stroke-opacity:0.3" />
<rect x="845" y="147" width="40" height="5" style="fill:#5d3c2d;stroke:black;stroke-width:1;fill-opacity:1;stroke-opacity:0.3" />
<line x1="831" y1="58" x2="870" y2="60" stroke="black" stroke-width="1" />
<line x1="870" y1="60" x2="909" y2="58" stroke="black" stroke-width="1" />
<rect x="798" y="56" width="33" height="5" style="fill:#f5b024;stroke:black;stroke-width:1;fill-opacity:1;stroke-opacity:0.3" />
<rect x="909" y="56" width="40" height="5" style="fill:#f5b024;stroke:black;stroke-width:1;fill-opacity:1;stroke-opacity:0.3" />
<line x1="840" y1="100" x2="855" y2="102" stroke="black" stroke-width="1" />
<line x1="855" y1="102" x2="870" y2="100" stroke="black" stroke-width="1" />
<rect x="799" y="98" width="40" height="5" style="fill:#5d3c2d;stroke:black;stroke-width:1;fill-opacity:1;stroke-opacity:0.3" />
<rect x="870" y="98" width="40" height="5" style="fill:#5d3c2d;stroke:black;stroke-width:1;fill-opacity:1;stroke-opacity:0.3" />
<line x1="841" y1="135" x2="844" y2="137" stroke="black" stroke-width="1" />
<line x1="844" y1="137" x2="847" y2="135" stroke="black" stroke-width="1" />
<rect x="800" y="133" width="40" height="5" style="fill:#5d3c2d;stroke:black;stroke-width:1;fill-opacity:1;stroke-opacity:0.3" />
<rect x="847" y="133" width="40" height="5" style="fill:#5d3c2d;stroke:black;stroke-width:1;fill-opacity:1;stroke-opacity:0.3" />
<line x1="845" y1="156" x2="857" y2="158" stroke="black" stroke-width="1" />
<line x1="857" y1="158" x2="870" y2="156" stroke="black" stroke-width="1" />
<rect x="804" y="154" width="40" height="5" style="fill:#5d3c2d;stroke:black;stroke-width:1;fill-opacity:1;stroke-opacity:0.3" />
<rect x="870" y="154" width="40" height="5" style="fill:#5d3c2d;stroke:black;stroke-width:1;fill-opacity:1;stroke-opacity:0.3" />
<line x1="869" y1="93" x2="884" y2="95" stroke="black" stroke-width="1" />
<line x1="884" y1="95" x2="899" y2="93" stroke="black" stroke-width="1" />
<rect x="828" y="91" width="40" height="5" style="fill:#5d3c2d;stroke:black;stroke-width:1;fill-opacity:1;stroke-opacity:0.3" />
<rect x="899" y="91" width="40" height="5" style="fill:#5d3c2d;stroke:black;stroke-width:1;fill-opacity:1;stroke-opacity:0.3" />
<line x1="888" y1="79" x2="893" y2="81" stroke="black" stroke-width="1" />
<line x1="893" y1="81" x2="899" y2="79" stroke="black" stroke-width="1" />
<rect x="849" y="77" width="39" height="5" style="fill:#5d3c2d;stroke:black;stroke-width:1;fill-opacity:1;stroke-opacity:0.3" />
<rect x="899" y="77" width="40" height="5" style="fill:#5d3c2d;stroke:black;stroke-width:1;fill-opacity:1;stroke-opacity:0.3" />
<line x1="891" y1="86" x2="895" y2="88" stroke="black" stroke-width="1" />
<line x1="895" y1="88" x2="899" y2="86" stroke="black" stroke-width="1" />
<rect x="850" y="84" width="40" height="5" style="fill:#5d3c2d;stroke:black;stroke-width:1;fill-opacity:1;stroke-opacity:0.3" />
<rect x="899" y="84" width="40" height="5" style="fill:#5d3c2d;stroke:black;stroke-width:1;fill-opacity:1;stroke-opacity:0.3" />
<line x1="891" y1="121" x2="895" y2="123" stroke="black" stroke-width="1" />
<line x1="895" y1="123" x2="899" y2="121" stroke="black" stroke-width="1" />
<rect x="850" y="119" width="40" height="5" style="fill:#f5b024;stroke:black;stroke-width:1;fill-opacity:1;stroke-opacity:0.3" />
<rect x="899" y="119" width="40" height="5" style="fill:#f5b024;stroke:black;stroke-width:1;fill-opacity:1;stroke-opacity:0.3" />
<line x1="891" y1="163" x2="895" y2="165" stroke="black" stroke-width="1" />
<line x1="895" y1="165" x2="899" y2="163" stroke="black" stroke-width="1" />
<rect x="850" y="161" width="40" height="5" style="fill:#5d3c2d;stroke:black;stroke-width:1;fill-opacity:1;stroke-opacity:0.3" />
<rect x="899" y="161" width="40" height="5" style="fill:#5d3c2d;stroke:black;stroke-width:1;fill-opacity:1;stroke-opacity:0.3" />
<line x1="898" y1="128" x2="904" y2="130" stroke="black" stroke-width="1" />
<line x1="904" y1="130" x2="911" y2="128" stroke="black" stroke-width="1" />
<rect x="857" y="126" width="40" height="5" style="fill:#5d3c2d;stroke:black;stroke-width:1;fill-opacity:1;stroke-opacity:0.3" />
<rect x="911" y="126" width="40" height="5" style="fill:#5d3c2d;stroke:black;stroke-width:1;fill-opacity:1;stroke-opacity:0.3" />
<line x1="900" y1="65" x2="905" y2="67" stroke="black" stroke-width="1" />
<line x1="905" y1="67" x2="911" y2="65" stroke="black" stroke-width="1" />
<rect x="860" y="63" width="40" height="5" style="fill:#5d3c2d;stroke:black;stroke-width:1;fill-opacity:1;stroke-opacity:0.3" />
<rect x="911" y="63" width="40" height="5" style="fill:#5d3c2d;stroke:black;stroke-width:1;fill-opacity:1;stroke-opacity:0.3" />
<line x1="901" y1="107" x2="905" y2="109" stroke="black" stroke-width="1" />
<line x1="905" y1="109" x2="910" y2="107" stroke="black" stroke-width="1" />
<rect x="861" y="105" width="40" height="5" style="fill:#5d3c2d;stroke:black;stroke-width:1;fill-opacity:1;stroke-opacity:0.3" />
<rect x="910" y="105" width="40" height="5" style="fill:#5d3c2d;stroke:black;stroke-width:1;fill-opacity:1;stroke-opacity:0.3" />
<line x1="913" y1="72" x2="916" y2="74" stroke="black" stroke-width="1" />
<line x1="916" y1="74" x2="919" y2="72" stroke="black" stroke-width="1" />
<rect x="872" y="70" width="40" height="5" style="fill:#f5b024;stroke:black;stroke-width:1;fill-opacity:1;stroke-opacity:0.3" />
<rect x="919" y="70" width="40" height="5" style="fill:#f5b024;stroke:black;stroke-width:1;fill-opacity:1;stroke-opacity:0.3" />
<line x1="915" y1="44" x2="917" y2="46" stroke="black" stroke-width="1" />
<line x1="917" y1="46" x2="919" y2="44" stroke="black" stroke-width="1" />
<rect x="874" y="42" width="40" height="5" style="fill:#5d3c2d;stroke:black;stroke-width:1;fill-opacity:1;stroke-opacity:0.3" />
<rect x="919" y="42" width="40" height="5" style="fill:#5d3c2d;stroke:black;stroke-width:1;fill-opacity:1;stroke-opacity:0.3" />
<line x1="916" y1="37" x2="926" y2="39" stroke="black" stroke-width="1" />
<line x1="926" y1="39" x2="936" y2="37" stroke="black" stroke-width="1" />
<rect x="875" y="35" width="40" height="5" style="fill:#5d3c2d;stroke:black;stroke-width:1;fill-opacity:1;stroke-opacity:0.3" />
<rect x="936" y="35" width="40" height="5" style="fill:#5d3c2d;stroke:black;stroke-width:1;fill-opacity:1;stroke-opacity:0.3" />
<line x1="918" y1="114" x2="920" y2="116" stroke="black" stroke-width="1" />
<line x1="920" y1="116" x2="922" y2="114" stroke="black" stroke-width="1" />
<rect x="877" y="112" width="40" height="5" style="fill:#5d3c2d;stroke:black;stroke-width:1;fill-opacity:1;stroke-opacity:0.3" />
<rect x="922" y="112" width="37" height="5" style="fill:#5d3c2d;stroke:black;stroke-width:1;fill-opacity:1;stroke-opacity:0.3" />
<line x1="924" y1="30" x2="927" y2="32" stroke="black" stroke-width="1" />
<line x1="927" y1="32" x2="931" y2="30" stroke="black" stroke-width="1" />
<rect x="883" y="28" width="40" height="5" style="fill:#5d3c2d;stroke:black;stroke-width:1;fill-opacity:1;stroke-opacity:0.3" />
<rect x="931" y="28" width="40" height="5" style="fill:#5d3c2d;stroke:black;stroke-width:1;fill-opacity:1;stroke-opacity:0.3" />
<line x1="935" y1="135" x2="940" y2="137" stroke="black" stroke-width="1" />
<line x1="940" y1="137" x2="945" y2="135" stroke="black" stroke-width="1" />
<rect x="894" y="133" width="40" height="5" style="fill:#5d3c2d;stroke:black;stroke-width:1;fill-opacity:1;stroke-opacity:0.3" />
<rect x="945" y="133" width="40" height="5" style="fill:#5d3c2d;stroke:black;stroke-width:1;fill-opacity:1;stroke-opacity:0.3" />
<text x="15"  y="176" style="font-family:Arial;font-size:10;stroke:black;fill:black;">all.merged.bam</text>
</svg>
    
