<?xml version="1.0" encoding="utf-8" standalone="no"?>
<!DOCTYPE svg PUBLIC "-//W3C//DTD SVG 1.1//EN"
  "http://www.w3.org/Graphics/SVG/1.1/DTD/svg11.dtd">
<svg height="1140" width="1000" version="1.1" viewBox="0 0 1000 1140" xmlns="http://www.w3.org/2000/svg" xmlns:xlink="http://www.w3.org/1999/xlink">
<line x1="31" y1="11" x2="968" y2="11" stroke="black" stroke-width="1" />
<rect x="31" y="9" width="9" height="5" style="fill:#f50002;stroke:black;stroke-width:1;fill-opacity:1;stroke-opacity:0.3" />
<rect x="40" y="9" width="26" height="5" style="fill:#53a1b5;stroke:black;stroke-width:1;fill-opacity:1;stroke-opacity:0.3" />
<rect x="314" y="9" width="16" height="5" style="fill:#53a1b5;stroke:black;stroke-width:1;fill-opacity:1;stroke-opacity:0.3" />
<rect x="411" y="9" width="17" height="5" style="fill:#53a1b5;stroke:black;stroke-width:1;fill-opacity:1;stroke-opacity:0.3" />
<rect x="579" y="9" width="30" height="5" style="fill:#53a1b5;stroke:black;stroke-width:1;fill-opacity:1;stroke-opacity:0.3" />
<rect x="691" y="9" width="13" height="5" style="fill:#53a1b5;stroke:black;stroke-width:1;fill-opacity:1;stroke-opacity:0.3" />
<rect x="766" y="9" width="70" height="5" style="fill:#53a1b5;stroke:black;stroke-width:1;fill-opacity:1;stroke-opacity:0.3" />
<rect x="836" y="9" width="131" height="5" style="fill:#f50002;stroke:black;stroke-width:1;fill-opacity:1;stroke-opacity:0.3" />
<text x="31"  y="23" style="font-family:Arial;font-size:10;stroke:black;fill:black;">Cre01.g018600.t1.2.v5.5 (+) chromosome_1:3018856-3021856</text>
<line x1="53" y1="30" x2="232" y2="32" stroke="black" stroke-width="1" />
<line x1="232" y1="32" x2="412" y2="30" stroke="black" stroke-width="1" />
<rect x="22" y="28" width="31" height="5" style="fill:#5d3c2d;stroke:black;stroke-width:1;fill-opacity:1;stroke-opacity:0.3" />
<rect x="412" y="28" width="17" height="5" style="fill:#5d3c2d;stroke:black;stroke-width:1;fill-opacity:1;stroke-opacity:0.3" />
<line x1="429" y1="30" x2="579" y2="30" stroke="pink" stroke-width="1" />
<rect x="579" y="28" width="14" height="5" style="fill:#5d3c2d;stroke:black;stroke-width:1;fill-opacity:1;stroke-opacity:0.3" />
<line x1="54" y1="37" x2="237" y2="39" stroke="black" stroke-width="1" />
<line x1="237" y1="39" x2="420" y2="37" stroke="black" stroke-width="1" />
<rect x="23" y="35" width="31" height="5" style="fill:#5d3c2d;stroke:black;stroke-width:1;fill-opacity:1;stroke-opacity:0.3" />
<rect x="420" y="35" width="8" height="5" style="fill:#5d3c2d;stroke:black;stroke-width:1;fill-opacity:1;stroke-opacity:0.3" />
<line x1="429" y1="37" x2="579" y2="37" stroke="pink" stroke-width="1" />
<rect x="579" y="35" width="22" height="5" style="fill:#5d3c2d;stroke:black;stroke-width:1;fill-opacity:1;stroke-opacity:0.3" />
<line x1="54" y1="44" x2="183" y2="46" stroke="black" stroke-width="1" />
<line x1="183" y1="46" x2="313" y2="44" stroke="black" stroke-width="1" />
<rect x="23" y="42" width="30" height="5" style="fill:#5d3c2d;stroke:black;stroke-width:1;fill-opacity:1;stroke-opacity:0.3" />
<rect x="313" y="42" width="17" height="5" style="fill:#5d3c2d;stroke:black;stroke-width:1;fill-opacity:1;stroke-opacity:0.3" />
<line x1="331" y1="44" x2="411" y2="44" stroke="pink" stroke-width="1" />
<rect x="411" y="42" width="13" height="5" style="fill:#5d3c2d;stroke:black;stroke-width:1;fill-opacity:1;stroke-opacity:0.3" />
<line x1="54" y1="51" x2="60" y2="53" stroke="black" stroke-width="1" />
<line x1="60" y1="53" x2="66" y2="51" stroke="black" stroke-width="1" />
<rect x="23" y="49" width="31" height="5" style="fill:#5d3c2d;stroke:black;stroke-width:1;fill-opacity:1;stroke-opacity:0.3" />
<rect x="66" y="49" width="0" height="5" style="fill:#5d3c2d;stroke:black;stroke-width:1;fill-opacity:1;stroke-opacity:0.3" />
<line x1="67" y1="51" x2="314" y2="51" stroke="pink" stroke-width="1" />
<rect x="314" y="49" width="17" height="5" style="fill:#5d3c2d;stroke:black;stroke-width:1;fill-opacity:1;stroke-opacity:0.3" />
<line x1="331" y1="51" x2="411" y2="51" stroke="pink" stroke-width="1" />
<rect x="411" y="49" width="13" height="5" style="fill:#5d3c2d;stroke:black;stroke-width:1;fill-opacity:1;stroke-opacity:0.3" />
<line x1="54" y1="58" x2="189" y2="60" stroke="black" stroke-width="1" />
<line x1="189" y1="60" x2="324" y2="58" stroke="black" stroke-width="1" />
<rect x="23" y="56" width="31" height="5" style="fill:#5d3c2d;stroke:black;stroke-width:1;fill-opacity:1;stroke-opacity:0.3" />
<rect x="324" y="56" width="6" height="5" style="fill:#5d3c2d;stroke:black;stroke-width:1;fill-opacity:1;stroke-opacity:0.3" />
<line x1="331" y1="58" x2="411" y2="58" stroke="pink" stroke-width="1" />
<rect x="411" y="56" width="17" height="5" style="fill:#5d3c2d;stroke:black;stroke-width:1;fill-opacity:1;stroke-opacity:0.3" />
<line x1="429" y1="58" x2="579" y2="58" stroke="pink" stroke-width="1" />
<rect x="579" y="56" width="6" height="5" style="fill:#5d3c2d;stroke:black;stroke-width:1;fill-opacity:1;stroke-opacity:0.3" />
<line x1="54" y1="65" x2="234" y2="67" stroke="black" stroke-width="1" />
<line x1="234" y1="67" x2="415" y2="65" stroke="black" stroke-width="1" />
<rect x="23" y="63" width="31" height="5" style="fill:#5d3c2d;stroke:black;stroke-width:1;fill-opacity:1;stroke-opacity:0.3" />
<rect x="415" y="63" width="13" height="5" style="fill:#5d3c2d;stroke:black;stroke-width:1;fill-opacity:1;stroke-opacity:0.3" />
<line x1="429" y1="65" x2="579" y2="65" stroke="pink" stroke-width="1" />
<rect x="579" y="63" width="17" height="5" style="fill:#5d3c2d;stroke:black;stroke-width:1;fill-opacity:1;stroke-opacity:0.3" />
<line x1="317" y1="72" x2="319" y2="74" stroke="black" stroke-width="1" />
<line x1="319" y1="74" x2="321" y2="72" stroke="black" stroke-width="1" />
<rect x="23" y="70" width="44" height="5" style="fill:#5d3c2d;stroke:black;stroke-width:1;fill-opacity:1;stroke-opacity:0.3" />
<line x1="67" y1="72" x2="314" y2="72" stroke="pink" stroke-width="1" />
<rect x="314" y="70" width="2" height="5" style="fill:#5d3c2d;stroke:black;stroke-width:1;fill-opacity:1;stroke-opacity:0.3" />
<rect x="321" y="70" width="10" height="5" style="fill:#5d3c2d;stroke:black;stroke-width:1;fill-opacity:1;stroke-opacity:0.3" />
<line x1="331" y1="72" x2="411" y2="72" stroke="pink" stroke-width="1" />
<rect x="411" y="70" width="17" height="5" style="fill:#5d3c2d;stroke:black;stroke-width:1;fill-opacity:1;stroke-opacity:0.3" />
<line x1="429" y1="72" x2="579" y2="72" stroke="pink" stroke-width="1" />
<rect x="579" y="70" width="18" height="5" style="fill:#5d3c2d;stroke:black;stroke-width:1;fill-opacity:1;stroke-opacity:0.3" />
<line x1="55" y1="79" x2="185" y2="81" stroke="black" stroke-width="1" />
<line x1="185" y1="81" x2="315" y2="79" stroke="black" stroke-width="1" />
<rect x="24" y="77" width="31" height="5" style="fill:#5d3c2d;stroke:black;stroke-width:1;fill-opacity:1;stroke-opacity:0.3" />
<rect x="315" y="77" width="16" height="5" style="fill:#5d3c2d;stroke:black;stroke-width:1;fill-opacity:1;stroke-opacity:0.3" />
<line x1="331" y1="79" x2="411" y2="79" stroke="pink" stroke-width="1" />
<rect x="411" y="77" width="14" height="5" style="fill:#5d3c2d;stroke:black;stroke-width:1;fill-opacity:1;stroke-opacity:0.3" />
<line x1="55" y1="86" x2="235" y2="88" stroke="black" stroke-width="1" />
<line x1="235" y1="88" x2="415" y2="86" stroke="black" stroke-width="1" />
<rect x="24" y="84" width="31" height="5" style="fill:#5d3c2d;stroke:black;stroke-width:1;fill-opacity:1;stroke-opacity:0.3" />
<rect x="415" y="84" width="13" height="5" style="fill:#5d3c2d;stroke:black;stroke-width:1;fill-opacity:1;stroke-opacity:0.3" />
<line x1="429" y1="86" x2="579" y2="86" stroke="pink" stroke-width="1" />
<rect x="579" y="84" width="17" height="5" style="fill:#5d3c2d;stroke:black;stroke-width:1;fill-opacity:1;stroke-opacity:0.3" />
<line x1="55" y1="93" x2="184" y2="95" stroke="black" stroke-width="1" />
<line x1="184" y1="95" x2="314" y2="93" stroke="black" stroke-width="1" />
<rect x="24" y="91" width="31" height="5" style="fill:#5d3c2d;stroke:black;stroke-width:1;fill-opacity:1;stroke-opacity:0.3" />
<rect x="314" y="91" width="17" height="5" style="fill:#5d3c2d;stroke:black;stroke-width:1;fill-opacity:1;stroke-opacity:0.3" />
<line x1="331" y1="93" x2="411" y2="93" stroke="pink" stroke-width="1" />
<rect x="411" y="91" width="14" height="5" style="fill:#5d3c2d;stroke:black;stroke-width:1;fill-opacity:1;stroke-opacity:0.3" />
<line x1="317" y1="100" x2="319" y2="102" stroke="black" stroke-width="1" />
<line x1="319" y1="102" x2="321" y2="100" stroke="black" stroke-width="1" />
<rect x="24" y="98" width="43" height="5" style="fill:#5d3c2d;stroke:black;stroke-width:1;fill-opacity:1;stroke-opacity:0.3" />
<line x1="67" y1="100" x2="314" y2="100" stroke="pink" stroke-width="1" />
<rect x="314" y="98" width="3" height="5" style="fill:#5d3c2d;stroke:black;stroke-width:1;fill-opacity:1;stroke-opacity:0.3" />
<rect x="321" y="98" width="10" height="5" style="fill:#5d3c2d;stroke:black;stroke-width:1;fill-opacity:1;stroke-opacity:0.3" />
<line x1="331" y1="100" x2="411" y2="100" stroke="pink" stroke-width="1" />
<rect x="411" y="98" width="17" height="5" style="fill:#5d3c2d;stroke:black;stroke-width:1;fill-opacity:1;stroke-opacity:0.3" />
<line x1="429" y1="100" x2="579" y2="100" stroke="pink" stroke-width="1" />
<rect x="579" y="98" width="18" height="5" style="fill:#5d3c2d;stroke:black;stroke-width:1;fill-opacity:1;stroke-opacity:0.3" />
<line x1="55" y1="107" x2="184" y2="109" stroke="black" stroke-width="1" />
<line x1="184" y1="109" x2="313" y2="107" stroke="black" stroke-width="1" />
<rect x="24" y="105" width="31" height="5" style="fill:#5d3c2d;stroke:black;stroke-width:1;fill-opacity:1;stroke-opacity:0.3" />
<rect x="313" y="105" width="17" height="5" style="fill:#5d3c2d;stroke:black;stroke-width:1;fill-opacity:1;stroke-opacity:0.3" />
<line x1="331" y1="107" x2="411" y2="107" stroke="pink" stroke-width="1" />
<rect x="411" y="105" width="13" height="5" style="fill:#5d3c2d;stroke:black;stroke-width:1;fill-opacity:1;stroke-opacity:0.3" />
<line x1="55" y1="114" x2="187" y2="116" stroke="black" stroke-width="1" />
<line x1="187" y1="116" x2="320" y2="114" stroke="black" stroke-width="1" />
<rect x="24" y="112" width="31" height="5" style="fill:#5d3c2d;stroke:black;stroke-width:1;fill-opacity:1;stroke-opacity:0.3" />
<rect x="320" y="112" width="10" height="5" style="fill:#5d3c2d;stroke:black;stroke-width:1;fill-opacity:1;stroke-opacity:0.3" />
<line x1="331" y1="114" x2="411" y2="114" stroke="pink" stroke-width="1" />
<rect x="411" y="112" width="17" height="5" style="fill:#5d3c2d;stroke:black;stroke-width:1;fill-opacity:1;stroke-opacity:0.3" />
<line x1="429" y1="114" x2="579" y2="114" stroke="pink" stroke-width="1" />
<rect x="579" y="112" width="2" height="5" style="fill:#5d3c2d;stroke:black;stroke-width:1;fill-opacity:1;stroke-opacity:0.3" />
<line x1="55" y1="121" x2="61" y2="123" stroke="black" stroke-width="1" />
<line x1="61" y1="123" x2="67" y2="121" stroke="black" stroke-width="1" />
<rect x="24" y="119" width="31" height="5" style="fill:#5d3c2d;stroke:black;stroke-width:1;fill-opacity:1;stroke-opacity:0.3" />
<rect x="67" y="119" width="0" height="5" style="fill:#5d3c2d;stroke:black;stroke-width:1;fill-opacity:1;stroke-opacity:0.3" />
<line x1="67" y1="121" x2="314" y2="121" stroke="pink" stroke-width="1" />
<rect x="314" y="119" width="17" height="5" style="fill:#5d3c2d;stroke:black;stroke-width:1;fill-opacity:1;stroke-opacity:0.3" />
<line x1="331" y1="121" x2="411" y2="121" stroke="pink" stroke-width="1" />
<rect x="411" y="119" width="13" height="5" style="fill:#5d3c2d;stroke:black;stroke-width:1;fill-opacity:1;stroke-opacity:0.3" />
<line x1="317" y1="128" x2="320" y2="130" stroke="black" stroke-width="1" />
<line x1="320" y1="130" x2="324" y2="128" stroke="black" stroke-width="1" />
<rect x="24" y="126" width="43" height="5" style="fill:#5d3c2d;stroke:black;stroke-width:1;fill-opacity:1;stroke-opacity:0.3" />
<line x1="67" y1="128" x2="314" y2="128" stroke="pink" stroke-width="1" />
<rect x="314" y="126" width="3" height="5" style="fill:#5d3c2d;stroke:black;stroke-width:1;fill-opacity:1;stroke-opacity:0.3" />
<rect x="324" y="126" width="7" height="5" style="fill:#5d3c2d;stroke:black;stroke-width:1;fill-opacity:1;stroke-opacity:0.3" />
<line x1="331" y1="128" x2="411" y2="128" stroke="pink" stroke-width="1" />
<rect x="411" y="126" width="17" height="5" style="fill:#5d3c2d;stroke:black;stroke-width:1;fill-opacity:1;stroke-opacity:0.3" />
<line x1="429" y1="128" x2="579" y2="128" stroke="pink" stroke-width="1" />
<rect x="579" y="126" width="21" height="5" style="fill:#5d3c2d;stroke:black;stroke-width:1;fill-opacity:1;stroke-opacity:0.3" />
<line x1="317" y1="135" x2="319" y2="137" stroke="black" stroke-width="1" />
<line x1="319" y1="137" x2="321" y2="135" stroke="black" stroke-width="1" />
<rect x="24" y="133" width="43" height="5" style="fill:#5d3c2d;stroke:black;stroke-width:1;fill-opacity:1;stroke-opacity:0.3" />
<line x1="67" y1="135" x2="314" y2="135" stroke="pink" stroke-width="1" />
<rect x="314" y="133" width="3" height="5" style="fill:#5d3c2d;stroke:black;stroke-width:1;fill-opacity:1;stroke-opacity:0.3" />
<rect x="321" y="133" width="10" height="5" style="fill:#5d3c2d;stroke:black;stroke-width:1;fill-opacity:1;stroke-opacity:0.3" />
<line x1="331" y1="135" x2="411" y2="135" stroke="pink" stroke-width="1" />
<rect x="411" y="133" width="17" height="5" style="fill:#5d3c2d;stroke:black;stroke-width:1;fill-opacity:1;stroke-opacity:0.3" />
<line x1="429" y1="135" x2="579" y2="135" stroke="pink" stroke-width="1" />
<rect x="579" y="133" width="18" height="5" style="fill:#5d3c2d;stroke:black;stroke-width:1;fill-opacity:1;stroke-opacity:0.3" />
<line x1="55" y1="142" x2="58" y2="144" stroke="black" stroke-width="1" />
<line x1="58" y1="144" x2="62" y2="142" stroke="black" stroke-width="1" />
<rect x="24" y="140" width="31" height="5" style="fill:#5d3c2d;stroke:black;stroke-width:1;fill-opacity:1;stroke-opacity:0.3" />
<rect x="62" y="140" width="4" height="5" style="fill:#5d3c2d;stroke:black;stroke-width:1;fill-opacity:1;stroke-opacity:0.3" />
<line x1="67" y1="142" x2="314" y2="142" stroke="pink" stroke-width="1" />
<rect x="314" y="140" width="17" height="5" style="fill:#5d3c2d;stroke:black;stroke-width:1;fill-opacity:1;stroke-opacity:0.3" />
<line x1="331" y1="142" x2="411" y2="142" stroke="pink" stroke-width="1" />
<rect x="411" y="140" width="9" height="5" style="fill:#5d3c2d;stroke:black;stroke-width:1;fill-opacity:1;stroke-opacity:0.3" />
<line x1="55" y1="149" x2="58" y2="151" stroke="black" stroke-width="1" />
<line x1="58" y1="151" x2="62" y2="149" stroke="black" stroke-width="1" />
<rect x="24" y="147" width="31" height="5" style="fill:#5d3c2d;stroke:black;stroke-width:1;fill-opacity:1;stroke-opacity:0.3" />
<rect x="62" y="147" width="4" height="5" style="fill:#5d3c2d;stroke:black;stroke-width:1;fill-opacity:1;stroke-opacity:0.3" />
<line x1="67" y1="149" x2="314" y2="149" stroke="pink" stroke-width="1" />
<rect x="314" y="147" width="17" height="5" style="fill:#5d3c2d;stroke:black;stroke-width:1;fill-opacity:1;stroke-opacity:0.3" />
<line x1="331" y1="149" x2="411" y2="149" stroke="pink" stroke-width="1" />
<rect x="411" y="147" width="9" height="5" style="fill:#5d3c2d;stroke:black;stroke-width:1;fill-opacity:1;stroke-opacity:0.3" />
<line x1="55" y1="156" x2="184" y2="158" stroke="black" stroke-width="1" />
<line x1="184" y1="158" x2="314" y2="156" stroke="black" stroke-width="1" />
<rect x="24" y="154" width="31" height="5" style="fill:#5d3c2d;stroke:black;stroke-width:1;fill-opacity:1;stroke-opacity:0.3" />
<rect x="314" y="154" width="17" height="5" style="fill:#5d3c2d;stroke:black;stroke-width:1;fill-opacity:1;stroke-opacity:0.3" />
<line x1="331" y1="156" x2="411" y2="156" stroke="pink" stroke-width="1" />
<rect x="411" y="154" width="13" height="5" style="fill:#5d3c2d;stroke:black;stroke-width:1;fill-opacity:1;stroke-opacity:0.3" />
<line x1="55" y1="163" x2="61" y2="165" stroke="black" stroke-width="1" />
<line x1="61" y1="165" x2="67" y2="163" stroke="black" stroke-width="1" />
<rect x="24" y="161" width="31" height="5" style="fill:#5d3c2d;stroke:black;stroke-width:1;fill-opacity:1;stroke-opacity:0.3" />
<rect x="67" y="161" width="0" height="5" style="fill:#5d3c2d;stroke:black;stroke-width:1;fill-opacity:1;stroke-opacity:0.3" />
<line x1="67" y1="163" x2="314" y2="163" stroke="pink" stroke-width="1" />
<rect x="314" y="161" width="17" height="5" style="fill:#5d3c2d;stroke:black;stroke-width:1;fill-opacity:1;stroke-opacity:0.3" />
<line x1="331" y1="163" x2="411" y2="163" stroke="pink" stroke-width="1" />
<rect x="411" y="161" width="13" height="5" style="fill:#5d3c2d;stroke:black;stroke-width:1;fill-opacity:1;stroke-opacity:0.3" />
<line x1="601" y1="142" x2="604" y2="144" stroke="black" stroke-width="1" />
<line x1="604" y1="144" x2="607" y2="142" stroke="black" stroke-width="1" />
<rect x="420" y="140" width="8" height="5" style="fill:#5d3c2d;stroke:black;stroke-width:1;fill-opacity:1;stroke-opacity:0.3" />
<line x1="429" y1="142" x2="579" y2="142" stroke="pink" stroke-width="1" />
<rect x="579" y="140" width="22" height="5" style="fill:#5d3c2d;stroke:black;stroke-width:1;fill-opacity:1;stroke-opacity:0.3" />
<rect x="607" y="140" width="2" height="5" style="fill:#5d3c2d;stroke:black;stroke-width:1;fill-opacity:1;stroke-opacity:0.3" />
<line x1="610" y1="142" x2="691" y2="142" stroke="pink" stroke-width="1" />
<rect x="691" y="140" width="13" height="5" style="fill:#5d3c2d;stroke:black;stroke-width:1;fill-opacity:1;stroke-opacity:0.3" />
<line x1="704" y1="142" x2="766" y2="142" stroke="pink" stroke-width="1" />
<rect x="766" y="140" width="14" height="5" style="fill:#5d3c2d;stroke:black;stroke-width:1;fill-opacity:1;stroke-opacity:0.3" />
<line x1="601" y1="149" x2="604" y2="151" stroke="black" stroke-width="1" />
<line x1="604" y1="151" x2="608" y2="149" stroke="black" stroke-width="1" />
<rect x="420" y="147" width="8" height="5" style="fill:#5d3c2d;stroke:black;stroke-width:1;fill-opacity:1;stroke-opacity:0.3" />
<line x1="429" y1="149" x2="579" y2="149" stroke="pink" stroke-width="1" />
<rect x="579" y="147" width="22" height="5" style="fill:#5d3c2d;stroke:black;stroke-width:1;fill-opacity:1;stroke-opacity:0.3" />
<rect x="608" y="147" width="1" height="5" style="fill:#5d3c2d;stroke:black;stroke-width:1;fill-opacity:1;stroke-opacity:0.3" />
<line x1="610" y1="149" x2="691" y2="149" stroke="pink" stroke-width="1" />
<rect x="691" y="147" width="13" height="5" style="fill:#5d3c2d;stroke:black;stroke-width:1;fill-opacity:1;stroke-opacity:0.3" />
<line x1="704" y1="149" x2="766" y2="149" stroke="pink" stroke-width="1" />
<rect x="766" y="147" width="15" height="5" style="fill:#5d3c2d;stroke:black;stroke-width:1;fill-opacity:1;stroke-opacity:0.3" />
<line x1="702" y1="51" x2="743" y2="53" stroke="black" stroke-width="1" />
<line x1="743" y1="53" x2="784" y2="51" stroke="black" stroke-width="1" />
<rect x="424" y="49" width="4" height="5" style="fill:#5d3c2d;stroke:black;stroke-width:1;fill-opacity:1;stroke-opacity:0.3" />
<line x1="429" y1="51" x2="579" y2="51" stroke="pink" stroke-width="1" />
<rect x="579" y="49" width="30" height="5" style="fill:#5d3c2d;stroke:black;stroke-width:1;fill-opacity:1;stroke-opacity:0.3" />
<line x1="610" y1="51" x2="691" y2="51" stroke="pink" stroke-width="1" />
<rect x="691" y="49" width="11" height="5" style="fill:#5d3c2d;stroke:black;stroke-width:1;fill-opacity:1;stroke-opacity:0.3" />
<rect x="784" y="49" width="46" height="5" style="fill:#5d3c2d;stroke:black;stroke-width:1;fill-opacity:1;stroke-opacity:0.3" />
<line x1="606" y1="44" x2="649" y2="46" stroke="black" stroke-width="1" />
<line x1="649" y1="46" x2="693" y2="44" stroke="black" stroke-width="1" />
<rect x="425" y="42" width="4" height="5" style="fill:#5d3c2d;stroke:black;stroke-width:1;fill-opacity:1;stroke-opacity:0.3" />
<line x1="429" y1="44" x2="579" y2="44" stroke="pink" stroke-width="1" />
<rect x="579" y="42" width="27" height="5" style="fill:#5d3c2d;stroke:black;stroke-width:1;fill-opacity:1;stroke-opacity:0.3" />
<rect x="693" y="42" width="11" height="5" style="fill:#5d3c2d;stroke:black;stroke-width:1;fill-opacity:1;stroke-opacity:0.3" />
<line x1="704" y1="44" x2="766" y2="44" stroke="pink" stroke-width="1" />
<rect x="766" y="42" width="19" height="5" style="fill:#5d3c2d;stroke:black;stroke-width:1;fill-opacity:1;stroke-opacity:0.3" />
<line x1="606" y1="93" x2="688" y2="95" stroke="black" stroke-width="1" />
<line x1="688" y1="95" x2="771" y2="93" stroke="black" stroke-width="1" />
<rect x="425" y="91" width="3" height="5" style="fill:#5d3c2d;stroke:black;stroke-width:1;fill-opacity:1;stroke-opacity:0.3" />
<line x1="429" y1="93" x2="579" y2="93" stroke="pink" stroke-width="1" />
<rect x="579" y="91" width="27" height="5" style="fill:#5d3c2d;stroke:black;stroke-width:1;fill-opacity:1;stroke-opacity:0.3" />
<rect x="771" y="91" width="31" height="5" style="fill:#5d3c2d;stroke:black;stroke-width:1;fill-opacity:1;stroke-opacity:0.3" />
<line x1="606" y1="107" x2="688" y2="109" stroke="black" stroke-width="1" />
<line x1="688" y1="109" x2="771" y2="107" stroke="black" stroke-width="1" />
<rect x="425" y="105" width="3" height="5" style="fill:#5d3c2d;stroke:black;stroke-width:1;fill-opacity:1;stroke-opacity:0.3" />
<line x1="429" y1="107" x2="579" y2="107" stroke="pink" stroke-width="1" />
<rect x="579" y="105" width="27" height="5" style="fill:#5d3c2d;stroke:black;stroke-width:1;fill-opacity:1;stroke-opacity:0.3" />
<rect x="771" y="105" width="31" height="5" style="fill:#5d3c2d;stroke:black;stroke-width:1;fill-opacity:1;stroke-opacity:0.3" />
<line x1="607" y1="121" x2="654" y2="123" stroke="black" stroke-width="1" />
<line x1="654" y1="123" x2="701" y2="121" stroke="black" stroke-width="1" />
<rect x="425" y="119" width="3" height="5" style="fill:#5d3c2d;stroke:black;stroke-width:1;fill-opacity:1;stroke-opacity:0.3" />
<line x1="429" y1="121" x2="579" y2="121" stroke="pink" stroke-width="1" />
<rect x="579" y="119" width="27" height="5" style="fill:#5d3c2d;stroke:black;stroke-width:1;fill-opacity:1;stroke-opacity:0.3" />
<rect x="701" y="119" width="2" height="5" style="fill:#5d3c2d;stroke:black;stroke-width:1;fill-opacity:1;stroke-opacity:0.3" />
<line x1="704" y1="121" x2="766" y2="121" stroke="pink" stroke-width="1" />
<rect x="766" y="119" width="28" height="5" style="fill:#5d3c2d;stroke:black;stroke-width:1;fill-opacity:1;stroke-opacity:0.3" />
<line x1="703" y1="156" x2="748" y2="158" stroke="black" stroke-width="1" />
<line x1="748" y1="158" x2="794" y2="156" stroke="black" stroke-width="1" />
<rect x="425" y="154" width="3" height="5" style="fill:#5d3c2d;stroke:black;stroke-width:1;fill-opacity:1;stroke-opacity:0.3" />
<line x1="429" y1="156" x2="579" y2="156" stroke="pink" stroke-width="1" />
<rect x="579" y="154" width="30" height="5" style="fill:#5d3c2d;stroke:black;stroke-width:1;fill-opacity:1;stroke-opacity:0.3" />
<line x1="610" y1="156" x2="691" y2="156" stroke="pink" stroke-width="1" />
<rect x="691" y="154" width="12" height="5" style="fill:#5d3c2d;stroke:black;stroke-width:1;fill-opacity:1;stroke-opacity:0.3" />
<rect x="794" y="154" width="45" height="5" style="fill:#5d3c2d;stroke:black;stroke-width:1;fill-opacity:1;stroke-opacity:0.3" />
<line x1="607" y1="79" x2="689" y2="81" stroke="black" stroke-width="1" />
<line x1="689" y1="81" x2="772" y2="79" stroke="black" stroke-width="1" />
<rect x="426" y="77" width="3" height="5" style="fill:#5d3c2d;stroke:black;stroke-width:1;fill-opacity:1;stroke-opacity:0.3" />
<line x1="429" y1="79" x2="579" y2="79" stroke="pink" stroke-width="1" />
<rect x="579" y="77" width="28" height="5" style="fill:#5d3c2d;stroke:black;stroke-width:1;fill-opacity:1;stroke-opacity:0.3" />
<rect x="772" y="77" width="31" height="5" style="fill:#5d3c2d;stroke:black;stroke-width:1;fill-opacity:1;stroke-opacity:0.3" />
<line x1="607" y1="163" x2="653" y2="165" stroke="black" stroke-width="1" />
<line x1="653" y1="165" x2="700" y2="163" stroke="black" stroke-width="1" />
<rect x="426" y="161" width="3" height="5" style="fill:#5d3c2d;stroke:black;stroke-width:1;fill-opacity:1;stroke-opacity:0.3" />
<line x1="429" y1="163" x2="579" y2="163" stroke="pink" stroke-width="1" />
<rect x="579" y="161" width="28" height="5" style="fill:#5d3c2d;stroke:black;stroke-width:1;fill-opacity:1;stroke-opacity:0.3" />
<rect x="700" y="161" width="4" height="5" style="fill:#5d3c2d;stroke:black;stroke-width:1;fill-opacity:1;stroke-opacity:0.3" />
<line x1="704" y1="163" x2="766" y2="163" stroke="pink" stroke-width="1" />
<rect x="766" y="161" width="26" height="5" style="fill:#5d3c2d;stroke:black;stroke-width:1;fill-opacity:1;stroke-opacity:0.3" />
<line x1="694" y1="114" x2="705" y2="116" stroke="black" stroke-width="1" />
<line x1="705" y1="116" x2="717" y2="114" stroke="black" stroke-width="1" />
<rect x="582" y="112" width="27" height="5" style="fill:#5d3c2d;stroke:black;stroke-width:1;fill-opacity:1;stroke-opacity:0.3" />
<line x1="610" y1="114" x2="691" y2="114" stroke="pink" stroke-width="1" />
<rect x="691" y="112" width="3" height="5" style="fill:#5d3c2d;stroke:black;stroke-width:1;fill-opacity:1;stroke-opacity:0.3" />
<rect x="717" y="112" width="31" height="5" style="fill:#5d3c2d;stroke:black;stroke-width:1;fill-opacity:1;stroke-opacity:0.3" />
<line x1="698" y1="58" x2="733" y2="60" stroke="black" stroke-width="1" />
<line x1="733" y1="60" x2="769" y2="58" stroke="black" stroke-width="1" />
<rect x="586" y="56" width="23" height="5" style="fill:#5d3c2d;stroke:black;stroke-width:1;fill-opacity:1;stroke-opacity:0.3" />
<line x1="610" y1="58" x2="691" y2="58" stroke="pink" stroke-width="1" />
<rect x="691" y="56" width="7" height="5" style="fill:#5d3c2d;stroke:black;stroke-width:1;fill-opacity:1;stroke-opacity:0.3" />
<rect x="769" y="56" width="31" height="5" style="fill:#5d3c2d;stroke:black;stroke-width:1;fill-opacity:1;stroke-opacity:0.3" />
<line x1="767" y1="30" x2="768" y2="32" stroke="black" stroke-width="1" />
<line x1="768" y1="32" x2="770" y2="30" stroke="black" stroke-width="1" />
<rect x="593" y="28" width="16" height="5" style="fill:#5d3c2d;stroke:black;stroke-width:1;fill-opacity:1;stroke-opacity:0.3" />
<line x1="610" y1="30" x2="691" y2="30" stroke="pink" stroke-width="1" />
<rect x="691" y="28" width="13" height="5" style="fill:#5d3c2d;stroke:black;stroke-width:1;fill-opacity:1;stroke-opacity:0.3" />
<line x1="704" y1="30" x2="766" y2="30" stroke="pink" stroke-width="1" />
<rect x="766" y="28" width="0" height="5" style="fill:#5d3c2d;stroke:black;stroke-width:1;fill-opacity:1;stroke-opacity:0.3" />
<rect x="770" y="28" width="31" height="5" style="fill:#5d3c2d;stroke:black;stroke-width:1;fill-opacity:1;stroke-opacity:0.3" />
<line x1="771" y1="65" x2="776" y2="67" stroke="black" stroke-width="1" />
<line x1="776" y1="67" x2="782" y2="65" stroke="black" stroke-width="1" />
<rect x="598" y="63" width="11" height="5" style="fill:#5d3c2d;stroke:black;stroke-width:1;fill-opacity:1;stroke-opacity:0.3" />
<line x1="610" y1="65" x2="691" y2="65" stroke="pink" stroke-width="1" />
<rect x="691" y="63" width="13" height="5" style="fill:#5d3c2d;stroke:black;stroke-width:1;fill-opacity:1;stroke-opacity:0.3" />
<line x1="704" y1="65" x2="766" y2="65" stroke="pink" stroke-width="1" />
<rect x="766" y="63" width="5" height="5" style="fill:#5d3c2d;stroke:black;stroke-width:1;fill-opacity:1;stroke-opacity:0.3" />
<rect x="782" y="63" width="30" height="5" style="fill:#5d3c2d;stroke:black;stroke-width:1;fill-opacity:1;stroke-opacity:0.3" />
<line x1="629" y1="72" x2="634" y2="74" stroke="black" stroke-width="1" />
<line x1="634" y1="74" x2="640" y2="72" stroke="black" stroke-width="1" />
<rect x="598" y="70" width="31" height="5" style="fill:#5d3c2d;stroke:black;stroke-width:1;fill-opacity:1;stroke-opacity:0.3" />
<rect x="640" y="70" width="31" height="5" style="fill:#5d3c2d;stroke:black;stroke-width:1;fill-opacity:1;stroke-opacity:0.3" />
<line x1="772" y1="86" x2="775" y2="88" stroke="black" stroke-width="1" />
<line x1="775" y1="88" x2="778" y2="86" stroke="black" stroke-width="1" />
<rect x="598" y="84" width="11" height="5" style="fill:#5d3c2d;stroke:black;stroke-width:1;fill-opacity:1;stroke-opacity:0.3" />
<line x1="610" y1="86" x2="691" y2="86" stroke="pink" stroke-width="1" />
<rect x="691" y="84" width="13" height="5" style="fill:#5d3c2d;stroke:black;stroke-width:1;fill-opacity:1;stroke-opacity:0.3" />
<line x1="704" y1="86" x2="766" y2="86" stroke="pink" stroke-width="1" />
<rect x="766" y="84" width="5" height="5" style="fill:#5d3c2d;stroke:black;stroke-width:1;fill-opacity:1;stroke-opacity:0.3" />
<rect x="778" y="84" width="31" height="5" style="fill:#5d3c2d;stroke:black;stroke-width:1;fill-opacity:1;stroke-opacity:0.3" />
<line x1="772" y1="100" x2="775" y2="102" stroke="black" stroke-width="1" />
<line x1="775" y1="102" x2="778" y2="100" stroke="black" stroke-width="1" />
<rect x="598" y="98" width="11" height="5" style="fill:#5d3c2d;stroke:black;stroke-width:1;fill-opacity:1;stroke-opacity:0.3" />
<line x1="610" y1="100" x2="691" y2="100" stroke="pink" stroke-width="1" />
<rect x="691" y="98" width="13" height="5" style="fill:#5d3c2d;stroke:black;stroke-width:1;fill-opacity:1;stroke-opacity:0.3" />
<line x1="704" y1="100" x2="766" y2="100" stroke="pink" stroke-width="1" />
<rect x="766" y="98" width="5" height="5" style="fill:#5d3c2d;stroke:black;stroke-width:1;fill-opacity:1;stroke-opacity:0.3" />
<rect x="778" y="98" width="31" height="5" style="fill:#5d3c2d;stroke:black;stroke-width:1;fill-opacity:1;stroke-opacity:0.3" />
<line x1="788" y1="135" x2="796" y2="137" stroke="black" stroke-width="1" />
<line x1="796" y1="137" x2="805" y2="135" stroke="black" stroke-width="1" />
<rect x="598" y="133" width="11" height="5" style="fill:#5d3c2d;stroke:black;stroke-width:1;fill-opacity:1;stroke-opacity:0.3" />
<line x1="610" y1="135" x2="691" y2="135" stroke="pink" stroke-width="1" />
<rect x="691" y="133" width="13" height="5" style="fill:#5d3c2d;stroke:black;stroke-width:1;fill-opacity:1;stroke-opacity:0.3" />
<line x1="704" y1="135" x2="766" y2="135" stroke="pink" stroke-width="1" />
<rect x="766" y="133" width="21" height="5" style="fill:#5d3c2d;stroke:black;stroke-width:1;fill-opacity:1;stroke-opacity:0.3" />
<rect x="805" y="133" width="46" height="5" style="fill:#5d3c2d;stroke:black;stroke-width:1;fill-opacity:1;stroke-opacity:0.3" />
<line x1="790" y1="128" x2="792" y2="130" stroke="black" stroke-width="1" />
<line x1="792" y1="130" x2="794" y2="128" stroke="black" stroke-width="1" />
<rect x="601" y="126" width="8" height="5" style="fill:#5d3c2d;stroke:black;stroke-width:1;fill-opacity:1;stroke-opacity:0.3" />
<line x1="610" y1="128" x2="691" y2="128" stroke="pink" stroke-width="1" />
<rect x="691" y="126" width="13" height="5" style="fill:#5d3c2d;stroke:black;stroke-width:1;fill-opacity:1;stroke-opacity:0.3" />
<line x1="704" y1="128" x2="766" y2="128" stroke="pink" stroke-width="1" />
<rect x="766" y="126" width="24" height="5" style="fill:#5d3c2d;stroke:black;stroke-width:1;fill-opacity:1;stroke-opacity:0.3" />
<rect x="794" y="126" width="46" height="5" style="fill:#5d3c2d;stroke:black;stroke-width:1;fill-opacity:1;stroke-opacity:0.3" />
<line x1="776" y1="37" x2="781" y2="39" stroke="black" stroke-width="1" />
<line x1="781" y1="39" x2="786" y2="37" stroke="black" stroke-width="1" />
<rect x="602" y="35" width="7" height="5" style="fill:#5d3c2d;stroke:black;stroke-width:1;fill-opacity:1;stroke-opacity:0.3" />
<line x1="610" y1="37" x2="691" y2="37" stroke="pink" stroke-width="1" />
<rect x="691" y="35" width="13" height="5" style="fill:#5d3c2d;stroke:black;stroke-width:1;fill-opacity:1;stroke-opacity:0.3" />
<line x1="704" y1="37" x2="766" y2="37" stroke="pink" stroke-width="1" />
<rect x="766" y="35" width="9" height="5" style="fill:#5d3c2d;stroke:black;stroke-width:1;fill-opacity:1;stroke-opacity:0.3" />
<rect x="786" y="35" width="31" height="5" style="fill:#5d3c2d;stroke:black;stroke-width:1;fill-opacity:1;stroke-opacity:0.3" />
<line x1="705" y1="72" x2="710" y2="74" stroke="black" stroke-width="1" />
<line x1="710" y1="74" x2="715" y2="72" stroke="black" stroke-width="1" />
<rect x="674" y="70" width="31" height="5" style="fill:#5d3c2d;stroke:black;stroke-width:1;fill-opacity:1;stroke-opacity:0.3" />
<rect x="715" y="70" width="31" height="5" style="fill:#5d3c2d;stroke:black;stroke-width:1;fill-opacity:1;stroke-opacity:0.3" />
<line x1="779" y1="72" x2="781" y2="74" stroke="black" stroke-width="1" />
<line x1="781" y1="74" x2="783" y2="72" stroke="black" stroke-width="1" />
<rect x="748" y="70" width="31" height="5" style="fill:#5d3c2d;stroke:black;stroke-width:1;fill-opacity:1;stroke-opacity:0.3" />
<rect x="783" y="70" width="31" height="5" style="fill:#5d3c2d;stroke:black;stroke-width:1;fill-opacity:1;stroke-opacity:0.3" />
<line x1="796" y1="114" x2="802" y2="116" stroke="black" stroke-width="1" />
<line x1="802" y1="116" x2="809" y2="114" stroke="black" stroke-width="1" />
<rect x="750" y="112" width="46" height="5" style="fill:#5d3c2d;stroke:black;stroke-width:1;fill-opacity:1;stroke-opacity:0.3" />
<rect x="809" y="112" width="46" height="5" style="fill:#5d3c2d;stroke:black;stroke-width:1;fill-opacity:1;stroke-opacity:0.3" />
<line x1="813" y1="142" x2="818" y2="144" stroke="black" stroke-width="1" />
<line x1="818" y1="144" x2="824" y2="142" stroke="black" stroke-width="1" />
<rect x="781" y="140" width="31" height="5" style="fill:#5d3c2d;stroke:black;stroke-width:1;fill-opacity:1;stroke-opacity:0.3" />
<rect x="824" y="140" width="31" height="5" style="fill:#5d3c2d;stroke:black;stroke-width:1;fill-opacity:1;stroke-opacity:0.3" />
<line x1="828" y1="149" x2="840" y2="151" stroke="black" stroke-width="1" />
<line x1="840" y1="151" x2="852" y2="149" stroke="black" stroke-width="1" />
<rect x="781" y="147" width="46" height="5" style="fill:#5d3c2d;stroke:black;stroke-width:1;fill-opacity:1;stroke-opacity:0.3" />
<rect x="852" y="147" width="46" height="5" style="fill:#5d3c2d;stroke:black;stroke-width:1;fill-opacity:1;stroke-opacity:0.3" />
<line x1="817" y1="44" x2="819" y2="46" stroke="black" stroke-width="1" />
<line x1="819" y1="46" x2="822" y2="44" stroke="black" stroke-width="1" />
<rect x="786" y="42" width="31" height="5" style="fill:#5d3c2d;stroke:black;stroke-width:1;fill-opacity:1;stroke-opacity:0.3" />
<rect x="822" y="42" width="31" height="5" style="fill:#5d3c2d;stroke:black;stroke-width:1;fill-opacity:1;stroke-opacity:0.3" />
<line x1="824" y1="163" x2="831" y2="165" stroke="black" stroke-width="1" />
<line x1="831" y1="165" x2="838" y2="163" stroke="black" stroke-width="1" />
<rect x="793" y="161" width="31" height="5" style="fill:#5d3c2d;stroke:black;stroke-width:1;fill-opacity:1;stroke-opacity:0.3" />
<rect x="838" y="161" width="31" height="5" style="fill:#5d3c2d;stroke:black;stroke-width:1;fill-opacity:1;stroke-opacity:0.3" />
<line x1="825" y1="121" x2="834" y2="123" stroke="black" stroke-width="1" />
<line x1="834" y1="123" x2="843" y2="121" stroke="black" stroke-width="1" />
<rect x="794" y="119" width="31" height="5" style="fill:#5d3c2d;stroke:black;stroke-width:1;fill-opacity:1;stroke-opacity:0.3" />
<rect x="843" y="119" width="31" height="5" style="fill:#5d3c2d;stroke:black;stroke-width:1;fill-opacity:1;stroke-opacity:0.3" />
<line x1="832" y1="58" x2="835" y2="60" stroke="black" stroke-width="1" />
<line x1="835" y1="60" x2="838" y2="58" stroke="black" stroke-width="1" />
<rect x="800" y="56" width="31" height="5" style="fill:#5d3c2d;stroke:black;stroke-width:1;fill-opacity:1;stroke-opacity:0.3" />
<rect x="838" y="56" width="31" height="5" style="fill:#5d3c2d;stroke:black;stroke-width:1;fill-opacity:1;stroke-opacity:0.3" />
<line x1="833" y1="30" x2="842" y2="32" stroke="black" stroke-width="1" />
<line x1="842" y1="32" x2="851" y2="30" stroke="black" stroke-width="1" />
<rect x="801" y="28" width="31" height="5" style="fill:#5d3c2d;stroke:black;stroke-width:1;fill-opacity:1;stroke-opacity:0.3" />
<rect x="851" y="28" width="31" height="5" style="fill:#5d3c2d;stroke:black;stroke-width:1;fill-opacity:1;stroke-opacity:0.3" />
<line x1="834" y1="93" x2="839" y2="95" stroke="black" stroke-width="1" />
<line x1="839" y1="95" x2="845" y2="93" stroke="black" stroke-width="1" />
<rect x="802" y="91" width="31" height="5" style="fill:#5d3c2d;stroke:black;stroke-width:1;fill-opacity:1;stroke-opacity:0.3" />
<rect x="845" y="91" width="31" height="5" style="fill:#5d3c2d;stroke:black;stroke-width:1;fill-opacity:1;stroke-opacity:0.3" />
<line x1="834" y1="107" x2="840" y2="109" stroke="black" stroke-width="1" />
<line x1="840" y1="109" x2="846" y2="107" stroke="black" stroke-width="1" />
<rect x="802" y="105" width="31" height="5" style="fill:#5d3c2d;stroke:black;stroke-width:1;fill-opacity:1;stroke-opacity:0.3" />
<rect x="846" y="105" width="31" height="5" style="fill:#5d3c2d;stroke:black;stroke-width:1;fill-opacity:1;stroke-opacity:0.3" />
<line x1="834" y1="79" x2="842" y2="81" stroke="black" stroke-width="1" />
<line x1="842" y1="81" x2="851" y2="79" stroke="black" stroke-width="1" />
<rect x="803" y="77" width="31" height="5" style="fill:#5d3c2d;stroke:black;stroke-width:1;fill-opacity:1;stroke-opacity:0.3" />
<rect x="851" y="77" width="31" height="5" style="fill:#5d3c2d;stroke:black;stroke-width:1;fill-opacity:1;stroke-opacity:0.3" />
<line x1="841" y1="86" x2="847" y2="88" stroke="black" stroke-width="1" />
<line x1="847" y1="88" x2="854" y2="86" stroke="black" stroke-width="1" />
<rect x="810" y="84" width="31" height="5" style="fill:#5d3c2d;stroke:black;stroke-width:1;fill-opacity:1;stroke-opacity:0.3" />
<rect x="854" y="84" width="31" height="5" style="fill:#5d3c2d;stroke:black;stroke-width:1;fill-opacity:1;stroke-opacity:0.3" />
<line x1="841" y1="100" x2="847" y2="102" stroke="black" stroke-width="1" />
<line x1="847" y1="102" x2="853" y2="100" stroke="black" stroke-width="1" />
<rect x="810" y="98" width="31" height="5" style="fill:#5d3c2d;stroke:black;stroke-width:1;fill-opacity:1;stroke-opacity:0.3" />
<rect x="853" y="98" width="31" height="5" style="fill:#5d3c2d;stroke:black;stroke-width:1;fill-opacity:1;stroke-opacity:0.3" />
<line x1="844" y1="65" x2="847" y2="67" stroke="black" stroke-width="1" />
<line x1="847" y1="67" x2="851" y2="65" stroke="black" stroke-width="1" />
<rect x="813" y="63" width="31" height="5" style="fill:#5d3c2d;stroke:black;stroke-width:1;fill-opacity:1;stroke-opacity:0.3" />
<rect x="851" y="63" width="31" height="5" style="fill:#5d3c2d;stroke:black;stroke-width:1;fill-opacity:1;stroke-opacity:0.3" />
<line x1="846" y1="72" x2="848" y2="74" stroke="black" stroke-width="1" />
<line x1="848" y1="74" x2="850" y2="72" stroke="black" stroke-width="1" />
<rect x="815" y="70" width="31" height="5" style="fill:#5d3c2d;stroke:black;stroke-width:1;fill-opacity:1;stroke-opacity:0.3" />
<rect x="850" y="70" width="30" height="5" style="fill:#5d3c2d;stroke:black;stroke-width:1;fill-opacity:1;stroke-opacity:0.3" />
<line x1="848" y1="37" x2="849" y2="39" stroke="black" stroke-width="1" />
<line x1="849" y1="39" x2="851" y2="37" stroke="black" stroke-width="1" />
<rect x="817" y="35" width="31" height="5" style="fill:#5d3c2d;stroke:black;stroke-width:1;fill-opacity:1;stroke-opacity:0.3" />
<rect x="851" y="35" width="31" height="5" style="fill:#5d3c2d;stroke:black;stroke-width:1;fill-opacity:1;stroke-opacity:0.3" />
<line x1="878" y1="51" x2="891" y2="53" stroke="black" stroke-width="1" />
<line x1="891" y1="53" x2="905" y2="51" stroke="black" stroke-width="1" />
<rect x="831" y="49" width="46" height="5" style="fill:#5d3c2d;stroke:black;stroke-width:1;fill-opacity:1;stroke-opacity:0.3" />
<rect x="905" y="49" width="45" height="5" style="fill:#5d3c2d;stroke:black;stroke-width:1;fill-opacity:1;stroke-opacity:0.3" />
<line x1="871" y1="156" x2="873" y2="158" stroke="black" stroke-width="1" />
<line x1="873" y1="158" x2="876" y2="156" stroke="black" stroke-width="1" />
<rect x="840" y="154" width="31" height="5" style="fill:#5d3c2d;stroke:black;stroke-width:1;fill-opacity:1;stroke-opacity:0.3" />
<rect x="876" y="154" width="31" height="5" style="fill:#5d3c2d;stroke:black;stroke-width:1;fill-opacity:1;stroke-opacity:0.3" />
<line x1="872" y1="128" x2="874" y2="130" stroke="black" stroke-width="1" />
<line x1="874" y1="130" x2="877" y2="128" stroke="black" stroke-width="1" />
<rect x="841" y="126" width="31" height="5" style="fill:#5d3c2d;stroke:black;stroke-width:1;fill-opacity:1;stroke-opacity:0.3" />
<rect x="877" y="126" width="30" height="5" style="fill:#5d3c2d;stroke:black;stroke-width:1;fill-opacity:1;stroke-opacity:0.3" />
<line x1="883" y1="135" x2="890" y2="137" stroke="black" stroke-width="1" />
<line x1="890" y1="137" x2="897" y2="135" stroke="black" stroke-width="1" />
<rect x="852" y="133" width="31" height="5" style="fill:#5d3c2d;stroke:black;stroke-width:1;fill-opacity:1;stroke-opacity:0.3" />
<rect x="897" y="133" width="31" height="5" style="fill:#5d3c2d;stroke:black;stroke-width:1;fill-opacity:1;stroke-opacity:0.3" />
<line x1="882" y1="44" x2="886" y2="46" stroke="black" stroke-width="1" />
<line x1="886" y1="46" x2="890" y2="44" stroke="black" stroke-width="1" />
<rect x="853" y="42" width="29" height="5" style="fill:#5d3c2d;stroke:black;stroke-width:1;fill-opacity:1;stroke-opacity:0.3" />
<rect x="890" y="42" width="30" height="5" style="fill:#5d3c2d;stroke:black;stroke-width:1;fill-opacity:1;stroke-opacity:0.3" />
<line x1="902" y1="142" x2="905" y2="144" stroke="black" stroke-width="1" />
<line x1="905" y1="144" x2="908" y2="142" stroke="black" stroke-width="1" />
<rect x="855" y="140" width="46" height="5" style="fill:#f5b024;stroke:black;stroke-width:1;fill-opacity:1;stroke-opacity:0.3" />
<rect x="908" y="140" width="43" height="5" style="fill:#f5b024;stroke:black;stroke-width:1;fill-opacity:1;stroke-opacity:0.3" />
<line x1="888" y1="114" x2="901" y2="116" stroke="black" stroke-width="1" />
<line x1="901" y1="116" x2="915" y2="114" stroke="black" stroke-width="1" />
<rect x="856" y="112" width="31" height="5" style="fill:#5d3c2d;stroke:black;stroke-width:1;fill-opacity:1;stroke-opacity:0.3" />
<rect x="915" y="112" width="31" height="5" style="fill:#5d3c2d;stroke:black;stroke-width:1;fill-opacity:1;stroke-opacity:0.3" />
<line x1="900" y1="58" x2="903" y2="60" stroke="black" stroke-width="1" />
<line x1="903" y1="60" x2="907" y2="58" stroke="black" stroke-width="1" />
<rect x="869" y="56" width="31" height="5" style="fill:#5d3c2d;stroke:black;stroke-width:1;fill-opacity:1;stroke-opacity:0.3" />
<rect x="907" y="56" width="31" height="5" style="fill:#5d3c2d;stroke:black;stroke-width:1;fill-opacity:1;stroke-opacity:0.3" />
<line x1="900" y1="163" x2="903" y2="165" stroke="black" stroke-width="1" />
<line x1="903" y1="165" x2="907" y2="163" stroke="black" stroke-width="1" />
<rect x="869" y="161" width="31" height="5" style="fill:#5d3c2d;stroke:black;stroke-width:1;fill-opacity:1;stroke-opacity:0.3" />
<rect x="907" y="161" width="31" height="5" style="fill:#5d3c2d;stroke:black;stroke-width:1;fill-opacity:1;stroke-opacity:0.3" />
<line x1="906" y1="121" x2="917" y2="123" stroke="black" stroke-width="1" />
<line x1="917" y1="123" x2="929" y2="121" stroke="black" stroke-width="1" />
<rect x="875" y="119" width="31" height="5" style="fill:#5d3c2d;stroke:black;stroke-width:1;fill-opacity:1;stroke-opacity:0.3" />
<rect x="929" y="119" width="31" height="5" style="fill:#5d3c2d;stroke:black;stroke-width:1;fill-opacity:1;stroke-opacity:0.3" />
<line x1="908" y1="93" x2="914" y2="95" stroke="black" stroke-width="1" />
<line x1="914" y1="95" x2="920" y2="93" stroke="black" stroke-width="1" />
<rect x="877" y="91" width="31" height="5" style="fill:#5d3c2d;stroke:black;stroke-width:1;fill-opacity:1;stroke-opacity:0.3" />
<rect x="920" y="91" width="31" height="5" style="fill:#5d3c2d;stroke:black;stroke-width:1;fill-opacity:1;stroke-opacity:0.3" />
<line x1="910" y1="107" x2="917" y2="109" stroke="black" stroke-width="1" />
<line x1="917" y1="109" x2="925" y2="107" stroke="black" stroke-width="1" />
<rect x="878" y="105" width="31" height="5" style="fill:#5d3c2d;stroke:black;stroke-width:1;fill-opacity:1;stroke-opacity:0.3" />
<rect x="925" y="105" width="31" height="5" style="fill:#5d3c2d;stroke:black;stroke-width:1;fill-opacity:1;stroke-opacity:0.3" />
<line x1="913" y1="72" x2="925" y2="74" stroke="black" stroke-width="1" />
<line x1="925" y1="74" x2="938" y2="72" stroke="black" stroke-width="1" />
<rect x="881" y="70" width="31" height="5" style="fill:#5d3c2d;stroke:black;stroke-width:1;fill-opacity:1;stroke-opacity:0.3" />
<rect x="938" y="70" width="31" height="5" style="fill:#5d3c2d;stroke:black;stroke-width:1;fill-opacity:1;stroke-opacity:0.3" />
<line x1="913" y1="30" x2="918" y2="32" stroke="black" stroke-width="1" />
<line x1="918" y1="32" x2="923" y2="30" stroke="black" stroke-width="1" />
<rect x="882" y="28" width="31" height="5" style="fill:#5d3c2d;stroke:black;stroke-width:1;fill-opacity:1;stroke-opacity:0.3" />
<rect x="923" y="28" width="30" height="5" style="fill:#5d3c2d;stroke:black;stroke-width:1;fill-opacity:1;stroke-opacity:0.3" />
<line x1="914" y1="65" x2="915" y2="67" stroke="black" stroke-width="1" />
<line x1="915" y1="67" x2="917" y2="65" stroke="black" stroke-width="1" />
<rect x="882" y="63" width="31" height="5" style="fill:#5d3c2d;stroke:black;stroke-width:1;fill-opacity:1;stroke-opacity:0.3" />
<rect x="917" y="63" width="31" height="5" style="fill:#5d3c2d;stroke:black;stroke-width:1;fill-opacity:1;stroke-opacity:0.3" />
<line x1="914" y1="79" x2="917" y2="81" stroke="black" stroke-width="1" />
<line x1="917" y1="81" x2="920" y2="79" stroke="black" stroke-width="1" />
<rect x="882" y="77" width="31" height="5" style="fill:#5d3c2d;stroke:black;stroke-width:1;fill-opacity:1;stroke-opacity:0.3" />
<rect x="920" y="77" width="31" height="5" style="fill:#5d3c2d;stroke:black;stroke-width:1;fill-opacity:1;stroke-opacity:0.3" />
<line x1="914" y1="37" x2="921" y2="39" stroke="black" stroke-width="1" />
<line x1="921" y1="39" x2="929" y2="37" stroke="black" stroke-width="1" />
<rect x="883" y="35" width="31" height="5" style="fill:#5d3c2d;stroke:black;stroke-width:1;fill-opacity:1;stroke-opacity:0.3" />
<rect x="929" y="35" width="31" height="5" style="fill:#5d3c2d;stroke:black;stroke-width:1;fill-opacity:1;stroke-opacity:0.3" />
<line x1="915" y1="100" x2="920" y2="102" stroke="black" stroke-width="1" />
<line x1="920" y1="102" x2="925" y2="100" stroke="black" stroke-width="1" />
<rect x="884" y="98" width="31" height="5" style="fill:#5d3c2d;stroke:black;stroke-width:1;fill-opacity:1;stroke-opacity:0.3" />
<rect x="925" y="98" width="30" height="5" style="fill:#5d3c2d;stroke:black;stroke-width:1;fill-opacity:1;stroke-opacity:0.3" />
<line x1="916" y1="86" x2="927" y2="88" stroke="black" stroke-width="1" />
<line x1="927" y1="88" x2="938" y2="86" stroke="black" stroke-width="1" />
<rect x="885" y="84" width="31" height="5" style="fill:#5d3c2d;stroke:black;stroke-width:1;fill-opacity:1;stroke-opacity:0.3" />
<rect x="938" y="84" width="30" height="5" style="fill:#5d3c2d;stroke:black;stroke-width:1;fill-opacity:1;stroke-opacity:0.3" />
<line x1="930" y1="149" x2="932" y2="151" stroke="black" stroke-width="1" />
<line x1="932" y1="151" x2="935" y2="149" stroke="black" stroke-width="1" />
<rect x="899" y="147" width="31" height="5" style="fill:#5d3c2d;stroke:black;stroke-width:1;fill-opacity:1;stroke-opacity:0.3" />
<rect x="935" y="147" width="31" height="5" style="fill:#5d3c2d;stroke:black;stroke-width:1;fill-opacity:1;stroke-opacity:0.3" />
<line x1="940" y1="128" x2="948" y2="130" stroke="black" stroke-width="1" />
<line x1="948" y1="130" x2="957" y2="128" stroke="black" stroke-width="1" />
<rect x="909" y="126" width="31" height="5" style="fill:#5d3c2d;stroke:black;stroke-width:1;fill-opacity:1;stroke-opacity:0.3" />
<rect x="957" y="126" width="30" height="5" style="fill:#5d3c2d;stroke:black;stroke-width:1;fill-opacity:1;stroke-opacity:0.3" />
<line x1="944" y1="156" x2="946" y2="158" stroke="black" stroke-width="1" />
<line x1="946" y1="158" x2="948" y2="156" stroke="black" stroke-width="1" />
<rect x="913" y="154" width="31" height="5" style="fill:#5d3c2d;stroke:black;stroke-width:1;fill-opacity:1;stroke-opacity:0.3" />
<rect x="948" y="154" width="31" height="5" style="fill:#5d3c2d;stroke:black;stroke-width:1;fill-opacity:1;stroke-opacity:0.3" />
<line x1="956" y1="44" x2="958" y2="46" stroke="black" stroke-width="1" />
<line x1="958" y1="46" x2="960" y2="44" stroke="black" stroke-width="1" />
<rect x="925" y="42" width="31" height="5" style="fill:#5d3c2d;stroke:black;stroke-width:1;fill-opacity:1;stroke-opacity:0.3" />
<rect x="960" y="42" width="31" height="5" style="fill:#5d3c2d;stroke:black;stroke-width:1;fill-opacity:1;stroke-opacity:0.3" />
<text x="15"  y="176" style="font-family:Arial;font-size:10;stroke:black;fill:black;">all.merged.bam</text>
</svg>
    
