<?xml version="1.0" encoding="utf-8" standalone="no"?>
<!DOCTYPE svg PUBLIC "-//W3C//DTD SVG 1.1//EN"
  "http://www.w3.org/Graphics/SVG/1.1/DTD/svg11.dtd">
<svg height="1140" width="1000" version="1.1" viewBox="0 0 1000 1140" xmlns="http://www.w3.org/2000/svg" xmlns:xlink="http://www.w3.org/1999/xlink">
<line x1="31" y1="11" x2="968" y2="11" stroke="black" stroke-width="1" />
<rect x="31" y="9" width="9" height="5" style="fill:#f50002;stroke:black;stroke-width:1;fill-opacity:1;stroke-opacity:0.3" />
<rect x="40" y="9" width="8" height="5" style="fill:#53a1b5;stroke:black;stroke-width:1;fill-opacity:1;stroke-opacity:0.3" />
<rect x="138" y="9" width="88" height="5" style="fill:#53a1b5;stroke:black;stroke-width:1;fill-opacity:1;stroke-opacity:0.3" />
<rect x="299" y="9" width="30" height="5" style="fill:#53a1b5;stroke:black;stroke-width:1;fill-opacity:1;stroke-opacity:0.3" />
<rect x="659" y="9" width="39" height="5" style="fill:#53a1b5;stroke:black;stroke-width:1;fill-opacity:1;stroke-opacity:0.3" />
<rect x="795" y="9" width="10" height="5" style="fill:#53a1b5;stroke:black;stroke-width:1;fill-opacity:1;stroke-opacity:0.3" />
<rect x="806" y="9" width="162" height="5" style="fill:#f50002;stroke:black;stroke-width:1;fill-opacity:1;stroke-opacity:0.3" />
<text x="31"  y="23" style="font-family:Arial;font-size:10;stroke:black;fill:black;">Cre08.g359750.t2.1.v5.5 (+) chromosome_8:611324-614324</text>
<line x1="147" y1="30" x2="155" y2="32" stroke="black" stroke-width="1" />
<line x1="155" y1="32" x2="164" y2="30" stroke="black" stroke-width="1" />
<rect x="26" y="28" width="22" height="5" style="fill:#5d3c2d;stroke:black;stroke-width:1;fill-opacity:1;stroke-opacity:0.3" />
<line x1="49" y1="30" x2="138" y2="30" stroke="pink" stroke-width="1" />
<rect x="138" y="28" width="8" height="5" style="fill:#5d3c2d;stroke:black;stroke-width:1;fill-opacity:1;stroke-opacity:0.3" />
<rect x="164" y="28" width="30" height="5" style="fill:#5d3c2d;stroke:black;stroke-width:1;fill-opacity:1;stroke-opacity:0.3" />
<line x1="144" y1="37" x2="417" y2="39" stroke="black" stroke-width="1" />
<line x1="417" y1="39" x2="690" y2="37" stroke="black" stroke-width="1" />
<rect x="28" y="35" width="21" height="5" style="fill:#5d3c2d;stroke:black;stroke-width:1;fill-opacity:1;stroke-opacity:0.3" />
<line x1="49" y1="37" x2="138" y2="37" stroke="pink" stroke-width="1" />
<rect x="138" y="35" width="5" height="5" style="fill:#5d3c2d;stroke:black;stroke-width:1;fill-opacity:1;stroke-opacity:0.3" />
<rect x="690" y="35" width="9" height="5" style="fill:#5d3c2d;stroke:black;stroke-width:1;fill-opacity:1;stroke-opacity:0.3" />
<line x1="700" y1="37" x2="795" y2="37" stroke="pink" stroke-width="1" />
<rect x="795" y="35" width="21" height="5" style="fill:#5d3c2d;stroke:black;stroke-width:1;fill-opacity:1;stroke-opacity:0.3" />
<line x1="146" y1="44" x2="417" y2="46" stroke="black" stroke-width="1" />
<line x1="417" y1="46" x2="688" y2="44" stroke="black" stroke-width="1" />
<rect x="28" y="42" width="20" height="5" style="fill:#5d3c2d;stroke:black;stroke-width:1;fill-opacity:1;stroke-opacity:0.3" />
<line x1="49" y1="44" x2="138" y2="44" stroke="pink" stroke-width="1" />
<rect x="138" y="42" width="8" height="5" style="fill:#5d3c2d;stroke:black;stroke-width:1;fill-opacity:1;stroke-opacity:0.3" />
<rect x="688" y="42" width="11" height="5" style="fill:#5d3c2d;stroke:black;stroke-width:1;fill-opacity:1;stroke-opacity:0.3" />
<line x1="700" y1="44" x2="795" y2="44" stroke="pink" stroke-width="1" />
<rect x="795" y="42" width="19" height="5" style="fill:#5d3c2d;stroke:black;stroke-width:1;fill-opacity:1;stroke-opacity:0.3" />
<line x1="148" y1="51" x2="149" y2="53" stroke="black" stroke-width="1" />
<line x1="149" y1="53" x2="151" y2="51" stroke="black" stroke-width="1" />
<rect x="28" y="49" width="20" height="5" style="fill:#f5b024;stroke:black;stroke-width:1;fill-opacity:1;stroke-opacity:0.3" />
<line x1="49" y1="51" x2="138" y2="51" stroke="pink" stroke-width="1" />
<rect x="138" y="49" width="9" height="5" style="fill:#f5b024;stroke:black;stroke-width:1;fill-opacity:1;stroke-opacity:0.3" />
<rect x="151" y="49" width="31" height="5" style="fill:#f5b024;stroke:black;stroke-width:1;fill-opacity:1;stroke-opacity:0.3" />
<line x1="146" y1="58" x2="161" y2="60" stroke="black" stroke-width="1" />
<line x1="161" y1="60" x2="176" y2="58" stroke="black" stroke-width="1" />
<rect x="28" y="56" width="20" height="5" style="fill:#5d3c2d;stroke:black;stroke-width:1;fill-opacity:1;stroke-opacity:0.3" />
<line x1="49" y1="58" x2="138" y2="58" stroke="pink" stroke-width="1" />
<rect x="138" y="56" width="7" height="5" style="fill:#5d3c2d;stroke:black;stroke-width:1;fill-opacity:1;stroke-opacity:0.3" />
<rect x="176" y="56" width="31" height="5" style="fill:#5d3c2d;stroke:black;stroke-width:1;fill-opacity:1;stroke-opacity:0.3" />
<line x1="160" y1="65" x2="420" y2="67" stroke="black" stroke-width="1" />
<line x1="420" y1="67" x2="681" y2="65" stroke="black" stroke-width="1" />
<rect x="28" y="63" width="20" height="5" style="fill:#5d3c2d;stroke:black;stroke-width:1;fill-opacity:1;stroke-opacity:0.3" />
<line x1="49" y1="65" x2="138" y2="65" stroke="pink" stroke-width="1" />
<rect x="138" y="63" width="21" height="5" style="fill:#5d3c2d;stroke:black;stroke-width:1;fill-opacity:1;stroke-opacity:0.3" />
<rect x="681" y="63" width="19" height="5" style="fill:#5d3c2d;stroke:black;stroke-width:1;fill-opacity:1;stroke-opacity:0.3" />
<line x1="700" y1="65" x2="795" y2="65" stroke="pink" stroke-width="1" />
<rect x="795" y="63" width="21" height="5" style="fill:#5d3c2d;stroke:black;stroke-width:1;fill-opacity:1;stroke-opacity:0.3" />
<line x1="143" y1="72" x2="152" y2="74" stroke="black" stroke-width="1" />
<line x1="152" y1="74" x2="161" y2="72" stroke="black" stroke-width="1" />
<rect x="28" y="70" width="20" height="5" style="fill:#5d3c2d;stroke:black;stroke-width:1;fill-opacity:1;stroke-opacity:0.3" />
<line x1="49" y1="72" x2="138" y2="72" stroke="pink" stroke-width="1" />
<rect x="138" y="70" width="4" height="5" style="fill:#5d3c2d;stroke:black;stroke-width:1;fill-opacity:1;stroke-opacity:0.3" />
<rect x="161" y="70" width="31" height="5" style="fill:#5d3c2d;stroke:black;stroke-width:1;fill-opacity:1;stroke-opacity:0.3" />
<line x1="144" y1="79" x2="417" y2="81" stroke="black" stroke-width="1" />
<line x1="417" y1="81" x2="691" y2="79" stroke="black" stroke-width="1" />
<rect x="28" y="77" width="20" height="5" style="fill:#5d3c2d;stroke:black;stroke-width:1;fill-opacity:1;stroke-opacity:0.3" />
<line x1="49" y1="79" x2="138" y2="79" stroke="pink" stroke-width="1" />
<rect x="138" y="77" width="5" height="5" style="fill:#5d3c2d;stroke:black;stroke-width:1;fill-opacity:1;stroke-opacity:0.3" />
<rect x="691" y="77" width="8" height="5" style="fill:#5d3c2d;stroke:black;stroke-width:1;fill-opacity:1;stroke-opacity:0.3" />
<line x1="700" y1="79" x2="795" y2="79" stroke="pink" stroke-width="1" />
<rect x="795" y="77" width="22" height="5" style="fill:#5d3c2d;stroke:black;stroke-width:1;fill-opacity:1;stroke-opacity:0.3" />
<line x1="147" y1="86" x2="150" y2="88" stroke="black" stroke-width="1" />
<line x1="150" y1="88" x2="153" y2="86" stroke="black" stroke-width="1" />
<rect x="28" y="84" width="20" height="5" style="fill:#f5b024;stroke:black;stroke-width:1;fill-opacity:1;stroke-opacity:0.3" />
<line x1="49" y1="86" x2="138" y2="86" stroke="pink" stroke-width="1" />
<rect x="138" y="84" width="9" height="5" style="fill:#f5b024;stroke:black;stroke-width:1;fill-opacity:1;stroke-opacity:0.3" />
<rect x="153" y="84" width="30" height="5" style="fill:#f5b024;stroke:black;stroke-width:1;fill-opacity:1;stroke-opacity:0.3" />
<line x1="147" y1="93" x2="155" y2="95" stroke="black" stroke-width="1" />
<line x1="155" y1="95" x2="163" y2="93" stroke="black" stroke-width="1" />
<rect x="28" y="91" width="20" height="5" style="fill:#f5b024;stroke:black;stroke-width:1;fill-opacity:1;stroke-opacity:0.3" />
<line x1="49" y1="93" x2="138" y2="93" stroke="pink" stroke-width="1" />
<rect x="138" y="91" width="8" height="5" style="fill:#f5b024;stroke:black;stroke-width:1;fill-opacity:1;stroke-opacity:0.3" />
<rect x="163" y="91" width="30" height="5" style="fill:#f5b024;stroke:black;stroke-width:1;fill-opacity:1;stroke-opacity:0.3" />
<line x1="145" y1="100" x2="417" y2="102" stroke="black" stroke-width="1" />
<line x1="417" y1="102" x2="689" y2="100" stroke="black" stroke-width="1" />
<rect x="28" y="98" width="20" height="5" style="fill:#5d3c2d;stroke:black;stroke-width:1;fill-opacity:1;stroke-opacity:0.3" />
<line x1="49" y1="100" x2="138" y2="100" stroke="pink" stroke-width="1" />
<rect x="138" y="98" width="6" height="5" style="fill:#5d3c2d;stroke:black;stroke-width:1;fill-opacity:1;stroke-opacity:0.3" />
<rect x="689" y="98" width="10" height="5" style="fill:#5d3c2d;stroke:black;stroke-width:1;fill-opacity:1;stroke-opacity:0.3" />
<line x1="700" y1="100" x2="795" y2="100" stroke="pink" stroke-width="1" />
<rect x="795" y="98" width="20" height="5" style="fill:#5d3c2d;stroke:black;stroke-width:1;fill-opacity:1;stroke-opacity:0.3" />
<line x1="147" y1="107" x2="162" y2="109" stroke="black" stroke-width="1" />
<line x1="162" y1="109" x2="177" y2="107" stroke="black" stroke-width="1" />
<rect x="28" y="105" width="20" height="5" style="fill:#5d3c2d;stroke:black;stroke-width:1;fill-opacity:1;stroke-opacity:0.3" />
<line x1="49" y1="107" x2="138" y2="107" stroke="pink" stroke-width="1" />
<rect x="138" y="105" width="8" height="5" style="fill:#5d3c2d;stroke:black;stroke-width:1;fill-opacity:1;stroke-opacity:0.3" />
<rect x="177" y="105" width="31" height="5" style="fill:#5d3c2d;stroke:black;stroke-width:1;fill-opacity:1;stroke-opacity:0.3" />
<line x1="145" y1="114" x2="417" y2="116" stroke="black" stroke-width="1" />
<line x1="417" y1="116" x2="689" y2="114" stroke="black" stroke-width="1" />
<rect x="28" y="112" width="20" height="5" style="fill:#5d3c2d;stroke:black;stroke-width:1;fill-opacity:1;stroke-opacity:0.3" />
<line x1="49" y1="114" x2="138" y2="114" stroke="pink" stroke-width="1" />
<rect x="138" y="112" width="6" height="5" style="fill:#5d3c2d;stroke:black;stroke-width:1;fill-opacity:1;stroke-opacity:0.3" />
<rect x="689" y="112" width="10" height="5" style="fill:#5d3c2d;stroke:black;stroke-width:1;fill-opacity:1;stroke-opacity:0.3" />
<line x1="700" y1="114" x2="795" y2="114" stroke="pink" stroke-width="1" />
<rect x="795" y="112" width="20" height="5" style="fill:#5d3c2d;stroke:black;stroke-width:1;fill-opacity:1;stroke-opacity:0.3" />
<line x1="144" y1="121" x2="157" y2="123" stroke="black" stroke-width="1" />
<line x1="157" y1="123" x2="171" y2="121" stroke="black" stroke-width="1" />
<rect x="29" y="119" width="19" height="5" style="fill:#f5b024;stroke:black;stroke-width:1;fill-opacity:1;stroke-opacity:0.3" />
<line x1="49" y1="121" x2="138" y2="121" stroke="pink" stroke-width="1" />
<rect x="138" y="119" width="5" height="5" style="fill:#f5b024;stroke:black;stroke-width:1;fill-opacity:1;stroke-opacity:0.3" />
<rect x="171" y="119" width="30" height="5" style="fill:#f5b024;stroke:black;stroke-width:1;fill-opacity:1;stroke-opacity:0.3" />
<line x1="144" y1="128" x2="152" y2="130" stroke="black" stroke-width="1" />
<line x1="152" y1="130" x2="161" y2="128" stroke="black" stroke-width="1" />
<rect x="29" y="126" width="19" height="5" style="fill:#f5b024;stroke:black;stroke-width:1;fill-opacity:1;stroke-opacity:0.3" />
<line x1="49" y1="128" x2="138" y2="128" stroke="pink" stroke-width="1" />
<rect x="138" y="126" width="5" height="5" style="fill:#f5b024;stroke:black;stroke-width:1;fill-opacity:1;stroke-opacity:0.3" />
<rect x="161" y="126" width="31" height="5" style="fill:#f5b024;stroke:black;stroke-width:1;fill-opacity:1;stroke-opacity:0.3" />
<line x1="144" y1="135" x2="415" y2="137" stroke="black" stroke-width="1" />
<line x1="415" y1="137" x2="686" y2="135" stroke="black" stroke-width="1" />
<rect x="29" y="133" width="19" height="5" style="fill:#5d3c2d;stroke:black;stroke-width:1;fill-opacity:1;stroke-opacity:0.3" />
<line x1="49" y1="135" x2="138" y2="135" stroke="pink" stroke-width="1" />
<rect x="138" y="133" width="5" height="5" style="fill:#5d3c2d;stroke:black;stroke-width:1;fill-opacity:1;stroke-opacity:0.3" />
<rect x="686" y="133" width="13" height="5" style="fill:#5d3c2d;stroke:black;stroke-width:1;fill-opacity:1;stroke-opacity:0.3" />
<line x1="700" y1="135" x2="795" y2="135" stroke="pink" stroke-width="1" />
<rect x="795" y="133" width="17" height="5" style="fill:#5d3c2d;stroke:black;stroke-width:1;fill-opacity:1;stroke-opacity:0.3" />
<line x1="144" y1="142" x2="415" y2="144" stroke="black" stroke-width="1" />
<line x1="415" y1="144" x2="686" y2="142" stroke="black" stroke-width="1" />
<rect x="29" y="140" width="19" height="5" style="fill:#5d3c2d;stroke:black;stroke-width:1;fill-opacity:1;stroke-opacity:0.3" />
<line x1="49" y1="142" x2="138" y2="142" stroke="pink" stroke-width="1" />
<rect x="138" y="140" width="5" height="5" style="fill:#5d3c2d;stroke:black;stroke-width:1;fill-opacity:1;stroke-opacity:0.3" />
<rect x="686" y="140" width="13" height="5" style="fill:#5d3c2d;stroke:black;stroke-width:1;fill-opacity:1;stroke-opacity:0.3" />
<line x1="700" y1="142" x2="795" y2="142" stroke="pink" stroke-width="1" />
<rect x="795" y="140" width="17" height="5" style="fill:#5d3c2d;stroke:black;stroke-width:1;fill-opacity:1;stroke-opacity:0.3" />
<line x1="146" y1="149" x2="154" y2="151" stroke="black" stroke-width="1" />
<line x1="154" y1="151" x2="163" y2="149" stroke="black" stroke-width="1" />
<rect x="29" y="147" width="19" height="5" style="fill:#5d3c2d;stroke:black;stroke-width:1;fill-opacity:1;stroke-opacity:0.3" />
<line x1="49" y1="149" x2="138" y2="149" stroke="pink" stroke-width="1" />
<rect x="138" y="147" width="7" height="5" style="fill:#5d3c2d;stroke:black;stroke-width:1;fill-opacity:1;stroke-opacity:0.3" />
<rect x="163" y="147" width="31" height="5" style="fill:#5d3c2d;stroke:black;stroke-width:1;fill-opacity:1;stroke-opacity:0.3" />
<line x1="146" y1="156" x2="154" y2="158" stroke="black" stroke-width="1" />
<line x1="154" y1="158" x2="163" y2="156" stroke="black" stroke-width="1" />
<rect x="29" y="154" width="19" height="5" style="fill:#5d3c2d;stroke:black;stroke-width:1;fill-opacity:1;stroke-opacity:0.3" />
<line x1="49" y1="156" x2="138" y2="156" stroke="pink" stroke-width="1" />
<rect x="138" y="154" width="7" height="5" style="fill:#5d3c2d;stroke:black;stroke-width:1;fill-opacity:1;stroke-opacity:0.3" />
<rect x="163" y="154" width="31" height="5" style="fill:#5d3c2d;stroke:black;stroke-width:1;fill-opacity:1;stroke-opacity:0.3" />
<line x1="145" y1="163" x2="153" y2="165" stroke="black" stroke-width="1" />
<line x1="153" y1="165" x2="162" y2="163" stroke="black" stroke-width="1" />
<rect x="30" y="161" width="19" height="5" style="fill:#f5b024;stroke:black;stroke-width:1;fill-opacity:1;stroke-opacity:0.3" />
<line x1="49" y1="163" x2="138" y2="163" stroke="pink" stroke-width="1" />
<rect x="138" y="161" width="6" height="5" style="fill:#f5b024;stroke:black;stroke-width:1;fill-opacity:1;stroke-opacity:0.3" />
<rect x="162" y="161" width="31" height="5" style="fill:#f5b024;stroke:black;stroke-width:1;fill-opacity:1;stroke-opacity:0.3" />
<line x1="213" y1="51" x2="215" y2="53" stroke="black" stroke-width="1" />
<line x1="215" y1="53" x2="218" y2="51" stroke="black" stroke-width="1" />
<rect x="182" y="49" width="31" height="5" style="fill:#5d3c2d;stroke:black;stroke-width:1;fill-opacity:1;stroke-opacity:0.3" />
<rect x="218" y="49" width="9" height="5" style="fill:#5d3c2d;stroke:black;stroke-width:1;fill-opacity:1;stroke-opacity:0.3" />
<line x1="227" y1="51" x2="299" y2="51" stroke="pink" stroke-width="1" />
<rect x="299" y="49" width="22" height="5" style="fill:#5d3c2d;stroke:black;stroke-width:1;fill-opacity:1;stroke-opacity:0.3" />
<line x1="215" y1="86" x2="219" y2="88" stroke="black" stroke-width="1" />
<line x1="219" y1="88" x2="224" y2="86" stroke="black" stroke-width="1" />
<rect x="184" y="84" width="31" height="5" style="fill:#5d3c2d;stroke:black;stroke-width:1;fill-opacity:1;stroke-opacity:0.3" />
<rect x="224" y="84" width="2" height="5" style="fill:#5d3c2d;stroke:black;stroke-width:1;fill-opacity:1;stroke-opacity:0.3" />
<line x1="227" y1="86" x2="299" y2="86" stroke="pink" stroke-width="1" />
<rect x="299" y="84" width="28" height="5" style="fill:#5d3c2d;stroke:black;stroke-width:1;fill-opacity:1;stroke-opacity:0.3" />
<line x1="218" y1="72" x2="261" y2="74" stroke="black" stroke-width="1" />
<line x1="261" y1="74" x2="305" y2="72" stroke="black" stroke-width="1" />
<rect x="192" y="70" width="26" height="5" style="fill:#f5b024;stroke:black;stroke-width:1;fill-opacity:1;stroke-opacity:0.3" />
<rect x="305" y="70" width="25" height="5" style="fill:#f5b024;stroke:black;stroke-width:1;fill-opacity:1;stroke-opacity:0.3" />
<line x1="330" y1="72" x2="659" y2="72" stroke="pink" stroke-width="1" />
<rect x="659" y="70" width="5" height="5" style="fill:#f5b024;stroke:black;stroke-width:1;fill-opacity:1;stroke-opacity:0.3" />
<line x1="224" y1="128" x2="264" y2="130" stroke="black" stroke-width="1" />
<line x1="264" y1="130" x2="304" y2="128" stroke="black" stroke-width="1" />
<rect x="193" y="126" width="31" height="5" style="fill:#5d3c2d;stroke:black;stroke-width:1;fill-opacity:1;stroke-opacity:0.3" />
<rect x="304" y="126" width="26" height="5" style="fill:#5d3c2d;stroke:black;stroke-width:1;fill-opacity:1;stroke-opacity:0.3" />
<line x1="330" y1="128" x2="659" y2="128" stroke="pink" stroke-width="1" />
<rect x="659" y="126" width="2" height="5" style="fill:#5d3c2d;stroke:black;stroke-width:1;fill-opacity:1;stroke-opacity:0.3" />
<line x1="224" y1="163" x2="271" y2="165" stroke="black" stroke-width="1" />
<line x1="271" y1="165" x2="318" y2="163" stroke="black" stroke-width="1" />
<rect x="193" y="161" width="31" height="5" style="fill:#5d3c2d;stroke:black;stroke-width:1;fill-opacity:1;stroke-opacity:0.3" />
<rect x="318" y="161" width="12" height="5" style="fill:#5d3c2d;stroke:black;stroke-width:1;fill-opacity:1;stroke-opacity:0.3" />
<line x1="330" y1="163" x2="659" y2="163" stroke="pink" stroke-width="1" />
<rect x="659" y="161" width="18" height="5" style="fill:#5d3c2d;stroke:black;stroke-width:1;fill-opacity:1;stroke-opacity:0.3" />
<line x1="225" y1="149" x2="266" y2="151" stroke="black" stroke-width="1" />
<line x1="266" y1="151" x2="308" y2="149" stroke="black" stroke-width="1" />
<rect x="194" y="147" width="31" height="5" style="fill:#5d3c2d;stroke:black;stroke-width:1;fill-opacity:1;stroke-opacity:0.3" />
<rect x="308" y="147" width="22" height="5" style="fill:#5d3c2d;stroke:black;stroke-width:1;fill-opacity:1;stroke-opacity:0.3" />
<line x1="330" y1="149" x2="659" y2="149" stroke="pink" stroke-width="1" />
<rect x="659" y="147" width="9" height="5" style="fill:#5d3c2d;stroke:black;stroke-width:1;fill-opacity:1;stroke-opacity:0.3" />
<line x1="225" y1="156" x2="442" y2="158" stroke="black" stroke-width="1" />
<line x1="442" y1="158" x2="660" y2="156" stroke="black" stroke-width="1" />
<rect x="194" y="154" width="31" height="5" style="fill:#5d3c2d;stroke:black;stroke-width:1;fill-opacity:1;stroke-opacity:0.3" />
<rect x="660" y="154" width="31" height="5" style="fill:#5d3c2d;stroke:black;stroke-width:1;fill-opacity:1;stroke-opacity:0.3" />
<line x1="225" y1="93" x2="276" y2="95" stroke="black" stroke-width="1" />
<line x1="276" y1="95" x2="328" y2="93" stroke="black" stroke-width="1" />
<rect x="194" y="91" width="31" height="5" style="fill:#5d3c2d;stroke:black;stroke-width:1;fill-opacity:1;stroke-opacity:0.3" />
<rect x="328" y="91" width="2" height="5" style="fill:#5d3c2d;stroke:black;stroke-width:1;fill-opacity:1;stroke-opacity:0.3" />
<line x1="330" y1="93" x2="659" y2="93" stroke="pink" stroke-width="1" />
<rect x="659" y="91" width="28" height="5" style="fill:#5d3c2d;stroke:black;stroke-width:1;fill-opacity:1;stroke-opacity:0.3" />
<line x1="226" y1="30" x2="265" y2="32" stroke="black" stroke-width="1" />
<line x1="265" y1="32" x2="305" y2="30" stroke="black" stroke-width="1" />
<rect x="195" y="28" width="31" height="5" style="fill:#5d3c2d;stroke:black;stroke-width:1;fill-opacity:1;stroke-opacity:0.3" />
<rect x="305" y="28" width="25" height="5" style="fill:#5d3c2d;stroke:black;stroke-width:1;fill-opacity:1;stroke-opacity:0.3" />
<line x1="330" y1="30" x2="659" y2="30" stroke="pink" stroke-width="1" />
<rect x="659" y="28" width="5" height="5" style="fill:#5d3c2d;stroke:black;stroke-width:1;fill-opacity:1;stroke-opacity:0.3" />
<line x1="306" y1="121" x2="309" y2="123" stroke="black" stroke-width="1" />
<line x1="309" y1="123" x2="312" y2="121" stroke="black" stroke-width="1" />
<rect x="202" y="119" width="24" height="5" style="fill:#5d3c2d;stroke:black;stroke-width:1;fill-opacity:1;stroke-opacity:0.3" />
<line x1="227" y1="121" x2="299" y2="121" stroke="pink" stroke-width="1" />
<rect x="299" y="119" width="6" height="5" style="fill:#5d3c2d;stroke:black;stroke-width:1;fill-opacity:1;stroke-opacity:0.3" />
<rect x="312" y="119" width="18" height="5" style="fill:#5d3c2d;stroke:black;stroke-width:1;fill-opacity:1;stroke-opacity:0.3" />
<line x1="330" y1="121" x2="659" y2="121" stroke="pink" stroke-width="1" />
<rect x="659" y="119" width="13" height="5" style="fill:#5d3c2d;stroke:black;stroke-width:1;fill-opacity:1;stroke-opacity:0.3" />
<line x1="311" y1="58" x2="318" y2="60" stroke="black" stroke-width="1" />
<line x1="318" y1="60" x2="325" y2="58" stroke="black" stroke-width="1" />
<rect x="207" y="56" width="19" height="5" style="fill:#5d3c2d;stroke:black;stroke-width:1;fill-opacity:1;stroke-opacity:0.3" />
<line x1="227" y1="58" x2="299" y2="58" stroke="pink" stroke-width="1" />
<rect x="299" y="56" width="11" height="5" style="fill:#5d3c2d;stroke:black;stroke-width:1;fill-opacity:1;stroke-opacity:0.3" />
<rect x="325" y="56" width="4" height="5" style="fill:#5d3c2d;stroke:black;stroke-width:1;fill-opacity:1;stroke-opacity:0.3" />
<line x1="330" y1="58" x2="659" y2="58" stroke="pink" stroke-width="1" />
<rect x="659" y="56" width="26" height="5" style="fill:#5d3c2d;stroke:black;stroke-width:1;fill-opacity:1;stroke-opacity:0.3" />
<line x1="328" y1="107" x2="497" y2="109" stroke="black" stroke-width="1" />
<line x1="497" y1="109" x2="667" y2="107" stroke="black" stroke-width="1" />
<rect x="208" y="105" width="15" height="5" style="fill:#5d3c2d;stroke:black;stroke-width:1;fill-opacity:1;stroke-opacity:0.3" />
<line x1="224" y1="107" x2="225" y2="107" stroke="pink" stroke-width="1" />
<rect x="225" y="105" width="1" height="5" style="fill:#5d3c2d;stroke:black;stroke-width:1;fill-opacity:1;stroke-opacity:0.3" />
<line x1="226" y1="107" x2="299" y2="107" stroke="pink" stroke-width="1" />
<rect x="299" y="105" width="29" height="5" style="fill:#5d3c2d;stroke:black;stroke-width:1;fill-opacity:1;stroke-opacity:0.3" />
<rect x="667" y="105" width="32" height="5" style="fill:#5d3c2d;stroke:black;stroke-width:1;fill-opacity:1;stroke-opacity:0.3" />
<line x1="700" y1="107" x2="795" y2="107" stroke="pink" stroke-width="1" />
<rect x="795" y="105" width="14" height="5" style="fill:#5d3c2d;stroke:black;stroke-width:1;fill-opacity:1;stroke-opacity:0.3" />
<line x1="682" y1="51" x2="685" y2="53" stroke="black" stroke-width="1" />
<line x1="685" y1="53" x2="689" y2="51" stroke="black" stroke-width="1" />
<rect x="322" y="49" width="8" height="5" style="fill:#5d3c2d;stroke:black;stroke-width:1;fill-opacity:1;stroke-opacity:0.3" />
<line x1="330" y1="51" x2="659" y2="51" stroke="pink" stroke-width="1" />
<rect x="659" y="49" width="22" height="5" style="fill:#5d3c2d;stroke:black;stroke-width:1;fill-opacity:1;stroke-opacity:0.3" />
<rect x="689" y="49" width="10" height="5" style="fill:#5d3c2d;stroke:black;stroke-width:1;fill-opacity:1;stroke-opacity:0.3" />
<line x1="700" y1="51" x2="795" y2="51" stroke="pink" stroke-width="1" />
<rect x="795" y="49" width="20" height="5" style="fill:#5d3c2d;stroke:black;stroke-width:1;fill-opacity:1;stroke-opacity:0.3" />
<line x1="688" y1="86" x2="692" y2="88" stroke="black" stroke-width="1" />
<line x1="692" y1="88" x2="696" y2="86" stroke="black" stroke-width="1" />
<rect x="328" y="84" width="2" height="5" style="fill:#5d3c2d;stroke:black;stroke-width:1;fill-opacity:1;stroke-opacity:0.3" />
<line x1="330" y1="86" x2="659" y2="86" stroke="pink" stroke-width="1" />
<rect x="659" y="84" width="29" height="5" style="fill:#5d3c2d;stroke:black;stroke-width:1;fill-opacity:1;stroke-opacity:0.3" />
<rect x="696" y="84" width="3" height="5" style="fill:#5d3c2d;stroke:black;stroke-width:1;fill-opacity:1;stroke-opacity:0.3" />
<line x1="700" y1="86" x2="795" y2="86" stroke="pink" stroke-width="1" />
<rect x="795" y="84" width="27" height="5" style="fill:#5d3c2d;stroke:black;stroke-width:1;fill-opacity:1;stroke-opacity:0.3" />
<line x1="693" y1="128" x2="695" y2="130" stroke="black" stroke-width="1" />
<line x1="695" y1="130" x2="698" y2="128" stroke="black" stroke-width="1" />
<rect x="661" y="126" width="31" height="5" style="fill:#5d3c2d;stroke:black;stroke-width:1;fill-opacity:1;stroke-opacity:0.3" />
<rect x="698" y="126" width="1" height="5" style="fill:#5d3c2d;stroke:black;stroke-width:1;fill-opacity:1;stroke-opacity:0.3" />
<line x1="700" y1="128" x2="795" y2="128" stroke="pink" stroke-width="1" />
<rect x="795" y="126" width="29" height="5" style="fill:#5d3c2d;stroke:black;stroke-width:1;fill-opacity:1;stroke-opacity:0.3" />
<line x1="696" y1="72" x2="697" y2="74" stroke="black" stroke-width="1" />
<line x1="697" y1="74" x2="699" y2="72" stroke="black" stroke-width="1" />
<rect x="665" y="70" width="31" height="5" style="fill:#5d3c2d;stroke:black;stroke-width:1;fill-opacity:1;stroke-opacity:0.3" />
<rect x="699" y="70" width="0" height="5" style="fill:#5d3c2d;stroke:black;stroke-width:1;fill-opacity:1;stroke-opacity:0.3" />
<line x1="700" y1="72" x2="795" y2="72" stroke="pink" stroke-width="1" />
<rect x="795" y="70" width="29" height="5" style="fill:#5d3c2d;stroke:black;stroke-width:1;fill-opacity:1;stroke-opacity:0.3" />
<line x1="693" y1="30" x2="695" y2="32" stroke="black" stroke-width="1" />
<line x1="695" y1="32" x2="698" y2="30" stroke="black" stroke-width="1" />
<rect x="665" y="28" width="27" height="5" style="fill:#5d3c2d;stroke:black;stroke-width:1;fill-opacity:1;stroke-opacity:0.3" />
<rect x="698" y="28" width="1" height="5" style="fill:#5d3c2d;stroke:black;stroke-width:1;fill-opacity:1;stroke-opacity:0.3" />
<line x1="700" y1="30" x2="795" y2="30" stroke="pink" stroke-width="1" />
<rect x="795" y="28" width="29" height="5" style="fill:#5d3c2d;stroke:black;stroke-width:1;fill-opacity:1;stroke-opacity:0.3" />
<line x1="700" y1="149" x2="750" y2="151" stroke="black" stroke-width="1" />
<line x1="750" y1="151" x2="800" y2="149" stroke="black" stroke-width="1" />
<rect x="668" y="147" width="31" height="5" style="fill:#5d3c2d;stroke:black;stroke-width:1;fill-opacity:1;stroke-opacity:0.3" />
<rect x="800" y="147" width="31" height="5" style="fill:#5d3c2d;stroke:black;stroke-width:1;fill-opacity:1;stroke-opacity:0.3" />
<line x1="799" y1="121" x2="809" y2="123" stroke="black" stroke-width="1" />
<line x1="809" y1="123" x2="820" y2="121" stroke="black" stroke-width="1" />
<rect x="672" y="119" width="27" height="5" style="fill:#5d3c2d;stroke:black;stroke-width:1;fill-opacity:1;stroke-opacity:0.3" />
<line x1="700" y1="121" x2="795" y2="121" stroke="pink" stroke-width="1" />
<rect x="795" y="119" width="4" height="5" style="fill:#5d3c2d;stroke:black;stroke-width:1;fill-opacity:1;stroke-opacity:0.3" />
<rect x="820" y="119" width="30" height="5" style="fill:#5d3c2d;stroke:black;stroke-width:1;fill-opacity:1;stroke-opacity:0.3" />
<line x1="805" y1="163" x2="811" y2="165" stroke="black" stroke-width="1" />
<line x1="811" y1="165" x2="817" y2="163" stroke="black" stroke-width="1" />
<rect x="678" y="161" width="21" height="5" style="fill:#5d3c2d;stroke:black;stroke-width:1;fill-opacity:1;stroke-opacity:0.3" />
<line x1="700" y1="163" x2="795" y2="163" stroke="pink" stroke-width="1" />
<rect x="795" y="161" width="9" height="5" style="fill:#5d3c2d;stroke:black;stroke-width:1;fill-opacity:1;stroke-opacity:0.3" />
<rect x="817" y="161" width="31" height="5" style="fill:#5d3c2d;stroke:black;stroke-width:1;fill-opacity:1;stroke-opacity:0.3" />
<line x1="812" y1="58" x2="814" y2="60" stroke="black" stroke-width="1" />
<line x1="814" y1="60" x2="816" y2="58" stroke="black" stroke-width="1" />
<rect x="686" y="56" width="14" height="5" style="fill:#5d3c2d;stroke:black;stroke-width:1;fill-opacity:1;stroke-opacity:0.3" />
<line x1="700" y1="58" x2="795" y2="58" stroke="pink" stroke-width="1" />
<rect x="795" y="56" width="17" height="5" style="fill:#5d3c2d;stroke:black;stroke-width:1;fill-opacity:1;stroke-opacity:0.3" />
<rect x="816" y="56" width="31" height="5" style="fill:#5d3c2d;stroke:black;stroke-width:1;fill-opacity:1;stroke-opacity:0.3" />
<line x1="814" y1="93" x2="816" y2="95" stroke="black" stroke-width="1" />
<line x1="816" y1="95" x2="818" y2="93" stroke="black" stroke-width="1" />
<rect x="688" y="91" width="11" height="5" style="fill:#5d3c2d;stroke:black;stroke-width:1;fill-opacity:1;stroke-opacity:0.3" />
<line x1="700" y1="93" x2="795" y2="93" stroke="pink" stroke-width="1" />
<rect x="795" y="91" width="19" height="5" style="fill:#5d3c2d;stroke:black;stroke-width:1;fill-opacity:1;stroke-opacity:0.3" />
<rect x="818" y="91" width="31" height="5" style="fill:#5d3c2d;stroke:black;stroke-width:1;fill-opacity:1;stroke-opacity:0.3" />
<line x1="818" y1="156" x2="821" y2="158" stroke="black" stroke-width="1" />
<line x1="821" y1="158" x2="824" y2="156" stroke="black" stroke-width="1" />
<rect x="691" y="154" width="8" height="5" style="fill:#5d3c2d;stroke:black;stroke-width:1;fill-opacity:1;stroke-opacity:0.3" />
<line x1="700" y1="156" x2="795" y2="156" stroke="pink" stroke-width="1" />
<rect x="795" y="154" width="22" height="5" style="fill:#5d3c2d;stroke:black;stroke-width:1;fill-opacity:1;stroke-opacity:0.3" />
<rect x="824" y="154" width="31" height="5" style="fill:#5d3c2d;stroke:black;stroke-width:1;fill-opacity:1;stroke-opacity:0.3" />
<line x1="841" y1="107" x2="843" y2="109" stroke="black" stroke-width="1" />
<line x1="843" y1="109" x2="845" y2="107" stroke="black" stroke-width="1" />
<rect x="810" y="105" width="31" height="5" style="fill:#5d3c2d;stroke:black;stroke-width:1;fill-opacity:1;stroke-opacity:0.3" />
<rect x="845" y="105" width="31" height="5" style="fill:#5d3c2d;stroke:black;stroke-width:1;fill-opacity:1;stroke-opacity:0.3" />
<line x1="860" y1="135" x2="862" y2="137" stroke="black" stroke-width="1" />
<line x1="862" y1="137" x2="864" y2="135" stroke="black" stroke-width="1" />
<rect x="813" y="133" width="46" height="5" style="fill:#5d3c2d;stroke:black;stroke-width:1;fill-opacity:1;stroke-opacity:0.3" />
<rect x="864" y="133" width="46" height="5" style="fill:#5d3c2d;stroke:black;stroke-width:1;fill-opacity:1;stroke-opacity:0.3" />
<line x1="845" y1="142" x2="855" y2="144" stroke="black" stroke-width="1" />
<line x1="855" y1="144" x2="865" y2="142" stroke="black" stroke-width="1" />
<rect x="813" y="140" width="31" height="5" style="fill:#5d3c2d;stroke:black;stroke-width:1;fill-opacity:1;stroke-opacity:0.3" />
<rect x="865" y="140" width="31" height="5" style="fill:#5d3c2d;stroke:black;stroke-width:1;fill-opacity:1;stroke-opacity:0.3" />
<line x1="863" y1="44" x2="864" y2="46" stroke="black" stroke-width="1" />
<line x1="864" y1="46" x2="866" y2="44" stroke="black" stroke-width="1" />
<rect x="816" y="42" width="46" height="5" style="fill:#f5b024;stroke:black;stroke-width:1;fill-opacity:1;stroke-opacity:0.3" />
<rect x="866" y="42" width="46" height="5" style="fill:#f5b024;stroke:black;stroke-width:1;fill-opacity:1;stroke-opacity:0.3" />
<line x1="847" y1="51" x2="859" y2="53" stroke="black" stroke-width="1" />
<line x1="859" y1="53" x2="871" y2="51" stroke="black" stroke-width="1" />
<rect x="816" y="49" width="31" height="5" style="fill:#5d3c2d;stroke:black;stroke-width:1;fill-opacity:1;stroke-opacity:0.3" />
<rect x="871" y="49" width="30" height="5" style="fill:#5d3c2d;stroke:black;stroke-width:1;fill-opacity:1;stroke-opacity:0.3" />
<line x1="847" y1="100" x2="855" y2="102" stroke="black" stroke-width="1" />
<line x1="855" y1="102" x2="863" y2="100" stroke="black" stroke-width="1" />
<rect x="816" y="98" width="31" height="5" style="fill:#f5b024;stroke:black;stroke-width:1;fill-opacity:1;stroke-opacity:0.3" />
<rect x="863" y="98" width="31" height="5" style="fill:#f5b024;stroke:black;stroke-width:1;fill-opacity:1;stroke-opacity:0.3" />
<line x1="848" y1="114" x2="859" y2="116" stroke="black" stroke-width="1" />
<line x1="859" y1="116" x2="871" y2="114" stroke="black" stroke-width="1" />
<rect x="816" y="112" width="31" height="5" style="fill:#f5b024;stroke:black;stroke-width:1;fill-opacity:1;stroke-opacity:0.3" />
<rect x="871" y="112" width="31" height="5" style="fill:#f5b024;stroke:black;stroke-width:1;fill-opacity:1;stroke-opacity:0.3" />
<line x1="848" y1="37" x2="856" y2="39" stroke="black" stroke-width="1" />
<line x1="856" y1="39" x2="864" y2="37" stroke="black" stroke-width="1" />
<rect x="817" y="35" width="31" height="5" style="fill:#f5b024;stroke:black;stroke-width:1;fill-opacity:1;stroke-opacity:0.3" />
<rect x="864" y="35" width="30" height="5" style="fill:#f5b024;stroke:black;stroke-width:1;fill-opacity:1;stroke-opacity:0.3" />
<line x1="849" y1="65" x2="856" y2="67" stroke="black" stroke-width="1" />
<line x1="856" y1="67" x2="863" y2="65" stroke="black" stroke-width="1" />
<rect x="818" y="63" width="31" height="5" style="fill:#5d3c2d;stroke:black;stroke-width:1;fill-opacity:1;stroke-opacity:0.3" />
<rect x="863" y="63" width="31" height="5" style="fill:#5d3c2d;stroke:black;stroke-width:1;fill-opacity:1;stroke-opacity:0.3" />
<line x1="849" y1="79" x2="858" y2="81" stroke="black" stroke-width="1" />
<line x1="858" y1="81" x2="868" y2="79" stroke="black" stroke-width="1" />
<rect x="818" y="77" width="31" height="5" style="fill:#5d3c2d;stroke:black;stroke-width:1;fill-opacity:1;stroke-opacity:0.3" />
<rect x="868" y="77" width="31" height="5" style="fill:#5d3c2d;stroke:black;stroke-width:1;fill-opacity:1;stroke-opacity:0.3" />
<line x1="854" y1="86" x2="859" y2="88" stroke="black" stroke-width="1" />
<line x1="859" y1="88" x2="865" y2="86" stroke="black" stroke-width="1" />
<rect x="823" y="84" width="31" height="5" style="fill:#5d3c2d;stroke:black;stroke-width:1;fill-opacity:1;stroke-opacity:0.3" />
<rect x="865" y="84" width="31" height="5" style="fill:#5d3c2d;stroke:black;stroke-width:1;fill-opacity:1;stroke-opacity:0.3" />
<line x1="856" y1="30" x2="861" y2="32" stroke="black" stroke-width="1" />
<line x1="861" y1="32" x2="866" y2="30" stroke="black" stroke-width="1" />
<rect x="825" y="28" width="31" height="5" style="fill:#5d3c2d;stroke:black;stroke-width:1;fill-opacity:1;stroke-opacity:0.3" />
<rect x="866" y="28" width="30" height="5" style="fill:#5d3c2d;stroke:black;stroke-width:1;fill-opacity:1;stroke-opacity:0.3" />
<line x1="856" y1="128" x2="860" y2="130" stroke="black" stroke-width="1" />
<line x1="860" y1="130" x2="865" y2="128" stroke="black" stroke-width="1" />
<rect x="825" y="126" width="31" height="5" style="fill:#5d3c2d;stroke:black;stroke-width:1;fill-opacity:1;stroke-opacity:0.3" />
<rect x="865" y="126" width="31" height="5" style="fill:#5d3c2d;stroke:black;stroke-width:1;fill-opacity:1;stroke-opacity:0.3" />
<line x1="857" y1="72" x2="865" y2="74" stroke="black" stroke-width="1" />
<line x1="865" y1="74" x2="874" y2="72" stroke="black" stroke-width="1" />
<rect x="825" y="70" width="31" height="5" style="fill:#5d3c2d;stroke:black;stroke-width:1;fill-opacity:1;stroke-opacity:0.3" />
<rect x="874" y="70" width="31" height="5" style="fill:#5d3c2d;stroke:black;stroke-width:1;fill-opacity:1;stroke-opacity:0.3" />
<line x1="863" y1="149" x2="866" y2="151" stroke="black" stroke-width="1" />
<line x1="866" y1="151" x2="870" y2="149" stroke="black" stroke-width="1" />
<rect x="832" y="147" width="31" height="5" style="fill:#5d3c2d;stroke:black;stroke-width:1;fill-opacity:1;stroke-opacity:0.3" />
<rect x="870" y="147" width="31" height="5" style="fill:#5d3c2d;stroke:black;stroke-width:1;fill-opacity:1;stroke-opacity:0.3" />
<line x1="878" y1="58" x2="884" y2="60" stroke="black" stroke-width="1" />
<line x1="884" y1="60" x2="890" y2="58" stroke="black" stroke-width="1" />
<rect x="847" y="56" width="31" height="5" style="fill:#5d3c2d;stroke:black;stroke-width:1;fill-opacity:1;stroke-opacity:0.3" />
<rect x="890" y="56" width="28" height="5" style="fill:#5d3c2d;stroke:black;stroke-width:1;fill-opacity:1;stroke-opacity:0.3" />
<line x1="880" y1="163" x2="887" y2="165" stroke="black" stroke-width="1" />
<line x1="887" y1="165" x2="895" y2="163" stroke="black" stroke-width="1" />
<rect x="848" y="161" width="31" height="5" style="fill:#5d3c2d;stroke:black;stroke-width:1;fill-opacity:1;stroke-opacity:0.3" />
<rect x="895" y="161" width="31" height="5" style="fill:#5d3c2d;stroke:black;stroke-width:1;fill-opacity:1;stroke-opacity:0.3" />
<line x1="880" y1="93" x2="882" y2="95" stroke="black" stroke-width="1" />
<line x1="882" y1="95" x2="885" y2="93" stroke="black" stroke-width="1" />
<rect x="849" y="91" width="31" height="5" style="fill:#5d3c2d;stroke:black;stroke-width:1;fill-opacity:1;stroke-opacity:0.3" />
<rect x="885" y="91" width="31" height="5" style="fill:#5d3c2d;stroke:black;stroke-width:1;fill-opacity:1;stroke-opacity:0.3" />
<line x1="882" y1="121" x2="887" y2="123" stroke="black" stroke-width="1" />
<line x1="887" y1="123" x2="892" y2="121" stroke="black" stroke-width="1" />
<rect x="851" y="119" width="31" height="5" style="fill:#5d3c2d;stroke:black;stroke-width:1;fill-opacity:1;stroke-opacity:0.3" />
<rect x="892" y="119" width="31" height="5" style="fill:#5d3c2d;stroke:black;stroke-width:1;fill-opacity:1;stroke-opacity:0.3" />
<line x1="886" y1="156" x2="889" y2="158" stroke="black" stroke-width="1" />
<line x1="889" y1="158" x2="893" y2="156" stroke="black" stroke-width="1" />
<rect x="855" y="154" width="31" height="5" style="fill:#5d3c2d;stroke:black;stroke-width:1;fill-opacity:1;stroke-opacity:0.3" />
<rect x="893" y="154" width="30" height="5" style="fill:#5d3c2d;stroke:black;stroke-width:1;fill-opacity:1;stroke-opacity:0.3" />
<line x1="908" y1="107" x2="914" y2="109" stroke="black" stroke-width="1" />
<line x1="914" y1="109" x2="921" y2="107" stroke="black" stroke-width="1" />
<rect x="877" y="105" width="31" height="5" style="fill:#5d3c2d;stroke:black;stroke-width:1;fill-opacity:1;stroke-opacity:0.3" />
<rect x="921" y="105" width="31" height="5" style="fill:#5d3c2d;stroke:black;stroke-width:1;fill-opacity:1;stroke-opacity:0.3" />
<line x1="926" y1="37" x2="928" y2="39" stroke="black" stroke-width="1" />
<line x1="928" y1="39" x2="931" y2="37" stroke="black" stroke-width="1" />
<rect x="895" y="35" width="31" height="5" style="fill:#5d3c2d;stroke:black;stroke-width:1;fill-opacity:1;stroke-opacity:0.3" />
<rect x="931" y="35" width="31" height="5" style="fill:#5d3c2d;stroke:black;stroke-width:1;fill-opacity:1;stroke-opacity:0.3" />
<line x1="926" y1="65" x2="934" y2="67" stroke="black" stroke-width="1" />
<line x1="934" y1="67" x2="942" y2="65" stroke="black" stroke-width="1" />
<rect x="895" y="63" width="31" height="5" style="fill:#5d3c2d;stroke:black;stroke-width:1;fill-opacity:1;stroke-opacity:0.3" />
<rect x="942" y="63" width="31" height="5" style="fill:#5d3c2d;stroke:black;stroke-width:1;fill-opacity:1;stroke-opacity:0.3" />
<line x1="926" y1="100" x2="929" y2="102" stroke="black" stroke-width="1" />
<line x1="929" y1="102" x2="932" y2="100" stroke="black" stroke-width="1" />
<rect x="895" y="98" width="31" height="5" style="fill:#5d3c2d;stroke:black;stroke-width:1;fill-opacity:1;stroke-opacity:0.3" />
<rect x="932" y="98" width="31" height="5" style="fill:#5d3c2d;stroke:black;stroke-width:1;fill-opacity:1;stroke-opacity:0.3" />
<line x1="932" y1="30" x2="936" y2="32" stroke="black" stroke-width="1" />
<line x1="936" y1="32" x2="941" y2="30" stroke="black" stroke-width="1" />
<rect x="901" y="28" width="31" height="5" style="fill:#5d3c2d;stroke:black;stroke-width:1;fill-opacity:1;stroke-opacity:0.3" />
<rect x="941" y="28" width="30" height="5" style="fill:#5d3c2d;stroke:black;stroke-width:1;fill-opacity:1;stroke-opacity:0.3" />
<line x1="931" y1="79" x2="934" y2="81" stroke="black" stroke-width="1" />
<line x1="934" y1="81" x2="938" y2="79" stroke="black" stroke-width="1" />
<rect x="901" y="77" width="30" height="5" style="fill:#f5b024;stroke:black;stroke-width:1;fill-opacity:1;stroke-opacity:0.3" />
<rect x="938" y="77" width="30" height="5" style="fill:#f5b024;stroke:black;stroke-width:1;fill-opacity:1;stroke-opacity:0.3" />
<line x1="934" y1="51" x2="936" y2="53" stroke="black" stroke-width="1" />
<line x1="936" y1="53" x2="938" y2="51" stroke="black" stroke-width="1" />
<rect x="903" y="49" width="31" height="5" style="fill:#5d3c2d;stroke:black;stroke-width:1;fill-opacity:1;stroke-opacity:0.3" />
<rect x="938" y="49" width="31" height="5" style="fill:#5d3c2d;stroke:black;stroke-width:1;fill-opacity:1;stroke-opacity:0.3" />
<line x1="935" y1="86" x2="937" y2="88" stroke="black" stroke-width="1" />
<line x1="937" y1="88" x2="940" y2="86" stroke="black" stroke-width="1" />
<rect x="904" y="84" width="31" height="5" style="fill:#f5b024;stroke:black;stroke-width:1;fill-opacity:1;stroke-opacity:0.3" />
<rect x="940" y="84" width="31" height="5" style="fill:#f5b024;stroke:black;stroke-width:1;fill-opacity:1;stroke-opacity:0.3" />
<line x1="938" y1="72" x2="940" y2="74" stroke="black" stroke-width="1" />
<line x1="940" y1="74" x2="942" y2="72" stroke="black" stroke-width="1" />
<rect x="907" y="70" width="31" height="5" style="fill:#5d3c2d;stroke:black;stroke-width:1;fill-opacity:1;stroke-opacity:0.3" />
<rect x="942" y="70" width="31" height="5" style="fill:#5d3c2d;stroke:black;stroke-width:1;fill-opacity:1;stroke-opacity:0.3" />
<line x1="938" y1="114" x2="940" y2="116" stroke="black" stroke-width="1" />
<line x1="940" y1="116" x2="942" y2="114" stroke="black" stroke-width="1" />
<rect x="907" y="112" width="31" height="5" style="fill:#5d3c2d;stroke:black;stroke-width:1;fill-opacity:1;stroke-opacity:0.3" />
<rect x="942" y="112" width="31" height="5" style="fill:#5d3c2d;stroke:black;stroke-width:1;fill-opacity:1;stroke-opacity:0.3" />
<line x1="944" y1="128" x2="945" y2="130" stroke="black" stroke-width="1" />
<line x1="945" y1="130" x2="947" y2="128" stroke="black" stroke-width="1" />
<rect x="912" y="126" width="31" height="5" style="fill:#5d3c2d;stroke:black;stroke-width:1;fill-opacity:1;stroke-opacity:0.3" />
<rect x="947" y="126" width="30" height="5" style="fill:#5d3c2d;stroke:black;stroke-width:1;fill-opacity:1;stroke-opacity:0.3" />
<text x="15"  y="176" style="font-family:Arial;font-size:10;stroke:black;fill:black;">all.merged.bam</text>
</svg>
    
