<?xml version="1.0" encoding="utf-8" standalone="no"?>
<!DOCTYPE svg PUBLIC "-//W3C//DTD SVG 1.1//EN"
  "http://www.w3.org/Graphics/SVG/1.1/DTD/svg11.dtd">
<svg height="1140" width="1000" version="1.1" viewBox="0 0 1000 1140" xmlns="http://www.w3.org/2000/svg" xmlns:xlink="http://www.w3.org/1999/xlink">
<line x1="46" y1="11" x2="953" y2="11" stroke="black" stroke-width="1" />
<rect x="46" y="9" width="56" height="5" style="fill:#f50002;stroke:black;stroke-width:1;fill-opacity:1;stroke-opacity:0.3" />
<rect x="155" y="9" width="10" height="5" style="fill:#f50002;stroke:black;stroke-width:1;fill-opacity:1;stroke-opacity:0.3" />
<rect x="165" y="9" width="47" height="5" style="fill:#53a1b5;stroke:black;stroke-width:1;fill-opacity:1;stroke-opacity:0.3" />
<rect x="272" y="9" width="64" height="5" style="fill:#53a1b5;stroke:black;stroke-width:1;fill-opacity:1;stroke-opacity:0.3" />
<rect x="453" y="9" width="29" height="5" style="fill:#53a1b5;stroke:black;stroke-width:1;fill-opacity:1;stroke-opacity:0.3" />
<rect x="562" y="9" width="34" height="5" style="fill:#53a1b5;stroke:black;stroke-width:1;fill-opacity:1;stroke-opacity:0.3" />
<rect x="770" y="9" width="46" height="5" style="fill:#53a1b5;stroke:black;stroke-width:1;fill-opacity:1;stroke-opacity:0.3" />
<rect x="817" y="9" width="135" height="5" style="fill:#f50002;stroke:black;stroke-width:1;fill-opacity:1;stroke-opacity:0.3" />
<text x="46"  y="23" style="font-family:Arial;font-size:10;stroke:black;fill:black;">Cre02.g113800.t1.1.v5.5 (+) chromosome_2:6190735-6192686</text>
<line x1="92" y1="30" x2="94" y2="32" stroke="black" stroke-width="1" />
<line x1="94" y1="32" x2="97" y2="30" stroke="black" stroke-width="1" />
<rect x="46" y="28" width="46" height="5" style="fill:#5d3c2d;stroke:black;stroke-width:1;fill-opacity:1;stroke-opacity:0.3" />
<rect x="97" y="28" width="5" height="5" style="fill:#5d3c2d;stroke:black;stroke-width:1;fill-opacity:1;stroke-opacity:0.3" />
<line x1="103" y1="30" x2="155" y2="30" stroke="pink" stroke-width="1" />
<rect x="155" y="28" width="40" height="5" style="fill:#5d3c2d;stroke:black;stroke-width:1;fill-opacity:1;stroke-opacity:0.3" />
<line x1="328" y1="30" x2="460" y2="32" stroke="black" stroke-width="1" />
<line x1="460" y1="32" x2="593" y2="30" stroke="black" stroke-width="1" />
<rect x="282" y="28" width="46" height="5" style="fill:#5d3c2d;stroke:black;stroke-width:1;fill-opacity:1;stroke-opacity:0.3" />
<rect x="593" y="28" width="4" height="5" style="fill:#5d3c2d;stroke:black;stroke-width:1;fill-opacity:1;stroke-opacity:0.3" />
<line x1="597" y1="30" x2="770" y2="30" stroke="pink" stroke-width="1" />
<rect x="770" y="28" width="42" height="5" style="fill:#5d3c2d;stroke:black;stroke-width:1;fill-opacity:1;stroke-opacity:0.3" />
<line x1="335" y1="37" x2="394" y2="39" stroke="black" stroke-width="1" />
<line x1="394" y1="39" x2="453" y2="37" stroke="black" stroke-width="1" />
<rect x="289" y="35" width="46" height="5" style="fill:#5d3c2d;stroke:black;stroke-width:1;fill-opacity:1;stroke-opacity:0.3" />
<rect x="453" y="35" width="29" height="5" style="fill:#5d3c2d;stroke:black;stroke-width:1;fill-opacity:1;stroke-opacity:0.3" />
<line x1="482" y1="37" x2="562" y2="37" stroke="pink" stroke-width="1" />
<rect x="562" y="35" width="13" height="5" style="fill:#5d3c2d;stroke:black;stroke-width:1;fill-opacity:1;stroke-opacity:0.3" />
<line x1="336" y1="44" x2="404" y2="46" stroke="black" stroke-width="1" />
<line x1="404" y1="46" x2="473" y2="44" stroke="black" stroke-width="1" />
<rect x="290" y="42" width="46" height="5" style="fill:#5d3c2d;stroke:black;stroke-width:1;fill-opacity:1;stroke-opacity:0.3" />
<rect x="473" y="42" width="8" height="5" style="fill:#5d3c2d;stroke:black;stroke-width:1;fill-opacity:1;stroke-opacity:0.3" />
<line x1="482" y1="44" x2="562" y2="44" stroke="pink" stroke-width="1" />
<rect x="562" y="42" width="36" height="5" style="fill:#5d3c2d;stroke:black;stroke-width:1;fill-opacity:1;stroke-opacity:0.3" />
<line x1="336" y1="51" x2="400" y2="53" stroke="black" stroke-width="1" />
<line x1="400" y1="53" x2="465" y2="51" stroke="black" stroke-width="1" />
<rect x="293" y="49" width="43" height="5" style="fill:#5d3c2d;stroke:black;stroke-width:1;fill-opacity:1;stroke-opacity:0.3" />
<rect x="465" y="49" width="17" height="5" style="fill:#5d3c2d;stroke:black;stroke-width:1;fill-opacity:1;stroke-opacity:0.3" />
<line x1="482" y1="51" x2="562" y2="51" stroke="pink" stroke-width="1" />
<rect x="562" y="49" width="28" height="5" style="fill:#5d3c2d;stroke:black;stroke-width:1;fill-opacity:1;stroke-opacity:0.3" />
<line x1="336" y1="58" x2="400" y2="60" stroke="black" stroke-width="1" />
<line x1="400" y1="60" x2="465" y2="58" stroke="black" stroke-width="1" />
<rect x="293" y="56" width="43" height="5" style="fill:#5d3c2d;stroke:black;stroke-width:1;fill-opacity:1;stroke-opacity:0.3" />
<rect x="465" y="56" width="17" height="5" style="fill:#5d3c2d;stroke:black;stroke-width:1;fill-opacity:1;stroke-opacity:0.3" />
<line x1="482" y1="58" x2="562" y2="58" stroke="pink" stroke-width="1" />
<rect x="562" y="56" width="28" height="5" style="fill:#5d3c2d;stroke:black;stroke-width:1;fill-opacity:1;stroke-opacity:0.3" />
<line x1="483" y1="65" x2="532" y2="67" stroke="black" stroke-width="1" />
<line x1="532" y1="67" x2="581" y2="65" stroke="black" stroke-width="1" />
<rect x="322" y="63" width="13" height="5" style="fill:#5d3c2d;stroke:black;stroke-width:1;fill-opacity:1;stroke-opacity:0.3" />
<line x1="336" y1="65" x2="453" y2="65" stroke="pink" stroke-width="1" />
<rect x="453" y="63" width="30" height="5" style="fill:#5d3c2d;stroke:black;stroke-width:1;fill-opacity:1;stroke-opacity:0.3" />
<rect x="581" y="63" width="16" height="5" style="fill:#5d3c2d;stroke:black;stroke-width:1;fill-opacity:1;stroke-opacity:0.3" />
<line x1="597" y1="65" x2="2398" y2="65" stroke="pink" stroke-width="1" />
<rect x="2398" y="63" width="30" height="5" style="fill:#5d3c2d;stroke:black;stroke-width:1;fill-opacity:1;stroke-opacity:0.3" />
<line x1="782" y1="72" x2="790" y2="74" stroke="black" stroke-width="1" />
<line x1="790" y1="74" x2="798" y2="72" stroke="black" stroke-width="1" />
<rect x="562" y="70" width="34" height="5" style="fill:#5d3c2d;stroke:black;stroke-width:1;fill-opacity:1;stroke-opacity:0.3" />
<line x1="597" y1="72" x2="770" y2="72" stroke="pink" stroke-width="1" />
<rect x="770" y="70" width="11" height="5" style="fill:#5d3c2d;stroke:black;stroke-width:1;fill-opacity:1;stroke-opacity:0.3" />
<rect x="798" y="70" width="6" height="5" style="fill:#5d3c2d;stroke:black;stroke-width:1;fill-opacity:1;stroke-opacity:0.3" />
<line x1="804" y1="72" x2="2398" y2="72" stroke="pink" stroke-width="1" />
<rect x="2398" y="70" width="40" height="5" style="fill:#5d3c2d;stroke:black;stroke-width:1;fill-opacity:1;stroke-opacity:0.3" />
<text x="15"  y="176" style="font-family:Arial;font-size:10;stroke:black;fill:black;">all.merged.bam</text>
</svg>
    
