<?xml version="1.0" encoding="utf-8" standalone="no"?>
<!DOCTYPE svg PUBLIC "-//W3C//DTD SVG 1.1//EN"
  "http://www.w3.org/Graphics/SVG/1.1/DTD/svg11.dtd">
<svg height="1140" width="1000" version="1.1" viewBox="0 0 1000 1140" xmlns="http://www.w3.org/2000/svg" xmlns:xlink="http://www.w3.org/1999/xlink">
<line x1="56" y1="11" x2="943" y2="11" stroke="black" stroke-width="1" />
<rect x="56" y="9" width="214" height="5" style="fill:#f50002;stroke:black;stroke-width:1;fill-opacity:1;stroke-opacity:0.3" />
<rect x="336" y="9" width="25" height="5" style="fill:#f50002;stroke:black;stroke-width:1;fill-opacity:1;stroke-opacity:0.3" />
<rect x="361" y="9" width="57" height="5" style="fill:#53a1b5;stroke:black;stroke-width:1;fill-opacity:1;stroke-opacity:0.3" />
<rect x="497" y="9" width="39" height="5" style="fill:#53a1b5;stroke:black;stroke-width:1;fill-opacity:1;stroke-opacity:0.3" />
<rect x="699" y="9" width="63" height="5" style="fill:#53a1b5;stroke:black;stroke-width:1;fill-opacity:1;stroke-opacity:0.3" />
<rect x="808" y="9" width="3" height="5" style="fill:#53a1b5;stroke:black;stroke-width:1;fill-opacity:1;stroke-opacity:0.3" />
<rect x="812" y="9" width="4" height="5" style="fill:#f50002;stroke:black;stroke-width:1;fill-opacity:1;stroke-opacity:0.3" />
<rect x="930" y="9" width="12" height="5" style="fill:#f50002;stroke:black;stroke-width:1;fill-opacity:1;stroke-opacity:0.3" />
<text x="56"  y="23" style="font-family:Arial;font-size:10;stroke:black;fill:black;">Cre01.g009601.t1.1.v5.5 (+) chromosome_1:1784625-1786206</text>
<line x1="108" y1="30" x2="112" y2="32" stroke="black" stroke-width="1" />
<line x1="112" y1="32" x2="116" y2="30" stroke="black" stroke-width="1" />
<rect x="52" y="28" width="56" height="5" style="fill:#5d3c2d;stroke:black;stroke-width:1;fill-opacity:1;stroke-opacity:0.3" />
<rect x="116" y="28" width="55" height="5" style="fill:#5d3c2d;stroke:black;stroke-width:1;fill-opacity:1;stroke-opacity:0.3" />
<line x1="136" y1="37" x2="162" y2="39" stroke="black" stroke-width="1" />
<line x1="162" y1="39" x2="188" y2="37" stroke="black" stroke-width="1" />
<rect x="52" y="35" width="84" height="5" style="fill:#5d3c2d;stroke:black;stroke-width:1;fill-opacity:1;stroke-opacity:0.3" />
<rect x="188" y="35" width="83" height="5" style="fill:#5d3c2d;stroke:black;stroke-width:1;fill-opacity:1;stroke-opacity:0.3" />
<line x1="109" y1="44" x2="143" y2="46" stroke="black" stroke-width="1" />
<line x1="143" y1="46" x2="177" y2="44" stroke="black" stroke-width="1" />
<rect x="53" y="42" width="56" height="5" style="fill:#5d3c2d;stroke:black;stroke-width:1;fill-opacity:1;stroke-opacity:0.3" />
<rect x="177" y="42" width="56" height="5" style="fill:#5d3c2d;stroke:black;stroke-width:1;fill-opacity:1;stroke-opacity:0.3" />
<line x1="109" y1="51" x2="117" y2="53" stroke="black" stroke-width="1" />
<line x1="117" y1="53" x2="126" y2="51" stroke="black" stroke-width="1" />
<rect x="53" y="49" width="56" height="5" style="fill:#5d3c2d;stroke:black;stroke-width:1;fill-opacity:1;stroke-opacity:0.3" />
<rect x="126" y="49" width="56" height="5" style="fill:#5d3c2d;stroke:black;stroke-width:1;fill-opacity:1;stroke-opacity:0.3" />
<line x1="109" y1="58" x2="113" y2="60" stroke="black" stroke-width="1" />
<line x1="113" y1="60" x2="117" y2="58" stroke="black" stroke-width="1" />
<rect x="53" y="56" width="56" height="5" style="fill:#5d3c2d;stroke:black;stroke-width:1;fill-opacity:1;stroke-opacity:0.3" />
<rect x="117" y="56" width="56" height="5" style="fill:#5d3c2d;stroke:black;stroke-width:1;fill-opacity:1;stroke-opacity:0.3" />
<line x1="109" y1="65" x2="116" y2="67" stroke="black" stroke-width="1" />
<line x1="116" y1="67" x2="124" y2="65" stroke="black" stroke-width="1" />
<rect x="53" y="63" width="56" height="5" style="fill:#5d3c2d;stroke:black;stroke-width:1;fill-opacity:1;stroke-opacity:0.3" />
<rect x="124" y="63" width="56" height="5" style="fill:#5d3c2d;stroke:black;stroke-width:1;fill-opacity:1;stroke-opacity:0.3" />
<line x1="109" y1="72" x2="116" y2="74" stroke="black" stroke-width="1" />
<line x1="116" y1="74" x2="124" y2="72" stroke="black" stroke-width="1" />
<rect x="53" y="70" width="56" height="5" style="fill:#5d3c2d;stroke:black;stroke-width:1;fill-opacity:1;stroke-opacity:0.3" />
<rect x="124" y="70" width="56" height="5" style="fill:#5d3c2d;stroke:black;stroke-width:1;fill-opacity:1;stroke-opacity:0.3" />
<line x1="112" y1="79" x2="145" y2="81" stroke="black" stroke-width="1" />
<line x1="145" y1="81" x2="179" y2="79" stroke="black" stroke-width="1" />
<rect x="56" y="77" width="56" height="5" style="fill:#5d3c2d;stroke:black;stroke-width:1;fill-opacity:1;stroke-opacity:0.3" />
<rect x="179" y="77" width="56" height="5" style="fill:#5d3c2d;stroke:black;stroke-width:1;fill-opacity:1;stroke-opacity:0.3" />
<line x1="112" y1="86" x2="145" y2="88" stroke="black" stroke-width="1" />
<line x1="145" y1="88" x2="179" y2="86" stroke="black" stroke-width="1" />
<rect x="56" y="84" width="56" height="5" style="fill:#5d3c2d;stroke:black;stroke-width:1;fill-opacity:1;stroke-opacity:0.3" />
<rect x="179" y="84" width="56" height="5" style="fill:#5d3c2d;stroke:black;stroke-width:1;fill-opacity:1;stroke-opacity:0.3" />
<line x1="113" y1="93" x2="126" y2="95" stroke="black" stroke-width="1" />
<line x1="126" y1="95" x2="140" y2="93" stroke="black" stroke-width="1" />
<rect x="57" y="91" width="56" height="5" style="fill:#5d3c2d;stroke:black;stroke-width:1;fill-opacity:1;stroke-opacity:0.3" />
<rect x="140" y="91" width="56" height="5" style="fill:#5d3c2d;stroke:black;stroke-width:1;fill-opacity:1;stroke-opacity:0.3" />
<line x1="116" y1="100" x2="120" y2="102" stroke="black" stroke-width="1" />
<line x1="120" y1="102" x2="124" y2="100" stroke="black" stroke-width="1" />
<rect x="60" y="98" width="56" height="5" style="fill:#5d3c2d;stroke:black;stroke-width:1;fill-opacity:1;stroke-opacity:0.3" />
<rect x="124" y="98" width="56" height="5" style="fill:#5d3c2d;stroke:black;stroke-width:1;fill-opacity:1;stroke-opacity:0.3" />
<line x1="122" y1="107" x2="128" y2="109" stroke="black" stroke-width="1" />
<line x1="128" y1="109" x2="134" y2="107" stroke="black" stroke-width="1" />
<rect x="66" y="105" width="55" height="5" style="fill:#f5b024;stroke:black;stroke-width:1;fill-opacity:1;stroke-opacity:0.3" />
<rect x="134" y="105" width="56" height="5" style="fill:#f5b024;stroke:black;stroke-width:1;fill-opacity:1;stroke-opacity:0.3" />
<line x1="122" y1="114" x2="128" y2="116" stroke="black" stroke-width="1" />
<line x1="128" y1="116" x2="134" y2="114" stroke="black" stroke-width="1" />
<rect x="66" y="112" width="55" height="5" style="fill:#f5b024;stroke:black;stroke-width:1;fill-opacity:1;stroke-opacity:0.3" />
<rect x="134" y="112" width="56" height="5" style="fill:#f5b024;stroke:black;stroke-width:1;fill-opacity:1;stroke-opacity:0.3" />
<line x1="152" y1="121" x2="157" y2="123" stroke="black" stroke-width="1" />
<line x1="157" y1="123" x2="163" y2="121" stroke="black" stroke-width="1" />
<rect x="67" y="119" width="84" height="5" style="fill:#5d3c2d;stroke:black;stroke-width:1;fill-opacity:1;stroke-opacity:0.3" />
<rect x="163" y="119" width="84" height="5" style="fill:#5d3c2d;stroke:black;stroke-width:1;fill-opacity:1;stroke-opacity:0.3" />
<line x1="125" y1="128" x2="156" y2="130" stroke="black" stroke-width="1" />
<line x1="156" y1="130" x2="188" y2="128" stroke="black" stroke-width="1" />
<rect x="69" y="126" width="56" height="5" style="fill:#5d3c2d;stroke:black;stroke-width:1;fill-opacity:1;stroke-opacity:0.3" />
<rect x="188" y="126" width="56" height="5" style="fill:#5d3c2d;stroke:black;stroke-width:1;fill-opacity:1;stroke-opacity:0.3" />
<line x1="135" y1="135" x2="163" y2="137" stroke="black" stroke-width="1" />
<line x1="163" y1="137" x2="191" y2="135" stroke="black" stroke-width="1" />
<rect x="79" y="133" width="56" height="5" style="fill:#5d3c2d;stroke:black;stroke-width:1;fill-opacity:1;stroke-opacity:0.3" />
<rect x="191" y="133" width="56" height="5" style="fill:#5d3c2d;stroke:black;stroke-width:1;fill-opacity:1;stroke-opacity:0.3" />
<line x1="140" y1="142" x2="151" y2="144" stroke="black" stroke-width="1" />
<line x1="151" y1="144" x2="162" y2="142" stroke="black" stroke-width="1" />
<rect x="84" y="140" width="56" height="5" style="fill:#5d3c2d;stroke:black;stroke-width:1;fill-opacity:1;stroke-opacity:0.3" />
<rect x="162" y="140" width="56" height="5" style="fill:#5d3c2d;stroke:black;stroke-width:1;fill-opacity:1;stroke-opacity:0.3" />
<line x1="145" y1="149" x2="162" y2="151" stroke="black" stroke-width="1" />
<line x1="162" y1="151" x2="179" y2="149" stroke="black" stroke-width="1" />
<rect x="89" y="147" width="56" height="5" style="fill:#5d3c2d;stroke:black;stroke-width:1;fill-opacity:1;stroke-opacity:0.3" />
<rect x="179" y="147" width="56" height="5" style="fill:#5d3c2d;stroke:black;stroke-width:1;fill-opacity:1;stroke-opacity:0.3" />
<line x1="150" y1="156" x2="155" y2="158" stroke="black" stroke-width="1" />
<line x1="155" y1="158" x2="160" y2="156" stroke="black" stroke-width="1" />
<rect x="94" y="154" width="56" height="5" style="fill:#5d3c2d;stroke:black;stroke-width:1;fill-opacity:1;stroke-opacity:0.3" />
<rect x="160" y="154" width="56" height="5" style="fill:#5d3c2d;stroke:black;stroke-width:1;fill-opacity:1;stroke-opacity:0.3" />
<line x1="160" y1="163" x2="191" y2="165" stroke="black" stroke-width="1" />
<line x1="191" y1="165" x2="222" y2="163" stroke="black" stroke-width="1" />
<rect x="104" y="161" width="56" height="5" style="fill:#5d3c2d;stroke:black;stroke-width:1;fill-opacity:1;stroke-opacity:0.3" />
<rect x="222" y="161" width="49" height="5" style="fill:#5d3c2d;stroke:black;stroke-width:1;fill-opacity:1;stroke-opacity:0.3" />
<line x1="271" y1="163" x2="336" y2="163" stroke="pink" stroke-width="1" />
<rect x="336" y="161" width="6" height="5" style="fill:#5d3c2d;stroke:black;stroke-width:1;fill-opacity:1;stroke-opacity:0.3" />
<line x1="232" y1="30" x2="245" y2="32" stroke="black" stroke-width="1" />
<line x1="245" y1="32" x2="258" y2="30" stroke="black" stroke-width="1" />
<rect x="176" y="28" width="56" height="5" style="fill:#5d3c2d;stroke:black;stroke-width:1;fill-opacity:1;stroke-opacity:0.3" />
<rect x="258" y="28" width="12" height="5" style="fill:#5d3c2d;stroke:black;stroke-width:1;fill-opacity:1;stroke-opacity:0.3" />
<line x1="271" y1="30" x2="336" y2="30" stroke="pink" stroke-width="1" />
<rect x="336" y="28" width="43" height="5" style="fill:#5d3c2d;stroke:black;stroke-width:1;fill-opacity:1;stroke-opacity:0.3" />
<line x1="260" y1="58" x2="298" y2="60" stroke="black" stroke-width="1" />
<line x1="298" y1="60" x2="336" y2="58" stroke="black" stroke-width="1" />
<rect x="176" y="56" width="84" height="5" style="fill:#5d3c2d;stroke:black;stroke-width:1;fill-opacity:1;stroke-opacity:0.3" />
<rect x="336" y="56" width="83" height="5" style="fill:#5d3c2d;stroke:black;stroke-width:1;fill-opacity:1;stroke-opacity:0.3" />
<line x1="419" y1="58" x2="497" y2="58" stroke="pink" stroke-width="1" />
<rect x="497" y="56" width="1" height="5" style="fill:#5d3c2d;stroke:black;stroke-width:1;fill-opacity:1;stroke-opacity:0.3" />
<line x1="236" y1="65" x2="287" y2="67" stroke="black" stroke-width="1" />
<line x1="287" y1="67" x2="339" y2="65" stroke="black" stroke-width="1" />
<rect x="181" y="63" width="55" height="5" style="fill:#5d3c2d;stroke:black;stroke-width:1;fill-opacity:1;stroke-opacity:0.3" />
<rect x="339" y="63" width="55" height="5" style="fill:#5d3c2d;stroke:black;stroke-width:1;fill-opacity:1;stroke-opacity:0.3" />
<line x1="239" y1="51" x2="291" y2="53" stroke="black" stroke-width="1" />
<line x1="291" y1="53" x2="343" y2="51" stroke="black" stroke-width="1" />
<rect x="182" y="49" width="56" height="5" style="fill:#5d3c2d;stroke:black;stroke-width:1;fill-opacity:1;stroke-opacity:0.3" />
<rect x="343" y="49" width="30" height="5" style="fill:#5d3c2d;stroke:black;stroke-width:1;fill-opacity:1;stroke-opacity:0.3" />
<line x1="374" y1="51" x2="497" y2="51" stroke="pink" stroke-width="1" />
<rect x="497" y="49" width="25" height="5" style="fill:#5d3c2d;stroke:black;stroke-width:1;fill-opacity:1;stroke-opacity:0.3" />
<line x1="240" y1="72" x2="289" y2="74" stroke="black" stroke-width="1" />
<line x1="289" y1="74" x2="339" y2="72" stroke="black" stroke-width="1" />
<rect x="184" y="70" width="56" height="5" style="fill:#5d3c2d;stroke:black;stroke-width:1;fill-opacity:1;stroke-opacity:0.3" />
<rect x="339" y="70" width="55" height="5" style="fill:#5d3c2d;stroke:black;stroke-width:1;fill-opacity:1;stroke-opacity:0.3" />
<line x1="268" y1="100" x2="302" y2="102" stroke="black" stroke-width="1" />
<line x1="302" y1="102" x2="336" y2="100" stroke="black" stroke-width="1" />
<rect x="184" y="98" width="84" height="5" style="fill:#5d3c2d;stroke:black;stroke-width:1;fill-opacity:1;stroke-opacity:0.3" />
<rect x="336" y="98" width="83" height="5" style="fill:#5d3c2d;stroke:black;stroke-width:1;fill-opacity:1;stroke-opacity:0.3" />
<line x1="253" y1="93" x2="301" y2="95" stroke="black" stroke-width="1" />
<line x1="301" y1="95" x2="350" y2="93" stroke="black" stroke-width="1" />
<rect x="197" y="91" width="56" height="5" style="fill:#5d3c2d;stroke:black;stroke-width:1;fill-opacity:1;stroke-opacity:0.3" />
<rect x="350" y="91" width="55" height="5" style="fill:#5d3c2d;stroke:black;stroke-width:1;fill-opacity:1;stroke-opacity:0.3" />
<line x1="258" y1="107" x2="307" y2="109" stroke="black" stroke-width="1" />
<line x1="307" y1="109" x2="356" y2="107" stroke="black" stroke-width="1" />
<rect x="202" y="105" width="56" height="5" style="fill:#5d3c2d;stroke:black;stroke-width:1;fill-opacity:1;stroke-opacity:0.3" />
<rect x="356" y="105" width="54" height="5" style="fill:#5d3c2d;stroke:black;stroke-width:1;fill-opacity:1;stroke-opacity:0.3" />
<line x1="258" y1="114" x2="307" y2="116" stroke="black" stroke-width="1" />
<line x1="307" y1="116" x2="356" y2="114" stroke="black" stroke-width="1" />
<rect x="202" y="112" width="56" height="5" style="fill:#5d3c2d;stroke:black;stroke-width:1;fill-opacity:1;stroke-opacity:0.3" />
<rect x="356" y="112" width="54" height="5" style="fill:#5d3c2d;stroke:black;stroke-width:1;fill-opacity:1;stroke-opacity:0.3" />
<line x1="370" y1="142" x2="407" y2="144" stroke="black" stroke-width="1" />
<line x1="407" y1="144" x2="444" y2="142" stroke="black" stroke-width="1" />
<rect x="222" y="140" width="49" height="5" style="fill:#5d3c2d;stroke:black;stroke-width:1;fill-opacity:1;stroke-opacity:0.3" />
<line x1="271" y1="142" x2="336" y2="142" stroke="pink" stroke-width="1" />
<rect x="336" y="140" width="34" height="5" style="fill:#5d3c2d;stroke:black;stroke-width:1;fill-opacity:1;stroke-opacity:0.3" />
<rect x="444" y="140" width="84" height="5" style="fill:#5d3c2d;stroke:black;stroke-width:1;fill-opacity:1;stroke-opacity:0.3" />
<line x1="350" y1="156" x2="361" y2="158" stroke="black" stroke-width="1" />
<line x1="361" y1="158" x2="372" y2="156" stroke="black" stroke-width="1" />
<rect x="229" y="154" width="42" height="5" style="fill:#5d3c2d;stroke:black;stroke-width:1;fill-opacity:1;stroke-opacity:0.3" />
<line x1="271" y1="156" x2="336" y2="156" stroke="pink" stroke-width="1" />
<rect x="336" y="154" width="14" height="5" style="fill:#5d3c2d;stroke:black;stroke-width:1;fill-opacity:1;stroke-opacity:0.3" />
<rect x="372" y="154" width="7" height="5" style="fill:#5d3c2d;stroke:black;stroke-width:1;fill-opacity:1;stroke-opacity:0.3" />
<rect x="379" y="154" width="48" height="5" style="fill:#5d3c2d;stroke:black;stroke-width:1;fill-opacity:1;stroke-opacity:0.3" />
<line x1="355" y1="44" x2="364" y2="46" stroke="black" stroke-width="1" />
<line x1="364" y1="46" x2="373" y2="44" stroke="black" stroke-width="1" />
<rect x="234" y="42" width="37" height="5" style="fill:#5d3c2d;stroke:black;stroke-width:1;fill-opacity:1;stroke-opacity:0.3" />
<line x1="271" y1="44" x2="336" y2="44" stroke="pink" stroke-width="1" />
<rect x="336" y="42" width="19" height="5" style="fill:#5d3c2d;stroke:black;stroke-width:1;fill-opacity:1;stroke-opacity:0.3" />
<rect x="373" y="42" width="56" height="5" style="fill:#5d3c2d;stroke:black;stroke-width:1;fill-opacity:1;stroke-opacity:0.3" />
<line x1="352" y1="149" x2="358" y2="151" stroke="black" stroke-width="1" />
<line x1="358" y1="151" x2="364" y2="149" stroke="black" stroke-width="1" />
<rect x="235" y="147" width="36" height="5" style="fill:#5d3c2d;stroke:black;stroke-width:1;fill-opacity:1;stroke-opacity:0.3" />
<line x1="271" y1="149" x2="336" y2="149" stroke="pink" stroke-width="1" />
<rect x="336" y="147" width="16" height="5" style="fill:#5d3c2d;stroke:black;stroke-width:1;fill-opacity:1;stroke-opacity:0.3" />
<rect x="364" y="147" width="55" height="5" style="fill:#5d3c2d;stroke:black;stroke-width:1;fill-opacity:1;stroke-opacity:0.3" />
<line x1="419" y1="149" x2="497" y2="149" stroke="pink" stroke-width="1" />
<rect x="497" y="147" width="0" height="5" style="fill:#5d3c2d;stroke:black;stroke-width:1;fill-opacity:1;stroke-opacity:0.3" />
<line x1="356" y1="79" x2="362" y2="81" stroke="black" stroke-width="1" />
<line x1="362" y1="81" x2="369" y2="79" stroke="black" stroke-width="1" />
<rect x="235" y="77" width="35" height="5" style="fill:#5d3c2d;stroke:black;stroke-width:1;fill-opacity:1;stroke-opacity:0.3" />
<line x1="271" y1="79" x2="336" y2="79" stroke="pink" stroke-width="1" />
<rect x="336" y="77" width="20" height="5" style="fill:#5d3c2d;stroke:black;stroke-width:1;fill-opacity:1;stroke-opacity:0.3" />
<rect x="369" y="77" width="56" height="5" style="fill:#5d3c2d;stroke:black;stroke-width:1;fill-opacity:1;stroke-opacity:0.3" />
<line x1="366" y1="86" x2="369" y2="88" stroke="black" stroke-width="1" />
<line x1="369" y1="88" x2="372" y2="86" stroke="black" stroke-width="1" />
<rect x="245" y="84" width="25" height="5" style="fill:#5d3c2d;stroke:black;stroke-width:1;fill-opacity:1;stroke-opacity:0.3" />
<line x1="271" y1="86" x2="336" y2="86" stroke="pink" stroke-width="1" />
<rect x="336" y="84" width="30" height="5" style="fill:#5d3c2d;stroke:black;stroke-width:1;fill-opacity:1;stroke-opacity:0.3" />
<rect x="372" y="84" width="47" height="5" style="fill:#5d3c2d;stroke:black;stroke-width:1;fill-opacity:1;stroke-opacity:0.3" />
<line x1="419" y1="86" x2="497" y2="86" stroke="pink" stroke-width="1" />
<rect x="497" y="84" width="8" height="5" style="fill:#5d3c2d;stroke:black;stroke-width:1;fill-opacity:1;stroke-opacity:0.3" />
<line x1="396" y1="121" x2="402" y2="123" stroke="black" stroke-width="1" />
<line x1="402" y1="123" x2="408" y2="121" stroke="black" stroke-width="1" />
<rect x="247" y="119" width="24" height="5" style="fill:#5d3c2d;stroke:black;stroke-width:1;fill-opacity:1;stroke-opacity:0.3" />
<line x1="271" y1="121" x2="336" y2="121" stroke="pink" stroke-width="1" />
<rect x="336" y="119" width="60" height="5" style="fill:#5d3c2d;stroke:black;stroke-width:1;fill-opacity:1;stroke-opacity:0.3" />
<rect x="408" y="119" width="11" height="5" style="fill:#5d3c2d;stroke:black;stroke-width:1;fill-opacity:1;stroke-opacity:0.3" />
<line x1="419" y1="121" x2="497" y2="121" stroke="pink" stroke-width="1" />
<rect x="497" y="119" width="40" height="5" style="fill:#5d3c2d;stroke:black;stroke-width:1;fill-opacity:1;stroke-opacity:0.3" />
<line x1="537" y1="121" x2="693" y2="121" stroke="pink" stroke-width="1" />
<rect x="693" y="119" width="32" height="5" style="fill:#5d3c2d;stroke:black;stroke-width:1;fill-opacity:1;stroke-opacity:0.3" />
<line x1="381" y1="128" x2="387" y2="130" stroke="black" stroke-width="1" />
<line x1="387" y1="130" x2="393" y2="128" stroke="black" stroke-width="1" />
<rect x="260" y="126" width="11" height="5" style="fill:#5d3c2d;stroke:black;stroke-width:1;fill-opacity:1;stroke-opacity:0.3" />
<line x1="271" y1="128" x2="336" y2="128" stroke="pink" stroke-width="1" />
<rect x="336" y="126" width="44" height="5" style="fill:#5d3c2d;stroke:black;stroke-width:1;fill-opacity:1;stroke-opacity:0.3" />
<rect x="393" y="126" width="56" height="5" style="fill:#5d3c2d;stroke:black;stroke-width:1;fill-opacity:1;stroke-opacity:0.3" />
<line x1="381" y1="135" x2="389" y2="137" stroke="black" stroke-width="1" />
<line x1="389" y1="137" x2="398" y2="135" stroke="black" stroke-width="1" />
<rect x="260" y="133" width="11" height="5" style="fill:#5d3c2d;stroke:black;stroke-width:1;fill-opacity:1;stroke-opacity:0.3" />
<line x1="271" y1="135" x2="336" y2="135" stroke="pink" stroke-width="1" />
<rect x="336" y="133" width="44" height="5" style="fill:#5d3c2d;stroke:black;stroke-width:1;fill-opacity:1;stroke-opacity:0.3" />
<rect x="398" y="133" width="56" height="5" style="fill:#5d3c2d;stroke:black;stroke-width:1;fill-opacity:1;stroke-opacity:0.3" />
<line x1="503" y1="37" x2="510" y2="39" stroke="black" stroke-width="1" />
<line x1="510" y1="39" x2="518" y2="37" stroke="black" stroke-width="1" />
<rect x="342" y="35" width="77" height="5" style="fill:#5d3c2d;stroke:black;stroke-width:1;fill-opacity:1;stroke-opacity:0.3" />
<line x1="419" y1="37" x2="497" y2="37" stroke="pink" stroke-width="1" />
<rect x="497" y="35" width="6" height="5" style="fill:#5d3c2d;stroke:black;stroke-width:1;fill-opacity:1;stroke-opacity:0.3" />
<rect x="518" y="35" width="19" height="5" style="fill:#5d3c2d;stroke:black;stroke-width:1;fill-opacity:1;stroke-opacity:0.3" />
<line x1="537" y1="37" x2="693" y2="37" stroke="pink" stroke-width="1" />
<rect x="693" y="35" width="65" height="5" style="fill:#5d3c2d;stroke:black;stroke-width:1;fill-opacity:1;stroke-opacity:0.3" />
<line x1="398" y1="163" x2="449" y2="165" stroke="black" stroke-width="1" />
<line x1="449" y1="165" x2="501" y2="163" stroke="black" stroke-width="1" />
<rect x="342" y="161" width="56" height="5" style="fill:#5d3c2d;stroke:black;stroke-width:1;fill-opacity:1;stroke-opacity:0.3" />
<rect x="501" y="161" width="36" height="5" style="fill:#5d3c2d;stroke:black;stroke-width:1;fill-opacity:1;stroke-opacity:0.3" />
<line x1="537" y1="163" x2="693" y2="163" stroke="pink" stroke-width="1" />
<rect x="693" y="161" width="19" height="5" style="fill:#5d3c2d;stroke:black;stroke-width:1;fill-opacity:1;stroke-opacity:0.3" />
<line x1="434" y1="30" x2="453" y2="32" stroke="black" stroke-width="1" />
<line x1="453" y1="32" x2="472" y2="30" stroke="black" stroke-width="1" />
<rect x="379" y="28" width="55" height="5" style="fill:#5d3c2d;stroke:black;stroke-width:1;fill-opacity:1;stroke-opacity:0.3" />
<rect x="472" y="28" width="56" height="5" style="fill:#5d3c2d;stroke:black;stroke-width:1;fill-opacity:1;stroke-opacity:0.3" />
<line x1="697" y1="65" x2="703" y2="67" stroke="black" stroke-width="1" />
<line x1="703" y1="67" x2="710" y2="65" stroke="black" stroke-width="1" />
<rect x="407" y="63" width="11" height="5" style="fill:#5d3c2d;stroke:black;stroke-width:1;fill-opacity:1;stroke-opacity:0.3" />
<line x1="419" y1="65" x2="497" y2="65" stroke="pink" stroke-width="1" />
<rect x="497" y="63" width="40" height="5" style="fill:#5d3c2d;stroke:black;stroke-width:1;fill-opacity:1;stroke-opacity:0.3" />
<line x1="537" y1="65" x2="693" y2="65" stroke="pink" stroke-width="1" />
<rect x="693" y="63" width="3" height="5" style="fill:#5d3c2d;stroke:black;stroke-width:1;fill-opacity:1;stroke-opacity:0.3" />
<rect x="710" y="63" width="56" height="5" style="fill:#5d3c2d;stroke:black;stroke-width:1;fill-opacity:1;stroke-opacity:0.3" />
<line x1="702" y1="72" x2="712" y2="74" stroke="black" stroke-width="1" />
<line x1="712" y1="74" x2="722" y2="72" stroke="black" stroke-width="1" />
<rect x="413" y="70" width="6" height="5" style="fill:#5d3c2d;stroke:black;stroke-width:1;fill-opacity:1;stroke-opacity:0.3" />
<line x1="419" y1="72" x2="497" y2="72" stroke="pink" stroke-width="1" />
<rect x="497" y="70" width="40" height="5" style="fill:#5d3c2d;stroke:black;stroke-width:1;fill-opacity:1;stroke-opacity:0.3" />
<line x1="537" y1="72" x2="693" y2="72" stroke="pink" stroke-width="1" />
<rect x="693" y="70" width="8" height="5" style="fill:#5d3c2d;stroke:black;stroke-width:1;fill-opacity:1;stroke-opacity:0.3" />
<rect x="722" y="70" width="53" height="5" style="fill:#5d3c2d;stroke:black;stroke-width:1;fill-opacity:1;stroke-opacity:0.3" />
<line x1="552" y1="93" x2="569" y2="95" stroke="black" stroke-width="1" />
<line x1="569" y1="95" x2="587" y2="93" stroke="black" stroke-width="1" />
<rect x="419" y="91" width="0" height="5" style="fill:#5d3c2d;stroke:black;stroke-width:1;fill-opacity:1;stroke-opacity:0.3" />
<line x1="419" y1="93" x2="497" y2="93" stroke="pink" stroke-width="1" />
<rect x="497" y="91" width="55" height="5" style="fill:#5d3c2d;stroke:black;stroke-width:1;fill-opacity:1;stroke-opacity:0.3" />
<rect x="587" y="91" width="56" height="5" style="fill:#5d3c2d;stroke:black;stroke-width:1;fill-opacity:1;stroke-opacity:0.3" />
<line x1="497" y1="44" x2="503" y2="46" stroke="black" stroke-width="1" />
<line x1="503" y1="46" x2="510" y2="44" stroke="black" stroke-width="1" />
<rect x="441" y="42" width="56" height="5" style="fill:#5d3c2d;stroke:black;stroke-width:1;fill-opacity:1;stroke-opacity:0.3" />
<rect x="510" y="42" width="26" height="5" style="fill:#5d3c2d;stroke:black;stroke-width:1;fill-opacity:1;stroke-opacity:0.3" />
<line x1="537" y1="44" x2="693" y2="44" stroke="pink" stroke-width="1" />
<rect x="693" y="42" width="29" height="5" style="fill:#5d3c2d;stroke:black;stroke-width:1;fill-opacity:1;stroke-opacity:0.3" />
<line x1="516" y1="79" x2="525" y2="81" stroke="black" stroke-width="1" />
<line x1="525" y1="81" x2="535" y2="79" stroke="black" stroke-width="1" />
<rect x="460" y="77" width="56" height="5" style="fill:#5d3c2d;stroke:black;stroke-width:1;fill-opacity:1;stroke-opacity:0.3" />
<rect x="535" y="77" width="1" height="5" style="fill:#5d3c2d;stroke:black;stroke-width:1;fill-opacity:1;stroke-opacity:0.3" />
<line x1="537" y1="79" x2="699" y2="79" stroke="pink" stroke-width="1" />
<rect x="699" y="77" width="54" height="5" style="fill:#5d3c2d;stroke:black;stroke-width:1;fill-opacity:1;stroke-opacity:0.3" />
<line x1="519" y1="100" x2="613" y2="102" stroke="black" stroke-width="1" />
<line x1="613" y1="102" x2="707" y2="100" stroke="black" stroke-width="1" />
<rect x="462" y="98" width="56" height="5" style="fill:#5d3c2d;stroke:black;stroke-width:1;fill-opacity:1;stroke-opacity:0.3" />
<rect x="707" y="98" width="56" height="5" style="fill:#5d3c2d;stroke:black;stroke-width:1;fill-opacity:1;stroke-opacity:0.3" />
<line x1="519" y1="107" x2="613" y2="109" stroke="black" stroke-width="1" />
<line x1="613" y1="109" x2="707" y2="107" stroke="black" stroke-width="1" />
<rect x="462" y="105" width="56" height="5" style="fill:#5d3c2d;stroke:black;stroke-width:1;fill-opacity:1;stroke-opacity:0.3" />
<rect x="707" y="105" width="56" height="5" style="fill:#5d3c2d;stroke:black;stroke-width:1;fill-opacity:1;stroke-opacity:0.3" />
<line x1="529" y1="114" x2="601" y2="116" stroke="black" stroke-width="1" />
<line x1="601" y1="116" x2="673" y2="114" stroke="black" stroke-width="1" />
<rect x="473" y="112" width="56" height="5" style="fill:#5d3c2d;stroke:black;stroke-width:1;fill-opacity:1;stroke-opacity:0.3" />
<rect x="673" y="112" width="55" height="5" style="fill:#5d3c2d;stroke:black;stroke-width:1;fill-opacity:1;stroke-opacity:0.3" />
<line x1="701" y1="128" x2="706" y2="130" stroke="black" stroke-width="1" />
<line x1="706" y1="130" x2="711" y2="128" stroke="black" stroke-width="1" />
<rect x="489" y="126" width="48" height="5" style="fill:#5d3c2d;stroke:black;stroke-width:1;fill-opacity:1;stroke-opacity:0.3" />
<line x1="537" y1="128" x2="693" y2="128" stroke="pink" stroke-width="1" />
<rect x="693" y="126" width="7" height="5" style="fill:#5d3c2d;stroke:black;stroke-width:1;fill-opacity:1;stroke-opacity:0.3" />
<rect x="711" y="126" width="55" height="5" style="fill:#5d3c2d;stroke:black;stroke-width:1;fill-opacity:1;stroke-opacity:0.3" />
<line x1="730" y1="135" x2="737" y2="137" stroke="black" stroke-width="1" />
<line x1="737" y1="137" x2="745" y2="135" stroke="black" stroke-width="1" />
<rect x="491" y="133" width="46" height="5" style="fill:#5d3c2d;stroke:black;stroke-width:1;fill-opacity:1;stroke-opacity:0.3" />
<line x1="537" y1="135" x2="693" y2="135" stroke="pink" stroke-width="1" />
<rect x="693" y="133" width="37" height="5" style="fill:#5d3c2d;stroke:black;stroke-width:1;fill-opacity:1;stroke-opacity:0.3" />
<rect x="745" y="133" width="71" height="5" style="fill:#5d3c2d;stroke:black;stroke-width:1;fill-opacity:1;stroke-opacity:0.3" />
<line x1="817" y1="135" x2="930" y2="135" stroke="pink" stroke-width="1" />
<rect x="930" y="133" width="12" height="5" style="fill:#5d3c2d;stroke:black;stroke-width:1;fill-opacity:1;stroke-opacity:0.3" />
<line x1="712" y1="58" x2="721" y2="60" stroke="black" stroke-width="1" />
<line x1="721" y1="60" x2="731" y2="58" stroke="black" stroke-width="1" />
<rect x="500" y="56" width="37" height="5" style="fill:#5d3c2d;stroke:black;stroke-width:1;fill-opacity:1;stroke-opacity:0.3" />
<line x1="537" y1="58" x2="693" y2="58" stroke="pink" stroke-width="1" />
<rect x="693" y="56" width="18" height="5" style="fill:#5d3c2d;stroke:black;stroke-width:1;fill-opacity:1;stroke-opacity:0.3" />
<rect x="731" y="56" width="56" height="5" style="fill:#5d3c2d;stroke:black;stroke-width:1;fill-opacity:1;stroke-opacity:0.3" />
<line x1="722" y1="86" x2="726" y2="88" stroke="black" stroke-width="1" />
<line x1="726" y1="88" x2="731" y2="86" stroke="black" stroke-width="1" />
<rect x="510" y="84" width="26" height="5" style="fill:#5d3c2d;stroke:black;stroke-width:1;fill-opacity:1;stroke-opacity:0.3" />
<line x1="537" y1="86" x2="693" y2="86" stroke="pink" stroke-width="1" />
<rect x="693" y="84" width="29" height="5" style="fill:#5d3c2d;stroke:black;stroke-width:1;fill-opacity:1;stroke-opacity:0.3" />
<rect x="731" y="84" width="56" height="5" style="fill:#5d3c2d;stroke:black;stroke-width:1;fill-opacity:1;stroke-opacity:0.3" />
<line x1="731" y1="149" x2="747" y2="151" stroke="black" stroke-width="1" />
<line x1="747" y1="151" x2="764" y2="149" stroke="black" stroke-width="1" />
<rect x="519" y="147" width="17" height="5" style="fill:#5d3c2d;stroke:black;stroke-width:1;fill-opacity:1;stroke-opacity:0.3" />
<line x1="537" y1="149" x2="693" y2="149" stroke="pink" stroke-width="1" />
<rect x="693" y="147" width="38" height="5" style="fill:#5d3c2d;stroke:black;stroke-width:1;fill-opacity:1;stroke-opacity:0.3" />
<rect x="764" y="147" width="52" height="5" style="fill:#5d3c2d;stroke:black;stroke-width:1;fill-opacity:1;stroke-opacity:0.3" />
<line x1="817" y1="149" x2="930" y2="149" stroke="pink" stroke-width="1" />
<rect x="930" y="147" width="3" height="5" style="fill:#5d3c2d;stroke:black;stroke-width:1;fill-opacity:1;stroke-opacity:0.3" />
<line x1="740" y1="51" x2="749" y2="53" stroke="black" stroke-width="1" />
<line x1="749" y1="53" x2="758" y2="51" stroke="black" stroke-width="1" />
<rect x="523" y="49" width="14" height="5" style="fill:#5d3c2d;stroke:black;stroke-width:1;fill-opacity:1;stroke-opacity:0.3" />
<line x1="537" y1="51" x2="699" y2="51" stroke="pink" stroke-width="1" />
<rect x="699" y="49" width="41" height="5" style="fill:#5d3c2d;stroke:black;stroke-width:1;fill-opacity:1;stroke-opacity:0.3" />
<rect x="758" y="49" width="56" height="5" style="fill:#5d3c2d;stroke:black;stroke-width:1;fill-opacity:1;stroke-opacity:0.3" />
<line x1="776" y1="30" x2="779" y2="32" stroke="black" stroke-width="1" />
<line x1="779" y1="32" x2="783" y2="30" stroke="black" stroke-width="1" />
<rect x="536" y="28" width="1" height="5" style="fill:#f5b024;stroke:black;stroke-width:1;fill-opacity:1;stroke-opacity:0.3" />
<line x1="537" y1="30" x2="693" y2="30" stroke="pink" stroke-width="1" />
<rect x="693" y="28" width="83" height="5" style="fill:#f5b024;stroke:black;stroke-width:1;fill-opacity:1;stroke-opacity:0.3" />
<rect x="783" y="28" width="34" height="5" style="fill:#f5b024;stroke:black;stroke-width:1;fill-opacity:1;stroke-opacity:0.3" />
<line x1="817" y1="30" x2="930" y2="30" stroke="pink" stroke-width="1" />
<rect x="930" y="28" width="49" height="5" style="fill:#f5b024;stroke:black;stroke-width:1;fill-opacity:1;stroke-opacity:0.3" />
<line x1="716" y1="142" x2="723" y2="144" stroke="black" stroke-width="1" />
<line x1="723" y1="144" x2="731" y2="142" stroke="black" stroke-width="1" />
<rect x="631" y="140" width="84" height="5" style="fill:#5d3c2d;stroke:black;stroke-width:1;fill-opacity:1;stroke-opacity:0.3" />
<rect x="731" y="140" width="83" height="5" style="fill:#5d3c2d;stroke:black;stroke-width:1;fill-opacity:1;stroke-opacity:0.3" />
<line x1="771" y1="93" x2="780" y2="95" stroke="black" stroke-width="1" />
<line x1="780" y1="95" x2="790" y2="93" stroke="black" stroke-width="1" />
<rect x="686" y="91" width="84" height="5" style="fill:#5d3c2d;stroke:black;stroke-width:1;fill-opacity:1;stroke-opacity:0.3" />
<rect x="790" y="91" width="26" height="5" style="fill:#5d3c2d;stroke:black;stroke-width:1;fill-opacity:1;stroke-opacity:0.3" />
<line x1="817" y1="93" x2="930" y2="93" stroke="pink" stroke-width="1" />
<rect x="930" y="91" width="57" height="5" style="fill:#5d3c2d;stroke:black;stroke-width:1;fill-opacity:1;stroke-opacity:0.3" />
<line x1="785" y1="156" x2="790" y2="158" stroke="black" stroke-width="1" />
<line x1="790" y1="158" x2="795" y2="156" stroke="black" stroke-width="1" />
<rect x="700" y="154" width="84" height="5" style="fill:#5d3c2d;stroke:black;stroke-width:1;fill-opacity:1;stroke-opacity:0.3" />
<rect x="795" y="154" width="21" height="5" style="fill:#5d3c2d;stroke:black;stroke-width:1;fill-opacity:1;stroke-opacity:0.3" />
<line x1="817" y1="156" x2="930" y2="156" stroke="pink" stroke-width="1" />
<rect x="930" y="154" width="62" height="5" style="fill:#5d3c2d;stroke:black;stroke-width:1;fill-opacity:1;stroke-opacity:0.3" />
<line x1="779" y1="44" x2="782" y2="46" stroke="black" stroke-width="1" />
<line x1="782" y1="46" x2="786" y2="44" stroke="black" stroke-width="1" />
<rect x="723" y="42" width="55" height="5" style="fill:#5d3c2d;stroke:black;stroke-width:1;fill-opacity:1;stroke-opacity:0.3" />
<rect x="786" y="42" width="31" height="5" style="fill:#5d3c2d;stroke:black;stroke-width:1;fill-opacity:1;stroke-opacity:0.3" />
<line x1="817" y1="44" x2="930" y2="44" stroke="pink" stroke-width="1" />
<rect x="930" y="42" width="24" height="5" style="fill:#5d3c2d;stroke:black;stroke-width:1;fill-opacity:1;stroke-opacity:0.3" />
<line x1="791" y1="114" x2="863" y2="116" stroke="black" stroke-width="1" />
<line x1="863" y1="116" x2="936" y2="114" stroke="black" stroke-width="1" />
<rect x="736" y="112" width="55" height="5" style="fill:#5d3c2d;stroke:black;stroke-width:1;fill-opacity:1;stroke-opacity:0.3" />
<rect x="936" y="112" width="55" height="5" style="fill:#5d3c2d;stroke:black;stroke-width:1;fill-opacity:1;stroke-opacity:0.3" />
<line x1="797" y1="121" x2="864" y2="123" stroke="black" stroke-width="1" />
<line x1="864" y1="123" x2="931" y2="121" stroke="black" stroke-width="1" />
<rect x="741" y="119" width="56" height="5" style="fill:#5d3c2d;stroke:black;stroke-width:1;fill-opacity:1;stroke-opacity:0.3" />
<rect x="931" y="119" width="56" height="5" style="fill:#5d3c2d;stroke:black;stroke-width:1;fill-opacity:1;stroke-opacity:0.3" />
<line x1="803" y1="163" x2="867" y2="165" stroke="black" stroke-width="1" />
<line x1="867" y1="165" x2="931" y2="163" stroke="black" stroke-width="1" />
<rect x="747" y="161" width="55" height="5" style="fill:#5d3c2d;stroke:black;stroke-width:1;fill-opacity:1;stroke-opacity:0.3" />
<rect x="931" y="161" width="56" height="5" style="fill:#5d3c2d;stroke:black;stroke-width:1;fill-opacity:1;stroke-opacity:0.3" />
<line x1="815" y1="37" x2="878" y2="39" stroke="black" stroke-width="1" />
<line x1="878" y1="39" x2="942" y2="37" stroke="black" stroke-width="1" />
<rect x="759" y="35" width="56" height="5" style="fill:#5d3c2d;stroke:black;stroke-width:1;fill-opacity:1;stroke-opacity:0.3" />
<rect x="942" y="35" width="56" height="5" style="fill:#5d3c2d;stroke:black;stroke-width:1;fill-opacity:1;stroke-opacity:0.3" />
<text x="15"  y="176" style="font-family:Arial;font-size:10;stroke:black;fill:black;">all.merged.bam</text>
</svg>
    
