<?xml version="1.0" encoding="utf-8" standalone="no"?>
<!DOCTYPE svg PUBLIC "-//W3C//DTD SVG 1.1//EN"
  "http://www.w3.org/Graphics/SVG/1.1/DTD/svg11.dtd">
<svg height="1140" width="1000" version="1.1" viewBox="0 0 1000 1140" xmlns="http://www.w3.org/2000/svg" xmlns:xlink="http://www.w3.org/1999/xlink">
<line x1="88" y1="11" x2="910" y2="11" stroke="black" stroke-width="1" />
<rect x="88" y="9" width="21" height="5" style="fill:#f50002;stroke:black;stroke-width:1;fill-opacity:1;stroke-opacity:0.3" />
<rect x="111" y="9" width="80" height="5" style="fill:#53a1b5;stroke:black;stroke-width:1;fill-opacity:1;stroke-opacity:0.3" />
<rect x="365" y="9" width="47" height="5" style="fill:#53a1b5;stroke:black;stroke-width:1;fill-opacity:1;stroke-opacity:0.3" />
<rect x="611" y="9" width="153" height="5" style="fill:#53a1b5;stroke:black;stroke-width:1;fill-opacity:1;stroke-opacity:0.3" />
<rect x="766" y="9" width="143" height="5" style="fill:#f50002;stroke:black;stroke-width:1;fill-opacity:1;stroke-opacity:0.3" />
<text x="88"  y="23" style="font-family:Arial;font-size:10;stroke:black;fill:black;">Cre14.g615250.t2.1.v5.5 (-) chromosome_14:1120700-1121625</text>
<line x1="107" y1="30" x2="140" y2="32" stroke="black" stroke-width="1" />
<line x1="140" y1="32" x2="173" y2="30" stroke="black" stroke-width="1" />
<rect x="19" y="28" width="87" height="5" style="fill:#f5b024;stroke:black;stroke-width:1;fill-opacity:1;stroke-opacity:0.3" />
<rect x="173" y="28" width="19" height="5" style="fill:#f5b024;stroke:black;stroke-width:1;fill-opacity:1;stroke-opacity:0.3" />
<line x1="192" y1="30" x2="365" y2="30" stroke="pink" stroke-width="1" />
<rect x="365" y="28" width="48" height="5" style="fill:#f5b024;stroke:black;stroke-width:1;fill-opacity:1;stroke-opacity:0.3" />
<line x1="413" y1="30" x2="611" y2="30" stroke="pink" stroke-width="1" />
<rect x="611" y="28" width="20" height="5" style="fill:#f5b024;stroke:black;stroke-width:1;fill-opacity:1;stroke-opacity:0.3" />
<line x1="106" y1="37" x2="115" y2="39" stroke="black" stroke-width="1" />
<line x1="115" y1="39" x2="125" y2="37" stroke="black" stroke-width="1" />
<rect x="19" y="35" width="87" height="5" style="fill:#f5b024;stroke:black;stroke-width:1;fill-opacity:1;stroke-opacity:0.3" />
<rect x="125" y="35" width="67" height="5" style="fill:#f5b024;stroke:black;stroke-width:1;fill-opacity:1;stroke-opacity:0.3" />
<line x1="192" y1="37" x2="365" y2="37" stroke="pink" stroke-width="1" />
<rect x="365" y="35" width="21" height="5" style="fill:#f5b024;stroke:black;stroke-width:1;fill-opacity:1;stroke-opacity:0.3" />
<line x1="116" y1="44" x2="145" y2="46" stroke="black" stroke-width="1" />
<line x1="145" y1="46" x2="174" y2="44" stroke="black" stroke-width="1" />
<rect x="27" y="42" width="88" height="5" style="fill:#f5b024;stroke:black;stroke-width:1;fill-opacity:1;stroke-opacity:0.3" />
<rect x="174" y="42" width="18" height="5" style="fill:#f5b024;stroke:black;stroke-width:1;fill-opacity:1;stroke-opacity:0.3" />
<line x1="192" y1="44" x2="365" y2="44" stroke="pink" stroke-width="1" />
<rect x="365" y="42" width="48" height="5" style="fill:#f5b024;stroke:black;stroke-width:1;fill-opacity:1;stroke-opacity:0.3" />
<line x1="413" y1="44" x2="611" y2="44" stroke="pink" stroke-width="1" />
<rect x="611" y="42" width="21" height="5" style="fill:#f5b024;stroke:black;stroke-width:1;fill-opacity:1;stroke-opacity:0.3" />
<line x1="163" y1="51" x2="167" y2="53" stroke="black" stroke-width="1" />
<line x1="167" y1="53" x2="172" y2="51" stroke="black" stroke-width="1" />
<rect x="30" y="49" width="133" height="5" style="fill:#f5b024;stroke:black;stroke-width:1;fill-opacity:1;stroke-opacity:0.3" />
<rect x="172" y="49" width="20" height="5" style="fill:#f5b024;stroke:black;stroke-width:1;fill-opacity:1;stroke-opacity:0.3" />
<line x1="192" y1="51" x2="365" y2="51" stroke="pink" stroke-width="1" />
<rect x="365" y="49" width="48" height="5" style="fill:#f5b024;stroke:black;stroke-width:1;fill-opacity:1;stroke-opacity:0.3" />
<line x1="413" y1="51" x2="611" y2="51" stroke="pink" stroke-width="1" />
<rect x="611" y="49" width="63" height="5" style="fill:#f5b024;stroke:black;stroke-width:1;fill-opacity:1;stroke-opacity:0.3" />
<line x1="119" y1="58" x2="139" y2="60" stroke="black" stroke-width="1" />
<line x1="139" y1="60" x2="159" y2="58" stroke="black" stroke-width="1" />
<rect x="31" y="56" width="87" height="5" style="fill:#f5b024;stroke:black;stroke-width:1;fill-opacity:1;stroke-opacity:0.3" />
<rect x="159" y="56" width="32" height="5" style="fill:#f5b024;stroke:black;stroke-width:1;fill-opacity:1;stroke-opacity:0.3" />
<line x1="192" y1="58" x2="365" y2="58" stroke="pink" stroke-width="1" />
<rect x="365" y="56" width="48" height="5" style="fill:#f5b024;stroke:black;stroke-width:1;fill-opacity:1;stroke-opacity:0.3" />
<line x1="413" y1="58" x2="611" y2="58" stroke="pink" stroke-width="1" />
<rect x="611" y="56" width="7" height="5" style="fill:#f5b024;stroke:black;stroke-width:1;fill-opacity:1;stroke-opacity:0.3" />
<line x1="167" y1="65" x2="271" y2="67" stroke="black" stroke-width="1" />
<line x1="271" y1="67" x2="375" y2="65" stroke="black" stroke-width="1" />
<rect x="34" y="63" width="133" height="5" style="fill:#f5b024;stroke:black;stroke-width:1;fill-opacity:1;stroke-opacity:0.3" />
<rect x="375" y="63" width="38" height="5" style="fill:#f5b024;stroke:black;stroke-width:1;fill-opacity:1;stroke-opacity:0.3" />
<line x1="413" y1="65" x2="611" y2="65" stroke="pink" stroke-width="1" />
<rect x="611" y="63" width="95" height="5" style="fill:#f5b024;stroke:black;stroke-width:1;fill-opacity:1;stroke-opacity:0.3" />
<line x1="170" y1="72" x2="176" y2="74" stroke="black" stroke-width="1" />
<line x1="176" y1="74" x2="182" y2="72" stroke="black" stroke-width="1" />
<rect x="37" y="70" width="133" height="5" style="fill:#f5b024;stroke:black;stroke-width:1;fill-opacity:1;stroke-opacity:0.3" />
<rect x="182" y="70" width="9" height="5" style="fill:#f5b024;stroke:black;stroke-width:1;fill-opacity:1;stroke-opacity:0.3" />
<line x1="192" y1="72" x2="365" y2="72" stroke="pink" stroke-width="1" />
<rect x="365" y="70" width="48" height="5" style="fill:#f5b024;stroke:black;stroke-width:1;fill-opacity:1;stroke-opacity:0.3" />
<line x1="413" y1="72" x2="611" y2="72" stroke="pink" stroke-width="1" />
<rect x="611" y="70" width="74" height="5" style="fill:#f5b024;stroke:black;stroke-width:1;fill-opacity:1;stroke-opacity:0.3" />
<line x1="136" y1="79" x2="150" y2="81" stroke="black" stroke-width="1" />
<line x1="150" y1="81" x2="165" y2="79" stroke="black" stroke-width="1" />
<rect x="47" y="77" width="88" height="5" style="fill:#f5b024;stroke:black;stroke-width:1;fill-opacity:1;stroke-opacity:0.3" />
<rect x="165" y="77" width="27" height="5" style="fill:#f5b024;stroke:black;stroke-width:1;fill-opacity:1;stroke-opacity:0.3" />
<line x1="192" y1="79" x2="365" y2="79" stroke="pink" stroke-width="1" />
<rect x="365" y="77" width="48" height="5" style="fill:#f5b024;stroke:black;stroke-width:1;fill-opacity:1;stroke-opacity:0.3" />
<line x1="413" y1="79" x2="611" y2="79" stroke="pink" stroke-width="1" />
<rect x="611" y="77" width="12" height="5" style="fill:#f5b024;stroke:black;stroke-width:1;fill-opacity:1;stroke-opacity:0.3" />
<line x1="154" y1="86" x2="261" y2="88" stroke="black" stroke-width="1" />
<line x1="261" y1="88" x2="369" y2="86" stroke="black" stroke-width="1" />
<rect x="65" y="84" width="88" height="5" style="fill:#f5b024;stroke:black;stroke-width:1;fill-opacity:1;stroke-opacity:0.3" />
<rect x="369" y="84" width="44" height="5" style="fill:#f5b024;stroke:black;stroke-width:1;fill-opacity:1;stroke-opacity:0.3" />
<line x1="413" y1="86" x2="611" y2="86" stroke="pink" stroke-width="1" />
<rect x="611" y="84" width="44" height="5" style="fill:#f5b024;stroke:black;stroke-width:1;fill-opacity:1;stroke-opacity:0.3" />
<line x1="154" y1="93" x2="271" y2="95" stroke="black" stroke-width="1" />
<line x1="271" y1="95" x2="388" y2="93" stroke="black" stroke-width="1" />
<rect x="65" y="91" width="88" height="5" style="fill:#f5b024;stroke:black;stroke-width:1;fill-opacity:1;stroke-opacity:0.3" />
<rect x="388" y="91" width="24" height="5" style="fill:#f5b024;stroke:black;stroke-width:1;fill-opacity:1;stroke-opacity:0.3" />
<line x1="413" y1="93" x2="611" y2="93" stroke="pink" stroke-width="1" />
<rect x="611" y="91" width="63" height="5" style="fill:#f5b024;stroke:black;stroke-width:1;fill-opacity:1;stroke-opacity:0.3" />
<line x1="163" y1="100" x2="264" y2="102" stroke="black" stroke-width="1" />
<line x1="264" y1="102" x2="365" y2="100" stroke="black" stroke-width="1" />
<rect x="74" y="98" width="88" height="5" style="fill:#f5b024;stroke:black;stroke-width:1;fill-opacity:1;stroke-opacity:0.3" />
<rect x="365" y="98" width="48" height="5" style="fill:#f5b024;stroke:black;stroke-width:1;fill-opacity:1;stroke-opacity:0.3" />
<line x1="413" y1="100" x2="611" y2="100" stroke="pink" stroke-width="1" />
<rect x="611" y="98" width="39" height="5" style="fill:#f5b024;stroke:black;stroke-width:1;fill-opacity:1;stroke-opacity:0.3" />
<line x1="166" y1="107" x2="266" y2="109" stroke="black" stroke-width="1" />
<line x1="266" y1="109" x2="366" y2="107" stroke="black" stroke-width="1" />
<rect x="77" y="105" width="88" height="5" style="fill:#f5b024;stroke:black;stroke-width:1;fill-opacity:1;stroke-opacity:0.3" />
<rect x="366" y="105" width="47" height="5" style="fill:#f5b024;stroke:black;stroke-width:1;fill-opacity:1;stroke-opacity:0.3" />
<line x1="413" y1="107" x2="611" y2="107" stroke="pink" stroke-width="1" />
<rect x="611" y="105" width="41" height="5" style="fill:#f5b024;stroke:black;stroke-width:1;fill-opacity:1;stroke-opacity:0.3" />
<line x1="176" y1="114" x2="273" y2="116" stroke="black" stroke-width="1" />
<line x1="273" y1="116" x2="370" y2="114" stroke="black" stroke-width="1" />
<rect x="87" y="112" width="88" height="5" style="fill:#f5b024;stroke:black;stroke-width:1;fill-opacity:1;stroke-opacity:0.3" />
<rect x="370" y="112" width="43" height="5" style="fill:#f5b024;stroke:black;stroke-width:1;fill-opacity:1;stroke-opacity:0.3" />
<line x1="413" y1="114" x2="611" y2="114" stroke="pink" stroke-width="1" />
<rect x="611" y="112" width="45" height="5" style="fill:#f5b024;stroke:black;stroke-width:1;fill-opacity:1;stroke-opacity:0.3" />
<line x1="176" y1="121" x2="273" y2="123" stroke="black" stroke-width="1" />
<line x1="273" y1="123" x2="370" y2="121" stroke="black" stroke-width="1" />
<rect x="87" y="119" width="88" height="5" style="fill:#f5b024;stroke:black;stroke-width:1;fill-opacity:1;stroke-opacity:0.3" />
<rect x="370" y="119" width="43" height="5" style="fill:#f5b024;stroke:black;stroke-width:1;fill-opacity:1;stroke-opacity:0.3" />
<line x1="413" y1="121" x2="611" y2="121" stroke="pink" stroke-width="1" />
<rect x="611" y="119" width="45" height="5" style="fill:#f5b024;stroke:black;stroke-width:1;fill-opacity:1;stroke-opacity:0.3" />
<line x1="185" y1="128" x2="278" y2="130" stroke="black" stroke-width="1" />
<line x1="278" y1="130" x2="371" y2="128" stroke="black" stroke-width="1" />
<rect x="96" y="126" width="88" height="5" style="fill:#f5b024;stroke:black;stroke-width:1;fill-opacity:1;stroke-opacity:0.3" />
<rect x="371" y="126" width="42" height="5" style="fill:#f5b024;stroke:black;stroke-width:1;fill-opacity:1;stroke-opacity:0.3" />
<line x1="413" y1="128" x2="611" y2="128" stroke="pink" stroke-width="1" />
<rect x="611" y="126" width="46" height="5" style="fill:#f5b024;stroke:black;stroke-width:1;fill-opacity:1;stroke-opacity:0.3" />
<line x1="185" y1="135" x2="275" y2="137" stroke="black" stroke-width="1" />
<line x1="275" y1="137" x2="365" y2="135" stroke="black" stroke-width="1" />
<rect x="96" y="133" width="88" height="5" style="fill:#f5b024;stroke:black;stroke-width:1;fill-opacity:1;stroke-opacity:0.3" />
<rect x="365" y="133" width="88" height="5" style="fill:#f5b024;stroke:black;stroke-width:1;fill-opacity:1;stroke-opacity:0.3" />
<line x1="185" y1="142" x2="286" y2="144" stroke="black" stroke-width="1" />
<line x1="286" y1="144" x2="388" y2="142" stroke="black" stroke-width="1" />
<rect x="96" y="140" width="88" height="5" style="fill:#f5b024;stroke:black;stroke-width:1;fill-opacity:1;stroke-opacity:0.3" />
<rect x="388" y="140" width="24" height="5" style="fill:#f5b024;stroke:black;stroke-width:1;fill-opacity:1;stroke-opacity:0.3" />
<line x1="413" y1="142" x2="611" y2="142" stroke="pink" stroke-width="1" />
<rect x="611" y="140" width="63" height="5" style="fill:#f5b024;stroke:black;stroke-width:1;fill-opacity:1;stroke-opacity:0.3" />
<line x1="185" y1="149" x2="290" y2="151" stroke="black" stroke-width="1" />
<line x1="290" y1="151" x2="395" y2="149" stroke="black" stroke-width="1" />
<rect x="96" y="147" width="88" height="5" style="fill:#f5b024;stroke:black;stroke-width:1;fill-opacity:1;stroke-opacity:0.3" />
<rect x="395" y="147" width="18" height="5" style="fill:#f5b024;stroke:black;stroke-width:1;fill-opacity:1;stroke-opacity:0.3" />
<line x1="413" y1="149" x2="611" y2="149" stroke="pink" stroke-width="1" />
<rect x="611" y="147" width="70" height="5" style="fill:#f5b024;stroke:black;stroke-width:1;fill-opacity:1;stroke-opacity:0.3" />
<line x1="184" y1="156" x2="281" y2="158" stroke="black" stroke-width="1" />
<line x1="281" y1="158" x2="379" y2="156" stroke="black" stroke-width="1" />
<rect x="96" y="154" width="87" height="5" style="fill:#f5b024;stroke:black;stroke-width:1;fill-opacity:1;stroke-opacity:0.3" />
<rect x="379" y="154" width="34" height="5" style="fill:#f5b024;stroke:black;stroke-width:1;fill-opacity:1;stroke-opacity:0.3" />
<line x1="413" y1="156" x2="611" y2="156" stroke="pink" stroke-width="1" />
<rect x="611" y="154" width="54" height="5" style="fill:#f5b024;stroke:black;stroke-width:1;fill-opacity:1;stroke-opacity:0.3" />
<line x1="402" y1="163" x2="522" y2="165" stroke="black" stroke-width="1" />
<line x1="522" y1="165" x2="642" y2="163" stroke="black" stroke-width="1" />
<rect x="96" y="161" width="95" height="5" style="fill:#f5b024;stroke:black;stroke-width:1;fill-opacity:1;stroke-opacity:0.3" />
<line x1="192" y1="163" x2="365" y2="163" stroke="pink" stroke-width="1" />
<rect x="365" y="161" width="37" height="5" style="fill:#f5b024;stroke:black;stroke-width:1;fill-opacity:1;stroke-opacity:0.3" />
<rect x="642" y="161" width="133" height="5" style="fill:#f5b024;stroke:black;stroke-width:1;fill-opacity:1;stroke-opacity:0.3" />
<line x1="674" y1="37" x2="713" y2="39" stroke="black" stroke-width="1" />
<line x1="713" y1="39" x2="753" y2="37" stroke="black" stroke-width="1" />
<rect x="387" y="35" width="26" height="5" style="fill:#f5b024;stroke:black;stroke-width:1;fill-opacity:1;stroke-opacity:0.3" />
<line x1="413" y1="37" x2="611" y2="37" stroke="pink" stroke-width="1" />
<rect x="611" y="35" width="62" height="5" style="fill:#f5b024;stroke:black;stroke-width:1;fill-opacity:1;stroke-opacity:0.3" />
<rect x="753" y="35" width="88" height="5" style="fill:#f5b024;stroke:black;stroke-width:1;fill-opacity:1;stroke-opacity:0.3" />
<line x1="611" y1="135" x2="627" y2="137" stroke="black" stroke-width="1" />
<line x1="627" y1="137" x2="643" y2="135" stroke="black" stroke-width="1" />
<rect x="478" y="133" width="132" height="5" style="fill:#f5b024;stroke:black;stroke-width:1;fill-opacity:1;stroke-opacity:0.3" />
<rect x="643" y="133" width="131" height="5" style="fill:#f5b024;stroke:black;stroke-width:1;fill-opacity:1;stroke-opacity:0.3" />
<line x1="760" y1="58" x2="773" y2="60" stroke="black" stroke-width="1" />
<line x1="773" y1="60" x2="786" y2="58" stroke="black" stroke-width="1" />
<rect x="626" y="56" width="133" height="5" style="fill:#f5b024;stroke:black;stroke-width:1;fill-opacity:1;stroke-opacity:0.3" />
<rect x="786" y="56" width="133" height="5" style="fill:#f5b024;stroke:black;stroke-width:1;fill-opacity:1;stroke-opacity:0.3" />
<line x1="759" y1="79" x2="769" y2="81" stroke="black" stroke-width="1" />
<line x1="769" y1="81" x2="779" y2="79" stroke="black" stroke-width="1" />
<rect x="626" y="77" width="132" height="5" style="fill:#f5b024;stroke:black;stroke-width:1;fill-opacity:1;stroke-opacity:0.3" />
<rect x="779" y="77" width="132" height="5" style="fill:#f5b024;stroke:black;stroke-width:1;fill-opacity:1;stroke-opacity:0.3" />
<line x1="759" y1="30" x2="790" y2="32" stroke="black" stroke-width="1" />
<line x1="790" y1="32" x2="822" y2="30" stroke="black" stroke-width="1" />
<rect x="670" y="28" width="88" height="5" style="fill:#f5b024;stroke:black;stroke-width:1;fill-opacity:1;stroke-opacity:0.3" />
<rect x="822" y="28" width="88" height="5" style="fill:#f5b024;stroke:black;stroke-width:1;fill-opacity:1;stroke-opacity:0.3" />
<line x1="759" y1="44" x2="790" y2="46" stroke="black" stroke-width="1" />
<line x1="790" y1="46" x2="822" y2="44" stroke="black" stroke-width="1" />
<rect x="670" y="42" width="88" height="5" style="fill:#f5b024;stroke:black;stroke-width:1;fill-opacity:1;stroke-opacity:0.3" />
<rect x="822" y="42" width="88" height="5" style="fill:#f5b024;stroke:black;stroke-width:1;fill-opacity:1;stroke-opacity:0.3" />
<line x1="759" y1="86" x2="809" y2="88" stroke="black" stroke-width="1" />
<line x1="809" y1="88" x2="860" y2="86" stroke="black" stroke-width="1" />
<rect x="670" y="84" width="88" height="5" style="fill:#5d3c2d;stroke:black;stroke-width:1;fill-opacity:1;stroke-opacity:0.3" />
<rect x="860" y="84" width="75" height="5" style="fill:#5d3c2d;stroke:black;stroke-width:1;fill-opacity:1;stroke-opacity:0.3" />
<line x1="759" y1="100" x2="790" y2="102" stroke="black" stroke-width="1" />
<line x1="790" y1="102" x2="822" y2="100" stroke="black" stroke-width="1" />
<rect x="670" y="98" width="88" height="5" style="fill:#f5b024;stroke:black;stroke-width:1;fill-opacity:1;stroke-opacity:0.3" />
<rect x="822" y="98" width="88" height="5" style="fill:#f5b024;stroke:black;stroke-width:1;fill-opacity:1;stroke-opacity:0.3" />
<line x1="761" y1="107" x2="791" y2="109" stroke="black" stroke-width="1" />
<line x1="791" y1="109" x2="822" y2="107" stroke="black" stroke-width="1" />
<rect x="672" y="105" width="88" height="5" style="fill:#f5b024;stroke:black;stroke-width:1;fill-opacity:1;stroke-opacity:0.3" />
<rect x="822" y="105" width="88" height="5" style="fill:#f5b024;stroke:black;stroke-width:1;fill-opacity:1;stroke-opacity:0.3" />
<line x1="767" y1="51" x2="794" y2="53" stroke="black" stroke-width="1" />
<line x1="794" y1="53" x2="822" y2="51" stroke="black" stroke-width="1" />
<rect x="678" y="49" width="88" height="5" style="fill:#f5b024;stroke:black;stroke-width:1;fill-opacity:1;stroke-opacity:0.3" />
<rect x="822" y="49" width="88" height="5" style="fill:#f5b024;stroke:black;stroke-width:1;fill-opacity:1;stroke-opacity:0.3" />
<line x1="766" y1="93" x2="773" y2="95" stroke="black" stroke-width="1" />
<line x1="773" y1="95" x2="780" y2="93" stroke="black" stroke-width="1" />
<rect x="678" y="91" width="87" height="5" style="fill:#f5b024;stroke:black;stroke-width:1;fill-opacity:1;stroke-opacity:0.3" />
<rect x="780" y="91" width="88" height="5" style="fill:#f5b024;stroke:black;stroke-width:1;fill-opacity:1;stroke-opacity:0.3" />
<line x1="768" y1="114" x2="799" y2="116" stroke="black" stroke-width="1" />
<line x1="799" y1="116" x2="831" y2="114" stroke="black" stroke-width="1" />
<rect x="680" y="112" width="87" height="5" style="fill:#f5b024;stroke:black;stroke-width:1;fill-opacity:1;stroke-opacity:0.3" />
<rect x="831" y="112" width="88" height="5" style="fill:#f5b024;stroke:black;stroke-width:1;fill-opacity:1;stroke-opacity:0.3" />
<line x1="775" y1="72" x2="779" y2="74" stroke="black" stroke-width="1" />
<line x1="779" y1="74" x2="784" y2="72" stroke="black" stroke-width="1" />
<rect x="686" y="70" width="88" height="5" style="fill:#f5b024;stroke:black;stroke-width:1;fill-opacity:1;stroke-opacity:0.3" />
<rect x="784" y="70" width="88" height="5" style="fill:#f5b024;stroke:black;stroke-width:1;fill-opacity:1;stroke-opacity:0.3" />
<line x1="778" y1="121" x2="793" y2="123" stroke="black" stroke-width="1" />
<line x1="793" y1="123" x2="809" y2="121" stroke="black" stroke-width="1" />
<rect x="690" y="119" width="88" height="5" style="fill:#f5b024;stroke:black;stroke-width:1;fill-opacity:1;stroke-opacity:0.3" />
<rect x="809" y="119" width="88" height="5" style="fill:#f5b024;stroke:black;stroke-width:1;fill-opacity:1;stroke-opacity:0.3" />
<line x1="778" y1="128" x2="783" y2="130" stroke="black" stroke-width="1" />
<line x1="783" y1="130" x2="789" y2="128" stroke="black" stroke-width="1" />
<rect x="690" y="126" width="88" height="5" style="fill:#f5b024;stroke:black;stroke-width:1;fill-opacity:1;stroke-opacity:0.3" />
<rect x="789" y="126" width="88" height="5" style="fill:#f5b024;stroke:black;stroke-width:1;fill-opacity:1;stroke-opacity:0.3" />
<line x1="795" y1="65" x2="810" y2="67" stroke="black" stroke-width="1" />
<line x1="810" y1="67" x2="825" y2="65" stroke="black" stroke-width="1" />
<rect x="713" y="63" width="82" height="5" style="fill:#f5b024;stroke:black;stroke-width:1;fill-opacity:1;stroke-opacity:0.3" />
<rect x="825" y="63" width="88" height="5" style="fill:#f5b024;stroke:black;stroke-width:1;fill-opacity:1;stroke-opacity:0.3" />
<line x1="806" y1="142" x2="814" y2="144" stroke="black" stroke-width="1" />
<line x1="814" y1="144" x2="822" y2="142" stroke="black" stroke-width="1" />
<rect x="717" y="140" width="88" height="5" style="fill:#f5b024;stroke:black;stroke-width:1;fill-opacity:1;stroke-opacity:0.3" />
<rect x="822" y="140" width="88" height="5" style="fill:#f5b024;stroke:black;stroke-width:1;fill-opacity:1;stroke-opacity:0.3" />
<line x1="805" y1="149" x2="820" y2="151" stroke="black" stroke-width="1" />
<line x1="820" y1="151" x2="836" y2="149" stroke="black" stroke-width="1" />
<rect x="717" y="147" width="87" height="5" style="fill:#f5b024;stroke:black;stroke-width:1;fill-opacity:1;stroke-opacity:0.3" />
<rect x="836" y="147" width="88" height="5" style="fill:#f5b024;stroke:black;stroke-width:1;fill-opacity:1;stroke-opacity:0.3" />
<line x1="805" y1="156" x2="820" y2="158" stroke="black" stroke-width="1" />
<line x1="820" y1="158" x2="836" y2="156" stroke="black" stroke-width="1" />
<rect x="717" y="154" width="87" height="5" style="fill:#f5b024;stroke:black;stroke-width:1;fill-opacity:1;stroke-opacity:0.3" />
<rect x="836" y="154" width="88" height="5" style="fill:#f5b024;stroke:black;stroke-width:1;fill-opacity:1;stroke-opacity:0.3" />
<line x1="890" y1="135" x2="898" y2="137" stroke="black" stroke-width="1" />
<line x1="898" y1="137" x2="907" y2="135" stroke="black" stroke-width="1" />
<rect x="801" y="133" width="88" height="5" style="fill:#5d3c2d;stroke:black;stroke-width:1;fill-opacity:1;stroke-opacity:0.3" />
<rect x="907" y="133" width="88" height="5" style="fill:#5d3c2d;stroke:black;stroke-width:1;fill-opacity:1;stroke-opacity:0.3" />
<text x="15"  y="176" style="font-family:Arial;font-size:10;stroke:black;fill:black;">all.merged.bam</text>
</svg>
    
