<?xml version="1.0" encoding="utf-8" standalone="no"?>
<!DOCTYPE svg PUBLIC "-//W3C//DTD SVG 1.1//EN"
  "http://www.w3.org/Graphics/SVG/1.1/DTD/svg11.dtd">
<svg height="1140" width="1000" version="1.1" viewBox="0 0 1000 1140" xmlns="http://www.w3.org/2000/svg" xmlns:xlink="http://www.w3.org/1999/xlink">
<line x1="32" y1="11" x2="966" y2="11" stroke="black" stroke-width="1" />
<rect x="32" y="9" width="549" height="5" style="fill:#f50002;stroke:black;stroke-width:1;fill-opacity:1;stroke-opacity:0.3" />
<rect x="582" y="9" width="40" height="5" style="fill:#53a1b5;stroke:black;stroke-width:1;fill-opacity:1;stroke-opacity:0.3" />
<rect x="677" y="9" width="31" height="5" style="fill:#53a1b5;stroke:black;stroke-width:1;fill-opacity:1;stroke-opacity:0.3" />
<rect x="709" y="9" width="257" height="5" style="fill:#f50002;stroke:black;stroke-width:1;fill-opacity:1;stroke-opacity:0.3" />
<text x="32"  y="23" style="font-family:Arial;font-size:10;stroke:black;fill:black;">Cre16.g670652.t1.1.v5.5 (-) chromosome_16:3966116-3968967</text>
<line x1="139" y1="30" x2="142" y2="32" stroke="black" stroke-width="1" />
<line x1="142" y1="32" x2="146" y2="30" stroke="black" stroke-width="1" />
<rect x="106" y="28" width="32" height="5" style="fill:#5d3c2d;stroke:black;stroke-width:1;fill-opacity:1;stroke-opacity:0.3" />
<rect x="146" y="28" width="32" height="5" style="fill:#5d3c2d;stroke:black;stroke-width:1;fill-opacity:1;stroke-opacity:0.3" />
<line x1="139" y1="37" x2="142" y2="39" stroke="black" stroke-width="1" />
<line x1="142" y1="39" x2="146" y2="37" stroke="black" stroke-width="1" />
<rect x="106" y="35" width="32" height="5" style="fill:#5d3c2d;stroke:black;stroke-width:1;fill-opacity:1;stroke-opacity:0.3" />
<rect x="146" y="35" width="32" height="5" style="fill:#5d3c2d;stroke:black;stroke-width:1;fill-opacity:1;stroke-opacity:0.3" />
<line x1="164" y1="44" x2="166" y2="46" stroke="black" stroke-width="1" />
<line x1="166" y1="46" x2="169" y2="44" stroke="black" stroke-width="1" />
<rect x="132" y="42" width="32" height="5" style="fill:#5d3c2d;stroke:black;stroke-width:1;fill-opacity:1;stroke-opacity:0.3" />
<rect x="169" y="42" width="32" height="5" style="fill:#5d3c2d;stroke:black;stroke-width:1;fill-opacity:1;stroke-opacity:0.3" />
<line x1="362" y1="30" x2="371" y2="32" stroke="black" stroke-width="1" />
<line x1="371" y1="32" x2="381" y2="30" stroke="black" stroke-width="1" />
<rect x="329" y="28" width="32" height="5" style="fill:#f5b024;stroke:black;stroke-width:1;fill-opacity:1;stroke-opacity:0.3" />
<rect x="381" y="28" width="32" height="5" style="fill:#f5b024;stroke:black;stroke-width:1;fill-opacity:1;stroke-opacity:0.3" />
<line x1="552" y1="30" x2="561" y2="32" stroke="black" stroke-width="1" />
<line x1="561" y1="32" x2="570" y2="30" stroke="black" stroke-width="1" />
<rect x="519" y="28" width="32" height="5" style="fill:#f5b024;stroke:black;stroke-width:1;fill-opacity:1;stroke-opacity:0.3" />
<rect x="570" y="28" width="32" height="5" style="fill:#f5b024;stroke:black;stroke-width:1;fill-opacity:1;stroke-opacity:0.3" />
<line x1="693" y1="30" x2="697" y2="32" stroke="black" stroke-width="1" />
<line x1="697" y1="32" x2="701" y2="30" stroke="black" stroke-width="1" />
<rect x="661" y="28" width="32" height="5" style="fill:#f5b024;stroke:black;stroke-width:1;fill-opacity:1;stroke-opacity:0.3" />
<rect x="701" y="28" width="32" height="5" style="fill:#f5b024;stroke:black;stroke-width:1;fill-opacity:1;stroke-opacity:0.3" />
<line x1="719" y1="37" x2="720" y2="39" stroke="black" stroke-width="1" />
<line x1="720" y1="39" x2="722" y2="37" stroke="black" stroke-width="1" />
<rect x="686" y="35" width="32" height="5" style="fill:#f5b024;stroke:black;stroke-width:1;fill-opacity:1;stroke-opacity:0.3" />
<rect x="722" y="35" width="32" height="5" style="fill:#f5b024;stroke:black;stroke-width:1;fill-opacity:1;stroke-opacity:0.3" />
<line x1="719" y1="44" x2="720" y2="46" stroke="black" stroke-width="1" />
<line x1="720" y1="46" x2="722" y2="44" stroke="black" stroke-width="1" />
<rect x="686" y="42" width="32" height="5" style="fill:#f5b024;stroke:black;stroke-width:1;fill-opacity:1;stroke-opacity:0.3" />
<rect x="722" y="42" width="32" height="5" style="fill:#f5b024;stroke:black;stroke-width:1;fill-opacity:1;stroke-opacity:0.3" />
<text x="15"  y="176" style="font-family:Arial;font-size:10;stroke:black;fill:black;">all.merged.bam</text>
</svg>
    
