<?xml version="1.0" encoding="utf-8" standalone="no"?>
<!DOCTYPE svg PUBLIC "-//W3C//DTD SVG 1.1//EN"
  "http://www.w3.org/Graphics/SVG/1.1/DTD/svg11.dtd">
<svg height="1140" width="1000" version="1.1" viewBox="0 0 1000 1140" xmlns="http://www.w3.org/2000/svg" xmlns:xlink="http://www.w3.org/1999/xlink">
<line x1="74" y1="11" x2="924" y2="11" stroke="black" stroke-width="1" />
<rect x="74" y="9" width="224" height="5" style="fill:#f50002;stroke:black;stroke-width:1;fill-opacity:1;stroke-opacity:0.3" />
<rect x="300" y="9" width="200" height="5" style="fill:#53a1b5;stroke:black;stroke-width:1;fill-opacity:1;stroke-opacity:0.3" />
<rect x="632" y="9" width="96" height="5" style="fill:#53a1b5;stroke:black;stroke-width:1;fill-opacity:1;stroke-opacity:0.3" />
<rect x="729" y="9" width="194" height="5" style="fill:#f50002;stroke:black;stroke-width:1;fill-opacity:1;stroke-opacity:0.3" />
<text x="74"  y="23" style="font-family:Arial;font-size:10;stroke:black;fill:black;">Cre11.g477733.t1.2.v5.5 (-) chromosome_11:2864099-2865234</text>
<line x1="153" y1="30" x2="157" y2="32" stroke="black" stroke-width="1" />
<line x1="157" y1="32" x2="162" y2="30" stroke="black" stroke-width="1" />
<rect x="78" y="28" width="74" height="5" style="fill:#f5b024;stroke:black;stroke-width:1;fill-opacity:1;stroke-opacity:0.3" />
<rect x="162" y="28" width="74" height="5" style="fill:#f5b024;stroke:black;stroke-width:1;fill-opacity:1;stroke-opacity:0.3" />
<line x1="146" y1="37" x2="157" y2="39" stroke="black" stroke-width="1" />
<line x1="157" y1="39" x2="169" y2="37" stroke="black" stroke-width="1" />
<rect x="78" y="35" width="68" height="5" style="fill:#f5b024;stroke:black;stroke-width:1;fill-opacity:1;stroke-opacity:0.3" />
<rect x="169" y="35" width="74" height="5" style="fill:#f5b024;stroke:black;stroke-width:1;fill-opacity:1;stroke-opacity:0.3" />
<line x1="154" y1="44" x2="160" y2="46" stroke="black" stroke-width="1" />
<line x1="160" y1="46" x2="166" y2="44" stroke="black" stroke-width="1" />
<rect x="79" y="42" width="74" height="5" style="fill:#f5b024;stroke:black;stroke-width:1;fill-opacity:1;stroke-opacity:0.3" />
<rect x="166" y="42" width="74" height="5" style="fill:#f5b024;stroke:black;stroke-width:1;fill-opacity:1;stroke-opacity:0.3" />
<line x1="154" y1="51" x2="173" y2="53" stroke="black" stroke-width="1" />
<line x1="173" y1="53" x2="192" y2="51" stroke="black" stroke-width="1" />
<rect x="79" y="49" width="74" height="5" style="fill:#f5b024;stroke:black;stroke-width:1;fill-opacity:1;stroke-opacity:0.3" />
<rect x="192" y="49" width="74" height="5" style="fill:#f5b024;stroke:black;stroke-width:1;fill-opacity:1;stroke-opacity:0.3" />
<line x1="154" y1="58" x2="172" y2="60" stroke="black" stroke-width="1" />
<line x1="172" y1="60" x2="190" y2="58" stroke="black" stroke-width="1" />
<rect x="79" y="56" width="74" height="5" style="fill:#f5b024;stroke:black;stroke-width:1;fill-opacity:1;stroke-opacity:0.3" />
<rect x="190" y="56" width="74" height="5" style="fill:#f5b024;stroke:black;stroke-width:1;fill-opacity:1;stroke-opacity:0.3" />
<line x1="154" y1="65" x2="184" y2="67" stroke="black" stroke-width="1" />
<line x1="184" y1="67" x2="214" y2="65" stroke="black" stroke-width="1" />
<rect x="79" y="63" width="74" height="5" style="fill:#f5b024;stroke:black;stroke-width:1;fill-opacity:1;stroke-opacity:0.3" />
<rect x="214" y="63" width="74" height="5" style="fill:#f5b024;stroke:black;stroke-width:1;fill-opacity:1;stroke-opacity:0.3" />
<line x1="154" y1="72" x2="172" y2="74" stroke="black" stroke-width="1" />
<line x1="172" y1="74" x2="190" y2="72" stroke="black" stroke-width="1" />
<rect x="79" y="70" width="74" height="5" style="fill:#f5b024;stroke:black;stroke-width:1;fill-opacity:1;stroke-opacity:0.3" />
<rect x="190" y="70" width="74" height="5" style="fill:#f5b024;stroke:black;stroke-width:1;fill-opacity:1;stroke-opacity:0.3" />
<line x1="154" y1="79" x2="169" y2="81" stroke="black" stroke-width="1" />
<line x1="169" y1="81" x2="184" y2="79" stroke="black" stroke-width="1" />
<rect x="80" y="77" width="74" height="5" style="fill:#f5b024;stroke:black;stroke-width:1;fill-opacity:1;stroke-opacity:0.3" />
<rect x="184" y="77" width="74" height="5" style="fill:#f5b024;stroke:black;stroke-width:1;fill-opacity:1;stroke-opacity:0.3" />
<line x1="152" y1="86" x2="156" y2="88" stroke="black" stroke-width="1" />
<line x1="156" y1="88" x2="160" y2="86" stroke="black" stroke-width="1" />
<rect x="81" y="84" width="71" height="5" style="fill:#f5b024;stroke:black;stroke-width:1;fill-opacity:1;stroke-opacity:0.3" />
<rect x="160" y="84" width="74" height="5" style="fill:#f5b024;stroke:black;stroke-width:1;fill-opacity:1;stroke-opacity:0.3" />
<line x1="156" y1="93" x2="178" y2="95" stroke="black" stroke-width="1" />
<line x1="178" y1="95" x2="200" y2="93" stroke="black" stroke-width="1" />
<rect x="81" y="91" width="74" height="5" style="fill:#f5b024;stroke:black;stroke-width:1;fill-opacity:1;stroke-opacity:0.3" />
<rect x="200" y="91" width="74" height="5" style="fill:#f5b024;stroke:black;stroke-width:1;fill-opacity:1;stroke-opacity:0.3" />
<line x1="156" y1="100" x2="178" y2="102" stroke="black" stroke-width="1" />
<line x1="178" y1="102" x2="200" y2="100" stroke="black" stroke-width="1" />
<rect x="81" y="98" width="74" height="5" style="fill:#f5b024;stroke:black;stroke-width:1;fill-opacity:1;stroke-opacity:0.3" />
<rect x="200" y="98" width="74" height="5" style="fill:#f5b024;stroke:black;stroke-width:1;fill-opacity:1;stroke-opacity:0.3" />
<line x1="157" y1="107" x2="185" y2="109" stroke="black" stroke-width="1" />
<line x1="185" y1="109" x2="214" y2="107" stroke="black" stroke-width="1" />
<rect x="82" y="105" width="74" height="5" style="fill:#f5b024;stroke:black;stroke-width:1;fill-opacity:1;stroke-opacity:0.3" />
<rect x="214" y="105" width="74" height="5" style="fill:#f5b024;stroke:black;stroke-width:1;fill-opacity:1;stroke-opacity:0.3" />
<line x1="157" y1="114" x2="161" y2="116" stroke="black" stroke-width="1" />
<line x1="161" y1="116" x2="165" y2="114" stroke="black" stroke-width="1" />
<rect x="82" y="112" width="74" height="5" style="fill:#f5b024;stroke:black;stroke-width:1;fill-opacity:1;stroke-opacity:0.3" />
<rect x="165" y="112" width="74" height="5" style="fill:#f5b024;stroke:black;stroke-width:1;fill-opacity:1;stroke-opacity:0.3" />
<line x1="196" y1="121" x2="233" y2="123" stroke="black" stroke-width="1" />
<line x1="233" y1="123" x2="270" y2="121" stroke="black" stroke-width="1" />
<rect x="85" y="119" width="111" height="5" style="fill:#f5b024;stroke:black;stroke-width:1;fill-opacity:1;stroke-opacity:0.3" />
<rect x="270" y="119" width="104" height="5" style="fill:#f5b024;stroke:black;stroke-width:1;fill-opacity:1;stroke-opacity:0.3" />
<line x1="161" y1="128" x2="169" y2="130" stroke="black" stroke-width="1" />
<line x1="169" y1="130" x2="178" y2="128" stroke="black" stroke-width="1" />
<rect x="86" y="126" width="74" height="5" style="fill:#f5b024;stroke:black;stroke-width:1;fill-opacity:1;stroke-opacity:0.3" />
<rect x="178" y="126" width="74" height="5" style="fill:#f5b024;stroke:black;stroke-width:1;fill-opacity:1;stroke-opacity:0.3" />
<line x1="161" y1="135" x2="177" y2="137" stroke="black" stroke-width="1" />
<line x1="177" y1="137" x2="193" y2="135" stroke="black" stroke-width="1" />
<rect x="86" y="133" width="74" height="5" style="fill:#f5b024;stroke:black;stroke-width:1;fill-opacity:1;stroke-opacity:0.3" />
<rect x="193" y="133" width="74" height="5" style="fill:#f5b024;stroke:black;stroke-width:1;fill-opacity:1;stroke-opacity:0.3" />
<line x1="161" y1="142" x2="169" y2="144" stroke="black" stroke-width="1" />
<line x1="169" y1="144" x2="178" y2="142" stroke="black" stroke-width="1" />
<rect x="86" y="140" width="74" height="5" style="fill:#f5b024;stroke:black;stroke-width:1;fill-opacity:1;stroke-opacity:0.3" />
<rect x="178" y="140" width="74" height="5" style="fill:#f5b024;stroke:black;stroke-width:1;fill-opacity:1;stroke-opacity:0.3" />
<line x1="200" y1="149" x2="209" y2="151" stroke="black" stroke-width="1" />
<line x1="209" y1="151" x2="218" y2="149" stroke="black" stroke-width="1" />
<rect x="88" y="147" width="112" height="5" style="fill:#f5b024;stroke:black;stroke-width:1;fill-opacity:1;stroke-opacity:0.3" />
<rect x="218" y="147" width="112" height="5" style="fill:#f5b024;stroke:black;stroke-width:1;fill-opacity:1;stroke-opacity:0.3" />
<line x1="202" y1="156" x2="210" y2="158" stroke="black" stroke-width="1" />
<line x1="210" y1="158" x2="218" y2="156" stroke="black" stroke-width="1" />
<rect x="89" y="154" width="112" height="5" style="fill:#f5b024;stroke:black;stroke-width:1;fill-opacity:1;stroke-opacity:0.3" />
<rect x="218" y="154" width="112" height="5" style="fill:#f5b024;stroke:black;stroke-width:1;fill-opacity:1;stroke-opacity:0.3" />
<line x1="202" y1="163" x2="207" y2="165" stroke="black" stroke-width="1" />
<line x1="207" y1="165" x2="213" y2="163" stroke="black" stroke-width="1" />
<rect x="89" y="161" width="112" height="5" style="fill:#f5b024;stroke:black;stroke-width:1;fill-opacity:1;stroke-opacity:0.3" />
<rect x="213" y="161" width="112" height="5" style="fill:#f5b024;stroke:black;stroke-width:1;fill-opacity:1;stroke-opacity:0.3" />
<line x1="354" y1="30" x2="374" y2="32" stroke="black" stroke-width="1" />
<line x1="374" y1="32" x2="395" y2="30" stroke="black" stroke-width="1" />
<rect x="280" y="28" width="74" height="5" style="fill:#f5b024;stroke:black;stroke-width:1;fill-opacity:1;stroke-opacity:0.3" />
<rect x="395" y="28" width="66" height="5" style="fill:#f5b024;stroke:black;stroke-width:1;fill-opacity:1;stroke-opacity:0.3" />
<line x1="431" y1="37" x2="435" y2="39" stroke="black" stroke-width="1" />
<line x1="435" y1="39" x2="439" y2="37" stroke="black" stroke-width="1" />
<rect x="328" y="35" width="16" height="5" style="fill:#f5b024;stroke:black;stroke-width:1;fill-opacity:1;stroke-opacity:0.3" />
<line x1="345" y1="37" x2="373" y2="37" stroke="pink" stroke-width="1" />
<rect x="373" y="35" width="58" height="5" style="fill:#f5b024;stroke:black;stroke-width:1;fill-opacity:1;stroke-opacity:0.3" />
<rect x="439" y="35" width="62" height="5" style="fill:#f5b024;stroke:black;stroke-width:1;fill-opacity:1;stroke-opacity:0.3" />
<line x1="501" y1="37" x2="632" y2="37" stroke="pink" stroke-width="1" />
<rect x="632" y="35" width="12" height="5" style="fill:#f5b024;stroke:black;stroke-width:1;fill-opacity:1;stroke-opacity:0.3" />
<line x1="456" y1="44" x2="544" y2="46" stroke="black" stroke-width="1" />
<line x1="544" y1="46" x2="632" y2="44" stroke="black" stroke-width="1" />
<rect x="328" y="42" width="18" height="5" style="fill:#f5b024;stroke:black;stroke-width:1;fill-opacity:1;stroke-opacity:0.3" />
<line x1="347" y1="44" x2="400" y2="44" stroke="pink" stroke-width="1" />
<rect x="400" y="42" width="56" height="5" style="fill:#f5b024;stroke:black;stroke-width:1;fill-opacity:1;stroke-opacity:0.3" />
<rect x="632" y="42" width="74" height="5" style="fill:#f5b024;stroke:black;stroke-width:1;fill-opacity:1;stroke-opacity:0.3" />
<line x1="431" y1="51" x2="437" y2="53" stroke="black" stroke-width="1" />
<line x1="437" y1="53" x2="443" y2="51" stroke="black" stroke-width="1" />
<rect x="328" y="49" width="16" height="5" style="fill:#f5b024;stroke:black;stroke-width:1;fill-opacity:1;stroke-opacity:0.3" />
<line x1="345" y1="51" x2="373" y2="51" stroke="pink" stroke-width="1" />
<rect x="373" y="49" width="58" height="5" style="fill:#f5b024;stroke:black;stroke-width:1;fill-opacity:1;stroke-opacity:0.3" />
<rect x="443" y="49" width="57" height="5" style="fill:#f5b024;stroke:black;stroke-width:1;fill-opacity:1;stroke-opacity:0.3" />
<line x1="501" y1="51" x2="632" y2="51" stroke="pink" stroke-width="1" />
<rect x="632" y="49" width="17" height="5" style="fill:#f5b024;stroke:black;stroke-width:1;fill-opacity:1;stroke-opacity:0.3" />
<line x1="436" y1="58" x2="454" y2="60" stroke="black" stroke-width="1" />
<line x1="454" y1="60" x2="473" y2="58" stroke="black" stroke-width="1" />
<rect x="373" y="56" width="62" height="5" style="fill:#f5b024;stroke:black;stroke-width:1;fill-opacity:1;stroke-opacity:0.3" />
<rect x="473" y="56" width="28" height="5" style="fill:#f5b024;stroke:black;stroke-width:1;fill-opacity:1;stroke-opacity:0.3" />
<line x1="501" y1="58" x2="632" y2="58" stroke="pink" stroke-width="1" />
<rect x="632" y="56" width="46" height="5" style="fill:#f5b024;stroke:black;stroke-width:1;fill-opacity:1;stroke-opacity:0.3" />
<line x1="440" y1="65" x2="457" y2="67" stroke="black" stroke-width="1" />
<line x1="457" y1="67" x2="474" y2="65" stroke="black" stroke-width="1" />
<rect x="373" y="63" width="66" height="5" style="fill:#f5b024;stroke:black;stroke-width:1;fill-opacity:1;stroke-opacity:0.3" />
<rect x="474" y="63" width="26" height="5" style="fill:#f5b024;stroke:black;stroke-width:1;fill-opacity:1;stroke-opacity:0.3" />
<line x1="501" y1="65" x2="632" y2="65" stroke="pink" stroke-width="1" />
<rect x="632" y="63" width="47" height="5" style="fill:#f5b024;stroke:black;stroke-width:1;fill-opacity:1;stroke-opacity:0.3" />
<line x1="465" y1="72" x2="475" y2="74" stroke="black" stroke-width="1" />
<line x1="475" y1="74" x2="485" y2="72" stroke="black" stroke-width="1" />
<rect x="390" y="70" width="74" height="5" style="fill:#f5b024;stroke:black;stroke-width:1;fill-opacity:1;stroke-opacity:0.3" />
<rect x="485" y="70" width="15" height="5" style="fill:#f5b024;stroke:black;stroke-width:1;fill-opacity:1;stroke-opacity:0.3" />
<line x1="501" y1="72" x2="632" y2="72" stroke="pink" stroke-width="1" />
<rect x="632" y="70" width="59" height="5" style="fill:#f5b024;stroke:black;stroke-width:1;fill-opacity:1;stroke-opacity:0.3" />
<line x1="633" y1="79" x2="637" y2="81" stroke="black" stroke-width="1" />
<line x1="637" y1="81" x2="642" y2="79" stroke="black" stroke-width="1" />
<rect x="390" y="77" width="110" height="5" style="fill:#f5b024;stroke:black;stroke-width:1;fill-opacity:1;stroke-opacity:0.3" />
<line x1="501" y1="79" x2="632" y2="79" stroke="pink" stroke-width="1" />
<rect x="632" y="77" width="1" height="5" style="fill:#f5b024;stroke:black;stroke-width:1;fill-opacity:1;stroke-opacity:0.3" />
<rect x="642" y="77" width="112" height="5" style="fill:#f5b024;stroke:black;stroke-width:1;fill-opacity:1;stroke-opacity:0.3" />
<line x1="469" y1="86" x2="480" y2="88" stroke="black" stroke-width="1" />
<line x1="480" y1="88" x2="491" y2="86" stroke="black" stroke-width="1" />
<rect x="395" y="84" width="74" height="5" style="fill:#f5b024;stroke:black;stroke-width:1;fill-opacity:1;stroke-opacity:0.3" />
<rect x="491" y="84" width="10" height="5" style="fill:#f5b024;stroke:black;stroke-width:1;fill-opacity:1;stroke-opacity:0.3" />
<line x1="501" y1="86" x2="632" y2="86" stroke="pink" stroke-width="1" />
<rect x="632" y="84" width="64" height="5" style="fill:#f5b024;stroke:black;stroke-width:1;fill-opacity:1;stroke-opacity:0.3" />
<line x1="470" y1="93" x2="558" y2="95" stroke="black" stroke-width="1" />
<line x1="558" y1="95" x2="647" y2="93" stroke="black" stroke-width="1" />
<rect x="395" y="91" width="74" height="5" style="fill:#f5b024;stroke:black;stroke-width:1;fill-opacity:1;stroke-opacity:0.3" />
<rect x="647" y="91" width="74" height="5" style="fill:#f5b024;stroke:black;stroke-width:1;fill-opacity:1;stroke-opacity:0.3" />
<line x1="476" y1="100" x2="556" y2="102" stroke="black" stroke-width="1" />
<line x1="556" y1="102" x2="637" y2="100" stroke="black" stroke-width="1" />
<rect x="401" y="98" width="74" height="5" style="fill:#f5b024;stroke:black;stroke-width:1;fill-opacity:1;stroke-opacity:0.3" />
<rect x="637" y="98" width="74" height="5" style="fill:#f5b024;stroke:black;stroke-width:1;fill-opacity:1;stroke-opacity:0.3" />
<line x1="477" y1="107" x2="568" y2="109" stroke="black" stroke-width="1" />
<line x1="568" y1="109" x2="660" y2="107" stroke="black" stroke-width="1" />
<rect x="402" y="105" width="74" height="5" style="fill:#f5b024;stroke:black;stroke-width:1;fill-opacity:1;stroke-opacity:0.3" />
<rect x="660" y="105" width="74" height="5" style="fill:#f5b024;stroke:black;stroke-width:1;fill-opacity:1;stroke-opacity:0.3" />
<line x1="478" y1="114" x2="582" y2="116" stroke="black" stroke-width="1" />
<line x1="582" y1="116" x2="687" y2="114" stroke="black" stroke-width="1" />
<rect x="403" y="112" width="74" height="5" style="fill:#f5b024;stroke:black;stroke-width:1;fill-opacity:1;stroke-opacity:0.3" />
<rect x="687" y="112" width="74" height="5" style="fill:#f5b024;stroke:black;stroke-width:1;fill-opacity:1;stroke-opacity:0.3" />
<line x1="488" y1="121" x2="492" y2="123" stroke="black" stroke-width="1" />
<line x1="492" y1="123" x2="497" y2="121" stroke="black" stroke-width="1" />
<rect x="413" y="119" width="74" height="5" style="fill:#f5b024;stroke:black;stroke-width:1;fill-opacity:1;stroke-opacity:0.3" />
<rect x="497" y="119" width="3" height="5" style="fill:#f5b024;stroke:black;stroke-width:1;fill-opacity:1;stroke-opacity:0.3" />
<line x1="501" y1="121" x2="632" y2="121" stroke="pink" stroke-width="1" />
<rect x="632" y="119" width="59" height="5" style="fill:#f5b024;stroke:black;stroke-width:1;fill-opacity:1;stroke-opacity:0.3" />
<line x1="488" y1="128" x2="578" y2="130" stroke="black" stroke-width="1" />
<line x1="578" y1="130" x2="668" y2="128" stroke="black" stroke-width="1" />
<rect x="413" y="126" width="74" height="5" style="fill:#f5b024;stroke:black;stroke-width:1;fill-opacity:1;stroke-opacity:0.3" />
<rect x="668" y="126" width="74" height="5" style="fill:#f5b024;stroke:black;stroke-width:1;fill-opacity:1;stroke-opacity:0.3" />
<line x1="487" y1="135" x2="563" y2="137" stroke="black" stroke-width="1" />
<line x1="563" y1="137" x2="640" y2="135" stroke="black" stroke-width="1" />
<rect x="420" y="133" width="66" height="5" style="fill:#f5b024;stroke:black;stroke-width:1;fill-opacity:1;stroke-opacity:0.3" />
<rect x="640" y="133" width="74" height="5" style="fill:#f5b024;stroke:black;stroke-width:1;fill-opacity:1;stroke-opacity:0.3" />
<line x1="494" y1="142" x2="571" y2="144" stroke="black" stroke-width="1" />
<line x1="571" y1="144" x2="648" y2="142" stroke="black" stroke-width="1" />
<rect x="420" y="140" width="74" height="5" style="fill:#f5b024;stroke:black;stroke-width:1;fill-opacity:1;stroke-opacity:0.3" />
<rect x="648" y="140" width="74" height="5" style="fill:#f5b024;stroke:black;stroke-width:1;fill-opacity:1;stroke-opacity:0.3" />
<line x1="663" y1="149" x2="670" y2="151" stroke="black" stroke-width="1" />
<line x1="670" y1="151" x2="678" y2="149" stroke="black" stroke-width="1" />
<rect x="420" y="147" width="80" height="5" style="fill:#f5b024;stroke:black;stroke-width:1;fill-opacity:1;stroke-opacity:0.3" />
<line x1="501" y1="149" x2="632" y2="149" stroke="pink" stroke-width="1" />
<rect x="632" y="147" width="31" height="5" style="fill:#f5b024;stroke:black;stroke-width:1;fill-opacity:1;stroke-opacity:0.3" />
<rect x="678" y="147" width="112" height="5" style="fill:#f5b024;stroke:black;stroke-width:1;fill-opacity:1;stroke-opacity:0.3" />
<line x1="496" y1="156" x2="606" y2="158" stroke="black" stroke-width="1" />
<line x1="606" y1="158" x2="717" y2="156" stroke="black" stroke-width="1" />
<rect x="421" y="154" width="74" height="5" style="fill:#f5b024;stroke:black;stroke-width:1;fill-opacity:1;stroke-opacity:0.3" />
<rect x="717" y="154" width="74" height="5" style="fill:#f5b024;stroke:black;stroke-width:1;fill-opacity:1;stroke-opacity:0.3" />
<line x1="634" y1="163" x2="666" y2="165" stroke="black" stroke-width="1" />
<line x1="666" y1="165" x2="699" y2="163" stroke="black" stroke-width="1" />
<rect x="428" y="161" width="72" height="5" style="fill:#f5b024;stroke:black;stroke-width:1;fill-opacity:1;stroke-opacity:0.3" />
<line x1="501" y1="163" x2="632" y2="163" stroke="pink" stroke-width="1" />
<rect x="632" y="161" width="2" height="5" style="fill:#f5b024;stroke:black;stroke-width:1;fill-opacity:1;stroke-opacity:0.3" />
<rect x="699" y="161" width="74" height="5" style="fill:#f5b024;stroke:black;stroke-width:1;fill-opacity:1;stroke-opacity:0.3" />
<line x1="669" y1="30" x2="684" y2="32" stroke="black" stroke-width="1" />
<line x1="684" y1="32" x2="699" y2="30" stroke="black" stroke-width="1" />
<rect x="463" y="28" width="38" height="5" style="fill:#f5b024;stroke:black;stroke-width:1;fill-opacity:1;stroke-opacity:0.3" />
<line x1="501" y1="30" x2="632" y2="30" stroke="pink" stroke-width="1" />
<rect x="632" y="28" width="36" height="5" style="fill:#f5b024;stroke:black;stroke-width:1;fill-opacity:1;stroke-opacity:0.3" />
<rect x="699" y="28" width="74" height="5" style="fill:#f5b024;stroke:black;stroke-width:1;fill-opacity:1;stroke-opacity:0.3" />
<line x1="720" y1="37" x2="737" y2="39" stroke="black" stroke-width="1" />
<line x1="737" y1="39" x2="755" y2="37" stroke="black" stroke-width="1" />
<rect x="645" y="35" width="74" height="5" style="fill:#f5b024;stroke:black;stroke-width:1;fill-opacity:1;stroke-opacity:0.3" />
<rect x="755" y="35" width="74" height="5" style="fill:#f5b024;stroke:black;stroke-width:1;fill-opacity:1;stroke-opacity:0.3" />
<line x1="735" y1="51" x2="741" y2="53" stroke="black" stroke-width="1" />
<line x1="741" y1="53" x2="747" y2="51" stroke="black" stroke-width="1" />
<rect x="660" y="49" width="74" height="5" style="fill:#f5b024;stroke:black;stroke-width:1;fill-opacity:1;stroke-opacity:0.3" />
<rect x="747" y="49" width="74" height="5" style="fill:#f5b024;stroke:black;stroke-width:1;fill-opacity:1;stroke-opacity:0.3" />
<line x1="753" y1="58" x2="761" y2="60" stroke="black" stroke-width="1" />
<line x1="761" y1="60" x2="770" y2="58" stroke="black" stroke-width="1" />
<rect x="678" y="56" width="74" height="5" style="fill:#f5b024;stroke:black;stroke-width:1;fill-opacity:1;stroke-opacity:0.3" />
<rect x="770" y="56" width="74" height="5" style="fill:#f5b024;stroke:black;stroke-width:1;fill-opacity:1;stroke-opacity:0.3" />
<line x1="756" y1="65" x2="770" y2="67" stroke="black" stroke-width="1" />
<line x1="770" y1="67" x2="785" y2="65" stroke="black" stroke-width="1" />
<rect x="681" y="63" width="74" height="5" style="fill:#f5b024;stroke:black;stroke-width:1;fill-opacity:1;stroke-opacity:0.3" />
<rect x="785" y="63" width="74" height="5" style="fill:#f5b024;stroke:black;stroke-width:1;fill-opacity:1;stroke-opacity:0.3" />
<line x1="773" y1="72" x2="809" y2="74" stroke="black" stroke-width="1" />
<line x1="809" y1="74" x2="846" y2="72" stroke="black" stroke-width="1" />
<rect x="699" y="70" width="74" height="5" style="fill:#f5b024;stroke:black;stroke-width:1;fill-opacity:1;stroke-opacity:0.3" />
<rect x="846" y="70" width="74" height="5" style="fill:#f5b024;stroke:black;stroke-width:1;fill-opacity:1;stroke-opacity:0.3" />
<line x1="773" y1="86" x2="789" y2="88" stroke="black" stroke-width="1" />
<line x1="789" y1="88" x2="806" y2="86" stroke="black" stroke-width="1" />
<rect x="699" y="84" width="74" height="5" style="fill:#f5b024;stroke:black;stroke-width:1;fill-opacity:1;stroke-opacity:0.3" />
<rect x="806" y="84" width="74" height="5" style="fill:#f5b024;stroke:black;stroke-width:1;fill-opacity:1;stroke-opacity:0.3" />
<line x1="773" y1="121" x2="779" y2="123" stroke="black" stroke-width="1" />
<line x1="779" y1="123" x2="785" y2="121" stroke="black" stroke-width="1" />
<rect x="699" y="119" width="74" height="5" style="fill:#f5b024;stroke:black;stroke-width:1;fill-opacity:1;stroke-opacity:0.3" />
<rect x="785" y="119" width="74" height="5" style="fill:#f5b024;stroke:black;stroke-width:1;fill-opacity:1;stroke-opacity:0.3" />
<line x1="796" y1="44" x2="803" y2="46" stroke="black" stroke-width="1" />
<line x1="803" y1="46" x2="811" y2="44" stroke="black" stroke-width="1" />
<rect x="721" y="42" width="74" height="5" style="fill:#f5b024;stroke:black;stroke-width:1;fill-opacity:1;stroke-opacity:0.3" />
<rect x="811" y="42" width="74" height="5" style="fill:#f5b024;stroke:black;stroke-width:1;fill-opacity:1;stroke-opacity:0.3" />
<line x1="797" y1="93" x2="807" y2="95" stroke="black" stroke-width="1" />
<line x1="807" y1="95" x2="818" y2="93" stroke="black" stroke-width="1" />
<rect x="723" y="91" width="74" height="5" style="fill:#f5b024;stroke:black;stroke-width:1;fill-opacity:1;stroke-opacity:0.3" />
<rect x="818" y="91" width="74" height="5" style="fill:#f5b024;stroke:black;stroke-width:1;fill-opacity:1;stroke-opacity:0.3" />
<line x1="797" y1="100" x2="833" y2="102" stroke="black" stroke-width="1" />
<line x1="833" y1="102" x2="870" y2="100" stroke="black" stroke-width="1" />
<rect x="723" y="98" width="74" height="5" style="fill:#f5b024;stroke:black;stroke-width:1;fill-opacity:1;stroke-opacity:0.3" />
<rect x="870" y="98" width="74" height="5" style="fill:#f5b024;stroke:black;stroke-width:1;fill-opacity:1;stroke-opacity:0.3" />
<line x1="798" y1="135" x2="806" y2="137" stroke="black" stroke-width="1" />
<line x1="806" y1="137" x2="815" y2="135" stroke="black" stroke-width="1" />
<rect x="723" y="133" width="74" height="5" style="fill:#f5b024;stroke:black;stroke-width:1;fill-opacity:1;stroke-opacity:0.3" />
<rect x="815" y="133" width="74" height="5" style="fill:#f5b024;stroke:black;stroke-width:1;fill-opacity:1;stroke-opacity:0.3" />
<line x1="797" y1="142" x2="809" y2="144" stroke="black" stroke-width="1" />
<line x1="809" y1="144" x2="821" y2="142" stroke="black" stroke-width="1" />
<rect x="723" y="140" width="74" height="5" style="fill:#f5b024;stroke:black;stroke-width:1;fill-opacity:1;stroke-opacity:0.3" />
<rect x="821" y="140" width="74" height="5" style="fill:#f5b024;stroke:black;stroke-width:1;fill-opacity:1;stroke-opacity:0.3" />
<line x1="817" y1="107" x2="834" y2="109" stroke="black" stroke-width="1" />
<line x1="834" y1="109" x2="851" y2="107" stroke="black" stroke-width="1" />
<rect x="743" y="105" width="74" height="5" style="fill:#f5b024;stroke:black;stroke-width:1;fill-opacity:1;stroke-opacity:0.3" />
<rect x="851" y="105" width="74" height="5" style="fill:#f5b024;stroke:black;stroke-width:1;fill-opacity:1;stroke-opacity:0.3" />
<line x1="850" y1="30" x2="857" y2="32" stroke="black" stroke-width="1" />
<line x1="857" y1="32" x2="864" y2="30" stroke="black" stroke-width="1" />
<rect x="775" y="28" width="74" height="5" style="fill:#f5b024;stroke:black;stroke-width:1;fill-opacity:1;stroke-opacity:0.3" />
<rect x="864" y="28" width="74" height="5" style="fill:#f5b024;stroke:black;stroke-width:1;fill-opacity:1;stroke-opacity:0.3" />
<text x="15"  y="176" style="font-family:Arial;font-size:10;stroke:black;fill:black;">all.merged.bam</text>
</svg>
    
