<?xml version="1.0" encoding="utf-8" standalone="no"?>
<!DOCTYPE svg PUBLIC "-//W3C//DTD SVG 1.1//EN"
  "http://www.w3.org/Graphics/SVG/1.1/DTD/svg11.dtd">
<svg height="1140" width="1000" version="1.1" viewBox="0 0 1000 1140" xmlns="http://www.w3.org/2000/svg" xmlns:xlink="http://www.w3.org/1999/xlink">
<line x1="21" y1="11" x2="978" y2="11" stroke="black" stroke-width="1" />
<rect x="21" y="9" width="26" height="5" style="fill:#f50002;stroke:black;stroke-width:1;fill-opacity:1;stroke-opacity:0.3" />
<rect x="47" y="9" width="12" height="5" style="fill:#53a1b5;stroke:black;stroke-width:1;fill-opacity:1;stroke-opacity:0.3" />
<rect x="256" y="9" width="15" height="5" style="fill:#53a1b5;stroke:black;stroke-width:1;fill-opacity:1;stroke-opacity:0.3" />
<rect x="332" y="9" width="129" height="5" style="fill:#53a1b5;stroke:black;stroke-width:1;fill-opacity:1;stroke-opacity:0.3" />
<rect x="461" y="9" width="516" height="5" style="fill:#f50002;stroke:black;stroke-width:1;fill-opacity:1;stroke-opacity:0.3" />
<text x="21"  y="23" style="font-family:Arial;font-size:10;stroke:black;fill:black;">Cre17.g743697.t1.1.v5.5 (+) chromosome_17:6619733-6624164</text>
<line x1="437" y1="30" x2="446" y2="32" stroke="black" stroke-width="1" />
<line x1="446" y1="32" x2="456" y2="30" stroke="black" stroke-width="1" />
<rect x="416" y="28" width="21" height="5" style="fill:#f5b024;stroke:black;stroke-width:1;fill-opacity:1;stroke-opacity:0.3" />
<rect x="456" y="28" width="21" height="5" style="fill:#f5b024;stroke:black;stroke-width:1;fill-opacity:1;stroke-opacity:0.3" />
<line x1="477" y1="37" x2="485" y2="39" stroke="black" stroke-width="1" />
<line x1="485" y1="39" x2="493" y2="37" stroke="black" stroke-width="1" />
<rect x="455" y="35" width="21" height="5" style="fill:#f5b024;stroke:black;stroke-width:1;fill-opacity:1;stroke-opacity:0.3" />
<rect x="493" y="35" width="21" height="5" style="fill:#f5b024;stroke:black;stroke-width:1;fill-opacity:1;stroke-opacity:0.3" />
<line x1="873" y1="30" x2="874" y2="32" stroke="black" stroke-width="1" />
<line x1="874" y1="32" x2="875" y2="30" stroke="black" stroke-width="1" />
<rect x="840" y="28" width="32" height="5" style="fill:#f5b024;stroke:black;stroke-width:1;fill-opacity:1;stroke-opacity:0.3" />
<rect x="875" y="28" width="32" height="5" style="fill:#f5b024;stroke:black;stroke-width:1;fill-opacity:1;stroke-opacity:0.3" />
<line x1="873" y1="37" x2="874" y2="39" stroke="black" stroke-width="1" />
<line x1="874" y1="39" x2="875" y2="37" stroke="black" stroke-width="1" />
<rect x="841" y="35" width="32" height="5" style="fill:#5d3c2d;stroke:black;stroke-width:1;fill-opacity:1;stroke-opacity:0.3" />
<rect x="875" y="35" width="32" height="5" style="fill:#5d3c2d;stroke:black;stroke-width:1;fill-opacity:1;stroke-opacity:0.3" />
<line x1="888" y1="44" x2="889" y2="46" stroke="black" stroke-width="1" />
<line x1="889" y1="46" x2="891" y2="44" stroke="black" stroke-width="1" />
<rect x="866" y="42" width="21" height="5" style="fill:#f5b024;stroke:black;stroke-width:1;fill-opacity:1;stroke-opacity:0.3" />
<rect x="891" y="42" width="21" height="5" style="fill:#f5b024;stroke:black;stroke-width:1;fill-opacity:1;stroke-opacity:0.3" />
<line x1="913" y1="51" x2="915" y2="53" stroke="black" stroke-width="1" />
<line x1="915" y1="53" x2="918" y2="51" stroke="black" stroke-width="1" />
<rect x="881" y="49" width="32" height="5" style="fill:#f5b024;stroke:black;stroke-width:1;fill-opacity:1;stroke-opacity:0.3" />
<rect x="918" y="49" width="32" height="5" style="fill:#f5b024;stroke:black;stroke-width:1;fill-opacity:1;stroke-opacity:0.3" />
<line x1="905" y1="58" x2="907" y2="60" stroke="black" stroke-width="1" />
<line x1="907" y1="60" x2="909" y2="58" stroke="black" stroke-width="1" />
<rect x="884" y="56" width="21" height="5" style="fill:#f5b024;stroke:black;stroke-width:1;fill-opacity:1;stroke-opacity:0.3" />
<rect x="909" y="56" width="21" height="5" style="fill:#f5b024;stroke:black;stroke-width:1;fill-opacity:1;stroke-opacity:0.3" />
<line x1="917" y1="65" x2="923" y2="67" stroke="black" stroke-width="1" />
<line x1="923" y1="67" x2="930" y2="65" stroke="black" stroke-width="1" />
<rect x="895" y="63" width="21" height="5" style="fill:#f5b024;stroke:black;stroke-width:1;fill-opacity:1;stroke-opacity:0.3" />
<rect x="930" y="63" width="21" height="5" style="fill:#f5b024;stroke:black;stroke-width:1;fill-opacity:1;stroke-opacity:0.3" />
<line x1="917" y1="72" x2="919" y2="74" stroke="black" stroke-width="1" />
<line x1="919" y1="74" x2="922" y2="72" stroke="black" stroke-width="1" />
<rect x="895" y="70" width="21" height="5" style="fill:#f5b024;stroke:black;stroke-width:1;fill-opacity:1;stroke-opacity:0.3" />
<rect x="922" y="70" width="21" height="5" style="fill:#f5b024;stroke:black;stroke-width:1;fill-opacity:1;stroke-opacity:0.3" />
<text x="15"  y="176" style="font-family:Arial;font-size:10;stroke:black;fill:black;">all.merged.bam</text>
</svg>
    
