<?xml version="1.0" encoding="utf-8" standalone="no"?>
<!DOCTYPE svg PUBLIC "-//W3C//DTD SVG 1.1//EN"
  "http://www.w3.org/Graphics/SVG/1.1/DTD/svg11.dtd">
<svg height="1140" width="1000" version="1.1" viewBox="0 0 1000 1140" xmlns="http://www.w3.org/2000/svg" xmlns:xlink="http://www.w3.org/1999/xlink">
<line x1="53" y1="11" x2="946" y2="11" stroke="black" stroke-width="1" />
<rect x="53" y="9" width="515" height="5" style="fill:#f50002;stroke:black;stroke-width:1;fill-opacity:1;stroke-opacity:0.3" />
<rect x="569" y="9" width="331" height="5" style="fill:#53a1b5;stroke:black;stroke-width:1;fill-opacity:1;stroke-opacity:0.3" />
<rect x="901" y="9" width="44" height="5" style="fill:#f50002;stroke:black;stroke-width:1;fill-opacity:1;stroke-opacity:0.3" />
<text x="53"  y="23" style="font-family:Arial;font-size:10;stroke:black;fill:black;">Cre12.g550553.t1.1.v5.5 (-) chromosome_12:8216760-8218445</text>
<line x1="65" y1="30" x2="70" y2="32" stroke="black" stroke-width="1" />
<line x1="70" y1="32" x2="75" y2="30" stroke="black" stroke-width="1" />
<rect x="12" y="28" width="53" height="5" style="fill:#5d3c2d;stroke:black;stroke-width:1;fill-opacity:1;stroke-opacity:0.3" />
<rect x="75" y="28" width="53" height="5" style="fill:#5d3c2d;stroke:black;stroke-width:1;fill-opacity:1;stroke-opacity:0.3" />
<line x1="91" y1="37" x2="98" y2="39" stroke="black" stroke-width="1" />
<line x1="98" y1="39" x2="106" y2="37" stroke="black" stroke-width="1" />
<rect x="38" y="35" width="53" height="5" style="fill:#f5b024;stroke:black;stroke-width:1;fill-opacity:1;stroke-opacity:0.3" />
<rect x="106" y="35" width="53" height="5" style="fill:#f5b024;stroke:black;stroke-width:1;fill-opacity:1;stroke-opacity:0.3" />
<line x1="117" y1="44" x2="129" y2="46" stroke="black" stroke-width="1" />
<line x1="129" y1="46" x2="141" y2="44" stroke="black" stroke-width="1" />
<rect x="38" y="42" width="79" height="5" style="fill:#f5b024;stroke:black;stroke-width:1;fill-opacity:1;stroke-opacity:0.3" />
<rect x="141" y="42" width="79" height="5" style="fill:#f5b024;stroke:black;stroke-width:1;fill-opacity:1;stroke-opacity:0.3" />
<line x1="91" y1="51" x2="106" y2="53" stroke="black" stroke-width="1" />
<line x1="106" y1="53" x2="121" y2="51" stroke="black" stroke-width="1" />
<rect x="38" y="49" width="53" height="5" style="fill:#f5b024;stroke:black;stroke-width:1;fill-opacity:1;stroke-opacity:0.3" />
<rect x="121" y="49" width="53" height="5" style="fill:#f5b024;stroke:black;stroke-width:1;fill-opacity:1;stroke-opacity:0.3" />
<line x1="91" y1="58" x2="108" y2="60" stroke="black" stroke-width="1" />
<line x1="108" y1="60" x2="125" y2="58" stroke="black" stroke-width="1" />
<rect x="38" y="56" width="53" height="5" style="fill:#f5b024;stroke:black;stroke-width:1;fill-opacity:1;stroke-opacity:0.3" />
<rect x="125" y="56" width="53" height="5" style="fill:#f5b024;stroke:black;stroke-width:1;fill-opacity:1;stroke-opacity:0.3" />
<line x1="91" y1="65" x2="97" y2="67" stroke="black" stroke-width="1" />
<line x1="97" y1="67" x2="104" y2="65" stroke="black" stroke-width="1" />
<rect x="38" y="63" width="53" height="5" style="fill:#f5b024;stroke:black;stroke-width:1;fill-opacity:1;stroke-opacity:0.3" />
<rect x="104" y="63" width="53" height="5" style="fill:#f5b024;stroke:black;stroke-width:1;fill-opacity:1;stroke-opacity:0.3" />
<line x1="90" y1="72" x2="95" y2="74" stroke="black" stroke-width="1" />
<line x1="95" y1="74" x2="100" y2="72" stroke="black" stroke-width="1" />
<rect x="39" y="70" width="50" height="5" style="fill:#f5b024;stroke:black;stroke-width:1;fill-opacity:1;stroke-opacity:0.3" />
<rect x="100" y="70" width="53" height="5" style="fill:#f5b024;stroke:black;stroke-width:1;fill-opacity:1;stroke-opacity:0.3" />
<line x1="91" y1="79" x2="103" y2="81" stroke="black" stroke-width="1" />
<line x1="103" y1="81" x2="116" y2="79" stroke="black" stroke-width="1" />
<rect x="39" y="77" width="51" height="5" style="fill:#f5b024;stroke:black;stroke-width:1;fill-opacity:1;stroke-opacity:0.3" />
<rect x="116" y="77" width="53" height="5" style="fill:#f5b024;stroke:black;stroke-width:1;fill-opacity:1;stroke-opacity:0.3" />
<line x1="92" y1="86" x2="98" y2="88" stroke="black" stroke-width="1" />
<line x1="98" y1="88" x2="104" y2="86" stroke="black" stroke-width="1" />
<rect x="39" y="84" width="53" height="5" style="fill:#f5b024;stroke:black;stroke-width:1;fill-opacity:1;stroke-opacity:0.3" />
<rect x="104" y="84" width="53" height="5" style="fill:#f5b024;stroke:black;stroke-width:1;fill-opacity:1;stroke-opacity:0.3" />
<line x1="95" y1="93" x2="100" y2="95" stroke="black" stroke-width="1" />
<line x1="100" y1="95" x2="106" y2="93" stroke="black" stroke-width="1" />
<rect x="42" y="91" width="53" height="5" style="fill:#f5b024;stroke:black;stroke-width:1;fill-opacity:1;stroke-opacity:0.3" />
<rect x="106" y="91" width="53" height="5" style="fill:#f5b024;stroke:black;stroke-width:1;fill-opacity:1;stroke-opacity:0.3" />
<line x1="114" y1="100" x2="133" y2="102" stroke="black" stroke-width="1" />
<line x1="133" y1="102" x2="153" y2="100" stroke="black" stroke-width="1" />
<rect x="62" y="98" width="52" height="5" style="fill:#f5b024;stroke:black;stroke-width:1;fill-opacity:1;stroke-opacity:0.3" />
<rect x="153" y="98" width="53" height="5" style="fill:#f5b024;stroke:black;stroke-width:1;fill-opacity:1;stroke-opacity:0.3" />
<line x1="117" y1="107" x2="127" y2="109" stroke="black" stroke-width="1" />
<line x1="127" y1="109" x2="138" y2="107" stroke="black" stroke-width="1" />
<rect x="64" y="105" width="53" height="5" style="fill:#f5b024;stroke:black;stroke-width:1;fill-opacity:1;stroke-opacity:0.3" />
<rect x="138" y="105" width="53" height="5" style="fill:#f5b024;stroke:black;stroke-width:1;fill-opacity:1;stroke-opacity:0.3" />
<line x1="117" y1="114" x2="122" y2="116" stroke="black" stroke-width="1" />
<line x1="122" y1="116" x2="128" y2="114" stroke="black" stroke-width="1" />
<rect x="64" y="112" width="53" height="5" style="fill:#f5b024;stroke:black;stroke-width:1;fill-opacity:1;stroke-opacity:0.3" />
<rect x="128" y="112" width="53" height="5" style="fill:#f5b024;stroke:black;stroke-width:1;fill-opacity:1;stroke-opacity:0.3" />
<line x1="117" y1="121" x2="196" y2="123" stroke="black" stroke-width="1" />
<line x1="196" y1="123" x2="276" y2="121" stroke="black" stroke-width="1" />
<rect x="64" y="119" width="53" height="5" style="fill:#f5b024;stroke:black;stroke-width:1;fill-opacity:1;stroke-opacity:0.3" />
<rect x="276" y="119" width="52" height="5" style="fill:#f5b024;stroke:black;stroke-width:1;fill-opacity:1;stroke-opacity:0.3" />
<line x1="143" y1="128" x2="151" y2="130" stroke="black" stroke-width="1" />
<line x1="151" y1="130" x2="159" y2="128" stroke="black" stroke-width="1" />
<rect x="64" y="126" width="79" height="5" style="fill:#f5b024;stroke:black;stroke-width:1;fill-opacity:1;stroke-opacity:0.3" />
<rect x="159" y="126" width="79" height="5" style="fill:#f5b024;stroke:black;stroke-width:1;fill-opacity:1;stroke-opacity:0.3" />
<line x1="118" y1="135" x2="125" y2="137" stroke="black" stroke-width="1" />
<line x1="125" y1="137" x2="133" y2="135" stroke="black" stroke-width="1" />
<rect x="65" y="133" width="53" height="5" style="fill:#f5b024;stroke:black;stroke-width:1;fill-opacity:1;stroke-opacity:0.3" />
<rect x="133" y="133" width="53" height="5" style="fill:#f5b024;stroke:black;stroke-width:1;fill-opacity:1;stroke-opacity:0.3" />
<line x1="117" y1="142" x2="122" y2="144" stroke="black" stroke-width="1" />
<line x1="122" y1="144" x2="128" y2="142" stroke="black" stroke-width="1" />
<rect x="65" y="140" width="52" height="5" style="fill:#f5b024;stroke:black;stroke-width:1;fill-opacity:1;stroke-opacity:0.3" />
<rect x="128" y="140" width="53" height="5" style="fill:#f5b024;stroke:black;stroke-width:1;fill-opacity:1;stroke-opacity:0.3" />
<line x1="119" y1="149" x2="128" y2="151" stroke="black" stroke-width="1" />
<line x1="128" y1="151" x2="138" y2="149" stroke="black" stroke-width="1" />
<rect x="66" y="147" width="53" height="5" style="fill:#f5b024;stroke:black;stroke-width:1;fill-opacity:1;stroke-opacity:0.3" />
<rect x="138" y="147" width="53" height="5" style="fill:#f5b024;stroke:black;stroke-width:1;fill-opacity:1;stroke-opacity:0.3" />
<line x1="121" y1="156" x2="126" y2="158" stroke="black" stroke-width="1" />
<line x1="126" y1="158" x2="132" y2="156" stroke="black" stroke-width="1" />
<rect x="68" y="154" width="53" height="5" style="fill:#f5b024;stroke:black;stroke-width:1;fill-opacity:1;stroke-opacity:0.3" />
<rect x="132" y="154" width="53" height="5" style="fill:#f5b024;stroke:black;stroke-width:1;fill-opacity:1;stroke-opacity:0.3" />
<line x1="122" y1="163" x2="125" y2="165" stroke="black" stroke-width="1" />
<line x1="125" y1="165" x2="129" y2="163" stroke="black" stroke-width="1" />
<rect x="69" y="161" width="53" height="5" style="fill:#f5b024;stroke:black;stroke-width:1;fill-opacity:1;stroke-opacity:0.3" />
<rect x="129" y="161" width="53" height="5" style="fill:#f5b024;stroke:black;stroke-width:1;fill-opacity:1;stroke-opacity:0.3" />
<line x1="182" y1="30" x2="185" y2="32" stroke="black" stroke-width="1" />
<line x1="185" y1="32" x2="189" y2="30" stroke="black" stroke-width="1" />
<rect x="129" y="28" width="53" height="5" style="fill:#f5b024;stroke:black;stroke-width:1;fill-opacity:1;stroke-opacity:0.3" />
<rect x="189" y="28" width="53" height="5" style="fill:#f5b024;stroke:black;stroke-width:1;fill-opacity:1;stroke-opacity:0.3" />
<line x1="208" y1="72" x2="224" y2="74" stroke="black" stroke-width="1" />
<line x1="224" y1="74" x2="241" y2="72" stroke="black" stroke-width="1" />
<rect x="155" y="70" width="53" height="5" style="fill:#f5b024;stroke:black;stroke-width:1;fill-opacity:1;stroke-opacity:0.3" />
<rect x="241" y="70" width="53" height="5" style="fill:#f5b024;stroke:black;stroke-width:1;fill-opacity:1;stroke-opacity:0.3" />
<line x1="210" y1="86" x2="220" y2="88" stroke="black" stroke-width="1" />
<line x1="220" y1="88" x2="231" y2="86" stroke="black" stroke-width="1" />
<rect x="157" y="84" width="53" height="5" style="fill:#f5b024;stroke:black;stroke-width:1;fill-opacity:1;stroke-opacity:0.3" />
<rect x="231" y="84" width="46" height="5" style="fill:#f5b024;stroke:black;stroke-width:1;fill-opacity:1;stroke-opacity:0.3" />
<line x1="213" y1="37" x2="236" y2="39" stroke="black" stroke-width="1" />
<line x1="236" y1="39" x2="260" y2="37" stroke="black" stroke-width="1" />
<rect x="160" y="35" width="53" height="5" style="fill:#f5b024;stroke:black;stroke-width:1;fill-opacity:1;stroke-opacity:0.3" />
<rect x="260" y="35" width="46" height="5" style="fill:#f5b024;stroke:black;stroke-width:1;fill-opacity:1;stroke-opacity:0.3" />
<line x1="307" y1="37" x2="3490" y2="37" stroke="pink" stroke-width="1" />
<rect x="3490" y="35" width="6" height="5" style="fill:#f5b024;stroke:black;stroke-width:1;fill-opacity:1;stroke-opacity:0.3" />
<line x1="213" y1="65" x2="216" y2="67" stroke="black" stroke-width="1" />
<line x1="216" y1="67" x2="219" y2="65" stroke="black" stroke-width="1" />
<rect x="160" y="63" width="53" height="5" style="fill:#5d3c2d;stroke:black;stroke-width:1;fill-opacity:1;stroke-opacity:0.3" />
<rect x="219" y="63" width="53" height="5" style="fill:#5d3c2d;stroke:black;stroke-width:1;fill-opacity:1;stroke-opacity:0.3" />
<line x1="213" y1="93" x2="216" y2="95" stroke="black" stroke-width="1" />
<line x1="216" y1="95" x2="219" y2="93" stroke="black" stroke-width="1" />
<rect x="160" y="91" width="53" height="5" style="fill:#5d3c2d;stroke:black;stroke-width:1;fill-opacity:1;stroke-opacity:0.3" />
<rect x="219" y="91" width="53" height="5" style="fill:#5d3c2d;stroke:black;stroke-width:1;fill-opacity:1;stroke-opacity:0.3" />
<line x1="222" y1="79" x2="227" y2="81" stroke="black" stroke-width="1" />
<line x1="227" y1="81" x2="233" y2="79" stroke="black" stroke-width="1" />
<rect x="169" y="77" width="53" height="5" style="fill:#f5b024;stroke:black;stroke-width:1;fill-opacity:1;stroke-opacity:0.3" />
<rect x="233" y="77" width="53" height="5" style="fill:#f5b024;stroke:black;stroke-width:1;fill-opacity:1;stroke-opacity:0.3" />
<line x1="230" y1="51" x2="245" y2="53" stroke="black" stroke-width="1" />
<line x1="245" y1="53" x2="261" y2="51" stroke="black" stroke-width="1" />
<rect x="177" y="49" width="53" height="5" style="fill:#5d3c2d;stroke:black;stroke-width:1;fill-opacity:1;stroke-opacity:0.3" />
<rect x="261" y="49" width="53" height="5" style="fill:#5d3c2d;stroke:black;stroke-width:1;fill-opacity:1;stroke-opacity:0.3" />
<line x1="231" y1="58" x2="240" y2="60" stroke="black" stroke-width="1" />
<line x1="240" y1="60" x2="249" y2="58" stroke="black" stroke-width="1" />
<rect x="178" y="56" width="53" height="5" style="fill:#f5b024;stroke:black;stroke-width:1;fill-opacity:1;stroke-opacity:0.3" />
<rect x="249" y="56" width="53" height="5" style="fill:#f5b024;stroke:black;stroke-width:1;fill-opacity:1;stroke-opacity:0.3" />
<line x1="234" y1="114" x2="251" y2="116" stroke="black" stroke-width="1" />
<line x1="251" y1="116" x2="268" y2="114" stroke="black" stroke-width="1" />
<rect x="181" y="112" width="53" height="5" style="fill:#f5b024;stroke:black;stroke-width:1;fill-opacity:1;stroke-opacity:0.3" />
<rect x="268" y="112" width="52" height="5" style="fill:#f5b024;stroke:black;stroke-width:1;fill-opacity:1;stroke-opacity:0.3" />
<line x1="237" y1="142" x2="250" y2="144" stroke="black" stroke-width="1" />
<line x1="250" y1="144" x2="264" y2="142" stroke="black" stroke-width="1" />
<rect x="184" y="140" width="53" height="5" style="fill:#f5b024;stroke:black;stroke-width:1;fill-opacity:1;stroke-opacity:0.3" />
<rect x="264" y="140" width="53" height="5" style="fill:#f5b024;stroke:black;stroke-width:1;fill-opacity:1;stroke-opacity:0.3" />
<line x1="237" y1="163" x2="251" y2="165" stroke="black" stroke-width="1" />
<line x1="251" y1="165" x2="266" y2="163" stroke="black" stroke-width="1" />
<rect x="184" y="161" width="53" height="5" style="fill:#5d3c2d;stroke:black;stroke-width:1;fill-opacity:1;stroke-opacity:0.3" />
<rect x="266" y="161" width="53" height="5" style="fill:#5d3c2d;stroke:black;stroke-width:1;fill-opacity:1;stroke-opacity:0.3" />
<line x1="238" y1="156" x2="240" y2="158" stroke="black" stroke-width="1" />
<line x1="240" y1="158" x2="243" y2="156" stroke="black" stroke-width="1" />
<rect x="185" y="154" width="53" height="5" style="fill:#f5b024;stroke:black;stroke-width:1;fill-opacity:1;stroke-opacity:0.3" />
<rect x="243" y="154" width="53" height="5" style="fill:#f5b024;stroke:black;stroke-width:1;fill-opacity:1;stroke-opacity:0.3" />
<line x1="240" y1="135" x2="243" y2="137" stroke="black" stroke-width="1" />
<line x1="243" y1="137" x2="246" y2="135" stroke="black" stroke-width="1" />
<rect x="187" y="133" width="53" height="5" style="fill:#f5b024;stroke:black;stroke-width:1;fill-opacity:1;stroke-opacity:0.3" />
<rect x="246" y="133" width="53" height="5" style="fill:#f5b024;stroke:black;stroke-width:1;fill-opacity:1;stroke-opacity:0.3" />
<line x1="244" y1="107" x2="254" y2="109" stroke="black" stroke-width="1" />
<line x1="254" y1="109" x2="264" y2="107" stroke="black" stroke-width="1" />
<rect x="191" y="105" width="53" height="5" style="fill:#f5b024;stroke:black;stroke-width:1;fill-opacity:1;stroke-opacity:0.3" />
<rect x="264" y="105" width="53" height="5" style="fill:#f5b024;stroke:black;stroke-width:1;fill-opacity:1;stroke-opacity:0.3" />
<line x1="246" y1="149" x2="250" y2="151" stroke="black" stroke-width="1" />
<line x1="250" y1="151" x2="255" y2="149" stroke="black" stroke-width="1" />
<rect x="193" y="147" width="53" height="5" style="fill:#f5b024;stroke:black;stroke-width:1;fill-opacity:1;stroke-opacity:0.3" />
<rect x="255" y="147" width="52" height="5" style="fill:#f5b024;stroke:black;stroke-width:1;fill-opacity:1;stroke-opacity:0.3" />
<line x1="307" y1="149" x2="3490" y2="149" stroke="pink" stroke-width="1" />
<rect x="3490" y="147" width="0" height="5" style="fill:#f5b024;stroke:black;stroke-width:1;fill-opacity:1;stroke-opacity:0.3" />
<line x1="260" y1="100" x2="263" y2="102" stroke="black" stroke-width="1" />
<line x1="263" y1="102" x2="266" y2="100" stroke="black" stroke-width="1" />
<rect x="207" y="98" width="53" height="5" style="fill:#f5b024;stroke:black;stroke-width:1;fill-opacity:1;stroke-opacity:0.3" />
<rect x="266" y="98" width="53" height="5" style="fill:#f5b024;stroke:black;stroke-width:1;fill-opacity:1;stroke-opacity:0.3" />
<line x1="274" y1="44" x2="298" y2="46" stroke="black" stroke-width="1" />
<line x1="298" y1="46" x2="322" y2="44" stroke="black" stroke-width="1" />
<rect x="221" y="42" width="53" height="5" style="fill:#5d3c2d;stroke:black;stroke-width:1;fill-opacity:1;stroke-opacity:0.3" />
<rect x="322" y="42" width="53" height="5" style="fill:#5d3c2d;stroke:black;stroke-width:1;fill-opacity:1;stroke-opacity:0.3" />
<line x1="291" y1="128" x2="300" y2="130" stroke="black" stroke-width="1" />
<line x1="300" y1="130" x2="309" y2="128" stroke="black" stroke-width="1" />
<rect x="239" y="126" width="51" height="5" style="fill:#f5b024;stroke:black;stroke-width:1;fill-opacity:1;stroke-opacity:0.3" />
<rect x="309" y="126" width="53" height="5" style="fill:#f5b024;stroke:black;stroke-width:1;fill-opacity:1;stroke-opacity:0.3" />
<line x1="295" y1="30" x2="303" y2="32" stroke="black" stroke-width="1" />
<line x1="303" y1="32" x2="311" y2="30" stroke="black" stroke-width="1" />
<rect x="242" y="28" width="53" height="5" style="fill:#f5b024;stroke:black;stroke-width:1;fill-opacity:1;stroke-opacity:0.3" />
<rect x="311" y="28" width="53" height="5" style="fill:#f5b024;stroke:black;stroke-width:1;fill-opacity:1;stroke-opacity:0.3" />
<line x1="330" y1="65" x2="338" y2="67" stroke="black" stroke-width="1" />
<line x1="338" y1="67" x2="346" y2="65" stroke="black" stroke-width="1" />
<rect x="277" y="63" width="53" height="5" style="fill:#5d3c2d;stroke:black;stroke-width:1;fill-opacity:1;stroke-opacity:0.3" />
<rect x="346" y="63" width="53" height="5" style="fill:#5d3c2d;stroke:black;stroke-width:1;fill-opacity:1;stroke-opacity:0.3" />
<line x1="329" y1="93" x2="331" y2="95" stroke="black" stroke-width="1" />
<line x1="331" y1="95" x2="334" y2="93" stroke="black" stroke-width="1" />
<rect x="277" y="91" width="51" height="5" style="fill:#f5b024;stroke:black;stroke-width:1;fill-opacity:1;stroke-opacity:0.3" />
<rect x="334" y="91" width="53" height="5" style="fill:#f5b024;stroke:black;stroke-width:1;fill-opacity:1;stroke-opacity:0.3" />
<line x1="333" y1="86" x2="346" y2="88" stroke="black" stroke-width="1" />
<line x1="346" y1="88" x2="360" y2="86" stroke="black" stroke-width="1" />
<rect x="280" y="84" width="53" height="5" style="fill:#f5b024;stroke:black;stroke-width:1;fill-opacity:1;stroke-opacity:0.3" />
<rect x="360" y="84" width="53" height="5" style="fill:#f5b024;stroke:black;stroke-width:1;fill-opacity:1;stroke-opacity:0.3" />
<line x1="369" y1="79" x2="371" y2="81" stroke="black" stroke-width="1" />
<line x1="371" y1="81" x2="374" y2="79" stroke="black" stroke-width="1" />
<rect x="291" y="77" width="77" height="5" style="fill:#f5b024;stroke:black;stroke-width:1;fill-opacity:1;stroke-opacity:0.3" />
<rect x="374" y="77" width="79" height="5" style="fill:#f5b024;stroke:black;stroke-width:1;fill-opacity:1;stroke-opacity:0.3" />
<line x1="348" y1="72" x2="351" y2="74" stroke="black" stroke-width="1" />
<line x1="351" y1="74" x2="354" y2="72" stroke="black" stroke-width="1" />
<rect x="295" y="70" width="53" height="5" style="fill:#5d3c2d;stroke:black;stroke-width:1;fill-opacity:1;stroke-opacity:0.3" />
<rect x="354" y="70" width="53" height="5" style="fill:#5d3c2d;stroke:black;stroke-width:1;fill-opacity:1;stroke-opacity:0.3" />
<line x1="376" y1="156" x2="392" y2="158" stroke="black" stroke-width="1" />
<line x1="392" y1="158" x2="409" y2="156" stroke="black" stroke-width="1" />
<rect x="296" y="154" width="79" height="5" style="fill:#f5b024;stroke:black;stroke-width:1;fill-opacity:1;stroke-opacity:0.3" />
<rect x="409" y="154" width="79" height="5" style="fill:#f5b024;stroke:black;stroke-width:1;fill-opacity:1;stroke-opacity:0.3" />
<line x1="352" y1="135" x2="355" y2="137" stroke="black" stroke-width="1" />
<line x1="355" y1="137" x2="358" y2="135" stroke="black" stroke-width="1" />
<rect x="299" y="133" width="53" height="5" style="fill:#f5b024;stroke:black;stroke-width:1;fill-opacity:1;stroke-opacity:0.3" />
<rect x="358" y="133" width="53" height="5" style="fill:#f5b024;stroke:black;stroke-width:1;fill-opacity:1;stroke-opacity:0.3" />
<line x1="355" y1="58" x2="369" y2="60" stroke="black" stroke-width="1" />
<line x1="369" y1="60" x2="383" y2="58" stroke="black" stroke-width="1" />
<rect x="302" y="56" width="53" height="5" style="fill:#f5b024;stroke:black;stroke-width:1;fill-opacity:1;stroke-opacity:0.3" />
<rect x="383" y="56" width="53" height="5" style="fill:#f5b024;stroke:black;stroke-width:1;fill-opacity:1;stroke-opacity:0.3" />
<line x1="369" y1="51" x2="385" y2="53" stroke="black" stroke-width="1" />
<line x1="385" y1="53" x2="402" y2="51" stroke="black" stroke-width="1" />
<rect x="316" y="49" width="53" height="5" style="fill:#f5b024;stroke:black;stroke-width:1;fill-opacity:1;stroke-opacity:0.3" />
<rect x="402" y="49" width="53" height="5" style="fill:#f5b024;stroke:black;stroke-width:1;fill-opacity:1;stroke-opacity:0.3" />
<line x1="369" y1="107" x2="377" y2="109" stroke="black" stroke-width="1" />
<line x1="377" y1="109" x2="386" y2="107" stroke="black" stroke-width="1" />
<rect x="318" y="105" width="51" height="5" style="fill:#f5b024;stroke:black;stroke-width:1;fill-opacity:1;stroke-opacity:0.3" />
<rect x="386" y="105" width="53" height="5" style="fill:#f5b024;stroke:black;stroke-width:1;fill-opacity:1;stroke-opacity:0.3" />
<line x1="374" y1="100" x2="379" y2="102" stroke="black" stroke-width="1" />
<line x1="379" y1="102" x2="384" y2="100" stroke="black" stroke-width="1" />
<rect x="321" y="98" width="53" height="5" style="fill:#f5b024;stroke:black;stroke-width:1;fill-opacity:1;stroke-opacity:0.3" />
<rect x="384" y="98" width="53" height="5" style="fill:#f5b024;stroke:black;stroke-width:1;fill-opacity:1;stroke-opacity:0.3" />
<line x1="375" y1="114" x2="388" y2="116" stroke="black" stroke-width="1" />
<line x1="388" y1="116" x2="402" y2="114" stroke="black" stroke-width="1" />
<rect x="322" y="112" width="53" height="5" style="fill:#f5b024;stroke:black;stroke-width:1;fill-opacity:1;stroke-opacity:0.3" />
<rect x="402" y="112" width="53" height="5" style="fill:#f5b024;stroke:black;stroke-width:1;fill-opacity:1;stroke-opacity:0.3" />
<line x1="380" y1="142" x2="396" y2="144" stroke="black" stroke-width="1" />
<line x1="396" y1="144" x2="412" y2="142" stroke="black" stroke-width="1" />
<rect x="327" y="140" width="52" height="5" style="fill:#f5b024;stroke:black;stroke-width:1;fill-opacity:1;stroke-opacity:0.3" />
<rect x="412" y="140" width="53" height="5" style="fill:#f5b024;stroke:black;stroke-width:1;fill-opacity:1;stroke-opacity:0.3" />
<line x1="380" y1="163" x2="417" y2="165" stroke="black" stroke-width="1" />
<line x1="417" y1="165" x2="455" y2="163" stroke="black" stroke-width="1" />
<rect x="328" y="161" width="52" height="5" style="fill:#f5b024;stroke:black;stroke-width:1;fill-opacity:1;stroke-opacity:0.3" />
<rect x="455" y="161" width="53" height="5" style="fill:#f5b024;stroke:black;stroke-width:1;fill-opacity:1;stroke-opacity:0.3" />
<line x1="381" y1="121" x2="391" y2="123" stroke="black" stroke-width="1" />
<line x1="391" y1="123" x2="401" y2="121" stroke="black" stroke-width="1" />
<rect x="328" y="119" width="53" height="5" style="fill:#f5b024;stroke:black;stroke-width:1;fill-opacity:1;stroke-opacity:0.3" />
<rect x="401" y="119" width="53" height="5" style="fill:#f5b024;stroke:black;stroke-width:1;fill-opacity:1;stroke-opacity:0.3" />
<line x1="419" y1="30" x2="431" y2="32" stroke="black" stroke-width="1" />
<line x1="431" y1="32" x2="443" y2="30" stroke="black" stroke-width="1" />
<rect x="366" y="28" width="53" height="5" style="fill:#f5b024;stroke:black;stroke-width:1;fill-opacity:1;stroke-opacity:0.3" />
<rect x="443" y="28" width="53" height="5" style="fill:#f5b024;stroke:black;stroke-width:1;fill-opacity:1;stroke-opacity:0.3" />
<line x1="419" y1="128" x2="422" y2="130" stroke="black" stroke-width="1" />
<line x1="422" y1="130" x2="425" y2="128" stroke="black" stroke-width="1" />
<rect x="366" y="126" width="53" height="5" style="fill:#f5b024;stroke:black;stroke-width:1;fill-opacity:1;stroke-opacity:0.3" />
<rect x="425" y="126" width="53" height="5" style="fill:#f5b024;stroke:black;stroke-width:1;fill-opacity:1;stroke-opacity:0.3" />
<line x1="433" y1="44" x2="439" y2="46" stroke="black" stroke-width="1" />
<line x1="439" y1="46" x2="446" y2="44" stroke="black" stroke-width="1" />
<rect x="380" y="42" width="53" height="5" style="fill:#f5b024;stroke:black;stroke-width:1;fill-opacity:1;stroke-opacity:0.3" />
<rect x="446" y="42" width="53" height="5" style="fill:#f5b024;stroke:black;stroke-width:1;fill-opacity:1;stroke-opacity:0.3" />
<line x1="441" y1="93" x2="448" y2="95" stroke="black" stroke-width="1" />
<line x1="448" y1="95" x2="455" y2="93" stroke="black" stroke-width="1" />
<rect x="388" y="91" width="53" height="5" style="fill:#f5b024;stroke:black;stroke-width:1;fill-opacity:1;stroke-opacity:0.3" />
<rect x="455" y="91" width="53" height="5" style="fill:#f5b024;stroke:black;stroke-width:1;fill-opacity:1;stroke-opacity:0.3" />
<line x1="452" y1="65" x2="456" y2="67" stroke="black" stroke-width="1" />
<line x1="456" y1="67" x2="461" y2="65" stroke="black" stroke-width="1" />
<rect x="399" y="63" width="53" height="5" style="fill:#f5b024;stroke:black;stroke-width:1;fill-opacity:1;stroke-opacity:0.3" />
<rect x="461" y="63" width="52" height="5" style="fill:#f5b024;stroke:black;stroke-width:1;fill-opacity:1;stroke-opacity:0.3" />
<line x1="513" y1="65" x2="3777" y2="65" stroke="pink" stroke-width="1" />
<rect x="3777" y="63" width="0" height="5" style="fill:#f5b024;stroke:black;stroke-width:1;fill-opacity:1;stroke-opacity:0.3" />
<line x1="461" y1="72" x2="463" y2="74" stroke="black" stroke-width="1" />
<line x1="463" y1="74" x2="466" y2="72" stroke="black" stroke-width="1" />
<rect x="408" y="70" width="53" height="5" style="fill:#f5b024;stroke:black;stroke-width:1;fill-opacity:1;stroke-opacity:0.3" />
<rect x="466" y="70" width="47" height="5" style="fill:#f5b024;stroke:black;stroke-width:1;fill-opacity:1;stroke-opacity:0.3" />
<line x1="513" y1="72" x2="3777" y2="72" stroke="pink" stroke-width="1" />
<rect x="3777" y="70" width="5" height="5" style="fill:#f5b024;stroke:black;stroke-width:1;fill-opacity:1;stroke-opacity:0.3" />
<line x1="465" y1="135" x2="475" y2="137" stroke="black" stroke-width="1" />
<line x1="475" y1="137" x2="485" y2="135" stroke="black" stroke-width="1" />
<rect x="412" y="133" width="53" height="5" style="fill:#5d3c2d;stroke:black;stroke-width:1;fill-opacity:1;stroke-opacity:0.3" />
<rect x="485" y="133" width="53" height="5" style="fill:#5d3c2d;stroke:black;stroke-width:1;fill-opacity:1;stroke-opacity:0.3" />
<line x1="466" y1="86" x2="471" y2="88" stroke="black" stroke-width="1" />
<line x1="471" y1="88" x2="477" y2="86" stroke="black" stroke-width="1" />
<rect x="413" y="84" width="53" height="5" style="fill:#f5b024;stroke:black;stroke-width:1;fill-opacity:1;stroke-opacity:0.3" />
<rect x="477" y="84" width="36" height="5" style="fill:#f5b024;stroke:black;stroke-width:1;fill-opacity:1;stroke-opacity:0.3" />
<line x1="513" y1="86" x2="3777" y2="86" stroke="pink" stroke-width="1" />
<rect x="3777" y="84" width="16" height="5" style="fill:#f5b024;stroke:black;stroke-width:1;fill-opacity:1;stroke-opacity:0.3" />
<line x1="489" y1="58" x2="505" y2="60" stroke="black" stroke-width="1" />
<line x1="505" y1="60" x2="521" y2="58" stroke="black" stroke-width="1" />
<rect x="436" y="56" width="53" height="5" style="fill:#f5b024;stroke:black;stroke-width:1;fill-opacity:1;stroke-opacity:0.3" />
<rect x="521" y="56" width="53" height="5" style="fill:#f5b024;stroke:black;stroke-width:1;fill-opacity:1;stroke-opacity:0.3" />
<line x1="490" y1="100" x2="500" y2="102" stroke="black" stroke-width="1" />
<line x1="500" y1="102" x2="511" y2="100" stroke="black" stroke-width="1" />
<rect x="437" y="98" width="52" height="5" style="fill:#f5b024;stroke:black;stroke-width:1;fill-opacity:1;stroke-opacity:0.3" />
<rect x="511" y="98" width="53" height="5" style="fill:#f5b024;stroke:black;stroke-width:1;fill-opacity:1;stroke-opacity:0.3" />
<line x1="492" y1="107" x2="506" y2="109" stroke="black" stroke-width="1" />
<line x1="506" y1="109" x2="521" y2="107" stroke="black" stroke-width="1" />
<rect x="439" y="105" width="52" height="5" style="fill:#f5b024;stroke:black;stroke-width:1;fill-opacity:1;stroke-opacity:0.3" />
<rect x="521" y="105" width="53" height="5" style="fill:#f5b024;stroke:black;stroke-width:1;fill-opacity:1;stroke-opacity:0.3" />
<line x1="507" y1="79" x2="514" y2="81" stroke="black" stroke-width="1" />
<line x1="514" y1="81" x2="521" y2="79" stroke="black" stroke-width="1" />
<rect x="454" y="77" width="53" height="5" style="fill:#5d3c2d;stroke:black;stroke-width:1;fill-opacity:1;stroke-opacity:0.3" />
<rect x="521" y="77" width="53" height="5" style="fill:#5d3c2d;stroke:black;stroke-width:1;fill-opacity:1;stroke-opacity:0.3" />
<line x1="505" y1="121" x2="512" y2="123" stroke="black" stroke-width="1" />
<line x1="512" y1="123" x2="519" y2="121" stroke="black" stroke-width="1" />
<rect x="454" y="119" width="50" height="5" style="fill:#f5b024;stroke:black;stroke-width:1;fill-opacity:1;stroke-opacity:0.3" />
<rect x="519" y="119" width="53" height="5" style="fill:#f5b024;stroke:black;stroke-width:1;fill-opacity:1;stroke-opacity:0.3" />
<line x1="508" y1="51" x2="514" y2="53" stroke="black" stroke-width="1" />
<line x1="514" y1="53" x2="520" y2="51" stroke="black" stroke-width="1" />
<rect x="455" y="49" width="53" height="5" style="fill:#5d3c2d;stroke:black;stroke-width:1;fill-opacity:1;stroke-opacity:0.3" />
<rect x="520" y="49" width="53" height="5" style="fill:#5d3c2d;stroke:black;stroke-width:1;fill-opacity:1;stroke-opacity:0.3" />
<line x1="506" y1="114" x2="510" y2="116" stroke="black" stroke-width="1" />
<line x1="510" y1="116" x2="514" y2="114" stroke="black" stroke-width="1" />
<rect x="455" y="112" width="50" height="5" style="fill:#f5b024;stroke:black;stroke-width:1;fill-opacity:1;stroke-opacity:0.3" />
<rect x="514" y="112" width="53" height="5" style="fill:#f5b024;stroke:black;stroke-width:1;fill-opacity:1;stroke-opacity:0.3" />
<line x1="518" y1="142" x2="521" y2="144" stroke="black" stroke-width="1" />
<line x1="521" y1="144" x2="524" y2="142" stroke="black" stroke-width="1" />
<rect x="465" y="140" width="53" height="5" style="fill:#5d3c2d;stroke:black;stroke-width:1;fill-opacity:1;stroke-opacity:0.3" />
<rect x="524" y="140" width="53" height="5" style="fill:#5d3c2d;stroke:black;stroke-width:1;fill-opacity:1;stroke-opacity:0.3" />
<line x1="557" y1="128" x2="570" y2="130" stroke="black" stroke-width="1" />
<line x1="570" y1="130" x2="584" y2="128" stroke="black" stroke-width="1" />
<rect x="478" y="126" width="79" height="5" style="fill:#f5b024;stroke:black;stroke-width:1;fill-opacity:1;stroke-opacity:0.3" />
<rect x="584" y="126" width="79" height="5" style="fill:#f5b024;stroke:black;stroke-width:1;fill-opacity:1;stroke-opacity:0.3" />
<line x1="545" y1="156" x2="561" y2="158" stroke="black" stroke-width="1" />
<line x1="561" y1="158" x2="577" y2="156" stroke="black" stroke-width="1" />
<rect x="492" y="154" width="53" height="5" style="fill:#5d3c2d;stroke:black;stroke-width:1;fill-opacity:1;stroke-opacity:0.3" />
<rect x="577" y="154" width="53" height="5" style="fill:#5d3c2d;stroke:black;stroke-width:1;fill-opacity:1;stroke-opacity:0.3" />
<line x1="577" y1="30" x2="580" y2="32" stroke="black" stroke-width="1" />
<line x1="580" y1="32" x2="584" y2="30" stroke="black" stroke-width="1" />
<rect x="497" y="28" width="79" height="5" style="fill:#f5b024;stroke:black;stroke-width:1;fill-opacity:1;stroke-opacity:0.3" />
<rect x="584" y="28" width="79" height="5" style="fill:#f5b024;stroke:black;stroke-width:1;fill-opacity:1;stroke-opacity:0.3" />
<line x1="553" y1="44" x2="569" y2="46" stroke="black" stroke-width="1" />
<line x1="569" y1="46" x2="585" y2="44" stroke="black" stroke-width="1" />
<rect x="500" y="42" width="53" height="5" style="fill:#f5b024;stroke:black;stroke-width:1;fill-opacity:1;stroke-opacity:0.3" />
<rect x="585" y="42" width="53" height="5" style="fill:#f5b024;stroke:black;stroke-width:1;fill-opacity:1;stroke-opacity:0.3" />
<line x1="563" y1="93" x2="569" y2="95" stroke="black" stroke-width="1" />
<line x1="569" y1="95" x2="576" y2="93" stroke="black" stroke-width="1" />
<rect x="510" y="91" width="53" height="5" style="fill:#f5b024;stroke:black;stroke-width:1;fill-opacity:1;stroke-opacity:0.3" />
<rect x="576" y="91" width="53" height="5" style="fill:#f5b024;stroke:black;stroke-width:1;fill-opacity:1;stroke-opacity:0.3" />
<line x1="563" y1="163" x2="567" y2="165" stroke="black" stroke-width="1" />
<line x1="567" y1="165" x2="571" y2="163" stroke="black" stroke-width="1" />
<rect x="510" y="161" width="53" height="5" style="fill:#5d3c2d;stroke:black;stroke-width:1;fill-opacity:1;stroke-opacity:0.3" />
<rect x="571" y="161" width="53" height="5" style="fill:#5d3c2d;stroke:black;stroke-width:1;fill-opacity:1;stroke-opacity:0.3" />
<line x1="591" y1="135" x2="594" y2="137" stroke="black" stroke-width="1" />
<line x1="594" y1="137" x2="597" y2="135" stroke="black" stroke-width="1" />
<rect x="538" y="133" width="52" height="5" style="fill:#f5b024;stroke:black;stroke-width:1;fill-opacity:1;stroke-opacity:0.3" />
<rect x="597" y="133" width="53" height="5" style="fill:#f5b024;stroke:black;stroke-width:1;fill-opacity:1;stroke-opacity:0.3" />
<line x1="617" y1="100" x2="623" y2="102" stroke="black" stroke-width="1" />
<line x1="623" y1="102" x2="629" y2="100" stroke="black" stroke-width="1" />
<rect x="564" y="98" width="53" height="5" style="fill:#f5b024;stroke:black;stroke-width:1;fill-opacity:1;stroke-opacity:0.3" />
<rect x="629" y="98" width="53" height="5" style="fill:#f5b024;stroke:black;stroke-width:1;fill-opacity:1;stroke-opacity:0.3" />
<line x1="621" y1="114" x2="626" y2="116" stroke="black" stroke-width="1" />
<line x1="626" y1="116" x2="632" y2="114" stroke="black" stroke-width="1" />
<rect x="568" y="112" width="53" height="5" style="fill:#f5b024;stroke:black;stroke-width:1;fill-opacity:1;stroke-opacity:0.3" />
<rect x="632" y="112" width="50" height="5" style="fill:#f5b024;stroke:black;stroke-width:1;fill-opacity:1;stroke-opacity:0.3" />
<line x1="682" y1="114" x2="3946" y2="114" stroke="pink" stroke-width="1" />
<rect x="3946" y="112" width="2" height="5" style="fill:#f5b024;stroke:black;stroke-width:1;fill-opacity:1;stroke-opacity:0.3" />
<line x1="625" y1="121" x2="637" y2="123" stroke="black" stroke-width="1" />
<line x1="637" y1="123" x2="649" y2="121" stroke="black" stroke-width="1" />
<rect x="572" y="119" width="52" height="5" style="fill:#f5b024;stroke:black;stroke-width:1;fill-opacity:1;stroke-opacity:0.3" />
<rect x="649" y="119" width="53" height="5" style="fill:#f5b024;stroke:black;stroke-width:1;fill-opacity:1;stroke-opacity:0.3" />
<line x1="626" y1="51" x2="629" y2="53" stroke="black" stroke-width="1" />
<line x1="629" y1="53" x2="633" y2="51" stroke="black" stroke-width="1" />
<rect x="573" y="49" width="53" height="5" style="fill:#5d3c2d;stroke:black;stroke-width:1;fill-opacity:1;stroke-opacity:0.3" />
<rect x="633" y="49" width="49" height="5" style="fill:#5d3c2d;stroke:black;stroke-width:1;fill-opacity:1;stroke-opacity:0.3" />
<line x1="682" y1="51" x2="3946" y2="51" stroke="pink" stroke-width="1" />
<rect x="3946" y="49" width="3" height="5" style="fill:#5d3c2d;stroke:black;stroke-width:1;fill-opacity:1;stroke-opacity:0.3" />
<line x1="653" y1="58" x2="660" y2="60" stroke="black" stroke-width="1" />
<line x1="660" y1="60" x2="668" y2="58" stroke="black" stroke-width="1" />
<rect x="574" y="56" width="79" height="5" style="fill:#f5b024;stroke:black;stroke-width:1;fill-opacity:1;stroke-opacity:0.3" />
<rect x="668" y="56" width="13" height="5" style="fill:#f5b024;stroke:black;stroke-width:1;fill-opacity:1;stroke-opacity:0.3" />
<line x1="682" y1="58" x2="3946" y2="58" stroke="pink" stroke-width="1" />
<rect x="3946" y="56" width="65" height="5" style="fill:#f5b024;stroke:black;stroke-width:1;fill-opacity:1;stroke-opacity:0.3" />
<line x1="627" y1="79" x2="630" y2="81" stroke="black" stroke-width="1" />
<line x1="630" y1="81" x2="634" y2="79" stroke="black" stroke-width="1" />
<rect x="574" y="77" width="53" height="5" style="fill:#f5b024;stroke:black;stroke-width:1;fill-opacity:1;stroke-opacity:0.3" />
<rect x="634" y="77" width="48" height="5" style="fill:#f5b024;stroke:black;stroke-width:1;fill-opacity:1;stroke-opacity:0.3" />
<line x1="682" y1="79" x2="3946" y2="79" stroke="pink" stroke-width="1" />
<rect x="3946" y="77" width="4" height="5" style="fill:#f5b024;stroke:black;stroke-width:1;fill-opacity:1;stroke-opacity:0.3" />
<line x1="627" y1="107" x2="630" y2="109" stroke="black" stroke-width="1" />
<line x1="630" y1="109" x2="634" y2="107" stroke="black" stroke-width="1" />
<rect x="574" y="105" width="53" height="5" style="fill:#f5b024;stroke:black;stroke-width:1;fill-opacity:1;stroke-opacity:0.3" />
<rect x="634" y="105" width="48" height="5" style="fill:#f5b024;stroke:black;stroke-width:1;fill-opacity:1;stroke-opacity:0.3" />
<line x1="682" y1="107" x2="3946" y2="107" stroke="pink" stroke-width="1" />
<rect x="3946" y="105" width="4" height="5" style="fill:#f5b024;stroke:black;stroke-width:1;fill-opacity:1;stroke-opacity:0.3" />
<line x1="629" y1="142" x2="633" y2="144" stroke="black" stroke-width="1" />
<line x1="633" y1="144" x2="637" y2="142" stroke="black" stroke-width="1" />
<rect x="577" y="140" width="52" height="5" style="fill:#f5b024;stroke:black;stroke-width:1;fill-opacity:1;stroke-opacity:0.3" />
<rect x="637" y="140" width="53" height="5" style="fill:#f5b024;stroke:black;stroke-width:1;fill-opacity:1;stroke-opacity:0.3" />
<line x1="677" y1="163" x2="688" y2="165" stroke="black" stroke-width="1" />
<line x1="688" y1="165" x2="699" y2="163" stroke="black" stroke-width="1" />
<rect x="624" y="161" width="53" height="5" style="fill:#f5b024;stroke:black;stroke-width:1;fill-opacity:1;stroke-opacity:0.3" />
<rect x="699" y="161" width="53" height="5" style="fill:#f5b024;stroke:black;stroke-width:1;fill-opacity:1;stroke-opacity:0.3" />
<line x1="681" y1="93" x2="698" y2="95" stroke="black" stroke-width="1" />
<line x1="698" y1="95" x2="716" y2="93" stroke="black" stroke-width="1" />
<rect x="629" y="91" width="52" height="5" style="fill:#f5b024;stroke:black;stroke-width:1;fill-opacity:1;stroke-opacity:0.3" />
<rect x="716" y="91" width="53" height="5" style="fill:#f5b024;stroke:black;stroke-width:1;fill-opacity:1;stroke-opacity:0.3" />
<line x1="698" y1="44" x2="717" y2="46" stroke="black" stroke-width="1" />
<line x1="717" y1="46" x2="737" y2="44" stroke="black" stroke-width="1" />
<rect x="645" y="42" width="53" height="5" style="fill:#f5b024;stroke:black;stroke-width:1;fill-opacity:1;stroke-opacity:0.3" />
<rect x="737" y="42" width="53" height="5" style="fill:#f5b024;stroke:black;stroke-width:1;fill-opacity:1;stroke-opacity:0.3" />
<line x1="698" y1="156" x2="703" y2="158" stroke="black" stroke-width="1" />
<line x1="703" y1="158" x2="708" y2="156" stroke="black" stroke-width="1" />
<rect x="645" y="154" width="53" height="5" style="fill:#f5b024;stroke:black;stroke-width:1;fill-opacity:1;stroke-opacity:0.3" />
<rect x="708" y="154" width="53" height="5" style="fill:#f5b024;stroke:black;stroke-width:1;fill-opacity:1;stroke-opacity:0.3" />
<line x1="704" y1="135" x2="727" y2="137" stroke="black" stroke-width="1" />
<line x1="727" y1="137" x2="751" y2="135" stroke="black" stroke-width="1" />
<rect x="651" y="133" width="53" height="5" style="fill:#f5b024;stroke:black;stroke-width:1;fill-opacity:1;stroke-opacity:0.3" />
<rect x="751" y="133" width="53" height="5" style="fill:#f5b024;stroke:black;stroke-width:1;fill-opacity:1;stroke-opacity:0.3" />
<line x1="718" y1="30" x2="736" y2="32" stroke="black" stroke-width="1" />
<line x1="736" y1="32" x2="754" y2="30" stroke="black" stroke-width="1" />
<rect x="665" y="28" width="53" height="5" style="fill:#f5b024;stroke:black;stroke-width:1;fill-opacity:1;stroke-opacity:0.3" />
<rect x="754" y="28" width="53" height="5" style="fill:#f5b024;stroke:black;stroke-width:1;fill-opacity:1;stroke-opacity:0.3" />
<line x1="718" y1="128" x2="734" y2="130" stroke="black" stroke-width="1" />
<line x1="734" y1="130" x2="750" y2="128" stroke="black" stroke-width="1" />
<rect x="665" y="126" width="53" height="5" style="fill:#f5b024;stroke:black;stroke-width:1;fill-opacity:1;stroke-opacity:0.3" />
<rect x="750" y="126" width="53" height="5" style="fill:#f5b024;stroke:black;stroke-width:1;fill-opacity:1;stroke-opacity:0.3" />
<line x1="735" y1="100" x2="750" y2="102" stroke="black" stroke-width="1" />
<line x1="750" y1="102" x2="766" y2="100" stroke="black" stroke-width="1" />
<rect x="682" y="98" width="53" height="5" style="fill:#f5b024;stroke:black;stroke-width:1;fill-opacity:1;stroke-opacity:0.3" />
<rect x="766" y="98" width="53" height="5" style="fill:#f5b024;stroke:black;stroke-width:1;fill-opacity:1;stroke-opacity:0.3" />
<line x1="743" y1="142" x2="751" y2="144" stroke="black" stroke-width="1" />
<line x1="751" y1="144" x2="760" y2="142" stroke="black" stroke-width="1" />
<rect x="690" y="140" width="53" height="5" style="fill:#f5b024;stroke:black;stroke-width:1;fill-opacity:1;stroke-opacity:0.3" />
<rect x="760" y="140" width="53" height="5" style="fill:#f5b024;stroke:black;stroke-width:1;fill-opacity:1;stroke-opacity:0.3" />
<line x1="756" y1="121" x2="768" y2="123" stroke="black" stroke-width="1" />
<line x1="768" y1="123" x2="781" y2="121" stroke="black" stroke-width="1" />
<rect x="703" y="119" width="53" height="5" style="fill:#f5b024;stroke:black;stroke-width:1;fill-opacity:1;stroke-opacity:0.3" />
<rect x="781" y="119" width="53" height="5" style="fill:#f5b024;stroke:black;stroke-width:1;fill-opacity:1;stroke-opacity:0.3" />
<line x1="832" y1="163" x2="836" y2="165" stroke="black" stroke-width="1" />
<line x1="836" y1="165" x2="841" y2="163" stroke="black" stroke-width="1" />
<rect x="752" y="161" width="79" height="5" style="fill:#f5b024;stroke:black;stroke-width:1;fill-opacity:1;stroke-opacity:0.3" />
<rect x="841" y="161" width="79" height="5" style="fill:#f5b024;stroke:black;stroke-width:1;fill-opacity:1;stroke-opacity:0.3" />
<line x1="816" y1="156" x2="824" y2="158" stroke="black" stroke-width="1" />
<line x1="824" y1="158" x2="833" y2="156" stroke="black" stroke-width="1" />
<rect x="763" y="154" width="53" height="5" style="fill:#f5b024;stroke:black;stroke-width:1;fill-opacity:1;stroke-opacity:0.3" />
<rect x="833" y="154" width="53" height="5" style="fill:#f5b024;stroke:black;stroke-width:1;fill-opacity:1;stroke-opacity:0.3" />
<line x1="825" y1="93" x2="831" y2="95" stroke="black" stroke-width="1" />
<line x1="831" y1="95" x2="837" y2="93" stroke="black" stroke-width="1" />
<rect x="772" y="91" width="53" height="5" style="fill:#f5b024;stroke:black;stroke-width:1;fill-opacity:1;stroke-opacity:0.3" />
<rect x="837" y="91" width="53" height="5" style="fill:#f5b024;stroke:black;stroke-width:1;fill-opacity:1;stroke-opacity:0.3" />
<line x1="843" y1="44" x2="853" y2="46" stroke="black" stroke-width="1" />
<line x1="853" y1="46" x2="863" y2="44" stroke="black" stroke-width="1" />
<rect x="790" y="42" width="53" height="5" style="fill:#f5b024;stroke:black;stroke-width:1;fill-opacity:1;stroke-opacity:0.3" />
<rect x="863" y="42" width="53" height="5" style="fill:#f5b024;stroke:black;stroke-width:1;fill-opacity:1;stroke-opacity:0.3" />
<line x1="856" y1="128" x2="869" y2="130" stroke="black" stroke-width="1" />
<line x1="869" y1="130" x2="883" y2="128" stroke="black" stroke-width="1" />
<rect x="803" y="126" width="53" height="5" style="fill:#f5b024;stroke:black;stroke-width:1;fill-opacity:1;stroke-opacity:0.3" />
<rect x="883" y="126" width="53" height="5" style="fill:#f5b024;stroke:black;stroke-width:1;fill-opacity:1;stroke-opacity:0.3" />
<line x1="857" y1="135" x2="862" y2="137" stroke="black" stroke-width="1" />
<line x1="862" y1="137" x2="867" y2="135" stroke="black" stroke-width="1" />
<rect x="804" y="133" width="53" height="5" style="fill:#f5b024;stroke:black;stroke-width:1;fill-opacity:1;stroke-opacity:0.3" />
<rect x="867" y="133" width="52" height="5" style="fill:#f5b024;stroke:black;stroke-width:1;fill-opacity:1;stroke-opacity:0.3" />
<line x1="879" y1="30" x2="882" y2="32" stroke="black" stroke-width="1" />
<line x1="882" y1="32" x2="885" y2="30" stroke="black" stroke-width="1" />
<rect x="808" y="28" width="71" height="5" style="fill:#f5b024;stroke:black;stroke-width:1;fill-opacity:1;stroke-opacity:0.3" />
<rect x="885" y="28" width="79" height="5" style="fill:#f5b024;stroke:black;stroke-width:1;fill-opacity:1;stroke-opacity:0.3" />
<line x1="870" y1="142" x2="876" y2="144" stroke="black" stroke-width="1" />
<line x1="876" y1="144" x2="883" y2="142" stroke="black" stroke-width="1" />
<rect x="817" y="140" width="52" height="5" style="fill:#5d3c2d;stroke:black;stroke-width:1;fill-opacity:1;stroke-opacity:0.3" />
<rect x="883" y="140" width="53" height="5" style="fill:#5d3c2d;stroke:black;stroke-width:1;fill-opacity:1;stroke-opacity:0.3" />
<line x1="872" y1="100" x2="877" y2="102" stroke="black" stroke-width="1" />
<line x1="877" y1="102" x2="882" y2="100" stroke="black" stroke-width="1" />
<rect x="819" y="98" width="53" height="5" style="fill:#f5b024;stroke:black;stroke-width:1;fill-opacity:1;stroke-opacity:0.3" />
<rect x="882" y="98" width="53" height="5" style="fill:#f5b024;stroke:black;stroke-width:1;fill-opacity:1;stroke-opacity:0.3" />
<line x1="899" y1="121" x2="918" y2="123" stroke="black" stroke-width="1" />
<line x1="918" y1="123" x2="937" y2="121" stroke="black" stroke-width="1" />
<rect x="846" y="119" width="53" height="5" style="fill:#f5b024;stroke:black;stroke-width:1;fill-opacity:1;stroke-opacity:0.3" />
<rect x="937" y="119" width="53" height="5" style="fill:#f5b024;stroke:black;stroke-width:1;fill-opacity:1;stroke-opacity:0.3" />
<text x="15"  y="176" style="font-family:Arial;font-size:10;stroke:black;fill:black;">all.merged.bam</text>
</svg>
    
