<?xml version="1.0" encoding="utf-8" standalone="no"?>
<!DOCTYPE svg PUBLIC "-//W3C//DTD SVG 1.1//EN"
  "http://www.w3.org/Graphics/SVG/1.1/DTD/svg11.dtd">
<svg height="1140" width="1000" version="1.1" viewBox="0 0 1000 1140" xmlns="http://www.w3.org/2000/svg" xmlns:xlink="http://www.w3.org/1999/xlink">
<line x1="64" y1="11" x2="934" y2="11" stroke="black" stroke-width="1" />
<rect x="64" y="9" width="416" height="5" style="fill:#f50002;stroke:black;stroke-width:1;fill-opacity:1;stroke-opacity:0.3" />
<rect x="481" y="9" width="298" height="5" style="fill:#53a1b5;stroke:black;stroke-width:1;fill-opacity:1;stroke-opacity:0.3" />
<rect x="781" y="9" width="153" height="5" style="fill:#f50002;stroke:black;stroke-width:1;fill-opacity:1;stroke-opacity:0.3" />
<text x="64"  y="23" style="font-family:Arial;font-size:10;stroke:black;fill:black;">Cre12.g516100.t1.2.v5.5 (-) chromosome_12:3919080-3920423</text>
<line x1="90" y1="30" x2="96" y2="32" stroke="black" stroke-width="1" />
<line x1="96" y1="32" x2="103" y2="30" stroke="black" stroke-width="1" />
<rect x="25" y="28" width="64" height="5" style="fill:#f5b024;stroke:black;stroke-width:1;fill-opacity:1;stroke-opacity:0.3" />
<rect x="103" y="28" width="64" height="5" style="fill:#f5b024;stroke:black;stroke-width:1;fill-opacity:1;stroke-opacity:0.3" />
<line x1="91" y1="37" x2="103" y2="39" stroke="black" stroke-width="1" />
<line x1="103" y1="39" x2="115" y2="37" stroke="black" stroke-width="1" />
<rect x="27" y="35" width="64" height="5" style="fill:#f5b024;stroke:black;stroke-width:1;fill-opacity:1;stroke-opacity:0.3" />
<rect x="115" y="35" width="64" height="5" style="fill:#f5b024;stroke:black;stroke-width:1;fill-opacity:1;stroke-opacity:0.3" />
<line x1="91" y1="44" x2="97" y2="46" stroke="black" stroke-width="1" />
<line x1="97" y1="46" x2="104" y2="44" stroke="black" stroke-width="1" />
<rect x="27" y="42" width="64" height="5" style="fill:#f5b024;stroke:black;stroke-width:1;fill-opacity:1;stroke-opacity:0.3" />
<rect x="104" y="42" width="64" height="5" style="fill:#f5b024;stroke:black;stroke-width:1;fill-opacity:1;stroke-opacity:0.3" />
<line x1="95" y1="51" x2="106" y2="53" stroke="black" stroke-width="1" />
<line x1="106" y1="53" x2="118" y2="51" stroke="black" stroke-width="1" />
<rect x="30" y="49" width="64" height="5" style="fill:#f5b024;stroke:black;stroke-width:1;fill-opacity:1;stroke-opacity:0.3" />
<rect x="118" y="49" width="64" height="5" style="fill:#f5b024;stroke:black;stroke-width:1;fill-opacity:1;stroke-opacity:0.3" />
<line x1="96" y1="58" x2="102" y2="60" stroke="black" stroke-width="1" />
<line x1="102" y1="60" x2="109" y2="58" stroke="black" stroke-width="1" />
<rect x="31" y="56" width="64" height="5" style="fill:#f5b024;stroke:black;stroke-width:1;fill-opacity:1;stroke-opacity:0.3" />
<rect x="109" y="56" width="64" height="5" style="fill:#f5b024;stroke:black;stroke-width:1;fill-opacity:1;stroke-opacity:0.3" />
<line x1="97" y1="65" x2="103" y2="67" stroke="black" stroke-width="1" />
<line x1="103" y1="67" x2="110" y2="65" stroke="black" stroke-width="1" />
<rect x="33" y="63" width="64" height="5" style="fill:#f5b024;stroke:black;stroke-width:1;fill-opacity:1;stroke-opacity:0.3" />
<rect x="110" y="63" width="64" height="5" style="fill:#f5b024;stroke:black;stroke-width:1;fill-opacity:1;stroke-opacity:0.3" />
<line x1="121" y1="72" x2="127" y2="74" stroke="black" stroke-width="1" />
<line x1="127" y1="74" x2="133" y2="72" stroke="black" stroke-width="1" />
<rect x="56" y="70" width="64" height="5" style="fill:#f5b024;stroke:black;stroke-width:1;fill-opacity:1;stroke-opacity:0.3" />
<rect x="133" y="70" width="64" height="5" style="fill:#f5b024;stroke:black;stroke-width:1;fill-opacity:1;stroke-opacity:0.3" />
<line x1="126" y1="79" x2="139" y2="81" stroke="black" stroke-width="1" />
<line x1="139" y1="81" x2="153" y2="79" stroke="black" stroke-width="1" />
<rect x="62" y="77" width="64" height="5" style="fill:#f5b024;stroke:black;stroke-width:1;fill-opacity:1;stroke-opacity:0.3" />
<rect x="153" y="77" width="64" height="5" style="fill:#f5b024;stroke:black;stroke-width:1;fill-opacity:1;stroke-opacity:0.3" />
<line x1="126" y1="86" x2="150" y2="88" stroke="black" stroke-width="1" />
<line x1="150" y1="88" x2="174" y2="86" stroke="black" stroke-width="1" />
<rect x="62" y="84" width="64" height="5" style="fill:#f5b024;stroke:black;stroke-width:1;fill-opacity:1;stroke-opacity:0.3" />
<rect x="174" y="84" width="64" height="5" style="fill:#f5b024;stroke:black;stroke-width:1;fill-opacity:1;stroke-opacity:0.3" />
<line x1="127" y1="93" x2="143" y2="95" stroke="black" stroke-width="1" />
<line x1="143" y1="95" x2="159" y2="93" stroke="black" stroke-width="1" />
<rect x="62" y="91" width="64" height="5" style="fill:#f5b024;stroke:black;stroke-width:1;fill-opacity:1;stroke-opacity:0.3" />
<rect x="159" y="91" width="64" height="5" style="fill:#f5b024;stroke:black;stroke-width:1;fill-opacity:1;stroke-opacity:0.3" />
<line x1="126" y1="100" x2="131" y2="102" stroke="black" stroke-width="1" />
<line x1="131" y1="102" x2="136" y2="100" stroke="black" stroke-width="1" />
<rect x="62" y="98" width="64" height="5" style="fill:#f5b024;stroke:black;stroke-width:1;fill-opacity:1;stroke-opacity:0.3" />
<rect x="136" y="98" width="64" height="5" style="fill:#f5b024;stroke:black;stroke-width:1;fill-opacity:1;stroke-opacity:0.3" />
<line x1="127" y1="107" x2="133" y2="109" stroke="black" stroke-width="1" />
<line x1="133" y1="109" x2="139" y2="107" stroke="black" stroke-width="1" />
<rect x="62" y="105" width="64" height="5" style="fill:#f5b024;stroke:black;stroke-width:1;fill-opacity:1;stroke-opacity:0.3" />
<rect x="139" y="105" width="64" height="5" style="fill:#f5b024;stroke:black;stroke-width:1;fill-opacity:1;stroke-opacity:0.3" />
<line x1="125" y1="114" x2="138" y2="116" stroke="black" stroke-width="1" />
<line x1="138" y1="116" x2="151" y2="114" stroke="black" stroke-width="1" />
<rect x="62" y="112" width="62" height="5" style="fill:#f5b024;stroke:black;stroke-width:1;fill-opacity:1;stroke-opacity:0.3" />
<rect x="151" y="112" width="64" height="5" style="fill:#f5b024;stroke:black;stroke-width:1;fill-opacity:1;stroke-opacity:0.3" />
<line x1="126" y1="121" x2="131" y2="123" stroke="black" stroke-width="1" />
<line x1="131" y1="123" x2="137" y2="121" stroke="black" stroke-width="1" />
<rect x="62" y="119" width="64" height="5" style="fill:#f5b024;stroke:black;stroke-width:1;fill-opacity:1;stroke-opacity:0.3" />
<rect x="137" y="119" width="64" height="5" style="fill:#f5b024;stroke:black;stroke-width:1;fill-opacity:1;stroke-opacity:0.3" />
<line x1="126" y1="128" x2="142" y2="130" stroke="black" stroke-width="1" />
<line x1="142" y1="130" x2="159" y2="128" stroke="black" stroke-width="1" />
<rect x="62" y="126" width="63" height="5" style="fill:#5d3c2d;stroke:black;stroke-width:1;fill-opacity:1;stroke-opacity:0.3" />
<rect x="159" y="126" width="64" height="5" style="fill:#5d3c2d;stroke:black;stroke-width:1;fill-opacity:1;stroke-opacity:0.3" />
<line x1="127" y1="135" x2="137" y2="137" stroke="black" stroke-width="1" />
<line x1="137" y1="137" x2="147" y2="135" stroke="black" stroke-width="1" />
<rect x="62" y="133" width="64" height="5" style="fill:#f5b024;stroke:black;stroke-width:1;fill-opacity:1;stroke-opacity:0.3" />
<rect x="147" y="133" width="64" height="5" style="fill:#f5b024;stroke:black;stroke-width:1;fill-opacity:1;stroke-opacity:0.3" />
<line x1="126" y1="142" x2="133" y2="144" stroke="black" stroke-width="1" />
<line x1="133" y1="144" x2="140" y2="142" stroke="black" stroke-width="1" />
<rect x="62" y="140" width="64" height="5" style="fill:#5d3c2d;stroke:black;stroke-width:1;fill-opacity:1;stroke-opacity:0.3" />
<rect x="140" y="140" width="64" height="5" style="fill:#5d3c2d;stroke:black;stroke-width:1;fill-opacity:1;stroke-opacity:0.3" />
<line x1="126" y1="149" x2="131" y2="151" stroke="black" stroke-width="1" />
<line x1="131" y1="151" x2="136" y2="149" stroke="black" stroke-width="1" />
<rect x="62" y="147" width="64" height="5" style="fill:#f5b024;stroke:black;stroke-width:1;fill-opacity:1;stroke-opacity:0.3" />
<rect x="136" y="147" width="64" height="5" style="fill:#f5b024;stroke:black;stroke-width:1;fill-opacity:1;stroke-opacity:0.3" />
<line x1="126" y1="156" x2="134" y2="158" stroke="black" stroke-width="1" />
<line x1="134" y1="158" x2="143" y2="156" stroke="black" stroke-width="1" />
<rect x="62" y="154" width="64" height="5" style="fill:#f5b024;stroke:black;stroke-width:1;fill-opacity:1;stroke-opacity:0.3" />
<rect x="143" y="154" width="64" height="5" style="fill:#f5b024;stroke:black;stroke-width:1;fill-opacity:1;stroke-opacity:0.3" />
<line x1="127" y1="163" x2="131" y2="165" stroke="black" stroke-width="1" />
<line x1="131" y1="165" x2="135" y2="163" stroke="black" stroke-width="1" />
<rect x="62" y="161" width="64" height="5" style="fill:#f5b024;stroke:black;stroke-width:1;fill-opacity:1;stroke-opacity:0.3" />
<rect x="135" y="161" width="64" height="5" style="fill:#f5b024;stroke:black;stroke-width:1;fill-opacity:1;stroke-opacity:0.3" />
<line x1="233" y1="30" x2="252" y2="32" stroke="black" stroke-width="1" />
<line x1="252" y1="32" x2="272" y2="30" stroke="black" stroke-width="1" />
<rect x="168" y="28" width="64" height="5" style="fill:#f5b024;stroke:black;stroke-width:1;fill-opacity:1;stroke-opacity:0.3" />
<rect x="272" y="28" width="64" height="5" style="fill:#f5b024;stroke:black;stroke-width:1;fill-opacity:1;stroke-opacity:0.3" />
<line x1="234" y1="44" x2="245" y2="46" stroke="black" stroke-width="1" />
<line x1="245" y1="46" x2="257" y2="44" stroke="black" stroke-width="1" />
<rect x="170" y="42" width="64" height="5" style="fill:#f5b024;stroke:black;stroke-width:1;fill-opacity:1;stroke-opacity:0.3" />
<rect x="257" y="42" width="64" height="5" style="fill:#f5b024;stroke:black;stroke-width:1;fill-opacity:1;stroke-opacity:0.3" />
<line x1="239" y1="58" x2="249" y2="60" stroke="black" stroke-width="1" />
<line x1="249" y1="60" x2="259" y2="58" stroke="black" stroke-width="1" />
<rect x="174" y="56" width="64" height="5" style="fill:#f5b024;stroke:black;stroke-width:1;fill-opacity:1;stroke-opacity:0.3" />
<rect x="259" y="56" width="64" height="5" style="fill:#f5b024;stroke:black;stroke-width:1;fill-opacity:1;stroke-opacity:0.3" />
<line x1="240" y1="65" x2="245" y2="67" stroke="black" stroke-width="1" />
<line x1="245" y1="67" x2="250" y2="65" stroke="black" stroke-width="1" />
<rect x="176" y="63" width="64" height="5" style="fill:#f5b024;stroke:black;stroke-width:1;fill-opacity:1;stroke-opacity:0.3" />
<rect x="250" y="63" width="64" height="5" style="fill:#f5b024;stroke:black;stroke-width:1;fill-opacity:1;stroke-opacity:0.3" />
<line x1="245" y1="37" x2="263" y2="39" stroke="black" stroke-width="1" />
<line x1="263" y1="39" x2="282" y2="37" stroke="black" stroke-width="1" />
<rect x="180" y="35" width="64" height="5" style="fill:#f5b024;stroke:black;stroke-width:1;fill-opacity:1;stroke-opacity:0.3" />
<rect x="282" y="35" width="64" height="5" style="fill:#f5b024;stroke:black;stroke-width:1;fill-opacity:1;stroke-opacity:0.3" />
<line x1="280" y1="51" x2="298" y2="53" stroke="black" stroke-width="1" />
<line x1="298" y1="53" x2="317" y2="51" stroke="black" stroke-width="1" />
<rect x="183" y="49" width="97" height="5" style="fill:#f5b024;stroke:black;stroke-width:1;fill-opacity:1;stroke-opacity:0.3" />
<rect x="317" y="49" width="97" height="5" style="fill:#f5b024;stroke:black;stroke-width:1;fill-opacity:1;stroke-opacity:0.3" />
<line x1="266" y1="72" x2="278" y2="74" stroke="black" stroke-width="1" />
<line x1="278" y1="74" x2="291" y2="72" stroke="black" stroke-width="1" />
<rect x="201" y="70" width="64" height="5" style="fill:#f5b024;stroke:black;stroke-width:1;fill-opacity:1;stroke-opacity:0.3" />
<rect x="291" y="70" width="64" height="5" style="fill:#f5b024;stroke:black;stroke-width:1;fill-opacity:1;stroke-opacity:0.3" />
<line x1="266" y1="100" x2="294" y2="102" stroke="black" stroke-width="1" />
<line x1="294" y1="102" x2="323" y2="100" stroke="black" stroke-width="1" />
<rect x="202" y="98" width="64" height="5" style="fill:#f5b024;stroke:black;stroke-width:1;fill-opacity:1;stroke-opacity:0.3" />
<rect x="323" y="98" width="64" height="5" style="fill:#f5b024;stroke:black;stroke-width:1;fill-opacity:1;stroke-opacity:0.3" />
<line x1="266" y1="149" x2="278" y2="151" stroke="black" stroke-width="1" />
<line x1="278" y1="151" x2="290" y2="149" stroke="black" stroke-width="1" />
<rect x="202" y="147" width="64" height="5" style="fill:#f5b024;stroke:black;stroke-width:1;fill-opacity:1;stroke-opacity:0.3" />
<rect x="290" y="147" width="64" height="5" style="fill:#f5b024;stroke:black;stroke-width:1;fill-opacity:1;stroke-opacity:0.3" />
<line x1="266" y1="163" x2="271" y2="165" stroke="black" stroke-width="1" />
<line x1="271" y1="165" x2="277" y2="163" stroke="black" stroke-width="1" />
<rect x="202" y="161" width="64" height="5" style="fill:#f5b024;stroke:black;stroke-width:1;fill-opacity:1;stroke-opacity:0.3" />
<rect x="277" y="161" width="64" height="5" style="fill:#f5b024;stroke:black;stroke-width:1;fill-opacity:1;stroke-opacity:0.3" />
<line x1="267" y1="121" x2="277" y2="123" stroke="black" stroke-width="1" />
<line x1="277" y1="123" x2="288" y2="121" stroke="black" stroke-width="1" />
<rect x="202" y="119" width="64" height="5" style="fill:#f5b024;stroke:black;stroke-width:1;fill-opacity:1;stroke-opacity:0.3" />
<rect x="288" y="119" width="64" height="5" style="fill:#f5b024;stroke:black;stroke-width:1;fill-opacity:1;stroke-opacity:0.3" />
<line x1="301" y1="107" x2="305" y2="109" stroke="black" stroke-width="1" />
<line x1="305" y1="109" x2="309" y2="107" stroke="black" stroke-width="1" />
<rect x="204" y="105" width="97" height="5" style="fill:#f5b024;stroke:black;stroke-width:1;fill-opacity:1;stroke-opacity:0.3" />
<rect x="309" y="105" width="97" height="5" style="fill:#f5b024;stroke:black;stroke-width:1;fill-opacity:1;stroke-opacity:0.3" />
<line x1="270" y1="142" x2="273" y2="144" stroke="black" stroke-width="1" />
<line x1="273" y1="144" x2="276" y2="142" stroke="black" stroke-width="1" />
<rect x="205" y="140" width="64" height="5" style="fill:#f5b024;stroke:black;stroke-width:1;fill-opacity:1;stroke-opacity:0.3" />
<rect x="276" y="140" width="64" height="5" style="fill:#f5b024;stroke:black;stroke-width:1;fill-opacity:1;stroke-opacity:0.3" />
<line x1="272" y1="156" x2="284" y2="158" stroke="black" stroke-width="1" />
<line x1="284" y1="158" x2="296" y2="156" stroke="black" stroke-width="1" />
<rect x="207" y="154" width="64" height="5" style="fill:#f5b024;stroke:black;stroke-width:1;fill-opacity:1;stroke-opacity:0.3" />
<rect x="296" y="154" width="64" height="5" style="fill:#f5b024;stroke:black;stroke-width:1;fill-opacity:1;stroke-opacity:0.3" />
<line x1="273" y1="135" x2="278" y2="137" stroke="black" stroke-width="1" />
<line x1="278" y1="137" x2="284" y2="135" stroke="black" stroke-width="1" />
<rect x="211" y="133" width="62" height="5" style="fill:#f5b024;stroke:black;stroke-width:1;fill-opacity:1;stroke-opacity:0.3" />
<rect x="284" y="133" width="64" height="5" style="fill:#f5b024;stroke:black;stroke-width:1;fill-opacity:1;stroke-opacity:0.3" />
<line x1="280" y1="114" x2="284" y2="116" stroke="black" stroke-width="1" />
<line x1="284" y1="116" x2="289" y2="114" stroke="black" stroke-width="1" />
<rect x="216" y="112" width="64" height="5" style="fill:#5d3c2d;stroke:black;stroke-width:1;fill-opacity:1;stroke-opacity:0.3" />
<rect x="289" y="112" width="64" height="5" style="fill:#5d3c2d;stroke:black;stroke-width:1;fill-opacity:1;stroke-opacity:0.3" />
<line x1="283" y1="79" x2="315" y2="81" stroke="black" stroke-width="1" />
<line x1="315" y1="81" x2="348" y2="79" stroke="black" stroke-width="1" />
<rect x="218" y="77" width="64" height="5" style="fill:#f5b024;stroke:black;stroke-width:1;fill-opacity:1;stroke-opacity:0.3" />
<rect x="348" y="77" width="64" height="5" style="fill:#f5b024;stroke:black;stroke-width:1;fill-opacity:1;stroke-opacity:0.3" />
<line x1="288" y1="128" x2="314" y2="130" stroke="black" stroke-width="1" />
<line x1="314" y1="130" x2="340" y2="128" stroke="black" stroke-width="1" />
<rect x="224" y="126" width="64" height="5" style="fill:#f5b024;stroke:black;stroke-width:1;fill-opacity:1;stroke-opacity:0.3" />
<rect x="340" y="126" width="64" height="5" style="fill:#f5b024;stroke:black;stroke-width:1;fill-opacity:1;stroke-opacity:0.3" />
<line x1="321" y1="93" x2="324" y2="95" stroke="black" stroke-width="1" />
<line x1="324" y1="95" x2="328" y2="93" stroke="black" stroke-width="1" />
<rect x="224" y="91" width="97" height="5" style="fill:#f5b024;stroke:black;stroke-width:1;fill-opacity:1;stroke-opacity:0.3" />
<rect x="328" y="91" width="96" height="5" style="fill:#f5b024;stroke:black;stroke-width:1;fill-opacity:1;stroke-opacity:0.3" />
<line x1="306" y1="86" x2="359" y2="88" stroke="black" stroke-width="1" />
<line x1="359" y1="88" x2="413" y2="86" stroke="black" stroke-width="1" />
<rect x="241" y="84" width="64" height="5" style="fill:#5d3c2d;stroke:black;stroke-width:1;fill-opacity:1;stroke-opacity:0.3" />
<rect x="413" y="84" width="64" height="5" style="fill:#5d3c2d;stroke:black;stroke-width:1;fill-opacity:1;stroke-opacity:0.3" />
<line x1="378" y1="65" x2="408" y2="67" stroke="black" stroke-width="1" />
<line x1="408" y1="67" x2="439" y2="65" stroke="black" stroke-width="1" />
<rect x="314" y="63" width="63" height="5" style="fill:#f5b024;stroke:black;stroke-width:1;fill-opacity:1;stroke-opacity:0.3" />
<rect x="439" y="63" width="64" height="5" style="fill:#f5b024;stroke:black;stroke-width:1;fill-opacity:1;stroke-opacity:0.3" />
<line x1="385" y1="44" x2="436" y2="46" stroke="black" stroke-width="1" />
<line x1="436" y1="46" x2="487" y2="44" stroke="black" stroke-width="1" />
<rect x="322" y="42" width="62" height="5" style="fill:#f5b024;stroke:black;stroke-width:1;fill-opacity:1;stroke-opacity:0.3" />
<rect x="487" y="42" width="64" height="5" style="fill:#f5b024;stroke:black;stroke-width:1;fill-opacity:1;stroke-opacity:0.3" />
<line x1="388" y1="58" x2="392" y2="60" stroke="black" stroke-width="1" />
<line x1="392" y1="60" x2="397" y2="58" stroke="black" stroke-width="1" />
<rect x="323" y="56" width="64" height="5" style="fill:#f5b024;stroke:black;stroke-width:1;fill-opacity:1;stroke-opacity:0.3" />
<rect x="397" y="56" width="64" height="5" style="fill:#f5b024;stroke:black;stroke-width:1;fill-opacity:1;stroke-opacity:0.3" />
<line x1="402" y1="30" x2="416" y2="32" stroke="black" stroke-width="1" />
<line x1="416" y1="32" x2="431" y2="30" stroke="black" stroke-width="1" />
<rect x="337" y="28" width="64" height="5" style="fill:#f5b024;stroke:black;stroke-width:1;fill-opacity:1;stroke-opacity:0.3" />
<rect x="431" y="28" width="64" height="5" style="fill:#f5b024;stroke:black;stroke-width:1;fill-opacity:1;stroke-opacity:0.3" />
<line x1="406" y1="142" x2="409" y2="144" stroke="black" stroke-width="1" />
<line x1="409" y1="144" x2="413" y2="142" stroke="black" stroke-width="1" />
<rect x="341" y="140" width="64" height="5" style="fill:#f5b024;stroke:black;stroke-width:1;fill-opacity:1;stroke-opacity:0.3" />
<rect x="413" y="140" width="64" height="5" style="fill:#f5b024;stroke:black;stroke-width:1;fill-opacity:1;stroke-opacity:0.3" />
<line x1="407" y1="163" x2="421" y2="165" stroke="black" stroke-width="1" />
<line x1="421" y1="165" x2="435" y2="163" stroke="black" stroke-width="1" />
<rect x="342" y="161" width="64" height="5" style="fill:#f5b024;stroke:black;stroke-width:1;fill-opacity:1;stroke-opacity:0.3" />
<rect x="435" y="161" width="64" height="5" style="fill:#f5b024;stroke:black;stroke-width:1;fill-opacity:1;stroke-opacity:0.3" />
<line x1="411" y1="37" x2="417" y2="39" stroke="black" stroke-width="1" />
<line x1="417" y1="39" x2="423" y2="37" stroke="black" stroke-width="1" />
<rect x="347" y="35" width="64" height="5" style="fill:#f5b024;stroke:black;stroke-width:1;fill-opacity:1;stroke-opacity:0.3" />
<rect x="423" y="35" width="64" height="5" style="fill:#f5b024;stroke:black;stroke-width:1;fill-opacity:1;stroke-opacity:0.3" />
<line x1="413" y1="135" x2="418" y2="137" stroke="black" stroke-width="1" />
<line x1="418" y1="137" x2="423" y2="135" stroke="black" stroke-width="1" />
<rect x="349" y="133" width="64" height="5" style="fill:#f5b024;stroke:black;stroke-width:1;fill-opacity:1;stroke-opacity:0.3" />
<rect x="423" y="133" width="64" height="5" style="fill:#f5b024;stroke:black;stroke-width:1;fill-opacity:1;stroke-opacity:0.3" />
<line x1="418" y1="121" x2="424" y2="123" stroke="black" stroke-width="1" />
<line x1="424" y1="123" x2="430" y2="121" stroke="black" stroke-width="1" />
<rect x="353" y="119" width="64" height="5" style="fill:#f5b024;stroke:black;stroke-width:1;fill-opacity:1;stroke-opacity:0.3" />
<rect x="430" y="119" width="64" height="5" style="fill:#f5b024;stroke:black;stroke-width:1;fill-opacity:1;stroke-opacity:0.3" />
<line x1="419" y1="114" x2="426" y2="116" stroke="black" stroke-width="1" />
<line x1="426" y1="116" x2="433" y2="114" stroke="black" stroke-width="1" />
<rect x="354" y="112" width="64" height="5" style="fill:#f5b024;stroke:black;stroke-width:1;fill-opacity:1;stroke-opacity:0.3" />
<rect x="433" y="112" width="64" height="5" style="fill:#f5b024;stroke:black;stroke-width:1;fill-opacity:1;stroke-opacity:0.3" />
<line x1="420" y1="149" x2="431" y2="151" stroke="black" stroke-width="1" />
<line x1="431" y1="151" x2="443" y2="149" stroke="black" stroke-width="1" />
<rect x="355" y="147" width="64" height="5" style="fill:#f5b024;stroke:black;stroke-width:1;fill-opacity:1;stroke-opacity:0.3" />
<rect x="443" y="147" width="64" height="5" style="fill:#f5b024;stroke:black;stroke-width:1;fill-opacity:1;stroke-opacity:0.3" />
<line x1="423" y1="72" x2="467" y2="74" stroke="black" stroke-width="1" />
<line x1="467" y1="74" x2="512" y2="72" stroke="black" stroke-width="1" />
<rect x="358" y="70" width="64" height="5" style="fill:#f5b024;stroke:black;stroke-width:1;fill-opacity:1;stroke-opacity:0.3" />
<rect x="512" y="70" width="64" height="5" style="fill:#f5b024;stroke:black;stroke-width:1;fill-opacity:1;stroke-opacity:0.3" />
<line x1="426" y1="156" x2="429" y2="158" stroke="black" stroke-width="1" />
<line x1="429" y1="158" x2="433" y2="156" stroke="black" stroke-width="1" />
<rect x="361" y="154" width="64" height="5" style="fill:#f5b024;stroke:black;stroke-width:1;fill-opacity:1;stroke-opacity:0.3" />
<rect x="433" y="154" width="64" height="5" style="fill:#f5b024;stroke:black;stroke-width:1;fill-opacity:1;stroke-opacity:0.3" />
<line x1="458" y1="100" x2="463" y2="102" stroke="black" stroke-width="1" />
<line x1="463" y1="102" x2="469" y2="100" stroke="black" stroke-width="1" />
<rect x="393" y="98" width="64" height="5" style="fill:#f5b024;stroke:black;stroke-width:1;fill-opacity:1;stroke-opacity:0.3" />
<rect x="469" y="98" width="64" height="5" style="fill:#f5b024;stroke:black;stroke-width:1;fill-opacity:1;stroke-opacity:0.3" />
<line x1="467" y1="128" x2="489" y2="130" stroke="black" stroke-width="1" />
<line x1="489" y1="130" x2="511" y2="128" stroke="black" stroke-width="1" />
<rect x="405" y="126" width="62" height="5" style="fill:#f5b024;stroke:black;stroke-width:1;fill-opacity:1;stroke-opacity:0.3" />
<rect x="511" y="126" width="64" height="5" style="fill:#f5b024;stroke:black;stroke-width:1;fill-opacity:1;stroke-opacity:0.3" />
<line x1="475" y1="107" x2="510" y2="109" stroke="black" stroke-width="1" />
<line x1="510" y1="109" x2="546" y2="107" stroke="black" stroke-width="1" />
<rect x="410" y="105" width="64" height="5" style="fill:#f5b024;stroke:black;stroke-width:1;fill-opacity:1;stroke-opacity:0.3" />
<rect x="546" y="105" width="64" height="5" style="fill:#f5b024;stroke:black;stroke-width:1;fill-opacity:1;stroke-opacity:0.3" />
<line x1="478" y1="79" x2="484" y2="81" stroke="black" stroke-width="1" />
<line x1="484" y1="81" x2="490" y2="79" stroke="black" stroke-width="1" />
<rect x="413" y="77" width="64" height="5" style="fill:#f5b024;stroke:black;stroke-width:1;fill-opacity:1;stroke-opacity:0.3" />
<rect x="490" y="77" width="64" height="5" style="fill:#f5b024;stroke:black;stroke-width:1;fill-opacity:1;stroke-opacity:0.3" />
<line x1="479" y1="51" x2="509" y2="53" stroke="black" stroke-width="1" />
<line x1="509" y1="53" x2="540" y2="51" stroke="black" stroke-width="1" />
<rect x="414" y="49" width="64" height="5" style="fill:#f5b024;stroke:black;stroke-width:1;fill-opacity:1;stroke-opacity:0.3" />
<rect x="540" y="49" width="64" height="5" style="fill:#f5b024;stroke:black;stroke-width:1;fill-opacity:1;stroke-opacity:0.3" />
<line x1="488" y1="93" x2="500" y2="95" stroke="black" stroke-width="1" />
<line x1="500" y1="95" x2="512" y2="93" stroke="black" stroke-width="1" />
<rect x="424" y="91" width="63" height="5" style="fill:#f5b024;stroke:black;stroke-width:1;fill-opacity:1;stroke-opacity:0.3" />
<rect x="512" y="91" width="64" height="5" style="fill:#f5b024;stroke:black;stroke-width:1;fill-opacity:1;stroke-opacity:0.3" />
<line x1="526" y1="58" x2="529" y2="60" stroke="black" stroke-width="1" />
<line x1="529" y1="60" x2="533" y2="58" stroke="black" stroke-width="1" />
<rect x="461" y="56" width="64" height="5" style="fill:#f5b024;stroke:black;stroke-width:1;fill-opacity:1;stroke-opacity:0.3" />
<rect x="533" y="56" width="64" height="5" style="fill:#f5b024;stroke:black;stroke-width:1;fill-opacity:1;stroke-opacity:0.3" />
<line x1="542" y1="86" x2="550" y2="88" stroke="black" stroke-width="1" />
<line x1="550" y1="88" x2="559" y2="86" stroke="black" stroke-width="1" />
<rect x="477" y="84" width="64" height="5" style="fill:#f5b024;stroke:black;stroke-width:1;fill-opacity:1;stroke-opacity:0.3" />
<rect x="559" y="84" width="64" height="5" style="fill:#f5b024;stroke:black;stroke-width:1;fill-opacity:1;stroke-opacity:0.3" />
<line x1="542" y1="142" x2="548" y2="144" stroke="black" stroke-width="1" />
<line x1="548" y1="144" x2="554" y2="142" stroke="black" stroke-width="1" />
<rect x="477" y="140" width="64" height="5" style="fill:#f5b024;stroke:black;stroke-width:1;fill-opacity:1;stroke-opacity:0.3" />
<rect x="554" y="140" width="64" height="5" style="fill:#f5b024;stroke:black;stroke-width:1;fill-opacity:1;stroke-opacity:0.3" />
<line x1="553" y1="37" x2="559" y2="39" stroke="black" stroke-width="1" />
<line x1="559" y1="39" x2="565" y2="37" stroke="black" stroke-width="1" />
<rect x="488" y="35" width="64" height="5" style="fill:#5d3c2d;stroke:black;stroke-width:1;fill-opacity:1;stroke-opacity:0.3" />
<rect x="565" y="35" width="64" height="5" style="fill:#5d3c2d;stroke:black;stroke-width:1;fill-opacity:1;stroke-opacity:0.3" />
<line x1="553" y1="135" x2="584" y2="137" stroke="black" stroke-width="1" />
<line x1="584" y1="137" x2="615" y2="135" stroke="black" stroke-width="1" />
<rect x="489" y="133" width="64" height="5" style="fill:#f5b024;stroke:black;stroke-width:1;fill-opacity:1;stroke-opacity:0.3" />
<rect x="615" y="133" width="64" height="5" style="fill:#f5b024;stroke:black;stroke-width:1;fill-opacity:1;stroke-opacity:0.3" />
<line x1="560" y1="30" x2="569" y2="32" stroke="black" stroke-width="1" />
<line x1="569" y1="32" x2="578" y2="30" stroke="black" stroke-width="1" />
<rect x="496" y="28" width="64" height="5" style="fill:#f5b024;stroke:black;stroke-width:1;fill-opacity:1;stroke-opacity:0.3" />
<rect x="578" y="28" width="64" height="5" style="fill:#f5b024;stroke:black;stroke-width:1;fill-opacity:1;stroke-opacity:0.3" />
<line x1="560" y1="121" x2="580" y2="123" stroke="black" stroke-width="1" />
<line x1="580" y1="123" x2="601" y2="121" stroke="black" stroke-width="1" />
<rect x="496" y="119" width="64" height="5" style="fill:#f5b024;stroke:black;stroke-width:1;fill-opacity:1;stroke-opacity:0.3" />
<rect x="601" y="119" width="64" height="5" style="fill:#f5b024;stroke:black;stroke-width:1;fill-opacity:1;stroke-opacity:0.3" />
<line x1="560" y1="114" x2="563" y2="116" stroke="black" stroke-width="1" />
<line x1="563" y1="116" x2="567" y2="114" stroke="black" stroke-width="1" />
<rect x="498" y="112" width="62" height="5" style="fill:#f5b024;stroke:black;stroke-width:1;fill-opacity:1;stroke-opacity:0.3" />
<rect x="567" y="112" width="64" height="5" style="fill:#f5b024;stroke:black;stroke-width:1;fill-opacity:1;stroke-opacity:0.3" />
<line x1="564" y1="156" x2="570" y2="158" stroke="black" stroke-width="1" />
<line x1="570" y1="158" x2="577" y2="156" stroke="black" stroke-width="1" />
<rect x="500" y="154" width="64" height="5" style="fill:#f5b024;stroke:black;stroke-width:1;fill-opacity:1;stroke-opacity:0.3" />
<rect x="577" y="154" width="64" height="5" style="fill:#f5b024;stroke:black;stroke-width:1;fill-opacity:1;stroke-opacity:0.3" />
<line x1="561" y1="163" x2="579" y2="165" stroke="black" stroke-width="1" />
<line x1="579" y1="165" x2="597" y2="163" stroke="black" stroke-width="1" />
<rect x="500" y="161" width="61" height="5" style="fill:#f5b024;stroke:black;stroke-width:1;fill-opacity:1;stroke-opacity:0.3" />
<rect x="597" y="161" width="64" height="5" style="fill:#f5b024;stroke:black;stroke-width:1;fill-opacity:1;stroke-opacity:0.3" />
<line x1="569" y1="65" x2="587" y2="67" stroke="black" stroke-width="1" />
<line x1="587" y1="67" x2="605" y2="65" stroke="black" stroke-width="1" />
<rect x="504" y="63" width="64" height="5" style="fill:#f5b024;stroke:black;stroke-width:1;fill-opacity:1;stroke-opacity:0.3" />
<rect x="605" y="63" width="64" height="5" style="fill:#f5b024;stroke:black;stroke-width:1;fill-opacity:1;stroke-opacity:0.3" />
<line x1="572" y1="149" x2="586" y2="151" stroke="black" stroke-width="1" />
<line x1="586" y1="151" x2="601" y2="149" stroke="black" stroke-width="1" />
<rect x="507" y="147" width="64" height="5" style="fill:#f5b024;stroke:black;stroke-width:1;fill-opacity:1;stroke-opacity:0.3" />
<rect x="601" y="147" width="64" height="5" style="fill:#f5b024;stroke:black;stroke-width:1;fill-opacity:1;stroke-opacity:0.3" />
<line x1="601" y1="100" x2="609" y2="102" stroke="black" stroke-width="1" />
<line x1="609" y1="102" x2="618" y2="100" stroke="black" stroke-width="1" />
<rect x="536" y="98" width="64" height="5" style="fill:#f5b024;stroke:black;stroke-width:1;fill-opacity:1;stroke-opacity:0.3" />
<rect x="618" y="98" width="64" height="5" style="fill:#f5b024;stroke:black;stroke-width:1;fill-opacity:1;stroke-opacity:0.3" />
<line x1="616" y1="44" x2="619" y2="46" stroke="black" stroke-width="1" />
<line x1="619" y1="46" x2="623" y2="44" stroke="black" stroke-width="1" />
<rect x="551" y="42" width="64" height="5" style="fill:#f5b024;stroke:black;stroke-width:1;fill-opacity:1;stroke-opacity:0.3" />
<rect x="623" y="42" width="64" height="5" style="fill:#f5b024;stroke:black;stroke-width:1;fill-opacity:1;stroke-opacity:0.3" />
<line x1="620" y1="79" x2="626" y2="81" stroke="black" stroke-width="1" />
<line x1="626" y1="81" x2="633" y2="79" stroke="black" stroke-width="1" />
<rect x="555" y="77" width="64" height="5" style="fill:#f5b024;stroke:black;stroke-width:1;fill-opacity:1;stroke-opacity:0.3" />
<rect x="633" y="77" width="64" height="5" style="fill:#f5b024;stroke:black;stroke-width:1;fill-opacity:1;stroke-opacity:0.3" />
<line x1="641" y1="128" x2="654" y2="130" stroke="black" stroke-width="1" />
<line x1="654" y1="130" x2="667" y2="128" stroke="black" stroke-width="1" />
<rect x="576" y="126" width="64" height="5" style="fill:#f5b024;stroke:black;stroke-width:1;fill-opacity:1;stroke-opacity:0.3" />
<rect x="667" y="126" width="64" height="5" style="fill:#f5b024;stroke:black;stroke-width:1;fill-opacity:1;stroke-opacity:0.3" />
<line x1="640" y1="72" x2="653" y2="74" stroke="black" stroke-width="1" />
<line x1="653" y1="74" x2="667" y2="72" stroke="black" stroke-width="1" />
<rect x="578" y="70" width="62" height="5" style="fill:#f5b024;stroke:black;stroke-width:1;fill-opacity:1;stroke-opacity:0.3" />
<rect x="667" y="70" width="64" height="5" style="fill:#f5b024;stroke:black;stroke-width:1;fill-opacity:1;stroke-opacity:0.3" />
<line x1="643" y1="93" x2="647" y2="95" stroke="black" stroke-width="1" />
<line x1="647" y1="95" x2="652" y2="93" stroke="black" stroke-width="1" />
<rect x="579" y="91" width="64" height="5" style="fill:#f5b024;stroke:black;stroke-width:1;fill-opacity:1;stroke-opacity:0.3" />
<rect x="652" y="91" width="64" height="5" style="fill:#f5b024;stroke:black;stroke-width:1;fill-opacity:1;stroke-opacity:0.3" />
<line x1="663" y1="58" x2="671" y2="60" stroke="black" stroke-width="1" />
<line x1="671" y1="60" x2="680" y2="58" stroke="black" stroke-width="1" />
<rect x="599" y="56" width="64" height="5" style="fill:#f5b024;stroke:black;stroke-width:1;fill-opacity:1;stroke-opacity:0.3" />
<rect x="680" y="56" width="64" height="5" style="fill:#f5b024;stroke:black;stroke-width:1;fill-opacity:1;stroke-opacity:0.3" />
<line x1="670" y1="51" x2="689" y2="53" stroke="black" stroke-width="1" />
<line x1="689" y1="53" x2="709" y2="51" stroke="black" stroke-width="1" />
<rect x="605" y="49" width="64" height="5" style="fill:#f5b024;stroke:black;stroke-width:1;fill-opacity:1;stroke-opacity:0.3" />
<rect x="709" y="49" width="64" height="5" style="fill:#f5b024;stroke:black;stroke-width:1;fill-opacity:1;stroke-opacity:0.3" />
<line x1="675" y1="107" x2="699" y2="109" stroke="black" stroke-width="1" />
<line x1="699" y1="109" x2="724" y2="107" stroke="black" stroke-width="1" />
<rect x="611" y="105" width="64" height="5" style="fill:#f5b024;stroke:black;stroke-width:1;fill-opacity:1;stroke-opacity:0.3" />
<rect x="724" y="105" width="64" height="5" style="fill:#f5b024;stroke:black;stroke-width:1;fill-opacity:1;stroke-opacity:0.3" />
<line x1="684" y1="142" x2="689" y2="144" stroke="black" stroke-width="1" />
<line x1="689" y1="144" x2="695" y2="142" stroke="black" stroke-width="1" />
<rect x="619" y="140" width="64" height="5" style="fill:#f5b024;stroke:black;stroke-width:1;fill-opacity:1;stroke-opacity:0.3" />
<rect x="695" y="140" width="64" height="5" style="fill:#f5b024;stroke:black;stroke-width:1;fill-opacity:1;stroke-opacity:0.3" />
<line x1="694" y1="37" x2="699" y2="39" stroke="black" stroke-width="1" />
<line x1="699" y1="39" x2="704" y2="37" stroke="black" stroke-width="1" />
<rect x="630" y="35" width="64" height="5" style="fill:#f5b024;stroke:black;stroke-width:1;fill-opacity:1;stroke-opacity:0.3" />
<rect x="704" y="35" width="64" height="5" style="fill:#f5b024;stroke:black;stroke-width:1;fill-opacity:1;stroke-opacity:0.3" />
<line x1="705" y1="86" x2="712" y2="88" stroke="black" stroke-width="1" />
<line x1="712" y1="88" x2="719" y2="86" stroke="black" stroke-width="1" />
<rect x="641" y="84" width="64" height="5" style="fill:#f5b024;stroke:black;stroke-width:1;fill-opacity:1;stroke-opacity:0.3" />
<rect x="719" y="84" width="64" height="5" style="fill:#f5b024;stroke:black;stroke-width:1;fill-opacity:1;stroke-opacity:0.3" />
<line x1="703" y1="114" x2="706" y2="116" stroke="black" stroke-width="1" />
<line x1="706" y1="116" x2="710" y2="114" stroke="black" stroke-width="1" />
<rect x="641" y="112" width="61" height="5" style="fill:#5d3c2d;stroke:black;stroke-width:1;fill-opacity:1;stroke-opacity:0.3" />
<rect x="710" y="112" width="64" height="5" style="fill:#5d3c2d;stroke:black;stroke-width:1;fill-opacity:1;stroke-opacity:0.3" />
<line x1="708" y1="30" x2="729" y2="32" stroke="black" stroke-width="1" />
<line x1="729" y1="32" x2="750" y2="30" stroke="black" stroke-width="1" />
<rect x="643" y="28" width="64" height="5" style="fill:#f5b024;stroke:black;stroke-width:1;fill-opacity:1;stroke-opacity:0.3" />
<rect x="750" y="28" width="64" height="5" style="fill:#f5b024;stroke:black;stroke-width:1;fill-opacity:1;stroke-opacity:0.3" />
<line x1="708" y1="156" x2="711" y2="158" stroke="black" stroke-width="1" />
<line x1="711" y1="158" x2="715" y2="156" stroke="black" stroke-width="1" />
<rect x="643" y="154" width="64" height="5" style="fill:#f5b024;stroke:black;stroke-width:1;fill-opacity:1;stroke-opacity:0.3" />
<rect x="715" y="154" width="64" height="5" style="fill:#f5b024;stroke:black;stroke-width:1;fill-opacity:1;stroke-opacity:0.3" />
<line x1="727" y1="163" x2="746" y2="165" stroke="black" stroke-width="1" />
<line x1="746" y1="165" x2="766" y2="163" stroke="black" stroke-width="1" />
<rect x="662" y="161" width="64" height="5" style="fill:#f5b024;stroke:black;stroke-width:1;fill-opacity:1;stroke-opacity:0.3" />
<rect x="766" y="161" width="64" height="5" style="fill:#f5b024;stroke:black;stroke-width:1;fill-opacity:1;stroke-opacity:0.3" />
<line x1="729" y1="121" x2="742" y2="123" stroke="black" stroke-width="1" />
<line x1="742" y1="123" x2="755" y2="121" stroke="black" stroke-width="1" />
<rect x="665" y="119" width="64" height="5" style="fill:#f5b024;stroke:black;stroke-width:1;fill-opacity:1;stroke-opacity:0.3" />
<rect x="755" y="119" width="64" height="5" style="fill:#f5b024;stroke:black;stroke-width:1;fill-opacity:1;stroke-opacity:0.3" />
<line x1="729" y1="149" x2="742" y2="151" stroke="black" stroke-width="1" />
<line x1="742" y1="151" x2="755" y2="149" stroke="black" stroke-width="1" />
<rect x="665" y="147" width="64" height="5" style="fill:#f5b024;stroke:black;stroke-width:1;fill-opacity:1;stroke-opacity:0.3" />
<rect x="755" y="147" width="64" height="5" style="fill:#f5b024;stroke:black;stroke-width:1;fill-opacity:1;stroke-opacity:0.3" />
<line x1="734" y1="65" x2="741" y2="67" stroke="black" stroke-width="1" />
<line x1="741" y1="67" x2="748" y2="65" stroke="black" stroke-width="1" />
<rect x="670" y="63" width="63" height="5" style="fill:#f5b024;stroke:black;stroke-width:1;fill-opacity:1;stroke-opacity:0.3" />
<rect x="748" y="63" width="64" height="5" style="fill:#f5b024;stroke:black;stroke-width:1;fill-opacity:1;stroke-opacity:0.3" />
<line x1="746" y1="135" x2="777" y2="137" stroke="black" stroke-width="1" />
<line x1="777" y1="137" x2="808" y2="135" stroke="black" stroke-width="1" />
<rect x="681" y="133" width="64" height="5" style="fill:#f5b024;stroke:black;stroke-width:1;fill-opacity:1;stroke-opacity:0.3" />
<rect x="808" y="133" width="64" height="5" style="fill:#f5b024;stroke:black;stroke-width:1;fill-opacity:1;stroke-opacity:0.3" />
<line x1="748" y1="100" x2="752" y2="102" stroke="black" stroke-width="1" />
<line x1="752" y1="102" x2="757" y2="100" stroke="black" stroke-width="1" />
<rect x="683" y="98" width="64" height="5" style="fill:#f5b024;stroke:black;stroke-width:1;fill-opacity:1;stroke-opacity:0.3" />
<rect x="757" y="98" width="64" height="5" style="fill:#f5b024;stroke:black;stroke-width:1;fill-opacity:1;stroke-opacity:0.3" />
<line x1="753" y1="44" x2="757" y2="46" stroke="black" stroke-width="1" />
<line x1="757" y1="46" x2="762" y2="44" stroke="black" stroke-width="1" />
<rect x="688" y="42" width="64" height="5" style="fill:#f5b024;stroke:black;stroke-width:1;fill-opacity:1;stroke-opacity:0.3" />
<rect x="762" y="42" width="64" height="5" style="fill:#f5b024;stroke:black;stroke-width:1;fill-opacity:1;stroke-opacity:0.3" />
<line x1="765" y1="79" x2="785" y2="81" stroke="black" stroke-width="1" />
<line x1="785" y1="81" x2="806" y2="79" stroke="black" stroke-width="1" />
<rect x="700" y="77" width="64" height="5" style="fill:#f5b024;stroke:black;stroke-width:1;fill-opacity:1;stroke-opacity:0.3" />
<rect x="806" y="77" width="64" height="5" style="fill:#f5b024;stroke:black;stroke-width:1;fill-opacity:1;stroke-opacity:0.3" />
<line x1="787" y1="93" x2="808" y2="95" stroke="black" stroke-width="1" />
<line x1="808" y1="95" x2="830" y2="93" stroke="black" stroke-width="1" />
<rect x="722" y="91" width="64" height="5" style="fill:#f5b024;stroke:black;stroke-width:1;fill-opacity:1;stroke-opacity:0.3" />
<rect x="830" y="91" width="64" height="5" style="fill:#f5b024;stroke:black;stroke-width:1;fill-opacity:1;stroke-opacity:0.3" />
<line x1="797" y1="72" x2="801" y2="74" stroke="black" stroke-width="1" />
<line x1="801" y1="74" x2="805" y2="72" stroke="black" stroke-width="1" />
<rect x="732" y="70" width="64" height="5" style="fill:#f5b024;stroke:black;stroke-width:1;fill-opacity:1;stroke-opacity:0.3" />
<rect x="805" y="70" width="64" height="5" style="fill:#f5b024;stroke:black;stroke-width:1;fill-opacity:1;stroke-opacity:0.3" />
<line x1="796" y1="128" x2="804" y2="130" stroke="black" stroke-width="1" />
<line x1="804" y1="130" x2="813" y2="128" stroke="black" stroke-width="1" />
<rect x="732" y="126" width="64" height="5" style="fill:#f5b024;stroke:black;stroke-width:1;fill-opacity:1;stroke-opacity:0.3" />
<rect x="813" y="126" width="64" height="5" style="fill:#f5b024;stroke:black;stroke-width:1;fill-opacity:1;stroke-opacity:0.3" />
<line x1="809" y1="58" x2="816" y2="60" stroke="black" stroke-width="1" />
<line x1="816" y1="60" x2="823" y2="58" stroke="black" stroke-width="1" />
<rect x="744" y="56" width="64" height="5" style="fill:#f5b024;stroke:black;stroke-width:1;fill-opacity:1;stroke-opacity:0.3" />
<rect x="823" y="56" width="64" height="5" style="fill:#f5b024;stroke:black;stroke-width:1;fill-opacity:1;stroke-opacity:0.3" />
<line x1="825" y1="142" x2="834" y2="144" stroke="black" stroke-width="1" />
<line x1="834" y1="144" x2="844" y2="142" stroke="black" stroke-width="1" />
<rect x="760" y="140" width="64" height="5" style="fill:#f5b024;stroke:black;stroke-width:1;fill-opacity:1;stroke-opacity:0.3" />
<rect x="844" y="140" width="64" height="5" style="fill:#f5b024;stroke:black;stroke-width:1;fill-opacity:1;stroke-opacity:0.3" />
<line x1="834" y1="37" x2="841" y2="39" stroke="black" stroke-width="1" />
<line x1="841" y1="39" x2="849" y2="37" stroke="black" stroke-width="1" />
<rect x="769" y="35" width="64" height="5" style="fill:#f5b024;stroke:black;stroke-width:1;fill-opacity:1;stroke-opacity:0.3" />
<rect x="849" y="35" width="64" height="5" style="fill:#f5b024;stroke:black;stroke-width:1;fill-opacity:1;stroke-opacity:0.3" />
<line x1="840" y1="51" x2="850" y2="53" stroke="black" stroke-width="1" />
<line x1="850" y1="53" x2="860" y2="51" stroke="black" stroke-width="1" />
<rect x="776" y="49" width="64" height="5" style="fill:#f5b024;stroke:black;stroke-width:1;fill-opacity:1;stroke-opacity:0.3" />
<rect x="860" y="49" width="64" height="5" style="fill:#f5b024;stroke:black;stroke-width:1;fill-opacity:1;stroke-opacity:0.3" />
<line x1="840" y1="114" x2="851" y2="116" stroke="black" stroke-width="1" />
<line x1="851" y1="116" x2="863" y2="114" stroke="black" stroke-width="1" />
<rect x="776" y="112" width="64" height="5" style="fill:#f5b024;stroke:black;stroke-width:1;fill-opacity:1;stroke-opacity:0.3" />
<rect x="863" y="112" width="64" height="5" style="fill:#f5b024;stroke:black;stroke-width:1;fill-opacity:1;stroke-opacity:0.3" />
<line x1="845" y1="156" x2="849" y2="158" stroke="black" stroke-width="1" />
<line x1="849" y1="158" x2="854" y2="156" stroke="black" stroke-width="1" />
<rect x="781" y="154" width="64" height="5" style="fill:#f5b024;stroke:black;stroke-width:1;fill-opacity:1;stroke-opacity:0.3" />
<rect x="854" y="154" width="64" height="5" style="fill:#f5b024;stroke:black;stroke-width:1;fill-opacity:1;stroke-opacity:0.3" />
<line x1="850" y1="86" x2="857" y2="88" stroke="black" stroke-width="1" />
<line x1="857" y1="88" x2="865" y2="86" stroke="black" stroke-width="1" />
<rect x="785" y="84" width="64" height="5" style="fill:#f5b024;stroke:black;stroke-width:1;fill-opacity:1;stroke-opacity:0.3" />
<rect x="865" y="84" width="64" height="5" style="fill:#f5b024;stroke:black;stroke-width:1;fill-opacity:1;stroke-opacity:0.3" />
<line x1="853" y1="107" x2="856" y2="109" stroke="black" stroke-width="1" />
<line x1="856" y1="109" x2="860" y2="107" stroke="black" stroke-width="1" />
<rect x="789" y="105" width="64" height="5" style="fill:#f5b024;stroke:black;stroke-width:1;fill-opacity:1;stroke-opacity:0.3" />
<rect x="860" y="105" width="64" height="5" style="fill:#f5b024;stroke:black;stroke-width:1;fill-opacity:1;stroke-opacity:0.3" />
<text x="15"  y="176" style="font-family:Arial;font-size:10;stroke:black;fill:black;">all.merged.bam</text>
</svg>
    
