<?xml version="1.0" encoding="utf-8" standalone="no"?>
<!DOCTYPE svg PUBLIC "-//W3C//DTD SVG 1.1//EN"
  "http://www.w3.org/Graphics/SVG/1.1/DTD/svg11.dtd">
<svg height="1140" width="1000" version="1.1" viewBox="0 0 1000 1140" xmlns="http://www.w3.org/2000/svg" xmlns:xlink="http://www.w3.org/1999/xlink">
<line x1="38" y1="11" x2="961" y2="11" stroke="black" stroke-width="1" />
<rect x="38" y="9" width="14" height="5" style="fill:#f50002;stroke:black;stroke-width:1;fill-opacity:1;stroke-opacity:0.3" />
<rect x="53" y="9" width="281" height="5" style="fill:#53a1b5;stroke:black;stroke-width:1;fill-opacity:1;stroke-opacity:0.3" />
<rect x="439" y="9" width="56" height="5" style="fill:#53a1b5;stroke:black;stroke-width:1;fill-opacity:1;stroke-opacity:0.3" />
<rect x="554" y="9" width="50" height="5" style="fill:#53a1b5;stroke:black;stroke-width:1;fill-opacity:1;stroke-opacity:0.3" />
<rect x="681" y="9" width="218" height="5" style="fill:#53a1b5;stroke:black;stroke-width:1;fill-opacity:1;stroke-opacity:0.3" />
<rect x="900" y="9" width="60" height="5" style="fill:#f50002;stroke:black;stroke-width:1;fill-opacity:1;stroke-opacity:0.3" />
<text x="38"  y="23" style="font-family:Arial;font-size:10;stroke:black;fill:black;">Cre17.g704500.t1.1.v5.5 (+) chromosome_17:1164416-1166813</text>
<line x1="78" y1="30" x2="91" y2="32" stroke="black" stroke-width="1" />
<line x1="91" y1="32" x2="105" y2="30" stroke="black" stroke-width="1" />
<rect x="39" y="28" width="38" height="5" style="fill:#5d3c2d;stroke:black;stroke-width:1;fill-opacity:1;stroke-opacity:0.3" />
<rect x="105" y="28" width="37" height="5" style="fill:#5d3c2d;stroke:black;stroke-width:1;fill-opacity:1;stroke-opacity:0.3" />
<line x1="81" y1="37" x2="83" y2="39" stroke="black" stroke-width="1" />
<line x1="83" y1="39" x2="85" y2="37" stroke="black" stroke-width="1" />
<rect x="42" y="35" width="38" height="5" style="fill:#5d3c2d;stroke:black;stroke-width:1;fill-opacity:1;stroke-opacity:0.3" />
<rect x="85" y="35" width="35" height="5" style="fill:#5d3c2d;stroke:black;stroke-width:1;fill-opacity:1;stroke-opacity:0.3" />
<line x1="82" y1="44" x2="86" y2="46" stroke="black" stroke-width="1" />
<line x1="86" y1="46" x2="90" y2="44" stroke="black" stroke-width="1" />
<rect x="44" y="42" width="38" height="5" style="fill:#5d3c2d;stroke:black;stroke-width:1;fill-opacity:1;stroke-opacity:0.3" />
<rect x="90" y="42" width="38" height="5" style="fill:#5d3c2d;stroke:black;stroke-width:1;fill-opacity:1;stroke-opacity:0.3" />
<line x1="93" y1="51" x2="100" y2="53" stroke="black" stroke-width="1" />
<line x1="100" y1="53" x2="108" y2="51" stroke="black" stroke-width="1" />
<rect x="54" y="49" width="38" height="5" style="fill:#5d3c2d;stroke:black;stroke-width:1;fill-opacity:1;stroke-opacity:0.3" />
<rect x="108" y="49" width="38" height="5" style="fill:#5d3c2d;stroke:black;stroke-width:1;fill-opacity:1;stroke-opacity:0.3" />
<line x1="96" y1="58" x2="102" y2="60" stroke="black" stroke-width="1" />
<line x1="102" y1="60" x2="108" y2="58" stroke="black" stroke-width="1" />
<rect x="57" y="56" width="38" height="5" style="fill:#5d3c2d;stroke:black;stroke-width:1;fill-opacity:1;stroke-opacity:0.3" />
<rect x="108" y="56" width="38" height="5" style="fill:#5d3c2d;stroke:black;stroke-width:1;fill-opacity:1;stroke-opacity:0.3" />
<line x1="97" y1="65" x2="102" y2="67" stroke="black" stroke-width="1" />
<line x1="102" y1="67" x2="108" y2="65" stroke="black" stroke-width="1" />
<rect x="59" y="63" width="38" height="5" style="fill:#5d3c2d;stroke:black;stroke-width:1;fill-opacity:1;stroke-opacity:0.3" />
<rect x="108" y="63" width="38" height="5" style="fill:#5d3c2d;stroke:black;stroke-width:1;fill-opacity:1;stroke-opacity:0.3" />
<line x1="99" y1="72" x2="103" y2="74" stroke="black" stroke-width="1" />
<line x1="103" y1="74" x2="108" y2="72" stroke="black" stroke-width="1" />
<rect x="60" y="70" width="38" height="5" style="fill:#5d3c2d;stroke:black;stroke-width:1;fill-opacity:1;stroke-opacity:0.3" />
<rect x="108" y="70" width="38" height="5" style="fill:#5d3c2d;stroke:black;stroke-width:1;fill-opacity:1;stroke-opacity:0.3" />
<line x1="104" y1="79" x2="114" y2="81" stroke="black" stroke-width="1" />
<line x1="114" y1="81" x2="125" y2="79" stroke="black" stroke-width="1" />
<rect x="66" y="77" width="38" height="5" style="fill:#5d3c2d;stroke:black;stroke-width:1;fill-opacity:1;stroke-opacity:0.3" />
<rect x="125" y="77" width="38" height="5" style="fill:#5d3c2d;stroke:black;stroke-width:1;fill-opacity:1;stroke-opacity:0.3" />
<line x1="107" y1="86" x2="112" y2="88" stroke="black" stroke-width="1" />
<line x1="112" y1="88" x2="117" y2="86" stroke="black" stroke-width="1" />
<rect x="69" y="84" width="37" height="5" style="fill:#5d3c2d;stroke:black;stroke-width:1;fill-opacity:1;stroke-opacity:0.3" />
<rect x="117" y="84" width="38" height="5" style="fill:#5d3c2d;stroke:black;stroke-width:1;fill-opacity:1;stroke-opacity:0.3" />
<line x1="113" y1="93" x2="115" y2="95" stroke="black" stroke-width="1" />
<line x1="115" y1="95" x2="117" y2="93" stroke="black" stroke-width="1" />
<rect x="75" y="91" width="38" height="5" style="fill:#5d3c2d;stroke:black;stroke-width:1;fill-opacity:1;stroke-opacity:0.3" />
<rect x="117" y="91" width="38" height="5" style="fill:#5d3c2d;stroke:black;stroke-width:1;fill-opacity:1;stroke-opacity:0.3" />
<line x1="113" y1="100" x2="115" y2="102" stroke="black" stroke-width="1" />
<line x1="115" y1="102" x2="117" y2="100" stroke="black" stroke-width="1" />
<rect x="75" y="98" width="38" height="5" style="fill:#5d3c2d;stroke:black;stroke-width:1;fill-opacity:1;stroke-opacity:0.3" />
<rect x="117" y="98" width="38" height="5" style="fill:#5d3c2d;stroke:black;stroke-width:1;fill-opacity:1;stroke-opacity:0.3" />
<line x1="113" y1="107" x2="121" y2="109" stroke="black" stroke-width="1" />
<line x1="121" y1="109" x2="129" y2="107" stroke="black" stroke-width="1" />
<rect x="75" y="105" width="38" height="5" style="fill:#5d3c2d;stroke:black;stroke-width:1;fill-opacity:1;stroke-opacity:0.3" />
<rect x="129" y="105" width="36" height="5" style="fill:#5d3c2d;stroke:black;stroke-width:1;fill-opacity:1;stroke-opacity:0.3" />
<line x1="118" y1="114" x2="121" y2="116" stroke="black" stroke-width="1" />
<line x1="121" y1="116" x2="125" y2="114" stroke="black" stroke-width="1" />
<rect x="80" y="112" width="38" height="5" style="fill:#5d3c2d;stroke:black;stroke-width:1;fill-opacity:1;stroke-opacity:0.3" />
<rect x="125" y="112" width="38" height="5" style="fill:#5d3c2d;stroke:black;stroke-width:1;fill-opacity:1;stroke-opacity:0.3" />
<line x1="123" y1="121" x2="129" y2="123" stroke="black" stroke-width="1" />
<line x1="129" y1="123" x2="135" y2="121" stroke="black" stroke-width="1" />
<rect x="85" y="119" width="38" height="5" style="fill:#5d3c2d;stroke:black;stroke-width:1;fill-opacity:1;stroke-opacity:0.3" />
<rect x="135" y="119" width="38" height="5" style="fill:#5d3c2d;stroke:black;stroke-width:1;fill-opacity:1;stroke-opacity:0.3" />
<line x1="124" y1="128" x2="143" y2="130" stroke="black" stroke-width="1" />
<line x1="143" y1="130" x2="163" y2="128" stroke="black" stroke-width="1" />
<rect x="85" y="126" width="38" height="5" style="fill:#5d3c2d;stroke:black;stroke-width:1;fill-opacity:1;stroke-opacity:0.3" />
<rect x="163" y="126" width="38" height="5" style="fill:#5d3c2d;stroke:black;stroke-width:1;fill-opacity:1;stroke-opacity:0.3" />
<line x1="124" y1="135" x2="127" y2="137" stroke="black" stroke-width="1" />
<line x1="127" y1="137" x2="131" y2="135" stroke="black" stroke-width="1" />
<rect x="86" y="133" width="38" height="5" style="fill:#5d3c2d;stroke:black;stroke-width:1;fill-opacity:1;stroke-opacity:0.3" />
<rect x="131" y="133" width="36" height="5" style="fill:#5d3c2d;stroke:black;stroke-width:1;fill-opacity:1;stroke-opacity:0.3" />
<line x1="130" y1="142" x2="134" y2="144" stroke="black" stroke-width="1" />
<line x1="134" y1="144" x2="138" y2="142" stroke="black" stroke-width="1" />
<rect x="91" y="140" width="38" height="5" style="fill:#5d3c2d;stroke:black;stroke-width:1;fill-opacity:1;stroke-opacity:0.3" />
<rect x="138" y="140" width="38" height="5" style="fill:#5d3c2d;stroke:black;stroke-width:1;fill-opacity:1;stroke-opacity:0.3" />
<line x1="138" y1="149" x2="150" y2="151" stroke="black" stroke-width="1" />
<line x1="150" y1="151" x2="163" y2="149" stroke="black" stroke-width="1" />
<rect x="100" y="147" width="38" height="5" style="fill:#5d3c2d;stroke:black;stroke-width:1;fill-opacity:1;stroke-opacity:0.3" />
<rect x="163" y="147" width="38" height="5" style="fill:#5d3c2d;stroke:black;stroke-width:1;fill-opacity:1;stroke-opacity:0.3" />
<line x1="139" y1="156" x2="145" y2="158" stroke="black" stroke-width="1" />
<line x1="145" y1="158" x2="152" y2="156" stroke="black" stroke-width="1" />
<rect x="100" y="154" width="38" height="5" style="fill:#5d3c2d;stroke:black;stroke-width:1;fill-opacity:1;stroke-opacity:0.3" />
<rect x="152" y="154" width="38" height="5" style="fill:#5d3c2d;stroke:black;stroke-width:1;fill-opacity:1;stroke-opacity:0.3" />
<line x1="141" y1="163" x2="145" y2="165" stroke="black" stroke-width="1" />
<line x1="145" y1="165" x2="149" y2="163" stroke="black" stroke-width="1" />
<rect x="103" y="161" width="38" height="5" style="fill:#5d3c2d;stroke:black;stroke-width:1;fill-opacity:1;stroke-opacity:0.3" />
<rect x="149" y="161" width="37" height="5" style="fill:#5d3c2d;stroke:black;stroke-width:1;fill-opacity:1;stroke-opacity:0.3" />
<line x1="163" y1="37" x2="165" y2="39" stroke="black" stroke-width="1" />
<line x1="165" y1="39" x2="168" y2="37" stroke="black" stroke-width="1" />
<rect x="125" y="35" width="38" height="5" style="fill:#5d3c2d;stroke:black;stroke-width:1;fill-opacity:1;stroke-opacity:0.3" />
<rect x="168" y="35" width="38" height="5" style="fill:#5d3c2d;stroke:black;stroke-width:1;fill-opacity:1;stroke-opacity:0.3" />
<line x1="168" y1="44" x2="170" y2="46" stroke="black" stroke-width="1" />
<line x1="170" y1="46" x2="172" y2="44" stroke="black" stroke-width="1" />
<rect x="131" y="42" width="36" height="5" style="fill:#5d3c2d;stroke:black;stroke-width:1;fill-opacity:1;stroke-opacity:0.3" />
<rect x="172" y="42" width="38" height="5" style="fill:#5d3c2d;stroke:black;stroke-width:1;fill-opacity:1;stroke-opacity:0.3" />
<line x1="184" y1="30" x2="189" y2="32" stroke="black" stroke-width="1" />
<line x1="189" y1="32" x2="194" y2="30" stroke="black" stroke-width="1" />
<rect x="145" y="28" width="38" height="5" style="fill:#5d3c2d;stroke:black;stroke-width:1;fill-opacity:1;stroke-opacity:0.3" />
<rect x="194" y="28" width="38" height="5" style="fill:#5d3c2d;stroke:black;stroke-width:1;fill-opacity:1;stroke-opacity:0.3" />
<line x1="212" y1="51" x2="218" y2="53" stroke="black" stroke-width="1" />
<line x1="218" y1="53" x2="224" y2="51" stroke="black" stroke-width="1" />
<rect x="154" y="49" width="57" height="5" style="fill:#5d3c2d;stroke:black;stroke-width:1;fill-opacity:1;stroke-opacity:0.3" />
<rect x="224" y="49" width="57" height="5" style="fill:#5d3c2d;stroke:black;stroke-width:1;fill-opacity:1;stroke-opacity:0.3" />
<line x1="192" y1="58" x2="195" y2="60" stroke="black" stroke-width="1" />
<line x1="195" y1="60" x2="198" y2="58" stroke="black" stroke-width="1" />
<rect x="154" y="56" width="38" height="5" style="fill:#5d3c2d;stroke:black;stroke-width:1;fill-opacity:1;stroke-opacity:0.3" />
<rect x="198" y="56" width="36" height="5" style="fill:#5d3c2d;stroke:black;stroke-width:1;fill-opacity:1;stroke-opacity:0.3" />
<line x1="195" y1="65" x2="210" y2="67" stroke="black" stroke-width="1" />
<line x1="210" y1="67" x2="226" y2="65" stroke="black" stroke-width="1" />
<rect x="157" y="63" width="38" height="5" style="fill:#5d3c2d;stroke:black;stroke-width:1;fill-opacity:1;stroke-opacity:0.3" />
<rect x="226" y="63" width="38" height="5" style="fill:#5d3c2d;stroke:black;stroke-width:1;fill-opacity:1;stroke-opacity:0.3" />
<line x1="195" y1="72" x2="200" y2="74" stroke="black" stroke-width="1" />
<line x1="200" y1="74" x2="205" y2="72" stroke="black" stroke-width="1" />
<rect x="157" y="70" width="38" height="5" style="fill:#5d3c2d;stroke:black;stroke-width:1;fill-opacity:1;stroke-opacity:0.3" />
<rect x="205" y="70" width="38" height="5" style="fill:#5d3c2d;stroke:black;stroke-width:1;fill-opacity:1;stroke-opacity:0.3" />
<line x1="218" y1="86" x2="233" y2="88" stroke="black" stroke-width="1" />
<line x1="233" y1="88" x2="248" y2="86" stroke="black" stroke-width="1" />
<rect x="160" y="84" width="57" height="5" style="fill:#5d3c2d;stroke:black;stroke-width:1;fill-opacity:1;stroke-opacity:0.3" />
<rect x="248" y="84" width="55" height="5" style="fill:#5d3c2d;stroke:black;stroke-width:1;fill-opacity:1;stroke-opacity:0.3" />
<line x1="199" y1="93" x2="201" y2="95" stroke="black" stroke-width="1" />
<line x1="201" y1="95" x2="204" y2="93" stroke="black" stroke-width="1" />
<rect x="161" y="91" width="38" height="5" style="fill:#5d3c2d;stroke:black;stroke-width:1;fill-opacity:1;stroke-opacity:0.3" />
<rect x="204" y="91" width="38" height="5" style="fill:#5d3c2d;stroke:black;stroke-width:1;fill-opacity:1;stroke-opacity:0.3" />
<line x1="208" y1="79" x2="223" y2="81" stroke="black" stroke-width="1" />
<line x1="223" y1="81" x2="238" y2="79" stroke="black" stroke-width="1" />
<rect x="170" y="77" width="38" height="5" style="fill:#5d3c2d;stroke:black;stroke-width:1;fill-opacity:1;stroke-opacity:0.3" />
<rect x="238" y="77" width="38" height="5" style="fill:#5d3c2d;stroke:black;stroke-width:1;fill-opacity:1;stroke-opacity:0.3" />
<line x1="208" y1="100" x2="219" y2="102" stroke="black" stroke-width="1" />
<line x1="219" y1="102" x2="230" y2="100" stroke="black" stroke-width="1" />
<rect x="170" y="98" width="38" height="5" style="fill:#5d3c2d;stroke:black;stroke-width:1;fill-opacity:1;stroke-opacity:0.3" />
<rect x="230" y="98" width="38" height="5" style="fill:#5d3c2d;stroke:black;stroke-width:1;fill-opacity:1;stroke-opacity:0.3" />
<line x1="210" y1="107" x2="223" y2="109" stroke="black" stroke-width="1" />
<line x1="223" y1="109" x2="237" y2="107" stroke="black" stroke-width="1" />
<rect x="172" y="105" width="38" height="5" style="fill:#5d3c2d;stroke:black;stroke-width:1;fill-opacity:1;stroke-opacity:0.3" />
<rect x="237" y="105" width="38" height="5" style="fill:#5d3c2d;stroke:black;stroke-width:1;fill-opacity:1;stroke-opacity:0.3" />
<line x1="214" y1="114" x2="216" y2="116" stroke="black" stroke-width="1" />
<line x1="216" y1="116" x2="218" y2="114" stroke="black" stroke-width="1" />
<rect x="175" y="112" width="38" height="5" style="fill:#5d3c2d;stroke:black;stroke-width:1;fill-opacity:1;stroke-opacity:0.3" />
<rect x="218" y="112" width="38" height="5" style="fill:#5d3c2d;stroke:black;stroke-width:1;fill-opacity:1;stroke-opacity:0.3" />
<line x1="214" y1="121" x2="216" y2="123" stroke="black" stroke-width="1" />
<line x1="216" y1="123" x2="218" y2="121" stroke="black" stroke-width="1" />
<rect x="175" y="119" width="38" height="5" style="fill:#5d3c2d;stroke:black;stroke-width:1;fill-opacity:1;stroke-opacity:0.3" />
<rect x="218" y="119" width="38" height="5" style="fill:#5d3c2d;stroke:black;stroke-width:1;fill-opacity:1;stroke-opacity:0.3" />
<line x1="214" y1="135" x2="219" y2="137" stroke="black" stroke-width="1" />
<line x1="219" y1="137" x2="225" y2="135" stroke="black" stroke-width="1" />
<rect x="175" y="133" width="38" height="5" style="fill:#5d3c2d;stroke:black;stroke-width:1;fill-opacity:1;stroke-opacity:0.3" />
<rect x="225" y="133" width="38" height="5" style="fill:#5d3c2d;stroke:black;stroke-width:1;fill-opacity:1;stroke-opacity:0.3" />
<line x1="220" y1="142" x2="238" y2="144" stroke="black" stroke-width="1" />
<line x1="238" y1="144" x2="256" y2="142" stroke="black" stroke-width="1" />
<rect x="181" y="140" width="38" height="5" style="fill:#5d3c2d;stroke:black;stroke-width:1;fill-opacity:1;stroke-opacity:0.3" />
<rect x="256" y="140" width="38" height="5" style="fill:#5d3c2d;stroke:black;stroke-width:1;fill-opacity:1;stroke-opacity:0.3" />
<line x1="227" y1="163" x2="229" y2="165" stroke="black" stroke-width="1" />
<line x1="229" y1="165" x2="231" y2="163" stroke="black" stroke-width="1" />
<rect x="188" y="161" width="38" height="5" style="fill:#5d3c2d;stroke:black;stroke-width:1;fill-opacity:1;stroke-opacity:0.3" />
<rect x="231" y="161" width="38" height="5" style="fill:#5d3c2d;stroke:black;stroke-width:1;fill-opacity:1;stroke-opacity:0.3" />
<line x1="229" y1="156" x2="241" y2="158" stroke="black" stroke-width="1" />
<line x1="241" y1="158" x2="254" y2="156" stroke="black" stroke-width="1" />
<rect x="190" y="154" width="38" height="5" style="fill:#5d3c2d;stroke:black;stroke-width:1;fill-opacity:1;stroke-opacity:0.3" />
<rect x="254" y="154" width="38" height="5" style="fill:#5d3c2d;stroke:black;stroke-width:1;fill-opacity:1;stroke-opacity:0.3" />
<line x1="241" y1="128" x2="244" y2="130" stroke="black" stroke-width="1" />
<line x1="244" y1="130" x2="248" y2="128" stroke="black" stroke-width="1" />
<rect x="203" y="126" width="38" height="5" style="fill:#5d3c2d;stroke:black;stroke-width:1;fill-opacity:1;stroke-opacity:0.3" />
<rect x="248" y="126" width="37" height="5" style="fill:#5d3c2d;stroke:black;stroke-width:1;fill-opacity:1;stroke-opacity:0.3" />
<line x1="243" y1="149" x2="248" y2="151" stroke="black" stroke-width="1" />
<line x1="248" y1="151" x2="253" y2="149" stroke="black" stroke-width="1" />
<rect x="205" y="147" width="38" height="5" style="fill:#5d3c2d;stroke:black;stroke-width:1;fill-opacity:1;stroke-opacity:0.3" />
<rect x="253" y="147" width="38" height="5" style="fill:#5d3c2d;stroke:black;stroke-width:1;fill-opacity:1;stroke-opacity:0.3" />
<line x1="245" y1="37" x2="259" y2="39" stroke="black" stroke-width="1" />
<line x1="259" y1="39" x2="273" y2="37" stroke="black" stroke-width="1" />
<rect x="207" y="35" width="38" height="5" style="fill:#5d3c2d;stroke:black;stroke-width:1;fill-opacity:1;stroke-opacity:0.3" />
<rect x="273" y="35" width="38" height="5" style="fill:#5d3c2d;stroke:black;stroke-width:1;fill-opacity:1;stroke-opacity:0.3" />
<line x1="250" y1="44" x2="258" y2="46" stroke="black" stroke-width="1" />
<line x1="258" y1="46" x2="267" y2="44" stroke="black" stroke-width="1" />
<rect x="212" y="42" width="38" height="5" style="fill:#5d3c2d;stroke:black;stroke-width:1;fill-opacity:1;stroke-opacity:0.3" />
<rect x="267" y="42" width="37" height="5" style="fill:#5d3c2d;stroke:black;stroke-width:1;fill-opacity:1;stroke-opacity:0.3" />
<line x1="274" y1="30" x2="279" y2="32" stroke="black" stroke-width="1" />
<line x1="279" y1="32" x2="284" y2="30" stroke="black" stroke-width="1" />
<rect x="236" y="28" width="38" height="5" style="fill:#5d3c2d;stroke:black;stroke-width:1;fill-opacity:1;stroke-opacity:0.3" />
<rect x="284" y="28" width="38" height="5" style="fill:#5d3c2d;stroke:black;stroke-width:1;fill-opacity:1;stroke-opacity:0.3" />
<line x1="288" y1="58" x2="293" y2="60" stroke="black" stroke-width="1" />
<line x1="293" y1="60" x2="298" y2="58" stroke="black" stroke-width="1" />
<rect x="250" y="56" width="38" height="5" style="fill:#5d3c2d;stroke:black;stroke-width:1;fill-opacity:1;stroke-opacity:0.3" />
<rect x="298" y="56" width="36" height="5" style="fill:#5d3c2d;stroke:black;stroke-width:1;fill-opacity:1;stroke-opacity:0.3" />
<line x1="335" y1="58" x2="439" y2="58" stroke="pink" stroke-width="1" />
<rect x="439" y="56" width="1" height="5" style="fill:#5d3c2d;stroke:black;stroke-width:1;fill-opacity:1;stroke-opacity:0.3" />
<line x1="288" y1="72" x2="291" y2="74" stroke="black" stroke-width="1" />
<line x1="291" y1="74" x2="294" y2="72" stroke="black" stroke-width="1" />
<rect x="250" y="70" width="38" height="5" style="fill:#5d3c2d;stroke:black;stroke-width:1;fill-opacity:1;stroke-opacity:0.3" />
<rect x="294" y="70" width="38" height="5" style="fill:#5d3c2d;stroke:black;stroke-width:1;fill-opacity:1;stroke-opacity:0.3" />
<line x1="289" y1="93" x2="294" y2="95" stroke="black" stroke-width="1" />
<line x1="294" y1="95" x2="299" y2="93" stroke="black" stroke-width="1" />
<rect x="250" y="91" width="38" height="5" style="fill:#5d3c2d;stroke:black;stroke-width:1;fill-opacity:1;stroke-opacity:0.3" />
<rect x="299" y="91" width="35" height="5" style="fill:#5d3c2d;stroke:black;stroke-width:1;fill-opacity:1;stroke-opacity:0.3" />
<line x1="335" y1="93" x2="3350" y2="93" stroke="pink" stroke-width="1" />
<rect x="3350" y="91" width="2" height="5" style="fill:#5d3c2d;stroke:black;stroke-width:1;fill-opacity:1;stroke-opacity:0.3" />
<line x1="330" y1="51" x2="389" y2="53" stroke="black" stroke-width="1" />
<line x1="389" y1="53" x2="448" y2="51" stroke="black" stroke-width="1" />
<rect x="291" y="49" width="38" height="5" style="fill:#5d3c2d;stroke:black;stroke-width:1;fill-opacity:1;stroke-opacity:0.3" />
<rect x="448" y="49" width="35" height="5" style="fill:#5d3c2d;stroke:black;stroke-width:1;fill-opacity:1;stroke-opacity:0.3" />
<line x1="460" y1="65" x2="470" y2="67" stroke="black" stroke-width="1" />
<line x1="470" y1="67" x2="480" y2="65" stroke="black" stroke-width="1" />
<rect x="298" y="63" width="36" height="5" style="fill:#f5b024;stroke:black;stroke-width:1;fill-opacity:1;stroke-opacity:0.3" />
<line x1="335" y1="65" x2="439" y2="65" stroke="pink" stroke-width="1" />
<rect x="439" y="63" width="21" height="5" style="fill:#f5b024;stroke:black;stroke-width:1;fill-opacity:1;stroke-opacity:0.3" />
<rect x="480" y="63" width="16" height="5" style="fill:#f5b024;stroke:black;stroke-width:1;fill-opacity:1;stroke-opacity:0.3" />
<line x1="496" y1="65" x2="554" y2="65" stroke="pink" stroke-width="1" />
<rect x="554" y="63" width="40" height="5" style="fill:#f5b024;stroke:black;stroke-width:1;fill-opacity:1;stroke-opacity:0.3" />
<line x1="442" y1="79" x2="444" y2="81" stroke="black" stroke-width="1" />
<line x1="444" y1="81" x2="446" y2="79" stroke="black" stroke-width="1" />
<rect x="299" y="77" width="35" height="5" style="fill:#f5b024;stroke:black;stroke-width:1;fill-opacity:1;stroke-opacity:0.3" />
<line x1="335" y1="79" x2="439" y2="79" stroke="pink" stroke-width="1" />
<rect x="439" y="77" width="2" height="5" style="fill:#f5b024;stroke:black;stroke-width:1;fill-opacity:1;stroke-opacity:0.3" />
<rect x="446" y="77" width="36" height="5" style="fill:#f5b024;stroke:black;stroke-width:1;fill-opacity:1;stroke-opacity:0.3" />
<line x1="454" y1="37" x2="461" y2="39" stroke="black" stroke-width="1" />
<line x1="461" y1="39" x2="469" y2="37" stroke="black" stroke-width="1" />
<rect x="312" y="35" width="23" height="5" style="fill:#5d3c2d;stroke:black;stroke-width:1;fill-opacity:1;stroke-opacity:0.3" />
<line x1="335" y1="37" x2="439" y2="37" stroke="pink" stroke-width="1" />
<rect x="439" y="35" width="15" height="5" style="fill:#5d3c2d;stroke:black;stroke-width:1;fill-opacity:1;stroke-opacity:0.3" />
<rect x="469" y="35" width="26" height="5" style="fill:#5d3c2d;stroke:black;stroke-width:1;fill-opacity:1;stroke-opacity:0.3" />
<line x1="496" y1="37" x2="554" y2="37" stroke="pink" stroke-width="1" />
<rect x="554" y="35" width="11" height="5" style="fill:#5d3c2d;stroke:black;stroke-width:1;fill-opacity:1;stroke-opacity:0.3" />
<line x1="483" y1="44" x2="520" y2="46" stroke="black" stroke-width="1" />
<line x1="520" y1="46" x2="558" y2="44" stroke="black" stroke-width="1" />
<rect x="321" y="42" width="13" height="5" style="fill:#5d3c2d;stroke:black;stroke-width:1;fill-opacity:1;stroke-opacity:0.3" />
<line x1="335" y1="44" x2="439" y2="44" stroke="pink" stroke-width="1" />
<rect x="439" y="42" width="43" height="5" style="fill:#5d3c2d;stroke:black;stroke-width:1;fill-opacity:1;stroke-opacity:0.3" />
<rect x="558" y="42" width="47" height="5" style="fill:#5d3c2d;stroke:black;stroke-width:1;fill-opacity:1;stroke-opacity:0.3" />
<line x1="605" y1="44" x2="681" y2="44" stroke="pink" stroke-width="1" />
<rect x="681" y="42" width="10" height="5" style="fill:#5d3c2d;stroke:black;stroke-width:1;fill-opacity:1;stroke-opacity:0.3" />
<line x1="483" y1="30" x2="523" y2="32" stroke="black" stroke-width="1" />
<line x1="523" y1="32" x2="564" y2="30" stroke="black" stroke-width="1" />
<rect x="446" y="28" width="36" height="5" style="fill:#5d3c2d;stroke:black;stroke-width:1;fill-opacity:1;stroke-opacity:0.3" />
<rect x="564" y="28" width="36" height="5" style="fill:#5d3c2d;stroke:black;stroke-width:1;fill-opacity:1;stroke-opacity:0.3" />
<line x1="570" y1="58" x2="580" y2="60" stroke="black" stroke-width="1" />
<line x1="580" y1="60" x2="590" y2="58" stroke="black" stroke-width="1" />
<rect x="474" y="56" width="21" height="5" style="fill:#5d3c2d;stroke:black;stroke-width:1;fill-opacity:1;stroke-opacity:0.3" />
<line x1="496" y1="58" x2="554" y2="58" stroke="pink" stroke-width="1" />
<rect x="554" y="56" width="15" height="5" style="fill:#5d3c2d;stroke:black;stroke-width:1;fill-opacity:1;stroke-opacity:0.3" />
<rect x="590" y="56" width="15" height="5" style="fill:#5d3c2d;stroke:black;stroke-width:1;fill-opacity:1;stroke-opacity:0.3" />
<line x1="605" y1="58" x2="681" y2="58" stroke="pink" stroke-width="1" />
<rect x="681" y="56" width="22" height="5" style="fill:#5d3c2d;stroke:black;stroke-width:1;fill-opacity:1;stroke-opacity:0.3" />
<line x1="595" y1="51" x2="638" y2="53" stroke="black" stroke-width="1" />
<line x1="638" y1="53" x2="682" y2="51" stroke="black" stroke-width="1" />
<rect x="485" y="49" width="11" height="5" style="fill:#5d3c2d;stroke:black;stroke-width:1;fill-opacity:1;stroke-opacity:0.3" />
<line x1="496" y1="51" x2="554" y2="51" stroke="pink" stroke-width="1" />
<rect x="554" y="49" width="41" height="5" style="fill:#5d3c2d;stroke:black;stroke-width:1;fill-opacity:1;stroke-opacity:0.3" />
<rect x="682" y="49" width="57" height="5" style="fill:#5d3c2d;stroke:black;stroke-width:1;fill-opacity:1;stroke-opacity:0.3" />
<line x1="580" y1="72" x2="633" y2="74" stroke="black" stroke-width="1" />
<line x1="633" y1="74" x2="686" y2="72" stroke="black" stroke-width="1" />
<rect x="485" y="70" width="11" height="5" style="fill:#5d3c2d;stroke:black;stroke-width:1;fill-opacity:1;stroke-opacity:0.3" />
<line x1="496" y1="72" x2="554" y2="72" stroke="pink" stroke-width="1" />
<rect x="554" y="70" width="26" height="5" style="fill:#5d3c2d;stroke:black;stroke-width:1;fill-opacity:1;stroke-opacity:0.3" />
<rect x="686" y="70" width="38" height="5" style="fill:#5d3c2d;stroke:black;stroke-width:1;fill-opacity:1;stroke-opacity:0.3" />
<line x1="582" y1="79" x2="631" y2="81" stroke="black" stroke-width="1" />
<line x1="631" y1="81" x2="681" y2="79" stroke="black" stroke-width="1" />
<rect x="486" y="77" width="10" height="5" style="fill:#5d3c2d;stroke:black;stroke-width:1;fill-opacity:1;stroke-opacity:0.3" />
<line x1="496" y1="79" x2="554" y2="79" stroke="pink" stroke-width="1" />
<rect x="554" y="77" width="28" height="5" style="fill:#5d3c2d;stroke:black;stroke-width:1;fill-opacity:1;stroke-opacity:0.3" />
<rect x="681" y="77" width="38" height="5" style="fill:#5d3c2d;stroke:black;stroke-width:1;fill-opacity:1;stroke-opacity:0.3" />
<line x1="584" y1="86" x2="590" y2="88" stroke="black" stroke-width="1" />
<line x1="590" y1="88" x2="596" y2="86" stroke="black" stroke-width="1" />
<rect x="488" y="84" width="8" height="5" style="fill:#5d3c2d;stroke:black;stroke-width:1;fill-opacity:1;stroke-opacity:0.3" />
<line x1="496" y1="86" x2="554" y2="86" stroke="pink" stroke-width="1" />
<rect x="554" y="84" width="29" height="5" style="fill:#5d3c2d;stroke:black;stroke-width:1;fill-opacity:1;stroke-opacity:0.3" />
<rect x="596" y="84" width="9" height="5" style="fill:#5d3c2d;stroke:black;stroke-width:1;fill-opacity:1;stroke-opacity:0.3" />
<line x1="605" y1="86" x2="681" y2="86" stroke="pink" stroke-width="1" />
<rect x="681" y="84" width="28" height="5" style="fill:#5d3c2d;stroke:black;stroke-width:1;fill-opacity:1;stroke-opacity:0.3" />
<line x1="585" y1="100" x2="634" y2="102" stroke="black" stroke-width="1" />
<line x1="634" y1="102" x2="683" y2="100" stroke="black" stroke-width="1" />
<rect x="489" y="98" width="7" height="5" style="fill:#5d3c2d;stroke:black;stroke-width:1;fill-opacity:1;stroke-opacity:0.3" />
<line x1="496" y1="100" x2="554" y2="100" stroke="pink" stroke-width="1" />
<rect x="554" y="98" width="31" height="5" style="fill:#5d3c2d;stroke:black;stroke-width:1;fill-opacity:1;stroke-opacity:0.3" />
<rect x="683" y="98" width="38" height="5" style="fill:#5d3c2d;stroke:black;stroke-width:1;fill-opacity:1;stroke-opacity:0.3" />
<line x1="587" y1="107" x2="594" y2="109" stroke="black" stroke-width="1" />
<line x1="594" y1="109" x2="601" y2="107" stroke="black" stroke-width="1" />
<rect x="491" y="105" width="5" height="5" style="fill:#5d3c2d;stroke:black;stroke-width:1;fill-opacity:1;stroke-opacity:0.3" />
<line x1="496" y1="107" x2="554" y2="107" stroke="pink" stroke-width="1" />
<rect x="554" y="105" width="32" height="5" style="fill:#5d3c2d;stroke:black;stroke-width:1;fill-opacity:1;stroke-opacity:0.3" />
<rect x="601" y="105" width="4" height="5" style="fill:#5d3c2d;stroke:black;stroke-width:1;fill-opacity:1;stroke-opacity:0.3" />
<line x1="605" y1="107" x2="681" y2="107" stroke="pink" stroke-width="1" />
<rect x="681" y="105" width="33" height="5" style="fill:#5d3c2d;stroke:black;stroke-width:1;fill-opacity:1;stroke-opacity:0.3" />
<line x1="588" y1="114" x2="592" y2="116" stroke="black" stroke-width="1" />
<line x1="592" y1="116" x2="597" y2="114" stroke="black" stroke-width="1" />
<rect x="492" y="112" width="4" height="5" style="fill:#5d3c2d;stroke:black;stroke-width:1;fill-opacity:1;stroke-opacity:0.3" />
<line x1="496" y1="114" x2="554" y2="114" stroke="pink" stroke-width="1" />
<rect x="554" y="112" width="34" height="5" style="fill:#5d3c2d;stroke:black;stroke-width:1;fill-opacity:1;stroke-opacity:0.3" />
<rect x="597" y="112" width="8" height="5" style="fill:#5d3c2d;stroke:black;stroke-width:1;fill-opacity:1;stroke-opacity:0.3" />
<line x1="605" y1="114" x2="681" y2="114" stroke="pink" stroke-width="1" />
<rect x="681" y="112" width="30" height="5" style="fill:#5d3c2d;stroke:black;stroke-width:1;fill-opacity:1;stroke-opacity:0.3" />
<line x1="591" y1="121" x2="636" y2="123" stroke="black" stroke-width="1" />
<line x1="636" y1="123" x2="681" y2="121" stroke="black" stroke-width="1" />
<rect x="495" y="119" width="1" height="5" style="fill:#5d3c2d;stroke:black;stroke-width:1;fill-opacity:1;stroke-opacity:0.3" />
<line x1="496" y1="121" x2="554" y2="121" stroke="pink" stroke-width="1" />
<rect x="554" y="119" width="37" height="5" style="fill:#5d3c2d;stroke:black;stroke-width:1;fill-opacity:1;stroke-opacity:0.3" />
<rect x="681" y="119" width="38" height="5" style="fill:#5d3c2d;stroke:black;stroke-width:1;fill-opacity:1;stroke-opacity:0.3" />
<line x1="593" y1="128" x2="637" y2="130" stroke="black" stroke-width="1" />
<line x1="637" y1="130" x2="682" y2="128" stroke="black" stroke-width="1" />
<rect x="554" y="126" width="38" height="5" style="fill:#5d3c2d;stroke:black;stroke-width:1;fill-opacity:1;stroke-opacity:0.3" />
<rect x="682" y="126" width="38" height="5" style="fill:#5d3c2d;stroke:black;stroke-width:1;fill-opacity:1;stroke-opacity:0.3" />
<line x1="594" y1="135" x2="640" y2="137" stroke="black" stroke-width="1" />
<line x1="640" y1="137" x2="686" y2="135" stroke="black" stroke-width="1" />
<rect x="556" y="133" width="38" height="5" style="fill:#5d3c2d;stroke:black;stroke-width:1;fill-opacity:1;stroke-opacity:0.3" />
<rect x="686" y="133" width="38" height="5" style="fill:#5d3c2d;stroke:black;stroke-width:1;fill-opacity:1;stroke-opacity:0.3" />
<line x1="594" y1="142" x2="644" y2="144" stroke="black" stroke-width="1" />
<line x1="644" y1="144" x2="695" y2="142" stroke="black" stroke-width="1" />
<rect x="556" y="140" width="38" height="5" style="fill:#5d3c2d;stroke:black;stroke-width:1;fill-opacity:1;stroke-opacity:0.3" />
<rect x="695" y="140" width="38" height="5" style="fill:#5d3c2d;stroke:black;stroke-width:1;fill-opacity:1;stroke-opacity:0.3" />
<line x1="598" y1="149" x2="651" y2="151" stroke="black" stroke-width="1" />
<line x1="651" y1="151" x2="705" y2="149" stroke="black" stroke-width="1" />
<rect x="559" y="147" width="38" height="5" style="fill:#5d3c2d;stroke:black;stroke-width:1;fill-opacity:1;stroke-opacity:0.3" />
<rect x="705" y="147" width="33" height="5" style="fill:#5d3c2d;stroke:black;stroke-width:1;fill-opacity:1;stroke-opacity:0.3" />
<line x1="598" y1="156" x2="649" y2="158" stroke="black" stroke-width="1" />
<line x1="649" y1="158" x2="701" y2="156" stroke="black" stroke-width="1" />
<rect x="560" y="154" width="38" height="5" style="fill:#5d3c2d;stroke:black;stroke-width:1;fill-opacity:1;stroke-opacity:0.3" />
<rect x="701" y="154" width="38" height="5" style="fill:#5d3c2d;stroke:black;stroke-width:1;fill-opacity:1;stroke-opacity:0.3" />
<line x1="600" y1="163" x2="640" y2="165" stroke="black" stroke-width="1" />
<line x1="640" y1="165" x2="681" y2="163" stroke="black" stroke-width="1" />
<rect x="563" y="161" width="37" height="5" style="fill:#5d3c2d;stroke:black;stroke-width:1;fill-opacity:1;stroke-opacity:0.3" />
<rect x="681" y="161" width="38" height="5" style="fill:#5d3c2d;stroke:black;stroke-width:1;fill-opacity:1;stroke-opacity:0.3" />
<line x1="687" y1="37" x2="693" y2="39" stroke="black" stroke-width="1" />
<line x1="693" y1="39" x2="700" y2="37" stroke="black" stroke-width="1" />
<rect x="573" y="35" width="31" height="5" style="fill:#5d3c2d;stroke:black;stroke-width:1;fill-opacity:1;stroke-opacity:0.3" />
<line x1="605" y1="37" x2="681" y2="37" stroke="pink" stroke-width="1" />
<rect x="681" y="35" width="6" height="5" style="fill:#5d3c2d;stroke:black;stroke-width:1;fill-opacity:1;stroke-opacity:0.3" />
<rect x="700" y="35" width="38" height="5" style="fill:#5d3c2d;stroke:black;stroke-width:1;fill-opacity:1;stroke-opacity:0.3" />
<line x1="679" y1="30" x2="682" y2="32" stroke="black" stroke-width="1" />
<line x1="682" y1="32" x2="686" y2="30" stroke="black" stroke-width="1" />
<rect x="640" y="28" width="38" height="5" style="fill:#5d3c2d;stroke:black;stroke-width:1;fill-opacity:1;stroke-opacity:0.3" />
<rect x="686" y="28" width="38" height="5" style="fill:#5d3c2d;stroke:black;stroke-width:1;fill-opacity:1;stroke-opacity:0.3" />
<line x1="690" y1="65" x2="695" y2="67" stroke="black" stroke-width="1" />
<line x1="695" y1="67" x2="700" y2="65" stroke="black" stroke-width="1" />
<rect x="651" y="63" width="38" height="5" style="fill:#5d3c2d;stroke:black;stroke-width:1;fill-opacity:1;stroke-opacity:0.3" />
<rect x="700" y="63" width="38" height="5" style="fill:#5d3c2d;stroke:black;stroke-width:1;fill-opacity:1;stroke-opacity:0.3" />
<line x1="729" y1="44" x2="734" y2="46" stroke="black" stroke-width="1" />
<line x1="734" y1="46" x2="740" y2="44" stroke="black" stroke-width="1" />
<rect x="692" y="42" width="37" height="5" style="fill:#5d3c2d;stroke:black;stroke-width:1;fill-opacity:1;stroke-opacity:0.3" />
<rect x="740" y="42" width="38" height="5" style="fill:#5d3c2d;stroke:black;stroke-width:1;fill-opacity:1;stroke-opacity:0.3" />
<line x1="746" y1="58" x2="762" y2="60" stroke="black" stroke-width="1" />
<line x1="762" y1="60" x2="778" y2="58" stroke="black" stroke-width="1" />
<rect x="707" y="56" width="38" height="5" style="fill:#5d3c2d;stroke:black;stroke-width:1;fill-opacity:1;stroke-opacity:0.3" />
<rect x="778" y="56" width="36" height="5" style="fill:#5d3c2d;stroke:black;stroke-width:1;fill-opacity:1;stroke-opacity:0.3" />
<line x1="750" y1="86" x2="763" y2="88" stroke="black" stroke-width="1" />
<line x1="763" y1="88" x2="777" y2="86" stroke="black" stroke-width="1" />
<rect x="712" y="84" width="38" height="5" style="fill:#5d3c2d;stroke:black;stroke-width:1;fill-opacity:1;stroke-opacity:0.3" />
<rect x="777" y="84" width="38" height="5" style="fill:#5d3c2d;stroke:black;stroke-width:1;fill-opacity:1;stroke-opacity:0.3" />
<line x1="751" y1="114" x2="761" y2="116" stroke="black" stroke-width="1" />
<line x1="761" y1="116" x2="772" y2="114" stroke="black" stroke-width="1" />
<rect x="712" y="112" width="38" height="5" style="fill:#5d3c2d;stroke:black;stroke-width:1;fill-opacity:1;stroke-opacity:0.3" />
<rect x="772" y="112" width="38" height="5" style="fill:#5d3c2d;stroke:black;stroke-width:1;fill-opacity:1;stroke-opacity:0.3" />
<line x1="752" y1="107" x2="757" y2="109" stroke="black" stroke-width="1" />
<line x1="757" y1="109" x2="762" y2="107" stroke="black" stroke-width="1" />
<rect x="714" y="105" width="38" height="5" style="fill:#5d3c2d;stroke:black;stroke-width:1;fill-opacity:1;stroke-opacity:0.3" />
<rect x="762" y="105" width="38" height="5" style="fill:#5d3c2d;stroke:black;stroke-width:1;fill-opacity:1;stroke-opacity:0.3" />
<line x1="759" y1="79" x2="765" y2="81" stroke="black" stroke-width="1" />
<line x1="765" y1="81" x2="772" y2="79" stroke="black" stroke-width="1" />
<rect x="720" y="77" width="38" height="5" style="fill:#5d3c2d;stroke:black;stroke-width:1;fill-opacity:1;stroke-opacity:0.3" />
<rect x="772" y="77" width="38" height="5" style="fill:#5d3c2d;stroke:black;stroke-width:1;fill-opacity:1;stroke-opacity:0.3" />
<line x1="759" y1="121" x2="768" y2="123" stroke="black" stroke-width="1" />
<line x1="768" y1="123" x2="778" y2="121" stroke="black" stroke-width="1" />
<rect x="720" y="119" width="38" height="5" style="fill:#5d3c2d;stroke:black;stroke-width:1;fill-opacity:1;stroke-opacity:0.3" />
<rect x="778" y="119" width="38" height="5" style="fill:#5d3c2d;stroke:black;stroke-width:1;fill-opacity:1;stroke-opacity:0.3" />
<line x1="759" y1="128" x2="768" y2="130" stroke="black" stroke-width="1" />
<line x1="768" y1="130" x2="777" y2="128" stroke="black" stroke-width="1" />
<rect x="721" y="126" width="38" height="5" style="fill:#5d3c2d;stroke:black;stroke-width:1;fill-opacity:1;stroke-opacity:0.3" />
<rect x="777" y="126" width="38" height="5" style="fill:#5d3c2d;stroke:black;stroke-width:1;fill-opacity:1;stroke-opacity:0.3" />
<line x1="759" y1="100" x2="765" y2="102" stroke="black" stroke-width="1" />
<line x1="765" y1="102" x2="772" y2="100" stroke="black" stroke-width="1" />
<rect x="721" y="98" width="38" height="5" style="fill:#5d3c2d;stroke:black;stroke-width:1;fill-opacity:1;stroke-opacity:0.3" />
<rect x="772" y="98" width="36" height="5" style="fill:#5d3c2d;stroke:black;stroke-width:1;fill-opacity:1;stroke-opacity:0.3" />
<line x1="760" y1="163" x2="780" y2="165" stroke="black" stroke-width="1" />
<line x1="780" y1="165" x2="800" y2="163" stroke="black" stroke-width="1" />
<rect x="722" y="161" width="38" height="5" style="fill:#5d3c2d;stroke:black;stroke-width:1;fill-opacity:1;stroke-opacity:0.3" />
<rect x="800" y="161" width="38" height="5" style="fill:#5d3c2d;stroke:black;stroke-width:1;fill-opacity:1;stroke-opacity:0.3" />
<line x1="763" y1="30" x2="778" y2="32" stroke="black" stroke-width="1" />
<line x1="778" y1="32" x2="793" y2="30" stroke="black" stroke-width="1" />
<rect x="724" y="28" width="38" height="5" style="fill:#5d3c2d;stroke:black;stroke-width:1;fill-opacity:1;stroke-opacity:0.3" />
<rect x="793" y="28" width="38" height="5" style="fill:#5d3c2d;stroke:black;stroke-width:1;fill-opacity:1;stroke-opacity:0.3" />
<line x1="763" y1="72" x2="776" y2="74" stroke="black" stroke-width="1" />
<line x1="776" y1="74" x2="789" y2="72" stroke="black" stroke-width="1" />
<rect x="725" y="70" width="38" height="5" style="fill:#5d3c2d;stroke:black;stroke-width:1;fill-opacity:1;stroke-opacity:0.3" />
<rect x="789" y="70" width="38" height="5" style="fill:#5d3c2d;stroke:black;stroke-width:1;fill-opacity:1;stroke-opacity:0.3" />
<line x1="764" y1="135" x2="771" y2="137" stroke="black" stroke-width="1" />
<line x1="771" y1="137" x2="779" y2="135" stroke="black" stroke-width="1" />
<rect x="725" y="133" width="38" height="5" style="fill:#5d3c2d;stroke:black;stroke-width:1;fill-opacity:1;stroke-opacity:0.3" />
<rect x="779" y="133" width="38" height="5" style="fill:#5d3c2d;stroke:black;stroke-width:1;fill-opacity:1;stroke-opacity:0.3" />
<line x1="772" y1="142" x2="778" y2="144" stroke="black" stroke-width="1" />
<line x1="778" y1="144" x2="785" y2="142" stroke="black" stroke-width="1" />
<rect x="734" y="140" width="38" height="5" style="fill:#5d3c2d;stroke:black;stroke-width:1;fill-opacity:1;stroke-opacity:0.3" />
<rect x="785" y="140" width="38" height="5" style="fill:#5d3c2d;stroke:black;stroke-width:1;fill-opacity:1;stroke-opacity:0.3" />
<line x1="778" y1="37" x2="781" y2="39" stroke="black" stroke-width="1" />
<line x1="781" y1="39" x2="785" y2="37" stroke="black" stroke-width="1" />
<rect x="739" y="35" width="38" height="5" style="fill:#f5b024;stroke:black;stroke-width:1;fill-opacity:1;stroke-opacity:0.3" />
<rect x="785" y="35" width="37" height="5" style="fill:#f5b024;stroke:black;stroke-width:1;fill-opacity:1;stroke-opacity:0.3" />
<line x1="778" y1="51" x2="781" y2="53" stroke="black" stroke-width="1" />
<line x1="781" y1="53" x2="785" y2="51" stroke="black" stroke-width="1" />
<rect x="739" y="49" width="38" height="5" style="fill:#5d3c2d;stroke:black;stroke-width:1;fill-opacity:1;stroke-opacity:0.3" />
<rect x="785" y="49" width="38" height="5" style="fill:#5d3c2d;stroke:black;stroke-width:1;fill-opacity:1;stroke-opacity:0.3" />
<line x1="778" y1="65" x2="781" y2="67" stroke="black" stroke-width="1" />
<line x1="781" y1="67" x2="785" y2="65" stroke="black" stroke-width="1" />
<rect x="740" y="63" width="38" height="5" style="fill:#5d3c2d;stroke:black;stroke-width:1;fill-opacity:1;stroke-opacity:0.3" />
<rect x="785" y="63" width="38" height="5" style="fill:#5d3c2d;stroke:black;stroke-width:1;fill-opacity:1;stroke-opacity:0.3" />
<line x1="778" y1="149" x2="781" y2="151" stroke="black" stroke-width="1" />
<line x1="781" y1="151" x2="785" y2="149" stroke="black" stroke-width="1" />
<rect x="740" y="147" width="38" height="5" style="fill:#5d3c2d;stroke:black;stroke-width:1;fill-opacity:1;stroke-opacity:0.3" />
<rect x="785" y="147" width="38" height="5" style="fill:#5d3c2d;stroke:black;stroke-width:1;fill-opacity:1;stroke-opacity:0.3" />
<line x1="779" y1="156" x2="792" y2="158" stroke="black" stroke-width="1" />
<line x1="792" y1="158" x2="806" y2="156" stroke="black" stroke-width="1" />
<rect x="740" y="154" width="38" height="5" style="fill:#5d3c2d;stroke:black;stroke-width:1;fill-opacity:1;stroke-opacity:0.3" />
<rect x="806" y="154" width="38" height="5" style="fill:#5d3c2d;stroke:black;stroke-width:1;fill-opacity:1;stroke-opacity:0.3" />
<line x1="821" y1="44" x2="827" y2="46" stroke="black" stroke-width="1" />
<line x1="827" y1="46" x2="833" y2="44" stroke="black" stroke-width="1" />
<rect x="783" y="42" width="38" height="5" style="fill:#5d3c2d;stroke:black;stroke-width:1;fill-opacity:1;stroke-opacity:0.3" />
<rect x="833" y="42" width="35" height="5" style="fill:#5d3c2d;stroke:black;stroke-width:1;fill-opacity:1;stroke-opacity:0.3" />
<line x1="846" y1="107" x2="849" y2="109" stroke="black" stroke-width="1" />
<line x1="849" y1="109" x2="852" y2="107" stroke="black" stroke-width="1" />
<rect x="808" y="105" width="38" height="5" style="fill:#5d3c2d;stroke:black;stroke-width:1;fill-opacity:1;stroke-opacity:0.3" />
<rect x="852" y="105" width="38" height="5" style="fill:#5d3c2d;stroke:black;stroke-width:1;fill-opacity:1;stroke-opacity:0.3" />
<text x="15"  y="176" style="font-family:Arial;font-size:10;stroke:black;fill:black;">all.merged.bam</text>
</svg>
    
