<?xml version="1.0" encoding="utf-8" standalone="no"?>
<!DOCTYPE svg PUBLIC "-//W3C//DTD SVG 1.1//EN"
  "http://www.w3.org/Graphics/SVG/1.1/DTD/svg11.dtd">
<svg height="1140" width="1000" version="1.1" viewBox="0 0 1000 1140" xmlns="http://www.w3.org/2000/svg" xmlns:xlink="http://www.w3.org/1999/xlink">
<line x1="56" y1="11" x2="943" y2="11" stroke="black" stroke-width="1" />
<rect x="56" y="9" width="52" height="5" style="fill:#f50002;stroke:black;stroke-width:1;fill-opacity:1;stroke-opacity:0.3" />
<rect x="109" y="9" width="36" height="5" style="fill:#53a1b5;stroke:black;stroke-width:1;fill-opacity:1;stroke-opacity:0.3" />
<rect x="207" y="9" width="60" height="5" style="fill:#53a1b5;stroke:black;stroke-width:1;fill-opacity:1;stroke-opacity:0.3" />
<rect x="374" y="9" width="54" height="5" style="fill:#53a1b5;stroke:black;stroke-width:1;fill-opacity:1;stroke-opacity:0.3" />
<rect x="550" y="9" width="36" height="5" style="fill:#53a1b5;stroke:black;stroke-width:1;fill-opacity:1;stroke-opacity:0.3" />
<rect x="654" y="9" width="14" height="5" style="fill:#53a1b5;stroke:black;stroke-width:1;fill-opacity:1;stroke-opacity:0.3" />
<rect x="668" y="9" width="274" height="5" style="fill:#f50002;stroke:black;stroke-width:1;fill-opacity:1;stroke-opacity:0.3" />
<text x="56"  y="23" style="font-family:Arial;font-size:10;stroke:black;fill:black;">Cre12.g523900.t1.1.v5.5 (+) chromosome_12:4747085-4748656</text>
<line x1="82" y1="30" x2="86" y2="32" stroke="black" stroke-width="1" />
<line x1="86" y1="32" x2="90" y2="30" stroke="black" stroke-width="1" />
<rect x="26" y="28" width="56" height="5" style="fill:#5d3c2d;stroke:black;stroke-width:1;fill-opacity:1;stroke-opacity:0.3" />
<rect x="90" y="28" width="56" height="5" style="fill:#5d3c2d;stroke:black;stroke-width:1;fill-opacity:1;stroke-opacity:0.3" />
<line x1="88" y1="37" x2="100" y2="39" stroke="black" stroke-width="1" />
<line x1="100" y1="39" x2="112" y2="37" stroke="black" stroke-width="1" />
<rect x="31" y="35" width="56" height="5" style="fill:#5d3c2d;stroke:black;stroke-width:1;fill-opacity:1;stroke-opacity:0.3" />
<rect x="112" y="35" width="34" height="5" style="fill:#5d3c2d;stroke:black;stroke-width:1;fill-opacity:1;stroke-opacity:0.3" />
<line x1="146" y1="37" x2="207" y2="37" stroke="pink" stroke-width="1" />
<rect x="207" y="35" width="22" height="5" style="fill:#5d3c2d;stroke:black;stroke-width:1;fill-opacity:1;stroke-opacity:0.3" />
<line x1="88" y1="44" x2="100" y2="46" stroke="black" stroke-width="1" />
<line x1="100" y1="46" x2="112" y2="44" stroke="black" stroke-width="1" />
<rect x="31" y="42" width="56" height="5" style="fill:#5d3c2d;stroke:black;stroke-width:1;fill-opacity:1;stroke-opacity:0.3" />
<rect x="112" y="42" width="34" height="5" style="fill:#5d3c2d;stroke:black;stroke-width:1;fill-opacity:1;stroke-opacity:0.3" />
<line x1="146" y1="44" x2="207" y2="44" stroke="pink" stroke-width="1" />
<rect x="207" y="42" width="22" height="5" style="fill:#5d3c2d;stroke:black;stroke-width:1;fill-opacity:1;stroke-opacity:0.3" />
<line x1="88" y1="51" x2="91" y2="53" stroke="black" stroke-width="1" />
<line x1="91" y1="53" x2="95" y2="51" stroke="black" stroke-width="1" />
<rect x="31" y="49" width="56" height="5" style="fill:#5d3c2d;stroke:black;stroke-width:1;fill-opacity:1;stroke-opacity:0.3" />
<rect x="95" y="49" width="50" height="5" style="fill:#5d3c2d;stroke:black;stroke-width:1;fill-opacity:1;stroke-opacity:0.3" />
<line x1="146" y1="51" x2="207" y2="51" stroke="pink" stroke-width="1" />
<rect x="207" y="49" width="5" height="5" style="fill:#5d3c2d;stroke:black;stroke-width:1;fill-opacity:1;stroke-opacity:0.3" />
<line x1="89" y1="58" x2="100" y2="60" stroke="black" stroke-width="1" />
<line x1="100" y1="60" x2="111" y2="58" stroke="black" stroke-width="1" />
<rect x="33" y="56" width="56" height="5" style="fill:#5d3c2d;stroke:black;stroke-width:1;fill-opacity:1;stroke-opacity:0.3" />
<rect x="111" y="56" width="35" height="5" style="fill:#5d3c2d;stroke:black;stroke-width:1;fill-opacity:1;stroke-opacity:0.3" />
<line x1="146" y1="58" x2="207" y2="58" stroke="pink" stroke-width="1" />
<rect x="207" y="56" width="20" height="5" style="fill:#5d3c2d;stroke:black;stroke-width:1;fill-opacity:1;stroke-opacity:0.3" />
<line x1="89" y1="65" x2="96" y2="67" stroke="black" stroke-width="1" />
<line x1="96" y1="67" x2="103" y2="65" stroke="black" stroke-width="1" />
<rect x="33" y="63" width="56" height="5" style="fill:#5d3c2d;stroke:black;stroke-width:1;fill-opacity:1;stroke-opacity:0.3" />
<rect x="103" y="63" width="43" height="5" style="fill:#5d3c2d;stroke:black;stroke-width:1;fill-opacity:1;stroke-opacity:0.3" />
<line x1="146" y1="65" x2="207" y2="65" stroke="pink" stroke-width="1" />
<rect x="207" y="63" width="11" height="5" style="fill:#5d3c2d;stroke:black;stroke-width:1;fill-opacity:1;stroke-opacity:0.3" />
<line x1="89" y1="72" x2="92" y2="74" stroke="black" stroke-width="1" />
<line x1="92" y1="74" x2="95" y2="72" stroke="black" stroke-width="1" />
<rect x="33" y="70" width="56" height="5" style="fill:#5d3c2d;stroke:black;stroke-width:1;fill-opacity:1;stroke-opacity:0.3" />
<rect x="95" y="70" width="50" height="5" style="fill:#5d3c2d;stroke:black;stroke-width:1;fill-opacity:1;stroke-opacity:0.3" />
<line x1="146" y1="72" x2="207" y2="72" stroke="pink" stroke-width="1" />
<rect x="207" y="70" width="5" height="5" style="fill:#5d3c2d;stroke:black;stroke-width:1;fill-opacity:1;stroke-opacity:0.3" />
<line x1="117" y1="79" x2="121" y2="81" stroke="black" stroke-width="1" />
<line x1="121" y1="81" x2="125" y2="79" stroke="black" stroke-width="1" />
<rect x="33" y="77" width="84" height="5" style="fill:#5d3c2d;stroke:black;stroke-width:1;fill-opacity:1;stroke-opacity:0.3" />
<rect x="125" y="77" width="21" height="5" style="fill:#5d3c2d;stroke:black;stroke-width:1;fill-opacity:1;stroke-opacity:0.3" />
<line x1="146" y1="79" x2="207" y2="79" stroke="pink" stroke-width="1" />
<rect x="207" y="77" width="60" height="5" style="fill:#5d3c2d;stroke:black;stroke-width:1;fill-opacity:1;stroke-opacity:0.3" />
<line x1="268" y1="79" x2="374" y2="79" stroke="pink" stroke-width="1" />
<rect x="374" y="77" width="2" height="5" style="fill:#5d3c2d;stroke:black;stroke-width:1;fill-opacity:1;stroke-opacity:0.3" />
<line x1="90" y1="86" x2="101" y2="88" stroke="black" stroke-width="1" />
<line x1="101" y1="88" x2="112" y2="86" stroke="black" stroke-width="1" />
<rect x="33" y="84" width="56" height="5" style="fill:#5d3c2d;stroke:black;stroke-width:1;fill-opacity:1;stroke-opacity:0.3" />
<rect x="112" y="84" width="34" height="5" style="fill:#5d3c2d;stroke:black;stroke-width:1;fill-opacity:1;stroke-opacity:0.3" />
<line x1="146" y1="86" x2="207" y2="86" stroke="pink" stroke-width="1" />
<rect x="207" y="84" width="22" height="5" style="fill:#5d3c2d;stroke:black;stroke-width:1;fill-opacity:1;stroke-opacity:0.3" />
<line x1="90" y1="93" x2="94" y2="95" stroke="black" stroke-width="1" />
<line x1="94" y1="95" x2="98" y2="93" stroke="black" stroke-width="1" />
<rect x="33" y="91" width="56" height="5" style="fill:#5d3c2d;stroke:black;stroke-width:1;fill-opacity:1;stroke-opacity:0.3" />
<rect x="98" y="91" width="47" height="5" style="fill:#5d3c2d;stroke:black;stroke-width:1;fill-opacity:1;stroke-opacity:0.3" />
<line x1="146" y1="93" x2="207" y2="93" stroke="pink" stroke-width="1" />
<rect x="207" y="91" width="8" height="5" style="fill:#5d3c2d;stroke:black;stroke-width:1;fill-opacity:1;stroke-opacity:0.3" />
<line x1="90" y1="100" x2="117" y2="102" stroke="black" stroke-width="1" />
<line x1="117" y1="102" x2="145" y2="100" stroke="black" stroke-width="1" />
<rect x="34" y="98" width="56" height="5" style="fill:#5d3c2d;stroke:black;stroke-width:1;fill-opacity:1;stroke-opacity:0.3" />
<rect x="145" y="98" width="1" height="5" style="fill:#5d3c2d;stroke:black;stroke-width:1;fill-opacity:1;stroke-opacity:0.3" />
<line x1="146" y1="100" x2="207" y2="100" stroke="pink" stroke-width="1" />
<rect x="207" y="98" width="55" height="5" style="fill:#5d3c2d;stroke:black;stroke-width:1;fill-opacity:1;stroke-opacity:0.3" />
<line x1="90" y1="107" x2="117" y2="109" stroke="black" stroke-width="1" />
<line x1="117" y1="109" x2="145" y2="107" stroke="black" stroke-width="1" />
<rect x="34" y="105" width="56" height="5" style="fill:#5d3c2d;stroke:black;stroke-width:1;fill-opacity:1;stroke-opacity:0.3" />
<rect x="145" y="105" width="1" height="5" style="fill:#5d3c2d;stroke:black;stroke-width:1;fill-opacity:1;stroke-opacity:0.3" />
<line x1="146" y1="107" x2="207" y2="107" stroke="pink" stroke-width="1" />
<rect x="207" y="105" width="55" height="5" style="fill:#5d3c2d;stroke:black;stroke-width:1;fill-opacity:1;stroke-opacity:0.3" />
<line x1="93" y1="114" x2="102" y2="116" stroke="black" stroke-width="1" />
<line x1="102" y1="116" x2="112" y2="114" stroke="black" stroke-width="1" />
<rect x="37" y="112" width="56" height="5" style="fill:#5d3c2d;stroke:black;stroke-width:1;fill-opacity:1;stroke-opacity:0.3" />
<rect x="112" y="112" width="34" height="5" style="fill:#5d3c2d;stroke:black;stroke-width:1;fill-opacity:1;stroke-opacity:0.3" />
<line x1="146" y1="114" x2="207" y2="114" stroke="pink" stroke-width="1" />
<rect x="207" y="112" width="22" height="5" style="fill:#5d3c2d;stroke:black;stroke-width:1;fill-opacity:1;stroke-opacity:0.3" />
<line x1="93" y1="121" x2="103" y2="123" stroke="black" stroke-width="1" />
<line x1="103" y1="123" x2="114" y2="121" stroke="black" stroke-width="1" />
<rect x="37" y="119" width="56" height="5" style="fill:#5d3c2d;stroke:black;stroke-width:1;fill-opacity:1;stroke-opacity:0.3" />
<rect x="114" y="119" width="32" height="5" style="fill:#5d3c2d;stroke:black;stroke-width:1;fill-opacity:1;stroke-opacity:0.3" />
<line x1="146" y1="121" x2="207" y2="121" stroke="pink" stroke-width="1" />
<rect x="207" y="119" width="23" height="5" style="fill:#5d3c2d;stroke:black;stroke-width:1;fill-opacity:1;stroke-opacity:0.3" />
<line x1="121" y1="128" x2="189" y2="130" stroke="black" stroke-width="1" />
<line x1="189" y1="130" x2="257" y2="128" stroke="black" stroke-width="1" />
<rect x="37" y="126" width="84" height="5" style="fill:#5d3c2d;stroke:black;stroke-width:1;fill-opacity:1;stroke-opacity:0.3" />
<rect x="257" y="126" width="10" height="5" style="fill:#5d3c2d;stroke:black;stroke-width:1;fill-opacity:1;stroke-opacity:0.3" />
<line x1="268" y1="128" x2="374" y2="128" stroke="pink" stroke-width="1" />
<rect x="374" y="126" width="54" height="5" style="fill:#5d3c2d;stroke:black;stroke-width:1;fill-opacity:1;stroke-opacity:0.3" />
<line x1="429" y1="128" x2="550" y2="128" stroke="pink" stroke-width="1" />
<rect x="550" y="126" width="19" height="5" style="fill:#5d3c2d;stroke:black;stroke-width:1;fill-opacity:1;stroke-opacity:0.3" />
<line x1="94" y1="135" x2="96" y2="137" stroke="black" stroke-width="1" />
<line x1="96" y1="137" x2="99" y2="135" stroke="black" stroke-width="1" />
<rect x="37" y="133" width="56" height="5" style="fill:#5d3c2d;stroke:black;stroke-width:1;fill-opacity:1;stroke-opacity:0.3" />
<rect x="99" y="133" width="46" height="5" style="fill:#5d3c2d;stroke:black;stroke-width:1;fill-opacity:1;stroke-opacity:0.3" />
<line x1="146" y1="135" x2="207" y2="135" stroke="pink" stroke-width="1" />
<rect x="207" y="133" width="9" height="5" style="fill:#5d3c2d;stroke:black;stroke-width:1;fill-opacity:1;stroke-opacity:0.3" />
<line x1="94" y1="142" x2="97" y2="144" stroke="black" stroke-width="1" />
<line x1="97" y1="144" x2="101" y2="142" stroke="black" stroke-width="1" />
<rect x="38" y="140" width="56" height="5" style="fill:#5d3c2d;stroke:black;stroke-width:1;fill-opacity:1;stroke-opacity:0.3" />
<rect x="101" y="140" width="45" height="5" style="fill:#5d3c2d;stroke:black;stroke-width:1;fill-opacity:1;stroke-opacity:0.3" />
<line x1="146" y1="142" x2="207" y2="142" stroke="pink" stroke-width="1" />
<rect x="207" y="140" width="10" height="5" style="fill:#5d3c2d;stroke:black;stroke-width:1;fill-opacity:1;stroke-opacity:0.3" />
<line x1="102" y1="149" x2="106" y2="151" stroke="black" stroke-width="1" />
<line x1="106" y1="151" x2="111" y2="149" stroke="black" stroke-width="1" />
<rect x="45" y="147" width="56" height="5" style="fill:#5d3c2d;stroke:black;stroke-width:1;fill-opacity:1;stroke-opacity:0.3" />
<rect x="111" y="147" width="35" height="5" style="fill:#5d3c2d;stroke:black;stroke-width:1;fill-opacity:1;stroke-opacity:0.3" />
<line x1="146" y1="149" x2="207" y2="149" stroke="pink" stroke-width="1" />
<rect x="207" y="147" width="20" height="5" style="fill:#5d3c2d;stroke:black;stroke-width:1;fill-opacity:1;stroke-opacity:0.3" />
<line x1="104" y1="156" x2="107" y2="158" stroke="black" stroke-width="1" />
<line x1="107" y1="158" x2="111" y2="156" stroke="black" stroke-width="1" />
<rect x="47" y="154" width="56" height="5" style="fill:#5d3c2d;stroke:black;stroke-width:1;fill-opacity:1;stroke-opacity:0.3" />
<rect x="111" y="154" width="35" height="5" style="fill:#5d3c2d;stroke:black;stroke-width:1;fill-opacity:1;stroke-opacity:0.3" />
<line x1="146" y1="156" x2="207" y2="156" stroke="pink" stroke-width="1" />
<rect x="207" y="154" width="20" height="5" style="fill:#5d3c2d;stroke:black;stroke-width:1;fill-opacity:1;stroke-opacity:0.3" />
<line x1="104" y1="163" x2="110" y2="165" stroke="black" stroke-width="1" />
<line x1="110" y1="165" x2="117" y2="163" stroke="black" stroke-width="1" />
<rect x="47" y="161" width="56" height="5" style="fill:#5d3c2d;stroke:black;stroke-width:1;fill-opacity:1;stroke-opacity:0.3" />
<rect x="117" y="161" width="28" height="5" style="fill:#5d3c2d;stroke:black;stroke-width:1;fill-opacity:1;stroke-opacity:0.3" />
<line x1="146" y1="163" x2="207" y2="163" stroke="pink" stroke-width="1" />
<rect x="207" y="161" width="27" height="5" style="fill:#5d3c2d;stroke:black;stroke-width:1;fill-opacity:1;stroke-opacity:0.3" />
<line x1="265" y1="30" x2="330" y2="32" stroke="black" stroke-width="1" />
<line x1="330" y1="32" x2="396" y2="30" stroke="black" stroke-width="1" />
<rect x="209" y="28" width="56" height="5" style="fill:#5d3c2d;stroke:black;stroke-width:1;fill-opacity:1;stroke-opacity:0.3" />
<rect x="396" y="28" width="33" height="5" style="fill:#5d3c2d;stroke:black;stroke-width:1;fill-opacity:1;stroke-opacity:0.3" />
<line x1="429" y1="30" x2="550" y2="30" stroke="pink" stroke-width="1" />
<rect x="550" y="28" width="23" height="5" style="fill:#5d3c2d;stroke:black;stroke-width:1;fill-opacity:1;stroke-opacity:0.3" />
<line x1="375" y1="51" x2="390" y2="53" stroke="black" stroke-width="1" />
<line x1="390" y1="53" x2="406" y2="51" stroke="black" stroke-width="1" />
<rect x="212" y="49" width="55" height="5" style="fill:#5d3c2d;stroke:black;stroke-width:1;fill-opacity:1;stroke-opacity:0.3" />
<line x1="268" y1="51" x2="374" y2="51" stroke="pink" stroke-width="1" />
<rect x="374" y="49" width="1" height="5" style="fill:#5d3c2d;stroke:black;stroke-width:1;fill-opacity:1;stroke-opacity:0.3" />
<rect x="406" y="49" width="22" height="5" style="fill:#5d3c2d;stroke:black;stroke-width:1;fill-opacity:1;stroke-opacity:0.3" />
<line x1="429" y1="51" x2="550" y2="51" stroke="pink" stroke-width="1" />
<rect x="550" y="49" width="33" height="5" style="fill:#5d3c2d;stroke:black;stroke-width:1;fill-opacity:1;stroke-opacity:0.3" />
<line x1="384" y1="65" x2="390" y2="67" stroke="black" stroke-width="1" />
<line x1="390" y1="67" x2="397" y2="65" stroke="black" stroke-width="1" />
<rect x="221" y="63" width="46" height="5" style="fill:#5d3c2d;stroke:black;stroke-width:1;fill-opacity:1;stroke-opacity:0.3" />
<line x1="268" y1="65" x2="374" y2="65" stroke="pink" stroke-width="1" />
<rect x="374" y="63" width="10" height="5" style="fill:#5d3c2d;stroke:black;stroke-width:1;fill-opacity:1;stroke-opacity:0.3" />
<rect x="397" y="63" width="31" height="5" style="fill:#5d3c2d;stroke:black;stroke-width:1;fill-opacity:1;stroke-opacity:0.3" />
<line x1="429" y1="65" x2="550" y2="65" stroke="pink" stroke-width="1" />
<rect x="550" y="63" width="24" height="5" style="fill:#5d3c2d;stroke:black;stroke-width:1;fill-opacity:1;stroke-opacity:0.3" />
<line x1="385" y1="72" x2="476" y2="74" stroke="black" stroke-width="1" />
<line x1="476" y1="74" x2="568" y2="72" stroke="black" stroke-width="1" />
<rect x="222" y="70" width="45" height="5" style="fill:#5d3c2d;stroke:black;stroke-width:1;fill-opacity:1;stroke-opacity:0.3" />
<line x1="268" y1="72" x2="374" y2="72" stroke="pink" stroke-width="1" />
<rect x="374" y="70" width="10" height="5" style="fill:#5d3c2d;stroke:black;stroke-width:1;fill-opacity:1;stroke-opacity:0.3" />
<rect x="568" y="70" width="19" height="5" style="fill:#5d3c2d;stroke:black;stroke-width:1;fill-opacity:1;stroke-opacity:0.3" />
<line x1="588" y1="72" x2="738" y2="72" stroke="pink" stroke-width="1" />
<rect x="738" y="70" width="37" height="5" style="fill:#5d3c2d;stroke:black;stroke-width:1;fill-opacity:1;stroke-opacity:0.3" />
<line x1="386" y1="93" x2="394" y2="95" stroke="black" stroke-width="1" />
<line x1="394" y1="95" x2="402" y2="93" stroke="black" stroke-width="1" />
<rect x="222" y="91" width="45" height="5" style="fill:#5d3c2d;stroke:black;stroke-width:1;fill-opacity:1;stroke-opacity:0.3" />
<line x1="268" y1="93" x2="374" y2="93" stroke="pink" stroke-width="1" />
<rect x="374" y="91" width="11" height="5" style="fill:#5d3c2d;stroke:black;stroke-width:1;fill-opacity:1;stroke-opacity:0.3" />
<rect x="402" y="91" width="26" height="5" style="fill:#5d3c2d;stroke:black;stroke-width:1;fill-opacity:1;stroke-opacity:0.3" />
<line x1="429" y1="93" x2="550" y2="93" stroke="pink" stroke-width="1" />
<rect x="550" y="91" width="29" height="5" style="fill:#5d3c2d;stroke:black;stroke-width:1;fill-opacity:1;stroke-opacity:0.3" />
<line x1="283" y1="135" x2="287" y2="137" stroke="black" stroke-width="1" />
<line x1="287" y1="137" x2="291" y2="135" stroke="black" stroke-width="1" />
<rect x="226" y="133" width="56" height="5" style="fill:#5d3c2d;stroke:black;stroke-width:1;fill-opacity:1;stroke-opacity:0.3" />
<rect x="291" y="133" width="56" height="5" style="fill:#5d3c2d;stroke:black;stroke-width:1;fill-opacity:1;stroke-opacity:0.3" />
<line x1="389" y1="142" x2="469" y2="144" stroke="black" stroke-width="1" />
<line x1="469" y1="144" x2="550" y2="142" stroke="black" stroke-width="1" />
<rect x="226" y="140" width="41" height="5" style="fill:#5d3c2d;stroke:black;stroke-width:1;fill-opacity:1;stroke-opacity:0.3" />
<line x1="268" y1="142" x2="374" y2="142" stroke="pink" stroke-width="1" />
<rect x="374" y="140" width="15" height="5" style="fill:#5d3c2d;stroke:black;stroke-width:1;fill-opacity:1;stroke-opacity:0.3" />
<rect x="550" y="140" width="37" height="5" style="fill:#5d3c2d;stroke:black;stroke-width:1;fill-opacity:1;stroke-opacity:0.3" />
<line x1="588" y1="142" x2="738" y2="142" stroke="pink" stroke-width="1" />
<rect x="738" y="140" width="18" height="5" style="fill:#5d3c2d;stroke:black;stroke-width:1;fill-opacity:1;stroke-opacity:0.3" />
<line x1="391" y1="58" x2="394" y2="60" stroke="black" stroke-width="1" />
<line x1="394" y1="60" x2="397" y2="58" stroke="black" stroke-width="1" />
<rect x="227" y="56" width="40" height="5" style="fill:#5d3c2d;stroke:black;stroke-width:1;fill-opacity:1;stroke-opacity:0.3" />
<line x1="268" y1="58" x2="374" y2="58" stroke="pink" stroke-width="1" />
<rect x="374" y="56" width="16" height="5" style="fill:#5d3c2d;stroke:black;stroke-width:1;fill-opacity:1;stroke-opacity:0.3" />
<rect x="397" y="56" width="31" height="5" style="fill:#5d3c2d;stroke:black;stroke-width:1;fill-opacity:1;stroke-opacity:0.3" />
<line x1="429" y1="58" x2="550" y2="58" stroke="pink" stroke-width="1" />
<rect x="550" y="56" width="24" height="5" style="fill:#5d3c2d;stroke:black;stroke-width:1;fill-opacity:1;stroke-opacity:0.3" />
<line x1="391" y1="149" x2="393" y2="151" stroke="black" stroke-width="1" />
<line x1="393" y1="151" x2="396" y2="149" stroke="black" stroke-width="1" />
<rect x="227" y="147" width="40" height="5" style="fill:#5d3c2d;stroke:black;stroke-width:1;fill-opacity:1;stroke-opacity:0.3" />
<line x1="268" y1="149" x2="374" y2="149" stroke="pink" stroke-width="1" />
<rect x="374" y="147" width="16" height="5" style="fill:#5d3c2d;stroke:black;stroke-width:1;fill-opacity:1;stroke-opacity:0.3" />
<rect x="396" y="147" width="32" height="5" style="fill:#5d3c2d;stroke:black;stroke-width:1;fill-opacity:1;stroke-opacity:0.3" />
<line x1="429" y1="149" x2="550" y2="149" stroke="pink" stroke-width="1" />
<rect x="550" y="147" width="23" height="5" style="fill:#5d3c2d;stroke:black;stroke-width:1;fill-opacity:1;stroke-opacity:0.3" />
<line x1="391" y1="156" x2="400" y2="158" stroke="black" stroke-width="1" />
<line x1="400" y1="158" x2="410" y2="156" stroke="black" stroke-width="1" />
<rect x="227" y="154" width="40" height="5" style="fill:#5d3c2d;stroke:black;stroke-width:1;fill-opacity:1;stroke-opacity:0.3" />
<line x1="268" y1="156" x2="374" y2="156" stroke="pink" stroke-width="1" />
<rect x="374" y="154" width="16" height="5" style="fill:#5d3c2d;stroke:black;stroke-width:1;fill-opacity:1;stroke-opacity:0.3" />
<rect x="410" y="154" width="18" height="5" style="fill:#5d3c2d;stroke:black;stroke-width:1;fill-opacity:1;stroke-opacity:0.3" />
<line x1="429" y1="156" x2="550" y2="156" stroke="pink" stroke-width="1" />
<rect x="550" y="154" width="37" height="5" style="fill:#5d3c2d;stroke:black;stroke-width:1;fill-opacity:1;stroke-opacity:0.3" />
<line x1="393" y1="37" x2="471" y2="39" stroke="black" stroke-width="1" />
<line x1="471" y1="39" x2="550" y2="37" stroke="black" stroke-width="1" />
<rect x="230" y="35" width="37" height="5" style="fill:#5d3c2d;stroke:black;stroke-width:1;fill-opacity:1;stroke-opacity:0.3" />
<line x1="268" y1="37" x2="374" y2="37" stroke="pink" stroke-width="1" />
<rect x="374" y="35" width="19" height="5" style="fill:#5d3c2d;stroke:black;stroke-width:1;fill-opacity:1;stroke-opacity:0.3" />
<rect x="550" y="35" width="37" height="5" style="fill:#5d3c2d;stroke:black;stroke-width:1;fill-opacity:1;stroke-opacity:0.3" />
<line x1="588" y1="37" x2="738" y2="37" stroke="pink" stroke-width="1" />
<rect x="738" y="35" width="19" height="5" style="fill:#5d3c2d;stroke:black;stroke-width:1;fill-opacity:1;stroke-opacity:0.3" />
<line x1="397" y1="44" x2="404" y2="46" stroke="black" stroke-width="1" />
<line x1="404" y1="46" x2="412" y2="44" stroke="black" stroke-width="1" />
<rect x="234" y="42" width="33" height="5" style="fill:#5d3c2d;stroke:black;stroke-width:1;fill-opacity:1;stroke-opacity:0.3" />
<line x1="268" y1="44" x2="374" y2="44" stroke="pink" stroke-width="1" />
<rect x="374" y="42" width="23" height="5" style="fill:#5d3c2d;stroke:black;stroke-width:1;fill-opacity:1;stroke-opacity:0.3" />
<rect x="412" y="42" width="16" height="5" style="fill:#5d3c2d;stroke:black;stroke-width:1;fill-opacity:1;stroke-opacity:0.3" />
<line x1="429" y1="44" x2="550" y2="44" stroke="pink" stroke-width="1" />
<rect x="550" y="42" width="37" height="5" style="fill:#5d3c2d;stroke:black;stroke-width:1;fill-opacity:1;stroke-opacity:0.3" />
<line x1="588" y1="44" x2="738" y2="44" stroke="pink" stroke-width="1" />
<rect x="738" y="42" width="2" height="5" style="fill:#5d3c2d;stroke:black;stroke-width:1;fill-opacity:1;stroke-opacity:0.3" />
<line x1="398" y1="86" x2="404" y2="88" stroke="black" stroke-width="1" />
<line x1="404" y1="88" x2="410" y2="86" stroke="black" stroke-width="1" />
<rect x="235" y="84" width="32" height="5" style="fill:#f5b024;stroke:black;stroke-width:1;fill-opacity:1;stroke-opacity:0.3" />
<line x1="268" y1="86" x2="374" y2="86" stroke="pink" stroke-width="1" />
<rect x="374" y="84" width="23" height="5" style="fill:#f5b024;stroke:black;stroke-width:1;fill-opacity:1;stroke-opacity:0.3" />
<rect x="410" y="84" width="19" height="5" style="fill:#f5b024;stroke:black;stroke-width:1;fill-opacity:1;stroke-opacity:0.3" />
<line x1="429" y1="86" x2="550" y2="86" stroke="pink" stroke-width="1" />
<rect x="550" y="84" width="37" height="5" style="fill:#f5b024;stroke:black;stroke-width:1;fill-opacity:1;stroke-opacity:0.3" />
<line x1="399" y1="114" x2="402" y2="116" stroke="black" stroke-width="1" />
<line x1="402" y1="116" x2="405" y2="114" stroke="black" stroke-width="1" />
<rect x="236" y="112" width="31" height="5" style="fill:#5d3c2d;stroke:black;stroke-width:1;fill-opacity:1;stroke-opacity:0.3" />
<line x1="268" y1="114" x2="374" y2="114" stroke="pink" stroke-width="1" />
<rect x="374" y="112" width="24" height="5" style="fill:#5d3c2d;stroke:black;stroke-width:1;fill-opacity:1;stroke-opacity:0.3" />
<rect x="405" y="112" width="24" height="5" style="fill:#5d3c2d;stroke:black;stroke-width:1;fill-opacity:1;stroke-opacity:0.3" />
<line x1="429" y1="114" x2="550" y2="114" stroke="pink" stroke-width="1" />
<rect x="550" y="112" width="32" height="5" style="fill:#5d3c2d;stroke:black;stroke-width:1;fill-opacity:1;stroke-opacity:0.3" />
<line x1="400" y1="121" x2="404" y2="123" stroke="black" stroke-width="1" />
<line x1="404" y1="123" x2="408" y2="121" stroke="black" stroke-width="1" />
<rect x="237" y="119" width="30" height="5" style="fill:#5d3c2d;stroke:black;stroke-width:1;fill-opacity:1;stroke-opacity:0.3" />
<line x1="268" y1="121" x2="374" y2="121" stroke="pink" stroke-width="1" />
<rect x="374" y="119" width="25" height="5" style="fill:#5d3c2d;stroke:black;stroke-width:1;fill-opacity:1;stroke-opacity:0.3" />
<rect x="408" y="119" width="20" height="5" style="fill:#5d3c2d;stroke:black;stroke-width:1;fill-opacity:1;stroke-opacity:0.3" />
<line x1="429" y1="121" x2="550" y2="121" stroke="pink" stroke-width="1" />
<rect x="550" y="119" width="35" height="5" style="fill:#5d3c2d;stroke:black;stroke-width:1;fill-opacity:1;stroke-opacity:0.3" />
<line x1="404" y1="163" x2="408" y2="165" stroke="black" stroke-width="1" />
<line x1="408" y1="165" x2="412" y2="163" stroke="black" stroke-width="1" />
<rect x="241" y="161" width="26" height="5" style="fill:#5d3c2d;stroke:black;stroke-width:1;fill-opacity:1;stroke-opacity:0.3" />
<line x1="268" y1="163" x2="374" y2="163" stroke="pink" stroke-width="1" />
<rect x="374" y="161" width="29" height="5" style="fill:#5d3c2d;stroke:black;stroke-width:1;fill-opacity:1;stroke-opacity:0.3" />
<rect x="412" y="161" width="16" height="5" style="fill:#5d3c2d;stroke:black;stroke-width:1;fill-opacity:1;stroke-opacity:0.3" />
<line x1="429" y1="163" x2="550" y2="163" stroke="pink" stroke-width="1" />
<rect x="550" y="161" width="37" height="5" style="fill:#5d3c2d;stroke:black;stroke-width:1;fill-opacity:1;stroke-opacity:0.3" />
<line x1="588" y1="163" x2="738" y2="163" stroke="pink" stroke-width="1" />
<rect x="738" y="161" width="2" height="5" style="fill:#5d3c2d;stroke:black;stroke-width:1;fill-opacity:1;stroke-opacity:0.3" />
<line x1="425" y1="100" x2="491" y2="102" stroke="black" stroke-width="1" />
<line x1="491" y1="102" x2="558" y2="100" stroke="black" stroke-width="1" />
<rect x="262" y="98" width="5" height="5" style="fill:#5d3c2d;stroke:black;stroke-width:1;fill-opacity:1;stroke-opacity:0.3" />
<line x1="268" y1="100" x2="374" y2="100" stroke="pink" stroke-width="1" />
<rect x="374" y="98" width="50" height="5" style="fill:#5d3c2d;stroke:black;stroke-width:1;fill-opacity:1;stroke-opacity:0.3" />
<rect x="558" y="98" width="29" height="5" style="fill:#5d3c2d;stroke:black;stroke-width:1;fill-opacity:1;stroke-opacity:0.3" />
<line x1="588" y1="100" x2="738" y2="100" stroke="pink" stroke-width="1" />
<rect x="738" y="98" width="26" height="5" style="fill:#5d3c2d;stroke:black;stroke-width:1;fill-opacity:1;stroke-opacity:0.3" />
<line x1="426" y1="107" x2="492" y2="109" stroke="black" stroke-width="1" />
<line x1="492" y1="109" x2="558" y2="107" stroke="black" stroke-width="1" />
<rect x="262" y="105" width="5" height="5" style="fill:#5d3c2d;stroke:black;stroke-width:1;fill-opacity:1;stroke-opacity:0.3" />
<line x1="268" y1="107" x2="374" y2="107" stroke="pink" stroke-width="1" />
<rect x="374" y="105" width="51" height="5" style="fill:#5d3c2d;stroke:black;stroke-width:1;fill-opacity:1;stroke-opacity:0.3" />
<rect x="558" y="105" width="29" height="5" style="fill:#5d3c2d;stroke:black;stroke-width:1;fill-opacity:1;stroke-opacity:0.3" />
<line x1="588" y1="107" x2="738" y2="107" stroke="pink" stroke-width="1" />
<rect x="738" y="105" width="27" height="5" style="fill:#5d3c2d;stroke:black;stroke-width:1;fill-opacity:1;stroke-opacity:0.3" />
<line x1="429" y1="135" x2="492" y2="137" stroke="black" stroke-width="1" />
<line x1="492" y1="137" x2="556" y2="135" stroke="black" stroke-width="1" />
<rect x="373" y="133" width="55" height="5" style="fill:#5d3c2d;stroke:black;stroke-width:1;fill-opacity:1;stroke-opacity:0.3" />
<rect x="556" y="133" width="31" height="5" style="fill:#5d3c2d;stroke:black;stroke-width:1;fill-opacity:1;stroke-opacity:0.3" />
<line x1="588" y1="135" x2="738" y2="135" stroke="pink" stroke-width="1" />
<rect x="738" y="133" width="25" height="5" style="fill:#5d3c2d;stroke:black;stroke-width:1;fill-opacity:1;stroke-opacity:0.3" />
<line x1="556" y1="79" x2="562" y2="81" stroke="black" stroke-width="1" />
<line x1="562" y1="81" x2="569" y2="79" stroke="black" stroke-width="1" />
<rect x="378" y="77" width="50" height="5" style="fill:#5d3c2d;stroke:black;stroke-width:1;fill-opacity:1;stroke-opacity:0.3" />
<line x1="429" y1="79" x2="550" y2="79" stroke="pink" stroke-width="1" />
<rect x="550" y="77" width="5" height="5" style="fill:#5d3c2d;stroke:black;stroke-width:1;fill-opacity:1;stroke-opacity:0.3" />
<rect x="569" y="77" width="18" height="5" style="fill:#5d3c2d;stroke:black;stroke-width:1;fill-opacity:1;stroke-opacity:0.3" />
<line x1="588" y1="79" x2="738" y2="79" stroke="pink" stroke-width="1" />
<rect x="738" y="77" width="37" height="5" style="fill:#5d3c2d;stroke:black;stroke-width:1;fill-opacity:1;stroke-opacity:0.3" />
<line x1="778" y1="128" x2="782" y2="130" stroke="black" stroke-width="1" />
<line x1="782" y1="130" x2="786" y2="128" stroke="black" stroke-width="1" />
<rect x="571" y="126" width="16" height="5" style="fill:#5d3c2d;stroke:black;stroke-width:1;fill-opacity:1;stroke-opacity:0.3" />
<line x1="588" y1="128" x2="738" y2="128" stroke="pink" stroke-width="1" />
<rect x="738" y="126" width="40" height="5" style="fill:#5d3c2d;stroke:black;stroke-width:1;fill-opacity:1;stroke-opacity:0.3" />
<rect x="786" y="126" width="56" height="5" style="fill:#5d3c2d;stroke:black;stroke-width:1;fill-opacity:1;stroke-opacity:0.3" />
<line x1="783" y1="30" x2="791" y2="32" stroke="black" stroke-width="1" />
<line x1="791" y1="32" x2="799" y2="30" stroke="black" stroke-width="1" />
<rect x="576" y="28" width="11" height="5" style="fill:#5d3c2d;stroke:black;stroke-width:1;fill-opacity:1;stroke-opacity:0.3" />
<line x1="588" y1="30" x2="738" y2="30" stroke="pink" stroke-width="1" />
<rect x="738" y="28" width="45" height="5" style="fill:#5d3c2d;stroke:black;stroke-width:1;fill-opacity:1;stroke-opacity:0.3" />
<rect x="799" y="28" width="56" height="5" style="fill:#5d3c2d;stroke:black;stroke-width:1;fill-opacity:1;stroke-opacity:0.3" />
<line x1="783" y1="58" x2="791" y2="60" stroke="black" stroke-width="1" />
<line x1="791" y1="60" x2="800" y2="58" stroke="black" stroke-width="1" />
<rect x="576" y="56" width="11" height="5" style="fill:#5d3c2d;stroke:black;stroke-width:1;fill-opacity:1;stroke-opacity:0.3" />
<line x1="588" y1="58" x2="738" y2="58" stroke="pink" stroke-width="1" />
<rect x="738" y="56" width="45" height="5" style="fill:#5d3c2d;stroke:black;stroke-width:1;fill-opacity:1;stroke-opacity:0.3" />
<rect x="800" y="56" width="55" height="5" style="fill:#5d3c2d;stroke:black;stroke-width:1;fill-opacity:1;stroke-opacity:0.3" />
<line x1="783" y1="65" x2="787" y2="67" stroke="black" stroke-width="1" />
<line x1="787" y1="67" x2="792" y2="65" stroke="black" stroke-width="1" />
<rect x="577" y="63" width="10" height="5" style="fill:#5d3c2d;stroke:black;stroke-width:1;fill-opacity:1;stroke-opacity:0.3" />
<line x1="588" y1="65" x2="738" y2="65" stroke="pink" stroke-width="1" />
<rect x="738" y="63" width="45" height="5" style="fill:#5d3c2d;stroke:black;stroke-width:1;fill-opacity:1;stroke-opacity:0.3" />
<rect x="792" y="63" width="56" height="5" style="fill:#5d3c2d;stroke:black;stroke-width:1;fill-opacity:1;stroke-opacity:0.3" />
<line x1="783" y1="149" x2="791" y2="151" stroke="black" stroke-width="1" />
<line x1="791" y1="151" x2="800" y2="149" stroke="black" stroke-width="1" />
<rect x="577" y="147" width="10" height="5" style="fill:#5d3c2d;stroke:black;stroke-width:1;fill-opacity:1;stroke-opacity:0.3" />
<line x1="588" y1="149" x2="738" y2="149" stroke="pink" stroke-width="1" />
<rect x="738" y="147" width="45" height="5" style="fill:#5d3c2d;stroke:black;stroke-width:1;fill-opacity:1;stroke-opacity:0.3" />
<rect x="800" y="147" width="56" height="5" style="fill:#5d3c2d;stroke:black;stroke-width:1;fill-opacity:1;stroke-opacity:0.3" />
<line x1="787" y1="93" x2="794" y2="95" stroke="black" stroke-width="1" />
<line x1="794" y1="95" x2="801" y2="93" stroke="black" stroke-width="1" />
<rect x="581" y="91" width="6" height="5" style="fill:#5d3c2d;stroke:black;stroke-width:1;fill-opacity:1;stroke-opacity:0.3" />
<line x1="588" y1="93" x2="738" y2="93" stroke="pink" stroke-width="1" />
<rect x="738" y="91" width="49" height="5" style="fill:#5d3c2d;stroke:black;stroke-width:1;fill-opacity:1;stroke-opacity:0.3" />
<rect x="801" y="91" width="54" height="5" style="fill:#5d3c2d;stroke:black;stroke-width:1;fill-opacity:1;stroke-opacity:0.3" />
<line x1="788" y1="114" x2="810" y2="116" stroke="black" stroke-width="1" />
<line x1="810" y1="116" x2="833" y2="114" stroke="black" stroke-width="1" />
<rect x="582" y="112" width="5" height="5" style="fill:#5d3c2d;stroke:black;stroke-width:1;fill-opacity:1;stroke-opacity:0.3" />
<line x1="588" y1="114" x2="738" y2="114" stroke="pink" stroke-width="1" />
<rect x="738" y="112" width="50" height="5" style="fill:#5d3c2d;stroke:black;stroke-width:1;fill-opacity:1;stroke-opacity:0.3" />
<rect x="833" y="112" width="55" height="5" style="fill:#5d3c2d;stroke:black;stroke-width:1;fill-opacity:1;stroke-opacity:0.3" />
<line x1="791" y1="51" x2="807" y2="53" stroke="black" stroke-width="1" />
<line x1="807" y1="53" x2="823" y2="51" stroke="black" stroke-width="1" />
<rect x="585" y="49" width="2" height="5" style="fill:#5d3c2d;stroke:black;stroke-width:1;fill-opacity:1;stroke-opacity:0.3" />
<line x1="588" y1="51" x2="738" y2="51" stroke="pink" stroke-width="1" />
<rect x="738" y="49" width="53" height="5" style="fill:#5d3c2d;stroke:black;stroke-width:1;fill-opacity:1;stroke-opacity:0.3" />
<rect x="823" y="49" width="56" height="5" style="fill:#5d3c2d;stroke:black;stroke-width:1;fill-opacity:1;stroke-opacity:0.3" />
<line x1="676" y1="86" x2="694" y2="88" stroke="black" stroke-width="1" />
<line x1="694" y1="88" x2="712" y2="86" stroke="black" stroke-width="1" />
<rect x="591" y="84" width="84" height="5" style="fill:#5d3c2d;stroke:black;stroke-width:1;fill-opacity:1;stroke-opacity:0.3" />
<rect x="712" y="84" width="84" height="5" style="fill:#5d3c2d;stroke:black;stroke-width:1;fill-opacity:1;stroke-opacity:0.3" />
<line x1="794" y1="121" x2="797" y2="123" stroke="black" stroke-width="1" />
<line x1="797" y1="123" x2="800" y2="121" stroke="black" stroke-width="1" />
<rect x="738" y="119" width="56" height="5" style="fill:#5d3c2d;stroke:black;stroke-width:1;fill-opacity:1;stroke-opacity:0.3" />
<rect x="800" y="119" width="56" height="5" style="fill:#5d3c2d;stroke:black;stroke-width:1;fill-opacity:1;stroke-opacity:0.3" />
<line x1="794" y1="156" x2="805" y2="158" stroke="black" stroke-width="1" />
<line x1="805" y1="158" x2="817" y2="156" stroke="black" stroke-width="1" />
<rect x="738" y="154" width="56" height="5" style="fill:#5d3c2d;stroke:black;stroke-width:1;fill-opacity:1;stroke-opacity:0.3" />
<rect x="817" y="154" width="56" height="5" style="fill:#5d3c2d;stroke:black;stroke-width:1;fill-opacity:1;stroke-opacity:0.3" />
<line x1="796" y1="44" x2="802" y2="46" stroke="black" stroke-width="1" />
<line x1="802" y1="46" x2="808" y2="44" stroke="black" stroke-width="1" />
<rect x="740" y="42" width="56" height="5" style="fill:#5d3c2d;stroke:black;stroke-width:1;fill-opacity:1;stroke-opacity:0.3" />
<rect x="808" y="42" width="56" height="5" style="fill:#5d3c2d;stroke:black;stroke-width:1;fill-opacity:1;stroke-opacity:0.3" />
<line x1="798" y1="163" x2="807" y2="165" stroke="black" stroke-width="1" />
<line x1="807" y1="165" x2="816" y2="163" stroke="black" stroke-width="1" />
<rect x="742" y="161" width="56" height="5" style="fill:#5d3c2d;stroke:black;stroke-width:1;fill-opacity:1;stroke-opacity:0.3" />
<rect x="816" y="161" width="56" height="5" style="fill:#5d3c2d;stroke:black;stroke-width:1;fill-opacity:1;stroke-opacity:0.3" />
<line x1="814" y1="37" x2="829" y2="39" stroke="black" stroke-width="1" />
<line x1="829" y1="39" x2="844" y2="37" stroke="black" stroke-width="1" />
<rect x="758" y="35" width="56" height="5" style="fill:#5d3c2d;stroke:black;stroke-width:1;fill-opacity:1;stroke-opacity:0.3" />
<rect x="844" y="35" width="56" height="5" style="fill:#5d3c2d;stroke:black;stroke-width:1;fill-opacity:1;stroke-opacity:0.3" />
<line x1="818" y1="142" x2="826" y2="144" stroke="black" stroke-width="1" />
<line x1="826" y1="144" x2="835" y2="142" stroke="black" stroke-width="1" />
<rect x="761" y="140" width="56" height="5" style="fill:#5d3c2d;stroke:black;stroke-width:1;fill-opacity:1;stroke-opacity:0.3" />
<rect x="835" y="140" width="56" height="5" style="fill:#5d3c2d;stroke:black;stroke-width:1;fill-opacity:1;stroke-opacity:0.3" />
<line x1="821" y1="100" x2="827" y2="102" stroke="black" stroke-width="1" />
<line x1="827" y1="102" x2="834" y2="100" stroke="black" stroke-width="1" />
<rect x="765" y="98" width="56" height="5" style="fill:#5d3c2d;stroke:black;stroke-width:1;fill-opacity:1;stroke-opacity:0.3" />
<rect x="834" y="98" width="55" height="5" style="fill:#5d3c2d;stroke:black;stroke-width:1;fill-opacity:1;stroke-opacity:0.3" />
<line x1="821" y1="107" x2="832" y2="109" stroke="black" stroke-width="1" />
<line x1="832" y1="109" x2="844" y2="107" stroke="black" stroke-width="1" />
<rect x="765" y="105" width="56" height="5" style="fill:#5d3c2d;stroke:black;stroke-width:1;fill-opacity:1;stroke-opacity:0.3" />
<rect x="844" y="105" width="56" height="5" style="fill:#5d3c2d;stroke:black;stroke-width:1;fill-opacity:1;stroke-opacity:0.3" />
<line x1="822" y1="135" x2="826" y2="137" stroke="black" stroke-width="1" />
<line x1="826" y1="137" x2="830" y2="135" stroke="black" stroke-width="1" />
<rect x="765" y="133" width="56" height="5" style="fill:#5d3c2d;stroke:black;stroke-width:1;fill-opacity:1;stroke-opacity:0.3" />
<rect x="830" y="133" width="55" height="5" style="fill:#5d3c2d;stroke:black;stroke-width:1;fill-opacity:1;stroke-opacity:0.3" />
<line x1="832" y1="72" x2="842" y2="74" stroke="black" stroke-width="1" />
<line x1="842" y1="74" x2="852" y2="72" stroke="black" stroke-width="1" />
<rect x="775" y="70" width="56" height="5" style="fill:#5d3c2d;stroke:black;stroke-width:1;fill-opacity:1;stroke-opacity:0.3" />
<rect x="852" y="70" width="56" height="5" style="fill:#5d3c2d;stroke:black;stroke-width:1;fill-opacity:1;stroke-opacity:0.3" />
<line x1="833" y1="79" x2="836" y2="81" stroke="black" stroke-width="1" />
<line x1="836" y1="81" x2="839" y2="79" stroke="black" stroke-width="1" />
<rect x="777" y="77" width="56" height="5" style="fill:#5d3c2d;stroke:black;stroke-width:1;fill-opacity:1;stroke-opacity:0.3" />
<rect x="839" y="77" width="56" height="5" style="fill:#5d3c2d;stroke:black;stroke-width:1;fill-opacity:1;stroke-opacity:0.3" />
<line x1="857" y1="86" x2="871" y2="88" stroke="black" stroke-width="1" />
<line x1="871" y1="88" x2="885" y2="86" stroke="black" stroke-width="1" />
<rect x="801" y="84" width="55" height="5" style="fill:#5d3c2d;stroke:black;stroke-width:1;fill-opacity:1;stroke-opacity:0.3" />
<rect x="885" y="84" width="56" height="5" style="fill:#5d3c2d;stroke:black;stroke-width:1;fill-opacity:1;stroke-opacity:0.3" />
<line x1="901" y1="128" x2="913" y2="130" stroke="black" stroke-width="1" />
<line x1="913" y1="130" x2="926" y2="128" stroke="black" stroke-width="1" />
<rect x="845" y="126" width="56" height="5" style="fill:#f5b024;stroke:black;stroke-width:1;fill-opacity:1;stroke-opacity:0.3" />
<rect x="926" y="126" width="56" height="5" style="fill:#f5b024;stroke:black;stroke-width:1;fill-opacity:1;stroke-opacity:0.3" />
<line x1="907" y1="65" x2="911" y2="67" stroke="black" stroke-width="1" />
<line x1="911" y1="67" x2="915" y2="65" stroke="black" stroke-width="1" />
<rect x="851" y="63" width="56" height="5" style="fill:#5d3c2d;stroke:black;stroke-width:1;fill-opacity:1;stroke-opacity:0.3" />
<rect x="915" y="63" width="55" height="5" style="fill:#5d3c2d;stroke:black;stroke-width:1;fill-opacity:1;stroke-opacity:0.3" />
<line x1="913" y1="30" x2="926" y2="32" stroke="black" stroke-width="1" />
<line x1="926" y1="32" x2="940" y2="30" stroke="black" stroke-width="1" />
<rect x="856" y="28" width="56" height="5" style="fill:#f5b024;stroke:black;stroke-width:1;fill-opacity:1;stroke-opacity:0.3" />
<rect x="940" y="28" width="55" height="5" style="fill:#f5b024;stroke:black;stroke-width:1;fill-opacity:1;stroke-opacity:0.3" />
<line x1="914" y1="58" x2="925" y2="60" stroke="black" stroke-width="1" />
<line x1="925" y1="60" x2="937" y2="58" stroke="black" stroke-width="1" />
<rect x="857" y="56" width="56" height="5" style="fill:#5d3c2d;stroke:black;stroke-width:1;fill-opacity:1;stroke-opacity:0.3" />
<rect x="937" y="56" width="56" height="5" style="fill:#5d3c2d;stroke:black;stroke-width:1;fill-opacity:1;stroke-opacity:0.3" />
<line x1="914" y1="93" x2="925" y2="95" stroke="black" stroke-width="1" />
<line x1="925" y1="95" x2="937" y2="93" stroke="black" stroke-width="1" />
<rect x="857" y="91" width="56" height="5" style="fill:#5d3c2d;stroke:black;stroke-width:1;fill-opacity:1;stroke-opacity:0.3" />
<rect x="937" y="91" width="56" height="5" style="fill:#5d3c2d;stroke:black;stroke-width:1;fill-opacity:1;stroke-opacity:0.3" />
<line x1="915" y1="121" x2="920" y2="123" stroke="black" stroke-width="1" />
<line x1="920" y1="123" x2="926" y2="121" stroke="black" stroke-width="1" />
<rect x="859" y="119" width="56" height="5" style="fill:#5d3c2d;stroke:black;stroke-width:1;fill-opacity:1;stroke-opacity:0.3" />
<rect x="926" y="119" width="55" height="5" style="fill:#5d3c2d;stroke:black;stroke-width:1;fill-opacity:1;stroke-opacity:0.3" />
<line x1="918" y1="149" x2="929" y2="151" stroke="black" stroke-width="1" />
<line x1="929" y1="151" x2="940" y2="149" stroke="black" stroke-width="1" />
<rect x="861" y="147" width="56" height="5" style="fill:#5d3c2d;stroke:black;stroke-width:1;fill-opacity:1;stroke-opacity:0.3" />
<rect x="940" y="147" width="56" height="5" style="fill:#5d3c2d;stroke:black;stroke-width:1;fill-opacity:1;stroke-opacity:0.3" />
<line x1="925" y1="44" x2="932" y2="46" stroke="black" stroke-width="1" />
<line x1="932" y1="46" x2="940" y2="44" stroke="black" stroke-width="1" />
<rect x="869" y="42" width="56" height="5" style="fill:#5d3c2d;stroke:black;stroke-width:1;fill-opacity:1;stroke-opacity:0.3" />
<rect x="940" y="42" width="56" height="5" style="fill:#5d3c2d;stroke:black;stroke-width:1;fill-opacity:1;stroke-opacity:0.3" />
<line x1="929" y1="163" x2="933" y2="165" stroke="black" stroke-width="1" />
<line x1="933" y1="165" x2="937" y2="163" stroke="black" stroke-width="1" />
<rect x="873" y="161" width="56" height="5" style="fill:#f5b024;stroke:black;stroke-width:1;fill-opacity:1;stroke-opacity:0.3" />
<rect x="937" y="161" width="56" height="5" style="fill:#f5b024;stroke:black;stroke-width:1;fill-opacity:1;stroke-opacity:0.3" />
<line x1="931" y1="156" x2="935" y2="158" stroke="black" stroke-width="1" />
<line x1="935" y1="158" x2="940" y2="156" stroke="black" stroke-width="1" />
<rect x="875" y="154" width="56" height="5" style="fill:#5d3c2d;stroke:black;stroke-width:1;fill-opacity:1;stroke-opacity:0.3" />
<rect x="940" y="154" width="56" height="5" style="fill:#5d3c2d;stroke:black;stroke-width:1;fill-opacity:1;stroke-opacity:0.3" />
<text x="15"  y="176" style="font-family:Arial;font-size:10;stroke:black;fill:black;">all.merged.bam</text>
</svg>
    
