<?xml version="1.0" encoding="utf-8" standalone="no"?>
<!DOCTYPE svg PUBLIC "-//W3C//DTD SVG 1.1//EN"
  "http://www.w3.org/Graphics/SVG/1.1/DTD/svg11.dtd">
<svg height="1140" width="1000" version="1.1" viewBox="0 0 1000 1140" xmlns="http://www.w3.org/2000/svg" xmlns:xlink="http://www.w3.org/1999/xlink">
<line x1="36" y1="11" x2="962" y2="11" stroke="black" stroke-width="1" />
<rect x="36" y="9" width="166" height="5" style="fill:#f50002;stroke:black;stroke-width:1;fill-opacity:1;stroke-opacity:0.3" />
<rect x="203" y="9" width="26" height="5" style="fill:#53a1b5;stroke:black;stroke-width:1;fill-opacity:1;stroke-opacity:0.3" />
<rect x="335" y="9" width="25" height="5" style="fill:#53a1b5;stroke:black;stroke-width:1;fill-opacity:1;stroke-opacity:0.3" />
<rect x="433" y="9" width="7" height="5" style="fill:#53a1b5;stroke:black;stroke-width:1;fill-opacity:1;stroke-opacity:0.3" />
<rect x="456" y="9" width="9" height="5" style="fill:#53a1b5;stroke:black;stroke-width:1;fill-opacity:1;stroke-opacity:0.3" />
<rect x="591" y="9" width="19" height="5" style="fill:#53a1b5;stroke:black;stroke-width:1;fill-opacity:1;stroke-opacity:0.3" />
<rect x="725" y="9" width="35" height="5" style="fill:#53a1b5;stroke:black;stroke-width:1;fill-opacity:1;stroke-opacity:0.3" />
<rect x="874" y="9" width="65" height="5" style="fill:#53a1b5;stroke:black;stroke-width:1;fill-opacity:1;stroke-opacity:0.3" />
<rect x="940" y="9" width="22" height="5" style="fill:#f50002;stroke:black;stroke-width:1;fill-opacity:1;stroke-opacity:0.3" />
<text x="36"  y="23" style="font-family:Arial;font-size:10;stroke:black;fill:black;">Cre17.g702300.t1.1.v5.5 (-) chromosome_17:845503-848008</text>
<line x1="41" y1="30" x2="43" y2="32" stroke="black" stroke-width="1" />
<line x1="43" y1="32" x2="45" y2="30" stroke="black" stroke-width="1" />
<rect x="4" y="28" width="36" height="5" style="fill:#5d3c2d;stroke:black;stroke-width:1;fill-opacity:1;stroke-opacity:0.3" />
<rect x="45" y="28" width="36" height="5" style="fill:#5d3c2d;stroke:black;stroke-width:1;fill-opacity:1;stroke-opacity:0.3" />
<line x1="49" y1="37" x2="54" y2="39" stroke="black" stroke-width="1" />
<line x1="54" y1="39" x2="60" y2="37" stroke="black" stroke-width="1" />
<rect x="12" y="35" width="36" height="5" style="fill:#f5b024;stroke:black;stroke-width:1;fill-opacity:1;stroke-opacity:0.3" />
<rect x="60" y="35" width="36" height="5" style="fill:#f5b024;stroke:black;stroke-width:1;fill-opacity:1;stroke-opacity:0.3" />
<line x1="72" y1="44" x2="78" y2="46" stroke="black" stroke-width="1" />
<line x1="78" y1="46" x2="84" y2="44" stroke="black" stroke-width="1" />
<rect x="35" y="42" width="36" height="5" style="fill:#f5b024;stroke:black;stroke-width:1;fill-opacity:1;stroke-opacity:0.3" />
<rect x="84" y="42" width="36" height="5" style="fill:#f5b024;stroke:black;stroke-width:1;fill-opacity:1;stroke-opacity:0.3" />
<line x1="76" y1="51" x2="86" y2="53" stroke="black" stroke-width="1" />
<line x1="86" y1="53" x2="96" y2="51" stroke="black" stroke-width="1" />
<rect x="40" y="49" width="36" height="5" style="fill:#f5b024;stroke:black;stroke-width:1;fill-opacity:1;stroke-opacity:0.3" />
<rect x="96" y="49" width="36" height="5" style="fill:#f5b024;stroke:black;stroke-width:1;fill-opacity:1;stroke-opacity:0.3" />
<line x1="76" y1="58" x2="81" y2="60" stroke="black" stroke-width="1" />
<line x1="81" y1="60" x2="86" y2="58" stroke="black" stroke-width="1" />
<rect x="40" y="56" width="36" height="5" style="fill:#f5b024;stroke:black;stroke-width:1;fill-opacity:1;stroke-opacity:0.3" />
<rect x="86" y="56" width="36" height="5" style="fill:#f5b024;stroke:black;stroke-width:1;fill-opacity:1;stroke-opacity:0.3" />
<line x1="77" y1="65" x2="92" y2="67" stroke="black" stroke-width="1" />
<line x1="92" y1="67" x2="107" y2="65" stroke="black" stroke-width="1" />
<rect x="40" y="63" width="36" height="5" style="fill:#f5b024;stroke:black;stroke-width:1;fill-opacity:1;stroke-opacity:0.3" />
<rect x="107" y="63" width="36" height="5" style="fill:#f5b024;stroke:black;stroke-width:1;fill-opacity:1;stroke-opacity:0.3" />
<line x1="96" y1="72" x2="97" y2="74" stroke="black" stroke-width="1" />
<line x1="97" y1="74" x2="99" y2="72" stroke="black" stroke-width="1" />
<rect x="40" y="70" width="55" height="5" style="fill:#5d3c2d;stroke:black;stroke-width:1;fill-opacity:1;stroke-opacity:0.3" />
<rect x="99" y="70" width="55" height="5" style="fill:#5d3c2d;stroke:black;stroke-width:1;fill-opacity:1;stroke-opacity:0.3" />
<line x1="77" y1="79" x2="82" y2="81" stroke="black" stroke-width="1" />
<line x1="82" y1="81" x2="88" y2="79" stroke="black" stroke-width="1" />
<rect x="40" y="77" width="36" height="5" style="fill:#f5b024;stroke:black;stroke-width:1;fill-opacity:1;stroke-opacity:0.3" />
<rect x="88" y="77" width="35" height="5" style="fill:#f5b024;stroke:black;stroke-width:1;fill-opacity:1;stroke-opacity:0.3" />
<line x1="77" y1="86" x2="82" y2="88" stroke="black" stroke-width="1" />
<line x1="82" y1="88" x2="88" y2="86" stroke="black" stroke-width="1" />
<rect x="41" y="84" width="36" height="5" style="fill:#f5b024;stroke:black;stroke-width:1;fill-opacity:1;stroke-opacity:0.3" />
<rect x="88" y="84" width="36" height="5" style="fill:#f5b024;stroke:black;stroke-width:1;fill-opacity:1;stroke-opacity:0.3" />
<line x1="77" y1="93" x2="82" y2="95" stroke="black" stroke-width="1" />
<line x1="82" y1="95" x2="88" y2="93" stroke="black" stroke-width="1" />
<rect x="41" y="91" width="36" height="5" style="fill:#f5b024;stroke:black;stroke-width:1;fill-opacity:1;stroke-opacity:0.3" />
<rect x="88" y="91" width="36" height="5" style="fill:#f5b024;stroke:black;stroke-width:1;fill-opacity:1;stroke-opacity:0.3" />
<line x1="80" y1="100" x2="88" y2="102" stroke="black" stroke-width="1" />
<line x1="88" y1="102" x2="97" y2="100" stroke="black" stroke-width="1" />
<rect x="43" y="98" width="36" height="5" style="fill:#f5b024;stroke:black;stroke-width:1;fill-opacity:1;stroke-opacity:0.3" />
<rect x="97" y="98" width="36" height="5" style="fill:#f5b024;stroke:black;stroke-width:1;fill-opacity:1;stroke-opacity:0.3" />
<line x1="80" y1="107" x2="93" y2="109" stroke="black" stroke-width="1" />
<line x1="93" y1="109" x2="107" y2="107" stroke="black" stroke-width="1" />
<rect x="43" y="105" width="36" height="5" style="fill:#f5b024;stroke:black;stroke-width:1;fill-opacity:1;stroke-opacity:0.3" />
<rect x="107" y="105" width="36" height="5" style="fill:#f5b024;stroke:black;stroke-width:1;fill-opacity:1;stroke-opacity:0.3" />
<line x1="81" y1="114" x2="84" y2="116" stroke="black" stroke-width="1" />
<line x1="84" y1="116" x2="88" y2="114" stroke="black" stroke-width="1" />
<rect x="44" y="112" width="36" height="5" style="fill:#f5b024;stroke:black;stroke-width:1;fill-opacity:1;stroke-opacity:0.3" />
<rect x="88" y="112" width="35" height="5" style="fill:#f5b024;stroke:black;stroke-width:1;fill-opacity:1;stroke-opacity:0.3" />
<line x1="82" y1="121" x2="89" y2="123" stroke="black" stroke-width="1" />
<line x1="89" y1="123" x2="97" y2="121" stroke="black" stroke-width="1" />
<rect x="45" y="119" width="36" height="5" style="fill:#f5b024;stroke:black;stroke-width:1;fill-opacity:1;stroke-opacity:0.3" />
<rect x="97" y="119" width="36" height="5" style="fill:#f5b024;stroke:black;stroke-width:1;fill-opacity:1;stroke-opacity:0.3" />
<line x1="82" y1="128" x2="85" y2="130" stroke="black" stroke-width="1" />
<line x1="85" y1="130" x2="88" y2="128" stroke="black" stroke-width="1" />
<rect x="45" y="126" width="36" height="5" style="fill:#f5b024;stroke:black;stroke-width:1;fill-opacity:1;stroke-opacity:0.3" />
<rect x="88" y="126" width="36" height="5" style="fill:#f5b024;stroke:black;stroke-width:1;fill-opacity:1;stroke-opacity:0.3" />
<line x1="83" y1="135" x2="100" y2="137" stroke="black" stroke-width="1" />
<line x1="100" y1="137" x2="118" y2="135" stroke="black" stroke-width="1" />
<rect x="46" y="133" width="36" height="5" style="fill:#5d3c2d;stroke:black;stroke-width:1;fill-opacity:1;stroke-opacity:0.3" />
<rect x="118" y="133" width="36" height="5" style="fill:#5d3c2d;stroke:black;stroke-width:1;fill-opacity:1;stroke-opacity:0.3" />
<line x1="83" y1="142" x2="97" y2="144" stroke="black" stroke-width="1" />
<line x1="97" y1="144" x2="111" y2="142" stroke="black" stroke-width="1" />
<rect x="46" y="140" width="36" height="5" style="fill:#5d3c2d;stroke:black;stroke-width:1;fill-opacity:1;stroke-opacity:0.3" />
<rect x="111" y="140" width="36" height="5" style="fill:#5d3c2d;stroke:black;stroke-width:1;fill-opacity:1;stroke-opacity:0.3" />
<line x1="83" y1="149" x2="85" y2="151" stroke="black" stroke-width="1" />
<line x1="85" y1="151" x2="88" y2="149" stroke="black" stroke-width="1" />
<rect x="46" y="147" width="36" height="5" style="fill:#f5b024;stroke:black;stroke-width:1;fill-opacity:1;stroke-opacity:0.3" />
<rect x="88" y="147" width="35" height="5" style="fill:#f5b024;stroke:black;stroke-width:1;fill-opacity:1;stroke-opacity:0.3" />
<line x1="83" y1="156" x2="90" y2="158" stroke="black" stroke-width="1" />
<line x1="90" y1="158" x2="97" y2="156" stroke="black" stroke-width="1" />
<rect x="46" y="154" width="36" height="5" style="fill:#5d3c2d;stroke:black;stroke-width:1;fill-opacity:1;stroke-opacity:0.3" />
<rect x="97" y="154" width="36" height="5" style="fill:#5d3c2d;stroke:black;stroke-width:1;fill-opacity:1;stroke-opacity:0.3" />
<line x1="102" y1="163" x2="104" y2="165" stroke="black" stroke-width="1" />
<line x1="104" y1="165" x2="106" y2="163" stroke="black" stroke-width="1" />
<rect x="46" y="161" width="55" height="5" style="fill:#5d3c2d;stroke:black;stroke-width:1;fill-opacity:1;stroke-opacity:0.3" />
<rect x="106" y="161" width="54" height="5" style="fill:#5d3c2d;stroke:black;stroke-width:1;fill-opacity:1;stroke-opacity:0.3" />
<line x1="120" y1="30" x2="122" y2="32" stroke="black" stroke-width="1" />
<line x1="122" y1="32" x2="124" y2="30" stroke="black" stroke-width="1" />
<rect x="83" y="28" width="36" height="5" style="fill:#5d3c2d;stroke:black;stroke-width:1;fill-opacity:1;stroke-opacity:0.3" />
<rect x="124" y="28" width="36" height="5" style="fill:#5d3c2d;stroke:black;stroke-width:1;fill-opacity:1;stroke-opacity:0.3" />
<line x1="135" y1="37" x2="145" y2="39" stroke="black" stroke-width="1" />
<line x1="145" y1="39" x2="155" y2="37" stroke="black" stroke-width="1" />
<rect x="99" y="35" width="36" height="5" style="fill:#f5b024;stroke:black;stroke-width:1;fill-opacity:1;stroke-opacity:0.3" />
<rect x="155" y="35" width="36" height="5" style="fill:#f5b024;stroke:black;stroke-width:1;fill-opacity:1;stroke-opacity:0.3" />
<line x1="162" y1="44" x2="168" y2="46" stroke="black" stroke-width="1" />
<line x1="168" y1="46" x2="175" y2="44" stroke="black" stroke-width="1" />
<rect x="126" y="42" width="36" height="5" style="fill:#f5b024;stroke:black;stroke-width:1;fill-opacity:1;stroke-opacity:0.3" />
<rect x="175" y="42" width="36" height="5" style="fill:#f5b024;stroke:black;stroke-width:1;fill-opacity:1;stroke-opacity:0.3" />
<line x1="162" y1="58" x2="166" y2="60" stroke="black" stroke-width="1" />
<line x1="166" y1="60" x2="171" y2="58" stroke="black" stroke-width="1" />
<rect x="126" y="56" width="36" height="5" style="fill:#f5b024;stroke:black;stroke-width:1;fill-opacity:1;stroke-opacity:0.3" />
<rect x="171" y="56" width="36" height="5" style="fill:#f5b024;stroke:black;stroke-width:1;fill-opacity:1;stroke-opacity:0.3" />
<line x1="162" y1="79" x2="173" y2="81" stroke="black" stroke-width="1" />
<line x1="173" y1="81" x2="184" y2="79" stroke="black" stroke-width="1" />
<rect x="126" y="77" width="36" height="5" style="fill:#f5b024;stroke:black;stroke-width:1;fill-opacity:1;stroke-opacity:0.3" />
<rect x="184" y="77" width="36" height="5" style="fill:#f5b024;stroke:black;stroke-width:1;fill-opacity:1;stroke-opacity:0.3" />
<line x1="169" y1="86" x2="176" y2="88" stroke="black" stroke-width="1" />
<line x1="176" y1="88" x2="183" y2="86" stroke="black" stroke-width="1" />
<rect x="132" y="84" width="36" height="5" style="fill:#f5b024;stroke:black;stroke-width:1;fill-opacity:1;stroke-opacity:0.3" />
<rect x="183" y="84" width="36" height="5" style="fill:#f5b024;stroke:black;stroke-width:1;fill-opacity:1;stroke-opacity:0.3" />
<line x1="169" y1="93" x2="170" y2="95" stroke="black" stroke-width="1" />
<line x1="170" y1="95" x2="172" y2="93" stroke="black" stroke-width="1" />
<rect x="132" y="91" width="36" height="5" style="fill:#f5b024;stroke:black;stroke-width:1;fill-opacity:1;stroke-opacity:0.3" />
<rect x="172" y="91" width="36" height="5" style="fill:#f5b024;stroke:black;stroke-width:1;fill-opacity:1;stroke-opacity:0.3" />
<line x1="169" y1="114" x2="178" y2="116" stroke="black" stroke-width="1" />
<line x1="178" y1="116" x2="187" y2="114" stroke="black" stroke-width="1" />
<rect x="133" y="112" width="36" height="5" style="fill:#f5b024;stroke:black;stroke-width:1;fill-opacity:1;stroke-opacity:0.3" />
<rect x="187" y="112" width="36" height="5" style="fill:#f5b024;stroke:black;stroke-width:1;fill-opacity:1;stroke-opacity:0.3" />
<line x1="170" y1="128" x2="173" y2="130" stroke="black" stroke-width="1" />
<line x1="173" y1="130" x2="176" y2="128" stroke="black" stroke-width="1" />
<rect x="133" y="126" width="36" height="5" style="fill:#f5b024;stroke:black;stroke-width:1;fill-opacity:1;stroke-opacity:0.3" />
<rect x="176" y="126" width="35" height="5" style="fill:#f5b024;stroke:black;stroke-width:1;fill-opacity:1;stroke-opacity:0.3" />
<line x1="170" y1="149" x2="175" y2="151" stroke="black" stroke-width="1" />
<line x1="175" y1="151" x2="180" y2="149" stroke="black" stroke-width="1" />
<rect x="133" y="147" width="36" height="5" style="fill:#f5b024;stroke:black;stroke-width:1;fill-opacity:1;stroke-opacity:0.3" />
<rect x="180" y="147" width="36" height="5" style="fill:#f5b024;stroke:black;stroke-width:1;fill-opacity:1;stroke-opacity:0.3" />
<line x1="170" y1="51" x2="173" y2="53" stroke="black" stroke-width="1" />
<line x1="173" y1="53" x2="177" y2="51" stroke="black" stroke-width="1" />
<rect x="133" y="49" width="36" height="5" style="fill:#f5b024;stroke:black;stroke-width:1;fill-opacity:1;stroke-opacity:0.3" />
<rect x="177" y="49" width="36" height="5" style="fill:#f5b024;stroke:black;stroke-width:1;fill-opacity:1;stroke-opacity:0.3" />
<line x1="171" y1="100" x2="185" y2="102" stroke="black" stroke-width="1" />
<line x1="185" y1="102" x2="199" y2="100" stroke="black" stroke-width="1" />
<rect x="134" y="98" width="36" height="5" style="fill:#f5b024;stroke:black;stroke-width:1;fill-opacity:1;stroke-opacity:0.3" />
<rect x="199" y="98" width="31" height="5" style="fill:#f5b024;stroke:black;stroke-width:1;fill-opacity:1;stroke-opacity:0.3" />
<line x1="230" y1="100" x2="335" y2="100" stroke="pink" stroke-width="1" />
<rect x="335" y="98" width="5" height="5" style="fill:#f5b024;stroke:black;stroke-width:1;fill-opacity:1;stroke-opacity:0.3" />
<line x1="171" y1="121" x2="181" y2="123" stroke="black" stroke-width="1" />
<line x1="181" y1="123" x2="191" y2="121" stroke="black" stroke-width="1" />
<rect x="134" y="119" width="36" height="5" style="fill:#f5b024;stroke:black;stroke-width:1;fill-opacity:1;stroke-opacity:0.3" />
<rect x="191" y="119" width="36" height="5" style="fill:#f5b024;stroke:black;stroke-width:1;fill-opacity:1;stroke-opacity:0.3" />
<line x1="171" y1="156" x2="175" y2="158" stroke="black" stroke-width="1" />
<line x1="175" y1="158" x2="179" y2="156" stroke="black" stroke-width="1" />
<rect x="134" y="154" width="36" height="5" style="fill:#f5b024;stroke:black;stroke-width:1;fill-opacity:1;stroke-opacity:0.3" />
<rect x="179" y="154" width="36" height="5" style="fill:#f5b024;stroke:black;stroke-width:1;fill-opacity:1;stroke-opacity:0.3" />
<line x1="182" y1="65" x2="188" y2="67" stroke="black" stroke-width="1" />
<line x1="188" y1="67" x2="195" y2="65" stroke="black" stroke-width="1" />
<rect x="145" y="63" width="36" height="5" style="fill:#f5b024;stroke:black;stroke-width:1;fill-opacity:1;stroke-opacity:0.3" />
<rect x="195" y="63" width="35" height="5" style="fill:#f5b024;stroke:black;stroke-width:1;fill-opacity:1;stroke-opacity:0.3" />
<line x1="230" y1="65" x2="335" y2="65" stroke="pink" stroke-width="1" />
<rect x="335" y="63" width="1" height="5" style="fill:#f5b024;stroke:black;stroke-width:1;fill-opacity:1;stroke-opacity:0.3" />
<line x1="182" y1="107" x2="191" y2="109" stroke="black" stroke-width="1" />
<line x1="191" y1="109" x2="201" y2="107" stroke="black" stroke-width="1" />
<rect x="145" y="105" width="36" height="5" style="fill:#f5b024;stroke:black;stroke-width:1;fill-opacity:1;stroke-opacity:0.3" />
<rect x="201" y="105" width="28" height="5" style="fill:#f5b024;stroke:black;stroke-width:1;fill-opacity:1;stroke-opacity:0.3" />
<line x1="230" y1="107" x2="335" y2="107" stroke="pink" stroke-width="1" />
<rect x="335" y="105" width="8" height="5" style="fill:#f5b024;stroke:black;stroke-width:1;fill-opacity:1;stroke-opacity:0.3" />
<line x1="185" y1="142" x2="199" y2="144" stroke="black" stroke-width="1" />
<line x1="199" y1="144" x2="214" y2="142" stroke="black" stroke-width="1" />
<rect x="148" y="140" width="36" height="5" style="fill:#5d3c2d;stroke:black;stroke-width:1;fill-opacity:1;stroke-opacity:0.3" />
<rect x="214" y="140" width="16" height="5" style="fill:#5d3c2d;stroke:black;stroke-width:1;fill-opacity:1;stroke-opacity:0.3" />
<line x1="230" y1="142" x2="335" y2="142" stroke="pink" stroke-width="1" />
<rect x="335" y="140" width="20" height="5" style="fill:#5d3c2d;stroke:black;stroke-width:1;fill-opacity:1;stroke-opacity:0.3" />
<line x1="192" y1="72" x2="203" y2="74" stroke="black" stroke-width="1" />
<line x1="203" y1="74" x2="215" y2="72" stroke="black" stroke-width="1" />
<rect x="155" y="70" width="36" height="5" style="fill:#f5b024;stroke:black;stroke-width:1;fill-opacity:1;stroke-opacity:0.3" />
<rect x="215" y="70" width="14" height="5" style="fill:#f5b024;stroke:black;stroke-width:1;fill-opacity:1;stroke-opacity:0.3" />
<line x1="230" y1="72" x2="335" y2="72" stroke="pink" stroke-width="1" />
<rect x="335" y="70" width="22" height="5" style="fill:#f5b024;stroke:black;stroke-width:1;fill-opacity:1;stroke-opacity:0.3" />
<line x1="193" y1="135" x2="196" y2="137" stroke="black" stroke-width="1" />
<line x1="196" y1="137" x2="199" y2="135" stroke="black" stroke-width="1" />
<rect x="156" y="133" width="36" height="5" style="fill:#5d3c2d;stroke:black;stroke-width:1;fill-opacity:1;stroke-opacity:0.3" />
<rect x="199" y="133" width="31" height="5" style="fill:#5d3c2d;stroke:black;stroke-width:1;fill-opacity:1;stroke-opacity:0.3" />
<line x1="230" y1="135" x2="335" y2="135" stroke="pink" stroke-width="1" />
<rect x="335" y="133" width="5" height="5" style="fill:#5d3c2d;stroke:black;stroke-width:1;fill-opacity:1;stroke-opacity:0.3" />
<line x1="203" y1="30" x2="209" y2="32" stroke="black" stroke-width="1" />
<line x1="209" y1="32" x2="216" y2="30" stroke="black" stroke-width="1" />
<rect x="166" y="28" width="36" height="5" style="fill:#f5b024;stroke:black;stroke-width:1;fill-opacity:1;stroke-opacity:0.3" />
<rect x="216" y="28" width="14" height="5" style="fill:#f5b024;stroke:black;stroke-width:1;fill-opacity:1;stroke-opacity:0.3" />
<line x1="230" y1="30" x2="335" y2="30" stroke="pink" stroke-width="1" />
<rect x="335" y="28" width="22" height="5" style="fill:#f5b024;stroke:black;stroke-width:1;fill-opacity:1;stroke-opacity:0.3" />
<line x1="203" y1="163" x2="209" y2="165" stroke="black" stroke-width="1" />
<line x1="209" y1="165" x2="216" y2="163" stroke="black" stroke-width="1" />
<rect x="166" y="161" width="36" height="5" style="fill:#f5b024;stroke:black;stroke-width:1;fill-opacity:1;stroke-opacity:0.3" />
<rect x="216" y="161" width="14" height="5" style="fill:#f5b024;stroke:black;stroke-width:1;fill-opacity:1;stroke-opacity:0.3" />
<line x1="230" y1="163" x2="335" y2="163" stroke="pink" stroke-width="1" />
<rect x="335" y="161" width="22" height="5" style="fill:#f5b024;stroke:black;stroke-width:1;fill-opacity:1;stroke-opacity:0.3" />
<line x1="230" y1="37" x2="287" y2="39" stroke="black" stroke-width="1" />
<line x1="287" y1="39" x2="345" y2="37" stroke="black" stroke-width="1" />
<rect x="194" y="35" width="36" height="5" style="fill:#f5b024;stroke:black;stroke-width:1;fill-opacity:1;stroke-opacity:0.3" />
<rect x="345" y="35" width="36" height="5" style="fill:#f5b024;stroke:black;stroke-width:1;fill-opacity:1;stroke-opacity:0.3" />
<line x1="351" y1="58" x2="370" y2="60" stroke="black" stroke-width="1" />
<line x1="370" y1="60" x2="390" y2="58" stroke="black" stroke-width="1" />
<rect x="209" y="56" width="21" height="5" style="fill:#5d3c2d;stroke:black;stroke-width:1;fill-opacity:1;stroke-opacity:0.3" />
<line x1="230" y1="58" x2="335" y2="58" stroke="pink" stroke-width="1" />
<rect x="335" y="56" width="15" height="5" style="fill:#5d3c2d;stroke:black;stroke-width:1;fill-opacity:1;stroke-opacity:0.3" />
<rect x="390" y="56" width="36" height="5" style="fill:#5d3c2d;stroke:black;stroke-width:1;fill-opacity:1;stroke-opacity:0.3" />
<line x1="360" y1="44" x2="407" y2="46" stroke="black" stroke-width="1" />
<line x1="407" y1="46" x2="454" y2="44" stroke="black" stroke-width="1" />
<rect x="218" y="42" width="11" height="5" style="fill:#f5b024;stroke:black;stroke-width:1;fill-opacity:1;stroke-opacity:0.3" />
<line x1="230" y1="44" x2="335" y2="44" stroke="pink" stroke-width="1" />
<rect x="335" y="42" width="25" height="5" style="fill:#f5b024;stroke:black;stroke-width:1;fill-opacity:1;stroke-opacity:0.3" />
<rect x="454" y="42" width="11" height="5" style="fill:#f5b024;stroke:black;stroke-width:1;fill-opacity:1;stroke-opacity:0.3" />
<line x1="466" y1="44" x2="591" y2="44" stroke="pink" stroke-width="1" />
<rect x="591" y="42" width="20" height="5" style="fill:#f5b024;stroke:black;stroke-width:1;fill-opacity:1;stroke-opacity:0.3" />
<line x1="446" y1="51" x2="450" y2="53" stroke="black" stroke-width="1" />
<line x1="450" y1="53" x2="454" y2="51" stroke="black" stroke-width="1" />
<rect x="338" y="49" width="23" height="5" style="fill:#f5b024;stroke:black;stroke-width:1;fill-opacity:1;stroke-opacity:0.3" />
<line x1="361" y1="51" x2="433" y2="51" stroke="pink" stroke-width="1" />
<rect x="433" y="49" width="13" height="5" style="fill:#f5b024;stroke:black;stroke-width:1;fill-opacity:1;stroke-opacity:0.3" />
<rect x="454" y="49" width="11" height="5" style="fill:#f5b024;stroke:black;stroke-width:1;fill-opacity:1;stroke-opacity:0.3" />
<line x1="466" y1="51" x2="591" y2="51" stroke="pink" stroke-width="1" />
<rect x="591" y="49" width="19" height="5" style="fill:#f5b024;stroke:black;stroke-width:1;fill-opacity:1;stroke-opacity:0.3" />
<line x1="611" y1="51" x2="725" y2="51" stroke="pink" stroke-width="1" />
<rect x="725" y="49" width="3" height="5" style="fill:#f5b024;stroke:black;stroke-width:1;fill-opacity:1;stroke-opacity:0.3" />
<line x1="447" y1="65" x2="454" y2="67" stroke="black" stroke-width="1" />
<line x1="454" y1="67" x2="461" y2="65" stroke="black" stroke-width="1" />
<rect x="338" y="63" width="23" height="5" style="fill:#f5b024;stroke:black;stroke-width:1;fill-opacity:1;stroke-opacity:0.3" />
<line x1="361" y1="65" x2="433" y2="65" stroke="pink" stroke-width="1" />
<rect x="433" y="63" width="13" height="5" style="fill:#f5b024;stroke:black;stroke-width:1;fill-opacity:1;stroke-opacity:0.3" />
<rect x="461" y="63" width="4" height="5" style="fill:#f5b024;stroke:black;stroke-width:1;fill-opacity:1;stroke-opacity:0.3" />
<line x1="466" y1="65" x2="591" y2="65" stroke="pink" stroke-width="1" />
<rect x="591" y="63" width="19" height="5" style="fill:#f5b024;stroke:black;stroke-width:1;fill-opacity:1;stroke-opacity:0.3" />
<line x1="611" y1="65" x2="725" y2="65" stroke="pink" stroke-width="1" />
<rect x="725" y="63" width="12" height="5" style="fill:#f5b024;stroke:black;stroke-width:1;fill-opacity:1;stroke-opacity:0.3" />
<line x1="448" y1="79" x2="451" y2="81" stroke="black" stroke-width="1" />
<line x1="451" y1="81" x2="454" y2="79" stroke="black" stroke-width="1" />
<rect x="339" y="77" width="21" height="5" style="fill:#f5b024;stroke:black;stroke-width:1;fill-opacity:1;stroke-opacity:0.3" />
<line x1="361" y1="79" x2="433" y2="79" stroke="pink" stroke-width="1" />
<rect x="433" y="77" width="15" height="5" style="fill:#f5b024;stroke:black;stroke-width:1;fill-opacity:1;stroke-opacity:0.3" />
<rect x="454" y="77" width="11" height="5" style="fill:#f5b024;stroke:black;stroke-width:1;fill-opacity:1;stroke-opacity:0.3" />
<line x1="466" y1="79" x2="591" y2="79" stroke="pink" stroke-width="1" />
<rect x="591" y="77" width="19" height="5" style="fill:#f5b024;stroke:black;stroke-width:1;fill-opacity:1;stroke-opacity:0.3" />
<line x1="611" y1="79" x2="725" y2="79" stroke="pink" stroke-width="1" />
<rect x="725" y="77" width="1" height="5" style="fill:#f5b024;stroke:black;stroke-width:1;fill-opacity:1;stroke-opacity:0.3" />
<line x1="448" y1="86" x2="451" y2="88" stroke="black" stroke-width="1" />
<line x1="451" y1="88" x2="454" y2="86" stroke="black" stroke-width="1" />
<rect x="339" y="84" width="21" height="5" style="fill:#f5b024;stroke:black;stroke-width:1;fill-opacity:1;stroke-opacity:0.3" />
<line x1="361" y1="86" x2="433" y2="86" stroke="pink" stroke-width="1" />
<rect x="433" y="84" width="15" height="5" style="fill:#f5b024;stroke:black;stroke-width:1;fill-opacity:1;stroke-opacity:0.3" />
<rect x="454" y="84" width="11" height="5" style="fill:#f5b024;stroke:black;stroke-width:1;fill-opacity:1;stroke-opacity:0.3" />
<line x1="466" y1="86" x2="591" y2="86" stroke="pink" stroke-width="1" />
<rect x="591" y="84" width="19" height="5" style="fill:#f5b024;stroke:black;stroke-width:1;fill-opacity:1;stroke-opacity:0.3" />
<line x1="611" y1="86" x2="725" y2="86" stroke="pink" stroke-width="1" />
<rect x="725" y="84" width="0" height="5" style="fill:#f5b024;stroke:black;stroke-width:1;fill-opacity:1;stroke-opacity:0.3" />
<line x1="450" y1="93" x2="452" y2="95" stroke="black" stroke-width="1" />
<line x1="452" y1="95" x2="454" y2="93" stroke="black" stroke-width="1" />
<rect x="341" y="91" width="19" height="5" style="fill:#f5b024;stroke:black;stroke-width:1;fill-opacity:1;stroke-opacity:0.3" />
<line x1="361" y1="93" x2="433" y2="93" stroke="pink" stroke-width="1" />
<rect x="433" y="91" width="17" height="5" style="fill:#f5b024;stroke:black;stroke-width:1;fill-opacity:1;stroke-opacity:0.3" />
<rect x="454" y="91" width="11" height="5" style="fill:#f5b024;stroke:black;stroke-width:1;fill-opacity:1;stroke-opacity:0.3" />
<line x1="466" y1="93" x2="591" y2="93" stroke="pink" stroke-width="1" />
<rect x="591" y="91" width="19" height="5" style="fill:#f5b024;stroke:black;stroke-width:1;fill-opacity:1;stroke-opacity:0.3" />
<line x1="611" y1="93" x2="725" y2="93" stroke="pink" stroke-width="1" />
<rect x="725" y="91" width="3" height="5" style="fill:#f5b024;stroke:black;stroke-width:1;fill-opacity:1;stroke-opacity:0.3" />
<line x1="379" y1="100" x2="383" y2="102" stroke="black" stroke-width="1" />
<line x1="383" y1="102" x2="388" y2="100" stroke="black" stroke-width="1" />
<rect x="342" y="98" width="36" height="5" style="fill:#f5b024;stroke:black;stroke-width:1;fill-opacity:1;stroke-opacity:0.3" />
<rect x="388" y="98" width="36" height="5" style="fill:#f5b024;stroke:black;stroke-width:1;fill-opacity:1;stroke-opacity:0.3" />
<line x1="379" y1="114" x2="384" y2="116" stroke="black" stroke-width="1" />
<line x1="384" y1="116" x2="389" y2="114" stroke="black" stroke-width="1" />
<rect x="342" y="112" width="36" height="5" style="fill:#5d3c2d;stroke:black;stroke-width:1;fill-opacity:1;stroke-opacity:0.3" />
<rect x="389" y="112" width="36" height="5" style="fill:#5d3c2d;stroke:black;stroke-width:1;fill-opacity:1;stroke-opacity:0.3" />
<line x1="451" y1="121" x2="457" y2="123" stroke="black" stroke-width="1" />
<line x1="457" y1="123" x2="463" y2="121" stroke="black" stroke-width="1" />
<rect x="342" y="119" width="18" height="5" style="fill:#f5b024;stroke:black;stroke-width:1;fill-opacity:1;stroke-opacity:0.3" />
<line x1="361" y1="121" x2="433" y2="121" stroke="pink" stroke-width="1" />
<rect x="433" y="119" width="18" height="5" style="fill:#f5b024;stroke:black;stroke-width:1;fill-opacity:1;stroke-opacity:0.3" />
<rect x="463" y="119" width="36" height="5" style="fill:#f5b024;stroke:black;stroke-width:1;fill-opacity:1;stroke-opacity:0.3" />
<line x1="451" y1="128" x2="455" y2="130" stroke="black" stroke-width="1" />
<line x1="455" y1="130" x2="460" y2="128" stroke="black" stroke-width="1" />
<rect x="342" y="126" width="18" height="5" style="fill:#f5b024;stroke:black;stroke-width:1;fill-opacity:1;stroke-opacity:0.3" />
<line x1="361" y1="128" x2="433" y2="128" stroke="pink" stroke-width="1" />
<rect x="433" y="126" width="18" height="5" style="fill:#f5b024;stroke:black;stroke-width:1;fill-opacity:1;stroke-opacity:0.3" />
<rect x="460" y="126" width="5" height="5" style="fill:#f5b024;stroke:black;stroke-width:1;fill-opacity:1;stroke-opacity:0.3" />
<line x1="466" y1="128" x2="591" y2="128" stroke="pink" stroke-width="1" />
<rect x="591" y="126" width="19" height="5" style="fill:#f5b024;stroke:black;stroke-width:1;fill-opacity:1;stroke-opacity:0.3" />
<line x1="611" y1="128" x2="725" y2="128" stroke="pink" stroke-width="1" />
<rect x="725" y="126" width="11" height="5" style="fill:#f5b024;stroke:black;stroke-width:1;fill-opacity:1;stroke-opacity:0.3" />
<line x1="452" y1="135" x2="494" y2="137" stroke="black" stroke-width="1" />
<line x1="494" y1="137" x2="537" y2="135" stroke="black" stroke-width="1" />
<rect x="343" y="133" width="18" height="5" style="fill:#f5b024;stroke:black;stroke-width:1;fill-opacity:1;stroke-opacity:0.3" />
<line x1="361" y1="135" x2="433" y2="135" stroke="pink" stroke-width="1" />
<rect x="433" y="133" width="18" height="5" style="fill:#f5b024;stroke:black;stroke-width:1;fill-opacity:1;stroke-opacity:0.3" />
<rect x="537" y="133" width="0" height="5" style="fill:#f5b024;stroke:black;stroke-width:1;fill-opacity:1;stroke-opacity:0.3" />
<line x1="537" y1="135" x2="591" y2="135" stroke="pink" stroke-width="1" />
<rect x="591" y="133" width="19" height="5" style="fill:#f5b024;stroke:black;stroke-width:1;fill-opacity:1;stroke-opacity:0.3" />
<line x1="611" y1="135" x2="725" y2="135" stroke="pink" stroke-width="1" />
<rect x="725" y="133" width="14" height="5" style="fill:#f5b024;stroke:black;stroke-width:1;fill-opacity:1;stroke-opacity:0.3" />
<line x1="451" y1="149" x2="523" y2="151" stroke="black" stroke-width="1" />
<line x1="523" y1="151" x2="595" y2="149" stroke="black" stroke-width="1" />
<rect x="343" y="147" width="18" height="5" style="fill:#f5b024;stroke:black;stroke-width:1;fill-opacity:1;stroke-opacity:0.3" />
<line x1="361" y1="149" x2="433" y2="149" stroke="pink" stroke-width="1" />
<rect x="433" y="147" width="18" height="5" style="fill:#f5b024;stroke:black;stroke-width:1;fill-opacity:1;stroke-opacity:0.3" />
<rect x="595" y="147" width="16" height="5" style="fill:#f5b024;stroke:black;stroke-width:1;fill-opacity:1;stroke-opacity:0.3" />
<line x1="611" y1="149" x2="725" y2="149" stroke="pink" stroke-width="1" />
<rect x="725" y="147" width="20" height="5" style="fill:#f5b024;stroke:black;stroke-width:1;fill-opacity:1;stroke-opacity:0.3" />
<line x1="453" y1="107" x2="525" y2="109" stroke="black" stroke-width="1" />
<line x1="525" y1="109" x2="597" y2="107" stroke="black" stroke-width="1" />
<rect x="344" y="105" width="16" height="5" style="fill:#f5b024;stroke:black;stroke-width:1;fill-opacity:1;stroke-opacity:0.3" />
<line x1="361" y1="107" x2="433" y2="107" stroke="pink" stroke-width="1" />
<rect x="433" y="105" width="19" height="5" style="fill:#f5b024;stroke:black;stroke-width:1;fill-opacity:1;stroke-opacity:0.3" />
<rect x="597" y="105" width="13" height="5" style="fill:#f5b024;stroke:black;stroke-width:1;fill-opacity:1;stroke-opacity:0.3" />
<line x1="611" y1="107" x2="725" y2="107" stroke="pink" stroke-width="1" />
<rect x="725" y="105" width="23" height="5" style="fill:#f5b024;stroke:black;stroke-width:1;fill-opacity:1;stroke-opacity:0.3" />
<line x1="453" y1="156" x2="525" y2="158" stroke="black" stroke-width="1" />
<line x1="525" y1="158" x2="597" y2="156" stroke="black" stroke-width="1" />
<rect x="344" y="154" width="16" height="5" style="fill:#f5b024;stroke:black;stroke-width:1;fill-opacity:1;stroke-opacity:0.3" />
<line x1="361" y1="156" x2="433" y2="156" stroke="pink" stroke-width="1" />
<rect x="433" y="154" width="19" height="5" style="fill:#f5b024;stroke:black;stroke-width:1;fill-opacity:1;stroke-opacity:0.3" />
<rect x="597" y="154" width="13" height="5" style="fill:#f5b024;stroke:black;stroke-width:1;fill-opacity:1;stroke-opacity:0.3" />
<line x1="611" y1="156" x2="725" y2="156" stroke="pink" stroke-width="1" />
<rect x="725" y="154" width="23" height="5" style="fill:#f5b024;stroke:black;stroke-width:1;fill-opacity:1;stroke-opacity:0.3" />
<line x1="611" y1="30" x2="675" y2="32" stroke="black" stroke-width="1" />
<line x1="675" y1="32" x2="740" y2="30" stroke="black" stroke-width="1" />
<rect x="454" y="28" width="11" height="5" style="fill:#f5b024;stroke:black;stroke-width:1;fill-opacity:1;stroke-opacity:0.3" />
<line x1="466" y1="30" x2="591" y2="30" stroke="pink" stroke-width="1" />
<rect x="591" y="28" width="19" height="5" style="fill:#f5b024;stroke:black;stroke-width:1;fill-opacity:1;stroke-opacity:0.3" />
<rect x="740" y="28" width="21" height="5" style="fill:#f5b024;stroke:black;stroke-width:1;fill-opacity:1;stroke-opacity:0.3" />
<line x1="761" y1="30" x2="874" y2="30" stroke="pink" stroke-width="1" />
<rect x="874" y="28" width="11" height="5" style="fill:#f5b024;stroke:black;stroke-width:1;fill-opacity:1;stroke-opacity:0.3" />
<line x1="610" y1="37" x2="674" y2="39" stroke="black" stroke-width="1" />
<line x1="674" y1="39" x2="738" y2="37" stroke="black" stroke-width="1" />
<rect x="454" y="35" width="11" height="5" style="fill:#f5b024;stroke:black;stroke-width:1;fill-opacity:1;stroke-opacity:0.3" />
<line x1="466" y1="37" x2="591" y2="37" stroke="pink" stroke-width="1" />
<rect x="591" y="35" width="19" height="5" style="fill:#f5b024;stroke:black;stroke-width:1;fill-opacity:1;stroke-opacity:0.3" />
<rect x="738" y="35" width="22" height="5" style="fill:#f5b024;stroke:black;stroke-width:1;fill-opacity:1;stroke-opacity:0.3" />
<line x1="761" y1="37" x2="874" y2="37" stroke="pink" stroke-width="1" />
<rect x="874" y="35" width="14" height="5" style="fill:#f5b024;stroke:black;stroke-width:1;fill-opacity:1;stroke-opacity:0.3" />
<line x1="610" y1="58" x2="672" y2="60" stroke="black" stroke-width="1" />
<line x1="672" y1="60" x2="735" y2="58" stroke="black" stroke-width="1" />
<rect x="454" y="56" width="11" height="5" style="fill:#f5b024;stroke:black;stroke-width:1;fill-opacity:1;stroke-opacity:0.3" />
<line x1="466" y1="58" x2="591" y2="58" stroke="pink" stroke-width="1" />
<rect x="591" y="56" width="18" height="5" style="fill:#f5b024;stroke:black;stroke-width:1;fill-opacity:1;stroke-opacity:0.3" />
<rect x="735" y="56" width="25" height="5" style="fill:#f5b024;stroke:black;stroke-width:1;fill-opacity:1;stroke-opacity:0.3" />
<line x1="761" y1="58" x2="874" y2="58" stroke="pink" stroke-width="1" />
<rect x="874" y="56" width="11" height="5" style="fill:#f5b024;stroke:black;stroke-width:1;fill-opacity:1;stroke-opacity:0.3" />
<line x1="611" y1="72" x2="667" y2="74" stroke="black" stroke-width="1" />
<line x1="667" y1="74" x2="724" y2="72" stroke="black" stroke-width="1" />
<rect x="454" y="70" width="11" height="5" style="fill:#f5b024;stroke:black;stroke-width:1;fill-opacity:1;stroke-opacity:0.3" />
<line x1="466" y1="72" x2="591" y2="72" stroke="pink" stroke-width="1" />
<rect x="591" y="70" width="19" height="5" style="fill:#f5b024;stroke:black;stroke-width:1;fill-opacity:1;stroke-opacity:0.3" />
<rect x="724" y="70" width="35" height="5" style="fill:#f5b024;stroke:black;stroke-width:1;fill-opacity:1;stroke-opacity:0.3" />
<line x1="610" y1="100" x2="668" y2="102" stroke="black" stroke-width="1" />
<line x1="668" y1="102" x2="727" y2="100" stroke="black" stroke-width="1" />
<rect x="454" y="98" width="11" height="5" style="fill:#f5b024;stroke:black;stroke-width:1;fill-opacity:1;stroke-opacity:0.3" />
<line x1="466" y1="100" x2="591" y2="100" stroke="pink" stroke-width="1" />
<rect x="591" y="98" width="18" height="5" style="fill:#f5b024;stroke:black;stroke-width:1;fill-opacity:1;stroke-opacity:0.3" />
<rect x="727" y="98" width="33" height="5" style="fill:#f5b024;stroke:black;stroke-width:1;fill-opacity:1;stroke-opacity:0.3" />
<line x1="761" y1="100" x2="874" y2="100" stroke="pink" stroke-width="1" />
<rect x="874" y="98" width="2" height="5" style="fill:#f5b024;stroke:black;stroke-width:1;fill-opacity:1;stroke-opacity:0.3" />
<line x1="611" y1="114" x2="677" y2="116" stroke="black" stroke-width="1" />
<line x1="677" y1="116" x2="743" y2="114" stroke="black" stroke-width="1" />
<rect x="454" y="112" width="11" height="5" style="fill:#f5b024;stroke:black;stroke-width:1;fill-opacity:1;stroke-opacity:0.3" />
<line x1="466" y1="114" x2="591" y2="114" stroke="pink" stroke-width="1" />
<rect x="591" y="112" width="20" height="5" style="fill:#f5b024;stroke:black;stroke-width:1;fill-opacity:1;stroke-opacity:0.3" />
<rect x="743" y="112" width="17" height="5" style="fill:#f5b024;stroke:black;stroke-width:1;fill-opacity:1;stroke-opacity:0.3" />
<line x1="761" y1="114" x2="874" y2="114" stroke="pink" stroke-width="1" />
<rect x="874" y="112" width="19" height="5" style="fill:#f5b024;stroke:black;stroke-width:1;fill-opacity:1;stroke-opacity:0.3" />
<line x1="610" y1="142" x2="678" y2="144" stroke="black" stroke-width="1" />
<line x1="678" y1="144" x2="746" y2="142" stroke="black" stroke-width="1" />
<rect x="454" y="140" width="11" height="5" style="fill:#f5b024;stroke:black;stroke-width:1;fill-opacity:1;stroke-opacity:0.3" />
<line x1="466" y1="142" x2="591" y2="142" stroke="pink" stroke-width="1" />
<rect x="591" y="140" width="18" height="5" style="fill:#f5b024;stroke:black;stroke-width:1;fill-opacity:1;stroke-opacity:0.3" />
<rect x="746" y="140" width="15" height="5" style="fill:#f5b024;stroke:black;stroke-width:1;fill-opacity:1;stroke-opacity:0.3" />
<line x1="761" y1="142" x2="874" y2="142" stroke="pink" stroke-width="1" />
<rect x="874" y="140" width="21" height="5" style="fill:#f5b024;stroke:black;stroke-width:1;fill-opacity:1;stroke-opacity:0.3" />
<line x1="610" y1="163" x2="667" y2="165" stroke="black" stroke-width="1" />
<line x1="667" y1="165" x2="725" y2="163" stroke="black" stroke-width="1" />
<rect x="454" y="161" width="11" height="5" style="fill:#5d3c2d;stroke:black;stroke-width:1;fill-opacity:1;stroke-opacity:0.3" />
<line x1="466" y1="163" x2="591" y2="163" stroke="pink" stroke-width="1" />
<rect x="591" y="161" width="19" height="5" style="fill:#5d3c2d;stroke:black;stroke-width:1;fill-opacity:1;stroke-opacity:0.3" />
<rect x="725" y="161" width="33" height="5" style="fill:#5d3c2d;stroke:black;stroke-width:1;fill-opacity:1;stroke-opacity:0.3" />
<line x1="629" y1="121" x2="638" y2="123" stroke="black" stroke-width="1" />
<line x1="638" y1="123" x2="647" y2="121" stroke="black" stroke-width="1" />
<rect x="592" y="119" width="36" height="5" style="fill:#f5b024;stroke:black;stroke-width:1;fill-opacity:1;stroke-opacity:0.3" />
<rect x="647" y="119" width="36" height="5" style="fill:#f5b024;stroke:black;stroke-width:1;fill-opacity:1;stroke-opacity:0.3" />
<line x1="679" y1="44" x2="683" y2="46" stroke="black" stroke-width="1" />
<line x1="683" y1="46" x2="688" y2="44" stroke="black" stroke-width="1" />
<rect x="644" y="42" width="35" height="5" style="fill:#f5b024;stroke:black;stroke-width:1;fill-opacity:1;stroke-opacity:0.3" />
<rect x="688" y="42" width="36" height="5" style="fill:#f5b024;stroke:black;stroke-width:1;fill-opacity:1;stroke-opacity:0.3" />
<line x1="722" y1="121" x2="725" y2="123" stroke="black" stroke-width="1" />
<line x1="725" y1="123" x2="728" y2="121" stroke="black" stroke-width="1" />
<rect x="685" y="119" width="36" height="5" style="fill:#f5b024;stroke:black;stroke-width:1;fill-opacity:1;stroke-opacity:0.3" />
<rect x="728" y="119" width="36" height="5" style="fill:#f5b024;stroke:black;stroke-width:1;fill-opacity:1;stroke-opacity:0.3" />
<line x1="886" y1="44" x2="888" y2="46" stroke="black" stroke-width="1" />
<line x1="888" y1="46" x2="891" y2="44" stroke="black" stroke-width="1" />
<rect x="737" y="42" width="23" height="5" style="fill:#f5b024;stroke:black;stroke-width:1;fill-opacity:1;stroke-opacity:0.3" />
<line x1="761" y1="44" x2="874" y2="44" stroke="pink" stroke-width="1" />
<rect x="874" y="42" width="11" height="5" style="fill:#f5b024;stroke:black;stroke-width:1;fill-opacity:1;stroke-opacity:0.3" />
<rect x="891" y="42" width="34" height="5" style="fill:#f5b024;stroke:black;stroke-width:1;fill-opacity:1;stroke-opacity:0.3" />
<line x1="886" y1="51" x2="888" y2="53" stroke="black" stroke-width="1" />
<line x1="888" y1="53" x2="890" y2="51" stroke="black" stroke-width="1" />
<rect x="737" y="49" width="23" height="5" style="fill:#f5b024;stroke:black;stroke-width:1;fill-opacity:1;stroke-opacity:0.3" />
<line x1="761" y1="51" x2="874" y2="51" stroke="pink" stroke-width="1" />
<rect x="874" y="49" width="11" height="5" style="fill:#f5b024;stroke:black;stroke-width:1;fill-opacity:1;stroke-opacity:0.3" />
<rect x="890" y="49" width="35" height="5" style="fill:#f5b024;stroke:black;stroke-width:1;fill-opacity:1;stroke-opacity:0.3" />
<line x1="886" y1="79" x2="888" y2="81" stroke="black" stroke-width="1" />
<line x1="888" y1="81" x2="891" y2="79" stroke="black" stroke-width="1" />
<rect x="737" y="77" width="23" height="5" style="fill:#f5b024;stroke:black;stroke-width:1;fill-opacity:1;stroke-opacity:0.3" />
<line x1="761" y1="79" x2="874" y2="79" stroke="pink" stroke-width="1" />
<rect x="874" y="77" width="11" height="5" style="fill:#f5b024;stroke:black;stroke-width:1;fill-opacity:1;stroke-opacity:0.3" />
<rect x="891" y="77" width="34" height="5" style="fill:#f5b024;stroke:black;stroke-width:1;fill-opacity:1;stroke-opacity:0.3" />
<line x1="821" y1="65" x2="826" y2="67" stroke="black" stroke-width="1" />
<line x1="826" y1="67" x2="831" y2="65" stroke="black" stroke-width="1" />
<rect x="785" y="63" width="36" height="5" style="fill:#f5b024;stroke:black;stroke-width:1;fill-opacity:1;stroke-opacity:0.3" />
<rect x="831" y="63" width="6" height="5" style="fill:#f5b024;stroke:black;stroke-width:1;fill-opacity:1;stroke-opacity:0.3" />
<rect x="837" y="63" width="30" height="5" style="fill:#f5b024;stroke:black;stroke-width:1;fill-opacity:1;stroke-opacity:0.3" />
<text x="15"  y="176" style="font-family:Arial;font-size:10;stroke:black;fill:black;">all.merged.bam</text>
</svg>
    
