<?xml version="1.0" encoding="utf-8" standalone="no"?>
<!DOCTYPE svg PUBLIC "-//W3C//DTD SVG 1.1//EN"
  "http://www.w3.org/Graphics/SVG/1.1/DTD/svg11.dtd">
<svg height="1140" width="1000" version="1.1" viewBox="0 0 1000 1140" xmlns="http://www.w3.org/2000/svg" xmlns:xlink="http://www.w3.org/1999/xlink">
<line x1="117" y1="11" x2="880" y2="11" stroke="black" stroke-width="1" />
<rect x="117" y="9" width="62" height="5" style="fill:#f50002;stroke:black;stroke-width:1;fill-opacity:1;stroke-opacity:0.3" />
<rect x="181" y="9" width="366" height="5" style="fill:#53a1b5;stroke:black;stroke-width:1;fill-opacity:1;stroke-opacity:0.3" />
<rect x="549" y="9" width="331" height="5" style="fill:#f50002;stroke:black;stroke-width:1;fill-opacity:1;stroke-opacity:0.3" />
<text x="117"  y="23" style="font-family:Arial;font-size:10;stroke:black;fill:black;">Cre12.g504600.t1.2.v5.5 (+) chromosome_12:2630103-2630750</text>
<line x1="273" y1="30" x2="280" y2="32" stroke="black" stroke-width="1" />
<line x1="280" y1="32" x2="288" y2="30" stroke="black" stroke-width="1" />
<rect x="155" y="28" width="117" height="5" style="fill:#5d3c2d;stroke:black;stroke-width:1;fill-opacity:1;stroke-opacity:0.3" />
<rect x="288" y="28" width="117" height="5" style="fill:#5d3c2d;stroke:black;stroke-width:1;fill-opacity:1;stroke-opacity:0.3" />
<line x1="422" y1="37" x2="443" y2="39" stroke="black" stroke-width="1" />
<line x1="443" y1="39" x2="464" y2="37" stroke="black" stroke-width="1" />
<rect x="304" y="35" width="117" height="5" style="fill:#5d3c2d;stroke:black;stroke-width:1;fill-opacity:1;stroke-opacity:0.3" />
<rect x="464" y="35" width="117" height="5" style="fill:#5d3c2d;stroke:black;stroke-width:1;fill-opacity:1;stroke-opacity:0.3" />
<line x1="490" y1="44" x2="531" y2="46" stroke="black" stroke-width="1" />
<line x1="531" y1="46" x2="573" y2="44" stroke="black" stroke-width="1" />
<rect x="372" y="42" width="117" height="5" style="fill:#f5b024;stroke:black;stroke-width:1;fill-opacity:1;stroke-opacity:0.3" />
<rect x="573" y="42" width="102" height="5" style="fill:#f5b024;stroke:black;stroke-width:1;fill-opacity:1;stroke-opacity:0.3" />
<line x1="502" y1="51" x2="519" y2="53" stroke="black" stroke-width="1" />
<line x1="519" y1="53" x2="537" y2="51" stroke="black" stroke-width="1" />
<rect x="384" y="49" width="117" height="5" style="fill:#f5b024;stroke:black;stroke-width:1;fill-opacity:1;stroke-opacity:0.3" />
<rect x="537" y="49" width="116" height="5" style="fill:#f5b024;stroke:black;stroke-width:1;fill-opacity:1;stroke-opacity:0.3" />
<line x1="564" y1="30" x2="606" y2="32" stroke="black" stroke-width="1" />
<line x1="606" y1="32" x2="648" y2="30" stroke="black" stroke-width="1" />
<rect x="446" y="28" width="117" height="5" style="fill:#f5b024;stroke:black;stroke-width:1;fill-opacity:1;stroke-opacity:0.3" />
<rect x="648" y="28" width="117" height="5" style="fill:#f5b024;stroke:black;stroke-width:1;fill-opacity:1;stroke-opacity:0.3" />
<line x1="649" y1="58" x2="665" y2="60" stroke="black" stroke-width="1" />
<line x1="665" y1="60" x2="681" y2="58" stroke="black" stroke-width="1" />
<rect x="531" y="56" width="117" height="5" style="fill:#f5b024;stroke:black;stroke-width:1;fill-opacity:1;stroke-opacity:0.3" />
<rect x="681" y="56" width="117" height="5" style="fill:#f5b024;stroke:black;stroke-width:1;fill-opacity:1;stroke-opacity:0.3" />
<text x="15"  y="176" style="font-family:Arial;font-size:10;stroke:black;fill:black;">all.merged.bam</text>
</svg>
    
