<?xml version="1.0" encoding="utf-8" standalone="no"?>
<!DOCTYPE svg PUBLIC "-//W3C//DTD SVG 1.1//EN"
  "http://www.w3.org/Graphics/SVG/1.1/DTD/svg11.dtd">
<svg height="1140" width="1000" version="1.1" viewBox="0 0 1000 1140" xmlns="http://www.w3.org/2000/svg" xmlns:xlink="http://www.w3.org/1999/xlink">
<line x1="25" y1="11" x2="974" y2="11" stroke="black" stroke-width="1" />
<rect x="25" y="9" width="108" height="5" style="fill:#f50002;stroke:black;stroke-width:1;fill-opacity:1;stroke-opacity:0.3" />
<rect x="133" y="9" width="51" height="5" style="fill:#53a1b5;stroke:black;stroke-width:1;fill-opacity:1;stroke-opacity:0.3" />
<rect x="262" y="9" width="31" height="5" style="fill:#53a1b5;stroke:black;stroke-width:1;fill-opacity:1;stroke-opacity:0.3" />
<rect x="346" y="9" width="557" height="5" style="fill:#53a1b5;stroke:black;stroke-width:1;fill-opacity:1;stroke-opacity:0.3" />
<rect x="905" y="9" width="69" height="5" style="fill:#f50002;stroke:black;stroke-width:1;fill-opacity:1;stroke-opacity:0.3" />
<text x="25"  y="23" style="font-family:Arial;font-size:10;stroke:black;fill:black;">Cre16.g681690.t1.1.v5.5 (-) chromosome_16:7190874-7194605</text>
<line x1="64" y1="30" x2="68" y2="32" stroke="black" stroke-width="1" />
<line x1="68" y1="32" x2="72" y2="30" stroke="black" stroke-width="1" />
<rect x="26" y="28" width="38" height="5" style="fill:#f5b024;stroke:black;stroke-width:1;fill-opacity:1;stroke-opacity:0.3" />
<rect x="72" y="28" width="38" height="5" style="fill:#f5b024;stroke:black;stroke-width:1;fill-opacity:1;stroke-opacity:0.3" />
<line x1="64" y1="37" x2="68" y2="39" stroke="black" stroke-width="1" />
<line x1="68" y1="39" x2="72" y2="37" stroke="black" stroke-width="1" />
<rect x="26" y="35" width="38" height="5" style="fill:#f5b024;stroke:black;stroke-width:1;fill-opacity:1;stroke-opacity:0.3" />
<rect x="72" y="35" width="38" height="5" style="fill:#f5b024;stroke:black;stroke-width:1;fill-opacity:1;stroke-opacity:0.3" />
<line x1="64" y1="44" x2="67" y2="46" stroke="black" stroke-width="1" />
<line x1="67" y1="46" x2="71" y2="44" stroke="black" stroke-width="1" />
<rect x="26" y="42" width="38" height="5" style="fill:#5d3c2d;stroke:black;stroke-width:1;fill-opacity:1;stroke-opacity:0.3" />
<rect x="71" y="42" width="35" height="5" style="fill:#5d3c2d;stroke:black;stroke-width:1;fill-opacity:1;stroke-opacity:0.3" />
<line x1="158" y1="30" x2="161" y2="32" stroke="black" stroke-width="1" />
<line x1="161" y1="32" x2="164" y2="30" stroke="black" stroke-width="1" />
<rect x="120" y="28" width="37" height="5" style="fill:#5d3c2d;stroke:black;stroke-width:1;fill-opacity:1;stroke-opacity:0.3" />
<rect x="164" y="28" width="21" height="5" style="fill:#5d3c2d;stroke:black;stroke-width:1;fill-opacity:1;stroke-opacity:0.3" />
<line x1="185" y1="30" x2="262" y2="30" stroke="pink" stroke-width="1" />
<rect x="262" y="28" width="17" height="5" style="fill:#5d3c2d;stroke:black;stroke-width:1;fill-opacity:1;stroke-opacity:0.3" />
<line x1="168" y1="37" x2="172" y2="39" stroke="black" stroke-width="1" />
<line x1="172" y1="39" x2="176" y2="37" stroke="black" stroke-width="1" />
<rect x="130" y="35" width="38" height="5" style="fill:#f5b024;stroke:black;stroke-width:1;fill-opacity:1;stroke-opacity:0.3" />
<rect x="176" y="35" width="9" height="5" style="fill:#f5b024;stroke:black;stroke-width:1;fill-opacity:1;stroke-opacity:0.3" />
<line x1="185" y1="37" x2="262" y2="37" stroke="pink" stroke-width="1" />
<rect x="262" y="35" width="28" height="5" style="fill:#f5b024;stroke:black;stroke-width:1;fill-opacity:1;stroke-opacity:0.3" />
<line x1="662" y1="30" x2="668" y2="32" stroke="black" stroke-width="1" />
<line x1="668" y1="32" x2="675" y2="30" stroke="black" stroke-width="1" />
<rect x="628" y="28" width="33" height="5" style="fill:#f5b024;stroke:black;stroke-width:1;fill-opacity:1;stroke-opacity:0.3" />
<rect x="675" y="28" width="38" height="5" style="fill:#f5b024;stroke:black;stroke-width:1;fill-opacity:1;stroke-opacity:0.3" />
<line x1="859" y1="30" x2="860" y2="32" stroke="black" stroke-width="1" />
<line x1="860" y1="32" x2="862" y2="30" stroke="black" stroke-width="1" />
<rect x="821" y="28" width="37" height="5" style="fill:#5d3c2d;stroke:black;stroke-width:1;fill-opacity:1;stroke-opacity:0.3" />
<rect x="862" y="28" width="38" height="5" style="fill:#5d3c2d;stroke:black;stroke-width:1;fill-opacity:1;stroke-opacity:0.3" />
<text x="15"  y="176" style="font-family:Arial;font-size:10;stroke:black;fill:black;">all.merged.bam</text>
</svg>
    
