<?xml version="1.0" encoding="utf-8" standalone="no"?>
<!DOCTYPE svg PUBLIC "-//W3C//DTD SVG 1.1//EN"
  "http://www.w3.org/Graphics/SVG/1.1/DTD/svg11.dtd">
<svg height="1140" width="1000" version="1.1" viewBox="0 0 1000 1140" xmlns="http://www.w3.org/2000/svg" xmlns:xlink="http://www.w3.org/1999/xlink">
<line x1="49" y1="11" x2="949" y2="11" stroke="black" stroke-width="1" />
<rect x="49" y="9" width="226" height="5" style="fill:#f50002;stroke:black;stroke-width:1;fill-opacity:1;stroke-opacity:0.3" />
<rect x="277" y="9" width="32" height="5" style="fill:#53a1b5;stroke:black;stroke-width:1;fill-opacity:1;stroke-opacity:0.3" />
<rect x="502" y="9" width="105" height="5" style="fill:#53a1b5;stroke:black;stroke-width:1;fill-opacity:1;stroke-opacity:0.3" />
<rect x="678" y="9" width="205" height="5" style="fill:#53a1b5;stroke:black;stroke-width:1;fill-opacity:1;stroke-opacity:0.3" />
<rect x="884" y="9" width="65" height="5" style="fill:#f50002;stroke:black;stroke-width:1;fill-opacity:1;stroke-opacity:0.3" />
<text x="49"  y="23" style="font-family:Arial;font-size:10;stroke:black;fill:black;">Cre10.g424775.t3.1.v5.5 (-) chromosome_10:979622-981422</text>
<line x1="103" y1="30" x2="105" y2="32" stroke="black" stroke-width="1" />
<line x1="105" y1="32" x2="108" y2="30" stroke="black" stroke-width="1" />
<rect x="53" y="28" width="49" height="5" style="fill:#f5b024;stroke:black;stroke-width:1;fill-opacity:1;stroke-opacity:0.3" />
<rect x="108" y="28" width="11" height="5" style="fill:#f5b024;stroke:black;stroke-width:1;fill-opacity:1;stroke-opacity:0.3" />
<rect x="119" y="28" width="38" height="5" style="fill:#f5b024;stroke:black;stroke-width:1;fill-opacity:1;stroke-opacity:0.3" />
<line x1="126" y1="37" x2="129" y2="39" stroke="black" stroke-width="1" />
<line x1="129" y1="39" x2="132" y2="37" stroke="black" stroke-width="1" />
<rect x="76" y="35" width="49" height="5" style="fill:#f5b024;stroke:black;stroke-width:1;fill-opacity:1;stroke-opacity:0.3" />
<rect x="132" y="35" width="49" height="5" style="fill:#f5b024;stroke:black;stroke-width:1;fill-opacity:1;stroke-opacity:0.3" />
<line x1="137" y1="44" x2="143" y2="46" stroke="black" stroke-width="1" />
<line x1="143" y1="46" x2="150" y2="44" stroke="black" stroke-width="1" />
<rect x="88" y="42" width="49" height="5" style="fill:#f5b024;stroke:black;stroke-width:1;fill-opacity:1;stroke-opacity:0.3" />
<rect x="150" y="42" width="49" height="5" style="fill:#f5b024;stroke:black;stroke-width:1;fill-opacity:1;stroke-opacity:0.3" />
<line x1="142" y1="51" x2="146" y2="53" stroke="black" stroke-width="1" />
<line x1="146" y1="53" x2="151" y2="51" stroke="black" stroke-width="1" />
<rect x="92" y="49" width="49" height="5" style="fill:#f5b024;stroke:black;stroke-width:1;fill-opacity:1;stroke-opacity:0.3" />
<rect x="151" y="49" width="49" height="5" style="fill:#f5b024;stroke:black;stroke-width:1;fill-opacity:1;stroke-opacity:0.3" />
<line x1="144" y1="58" x2="150" y2="60" stroke="black" stroke-width="1" />
<line x1="150" y1="60" x2="156" y2="58" stroke="black" stroke-width="1" />
<rect x="94" y="56" width="49" height="5" style="fill:#f5b024;stroke:black;stroke-width:1;fill-opacity:1;stroke-opacity:0.3" />
<rect x="156" y="56" width="49" height="5" style="fill:#f5b024;stroke:black;stroke-width:1;fill-opacity:1;stroke-opacity:0.3" />
<line x1="150" y1="65" x2="164" y2="67" stroke="black" stroke-width="1" />
<line x1="164" y1="67" x2="178" y2="65" stroke="black" stroke-width="1" />
<rect x="100" y="63" width="49" height="5" style="fill:#f5b024;stroke:black;stroke-width:1;fill-opacity:1;stroke-opacity:0.3" />
<rect x="178" y="63" width="49" height="5" style="fill:#f5b024;stroke:black;stroke-width:1;fill-opacity:1;stroke-opacity:0.3" />
<line x1="152" y1="72" x2="157" y2="74" stroke="black" stroke-width="1" />
<line x1="157" y1="74" x2="163" y2="72" stroke="black" stroke-width="1" />
<rect x="102" y="70" width="49" height="5" style="fill:#f5b024;stroke:black;stroke-width:1;fill-opacity:1;stroke-opacity:0.3" />
<rect x="163" y="70" width="49" height="5" style="fill:#f5b024;stroke:black;stroke-width:1;fill-opacity:1;stroke-opacity:0.3" />
<line x1="164" y1="79" x2="175" y2="81" stroke="black" stroke-width="1" />
<line x1="175" y1="81" x2="187" y2="79" stroke="black" stroke-width="1" />
<rect x="114" y="77" width="49" height="5" style="fill:#f5b024;stroke:black;stroke-width:1;fill-opacity:1;stroke-opacity:0.3" />
<rect x="187" y="77" width="49" height="5" style="fill:#f5b024;stroke:black;stroke-width:1;fill-opacity:1;stroke-opacity:0.3" />
<line x1="167" y1="86" x2="171" y2="88" stroke="black" stroke-width="1" />
<line x1="171" y1="88" x2="176" y2="86" stroke="black" stroke-width="1" />
<rect x="117" y="84" width="49" height="5" style="fill:#f5b024;stroke:black;stroke-width:1;fill-opacity:1;stroke-opacity:0.3" />
<rect x="176" y="84" width="49" height="5" style="fill:#f5b024;stroke:black;stroke-width:1;fill-opacity:1;stroke-opacity:0.3" />
<line x1="207" y1="93" x2="214" y2="95" stroke="black" stroke-width="1" />
<line x1="214" y1="95" x2="222" y2="93" stroke="black" stroke-width="1" />
<rect x="157" y="91" width="49" height="5" style="fill:#f5b024;stroke:black;stroke-width:1;fill-opacity:1;stroke-opacity:0.3" />
<rect x="222" y="91" width="49" height="5" style="fill:#f5b024;stroke:black;stroke-width:1;fill-opacity:1;stroke-opacity:0.3" />
<line x1="241" y1="30" x2="248" y2="32" stroke="black" stroke-width="1" />
<line x1="248" y1="32" x2="256" y2="30" stroke="black" stroke-width="1" />
<rect x="167" y="28" width="73" height="5" style="fill:#5d3c2d;stroke:black;stroke-width:1;fill-opacity:1;stroke-opacity:0.3" />
<rect x="256" y="28" width="53" height="5" style="fill:#5d3c2d;stroke:black;stroke-width:1;fill-opacity:1;stroke-opacity:0.3" />
<line x1="310" y1="30" x2="502" y2="30" stroke="pink" stroke-width="1" />
<rect x="502" y="28" width="20" height="5" style="fill:#5d3c2d;stroke:black;stroke-width:1;fill-opacity:1;stroke-opacity:0.3" />
<line x1="249" y1="100" x2="253" y2="102" stroke="black" stroke-width="1" />
<line x1="253" y1="102" x2="258" y2="100" stroke="black" stroke-width="1" />
<rect x="174" y="98" width="74" height="5" style="fill:#f5b024;stroke:black;stroke-width:1;fill-opacity:1;stroke-opacity:0.3" />
<rect x="258" y="98" width="51" height="5" style="fill:#f5b024;stroke:black;stroke-width:1;fill-opacity:1;stroke-opacity:0.3" />
<line x1="310" y1="100" x2="502" y2="100" stroke="pink" stroke-width="1" />
<rect x="502" y="98" width="23" height="5" style="fill:#f5b024;stroke:black;stroke-width:1;fill-opacity:1;stroke-opacity:0.3" />
<line x1="239" y1="37" x2="249" y2="39" stroke="black" stroke-width="1" />
<line x1="249" y1="39" x2="259" y2="37" stroke="black" stroke-width="1" />
<rect x="189" y="35" width="49" height="5" style="fill:#f5b024;stroke:black;stroke-width:1;fill-opacity:1;stroke-opacity:0.3" />
<rect x="259" y="35" width="49" height="5" style="fill:#f5b024;stroke:black;stroke-width:1;fill-opacity:1;stroke-opacity:0.3" />
<line x1="269" y1="107" x2="271" y2="109" stroke="black" stroke-width="1" />
<line x1="271" y1="109" x2="274" y2="107" stroke="black" stroke-width="1" />
<rect x="194" y="105" width="74" height="5" style="fill:#f5b024;stroke:black;stroke-width:1;fill-opacity:1;stroke-opacity:0.3" />
<rect x="274" y="105" width="35" height="5" style="fill:#f5b024;stroke:black;stroke-width:1;fill-opacity:1;stroke-opacity:0.3" />
<line x1="310" y1="107" x2="502" y2="107" stroke="pink" stroke-width="1" />
<rect x="502" y="105" width="39" height="5" style="fill:#f5b024;stroke:black;stroke-width:1;fill-opacity:1;stroke-opacity:0.3" />
<line x1="257" y1="44" x2="261" y2="46" stroke="black" stroke-width="1" />
<line x1="261" y1="46" x2="266" y2="44" stroke="black" stroke-width="1" />
<rect x="207" y="42" width="49" height="5" style="fill:#f5b024;stroke:black;stroke-width:1;fill-opacity:1;stroke-opacity:0.3" />
<rect x="266" y="42" width="43" height="5" style="fill:#f5b024;stroke:black;stroke-width:1;fill-opacity:1;stroke-opacity:0.3" />
<line x1="310" y1="44" x2="502" y2="44" stroke="pink" stroke-width="1" />
<rect x="502" y="42" width="6" height="5" style="fill:#f5b024;stroke:black;stroke-width:1;fill-opacity:1;stroke-opacity:0.3" />
<line x1="258" y1="51" x2="276" y2="53" stroke="black" stroke-width="1" />
<line x1="276" y1="53" x2="295" y2="51" stroke="black" stroke-width="1" />
<rect x="208" y="49" width="49" height="5" style="fill:#f5b024;stroke:black;stroke-width:1;fill-opacity:1;stroke-opacity:0.3" />
<rect x="295" y="49" width="14" height="5" style="fill:#f5b024;stroke:black;stroke-width:1;fill-opacity:1;stroke-opacity:0.3" />
<line x1="310" y1="51" x2="502" y2="51" stroke="pink" stroke-width="1" />
<rect x="502" y="49" width="35" height="5" style="fill:#f5b024;stroke:black;stroke-width:1;fill-opacity:1;stroke-opacity:0.3" />
<line x1="270" y1="58" x2="272" y2="60" stroke="black" stroke-width="1" />
<line x1="272" y1="60" x2="275" y2="58" stroke="black" stroke-width="1" />
<rect x="220" y="56" width="49" height="5" style="fill:#f5b024;stroke:black;stroke-width:1;fill-opacity:1;stroke-opacity:0.3" />
<rect x="275" y="56" width="34" height="5" style="fill:#f5b024;stroke:black;stroke-width:1;fill-opacity:1;stroke-opacity:0.3" />
<line x1="310" y1="58" x2="502" y2="58" stroke="pink" stroke-width="1" />
<rect x="502" y="56" width="15" height="5" style="fill:#f5b024;stroke:black;stroke-width:1;fill-opacity:1;stroke-opacity:0.3" />
<line x1="285" y1="65" x2="288" y2="67" stroke="black" stroke-width="1" />
<line x1="288" y1="67" x2="291" y2="65" stroke="black" stroke-width="1" />
<rect x="235" y="63" width="49" height="5" style="fill:#f5b024;stroke:black;stroke-width:1;fill-opacity:1;stroke-opacity:0.3" />
<rect x="291" y="63" width="18" height="5" style="fill:#f5b024;stroke:black;stroke-width:1;fill-opacity:1;stroke-opacity:0.3" />
<line x1="310" y1="65" x2="502" y2="65" stroke="pink" stroke-width="1" />
<rect x="502" y="63" width="30" height="5" style="fill:#f5b024;stroke:black;stroke-width:1;fill-opacity:1;stroke-opacity:0.3" />
<line x1="289" y1="72" x2="293" y2="74" stroke="black" stroke-width="1" />
<line x1="293" y1="74" x2="298" y2="72" stroke="black" stroke-width="1" />
<rect x="240" y="70" width="49" height="5" style="fill:#f5b024;stroke:black;stroke-width:1;fill-opacity:1;stroke-opacity:0.3" />
<rect x="298" y="70" width="11" height="5" style="fill:#f5b024;stroke:black;stroke-width:1;fill-opacity:1;stroke-opacity:0.3" />
<line x1="310" y1="72" x2="502" y2="72" stroke="pink" stroke-width="1" />
<rect x="502" y="70" width="36" height="5" style="fill:#f5b024;stroke:black;stroke-width:1;fill-opacity:1;stroke-opacity:0.3" />
<line x1="289" y1="79" x2="293" y2="81" stroke="black" stroke-width="1" />
<line x1="293" y1="81" x2="298" y2="79" stroke="black" stroke-width="1" />
<rect x="240" y="77" width="49" height="5" style="fill:#f5b024;stroke:black;stroke-width:1;fill-opacity:1;stroke-opacity:0.3" />
<rect x="298" y="77" width="11" height="5" style="fill:#f5b024;stroke:black;stroke-width:1;fill-opacity:1;stroke-opacity:0.3" />
<line x1="310" y1="79" x2="502" y2="79" stroke="pink" stroke-width="1" />
<rect x="502" y="77" width="37" height="5" style="fill:#f5b024;stroke:black;stroke-width:1;fill-opacity:1;stroke-opacity:0.3" />
<line x1="298" y1="86" x2="401" y2="88" stroke="black" stroke-width="1" />
<line x1="401" y1="88" x2="504" y2="86" stroke="black" stroke-width="1" />
<rect x="248" y="84" width="49" height="5" style="fill:#f5b024;stroke:black;stroke-width:1;fill-opacity:1;stroke-opacity:0.3" />
<rect x="504" y="84" width="49" height="5" style="fill:#f5b024;stroke:black;stroke-width:1;fill-opacity:1;stroke-opacity:0.3" />
<line x1="301" y1="114" x2="414" y2="116" stroke="black" stroke-width="1" />
<line x1="414" y1="116" x2="528" y2="114" stroke="black" stroke-width="1" />
<rect x="251" y="112" width="49" height="5" style="fill:#f5b024;stroke:black;stroke-width:1;fill-opacity:1;stroke-opacity:0.3" />
<rect x="528" y="112" width="49" height="5" style="fill:#f5b024;stroke:black;stroke-width:1;fill-opacity:1;stroke-opacity:0.3" />
<line x1="518" y1="93" x2="542" y2="95" stroke="black" stroke-width="1" />
<line x1="542" y1="95" x2="567" y2="93" stroke="black" stroke-width="1" />
<rect x="276" y="91" width="33" height="5" style="fill:#f5b024;stroke:black;stroke-width:1;fill-opacity:1;stroke-opacity:0.3" />
<line x1="310" y1="93" x2="502" y2="93" stroke="pink" stroke-width="1" />
<rect x="502" y="91" width="16" height="5" style="fill:#f5b024;stroke:black;stroke-width:1;fill-opacity:1;stroke-opacity:0.3" />
<rect x="567" y="91" width="40" height="5" style="fill:#f5b024;stroke:black;stroke-width:1;fill-opacity:1;stroke-opacity:0.3" />
<line x1="608" y1="93" x2="678" y2="93" stroke="pink" stroke-width="1" />
<rect x="678" y="91" width="8" height="5" style="fill:#f5b024;stroke:black;stroke-width:1;fill-opacity:1;stroke-opacity:0.3" />
<line x1="522" y1="121" x2="525" y2="123" stroke="black" stroke-width="1" />
<line x1="525" y1="123" x2="529" y2="121" stroke="black" stroke-width="1" />
<rect x="280" y="119" width="29" height="5" style="fill:#5d3c2d;stroke:black;stroke-width:1;fill-opacity:1;stroke-opacity:0.3" />
<line x1="310" y1="121" x2="502" y2="121" stroke="pink" stroke-width="1" />
<rect x="502" y="119" width="19" height="5" style="fill:#5d3c2d;stroke:black;stroke-width:1;fill-opacity:1;stroke-opacity:0.3" />
<rect x="529" y="119" width="49" height="5" style="fill:#5d3c2d;stroke:black;stroke-width:1;fill-opacity:1;stroke-opacity:0.3" />
<line x1="522" y1="128" x2="527" y2="130" stroke="black" stroke-width="1" />
<line x1="527" y1="130" x2="532" y2="128" stroke="black" stroke-width="1" />
<rect x="280" y="126" width="29" height="5" style="fill:#f5b024;stroke:black;stroke-width:1;fill-opacity:1;stroke-opacity:0.3" />
<line x1="310" y1="128" x2="502" y2="128" stroke="pink" stroke-width="1" />
<rect x="502" y="126" width="20" height="5" style="fill:#f5b024;stroke:black;stroke-width:1;fill-opacity:1;stroke-opacity:0.3" />
<rect x="532" y="126" width="49" height="5" style="fill:#f5b024;stroke:black;stroke-width:1;fill-opacity:1;stroke-opacity:0.3" />
<line x1="522" y1="135" x2="527" y2="137" stroke="black" stroke-width="1" />
<line x1="527" y1="137" x2="532" y2="135" stroke="black" stroke-width="1" />
<rect x="282" y="133" width="27" height="5" style="fill:#f5b024;stroke:black;stroke-width:1;fill-opacity:1;stroke-opacity:0.3" />
<line x1="310" y1="135" x2="502" y2="135" stroke="pink" stroke-width="1" />
<rect x="502" y="133" width="20" height="5" style="fill:#f5b024;stroke:black;stroke-width:1;fill-opacity:1;stroke-opacity:0.3" />
<rect x="532" y="133" width="49" height="5" style="fill:#f5b024;stroke:black;stroke-width:1;fill-opacity:1;stroke-opacity:0.3" />
<line x1="529" y1="142" x2="537" y2="144" stroke="black" stroke-width="1" />
<line x1="537" y1="144" x2="546" y2="142" stroke="black" stroke-width="1" />
<rect x="288" y="140" width="21" height="5" style="fill:#f5b024;stroke:black;stroke-width:1;fill-opacity:1;stroke-opacity:0.3" />
<line x1="310" y1="142" x2="502" y2="142" stroke="pink" stroke-width="1" />
<rect x="502" y="140" width="27" height="5" style="fill:#f5b024;stroke:black;stroke-width:1;fill-opacity:1;stroke-opacity:0.3" />
<rect x="546" y="140" width="49" height="5" style="fill:#f5b024;stroke:black;stroke-width:1;fill-opacity:1;stroke-opacity:0.3" />
<line x1="532" y1="149" x2="539" y2="151" stroke="black" stroke-width="1" />
<line x1="539" y1="151" x2="546" y2="149" stroke="black" stroke-width="1" />
<rect x="290" y="147" width="19" height="5" style="fill:#f5b024;stroke:black;stroke-width:1;fill-opacity:1;stroke-opacity:0.3" />
<line x1="310" y1="149" x2="502" y2="149" stroke="pink" stroke-width="1" />
<rect x="502" y="147" width="29" height="5" style="fill:#f5b024;stroke:black;stroke-width:1;fill-opacity:1;stroke-opacity:0.3" />
<rect x="546" y="147" width="49" height="5" style="fill:#f5b024;stroke:black;stroke-width:1;fill-opacity:1;stroke-opacity:0.3" />
<line x1="533" y1="156" x2="545" y2="158" stroke="black" stroke-width="1" />
<line x1="545" y1="158" x2="557" y2="156" stroke="black" stroke-width="1" />
<rect x="291" y="154" width="18" height="5" style="fill:#f5b024;stroke:black;stroke-width:1;fill-opacity:1;stroke-opacity:0.3" />
<line x1="310" y1="156" x2="502" y2="156" stroke="pink" stroke-width="1" />
<rect x="502" y="154" width="30" height="5" style="fill:#f5b024;stroke:black;stroke-width:1;fill-opacity:1;stroke-opacity:0.3" />
<rect x="557" y="154" width="49" height="5" style="fill:#f5b024;stroke:black;stroke-width:1;fill-opacity:1;stroke-opacity:0.3" />
<line x1="550" y1="163" x2="562" y2="165" stroke="black" stroke-width="1" />
<line x1="562" y1="165" x2="574" y2="163" stroke="black" stroke-width="1" />
<rect x="308" y="161" width="1" height="5" style="fill:#f5b024;stroke:black;stroke-width:1;fill-opacity:1;stroke-opacity:0.3" />
<line x1="310" y1="163" x2="502" y2="163" stroke="pink" stroke-width="1" />
<rect x="502" y="161" width="48" height="5" style="fill:#f5b024;stroke:black;stroke-width:1;fill-opacity:1;stroke-opacity:0.3" />
<rect x="574" y="161" width="33" height="5" style="fill:#f5b024;stroke:black;stroke-width:1;fill-opacity:1;stroke-opacity:0.3" />
<line x1="608" y1="163" x2="678" y2="163" stroke="pink" stroke-width="1" />
<rect x="678" y="161" width="15" height="5" style="fill:#f5b024;stroke:black;stroke-width:1;fill-opacity:1;stroke-opacity:0.3" />
<line x1="553" y1="37" x2="570" y2="39" stroke="black" stroke-width="1" />
<line x1="570" y1="39" x2="587" y2="37" stroke="black" stroke-width="1" />
<rect x="503" y="35" width="49" height="5" style="fill:#f5b024;stroke:black;stroke-width:1;fill-opacity:1;stroke-opacity:0.3" />
<rect x="587" y="35" width="20" height="5" style="fill:#f5b024;stroke:black;stroke-width:1;fill-opacity:1;stroke-opacity:0.3" />
<line x1="608" y1="37" x2="678" y2="37" stroke="pink" stroke-width="1" />
<rect x="678" y="35" width="29" height="5" style="fill:#f5b024;stroke:black;stroke-width:1;fill-opacity:1;stroke-opacity:0.3" />
<line x1="568" y1="44" x2="572" y2="46" stroke="black" stroke-width="1" />
<line x1="572" y1="46" x2="577" y2="44" stroke="black" stroke-width="1" />
<rect x="518" y="42" width="49" height="5" style="fill:#f5b024;stroke:black;stroke-width:1;fill-opacity:1;stroke-opacity:0.3" />
<rect x="577" y="42" width="30" height="5" style="fill:#f5b024;stroke:black;stroke-width:1;fill-opacity:1;stroke-opacity:0.3" />
<line x1="608" y1="44" x2="678" y2="44" stroke="pink" stroke-width="1" />
<rect x="678" y="42" width="19" height="5" style="fill:#f5b024;stroke:black;stroke-width:1;fill-opacity:1;stroke-opacity:0.3" />
<line x1="572" y1="58" x2="579" y2="60" stroke="black" stroke-width="1" />
<line x1="579" y1="60" x2="587" y2="58" stroke="black" stroke-width="1" />
<rect x="522" y="56" width="49" height="5" style="fill:#f5b024;stroke:black;stroke-width:1;fill-opacity:1;stroke-opacity:0.3" />
<rect x="587" y="56" width="20" height="5" style="fill:#f5b024;stroke:black;stroke-width:1;fill-opacity:1;stroke-opacity:0.3" />
<line x1="608" y1="58" x2="678" y2="58" stroke="pink" stroke-width="1" />
<rect x="678" y="56" width="29" height="5" style="fill:#f5b024;stroke:black;stroke-width:1;fill-opacity:1;stroke-opacity:0.3" />
<line x1="581" y1="30" x2="633" y2="32" stroke="black" stroke-width="1" />
<line x1="633" y1="32" x2="685" y2="30" stroke="black" stroke-width="1" />
<rect x="531" y="28" width="49" height="5" style="fill:#f5b024;stroke:black;stroke-width:1;fill-opacity:1;stroke-opacity:0.3" />
<rect x="685" y="28" width="47" height="5" style="fill:#f5b024;stroke:black;stroke-width:1;fill-opacity:1;stroke-opacity:0.3" />
<line x1="729" y1="51" x2="735" y2="53" stroke="black" stroke-width="1" />
<line x1="735" y1="53" x2="741" y2="51" stroke="black" stroke-width="1" />
<rect x="584" y="49" width="23" height="5" style="fill:#f5b024;stroke:black;stroke-width:1;fill-opacity:1;stroke-opacity:0.3" />
<line x1="608" y1="51" x2="678" y2="51" stroke="pink" stroke-width="1" />
<rect x="678" y="49" width="50" height="5" style="fill:#f5b024;stroke:black;stroke-width:1;fill-opacity:1;stroke-opacity:0.3" />
<rect x="741" y="49" width="74" height="5" style="fill:#f5b024;stroke:black;stroke-width:1;fill-opacity:1;stroke-opacity:0.3" />
<line x1="799" y1="30" x2="805" y2="32" stroke="black" stroke-width="1" />
<line x1="805" y1="32" x2="811" y2="30" stroke="black" stroke-width="1" />
<rect x="749" y="28" width="49" height="5" style="fill:#f5b024;stroke:black;stroke-width:1;fill-opacity:1;stroke-opacity:0.3" />
<rect x="811" y="28" width="49" height="5" style="fill:#f5b024;stroke:black;stroke-width:1;fill-opacity:1;stroke-opacity:0.3" />
<line x1="802" y1="37" x2="821" y2="39" stroke="black" stroke-width="1" />
<line x1="821" y1="39" x2="840" y2="37" stroke="black" stroke-width="1" />
<rect x="752" y="35" width="49" height="5" style="fill:#f5b024;stroke:black;stroke-width:1;fill-opacity:1;stroke-opacity:0.3" />
<rect x="840" y="35" width="49" height="5" style="fill:#f5b024;stroke:black;stroke-width:1;fill-opacity:1;stroke-opacity:0.3" />
<line x1="820" y1="44" x2="844" y2="46" stroke="black" stroke-width="1" />
<line x1="844" y1="46" x2="868" y2="44" stroke="black" stroke-width="1" />
<rect x="771" y="42" width="48" height="5" style="fill:#f5b024;stroke:black;stroke-width:1;fill-opacity:1;stroke-opacity:0.3" />
<rect x="868" y="42" width="49" height="5" style="fill:#f5b024;stroke:black;stroke-width:1;fill-opacity:1;stroke-opacity:0.3" />
<line x1="833" y1="58" x2="845" y2="60" stroke="black" stroke-width="1" />
<line x1="845" y1="60" x2="858" y2="58" stroke="black" stroke-width="1" />
<rect x="783" y="56" width="49" height="5" style="fill:#f5b024;stroke:black;stroke-width:1;fill-opacity:1;stroke-opacity:0.3" />
<rect x="858" y="56" width="49" height="5" style="fill:#f5b024;stroke:black;stroke-width:1;fill-opacity:1;stroke-opacity:0.3" />
<line x1="860" y1="65" x2="864" y2="67" stroke="black" stroke-width="1" />
<line x1="864" y1="67" x2="869" y2="65" stroke="black" stroke-width="1" />
<rect x="810" y="63" width="49" height="5" style="fill:#f5b024;stroke:black;stroke-width:1;fill-opacity:1;stroke-opacity:0.3" />
<rect x="869" y="63" width="49" height="5" style="fill:#f5b024;stroke:black;stroke-width:1;fill-opacity:1;stroke-opacity:0.3" />
<line x1="863" y1="72" x2="866" y2="74" stroke="black" stroke-width="1" />
<line x1="866" y1="74" x2="870" y2="72" stroke="black" stroke-width="1" />
<rect x="813" y="70" width="49" height="5" style="fill:#f5b024;stroke:black;stroke-width:1;fill-opacity:1;stroke-opacity:0.3" />
<rect x="870" y="70" width="49" height="5" style="fill:#f5b024;stroke:black;stroke-width:1;fill-opacity:1;stroke-opacity:0.3" />
<line x1="876" y1="51" x2="879" y2="53" stroke="black" stroke-width="1" />
<line x1="879" y1="53" x2="882" y2="51" stroke="black" stroke-width="1" />
<rect x="826" y="49" width="49" height="5" style="fill:#f5b024;stroke:black;stroke-width:1;fill-opacity:1;stroke-opacity:0.3" />
<rect x="882" y="49" width="49" height="5" style="fill:#f5b024;stroke:black;stroke-width:1;fill-opacity:1;stroke-opacity:0.3" />
<line x1="876" y1="79" x2="884" y2="81" stroke="black" stroke-width="1" />
<line x1="884" y1="81" x2="893" y2="79" stroke="black" stroke-width="1" />
<rect x="826" y="77" width="49" height="5" style="fill:#f5b024;stroke:black;stroke-width:1;fill-opacity:1;stroke-opacity:0.3" />
<rect x="893" y="77" width="49" height="5" style="fill:#f5b024;stroke:black;stroke-width:1;fill-opacity:1;stroke-opacity:0.3" />
<text x="15"  y="176" style="font-family:Arial;font-size:10;stroke:black;fill:black;">all.merged.bam</text>
</svg>
    
