<?xml version="1.0" encoding="utf-8" standalone="no"?>
<!DOCTYPE svg PUBLIC "-//W3C//DTD SVG 1.1//EN"
  "http://www.w3.org/Graphics/SVG/1.1/DTD/svg11.dtd">
<svg height="1140" width="1000" version="1.1" viewBox="0 0 1000 1140" xmlns="http://www.w3.org/2000/svg" xmlns:xlink="http://www.w3.org/1999/xlink">
<line x1="33" y1="11" x2="965" y2="11" stroke="black" stroke-width="1" />
<rect x="33" y="9" width="34" height="5" style="fill:#f50002;stroke:black;stroke-width:1;fill-opacity:1;stroke-opacity:0.3" />
<rect x="68" y="9" width="45" height="5" style="fill:#53a1b5;stroke:black;stroke-width:1;fill-opacity:1;stroke-opacity:0.3" />
<rect x="158" y="9" width="39" height="5" style="fill:#53a1b5;stroke:black;stroke-width:1;fill-opacity:1;stroke-opacity:0.3" />
<rect x="261" y="9" width="24" height="5" style="fill:#53a1b5;stroke:black;stroke-width:1;fill-opacity:1;stroke-opacity:0.3" />
<rect x="334" y="9" width="46" height="5" style="fill:#53a1b5;stroke:black;stroke-width:1;fill-opacity:1;stroke-opacity:0.3" />
<rect x="484" y="9" width="39" height="5" style="fill:#53a1b5;stroke:black;stroke-width:1;fill-opacity:1;stroke-opacity:0.3" />
<rect x="623" y="9" width="12" height="5" style="fill:#53a1b5;stroke:black;stroke-width:1;fill-opacity:1;stroke-opacity:0.3" />
<rect x="679" y="9" width="13" height="5" style="fill:#53a1b5;stroke:black;stroke-width:1;fill-opacity:1;stroke-opacity:0.3" />
<rect x="745" y="9" width="37" height="5" style="fill:#53a1b5;stroke:black;stroke-width:1;fill-opacity:1;stroke-opacity:0.3" />
<rect x="809" y="9" width="44" height="5" style="fill:#53a1b5;stroke:black;stroke-width:1;fill-opacity:1;stroke-opacity:0.3" />
<rect x="854" y="9" width="111" height="5" style="fill:#f50002;stroke:black;stroke-width:1;fill-opacity:1;stroke-opacity:0.3" />
<text x="33"  y="23" style="font-family:Arial;font-size:10;stroke:black;fill:black;">Cre17.g719050.t1.1.v5.5 (+) chromosome_17:2822462-2825230</text>
<line x1="73" y1="30" x2="77" y2="32" stroke="black" stroke-width="1" />
<line x1="77" y1="32" x2="82" y2="30" stroke="black" stroke-width="1" />
<rect x="40" y="28" width="33" height="5" style="fill:#5d3c2d;stroke:black;stroke-width:1;fill-opacity:1;stroke-opacity:0.3" />
<rect x="82" y="28" width="31" height="5" style="fill:#5d3c2d;stroke:black;stroke-width:1;fill-opacity:1;stroke-opacity:0.3" />
<line x1="114" y1="30" x2="158" y2="30" stroke="pink" stroke-width="1" />
<rect x="158" y="28" width="2" height="5" style="fill:#5d3c2d;stroke:black;stroke-width:1;fill-opacity:1;stroke-opacity:0.3" />
<line x1="73" y1="37" x2="76" y2="39" stroke="black" stroke-width="1" />
<line x1="76" y1="39" x2="79" y2="37" stroke="black" stroke-width="1" />
<rect x="40" y="35" width="33" height="5" style="fill:#5d3c2d;stroke:black;stroke-width:1;fill-opacity:1;stroke-opacity:0.3" />
<rect x="79" y="35" width="33" height="5" style="fill:#5d3c2d;stroke:black;stroke-width:1;fill-opacity:1;stroke-opacity:0.3" />
<line x1="73" y1="44" x2="76" y2="46" stroke="black" stroke-width="1" />
<line x1="76" y1="46" x2="80" y2="44" stroke="black" stroke-width="1" />
<rect x="40" y="42" width="33" height="5" style="fill:#5d3c2d;stroke:black;stroke-width:1;fill-opacity:1;stroke-opacity:0.3" />
<rect x="80" y="42" width="33" height="5" style="fill:#5d3c2d;stroke:black;stroke-width:1;fill-opacity:1;stroke-opacity:0.3" />
<line x1="73" y1="51" x2="91" y2="53" stroke="black" stroke-width="1" />
<line x1="91" y1="53" x2="109" y2="51" stroke="black" stroke-width="1" />
<rect x="40" y="49" width="33" height="5" style="fill:#5d3c2d;stroke:black;stroke-width:1;fill-opacity:1;stroke-opacity:0.3" />
<rect x="109" y="49" width="5" height="5" style="fill:#5d3c2d;stroke:black;stroke-width:1;fill-opacity:1;stroke-opacity:0.3" />
<line x1="114" y1="51" x2="158" y2="51" stroke="pink" stroke-width="1" />
<rect x="158" y="49" width="28" height="5" style="fill:#5d3c2d;stroke:black;stroke-width:1;fill-opacity:1;stroke-opacity:0.3" />
<line x1="82" y1="58" x2="88" y2="60" stroke="black" stroke-width="1" />
<line x1="88" y1="60" x2="94" y2="58" stroke="black" stroke-width="1" />
<rect x="48" y="56" width="33" height="5" style="fill:#5d3c2d;stroke:black;stroke-width:1;fill-opacity:1;stroke-opacity:0.3" />
<rect x="94" y="56" width="19" height="5" style="fill:#5d3c2d;stroke:black;stroke-width:1;fill-opacity:1;stroke-opacity:0.3" />
<line x1="114" y1="58" x2="158" y2="58" stroke="pink" stroke-width="1" />
<rect x="158" y="56" width="13" height="5" style="fill:#5d3c2d;stroke:black;stroke-width:1;fill-opacity:1;stroke-opacity:0.3" />
<line x1="84" y1="65" x2="93" y2="67" stroke="black" stroke-width="1" />
<line x1="93" y1="67" x2="102" y2="65" stroke="black" stroke-width="1" />
<rect x="50" y="63" width="33" height="5" style="fill:#5d3c2d;stroke:black;stroke-width:1;fill-opacity:1;stroke-opacity:0.3" />
<rect x="102" y="63" width="11" height="5" style="fill:#5d3c2d;stroke:black;stroke-width:1;fill-opacity:1;stroke-opacity:0.3" />
<line x1="114" y1="65" x2="158" y2="65" stroke="pink" stroke-width="1" />
<rect x="158" y="63" width="22" height="5" style="fill:#5d3c2d;stroke:black;stroke-width:1;fill-opacity:1;stroke-opacity:0.3" />
<line x1="100" y1="72" x2="101" y2="74" stroke="black" stroke-width="1" />
<line x1="101" y1="74" x2="103" y2="72" stroke="black" stroke-width="1" />
<rect x="66" y="70" width="33" height="5" style="fill:#5d3c2d;stroke:black;stroke-width:1;fill-opacity:1;stroke-opacity:0.3" />
<rect x="103" y="70" width="10" height="5" style="fill:#5d3c2d;stroke:black;stroke-width:1;fill-opacity:1;stroke-opacity:0.3" />
<line x1="114" y1="72" x2="158" y2="72" stroke="pink" stroke-width="1" />
<rect x="158" y="70" width="22" height="5" style="fill:#5d3c2d;stroke:black;stroke-width:1;fill-opacity:1;stroke-opacity:0.3" />
<line x1="191" y1="79" x2="227" y2="81" stroke="black" stroke-width="1" />
<line x1="227" y1="81" x2="263" y2="79" stroke="black" stroke-width="1" />
<rect x="112" y="77" width="1" height="5" style="fill:#5d3c2d;stroke:black;stroke-width:1;fill-opacity:1;stroke-opacity:0.3" />
<line x1="114" y1="79" x2="158" y2="79" stroke="pink" stroke-width="1" />
<rect x="158" y="77" width="32" height="5" style="fill:#5d3c2d;stroke:black;stroke-width:1;fill-opacity:1;stroke-opacity:0.3" />
<rect x="263" y="77" width="23" height="5" style="fill:#5d3c2d;stroke:black;stroke-width:1;fill-opacity:1;stroke-opacity:0.3" />
<line x1="286" y1="79" x2="334" y2="79" stroke="pink" stroke-width="1" />
<rect x="334" y="77" width="10" height="5" style="fill:#5d3c2d;stroke:black;stroke-width:1;fill-opacity:1;stroke-opacity:0.3" />
<line x1="196" y1="30" x2="205" y2="32" stroke="black" stroke-width="1" />
<line x1="205" y1="32" x2="214" y2="30" stroke="black" stroke-width="1" />
<rect x="162" y="28" width="33" height="5" style="fill:#5d3c2d;stroke:black;stroke-width:1;fill-opacity:1;stroke-opacity:0.3" />
<rect x="214" y="28" width="33" height="5" style="fill:#5d3c2d;stroke:black;stroke-width:1;fill-opacity:1;stroke-opacity:0.3" />
<line x1="203" y1="37" x2="213" y2="39" stroke="black" stroke-width="1" />
<line x1="213" y1="39" x2="224" y2="37" stroke="black" stroke-width="1" />
<rect x="170" y="35" width="33" height="5" style="fill:#f5b024;stroke:black;stroke-width:1;fill-opacity:1;stroke-opacity:0.3" />
<rect x="224" y="35" width="33" height="5" style="fill:#f5b024;stroke:black;stroke-width:1;fill-opacity:1;stroke-opacity:0.3" />
<line x1="268" y1="44" x2="276" y2="46" stroke="black" stroke-width="1" />
<line x1="276" y1="46" x2="285" y2="44" stroke="black" stroke-width="1" />
<rect x="171" y="42" width="26" height="5" style="fill:#5d3c2d;stroke:black;stroke-width:1;fill-opacity:1;stroke-opacity:0.3" />
<line x1="198" y1="44" x2="261" y2="44" stroke="pink" stroke-width="1" />
<rect x="261" y="42" width="6" height="5" style="fill:#5d3c2d;stroke:black;stroke-width:1;fill-opacity:1;stroke-opacity:0.3" />
<rect x="285" y="42" width="1" height="5" style="fill:#5d3c2d;stroke:black;stroke-width:1;fill-opacity:1;stroke-opacity:0.3" />
<line x1="286" y1="44" x2="334" y2="44" stroke="pink" stroke-width="1" />
<rect x="334" y="42" width="32" height="5" style="fill:#5d3c2d;stroke:black;stroke-width:1;fill-opacity:1;stroke-opacity:0.3" />
<line x1="206" y1="86" x2="207" y2="88" stroke="black" stroke-width="1" />
<line x1="207" y1="88" x2="209" y2="86" stroke="black" stroke-width="1" />
<rect x="172" y="84" width="33" height="5" style="fill:#5d3c2d;stroke:black;stroke-width:1;fill-opacity:1;stroke-opacity:0.3" />
<rect x="209" y="84" width="33" height="5" style="fill:#5d3c2d;stroke:black;stroke-width:1;fill-opacity:1;stroke-opacity:0.3" />
<line x1="210" y1="58" x2="215" y2="60" stroke="black" stroke-width="1" />
<line x1="215" y1="60" x2="220" y2="58" stroke="black" stroke-width="1" />
<rect x="176" y="56" width="33" height="5" style="fill:#5d3c2d;stroke:black;stroke-width:1;fill-opacity:1;stroke-opacity:0.3" />
<rect x="220" y="56" width="33" height="5" style="fill:#5d3c2d;stroke:black;stroke-width:1;fill-opacity:1;stroke-opacity:0.3" />
<line x1="214" y1="93" x2="219" y2="95" stroke="black" stroke-width="1" />
<line x1="219" y1="95" x2="224" y2="93" stroke="black" stroke-width="1" />
<rect x="180" y="91" width="28" height="5" style="fill:#5d3c2d;stroke:black;stroke-width:1;fill-opacity:1;stroke-opacity:0.3" />
<line x1="209" y1="93" x2="209" y2="93" stroke="pink" stroke-width="1" />
<rect x="209" y="91" width="4" height="5" style="fill:#5d3c2d;stroke:black;stroke-width:1;fill-opacity:1;stroke-opacity:0.3" />
<rect x="224" y="91" width="33" height="5" style="fill:#5d3c2d;stroke:black;stroke-width:1;fill-opacity:1;stroke-opacity:0.3" />
<line x1="220" y1="65" x2="223" y2="67" stroke="black" stroke-width="1" />
<line x1="223" y1="67" x2="226" y2="65" stroke="black" stroke-width="1" />
<rect x="186" y="63" width="33" height="5" style="fill:#5d3c2d;stroke:black;stroke-width:1;fill-opacity:1;stroke-opacity:0.3" />
<rect x="226" y="63" width="33" height="5" style="fill:#5d3c2d;stroke:black;stroke-width:1;fill-opacity:1;stroke-opacity:0.3" />
<line x1="245" y1="51" x2="252" y2="53" stroke="black" stroke-width="1" />
<line x1="252" y1="53" x2="259" y2="51" stroke="black" stroke-width="1" />
<rect x="212" y="49" width="33" height="5" style="fill:#5d3c2d;stroke:black;stroke-width:1;fill-opacity:1;stroke-opacity:0.3" />
<rect x="259" y="49" width="27" height="5" style="fill:#5d3c2d;stroke:black;stroke-width:1;fill-opacity:1;stroke-opacity:0.3" />
<line x1="286" y1="51" x2="334" y2="51" stroke="pink" stroke-width="1" />
<rect x="334" y="49" width="6" height="5" style="fill:#5d3c2d;stroke:black;stroke-width:1;fill-opacity:1;stroke-opacity:0.3" />
<line x1="266" y1="72" x2="299" y2="74" stroke="black" stroke-width="1" />
<line x1="299" y1="74" x2="333" y2="72" stroke="black" stroke-width="1" />
<rect x="232" y="70" width="33" height="5" style="fill:#5d3c2d;stroke:black;stroke-width:1;fill-opacity:1;stroke-opacity:0.3" />
<rect x="333" y="70" width="32" height="5" style="fill:#5d3c2d;stroke:black;stroke-width:1;fill-opacity:1;stroke-opacity:0.3" />
<line x1="270" y1="100" x2="275" y2="102" stroke="black" stroke-width="1" />
<line x1="275" y1="102" x2="281" y2="100" stroke="black" stroke-width="1" />
<rect x="236" y="98" width="33" height="5" style="fill:#5d3c2d;stroke:black;stroke-width:1;fill-opacity:1;stroke-opacity:0.3" />
<rect x="281" y="98" width="4" height="5" style="fill:#5d3c2d;stroke:black;stroke-width:1;fill-opacity:1;stroke-opacity:0.3" />
<line x1="286" y1="100" x2="334" y2="100" stroke="pink" stroke-width="1" />
<rect x="334" y="98" width="28" height="5" style="fill:#5d3c2d;stroke:black;stroke-width:1;fill-opacity:1;stroke-opacity:0.3" />
<line x1="343" y1="30" x2="345" y2="32" stroke="black" stroke-width="1" />
<line x1="345" y1="32" x2="348" y2="30" stroke="black" stroke-width="1" />
<rect x="261" y="28" width="25" height="5" style="fill:#5d3c2d;stroke:black;stroke-width:1;fill-opacity:1;stroke-opacity:0.3" />
<line x1="286" y1="30" x2="334" y2="30" stroke="pink" stroke-width="1" />
<rect x="334" y="28" width="8" height="5" style="fill:#5d3c2d;stroke:black;stroke-width:1;fill-opacity:1;stroke-opacity:0.3" />
<rect x="348" y="28" width="33" height="5" style="fill:#5d3c2d;stroke:black;stroke-width:1;fill-opacity:1;stroke-opacity:0.3" />
<line x1="345" y1="37" x2="348" y2="39" stroke="black" stroke-width="1" />
<line x1="348" y1="39" x2="351" y2="37" stroke="black" stroke-width="1" />
<rect x="263" y="35" width="22" height="5" style="fill:#5d3c2d;stroke:black;stroke-width:1;fill-opacity:1;stroke-opacity:0.3" />
<line x1="286" y1="37" x2="334" y2="37" stroke="pink" stroke-width="1" />
<rect x="334" y="35" width="10" height="5" style="fill:#5d3c2d;stroke:black;stroke-width:1;fill-opacity:1;stroke-opacity:0.3" />
<rect x="351" y="35" width="29" height="5" style="fill:#5d3c2d;stroke:black;stroke-width:1;fill-opacity:1;stroke-opacity:0.3" />
<line x1="381" y1="37" x2="484" y2="37" stroke="pink" stroke-width="1" />
<rect x="484" y="35" width="3" height="5" style="fill:#5d3c2d;stroke:black;stroke-width:1;fill-opacity:1;stroke-opacity:0.3" />
<line x1="347" y1="58" x2="353" y2="60" stroke="black" stroke-width="1" />
<line x1="353" y1="60" x2="359" y2="58" stroke="black" stroke-width="1" />
<rect x="266" y="56" width="20" height="5" style="fill:#5d3c2d;stroke:black;stroke-width:1;fill-opacity:1;stroke-opacity:0.3" />
<line x1="286" y1="58" x2="334" y2="58" stroke="pink" stroke-width="1" />
<rect x="334" y="56" width="13" height="5" style="fill:#5d3c2d;stroke:black;stroke-width:1;fill-opacity:1;stroke-opacity:0.3" />
<rect x="359" y="56" width="21" height="5" style="fill:#5d3c2d;stroke:black;stroke-width:1;fill-opacity:1;stroke-opacity:0.3" />
<line x1="381" y1="58" x2="484" y2="58" stroke="pink" stroke-width="1" />
<rect x="484" y="56" width="11" height="5" style="fill:#5d3c2d;stroke:black;stroke-width:1;fill-opacity:1;stroke-opacity:0.3" />
<line x1="351" y1="65" x2="354" y2="67" stroke="black" stroke-width="1" />
<line x1="354" y1="67" x2="358" y2="65" stroke="black" stroke-width="1" />
<rect x="269" y="63" width="16" height="5" style="fill:#5d3c2d;stroke:black;stroke-width:1;fill-opacity:1;stroke-opacity:0.3" />
<line x1="286" y1="65" x2="334" y2="65" stroke="pink" stroke-width="1" />
<rect x="334" y="63" width="16" height="5" style="fill:#5d3c2d;stroke:black;stroke-width:1;fill-opacity:1;stroke-opacity:0.3" />
<rect x="358" y="63" width="23" height="5" style="fill:#5d3c2d;stroke:black;stroke-width:1;fill-opacity:1;stroke-opacity:0.3" />
<line x1="381" y1="65" x2="484" y2="65" stroke="pink" stroke-width="1" />
<rect x="484" y="63" width="10" height="5" style="fill:#5d3c2d;stroke:black;stroke-width:1;fill-opacity:1;stroke-opacity:0.3" />
<line x1="375" y1="51" x2="435" y2="53" stroke="black" stroke-width="1" />
<line x1="435" y1="53" x2="495" y2="51" stroke="black" stroke-width="1" />
<rect x="341" y="49" width="33" height="5" style="fill:#5d3c2d;stroke:black;stroke-width:1;fill-opacity:1;stroke-opacity:0.3" />
<rect x="495" y="49" width="28" height="5" style="fill:#5d3c2d;stroke:black;stroke-width:1;fill-opacity:1;stroke-opacity:0.3" />
<line x1="524" y1="51" x2="623" y2="51" stroke="pink" stroke-width="1" />
<rect x="623" y="49" width="4" height="5" style="fill:#5d3c2d;stroke:black;stroke-width:1;fill-opacity:1;stroke-opacity:0.3" />
<line x1="377" y1="86" x2="431" y2="88" stroke="black" stroke-width="1" />
<line x1="431" y1="88" x2="485" y2="86" stroke="black" stroke-width="1" />
<rect x="343" y="84" width="33" height="5" style="fill:#5d3c2d;stroke:black;stroke-width:1;fill-opacity:1;stroke-opacity:0.3" />
<rect x="485" y="84" width="33" height="5" style="fill:#5d3c2d;stroke:black;stroke-width:1;fill-opacity:1;stroke-opacity:0.3" />
<line x1="379" y1="79" x2="433" y2="81" stroke="black" stroke-width="1" />
<line x1="433" y1="81" x2="488" y2="79" stroke="black" stroke-width="1" />
<rect x="345" y="77" width="33" height="5" style="fill:#5d3c2d;stroke:black;stroke-width:1;fill-opacity:1;stroke-opacity:0.3" />
<rect x="488" y="77" width="33" height="5" style="fill:#5d3c2d;stroke:black;stroke-width:1;fill-opacity:1;stroke-opacity:0.3" />
<line x1="379" y1="93" x2="431" y2="95" stroke="black" stroke-width="1" />
<line x1="431" y1="95" x2="484" y2="93" stroke="black" stroke-width="1" />
<rect x="345" y="91" width="33" height="5" style="fill:#5d3c2d;stroke:black;stroke-width:1;fill-opacity:1;stroke-opacity:0.3" />
<rect x="484" y="91" width="33" height="5" style="fill:#5d3c2d;stroke:black;stroke-width:1;fill-opacity:1;stroke-opacity:0.3" />
<line x1="487" y1="107" x2="490" y2="109" stroke="black" stroke-width="1" />
<line x1="490" y1="109" x2="494" y2="107" stroke="black" stroke-width="1" />
<rect x="350" y="105" width="30" height="5" style="fill:#5d3c2d;stroke:black;stroke-width:1;fill-opacity:1;stroke-opacity:0.3" />
<line x1="381" y1="107" x2="484" y2="107" stroke="pink" stroke-width="1" />
<rect x="484" y="105" width="3" height="5" style="fill:#5d3c2d;stroke:black;stroke-width:1;fill-opacity:1;stroke-opacity:0.3" />
<rect x="494" y="105" width="29" height="5" style="fill:#5d3c2d;stroke:black;stroke-width:1;fill-opacity:1;stroke-opacity:0.3" />
<line x1="524" y1="107" x2="623" y2="107" stroke="pink" stroke-width="1" />
<rect x="623" y="105" width="4" height="5" style="fill:#5d3c2d;stroke:black;stroke-width:1;fill-opacity:1;stroke-opacity:0.3" />
<line x1="382" y1="114" x2="435" y2="116" stroke="black" stroke-width="1" />
<line x1="435" y1="116" x2="489" y2="114" stroke="black" stroke-width="1" />
<rect x="350" y="112" width="31" height="5" style="fill:#5d3c2d;stroke:black;stroke-width:1;fill-opacity:1;stroke-opacity:0.3" />
<rect x="489" y="112" width="33" height="5" style="fill:#5d3c2d;stroke:black;stroke-width:1;fill-opacity:1;stroke-opacity:0.3" />
<line x1="491" y1="121" x2="494" y2="123" stroke="black" stroke-width="1" />
<line x1="494" y1="123" x2="498" y2="121" stroke="black" stroke-width="1" />
<rect x="353" y="119" width="27" height="5" style="fill:#5d3c2d;stroke:black;stroke-width:1;fill-opacity:1;stroke-opacity:0.3" />
<line x1="381" y1="121" x2="484" y2="121" stroke="pink" stroke-width="1" />
<rect x="484" y="119" width="6" height="5" style="fill:#5d3c2d;stroke:black;stroke-width:1;fill-opacity:1;stroke-opacity:0.3" />
<rect x="498" y="119" width="25" height="5" style="fill:#5d3c2d;stroke:black;stroke-width:1;fill-opacity:1;stroke-opacity:0.3" />
<line x1="524" y1="121" x2="623" y2="121" stroke="pink" stroke-width="1" />
<rect x="623" y="119" width="8" height="5" style="fill:#5d3c2d;stroke:black;stroke-width:1;fill-opacity:1;stroke-opacity:0.3" />
<line x1="502" y1="128" x2="506" y2="130" stroke="black" stroke-width="1" />
<line x1="506" y1="130" x2="510" y2="128" stroke="black" stroke-width="1" />
<rect x="354" y="126" width="26" height="5" style="fill:#5d3c2d;stroke:black;stroke-width:1;fill-opacity:1;stroke-opacity:0.3" />
<line x1="381" y1="128" x2="484" y2="128" stroke="pink" stroke-width="1" />
<rect x="484" y="126" width="17" height="5" style="fill:#5d3c2d;stroke:black;stroke-width:1;fill-opacity:1;stroke-opacity:0.3" />
<rect x="510" y="126" width="13" height="5" style="fill:#5d3c2d;stroke:black;stroke-width:1;fill-opacity:1;stroke-opacity:0.3" />
<line x1="524" y1="128" x2="623" y2="128" stroke="pink" stroke-width="1" />
<rect x="623" y="126" width="12" height="5" style="fill:#5d3c2d;stroke:black;stroke-width:1;fill-opacity:1;stroke-opacity:0.3" />
<line x1="636" y1="128" x2="679" y2="128" stroke="pink" stroke-width="1" />
<rect x="679" y="126" width="13" height="5" style="fill:#5d3c2d;stroke:black;stroke-width:1;fill-opacity:1;stroke-opacity:0.3" />
<line x1="693" y1="128" x2="745" y2="128" stroke="pink" stroke-width="1" />
<rect x="745" y="126" width="10" height="5" style="fill:#5d3c2d;stroke:black;stroke-width:1;fill-opacity:1;stroke-opacity:0.3" />
<line x1="498" y1="135" x2="500" y2="137" stroke="black" stroke-width="1" />
<line x1="500" y1="137" x2="502" y2="135" stroke="black" stroke-width="1" />
<rect x="361" y="133" width="19" height="5" style="fill:#5d3c2d;stroke:black;stroke-width:1;fill-opacity:1;stroke-opacity:0.3" />
<line x1="381" y1="135" x2="484" y2="135" stroke="pink" stroke-width="1" />
<rect x="484" y="133" width="13" height="5" style="fill:#5d3c2d;stroke:black;stroke-width:1;fill-opacity:1;stroke-opacity:0.3" />
<rect x="502" y="133" width="21" height="5" style="fill:#5d3c2d;stroke:black;stroke-width:1;fill-opacity:1;stroke-opacity:0.3" />
<line x1="524" y1="135" x2="623" y2="135" stroke="pink" stroke-width="1" />
<rect x="623" y="133" width="12" height="5" style="fill:#5d3c2d;stroke:black;stroke-width:1;fill-opacity:1;stroke-opacity:0.3" />
<line x1="627" y1="44" x2="654" y2="46" stroke="black" stroke-width="1" />
<line x1="654" y1="46" x2="682" y2="44" stroke="black" stroke-width="1" />
<rect x="374" y="42" width="7" height="5" style="fill:#5d3c2d;stroke:black;stroke-width:1;fill-opacity:1;stroke-opacity:0.3" />
<line x1="381" y1="44" x2="484" y2="44" stroke="pink" stroke-width="1" />
<rect x="484" y="42" width="39" height="5" style="fill:#5d3c2d;stroke:black;stroke-width:1;fill-opacity:1;stroke-opacity:0.3" />
<line x1="524" y1="44" x2="623" y2="44" stroke="pink" stroke-width="1" />
<rect x="623" y="42" width="4" height="5" style="fill:#5d3c2d;stroke:black;stroke-width:1;fill-opacity:1;stroke-opacity:0.3" />
<rect x="682" y="42" width="11" height="5" style="fill:#5d3c2d;stroke:black;stroke-width:1;fill-opacity:1;stroke-opacity:0.3" />
<line x1="693" y1="44" x2="745" y2="44" stroke="pink" stroke-width="1" />
<rect x="745" y="42" width="37" height="5" style="fill:#5d3c2d;stroke:black;stroke-width:1;fill-opacity:1;stroke-opacity:0.3" />
<line x1="782" y1="44" x2="809" y2="44" stroke="pink" stroke-width="1" />
<rect x="809" y="42" width="1" height="5" style="fill:#5d3c2d;stroke:black;stroke-width:1;fill-opacity:1;stroke-opacity:0.3" />
<line x1="512" y1="72" x2="514" y2="74" stroke="black" stroke-width="1" />
<line x1="514" y1="74" x2="517" y2="72" stroke="black" stroke-width="1" />
<rect x="375" y="70" width="6" height="5" style="fill:#5d3c2d;stroke:black;stroke-width:1;fill-opacity:1;stroke-opacity:0.3" />
<line x1="381" y1="72" x2="484" y2="72" stroke="pink" stroke-width="1" />
<rect x="484" y="70" width="27" height="5" style="fill:#5d3c2d;stroke:black;stroke-width:1;fill-opacity:1;stroke-opacity:0.3" />
<rect x="517" y="70" width="7" height="5" style="fill:#5d3c2d;stroke:black;stroke-width:1;fill-opacity:1;stroke-opacity:0.3" />
<line x1="524" y1="72" x2="623" y2="72" stroke="pink" stroke-width="1" />
<rect x="623" y="70" width="12" height="5" style="fill:#5d3c2d;stroke:black;stroke-width:1;fill-opacity:1;stroke-opacity:0.3" />
<line x1="636" y1="72" x2="679" y2="72" stroke="pink" stroke-width="1" />
<rect x="679" y="70" width="14" height="5" style="fill:#5d3c2d;stroke:black;stroke-width:1;fill-opacity:1;stroke-opacity:0.3" />
<line x1="515" y1="100" x2="517" y2="102" stroke="black" stroke-width="1" />
<line x1="517" y1="102" x2="520" y2="100" stroke="black" stroke-width="1" />
<rect x="378" y="98" width="2" height="5" style="fill:#5d3c2d;stroke:black;stroke-width:1;fill-opacity:1;stroke-opacity:0.3" />
<line x1="381" y1="100" x2="484" y2="100" stroke="pink" stroke-width="1" />
<rect x="484" y="98" width="31" height="5" style="fill:#5d3c2d;stroke:black;stroke-width:1;fill-opacity:1;stroke-opacity:0.3" />
<rect x="520" y="98" width="4" height="5" style="fill:#5d3c2d;stroke:black;stroke-width:1;fill-opacity:1;stroke-opacity:0.3" />
<line x1="524" y1="100" x2="623" y2="100" stroke="pink" stroke-width="1" />
<rect x="623" y="98" width="12" height="5" style="fill:#5d3c2d;stroke:black;stroke-width:1;fill-opacity:1;stroke-opacity:0.3" />
<line x1="636" y1="100" x2="679" y2="100" stroke="pink" stroke-width="1" />
<rect x="679" y="98" width="13" height="5" style="fill:#5d3c2d;stroke:black;stroke-width:1;fill-opacity:1;stroke-opacity:0.3" />
<line x1="693" y1="100" x2="745" y2="100" stroke="pink" stroke-width="1" />
<rect x="745" y="98" width="3" height="5" style="fill:#5d3c2d;stroke:black;stroke-width:1;fill-opacity:1;stroke-opacity:0.3" />
<line x1="517" y1="142" x2="603" y2="144" stroke="black" stroke-width="1" />
<line x1="603" y1="144" x2="689" y2="142" stroke="black" stroke-width="1" />
<rect x="380" y="140" width="0" height="5" style="fill:#f5b024;stroke:black;stroke-width:1;fill-opacity:1;stroke-opacity:0.3" />
<line x1="381" y1="142" x2="484" y2="142" stroke="pink" stroke-width="1" />
<rect x="484" y="140" width="33" height="5" style="fill:#f5b024;stroke:black;stroke-width:1;fill-opacity:1;stroke-opacity:0.3" />
<rect x="689" y="140" width="4" height="5" style="fill:#f5b024;stroke:black;stroke-width:1;fill-opacity:1;stroke-opacity:0.3" />
<line x1="693" y1="142" x2="745" y2="142" stroke="pink" stroke-width="1" />
<rect x="745" y="140" width="29" height="5" style="fill:#f5b024;stroke:black;stroke-width:1;fill-opacity:1;stroke-opacity:0.3" />
<line x1="438" y1="30" x2="441" y2="32" stroke="black" stroke-width="1" />
<line x1="441" y1="32" x2="444" y2="30" stroke="black" stroke-width="1" />
<rect x="404" y="28" width="33" height="5" style="fill:#5d3c2d;stroke:black;stroke-width:1;fill-opacity:1;stroke-opacity:0.3" />
<rect x="444" y="28" width="33" height="5" style="fill:#5d3c2d;stroke:black;stroke-width:1;fill-opacity:1;stroke-opacity:0.3" />
<line x1="442" y1="149" x2="444" y2="151" stroke="black" stroke-width="1" />
<line x1="444" y1="151" x2="447" y2="149" stroke="black" stroke-width="1" />
<rect x="408" y="147" width="33" height="5" style="fill:#5d3c2d;stroke:black;stroke-width:1;fill-opacity:1;stroke-opacity:0.3" />
<rect x="447" y="147" width="33" height="5" style="fill:#5d3c2d;stroke:black;stroke-width:1;fill-opacity:1;stroke-opacity:0.3" />
<line x1="517" y1="30" x2="603" y2="32" stroke="black" stroke-width="1" />
<line x1="603" y1="32" x2="689" y2="30" stroke="black" stroke-width="1" />
<rect x="484" y="28" width="33" height="5" style="fill:#f5b024;stroke:black;stroke-width:1;fill-opacity:1;stroke-opacity:0.3" />
<rect x="689" y="28" width="4" height="5" style="fill:#f5b024;stroke:black;stroke-width:1;fill-opacity:1;stroke-opacity:0.3" />
<line x1="693" y1="30" x2="745" y2="30" stroke="pink" stroke-width="1" />
<rect x="745" y="28" width="29" height="5" style="fill:#f5b024;stroke:black;stroke-width:1;fill-opacity:1;stroke-opacity:0.3" />
<line x1="635" y1="149" x2="657" y2="151" stroke="black" stroke-width="1" />
<line x1="657" y1="151" x2="679" y2="149" stroke="black" stroke-width="1" />
<rect x="485" y="147" width="38" height="5" style="fill:#f5b024;stroke:black;stroke-width:1;fill-opacity:1;stroke-opacity:0.3" />
<line x1="524" y1="149" x2="623" y2="149" stroke="pink" stroke-width="1" />
<rect x="623" y="147" width="11" height="5" style="fill:#f5b024;stroke:black;stroke-width:1;fill-opacity:1;stroke-opacity:0.3" />
<rect x="679" y="147" width="13" height="5" style="fill:#f5b024;stroke:black;stroke-width:1;fill-opacity:1;stroke-opacity:0.3" />
<line x1="693" y1="149" x2="745" y2="149" stroke="pink" stroke-width="1" />
<rect x="745" y="147" width="35" height="5" style="fill:#f5b024;stroke:black;stroke-width:1;fill-opacity:1;stroke-opacity:0.3" />
<line x1="521" y1="37" x2="604" y2="39" stroke="black" stroke-width="1" />
<line x1="604" y1="39" x2="688" y2="37" stroke="black" stroke-width="1" />
<rect x="488" y="35" width="33" height="5" style="fill:#5d3c2d;stroke:black;stroke-width:1;fill-opacity:1;stroke-opacity:0.3" />
<rect x="688" y="35" width="4" height="5" style="fill:#5d3c2d;stroke:black;stroke-width:1;fill-opacity:1;stroke-opacity:0.3" />
<line x1="693" y1="37" x2="745" y2="37" stroke="pink" stroke-width="1" />
<rect x="745" y="35" width="28" height="5" style="fill:#5d3c2d;stroke:black;stroke-width:1;fill-opacity:1;stroke-opacity:0.3" />
<line x1="521" y1="156" x2="575" y2="158" stroke="black" stroke-width="1" />
<line x1="575" y1="158" x2="629" y2="156" stroke="black" stroke-width="1" />
<rect x="488" y="154" width="33" height="5" style="fill:#5d3c2d;stroke:black;stroke-width:1;fill-opacity:1;stroke-opacity:0.3" />
<rect x="629" y="154" width="6" height="5" style="fill:#5d3c2d;stroke:black;stroke-width:1;fill-opacity:1;stroke-opacity:0.3" />
<line x1="636" y1="156" x2="679" y2="156" stroke="pink" stroke-width="1" />
<rect x="679" y="154" width="13" height="5" style="fill:#5d3c2d;stroke:black;stroke-width:1;fill-opacity:1;stroke-opacity:0.3" />
<line x1="693" y1="156" x2="745" y2="156" stroke="pink" stroke-width="1" />
<rect x="745" y="154" width="13" height="5" style="fill:#5d3c2d;stroke:black;stroke-width:1;fill-opacity:1;stroke-opacity:0.3" />
<line x1="522" y1="163" x2="577" y2="165" stroke="black" stroke-width="1" />
<line x1="577" y1="165" x2="633" y2="163" stroke="black" stroke-width="1" />
<rect x="488" y="161" width="33" height="5" style="fill:#5d3c2d;stroke:black;stroke-width:1;fill-opacity:1;stroke-opacity:0.3" />
<rect x="633" y="161" width="3" height="5" style="fill:#5d3c2d;stroke:black;stroke-width:1;fill-opacity:1;stroke-opacity:0.3" />
<line x1="636" y1="163" x2="679" y2="163" stroke="pink" stroke-width="1" />
<rect x="679" y="161" width="13" height="5" style="fill:#5d3c2d;stroke:black;stroke-width:1;fill-opacity:1;stroke-opacity:0.3" />
<line x1="693" y1="163" x2="745" y2="163" stroke="pink" stroke-width="1" />
<rect x="745" y="161" width="16" height="5" style="fill:#5d3c2d;stroke:black;stroke-width:1;fill-opacity:1;stroke-opacity:0.3" />
<line x1="631" y1="58" x2="655" y2="60" stroke="black" stroke-width="1" />
<line x1="655" y1="60" x2="679" y2="58" stroke="black" stroke-width="1" />
<rect x="498" y="56" width="25" height="5" style="fill:#5d3c2d;stroke:black;stroke-width:1;fill-opacity:1;stroke-opacity:0.3" />
<line x1="524" y1="58" x2="623" y2="58" stroke="pink" stroke-width="1" />
<rect x="623" y="56" width="8" height="5" style="fill:#5d3c2d;stroke:black;stroke-width:1;fill-opacity:1;stroke-opacity:0.3" />
<rect x="679" y="56" width="13" height="5" style="fill:#5d3c2d;stroke:black;stroke-width:1;fill-opacity:1;stroke-opacity:0.3" />
<line x1="693" y1="58" x2="745" y2="58" stroke="pink" stroke-width="1" />
<rect x="745" y="56" width="20" height="5" style="fill:#5d3c2d;stroke:black;stroke-width:1;fill-opacity:1;stroke-opacity:0.3" />
<line x1="635" y1="65" x2="661" y2="67" stroke="black" stroke-width="1" />
<line x1="661" y1="67" x2="688" y2="65" stroke="black" stroke-width="1" />
<rect x="502" y="63" width="21" height="5" style="fill:#5d3c2d;stroke:black;stroke-width:1;fill-opacity:1;stroke-opacity:0.3" />
<line x1="524" y1="65" x2="623" y2="65" stroke="pink" stroke-width="1" />
<rect x="623" y="63" width="12" height="5" style="fill:#5d3c2d;stroke:black;stroke-width:1;fill-opacity:1;stroke-opacity:0.3" />
<rect x="688" y="63" width="4" height="5" style="fill:#5d3c2d;stroke:black;stroke-width:1;fill-opacity:1;stroke-opacity:0.3" />
<line x1="693" y1="65" x2="745" y2="65" stroke="pink" stroke-width="1" />
<rect x="745" y="63" width="29" height="5" style="fill:#5d3c2d;stroke:black;stroke-width:1;fill-opacity:1;stroke-opacity:0.3" />
<line x1="764" y1="93" x2="767" y2="95" stroke="black" stroke-width="1" />
<line x1="767" y1="95" x2="771" y2="93" stroke="black" stroke-width="1" />
<rect x="519" y="91" width="5" height="5" style="fill:#5d3c2d;stroke:black;stroke-width:1;fill-opacity:1;stroke-opacity:0.3" />
<line x1="524" y1="93" x2="623" y2="93" stroke="pink" stroke-width="1" />
<rect x="623" y="91" width="12" height="5" style="fill:#5d3c2d;stroke:black;stroke-width:1;fill-opacity:1;stroke-opacity:0.3" />
<line x1="636" y1="93" x2="679" y2="93" stroke="pink" stroke-width="1" />
<rect x="679" y="91" width="13" height="5" style="fill:#5d3c2d;stroke:black;stroke-width:1;fill-opacity:1;stroke-opacity:0.3" />
<line x1="693" y1="93" x2="745" y2="93" stroke="pink" stroke-width="1" />
<rect x="745" y="91" width="19" height="5" style="fill:#5d3c2d;stroke:black;stroke-width:1;fill-opacity:1;stroke-opacity:0.3" />
<rect x="771" y="91" width="10" height="5" style="fill:#5d3c2d;stroke:black;stroke-width:1;fill-opacity:1;stroke-opacity:0.3" />
<line x1="782" y1="93" x2="809" y2="93" stroke="pink" stroke-width="1" />
<rect x="809" y="91" width="39" height="5" style="fill:#5d3c2d;stroke:black;stroke-width:1;fill-opacity:1;stroke-opacity:0.3" />
<line x1="748" y1="86" x2="762" y2="88" stroke="black" stroke-width="1" />
<line x1="762" y1="88" x2="776" y2="86" stroke="black" stroke-width="1" />
<rect x="520" y="84" width="4" height="5" style="fill:#5d3c2d;stroke:black;stroke-width:1;fill-opacity:1;stroke-opacity:0.3" />
<line x1="524" y1="86" x2="623" y2="86" stroke="pink" stroke-width="1" />
<rect x="623" y="84" width="12" height="5" style="fill:#5d3c2d;stroke:black;stroke-width:1;fill-opacity:1;stroke-opacity:0.3" />
<line x1="636" y1="86" x2="679" y2="86" stroke="pink" stroke-width="1" />
<rect x="679" y="84" width="13" height="5" style="fill:#5d3c2d;stroke:black;stroke-width:1;fill-opacity:1;stroke-opacity:0.3" />
<line x1="693" y1="86" x2="745" y2="86" stroke="pink" stroke-width="1" />
<rect x="745" y="84" width="3" height="5" style="fill:#5d3c2d;stroke:black;stroke-width:1;fill-opacity:1;stroke-opacity:0.3" />
<rect x="776" y="84" width="6" height="5" style="fill:#5d3c2d;stroke:black;stroke-width:1;fill-opacity:1;stroke-opacity:0.3" />
<line x1="782" y1="86" x2="809" y2="86" stroke="pink" stroke-width="1" />
<rect x="809" y="84" width="26" height="5" style="fill:#5d3c2d;stroke:black;stroke-width:1;fill-opacity:1;stroke-opacity:0.3" />
<line x1="750" y1="79" x2="759" y2="81" stroke="black" stroke-width="1" />
<line x1="759" y1="81" x2="768" y2="79" stroke="black" stroke-width="1" />
<rect x="522" y="77" width="1" height="5" style="fill:#5d3c2d;stroke:black;stroke-width:1;fill-opacity:1;stroke-opacity:0.3" />
<line x1="524" y1="79" x2="623" y2="79" stroke="pink" stroke-width="1" />
<rect x="623" y="77" width="12" height="5" style="fill:#5d3c2d;stroke:black;stroke-width:1;fill-opacity:1;stroke-opacity:0.3" />
<line x1="636" y1="79" x2="679" y2="79" stroke="pink" stroke-width="1" />
<rect x="679" y="77" width="13" height="5" style="fill:#5d3c2d;stroke:black;stroke-width:1;fill-opacity:1;stroke-opacity:0.3" />
<line x1="693" y1="79" x2="745" y2="79" stroke="pink" stroke-width="1" />
<rect x="745" y="77" width="5" height="5" style="fill:#5d3c2d;stroke:black;stroke-width:1;fill-opacity:1;stroke-opacity:0.3" />
<rect x="768" y="77" width="14" height="5" style="fill:#5d3c2d;stroke:black;stroke-width:1;fill-opacity:1;stroke-opacity:0.3" />
<line x1="782" y1="79" x2="809" y2="79" stroke="pink" stroke-width="1" />
<rect x="809" y="77" width="19" height="5" style="fill:#5d3c2d;stroke:black;stroke-width:1;fill-opacity:1;stroke-opacity:0.3" />
<line x1="754" y1="114" x2="765" y2="116" stroke="black" stroke-width="1" />
<line x1="765" y1="116" x2="777" y2="114" stroke="black" stroke-width="1" />
<rect x="625" y="112" width="10" height="5" style="fill:#5d3c2d;stroke:black;stroke-width:1;fill-opacity:1;stroke-opacity:0.3" />
<line x1="636" y1="114" x2="679" y2="114" stroke="pink" stroke-width="1" />
<rect x="679" y="112" width="13" height="5" style="fill:#5d3c2d;stroke:black;stroke-width:1;fill-opacity:1;stroke-opacity:0.3" />
<line x1="693" y1="114" x2="745" y2="114" stroke="pink" stroke-width="1" />
<rect x="745" y="112" width="9" height="5" style="fill:#5d3c2d;stroke:black;stroke-width:1;fill-opacity:1;stroke-opacity:0.3" />
<rect x="777" y="112" width="33" height="5" style="fill:#5d3c2d;stroke:black;stroke-width:1;fill-opacity:1;stroke-opacity:0.3" />
<line x1="761" y1="51" x2="770" y2="53" stroke="black" stroke-width="1" />
<line x1="770" y1="53" x2="780" y2="51" stroke="black" stroke-width="1" />
<rect x="632" y="49" width="3" height="5" style="fill:#5d3c2d;stroke:black;stroke-width:1;fill-opacity:1;stroke-opacity:0.3" />
<line x1="636" y1="51" x2="679" y2="51" stroke="pink" stroke-width="1" />
<rect x="679" y="49" width="13" height="5" style="fill:#5d3c2d;stroke:black;stroke-width:1;fill-opacity:1;stroke-opacity:0.3" />
<line x1="693" y1="51" x2="745" y2="51" stroke="pink" stroke-width="1" />
<rect x="745" y="49" width="16" height="5" style="fill:#5d3c2d;stroke:black;stroke-width:1;fill-opacity:1;stroke-opacity:0.3" />
<rect x="780" y="49" width="2" height="5" style="fill:#5d3c2d;stroke:black;stroke-width:1;fill-opacity:1;stroke-opacity:0.3" />
<line x1="782" y1="51" x2="809" y2="51" stroke="pink" stroke-width="1" />
<rect x="809" y="49" width="29" height="5" style="fill:#5d3c2d;stroke:black;stroke-width:1;fill-opacity:1;stroke-opacity:0.3" />
<line x1="777" y1="107" x2="793" y2="109" stroke="black" stroke-width="1" />
<line x1="793" y1="109" x2="809" y2="107" stroke="black" stroke-width="1" />
<rect x="675" y="105" width="17" height="5" style="fill:#5d3c2d;stroke:black;stroke-width:1;fill-opacity:1;stroke-opacity:0.3" />
<line x1="693" y1="107" x2="745" y2="107" stroke="pink" stroke-width="1" />
<rect x="745" y="105" width="32" height="5" style="fill:#5d3c2d;stroke:black;stroke-width:1;fill-opacity:1;stroke-opacity:0.3" />
<rect x="809" y="105" width="50" height="5" style="fill:#5d3c2d;stroke:black;stroke-width:1;fill-opacity:1;stroke-opacity:0.3" />
<line x1="766" y1="121" x2="768" y2="123" stroke="black" stroke-width="1" />
<line x1="768" y1="123" x2="771" y2="121" stroke="black" stroke-width="1" />
<rect x="681" y="119" width="12" height="5" style="fill:#5d3c2d;stroke:black;stroke-width:1;fill-opacity:1;stroke-opacity:0.3" />
<line x1="693" y1="121" x2="745" y2="121" stroke="pink" stroke-width="1" />
<rect x="745" y="119" width="21" height="5" style="fill:#5d3c2d;stroke:black;stroke-width:1;fill-opacity:1;stroke-opacity:0.3" />
<rect x="771" y="119" width="11" height="5" style="fill:#5d3c2d;stroke:black;stroke-width:1;fill-opacity:1;stroke-opacity:0.3" />
<line x1="782" y1="121" x2="809" y2="121" stroke="pink" stroke-width="1" />
<rect x="809" y="119" width="22" height="5" style="fill:#5d3c2d;stroke:black;stroke-width:1;fill-opacity:1;stroke-opacity:0.3" />
<line x1="766" y1="135" x2="788" y2="137" stroke="black" stroke-width="1" />
<line x1="788" y1="137" x2="810" y2="135" stroke="black" stroke-width="1" />
<rect x="681" y="133" width="11" height="5" style="fill:#5d3c2d;stroke:black;stroke-width:1;fill-opacity:1;stroke-opacity:0.3" />
<line x1="693" y1="135" x2="745" y2="135" stroke="pink" stroke-width="1" />
<rect x="745" y="133" width="21" height="5" style="fill:#5d3c2d;stroke:black;stroke-width:1;fill-opacity:1;stroke-opacity:0.3" />
<rect x="810" y="133" width="33" height="5" style="fill:#5d3c2d;stroke:black;stroke-width:1;fill-opacity:1;stroke-opacity:0.3" />
<line x1="781" y1="72" x2="803" y2="74" stroke="black" stroke-width="1" />
<line x1="803" y1="74" x2="825" y2="72" stroke="black" stroke-width="1" />
<rect x="730" y="70" width="50" height="5" style="fill:#5d3c2d;stroke:black;stroke-width:1;fill-opacity:1;stroke-opacity:0.3" />
<rect x="825" y="70" width="50" height="5" style="fill:#5d3c2d;stroke:black;stroke-width:1;fill-opacity:1;stroke-opacity:0.3" />
<line x1="811" y1="100" x2="814" y2="102" stroke="black" stroke-width="1" />
<line x1="814" y1="102" x2="817" y2="100" stroke="black" stroke-width="1" />
<rect x="751" y="98" width="30" height="5" style="fill:#5d3c2d;stroke:black;stroke-width:1;fill-opacity:1;stroke-opacity:0.3" />
<line x1="782" y1="100" x2="809" y2="100" stroke="pink" stroke-width="1" />
<rect x="809" y="98" width="2" height="5" style="fill:#5d3c2d;stroke:black;stroke-width:1;fill-opacity:1;stroke-opacity:0.3" />
<rect x="817" y="98" width="33" height="5" style="fill:#5d3c2d;stroke:black;stroke-width:1;fill-opacity:1;stroke-opacity:0.3" />
<line x1="817" y1="128" x2="822" y2="130" stroke="black" stroke-width="1" />
<line x1="822" y1="130" x2="828" y2="128" stroke="black" stroke-width="1" />
<rect x="757" y="126" width="24" height="5" style="fill:#5d3c2d;stroke:black;stroke-width:1;fill-opacity:1;stroke-opacity:0.3" />
<line x1="782" y1="128" x2="809" y2="128" stroke="pink" stroke-width="1" />
<rect x="809" y="126" width="8" height="5" style="fill:#5d3c2d;stroke:black;stroke-width:1;fill-opacity:1;stroke-opacity:0.3" />
<rect x="828" y="126" width="33" height="5" style="fill:#5d3c2d;stroke:black;stroke-width:1;fill-opacity:1;stroke-opacity:0.3" />
<line x1="822" y1="156" x2="825" y2="158" stroke="black" stroke-width="1" />
<line x1="825" y1="158" x2="829" y2="156" stroke="black" stroke-width="1" />
<rect x="762" y="154" width="19" height="5" style="fill:#5d3c2d;stroke:black;stroke-width:1;fill-opacity:1;stroke-opacity:0.3" />
<line x1="782" y1="156" x2="809" y2="156" stroke="pink" stroke-width="1" />
<rect x="809" y="154" width="13" height="5" style="fill:#5d3c2d;stroke:black;stroke-width:1;fill-opacity:1;stroke-opacity:0.3" />
<rect x="829" y="154" width="33" height="5" style="fill:#5d3c2d;stroke:black;stroke-width:1;fill-opacity:1;stroke-opacity:0.3" />
<line x1="823" y1="163" x2="825" y2="165" stroke="black" stroke-width="1" />
<line x1="825" y1="165" x2="827" y2="163" stroke="black" stroke-width="1" />
<rect x="763" y="161" width="19" height="5" style="fill:#5d3c2d;stroke:black;stroke-width:1;fill-opacity:1;stroke-opacity:0.3" />
<line x1="782" y1="163" x2="809" y2="163" stroke="pink" stroke-width="1" />
<rect x="809" y="161" width="14" height="5" style="fill:#5d3c2d;stroke:black;stroke-width:1;fill-opacity:1;stroke-opacity:0.3" />
<rect x="827" y="161" width="33" height="5" style="fill:#5d3c2d;stroke:black;stroke-width:1;fill-opacity:1;stroke-opacity:0.3" />
<line x1="826" y1="58" x2="830" y2="60" stroke="black" stroke-width="1" />
<line x1="830" y1="60" x2="834" y2="58" stroke="black" stroke-width="1" />
<rect x="766" y="56" width="16" height="5" style="fill:#5d3c2d;stroke:black;stroke-width:1;fill-opacity:1;stroke-opacity:0.3" />
<line x1="782" y1="58" x2="809" y2="58" stroke="pink" stroke-width="1" />
<rect x="809" y="56" width="17" height="5" style="fill:#5d3c2d;stroke:black;stroke-width:1;fill-opacity:1;stroke-opacity:0.3" />
<rect x="834" y="56" width="33" height="5" style="fill:#5d3c2d;stroke:black;stroke-width:1;fill-opacity:1;stroke-opacity:0.3" />
<line x1="840" y1="30" x2="841" y2="32" stroke="black" stroke-width="1" />
<line x1="841" y1="32" x2="843" y2="30" stroke="black" stroke-width="1" />
<rect x="780" y="28" width="2" height="5" style="fill:#5d3c2d;stroke:black;stroke-width:1;fill-opacity:1;stroke-opacity:0.3" />
<line x1="782" y1="30" x2="809" y2="30" stroke="pink" stroke-width="1" />
<rect x="809" y="28" width="30" height="5" style="fill:#5d3c2d;stroke:black;stroke-width:1;fill-opacity:1;stroke-opacity:0.3" />
<rect x="843" y="28" width="32" height="5" style="fill:#5d3c2d;stroke:black;stroke-width:1;fill-opacity:1;stroke-opacity:0.3" />
<line x1="861" y1="37" x2="870" y2="39" stroke="black" stroke-width="1" />
<line x1="870" y1="39" x2="880" y2="37" stroke="black" stroke-width="1" />
<rect x="810" y="35" width="50" height="5" style="fill:#5d3c2d;stroke:black;stroke-width:1;fill-opacity:1;stroke-opacity:0.3" />
<rect x="880" y="35" width="50" height="5" style="fill:#5d3c2d;stroke:black;stroke-width:1;fill-opacity:1;stroke-opacity:0.3" />
<line x1="871" y1="44" x2="876" y2="46" stroke="black" stroke-width="1" />
<line x1="876" y1="46" x2="882" y2="44" stroke="black" stroke-width="1" />
<rect x="820" y="42" width="50" height="5" style="fill:#5d3c2d;stroke:black;stroke-width:1;fill-opacity:1;stroke-opacity:0.3" />
<rect x="882" y="42" width="50" height="5" style="fill:#5d3c2d;stroke:black;stroke-width:1;fill-opacity:1;stroke-opacity:0.3" />
<line x1="859" y1="65" x2="864" y2="67" stroke="black" stroke-width="1" />
<line x1="864" y1="67" x2="870" y2="65" stroke="black" stroke-width="1" />
<rect x="826" y="63" width="33" height="5" style="fill:#5d3c2d;stroke:black;stroke-width:1;fill-opacity:1;stroke-opacity:0.3" />
<rect x="870" y="63" width="33" height="5" style="fill:#5d3c2d;stroke:black;stroke-width:1;fill-opacity:1;stroke-opacity:0.3" />
<line x1="864" y1="79" x2="866" y2="81" stroke="black" stroke-width="1" />
<line x1="866" y1="81" x2="869" y2="79" stroke="black" stroke-width="1" />
<rect x="830" y="77" width="33" height="5" style="fill:#5d3c2d;stroke:black;stroke-width:1;fill-opacity:1;stroke-opacity:0.3" />
<rect x="869" y="77" width="33" height="5" style="fill:#5d3c2d;stroke:black;stroke-width:1;fill-opacity:1;stroke-opacity:0.3" />
<line x1="881" y1="51" x2="883" y2="53" stroke="black" stroke-width="1" />
<line x1="883" y1="53" x2="886" y2="51" stroke="black" stroke-width="1" />
<rect x="847" y="49" width="33" height="5" style="fill:#5d3c2d;stroke:black;stroke-width:1;fill-opacity:1;stroke-opacity:0.3" />
<rect x="886" y="49" width="33" height="5" style="fill:#5d3c2d;stroke:black;stroke-width:1;fill-opacity:1;stroke-opacity:0.3" />
<line x1="888" y1="86" x2="892" y2="88" stroke="black" stroke-width="1" />
<line x1="892" y1="88" x2="896" y2="86" stroke="black" stroke-width="1" />
<rect x="855" y="84" width="33" height="5" style="fill:#5d3c2d;stroke:black;stroke-width:1;fill-opacity:1;stroke-opacity:0.3" />
<rect x="896" y="84" width="33" height="5" style="fill:#5d3c2d;stroke:black;stroke-width:1;fill-opacity:1;stroke-opacity:0.3" />
<line x1="889" y1="93" x2="897" y2="95" stroke="black" stroke-width="1" />
<line x1="897" y1="95" x2="906" y2="93" stroke="black" stroke-width="1" />
<rect x="855" y="91" width="33" height="5" style="fill:#5d3c2d;stroke:black;stroke-width:1;fill-opacity:1;stroke-opacity:0.3" />
<rect x="906" y="91" width="33" height="5" style="fill:#5d3c2d;stroke:black;stroke-width:1;fill-opacity:1;stroke-opacity:0.3" />
<line x1="897" y1="100" x2="904" y2="102" stroke="black" stroke-width="1" />
<line x1="904" y1="102" x2="911" y2="100" stroke="black" stroke-width="1" />
<rect x="863" y="98" width="33" height="5" style="fill:#5d3c2d;stroke:black;stroke-width:1;fill-opacity:1;stroke-opacity:0.3" />
<rect x="911" y="98" width="33" height="5" style="fill:#5d3c2d;stroke:black;stroke-width:1;fill-opacity:1;stroke-opacity:0.3" />
<line x1="916" y1="107" x2="918" y2="109" stroke="black" stroke-width="1" />
<line x1="918" y1="109" x2="920" y2="107" stroke="black" stroke-width="1" />
<rect x="866" y="105" width="50" height="5" style="fill:#5d3c2d;stroke:black;stroke-width:1;fill-opacity:1;stroke-opacity:0.3" />
<rect x="920" y="105" width="50" height="5" style="fill:#5d3c2d;stroke:black;stroke-width:1;fill-opacity:1;stroke-opacity:0.3" />
<line x1="919" y1="58" x2="923" y2="60" stroke="black" stroke-width="1" />
<line x1="923" y1="60" x2="927" y2="58" stroke="black" stroke-width="1" />
<rect x="868" y="56" width="50" height="5" style="fill:#5d3c2d;stroke:black;stroke-width:1;fill-opacity:1;stroke-opacity:0.3" />
<rect x="927" y="56" width="50" height="5" style="fill:#5d3c2d;stroke:black;stroke-width:1;fill-opacity:1;stroke-opacity:0.3" />
<line x1="911" y1="30" x2="915" y2="32" stroke="black" stroke-width="1" />
<line x1="915" y1="32" x2="920" y2="30" stroke="black" stroke-width="1" />
<rect x="877" y="28" width="33" height="5" style="fill:#f5b024;stroke:black;stroke-width:1;fill-opacity:1;stroke-opacity:0.3" />
<rect x="920" y="28" width="33" height="5" style="fill:#f5b024;stroke:black;stroke-width:1;fill-opacity:1;stroke-opacity:0.3" />
<line x1="918" y1="72" x2="920" y2="74" stroke="black" stroke-width="1" />
<line x1="920" y1="74" x2="922" y2="72" stroke="black" stroke-width="1" />
<rect x="884" y="70" width="33" height="5" style="fill:#5d3c2d;stroke:black;stroke-width:1;fill-opacity:1;stroke-opacity:0.3" />
<rect x="922" y="70" width="33" height="5" style="fill:#5d3c2d;stroke:black;stroke-width:1;fill-opacity:1;stroke-opacity:0.3" />
<line x1="936" y1="114" x2="942" y2="116" stroke="black" stroke-width="1" />
<line x1="942" y1="116" x2="948" y2="114" stroke="black" stroke-width="1" />
<rect x="885" y="112" width="50" height="5" style="fill:#5d3c2d;stroke:black;stroke-width:1;fill-opacity:1;stroke-opacity:0.3" />
<rect x="948" y="112" width="50" height="5" style="fill:#5d3c2d;stroke:black;stroke-width:1;fill-opacity:1;stroke-opacity:0.3" />
<line x1="919" y1="121" x2="920" y2="123" stroke="black" stroke-width="1" />
<line x1="920" y1="123" x2="922" y2="121" stroke="black" stroke-width="1" />
<rect x="885" y="119" width="33" height="5" style="fill:#5d3c2d;stroke:black;stroke-width:1;fill-opacity:1;stroke-opacity:0.3" />
<rect x="922" y="119" width="33" height="5" style="fill:#5d3c2d;stroke:black;stroke-width:1;fill-opacity:1;stroke-opacity:0.3" />
<line x1="929" y1="128" x2="933" y2="130" stroke="black" stroke-width="1" />
<line x1="933" y1="130" x2="938" y2="128" stroke="black" stroke-width="1" />
<rect x="896" y="126" width="33" height="5" style="fill:#5d3c2d;stroke:black;stroke-width:1;fill-opacity:1;stroke-opacity:0.3" />
<rect x="938" y="126" width="33" height="5" style="fill:#5d3c2d;stroke:black;stroke-width:1;fill-opacity:1;stroke-opacity:0.3" />
<line x1="935" y1="135" x2="944" y2="137" stroke="black" stroke-width="1" />
<line x1="944" y1="137" x2="953" y2="135" stroke="black" stroke-width="1" />
<rect x="901" y="133" width="33" height="5" style="fill:#5d3c2d;stroke:black;stroke-width:1;fill-opacity:1;stroke-opacity:0.3" />
<rect x="953" y="133" width="33" height="5" style="fill:#5d3c2d;stroke:black;stroke-width:1;fill-opacity:1;stroke-opacity:0.3" />
<line x1="949" y1="65" x2="952" y2="67" stroke="black" stroke-width="1" />
<line x1="952" y1="67" x2="956" y2="65" stroke="black" stroke-width="1" />
<rect x="916" y="63" width="33" height="5" style="fill:#5d3c2d;stroke:black;stroke-width:1;fill-opacity:1;stroke-opacity:0.3" />
<rect x="956" y="63" width="33" height="5" style="fill:#5d3c2d;stroke:black;stroke-width:1;fill-opacity:1;stroke-opacity:0.3" />
<text x="15"  y="176" style="font-family:Arial;font-size:10;stroke:black;fill:black;">all.merged.bam</text>
</svg>
    
