<?xml version="1.0" encoding="utf-8" standalone="no"?>
<!DOCTYPE svg PUBLIC "-//W3C//DTD SVG 1.1//EN"
  "http://www.w3.org/Graphics/SVG/1.1/DTD/svg11.dtd">
<svg height="1140" width="1000" version="1.1" viewBox="0 0 1000 1140" xmlns="http://www.w3.org/2000/svg" xmlns:xlink="http://www.w3.org/1999/xlink">
<line x1="20" y1="11" x2="979" y2="11" stroke="black" stroke-width="1" />
<rect x="20" y="9" width="208" height="5" style="fill:#f50002;stroke:black;stroke-width:1;fill-opacity:1;stroke-opacity:0.3" />
<rect x="228" y="9" width="19" height="5" style="fill:#53a1b5;stroke:black;stroke-width:1;fill-opacity:1;stroke-opacity:0.3" />
<rect x="625" y="9" width="324" height="5" style="fill:#53a1b5;stroke:black;stroke-width:1;fill-opacity:1;stroke-opacity:0.3" />
<rect x="950" y="9" width="29" height="5" style="fill:#f50002;stroke:black;stroke-width:1;fill-opacity:1;stroke-opacity:0.3" />
<text x="20"  y="23" style="font-family:Arial;font-size:10;stroke:black;fill:black;">Cre15.g636700.t1.1.v5.5 (-) chromosome_15:489687-494452</text>
<line x1="658" y1="30" x2="661" y2="32" stroke="black" stroke-width="1" />
<line x1="661" y1="32" x2="665" y2="30" stroke="black" stroke-width="1" />
<rect x="638" y="28" width="20" height="5" style="fill:#f5b024;stroke:black;stroke-width:1;fill-opacity:1;stroke-opacity:0.3" />
<rect x="665" y="28" width="20" height="5" style="fill:#f5b024;stroke:black;stroke-width:1;fill-opacity:1;stroke-opacity:0.3" />
<line x1="662" y1="37" x2="665" y2="39" stroke="black" stroke-width="1" />
<line x1="665" y1="39" x2="668" y2="37" stroke="black" stroke-width="1" />
<rect x="644" y="35" width="18" height="5" style="fill:#f5b024;stroke:black;stroke-width:1;fill-opacity:1;stroke-opacity:0.3" />
<rect x="668" y="35" width="19" height="5" style="fill:#f5b024;stroke:black;stroke-width:1;fill-opacity:1;stroke-opacity:0.3" />
<line x1="676" y1="44" x2="678" y2="46" stroke="black" stroke-width="1" />
<line x1="678" y1="46" x2="680" y2="44" stroke="black" stroke-width="1" />
<rect x="646" y="42" width="30" height="5" style="fill:#f5b024;stroke:black;stroke-width:1;fill-opacity:1;stroke-opacity:0.3" />
<rect x="680" y="42" width="30" height="5" style="fill:#f5b024;stroke:black;stroke-width:1;fill-opacity:1;stroke-opacity:0.3" />
<line x1="669" y1="51" x2="674" y2="53" stroke="black" stroke-width="1" />
<line x1="674" y1="53" x2="679" y2="51" stroke="black" stroke-width="1" />
<rect x="650" y="49" width="19" height="5" style="fill:#5d3c2d;stroke:black;stroke-width:1;fill-opacity:1;stroke-opacity:0.3" />
<rect x="679" y="49" width="20" height="5" style="fill:#5d3c2d;stroke:black;stroke-width:1;fill-opacity:1;stroke-opacity:0.3" />
<line x1="672" y1="58" x2="675" y2="60" stroke="black" stroke-width="1" />
<line x1="675" y1="60" x2="679" y2="58" stroke="black" stroke-width="1" />
<rect x="652" y="56" width="20" height="5" style="fill:#5d3c2d;stroke:black;stroke-width:1;fill-opacity:1;stroke-opacity:0.3" />
<rect x="679" y="56" width="20" height="5" style="fill:#5d3c2d;stroke:black;stroke-width:1;fill-opacity:1;stroke-opacity:0.3" />
<line x1="672" y1="65" x2="679" y2="67" stroke="black" stroke-width="1" />
<line x1="679" y1="67" x2="686" y2="65" stroke="black" stroke-width="1" />
<rect x="652" y="63" width="20" height="5" style="fill:#5d3c2d;stroke:black;stroke-width:1;fill-opacity:1;stroke-opacity:0.3" />
<rect x="686" y="63" width="18" height="5" style="fill:#5d3c2d;stroke:black;stroke-width:1;fill-opacity:1;stroke-opacity:0.3" />
<line x1="681" y1="72" x2="686" y2="74" stroke="black" stroke-width="1" />
<line x1="686" y1="74" x2="692" y2="72" stroke="black" stroke-width="1" />
<rect x="662" y="70" width="18" height="5" style="fill:#f5b024;stroke:black;stroke-width:1;fill-opacity:1;stroke-opacity:0.3" />
<rect x="692" y="70" width="20" height="5" style="fill:#f5b024;stroke:black;stroke-width:1;fill-opacity:1;stroke-opacity:0.3" />
<line x1="688" y1="79" x2="696" y2="81" stroke="black" stroke-width="1" />
<line x1="696" y1="81" x2="705" y2="79" stroke="black" stroke-width="1" />
<rect x="668" y="77" width="20" height="5" style="fill:#f5b024;stroke:black;stroke-width:1;fill-opacity:1;stroke-opacity:0.3" />
<rect x="705" y="77" width="20" height="5" style="fill:#f5b024;stroke:black;stroke-width:1;fill-opacity:1;stroke-opacity:0.3" />
<line x1="696" y1="86" x2="703" y2="88" stroke="black" stroke-width="1" />
<line x1="703" y1="88" x2="710" y2="86" stroke="black" stroke-width="1" />
<rect x="676" y="84" width="19" height="5" style="fill:#f5b024;stroke:black;stroke-width:1;fill-opacity:1;stroke-opacity:0.3" />
<rect x="710" y="84" width="20" height="5" style="fill:#f5b024;stroke:black;stroke-width:1;fill-opacity:1;stroke-opacity:0.3" />
<line x1="698" y1="93" x2="703" y2="95" stroke="black" stroke-width="1" />
<line x1="703" y1="95" x2="709" y2="93" stroke="black" stroke-width="1" />
<rect x="678" y="91" width="20" height="5" style="fill:#f5b024;stroke:black;stroke-width:1;fill-opacity:1;stroke-opacity:0.3" />
<rect x="709" y="91" width="20" height="5" style="fill:#f5b024;stroke:black;stroke-width:1;fill-opacity:1;stroke-opacity:0.3" />
<line x1="699" y1="100" x2="706" y2="102" stroke="black" stroke-width="1" />
<line x1="706" y1="102" x2="714" y2="100" stroke="black" stroke-width="1" />
<rect x="679" y="98" width="20" height="5" style="fill:#f5b024;stroke:black;stroke-width:1;fill-opacity:1;stroke-opacity:0.3" />
<rect x="714" y="98" width="20" height="5" style="fill:#f5b024;stroke:black;stroke-width:1;fill-opacity:1;stroke-opacity:0.3" />
<line x1="704" y1="107" x2="713" y2="109" stroke="black" stroke-width="1" />
<line x1="713" y1="109" x2="723" y2="107" stroke="black" stroke-width="1" />
<rect x="684" y="105" width="20" height="5" style="fill:#f5b024;stroke:black;stroke-width:1;fill-opacity:1;stroke-opacity:0.3" />
<rect x="723" y="105" width="20" height="5" style="fill:#f5b024;stroke:black;stroke-width:1;fill-opacity:1;stroke-opacity:0.3" />
<line x1="708" y1="30" x2="713" y2="32" stroke="black" stroke-width="1" />
<line x1="713" y1="32" x2="719" y2="30" stroke="black" stroke-width="1" />
<rect x="688" y="28" width="20" height="5" style="fill:#f5b024;stroke:black;stroke-width:1;fill-opacity:1;stroke-opacity:0.3" />
<rect x="719" y="28" width="20" height="5" style="fill:#f5b024;stroke:black;stroke-width:1;fill-opacity:1;stroke-opacity:0.3" />
<line x1="713" y1="37" x2="715" y2="39" stroke="black" stroke-width="1" />
<line x1="715" y1="39" x2="717" y2="37" stroke="black" stroke-width="1" />
<rect x="693" y="35" width="20" height="5" style="fill:#f5b024;stroke:black;stroke-width:1;fill-opacity:1;stroke-opacity:0.3" />
<rect x="717" y="35" width="19" height="5" style="fill:#f5b024;stroke:black;stroke-width:1;fill-opacity:1;stroke-opacity:0.3" />
<line x1="830" y1="30" x2="845" y2="32" stroke="black" stroke-width="1" />
<line x1="845" y1="32" x2="861" y2="30" stroke="black" stroke-width="1" />
<rect x="810" y="28" width="20" height="5" style="fill:#f5b024;stroke:black;stroke-width:1;fill-opacity:1;stroke-opacity:0.3" />
<rect x="861" y="28" width="20" height="5" style="fill:#f5b024;stroke:black;stroke-width:1;fill-opacity:1;stroke-opacity:0.3" />
<line x1="856" y1="37" x2="858" y2="39" stroke="black" stroke-width="1" />
<line x1="858" y1="39" x2="861" y2="37" stroke="black" stroke-width="1" />
<rect x="836" y="35" width="20" height="5" style="fill:#f5b024;stroke:black;stroke-width:1;fill-opacity:1;stroke-opacity:0.3" />
<rect x="861" y="35" width="20" height="5" style="fill:#f5b024;stroke:black;stroke-width:1;fill-opacity:1;stroke-opacity:0.3" />
<line x1="857" y1="44" x2="858" y2="46" stroke="black" stroke-width="1" />
<line x1="858" y1="46" x2="860" y2="44" stroke="black" stroke-width="1" />
<rect x="836" y="42" width="20" height="5" style="fill:#5d3c2d;stroke:black;stroke-width:1;fill-opacity:1;stroke-opacity:0.3" />
<rect x="860" y="42" width="20" height="5" style="fill:#5d3c2d;stroke:black;stroke-width:1;fill-opacity:1;stroke-opacity:0.3" />
<line x1="899" y1="51" x2="900" y2="53" stroke="black" stroke-width="1" />
<line x1="900" y1="53" x2="902" y2="51" stroke="black" stroke-width="1" />
<rect x="869" y="49" width="30" height="5" style="fill:#f5b024;stroke:black;stroke-width:1;fill-opacity:1;stroke-opacity:0.3" />
<rect x="902" y="49" width="30" height="5" style="fill:#f5b024;stroke:black;stroke-width:1;fill-opacity:1;stroke-opacity:0.3" />
<line x1="893" y1="58" x2="898" y2="60" stroke="black" stroke-width="1" />
<line x1="898" y1="60" x2="903" y2="58" stroke="black" stroke-width="1" />
<rect x="873" y="56" width="20" height="5" style="fill:#f5b024;stroke:black;stroke-width:1;fill-opacity:1;stroke-opacity:0.3" />
<rect x="903" y="56" width="20" height="5" style="fill:#f5b024;stroke:black;stroke-width:1;fill-opacity:1;stroke-opacity:0.3" />
<line x1="900" y1="44" x2="906" y2="46" stroke="black" stroke-width="1" />
<line x1="906" y1="46" x2="913" y2="44" stroke="black" stroke-width="1" />
<rect x="880" y="42" width="20" height="5" style="fill:#f5b024;stroke:black;stroke-width:1;fill-opacity:1;stroke-opacity:0.3" />
<rect x="913" y="42" width="20" height="5" style="fill:#f5b024;stroke:black;stroke-width:1;fill-opacity:1;stroke-opacity:0.3" />
<line x1="901" y1="30" x2="906" y2="32" stroke="black" stroke-width="1" />
<line x1="906" y1="32" x2="912" y2="30" stroke="black" stroke-width="1" />
<rect x="881" y="28" width="20" height="5" style="fill:#f5b024;stroke:black;stroke-width:1;fill-opacity:1;stroke-opacity:0.3" />
<rect x="912" y="28" width="20" height="5" style="fill:#f5b024;stroke:black;stroke-width:1;fill-opacity:1;stroke-opacity:0.3" />
<line x1="911" y1="37" x2="916" y2="39" stroke="black" stroke-width="1" />
<line x1="916" y1="39" x2="921" y2="37" stroke="black" stroke-width="1" />
<rect x="881" y="35" width="30" height="5" style="fill:#f5b024;stroke:black;stroke-width:1;fill-opacity:1;stroke-opacity:0.3" />
<rect x="921" y="35" width="30" height="5" style="fill:#f5b024;stroke:black;stroke-width:1;fill-opacity:1;stroke-opacity:0.3" />
<line x1="936" y1="65" x2="937" y2="67" stroke="black" stroke-width="1" />
<line x1="937" y1="67" x2="939" y2="65" stroke="black" stroke-width="1" />
<rect x="916" y="63" width="20" height="5" style="fill:#f5b024;stroke:black;stroke-width:1;fill-opacity:1;stroke-opacity:0.3" />
<rect x="939" y="63" width="20" height="5" style="fill:#f5b024;stroke:black;stroke-width:1;fill-opacity:1;stroke-opacity:0.3" />
<line x1="948" y1="58" x2="953" y2="60" stroke="black" stroke-width="1" />
<line x1="953" y1="60" x2="958" y2="58" stroke="black" stroke-width="1" />
<rect x="928" y="56" width="19" height="5" style="fill:#f5b024;stroke:black;stroke-width:1;fill-opacity:1;stroke-opacity:0.3" />
<rect x="958" y="56" width="20" height="5" style="fill:#f5b024;stroke:black;stroke-width:1;fill-opacity:1;stroke-opacity:0.3" />
<line x1="949" y1="72" x2="953" y2="74" stroke="black" stroke-width="1" />
<line x1="953" y1="74" x2="958" y2="72" stroke="black" stroke-width="1" />
<rect x="928" y="70" width="20" height="5" style="fill:#f5b024;stroke:black;stroke-width:1;fill-opacity:1;stroke-opacity:0.3" />
<rect x="958" y="70" width="20" height="5" style="fill:#f5b024;stroke:black;stroke-width:1;fill-opacity:1;stroke-opacity:0.3" />
<line x1="949" y1="79" x2="951" y2="81" stroke="black" stroke-width="1" />
<line x1="951" y1="81" x2="953" y2="79" stroke="black" stroke-width="1" />
<rect x="929" y="77" width="20" height="5" style="fill:#f5b024;stroke:black;stroke-width:1;fill-opacity:1;stroke-opacity:0.3" />
<rect x="953" y="77" width="20" height="5" style="fill:#f5b024;stroke:black;stroke-width:1;fill-opacity:1;stroke-opacity:0.3" />
<line x1="957" y1="30" x2="959" y2="32" stroke="black" stroke-width="1" />
<line x1="959" y1="32" x2="961" y2="30" stroke="black" stroke-width="1" />
<rect x="937" y="28" width="20" height="5" style="fill:#f5b024;stroke:black;stroke-width:1;fill-opacity:1;stroke-opacity:0.3" />
<rect x="961" y="28" width="20" height="5" style="fill:#f5b024;stroke:black;stroke-width:1;fill-opacity:1;stroke-opacity:0.3" />
<text x="15"  y="176" style="font-family:Arial;font-size:10;stroke:black;fill:black;">all.merged.bam</text>
</svg>
    
