<?xml version="1.0" encoding="utf-8" standalone="no"?>
<!DOCTYPE svg PUBLIC "-//W3C//DTD SVG 1.1//EN"
  "http://www.w3.org/Graphics/SVG/1.1/DTD/svg11.dtd">
<svg height="1140" width="1000" version="1.1" viewBox="0 0 1000 1140" xmlns="http://www.w3.org/2000/svg" xmlns:xlink="http://www.w3.org/1999/xlink">
<line x1="85" y1="11" x2="914" y2="11" stroke="black" stroke-width="1" />
<rect x="85" y="9" width="563" height="5" style="fill:#f50002;stroke:black;stroke-width:1;fill-opacity:1;stroke-opacity:0.3" />
<rect x="649" y="9" width="226" height="5" style="fill:#53a1b5;stroke:black;stroke-width:1;fill-opacity:1;stroke-opacity:0.3" />
<rect x="876" y="9" width="37" height="5" style="fill:#f50002;stroke:black;stroke-width:1;fill-opacity:1;stroke-opacity:0.3" />
<text x="85"  y="23" style="font-family:Arial;font-size:10;stroke:black;fill:black;">Cre17.g741272.t1.1.v5.5 (-) chromosome_17:6076070-6077045</text>
<line x1="89" y1="30" x2="109" y2="32" stroke="black" stroke-width="1" />
<line x1="109" y1="32" x2="129" y2="30" stroke="black" stroke-width="1" />
<rect x="4" y="28" width="85" height="5" style="fill:#f5b024;stroke:black;stroke-width:1;fill-opacity:1;stroke-opacity:0.3" />
<rect x="129" y="28" width="85" height="5" style="fill:#f5b024;stroke:black;stroke-width:1;fill-opacity:1;stroke-opacity:0.3" />
<line x1="93" y1="37" x2="111" y2="39" stroke="black" stroke-width="1" />
<line x1="111" y1="39" x2="130" y2="37" stroke="black" stroke-width="1" />
<rect x="8" y="35" width="56" height="5" style="fill:#f5b024;stroke:black;stroke-width:1;fill-opacity:1;stroke-opacity:0.3" />
<rect x="65" y="35" width="28" height="5" style="fill:#f5b024;stroke:black;stroke-width:1;fill-opacity:1;stroke-opacity:0.3" />
<rect x="130" y="35" width="85" height="5" style="fill:#f5b024;stroke:black;stroke-width:1;fill-opacity:1;stroke-opacity:0.3" />
<line x1="107" y1="44" x2="132" y2="46" stroke="black" stroke-width="1" />
<line x1="132" y1="46" x2="158" y2="44" stroke="black" stroke-width="1" />
<rect x="23" y="42" width="84" height="5" style="fill:#f5b024;stroke:black;stroke-width:1;fill-opacity:1;stroke-opacity:0.3" />
<rect x="158" y="42" width="85" height="5" style="fill:#f5b024;stroke:black;stroke-width:1;fill-opacity:1;stroke-opacity:0.3" />
<line x1="109" y1="51" x2="121" y2="53" stroke="black" stroke-width="1" />
<line x1="121" y1="53" x2="133" y2="51" stroke="black" stroke-width="1" />
<rect x="24" y="49" width="85" height="5" style="fill:#f5b024;stroke:black;stroke-width:1;fill-opacity:1;stroke-opacity:0.3" />
<rect x="133" y="49" width="84" height="5" style="fill:#f5b024;stroke:black;stroke-width:1;fill-opacity:1;stroke-opacity:0.3" />
<line x1="109" y1="58" x2="128" y2="60" stroke="black" stroke-width="1" />
<line x1="128" y1="60" x2="148" y2="58" stroke="black" stroke-width="1" />
<rect x="24" y="56" width="85" height="5" style="fill:#f5b024;stroke:black;stroke-width:1;fill-opacity:1;stroke-opacity:0.3" />
<rect x="148" y="56" width="85" height="5" style="fill:#f5b024;stroke:black;stroke-width:1;fill-opacity:1;stroke-opacity:0.3" />
<line x1="141" y1="65" x2="145" y2="67" stroke="black" stroke-width="1" />
<line x1="145" y1="67" x2="150" y2="65" stroke="black" stroke-width="1" />
<rect x="29" y="63" width="111" height="5" style="fill:#5d3c2d;stroke:black;stroke-width:1;fill-opacity:1;stroke-opacity:0.3" />
<rect x="150" y="63" width="127" height="5" style="fill:#5d3c2d;stroke:black;stroke-width:1;fill-opacity:1;stroke-opacity:0.3" />
<line x1="116" y1="72" x2="136" y2="74" stroke="black" stroke-width="1" />
<line x1="136" y1="74" x2="157" y2="72" stroke="black" stroke-width="1" />
<rect x="31" y="70" width="85" height="5" style="fill:#f5b024;stroke:black;stroke-width:1;fill-opacity:1;stroke-opacity:0.3" />
<rect x="157" y="70" width="85" height="5" style="fill:#f5b024;stroke:black;stroke-width:1;fill-opacity:1;stroke-opacity:0.3" />
<line x1="159" y1="79" x2="167" y2="81" stroke="black" stroke-width="1" />
<line x1="167" y1="81" x2="176" y2="79" stroke="black" stroke-width="1" />
<rect x="31" y="77" width="127" height="5" style="fill:#f5b024;stroke:black;stroke-width:1;fill-opacity:1;stroke-opacity:0.3" />
<rect x="176" y="77" width="127" height="5" style="fill:#f5b024;stroke:black;stroke-width:1;fill-opacity:1;stroke-opacity:0.3" />
<line x1="116" y1="86" x2="127" y2="88" stroke="black" stroke-width="1" />
<line x1="127" y1="88" x2="139" y2="86" stroke="black" stroke-width="1" />
<rect x="32" y="84" width="84" height="5" style="fill:#f5b024;stroke:black;stroke-width:1;fill-opacity:1;stroke-opacity:0.3" />
<rect x="139" y="84" width="85" height="5" style="fill:#f5b024;stroke:black;stroke-width:1;fill-opacity:1;stroke-opacity:0.3" />
<line x1="117" y1="93" x2="135" y2="95" stroke="black" stroke-width="1" />
<line x1="135" y1="95" x2="154" y2="93" stroke="black" stroke-width="1" />
<rect x="32" y="91" width="85" height="5" style="fill:#f5b024;stroke:black;stroke-width:1;fill-opacity:1;stroke-opacity:0.3" />
<rect x="154" y="91" width="85" height="5" style="fill:#f5b024;stroke:black;stroke-width:1;fill-opacity:1;stroke-opacity:0.3" />
<line x1="117" y1="100" x2="121" y2="102" stroke="black" stroke-width="1" />
<line x1="121" y1="102" x2="126" y2="100" stroke="black" stroke-width="1" />
<rect x="32" y="98" width="85" height="5" style="fill:#f5b024;stroke:black;stroke-width:1;fill-opacity:1;stroke-opacity:0.3" />
<rect x="126" y="98" width="85" height="5" style="fill:#f5b024;stroke:black;stroke-width:1;fill-opacity:1;stroke-opacity:0.3" />
<line x1="117" y1="107" x2="121" y2="109" stroke="black" stroke-width="1" />
<line x1="121" y1="109" x2="125" y2="107" stroke="black" stroke-width="1" />
<rect x="32" y="105" width="85" height="5" style="fill:#f5b024;stroke:black;stroke-width:1;fill-opacity:1;stroke-opacity:0.3" />
<rect x="125" y="105" width="85" height="5" style="fill:#f5b024;stroke:black;stroke-width:1;fill-opacity:1;stroke-opacity:0.3" />
<line x1="116" y1="114" x2="132" y2="116" stroke="black" stroke-width="1" />
<line x1="132" y1="116" x2="148" y2="114" stroke="black" stroke-width="1" />
<rect x="32" y="112" width="84" height="5" style="fill:#f5b024;stroke:black;stroke-width:1;fill-opacity:1;stroke-opacity:0.3" />
<rect x="148" y="112" width="85" height="5" style="fill:#f5b024;stroke:black;stroke-width:1;fill-opacity:1;stroke-opacity:0.3" />
<line x1="159" y1="121" x2="165" y2="123" stroke="black" stroke-width="1" />
<line x1="165" y1="123" x2="171" y2="121" stroke="black" stroke-width="1" />
<rect x="32" y="119" width="127" height="5" style="fill:#f5b024;stroke:black;stroke-width:1;fill-opacity:1;stroke-opacity:0.3" />
<rect x="171" y="119" width="126" height="5" style="fill:#f5b024;stroke:black;stroke-width:1;fill-opacity:1;stroke-opacity:0.3" />
<line x1="116" y1="128" x2="163" y2="130" stroke="black" stroke-width="1" />
<line x1="163" y1="130" x2="210" y2="128" stroke="black" stroke-width="1" />
<rect x="32" y="126" width="84" height="5" style="fill:#f5b024;stroke:black;stroke-width:1;fill-opacity:1;stroke-opacity:0.3" />
<rect x="210" y="126" width="85" height="5" style="fill:#f5b024;stroke:black;stroke-width:1;fill-opacity:1;stroke-opacity:0.3" />
<line x1="116" y1="135" x2="127" y2="137" stroke="black" stroke-width="1" />
<line x1="127" y1="137" x2="138" y2="135" stroke="black" stroke-width="1" />
<rect x="33" y="133" width="83" height="5" style="fill:#f5b024;stroke:black;stroke-width:1;fill-opacity:1;stroke-opacity:0.3" />
<rect x="138" y="133" width="85" height="5" style="fill:#f5b024;stroke:black;stroke-width:1;fill-opacity:1;stroke-opacity:0.3" />
<line x1="120" y1="142" x2="139" y2="144" stroke="black" stroke-width="1" />
<line x1="139" y1="144" x2="159" y2="142" stroke="black" stroke-width="1" />
<rect x="35" y="140" width="85" height="5" style="fill:#f5b024;stroke:black;stroke-width:1;fill-opacity:1;stroke-opacity:0.3" />
<rect x="159" y="140" width="85" height="5" style="fill:#f5b024;stroke:black;stroke-width:1;fill-opacity:1;stroke-opacity:0.3" />
<line x1="120" y1="149" x2="125" y2="151" stroke="black" stroke-width="1" />
<line x1="125" y1="151" x2="131" y2="149" stroke="black" stroke-width="1" />
<rect x="35" y="147" width="85" height="5" style="fill:#f5b024;stroke:black;stroke-width:1;fill-opacity:1;stroke-opacity:0.3" />
<rect x="131" y="147" width="85" height="5" style="fill:#f5b024;stroke:black;stroke-width:1;fill-opacity:1;stroke-opacity:0.3" />
<line x1="120" y1="156" x2="134" y2="158" stroke="black" stroke-width="1" />
<line x1="134" y1="158" x2="148" y2="156" stroke="black" stroke-width="1" />
<rect x="35" y="154" width="85" height="5" style="fill:#f5b024;stroke:black;stroke-width:1;fill-opacity:1;stroke-opacity:0.3" />
<rect x="148" y="154" width="85" height="5" style="fill:#f5b024;stroke:black;stroke-width:1;fill-opacity:1;stroke-opacity:0.3" />
<line x1="120" y1="163" x2="126" y2="165" stroke="black" stroke-width="1" />
<line x1="126" y1="165" x2="133" y2="163" stroke="black" stroke-width="1" />
<rect x="35" y="161" width="85" height="5" style="fill:#f5b024;stroke:black;stroke-width:1;fill-opacity:1;stroke-opacity:0.3" />
<rect x="133" y="161" width="85" height="5" style="fill:#f5b024;stroke:black;stroke-width:1;fill-opacity:1;stroke-opacity:0.3" />
<line x1="295" y1="107" x2="304" y2="109" stroke="black" stroke-width="1" />
<line x1="304" y1="109" x2="314" y2="107" stroke="black" stroke-width="1" />
<rect x="210" y="105" width="85" height="5" style="fill:#f5b024;stroke:black;stroke-width:1;fill-opacity:1;stroke-opacity:0.3" />
<rect x="314" y="105" width="85" height="5" style="fill:#f5b024;stroke:black;stroke-width:1;fill-opacity:1;stroke-opacity:0.3" />
<line x1="301" y1="30" x2="307" y2="32" stroke="black" stroke-width="1" />
<line x1="307" y1="32" x2="314" y2="30" stroke="black" stroke-width="1" />
<rect x="216" y="28" width="85" height="5" style="fill:#f5b024;stroke:black;stroke-width:1;fill-opacity:1;stroke-opacity:0.3" />
<rect x="314" y="28" width="85" height="5" style="fill:#f5b024;stroke:black;stroke-width:1;fill-opacity:1;stroke-opacity:0.3" />
<line x1="303" y1="37" x2="310" y2="39" stroke="black" stroke-width="1" />
<line x1="310" y1="39" x2="318" y2="37" stroke="black" stroke-width="1" />
<rect x="218" y="35" width="85" height="5" style="fill:#5d3c2d;stroke:black;stroke-width:1;fill-opacity:1;stroke-opacity:0.3" />
<rect x="318" y="35" width="75" height="5" style="fill:#5d3c2d;stroke:black;stroke-width:1;fill-opacity:1;stroke-opacity:0.3" />
<line x1="301" y1="51" x2="309" y2="53" stroke="black" stroke-width="1" />
<line x1="309" y1="53" x2="318" y2="51" stroke="black" stroke-width="1" />
<rect x="218" y="49" width="83" height="5" style="fill:#f5b024;stroke:black;stroke-width:1;fill-opacity:1;stroke-opacity:0.3" />
<rect x="318" y="49" width="85" height="5" style="fill:#f5b024;stroke:black;stroke-width:1;fill-opacity:1;stroke-opacity:0.3" />
<line x1="303" y1="100" x2="310" y2="102" stroke="black" stroke-width="1" />
<line x1="310" y1="102" x2="318" y2="100" stroke="black" stroke-width="1" />
<rect x="218" y="98" width="85" height="5" style="fill:#f5b024;stroke:black;stroke-width:1;fill-opacity:1;stroke-opacity:0.3" />
<rect x="318" y="98" width="85" height="5" style="fill:#f5b024;stroke:black;stroke-width:1;fill-opacity:1;stroke-opacity:0.3" />
<line x1="304" y1="149" x2="334" y2="151" stroke="black" stroke-width="1" />
<line x1="334" y1="151" x2="365" y2="149" stroke="black" stroke-width="1" />
<rect x="220" y="147" width="84" height="5" style="fill:#f5b024;stroke:black;stroke-width:1;fill-opacity:1;stroke-opacity:0.3" />
<rect x="365" y="147" width="84" height="5" style="fill:#f5b024;stroke:black;stroke-width:1;fill-opacity:1;stroke-opacity:0.3" />
<line x1="306" y1="163" x2="337" y2="165" stroke="black" stroke-width="1" />
<line x1="337" y1="165" x2="369" y2="163" stroke="black" stroke-width="1" />
<rect x="221" y="161" width="85" height="5" style="fill:#f5b024;stroke:black;stroke-width:1;fill-opacity:1;stroke-opacity:0.3" />
<rect x="369" y="161" width="85" height="5" style="fill:#f5b024;stroke:black;stroke-width:1;fill-opacity:1;stroke-opacity:0.3" />
<line x1="314" y1="86" x2="373" y2="88" stroke="black" stroke-width="1" />
<line x1="373" y1="88" x2="432" y2="86" stroke="black" stroke-width="1" />
<rect x="230" y="84" width="84" height="5" style="fill:#f5b024;stroke:black;stroke-width:1;fill-opacity:1;stroke-opacity:0.3" />
<rect x="432" y="84" width="85" height="5" style="fill:#f5b024;stroke:black;stroke-width:1;fill-opacity:1;stroke-opacity:0.3" />
<line x1="319" y1="58" x2="358" y2="60" stroke="black" stroke-width="1" />
<line x1="358" y1="60" x2="397" y2="58" stroke="black" stroke-width="1" />
<rect x="234" y="56" width="85" height="5" style="fill:#f5b024;stroke:black;stroke-width:1;fill-opacity:1;stroke-opacity:0.3" />
<rect x="397" y="56" width="85" height="5" style="fill:#f5b024;stroke:black;stroke-width:1;fill-opacity:1;stroke-opacity:0.3" />
<line x1="319" y1="114" x2="358" y2="116" stroke="black" stroke-width="1" />
<line x1="358" y1="116" x2="397" y2="114" stroke="black" stroke-width="1" />
<rect x="234" y="112" width="85" height="5" style="fill:#f5b024;stroke:black;stroke-width:1;fill-opacity:1;stroke-opacity:0.3" />
<rect x="397" y="112" width="85" height="5" style="fill:#f5b024;stroke:black;stroke-width:1;fill-opacity:1;stroke-opacity:0.3" />
<line x1="322" y1="135" x2="368" y2="137" stroke="black" stroke-width="1" />
<line x1="368" y1="137" x2="414" y2="135" stroke="black" stroke-width="1" />
<rect x="237" y="133" width="85" height="5" style="fill:#f5b024;stroke:black;stroke-width:1;fill-opacity:1;stroke-opacity:0.3" />
<rect x="414" y="133" width="85" height="5" style="fill:#f5b024;stroke:black;stroke-width:1;fill-opacity:1;stroke-opacity:0.3" />
<line x1="328" y1="44" x2="342" y2="46" stroke="black" stroke-width="1" />
<line x1="342" y1="46" x2="357" y2="44" stroke="black" stroke-width="1" />
<rect x="243" y="42" width="85" height="5" style="fill:#f5b024;stroke:black;stroke-width:1;fill-opacity:1;stroke-opacity:0.3" />
<rect x="357" y="42" width="85" height="5" style="fill:#f5b024;stroke:black;stroke-width:1;fill-opacity:1;stroke-opacity:0.3" />
<line x1="328" y1="72" x2="343" y2="74" stroke="black" stroke-width="1" />
<line x1="343" y1="74" x2="359" y2="72" stroke="black" stroke-width="1" />
<rect x="243" y="70" width="85" height="5" style="fill:#f5b024;stroke:black;stroke-width:1;fill-opacity:1;stroke-opacity:0.3" />
<rect x="359" y="70" width="85" height="5" style="fill:#f5b024;stroke:black;stroke-width:1;fill-opacity:1;stroke-opacity:0.3" />
<line x1="330" y1="93" x2="361" y2="95" stroke="black" stroke-width="1" />
<line x1="361" y1="95" x2="393" y2="93" stroke="black" stroke-width="1" />
<rect x="245" y="91" width="85" height="5" style="fill:#5d3c2d;stroke:black;stroke-width:1;fill-opacity:1;stroke-opacity:0.3" />
<rect x="393" y="91" width="84" height="5" style="fill:#5d3c2d;stroke:black;stroke-width:1;fill-opacity:1;stroke-opacity:0.3" />
<line x1="330" y1="142" x2="360" y2="144" stroke="black" stroke-width="1" />
<line x1="360" y1="144" x2="391" y2="142" stroke="black" stroke-width="1" />
<rect x="245" y="140" width="85" height="5" style="fill:#f5b024;stroke:black;stroke-width:1;fill-opacity:1;stroke-opacity:0.3" />
<rect x="391" y="140" width="85" height="5" style="fill:#f5b024;stroke:black;stroke-width:1;fill-opacity:1;stroke-opacity:0.3" />
<line x1="331" y1="156" x2="337" y2="158" stroke="black" stroke-width="1" />
<line x1="337" y1="158" x2="343" y2="156" stroke="black" stroke-width="1" />
<rect x="246" y="154" width="85" height="5" style="fill:#f5b024;stroke:black;stroke-width:1;fill-opacity:1;stroke-opacity:0.3" />
<rect x="343" y="154" width="85" height="5" style="fill:#f5b024;stroke:black;stroke-width:1;fill-opacity:1;stroke-opacity:0.3" />
<line x1="362" y1="65" x2="372" y2="67" stroke="black" stroke-width="1" />
<line x1="372" y1="67" x2="382" y2="65" stroke="black" stroke-width="1" />
<rect x="278" y="63" width="84" height="5" style="fill:#5d3c2d;stroke:black;stroke-width:1;fill-opacity:1;stroke-opacity:0.3" />
<rect x="382" y="63" width="85" height="5" style="fill:#5d3c2d;stroke:black;stroke-width:1;fill-opacity:1;stroke-opacity:0.3" />
<line x1="379" y1="128" x2="383" y2="130" stroke="black" stroke-width="1" />
<line x1="383" y1="130" x2="388" y2="128" stroke="black" stroke-width="1" />
<rect x="295" y="126" width="84" height="5" style="fill:#f5b024;stroke:black;stroke-width:1;fill-opacity:1;stroke-opacity:0.3" />
<rect x="388" y="126" width="85" height="5" style="fill:#f5b024;stroke:black;stroke-width:1;fill-opacity:1;stroke-opacity:0.3" />
<line x1="384" y1="121" x2="388" y2="123" stroke="black" stroke-width="1" />
<line x1="388" y1="123" x2="392" y2="121" stroke="black" stroke-width="1" />
<rect x="300" y="119" width="84" height="5" style="fill:#5d3c2d;stroke:black;stroke-width:1;fill-opacity:1;stroke-opacity:0.3" />
<rect x="392" y="119" width="85" height="5" style="fill:#5d3c2d;stroke:black;stroke-width:1;fill-opacity:1;stroke-opacity:0.3" />
<line x1="390" y1="79" x2="403" y2="81" stroke="black" stroke-width="1" />
<line x1="403" y1="81" x2="416" y2="79" stroke="black" stroke-width="1" />
<rect x="305" y="77" width="85" height="5" style="fill:#f5b024;stroke:black;stroke-width:1;fill-opacity:1;stroke-opacity:0.3" />
<rect x="416" y="77" width="85" height="5" style="fill:#f5b024;stroke:black;stroke-width:1;fill-opacity:1;stroke-opacity:0.3" />
<line x1="473" y1="37" x2="484" y2="39" stroke="black" stroke-width="1" />
<line x1="484" y1="39" x2="495" y2="37" stroke="black" stroke-width="1" />
<rect x="396" y="35" width="77" height="5" style="fill:#f5b024;stroke:black;stroke-width:1;fill-opacity:1;stroke-opacity:0.3" />
<rect x="495" y="35" width="85" height="5" style="fill:#f5b024;stroke:black;stroke-width:1;fill-opacity:1;stroke-opacity:0.3" />
<line x1="490" y1="30" x2="499" y2="32" stroke="black" stroke-width="1" />
<line x1="499" y1="32" x2="508" y2="30" stroke="black" stroke-width="1" />
<rect x="405" y="28" width="85" height="5" style="fill:#f5b024;stroke:black;stroke-width:1;fill-opacity:1;stroke-opacity:0.3" />
<rect x="508" y="28" width="85" height="5" style="fill:#f5b024;stroke:black;stroke-width:1;fill-opacity:1;stroke-opacity:0.3" />
<line x1="493" y1="51" x2="522" y2="53" stroke="black" stroke-width="1" />
<line x1="522" y1="53" x2="551" y2="51" stroke="black" stroke-width="1" />
<rect x="408" y="49" width="85" height="5" style="fill:#f5b024;stroke:black;stroke-width:1;fill-opacity:1;stroke-opacity:0.3" />
<rect x="551" y="49" width="85" height="5" style="fill:#f5b024;stroke:black;stroke-width:1;fill-opacity:1;stroke-opacity:0.3" />
<line x1="494" y1="100" x2="501" y2="102" stroke="black" stroke-width="1" />
<line x1="501" y1="102" x2="508" y2="100" stroke="black" stroke-width="1" />
<rect x="409" y="98" width="85" height="5" style="fill:#5d3c2d;stroke:black;stroke-width:1;fill-opacity:1;stroke-opacity:0.3" />
<rect x="508" y="98" width="85" height="5" style="fill:#5d3c2d;stroke:black;stroke-width:1;fill-opacity:1;stroke-opacity:0.3" />
<line x1="495" y1="107" x2="511" y2="109" stroke="black" stroke-width="1" />
<line x1="511" y1="109" x2="527" y2="107" stroke="black" stroke-width="1" />
<rect x="410" y="105" width="85" height="5" style="fill:#f5b024;stroke:black;stroke-width:1;fill-opacity:1;stroke-opacity:0.3" />
<rect x="527" y="105" width="85" height="5" style="fill:#f5b024;stroke:black;stroke-width:1;fill-opacity:1;stroke-opacity:0.3" />
<line x1="517" y1="156" x2="543" y2="158" stroke="black" stroke-width="1" />
<line x1="543" y1="158" x2="569" y2="156" stroke="black" stroke-width="1" />
<rect x="432" y="154" width="85" height="5" style="fill:#f5b024;stroke:black;stroke-width:1;fill-opacity:1;stroke-opacity:0.3" />
<rect x="569" y="154" width="85" height="5" style="fill:#f5b024;stroke:black;stroke-width:1;fill-opacity:1;stroke-opacity:0.3" />
<line x1="526" y1="44" x2="538" y2="46" stroke="black" stroke-width="1" />
<line x1="538" y1="46" x2="550" y2="44" stroke="black" stroke-width="1" />
<rect x="443" y="42" width="83" height="5" style="fill:#f5b024;stroke:black;stroke-width:1;fill-opacity:1;stroke-opacity:0.3" />
<rect x="550" y="42" width="85" height="5" style="fill:#f5b024;stroke:black;stroke-width:1;fill-opacity:1;stroke-opacity:0.3" />
<line x1="529" y1="72" x2="539" y2="74" stroke="black" stroke-width="1" />
<line x1="539" y1="74" x2="550" y2="72" stroke="black" stroke-width="1" />
<rect x="444" y="70" width="85" height="5" style="fill:#f5b024;stroke:black;stroke-width:1;fill-opacity:1;stroke-opacity:0.3" />
<rect x="550" y="70" width="85" height="5" style="fill:#f5b024;stroke:black;stroke-width:1;fill-opacity:1;stroke-opacity:0.3" />
<line x1="536" y1="149" x2="540" y2="151" stroke="black" stroke-width="1" />
<line x1="540" y1="151" x2="545" y2="149" stroke="black" stroke-width="1" />
<rect x="452" y="147" width="84" height="5" style="fill:#f5b024;stroke:black;stroke-width:1;fill-opacity:1;stroke-opacity:0.3" />
<rect x="545" y="147" width="85" height="5" style="fill:#f5b024;stroke:black;stroke-width:1;fill-opacity:1;stroke-opacity:0.3" />
<line x1="539" y1="163" x2="560" y2="165" stroke="black" stroke-width="1" />
<line x1="560" y1="165" x2="581" y2="163" stroke="black" stroke-width="1" />
<rect x="455" y="161" width="83" height="5" style="fill:#f5b024;stroke:black;stroke-width:1;fill-opacity:1;stroke-opacity:0.3" />
<rect x="581" y="161" width="85" height="5" style="fill:#f5b024;stroke:black;stroke-width:1;fill-opacity:1;stroke-opacity:0.3" />
<line x1="555" y1="65" x2="570" y2="67" stroke="black" stroke-width="1" />
<line x1="570" y1="67" x2="586" y2="65" stroke="black" stroke-width="1" />
<rect x="470" y="63" width="85" height="5" style="fill:#f5b024;stroke:black;stroke-width:1;fill-opacity:1;stroke-opacity:0.3" />
<rect x="586" y="63" width="85" height="5" style="fill:#f5b024;stroke:black;stroke-width:1;fill-opacity:1;stroke-opacity:0.3" />
<line x1="559" y1="128" x2="574" y2="130" stroke="black" stroke-width="1" />
<line x1="574" y1="130" x2="590" y2="128" stroke="black" stroke-width="1" />
<rect x="474" y="126" width="85" height="5" style="fill:#f5b024;stroke:black;stroke-width:1;fill-opacity:1;stroke-opacity:0.3" />
<rect x="590" y="126" width="85" height="5" style="fill:#f5b024;stroke:black;stroke-width:1;fill-opacity:1;stroke-opacity:0.3" />
<line x1="562" y1="93" x2="578" y2="95" stroke="black" stroke-width="1" />
<line x1="578" y1="95" x2="595" y2="93" stroke="black" stroke-width="1" />
<rect x="477" y="91" width="84" height="5" style="fill:#f5b024;stroke:black;stroke-width:1;fill-opacity:1;stroke-opacity:0.3" />
<rect x="595" y="91" width="85" height="5" style="fill:#f5b024;stroke:black;stroke-width:1;fill-opacity:1;stroke-opacity:0.3" />
<line x1="591" y1="121" x2="640" y2="123" stroke="black" stroke-width="1" />
<line x1="640" y1="123" x2="690" y2="121" stroke="black" stroke-width="1" />
<rect x="478" y="119" width="113" height="5" style="fill:#5d3c2d;stroke:black;stroke-width:1;fill-opacity:1;stroke-opacity:0.3" />
<rect x="690" y="119" width="124" height="5" style="fill:#5d3c2d;stroke:black;stroke-width:1;fill-opacity:1;stroke-opacity:0.3" />
<line x1="561" y1="142" x2="575" y2="144" stroke="black" stroke-width="1" />
<line x1="575" y1="144" x2="590" y2="142" stroke="black" stroke-width="1" />
<rect x="478" y="140" width="82" height="5" style="fill:#f5b024;stroke:black;stroke-width:1;fill-opacity:1;stroke-opacity:0.3" />
<rect x="590" y="140" width="85" height="5" style="fill:#f5b024;stroke:black;stroke-width:1;fill-opacity:1;stroke-opacity:0.3" />
<line x1="565" y1="58" x2="580" y2="60" stroke="black" stroke-width="1" />
<line x1="580" y1="60" x2="596" y2="58" stroke="black" stroke-width="1" />
<rect x="483" y="56" width="81" height="5" style="fill:#5d3c2d;stroke:black;stroke-width:1;fill-opacity:1;stroke-opacity:0.3" />
<rect x="596" y="56" width="85" height="5" style="fill:#5d3c2d;stroke:black;stroke-width:1;fill-opacity:1;stroke-opacity:0.3" />
<line x1="567" y1="114" x2="574" y2="116" stroke="black" stroke-width="1" />
<line x1="574" y1="116" x2="581" y2="114" stroke="black" stroke-width="1" />
<rect x="485" y="112" width="81" height="5" style="fill:#f5b024;stroke:black;stroke-width:1;fill-opacity:1;stroke-opacity:0.3" />
<rect x="581" y="112" width="85" height="5" style="fill:#f5b024;stroke:black;stroke-width:1;fill-opacity:1;stroke-opacity:0.3" />
<line x1="592" y1="79" x2="655" y2="81" stroke="black" stroke-width="1" />
<line x1="655" y1="81" x2="718" y2="79" stroke="black" stroke-width="1" />
<rect x="507" y="77" width="85" height="5" style="fill:#f5b024;stroke:black;stroke-width:1;fill-opacity:1;stroke-opacity:0.3" />
<rect x="718" y="77" width="85" height="5" style="fill:#f5b024;stroke:black;stroke-width:1;fill-opacity:1;stroke-opacity:0.3" />
<line x1="603" y1="86" x2="642" y2="88" stroke="black" stroke-width="1" />
<line x1="642" y1="88" x2="681" y2="86" stroke="black" stroke-width="1" />
<rect x="519" y="84" width="84" height="5" style="fill:#f5b024;stroke:black;stroke-width:1;fill-opacity:1;stroke-opacity:0.3" />
<rect x="681" y="84" width="78" height="5" style="fill:#f5b024;stroke:black;stroke-width:1;fill-opacity:1;stroke-opacity:0.3" />
<line x1="605" y1="135" x2="702" y2="137" stroke="black" stroke-width="1" />
<line x1="702" y1="137" x2="799" y2="135" stroke="black" stroke-width="1" />
<rect x="520" y="133" width="85" height="5" style="fill:#f5b024;stroke:black;stroke-width:1;fill-opacity:1;stroke-opacity:0.3" />
<rect x="799" y="133" width="85" height="5" style="fill:#f5b024;stroke:black;stroke-width:1;fill-opacity:1;stroke-opacity:0.3" />
<line x1="665" y1="37" x2="673" y2="39" stroke="black" stroke-width="1" />
<line x1="673" y1="39" x2="681" y2="37" stroke="black" stroke-width="1" />
<rect x="580" y="35" width="85" height="5" style="fill:#f5b024;stroke:black;stroke-width:1;fill-opacity:1;stroke-opacity:0.3" />
<rect x="681" y="35" width="84" height="5" style="fill:#f5b024;stroke:black;stroke-width:1;fill-opacity:1;stroke-opacity:0.3" />
<line x1="679" y1="30" x2="683" y2="32" stroke="black" stroke-width="1" />
<line x1="683" y1="32" x2="687" y2="30" stroke="black" stroke-width="1" />
<rect x="594" y="28" width="85" height="5" style="fill:#f5b024;stroke:black;stroke-width:1;fill-opacity:1;stroke-opacity:0.3" />
<rect x="687" y="28" width="85" height="5" style="fill:#f5b024;stroke:black;stroke-width:1;fill-opacity:1;stroke-opacity:0.3" />
<line x1="680" y1="100" x2="698" y2="102" stroke="black" stroke-width="1" />
<line x1="698" y1="102" x2="717" y2="100" stroke="black" stroke-width="1" />
<rect x="595" y="98" width="85" height="5" style="fill:#f5b024;stroke:black;stroke-width:1;fill-opacity:1;stroke-opacity:0.3" />
<rect x="717" y="98" width="85" height="5" style="fill:#f5b024;stroke:black;stroke-width:1;fill-opacity:1;stroke-opacity:0.3" />
<line x1="693" y1="107" x2="707" y2="109" stroke="black" stroke-width="1" />
<line x1="707" y1="109" x2="722" y2="107" stroke="black" stroke-width="1" />
<rect x="613" y="105" width="79" height="5" style="fill:#f5b024;stroke:black;stroke-width:1;fill-opacity:1;stroke-opacity:0.3" />
<rect x="722" y="105" width="84" height="5" style="fill:#f5b024;stroke:black;stroke-width:1;fill-opacity:1;stroke-opacity:0.3" />
<line x1="715" y1="149" x2="725" y2="151" stroke="black" stroke-width="1" />
<line x1="725" y1="151" x2="736" y2="149" stroke="black" stroke-width="1" />
<rect x="630" y="147" width="85" height="5" style="fill:#f5b024;stroke:black;stroke-width:1;fill-opacity:1;stroke-opacity:0.3" />
<rect x="736" y="147" width="85" height="5" style="fill:#f5b024;stroke:black;stroke-width:1;fill-opacity:1;stroke-opacity:0.3" />
<line x1="720" y1="44" x2="749" y2="46" stroke="black" stroke-width="1" />
<line x1="749" y1="46" x2="778" y2="44" stroke="black" stroke-width="1" />
<rect x="635" y="42" width="85" height="5" style="fill:#f5b024;stroke:black;stroke-width:1;fill-opacity:1;stroke-opacity:0.3" />
<rect x="778" y="42" width="85" height="5" style="fill:#f5b024;stroke:black;stroke-width:1;fill-opacity:1;stroke-opacity:0.3" />
<line x1="720" y1="72" x2="744" y2="74" stroke="black" stroke-width="1" />
<line x1="744" y1="74" x2="769" y2="72" stroke="black" stroke-width="1" />
<rect x="635" y="70" width="85" height="5" style="fill:#f5b024;stroke:black;stroke-width:1;fill-opacity:1;stroke-opacity:0.3" />
<rect x="769" y="70" width="85" height="5" style="fill:#f5b024;stroke:black;stroke-width:1;fill-opacity:1;stroke-opacity:0.3" />
<line x1="719" y1="51" x2="723" y2="53" stroke="black" stroke-width="1" />
<line x1="723" y1="53" x2="728" y2="51" stroke="black" stroke-width="1" />
<rect x="636" y="49" width="83" height="5" style="fill:#f5b024;stroke:black;stroke-width:1;fill-opacity:1;stroke-opacity:0.3" />
<rect x="728" y="49" width="85" height="5" style="fill:#f5b024;stroke:black;stroke-width:1;fill-opacity:1;stroke-opacity:0.3" />
<line x1="742" y1="156" x2="748" y2="158" stroke="black" stroke-width="1" />
<line x1="748" y1="158" x2="754" y2="156" stroke="black" stroke-width="1" />
<rect x="657" y="154" width="85" height="5" style="fill:#f5b024;stroke:black;stroke-width:1;fill-opacity:1;stroke-opacity:0.3" />
<rect x="754" y="154" width="85" height="5" style="fill:#f5b024;stroke:black;stroke-width:1;fill-opacity:1;stroke-opacity:0.3" />
<line x1="750" y1="114" x2="761" y2="116" stroke="black" stroke-width="1" />
<line x1="761" y1="116" x2="772" y2="114" stroke="black" stroke-width="1" />
<rect x="666" y="112" width="83" height="5" style="fill:#5d3c2d;stroke:black;stroke-width:1;fill-opacity:1;stroke-opacity:0.3" />
<rect x="772" y="112" width="85" height="5" style="fill:#5d3c2d;stroke:black;stroke-width:1;fill-opacity:1;stroke-opacity:0.3" />
<line x1="752" y1="163" x2="763" y2="165" stroke="black" stroke-width="1" />
<line x1="763" y1="165" x2="775" y2="163" stroke="black" stroke-width="1" />
<rect x="667" y="161" width="85" height="5" style="fill:#f5b024;stroke:black;stroke-width:1;fill-opacity:1;stroke-opacity:0.3" />
<rect x="775" y="161" width="85" height="5" style="fill:#f5b024;stroke:black;stroke-width:1;fill-opacity:1;stroke-opacity:0.3" />
<line x1="755" y1="65" x2="777" y2="67" stroke="black" stroke-width="1" />
<line x1="777" y1="67" x2="799" y2="65" stroke="black" stroke-width="1" />
<rect x="673" y="63" width="81" height="5" style="fill:#f5b024;stroke:black;stroke-width:1;fill-opacity:1;stroke-opacity:0.3" />
<rect x="799" y="63" width="85" height="5" style="fill:#f5b024;stroke:black;stroke-width:1;fill-opacity:1;stroke-opacity:0.3" />
<line x1="762" y1="128" x2="788" y2="130" stroke="black" stroke-width="1" />
<line x1="788" y1="130" x2="815" y2="128" stroke="black" stroke-width="1" />
<rect x="677" y="126" width="85" height="5" style="fill:#f5b024;stroke:black;stroke-width:1;fill-opacity:1;stroke-opacity:0.3" />
<rect x="815" y="126" width="85" height="5" style="fill:#f5b024;stroke:black;stroke-width:1;fill-opacity:1;stroke-opacity:0.3" />
<line x1="764" y1="142" x2="777" y2="144" stroke="black" stroke-width="1" />
<line x1="777" y1="144" x2="790" y2="142" stroke="black" stroke-width="1" />
<rect x="679" y="140" width="85" height="5" style="fill:#f5b024;stroke:black;stroke-width:1;fill-opacity:1;stroke-opacity:0.3" />
<rect x="790" y="140" width="85" height="5" style="fill:#f5b024;stroke:black;stroke-width:1;fill-opacity:1;stroke-opacity:0.3" />
<line x1="775" y1="58" x2="796" y2="60" stroke="black" stroke-width="1" />
<line x1="796" y1="60" x2="818" y2="58" stroke="black" stroke-width="1" />
<rect x="691" y="56" width="84" height="5" style="fill:#f5b024;stroke:black;stroke-width:1;fill-opacity:1;stroke-opacity:0.3" />
<rect x="818" y="56" width="85" height="5" style="fill:#f5b024;stroke:black;stroke-width:1;fill-opacity:1;stroke-opacity:0.3" />
<line x1="777" y1="93" x2="790" y2="95" stroke="black" stroke-width="1" />
<line x1="790" y1="95" x2="803" y2="93" stroke="black" stroke-width="1" />
<rect x="692" y="91" width="85" height="5" style="fill:#f5b024;stroke:black;stroke-width:1;fill-opacity:1;stroke-opacity:0.3" />
<rect x="803" y="91" width="85" height="5" style="fill:#f5b024;stroke:black;stroke-width:1;fill-opacity:1;stroke-opacity:0.3" />
<line x1="845" y1="86" x2="865" y2="88" stroke="black" stroke-width="1" />
<line x1="865" y1="88" x2="886" y2="86" stroke="black" stroke-width="1" />
<rect x="760" y="84" width="85" height="5" style="fill:#f5b024;stroke:black;stroke-width:1;fill-opacity:1;stroke-opacity:0.3" />
<rect x="886" y="84" width="85" height="5" style="fill:#f5b024;stroke:black;stroke-width:1;fill-opacity:1;stroke-opacity:0.3" />
<line x1="851" y1="37" x2="866" y2="39" stroke="black" stroke-width="1" />
<line x1="866" y1="39" x2="881" y2="37" stroke="black" stroke-width="1" />
<rect x="766" y="35" width="85" height="5" style="fill:#f5b024;stroke:black;stroke-width:1;fill-opacity:1;stroke-opacity:0.3" />
<rect x="881" y="35" width="85" height="5" style="fill:#f5b024;stroke:black;stroke-width:1;fill-opacity:1;stroke-opacity:0.3" />
<line x1="859" y1="30" x2="883" y2="32" stroke="black" stroke-width="1" />
<line x1="883" y1="32" x2="907" y2="30" stroke="black" stroke-width="1" />
<rect x="774" y="28" width="85" height="5" style="fill:#5d3c2d;stroke:black;stroke-width:1;fill-opacity:1;stroke-opacity:0.3" />
<rect x="907" y="28" width="85" height="5" style="fill:#5d3c2d;stroke:black;stroke-width:1;fill-opacity:1;stroke-opacity:0.3" />
<line x1="891" y1="79" x2="898" y2="81" stroke="black" stroke-width="1" />
<line x1="898" y1="81" x2="905" y2="79" stroke="black" stroke-width="1" />
<rect x="806" y="77" width="85" height="5" style="fill:#5d3c2d;stroke:black;stroke-width:1;fill-opacity:1;stroke-opacity:0.3" />
<rect x="905" y="77" width="85" height="5" style="fill:#5d3c2d;stroke:black;stroke-width:1;fill-opacity:1;stroke-opacity:0.3" />
<line x1="896" y1="100" x2="900" y2="102" stroke="black" stroke-width="1" />
<line x1="900" y1="102" x2="904" y2="100" stroke="black" stroke-width="1" />
<rect x="812" y="98" width="84" height="5" style="fill:#5d3c2d;stroke:black;stroke-width:1;fill-opacity:1;stroke-opacity:0.3" />
<rect x="904" y="98" width="85" height="5" style="fill:#5d3c2d;stroke:black;stroke-width:1;fill-opacity:1;stroke-opacity:0.3" />
<text x="15"  y="176" style="font-family:Arial;font-size:10;stroke:black;fill:black;">all.merged.bam</text>
</svg>
    
