<?xml version="1.0" encoding="utf-8" standalone="no"?>
<!DOCTYPE svg PUBLIC "-//W3C//DTD SVG 1.1//EN"
  "http://www.w3.org/Graphics/SVG/1.1/DTD/svg11.dtd">
<svg height="1140" width="1000" version="1.1" viewBox="0 0 1000 1140" xmlns="http://www.w3.org/2000/svg" xmlns:xlink="http://www.w3.org/1999/xlink">
<line x1="39" y1="11" x2="959" y2="11" stroke="black" stroke-width="1" />
<rect x="39" y="9" width="296" height="5" style="fill:#f50002;stroke:black;stroke-width:1;fill-opacity:1;stroke-opacity:0.3" />
<rect x="336" y="9" width="22" height="5" style="fill:#53a1b5;stroke:black;stroke-width:1;fill-opacity:1;stroke-opacity:0.3" />
<rect x="383" y="9" width="55" height="5" style="fill:#53a1b5;stroke:black;stroke-width:1;fill-opacity:1;stroke-opacity:0.3" />
<rect x="572" y="9" width="66" height="5" style="fill:#53a1b5;stroke:black;stroke-width:1;fill-opacity:1;stroke-opacity:0.3" />
<rect x="736" y="9" width="173" height="5" style="fill:#53a1b5;stroke:black;stroke-width:1;fill-opacity:1;stroke-opacity:0.3" />
<rect x="910" y="9" width="49" height="5" style="fill:#f50002;stroke:black;stroke-width:1;fill-opacity:1;stroke-opacity:0.3" />
<text x="39"  y="23" style="font-family:Arial;font-size:10;stroke:black;fill:black;">Cre16.g663280.t1.2.v5.5 (-) chromosome_16:2825824-2828139</text>
<line x1="73" y1="30" x2="79" y2="32" stroke="black" stroke-width="1" />
<line x1="79" y1="32" x2="86" y2="30" stroke="black" stroke-width="1" />
<rect x="33" y="28" width="39" height="5" style="fill:#f5b024;stroke:black;stroke-width:1;fill-opacity:1;stroke-opacity:0.3" />
<rect x="86" y="28" width="39" height="5" style="fill:#f5b024;stroke:black;stroke-width:1;fill-opacity:1;stroke-opacity:0.3" />
<line x1="81" y1="37" x2="95" y2="39" stroke="black" stroke-width="1" />
<line x1="95" y1="39" x2="110" y2="37" stroke="black" stroke-width="1" />
<rect x="41" y="35" width="39" height="5" style="fill:#f5b024;stroke:black;stroke-width:1;fill-opacity:1;stroke-opacity:0.3" />
<rect x="110" y="35" width="39" height="5" style="fill:#f5b024;stroke:black;stroke-width:1;fill-opacity:1;stroke-opacity:0.3" />
<line x1="81" y1="44" x2="108" y2="46" stroke="black" stroke-width="1" />
<line x1="108" y1="46" x2="136" y2="44" stroke="black" stroke-width="1" />
<rect x="42" y="42" width="39" height="5" style="fill:#f5b024;stroke:black;stroke-width:1;fill-opacity:1;stroke-opacity:0.3" />
<rect x="136" y="42" width="39" height="5" style="fill:#f5b024;stroke:black;stroke-width:1;fill-opacity:1;stroke-opacity:0.3" />
<line x1="86" y1="51" x2="92" y2="53" stroke="black" stroke-width="1" />
<line x1="92" y1="53" x2="98" y2="51" stroke="black" stroke-width="1" />
<rect x="46" y="49" width="39" height="5" style="fill:#f5b024;stroke:black;stroke-width:1;fill-opacity:1;stroke-opacity:0.3" />
<rect x="98" y="49" width="39" height="5" style="fill:#f5b024;stroke:black;stroke-width:1;fill-opacity:1;stroke-opacity:0.3" />
<line x1="87" y1="58" x2="97" y2="60" stroke="black" stroke-width="1" />
<line x1="97" y1="60" x2="108" y2="58" stroke="black" stroke-width="1" />
<rect x="48" y="56" width="39" height="5" style="fill:#f5b024;stroke:black;stroke-width:1;fill-opacity:1;stroke-opacity:0.3" />
<rect x="108" y="56" width="39" height="5" style="fill:#f5b024;stroke:black;stroke-width:1;fill-opacity:1;stroke-opacity:0.3" />
<line x1="94" y1="65" x2="99" y2="67" stroke="black" stroke-width="1" />
<line x1="99" y1="67" x2="105" y2="65" stroke="black" stroke-width="1" />
<rect x="56" y="63" width="37" height="5" style="fill:#f5b024;stroke:black;stroke-width:1;fill-opacity:1;stroke-opacity:0.3" />
<rect x="105" y="63" width="39" height="5" style="fill:#f5b024;stroke:black;stroke-width:1;fill-opacity:1;stroke-opacity:0.3" />
<line x1="101" y1="72" x2="105" y2="74" stroke="black" stroke-width="1" />
<line x1="105" y1="74" x2="110" y2="72" stroke="black" stroke-width="1" />
<rect x="62" y="70" width="39" height="5" style="fill:#f5b024;stroke:black;stroke-width:1;fill-opacity:1;stroke-opacity:0.3" />
<rect x="110" y="70" width="39" height="5" style="fill:#f5b024;stroke:black;stroke-width:1;fill-opacity:1;stroke-opacity:0.3" />
<line x1="126" y1="79" x2="129" y2="81" stroke="black" stroke-width="1" />
<line x1="129" y1="81" x2="132" y2="79" stroke="black" stroke-width="1" />
<rect x="67" y="77" width="59" height="5" style="fill:#f5b024;stroke:black;stroke-width:1;fill-opacity:1;stroke-opacity:0.3" />
<rect x="132" y="77" width="59" height="5" style="fill:#f5b024;stroke:black;stroke-width:1;fill-opacity:1;stroke-opacity:0.3" />
<line x1="119" y1="86" x2="121" y2="88" stroke="black" stroke-width="1" />
<line x1="121" y1="88" x2="123" y2="86" stroke="black" stroke-width="1" />
<rect x="79" y="84" width="39" height="5" style="fill:#f5b024;stroke:black;stroke-width:1;fill-opacity:1;stroke-opacity:0.3" />
<rect x="123" y="84" width="39" height="5" style="fill:#f5b024;stroke:black;stroke-width:1;fill-opacity:1;stroke-opacity:0.3" />
<line x1="129" y1="93" x2="132" y2="95" stroke="black" stroke-width="1" />
<line x1="132" y1="95" x2="136" y2="93" stroke="black" stroke-width="1" />
<rect x="89" y="91" width="39" height="5" style="fill:#f5b024;stroke:black;stroke-width:1;fill-opacity:1;stroke-opacity:0.3" />
<rect x="136" y="91" width="39" height="5" style="fill:#f5b024;stroke:black;stroke-width:1;fill-opacity:1;stroke-opacity:0.3" />
<line x1="156" y1="100" x2="168" y2="102" stroke="black" stroke-width="1" />
<line x1="168" y1="102" x2="180" y2="100" stroke="black" stroke-width="1" />
<rect x="96" y="98" width="59" height="5" style="fill:#f5b024;stroke:black;stroke-width:1;fill-opacity:1;stroke-opacity:0.3" />
<rect x="180" y="98" width="59" height="5" style="fill:#f5b024;stroke:black;stroke-width:1;fill-opacity:1;stroke-opacity:0.3" />
<line x1="147" y1="107" x2="151" y2="109" stroke="black" stroke-width="1" />
<line x1="151" y1="109" x2="156" y2="107" stroke="black" stroke-width="1" />
<rect x="108" y="105" width="39" height="5" style="fill:#f5b024;stroke:black;stroke-width:1;fill-opacity:1;stroke-opacity:0.3" />
<rect x="156" y="105" width="39" height="5" style="fill:#f5b024;stroke:black;stroke-width:1;fill-opacity:1;stroke-opacity:0.3" />
<line x1="165" y1="114" x2="170" y2="116" stroke="black" stroke-width="1" />
<line x1="170" y1="116" x2="175" y2="114" stroke="black" stroke-width="1" />
<rect x="125" y="112" width="39" height="5" style="fill:#f5b024;stroke:black;stroke-width:1;fill-opacity:1;stroke-opacity:0.3" />
<rect x="175" y="112" width="39" height="5" style="fill:#f5b024;stroke:black;stroke-width:1;fill-opacity:1;stroke-opacity:0.3" />
<line x1="165" y1="121" x2="167" y2="123" stroke="black" stroke-width="1" />
<line x1="167" y1="123" x2="170" y2="121" stroke="black" stroke-width="1" />
<rect x="125" y="119" width="39" height="5" style="fill:#f5b024;stroke:black;stroke-width:1;fill-opacity:1;stroke-opacity:0.3" />
<rect x="170" y="119" width="39" height="5" style="fill:#f5b024;stroke:black;stroke-width:1;fill-opacity:1;stroke-opacity:0.3" />
<line x1="196" y1="30" x2="200" y2="32" stroke="black" stroke-width="1" />
<line x1="200" y1="32" x2="205" y2="30" stroke="black" stroke-width="1" />
<rect x="136" y="28" width="59" height="5" style="fill:#f5b024;stroke:black;stroke-width:1;fill-opacity:1;stroke-opacity:0.3" />
<rect x="205" y="28" width="59" height="5" style="fill:#f5b024;stroke:black;stroke-width:1;fill-opacity:1;stroke-opacity:0.3" />
<line x1="180" y1="51" x2="194" y2="53" stroke="black" stroke-width="1" />
<line x1="194" y1="53" x2="209" y2="51" stroke="black" stroke-width="1" />
<rect x="141" y="49" width="39" height="5" style="fill:#f5b024;stroke:black;stroke-width:1;fill-opacity:1;stroke-opacity:0.3" />
<rect x="209" y="49" width="39" height="5" style="fill:#f5b024;stroke:black;stroke-width:1;fill-opacity:1;stroke-opacity:0.3" />
<line x1="215" y1="37" x2="220" y2="39" stroke="black" stroke-width="1" />
<line x1="220" y1="39" x2="225" y2="37" stroke="black" stroke-width="1" />
<rect x="176" y="35" width="39" height="5" style="fill:#f5b024;stroke:black;stroke-width:1;fill-opacity:1;stroke-opacity:0.3" />
<rect x="225" y="35" width="39" height="5" style="fill:#f5b024;stroke:black;stroke-width:1;fill-opacity:1;stroke-opacity:0.3" />
<line x1="223" y1="44" x2="232" y2="46" stroke="black" stroke-width="1" />
<line x1="232" y1="46" x2="241" y2="44" stroke="black" stroke-width="1" />
<rect x="184" y="42" width="39" height="5" style="fill:#f5b024;stroke:black;stroke-width:1;fill-opacity:1;stroke-opacity:0.3" />
<rect x="241" y="42" width="39" height="5" style="fill:#f5b024;stroke:black;stroke-width:1;fill-opacity:1;stroke-opacity:0.3" />
<line x1="229" y1="58" x2="233" y2="60" stroke="black" stroke-width="1" />
<line x1="233" y1="60" x2="238" y2="58" stroke="black" stroke-width="1" />
<rect x="189" y="56" width="39" height="5" style="fill:#f5b024;stroke:black;stroke-width:1;fill-opacity:1;stroke-opacity:0.3" />
<rect x="238" y="56" width="39" height="5" style="fill:#f5b024;stroke:black;stroke-width:1;fill-opacity:1;stroke-opacity:0.3" />
<line x1="250" y1="65" x2="253" y2="67" stroke="black" stroke-width="1" />
<line x1="253" y1="67" x2="257" y2="65" stroke="black" stroke-width="1" />
<rect x="190" y="63" width="59" height="5" style="fill:#f5b024;stroke:black;stroke-width:1;fill-opacity:1;stroke-opacity:0.3" />
<rect x="257" y="63" width="59" height="5" style="fill:#f5b024;stroke:black;stroke-width:1;fill-opacity:1;stroke-opacity:0.3" />
<line x1="234" y1="72" x2="238" y2="74" stroke="black" stroke-width="1" />
<line x1="238" y1="74" x2="242" y2="72" stroke="black" stroke-width="1" />
<rect x="195" y="70" width="39" height="5" style="fill:#f5b024;stroke:black;stroke-width:1;fill-opacity:1;stroke-opacity:0.3" />
<rect x="242" y="70" width="39" height="5" style="fill:#f5b024;stroke:black;stroke-width:1;fill-opacity:1;stroke-opacity:0.3" />
<line x1="248" y1="79" x2="264" y2="81" stroke="black" stroke-width="1" />
<line x1="264" y1="81" x2="281" y2="79" stroke="black" stroke-width="1" />
<rect x="208" y="77" width="39" height="5" style="fill:#f5b024;stroke:black;stroke-width:1;fill-opacity:1;stroke-opacity:0.3" />
<rect x="281" y="77" width="39" height="5" style="fill:#f5b024;stroke:black;stroke-width:1;fill-opacity:1;stroke-opacity:0.3" />
<line x1="255" y1="86" x2="261" y2="88" stroke="black" stroke-width="1" />
<line x1="261" y1="88" x2="268" y2="86" stroke="black" stroke-width="1" />
<rect x="216" y="84" width="39" height="5" style="fill:#f5b024;stroke:black;stroke-width:1;fill-opacity:1;stroke-opacity:0.3" />
<rect x="268" y="84" width="39" height="5" style="fill:#f5b024;stroke:black;stroke-width:1;fill-opacity:1;stroke-opacity:0.3" />
<line x1="305" y1="30" x2="309" y2="32" stroke="black" stroke-width="1" />
<line x1="309" y1="32" x2="314" y2="30" stroke="black" stroke-width="1" />
<rect x="265" y="28" width="39" height="5" style="fill:#f5b024;stroke:black;stroke-width:1;fill-opacity:1;stroke-opacity:0.3" />
<rect x="314" y="28" width="39" height="5" style="fill:#f5b024;stroke:black;stroke-width:1;fill-opacity:1;stroke-opacity:0.3" />
<line x1="422" y1="30" x2="424" y2="32" stroke="black" stroke-width="1" />
<line x1="424" y1="32" x2="427" y2="30" stroke="black" stroke-width="1" />
<rect x="383" y="28" width="39" height="5" style="fill:#f5b024;stroke:black;stroke-width:1;fill-opacity:1;stroke-opacity:0.3" />
<rect x="427" y="28" width="11" height="5" style="fill:#f5b024;stroke:black;stroke-width:1;fill-opacity:1;stroke-opacity:0.3" />
<line x1="439" y1="30" x2="572" y2="30" stroke="pink" stroke-width="1" />
<rect x="572" y="28" width="27" height="5" style="fill:#f5b024;stroke:black;stroke-width:1;fill-opacity:1;stroke-opacity:0.3" />
<line x1="422" y1="37" x2="428" y2="39" stroke="black" stroke-width="1" />
<line x1="428" y1="39" x2="435" y2="37" stroke="black" stroke-width="1" />
<rect x="383" y="35" width="39" height="5" style="fill:#5d3c2d;stroke:black;stroke-width:1;fill-opacity:1;stroke-opacity:0.3" />
<rect x="435" y="35" width="3" height="5" style="fill:#5d3c2d;stroke:black;stroke-width:1;fill-opacity:1;stroke-opacity:0.3" />
<line x1="439" y1="37" x2="572" y2="37" stroke="pink" stroke-width="1" />
<rect x="572" y="35" width="35" height="5" style="fill:#5d3c2d;stroke:black;stroke-width:1;fill-opacity:1;stroke-opacity:0.3" />
<line x1="423" y1="44" x2="425" y2="46" stroke="black" stroke-width="1" />
<line x1="425" y1="46" x2="428" y2="44" stroke="black" stroke-width="1" />
<rect x="383" y="42" width="39" height="5" style="fill:#f5b024;stroke:black;stroke-width:1;fill-opacity:1;stroke-opacity:0.3" />
<rect x="428" y="42" width="10" height="5" style="fill:#f5b024;stroke:black;stroke-width:1;fill-opacity:1;stroke-opacity:0.3" />
<line x1="439" y1="44" x2="572" y2="44" stroke="pink" stroke-width="1" />
<rect x="572" y="42" width="29" height="5" style="fill:#f5b024;stroke:black;stroke-width:1;fill-opacity:1;stroke-opacity:0.3" />
<line x1="423" y1="51" x2="428" y2="53" stroke="black" stroke-width="1" />
<line x1="428" y1="53" x2="433" y2="51" stroke="black" stroke-width="1" />
<rect x="383" y="49" width="39" height="5" style="fill:#f5b024;stroke:black;stroke-width:1;fill-opacity:1;stroke-opacity:0.3" />
<rect x="433" y="49" width="5" height="5" style="fill:#f5b024;stroke:black;stroke-width:1;fill-opacity:1;stroke-opacity:0.3" />
<line x1="439" y1="51" x2="572" y2="51" stroke="pink" stroke-width="1" />
<rect x="572" y="49" width="33" height="5" style="fill:#f5b024;stroke:black;stroke-width:1;fill-opacity:1;stroke-opacity:0.3" />
<line x1="424" y1="58" x2="428" y2="60" stroke="black" stroke-width="1" />
<line x1="428" y1="60" x2="433" y2="58" stroke="black" stroke-width="1" />
<rect x="384" y="56" width="39" height="5" style="fill:#f5b024;stroke:black;stroke-width:1;fill-opacity:1;stroke-opacity:0.3" />
<rect x="433" y="56" width="5" height="5" style="fill:#f5b024;stroke:black;stroke-width:1;fill-opacity:1;stroke-opacity:0.3" />
<line x1="439" y1="58" x2="572" y2="58" stroke="pink" stroke-width="1" />
<rect x="572" y="56" width="33" height="5" style="fill:#f5b024;stroke:black;stroke-width:1;fill-opacity:1;stroke-opacity:0.3" />
<line x1="431" y1="65" x2="434" y2="67" stroke="black" stroke-width="1" />
<line x1="434" y1="67" x2="437" y2="65" stroke="black" stroke-width="1" />
<rect x="391" y="63" width="39" height="5" style="fill:#f5b024;stroke:black;stroke-width:1;fill-opacity:1;stroke-opacity:0.3" />
<rect x="437" y="63" width="1" height="5" style="fill:#f5b024;stroke:black;stroke-width:1;fill-opacity:1;stroke-opacity:0.3" />
<line x1="439" y1="65" x2="572" y2="65" stroke="pink" stroke-width="1" />
<rect x="572" y="63" width="38" height="5" style="fill:#f5b024;stroke:black;stroke-width:1;fill-opacity:1;stroke-opacity:0.3" />
<line x1="432" y1="72" x2="434" y2="74" stroke="black" stroke-width="1" />
<line x1="434" y1="74" x2="437" y2="72" stroke="black" stroke-width="1" />
<rect x="393" y="70" width="39" height="5" style="fill:#f5b024;stroke:black;stroke-width:1;fill-opacity:1;stroke-opacity:0.3" />
<rect x="437" y="70" width="1" height="5" style="fill:#f5b024;stroke:black;stroke-width:1;fill-opacity:1;stroke-opacity:0.3" />
<line x1="439" y1="72" x2="572" y2="72" stroke="pink" stroke-width="1" />
<rect x="572" y="70" width="38" height="5" style="fill:#f5b024;stroke:black;stroke-width:1;fill-opacity:1;stroke-opacity:0.3" />
<line x1="437" y1="79" x2="505" y2="81" stroke="black" stroke-width="1" />
<line x1="505" y1="81" x2="573" y2="79" stroke="black" stroke-width="1" />
<rect x="397" y="77" width="39" height="5" style="fill:#f5b024;stroke:black;stroke-width:1;fill-opacity:1;stroke-opacity:0.3" />
<rect x="573" y="77" width="39" height="5" style="fill:#f5b024;stroke:black;stroke-width:1;fill-opacity:1;stroke-opacity:0.3" />
<line x1="438" y1="86" x2="506" y2="88" stroke="black" stroke-width="1" />
<line x1="506" y1="88" x2="574" y2="86" stroke="black" stroke-width="1" />
<rect x="399" y="84" width="39" height="5" style="fill:#f5b024;stroke:black;stroke-width:1;fill-opacity:1;stroke-opacity:0.3" />
<rect x="574" y="84" width="39" height="5" style="fill:#f5b024;stroke:black;stroke-width:1;fill-opacity:1;stroke-opacity:0.3" />
<line x1="577" y1="93" x2="585" y2="95" stroke="black" stroke-width="1" />
<line x1="585" y1="95" x2="593" y2="93" stroke="black" stroke-width="1" />
<rect x="403" y="91" width="35" height="5" style="fill:#f5b024;stroke:black;stroke-width:1;fill-opacity:1;stroke-opacity:0.3" />
<line x1="439" y1="93" x2="572" y2="93" stroke="pink" stroke-width="1" />
<rect x="572" y="91" width="4" height="5" style="fill:#f5b024;stroke:black;stroke-width:1;fill-opacity:1;stroke-opacity:0.3" />
<rect x="593" y="91" width="39" height="5" style="fill:#f5b024;stroke:black;stroke-width:1;fill-opacity:1;stroke-opacity:0.3" />
<line x1="499" y1="100" x2="512" y2="102" stroke="black" stroke-width="1" />
<line x1="512" y1="102" x2="525" y2="100" stroke="black" stroke-width="1" />
<rect x="459" y="98" width="39" height="5" style="fill:#f5b024;stroke:black;stroke-width:1;fill-opacity:1;stroke-opacity:0.3" />
<rect x="525" y="98" width="39" height="5" style="fill:#f5b024;stroke:black;stroke-width:1;fill-opacity:1;stroke-opacity:0.3" />
<line x1="618" y1="100" x2="624" y2="102" stroke="black" stroke-width="1" />
<line x1="624" y1="102" x2="631" y2="100" stroke="black" stroke-width="1" />
<rect x="578" y="98" width="39" height="5" style="fill:#f5b024;stroke:black;stroke-width:1;fill-opacity:1;stroke-opacity:0.3" />
<rect x="631" y="98" width="39" height="5" style="fill:#f5b024;stroke:black;stroke-width:1;fill-opacity:1;stroke-opacity:0.3" />
<line x1="622" y1="107" x2="631" y2="109" stroke="black" stroke-width="1" />
<line x1="631" y1="109" x2="640" y2="107" stroke="black" stroke-width="1" />
<rect x="582" y="105" width="39" height="5" style="fill:#f5b024;stroke:black;stroke-width:1;fill-opacity:1;stroke-opacity:0.3" />
<rect x="640" y="105" width="39" height="5" style="fill:#f5b024;stroke:black;stroke-width:1;fill-opacity:1;stroke-opacity:0.3" />
<line x1="639" y1="114" x2="643" y2="116" stroke="black" stroke-width="1" />
<line x1="643" y1="116" x2="647" y2="114" stroke="black" stroke-width="1" />
<rect x="599" y="112" width="39" height="5" style="fill:#5d3c2d;stroke:black;stroke-width:1;fill-opacity:1;stroke-opacity:0.3" />
<rect x="647" y="112" width="39" height="5" style="fill:#5d3c2d;stroke:black;stroke-width:1;fill-opacity:1;stroke-opacity:0.3" />
<line x1="649" y1="30" x2="654" y2="32" stroke="black" stroke-width="1" />
<line x1="654" y1="32" x2="659" y2="30" stroke="black" stroke-width="1" />
<rect x="609" y="28" width="39" height="5" style="fill:#f5b024;stroke:black;stroke-width:1;fill-opacity:1;stroke-opacity:0.3" />
<rect x="659" y="28" width="39" height="5" style="fill:#f5b024;stroke:black;stroke-width:1;fill-opacity:1;stroke-opacity:0.3" />
<line x1="708" y1="37" x2="711" y2="39" stroke="black" stroke-width="1" />
<line x1="711" y1="39" x2="714" y2="37" stroke="black" stroke-width="1" />
<rect x="668" y="35" width="39" height="5" style="fill:#f5b024;stroke:black;stroke-width:1;fill-opacity:1;stroke-opacity:0.3" />
<rect x="714" y="35" width="39" height="5" style="fill:#f5b024;stroke:black;stroke-width:1;fill-opacity:1;stroke-opacity:0.3" />
<line x1="735" y1="44" x2="737" y2="46" stroke="black" stroke-width="1" />
<line x1="737" y1="46" x2="739" y2="44" stroke="black" stroke-width="1" />
<rect x="675" y="42" width="59" height="5" style="fill:#f5b024;stroke:black;stroke-width:1;fill-opacity:1;stroke-opacity:0.3" />
<rect x="739" y="42" width="59" height="5" style="fill:#f5b024;stroke:black;stroke-width:1;fill-opacity:1;stroke-opacity:0.3" />
<line x1="726" y1="51" x2="738" y2="53" stroke="black" stroke-width="1" />
<line x1="738" y1="53" x2="751" y2="51" stroke="black" stroke-width="1" />
<rect x="686" y="49" width="39" height="5" style="fill:#f5b024;stroke:black;stroke-width:1;fill-opacity:1;stroke-opacity:0.3" />
<rect x="751" y="49" width="39" height="5" style="fill:#f5b024;stroke:black;stroke-width:1;fill-opacity:1;stroke-opacity:0.3" />
<line x1="779" y1="30" x2="782" y2="32" stroke="black" stroke-width="1" />
<line x1="782" y1="32" x2="785" y2="30" stroke="black" stroke-width="1" />
<rect x="739" y="28" width="39" height="5" style="fill:#f5b024;stroke:black;stroke-width:1;fill-opacity:1;stroke-opacity:0.3" />
<rect x="785" y="28" width="39" height="5" style="fill:#f5b024;stroke:black;stroke-width:1;fill-opacity:1;stroke-opacity:0.3" />
<line x1="801" y1="37" x2="806" y2="39" stroke="black" stroke-width="1" />
<line x1="806" y1="39" x2="812" y2="37" stroke="black" stroke-width="1" />
<rect x="761" y="35" width="39" height="5" style="fill:#f5b024;stroke:black;stroke-width:1;fill-opacity:1;stroke-opacity:0.3" />
<rect x="812" y="35" width="39" height="5" style="fill:#f5b024;stroke:black;stroke-width:1;fill-opacity:1;stroke-opacity:0.3" />
<line x1="903" y1="30" x2="911" y2="32" stroke="black" stroke-width="1" />
<line x1="911" y1="32" x2="920" y2="30" stroke="black" stroke-width="1" />
<rect x="864" y="28" width="39" height="5" style="fill:#f5b024;stroke:black;stroke-width:1;fill-opacity:1;stroke-opacity:0.3" />
<rect x="920" y="28" width="39" height="5" style="fill:#f5b024;stroke:black;stroke-width:1;fill-opacity:1;stroke-opacity:0.3" />
<text x="15"  y="176" style="font-family:Arial;font-size:10;stroke:black;fill:black;">all.merged.bam</text>
</svg>
    
