<?xml version="1.0" encoding="utf-8" standalone="no"?>
<!DOCTYPE svg PUBLIC "-//W3C//DTD SVG 1.1//EN"
  "http://www.w3.org/Graphics/SVG/1.1/DTD/svg11.dtd">
<svg height="1140" width="1000" version="1.1" viewBox="0 0 1000 1140" xmlns="http://www.w3.org/2000/svg" xmlns:xlink="http://www.w3.org/1999/xlink">
<line x1="28" y1="11" x2="971" y2="11" stroke="black" stroke-width="1" />
<rect x="28" y="9" width="119" height="5" style="fill:#f50002;stroke:black;stroke-width:1;fill-opacity:1;stroke-opacity:0.3" />
<rect x="147" y="9" width="17" height="5" style="fill:#53a1b5;stroke:black;stroke-width:1;fill-opacity:1;stroke-opacity:0.3" />
<rect x="211" y="9" width="17" height="5" style="fill:#53a1b5;stroke:black;stroke-width:1;fill-opacity:1;stroke-opacity:0.3" />
<rect x="284" y="9" width="12" height="5" style="fill:#53a1b5;stroke:black;stroke-width:1;fill-opacity:1;stroke-opacity:0.3" />
<rect x="332" y="9" width="18" height="5" style="fill:#53a1b5;stroke:black;stroke-width:1;fill-opacity:1;stroke-opacity:0.3" />
<rect x="622" y="9" width="21" height="5" style="fill:#53a1b5;stroke:black;stroke-width:1;fill-opacity:1;stroke-opacity:0.3" />
<rect x="736" y="9" width="23" height="5" style="fill:#53a1b5;stroke:black;stroke-width:1;fill-opacity:1;stroke-opacity:0.3" />
<rect x="851" y="9" width="74" height="5" style="fill:#53a1b5;stroke:black;stroke-width:1;fill-opacity:1;stroke-opacity:0.3" />
<rect x="925" y="9" width="45" height="5" style="fill:#f50002;stroke:black;stroke-width:1;fill-opacity:1;stroke-opacity:0.3" />
<text x="28"  y="23" style="font-family:Arial;font-size:10;stroke:black;fill:black;">Cre16.g675050.t1.1.v5.5 (-) chromosome_16:6224626-6227995</text>
<line x1="61" y1="30" x2="74" y2="32" stroke="black" stroke-width="1" />
<line x1="74" y1="32" x2="87" y2="30" stroke="black" stroke-width="1" />
<rect x="33" y="28" width="28" height="5" style="fill:#f5b024;stroke:black;stroke-width:1;fill-opacity:1;stroke-opacity:0.3" />
<rect x="87" y="28" width="28" height="5" style="fill:#f5b024;stroke:black;stroke-width:1;fill-opacity:1;stroke-opacity:0.3" />
<line x1="74" y1="37" x2="82" y2="39" stroke="black" stroke-width="1" />
<line x1="82" y1="39" x2="90" y2="37" stroke="black" stroke-width="1" />
<rect x="46" y="35" width="28" height="5" style="fill:#f5b024;stroke:black;stroke-width:1;fill-opacity:1;stroke-opacity:0.3" />
<rect x="90" y="35" width="28" height="5" style="fill:#f5b024;stroke:black;stroke-width:1;fill-opacity:1;stroke-opacity:0.3" />
<line x1="84" y1="44" x2="87" y2="46" stroke="black" stroke-width="1" />
<line x1="87" y1="46" x2="90" y2="44" stroke="black" stroke-width="1" />
<rect x="56" y="42" width="28" height="5" style="fill:#f5b024;stroke:black;stroke-width:1;fill-opacity:1;stroke-opacity:0.3" />
<rect x="90" y="42" width="28" height="5" style="fill:#f5b024;stroke:black;stroke-width:1;fill-opacity:1;stroke-opacity:0.3" />
<line x1="94" y1="51" x2="98" y2="53" stroke="black" stroke-width="1" />
<line x1="98" y1="53" x2="102" y2="51" stroke="black" stroke-width="1" />
<rect x="66" y="49" width="28" height="5" style="fill:#f5b024;stroke:black;stroke-width:1;fill-opacity:1;stroke-opacity:0.3" />
<rect x="102" y="49" width="28" height="5" style="fill:#f5b024;stroke:black;stroke-width:1;fill-opacity:1;stroke-opacity:0.3" />
<line x1="98" y1="58" x2="101" y2="60" stroke="black" stroke-width="1" />
<line x1="101" y1="60" x2="105" y2="58" stroke="black" stroke-width="1" />
<rect x="70" y="56" width="28" height="5" style="fill:#f5b024;stroke:black;stroke-width:1;fill-opacity:1;stroke-opacity:0.3" />
<rect x="105" y="56" width="28" height="5" style="fill:#f5b024;stroke:black;stroke-width:1;fill-opacity:1;stroke-opacity:0.3" />
<line x1="100" y1="65" x2="102" y2="67" stroke="black" stroke-width="1" />
<line x1="102" y1="67" x2="105" y2="65" stroke="black" stroke-width="1" />
<rect x="71" y="63" width="28" height="5" style="fill:#f5b024;stroke:black;stroke-width:1;fill-opacity:1;stroke-opacity:0.3" />
<rect x="105" y="63" width="28" height="5" style="fill:#f5b024;stroke:black;stroke-width:1;fill-opacity:1;stroke-opacity:0.3" />
<line x1="100" y1="72" x2="106" y2="74" stroke="black" stroke-width="1" />
<line x1="106" y1="74" x2="112" y2="72" stroke="black" stroke-width="1" />
<rect x="71" y="70" width="28" height="5" style="fill:#f5b024;stroke:black;stroke-width:1;fill-opacity:1;stroke-opacity:0.3" />
<rect x="112" y="70" width="28" height="5" style="fill:#f5b024;stroke:black;stroke-width:1;fill-opacity:1;stroke-opacity:0.3" />
<line x1="100" y1="79" x2="105" y2="81" stroke="black" stroke-width="1" />
<line x1="105" y1="81" x2="110" y2="79" stroke="black" stroke-width="1" />
<rect x="72" y="77" width="27" height="5" style="fill:#f5b024;stroke:black;stroke-width:1;fill-opacity:1;stroke-opacity:0.3" />
<rect x="110" y="77" width="28" height="5" style="fill:#f5b024;stroke:black;stroke-width:1;fill-opacity:1;stroke-opacity:0.3" />
<line x1="100" y1="86" x2="106" y2="88" stroke="black" stroke-width="1" />
<line x1="106" y1="88" x2="113" y2="86" stroke="black" stroke-width="1" />
<rect x="72" y="84" width="28" height="5" style="fill:#f5b024;stroke:black;stroke-width:1;fill-opacity:1;stroke-opacity:0.3" />
<rect x="113" y="84" width="28" height="5" style="fill:#f5b024;stroke:black;stroke-width:1;fill-opacity:1;stroke-opacity:0.3" />
<line x1="100" y1="93" x2="102" y2="95" stroke="black" stroke-width="1" />
<line x1="102" y1="95" x2="105" y2="93" stroke="black" stroke-width="1" />
<rect x="72" y="91" width="27" height="5" style="fill:#f5b024;stroke:black;stroke-width:1;fill-opacity:1;stroke-opacity:0.3" />
<rect x="105" y="91" width="28" height="5" style="fill:#f5b024;stroke:black;stroke-width:1;fill-opacity:1;stroke-opacity:0.3" />
<line x1="118" y1="100" x2="124" y2="102" stroke="black" stroke-width="1" />
<line x1="124" y1="102" x2="131" y2="100" stroke="black" stroke-width="1" />
<rect x="76" y="98" width="19" height="5" style="fill:#f5b024;stroke:black;stroke-width:1;fill-opacity:1;stroke-opacity:0.3" />
<rect x="96" y="98" width="22" height="5" style="fill:#f5b024;stroke:black;stroke-width:1;fill-opacity:1;stroke-opacity:0.3" />
<rect x="131" y="98" width="33" height="5" style="fill:#f5b024;stroke:black;stroke-width:1;fill-opacity:1;stroke-opacity:0.3" />
<line x1="164" y1="100" x2="211" y2="100" stroke="pink" stroke-width="1" />
<rect x="211" y="98" width="7" height="5" style="fill:#f5b024;stroke:black;stroke-width:1;fill-opacity:1;stroke-opacity:0.3" />
<line x1="105" y1="107" x2="109" y2="109" stroke="black" stroke-width="1" />
<line x1="109" y1="109" x2="113" y2="107" stroke="black" stroke-width="1" />
<rect x="77" y="105" width="28" height="5" style="fill:#f5b024;stroke:black;stroke-width:1;fill-opacity:1;stroke-opacity:0.3" />
<rect x="113" y="105" width="28" height="5" style="fill:#f5b024;stroke:black;stroke-width:1;fill-opacity:1;stroke-opacity:0.3" />
<line x1="107" y1="114" x2="112" y2="116" stroke="black" stroke-width="1" />
<line x1="112" y1="116" x2="117" y2="114" stroke="black" stroke-width="1" />
<rect x="80" y="112" width="27" height="5" style="fill:#f5b024;stroke:black;stroke-width:1;fill-opacity:1;stroke-opacity:0.3" />
<rect x="117" y="112" width="28" height="5" style="fill:#f5b024;stroke:black;stroke-width:1;fill-opacity:1;stroke-opacity:0.3" />
<line x1="108" y1="121" x2="112" y2="123" stroke="black" stroke-width="1" />
<line x1="112" y1="123" x2="117" y2="121" stroke="black" stroke-width="1" />
<rect x="80" y="119" width="28" height="5" style="fill:#f5b024;stroke:black;stroke-width:1;fill-opacity:1;stroke-opacity:0.3" />
<rect x="117" y="119" width="28" height="5" style="fill:#f5b024;stroke:black;stroke-width:1;fill-opacity:1;stroke-opacity:0.3" />
<line x1="108" y1="128" x2="115" y2="130" stroke="black" stroke-width="1" />
<line x1="115" y1="130" x2="123" y2="128" stroke="black" stroke-width="1" />
<rect x="80" y="126" width="28" height="5" style="fill:#f5b024;stroke:black;stroke-width:1;fill-opacity:1;stroke-opacity:0.3" />
<rect x="123" y="126" width="28" height="5" style="fill:#f5b024;stroke:black;stroke-width:1;fill-opacity:1;stroke-opacity:0.3" />
<line x1="126" y1="135" x2="128" y2="137" stroke="black" stroke-width="1" />
<line x1="128" y1="137" x2="130" y2="135" stroke="black" stroke-width="1" />
<rect x="98" y="133" width="27" height="5" style="fill:#f5b024;stroke:black;stroke-width:1;fill-opacity:1;stroke-opacity:0.3" />
<rect x="130" y="133" width="28" height="5" style="fill:#f5b024;stroke:black;stroke-width:1;fill-opacity:1;stroke-opacity:0.3" />
<line x1="128" y1="142" x2="134" y2="144" stroke="black" stroke-width="1" />
<line x1="134" y1="144" x2="140" y2="142" stroke="black" stroke-width="1" />
<rect x="100" y="140" width="28" height="5" style="fill:#f5b024;stroke:black;stroke-width:1;fill-opacity:1;stroke-opacity:0.3" />
<rect x="140" y="140" width="24" height="5" style="fill:#f5b024;stroke:black;stroke-width:1;fill-opacity:1;stroke-opacity:0.3" />
<line x1="164" y1="142" x2="211" y2="142" stroke="pink" stroke-width="1" />
<rect x="211" y="140" width="3" height="5" style="fill:#f5b024;stroke:black;stroke-width:1;fill-opacity:1;stroke-opacity:0.3" />
<line x1="133" y1="149" x2="137" y2="151" stroke="black" stroke-width="1" />
<line x1="137" y1="151" x2="141" y2="149" stroke="black" stroke-width="1" />
<rect x="105" y="147" width="28" height="5" style="fill:#f5b024;stroke:black;stroke-width:1;fill-opacity:1;stroke-opacity:0.3" />
<rect x="141" y="147" width="23" height="5" style="fill:#f5b024;stroke:black;stroke-width:1;fill-opacity:1;stroke-opacity:0.3" />
<line x1="164" y1="149" x2="211" y2="149" stroke="pink" stroke-width="1" />
<rect x="211" y="147" width="4" height="5" style="fill:#f5b024;stroke:black;stroke-width:1;fill-opacity:1;stroke-opacity:0.3" />
<line x1="135" y1="156" x2="144" y2="158" stroke="black" stroke-width="1" />
<line x1="144" y1="158" x2="153" y2="156" stroke="black" stroke-width="1" />
<rect x="108" y="154" width="27" height="5" style="fill:#f5b024;stroke:black;stroke-width:1;fill-opacity:1;stroke-opacity:0.3" />
<rect x="153" y="154" width="11" height="5" style="fill:#f5b024;stroke:black;stroke-width:1;fill-opacity:1;stroke-opacity:0.3" />
<line x1="164" y1="156" x2="211" y2="156" stroke="pink" stroke-width="1" />
<rect x="211" y="154" width="16" height="5" style="fill:#f5b024;stroke:black;stroke-width:1;fill-opacity:1;stroke-opacity:0.3" />
<line x1="139" y1="163" x2="149" y2="165" stroke="black" stroke-width="1" />
<line x1="149" y1="165" x2="160" y2="163" stroke="black" stroke-width="1" />
<rect x="111" y="161" width="27" height="5" style="fill:#f5b024;stroke:black;stroke-width:1;fill-opacity:1;stroke-opacity:0.3" />
<rect x="160" y="161" width="28" height="5" style="fill:#f5b024;stroke:black;stroke-width:1;fill-opacity:1;stroke-opacity:0.3" />
<line x1="147" y1="30" x2="149" y2="32" stroke="black" stroke-width="1" />
<line x1="149" y1="32" x2="152" y2="30" stroke="black" stroke-width="1" />
<rect x="119" y="28" width="28" height="5" style="fill:#f5b024;stroke:black;stroke-width:1;fill-opacity:1;stroke-opacity:0.3" />
<rect x="152" y="28" width="12" height="5" style="fill:#f5b024;stroke:black;stroke-width:1;fill-opacity:1;stroke-opacity:0.3" />
<line x1="164" y1="30" x2="211" y2="30" stroke="pink" stroke-width="1" />
<rect x="211" y="28" width="15" height="5" style="fill:#f5b024;stroke:black;stroke-width:1;fill-opacity:1;stroke-opacity:0.3" />
<line x1="147" y1="37" x2="152" y2="39" stroke="black" stroke-width="1" />
<line x1="152" y1="39" x2="158" y2="37" stroke="black" stroke-width="1" />
<rect x="119" y="35" width="27" height="5" style="fill:#f5b024;stroke:black;stroke-width:1;fill-opacity:1;stroke-opacity:0.3" />
<rect x="158" y="35" width="6" height="5" style="fill:#f5b024;stroke:black;stroke-width:1;fill-opacity:1;stroke-opacity:0.3" />
<line x1="164" y1="37" x2="211" y2="37" stroke="pink" stroke-width="1" />
<rect x="211" y="35" width="18" height="5" style="fill:#f5b024;stroke:black;stroke-width:1;fill-opacity:1;stroke-opacity:0.3" />
<line x1="229" y1="37" x2="284" y2="37" stroke="pink" stroke-width="1" />
<rect x="284" y="35" width="3" height="5" style="fill:#f5b024;stroke:black;stroke-width:1;fill-opacity:1;stroke-opacity:0.3" />
<line x1="154" y1="44" x2="184" y2="46" stroke="black" stroke-width="1" />
<line x1="184" y1="46" x2="215" y2="44" stroke="black" stroke-width="1" />
<rect x="126" y="42" width="28" height="5" style="fill:#f5b024;stroke:black;stroke-width:1;fill-opacity:1;stroke-opacity:0.3" />
<rect x="215" y="42" width="14" height="5" style="fill:#f5b024;stroke:black;stroke-width:1;fill-opacity:1;stroke-opacity:0.3" />
<line x1="229" y1="44" x2="284" y2="44" stroke="pink" stroke-width="1" />
<rect x="284" y="42" width="14" height="5" style="fill:#f5b024;stroke:black;stroke-width:1;fill-opacity:1;stroke-opacity:0.3" />
<line x1="171" y1="51" x2="176" y2="53" stroke="black" stroke-width="1" />
<line x1="176" y1="53" x2="181" y2="51" stroke="black" stroke-width="1" />
<rect x="143" y="49" width="28" height="5" style="fill:#5d3c2d;stroke:black;stroke-width:1;fill-opacity:1;stroke-opacity:0.3" />
<rect x="181" y="49" width="28" height="5" style="fill:#5d3c2d;stroke:black;stroke-width:1;fill-opacity:1;stroke-opacity:0.3" />
<line x1="174" y1="58" x2="186" y2="60" stroke="black" stroke-width="1" />
<line x1="186" y1="60" x2="198" y2="58" stroke="black" stroke-width="1" />
<rect x="146" y="56" width="28" height="5" style="fill:#f5b024;stroke:black;stroke-width:1;fill-opacity:1;stroke-opacity:0.3" />
<rect x="198" y="56" width="27" height="5" style="fill:#f5b024;stroke:black;stroke-width:1;fill-opacity:1;stroke-opacity:0.3" />
<line x1="221" y1="65" x2="223" y2="67" stroke="black" stroke-width="1" />
<line x1="223" y1="67" x2="226" y2="65" stroke="black" stroke-width="1" />
<rect x="147" y="63" width="17" height="5" style="fill:#f5b024;stroke:black;stroke-width:1;fill-opacity:1;stroke-opacity:0.3" />
<line x1="164" y1="65" x2="211" y2="65" stroke="pink" stroke-width="1" />
<rect x="211" y="63" width="10" height="5" style="fill:#f5b024;stroke:black;stroke-width:1;fill-opacity:1;stroke-opacity:0.3" />
<rect x="226" y="63" width="3" height="5" style="fill:#f5b024;stroke:black;stroke-width:1;fill-opacity:1;stroke-opacity:0.3" />
<line x1="229" y1="65" x2="284" y2="65" stroke="pink" stroke-width="1" />
<rect x="284" y="63" width="12" height="5" style="fill:#f5b024;stroke:black;stroke-width:1;fill-opacity:1;stroke-opacity:0.3" />
<line x1="296" y1="65" x2="332" y2="65" stroke="pink" stroke-width="1" />
<rect x="332" y="63" width="11" height="5" style="fill:#f5b024;stroke:black;stroke-width:1;fill-opacity:1;stroke-opacity:0.3" />
<line x1="176" y1="72" x2="180" y2="74" stroke="black" stroke-width="1" />
<line x1="180" y1="74" x2="185" y2="72" stroke="black" stroke-width="1" />
<rect x="148" y="70" width="28" height="5" style="fill:#5d3c2d;stroke:black;stroke-width:1;fill-opacity:1;stroke-opacity:0.3" />
<rect x="185" y="70" width="28" height="5" style="fill:#5d3c2d;stroke:black;stroke-width:1;fill-opacity:1;stroke-opacity:0.3" />
<line x1="226" y1="79" x2="256" y2="81" stroke="black" stroke-width="1" />
<line x1="256" y1="81" x2="287" y2="79" stroke="black" stroke-width="1" />
<rect x="152" y="77" width="12" height="5" style="fill:#f5b024;stroke:black;stroke-width:1;fill-opacity:1;stroke-opacity:0.3" />
<line x1="164" y1="79" x2="211" y2="79" stroke="pink" stroke-width="1" />
<rect x="211" y="77" width="15" height="5" style="fill:#f5b024;stroke:black;stroke-width:1;fill-opacity:1;stroke-opacity:0.3" />
<rect x="287" y="77" width="8" height="5" style="fill:#f5b024;stroke:black;stroke-width:1;fill-opacity:1;stroke-opacity:0.3" />
<line x1="296" y1="79" x2="332" y2="79" stroke="pink" stroke-width="1" />
<rect x="332" y="77" width="18" height="5" style="fill:#f5b024;stroke:black;stroke-width:1;fill-opacity:1;stroke-opacity:0.3" />
<line x1="182" y1="86" x2="185" y2="88" stroke="black" stroke-width="1" />
<line x1="185" y1="88" x2="188" y2="86" stroke="black" stroke-width="1" />
<rect x="154" y="84" width="28" height="5" style="fill:#f5b024;stroke:black;stroke-width:1;fill-opacity:1;stroke-opacity:0.3" />
<rect x="188" y="84" width="28" height="5" style="fill:#f5b024;stroke:black;stroke-width:1;fill-opacity:1;stroke-opacity:0.3" />
<line x1="185" y1="93" x2="192" y2="95" stroke="black" stroke-width="1" />
<line x1="192" y1="95" x2="199" y2="93" stroke="black" stroke-width="1" />
<rect x="157" y="91" width="28" height="5" style="fill:#f5b024;stroke:black;stroke-width:1;fill-opacity:1;stroke-opacity:0.3" />
<rect x="199" y="91" width="28" height="5" style="fill:#f5b024;stroke:black;stroke-width:1;fill-opacity:1;stroke-opacity:0.3" />
<line x1="212" y1="107" x2="216" y2="109" stroke="black" stroke-width="1" />
<line x1="216" y1="109" x2="220" y2="107" stroke="black" stroke-width="1" />
<rect x="184" y="105" width="28" height="5" style="fill:#f5b024;stroke:black;stroke-width:1;fill-opacity:1;stroke-opacity:0.3" />
<rect x="220" y="105" width="8" height="5" style="fill:#f5b024;stroke:black;stroke-width:1;fill-opacity:1;stroke-opacity:0.3" />
<line x1="229" y1="107" x2="284" y2="107" stroke="pink" stroke-width="1" />
<rect x="284" y="105" width="19" height="5" style="fill:#f5b024;stroke:black;stroke-width:1;fill-opacity:1;stroke-opacity:0.3" />
<line x1="297" y1="51" x2="314" y2="53" stroke="black" stroke-width="1" />
<line x1="314" y1="53" x2="332" y2="51" stroke="black" stroke-width="1" />
<rect x="214" y="49" width="14" height="5" style="fill:#f5b024;stroke:black;stroke-width:1;fill-opacity:1;stroke-opacity:0.3" />
<line x1="229" y1="51" x2="284" y2="51" stroke="pink" stroke-width="1" />
<rect x="284" y="49" width="13" height="5" style="fill:#f5b024;stroke:black;stroke-width:1;fill-opacity:1;stroke-opacity:0.3" />
<rect x="332" y="49" width="18" height="5" style="fill:#f5b024;stroke:black;stroke-width:1;fill-opacity:1;stroke-opacity:0.3" />
<line x1="351" y1="51" x2="622" y2="51" stroke="pink" stroke-width="1" />
<rect x="622" y="49" width="7" height="5" style="fill:#f5b024;stroke:black;stroke-width:1;fill-opacity:1;stroke-opacity:0.3" />
<line x1="296" y1="72" x2="317" y2="74" stroke="black" stroke-width="1" />
<line x1="317" y1="74" x2="339" y2="72" stroke="black" stroke-width="1" />
<rect x="217" y="70" width="11" height="5" style="fill:#f5b024;stroke:black;stroke-width:1;fill-opacity:1;stroke-opacity:0.3" />
<line x1="229" y1="72" x2="284" y2="72" stroke="pink" stroke-width="1" />
<rect x="284" y="70" width="12" height="5" style="fill:#f5b024;stroke:black;stroke-width:1;fill-opacity:1;stroke-opacity:0.3" />
<rect x="339" y="70" width="12" height="5" style="fill:#f5b024;stroke:black;stroke-width:1;fill-opacity:1;stroke-opacity:0.3" />
<line x1="351" y1="72" x2="622" y2="72" stroke="pink" stroke-width="1" />
<rect x="622" y="70" width="15" height="5" style="fill:#f5b024;stroke:black;stroke-width:1;fill-opacity:1;stroke-opacity:0.3" />
<line x1="336" y1="86" x2="341" y2="88" stroke="black" stroke-width="1" />
<line x1="341" y1="88" x2="346" y2="86" stroke="black" stroke-width="1" />
<rect x="217" y="84" width="11" height="5" style="fill:#f5b024;stroke:black;stroke-width:1;fill-opacity:1;stroke-opacity:0.3" />
<line x1="229" y1="86" x2="284" y2="86" stroke="pink" stroke-width="1" />
<rect x="284" y="84" width="12" height="5" style="fill:#f5b024;stroke:black;stroke-width:1;fill-opacity:1;stroke-opacity:0.3" />
<line x1="296" y1="86" x2="332" y2="86" stroke="pink" stroke-width="1" />
<rect x="332" y="84" width="3" height="5" style="fill:#f5b024;stroke:black;stroke-width:1;fill-opacity:1;stroke-opacity:0.3" />
<rect x="346" y="84" width="5" height="5" style="fill:#f5b024;stroke:black;stroke-width:1;fill-opacity:1;stroke-opacity:0.3" />
<line x1="351" y1="86" x2="622" y2="86" stroke="pink" stroke-width="1" />
<rect x="622" y="84" width="22" height="5" style="fill:#f5b024;stroke:black;stroke-width:1;fill-opacity:1;stroke-opacity:0.3" />
<line x1="339" y1="100" x2="340" y2="102" stroke="black" stroke-width="1" />
<line x1="340" y1="102" x2="342" y2="100" stroke="black" stroke-width="1" />
<rect x="223" y="98" width="5" height="5" style="fill:#f5b024;stroke:black;stroke-width:1;fill-opacity:1;stroke-opacity:0.3" />
<line x1="229" y1="100" x2="284" y2="100" stroke="pink" stroke-width="1" />
<rect x="284" y="98" width="12" height="5" style="fill:#f5b024;stroke:black;stroke-width:1;fill-opacity:1;stroke-opacity:0.3" />
<line x1="296" y1="100" x2="332" y2="100" stroke="pink" stroke-width="1" />
<rect x="332" y="98" width="7" height="5" style="fill:#f5b024;stroke:black;stroke-width:1;fill-opacity:1;stroke-opacity:0.3" />
<rect x="342" y="98" width="8" height="5" style="fill:#f5b024;stroke:black;stroke-width:1;fill-opacity:1;stroke-opacity:0.3" />
<line x1="351" y1="100" x2="622" y2="100" stroke="pink" stroke-width="1" />
<rect x="622" y="98" width="19" height="5" style="fill:#f5b024;stroke:black;stroke-width:1;fill-opacity:1;stroke-opacity:0.3" />
<line x1="342" y1="114" x2="345" y2="116" stroke="black" stroke-width="1" />
<line x1="345" y1="116" x2="348" y2="114" stroke="black" stroke-width="1" />
<rect x="224" y="112" width="5" height="5" style="fill:#f5b024;stroke:black;stroke-width:1;fill-opacity:1;stroke-opacity:0.3" />
<line x1="229" y1="114" x2="284" y2="114" stroke="pink" stroke-width="1" />
<rect x="284" y="112" width="12" height="5" style="fill:#f5b024;stroke:black;stroke-width:1;fill-opacity:1;stroke-opacity:0.3" />
<line x1="296" y1="114" x2="332" y2="114" stroke="pink" stroke-width="1" />
<rect x="332" y="112" width="9" height="5" style="fill:#f5b024;stroke:black;stroke-width:1;fill-opacity:1;stroke-opacity:0.3" />
<rect x="348" y="112" width="2" height="5" style="fill:#f5b024;stroke:black;stroke-width:1;fill-opacity:1;stroke-opacity:0.3" />
<line x1="351" y1="114" x2="622" y2="114" stroke="pink" stroke-width="1" />
<rect x="622" y="112" width="21" height="5" style="fill:#f5b024;stroke:black;stroke-width:1;fill-opacity:1;stroke-opacity:0.3" />
<line x1="643" y1="114" x2="736" y2="114" stroke="pink" stroke-width="1" />
<rect x="736" y="112" width="3" height="5" style="fill:#f5b024;stroke:black;stroke-width:1;fill-opacity:1;stroke-opacity:0.3" />
<line x1="287" y1="30" x2="289" y2="32" stroke="black" stroke-width="1" />
<line x1="289" y1="32" x2="292" y2="30" stroke="black" stroke-width="1" />
<rect x="260" y="28" width="27" height="5" style="fill:#f5b024;stroke:black;stroke-width:1;fill-opacity:1;stroke-opacity:0.3" />
<rect x="292" y="28" width="4" height="5" style="fill:#f5b024;stroke:black;stroke-width:1;fill-opacity:1;stroke-opacity:0.3" />
<line x1="296" y1="30" x2="332" y2="30" stroke="pink" stroke-width="1" />
<rect x="332" y="28" width="18" height="5" style="fill:#f5b024;stroke:black;stroke-width:1;fill-opacity:1;stroke-opacity:0.3" />
<line x1="351" y1="30" x2="622" y2="30" stroke="pink" stroke-width="1" />
<rect x="622" y="28" width="5" height="5" style="fill:#f5b024;stroke:black;stroke-width:1;fill-opacity:1;stroke-opacity:0.3" />
<line x1="349" y1="58" x2="486" y2="60" stroke="black" stroke-width="1" />
<line x1="486" y1="60" x2="624" y2="58" stroke="black" stroke-width="1" />
<rect x="285" y="56" width="10" height="5" style="fill:#f5b024;stroke:black;stroke-width:1;fill-opacity:1;stroke-opacity:0.3" />
<line x1="296" y1="58" x2="332" y2="58" stroke="pink" stroke-width="1" />
<rect x="332" y="56" width="17" height="5" style="fill:#f5b024;stroke:black;stroke-width:1;fill-opacity:1;stroke-opacity:0.3" />
<rect x="624" y="56" width="19" height="5" style="fill:#f5b024;stroke:black;stroke-width:1;fill-opacity:1;stroke-opacity:0.3" />
<line x1="643" y1="58" x2="736" y2="58" stroke="pink" stroke-width="1" />
<rect x="736" y="56" width="8" height="5" style="fill:#f5b024;stroke:black;stroke-width:1;fill-opacity:1;stroke-opacity:0.3" />
<line x1="350" y1="93" x2="494" y2="95" stroke="black" stroke-width="1" />
<line x1="494" y1="95" x2="638" y2="93" stroke="black" stroke-width="1" />
<rect x="286" y="91" width="10" height="5" style="fill:#f5b024;stroke:black;stroke-width:1;fill-opacity:1;stroke-opacity:0.3" />
<line x1="296" y1="93" x2="332" y2="93" stroke="pink" stroke-width="1" />
<rect x="332" y="91" width="17" height="5" style="fill:#f5b024;stroke:black;stroke-width:1;fill-opacity:1;stroke-opacity:0.3" />
<rect x="638" y="91" width="5" height="5" style="fill:#f5b024;stroke:black;stroke-width:1;fill-opacity:1;stroke-opacity:0.3" />
<line x1="643" y1="93" x2="736" y2="93" stroke="pink" stroke-width="1" />
<rect x="736" y="91" width="22" height="5" style="fill:#f5b024;stroke:black;stroke-width:1;fill-opacity:1;stroke-opacity:0.3" />
<line x1="631" y1="37" x2="685" y2="39" stroke="black" stroke-width="1" />
<line x1="685" y1="39" x2="740" y2="37" stroke="black" stroke-width="1" />
<rect x="296" y="35" width="0" height="5" style="fill:#f5b024;stroke:black;stroke-width:1;fill-opacity:1;stroke-opacity:0.3" />
<line x1="296" y1="37" x2="332" y2="37" stroke="pink" stroke-width="1" />
<rect x="332" y="35" width="18" height="5" style="fill:#f5b024;stroke:black;stroke-width:1;fill-opacity:1;stroke-opacity:0.3" />
<line x1="351" y1="37" x2="622" y2="37" stroke="pink" stroke-width="1" />
<rect x="622" y="35" width="8" height="5" style="fill:#f5b024;stroke:black;stroke-width:1;fill-opacity:1;stroke-opacity:0.3" />
<rect x="740" y="35" width="20" height="5" style="fill:#f5b024;stroke:black;stroke-width:1;fill-opacity:1;stroke-opacity:0.3" />
<line x1="760" y1="37" x2="851" y2="37" stroke="pink" stroke-width="1" />
<rect x="851" y="35" width="7" height="5" style="fill:#f5b024;stroke:black;stroke-width:1;fill-opacity:1;stroke-opacity:0.3" />
<line x1="360" y1="121" x2="363" y2="123" stroke="black" stroke-width="1" />
<line x1="363" y1="123" x2="367" y2="121" stroke="black" stroke-width="1" />
<rect x="296" y="119" width="0" height="5" style="fill:#f5b024;stroke:black;stroke-width:1;fill-opacity:1;stroke-opacity:0.3" />
<line x1="296" y1="121" x2="332" y2="121" stroke="pink" stroke-width="1" />
<rect x="332" y="119" width="27" height="5" style="fill:#f5b024;stroke:black;stroke-width:1;fill-opacity:1;stroke-opacity:0.3" />
<rect x="367" y="119" width="28" height="5" style="fill:#f5b024;stroke:black;stroke-width:1;fill-opacity:1;stroke-opacity:0.3" />
<line x1="638" y1="44" x2="689" y2="46" stroke="black" stroke-width="1" />
<line x1="689" y1="46" x2="740" y2="44" stroke="black" stroke-width="1" />
<rect x="339" y="42" width="11" height="5" style="fill:#f5b024;stroke:black;stroke-width:1;fill-opacity:1;stroke-opacity:0.3" />
<line x1="351" y1="44" x2="622" y2="44" stroke="pink" stroke-width="1" />
<rect x="622" y="42" width="16" height="5" style="fill:#f5b024;stroke:black;stroke-width:1;fill-opacity:1;stroke-opacity:0.3" />
<rect x="740" y="42" width="20" height="5" style="fill:#f5b024;stroke:black;stroke-width:1;fill-opacity:1;stroke-opacity:0.3" />
<line x1="760" y1="44" x2="851" y2="44" stroke="pink" stroke-width="1" />
<rect x="851" y="42" width="7" height="5" style="fill:#f5b024;stroke:black;stroke-width:1;fill-opacity:1;stroke-opacity:0.3" />
<line x1="737" y1="65" x2="741" y2="67" stroke="black" stroke-width="1" />
<line x1="741" y1="67" x2="746" y2="65" stroke="black" stroke-width="1" />
<rect x="345" y="63" width="5" height="5" style="fill:#f5b024;stroke:black;stroke-width:1;fill-opacity:1;stroke-opacity:0.3" />
<line x1="351" y1="65" x2="622" y2="65" stroke="pink" stroke-width="1" />
<rect x="622" y="63" width="21" height="5" style="fill:#f5b024;stroke:black;stroke-width:1;fill-opacity:1;stroke-opacity:0.3" />
<line x1="643" y1="65" x2="736" y2="65" stroke="pink" stroke-width="1" />
<rect x="736" y="63" width="0" height="5" style="fill:#f5b024;stroke:black;stroke-width:1;fill-opacity:1;stroke-opacity:0.3" />
<rect x="746" y="63" width="14" height="5" style="fill:#f5b024;stroke:black;stroke-width:1;fill-opacity:1;stroke-opacity:0.3" />
<line x1="760" y1="65" x2="851" y2="65" stroke="pink" stroke-width="1" />
<rect x="851" y="63" width="13" height="5" style="fill:#f5b024;stroke:black;stroke-width:1;fill-opacity:1;stroke-opacity:0.3" />
<line x1="737" y1="107" x2="741" y2="109" stroke="black" stroke-width="1" />
<line x1="741" y1="109" x2="746" y2="107" stroke="black" stroke-width="1" />
<rect x="345" y="105" width="5" height="5" style="fill:#f5b024;stroke:black;stroke-width:1;fill-opacity:1;stroke-opacity:0.3" />
<line x1="351" y1="107" x2="622" y2="107" stroke="pink" stroke-width="1" />
<rect x="622" y="105" width="21" height="5" style="fill:#f5b024;stroke:black;stroke-width:1;fill-opacity:1;stroke-opacity:0.3" />
<line x1="643" y1="107" x2="736" y2="107" stroke="pink" stroke-width="1" />
<rect x="736" y="105" width="0" height="5" style="fill:#f5b024;stroke:black;stroke-width:1;fill-opacity:1;stroke-opacity:0.3" />
<rect x="746" y="105" width="28" height="5" style="fill:#f5b024;stroke:black;stroke-width:1;fill-opacity:1;stroke-opacity:0.3" />
<line x1="380" y1="79" x2="385" y2="81" stroke="black" stroke-width="1" />
<line x1="385" y1="81" x2="391" y2="79" stroke="black" stroke-width="1" />
<rect x="352" y="77" width="27" height="5" style="fill:#f5b024;stroke:black;stroke-width:1;fill-opacity:1;stroke-opacity:0.3" />
<rect x="391" y="77" width="28" height="5" style="fill:#f5b024;stroke:black;stroke-width:1;fill-opacity:1;stroke-opacity:0.3" />
<line x1="384" y1="128" x2="392" y2="130" stroke="black" stroke-width="1" />
<line x1="392" y1="130" x2="400" y2="128" stroke="black" stroke-width="1" />
<rect x="356" y="126" width="28" height="5" style="fill:#5d3c2d;stroke:black;stroke-width:1;fill-opacity:1;stroke-opacity:0.3" />
<rect x="400" y="126" width="28" height="5" style="fill:#5d3c2d;stroke:black;stroke-width:1;fill-opacity:1;stroke-opacity:0.3" />
<line x1="384" y1="135" x2="393" y2="137" stroke="black" stroke-width="1" />
<line x1="393" y1="137" x2="403" y2="135" stroke="black" stroke-width="1" />
<rect x="356" y="133" width="28" height="5" style="fill:#f5b024;stroke:black;stroke-width:1;fill-opacity:1;stroke-opacity:0.3" />
<rect x="403" y="133" width="28" height="5" style="fill:#f5b024;stroke:black;stroke-width:1;fill-opacity:1;stroke-opacity:0.3" />
<line x1="412" y1="142" x2="414" y2="144" stroke="black" stroke-width="1" />
<line x1="414" y1="144" x2="416" y2="142" stroke="black" stroke-width="1" />
<rect x="384" y="140" width="28" height="5" style="fill:#f5b024;stroke:black;stroke-width:1;fill-opacity:1;stroke-opacity:0.3" />
<rect x="416" y="140" width="28" height="5" style="fill:#f5b024;stroke:black;stroke-width:1;fill-opacity:1;stroke-opacity:0.3" />
<line x1="429" y1="121" x2="443" y2="123" stroke="black" stroke-width="1" />
<line x1="443" y1="123" x2="458" y2="121" stroke="black" stroke-width="1" />
<rect x="401" y="119" width="28" height="5" style="fill:#f5b024;stroke:black;stroke-width:1;fill-opacity:1;stroke-opacity:0.3" />
<rect x="458" y="119" width="28" height="5" style="fill:#f5b024;stroke:black;stroke-width:1;fill-opacity:1;stroke-opacity:0.3" />
<line x1="555" y1="79" x2="564" y2="81" stroke="black" stroke-width="1" />
<line x1="564" y1="81" x2="573" y2="79" stroke="black" stroke-width="1" />
<rect x="527" y="77" width="28" height="5" style="fill:#5d3c2d;stroke:black;stroke-width:1;fill-opacity:1;stroke-opacity:0.3" />
<rect x="573" y="77" width="28" height="5" style="fill:#5d3c2d;stroke:black;stroke-width:1;fill-opacity:1;stroke-opacity:0.3" />
<line x1="556" y1="121" x2="565" y2="123" stroke="black" stroke-width="1" />
<line x1="565" y1="123" x2="574" y2="121" stroke="black" stroke-width="1" />
<rect x="528" y="119" width="28" height="5" style="fill:#f5b024;stroke:black;stroke-width:1;fill-opacity:1;stroke-opacity:0.3" />
<rect x="574" y="119" width="28" height="5" style="fill:#f5b024;stroke:black;stroke-width:1;fill-opacity:1;stroke-opacity:0.3" />
<line x1="562" y1="128" x2="568" y2="130" stroke="black" stroke-width="1" />
<line x1="568" y1="130" x2="574" y2="128" stroke="black" stroke-width="1" />
<rect x="534" y="126" width="28" height="5" style="fill:#f5b024;stroke:black;stroke-width:1;fill-opacity:1;stroke-opacity:0.3" />
<rect x="574" y="126" width="28" height="5" style="fill:#f5b024;stroke:black;stroke-width:1;fill-opacity:1;stroke-opacity:0.3" />
<line x1="606" y1="135" x2="607" y2="137" stroke="black" stroke-width="1" />
<line x1="607" y1="137" x2="609" y2="135" stroke="black" stroke-width="1" />
<rect x="578" y="133" width="27" height="5" style="fill:#f5b024;stroke:black;stroke-width:1;fill-opacity:1;stroke-opacity:0.3" />
<rect x="609" y="133" width="28" height="5" style="fill:#f5b024;stroke:black;stroke-width:1;fill-opacity:1;stroke-opacity:0.3" />
<line x1="617" y1="142" x2="620" y2="144" stroke="black" stroke-width="1" />
<line x1="620" y1="144" x2="623" y2="142" stroke="black" stroke-width="1" />
<rect x="589" y="140" width="28" height="5" style="fill:#f5b024;stroke:black;stroke-width:1;fill-opacity:1;stroke-opacity:0.3" />
<rect x="623" y="140" width="20" height="5" style="fill:#f5b024;stroke:black;stroke-width:1;fill-opacity:1;stroke-opacity:0.3" />
<line x1="643" y1="142" x2="736" y2="142" stroke="pink" stroke-width="1" />
<rect x="736" y="140" width="7" height="5" style="fill:#f5b024;stroke:black;stroke-width:1;fill-opacity:1;stroke-opacity:0.3" />
<line x1="742" y1="79" x2="748" y2="81" stroke="black" stroke-width="1" />
<line x1="748" y1="81" x2="754" y2="79" stroke="black" stroke-width="1" />
<rect x="621" y="77" width="21" height="5" style="fill:#f5b024;stroke:black;stroke-width:1;fill-opacity:1;stroke-opacity:0.3" />
<line x1="643" y1="79" x2="736" y2="79" stroke="pink" stroke-width="1" />
<rect x="736" y="77" width="5" height="5" style="fill:#f5b024;stroke:black;stroke-width:1;fill-opacity:1;stroke-opacity:0.3" />
<rect x="754" y="77" width="28" height="5" style="fill:#f5b024;stroke:black;stroke-width:1;fill-opacity:1;stroke-opacity:0.3" />
<line x1="659" y1="30" x2="663" y2="32" stroke="black" stroke-width="1" />
<line x1="663" y1="32" x2="668" y2="30" stroke="black" stroke-width="1" />
<rect x="631" y="28" width="28" height="5" style="fill:#f5b024;stroke:black;stroke-width:1;fill-opacity:1;stroke-opacity:0.3" />
<rect x="668" y="28" width="28" height="5" style="fill:#f5b024;stroke:black;stroke-width:1;fill-opacity:1;stroke-opacity:0.3" />
<line x1="753" y1="51" x2="802" y2="53" stroke="black" stroke-width="1" />
<line x1="802" y1="53" x2="852" y2="51" stroke="black" stroke-width="1" />
<rect x="632" y="49" width="11" height="5" style="fill:#f5b024;stroke:black;stroke-width:1;fill-opacity:1;stroke-opacity:0.3" />
<line x1="643" y1="51" x2="736" y2="51" stroke="pink" stroke-width="1" />
<rect x="736" y="49" width="16" height="5" style="fill:#f5b024;stroke:black;stroke-width:1;fill-opacity:1;stroke-opacity:0.3" />
<rect x="852" y="49" width="28" height="5" style="fill:#f5b024;stroke:black;stroke-width:1;fill-opacity:1;stroke-opacity:0.3" />
<line x1="877" y1="30" x2="878" y2="32" stroke="black" stroke-width="1" />
<line x1="878" y1="32" x2="880" y2="30" stroke="black" stroke-width="1" />
<rect x="850" y="28" width="26" height="5" style="fill:#f5b024;stroke:black;stroke-width:1;fill-opacity:1;stroke-opacity:0.3" />
<rect x="880" y="28" width="28" height="5" style="fill:#f5b024;stroke:black;stroke-width:1;fill-opacity:1;stroke-opacity:0.3" />
<text x="15"  y="176" style="font-family:Arial;font-size:10;stroke:black;fill:black;">all.merged.bam</text>
</svg>
    
