<?xml version="1.0" encoding="utf-8" standalone="no"?>
<!DOCTYPE svg PUBLIC "-//W3C//DTD SVG 1.1//EN"
  "http://www.w3.org/Graphics/SVG/1.1/DTD/svg11.dtd">
<svg height="1140" width="1000" version="1.1" viewBox="0 0 1000 1140" xmlns="http://www.w3.org/2000/svg" xmlns:xlink="http://www.w3.org/1999/xlink">
<line x1="60" y1="11" x2="939" y2="11" stroke="black" stroke-width="1" />
<rect x="60" y="9" width="186" height="5" style="fill:#f50002;stroke:black;stroke-width:1;fill-opacity:1;stroke-opacity:0.3" />
<rect x="247" y="9" width="16" height="5" style="fill:#53a1b5;stroke:black;stroke-width:1;fill-opacity:1;stroke-opacity:0.3" />
<rect x="572" y="9" width="58" height="5" style="fill:#53a1b5;stroke:black;stroke-width:1;fill-opacity:1;stroke-opacity:0.3" />
<rect x="702" y="9" width="22" height="5" style="fill:#53a1b5;stroke:black;stroke-width:1;fill-opacity:1;stroke-opacity:0.3" />
<rect x="772" y="9" width="55" height="5" style="fill:#53a1b5;stroke:black;stroke-width:1;fill-opacity:1;stroke-opacity:0.3" />
<rect x="918" y="9" width="1" height="5" style="fill:#53a1b5;stroke:black;stroke-width:1;fill-opacity:1;stroke-opacity:0.3" />
<rect x="920" y="9" width="18" height="5" style="fill:#f50002;stroke:black;stroke-width:1;fill-opacity:1;stroke-opacity:0.3" />
<text x="60"  y="23" style="font-family:Arial;font-size:10;stroke:black;fill:black;">Cre12.g529400.t1.2.v5.5 (-) chromosome_12:5337169-5338626</text>
<line x1="86" y1="30" x2="91" y2="32" stroke="black" stroke-width="1" />
<line x1="91" y1="32" x2="96" y2="30" stroke="black" stroke-width="1" />
<rect x="27" y="28" width="59" height="5" style="fill:#f5b024;stroke:black;stroke-width:1;fill-opacity:1;stroke-opacity:0.3" />
<rect x="96" y="28" width="60" height="5" style="fill:#f5b024;stroke:black;stroke-width:1;fill-opacity:1;stroke-opacity:0.3" />
<line x1="109" y1="37" x2="118" y2="39" stroke="black" stroke-width="1" />
<line x1="118" y1="39" x2="127" y2="37" stroke="black" stroke-width="1" />
<rect x="48" y="35" width="60" height="5" style="fill:#f5b024;stroke:black;stroke-width:1;fill-opacity:1;stroke-opacity:0.3" />
<rect x="127" y="35" width="60" height="5" style="fill:#f5b024;stroke:black;stroke-width:1;fill-opacity:1;stroke-opacity:0.3" />
<line x1="111" y1="44" x2="119" y2="46" stroke="black" stroke-width="1" />
<line x1="119" y1="46" x2="127" y2="44" stroke="black" stroke-width="1" />
<rect x="51" y="42" width="60" height="5" style="fill:#f5b024;stroke:black;stroke-width:1;fill-opacity:1;stroke-opacity:0.3" />
<rect x="127" y="42" width="60" height="5" style="fill:#f5b024;stroke:black;stroke-width:1;fill-opacity:1;stroke-opacity:0.3" />
<line x1="113" y1="51" x2="132" y2="53" stroke="black" stroke-width="1" />
<line x1="132" y1="53" x2="151" y2="51" stroke="black" stroke-width="1" />
<rect x="54" y="49" width="59" height="5" style="fill:#f5b024;stroke:black;stroke-width:1;fill-opacity:1;stroke-opacity:0.3" />
<rect x="151" y="49" width="60" height="5" style="fill:#f5b024;stroke:black;stroke-width:1;fill-opacity:1;stroke-opacity:0.3" />
<line x1="114" y1="58" x2="148" y2="60" stroke="black" stroke-width="1" />
<line x1="148" y1="60" x2="182" y2="58" stroke="black" stroke-width="1" />
<rect x="54" y="56" width="60" height="5" style="fill:#f5b024;stroke:black;stroke-width:1;fill-opacity:1;stroke-opacity:0.3" />
<rect x="182" y="56" width="60" height="5" style="fill:#f5b024;stroke:black;stroke-width:1;fill-opacity:1;stroke-opacity:0.3" />
<line x1="115" y1="65" x2="133" y2="67" stroke="black" stroke-width="1" />
<line x1="133" y1="67" x2="151" y2="65" stroke="black" stroke-width="1" />
<rect x="55" y="63" width="59" height="5" style="fill:#f5b024;stroke:black;stroke-width:1;fill-opacity:1;stroke-opacity:0.3" />
<rect x="151" y="63" width="60" height="5" style="fill:#f5b024;stroke:black;stroke-width:1;fill-opacity:1;stroke-opacity:0.3" />
<line x1="115" y1="72" x2="133" y2="74" stroke="black" stroke-width="1" />
<line x1="133" y1="74" x2="151" y2="72" stroke="black" stroke-width="1" />
<rect x="55" y="70" width="59" height="5" style="fill:#f5b024;stroke:black;stroke-width:1;fill-opacity:1;stroke-opacity:0.3" />
<rect x="151" y="70" width="60" height="5" style="fill:#f5b024;stroke:black;stroke-width:1;fill-opacity:1;stroke-opacity:0.3" />
<line x1="114" y1="79" x2="147" y2="81" stroke="black" stroke-width="1" />
<line x1="147" y1="81" x2="181" y2="79" stroke="black" stroke-width="1" />
<rect x="56" y="77" width="57" height="5" style="fill:#f5b024;stroke:black;stroke-width:1;fill-opacity:1;stroke-opacity:0.3" />
<rect x="181" y="77" width="60" height="5" style="fill:#f5b024;stroke:black;stroke-width:1;fill-opacity:1;stroke-opacity:0.3" />
<line x1="114" y1="86" x2="126" y2="88" stroke="black" stroke-width="1" />
<line x1="126" y1="88" x2="139" y2="86" stroke="black" stroke-width="1" />
<rect x="56" y="84" width="57" height="5" style="fill:#f5b024;stroke:black;stroke-width:1;fill-opacity:1;stroke-opacity:0.3" />
<rect x="139" y="84" width="60" height="5" style="fill:#f5b024;stroke:black;stroke-width:1;fill-opacity:1;stroke-opacity:0.3" />
<line x1="116" y1="93" x2="154" y2="95" stroke="black" stroke-width="1" />
<line x1="154" y1="95" x2="193" y2="93" stroke="black" stroke-width="1" />
<rect x="57" y="91" width="59" height="5" style="fill:#f5b024;stroke:black;stroke-width:1;fill-opacity:1;stroke-opacity:0.3" />
<rect x="193" y="91" width="60" height="5" style="fill:#f5b024;stroke:black;stroke-width:1;fill-opacity:1;stroke-opacity:0.3" />
<line x1="115" y1="100" x2="125" y2="102" stroke="black" stroke-width="1" />
<line x1="125" y1="102" x2="136" y2="100" stroke="black" stroke-width="1" />
<rect x="57" y="98" width="57" height="5" style="fill:#f5b024;stroke:black;stroke-width:1;fill-opacity:1;stroke-opacity:0.3" />
<rect x="136" y="98" width="60" height="5" style="fill:#f5b024;stroke:black;stroke-width:1;fill-opacity:1;stroke-opacity:0.3" />
<line x1="117" y1="107" x2="135" y2="109" stroke="black" stroke-width="1" />
<line x1="135" y1="109" x2="154" y2="107" stroke="black" stroke-width="1" />
<rect x="57" y="105" width="59" height="5" style="fill:#f5b024;stroke:black;stroke-width:1;fill-opacity:1;stroke-opacity:0.3" />
<rect x="154" y="105" width="60" height="5" style="fill:#f5b024;stroke:black;stroke-width:1;fill-opacity:1;stroke-opacity:0.3" />
<line x1="117" y1="114" x2="125" y2="116" stroke="black" stroke-width="1" />
<line x1="125" y1="116" x2="133" y2="114" stroke="black" stroke-width="1" />
<rect x="57" y="112" width="60" height="5" style="fill:#f5b024;stroke:black;stroke-width:1;fill-opacity:1;stroke-opacity:0.3" />
<rect x="133" y="112" width="60" height="5" style="fill:#f5b024;stroke:black;stroke-width:1;fill-opacity:1;stroke-opacity:0.3" />
<line x1="117" y1="121" x2="125" y2="123" stroke="black" stroke-width="1" />
<line x1="125" y1="123" x2="133" y2="121" stroke="black" stroke-width="1" />
<rect x="57" y="119" width="60" height="5" style="fill:#f5b024;stroke:black;stroke-width:1;fill-opacity:1;stroke-opacity:0.3" />
<rect x="133" y="119" width="60" height="5" style="fill:#f5b024;stroke:black;stroke-width:1;fill-opacity:1;stroke-opacity:0.3" />
<line x1="117" y1="128" x2="131" y2="130" stroke="black" stroke-width="1" />
<line x1="131" y1="130" x2="145" y2="128" stroke="black" stroke-width="1" />
<rect x="57" y="126" width="60" height="5" style="fill:#f5b024;stroke:black;stroke-width:1;fill-opacity:1;stroke-opacity:0.3" />
<rect x="145" y="126" width="60" height="5" style="fill:#f5b024;stroke:black;stroke-width:1;fill-opacity:1;stroke-opacity:0.3" />
<line x1="117" y1="135" x2="121" y2="137" stroke="black" stroke-width="1" />
<line x1="121" y1="137" x2="125" y2="135" stroke="black" stroke-width="1" />
<rect x="57" y="133" width="60" height="5" style="fill:#f5b024;stroke:black;stroke-width:1;fill-opacity:1;stroke-opacity:0.3" />
<rect x="125" y="133" width="60" height="5" style="fill:#f5b024;stroke:black;stroke-width:1;fill-opacity:1;stroke-opacity:0.3" />
<line x1="117" y1="142" x2="135" y2="144" stroke="black" stroke-width="1" />
<line x1="135" y1="144" x2="154" y2="142" stroke="black" stroke-width="1" />
<rect x="57" y="140" width="60" height="5" style="fill:#f5b024;stroke:black;stroke-width:1;fill-opacity:1;stroke-opacity:0.3" />
<rect x="154" y="140" width="60" height="5" style="fill:#f5b024;stroke:black;stroke-width:1;fill-opacity:1;stroke-opacity:0.3" />
<line x1="117" y1="149" x2="132" y2="151" stroke="black" stroke-width="1" />
<line x1="132" y1="151" x2="147" y2="149" stroke="black" stroke-width="1" />
<rect x="57" y="147" width="60" height="5" style="fill:#5d3c2d;stroke:black;stroke-width:1;fill-opacity:1;stroke-opacity:0.3" />
<rect x="147" y="147" width="59" height="5" style="fill:#5d3c2d;stroke:black;stroke-width:1;fill-opacity:1;stroke-opacity:0.3" />
<line x1="117" y1="156" x2="134" y2="158" stroke="black" stroke-width="1" />
<line x1="134" y1="158" x2="151" y2="156" stroke="black" stroke-width="1" />
<rect x="57" y="154" width="60" height="5" style="fill:#f5b024;stroke:black;stroke-width:1;fill-opacity:1;stroke-opacity:0.3" />
<rect x="151" y="154" width="60" height="5" style="fill:#f5b024;stroke:black;stroke-width:1;fill-opacity:1;stroke-opacity:0.3" />
<line x1="116" y1="163" x2="121" y2="165" stroke="black" stroke-width="1" />
<line x1="121" y1="165" x2="127" y2="163" stroke="black" stroke-width="1" />
<rect x="57" y="161" width="59" height="5" style="fill:#f5b024;stroke:black;stroke-width:1;fill-opacity:1;stroke-opacity:0.3" />
<rect x="127" y="161" width="60" height="5" style="fill:#f5b024;stroke:black;stroke-width:1;fill-opacity:1;stroke-opacity:0.3" />
<line x1="216" y1="30" x2="396" y2="32" stroke="black" stroke-width="1" />
<line x1="396" y1="32" x2="577" y2="30" stroke="black" stroke-width="1" />
<rect x="156" y="28" width="59" height="5" style="fill:#f5b024;stroke:black;stroke-width:1;fill-opacity:1;stroke-opacity:0.3" />
<rect x="577" y="28" width="54" height="5" style="fill:#f5b024;stroke:black;stroke-width:1;fill-opacity:1;stroke-opacity:0.3" />
<line x1="631" y1="30" x2="702" y2="30" stroke="pink" stroke-width="1" />
<rect x="702" y="28" width="6" height="5" style="fill:#f5b024;stroke:black;stroke-width:1;fill-opacity:1;stroke-opacity:0.3" />
<line x1="245" y1="135" x2="248" y2="137" stroke="black" stroke-width="1" />
<line x1="248" y1="137" x2="251" y2="135" stroke="black" stroke-width="1" />
<rect x="185" y="133" width="59" height="5" style="fill:#f5b024;stroke:black;stroke-width:1;fill-opacity:1;stroke-opacity:0.3" />
<rect x="251" y="133" width="13" height="5" style="fill:#f5b024;stroke:black;stroke-width:1;fill-opacity:1;stroke-opacity:0.3" />
<line x1="264" y1="135" x2="572" y2="135" stroke="pink" stroke-width="1" />
<rect x="572" y="133" width="47" height="5" style="fill:#f5b024;stroke:black;stroke-width:1;fill-opacity:1;stroke-opacity:0.3" />
<line x1="247" y1="37" x2="251" y2="39" stroke="black" stroke-width="1" />
<line x1="251" y1="39" x2="255" y2="37" stroke="black" stroke-width="1" />
<rect x="187" y="35" width="60" height="5" style="fill:#f5b024;stroke:black;stroke-width:1;fill-opacity:1;stroke-opacity:0.3" />
<rect x="255" y="35" width="9" height="5" style="fill:#f5b024;stroke:black;stroke-width:1;fill-opacity:1;stroke-opacity:0.3" />
<line x1="264" y1="37" x2="572" y2="37" stroke="pink" stroke-width="1" />
<rect x="572" y="35" width="50" height="5" style="fill:#f5b024;stroke:black;stroke-width:1;fill-opacity:1;stroke-opacity:0.3" />
<line x1="247" y1="44" x2="251" y2="46" stroke="black" stroke-width="1" />
<line x1="251" y1="46" x2="256" y2="44" stroke="black" stroke-width="1" />
<rect x="187" y="42" width="60" height="5" style="fill:#f5b024;stroke:black;stroke-width:1;fill-opacity:1;stroke-opacity:0.3" />
<rect x="256" y="42" width="8" height="5" style="fill:#f5b024;stroke:black;stroke-width:1;fill-opacity:1;stroke-opacity:0.3" />
<line x1="264" y1="44" x2="572" y2="44" stroke="pink" stroke-width="1" />
<rect x="572" y="42" width="51" height="5" style="fill:#f5b024;stroke:black;stroke-width:1;fill-opacity:1;stroke-opacity:0.3" />
<line x1="247" y1="163" x2="413" y2="165" stroke="black" stroke-width="1" />
<line x1="413" y1="165" x2="579" y2="163" stroke="black" stroke-width="1" />
<rect x="187" y="161" width="60" height="5" style="fill:#f5b024;stroke:black;stroke-width:1;fill-opacity:1;stroke-opacity:0.3" />
<rect x="579" y="161" width="51" height="5" style="fill:#f5b024;stroke:black;stroke-width:1;fill-opacity:1;stroke-opacity:0.3" />
<line x1="631" y1="163" x2="702" y2="163" stroke="pink" stroke-width="1" />
<rect x="702" y="161" width="8" height="5" style="fill:#f5b024;stroke:black;stroke-width:1;fill-opacity:1;stroke-opacity:0.3" />
<line x1="253" y1="114" x2="480" y2="116" stroke="black" stroke-width="1" />
<line x1="480" y1="116" x2="708" y2="114" stroke="black" stroke-width="1" />
<rect x="193" y="112" width="60" height="5" style="fill:#f5b024;stroke:black;stroke-width:1;fill-opacity:1;stroke-opacity:0.3" />
<rect x="708" y="112" width="16" height="5" style="fill:#f5b024;stroke:black;stroke-width:1;fill-opacity:1;stroke-opacity:0.3" />
<line x1="725" y1="114" x2="772" y2="114" stroke="pink" stroke-width="1" />
<rect x="772" y="112" width="43" height="5" style="fill:#f5b024;stroke:black;stroke-width:1;fill-opacity:1;stroke-opacity:0.3" />
<line x1="591" y1="121" x2="649" y2="123" stroke="black" stroke-width="1" />
<line x1="649" y1="123" x2="708" y2="121" stroke="black" stroke-width="1" />
<rect x="193" y="119" width="71" height="5" style="fill:#f5b024;stroke:black;stroke-width:1;fill-opacity:1;stroke-opacity:0.3" />
<line x1="264" y1="121" x2="572" y2="121" stroke="pink" stroke-width="1" />
<rect x="572" y="119" width="19" height="5" style="fill:#f5b024;stroke:black;stroke-width:1;fill-opacity:1;stroke-opacity:0.3" />
<rect x="708" y="119" width="17" height="5" style="fill:#f5b024;stroke:black;stroke-width:1;fill-opacity:1;stroke-opacity:0.3" />
<line x1="725" y1="121" x2="772" y2="121" stroke="pink" stroke-width="1" />
<rect x="772" y="119" width="56" height="5" style="fill:#f5b024;stroke:black;stroke-width:1;fill-opacity:1;stroke-opacity:0.3" />
<line x1="828" y1="121" x2="918" y2="121" stroke="pink" stroke-width="1" />
<rect x="918" y="119" width="16" height="5" style="fill:#f5b024;stroke:black;stroke-width:1;fill-opacity:1;stroke-opacity:0.3" />
<line x1="257" y1="100" x2="417" y2="102" stroke="black" stroke-width="1" />
<line x1="417" y1="102" x2="577" y2="100" stroke="black" stroke-width="1" />
<rect x="197" y="98" width="60" height="5" style="fill:#f5b024;stroke:black;stroke-width:1;fill-opacity:1;stroke-opacity:0.3" />
<rect x="577" y="98" width="54" height="5" style="fill:#f5b024;stroke:black;stroke-width:1;fill-opacity:1;stroke-opacity:0.3" />
<line x1="631" y1="100" x2="702" y2="100" stroke="pink" stroke-width="1" />
<rect x="702" y="98" width="6" height="5" style="fill:#f5b024;stroke:black;stroke-width:1;fill-opacity:1;stroke-opacity:0.3" />
<line x1="260" y1="86" x2="418" y2="88" stroke="black" stroke-width="1" />
<line x1="418" y1="88" x2="576" y2="86" stroke="black" stroke-width="1" />
<rect x="200" y="84" width="60" height="5" style="fill:#f5b024;stroke:black;stroke-width:1;fill-opacity:1;stroke-opacity:0.3" />
<rect x="576" y="84" width="54" height="5" style="fill:#f5b024;stroke:black;stroke-width:1;fill-opacity:1;stroke-opacity:0.3" />
<line x1="631" y1="86" x2="702" y2="86" stroke="pink" stroke-width="1" />
<rect x="702" y="84" width="5" height="5" style="fill:#f5b024;stroke:black;stroke-width:1;fill-opacity:1;stroke-opacity:0.3" />
<line x1="573" y1="128" x2="578" y2="130" stroke="black" stroke-width="1" />
<line x1="578" y1="130" x2="583" y2="128" stroke="black" stroke-width="1" />
<rect x="205" y="126" width="59" height="5" style="fill:#5d3c2d;stroke:black;stroke-width:1;fill-opacity:1;stroke-opacity:0.3" />
<line x1="264" y1="128" x2="572" y2="128" stroke="pink" stroke-width="1" />
<rect x="572" y="126" width="1" height="5" style="fill:#5d3c2d;stroke:black;stroke-width:1;fill-opacity:1;stroke-opacity:0.3" />
<rect x="583" y="126" width="48" height="5" style="fill:#5d3c2d;stroke:black;stroke-width:1;fill-opacity:1;stroke-opacity:0.3" />
<line x1="631" y1="128" x2="702" y2="128" stroke="pink" stroke-width="1" />
<rect x="702" y="126" width="12" height="5" style="fill:#5d3c2d;stroke:black;stroke-width:1;fill-opacity:1;stroke-opacity:0.3" />
<line x1="605" y1="149" x2="656" y2="151" stroke="black" stroke-width="1" />
<line x1="656" y1="151" x2="708" y2="149" stroke="black" stroke-width="1" />
<rect x="207" y="147" width="57" height="5" style="fill:#f5b024;stroke:black;stroke-width:1;fill-opacity:1;stroke-opacity:0.3" />
<line x1="264" y1="149" x2="572" y2="149" stroke="pink" stroke-width="1" />
<rect x="572" y="147" width="33" height="5" style="fill:#f5b024;stroke:black;stroke-width:1;fill-opacity:1;stroke-opacity:0.3" />
<rect x="708" y="147" width="16" height="5" style="fill:#f5b024;stroke:black;stroke-width:1;fill-opacity:1;stroke-opacity:0.3" />
<line x1="725" y1="149" x2="772" y2="149" stroke="pink" stroke-width="1" />
<rect x="772" y="147" width="56" height="5" style="fill:#f5b024;stroke:black;stroke-width:1;fill-opacity:1;stroke-opacity:0.3" />
<line x1="828" y1="149" x2="918" y2="149" stroke="pink" stroke-width="1" />
<rect x="918" y="147" width="17" height="5" style="fill:#f5b024;stroke:black;stroke-width:1;fill-opacity:1;stroke-opacity:0.3" />
<line x1="579" y1="65" x2="587" y2="67" stroke="black" stroke-width="1" />
<line x1="587" y1="67" x2="596" y2="65" stroke="black" stroke-width="1" />
<rect x="211" y="63" width="53" height="5" style="fill:#f5b024;stroke:black;stroke-width:1;fill-opacity:1;stroke-opacity:0.3" />
<line x1="264" y1="65" x2="572" y2="65" stroke="pink" stroke-width="1" />
<rect x="572" y="63" width="7" height="5" style="fill:#f5b024;stroke:black;stroke-width:1;fill-opacity:1;stroke-opacity:0.3" />
<rect x="596" y="63" width="34" height="5" style="fill:#f5b024;stroke:black;stroke-width:1;fill-opacity:1;stroke-opacity:0.3" />
<line x1="631" y1="65" x2="702" y2="65" stroke="pink" stroke-width="1" />
<rect x="702" y="63" width="22" height="5" style="fill:#f5b024;stroke:black;stroke-width:1;fill-opacity:1;stroke-opacity:0.3" />
<line x1="725" y1="65" x2="772" y2="65" stroke="pink" stroke-width="1" />
<rect x="772" y="63" width="2" height="5" style="fill:#f5b024;stroke:black;stroke-width:1;fill-opacity:1;stroke-opacity:0.3" />
<line x1="579" y1="72" x2="587" y2="74" stroke="black" stroke-width="1" />
<line x1="587" y1="74" x2="596" y2="72" stroke="black" stroke-width="1" />
<rect x="211" y="70" width="53" height="5" style="fill:#f5b024;stroke:black;stroke-width:1;fill-opacity:1;stroke-opacity:0.3" />
<line x1="264" y1="72" x2="572" y2="72" stroke="pink" stroke-width="1" />
<rect x="572" y="70" width="7" height="5" style="fill:#f5b024;stroke:black;stroke-width:1;fill-opacity:1;stroke-opacity:0.3" />
<rect x="596" y="70" width="34" height="5" style="fill:#f5b024;stroke:black;stroke-width:1;fill-opacity:1;stroke-opacity:0.3" />
<line x1="631" y1="72" x2="702" y2="72" stroke="pink" stroke-width="1" />
<rect x="702" y="70" width="22" height="5" style="fill:#f5b024;stroke:black;stroke-width:1;fill-opacity:1;stroke-opacity:0.3" />
<line x1="725" y1="72" x2="772" y2="72" stroke="pink" stroke-width="1" />
<rect x="772" y="70" width="2" height="5" style="fill:#f5b024;stroke:black;stroke-width:1;fill-opacity:1;stroke-opacity:0.3" />
<line x1="579" y1="156" x2="588" y2="158" stroke="black" stroke-width="1" />
<line x1="588" y1="158" x2="597" y2="156" stroke="black" stroke-width="1" />
<rect x="211" y="154" width="53" height="5" style="fill:#f5b024;stroke:black;stroke-width:1;fill-opacity:1;stroke-opacity:0.3" />
<line x1="264" y1="156" x2="572" y2="156" stroke="pink" stroke-width="1" />
<rect x="572" y="154" width="7" height="5" style="fill:#f5b024;stroke:black;stroke-width:1;fill-opacity:1;stroke-opacity:0.3" />
<rect x="597" y="154" width="33" height="5" style="fill:#f5b024;stroke:black;stroke-width:1;fill-opacity:1;stroke-opacity:0.3" />
<line x1="631" y1="156" x2="702" y2="156" stroke="pink" stroke-width="1" />
<rect x="702" y="154" width="22" height="5" style="fill:#f5b024;stroke:black;stroke-width:1;fill-opacity:1;stroke-opacity:0.3" />
<line x1="725" y1="156" x2="772" y2="156" stroke="pink" stroke-width="1" />
<rect x="772" y="154" width="3" height="5" style="fill:#f5b024;stroke:black;stroke-width:1;fill-opacity:1;stroke-opacity:0.3" />
<line x1="580" y1="51" x2="584" y2="53" stroke="black" stroke-width="1" />
<line x1="584" y1="53" x2="588" y2="51" stroke="black" stroke-width="1" />
<rect x="212" y="49" width="52" height="5" style="fill:#f5b024;stroke:black;stroke-width:1;fill-opacity:1;stroke-opacity:0.3" />
<line x1="264" y1="51" x2="572" y2="51" stroke="pink" stroke-width="1" />
<rect x="572" y="49" width="7" height="5" style="fill:#f5b024;stroke:black;stroke-width:1;fill-opacity:1;stroke-opacity:0.3" />
<rect x="588" y="49" width="43" height="5" style="fill:#f5b024;stroke:black;stroke-width:1;fill-opacity:1;stroke-opacity:0.3" />
<line x1="631" y1="51" x2="702" y2="51" stroke="pink" stroke-width="1" />
<rect x="702" y="49" width="16" height="5" style="fill:#f5b024;stroke:black;stroke-width:1;fill-opacity:1;stroke-opacity:0.3" />
<line x1="582" y1="107" x2="585" y2="109" stroke="black" stroke-width="1" />
<line x1="585" y1="109" x2="589" y2="107" stroke="black" stroke-width="1" />
<rect x="214" y="105" width="50" height="5" style="fill:#f5b024;stroke:black;stroke-width:1;fill-opacity:1;stroke-opacity:0.3" />
<line x1="264" y1="107" x2="572" y2="107" stroke="pink" stroke-width="1" />
<rect x="572" y="105" width="10" height="5" style="fill:#f5b024;stroke:black;stroke-width:1;fill-opacity:1;stroke-opacity:0.3" />
<rect x="589" y="105" width="41" height="5" style="fill:#f5b024;stroke:black;stroke-width:1;fill-opacity:1;stroke-opacity:0.3" />
<line x1="631" y1="107" x2="702" y2="107" stroke="pink" stroke-width="1" />
<rect x="702" y="105" width="18" height="5" style="fill:#f5b024;stroke:black;stroke-width:1;fill-opacity:1;stroke-opacity:0.3" />
<line x1="582" y1="142" x2="649" y2="144" stroke="black" stroke-width="1" />
<line x1="649" y1="144" x2="717" y2="142" stroke="black" stroke-width="1" />
<rect x="214" y="140" width="50" height="5" style="fill:#f5b024;stroke:black;stroke-width:1;fill-opacity:1;stroke-opacity:0.3" />
<line x1="264" y1="142" x2="572" y2="142" stroke="pink" stroke-width="1" />
<rect x="572" y="140" width="10" height="5" style="fill:#f5b024;stroke:black;stroke-width:1;fill-opacity:1;stroke-opacity:0.3" />
<rect x="717" y="140" width="7" height="5" style="fill:#f5b024;stroke:black;stroke-width:1;fill-opacity:1;stroke-opacity:0.3" />
<line x1="725" y1="142" x2="772" y2="142" stroke="pink" stroke-width="1" />
<rect x="772" y="140" width="52" height="5" style="fill:#f5b024;stroke:black;stroke-width:1;fill-opacity:1;stroke-opacity:0.3" />
<line x1="609" y1="79" x2="655" y2="81" stroke="black" stroke-width="1" />
<line x1="655" y1="81" x2="702" y2="79" stroke="black" stroke-width="1" />
<rect x="241" y="77" width="22" height="5" style="fill:#f5b024;stroke:black;stroke-width:1;fill-opacity:1;stroke-opacity:0.3" />
<line x1="264" y1="79" x2="572" y2="79" stroke="pink" stroke-width="1" />
<rect x="572" y="77" width="37" height="5" style="fill:#f5b024;stroke:black;stroke-width:1;fill-opacity:1;stroke-opacity:0.3" />
<rect x="702" y="77" width="22" height="5" style="fill:#f5b024;stroke:black;stroke-width:1;fill-opacity:1;stroke-opacity:0.3" />
<line x1="725" y1="79" x2="772" y2="79" stroke="pink" stroke-width="1" />
<rect x="772" y="77" width="37" height="5" style="fill:#f5b024;stroke:black;stroke-width:1;fill-opacity:1;stroke-opacity:0.3" />
<line x1="610" y1="58" x2="695" y2="60" stroke="black" stroke-width="1" />
<line x1="695" y1="60" x2="781" y2="58" stroke="black" stroke-width="1" />
<rect x="243" y="56" width="21" height="5" style="fill:#f5b024;stroke:black;stroke-width:1;fill-opacity:1;stroke-opacity:0.3" />
<line x1="264" y1="58" x2="572" y2="58" stroke="pink" stroke-width="1" />
<rect x="572" y="56" width="38" height="5" style="fill:#f5b024;stroke:black;stroke-width:1;fill-opacity:1;stroke-opacity:0.3" />
<rect x="781" y="56" width="47" height="5" style="fill:#f5b024;stroke:black;stroke-width:1;fill-opacity:1;stroke-opacity:0.3" />
<line x1="828" y1="58" x2="918" y2="58" stroke="pink" stroke-width="1" />
<rect x="918" y="56" width="12" height="5" style="fill:#f5b024;stroke:black;stroke-width:1;fill-opacity:1;stroke-opacity:0.3" />
<line x1="621" y1="93" x2="661" y2="95" stroke="black" stroke-width="1" />
<line x1="661" y1="95" x2="702" y2="93" stroke="black" stroke-width="1" />
<rect x="253" y="91" width="10" height="5" style="fill:#f5b024;stroke:black;stroke-width:1;fill-opacity:1;stroke-opacity:0.3" />
<line x1="264" y1="93" x2="572" y2="93" stroke="pink" stroke-width="1" />
<rect x="572" y="91" width="49" height="5" style="fill:#f5b024;stroke:black;stroke-width:1;fill-opacity:1;stroke-opacity:0.3" />
<rect x="702" y="91" width="22" height="5" style="fill:#f5b024;stroke:black;stroke-width:1;fill-opacity:1;stroke-opacity:0.3" />
<line x1="725" y1="93" x2="772" y2="93" stroke="pink" stroke-width="1" />
<rect x="772" y="91" width="37" height="5" style="fill:#f5b024;stroke:black;stroke-width:1;fill-opacity:1;stroke-opacity:0.3" />
<line x1="751" y1="135" x2="754" y2="137" stroke="black" stroke-width="1" />
<line x1="754" y1="137" x2="757" y2="135" stroke="black" stroke-width="1" />
<rect x="620" y="133" width="11" height="5" style="fill:#f5b024;stroke:black;stroke-width:1;fill-opacity:1;stroke-opacity:0.3" />
<line x1="631" y1="135" x2="702" y2="135" stroke="pink" stroke-width="1" />
<rect x="702" y="133" width="48" height="5" style="fill:#f5b024;stroke:black;stroke-width:1;fill-opacity:1;stroke-opacity:0.3" />
<rect x="757" y="133" width="60" height="5" style="fill:#f5b024;stroke:black;stroke-width:1;fill-opacity:1;stroke-opacity:0.3" />
<line x1="754" y1="37" x2="769" y2="39" stroke="black" stroke-width="1" />
<line x1="769" y1="39" x2="785" y2="37" stroke="black" stroke-width="1" />
<rect x="623" y="35" width="8" height="5" style="fill:#f5b024;stroke:black;stroke-width:1;fill-opacity:1;stroke-opacity:0.3" />
<line x1="631" y1="37" x2="702" y2="37" stroke="pink" stroke-width="1" />
<rect x="702" y="35" width="51" height="5" style="fill:#f5b024;stroke:black;stroke-width:1;fill-opacity:1;stroke-opacity:0.3" />
<rect x="785" y="35" width="42" height="5" style="fill:#f5b024;stroke:black;stroke-width:1;fill-opacity:1;stroke-opacity:0.3" />
<line x1="828" y1="37" x2="918" y2="37" stroke="pink" stroke-width="1" />
<rect x="918" y="35" width="17" height="5" style="fill:#f5b024;stroke:black;stroke-width:1;fill-opacity:1;stroke-opacity:0.3" />
<line x1="761" y1="44" x2="773" y2="46" stroke="black" stroke-width="1" />
<line x1="773" y1="46" x2="786" y2="44" stroke="black" stroke-width="1" />
<rect x="629" y="42" width="1" height="5" style="fill:#f5b024;stroke:black;stroke-width:1;fill-opacity:1;stroke-opacity:0.3" />
<line x1="631" y1="44" x2="702" y2="44" stroke="pink" stroke-width="1" />
<rect x="702" y="42" width="58" height="5" style="fill:#f5b024;stroke:black;stroke-width:1;fill-opacity:1;stroke-opacity:0.3" />
<rect x="786" y="42" width="42" height="5" style="fill:#f5b024;stroke:black;stroke-width:1;fill-opacity:1;stroke-opacity:0.3" />
<line x1="828" y1="44" x2="918" y2="44" stroke="pink" stroke-width="1" />
<rect x="918" y="42" width="18" height="5" style="fill:#f5b024;stroke:black;stroke-width:1;fill-opacity:1;stroke-opacity:0.3" />
<line x1="816" y1="30" x2="822" y2="32" stroke="black" stroke-width="1" />
<line x1="822" y1="32" x2="828" y2="30" stroke="black" stroke-width="1" />
<rect x="710" y="28" width="15" height="5" style="fill:#f5b024;stroke:black;stroke-width:1;fill-opacity:1;stroke-opacity:0.3" />
<line x1="725" y1="30" x2="772" y2="30" stroke="pink" stroke-width="1" />
<rect x="772" y="28" width="44" height="5" style="fill:#f5b024;stroke:black;stroke-width:1;fill-opacity:1;stroke-opacity:0.3" />
<rect x="828" y="28" width="60" height="5" style="fill:#f5b024;stroke:black;stroke-width:1;fill-opacity:1;stroke-opacity:0.3" />
<line x1="803" y1="51" x2="815" y2="53" stroke="black" stroke-width="1" />
<line x1="815" y1="53" x2="828" y2="51" stroke="black" stroke-width="1" />
<rect x="743" y="49" width="60" height="5" style="fill:#f5b024;stroke:black;stroke-width:1;fill-opacity:1;stroke-opacity:0.3" />
<rect x="828" y="49" width="60" height="5" style="fill:#f5b024;stroke:black;stroke-width:1;fill-opacity:1;stroke-opacity:0.3" />
<line x1="851" y1="65" x2="854" y2="67" stroke="black" stroke-width="1" />
<line x1="854" y1="67" x2="858" y2="65" stroke="black" stroke-width="1" />
<rect x="790" y="63" width="60" height="5" style="fill:#f5b024;stroke:black;stroke-width:1;fill-opacity:1;stroke-opacity:0.3" />
<rect x="858" y="63" width="60" height="5" style="fill:#f5b024;stroke:black;stroke-width:1;fill-opacity:1;stroke-opacity:0.3" />
<line x1="854" y1="72" x2="865" y2="74" stroke="black" stroke-width="1" />
<line x1="865" y1="74" x2="877" y2="72" stroke="black" stroke-width="1" />
<rect x="794" y="70" width="60" height="5" style="fill:#f5b024;stroke:black;stroke-width:1;fill-opacity:1;stroke-opacity:0.3" />
<rect x="877" y="70" width="60" height="5" style="fill:#f5b024;stroke:black;stroke-width:1;fill-opacity:1;stroke-opacity:0.3" />
<text x="15"  y="176" style="font-family:Arial;font-size:10;stroke:black;fill:black;">all.merged.bam</text>
</svg>
    
