<?xml version="1.0" encoding="utf-8" standalone="no"?>
<!DOCTYPE svg PUBLIC "-//W3C//DTD SVG 1.1//EN"
  "http://www.w3.org/Graphics/SVG/1.1/DTD/svg11.dtd">
<svg height="1140" width="1000" version="1.1" viewBox="0 0 1000 1140" xmlns="http://www.w3.org/2000/svg" xmlns:xlink="http://www.w3.org/1999/xlink">
<line x1="49" y1="11" x2="949" y2="11" stroke="black" stroke-width="1" />
<rect x="49" y="9" width="133" height="5" style="fill:#f50002;stroke:black;stroke-width:1;fill-opacity:1;stroke-opacity:0.3" />
<rect x="184" y="9" width="25" height="5" style="fill:#53a1b5;stroke:black;stroke-width:1;fill-opacity:1;stroke-opacity:0.3" />
<rect x="403" y="9" width="195" height="5" style="fill:#53a1b5;stroke:black;stroke-width:1;fill-opacity:1;stroke-opacity:0.3" />
<rect x="658" y="9" width="54" height="5" style="fill:#53a1b5;stroke:black;stroke-width:1;fill-opacity:1;stroke-opacity:0.3" />
<rect x="771" y="9" width="60" height="5" style="fill:#53a1b5;stroke:black;stroke-width:1;fill-opacity:1;stroke-opacity:0.3" />
<rect x="832" y="9" width="116" height="5" style="fill:#f50002;stroke:black;stroke-width:1;fill-opacity:1;stroke-opacity:0.3" />
<text x="49"  y="23" style="font-family:Arial;font-size:10;stroke:black;fill:black;">Cre16.g684500.t1.2.v5.5 (+) chromosome_16:5037596-5039397</text>
<line x1="53" y1="30" x2="56" y2="32" stroke="black" stroke-width="1" />
<line x1="56" y1="32" x2="60" y2="30" stroke="black" stroke-width="1" />
<rect x="3" y="28" width="49" height="5" style="fill:#f5b024;stroke:black;stroke-width:1;fill-opacity:1;stroke-opacity:0.3" />
<rect x="60" y="28" width="49" height="5" style="fill:#f5b024;stroke:black;stroke-width:1;fill-opacity:1;stroke-opacity:0.3" />
<line x1="53" y1="37" x2="66" y2="39" stroke="black" stroke-width="1" />
<line x1="66" y1="39" x2="79" y2="37" stroke="black" stroke-width="1" />
<rect x="3" y="35" width="49" height="5" style="fill:#f5b024;stroke:black;stroke-width:1;fill-opacity:1;stroke-opacity:0.3" />
<rect x="79" y="35" width="49" height="5" style="fill:#f5b024;stroke:black;stroke-width:1;fill-opacity:1;stroke-opacity:0.3" />
<line x1="73" y1="44" x2="76" y2="46" stroke="black" stroke-width="1" />
<line x1="76" y1="46" x2="80" y2="44" stroke="black" stroke-width="1" />
<rect x="23" y="42" width="49" height="5" style="fill:#5d3c2d;stroke:black;stroke-width:1;fill-opacity:1;stroke-opacity:0.3" />
<rect x="80" y="42" width="49" height="5" style="fill:#5d3c2d;stroke:black;stroke-width:1;fill-opacity:1;stroke-opacity:0.3" />
<line x1="95" y1="51" x2="101" y2="53" stroke="black" stroke-width="1" />
<line x1="101" y1="53" x2="108" y2="51" stroke="black" stroke-width="1" />
<rect x="45" y="49" width="49" height="5" style="fill:#5d3c2d;stroke:black;stroke-width:1;fill-opacity:1;stroke-opacity:0.3" />
<rect x="108" y="49" width="49" height="5" style="fill:#5d3c2d;stroke:black;stroke-width:1;fill-opacity:1;stroke-opacity:0.3" />
<line x1="108" y1="58" x2="126" y2="60" stroke="black" stroke-width="1" />
<line x1="126" y1="60" x2="145" y2="58" stroke="black" stroke-width="1" />
<rect x="58" y="56" width="49" height="5" style="fill:#5d3c2d;stroke:black;stroke-width:1;fill-opacity:1;stroke-opacity:0.3" />
<rect x="145" y="56" width="49" height="5" style="fill:#5d3c2d;stroke:black;stroke-width:1;fill-opacity:1;stroke-opacity:0.3" />
<line x1="112" y1="65" x2="117" y2="67" stroke="black" stroke-width="1" />
<line x1="117" y1="67" x2="122" y2="65" stroke="black" stroke-width="1" />
<rect x="62" y="63" width="49" height="5" style="fill:#5d3c2d;stroke:black;stroke-width:1;fill-opacity:1;stroke-opacity:0.3" />
<rect x="122" y="63" width="49" height="5" style="fill:#5d3c2d;stroke:black;stroke-width:1;fill-opacity:1;stroke-opacity:0.3" />
<line x1="134" y1="72" x2="143" y2="74" stroke="black" stroke-width="1" />
<line x1="143" y1="74" x2="153" y2="72" stroke="black" stroke-width="1" />
<rect x="84" y="70" width="49" height="5" style="fill:#5d3c2d;stroke:black;stroke-width:1;fill-opacity:1;stroke-opacity:0.3" />
<rect x="153" y="70" width="49" height="5" style="fill:#5d3c2d;stroke:black;stroke-width:1;fill-opacity:1;stroke-opacity:0.3" />
<line x1="153" y1="79" x2="155" y2="81" stroke="black" stroke-width="1" />
<line x1="155" y1="81" x2="158" y2="79" stroke="black" stroke-width="1" />
<rect x="103" y="77" width="49" height="5" style="fill:#5d3c2d;stroke:black;stroke-width:1;fill-opacity:1;stroke-opacity:0.3" />
<rect x="158" y="77" width="49" height="5" style="fill:#5d3c2d;stroke:black;stroke-width:1;fill-opacity:1;stroke-opacity:0.3" />
<line x1="151" y1="86" x2="157" y2="88" stroke="black" stroke-width="1" />
<line x1="157" y1="88" x2="163" y2="86" stroke="black" stroke-width="1" />
<rect x="109" y="84" width="41" height="5" style="fill:#5d3c2d;stroke:black;stroke-width:1;fill-opacity:1;stroke-opacity:0.3" />
<rect x="163" y="84" width="49" height="5" style="fill:#5d3c2d;stroke:black;stroke-width:1;fill-opacity:1;stroke-opacity:0.3" />
<line x1="170" y1="30" x2="176" y2="32" stroke="black" stroke-width="1" />
<line x1="176" y1="32" x2="183" y2="30" stroke="black" stroke-width="1" />
<rect x="120" y="28" width="49" height="5" style="fill:#5d3c2d;stroke:black;stroke-width:1;fill-opacity:1;stroke-opacity:0.3" />
<rect x="183" y="28" width="49" height="5" style="fill:#5d3c2d;stroke:black;stroke-width:1;fill-opacity:1;stroke-opacity:0.3" />
<line x1="200" y1="93" x2="209" y2="95" stroke="black" stroke-width="1" />
<line x1="209" y1="95" x2="219" y2="93" stroke="black" stroke-width="1" />
<rect x="125" y="91" width="74" height="5" style="fill:#5d3c2d;stroke:black;stroke-width:1;fill-opacity:1;stroke-opacity:0.3" />
<rect x="219" y="91" width="74" height="5" style="fill:#5d3c2d;stroke:black;stroke-width:1;fill-opacity:1;stroke-opacity:0.3" />
<line x1="200" y1="100" x2="216" y2="102" stroke="black" stroke-width="1" />
<line x1="216" y1="102" x2="233" y2="100" stroke="black" stroke-width="1" />
<rect x="125" y="98" width="74" height="5" style="fill:#5d3c2d;stroke:black;stroke-width:1;fill-opacity:1;stroke-opacity:0.3" />
<rect x="233" y="98" width="74" height="5" style="fill:#5d3c2d;stroke:black;stroke-width:1;fill-opacity:1;stroke-opacity:0.3" />
<line x1="180" y1="37" x2="192" y2="39" stroke="black" stroke-width="1" />
<line x1="192" y1="39" x2="205" y2="37" stroke="black" stroke-width="1" />
<rect x="130" y="35" width="49" height="5" style="fill:#5d3c2d;stroke:black;stroke-width:1;fill-opacity:1;stroke-opacity:0.3" />
<rect x="205" y="35" width="49" height="5" style="fill:#5d3c2d;stroke:black;stroke-width:1;fill-opacity:1;stroke-opacity:0.3" />
<line x1="190" y1="44" x2="212" y2="46" stroke="black" stroke-width="1" />
<line x1="212" y1="46" x2="235" y2="44" stroke="black" stroke-width="1" />
<rect x="140" y="42" width="49" height="5" style="fill:#5d3c2d;stroke:black;stroke-width:1;fill-opacity:1;stroke-opacity:0.3" />
<rect x="235" y="42" width="49" height="5" style="fill:#5d3c2d;stroke:black;stroke-width:1;fill-opacity:1;stroke-opacity:0.3" />
<line x1="193" y1="107" x2="202" y2="109" stroke="black" stroke-width="1" />
<line x1="202" y1="109" x2="211" y2="107" stroke="black" stroke-width="1" />
<rect x="143" y="105" width="49" height="5" style="fill:#5d3c2d;stroke:black;stroke-width:1;fill-opacity:1;stroke-opacity:0.3" />
<rect x="211" y="105" width="49" height="5" style="fill:#5d3c2d;stroke:black;stroke-width:1;fill-opacity:1;stroke-opacity:0.3" />
<line x1="193" y1="114" x2="195" y2="116" stroke="black" stroke-width="1" />
<line x1="195" y1="116" x2="198" y2="114" stroke="black" stroke-width="1" />
<rect x="143" y="112" width="49" height="5" style="fill:#5d3c2d;stroke:black;stroke-width:1;fill-opacity:1;stroke-opacity:0.3" />
<rect x="198" y="112" width="49" height="5" style="fill:#5d3c2d;stroke:black;stroke-width:1;fill-opacity:1;stroke-opacity:0.3" />
<line x1="224" y1="121" x2="234" y2="123" stroke="black" stroke-width="1" />
<line x1="234" y1="123" x2="244" y2="121" stroke="black" stroke-width="1" />
<rect x="149" y="119" width="74" height="5" style="fill:#5d3c2d;stroke:black;stroke-width:1;fill-opacity:1;stroke-opacity:0.3" />
<rect x="244" y="119" width="74" height="5" style="fill:#5d3c2d;stroke:black;stroke-width:1;fill-opacity:1;stroke-opacity:0.3" />
<line x1="213" y1="51" x2="233" y2="53" stroke="black" stroke-width="1" />
<line x1="233" y1="53" x2="254" y2="51" stroke="black" stroke-width="1" />
<rect x="163" y="49" width="49" height="5" style="fill:#5d3c2d;stroke:black;stroke-width:1;fill-opacity:1;stroke-opacity:0.3" />
<rect x="254" y="49" width="48" height="5" style="fill:#5d3c2d;stroke:black;stroke-width:1;fill-opacity:1;stroke-opacity:0.3" />
<line x1="213" y1="128" x2="217" y2="130" stroke="black" stroke-width="1" />
<line x1="217" y1="130" x2="221" y2="128" stroke="black" stroke-width="1" />
<rect x="163" y="126" width="49" height="5" style="fill:#5d3c2d;stroke:black;stroke-width:1;fill-opacity:1;stroke-opacity:0.3" />
<rect x="221" y="126" width="49" height="5" style="fill:#5d3c2d;stroke:black;stroke-width:1;fill-opacity:1;stroke-opacity:0.3" />
<line x1="216" y1="135" x2="245" y2="137" stroke="black" stroke-width="1" />
<line x1="245" y1="137" x2="274" y2="135" stroke="black" stroke-width="1" />
<rect x="166" y="133" width="49" height="5" style="fill:#5d3c2d;stroke:black;stroke-width:1;fill-opacity:1;stroke-opacity:0.3" />
<rect x="274" y="133" width="49" height="5" style="fill:#5d3c2d;stroke:black;stroke-width:1;fill-opacity:1;stroke-opacity:0.3" />
<line x1="236" y1="65" x2="248" y2="67" stroke="black" stroke-width="1" />
<line x1="248" y1="67" x2="260" y2="65" stroke="black" stroke-width="1" />
<rect x="186" y="63" width="49" height="5" style="fill:#5d3c2d;stroke:black;stroke-width:1;fill-opacity:1;stroke-opacity:0.3" />
<rect x="260" y="63" width="49" height="5" style="fill:#5d3c2d;stroke:black;stroke-width:1;fill-opacity:1;stroke-opacity:0.3" />
<line x1="237" y1="142" x2="240" y2="144" stroke="black" stroke-width="1" />
<line x1="240" y1="144" x2="244" y2="142" stroke="black" stroke-width="1" />
<rect x="187" y="140" width="49" height="5" style="fill:#5d3c2d;stroke:black;stroke-width:1;fill-opacity:1;stroke-opacity:0.3" />
<rect x="244" y="140" width="49" height="5" style="fill:#5d3c2d;stroke:black;stroke-width:1;fill-opacity:1;stroke-opacity:0.3" />
<line x1="243" y1="149" x2="247" y2="151" stroke="black" stroke-width="1" />
<line x1="247" y1="151" x2="251" y2="149" stroke="black" stroke-width="1" />
<rect x="193" y="147" width="49" height="5" style="fill:#5d3c2d;stroke:black;stroke-width:1;fill-opacity:1;stroke-opacity:0.3" />
<rect x="251" y="147" width="49" height="5" style="fill:#5d3c2d;stroke:black;stroke-width:1;fill-opacity:1;stroke-opacity:0.3" />
<line x1="245" y1="58" x2="248" y2="60" stroke="black" stroke-width="1" />
<line x1="248" y1="60" x2="252" y2="58" stroke="black" stroke-width="1" />
<rect x="195" y="56" width="49" height="5" style="fill:#5d3c2d;stroke:black;stroke-width:1;fill-opacity:1;stroke-opacity:0.3" />
<rect x="252" y="56" width="49" height="5" style="fill:#5d3c2d;stroke:black;stroke-width:1;fill-opacity:1;stroke-opacity:0.3" />
<line x1="252" y1="156" x2="257" y2="158" stroke="black" stroke-width="1" />
<line x1="257" y1="158" x2="262" y2="156" stroke="black" stroke-width="1" />
<rect x="202" y="154" width="49" height="5" style="fill:#f5b024;stroke:black;stroke-width:1;fill-opacity:1;stroke-opacity:0.3" />
<rect x="262" y="154" width="49" height="5" style="fill:#f5b024;stroke:black;stroke-width:1;fill-opacity:1;stroke-opacity:0.3" />
<line x1="271" y1="72" x2="280" y2="74" stroke="black" stroke-width="1" />
<line x1="280" y1="74" x2="290" y2="72" stroke="black" stroke-width="1" />
<rect x="221" y="70" width="49" height="5" style="fill:#5d3c2d;stroke:black;stroke-width:1;fill-opacity:1;stroke-opacity:0.3" />
<rect x="290" y="70" width="49" height="5" style="fill:#5d3c2d;stroke:black;stroke-width:1;fill-opacity:1;stroke-opacity:0.3" />
<line x1="271" y1="79" x2="280" y2="81" stroke="black" stroke-width="1" />
<line x1="280" y1="81" x2="290" y2="79" stroke="black" stroke-width="1" />
<rect x="221" y="77" width="49" height="5" style="fill:#5d3c2d;stroke:black;stroke-width:1;fill-opacity:1;stroke-opacity:0.3" />
<rect x="290" y="77" width="49" height="5" style="fill:#5d3c2d;stroke:black;stroke-width:1;fill-opacity:1;stroke-opacity:0.3" />
<line x1="279" y1="86" x2="281" y2="88" stroke="black" stroke-width="1" />
<line x1="281" y1="88" x2="284" y2="86" stroke="black" stroke-width="1" />
<rect x="229" y="84" width="49" height="5" style="fill:#5d3c2d;stroke:black;stroke-width:1;fill-opacity:1;stroke-opacity:0.3" />
<rect x="284" y="84" width="44" height="5" style="fill:#5d3c2d;stroke:black;stroke-width:1;fill-opacity:1;stroke-opacity:0.3" />
<line x1="291" y1="30" x2="297" y2="32" stroke="black" stroke-width="1" />
<line x1="297" y1="32" x2="303" y2="30" stroke="black" stroke-width="1" />
<rect x="241" y="28" width="49" height="5" style="fill:#5d3c2d;stroke:black;stroke-width:1;fill-opacity:1;stroke-opacity:0.3" />
<rect x="303" y="28" width="49" height="5" style="fill:#5d3c2d;stroke:black;stroke-width:1;fill-opacity:1;stroke-opacity:0.3" />
<line x1="292" y1="163" x2="297" y2="165" stroke="black" stroke-width="1" />
<line x1="297" y1="165" x2="303" y2="163" stroke="black" stroke-width="1" />
<rect x="242" y="161" width="49" height="5" style="fill:#5d3c2d;stroke:black;stroke-width:1;fill-opacity:1;stroke-opacity:0.3" />
<rect x="303" y="161" width="49" height="5" style="fill:#5d3c2d;stroke:black;stroke-width:1;fill-opacity:1;stroke-opacity:0.3" />
<line x1="301" y1="114" x2="314" y2="116" stroke="black" stroke-width="1" />
<line x1="314" y1="116" x2="328" y2="114" stroke="black" stroke-width="1" />
<rect x="251" y="112" width="49" height="5" style="fill:#5d3c2d;stroke:black;stroke-width:1;fill-opacity:1;stroke-opacity:0.3" />
<rect x="328" y="112" width="49" height="5" style="fill:#5d3c2d;stroke:black;stroke-width:1;fill-opacity:1;stroke-opacity:0.3" />
<line x1="307" y1="37" x2="317" y2="39" stroke="black" stroke-width="1" />
<line x1="317" y1="39" x2="327" y2="37" stroke="black" stroke-width="1" />
<rect x="257" y="35" width="49" height="5" style="fill:#5d3c2d;stroke:black;stroke-width:1;fill-opacity:1;stroke-opacity:0.3" />
<rect x="327" y="35" width="49" height="5" style="fill:#5d3c2d;stroke:black;stroke-width:1;fill-opacity:1;stroke-opacity:0.3" />
<line x1="337" y1="107" x2="345" y2="109" stroke="black" stroke-width="1" />
<line x1="345" y1="109" x2="354" y2="107" stroke="black" stroke-width="1" />
<rect x="262" y="105" width="74" height="5" style="fill:#5d3c2d;stroke:black;stroke-width:1;fill-opacity:1;stroke-opacity:0.3" />
<rect x="354" y="105" width="74" height="5" style="fill:#5d3c2d;stroke:black;stroke-width:1;fill-opacity:1;stroke-opacity:0.3" />
<line x1="355" y1="128" x2="364" y2="130" stroke="black" stroke-width="1" />
<line x1="364" y1="130" x2="373" y2="128" stroke="black" stroke-width="1" />
<rect x="280" y="126" width="74" height="5" style="fill:#5d3c2d;stroke:black;stroke-width:1;fill-opacity:1;stroke-opacity:0.3" />
<rect x="373" y="126" width="74" height="5" style="fill:#5d3c2d;stroke:black;stroke-width:1;fill-opacity:1;stroke-opacity:0.3" />
<line x1="380" y1="44" x2="389" y2="46" stroke="black" stroke-width="1" />
<line x1="389" y1="46" x2="398" y2="44" stroke="black" stroke-width="1" />
<rect x="305" y="42" width="74" height="5" style="fill:#5d3c2d;stroke:black;stroke-width:1;fill-opacity:1;stroke-opacity:0.3" />
<rect x="398" y="42" width="74" height="5" style="fill:#5d3c2d;stroke:black;stroke-width:1;fill-opacity:1;stroke-opacity:0.3" />
<line x1="365" y1="51" x2="368" y2="53" stroke="black" stroke-width="1" />
<line x1="368" y1="53" x2="372" y2="51" stroke="black" stroke-width="1" />
<rect x="315" y="49" width="49" height="5" style="fill:#5d3c2d;stroke:black;stroke-width:1;fill-opacity:1;stroke-opacity:0.3" />
<rect x="372" y="49" width="49" height="5" style="fill:#5d3c2d;stroke:black;stroke-width:1;fill-opacity:1;stroke-opacity:0.3" />
<line x1="382" y1="58" x2="387" y2="60" stroke="black" stroke-width="1" />
<line x1="387" y1="60" x2="392" y2="58" stroke="black" stroke-width="1" />
<rect x="332" y="56" width="49" height="5" style="fill:#5d3c2d;stroke:black;stroke-width:1;fill-opacity:1;stroke-opacity:0.3" />
<rect x="392" y="56" width="49" height="5" style="fill:#5d3c2d;stroke:black;stroke-width:1;fill-opacity:1;stroke-opacity:0.3" />
<line x1="486" y1="30" x2="499" y2="32" stroke="black" stroke-width="1" />
<line x1="499" y1="32" x2="512" y2="30" stroke="black" stroke-width="1" />
<rect x="436" y="28" width="49" height="5" style="fill:#5d3c2d;stroke:black;stroke-width:1;fill-opacity:1;stroke-opacity:0.3" />
<rect x="512" y="28" width="49" height="5" style="fill:#5d3c2d;stroke:black;stroke-width:1;fill-opacity:1;stroke-opacity:0.3" />
<line x1="491" y1="37" x2="501" y2="39" stroke="black" stroke-width="1" />
<line x1="501" y1="39" x2="512" y2="37" stroke="black" stroke-width="1" />
<rect x="441" y="35" width="49" height="5" style="fill:#5d3c2d;stroke:black;stroke-width:1;fill-opacity:1;stroke-opacity:0.3" />
<rect x="512" y="35" width="49" height="5" style="fill:#5d3c2d;stroke:black;stroke-width:1;fill-opacity:1;stroke-opacity:0.3" />
<line x1="497" y1="51" x2="506" y2="53" stroke="black" stroke-width="1" />
<line x1="506" y1="53" x2="515" y2="51" stroke="black" stroke-width="1" />
<rect x="447" y="49" width="49" height="5" style="fill:#5d3c2d;stroke:black;stroke-width:1;fill-opacity:1;stroke-opacity:0.3" />
<rect x="515" y="49" width="49" height="5" style="fill:#5d3c2d;stroke:black;stroke-width:1;fill-opacity:1;stroke-opacity:0.3" />
<line x1="541" y1="58" x2="545" y2="60" stroke="black" stroke-width="1" />
<line x1="545" y1="60" x2="549" y2="58" stroke="black" stroke-width="1" />
<rect x="467" y="56" width="74" height="5" style="fill:#5d3c2d;stroke:black;stroke-width:1;fill-opacity:1;stroke-opacity:0.3" />
<rect x="549" y="56" width="49" height="5" style="fill:#5d3c2d;stroke:black;stroke-width:1;fill-opacity:1;stroke-opacity:0.3" />
<line x1="599" y1="58" x2="658" y2="58" stroke="pink" stroke-width="1" />
<rect x="658" y="56" width="24" height="5" style="fill:#5d3c2d;stroke:black;stroke-width:1;fill-opacity:1;stroke-opacity:0.3" />
<line x1="543" y1="44" x2="546" y2="46" stroke="black" stroke-width="1" />
<line x1="546" y1="46" x2="549" y2="44" stroke="black" stroke-width="1" />
<rect x="493" y="42" width="49" height="5" style="fill:#5d3c2d;stroke:black;stroke-width:1;fill-opacity:1;stroke-opacity:0.3" />
<rect x="549" y="42" width="49" height="5" style="fill:#5d3c2d;stroke:black;stroke-width:1;fill-opacity:1;stroke-opacity:0.3" />
<line x1="561" y1="65" x2="571" y2="67" stroke="black" stroke-width="1" />
<line x1="571" y1="67" x2="581" y2="65" stroke="black" stroke-width="1" />
<rect x="511" y="63" width="49" height="5" style="fill:#5d3c2d;stroke:black;stroke-width:1;fill-opacity:1;stroke-opacity:0.3" />
<rect x="581" y="63" width="17" height="5" style="fill:#5d3c2d;stroke:black;stroke-width:1;fill-opacity:1;stroke-opacity:0.3" />
<line x1="599" y1="65" x2="658" y2="65" stroke="pink" stroke-width="1" />
<rect x="658" y="63" width="31" height="5" style="fill:#5d3c2d;stroke:black;stroke-width:1;fill-opacity:1;stroke-opacity:0.3" />
<line x1="567" y1="72" x2="573" y2="74" stroke="black" stroke-width="1" />
<line x1="573" y1="74" x2="580" y2="72" stroke="black" stroke-width="1" />
<rect x="517" y="70" width="49" height="5" style="fill:#5d3c2d;stroke:black;stroke-width:1;fill-opacity:1;stroke-opacity:0.3" />
<rect x="580" y="70" width="18" height="5" style="fill:#5d3c2d;stroke:black;stroke-width:1;fill-opacity:1;stroke-opacity:0.3" />
<line x1="599" y1="72" x2="658" y2="72" stroke="pink" stroke-width="1" />
<rect x="658" y="70" width="30" height="5" style="fill:#5d3c2d;stroke:black;stroke-width:1;fill-opacity:1;stroke-opacity:0.3" />
<line x1="572" y1="79" x2="576" y2="81" stroke="black" stroke-width="1" />
<line x1="576" y1="81" x2="581" y2="79" stroke="black" stroke-width="1" />
<rect x="522" y="77" width="49" height="5" style="fill:#5d3c2d;stroke:black;stroke-width:1;fill-opacity:1;stroke-opacity:0.3" />
<rect x="581" y="77" width="17" height="5" style="fill:#5d3c2d;stroke:black;stroke-width:1;fill-opacity:1;stroke-opacity:0.3" />
<line x1="599" y1="79" x2="658" y2="79" stroke="pink" stroke-width="1" />
<rect x="658" y="77" width="31" height="5" style="fill:#5d3c2d;stroke:black;stroke-width:1;fill-opacity:1;stroke-opacity:0.3" />
<line x1="575" y1="86" x2="578" y2="88" stroke="black" stroke-width="1" />
<line x1="578" y1="88" x2="581" y2="86" stroke="black" stroke-width="1" />
<rect x="525" y="84" width="49" height="5" style="fill:#5d3c2d;stroke:black;stroke-width:1;fill-opacity:1;stroke-opacity:0.3" />
<rect x="581" y="84" width="17" height="5" style="fill:#5d3c2d;stroke:black;stroke-width:1;fill-opacity:1;stroke-opacity:0.3" />
<line x1="599" y1="86" x2="658" y2="86" stroke="pink" stroke-width="1" />
<rect x="658" y="84" width="32" height="5" style="fill:#5d3c2d;stroke:black;stroke-width:1;fill-opacity:1;stroke-opacity:0.3" />
<line x1="577" y1="93" x2="582" y2="95" stroke="black" stroke-width="1" />
<line x1="582" y1="95" x2="587" y2="93" stroke="black" stroke-width="1" />
<rect x="527" y="91" width="49" height="5" style="fill:#5d3c2d;stroke:black;stroke-width:1;fill-opacity:1;stroke-opacity:0.3" />
<rect x="587" y="91" width="11" height="5" style="fill:#5d3c2d;stroke:black;stroke-width:1;fill-opacity:1;stroke-opacity:0.3" />
<line x1="599" y1="93" x2="658" y2="93" stroke="pink" stroke-width="1" />
<rect x="658" y="91" width="38" height="5" style="fill:#5d3c2d;stroke:black;stroke-width:1;fill-opacity:1;stroke-opacity:0.3" />
<line x1="591" y1="100" x2="632" y2="102" stroke="black" stroke-width="1" />
<line x1="632" y1="102" x2="674" y2="100" stroke="black" stroke-width="1" />
<rect x="541" y="98" width="49" height="5" style="fill:#5d3c2d;stroke:black;stroke-width:1;fill-opacity:1;stroke-opacity:0.3" />
<rect x="674" y="98" width="39" height="5" style="fill:#5d3c2d;stroke:black;stroke-width:1;fill-opacity:1;stroke-opacity:0.3" />
<line x1="713" y1="100" x2="771" y2="100" stroke="pink" stroke-width="1" />
<rect x="771" y="98" width="10" height="5" style="fill:#5d3c2d;stroke:black;stroke-width:1;fill-opacity:1;stroke-opacity:0.3" />
<line x1="591" y1="107" x2="632" y2="109" stroke="black" stroke-width="1" />
<line x1="632" y1="109" x2="673" y2="107" stroke="black" stroke-width="1" />
<rect x="541" y="105" width="49" height="5" style="fill:#5d3c2d;stroke:black;stroke-width:1;fill-opacity:1;stroke-opacity:0.3" />
<rect x="673" y="105" width="39" height="5" style="fill:#5d3c2d;stroke:black;stroke-width:1;fill-opacity:1;stroke-opacity:0.3" />
<line x1="713" y1="107" x2="771" y2="107" stroke="pink" stroke-width="1" />
<rect x="771" y="105" width="9" height="5" style="fill:#5d3c2d;stroke:black;stroke-width:1;fill-opacity:1;stroke-opacity:0.3" />
<line x1="687" y1="30" x2="695" y2="32" stroke="black" stroke-width="1" />
<line x1="695" y1="32" x2="704" y2="30" stroke="black" stroke-width="1" />
<rect x="637" y="28" width="49" height="5" style="fill:#5d3c2d;stroke:black;stroke-width:1;fill-opacity:1;stroke-opacity:0.3" />
<rect x="704" y="28" width="49" height="5" style="fill:#5d3c2d;stroke:black;stroke-width:1;fill-opacity:1;stroke-opacity:0.3" />
<line x1="847" y1="30" x2="855" y2="32" stroke="black" stroke-width="1" />
<line x1="855" y1="32" x2="863" y2="30" stroke="black" stroke-width="1" />
<rect x="797" y="28" width="49" height="5" style="fill:#5d3c2d;stroke:black;stroke-width:1;fill-opacity:1;stroke-opacity:0.3" />
<rect x="863" y="28" width="49" height="5" style="fill:#5d3c2d;stroke:black;stroke-width:1;fill-opacity:1;stroke-opacity:0.3" />
<line x1="869" y1="37" x2="895" y2="39" stroke="black" stroke-width="1" />
<line x1="895" y1="39" x2="921" y2="37" stroke="black" stroke-width="1" />
<rect x="819" y="35" width="49" height="5" style="fill:#5d3c2d;stroke:black;stroke-width:1;fill-opacity:1;stroke-opacity:0.3" />
<rect x="921" y="35" width="49" height="5" style="fill:#5d3c2d;stroke:black;stroke-width:1;fill-opacity:1;stroke-opacity:0.3" />
<line x1="897" y1="44" x2="908" y2="46" stroke="black" stroke-width="1" />
<line x1="908" y1="46" x2="920" y2="44" stroke="black" stroke-width="1" />
<rect x="847" y="42" width="49" height="5" style="fill:#f5b024;stroke:black;stroke-width:1;fill-opacity:1;stroke-opacity:0.3" />
<rect x="920" y="42" width="49" height="5" style="fill:#f5b024;stroke:black;stroke-width:1;fill-opacity:1;stroke-opacity:0.3" />
<line x1="897" y1="51" x2="909" y2="53" stroke="black" stroke-width="1" />
<line x1="909" y1="53" x2="922" y2="51" stroke="black" stroke-width="1" />
<rect x="847" y="49" width="49" height="5" style="fill:#5d3c2d;stroke:black;stroke-width:1;fill-opacity:1;stroke-opacity:0.3" />
<rect x="922" y="49" width="49" height="5" style="fill:#5d3c2d;stroke:black;stroke-width:1;fill-opacity:1;stroke-opacity:0.3" />
<line x1="898" y1="58" x2="909" y2="60" stroke="black" stroke-width="1" />
<line x1="909" y1="60" x2="920" y2="58" stroke="black" stroke-width="1" />
<rect x="848" y="56" width="49" height="5" style="fill:#5d3c2d;stroke:black;stroke-width:1;fill-opacity:1;stroke-opacity:0.3" />
<rect x="920" y="56" width="49" height="5" style="fill:#5d3c2d;stroke:black;stroke-width:1;fill-opacity:1;stroke-opacity:0.3" />
<line x1="898" y1="65" x2="909" y2="67" stroke="black" stroke-width="1" />
<line x1="909" y1="67" x2="920" y2="65" stroke="black" stroke-width="1" />
<rect x="848" y="63" width="49" height="5" style="fill:#5d3c2d;stroke:black;stroke-width:1;fill-opacity:1;stroke-opacity:0.3" />
<rect x="920" y="63" width="49" height="5" style="fill:#5d3c2d;stroke:black;stroke-width:1;fill-opacity:1;stroke-opacity:0.3" />
<line x1="899" y1="72" x2="920" y2="74" stroke="black" stroke-width="1" />
<line x1="920" y1="74" x2="942" y2="72" stroke="black" stroke-width="1" />
<rect x="849" y="70" width="49" height="5" style="fill:#5d3c2d;stroke:black;stroke-width:1;fill-opacity:1;stroke-opacity:0.3" />
<rect x="942" y="70" width="49" height="5" style="fill:#5d3c2d;stroke:black;stroke-width:1;fill-opacity:1;stroke-opacity:0.3" />
<line x1="901" y1="79" x2="908" y2="81" stroke="black" stroke-width="1" />
<line x1="908" y1="81" x2="916" y2="79" stroke="black" stroke-width="1" />
<rect x="851" y="77" width="49" height="5" style="fill:#5d3c2d;stroke:black;stroke-width:1;fill-opacity:1;stroke-opacity:0.3" />
<rect x="916" y="77" width="49" height="5" style="fill:#5d3c2d;stroke:black;stroke-width:1;fill-opacity:1;stroke-opacity:0.3" />
<line x1="908" y1="86" x2="928" y2="88" stroke="black" stroke-width="1" />
<line x1="928" y1="88" x2="949" y2="86" stroke="black" stroke-width="1" />
<rect x="858" y="84" width="49" height="5" style="fill:#5d3c2d;stroke:black;stroke-width:1;fill-opacity:1;stroke-opacity:0.3" />
<rect x="949" y="84" width="49" height="5" style="fill:#5d3c2d;stroke:black;stroke-width:1;fill-opacity:1;stroke-opacity:0.3" />
<line x1="908" y1="93" x2="919" y2="95" stroke="black" stroke-width="1" />
<line x1="919" y1="95" x2="931" y2="93" stroke="black" stroke-width="1" />
<rect x="858" y="91" width="49" height="5" style="fill:#f5b024;stroke:black;stroke-width:1;fill-opacity:1;stroke-opacity:0.3" />
<rect x="931" y="91" width="49" height="5" style="fill:#f5b024;stroke:black;stroke-width:1;fill-opacity:1;stroke-opacity:0.3" />
<line x1="909" y1="100" x2="912" y2="102" stroke="black" stroke-width="1" />
<line x1="912" y1="102" x2="915" y2="100" stroke="black" stroke-width="1" />
<rect x="859" y="98" width="49" height="5" style="fill:#f5b024;stroke:black;stroke-width:1;fill-opacity:1;stroke-opacity:0.3" />
<rect x="915" y="98" width="49" height="5" style="fill:#f5b024;stroke:black;stroke-width:1;fill-opacity:1;stroke-opacity:0.3" />
<line x1="909" y1="107" x2="914" y2="109" stroke="black" stroke-width="1" />
<line x1="914" y1="109" x2="919" y2="107" stroke="black" stroke-width="1" />
<rect x="859" y="105" width="49" height="5" style="fill:#5d3c2d;stroke:black;stroke-width:1;fill-opacity:1;stroke-opacity:0.3" />
<rect x="919" y="105" width="49" height="5" style="fill:#5d3c2d;stroke:black;stroke-width:1;fill-opacity:1;stroke-opacity:0.3" />
<line x1="909" y1="114" x2="914" y2="116" stroke="black" stroke-width="1" />
<line x1="914" y1="116" x2="920" y2="114" stroke="black" stroke-width="1" />
<rect x="859" y="112" width="49" height="5" style="fill:#5d3c2d;stroke:black;stroke-width:1;fill-opacity:1;stroke-opacity:0.3" />
<rect x="920" y="112" width="49" height="5" style="fill:#5d3c2d;stroke:black;stroke-width:1;fill-opacity:1;stroke-opacity:0.3" />
<line x1="911" y1="121" x2="926" y2="123" stroke="black" stroke-width="1" />
<line x1="926" y1="123" x2="942" y2="121" stroke="black" stroke-width="1" />
<rect x="861" y="119" width="49" height="5" style="fill:#5d3c2d;stroke:black;stroke-width:1;fill-opacity:1;stroke-opacity:0.3" />
<rect x="942" y="119" width="49" height="5" style="fill:#5d3c2d;stroke:black;stroke-width:1;fill-opacity:1;stroke-opacity:0.3" />
<line x1="911" y1="128" x2="920" y2="130" stroke="black" stroke-width="1" />
<line x1="920" y1="130" x2="930" y2="128" stroke="black" stroke-width="1" />
<rect x="861" y="126" width="49" height="5" style="fill:#5d3c2d;stroke:black;stroke-width:1;fill-opacity:1;stroke-opacity:0.3" />
<rect x="930" y="126" width="49" height="5" style="fill:#5d3c2d;stroke:black;stroke-width:1;fill-opacity:1;stroke-opacity:0.3" />
<line x1="913" y1="135" x2="916" y2="137" stroke="black" stroke-width="1" />
<line x1="916" y1="137" x2="920" y2="135" stroke="black" stroke-width="1" />
<rect x="863" y="133" width="49" height="5" style="fill:#5d3c2d;stroke:black;stroke-width:1;fill-opacity:1;stroke-opacity:0.3" />
<rect x="920" y="133" width="49" height="5" style="fill:#5d3c2d;stroke:black;stroke-width:1;fill-opacity:1;stroke-opacity:0.3" />
<line x1="913" y1="142" x2="927" y2="144" stroke="black" stroke-width="1" />
<line x1="927" y1="144" x2="941" y2="142" stroke="black" stroke-width="1" />
<rect x="863" y="140" width="49" height="5" style="fill:#5d3c2d;stroke:black;stroke-width:1;fill-opacity:1;stroke-opacity:0.3" />
<rect x="941" y="140" width="49" height="5" style="fill:#5d3c2d;stroke:black;stroke-width:1;fill-opacity:1;stroke-opacity:0.3" />
<line x1="925" y1="149" x2="933" y2="151" stroke="black" stroke-width="1" />
<line x1="933" y1="151" x2="942" y2="149" stroke="black" stroke-width="1" />
<rect x="875" y="147" width="49" height="5" style="fill:#5d3c2d;stroke:black;stroke-width:1;fill-opacity:1;stroke-opacity:0.3" />
<rect x="942" y="147" width="49" height="5" style="fill:#5d3c2d;stroke:black;stroke-width:1;fill-opacity:1;stroke-opacity:0.3" />
<line x1="928" y1="156" x2="936" y2="158" stroke="black" stroke-width="1" />
<line x1="936" y1="158" x2="944" y2="156" stroke="black" stroke-width="1" />
<rect x="878" y="154" width="49" height="5" style="fill:#5d3c2d;stroke:black;stroke-width:1;fill-opacity:1;stroke-opacity:0.3" />
<rect x="944" y="154" width="49" height="5" style="fill:#5d3c2d;stroke:black;stroke-width:1;fill-opacity:1;stroke-opacity:0.3" />
<text x="15"  y="176" style="font-family:Arial;font-size:10;stroke:black;fill:black;">all.merged.bam</text>
</svg>
    
