<?xml version="1.0" encoding="utf-8" standalone="no"?>
<!DOCTYPE svg PUBLIC "-//W3C//DTD SVG 1.1//EN"
  "http://www.w3.org/Graphics/SVG/1.1/DTD/svg11.dtd">
<svg height="1140" width="1000" version="1.1" viewBox="0 0 1000 1140" xmlns="http://www.w3.org/2000/svg" xmlns:xlink="http://www.w3.org/1999/xlink">
<line x1="26" y1="11" x2="973" y2="11" stroke="black" stroke-width="1" />
<rect x="26" y="9" width="4" height="5" style="fill:#f50002;stroke:black;stroke-width:1;fill-opacity:1;stroke-opacity:0.3" />
<rect x="30" y="9" width="5" height="5" style="fill:#53a1b5;stroke:black;stroke-width:1;fill-opacity:1;stroke-opacity:0.3" />
<rect x="108" y="9" width="26" height="5" style="fill:#53a1b5;stroke:black;stroke-width:1;fill-opacity:1;stroke-opacity:0.3" />
<rect x="207" y="9" width="19" height="5" style="fill:#53a1b5;stroke:black;stroke-width:1;fill-opacity:1;stroke-opacity:0.3" />
<rect x="311" y="9" width="19" height="5" style="fill:#53a1b5;stroke:black;stroke-width:1;fill-opacity:1;stroke-opacity:0.3" />
<rect x="370" y="9" width="23" height="5" style="fill:#53a1b5;stroke:black;stroke-width:1;fill-opacity:1;stroke-opacity:0.3" />
<rect x="432" y="9" width="20" height="5" style="fill:#53a1b5;stroke:black;stroke-width:1;fill-opacity:1;stroke-opacity:0.3" />
<rect x="508" y="9" width="25" height="5" style="fill:#53a1b5;stroke:black;stroke-width:1;fill-opacity:1;stroke-opacity:0.3" />
<rect x="605" y="9" width="14" height="5" style="fill:#53a1b5;stroke:black;stroke-width:1;fill-opacity:1;stroke-opacity:0.3" />
<rect x="620" y="9" width="33" height="5" style="fill:#f50002;stroke:black;stroke-width:1;fill-opacity:1;stroke-opacity:0.3" />
<rect x="687" y="9" width="44" height="5" style="fill:#f50002;stroke:black;stroke-width:1;fill-opacity:1;stroke-opacity:0.3" />
<rect x="871" y="9" width="101" height="5" style="fill:#f50002;stroke:black;stroke-width:1;fill-opacity:1;stroke-opacity:0.3" />
<text x="26"  y="23" style="font-family:Arial;font-size:10;stroke:black;fill:black;">Cre10.g444216.t1.1.v5.5 (-) chromosome_10:3388287-3391922</text>
<line x1="36" y1="30" x2="74" y2="32" stroke="black" stroke-width="1" />
<line x1="74" y1="32" x2="112" y2="30" stroke="black" stroke-width="1" />
<rect x="11" y="28" width="25" height="5" style="fill:#f5b024;stroke:black;stroke-width:1;fill-opacity:1;stroke-opacity:0.3" />
<rect x="112" y="28" width="23" height="5" style="fill:#f5b024;stroke:black;stroke-width:1;fill-opacity:1;stroke-opacity:0.3" />
<line x1="136" y1="30" x2="207" y2="30" stroke="pink" stroke-width="1" />
<rect x="207" y="28" width="2" height="5" style="fill:#f5b024;stroke:black;stroke-width:1;fill-opacity:1;stroke-opacity:0.3" />
<line x1="36" y1="37" x2="72" y2="39" stroke="black" stroke-width="1" />
<line x1="72" y1="39" x2="108" y2="37" stroke="black" stroke-width="1" />
<rect x="11" y="35" width="25" height="5" style="fill:#f5b024;stroke:black;stroke-width:1;fill-opacity:1;stroke-opacity:0.3" />
<rect x="108" y="35" width="24" height="5" style="fill:#f5b024;stroke:black;stroke-width:1;fill-opacity:1;stroke-opacity:0.3" />
<line x1="36" y1="44" x2="74" y2="46" stroke="black" stroke-width="1" />
<line x1="74" y1="46" x2="112" y2="44" stroke="black" stroke-width="1" />
<rect x="11" y="42" width="24" height="5" style="fill:#5d3c2d;stroke:black;stroke-width:1;fill-opacity:1;stroke-opacity:0.3" />
<rect x="112" y="42" width="23" height="5" style="fill:#5d3c2d;stroke:black;stroke-width:1;fill-opacity:1;stroke-opacity:0.3" />
<line x1="136" y1="44" x2="207" y2="44" stroke="pink" stroke-width="1" />
<rect x="207" y="42" width="2" height="5" style="fill:#5d3c2d;stroke:black;stroke-width:1;fill-opacity:1;stroke-opacity:0.3" />
<line x1="124" y1="51" x2="128" y2="53" stroke="black" stroke-width="1" />
<line x1="128" y1="53" x2="133" y2="51" stroke="black" stroke-width="1" />
<rect x="25" y="49" width="10" height="5" style="fill:#5d3c2d;stroke:black;stroke-width:1;fill-opacity:1;stroke-opacity:0.3" />
<line x1="36" y1="51" x2="108" y2="51" stroke="pink" stroke-width="1" />
<rect x="108" y="49" width="15" height="5" style="fill:#5d3c2d;stroke:black;stroke-width:1;fill-opacity:1;stroke-opacity:0.3" />
<rect x="133" y="49" width="2" height="5" style="fill:#5d3c2d;stroke:black;stroke-width:1;fill-opacity:1;stroke-opacity:0.3" />
<line x1="136" y1="51" x2="207" y2="51" stroke="pink" stroke-width="1" />
<rect x="207" y="49" width="19" height="5" style="fill:#5d3c2d;stroke:black;stroke-width:1;fill-opacity:1;stroke-opacity:0.3" />
<line x1="226" y1="51" x2="311" y2="51" stroke="pink" stroke-width="1" />
<rect x="311" y="49" width="4" height="5" style="fill:#5d3c2d;stroke:black;stroke-width:1;fill-opacity:1;stroke-opacity:0.3" />
<line x1="126" y1="58" x2="171" y2="60" stroke="black" stroke-width="1" />
<line x1="171" y1="60" x2="216" y2="58" stroke="black" stroke-width="1" />
<rect x="28" y="56" width="8" height="5" style="fill:#f5b024;stroke:black;stroke-width:1;fill-opacity:1;stroke-opacity:0.3" />
<line x1="36" y1="58" x2="108" y2="58" stroke="pink" stroke-width="1" />
<rect x="108" y="56" width="17" height="5" style="fill:#f5b024;stroke:black;stroke-width:1;fill-opacity:1;stroke-opacity:0.3" />
<rect x="216" y="56" width="10" height="5" style="fill:#f5b024;stroke:black;stroke-width:1;fill-opacity:1;stroke-opacity:0.3" />
<line x1="226" y1="58" x2="311" y2="58" stroke="pink" stroke-width="1" />
<rect x="311" y="56" width="15" height="5" style="fill:#f5b024;stroke:black;stroke-width:1;fill-opacity:1;stroke-opacity:0.3" />
<line x1="211" y1="65" x2="216" y2="67" stroke="black" stroke-width="1" />
<line x1="216" y1="67" x2="221" y2="65" stroke="black" stroke-width="1" />
<rect x="114" y="63" width="21" height="5" style="fill:#f5b024;stroke:black;stroke-width:1;fill-opacity:1;stroke-opacity:0.3" />
<line x1="136" y1="65" x2="207" y2="65" stroke="pink" stroke-width="1" />
<rect x="207" y="63" width="4" height="5" style="fill:#f5b024;stroke:black;stroke-width:1;fill-opacity:1;stroke-opacity:0.3" />
<rect x="221" y="63" width="5" height="5" style="fill:#f5b024;stroke:black;stroke-width:1;fill-opacity:1;stroke-opacity:0.3" />
<line x1="226" y1="65" x2="311" y2="65" stroke="pink" stroke-width="1" />
<rect x="311" y="63" width="19" height="5" style="fill:#f5b024;stroke:black;stroke-width:1;fill-opacity:1;stroke-opacity:0.3" />
<line x1="379" y1="30" x2="406" y2="32" stroke="black" stroke-width="1" />
<line x1="406" y1="32" x2="433" y2="30" stroke="black" stroke-width="1" />
<rect x="313" y="28" width="17" height="5" style="fill:#f5b024;stroke:black;stroke-width:1;fill-opacity:1;stroke-opacity:0.3" />
<line x1="330" y1="30" x2="370" y2="30" stroke="pink" stroke-width="1" />
<rect x="370" y="28" width="8" height="5" style="fill:#f5b024;stroke:black;stroke-width:1;fill-opacity:1;stroke-opacity:0.3" />
<rect x="433" y="28" width="19" height="5" style="fill:#f5b024;stroke:black;stroke-width:1;fill-opacity:1;stroke-opacity:0.3" />
<line x1="453" y1="30" x2="508" y2="30" stroke="pink" stroke-width="1" />
<rect x="508" y="28" width="6" height="5" style="fill:#f5b024;stroke:black;stroke-width:1;fill-opacity:1;stroke-opacity:0.3" />
<line x1="383" y1="37" x2="413" y2="39" stroke="black" stroke-width="1" />
<line x1="413" y1="39" x2="444" y2="37" stroke="black" stroke-width="1" />
<rect x="317" y="35" width="13" height="5" style="fill:#f5b024;stroke:black;stroke-width:1;fill-opacity:1;stroke-opacity:0.3" />
<line x1="330" y1="37" x2="370" y2="37" stroke="pink" stroke-width="1" />
<rect x="370" y="35" width="12" height="5" style="fill:#f5b024;stroke:black;stroke-width:1;fill-opacity:1;stroke-opacity:0.3" />
<rect x="444" y="35" width="8" height="5" style="fill:#f5b024;stroke:black;stroke-width:1;fill-opacity:1;stroke-opacity:0.3" />
<line x1="453" y1="37" x2="508" y2="37" stroke="pink" stroke-width="1" />
<rect x="508" y="35" width="17" height="5" style="fill:#f5b024;stroke:black;stroke-width:1;fill-opacity:1;stroke-opacity:0.3" />
<line x1="346" y1="44" x2="348" y2="46" stroke="black" stroke-width="1" />
<line x1="348" y1="46" x2="350" y2="44" stroke="black" stroke-width="1" />
<rect x="320" y="42" width="26" height="5" style="fill:#f5b024;stroke:black;stroke-width:1;fill-opacity:1;stroke-opacity:0.3" />
<rect x="350" y="42" width="26" height="5" style="fill:#f5b024;stroke:black;stroke-width:1;fill-opacity:1;stroke-opacity:0.3" />
<line x1="451" y1="44" x2="491" y2="46" stroke="black" stroke-width="1" />
<line x1="491" y1="46" x2="531" y2="44" stroke="black" stroke-width="1" />
<rect x="387" y="42" width="7" height="5" style="fill:#f5b024;stroke:black;stroke-width:1;fill-opacity:1;stroke-opacity:0.3" />
<line x1="394" y1="44" x2="432" y2="44" stroke="pink" stroke-width="1" />
<rect x="432" y="42" width="18" height="5" style="fill:#f5b024;stroke:black;stroke-width:1;fill-opacity:1;stroke-opacity:0.3" />
<rect x="531" y="42" width="1" height="5" style="fill:#f5b024;stroke:black;stroke-width:1;fill-opacity:1;stroke-opacity:0.3" />
<line x1="533" y1="44" x2="605" y2="44" stroke="pink" stroke-width="1" />
<rect x="605" y="42" width="24" height="5" style="fill:#f5b024;stroke:black;stroke-width:1;fill-opacity:1;stroke-opacity:0.3" />
<line x1="453" y1="51" x2="480" y2="53" stroke="black" stroke-width="1" />
<line x1="480" y1="53" x2="508" y2="51" stroke="black" stroke-width="1" />
<rect x="389" y="49" width="5" height="5" style="fill:#f5b024;stroke:black;stroke-width:1;fill-opacity:1;stroke-opacity:0.3" />
<line x1="394" y1="51" x2="432" y2="51" stroke="pink" stroke-width="1" />
<rect x="432" y="49" width="20" height="5" style="fill:#f5b024;stroke:black;stroke-width:1;fill-opacity:1;stroke-opacity:0.3" />
<rect x="508" y="49" width="23" height="5" style="fill:#f5b024;stroke:black;stroke-width:1;fill-opacity:1;stroke-opacity:0.3" />
<line x1="528" y1="58" x2="569" y2="60" stroke="black" stroke-width="1" />
<line x1="569" y1="60" x2="610" y2="58" stroke="black" stroke-width="1" />
<rect x="447" y="56" width="5" height="5" style="fill:#f5b024;stroke:black;stroke-width:1;fill-opacity:1;stroke-opacity:0.3" />
<line x1="453" y1="58" x2="508" y2="58" stroke="pink" stroke-width="1" />
<rect x="508" y="56" width="20" height="5" style="fill:#f5b024;stroke:black;stroke-width:1;fill-opacity:1;stroke-opacity:0.3" />
<rect x="610" y="56" width="26" height="5" style="fill:#f5b024;stroke:black;stroke-width:1;fill-opacity:1;stroke-opacity:0.3" />
<line x1="529" y1="65" x2="577" y2="67" stroke="black" stroke-width="1" />
<line x1="577" y1="67" x2="625" y2="65" stroke="black" stroke-width="1" />
<rect x="448" y="63" width="4" height="5" style="fill:#f5b024;stroke:black;stroke-width:1;fill-opacity:1;stroke-opacity:0.3" />
<line x1="453" y1="65" x2="508" y2="65" stroke="pink" stroke-width="1" />
<rect x="508" y="63" width="21" height="5" style="fill:#f5b024;stroke:black;stroke-width:1;fill-opacity:1;stroke-opacity:0.3" />
<rect x="625" y="63" width="19" height="5" style="fill:#f5b024;stroke:black;stroke-width:1;fill-opacity:1;stroke-opacity:0.3" />
<line x1="644" y1="65" x2="687" y2="65" stroke="pink" stroke-width="1" />
<rect x="687" y="63" width="6" height="5" style="fill:#f5b024;stroke:black;stroke-width:1;fill-opacity:1;stroke-opacity:0.3" />
<line x1="614" y1="30" x2="618" y2="32" stroke="black" stroke-width="1" />
<line x1="618" y1="32" x2="622" y2="30" stroke="black" stroke-width="1" />
<rect x="516" y="28" width="17" height="5" style="fill:#f5b024;stroke:black;stroke-width:1;fill-opacity:1;stroke-opacity:0.3" />
<line x1="533" y1="30" x2="605" y2="30" stroke="pink" stroke-width="1" />
<rect x="605" y="28" width="8" height="5" style="fill:#f5b024;stroke:black;stroke-width:1;fill-opacity:1;stroke-opacity:0.3" />
<rect x="622" y="28" width="26" height="5" style="fill:#f5b024;stroke:black;stroke-width:1;fill-opacity:1;stroke-opacity:0.3" />
<line x1="637" y1="37" x2="662" y2="39" stroke="black" stroke-width="1" />
<line x1="662" y1="39" x2="688" y2="37" stroke="black" stroke-width="1" />
<rect x="611" y="35" width="26" height="5" style="fill:#f5b024;stroke:black;stroke-width:1;fill-opacity:1;stroke-opacity:0.3" />
<rect x="688" y="35" width="26" height="5" style="fill:#f5b024;stroke:black;stroke-width:1;fill-opacity:1;stroke-opacity:0.3" />
<line x1="705" y1="44" x2="709" y2="46" stroke="black" stroke-width="1" />
<line x1="709" y1="46" x2="713" y2="44" stroke="black" stroke-width="1" />
<rect x="645" y="42" width="8" height="5" style="fill:#5d3c2d;stroke:black;stroke-width:1;fill-opacity:1;stroke-opacity:0.3" />
<line x1="654" y1="44" x2="687" y2="44" stroke="pink" stroke-width="1" />
<rect x="687" y="42" width="17" height="5" style="fill:#5d3c2d;stroke:black;stroke-width:1;fill-opacity:1;stroke-opacity:0.3" />
<rect x="713" y="42" width="26" height="5" style="fill:#5d3c2d;stroke:black;stroke-width:1;fill-opacity:1;stroke-opacity:0.3" />
<text x="15"  y="176" style="font-family:Arial;font-size:10;stroke:black;fill:black;">all.merged.bam</text>
</svg>
    
