<?xml version="1.0" encoding="utf-8" standalone="no"?>
<!DOCTYPE svg PUBLIC "-//W3C//DTD SVG 1.1//EN"
  "http://www.w3.org/Graphics/SVG/1.1/DTD/svg11.dtd">
<svg height="1140" width="1000" version="1.1" viewBox="0 0 1000 1140" xmlns="http://www.w3.org/2000/svg" xmlns:xlink="http://www.w3.org/1999/xlink">
<line x1="47" y1="11" x2="952" y2="11" stroke="black" stroke-width="1" />
<rect x="47" y="9" width="708" height="5" style="fill:#f50002;stroke:black;stroke-width:1;fill-opacity:1;stroke-opacity:0.3" />
<rect x="756" y="9" width="39" height="5" style="fill:#53a1b5;stroke:black;stroke-width:1;fill-opacity:1;stroke-opacity:0.3" />
<rect x="857" y="9" width="38" height="5" style="fill:#53a1b5;stroke:black;stroke-width:1;fill-opacity:1;stroke-opacity:0.3" />
<rect x="896" y="9" width="55" height="5" style="fill:#f50002;stroke:black;stroke-width:1;fill-opacity:1;stroke-opacity:0.3" />
<text x="47"  y="23" style="font-family:Arial;font-size:10;stroke:black;fill:black;">Cre15.g637450.t1.2.v5.5 (-) chromosome_15:615681-617585</text>
<line x1="218" y1="30" x2="225" y2="32" stroke="black" stroke-width="1" />
<line x1="225" y1="32" x2="233" y2="30" stroke="black" stroke-width="1" />
<rect x="171" y="28" width="47" height="5" style="fill:#f5b024;stroke:black;stroke-width:1;fill-opacity:1;stroke-opacity:0.3" />
<rect x="233" y="28" width="47" height="5" style="fill:#f5b024;stroke:black;stroke-width:1;fill-opacity:1;stroke-opacity:0.3" />
<line x1="218" y1="37" x2="222" y2="39" stroke="black" stroke-width="1" />
<line x1="222" y1="39" x2="226" y2="37" stroke="black" stroke-width="1" />
<rect x="171" y="35" width="47" height="5" style="fill:#f5b024;stroke:black;stroke-width:1;fill-opacity:1;stroke-opacity:0.3" />
<rect x="226" y="35" width="47" height="5" style="fill:#f5b024;stroke:black;stroke-width:1;fill-opacity:1;stroke-opacity:0.3" />
<line x1="533" y1="30" x2="544" y2="32" stroke="black" stroke-width="1" />
<line x1="544" y1="32" x2="555" y2="30" stroke="black" stroke-width="1" />
<rect x="486" y="28" width="47" height="5" style="fill:#f5b024;stroke:black;stroke-width:1;fill-opacity:1;stroke-opacity:0.3" />
<rect x="555" y="28" width="47" height="5" style="fill:#f5b024;stroke:black;stroke-width:1;fill-opacity:1;stroke-opacity:0.3" />
<line x1="557" y1="37" x2="562" y2="39" stroke="black" stroke-width="1" />
<line x1="562" y1="39" x2="568" y2="37" stroke="black" stroke-width="1" />
<rect x="509" y="35" width="47" height="5" style="fill:#f5b024;stroke:black;stroke-width:1;fill-opacity:1;stroke-opacity:0.3" />
<rect x="568" y="35" width="47" height="5" style="fill:#f5b024;stroke:black;stroke-width:1;fill-opacity:1;stroke-opacity:0.3" />
<line x1="564" y1="44" x2="569" y2="46" stroke="black" stroke-width="1" />
<line x1="569" y1="46" x2="574" y2="44" stroke="black" stroke-width="1" />
<rect x="516" y="42" width="47" height="5" style="fill:#f5b024;stroke:black;stroke-width:1;fill-opacity:1;stroke-opacity:0.3" />
<rect x="574" y="42" width="47" height="5" style="fill:#f5b024;stroke:black;stroke-width:1;fill-opacity:1;stroke-opacity:0.3" />
<line x1="620" y1="51" x2="632" y2="53" stroke="black" stroke-width="1" />
<line x1="632" y1="53" x2="645" y2="51" stroke="black" stroke-width="1" />
<rect x="572" y="49" width="47" height="5" style="fill:#f5b024;stroke:black;stroke-width:1;fill-opacity:1;stroke-opacity:0.3" />
<rect x="645" y="49" width="47" height="5" style="fill:#f5b024;stroke:black;stroke-width:1;fill-opacity:1;stroke-opacity:0.3" />
<line x1="623" y1="58" x2="634" y2="60" stroke="black" stroke-width="1" />
<line x1="634" y1="60" x2="645" y2="58" stroke="black" stroke-width="1" />
<rect x="577" y="56" width="46" height="5" style="fill:#5d3c2d;stroke:black;stroke-width:1;fill-opacity:1;stroke-opacity:0.3" />
<rect x="645" y="56" width="47" height="5" style="fill:#5d3c2d;stroke:black;stroke-width:1;fill-opacity:1;stroke-opacity:0.3" />
<line x1="633" y1="65" x2="639" y2="67" stroke="black" stroke-width="1" />
<line x1="639" y1="67" x2="646" y2="65" stroke="black" stroke-width="1" />
<rect x="586" y="63" width="47" height="5" style="fill:#5d3c2d;stroke:black;stroke-width:1;fill-opacity:1;stroke-opacity:0.3" />
<rect x="646" y="63" width="47" height="5" style="fill:#5d3c2d;stroke:black;stroke-width:1;fill-opacity:1;stroke-opacity:0.3" />
<line x1="638" y1="72" x2="641" y2="74" stroke="black" stroke-width="1" />
<line x1="641" y1="74" x2="645" y2="72" stroke="black" stroke-width="1" />
<rect x="591" y="70" width="47" height="5" style="fill:#5d3c2d;stroke:black;stroke-width:1;fill-opacity:1;stroke-opacity:0.3" />
<rect x="645" y="70" width="47" height="5" style="fill:#5d3c2d;stroke:black;stroke-width:1;fill-opacity:1;stroke-opacity:0.3" />
<line x1="641" y1="79" x2="653" y2="81" stroke="black" stroke-width="1" />
<line x1="653" y1="81" x2="665" y2="79" stroke="black" stroke-width="1" />
<rect x="594" y="77" width="47" height="5" style="fill:#f5b024;stroke:black;stroke-width:1;fill-opacity:1;stroke-opacity:0.3" />
<rect x="665" y="77" width="47" height="5" style="fill:#f5b024;stroke:black;stroke-width:1;fill-opacity:1;stroke-opacity:0.3" />
<line x1="644" y1="86" x2="652" y2="88" stroke="black" stroke-width="1" />
<line x1="652" y1="88" x2="661" y2="86" stroke="black" stroke-width="1" />
<rect x="597" y="84" width="47" height="5" style="fill:#f5b024;stroke:black;stroke-width:1;fill-opacity:1;stroke-opacity:0.3" />
<rect x="661" y="84" width="47" height="5" style="fill:#f5b024;stroke:black;stroke-width:1;fill-opacity:1;stroke-opacity:0.3" />
<line x1="659" y1="30" x2="675" y2="32" stroke="black" stroke-width="1" />
<line x1="675" y1="32" x2="692" y2="30" stroke="black" stroke-width="1" />
<rect x="611" y="28" width="47" height="5" style="fill:#f5b024;stroke:black;stroke-width:1;fill-opacity:1;stroke-opacity:0.3" />
<rect x="692" y="28" width="47" height="5" style="fill:#f5b024;stroke:black;stroke-width:1;fill-opacity:1;stroke-opacity:0.3" />
<line x1="683" y1="93" x2="701" y2="95" stroke="black" stroke-width="1" />
<line x1="701" y1="95" x2="720" y2="93" stroke="black" stroke-width="1" />
<rect x="612" y="91" width="70" height="5" style="fill:#f5b024;stroke:black;stroke-width:1;fill-opacity:1;stroke-opacity:0.3" />
<rect x="720" y="91" width="70" height="5" style="fill:#f5b024;stroke:black;stroke-width:1;fill-opacity:1;stroke-opacity:0.3" />
<line x1="660" y1="100" x2="664" y2="102" stroke="black" stroke-width="1" />
<line x1="664" y1="102" x2="669" y2="100" stroke="black" stroke-width="1" />
<rect x="613" y="98" width="47" height="5" style="fill:#f5b024;stroke:black;stroke-width:1;fill-opacity:1;stroke-opacity:0.3" />
<rect x="669" y="98" width="47" height="5" style="fill:#f5b024;stroke:black;stroke-width:1;fill-opacity:1;stroke-opacity:0.3" />
<line x1="662" y1="107" x2="673" y2="109" stroke="black" stroke-width="1" />
<line x1="673" y1="109" x2="685" y2="107" stroke="black" stroke-width="1" />
<rect x="615" y="105" width="47" height="5" style="fill:#f5b024;stroke:black;stroke-width:1;fill-opacity:1;stroke-opacity:0.3" />
<rect x="685" y="105" width="47" height="5" style="fill:#f5b024;stroke:black;stroke-width:1;fill-opacity:1;stroke-opacity:0.3" />
<line x1="692" y1="37" x2="733" y2="39" stroke="black" stroke-width="1" />
<line x1="733" y1="39" x2="775" y2="37" stroke="black" stroke-width="1" />
<rect x="645" y="35" width="47" height="5" style="fill:#f5b024;stroke:black;stroke-width:1;fill-opacity:1;stroke-opacity:0.3" />
<rect x="775" y="35" width="20" height="5" style="fill:#f5b024;stroke:black;stroke-width:1;fill-opacity:1;stroke-opacity:0.3" />
<line x1="796" y1="37" x2="857" y2="37" stroke="pink" stroke-width="1" />
<rect x="857" y="35" width="26" height="5" style="fill:#f5b024;stroke:black;stroke-width:1;fill-opacity:1;stroke-opacity:0.3" />
<line x1="693" y1="44" x2="711" y2="46" stroke="black" stroke-width="1" />
<line x1="711" y1="46" x2="729" y2="44" stroke="black" stroke-width="1" />
<rect x="645" y="42" width="47" height="5" style="fill:#5d3c2d;stroke:black;stroke-width:1;fill-opacity:1;stroke-opacity:0.3" />
<rect x="729" y="42" width="47" height="5" style="fill:#5d3c2d;stroke:black;stroke-width:1;fill-opacity:1;stroke-opacity:0.3" />
<line x1="706" y1="114" x2="711" y2="116" stroke="black" stroke-width="1" />
<line x1="711" y1="116" x2="717" y2="114" stroke="black" stroke-width="1" />
<rect x="659" y="112" width="47" height="5" style="fill:#f5b024;stroke:black;stroke-width:1;fill-opacity:1;stroke-opacity:0.3" />
<rect x="717" y="112" width="41" height="5" style="fill:#f5b024;stroke:black;stroke-width:1;fill-opacity:1;stroke-opacity:0.3" />
<line x1="716" y1="121" x2="720" y2="123" stroke="black" stroke-width="1" />
<line x1="720" y1="123" x2="724" y2="121" stroke="black" stroke-width="1" />
<rect x="669" y="119" width="47" height="5" style="fill:#f5b024;stroke:black;stroke-width:1;fill-opacity:1;stroke-opacity:0.3" />
<rect x="724" y="119" width="47" height="5" style="fill:#f5b024;stroke:black;stroke-width:1;fill-opacity:1;stroke-opacity:0.3" />
<line x1="733" y1="128" x2="738" y2="130" stroke="black" stroke-width="1" />
<line x1="738" y1="130" x2="743" y2="128" stroke="black" stroke-width="1" />
<rect x="685" y="126" width="47" height="5" style="fill:#f5b024;stroke:black;stroke-width:1;fill-opacity:1;stroke-opacity:0.3" />
<rect x="743" y="126" width="47" height="5" style="fill:#f5b024;stroke:black;stroke-width:1;fill-opacity:1;stroke-opacity:0.3" />
<line x1="752" y1="51" x2="756" y2="53" stroke="black" stroke-width="1" />
<line x1="756" y1="53" x2="761" y2="51" stroke="black" stroke-width="1" />
<rect x="704" y="49" width="47" height="5" style="fill:#5d3c2d;stroke:black;stroke-width:1;fill-opacity:1;stroke-opacity:0.3" />
<rect x="761" y="49" width="34" height="5" style="fill:#5d3c2d;stroke:black;stroke-width:1;fill-opacity:1;stroke-opacity:0.3" />
<line x1="796" y1="51" x2="857" y2="51" stroke="pink" stroke-width="1" />
<rect x="857" y="49" width="13" height="5" style="fill:#5d3c2d;stroke:black;stroke-width:1;fill-opacity:1;stroke-opacity:0.3" />
<line x1="761" y1="58" x2="767" y2="60" stroke="black" stroke-width="1" />
<line x1="767" y1="60" x2="774" y2="58" stroke="black" stroke-width="1" />
<rect x="714" y="56" width="47" height="5" style="fill:#f5b024;stroke:black;stroke-width:1;fill-opacity:1;stroke-opacity:0.3" />
<rect x="774" y="56" width="21" height="5" style="fill:#f5b024;stroke:black;stroke-width:1;fill-opacity:1;stroke-opacity:0.3" />
<line x1="796" y1="58" x2="857" y2="58" stroke="pink" stroke-width="1" />
<rect x="857" y="56" width="26" height="5" style="fill:#f5b024;stroke:black;stroke-width:1;fill-opacity:1;stroke-opacity:0.3" />
<line x1="768" y1="65" x2="771" y2="67" stroke="black" stroke-width="1" />
<line x1="771" y1="67" x2="775" y2="65" stroke="black" stroke-width="1" />
<rect x="720" y="63" width="47" height="5" style="fill:#f5b024;stroke:black;stroke-width:1;fill-opacity:1;stroke-opacity:0.3" />
<rect x="775" y="63" width="20" height="5" style="fill:#f5b024;stroke:black;stroke-width:1;fill-opacity:1;stroke-opacity:0.3" />
<line x1="796" y1="65" x2="857" y2="65" stroke="pink" stroke-width="1" />
<rect x="857" y="63" width="26" height="5" style="fill:#f5b024;stroke:black;stroke-width:1;fill-opacity:1;stroke-opacity:0.3" />
<line x1="768" y1="72" x2="771" y2="74" stroke="black" stroke-width="1" />
<line x1="771" y1="74" x2="775" y2="72" stroke="black" stroke-width="1" />
<rect x="720" y="70" width="47" height="5" style="fill:#f5b024;stroke:black;stroke-width:1;fill-opacity:1;stroke-opacity:0.3" />
<rect x="775" y="70" width="20" height="5" style="fill:#f5b024;stroke:black;stroke-width:1;fill-opacity:1;stroke-opacity:0.3" />
<line x1="796" y1="72" x2="857" y2="72" stroke="pink" stroke-width="1" />
<rect x="857" y="70" width="26" height="5" style="fill:#f5b024;stroke:black;stroke-width:1;fill-opacity:1;stroke-opacity:0.3" />
<line x1="768" y1="79" x2="771" y2="81" stroke="black" stroke-width="1" />
<line x1="771" y1="81" x2="775" y2="79" stroke="black" stroke-width="1" />
<rect x="720" y="77" width="47" height="5" style="fill:#f5b024;stroke:black;stroke-width:1;fill-opacity:1;stroke-opacity:0.3" />
<rect x="775" y="77" width="20" height="5" style="fill:#f5b024;stroke:black;stroke-width:1;fill-opacity:1;stroke-opacity:0.3" />
<line x1="796" y1="79" x2="857" y2="79" stroke="pink" stroke-width="1" />
<rect x="857" y="77" width="26" height="5" style="fill:#f5b024;stroke:black;stroke-width:1;fill-opacity:1;stroke-opacity:0.3" />
<line x1="788" y1="30" x2="824" y2="32" stroke="black" stroke-width="1" />
<line x1="824" y1="32" x2="860" y2="30" stroke="black" stroke-width="1" />
<rect x="740" y="28" width="47" height="5" style="fill:#f5b024;stroke:black;stroke-width:1;fill-opacity:1;stroke-opacity:0.3" />
<rect x="860" y="28" width="47" height="5" style="fill:#f5b024;stroke:black;stroke-width:1;fill-opacity:1;stroke-opacity:0.3" />
<line x1="791" y1="86" x2="825" y2="88" stroke="black" stroke-width="1" />
<line x1="825" y1="88" x2="859" y2="86" stroke="black" stroke-width="1" />
<rect x="743" y="84" width="47" height="5" style="fill:#f5b024;stroke:black;stroke-width:1;fill-opacity:1;stroke-opacity:0.3" />
<rect x="859" y="84" width="47" height="5" style="fill:#f5b024;stroke:black;stroke-width:1;fill-opacity:1;stroke-opacity:0.3" />
<line x1="859" y1="100" x2="863" y2="102" stroke="black" stroke-width="1" />
<line x1="863" y1="102" x2="867" y2="100" stroke="black" stroke-width="1" />
<rect x="750" y="98" width="46" height="5" style="fill:#f5b024;stroke:black;stroke-width:1;fill-opacity:1;stroke-opacity:0.3" />
<line x1="796" y1="100" x2="857" y2="100" stroke="pink" stroke-width="1" />
<rect x="857" y="98" width="1" height="5" style="fill:#f5b024;stroke:black;stroke-width:1;fill-opacity:1;stroke-opacity:0.3" />
<rect x="867" y="98" width="47" height="5" style="fill:#f5b024;stroke:black;stroke-width:1;fill-opacity:1;stroke-opacity:0.3" />
<line x1="882" y1="107" x2="888" y2="109" stroke="black" stroke-width="1" />
<line x1="888" y1="109" x2="895" y2="107" stroke="black" stroke-width="1" />
<rect x="750" y="105" width="46" height="5" style="fill:#f5b024;stroke:black;stroke-width:1;fill-opacity:1;stroke-opacity:0.3" />
<line x1="796" y1="107" x2="857" y2="107" stroke="pink" stroke-width="1" />
<rect x="857" y="105" width="24" height="5" style="fill:#f5b024;stroke:black;stroke-width:1;fill-opacity:1;stroke-opacity:0.3" />
<rect x="895" y="105" width="70" height="5" style="fill:#f5b024;stroke:black;stroke-width:1;fill-opacity:1;stroke-opacity:0.3" />
<line x1="883" y1="135" x2="889" y2="137" stroke="black" stroke-width="1" />
<line x1="889" y1="137" x2="896" y2="135" stroke="black" stroke-width="1" />
<rect x="750" y="133" width="46" height="5" style="fill:#f5b024;stroke:black;stroke-width:1;fill-opacity:1;stroke-opacity:0.3" />
<line x1="796" y1="135" x2="857" y2="135" stroke="pink" stroke-width="1" />
<rect x="857" y="133" width="25" height="5" style="fill:#f5b024;stroke:black;stroke-width:1;fill-opacity:1;stroke-opacity:0.3" />
<rect x="896" y="133" width="71" height="5" style="fill:#f5b024;stroke:black;stroke-width:1;fill-opacity:1;stroke-opacity:0.3" />
<line x1="884" y1="114" x2="886" y2="116" stroke="black" stroke-width="1" />
<line x1="886" y1="116" x2="889" y2="114" stroke="black" stroke-width="1" />
<rect x="775" y="112" width="20" height="5" style="fill:#f5b024;stroke:black;stroke-width:1;fill-opacity:1;stroke-opacity:0.3" />
<line x1="796" y1="114" x2="857" y2="114" stroke="pink" stroke-width="1" />
<rect x="857" y="112" width="26" height="5" style="fill:#f5b024;stroke:black;stroke-width:1;fill-opacity:1;stroke-opacity:0.3" />
<rect x="889" y="112" width="47" height="5" style="fill:#f5b024;stroke:black;stroke-width:1;fill-opacity:1;stroke-opacity:0.3" />
<line x1="885" y1="121" x2="891" y2="123" stroke="black" stroke-width="1" />
<line x1="891" y1="123" x2="897" y2="121" stroke="black" stroke-width="1" />
<rect x="776" y="119" width="19" height="5" style="fill:#f5b024;stroke:black;stroke-width:1;fill-opacity:1;stroke-opacity:0.3" />
<line x1="796" y1="121" x2="857" y2="121" stroke="pink" stroke-width="1" />
<rect x="857" y="119" width="28" height="5" style="fill:#f5b024;stroke:black;stroke-width:1;fill-opacity:1;stroke-opacity:0.3" />
<rect x="897" y="119" width="47" height="5" style="fill:#f5b024;stroke:black;stroke-width:1;fill-opacity:1;stroke-opacity:0.3" />
<line x1="892" y1="44" x2="907" y2="46" stroke="black" stroke-width="1" />
<line x1="907" y1="46" x2="923" y2="44" stroke="black" stroke-width="1" />
<rect x="782" y="42" width="13" height="5" style="fill:#f5b024;stroke:black;stroke-width:1;fill-opacity:1;stroke-opacity:0.3" />
<line x1="796" y1="44" x2="857" y2="44" stroke="pink" stroke-width="1" />
<rect x="857" y="42" width="34" height="5" style="fill:#f5b024;stroke:black;stroke-width:1;fill-opacity:1;stroke-opacity:0.3" />
<rect x="923" y="42" width="47" height="5" style="fill:#f5b024;stroke:black;stroke-width:1;fill-opacity:1;stroke-opacity:0.3" />
<line x1="892" y1="142" x2="898" y2="144" stroke="black" stroke-width="1" />
<line x1="898" y1="144" x2="904" y2="142" stroke="black" stroke-width="1" />
<rect x="782" y="140" width="13" height="5" style="fill:#f5b024;stroke:black;stroke-width:1;fill-opacity:1;stroke-opacity:0.3" />
<line x1="796" y1="142" x2="857" y2="142" stroke="pink" stroke-width="1" />
<rect x="857" y="140" width="34" height="5" style="fill:#f5b024;stroke:black;stroke-width:1;fill-opacity:1;stroke-opacity:0.3" />
<rect x="904" y="140" width="47" height="5" style="fill:#f5b024;stroke:black;stroke-width:1;fill-opacity:1;stroke-opacity:0.3" />
<line x1="901" y1="93" x2="908" y2="95" stroke="black" stroke-width="1" />
<line x1="908" y1="95" x2="915" y2="93" stroke="black" stroke-width="1" />
<rect x="792" y="91" width="3" height="5" style="fill:#f5b024;stroke:black;stroke-width:1;fill-opacity:1;stroke-opacity:0.3" />
<line x1="796" y1="93" x2="857" y2="93" stroke="pink" stroke-width="1" />
<rect x="857" y="91" width="43" height="5" style="fill:#f5b024;stroke:black;stroke-width:1;fill-opacity:1;stroke-opacity:0.3" />
<rect x="915" y="91" width="47" height="5" style="fill:#f5b024;stroke:black;stroke-width:1;fill-opacity:1;stroke-opacity:0.3" />
<line x1="911" y1="128" x2="922" y2="130" stroke="black" stroke-width="1" />
<line x1="922" y1="130" x2="934" y2="128" stroke="black" stroke-width="1" />
<rect x="864" y="126" width="47" height="5" style="fill:#f5b024;stroke:black;stroke-width:1;fill-opacity:1;stroke-opacity:0.3" />
<rect x="934" y="126" width="47" height="5" style="fill:#f5b024;stroke:black;stroke-width:1;fill-opacity:1;stroke-opacity:0.3" />
<text x="15"  y="176" style="font-family:Arial;font-size:10;stroke:black;fill:black;">all.merged.bam</text>
</svg>
    
