<?xml version="1.0" encoding="utf-8" standalone="no"?>
<!DOCTYPE svg PUBLIC "-//W3C//DTD SVG 1.1//EN"
  "http://www.w3.org/Graphics/SVG/1.1/DTD/svg11.dtd">
<svg height="1140" width="1000" version="1.1" viewBox="0 0 1000 1140" xmlns="http://www.w3.org/2000/svg" xmlns:xlink="http://www.w3.org/1999/xlink">
<line x1="37" y1="11" x2="962" y2="11" stroke="black" stroke-width="1" />
<rect x="37" y="9" width="106" height="5" style="fill:#f50002;stroke:black;stroke-width:1;fill-opacity:1;stroke-opacity:0.3" />
<rect x="144" y="9" width="63" height="5" style="fill:#53a1b5;stroke:black;stroke-width:1;fill-opacity:1;stroke-opacity:0.3" />
<rect x="294" y="9" width="19" height="5" style="fill:#53a1b5;stroke:black;stroke-width:1;fill-opacity:1;stroke-opacity:0.3" />
<rect x="381" y="9" width="26" height="5" style="fill:#53a1b5;stroke:black;stroke-width:1;fill-opacity:1;stroke-opacity:0.3" />
<rect x="495" y="9" width="27" height="5" style="fill:#53a1b5;stroke:black;stroke-width:1;fill-opacity:1;stroke-opacity:0.3" />
<rect x="623" y="9" width="37" height="5" style="fill:#53a1b5;stroke:black;stroke-width:1;fill-opacity:1;stroke-opacity:0.3" />
<rect x="714" y="9" width="90" height="5" style="fill:#53a1b5;stroke:black;stroke-width:1;fill-opacity:1;stroke-opacity:0.3" />
<rect x="883" y="9" width="55" height="5" style="fill:#53a1b5;stroke:black;stroke-width:1;fill-opacity:1;stroke-opacity:0.3" />
<rect x="939" y="9" width="22" height="5" style="fill:#f50002;stroke:black;stroke-width:1;fill-opacity:1;stroke-opacity:0.3" />
<text x="37"  y="23" style="font-family:Arial;font-size:10;stroke:black;fill:black;">Cre12.g508350.t1.2.v5.5 (-) chromosome_12:2194717-2197182</text>
<line x1="47" y1="30" x2="56" y2="32" stroke="black" stroke-width="1" />
<line x1="56" y1="32" x2="66" y2="30" stroke="black" stroke-width="1" />
<rect x="10" y="28" width="37" height="5" style="fill:#f5b024;stroke:black;stroke-width:1;fill-opacity:1;stroke-opacity:0.3" />
<rect x="66" y="28" width="36" height="5" style="fill:#f5b024;stroke:black;stroke-width:1;fill-opacity:1;stroke-opacity:0.3" />
<line x1="71" y1="37" x2="76" y2="39" stroke="black" stroke-width="1" />
<line x1="76" y1="39" x2="82" y2="37" stroke="black" stroke-width="1" />
<rect x="34" y="35" width="37" height="5" style="fill:#f5b024;stroke:black;stroke-width:1;fill-opacity:1;stroke-opacity:0.3" />
<rect x="82" y="35" width="37" height="5" style="fill:#f5b024;stroke:black;stroke-width:1;fill-opacity:1;stroke-opacity:0.3" />
<line x1="72" y1="44" x2="77" y2="46" stroke="black" stroke-width="1" />
<line x1="77" y1="46" x2="82" y2="44" stroke="black" stroke-width="1" />
<rect x="34" y="42" width="37" height="5" style="fill:#f5b024;stroke:black;stroke-width:1;fill-opacity:1;stroke-opacity:0.3" />
<rect x="82" y="42" width="37" height="5" style="fill:#f5b024;stroke:black;stroke-width:1;fill-opacity:1;stroke-opacity:0.3" />
<line x1="75" y1="51" x2="81" y2="53" stroke="black" stroke-width="1" />
<line x1="81" y1="53" x2="87" y2="51" stroke="black" stroke-width="1" />
<rect x="38" y="49" width="37" height="5" style="fill:#f5b024;stroke:black;stroke-width:1;fill-opacity:1;stroke-opacity:0.3" />
<rect x="87" y="49" width="37" height="5" style="fill:#f5b024;stroke:black;stroke-width:1;fill-opacity:1;stroke-opacity:0.3" />
<line x1="79" y1="58" x2="84" y2="60" stroke="black" stroke-width="1" />
<line x1="84" y1="60" x2="90" y2="58" stroke="black" stroke-width="1" />
<rect x="42" y="56" width="37" height="5" style="fill:#5d3c2d;stroke:black;stroke-width:1;fill-opacity:1;stroke-opacity:0.3" />
<rect x="90" y="56" width="37" height="5" style="fill:#5d3c2d;stroke:black;stroke-width:1;fill-opacity:1;stroke-opacity:0.3" />
<line x1="80" y1="65" x2="82" y2="67" stroke="black" stroke-width="1" />
<line x1="82" y1="67" x2="84" y2="65" stroke="black" stroke-width="1" />
<rect x="43" y="63" width="37" height="5" style="fill:#f5b024;stroke:black;stroke-width:1;fill-opacity:1;stroke-opacity:0.3" />
<rect x="84" y="63" width="37" height="5" style="fill:#f5b024;stroke:black;stroke-width:1;fill-opacity:1;stroke-opacity:0.3" />
<line x1="80" y1="72" x2="82" y2="74" stroke="black" stroke-width="1" />
<line x1="82" y1="74" x2="84" y2="72" stroke="black" stroke-width="1" />
<rect x="43" y="70" width="37" height="5" style="fill:#f5b024;stroke:black;stroke-width:1;fill-opacity:1;stroke-opacity:0.3" />
<rect x="84" y="70" width="37" height="5" style="fill:#f5b024;stroke:black;stroke-width:1;fill-opacity:1;stroke-opacity:0.3" />
<line x1="80" y1="79" x2="88" y2="81" stroke="black" stroke-width="1" />
<line x1="88" y1="81" x2="96" y2="79" stroke="black" stroke-width="1" />
<rect x="44" y="77" width="36" height="5" style="fill:#f5b024;stroke:black;stroke-width:1;fill-opacity:1;stroke-opacity:0.3" />
<rect x="96" y="77" width="37" height="5" style="fill:#f5b024;stroke:black;stroke-width:1;fill-opacity:1;stroke-opacity:0.3" />
<line x1="83" y1="86" x2="88" y2="88" stroke="black" stroke-width="1" />
<line x1="88" y1="88" x2="94" y2="86" stroke="black" stroke-width="1" />
<rect x="46" y="84" width="37" height="5" style="fill:#f5b024;stroke:black;stroke-width:1;fill-opacity:1;stroke-opacity:0.3" />
<rect x="94" y="84" width="37" height="5" style="fill:#f5b024;stroke:black;stroke-width:1;fill-opacity:1;stroke-opacity:0.3" />
<line x1="83" y1="93" x2="87" y2="95" stroke="black" stroke-width="1" />
<line x1="87" y1="95" x2="92" y2="93" stroke="black" stroke-width="1" />
<rect x="46" y="91" width="37" height="5" style="fill:#5d3c2d;stroke:black;stroke-width:1;fill-opacity:1;stroke-opacity:0.3" />
<rect x="92" y="91" width="30" height="5" style="fill:#5d3c2d;stroke:black;stroke-width:1;fill-opacity:1;stroke-opacity:0.3" />
<line x1="86" y1="100" x2="88" y2="102" stroke="black" stroke-width="1" />
<line x1="88" y1="102" x2="91" y2="100" stroke="black" stroke-width="1" />
<rect x="50" y="98" width="36" height="5" style="fill:#f5b024;stroke:black;stroke-width:1;fill-opacity:1;stroke-opacity:0.3" />
<rect x="91" y="98" width="37" height="5" style="fill:#f5b024;stroke:black;stroke-width:1;fill-opacity:1;stroke-opacity:0.3" />
<line x1="94" y1="107" x2="97" y2="109" stroke="black" stroke-width="1" />
<line x1="97" y1="109" x2="100" y2="107" stroke="black" stroke-width="1" />
<rect x="57" y="105" width="37" height="5" style="fill:#f5b024;stroke:black;stroke-width:1;fill-opacity:1;stroke-opacity:0.3" />
<rect x="100" y="105" width="37" height="5" style="fill:#f5b024;stroke:black;stroke-width:1;fill-opacity:1;stroke-opacity:0.3" />
<line x1="95" y1="114" x2="104" y2="116" stroke="black" stroke-width="1" />
<line x1="104" y1="116" x2="113" y2="114" stroke="black" stroke-width="1" />
<rect x="57" y="112" width="37" height="5" style="fill:#f5b024;stroke:black;stroke-width:1;fill-opacity:1;stroke-opacity:0.3" />
<rect x="113" y="112" width="37" height="5" style="fill:#f5b024;stroke:black;stroke-width:1;fill-opacity:1;stroke-opacity:0.3" />
<line x1="95" y1="121" x2="104" y2="123" stroke="black" stroke-width="1" />
<line x1="104" y1="123" x2="114" y2="121" stroke="black" stroke-width="1" />
<rect x="57" y="119" width="37" height="5" style="fill:#f5b024;stroke:black;stroke-width:1;fill-opacity:1;stroke-opacity:0.3" />
<rect x="114" y="119" width="37" height="5" style="fill:#f5b024;stroke:black;stroke-width:1;fill-opacity:1;stroke-opacity:0.3" />
<line x1="99" y1="128" x2="101" y2="130" stroke="black" stroke-width="1" />
<line x1="101" y1="130" x2="103" y2="128" stroke="black" stroke-width="1" />
<rect x="63" y="126" width="36" height="5" style="fill:#f5b024;stroke:black;stroke-width:1;fill-opacity:1;stroke-opacity:0.3" />
<rect x="103" y="126" width="37" height="5" style="fill:#f5b024;stroke:black;stroke-width:1;fill-opacity:1;stroke-opacity:0.3" />
<line x1="114" y1="135" x2="117" y2="137" stroke="black" stroke-width="1" />
<line x1="117" y1="137" x2="120" y2="135" stroke="black" stroke-width="1" />
<rect x="78" y="133" width="36" height="5" style="fill:#f5b024;stroke:black;stroke-width:1;fill-opacity:1;stroke-opacity:0.3" />
<rect x="120" y="133" width="37" height="5" style="fill:#f5b024;stroke:black;stroke-width:1;fill-opacity:1;stroke-opacity:0.3" />
<line x1="117" y1="142" x2="126" y2="144" stroke="black" stroke-width="1" />
<line x1="126" y1="144" x2="136" y2="142" stroke="black" stroke-width="1" />
<rect x="81" y="140" width="36" height="5" style="fill:#f5b024;stroke:black;stroke-width:1;fill-opacity:1;stroke-opacity:0.3" />
<rect x="136" y="140" width="37" height="5" style="fill:#f5b024;stroke:black;stroke-width:1;fill-opacity:1;stroke-opacity:0.3" />
<line x1="153" y1="149" x2="156" y2="151" stroke="black" stroke-width="1" />
<line x1="156" y1="151" x2="159" y2="149" stroke="black" stroke-width="1" />
<rect x="94" y="147" width="27" height="5" style="fill:#f5b024;stroke:black;stroke-width:1;fill-opacity:1;stroke-opacity:0.3" />
<line x1="121" y1="149" x2="144" y2="149" stroke="pink" stroke-width="1" />
<rect x="144" y="147" width="9" height="5" style="fill:#f5b024;stroke:black;stroke-width:1;fill-opacity:1;stroke-opacity:0.3" />
<rect x="159" y="147" width="37" height="5" style="fill:#f5b024;stroke:black;stroke-width:1;fill-opacity:1;stroke-opacity:0.3" />
<line x1="132" y1="156" x2="145" y2="158" stroke="black" stroke-width="1" />
<line x1="145" y1="158" x2="159" y2="156" stroke="black" stroke-width="1" />
<rect x="94" y="154" width="37" height="5" style="fill:#f5b024;stroke:black;stroke-width:1;fill-opacity:1;stroke-opacity:0.3" />
<rect x="159" y="154" width="37" height="5" style="fill:#f5b024;stroke:black;stroke-width:1;fill-opacity:1;stroke-opacity:0.3" />
<line x1="134" y1="163" x2="158" y2="165" stroke="black" stroke-width="1" />
<line x1="158" y1="165" x2="182" y2="163" stroke="black" stroke-width="1" />
<rect x="96" y="161" width="37" height="5" style="fill:#f5b024;stroke:black;stroke-width:1;fill-opacity:1;stroke-opacity:0.3" />
<rect x="182" y="161" width="26" height="5" style="fill:#f5b024;stroke:black;stroke-width:1;fill-opacity:1;stroke-opacity:0.3" />
<line x1="208" y1="163" x2="294" y2="163" stroke="pink" stroke-width="1" />
<rect x="294" y="161" width="11" height="5" style="fill:#f5b024;stroke:black;stroke-width:1;fill-opacity:1;stroke-opacity:0.3" />
<line x1="142" y1="30" x2="148" y2="32" stroke="black" stroke-width="1" />
<line x1="148" y1="32" x2="154" y2="30" stroke="black" stroke-width="1" />
<rect x="105" y="28" width="37" height="5" style="fill:#f5b024;stroke:black;stroke-width:1;fill-opacity:1;stroke-opacity:0.3" />
<rect x="154" y="28" width="37" height="5" style="fill:#f5b024;stroke:black;stroke-width:1;fill-opacity:1;stroke-opacity:0.3" />
<line x1="166" y1="37" x2="230" y2="39" stroke="black" stroke-width="1" />
<line x1="230" y1="39" x2="295" y2="37" stroke="black" stroke-width="1" />
<rect x="128" y="35" width="37" height="5" style="fill:#f5b024;stroke:black;stroke-width:1;fill-opacity:1;stroke-opacity:0.3" />
<rect x="295" y="35" width="19" height="5" style="fill:#f5b024;stroke:black;stroke-width:1;fill-opacity:1;stroke-opacity:0.3" />
<line x1="314" y1="37" x2="381" y2="37" stroke="pink" stroke-width="1" />
<rect x="381" y="35" width="18" height="5" style="fill:#f5b024;stroke:black;stroke-width:1;fill-opacity:1;stroke-opacity:0.3" />
<line x1="169" y1="44" x2="182" y2="46" stroke="black" stroke-width="1" />
<line x1="182" y1="46" x2="195" y2="44" stroke="black" stroke-width="1" />
<rect x="131" y="42" width="37" height="5" style="fill:#f5b024;stroke:black;stroke-width:1;fill-opacity:1;stroke-opacity:0.3" />
<rect x="195" y="42" width="13" height="5" style="fill:#f5b024;stroke:black;stroke-width:1;fill-opacity:1;stroke-opacity:0.3" />
<line x1="208" y1="44" x2="294" y2="44" stroke="pink" stroke-width="1" />
<rect x="294" y="42" width="20" height="5" style="fill:#f5b024;stroke:black;stroke-width:1;fill-opacity:1;stroke-opacity:0.3" />
<line x1="314" y1="44" x2="381" y2="44" stroke="pink" stroke-width="1" />
<rect x="381" y="42" width="3" height="5" style="fill:#f5b024;stroke:black;stroke-width:1;fill-opacity:1;stroke-opacity:0.3" />
<line x1="171" y1="51" x2="175" y2="53" stroke="black" stroke-width="1" />
<line x1="175" y1="53" x2="179" y2="51" stroke="black" stroke-width="1" />
<rect x="133" y="49" width="37" height="5" style="fill:#f5b024;stroke:black;stroke-width:1;fill-opacity:1;stroke-opacity:0.3" />
<rect x="179" y="49" width="29" height="5" style="fill:#f5b024;stroke:black;stroke-width:1;fill-opacity:1;stroke-opacity:0.3" />
<line x1="208" y1="51" x2="294" y2="51" stroke="pink" stroke-width="1" />
<rect x="294" y="49" width="8" height="5" style="fill:#f5b024;stroke:black;stroke-width:1;fill-opacity:1;stroke-opacity:0.3" />
<line x1="171" y1="58" x2="173" y2="60" stroke="black" stroke-width="1" />
<line x1="173" y1="60" x2="175" y2="58" stroke="black" stroke-width="1" />
<rect x="133" y="56" width="37" height="5" style="fill:#f5b024;stroke:black;stroke-width:1;fill-opacity:1;stroke-opacity:0.3" />
<rect x="175" y="56" width="33" height="5" style="fill:#f5b024;stroke:black;stroke-width:1;fill-opacity:1;stroke-opacity:0.3" />
<line x1="208" y1="58" x2="294" y2="58" stroke="pink" stroke-width="1" />
<rect x="294" y="56" width="4" height="5" style="fill:#f5b024;stroke:black;stroke-width:1;fill-opacity:1;stroke-opacity:0.3" />
<line x1="171" y1="65" x2="175" y2="67" stroke="black" stroke-width="1" />
<line x1="175" y1="67" x2="179" y2="65" stroke="black" stroke-width="1" />
<rect x="133" y="63" width="37" height="5" style="fill:#f5b024;stroke:black;stroke-width:1;fill-opacity:1;stroke-opacity:0.3" />
<rect x="179" y="63" width="28" height="5" style="fill:#f5b024;stroke:black;stroke-width:1;fill-opacity:1;stroke-opacity:0.3" />
<line x1="208" y1="65" x2="294" y2="65" stroke="pink" stroke-width="1" />
<rect x="294" y="63" width="8" height="5" style="fill:#f5b024;stroke:black;stroke-width:1;fill-opacity:1;stroke-opacity:0.3" />
<line x1="174" y1="72" x2="177" y2="74" stroke="black" stroke-width="1" />
<line x1="177" y1="74" x2="180" y2="72" stroke="black" stroke-width="1" />
<rect x="136" y="70" width="37" height="5" style="fill:#f5b024;stroke:black;stroke-width:1;fill-opacity:1;stroke-opacity:0.3" />
<rect x="180" y="70" width="28" height="5" style="fill:#f5b024;stroke:black;stroke-width:1;fill-opacity:1;stroke-opacity:0.3" />
<line x1="208" y1="72" x2="294" y2="72" stroke="pink" stroke-width="1" />
<rect x="294" y="70" width="9" height="5" style="fill:#f5b024;stroke:black;stroke-width:1;fill-opacity:1;stroke-opacity:0.3" />
<line x1="174" y1="79" x2="179" y2="81" stroke="black" stroke-width="1" />
<line x1="179" y1="81" x2="184" y2="79" stroke="black" stroke-width="1" />
<rect x="136" y="77" width="37" height="5" style="fill:#f5b024;stroke:black;stroke-width:1;fill-opacity:1;stroke-opacity:0.3" />
<rect x="184" y="77" width="23" height="5" style="fill:#f5b024;stroke:black;stroke-width:1;fill-opacity:1;stroke-opacity:0.3" />
<line x1="208" y1="79" x2="294" y2="79" stroke="pink" stroke-width="1" />
<rect x="294" y="77" width="13" height="5" style="fill:#f5b024;stroke:black;stroke-width:1;fill-opacity:1;stroke-opacity:0.3" />
<line x1="174" y1="86" x2="185" y2="88" stroke="black" stroke-width="1" />
<line x1="185" y1="88" x2="196" y2="86" stroke="black" stroke-width="1" />
<rect x="136" y="84" width="37" height="5" style="fill:#f5b024;stroke:black;stroke-width:1;fill-opacity:1;stroke-opacity:0.3" />
<rect x="196" y="84" width="12" height="5" style="fill:#f5b024;stroke:black;stroke-width:1;fill-opacity:1;stroke-opacity:0.3" />
<line x1="208" y1="86" x2="294" y2="86" stroke="pink" stroke-width="1" />
<rect x="294" y="84" width="20" height="5" style="fill:#f5b024;stroke:black;stroke-width:1;fill-opacity:1;stroke-opacity:0.3" />
<line x1="314" y1="86" x2="381" y2="86" stroke="pink" stroke-width="1" />
<rect x="381" y="84" width="4" height="5" style="fill:#f5b024;stroke:black;stroke-width:1;fill-opacity:1;stroke-opacity:0.3" />
<line x1="174" y1="93" x2="185" y2="95" stroke="black" stroke-width="1" />
<line x1="185" y1="95" x2="196" y2="93" stroke="black" stroke-width="1" />
<rect x="136" y="91" width="37" height="5" style="fill:#f5b024;stroke:black;stroke-width:1;fill-opacity:1;stroke-opacity:0.3" />
<rect x="196" y="91" width="12" height="5" style="fill:#f5b024;stroke:black;stroke-width:1;fill-opacity:1;stroke-opacity:0.3" />
<line x1="208" y1="93" x2="294" y2="93" stroke="pink" stroke-width="1" />
<rect x="294" y="91" width="20" height="5" style="fill:#f5b024;stroke:black;stroke-width:1;fill-opacity:1;stroke-opacity:0.3" />
<line x1="314" y1="93" x2="381" y2="93" stroke="pink" stroke-width="1" />
<rect x="381" y="91" width="4" height="5" style="fill:#f5b024;stroke:black;stroke-width:1;fill-opacity:1;stroke-opacity:0.3" />
<line x1="174" y1="100" x2="176" y2="102" stroke="black" stroke-width="1" />
<line x1="176" y1="102" x2="179" y2="100" stroke="black" stroke-width="1" />
<rect x="136" y="98" width="37" height="5" style="fill:#f5b024;stroke:black;stroke-width:1;fill-opacity:1;stroke-opacity:0.3" />
<rect x="179" y="98" width="29" height="5" style="fill:#f5b024;stroke:black;stroke-width:1;fill-opacity:1;stroke-opacity:0.3" />
<line x1="208" y1="100" x2="294" y2="100" stroke="pink" stroke-width="1" />
<rect x="294" y="98" width="8" height="5" style="fill:#f5b024;stroke:black;stroke-width:1;fill-opacity:1;stroke-opacity:0.3" />
<line x1="174" y1="107" x2="176" y2="109" stroke="black" stroke-width="1" />
<line x1="176" y1="109" x2="179" y2="107" stroke="black" stroke-width="1" />
<rect x="137" y="105" width="37" height="5" style="fill:#f5b024;stroke:black;stroke-width:1;fill-opacity:1;stroke-opacity:0.3" />
<rect x="179" y="105" width="29" height="5" style="fill:#f5b024;stroke:black;stroke-width:1;fill-opacity:1;stroke-opacity:0.3" />
<line x1="208" y1="107" x2="294" y2="107" stroke="pink" stroke-width="1" />
<rect x="294" y="105" width="8" height="5" style="fill:#f5b024;stroke:black;stroke-width:1;fill-opacity:1;stroke-opacity:0.3" />
<line x1="179" y1="128" x2="186" y2="130" stroke="black" stroke-width="1" />
<line x1="186" y1="130" x2="193" y2="128" stroke="black" stroke-width="1" />
<rect x="141" y="126" width="37" height="5" style="fill:#f5b024;stroke:black;stroke-width:1;fill-opacity:1;stroke-opacity:0.3" />
<rect x="193" y="126" width="14" height="5" style="fill:#f5b024;stroke:black;stroke-width:1;fill-opacity:1;stroke-opacity:0.3" />
<line x1="208" y1="128" x2="294" y2="128" stroke="pink" stroke-width="1" />
<rect x="294" y="126" width="20" height="5" style="fill:#f5b024;stroke:black;stroke-width:1;fill-opacity:1;stroke-opacity:0.3" />
<line x1="314" y1="128" x2="381" y2="128" stroke="pink" stroke-width="1" />
<rect x="381" y="126" width="2" height="5" style="fill:#f5b024;stroke:black;stroke-width:1;fill-opacity:1;stroke-opacity:0.3" />
<line x1="190" y1="114" x2="193" y2="116" stroke="black" stroke-width="1" />
<line x1="193" y1="116" x2="196" y2="114" stroke="black" stroke-width="1" />
<rect x="153" y="112" width="37" height="5" style="fill:#f5b024;stroke:black;stroke-width:1;fill-opacity:1;stroke-opacity:0.3" />
<rect x="196" y="112" width="12" height="5" style="fill:#f5b024;stroke:black;stroke-width:1;fill-opacity:1;stroke-opacity:0.3" />
<line x1="208" y1="114" x2="294" y2="114" stroke="pink" stroke-width="1" />
<rect x="294" y="112" width="20" height="5" style="fill:#f5b024;stroke:black;stroke-width:1;fill-opacity:1;stroke-opacity:0.3" />
<line x1="314" y1="114" x2="381" y2="114" stroke="pink" stroke-width="1" />
<rect x="381" y="112" width="4" height="5" style="fill:#f5b024;stroke:black;stroke-width:1;fill-opacity:1;stroke-opacity:0.3" />
<line x1="190" y1="121" x2="197" y2="123" stroke="black" stroke-width="1" />
<line x1="197" y1="123" x2="205" y2="121" stroke="black" stroke-width="1" />
<rect x="153" y="119" width="37" height="5" style="fill:#f5b024;stroke:black;stroke-width:1;fill-opacity:1;stroke-opacity:0.3" />
<rect x="205" y="119" width="3" height="5" style="fill:#f5b024;stroke:black;stroke-width:1;fill-opacity:1;stroke-opacity:0.3" />
<line x1="208" y1="121" x2="294" y2="121" stroke="pink" stroke-width="1" />
<rect x="294" y="119" width="20" height="5" style="fill:#f5b024;stroke:black;stroke-width:1;fill-opacity:1;stroke-opacity:0.3" />
<line x1="314" y1="121" x2="381" y2="121" stroke="pink" stroke-width="1" />
<rect x="381" y="119" width="13" height="5" style="fill:#f5b024;stroke:black;stroke-width:1;fill-opacity:1;stroke-opacity:0.3" />
<line x1="201" y1="135" x2="252" y2="137" stroke="black" stroke-width="1" />
<line x1="252" y1="137" x2="303" y2="135" stroke="black" stroke-width="1" />
<rect x="163" y="133" width="37" height="5" style="fill:#f5b024;stroke:black;stroke-width:1;fill-opacity:1;stroke-opacity:0.3" />
<rect x="303" y="133" width="11" height="5" style="fill:#f5b024;stroke:black;stroke-width:1;fill-opacity:1;stroke-opacity:0.3" />
<line x1="314" y1="135" x2="381" y2="135" stroke="pink" stroke-width="1" />
<rect x="381" y="133" width="25" height="5" style="fill:#f5b024;stroke:black;stroke-width:1;fill-opacity:1;stroke-opacity:0.3" />
<line x1="308" y1="142" x2="346" y2="144" stroke="black" stroke-width="1" />
<line x1="346" y1="144" x2="385" y2="142" stroke="black" stroke-width="1" />
<rect x="185" y="140" width="23" height="5" style="fill:#f5b024;stroke:black;stroke-width:1;fill-opacity:1;stroke-opacity:0.3" />
<line x1="208" y1="142" x2="294" y2="142" stroke="pink" stroke-width="1" />
<rect x="294" y="140" width="14" height="5" style="fill:#f5b024;stroke:black;stroke-width:1;fill-opacity:1;stroke-opacity:0.3" />
<rect x="385" y="140" width="22" height="5" style="fill:#f5b024;stroke:black;stroke-width:1;fill-opacity:1;stroke-opacity:0.3" />
<line x1="408" y1="142" x2="495" y2="142" stroke="pink" stroke-width="1" />
<rect x="495" y="140" width="14" height="5" style="fill:#f5b024;stroke:black;stroke-width:1;fill-opacity:1;stroke-opacity:0.3" />
<line x1="388" y1="30" x2="452" y2="32" stroke="black" stroke-width="1" />
<line x1="452" y1="32" x2="516" y2="30" stroke="black" stroke-width="1" />
<rect x="198" y="28" width="9" height="5" style="fill:#f5b024;stroke:black;stroke-width:1;fill-opacity:1;stroke-opacity:0.3" />
<line x1="208" y1="30" x2="294" y2="30" stroke="pink" stroke-width="1" />
<rect x="294" y="28" width="20" height="5" style="fill:#f5b024;stroke:black;stroke-width:1;fill-opacity:1;stroke-opacity:0.3" />
<line x1="314" y1="30" x2="381" y2="30" stroke="pink" stroke-width="1" />
<rect x="381" y="28" width="7" height="5" style="fill:#f5b024;stroke:black;stroke-width:1;fill-opacity:1;stroke-opacity:0.3" />
<rect x="516" y="28" width="7" height="5" style="fill:#f5b024;stroke:black;stroke-width:1;fill-opacity:1;stroke-opacity:0.3" />
<line x1="523" y1="30" x2="623" y2="30" stroke="pink" stroke-width="1" />
<rect x="623" y="28" width="30" height="5" style="fill:#f5b024;stroke:black;stroke-width:1;fill-opacity:1;stroke-opacity:0.3" />
<line x1="403" y1="58" x2="452" y2="60" stroke="black" stroke-width="1" />
<line x1="452" y1="60" x2="502" y2="58" stroke="black" stroke-width="1" />
<rect x="300" y="56" width="14" height="5" style="fill:#5d3c2d;stroke:black;stroke-width:1;fill-opacity:1;stroke-opacity:0.3" />
<line x1="314" y1="58" x2="381" y2="58" stroke="pink" stroke-width="1" />
<rect x="381" y="56" width="22" height="5" style="fill:#5d3c2d;stroke:black;stroke-width:1;fill-opacity:1;stroke-opacity:0.3" />
<rect x="502" y="56" width="20" height="5" style="fill:#5d3c2d;stroke:black;stroke-width:1;fill-opacity:1;stroke-opacity:0.3" />
<line x1="523" y1="58" x2="623" y2="58" stroke="pink" stroke-width="1" />
<rect x="623" y="56" width="16" height="5" style="fill:#5d3c2d;stroke:black;stroke-width:1;fill-opacity:1;stroke-opacity:0.3" />
<line x1="403" y1="149" x2="455" y2="151" stroke="black" stroke-width="1" />
<line x1="455" y1="151" x2="508" y2="149" stroke="black" stroke-width="1" />
<rect x="300" y="147" width="14" height="5" style="fill:#f5b024;stroke:black;stroke-width:1;fill-opacity:1;stroke-opacity:0.3" />
<line x1="314" y1="149" x2="381" y2="149" stroke="pink" stroke-width="1" />
<rect x="381" y="147" width="22" height="5" style="fill:#f5b024;stroke:black;stroke-width:1;fill-opacity:1;stroke-opacity:0.3" />
<rect x="508" y="147" width="14" height="5" style="fill:#f5b024;stroke:black;stroke-width:1;fill-opacity:1;stroke-opacity:0.3" />
<line x1="523" y1="149" x2="623" y2="149" stroke="pink" stroke-width="1" />
<rect x="623" y="147" width="22" height="5" style="fill:#f5b024;stroke:black;stroke-width:1;fill-opacity:1;stroke-opacity:0.3" />
<line x1="403" y1="156" x2="456" y2="158" stroke="black" stroke-width="1" />
<line x1="456" y1="158" x2="510" y2="156" stroke="black" stroke-width="1" />
<rect x="300" y="154" width="14" height="5" style="fill:#f5b024;stroke:black;stroke-width:1;fill-opacity:1;stroke-opacity:0.3" />
<line x1="314" y1="156" x2="381" y2="156" stroke="pink" stroke-width="1" />
<rect x="381" y="154" width="22" height="5" style="fill:#f5b024;stroke:black;stroke-width:1;fill-opacity:1;stroke-opacity:0.3" />
<rect x="510" y="154" width="12" height="5" style="fill:#f5b024;stroke:black;stroke-width:1;fill-opacity:1;stroke-opacity:0.3" />
<line x1="523" y1="156" x2="623" y2="156" stroke="pink" stroke-width="1" />
<rect x="623" y="154" width="24" height="5" style="fill:#f5b024;stroke:black;stroke-width:1;fill-opacity:1;stroke-opacity:0.3" />
<line x1="406" y1="51" x2="452" y2="53" stroke="black" stroke-width="1" />
<line x1="452" y1="53" x2="499" y2="51" stroke="black" stroke-width="1" />
<rect x="302" y="49" width="12" height="5" style="fill:#f5b024;stroke:black;stroke-width:1;fill-opacity:1;stroke-opacity:0.3" />
<line x1="314" y1="51" x2="381" y2="51" stroke="pink" stroke-width="1" />
<rect x="381" y="49" width="25" height="5" style="fill:#f5b024;stroke:black;stroke-width:1;fill-opacity:1;stroke-opacity:0.3" />
<rect x="499" y="49" width="24" height="5" style="fill:#f5b024;stroke:black;stroke-width:1;fill-opacity:1;stroke-opacity:0.3" />
<line x1="523" y1="51" x2="623" y2="51" stroke="pink" stroke-width="1" />
<rect x="623" y="49" width="13" height="5" style="fill:#f5b024;stroke:black;stroke-width:1;fill-opacity:1;stroke-opacity:0.3" />
<line x1="406" y1="65" x2="457" y2="67" stroke="black" stroke-width="1" />
<line x1="457" y1="67" x2="508" y2="65" stroke="black" stroke-width="1" />
<rect x="303" y="63" width="11" height="5" style="fill:#f5b024;stroke:black;stroke-width:1;fill-opacity:1;stroke-opacity:0.3" />
<line x1="314" y1="65" x2="381" y2="65" stroke="pink" stroke-width="1" />
<rect x="381" y="63" width="25" height="5" style="fill:#f5b024;stroke:black;stroke-width:1;fill-opacity:1;stroke-opacity:0.3" />
<rect x="508" y="63" width="15" height="5" style="fill:#f5b024;stroke:black;stroke-width:1;fill-opacity:1;stroke-opacity:0.3" />
<line x1="523" y1="65" x2="623" y2="65" stroke="pink" stroke-width="1" />
<rect x="623" y="63" width="22" height="5" style="fill:#f5b024;stroke:black;stroke-width:1;fill-opacity:1;stroke-opacity:0.3" />
<line x1="406" y1="100" x2="456" y2="102" stroke="black" stroke-width="1" />
<line x1="456" y1="102" x2="506" y2="100" stroke="black" stroke-width="1" />
<rect x="303" y="98" width="11" height="5" style="fill:#f5b024;stroke:black;stroke-width:1;fill-opacity:1;stroke-opacity:0.3" />
<line x1="314" y1="100" x2="381" y2="100" stroke="pink" stroke-width="1" />
<rect x="381" y="98" width="25" height="5" style="fill:#f5b024;stroke:black;stroke-width:1;fill-opacity:1;stroke-opacity:0.3" />
<rect x="506" y="98" width="16" height="5" style="fill:#f5b024;stroke:black;stroke-width:1;fill-opacity:1;stroke-opacity:0.3" />
<line x1="523" y1="100" x2="623" y2="100" stroke="pink" stroke-width="1" />
<rect x="623" y="98" width="21" height="5" style="fill:#f5b024;stroke:black;stroke-width:1;fill-opacity:1;stroke-opacity:0.3" />
<line x1="408" y1="72" x2="457" y2="74" stroke="black" stroke-width="1" />
<line x1="457" y1="74" x2="507" y2="72" stroke="black" stroke-width="1" />
<rect x="304" y="70" width="10" height="5" style="fill:#f5b024;stroke:black;stroke-width:1;fill-opacity:1;stroke-opacity:0.3" />
<line x1="314" y1="72" x2="381" y2="72" stroke="pink" stroke-width="1" />
<rect x="381" y="70" width="27" height="5" style="fill:#f5b024;stroke:black;stroke-width:1;fill-opacity:1;stroke-opacity:0.3" />
<rect x="507" y="70" width="15" height="5" style="fill:#f5b024;stroke:black;stroke-width:1;fill-opacity:1;stroke-opacity:0.3" />
<line x1="523" y1="72" x2="623" y2="72" stroke="pink" stroke-width="1" />
<rect x="623" y="70" width="22" height="5" style="fill:#f5b024;stroke:black;stroke-width:1;fill-opacity:1;stroke-opacity:0.3" />
<line x1="407" y1="107" x2="451" y2="109" stroke="black" stroke-width="1" />
<line x1="451" y1="109" x2="495" y2="107" stroke="black" stroke-width="1" />
<rect x="304" y="105" width="10" height="5" style="fill:#f5b024;stroke:black;stroke-width:1;fill-opacity:1;stroke-opacity:0.3" />
<line x1="314" y1="107" x2="381" y2="107" stroke="pink" stroke-width="1" />
<rect x="381" y="105" width="26" height="5" style="fill:#f5b024;stroke:black;stroke-width:1;fill-opacity:1;stroke-opacity:0.3" />
<rect x="495" y="105" width="28" height="5" style="fill:#f5b024;stroke:black;stroke-width:1;fill-opacity:1;stroke-opacity:0.3" />
<line x1="523" y1="107" x2="623" y2="107" stroke="pink" stroke-width="1" />
<rect x="623" y="105" width="9" height="5" style="fill:#f5b024;stroke:black;stroke-width:1;fill-opacity:1;stroke-opacity:0.3" />
<line x1="498" y1="163" x2="500" y2="165" stroke="black" stroke-width="1" />
<line x1="500" y1="165" x2="503" y2="163" stroke="black" stroke-width="1" />
<rect x="306" y="161" width="7" height="5" style="fill:#f5b024;stroke:black;stroke-width:1;fill-opacity:1;stroke-opacity:0.3" />
<line x1="314" y1="163" x2="381" y2="163" stroke="pink" stroke-width="1" />
<rect x="381" y="161" width="27" height="5" style="fill:#f5b024;stroke:black;stroke-width:1;fill-opacity:1;stroke-opacity:0.3" />
<line x1="408" y1="163" x2="495" y2="163" stroke="pink" stroke-width="1" />
<rect x="495" y="161" width="2" height="5" style="fill:#f5b024;stroke:black;stroke-width:1;fill-opacity:1;stroke-opacity:0.3" />
<rect x="503" y="161" width="37" height="5" style="fill:#f5b024;stroke:black;stroke-width:1;fill-opacity:1;stroke-opacity:0.3" />
<line x1="499" y1="79" x2="507" y2="81" stroke="black" stroke-width="1" />
<line x1="507" y1="81" x2="516" y2="79" stroke="black" stroke-width="1" />
<rect x="309" y="77" width="5" height="5" style="fill:#5d3c2d;stroke:black;stroke-width:1;fill-opacity:1;stroke-opacity:0.3" />
<line x1="314" y1="79" x2="381" y2="79" stroke="pink" stroke-width="1" />
<rect x="381" y="77" width="27" height="5" style="fill:#5d3c2d;stroke:black;stroke-width:1;fill-opacity:1;stroke-opacity:0.3" />
<line x1="408" y1="79" x2="495" y2="79" stroke="pink" stroke-width="1" />
<rect x="495" y="77" width="3" height="5" style="fill:#5d3c2d;stroke:black;stroke-width:1;fill-opacity:1;stroke-opacity:0.3" />
<rect x="516" y="77" width="6" height="5" style="fill:#5d3c2d;stroke:black;stroke-width:1;fill-opacity:1;stroke-opacity:0.3" />
<line x1="523" y1="79" x2="623" y2="79" stroke="pink" stroke-width="1" />
<rect x="623" y="77" width="30" height="5" style="fill:#5d3c2d;stroke:black;stroke-width:1;fill-opacity:1;stroke-opacity:0.3" />
<line x1="510" y1="44" x2="574" y2="46" stroke="black" stroke-width="1" />
<line x1="574" y1="46" x2="638" y2="44" stroke="black" stroke-width="1" />
<rect x="385" y="42" width="22" height="5" style="fill:#f5b024;stroke:black;stroke-width:1;fill-opacity:1;stroke-opacity:0.3" />
<line x1="408" y1="44" x2="495" y2="44" stroke="pink" stroke-width="1" />
<rect x="495" y="42" width="14" height="5" style="fill:#f5b024;stroke:black;stroke-width:1;fill-opacity:1;stroke-opacity:0.3" />
<rect x="638" y="42" width="22" height="5" style="fill:#f5b024;stroke:black;stroke-width:1;fill-opacity:1;stroke-opacity:0.3" />
<line x1="661" y1="44" x2="714" y2="44" stroke="pink" stroke-width="1" />
<rect x="714" y="42" width="14" height="5" style="fill:#f5b024;stroke:black;stroke-width:1;fill-opacity:1;stroke-opacity:0.3" />
<line x1="512" y1="86" x2="567" y2="88" stroke="black" stroke-width="1" />
<line x1="567" y1="88" x2="623" y2="86" stroke="black" stroke-width="1" />
<rect x="387" y="84" width="20" height="5" style="fill:#f5b024;stroke:black;stroke-width:1;fill-opacity:1;stroke-opacity:0.3" />
<line x1="408" y1="86" x2="495" y2="86" stroke="pink" stroke-width="1" />
<rect x="495" y="84" width="16" height="5" style="fill:#f5b024;stroke:black;stroke-width:1;fill-opacity:1;stroke-opacity:0.3" />
<rect x="623" y="84" width="35" height="5" style="fill:#f5b024;stroke:black;stroke-width:1;fill-opacity:1;stroke-opacity:0.3" />
<line x1="636" y1="93" x2="643" y2="95" stroke="black" stroke-width="1" />
<line x1="643" y1="95" x2="650" y2="93" stroke="black" stroke-width="1" />
<rect x="392" y="91" width="15" height="5" style="fill:#f5b024;stroke:black;stroke-width:1;fill-opacity:1;stroke-opacity:0.3" />
<line x1="408" y1="93" x2="495" y2="93" stroke="pink" stroke-width="1" />
<rect x="495" y="91" width="27" height="5" style="fill:#f5b024;stroke:black;stroke-width:1;fill-opacity:1;stroke-opacity:0.3" />
<line x1="523" y1="93" x2="623" y2="93" stroke="pink" stroke-width="1" />
<rect x="623" y="91" width="12" height="5" style="fill:#f5b024;stroke:black;stroke-width:1;fill-opacity:1;stroke-opacity:0.3" />
<rect x="650" y="91" width="11" height="5" style="fill:#f5b024;stroke:black;stroke-width:1;fill-opacity:1;stroke-opacity:0.3" />
<line x1="661" y1="93" x2="714" y2="93" stroke="pink" stroke-width="1" />
<rect x="714" y="91" width="45" height="5" style="fill:#f5b024;stroke:black;stroke-width:1;fill-opacity:1;stroke-opacity:0.3" />
<line x1="520" y1="114" x2="581" y2="116" stroke="black" stroke-width="1" />
<line x1="581" y1="116" x2="643" y2="114" stroke="black" stroke-width="1" />
<rect x="395" y="112" width="12" height="5" style="fill:#f5b024;stroke:black;stroke-width:1;fill-opacity:1;stroke-opacity:0.3" />
<line x1="408" y1="114" x2="495" y2="114" stroke="pink" stroke-width="1" />
<rect x="495" y="112" width="25" height="5" style="fill:#f5b024;stroke:black;stroke-width:1;fill-opacity:1;stroke-opacity:0.3" />
<rect x="643" y="112" width="18" height="5" style="fill:#f5b024;stroke:black;stroke-width:1;fill-opacity:1;stroke-opacity:0.3" />
<line x1="661" y1="114" x2="714" y2="114" stroke="pink" stroke-width="1" />
<rect x="714" y="112" width="19" height="5" style="fill:#f5b024;stroke:black;stroke-width:1;fill-opacity:1;stroke-opacity:0.3" />
<line x1="521" y1="121" x2="575" y2="123" stroke="black" stroke-width="1" />
<line x1="575" y1="123" x2="629" y2="121" stroke="black" stroke-width="1" />
<rect x="396" y="119" width="12" height="5" style="fill:#f5b024;stroke:black;stroke-width:1;fill-opacity:1;stroke-opacity:0.3" />
<line x1="408" y1="121" x2="495" y2="121" stroke="pink" stroke-width="1" />
<rect x="495" y="119" width="25" height="5" style="fill:#f5b024;stroke:black;stroke-width:1;fill-opacity:1;stroke-opacity:0.3" />
<rect x="629" y="119" width="31" height="5" style="fill:#f5b024;stroke:black;stroke-width:1;fill-opacity:1;stroke-opacity:0.3" />
<line x1="661" y1="121" x2="714" y2="121" stroke="pink" stroke-width="1" />
<rect x="714" y="119" width="6" height="5" style="fill:#f5b024;stroke:black;stroke-width:1;fill-opacity:1;stroke-opacity:0.3" />
<line x1="521" y1="128" x2="572" y2="130" stroke="black" stroke-width="1" />
<line x1="572" y1="130" x2="624" y2="128" stroke="black" stroke-width="1" />
<rect x="396" y="126" width="12" height="5" style="fill:#f5b024;stroke:black;stroke-width:1;fill-opacity:1;stroke-opacity:0.3" />
<line x1="408" y1="128" x2="495" y2="128" stroke="pink" stroke-width="1" />
<rect x="495" y="126" width="25" height="5" style="fill:#f5b024;stroke:black;stroke-width:1;fill-opacity:1;stroke-opacity:0.3" />
<rect x="624" y="126" width="36" height="5" style="fill:#f5b024;stroke:black;stroke-width:1;fill-opacity:1;stroke-opacity:0.3" />
<line x1="661" y1="128" x2="714" y2="128" stroke="pink" stroke-width="1" />
<rect x="714" y="126" width="1" height="5" style="fill:#f5b024;stroke:black;stroke-width:1;fill-opacity:1;stroke-opacity:0.3" />
<line x1="644" y1="37" x2="647" y2="39" stroke="black" stroke-width="1" />
<line x1="647" y1="39" x2="651" y2="37" stroke="black" stroke-width="1" />
<rect x="400" y="35" width="7" height="5" style="fill:#5d3c2d;stroke:black;stroke-width:1;fill-opacity:1;stroke-opacity:0.3" />
<line x1="408" y1="37" x2="495" y2="37" stroke="pink" stroke-width="1" />
<rect x="495" y="35" width="27" height="5" style="fill:#5d3c2d;stroke:black;stroke-width:1;fill-opacity:1;stroke-opacity:0.3" />
<line x1="523" y1="37" x2="623" y2="37" stroke="pink" stroke-width="1" />
<rect x="623" y="35" width="20" height="5" style="fill:#5d3c2d;stroke:black;stroke-width:1;fill-opacity:1;stroke-opacity:0.3" />
<rect x="651" y="35" width="9" height="5" style="fill:#5d3c2d;stroke:black;stroke-width:1;fill-opacity:1;stroke-opacity:0.3" />
<line x1="661" y1="37" x2="714" y2="37" stroke="pink" stroke-width="1" />
<rect x="714" y="35" width="46" height="5" style="fill:#5d3c2d;stroke:black;stroke-width:1;fill-opacity:1;stroke-opacity:0.3" />
<line x1="651" y1="135" x2="653" y2="137" stroke="black" stroke-width="1" />
<line x1="653" y1="137" x2="656" y2="135" stroke="black" stroke-width="1" />
<rect x="495" y="133" width="27" height="5" style="fill:#f5b024;stroke:black;stroke-width:1;fill-opacity:1;stroke-opacity:0.3" />
<line x1="523" y1="135" x2="623" y2="135" stroke="pink" stroke-width="1" />
<rect x="623" y="133" width="28" height="5" style="fill:#f5b024;stroke:black;stroke-width:1;fill-opacity:1;stroke-opacity:0.3" />
<rect x="656" y="133" width="4" height="5" style="fill:#f5b024;stroke:black;stroke-width:1;fill-opacity:1;stroke-opacity:0.3" />
<line x1="661" y1="135" x2="714" y2="135" stroke="pink" stroke-width="1" />
<rect x="714" y="133" width="51" height="5" style="fill:#f5b024;stroke:black;stroke-width:1;fill-opacity:1;stroke-opacity:0.3" />
<line x1="648" y1="142" x2="650" y2="144" stroke="black" stroke-width="1" />
<line x1="650" y1="144" x2="653" y2="142" stroke="black" stroke-width="1" />
<rect x="511" y="140" width="11" height="5" style="fill:#f5b024;stroke:black;stroke-width:1;fill-opacity:1;stroke-opacity:0.3" />
<line x1="523" y1="142" x2="623" y2="142" stroke="pink" stroke-width="1" />
<rect x="623" y="140" width="25" height="5" style="fill:#f5b024;stroke:black;stroke-width:1;fill-opacity:1;stroke-opacity:0.3" />
<rect x="653" y="140" width="7" height="5" style="fill:#f5b024;stroke:black;stroke-width:1;fill-opacity:1;stroke-opacity:0.3" />
<line x1="661" y1="142" x2="714" y2="142" stroke="pink" stroke-width="1" />
<rect x="714" y="140" width="29" height="5" style="fill:#f5b024;stroke:black;stroke-width:1;fill-opacity:1;stroke-opacity:0.3" />
<line x1="635" y1="163" x2="640" y2="165" stroke="black" stroke-width="1" />
<line x1="640" y1="165" x2="645" y2="163" stroke="black" stroke-width="1" />
<rect x="597" y="161" width="37" height="5" style="fill:#f5b024;stroke:black;stroke-width:1;fill-opacity:1;stroke-opacity:0.3" />
<rect x="645" y="161" width="15" height="5" style="fill:#f5b024;stroke:black;stroke-width:1;fill-opacity:1;stroke-opacity:0.3" />
<line x1="661" y1="163" x2="714" y2="163" stroke="pink" stroke-width="1" />
<rect x="714" y="161" width="22" height="5" style="fill:#f5b024;stroke:black;stroke-width:1;fill-opacity:1;stroke-opacity:0.3" />
<line x1="725" y1="107" x2="731" y2="109" stroke="black" stroke-width="1" />
<line x1="731" y1="109" x2="737" y2="107" stroke="black" stroke-width="1" />
<rect x="634" y="105" width="27" height="5" style="fill:#f5b024;stroke:black;stroke-width:1;fill-opacity:1;stroke-opacity:0.3" />
<line x1="661" y1="107" x2="714" y2="107" stroke="pink" stroke-width="1" />
<rect x="714" y="105" width="10" height="5" style="fill:#f5b024;stroke:black;stroke-width:1;fill-opacity:1;stroke-opacity:0.3" />
<rect x="737" y="105" width="37" height="5" style="fill:#f5b024;stroke:black;stroke-width:1;fill-opacity:1;stroke-opacity:0.3" />
<line x1="737" y1="51" x2="755" y2="53" stroke="black" stroke-width="1" />
<line x1="755" y1="53" x2="774" y2="51" stroke="black" stroke-width="1" />
<rect x="646" y="49" width="14" height="5" style="fill:#f5b024;stroke:black;stroke-width:1;fill-opacity:1;stroke-opacity:0.3" />
<line x1="661" y1="51" x2="714" y2="51" stroke="pink" stroke-width="1" />
<rect x="714" y="49" width="22" height="5" style="fill:#f5b024;stroke:black;stroke-width:1;fill-opacity:1;stroke-opacity:0.3" />
<rect x="774" y="49" width="31" height="5" style="fill:#f5b024;stroke:black;stroke-width:1;fill-opacity:1;stroke-opacity:0.3" />
<line x1="806" y1="51" x2="883" y2="51" stroke="pink" stroke-width="1" />
<rect x="883" y="49" width="6" height="5" style="fill:#f5b024;stroke:black;stroke-width:1;fill-opacity:1;stroke-opacity:0.3" />
<line x1="780" y1="30" x2="790" y2="32" stroke="black" stroke-width="1" />
<line x1="790" y1="32" x2="801" y2="30" stroke="black" stroke-width="1" />
<rect x="724" y="28" width="56" height="5" style="fill:#f5b024;stroke:black;stroke-width:1;fill-opacity:1;stroke-opacity:0.3" />
<rect x="801" y="28" width="4" height="5" style="fill:#f5b024;stroke:black;stroke-width:1;fill-opacity:1;stroke-opacity:0.3" />
<line x1="806" y1="30" x2="883" y2="30" stroke="pink" stroke-width="1" />
<rect x="883" y="28" width="52" height="5" style="fill:#f5b024;stroke:black;stroke-width:1;fill-opacity:1;stroke-opacity:0.3" />
<line x1="763" y1="58" x2="768" y2="60" stroke="black" stroke-width="1" />
<line x1="768" y1="60" x2="774" y2="58" stroke="black" stroke-width="1" />
<rect x="725" y="56" width="37" height="5" style="fill:#f5b024;stroke:black;stroke-width:1;fill-opacity:1;stroke-opacity:0.3" />
<rect x="774" y="56" width="31" height="5" style="fill:#f5b024;stroke:black;stroke-width:1;fill-opacity:1;stroke-opacity:0.3" />
<line x1="806" y1="58" x2="883" y2="58" stroke="pink" stroke-width="1" />
<rect x="883" y="56" width="5" height="5" style="fill:#f5b024;stroke:black;stroke-width:1;fill-opacity:1;stroke-opacity:0.3" />
<line x1="771" y1="44" x2="773" y2="46" stroke="black" stroke-width="1" />
<line x1="773" y1="46" x2="776" y2="44" stroke="black" stroke-width="1" />
<rect x="733" y="42" width="37" height="5" style="fill:#f5b024;stroke:black;stroke-width:1;fill-opacity:1;stroke-opacity:0.3" />
<rect x="776" y="42" width="29" height="5" style="fill:#f5b024;stroke:black;stroke-width:1;fill-opacity:1;stroke-opacity:0.3" />
<line x1="806" y1="44" x2="883" y2="44" stroke="pink" stroke-width="1" />
<rect x="883" y="42" width="7" height="5" style="fill:#f5b024;stroke:black;stroke-width:1;fill-opacity:1;stroke-opacity:0.3" />
<line x1="795" y1="65" x2="799" y2="67" stroke="black" stroke-width="1" />
<line x1="799" y1="67" x2="804" y2="65" stroke="black" stroke-width="1" />
<rect x="740" y="63" width="55" height="5" style="fill:#f5b024;stroke:black;stroke-width:1;fill-opacity:1;stroke-opacity:0.3" />
<rect x="804" y="63" width="1" height="5" style="fill:#f5b024;stroke:black;stroke-width:1;fill-opacity:1;stroke-opacity:0.3" />
<line x1="806" y1="65" x2="883" y2="65" stroke="pink" stroke-width="1" />
<rect x="883" y="63" width="55" height="5" style="fill:#f5b024;stroke:black;stroke-width:1;fill-opacity:1;stroke-opacity:0.3" />
<line x1="803" y1="72" x2="846" y2="74" stroke="black" stroke-width="1" />
<line x1="846" y1="74" x2="890" y2="72" stroke="black" stroke-width="1" />
<rect x="747" y="70" width="56" height="5" style="fill:#f5b024;stroke:black;stroke-width:1;fill-opacity:1;stroke-opacity:0.3" />
<rect x="890" y="70" width="56" height="5" style="fill:#f5b024;stroke:black;stroke-width:1;fill-opacity:1;stroke-opacity:0.3" />
<line x1="790" y1="79" x2="849" y2="81" stroke="black" stroke-width="1" />
<line x1="849" y1="81" x2="908" y2="79" stroke="black" stroke-width="1" />
<rect x="752" y="77" width="37" height="5" style="fill:#f5b024;stroke:black;stroke-width:1;fill-opacity:1;stroke-opacity:0.3" />
<rect x="908" y="77" width="37" height="5" style="fill:#f5b024;stroke:black;stroke-width:1;fill-opacity:1;stroke-opacity:0.3" />
<line x1="803" y1="37" x2="844" y2="39" stroke="black" stroke-width="1" />
<line x1="844" y1="39" x2="885" y2="37" stroke="black" stroke-width="1" />
<rect x="765" y="35" width="37" height="5" style="fill:#f5b024;stroke:black;stroke-width:1;fill-opacity:1;stroke-opacity:0.3" />
<rect x="885" y="35" width="37" height="5" style="fill:#f5b024;stroke:black;stroke-width:1;fill-opacity:1;stroke-opacity:0.3" />
<line x1="899" y1="86" x2="903" y2="88" stroke="black" stroke-width="1" />
<line x1="903" y1="88" x2="908" y2="86" stroke="black" stroke-width="1" />
<rect x="783" y="84" width="22" height="5" style="fill:#f5b024;stroke:black;stroke-width:1;fill-opacity:1;stroke-opacity:0.3" />
<line x1="806" y1="86" x2="883" y2="86" stroke="pink" stroke-width="1" />
<rect x="883" y="84" width="15" height="5" style="fill:#f5b024;stroke:black;stroke-width:1;fill-opacity:1;stroke-opacity:0.3" />
<rect x="908" y="84" width="37" height="5" style="fill:#f5b024;stroke:black;stroke-width:1;fill-opacity:1;stroke-opacity:0.3" />
<text x="15"  y="176" style="font-family:Arial;font-size:10;stroke:black;fill:black;">all.merged.bam</text>
</svg>
    
