<?xml version="1.0" encoding="utf-8" standalone="no"?>
<!DOCTYPE svg PUBLIC "-//W3C//DTD SVG 1.1//EN"
  "http://www.w3.org/Graphics/SVG/1.1/DTD/svg11.dtd">
<svg height="1140" width="1000" version="1.1" viewBox="0 0 1000 1140" xmlns="http://www.w3.org/2000/svg" xmlns:xlink="http://www.w3.org/1999/xlink">
<line x1="36" y1="11" x2="963" y2="11" stroke="black" stroke-width="1" />
<rect x="36" y="9" width="68" height="5" style="fill:#f50002;stroke:black;stroke-width:1;fill-opacity:1;stroke-opacity:0.3" />
<rect x="105" y="9" width="107" height="5" style="fill:#53a1b5;stroke:black;stroke-width:1;fill-opacity:1;stroke-opacity:0.3" />
<rect x="274" y="9" width="37" height="5" style="fill:#53a1b5;stroke:black;stroke-width:1;fill-opacity:1;stroke-opacity:0.3" />
<rect x="380" y="9" width="63" height="5" style="fill:#53a1b5;stroke:black;stroke-width:1;fill-opacity:1;stroke-opacity:0.3" />
<rect x="533" y="9" width="29" height="5" style="fill:#53a1b5;stroke:black;stroke-width:1;fill-opacity:1;stroke-opacity:0.3" />
<rect x="629" y="9" width="53" height="5" style="fill:#53a1b5;stroke:black;stroke-width:1;fill-opacity:1;stroke-opacity:0.3" />
<rect x="682" y="9" width="280" height="5" style="fill:#f50002;stroke:black;stroke-width:1;fill-opacity:1;stroke-opacity:0.3" />
<text x="36"  y="23" style="font-family:Arial;font-size:10;stroke:black;fill:black;">Cre17.g713800.t1.2.v5.5 (-) chromosome_17:2282942-2285516</text>
<line x1="51" y1="30" x2="54" y2="32" stroke="black" stroke-width="1" />
<line x1="54" y1="32" x2="58" y2="30" stroke="black" stroke-width="1" />
<rect x="15" y="28" width="35" height="5" style="fill:#f5b024;stroke:black;stroke-width:1;fill-opacity:1;stroke-opacity:0.3" />
<rect x="58" y="28" width="36" height="5" style="fill:#f5b024;stroke:black;stroke-width:1;fill-opacity:1;stroke-opacity:0.3" />
<line x1="68" y1="37" x2="70" y2="39" stroke="black" stroke-width="1" />
<line x1="70" y1="39" x2="73" y2="37" stroke="black" stroke-width="1" />
<rect x="32" y="35" width="36" height="5" style="fill:#f5b024;stroke:black;stroke-width:1;fill-opacity:1;stroke-opacity:0.3" />
<rect x="73" y="35" width="36" height="5" style="fill:#f5b024;stroke:black;stroke-width:1;fill-opacity:1;stroke-opacity:0.3" />
<line x1="68" y1="44" x2="75" y2="46" stroke="black" stroke-width="1" />
<line x1="75" y1="46" x2="82" y2="44" stroke="black" stroke-width="1" />
<rect x="32" y="42" width="36" height="5" style="fill:#f5b024;stroke:black;stroke-width:1;fill-opacity:1;stroke-opacity:0.3" />
<rect x="82" y="42" width="36" height="5" style="fill:#f5b024;stroke:black;stroke-width:1;fill-opacity:1;stroke-opacity:0.3" />
<line x1="68" y1="51" x2="76" y2="53" stroke="black" stroke-width="1" />
<line x1="76" y1="53" x2="85" y2="51" stroke="black" stroke-width="1" />
<rect x="32" y="49" width="36" height="5" style="fill:#f5b024;stroke:black;stroke-width:1;fill-opacity:1;stroke-opacity:0.3" />
<rect x="85" y="49" width="36" height="5" style="fill:#f5b024;stroke:black;stroke-width:1;fill-opacity:1;stroke-opacity:0.3" />
<line x1="68" y1="58" x2="73" y2="60" stroke="black" stroke-width="1" />
<line x1="73" y1="60" x2="78" y2="58" stroke="black" stroke-width="1" />
<rect x="32" y="56" width="36" height="5" style="fill:#f5b024;stroke:black;stroke-width:1;fill-opacity:1;stroke-opacity:0.3" />
<rect x="78" y="56" width="36" height="5" style="fill:#f5b024;stroke:black;stroke-width:1;fill-opacity:1;stroke-opacity:0.3" />
<line x1="70" y1="65" x2="76" y2="67" stroke="black" stroke-width="1" />
<line x1="76" y1="67" x2="82" y2="65" stroke="black" stroke-width="1" />
<rect x="34" y="63" width="36" height="5" style="fill:#5d3c2d;stroke:black;stroke-width:1;fill-opacity:1;stroke-opacity:0.3" />
<rect x="82" y="63" width="36" height="5" style="fill:#5d3c2d;stroke:black;stroke-width:1;fill-opacity:1;stroke-opacity:0.3" />
<line x1="70" y1="72" x2="74" y2="74" stroke="black" stroke-width="1" />
<line x1="74" y1="74" x2="78" y2="72" stroke="black" stroke-width="1" />
<rect x="34" y="70" width="36" height="5" style="fill:#f5b024;stroke:black;stroke-width:1;fill-opacity:1;stroke-opacity:0.3" />
<rect x="78" y="70" width="36" height="5" style="fill:#f5b024;stroke:black;stroke-width:1;fill-opacity:1;stroke-opacity:0.3" />
<line x1="70" y1="79" x2="73" y2="81" stroke="black" stroke-width="1" />
<line x1="73" y1="81" x2="77" y2="79" stroke="black" stroke-width="1" />
<rect x="34" y="77" width="36" height="5" style="fill:#f5b024;stroke:black;stroke-width:1;fill-opacity:1;stroke-opacity:0.3" />
<rect x="77" y="77" width="36" height="5" style="fill:#f5b024;stroke:black;stroke-width:1;fill-opacity:1;stroke-opacity:0.3" />
<line x1="70" y1="86" x2="81" y2="88" stroke="black" stroke-width="1" />
<line x1="81" y1="88" x2="92" y2="86" stroke="black" stroke-width="1" />
<rect x="34" y="84" width="36" height="5" style="fill:#f5b024;stroke:black;stroke-width:1;fill-opacity:1;stroke-opacity:0.3" />
<rect x="92" y="84" width="36" height="5" style="fill:#f5b024;stroke:black;stroke-width:1;fill-opacity:1;stroke-opacity:0.3" />
<line x1="70" y1="93" x2="76" y2="95" stroke="black" stroke-width="1" />
<line x1="76" y1="95" x2="82" y2="93" stroke="black" stroke-width="1" />
<rect x="35" y="91" width="35" height="5" style="fill:#f5b024;stroke:black;stroke-width:1;fill-opacity:1;stroke-opacity:0.3" />
<rect x="82" y="91" width="36" height="5" style="fill:#f5b024;stroke:black;stroke-width:1;fill-opacity:1;stroke-opacity:0.3" />
<line x1="71" y1="100" x2="82" y2="102" stroke="black" stroke-width="1" />
<line x1="82" y1="102" x2="94" y2="100" stroke="black" stroke-width="1" />
<rect x="35" y="98" width="36" height="5" style="fill:#f5b024;stroke:black;stroke-width:1;fill-opacity:1;stroke-opacity:0.3" />
<rect x="94" y="98" width="36" height="5" style="fill:#f5b024;stroke:black;stroke-width:1;fill-opacity:1;stroke-opacity:0.3" />
<line x1="71" y1="107" x2="74" y2="109" stroke="black" stroke-width="1" />
<line x1="74" y1="109" x2="77" y2="107" stroke="black" stroke-width="1" />
<rect x="35" y="105" width="36" height="5" style="fill:#f5b024;stroke:black;stroke-width:1;fill-opacity:1;stroke-opacity:0.3" />
<rect x="77" y="105" width="36" height="5" style="fill:#f5b024;stroke:black;stroke-width:1;fill-opacity:1;stroke-opacity:0.3" />
<line x1="70" y1="114" x2="74" y2="116" stroke="black" stroke-width="1" />
<line x1="74" y1="116" x2="79" y2="114" stroke="black" stroke-width="1" />
<rect x="35" y="112" width="35" height="5" style="fill:#f5b024;stroke:black;stroke-width:1;fill-opacity:1;stroke-opacity:0.3" />
<rect x="79" y="112" width="36" height="5" style="fill:#f5b024;stroke:black;stroke-width:1;fill-opacity:1;stroke-opacity:0.3" />
<line x1="70" y1="121" x2="76" y2="123" stroke="black" stroke-width="1" />
<line x1="76" y1="123" x2="82" y2="121" stroke="black" stroke-width="1" />
<rect x="35" y="119" width="35" height="5" style="fill:#f5b024;stroke:black;stroke-width:1;fill-opacity:1;stroke-opacity:0.3" />
<rect x="82" y="119" width="36" height="5" style="fill:#f5b024;stroke:black;stroke-width:1;fill-opacity:1;stroke-opacity:0.3" />
<line x1="71" y1="128" x2="74" y2="130" stroke="black" stroke-width="1" />
<line x1="74" y1="130" x2="78" y2="128" stroke="black" stroke-width="1" />
<rect x="35" y="126" width="36" height="5" style="fill:#f5b024;stroke:black;stroke-width:1;fill-opacity:1;stroke-opacity:0.3" />
<rect x="78" y="126" width="36" height="5" style="fill:#f5b024;stroke:black;stroke-width:1;fill-opacity:1;stroke-opacity:0.3" />
<line x1="71" y1="135" x2="74" y2="137" stroke="black" stroke-width="1" />
<line x1="74" y1="137" x2="78" y2="135" stroke="black" stroke-width="1" />
<rect x="35" y="133" width="36" height="5" style="fill:#5d3c2d;stroke:black;stroke-width:1;fill-opacity:1;stroke-opacity:0.3" />
<rect x="78" y="133" width="36" height="5" style="fill:#5d3c2d;stroke:black;stroke-width:1;fill-opacity:1;stroke-opacity:0.3" />
<line x1="71" y1="142" x2="79" y2="144" stroke="black" stroke-width="1" />
<line x1="79" y1="144" x2="88" y2="142" stroke="black" stroke-width="1" />
<rect x="35" y="140" width="35" height="5" style="fill:#f5b024;stroke:black;stroke-width:1;fill-opacity:1;stroke-opacity:0.3" />
<rect x="88" y="140" width="36" height="5" style="fill:#f5b024;stroke:black;stroke-width:1;fill-opacity:1;stroke-opacity:0.3" />
<line x1="71" y1="149" x2="75" y2="151" stroke="black" stroke-width="1" />
<line x1="75" y1="151" x2="79" y2="149" stroke="black" stroke-width="1" />
<rect x="35" y="147" width="36" height="5" style="fill:#5d3c2d;stroke:black;stroke-width:1;fill-opacity:1;stroke-opacity:0.3" />
<rect x="79" y="147" width="36" height="5" style="fill:#5d3c2d;stroke:black;stroke-width:1;fill-opacity:1;stroke-opacity:0.3" />
<line x1="71" y1="156" x2="75" y2="158" stroke="black" stroke-width="1" />
<line x1="75" y1="158" x2="79" y2="156" stroke="black" stroke-width="1" />
<rect x="35" y="154" width="36" height="5" style="fill:#f5b024;stroke:black;stroke-width:1;fill-opacity:1;stroke-opacity:0.3" />
<rect x="79" y="154" width="36" height="5" style="fill:#f5b024;stroke:black;stroke-width:1;fill-opacity:1;stroke-opacity:0.3" />
<line x1="71" y1="163" x2="74" y2="165" stroke="black" stroke-width="1" />
<line x1="74" y1="165" x2="77" y2="163" stroke="black" stroke-width="1" />
<rect x="35" y="161" width="36" height="5" style="fill:#f5b024;stroke:black;stroke-width:1;fill-opacity:1;stroke-opacity:0.3" />
<rect x="77" y="161" width="36" height="5" style="fill:#f5b024;stroke:black;stroke-width:1;fill-opacity:1;stroke-opacity:0.3" />
<line x1="130" y1="30" x2="142" y2="32" stroke="black" stroke-width="1" />
<line x1="142" y1="32" x2="155" y2="30" stroke="black" stroke-width="1" />
<rect x="94" y="28" width="36" height="5" style="fill:#f5b024;stroke:black;stroke-width:1;fill-opacity:1;stroke-opacity:0.3" />
<rect x="155" y="28" width="36" height="5" style="fill:#f5b024;stroke:black;stroke-width:1;fill-opacity:1;stroke-opacity:0.3" />
<line x1="148" y1="37" x2="163" y2="39" stroke="black" stroke-width="1" />
<line x1="163" y1="39" x2="178" y2="37" stroke="black" stroke-width="1" />
<rect x="112" y="35" width="36" height="5" style="fill:#f5b024;stroke:black;stroke-width:1;fill-opacity:1;stroke-opacity:0.3" />
<rect x="178" y="35" width="34" height="5" style="fill:#f5b024;stroke:black;stroke-width:1;fill-opacity:1;stroke-opacity:0.3" />
<line x1="212" y1="37" x2="274" y2="37" stroke="pink" stroke-width="1" />
<rect x="274" y="35" width="1" height="5" style="fill:#f5b024;stroke:black;stroke-width:1;fill-opacity:1;stroke-opacity:0.3" />
<line x1="150" y1="58" x2="159" y2="60" stroke="black" stroke-width="1" />
<line x1="159" y1="60" x2="169" y2="58" stroke="black" stroke-width="1" />
<rect x="114" y="56" width="36" height="5" style="fill:#f5b024;stroke:black;stroke-width:1;fill-opacity:1;stroke-opacity:0.3" />
<rect x="169" y="56" width="33" height="5" style="fill:#f5b024;stroke:black;stroke-width:1;fill-opacity:1;stroke-opacity:0.3" />
<line x1="150" y1="72" x2="155" y2="74" stroke="black" stroke-width="1" />
<line x1="155" y1="74" x2="161" y2="72" stroke="black" stroke-width="1" />
<rect x="114" y="70" width="36" height="5" style="fill:#f5b024;stroke:black;stroke-width:1;fill-opacity:1;stroke-opacity:0.3" />
<rect x="161" y="70" width="36" height="5" style="fill:#f5b024;stroke:black;stroke-width:1;fill-opacity:1;stroke-opacity:0.3" />
<line x1="169" y1="79" x2="177" y2="81" stroke="black" stroke-width="1" />
<line x1="177" y1="81" x2="186" y2="79" stroke="black" stroke-width="1" />
<rect x="114" y="77" width="54" height="5" style="fill:#5d3c2d;stroke:black;stroke-width:1;fill-opacity:1;stroke-opacity:0.3" />
<rect x="186" y="77" width="25" height="5" style="fill:#5d3c2d;stroke:black;stroke-width:1;fill-opacity:1;stroke-opacity:0.3" />
<line x1="212" y1="79" x2="274" y2="79" stroke="pink" stroke-width="1" />
<rect x="274" y="77" width="21" height="5" style="fill:#5d3c2d;stroke:black;stroke-width:1;fill-opacity:1;stroke-opacity:0.3" />
<line x1="169" y1="107" x2="174" y2="109" stroke="black" stroke-width="1" />
<line x1="174" y1="109" x2="180" y2="107" stroke="black" stroke-width="1" />
<rect x="114" y="105" width="54" height="5" style="fill:#5d3c2d;stroke:black;stroke-width:1;fill-opacity:1;stroke-opacity:0.3" />
<rect x="180" y="105" width="32" height="5" style="fill:#5d3c2d;stroke:black;stroke-width:1;fill-opacity:1;stroke-opacity:0.3" />
<line x1="212" y1="107" x2="274" y2="107" stroke="pink" stroke-width="1" />
<rect x="274" y="105" width="21" height="5" style="fill:#5d3c2d;stroke:black;stroke-width:1;fill-opacity:1;stroke-opacity:0.3" />
<line x1="169" y1="128" x2="174" y2="130" stroke="black" stroke-width="1" />
<line x1="174" y1="130" x2="180" y2="128" stroke="black" stroke-width="1" />
<rect x="114" y="126" width="54" height="5" style="fill:#f5b024;stroke:black;stroke-width:1;fill-opacity:1;stroke-opacity:0.3" />
<rect x="180" y="126" width="32" height="5" style="fill:#f5b024;stroke:black;stroke-width:1;fill-opacity:1;stroke-opacity:0.3" />
<line x1="212" y1="128" x2="274" y2="128" stroke="pink" stroke-width="1" />
<rect x="274" y="126" width="21" height="5" style="fill:#f5b024;stroke:black;stroke-width:1;fill-opacity:1;stroke-opacity:0.3" />
<line x1="169" y1="114" x2="174" y2="116" stroke="black" stroke-width="1" />
<line x1="174" y1="116" x2="179" y2="114" stroke="black" stroke-width="1" />
<rect x="115" y="112" width="54" height="5" style="fill:#f5b024;stroke:black;stroke-width:1;fill-opacity:1;stroke-opacity:0.3" />
<rect x="179" y="112" width="33" height="5" style="fill:#f5b024;stroke:black;stroke-width:1;fill-opacity:1;stroke-opacity:0.3" />
<line x1="212" y1="114" x2="274" y2="114" stroke="pink" stroke-width="1" />
<rect x="274" y="112" width="20" height="5" style="fill:#f5b024;stroke:black;stroke-width:1;fill-opacity:1;stroke-opacity:0.3" />
<line x1="151" y1="135" x2="156" y2="137" stroke="black" stroke-width="1" />
<line x1="156" y1="137" x2="161" y2="135" stroke="black" stroke-width="1" />
<rect x="115" y="133" width="36" height="5" style="fill:#f5b024;stroke:black;stroke-width:1;fill-opacity:1;stroke-opacity:0.3" />
<rect x="161" y="133" width="36" height="5" style="fill:#f5b024;stroke:black;stroke-width:1;fill-opacity:1;stroke-opacity:0.3" />
<line x1="169" y1="149" x2="174" y2="151" stroke="black" stroke-width="1" />
<line x1="174" y1="151" x2="179" y2="149" stroke="black" stroke-width="1" />
<rect x="115" y="147" width="54" height="5" style="fill:#f5b024;stroke:black;stroke-width:1;fill-opacity:1;stroke-opacity:0.3" />
<rect x="179" y="147" width="33" height="5" style="fill:#f5b024;stroke:black;stroke-width:1;fill-opacity:1;stroke-opacity:0.3" />
<line x1="212" y1="149" x2="274" y2="149" stroke="pink" stroke-width="1" />
<rect x="274" y="147" width="20" height="5" style="fill:#f5b024;stroke:black;stroke-width:1;fill-opacity:1;stroke-opacity:0.3" />
<line x1="151" y1="156" x2="154" y2="158" stroke="black" stroke-width="1" />
<line x1="154" y1="158" x2="157" y2="156" stroke="black" stroke-width="1" />
<rect x="115" y="154" width="36" height="5" style="fill:#5d3c2d;stroke:black;stroke-width:1;fill-opacity:1;stroke-opacity:0.3" />
<rect x="157" y="154" width="36" height="5" style="fill:#5d3c2d;stroke:black;stroke-width:1;fill-opacity:1;stroke-opacity:0.3" />
<line x1="169" y1="163" x2="178" y2="165" stroke="black" stroke-width="1" />
<line x1="178" y1="165" x2="188" y2="163" stroke="black" stroke-width="1" />
<rect x="115" y="161" width="53" height="5" style="fill:#f5b024;stroke:black;stroke-width:1;fill-opacity:1;stroke-opacity:0.3" />
<rect x="188" y="161" width="24" height="5" style="fill:#f5b024;stroke:black;stroke-width:1;fill-opacity:1;stroke-opacity:0.3" />
<line x1="212" y1="163" x2="274" y2="163" stroke="pink" stroke-width="1" />
<rect x="274" y="161" width="29" height="5" style="fill:#f5b024;stroke:black;stroke-width:1;fill-opacity:1;stroke-opacity:0.3" />
<line x1="155" y1="44" x2="158" y2="46" stroke="black" stroke-width="1" />
<line x1="158" y1="46" x2="161" y2="44" stroke="black" stroke-width="1" />
<rect x="119" y="42" width="36" height="5" style="fill:#f5b024;stroke:black;stroke-width:1;fill-opacity:1;stroke-opacity:0.3" />
<rect x="161" y="42" width="36" height="5" style="fill:#f5b024;stroke:black;stroke-width:1;fill-opacity:1;stroke-opacity:0.3" />
<line x1="173" y1="65" x2="176" y2="67" stroke="black" stroke-width="1" />
<line x1="176" y1="67" x2="180" y2="65" stroke="black" stroke-width="1" />
<rect x="119" y="63" width="54" height="5" style="fill:#f5b024;stroke:black;stroke-width:1;fill-opacity:1;stroke-opacity:0.3" />
<rect x="180" y="63" width="32" height="5" style="fill:#f5b024;stroke:black;stroke-width:1;fill-opacity:1;stroke-opacity:0.3" />
<line x1="212" y1="65" x2="274" y2="65" stroke="pink" stroke-width="1" />
<rect x="274" y="63" width="18" height="5" style="fill:#f5b024;stroke:black;stroke-width:1;fill-opacity:1;stroke-opacity:0.3" />
<line x1="156" y1="93" x2="163" y2="95" stroke="black" stroke-width="1" />
<line x1="163" y1="95" x2="170" y2="93" stroke="black" stroke-width="1" />
<rect x="120" y="91" width="36" height="5" style="fill:#f5b024;stroke:black;stroke-width:1;fill-opacity:1;stroke-opacity:0.3" />
<rect x="170" y="91" width="36" height="5" style="fill:#f5b024;stroke:black;stroke-width:1;fill-opacity:1;stroke-opacity:0.3" />
<line x1="155" y1="121" x2="166" y2="123" stroke="black" stroke-width="1" />
<line x1="166" y1="123" x2="178" y2="121" stroke="black" stroke-width="1" />
<rect x="120" y="119" width="35" height="5" style="fill:#f5b024;stroke:black;stroke-width:1;fill-opacity:1;stroke-opacity:0.3" />
<rect x="178" y="119" width="34" height="5" style="fill:#f5b024;stroke:black;stroke-width:1;fill-opacity:1;stroke-opacity:0.3" />
<line x1="212" y1="121" x2="274" y2="121" stroke="pink" stroke-width="1" />
<rect x="274" y="119" width="1" height="5" style="fill:#f5b024;stroke:black;stroke-width:1;fill-opacity:1;stroke-opacity:0.3" />
<line x1="158" y1="51" x2="169" y2="53" stroke="black" stroke-width="1" />
<line x1="169" y1="53" x2="180" y2="51" stroke="black" stroke-width="1" />
<rect x="122" y="49" width="36" height="5" style="fill:#f5b024;stroke:black;stroke-width:1;fill-opacity:1;stroke-opacity:0.3" />
<rect x="180" y="49" width="31" height="5" style="fill:#f5b024;stroke:black;stroke-width:1;fill-opacity:1;stroke-opacity:0.3" />
<line x1="212" y1="51" x2="274" y2="51" stroke="pink" stroke-width="1" />
<rect x="274" y="49" width="4" height="5" style="fill:#f5b024;stroke:black;stroke-width:1;fill-opacity:1;stroke-opacity:0.3" />
<line x1="160" y1="142" x2="175" y2="144" stroke="black" stroke-width="1" />
<line x1="175" y1="144" x2="190" y2="142" stroke="black" stroke-width="1" />
<rect x="124" y="140" width="36" height="5" style="fill:#f5b024;stroke:black;stroke-width:1;fill-opacity:1;stroke-opacity:0.3" />
<rect x="190" y="140" width="22" height="5" style="fill:#f5b024;stroke:black;stroke-width:1;fill-opacity:1;stroke-opacity:0.3" />
<line x1="212" y1="142" x2="274" y2="142" stroke="pink" stroke-width="1" />
<rect x="274" y="140" width="13" height="5" style="fill:#f5b024;stroke:black;stroke-width:1;fill-opacity:1;stroke-opacity:0.3" />
<line x1="164" y1="86" x2="170" y2="88" stroke="black" stroke-width="1" />
<line x1="170" y1="88" x2="176" y2="86" stroke="black" stroke-width="1" />
<rect x="128" y="84" width="36" height="5" style="fill:#f5b024;stroke:black;stroke-width:1;fill-opacity:1;stroke-opacity:0.3" />
<rect x="176" y="84" width="31" height="5" style="fill:#f5b024;stroke:black;stroke-width:1;fill-opacity:1;stroke-opacity:0.3" />
<line x1="185" y1="100" x2="187" y2="102" stroke="black" stroke-width="1" />
<line x1="187" y1="102" x2="189" y2="100" stroke="black" stroke-width="1" />
<rect x="131" y="98" width="54" height="5" style="fill:#f5b024;stroke:black;stroke-width:1;fill-opacity:1;stroke-opacity:0.3" />
<rect x="189" y="98" width="22" height="5" style="fill:#f5b024;stroke:black;stroke-width:1;fill-opacity:1;stroke-opacity:0.3" />
<line x1="212" y1="100" x2="274" y2="100" stroke="pink" stroke-width="1" />
<rect x="274" y="98" width="31" height="5" style="fill:#f5b024;stroke:black;stroke-width:1;fill-opacity:1;stroke-opacity:0.3" />
<line x1="289" y1="30" x2="292" y2="32" stroke="black" stroke-width="1" />
<line x1="292" y1="32" x2="295" y2="30" stroke="black" stroke-width="1" />
<rect x="192" y="28" width="20" height="5" style="fill:#f5b024;stroke:black;stroke-width:1;fill-opacity:1;stroke-opacity:0.3" />
<line x1="212" y1="30" x2="274" y2="30" stroke="pink" stroke-width="1" />
<rect x="274" y="28" width="15" height="5" style="fill:#f5b024;stroke:black;stroke-width:1;fill-opacity:1;stroke-opacity:0.3" />
<rect x="295" y="28" width="16" height="5" style="fill:#f5b024;stroke:black;stroke-width:1;fill-opacity:1;stroke-opacity:0.3" />
<line x1="312" y1="30" x2="380" y2="30" stroke="pink" stroke-width="1" />
<rect x="380" y="28" width="19" height="5" style="fill:#f5b024;stroke:black;stroke-width:1;fill-opacity:1;stroke-opacity:0.3" />
<line x1="291" y1="156" x2="293" y2="158" stroke="black" stroke-width="1" />
<line x1="293" y1="158" x2="295" y2="156" stroke="black" stroke-width="1" />
<rect x="193" y="154" width="19" height="5" style="fill:#f5b024;stroke:black;stroke-width:1;fill-opacity:1;stroke-opacity:0.3" />
<line x1="212" y1="156" x2="274" y2="156" stroke="pink" stroke-width="1" />
<rect x="274" y="154" width="16" height="5" style="fill:#f5b024;stroke:black;stroke-width:1;fill-opacity:1;stroke-opacity:0.3" />
<rect x="295" y="154" width="16" height="5" style="fill:#f5b024;stroke:black;stroke-width:1;fill-opacity:1;stroke-opacity:0.3" />
<line x1="312" y1="156" x2="380" y2="156" stroke="pink" stroke-width="1" />
<rect x="380" y="154" width="19" height="5" style="fill:#f5b024;stroke:black;stroke-width:1;fill-opacity:1;stroke-opacity:0.3" />
<line x1="301" y1="44" x2="348" y2="46" stroke="black" stroke-width="1" />
<line x1="348" y1="46" x2="396" y2="44" stroke="black" stroke-width="1" />
<rect x="203" y="42" width="9" height="5" style="fill:#f5b024;stroke:black;stroke-width:1;fill-opacity:1;stroke-opacity:0.3" />
<line x1="212" y1="44" x2="274" y2="44" stroke="pink" stroke-width="1" />
<rect x="274" y="42" width="27" height="5" style="fill:#f5b024;stroke:black;stroke-width:1;fill-opacity:1;stroke-opacity:0.3" />
<rect x="396" y="42" width="36" height="5" style="fill:#f5b024;stroke:black;stroke-width:1;fill-opacity:1;stroke-opacity:0.3" />
<line x1="388" y1="58" x2="393" y2="60" stroke="black" stroke-width="1" />
<line x1="393" y1="60" x2="399" y2="58" stroke="black" stroke-width="1" />
<rect x="204" y="56" width="8" height="5" style="fill:#f5b024;stroke:black;stroke-width:1;fill-opacity:1;stroke-opacity:0.3" />
<line x1="212" y1="58" x2="274" y2="58" stroke="pink" stroke-width="1" />
<rect x="274" y="56" width="37" height="5" style="fill:#f5b024;stroke:black;stroke-width:1;fill-opacity:1;stroke-opacity:0.3" />
<line x1="312" y1="58" x2="380" y2="58" stroke="pink" stroke-width="1" />
<rect x="380" y="56" width="7" height="5" style="fill:#f5b024;stroke:black;stroke-width:1;fill-opacity:1;stroke-opacity:0.3" />
<rect x="399" y="56" width="44" height="5" style="fill:#f5b024;stroke:black;stroke-width:1;fill-opacity:1;stroke-opacity:0.3" />
<line x1="444" y1="58" x2="533" y2="58" stroke="pink" stroke-width="1" />
<rect x="533" y="56" width="8" height="5" style="fill:#f5b024;stroke:black;stroke-width:1;fill-opacity:1;stroke-opacity:0.3" />
<line x1="301" y1="72" x2="304" y2="74" stroke="black" stroke-width="1" />
<line x1="304" y1="74" x2="307" y2="72" stroke="black" stroke-width="1" />
<rect x="204" y="70" width="8" height="5" style="fill:#f5b024;stroke:black;stroke-width:1;fill-opacity:1;stroke-opacity:0.3" />
<line x1="212" y1="72" x2="274" y2="72" stroke="pink" stroke-width="1" />
<rect x="274" y="70" width="27" height="5" style="fill:#f5b024;stroke:black;stroke-width:1;fill-opacity:1;stroke-opacity:0.3" />
<rect x="307" y="70" width="5" height="5" style="fill:#f5b024;stroke:black;stroke-width:1;fill-opacity:1;stroke-opacity:0.3" />
<line x1="312" y1="72" x2="380" y2="72" stroke="pink" stroke-width="1" />
<rect x="380" y="70" width="30" height="5" style="fill:#f5b024;stroke:black;stroke-width:1;fill-opacity:1;stroke-opacity:0.3" />
<line x1="301" y1="135" x2="330" y2="137" stroke="black" stroke-width="1" />
<line x1="330" y1="137" x2="359" y2="135" stroke="black" stroke-width="1" />
<rect x="204" y="133" width="7" height="5" style="fill:#f5b024;stroke:black;stroke-width:1;fill-opacity:1;stroke-opacity:0.3" />
<line x1="212" y1="135" x2="274" y2="135" stroke="pink" stroke-width="1" />
<rect x="274" y="133" width="27" height="5" style="fill:#f5b024;stroke:black;stroke-width:1;fill-opacity:1;stroke-opacity:0.3" />
<rect x="359" y="133" width="36" height="5" style="fill:#f5b024;stroke:black;stroke-width:1;fill-opacity:1;stroke-opacity:0.3" />
<line x1="309" y1="86" x2="355" y2="88" stroke="black" stroke-width="1" />
<line x1="355" y1="88" x2="401" y2="86" stroke="black" stroke-width="1" />
<rect x="211" y="84" width="1" height="5" style="fill:#f5b024;stroke:black;stroke-width:1;fill-opacity:1;stroke-opacity:0.3" />
<line x1="212" y1="86" x2="274" y2="86" stroke="pink" stroke-width="1" />
<rect x="274" y="84" width="34" height="5" style="fill:#f5b024;stroke:black;stroke-width:1;fill-opacity:1;stroke-opacity:0.3" />
<rect x="401" y="84" width="33" height="5" style="fill:#f5b024;stroke:black;stroke-width:1;fill-opacity:1;stroke-opacity:0.3" />
<line x1="309" y1="93" x2="431" y2="95" stroke="black" stroke-width="1" />
<line x1="431" y1="95" x2="554" y2="93" stroke="black" stroke-width="1" />
<rect x="211" y="91" width="0" height="5" style="fill:#f5b024;stroke:black;stroke-width:1;fill-opacity:1;stroke-opacity:0.3" />
<line x1="212" y1="93" x2="274" y2="93" stroke="pink" stroke-width="1" />
<rect x="274" y="91" width="34" height="5" style="fill:#f5b024;stroke:black;stroke-width:1;fill-opacity:1;stroke-opacity:0.3" />
<rect x="554" y="91" width="9" height="5" style="fill:#f5b024;stroke:black;stroke-width:1;fill-opacity:1;stroke-opacity:0.3" />
<line x1="563" y1="93" x2="629" y2="93" stroke="pink" stroke-width="1" />
<rect x="629" y="91" width="27" height="5" style="fill:#f5b024;stroke:black;stroke-width:1;fill-opacity:1;stroke-opacity:0.3" />
<line x1="312" y1="37" x2="429" y2="39" stroke="black" stroke-width="1" />
<line x1="429" y1="39" x2="547" y2="37" stroke="black" stroke-width="1" />
<rect x="276" y="35" width="36" height="5" style="fill:#f5b024;stroke:black;stroke-width:1;fill-opacity:1;stroke-opacity:0.3" />
<rect x="547" y="35" width="16" height="5" style="fill:#f5b024;stroke:black;stroke-width:1;fill-opacity:1;stroke-opacity:0.3" />
<line x1="563" y1="37" x2="629" y2="37" stroke="pink" stroke-width="1" />
<rect x="629" y="35" width="19" height="5" style="fill:#f5b024;stroke:black;stroke-width:1;fill-opacity:1;stroke-opacity:0.3" />
<line x1="381" y1="121" x2="383" y2="123" stroke="black" stroke-width="1" />
<line x1="383" y1="123" x2="385" y2="121" stroke="black" stroke-width="1" />
<rect x="276" y="119" width="35" height="5" style="fill:#f5b024;stroke:black;stroke-width:1;fill-opacity:1;stroke-opacity:0.3" />
<line x1="312" y1="121" x2="380" y2="121" stroke="pink" stroke-width="1" />
<rect x="380" y="119" width="0" height="5" style="fill:#f5b024;stroke:black;stroke-width:1;fill-opacity:1;stroke-opacity:0.3" />
<rect x="385" y="119" width="36" height="5" style="fill:#f5b024;stroke:black;stroke-width:1;fill-opacity:1;stroke-opacity:0.3" />
<line x1="384" y1="51" x2="392" y2="53" stroke="black" stroke-width="1" />
<line x1="392" y1="53" x2="401" y2="51" stroke="black" stroke-width="1" />
<rect x="280" y="49" width="32" height="5" style="fill:#f5b024;stroke:black;stroke-width:1;fill-opacity:1;stroke-opacity:0.3" />
<line x1="312" y1="51" x2="380" y2="51" stroke="pink" stroke-width="1" />
<rect x="380" y="49" width="3" height="5" style="fill:#f5b024;stroke:black;stroke-width:1;fill-opacity:1;stroke-opacity:0.3" />
<rect x="401" y="49" width="36" height="5" style="fill:#f5b024;stroke:black;stroke-width:1;fill-opacity:1;stroke-opacity:0.3" />
<line x1="396" y1="142" x2="401" y2="144" stroke="black" stroke-width="1" />
<line x1="401" y1="144" x2="406" y2="142" stroke="black" stroke-width="1" />
<rect x="291" y="140" width="20" height="5" style="fill:#f5b024;stroke:black;stroke-width:1;fill-opacity:1;stroke-opacity:0.3" />
<line x1="312" y1="142" x2="380" y2="142" stroke="pink" stroke-width="1" />
<rect x="380" y="140" width="15" height="5" style="fill:#f5b024;stroke:black;stroke-width:1;fill-opacity:1;stroke-opacity:0.3" />
<rect x="406" y="140" width="36" height="5" style="fill:#f5b024;stroke:black;stroke-width:1;fill-opacity:1;stroke-opacity:0.3" />
<line x1="397" y1="65" x2="404" y2="67" stroke="black" stroke-width="1" />
<line x1="404" y1="67" x2="411" y2="65" stroke="black" stroke-width="1" />
<rect x="292" y="63" width="19" height="5" style="fill:#f5b024;stroke:black;stroke-width:1;fill-opacity:1;stroke-opacity:0.3" />
<line x1="312" y1="65" x2="380" y2="65" stroke="pink" stroke-width="1" />
<rect x="380" y="63" width="16" height="5" style="fill:#f5b024;stroke:black;stroke-width:1;fill-opacity:1;stroke-opacity:0.3" />
<rect x="411" y="63" width="32" height="5" style="fill:#f5b024;stroke:black;stroke-width:1;fill-opacity:1;stroke-opacity:0.3" />
<line x1="444" y1="65" x2="533" y2="65" stroke="pink" stroke-width="1" />
<rect x="533" y="63" width="3" height="5" style="fill:#f5b024;stroke:black;stroke-width:1;fill-opacity:1;stroke-opacity:0.3" />
<line x1="398" y1="79" x2="401" y2="81" stroke="black" stroke-width="1" />
<line x1="401" y1="81" x2="405" y2="79" stroke="black" stroke-width="1" />
<rect x="295" y="77" width="16" height="5" style="fill:#f5b024;stroke:black;stroke-width:1;fill-opacity:1;stroke-opacity:0.3" />
<line x1="312" y1="79" x2="380" y2="79" stroke="pink" stroke-width="1" />
<rect x="380" y="77" width="18" height="5" style="fill:#f5b024;stroke:black;stroke-width:1;fill-opacity:1;stroke-opacity:0.3" />
<rect x="405" y="77" width="36" height="5" style="fill:#f5b024;stroke:black;stroke-width:1;fill-opacity:1;stroke-opacity:0.3" />
<line x1="402" y1="107" x2="409" y2="109" stroke="black" stroke-width="1" />
<line x1="409" y1="109" x2="417" y2="107" stroke="black" stroke-width="1" />
<rect x="297" y="105" width="14" height="5" style="fill:#f5b024;stroke:black;stroke-width:1;fill-opacity:1;stroke-opacity:0.3" />
<line x1="312" y1="107" x2="380" y2="107" stroke="pink" stroke-width="1" />
<rect x="380" y="105" width="21" height="5" style="fill:#f5b024;stroke:black;stroke-width:1;fill-opacity:1;stroke-opacity:0.3" />
<rect x="417" y="105" width="26" height="5" style="fill:#f5b024;stroke:black;stroke-width:1;fill-opacity:1;stroke-opacity:0.3" />
<line x1="444" y1="107" x2="533" y2="107" stroke="pink" stroke-width="1" />
<rect x="533" y="105" width="9" height="5" style="fill:#f5b024;stroke:black;stroke-width:1;fill-opacity:1;stroke-opacity:0.3" />
<line x1="420" y1="114" x2="424" y2="116" stroke="black" stroke-width="1" />
<line x1="424" y1="116" x2="428" y2="114" stroke="black" stroke-width="1" />
<rect x="297" y="112" width="14" height="5" style="fill:#f5b024;stroke:black;stroke-width:1;fill-opacity:1;stroke-opacity:0.3" />
<line x1="312" y1="114" x2="380" y2="114" stroke="pink" stroke-width="1" />
<rect x="380" y="112" width="39" height="5" style="fill:#f5b024;stroke:black;stroke-width:1;fill-opacity:1;stroke-opacity:0.3" />
<rect x="428" y="112" width="15" height="5" style="fill:#f5b024;stroke:black;stroke-width:1;fill-opacity:1;stroke-opacity:0.3" />
<line x1="444" y1="114" x2="533" y2="114" stroke="pink" stroke-width="1" />
<rect x="533" y="112" width="29" height="5" style="fill:#f5b024;stroke:black;stroke-width:1;fill-opacity:1;stroke-opacity:0.3" />
<line x1="563" y1="114" x2="629" y2="114" stroke="pink" stroke-width="1" />
<rect x="629" y="112" width="9" height="5" style="fill:#f5b024;stroke:black;stroke-width:1;fill-opacity:1;stroke-opacity:0.3" />
<line x1="405" y1="128" x2="413" y2="130" stroke="black" stroke-width="1" />
<line x1="413" y1="130" x2="422" y2="128" stroke="black" stroke-width="1" />
<rect x="300" y="126" width="11" height="5" style="fill:#f5b024;stroke:black;stroke-width:1;fill-opacity:1;stroke-opacity:0.3" />
<line x1="312" y1="128" x2="380" y2="128" stroke="pink" stroke-width="1" />
<rect x="380" y="126" width="24" height="5" style="fill:#f5b024;stroke:black;stroke-width:1;fill-opacity:1;stroke-opacity:0.3" />
<rect x="422" y="126" width="21" height="5" style="fill:#f5b024;stroke:black;stroke-width:1;fill-opacity:1;stroke-opacity:0.3" />
<line x1="444" y1="128" x2="533" y2="128" stroke="pink" stroke-width="1" />
<rect x="533" y="126" width="14" height="5" style="fill:#f5b024;stroke:black;stroke-width:1;fill-opacity:1;stroke-opacity:0.3" />
<line x1="407" y1="149" x2="412" y2="151" stroke="black" stroke-width="1" />
<line x1="412" y1="151" x2="417" y2="149" stroke="black" stroke-width="1" />
<rect x="302" y="147" width="9" height="5" style="fill:#f5b024;stroke:black;stroke-width:1;fill-opacity:1;stroke-opacity:0.3" />
<line x1="312" y1="149" x2="380" y2="149" stroke="pink" stroke-width="1" />
<rect x="380" y="147" width="26" height="5" style="fill:#f5b024;stroke:black;stroke-width:1;fill-opacity:1;stroke-opacity:0.3" />
<rect x="417" y="147" width="27" height="5" style="fill:#f5b024;stroke:black;stroke-width:1;fill-opacity:1;stroke-opacity:0.3" />
<line x1="444" y1="149" x2="533" y2="149" stroke="pink" stroke-width="1" />
<rect x="533" y="147" width="9" height="5" style="fill:#f5b024;stroke:black;stroke-width:1;fill-opacity:1;stroke-opacity:0.3" />
<line x1="410" y1="163" x2="413" y2="165" stroke="black" stroke-width="1" />
<line x1="413" y1="165" x2="417" y2="163" stroke="black" stroke-width="1" />
<rect x="305" y="161" width="6" height="5" style="fill:#f5b024;stroke:black;stroke-width:1;fill-opacity:1;stroke-opacity:0.3" />
<line x1="312" y1="163" x2="380" y2="163" stroke="pink" stroke-width="1" />
<rect x="380" y="161" width="29" height="5" style="fill:#f5b024;stroke:black;stroke-width:1;fill-opacity:1;stroke-opacity:0.3" />
<rect x="417" y="161" width="26" height="5" style="fill:#f5b024;stroke:black;stroke-width:1;fill-opacity:1;stroke-opacity:0.3" />
<line x1="444" y1="163" x2="533" y2="163" stroke="pink" stroke-width="1" />
<rect x="533" y="161" width="9" height="5" style="fill:#f5b024;stroke:black;stroke-width:1;fill-opacity:1;stroke-opacity:0.3" />
<line x1="411" y1="100" x2="413" y2="102" stroke="black" stroke-width="1" />
<line x1="413" y1="102" x2="416" y2="100" stroke="black" stroke-width="1" />
<rect x="306" y="98" width="5" height="5" style="fill:#f5b024;stroke:black;stroke-width:1;fill-opacity:1;stroke-opacity:0.3" />
<line x1="312" y1="100" x2="380" y2="100" stroke="pink" stroke-width="1" />
<rect x="380" y="98" width="30" height="5" style="fill:#f5b024;stroke:black;stroke-width:1;fill-opacity:1;stroke-opacity:0.3" />
<rect x="416" y="98" width="27" height="5" style="fill:#f5b024;stroke:black;stroke-width:1;fill-opacity:1;stroke-opacity:0.3" />
<line x1="444" y1="100" x2="533" y2="100" stroke="pink" stroke-width="1" />
<rect x="533" y="98" width="8" height="5" style="fill:#f5b024;stroke:black;stroke-width:1;fill-opacity:1;stroke-opacity:0.3" />
<line x1="539" y1="135" x2="548" y2="137" stroke="black" stroke-width="1" />
<line x1="548" y1="137" x2="557" y2="135" stroke="black" stroke-width="1" />
<rect x="395" y="133" width="48" height="5" style="fill:#f5b024;stroke:black;stroke-width:1;fill-opacity:1;stroke-opacity:0.3" />
<line x1="444" y1="135" x2="533" y2="135" stroke="pink" stroke-width="1" />
<rect x="533" y="133" width="5" height="5" style="fill:#f5b024;stroke:black;stroke-width:1;fill-opacity:1;stroke-opacity:0.3" />
<rect x="557" y="133" width="6" height="5" style="fill:#f5b024;stroke:black;stroke-width:1;fill-opacity:1;stroke-opacity:0.3" />
<line x1="563" y1="135" x2="629" y2="135" stroke="pink" stroke-width="1" />
<rect x="629" y="133" width="47" height="5" style="fill:#f5b024;stroke:black;stroke-width:1;fill-opacity:1;stroke-opacity:0.3" />
<line x1="441" y1="30" x2="492" y2="32" stroke="black" stroke-width="1" />
<line x1="492" y1="32" x2="543" y2="30" stroke="black" stroke-width="1" />
<rect x="405" y="28" width="36" height="5" style="fill:#f5b024;stroke:black;stroke-width:1;fill-opacity:1;stroke-opacity:0.3" />
<rect x="543" y="28" width="19" height="5" style="fill:#f5b024;stroke:black;stroke-width:1;fill-opacity:1;stroke-opacity:0.3" />
<line x1="563" y1="30" x2="629" y2="30" stroke="pink" stroke-width="1" />
<rect x="629" y="28" width="16" height="5" style="fill:#f5b024;stroke:black;stroke-width:1;fill-opacity:1;stroke-opacity:0.3" />
<line x1="442" y1="156" x2="495" y2="158" stroke="black" stroke-width="1" />
<line x1="495" y1="158" x2="549" y2="156" stroke="black" stroke-width="1" />
<rect x="406" y="154" width="36" height="5" style="fill:#f5b024;stroke:black;stroke-width:1;fill-opacity:1;stroke-opacity:0.3" />
<rect x="549" y="154" width="13" height="5" style="fill:#f5b024;stroke:black;stroke-width:1;fill-opacity:1;stroke-opacity:0.3" />
<line x1="563" y1="156" x2="629" y2="156" stroke="pink" stroke-width="1" />
<rect x="629" y="154" width="22" height="5" style="fill:#f5b024;stroke:black;stroke-width:1;fill-opacity:1;stroke-opacity:0.3" />
<line x1="538" y1="72" x2="540" y2="74" stroke="black" stroke-width="1" />
<line x1="540" y1="74" x2="543" y2="72" stroke="black" stroke-width="1" />
<rect x="412" y="70" width="31" height="5" style="fill:#f5b024;stroke:black;stroke-width:1;fill-opacity:1;stroke-opacity:0.3" />
<line x1="444" y1="72" x2="533" y2="72" stroke="pink" stroke-width="1" />
<rect x="533" y="70" width="4" height="5" style="fill:#f5b024;stroke:black;stroke-width:1;fill-opacity:1;stroke-opacity:0.3" />
<rect x="543" y="70" width="20" height="5" style="fill:#f5b024;stroke:black;stroke-width:1;fill-opacity:1;stroke-opacity:0.3" />
<line x1="563" y1="72" x2="629" y2="72" stroke="pink" stroke-width="1" />
<rect x="629" y="70" width="15" height="5" style="fill:#f5b024;stroke:black;stroke-width:1;fill-opacity:1;stroke-opacity:0.3" />
<line x1="631" y1="121" x2="634" y2="123" stroke="black" stroke-width="1" />
<line x1="634" y1="123" x2="638" y2="121" stroke="black" stroke-width="1" />
<rect x="421" y="119" width="22" height="5" style="fill:#f5b024;stroke:black;stroke-width:1;fill-opacity:1;stroke-opacity:0.3" />
<line x1="444" y1="121" x2="533" y2="121" stroke="pink" stroke-width="1" />
<rect x="533" y="119" width="29" height="5" style="fill:#f5b024;stroke:black;stroke-width:1;fill-opacity:1;stroke-opacity:0.3" />
<line x1="563" y1="121" x2="629" y2="121" stroke="pink" stroke-width="1" />
<rect x="629" y="119" width="2" height="5" style="fill:#f5b024;stroke:black;stroke-width:1;fill-opacity:1;stroke-opacity:0.3" />
<rect x="638" y="119" width="54" height="5" style="fill:#f5b024;stroke:black;stroke-width:1;fill-opacity:1;stroke-opacity:0.3" />
<line x1="557" y1="44" x2="559" y2="46" stroke="black" stroke-width="1" />
<line x1="559" y1="46" x2="561" y2="44" stroke="black" stroke-width="1" />
<rect x="432" y="42" width="11" height="5" style="fill:#f5b024;stroke:black;stroke-width:1;fill-opacity:1;stroke-opacity:0.3" />
<line x1="444" y1="44" x2="533" y2="44" stroke="pink" stroke-width="1" />
<rect x="533" y="42" width="24" height="5" style="fill:#f5b024;stroke:black;stroke-width:1;fill-opacity:1;stroke-opacity:0.3" />
<rect x="561" y="42" width="1" height="5" style="fill:#f5b024;stroke:black;stroke-width:1;fill-opacity:1;stroke-opacity:0.3" />
<line x1="563" y1="44" x2="629" y2="44" stroke="pink" stroke-width="1" />
<rect x="629" y="42" width="31" height="5" style="fill:#f5b024;stroke:black;stroke-width:1;fill-opacity:1;stroke-opacity:0.3" />
<line x1="561" y1="86" x2="599" y2="88" stroke="black" stroke-width="1" />
<line x1="599" y1="88" x2="638" y2="86" stroke="black" stroke-width="1" />
<rect x="436" y="84" width="8" height="5" style="fill:#f5b024;stroke:black;stroke-width:1;fill-opacity:1;stroke-opacity:0.3" />
<line x1="444" y1="86" x2="533" y2="86" stroke="pink" stroke-width="1" />
<rect x="533" y="84" width="27" height="5" style="fill:#f5b024;stroke:black;stroke-width:1;fill-opacity:1;stroke-opacity:0.3" />
<rect x="638" y="84" width="36" height="5" style="fill:#f5b024;stroke:black;stroke-width:1;fill-opacity:1;stroke-opacity:0.3" />
<line x1="563" y1="51" x2="598" y2="53" stroke="black" stroke-width="1" />
<line x1="598" y1="53" x2="634" y2="51" stroke="black" stroke-width="1" />
<rect x="437" y="49" width="6" height="5" style="fill:#f5b024;stroke:black;stroke-width:1;fill-opacity:1;stroke-opacity:0.3" />
<line x1="444" y1="51" x2="533" y2="51" stroke="pink" stroke-width="1" />
<rect x="533" y="49" width="29" height="5" style="fill:#f5b024;stroke:black;stroke-width:1;fill-opacity:1;stroke-opacity:0.3" />
<rect x="634" y="49" width="30" height="5" style="fill:#f5b024;stroke:black;stroke-width:1;fill-opacity:1;stroke-opacity:0.3" />
<line x1="633" y1="79" x2="652" y2="81" stroke="black" stroke-width="1" />
<line x1="652" y1="81" x2="671" y2="79" stroke="black" stroke-width="1" />
<rect x="441" y="77" width="2" height="5" style="fill:#f5b024;stroke:black;stroke-width:1;fill-opacity:1;stroke-opacity:0.3" />
<line x1="444" y1="79" x2="533" y2="79" stroke="pink" stroke-width="1" />
<rect x="533" y="77" width="29" height="5" style="fill:#f5b024;stroke:black;stroke-width:1;fill-opacity:1;stroke-opacity:0.3" />
<line x1="563" y1="79" x2="629" y2="79" stroke="pink" stroke-width="1" />
<rect x="629" y="77" width="3" height="5" style="fill:#f5b024;stroke:black;stroke-width:1;fill-opacity:1;stroke-opacity:0.3" />
<rect x="671" y="77" width="36" height="5" style="fill:#f5b024;stroke:black;stroke-width:1;fill-opacity:1;stroke-opacity:0.3" />
<line x1="552" y1="142" x2="590" y2="144" stroke="black" stroke-width="1" />
<line x1="590" y1="144" x2="629" y2="142" stroke="black" stroke-width="1" />
<rect x="516" y="140" width="36" height="5" style="fill:#f5b024;stroke:black;stroke-width:1;fill-opacity:1;stroke-opacity:0.3" />
<rect x="629" y="140" width="33" height="5" style="fill:#f5b024;stroke:black;stroke-width:1;fill-opacity:1;stroke-opacity:0.3" />
<line x1="640" y1="65" x2="650" y2="67" stroke="black" stroke-width="1" />
<line x1="650" y1="67" x2="661" y2="65" stroke="black" stroke-width="1" />
<rect x="538" y="63" width="24" height="5" style="fill:#f5b024;stroke:black;stroke-width:1;fill-opacity:1;stroke-opacity:0.3" />
<line x1="563" y1="65" x2="629" y2="65" stroke="pink" stroke-width="1" />
<rect x="629" y="63" width="11" height="5" style="fill:#f5b024;stroke:black;stroke-width:1;fill-opacity:1;stroke-opacity:0.3" />
<rect x="661" y="63" width="36" height="5" style="fill:#f5b024;stroke:black;stroke-width:1;fill-opacity:1;stroke-opacity:0.3" />
<line x1="644" y1="58" x2="650" y2="60" stroke="black" stroke-width="1" />
<line x1="650" y1="60" x2="656" y2="58" stroke="black" stroke-width="1" />
<rect x="542" y="56" width="20" height="5" style="fill:#f5b024;stroke:black;stroke-width:1;fill-opacity:1;stroke-opacity:0.3" />
<line x1="563" y1="58" x2="629" y2="58" stroke="pink" stroke-width="1" />
<rect x="629" y="56" width="15" height="5" style="fill:#f5b024;stroke:black;stroke-width:1;fill-opacity:1;stroke-opacity:0.3" />
<rect x="656" y="56" width="36" height="5" style="fill:#f5b024;stroke:black;stroke-width:1;fill-opacity:1;stroke-opacity:0.3" />
<line x1="644" y1="100" x2="650" y2="102" stroke="black" stroke-width="1" />
<line x1="650" y1="102" x2="656" y2="100" stroke="black" stroke-width="1" />
<rect x="542" y="98" width="20" height="5" style="fill:#f5b024;stroke:black;stroke-width:1;fill-opacity:1;stroke-opacity:0.3" />
<line x1="563" y1="100" x2="629" y2="100" stroke="pink" stroke-width="1" />
<rect x="629" y="98" width="15" height="5" style="fill:#f5b024;stroke:black;stroke-width:1;fill-opacity:1;stroke-opacity:0.3" />
<rect x="656" y="98" width="36" height="5" style="fill:#f5b024;stroke:black;stroke-width:1;fill-opacity:1;stroke-opacity:0.3" />
<line x1="633" y1="107" x2="641" y2="109" stroke="black" stroke-width="1" />
<line x1="641" y1="109" x2="649" y2="107" stroke="black" stroke-width="1" />
<rect x="543" y="105" width="19" height="5" style="fill:#f5b024;stroke:black;stroke-width:1;fill-opacity:1;stroke-opacity:0.3" />
<line x1="563" y1="107" x2="617" y2="107" stroke="pink" stroke-width="1" />
<rect x="617" y="105" width="16" height="5" style="fill:#f5b024;stroke:black;stroke-width:1;fill-opacity:1;stroke-opacity:0.3" />
<rect x="649" y="105" width="36" height="5" style="fill:#f5b024;stroke:black;stroke-width:1;fill-opacity:1;stroke-opacity:0.3" />
<line x1="645" y1="149" x2="649" y2="151" stroke="black" stroke-width="1" />
<line x1="649" y1="151" x2="654" y2="149" stroke="black" stroke-width="1" />
<rect x="543" y="147" width="19" height="5" style="fill:#f5b024;stroke:black;stroke-width:1;fill-opacity:1;stroke-opacity:0.3" />
<line x1="563" y1="149" x2="629" y2="149" stroke="pink" stroke-width="1" />
<rect x="629" y="147" width="16" height="5" style="fill:#f5b024;stroke:black;stroke-width:1;fill-opacity:1;stroke-opacity:0.3" />
<rect x="654" y="147" width="36" height="5" style="fill:#f5b024;stroke:black;stroke-width:1;fill-opacity:1;stroke-opacity:0.3" />
<line x1="645" y1="163" x2="649" y2="165" stroke="black" stroke-width="1" />
<line x1="649" y1="165" x2="654" y2="163" stroke="black" stroke-width="1" />
<rect x="543" y="161" width="19" height="5" style="fill:#f5b024;stroke:black;stroke-width:1;fill-opacity:1;stroke-opacity:0.3" />
<line x1="563" y1="163" x2="629" y2="163" stroke="pink" stroke-width="1" />
<rect x="629" y="161" width="16" height="5" style="fill:#f5b024;stroke:black;stroke-width:1;fill-opacity:1;stroke-opacity:0.3" />
<rect x="654" y="161" width="36" height="5" style="fill:#f5b024;stroke:black;stroke-width:1;fill-opacity:1;stroke-opacity:0.3" />
<line x1="650" y1="128" x2="656" y2="130" stroke="black" stroke-width="1" />
<line x1="656" y1="130" x2="662" y2="128" stroke="black" stroke-width="1" />
<rect x="548" y="126" width="15" height="5" style="fill:#f5b024;stroke:black;stroke-width:1;fill-opacity:1;stroke-opacity:0.3" />
<line x1="563" y1="128" x2="629" y2="128" stroke="pink" stroke-width="1" />
<rect x="629" y="126" width="20" height="5" style="fill:#f5b024;stroke:black;stroke-width:1;fill-opacity:1;stroke-opacity:0.3" />
<rect x="662" y="126" width="36" height="5" style="fill:#f5b024;stroke:black;stroke-width:1;fill-opacity:1;stroke-opacity:0.3" />
<line x1="677" y1="114" x2="679" y2="116" stroke="black" stroke-width="1" />
<line x1="679" y1="116" x2="681" y2="114" stroke="black" stroke-width="1" />
<rect x="641" y="112" width="36" height="5" style="fill:#f5b024;stroke:black;stroke-width:1;fill-opacity:1;stroke-opacity:0.3" />
<rect x="681" y="112" width="36" height="5" style="fill:#f5b024;stroke:black;stroke-width:1;fill-opacity:1;stroke-opacity:0.3" />
<line x1="689" y1="30" x2="690" y2="32" stroke="black" stroke-width="1" />
<line x1="690" y1="32" x2="692" y2="30" stroke="black" stroke-width="1" />
<rect x="652" y="28" width="36" height="5" style="fill:#f5b024;stroke:black;stroke-width:1;fill-opacity:1;stroke-opacity:0.3" />
<rect x="692" y="28" width="36" height="5" style="fill:#f5b024;stroke:black;stroke-width:1;fill-opacity:1;stroke-opacity:0.3" />
<text x="15"  y="176" style="font-family:Arial;font-size:10;stroke:black;fill:black;">all.merged.bam</text>
</svg>
    
