<?xml version="1.0" encoding="utf-8" standalone="no"?>
<!DOCTYPE svg PUBLIC "-//W3C//DTD SVG 1.1//EN"
  "http://www.w3.org/Graphics/SVG/1.1/DTD/svg11.dtd">
<svg height="1140" width="1000" version="1.1" viewBox="0 0 1000 1140" xmlns="http://www.w3.org/2000/svg" xmlns:xlink="http://www.w3.org/1999/xlink">
<line x1="74" y1="11" x2="924" y2="11" stroke="black" stroke-width="1" />
<rect x="74" y="9" width="476" height="5" style="fill:#f50002;stroke:black;stroke-width:1;fill-opacity:1;stroke-opacity:0.3" />
<rect x="551" y="9" width="133" height="5" style="fill:#53a1b5;stroke:black;stroke-width:1;fill-opacity:1;stroke-opacity:0.3" />
<rect x="795" y="9" width="40" height="5" style="fill:#53a1b5;stroke:black;stroke-width:1;fill-opacity:1;stroke-opacity:0.3" />
<rect x="836" y="9" width="88" height="5" style="fill:#f50002;stroke:black;stroke-width:1;fill-opacity:1;stroke-opacity:0.3" />
<text x="74"  y="23" style="font-family:Arial;font-size:10;stroke:black;fill:black;">Cre13.g566050.t1.2.v5.5 (-) chromosome_13:653266-654402</text>
<line x1="83" y1="30" x2="107" y2="32" stroke="black" stroke-width="1" />
<line x1="107" y1="32" x2="131" y2="30" stroke="black" stroke-width="1" />
<rect x="8" y="28" width="74" height="5" style="fill:#f5b024;stroke:black;stroke-width:1;fill-opacity:1;stroke-opacity:0.3" />
<rect x="131" y="28" width="74" height="5" style="fill:#f5b024;stroke:black;stroke-width:1;fill-opacity:1;stroke-opacity:0.3" />
<line x1="84" y1="37" x2="94" y2="39" stroke="black" stroke-width="1" />
<line x1="94" y1="39" x2="105" y2="37" stroke="black" stroke-width="1" />
<rect x="9" y="35" width="74" height="5" style="fill:#f5b024;stroke:black;stroke-width:1;fill-opacity:1;stroke-opacity:0.3" />
<rect x="105" y="35" width="74" height="5" style="fill:#f5b024;stroke:black;stroke-width:1;fill-opacity:1;stroke-opacity:0.3" />
<line x1="86" y1="44" x2="90" y2="46" stroke="black" stroke-width="1" />
<line x1="90" y1="46" x2="94" y2="44" stroke="black" stroke-width="1" />
<rect x="11" y="42" width="74" height="5" style="fill:#f5b024;stroke:black;stroke-width:1;fill-opacity:1;stroke-opacity:0.3" />
<rect x="94" y="42" width="74" height="5" style="fill:#f5b024;stroke:black;stroke-width:1;fill-opacity:1;stroke-opacity:0.3" />
<line x1="89" y1="51" x2="113" y2="53" stroke="black" stroke-width="1" />
<line x1="113" y1="53" x2="137" y2="51" stroke="black" stroke-width="1" />
<rect x="14" y="49" width="74" height="5" style="fill:#f5b024;stroke:black;stroke-width:1;fill-opacity:1;stroke-opacity:0.3" />
<rect x="137" y="49" width="74" height="5" style="fill:#f5b024;stroke:black;stroke-width:1;fill-opacity:1;stroke-opacity:0.3" />
<line x1="132" y1="58" x2="135" y2="60" stroke="black" stroke-width="1" />
<line x1="135" y1="60" x2="139" y2="58" stroke="black" stroke-width="1" />
<rect x="69" y="56" width="62" height="5" style="fill:#f5b024;stroke:black;stroke-width:1;fill-opacity:1;stroke-opacity:0.3" />
<rect x="139" y="56" width="74" height="5" style="fill:#f5b024;stroke:black;stroke-width:1;fill-opacity:1;stroke-opacity:0.3" />
<line x1="145" y1="65" x2="153" y2="67" stroke="black" stroke-width="1" />
<line x1="153" y1="67" x2="162" y2="65" stroke="black" stroke-width="1" />
<rect x="70" y="63" width="74" height="5" style="fill:#f5b024;stroke:black;stroke-width:1;fill-opacity:1;stroke-opacity:0.3" />
<rect x="162" y="63" width="74" height="5" style="fill:#f5b024;stroke:black;stroke-width:1;fill-opacity:1;stroke-opacity:0.3" />
<line x1="145" y1="72" x2="165" y2="74" stroke="black" stroke-width="1" />
<line x1="165" y1="74" x2="186" y2="72" stroke="black" stroke-width="1" />
<rect x="71" y="70" width="74" height="5" style="fill:#f5b024;stroke:black;stroke-width:1;fill-opacity:1;stroke-opacity:0.3" />
<rect x="186" y="70" width="74" height="5" style="fill:#f5b024;stroke:black;stroke-width:1;fill-opacity:1;stroke-opacity:0.3" />
<line x1="145" y1="79" x2="159" y2="81" stroke="black" stroke-width="1" />
<line x1="159" y1="81" x2="174" y2="79" stroke="black" stroke-width="1" />
<rect x="71" y="77" width="74" height="5" style="fill:#f5b024;stroke:black;stroke-width:1;fill-opacity:1;stroke-opacity:0.3" />
<rect x="174" y="77" width="74" height="5" style="fill:#f5b024;stroke:black;stroke-width:1;fill-opacity:1;stroke-opacity:0.3" />
<line x1="146" y1="86" x2="152" y2="88" stroke="black" stroke-width="1" />
<line x1="152" y1="88" x2="159" y2="86" stroke="black" stroke-width="1" />
<rect x="71" y="84" width="74" height="5" style="fill:#f5b024;stroke:black;stroke-width:1;fill-opacity:1;stroke-opacity:0.3" />
<rect x="159" y="84" width="74" height="5" style="fill:#f5b024;stroke:black;stroke-width:1;fill-opacity:1;stroke-opacity:0.3" />
<line x1="183" y1="93" x2="190" y2="95" stroke="black" stroke-width="1" />
<line x1="190" y1="95" x2="198" y2="93" stroke="black" stroke-width="1" />
<rect x="71" y="91" width="112" height="5" style="fill:#f5b024;stroke:black;stroke-width:1;fill-opacity:1;stroke-opacity:0.3" />
<rect x="198" y="91" width="112" height="5" style="fill:#f5b024;stroke:black;stroke-width:1;fill-opacity:1;stroke-opacity:0.3" />
<line x1="145" y1="100" x2="159" y2="102" stroke="black" stroke-width="1" />
<line x1="159" y1="102" x2="174" y2="100" stroke="black" stroke-width="1" />
<rect x="71" y="98" width="74" height="5" style="fill:#f5b024;stroke:black;stroke-width:1;fill-opacity:1;stroke-opacity:0.3" />
<rect x="174" y="98" width="74" height="5" style="fill:#f5b024;stroke:black;stroke-width:1;fill-opacity:1;stroke-opacity:0.3" />
<line x1="146" y1="107" x2="160" y2="109" stroke="black" stroke-width="1" />
<line x1="160" y1="109" x2="174" y2="107" stroke="black" stroke-width="1" />
<rect x="71" y="105" width="74" height="5" style="fill:#f5b024;stroke:black;stroke-width:1;fill-opacity:1;stroke-opacity:0.3" />
<rect x="174" y="105" width="74" height="5" style="fill:#f5b024;stroke:black;stroke-width:1;fill-opacity:1;stroke-opacity:0.3" />
<line x1="146" y1="114" x2="152" y2="116" stroke="black" stroke-width="1" />
<line x1="152" y1="116" x2="159" y2="114" stroke="black" stroke-width="1" />
<rect x="71" y="112" width="74" height="5" style="fill:#f5b024;stroke:black;stroke-width:1;fill-opacity:1;stroke-opacity:0.3" />
<rect x="159" y="112" width="74" height="5" style="fill:#f5b024;stroke:black;stroke-width:1;fill-opacity:1;stroke-opacity:0.3" />
<line x1="146" y1="121" x2="160" y2="123" stroke="black" stroke-width="1" />
<line x1="160" y1="123" x2="174" y2="121" stroke="black" stroke-width="1" />
<rect x="71" y="119" width="74" height="5" style="fill:#f5b024;stroke:black;stroke-width:1;fill-opacity:1;stroke-opacity:0.3" />
<rect x="174" y="119" width="74" height="5" style="fill:#f5b024;stroke:black;stroke-width:1;fill-opacity:1;stroke-opacity:0.3" />
<line x1="146" y1="128" x2="191" y2="130" stroke="black" stroke-width="1" />
<line x1="191" y1="130" x2="236" y2="128" stroke="black" stroke-width="1" />
<rect x="71" y="126" width="74" height="5" style="fill:#f5b024;stroke:black;stroke-width:1;fill-opacity:1;stroke-opacity:0.3" />
<rect x="236" y="126" width="74" height="5" style="fill:#f5b024;stroke:black;stroke-width:1;fill-opacity:1;stroke-opacity:0.3" />
<line x1="183" y1="135" x2="191" y2="137" stroke="black" stroke-width="1" />
<line x1="191" y1="137" x2="199" y2="135" stroke="black" stroke-width="1" />
<rect x="71" y="133" width="111" height="5" style="fill:#f5b024;stroke:black;stroke-width:1;fill-opacity:1;stroke-opacity:0.3" />
<rect x="199" y="133" width="111" height="5" style="fill:#f5b024;stroke:black;stroke-width:1;fill-opacity:1;stroke-opacity:0.3" />
<line x1="183" y1="142" x2="203" y2="144" stroke="black" stroke-width="1" />
<line x1="203" y1="144" x2="224" y2="142" stroke="black" stroke-width="1" />
<rect x="71" y="140" width="112" height="5" style="fill:#f5b024;stroke:black;stroke-width:1;fill-opacity:1;stroke-opacity:0.3" />
<rect x="224" y="140" width="112" height="5" style="fill:#f5b024;stroke:black;stroke-width:1;fill-opacity:1;stroke-opacity:0.3" />
<line x1="146" y1="149" x2="151" y2="151" stroke="black" stroke-width="1" />
<line x1="151" y1="151" x2="157" y2="149" stroke="black" stroke-width="1" />
<rect x="71" y="147" width="74" height="5" style="fill:#f5b024;stroke:black;stroke-width:1;fill-opacity:1;stroke-opacity:0.3" />
<rect x="157" y="147" width="74" height="5" style="fill:#f5b024;stroke:black;stroke-width:1;fill-opacity:1;stroke-opacity:0.3" />
<line x1="146" y1="156" x2="156" y2="158" stroke="black" stroke-width="1" />
<line x1="156" y1="158" x2="166" y2="156" stroke="black" stroke-width="1" />
<rect x="71" y="154" width="74" height="5" style="fill:#f5b024;stroke:black;stroke-width:1;fill-opacity:1;stroke-opacity:0.3" />
<rect x="166" y="154" width="74" height="5" style="fill:#f5b024;stroke:black;stroke-width:1;fill-opacity:1;stroke-opacity:0.3" />
<line x1="146" y1="163" x2="152" y2="165" stroke="black" stroke-width="1" />
<line x1="152" y1="165" x2="158" y2="163" stroke="black" stroke-width="1" />
<rect x="71" y="161" width="74" height="5" style="fill:#f5b024;stroke:black;stroke-width:1;fill-opacity:1;stroke-opacity:0.3" />
<rect x="158" y="161" width="37" height="5" style="fill:#f5b024;stroke:black;stroke-width:1;fill-opacity:1;stroke-opacity:0.3" />
<rect x="195" y="161" width="37" height="5" style="fill:#f5b024;stroke:black;stroke-width:1;fill-opacity:1;stroke-opacity:0.3" />
<line x1="244" y1="44" x2="253" y2="46" stroke="black" stroke-width="1" />
<line x1="253" y1="46" x2="263" y2="44" stroke="black" stroke-width="1" />
<rect x="169" y="42" width="74" height="5" style="fill:#f5b024;stroke:black;stroke-width:1;fill-opacity:1;stroke-opacity:0.3" />
<rect x="263" y="42" width="74" height="5" style="fill:#f5b024;stroke:black;stroke-width:1;fill-opacity:1;stroke-opacity:0.3" />
<line x1="255" y1="37" x2="264" y2="39" stroke="black" stroke-width="1" />
<line x1="264" y1="39" x2="274" y2="37" stroke="black" stroke-width="1" />
<rect x="181" y="35" width="74" height="5" style="fill:#5d3c2d;stroke:black;stroke-width:1;fill-opacity:1;stroke-opacity:0.3" />
<rect x="274" y="35" width="74" height="5" style="fill:#5d3c2d;stroke:black;stroke-width:1;fill-opacity:1;stroke-opacity:0.3" />
<line x1="318" y1="30" x2="323" y2="32" stroke="black" stroke-width="1" />
<line x1="323" y1="32" x2="328" y2="30" stroke="black" stroke-width="1" />
<rect x="206" y="28" width="112" height="5" style="fill:#f5b024;stroke:black;stroke-width:1;fill-opacity:1;stroke-opacity:0.3" />
<rect x="328" y="28" width="111" height="5" style="fill:#f5b024;stroke:black;stroke-width:1;fill-opacity:1;stroke-opacity:0.3" />
<line x1="287" y1="51" x2="323" y2="53" stroke="black" stroke-width="1" />
<line x1="323" y1="53" x2="359" y2="51" stroke="black" stroke-width="1" />
<rect x="212" y="49" width="74" height="5" style="fill:#f5b024;stroke:black;stroke-width:1;fill-opacity:1;stroke-opacity:0.3" />
<rect x="359" y="49" width="74" height="5" style="fill:#f5b024;stroke:black;stroke-width:1;fill-opacity:1;stroke-opacity:0.3" />
<line x1="290" y1="58" x2="297" y2="60" stroke="black" stroke-width="1" />
<line x1="297" y1="60" x2="304" y2="58" stroke="black" stroke-width="1" />
<rect x="215" y="56" width="74" height="5" style="fill:#f5b024;stroke:black;stroke-width:1;fill-opacity:1;stroke-opacity:0.3" />
<rect x="304" y="56" width="74" height="5" style="fill:#f5b024;stroke:black;stroke-width:1;fill-opacity:1;stroke-opacity:0.3" />
<line x1="307" y1="149" x2="317" y2="151" stroke="black" stroke-width="1" />
<line x1="317" y1="151" x2="328" y2="149" stroke="black" stroke-width="1" />
<rect x="232" y="147" width="74" height="5" style="fill:#f5b024;stroke:black;stroke-width:1;fill-opacity:1;stroke-opacity:0.3" />
<rect x="328" y="147" width="74" height="5" style="fill:#f5b024;stroke:black;stroke-width:1;fill-opacity:1;stroke-opacity:0.3" />
<line x1="308" y1="86" x2="359" y2="88" stroke="black" stroke-width="1" />
<line x1="359" y1="88" x2="410" y2="86" stroke="black" stroke-width="1" />
<rect x="234" y="84" width="74" height="5" style="fill:#f5b024;stroke:black;stroke-width:1;fill-opacity:1;stroke-opacity:0.3" />
<rect x="410" y="84" width="74" height="5" style="fill:#f5b024;stroke:black;stroke-width:1;fill-opacity:1;stroke-opacity:0.3" />
<line x1="308" y1="114" x2="315" y2="116" stroke="black" stroke-width="1" />
<line x1="315" y1="116" x2="322" y2="114" stroke="black" stroke-width="1" />
<rect x="236" y="112" width="71" height="5" style="fill:#f5b024;stroke:black;stroke-width:1;fill-opacity:1;stroke-opacity:0.3" />
<rect x="322" y="112" width="74" height="5" style="fill:#f5b024;stroke:black;stroke-width:1;fill-opacity:1;stroke-opacity:0.3" />
<line x1="311" y1="65" x2="359" y2="67" stroke="black" stroke-width="1" />
<line x1="359" y1="67" x2="408" y2="65" stroke="black" stroke-width="1" />
<rect x="237" y="63" width="74" height="5" style="fill:#f5b024;stroke:black;stroke-width:1;fill-opacity:1;stroke-opacity:0.3" />
<rect x="408" y="63" width="74" height="5" style="fill:#f5b024;stroke:black;stroke-width:1;fill-opacity:1;stroke-opacity:0.3" />
<line x1="314" y1="156" x2="326" y2="158" stroke="black" stroke-width="1" />
<line x1="326" y1="158" x2="339" y2="156" stroke="black" stroke-width="1" />
<rect x="240" y="154" width="74" height="5" style="fill:#f5b024;stroke:black;stroke-width:1;fill-opacity:1;stroke-opacity:0.3" />
<rect x="339" y="154" width="74" height="5" style="fill:#f5b024;stroke:black;stroke-width:1;fill-opacity:1;stroke-opacity:0.3" />
<line x1="314" y1="163" x2="328" y2="165" stroke="black" stroke-width="1" />
<line x1="328" y1="165" x2="343" y2="163" stroke="black" stroke-width="1" />
<rect x="240" y="161" width="74" height="5" style="fill:#f5b024;stroke:black;stroke-width:1;fill-opacity:1;stroke-opacity:0.3" />
<rect x="343" y="161" width="74" height="5" style="fill:#f5b024;stroke:black;stroke-width:1;fill-opacity:1;stroke-opacity:0.3" />
<line x1="325" y1="79" x2="334" y2="81" stroke="black" stroke-width="1" />
<line x1="334" y1="81" x2="344" y2="79" stroke="black" stroke-width="1" />
<rect x="250" y="77" width="74" height="5" style="fill:#f5b024;stroke:black;stroke-width:1;fill-opacity:1;stroke-opacity:0.3" />
<rect x="344" y="77" width="74" height="5" style="fill:#f5b024;stroke:black;stroke-width:1;fill-opacity:1;stroke-opacity:0.3" />
<line x1="325" y1="100" x2="339" y2="102" stroke="black" stroke-width="1" />
<line x1="339" y1="102" x2="353" y2="100" stroke="black" stroke-width="1" />
<rect x="250" y="98" width="74" height="5" style="fill:#f5b024;stroke:black;stroke-width:1;fill-opacity:1;stroke-opacity:0.3" />
<rect x="353" y="98" width="74" height="5" style="fill:#f5b024;stroke:black;stroke-width:1;fill-opacity:1;stroke-opacity:0.3" />
<line x1="325" y1="107" x2="338" y2="109" stroke="black" stroke-width="1" />
<line x1="338" y1="109" x2="351" y2="107" stroke="black" stroke-width="1" />
<rect x="250" y="105" width="74" height="5" style="fill:#f5b024;stroke:black;stroke-width:1;fill-opacity:1;stroke-opacity:0.3" />
<rect x="351" y="105" width="74" height="5" style="fill:#f5b024;stroke:black;stroke-width:1;fill-opacity:1;stroke-opacity:0.3" />
<line x1="325" y1="121" x2="343" y2="123" stroke="black" stroke-width="1" />
<line x1="343" y1="123" x2="362" y2="121" stroke="black" stroke-width="1" />
<rect x="250" y="119" width="74" height="5" style="fill:#f5b024;stroke:black;stroke-width:1;fill-opacity:1;stroke-opacity:0.3" />
<rect x="362" y="119" width="74" height="5" style="fill:#f5b024;stroke:black;stroke-width:1;fill-opacity:1;stroke-opacity:0.3" />
<line x1="337" y1="72" x2="367" y2="74" stroke="black" stroke-width="1" />
<line x1="367" y1="74" x2="398" y2="72" stroke="black" stroke-width="1" />
<rect x="262" y="70" width="74" height="5" style="fill:#f5b024;stroke:black;stroke-width:1;fill-opacity:1;stroke-opacity:0.3" />
<rect x="398" y="70" width="74" height="5" style="fill:#f5b024;stroke:black;stroke-width:1;fill-opacity:1;stroke-opacity:0.3" />
<line x1="388" y1="93" x2="392" y2="95" stroke="black" stroke-width="1" />
<line x1="392" y1="95" x2="397" y2="93" stroke="black" stroke-width="1" />
<rect x="314" y="91" width="74" height="5" style="fill:#f5b024;stroke:black;stroke-width:1;fill-opacity:1;stroke-opacity:0.3" />
<rect x="397" y="91" width="74" height="5" style="fill:#f5b024;stroke:black;stroke-width:1;fill-opacity:1;stroke-opacity:0.3" />
<line x1="387" y1="128" x2="396" y2="130" stroke="black" stroke-width="1" />
<line x1="396" y1="130" x2="406" y2="128" stroke="black" stroke-width="1" />
<rect x="314" y="126" width="73" height="5" style="fill:#f5b024;stroke:black;stroke-width:1;fill-opacity:1;stroke-opacity:0.3" />
<rect x="406" y="126" width="74" height="5" style="fill:#f5b024;stroke:black;stroke-width:1;fill-opacity:1;stroke-opacity:0.3" />
<line x1="402" y1="135" x2="407" y2="137" stroke="black" stroke-width="1" />
<line x1="407" y1="137" x2="413" y2="135" stroke="black" stroke-width="1" />
<rect x="327" y="133" width="74" height="5" style="fill:#f5b024;stroke:black;stroke-width:1;fill-opacity:1;stroke-opacity:0.3" />
<rect x="413" y="133" width="74" height="5" style="fill:#f5b024;stroke:black;stroke-width:1;fill-opacity:1;stroke-opacity:0.3" />
<line x1="411" y1="142" x2="420" y2="144" stroke="black" stroke-width="1" />
<line x1="420" y1="144" x2="430" y2="142" stroke="black" stroke-width="1" />
<rect x="336" y="140" width="74" height="5" style="fill:#f5b024;stroke:black;stroke-width:1;fill-opacity:1;stroke-opacity:0.3" />
<rect x="430" y="140" width="74" height="5" style="fill:#f5b024;stroke:black;stroke-width:1;fill-opacity:1;stroke-opacity:0.3" />
<line x1="412" y1="44" x2="418" y2="46" stroke="black" stroke-width="1" />
<line x1="418" y1="46" x2="424" y2="44" stroke="black" stroke-width="1" />
<rect x="338" y="42" width="74" height="5" style="fill:#f5b024;stroke:black;stroke-width:1;fill-opacity:1;stroke-opacity:0.3" />
<rect x="424" y="42" width="74" height="5" style="fill:#f5b024;stroke:black;stroke-width:1;fill-opacity:1;stroke-opacity:0.3" />
<line x1="424" y1="37" x2="446" y2="39" stroke="black" stroke-width="1" />
<line x1="446" y1="39" x2="468" y2="37" stroke="black" stroke-width="1" />
<rect x="349" y="35" width="74" height="5" style="fill:#f5b024;stroke:black;stroke-width:1;fill-opacity:1;stroke-opacity:0.3" />
<rect x="468" y="35" width="74" height="5" style="fill:#f5b024;stroke:black;stroke-width:1;fill-opacity:1;stroke-opacity:0.3" />
<line x1="454" y1="58" x2="458" y2="60" stroke="black" stroke-width="1" />
<line x1="458" y1="60" x2="462" y2="58" stroke="black" stroke-width="1" />
<rect x="379" y="56" width="74" height="5" style="fill:#f5b024;stroke:black;stroke-width:1;fill-opacity:1;stroke-opacity:0.3" />
<rect x="462" y="56" width="74" height="5" style="fill:#f5b024;stroke:black;stroke-width:1;fill-opacity:1;stroke-opacity:0.3" />
<line x1="474" y1="114" x2="493" y2="116" stroke="black" stroke-width="1" />
<line x1="493" y1="116" x2="512" y2="114" stroke="black" stroke-width="1" />
<rect x="400" y="112" width="74" height="5" style="fill:#f5b024;stroke:black;stroke-width:1;fill-opacity:1;stroke-opacity:0.3" />
<rect x="512" y="112" width="74" height="5" style="fill:#f5b024;stroke:black;stroke-width:1;fill-opacity:1;stroke-opacity:0.3" />
<line x1="477" y1="149" x2="492" y2="151" stroke="black" stroke-width="1" />
<line x1="492" y1="151" x2="507" y2="149" stroke="black" stroke-width="1" />
<rect x="403" y="147" width="74" height="5" style="fill:#f5b024;stroke:black;stroke-width:1;fill-opacity:1;stroke-opacity:0.3" />
<rect x="507" y="147" width="74" height="5" style="fill:#f5b024;stroke:black;stroke-width:1;fill-opacity:1;stroke-opacity:0.3" />
<line x1="526" y1="156" x2="535" y2="158" stroke="black" stroke-width="1" />
<line x1="535" y1="158" x2="545" y2="156" stroke="black" stroke-width="1" />
<rect x="414" y="154" width="112" height="5" style="fill:#f5b024;stroke:black;stroke-width:1;fill-opacity:1;stroke-opacity:0.3" />
<rect x="545" y="154" width="112" height="5" style="fill:#f5b024;stroke:black;stroke-width:1;fill-opacity:1;stroke-opacity:0.3" />
<line x1="530" y1="163" x2="571" y2="165" stroke="black" stroke-width="1" />
<line x1="571" y1="165" x2="613" y2="163" stroke="black" stroke-width="1" />
<rect x="418" y="161" width="112" height="5" style="fill:#f5b024;stroke:black;stroke-width:1;fill-opacity:1;stroke-opacity:0.3" />
<rect x="613" y="161" width="72" height="5" style="fill:#f5b024;stroke:black;stroke-width:1;fill-opacity:1;stroke-opacity:0.3" />
<line x1="685" y1="163" x2="795" y2="163" stroke="pink" stroke-width="1" />
<rect x="795" y="161" width="39" height="5" style="fill:#f5b024;stroke:black;stroke-width:1;fill-opacity:1;stroke-opacity:0.3" />
<line x1="493" y1="79" x2="515" y2="81" stroke="black" stroke-width="1" />
<line x1="515" y1="81" x2="537" y2="79" stroke="black" stroke-width="1" />
<rect x="418" y="77" width="74" height="5" style="fill:#f5b024;stroke:black;stroke-width:1;fill-opacity:1;stroke-opacity:0.3" />
<rect x="537" y="77" width="74" height="5" style="fill:#f5b024;stroke:black;stroke-width:1;fill-opacity:1;stroke-opacity:0.3" />
<line x1="501" y1="107" x2="509" y2="109" stroke="black" stroke-width="1" />
<line x1="509" y1="109" x2="517" y2="107" stroke="black" stroke-width="1" />
<rect x="426" y="105" width="74" height="5" style="fill:#5d3c2d;stroke:black;stroke-width:1;fill-opacity:1;stroke-opacity:0.3" />
<rect x="517" y="105" width="74" height="5" style="fill:#5d3c2d;stroke:black;stroke-width:1;fill-opacity:1;stroke-opacity:0.3" />
<line x1="504" y1="100" x2="509" y2="102" stroke="black" stroke-width="1" />
<line x1="509" y1="102" x2="514" y2="100" stroke="black" stroke-width="1" />
<rect x="429" y="98" width="74" height="5" style="fill:#f5b024;stroke:black;stroke-width:1;fill-opacity:1;stroke-opacity:0.3" />
<rect x="514" y="98" width="74" height="5" style="fill:#f5b024;stroke:black;stroke-width:1;fill-opacity:1;stroke-opacity:0.3" />
<line x1="509" y1="51" x2="518" y2="53" stroke="black" stroke-width="1" />
<line x1="518" y1="53" x2="527" y2="51" stroke="black" stroke-width="1" />
<rect x="434" y="49" width="74" height="5" style="fill:#f5b024;stroke:black;stroke-width:1;fill-opacity:1;stroke-opacity:0.3" />
<rect x="527" y="49" width="74" height="5" style="fill:#f5b024;stroke:black;stroke-width:1;fill-opacity:1;stroke-opacity:0.3" />
<line x1="513" y1="121" x2="519" y2="123" stroke="black" stroke-width="1" />
<line x1="519" y1="123" x2="525" y2="121" stroke="black" stroke-width="1" />
<rect x="438" y="119" width="74" height="5" style="fill:#f5b024;stroke:black;stroke-width:1;fill-opacity:1;stroke-opacity:0.3" />
<rect x="525" y="119" width="74" height="5" style="fill:#f5b024;stroke:black;stroke-width:1;fill-opacity:1;stroke-opacity:0.3" />
<line x1="515" y1="30" x2="521" y2="32" stroke="black" stroke-width="1" />
<line x1="521" y1="32" x2="527" y2="30" stroke="black" stroke-width="1" />
<rect x="440" y="28" width="74" height="5" style="fill:#f5b024;stroke:black;stroke-width:1;fill-opacity:1;stroke-opacity:0.3" />
<rect x="527" y="28" width="74" height="5" style="fill:#f5b024;stroke:black;stroke-width:1;fill-opacity:1;stroke-opacity:0.3" />
<line x1="546" y1="93" x2="565" y2="95" stroke="black" stroke-width="1" />
<line x1="565" y1="95" x2="584" y2="93" stroke="black" stroke-width="1" />
<rect x="471" y="91" width="74" height="5" style="fill:#f5b024;stroke:black;stroke-width:1;fill-opacity:1;stroke-opacity:0.3" />
<rect x="584" y="91" width="74" height="5" style="fill:#f5b024;stroke:black;stroke-width:1;fill-opacity:1;stroke-opacity:0.3" />
<line x1="548" y1="72" x2="552" y2="74" stroke="black" stroke-width="1" />
<line x1="552" y1="74" x2="557" y2="72" stroke="black" stroke-width="1" />
<rect x="473" y="70" width="74" height="5" style="fill:#f5b024;stroke:black;stroke-width:1;fill-opacity:1;stroke-opacity:0.3" />
<rect x="557" y="70" width="74" height="5" style="fill:#f5b024;stroke:black;stroke-width:1;fill-opacity:1;stroke-opacity:0.3" />
<line x1="555" y1="128" x2="569" y2="130" stroke="black" stroke-width="1" />
<line x1="569" y1="130" x2="583" y2="128" stroke="black" stroke-width="1" />
<rect x="480" y="126" width="74" height="5" style="fill:#5d3c2d;stroke:black;stroke-width:1;fill-opacity:1;stroke-opacity:0.3" />
<rect x="583" y="126" width="74" height="5" style="fill:#5d3c2d;stroke:black;stroke-width:1;fill-opacity:1;stroke-opacity:0.3" />
<line x1="557" y1="65" x2="570" y2="67" stroke="black" stroke-width="1" />
<line x1="570" y1="67" x2="583" y2="65" stroke="black" stroke-width="1" />
<rect x="483" y="63" width="74" height="5" style="fill:#f5b024;stroke:black;stroke-width:1;fill-opacity:1;stroke-opacity:0.3" />
<rect x="583" y="63" width="74" height="5" style="fill:#f5b024;stroke:black;stroke-width:1;fill-opacity:1;stroke-opacity:0.3" />
<line x1="560" y1="86" x2="576" y2="88" stroke="black" stroke-width="1" />
<line x1="576" y1="88" x2="592" y2="86" stroke="black" stroke-width="1" />
<rect x="485" y="84" width="74" height="5" style="fill:#f5b024;stroke:black;stroke-width:1;fill-opacity:1;stroke-opacity:0.3" />
<rect x="592" y="84" width="74" height="5" style="fill:#f5b024;stroke:black;stroke-width:1;fill-opacity:1;stroke-opacity:0.3" />
<line x1="563" y1="135" x2="572" y2="137" stroke="black" stroke-width="1" />
<line x1="572" y1="137" x2="582" y2="135" stroke="black" stroke-width="1" />
<rect x="488" y="133" width="74" height="5" style="fill:#f5b024;stroke:black;stroke-width:1;fill-opacity:1;stroke-opacity:0.3" />
<rect x="582" y="133" width="74" height="5" style="fill:#f5b024;stroke:black;stroke-width:1;fill-opacity:1;stroke-opacity:0.3" />
<line x1="574" y1="44" x2="588" y2="46" stroke="black" stroke-width="1" />
<line x1="588" y1="46" x2="603" y2="44" stroke="black" stroke-width="1" />
<rect x="499" y="42" width="74" height="5" style="fill:#f5b024;stroke:black;stroke-width:1;fill-opacity:1;stroke-opacity:0.3" />
<rect x="603" y="42" width="74" height="5" style="fill:#f5b024;stroke:black;stroke-width:1;fill-opacity:1;stroke-opacity:0.3" />
<line x1="580" y1="142" x2="584" y2="144" stroke="black" stroke-width="1" />
<line x1="584" y1="144" x2="588" y2="142" stroke="black" stroke-width="1" />
<rect x="505" y="140" width="74" height="5" style="fill:#f5b024;stroke:black;stroke-width:1;fill-opacity:1;stroke-opacity:0.3" />
<rect x="588" y="140" width="74" height="5" style="fill:#f5b024;stroke:black;stroke-width:1;fill-opacity:1;stroke-opacity:0.3" />
<line x1="611" y1="58" x2="620" y2="60" stroke="black" stroke-width="1" />
<line x1="620" y1="60" x2="629" y2="58" stroke="black" stroke-width="1" />
<rect x="537" y="56" width="74" height="5" style="fill:#f5b024;stroke:black;stroke-width:1;fill-opacity:1;stroke-opacity:0.3" />
<rect x="629" y="56" width="56" height="5" style="fill:#f5b024;stroke:black;stroke-width:1;fill-opacity:1;stroke-opacity:0.3" />
<line x1="685" y1="58" x2="795" y2="58" stroke="pink" stroke-width="1" />
<rect x="795" y="56" width="17" height="5" style="fill:#f5b024;stroke:black;stroke-width:1;fill-opacity:1;stroke-opacity:0.3" />
<line x1="618" y1="37" x2="622" y2="39" stroke="black" stroke-width="1" />
<line x1="622" y1="39" x2="626" y2="37" stroke="black" stroke-width="1" />
<rect x="543" y="35" width="74" height="5" style="fill:#f5b024;stroke:black;stroke-width:1;fill-opacity:1;stroke-opacity:0.3" />
<rect x="626" y="35" width="59" height="5" style="fill:#f5b024;stroke:black;stroke-width:1;fill-opacity:1;stroke-opacity:0.3" />
<line x1="685" y1="37" x2="795" y2="37" stroke="pink" stroke-width="1" />
<rect x="795" y="35" width="14" height="5" style="fill:#f5b024;stroke:black;stroke-width:1;fill-opacity:1;stroke-opacity:0.3" />
<line x1="656" y1="149" x2="728" y2="151" stroke="black" stroke-width="1" />
<line x1="728" y1="151" x2="801" y2="149" stroke="black" stroke-width="1" />
<rect x="582" y="147" width="74" height="5" style="fill:#f5b024;stroke:black;stroke-width:1;fill-opacity:1;stroke-opacity:0.3" />
<rect x="801" y="147" width="74" height="5" style="fill:#f5b024;stroke:black;stroke-width:1;fill-opacity:1;stroke-opacity:0.3" />
<line x1="656" y1="114" x2="668" y2="116" stroke="black" stroke-width="1" />
<line x1="668" y1="116" x2="681" y2="114" stroke="black" stroke-width="1" />
<rect x="587" y="112" width="68" height="5" style="fill:#f5b024;stroke:black;stroke-width:1;fill-opacity:1;stroke-opacity:0.3" />
<rect x="681" y="112" width="4" height="5" style="fill:#f5b024;stroke:black;stroke-width:1;fill-opacity:1;stroke-opacity:0.3" />
<line x1="685" y1="114" x2="795" y2="114" stroke="pink" stroke-width="1" />
<rect x="795" y="112" width="70" height="5" style="fill:#f5b024;stroke:black;stroke-width:1;fill-opacity:1;stroke-opacity:0.3" />
<line x1="664" y1="100" x2="671" y2="102" stroke="black" stroke-width="1" />
<line x1="671" y1="102" x2="679" y2="100" stroke="black" stroke-width="1" />
<rect x="589" y="98" width="74" height="5" style="fill:#f5b024;stroke:black;stroke-width:1;fill-opacity:1;stroke-opacity:0.3" />
<rect x="679" y="98" width="6" height="5" style="fill:#f5b024;stroke:black;stroke-width:1;fill-opacity:1;stroke-opacity:0.3" />
<line x1="685" y1="100" x2="795" y2="100" stroke="pink" stroke-width="1" />
<rect x="795" y="98" width="68" height="5" style="fill:#f5b024;stroke:black;stroke-width:1;fill-opacity:1;stroke-opacity:0.3" />
<line x1="666" y1="30" x2="669" y2="32" stroke="black" stroke-width="1" />
<line x1="669" y1="32" x2="673" y2="30" stroke="black" stroke-width="1" />
<rect x="602" y="28" width="63" height="5" style="fill:#f5b024;stroke:black;stroke-width:1;fill-opacity:1;stroke-opacity:0.3" />
<rect x="673" y="28" width="11" height="5" style="fill:#f5b024;stroke:black;stroke-width:1;fill-opacity:1;stroke-opacity:0.3" />
<line x1="685" y1="30" x2="795" y2="30" stroke="pink" stroke-width="1" />
<rect x="795" y="28" width="62" height="5" style="fill:#f5b024;stroke:black;stroke-width:1;fill-opacity:1;stroke-opacity:0.3" />
<line x1="676" y1="51" x2="737" y2="53" stroke="black" stroke-width="1" />
<line x1="737" y1="53" x2="798" y2="51" stroke="black" stroke-width="1" />
<rect x="602" y="49" width="74" height="5" style="fill:#f5b024;stroke:black;stroke-width:1;fill-opacity:1;stroke-opacity:0.3" />
<rect x="798" y="49" width="74" height="5" style="fill:#f5b024;stroke:black;stroke-width:1;fill-opacity:1;stroke-opacity:0.3" />
<line x1="679" y1="107" x2="742" y2="109" stroke="black" stroke-width="1" />
<line x1="742" y1="109" x2="806" y2="107" stroke="black" stroke-width="1" />
<rect x="604" y="105" width="74" height="5" style="fill:#f5b024;stroke:black;stroke-width:1;fill-opacity:1;stroke-opacity:0.3" />
<rect x="806" y="105" width="74" height="5" style="fill:#f5b024;stroke:black;stroke-width:1;fill-opacity:1;stroke-opacity:0.3" />
<line x1="679" y1="121" x2="750" y2="123" stroke="black" stroke-width="1" />
<line x1="750" y1="123" x2="821" y2="121" stroke="black" stroke-width="1" />
<rect x="604" y="119" width="74" height="5" style="fill:#f5b024;stroke:black;stroke-width:1;fill-opacity:1;stroke-opacity:0.3" />
<rect x="821" y="119" width="74" height="5" style="fill:#f5b024;stroke:black;stroke-width:1;fill-opacity:1;stroke-opacity:0.3" />
<line x1="796" y1="79" x2="801" y2="81" stroke="black" stroke-width="1" />
<line x1="801" y1="81" x2="807" y2="79" stroke="black" stroke-width="1" />
<rect x="612" y="77" width="73" height="5" style="fill:#f5b024;stroke:black;stroke-width:1;fill-opacity:1;stroke-opacity:0.3" />
<line x1="685" y1="79" x2="795" y2="79" stroke="pink" stroke-width="1" />
<rect x="795" y="77" width="1" height="5" style="fill:#f5b024;stroke:black;stroke-width:1;fill-opacity:1;stroke-opacity:0.3" />
<rect x="807" y="77" width="74" height="5" style="fill:#f5b024;stroke:black;stroke-width:1;fill-opacity:1;stroke-opacity:0.3" />
<line x1="818" y1="72" x2="822" y2="74" stroke="black" stroke-width="1" />
<line x1="822" y1="74" x2="827" y2="72" stroke="black" stroke-width="1" />
<rect x="634" y="70" width="51" height="5" style="fill:#f5b024;stroke:black;stroke-width:1;fill-opacity:1;stroke-opacity:0.3" />
<line x1="685" y1="72" x2="795" y2="72" stroke="pink" stroke-width="1" />
<rect x="795" y="70" width="23" height="5" style="fill:#f5b024;stroke:black;stroke-width:1;fill-opacity:1;stroke-opacity:0.3" />
<rect x="827" y="70" width="74" height="5" style="fill:#f5b024;stroke:black;stroke-width:1;fill-opacity:1;stroke-opacity:0.3" />
<text x="15"  y="176" style="font-family:Arial;font-size:10;stroke:black;fill:black;">all.merged.bam</text>
</svg>
    
