<?xml version="1.0" encoding="utf-8" standalone="no"?>
<!DOCTYPE svg PUBLIC "-//W3C//DTD SVG 1.1//EN"
  "http://www.w3.org/Graphics/SVG/1.1/DTD/svg11.dtd">
<svg height="1140" width="1000" version="1.1" viewBox="0 0 1000 1140" xmlns="http://www.w3.org/2000/svg" xmlns:xlink="http://www.w3.org/1999/xlink">
<line x1="36" y1="11" x2="963" y2="11" stroke="black" stroke-width="1" />
<rect x="36" y="9" width="129" height="5" style="fill:#f50002;stroke:black;stroke-width:1;fill-opacity:1;stroke-opacity:0.3" />
<rect x="166" y="9" width="66" height="5" style="fill:#53a1b5;stroke:black;stroke-width:1;fill-opacity:1;stroke-opacity:0.3" />
<rect x="233" y="9" width="730" height="5" style="fill:#f50002;stroke:black;stroke-width:1;fill-opacity:1;stroke-opacity:0.3" />
<text x="36"  y="23" style="font-family:Arial;font-size:10;stroke:black;fill:black;">Cre14.g634279.t1.1.v5.5 (+) chromosome_14:4144686-4147259</text>
<line x1="55" y1="30" x2="65" y2="32" stroke="black" stroke-width="1" />
<line x1="65" y1="32" x2="76" y2="30" stroke="black" stroke-width="1" />
<rect x="19" y="28" width="36" height="5" style="fill:#5d3c2d;stroke:black;stroke-width:1;fill-opacity:1;stroke-opacity:0.3" />
<rect x="76" y="28" width="36" height="5" style="fill:#5d3c2d;stroke:black;stroke-width:1;fill-opacity:1;stroke-opacity:0.3" />
<line x1="59" y1="37" x2="67" y2="39" stroke="black" stroke-width="1" />
<line x1="67" y1="39" x2="76" y2="37" stroke="black" stroke-width="1" />
<rect x="23" y="35" width="36" height="5" style="fill:#5d3c2d;stroke:black;stroke-width:1;fill-opacity:1;stroke-opacity:0.3" />
<rect x="76" y="35" width="36" height="5" style="fill:#5d3c2d;stroke:black;stroke-width:1;fill-opacity:1;stroke-opacity:0.3" />
<line x1="69" y1="44" x2="72" y2="46" stroke="black" stroke-width="1" />
<line x1="72" y1="46" x2="76" y2="44" stroke="black" stroke-width="1" />
<rect x="33" y="42" width="36" height="5" style="fill:#5d3c2d;stroke:black;stroke-width:1;fill-opacity:1;stroke-opacity:0.3" />
<rect x="76" y="42" width="36" height="5" style="fill:#5d3c2d;stroke:black;stroke-width:1;fill-opacity:1;stroke-opacity:0.3" />
<line x1="69" y1="51" x2="77" y2="53" stroke="black" stroke-width="1" />
<line x1="77" y1="53" x2="86" y2="51" stroke="black" stroke-width="1" />
<rect x="33" y="49" width="36" height="5" style="fill:#5d3c2d;stroke:black;stroke-width:1;fill-opacity:1;stroke-opacity:0.3" />
<rect x="86" y="49" width="36" height="5" style="fill:#5d3c2d;stroke:black;stroke-width:1;fill-opacity:1;stroke-opacity:0.3" />
<line x1="74" y1="58" x2="85" y2="60" stroke="black" stroke-width="1" />
<line x1="85" y1="60" x2="96" y2="58" stroke="black" stroke-width="1" />
<rect x="38" y="56" width="36" height="5" style="fill:#5d3c2d;stroke:black;stroke-width:1;fill-opacity:1;stroke-opacity:0.3" />
<rect x="96" y="56" width="36" height="5" style="fill:#5d3c2d;stroke:black;stroke-width:1;fill-opacity:1;stroke-opacity:0.3" />
<line x1="74" y1="65" x2="78" y2="67" stroke="black" stroke-width="1" />
<line x1="78" y1="67" x2="83" y2="65" stroke="black" stroke-width="1" />
<rect x="38" y="63" width="36" height="5" style="fill:#5d3c2d;stroke:black;stroke-width:1;fill-opacity:1;stroke-opacity:0.3" />
<rect x="83" y="63" width="36" height="5" style="fill:#5d3c2d;stroke:black;stroke-width:1;fill-opacity:1;stroke-opacity:0.3" />
<line x1="74" y1="72" x2="79" y2="74" stroke="black" stroke-width="1" />
<line x1="79" y1="74" x2="85" y2="72" stroke="black" stroke-width="1" />
<rect x="38" y="70" width="36" height="5" style="fill:#5d3c2d;stroke:black;stroke-width:1;fill-opacity:1;stroke-opacity:0.3" />
<rect x="85" y="70" width="36" height="5" style="fill:#5d3c2d;stroke:black;stroke-width:1;fill-opacity:1;stroke-opacity:0.3" />
<line x1="75" y1="79" x2="80" y2="81" stroke="black" stroke-width="1" />
<line x1="80" y1="81" x2="86" y2="79" stroke="black" stroke-width="1" />
<rect x="39" y="77" width="36" height="5" style="fill:#5d3c2d;stroke:black;stroke-width:1;fill-opacity:1;stroke-opacity:0.3" />
<rect x="86" y="77" width="36" height="5" style="fill:#5d3c2d;stroke:black;stroke-width:1;fill-opacity:1;stroke-opacity:0.3" />
<line x1="75" y1="86" x2="79" y2="88" stroke="black" stroke-width="1" />
<line x1="79" y1="88" x2="83" y2="86" stroke="black" stroke-width="1" />
<rect x="39" y="84" width="36" height="5" style="fill:#5d3c2d;stroke:black;stroke-width:1;fill-opacity:1;stroke-opacity:0.3" />
<rect x="83" y="84" width="36" height="5" style="fill:#5d3c2d;stroke:black;stroke-width:1;fill-opacity:1;stroke-opacity:0.3" />
<line x1="75" y1="93" x2="80" y2="95" stroke="black" stroke-width="1" />
<line x1="80" y1="95" x2="85" y2="93" stroke="black" stroke-width="1" />
<rect x="39" y="91" width="36" height="5" style="fill:#5d3c2d;stroke:black;stroke-width:1;fill-opacity:1;stroke-opacity:0.3" />
<rect x="85" y="91" width="36" height="5" style="fill:#5d3c2d;stroke:black;stroke-width:1;fill-opacity:1;stroke-opacity:0.3" />
<line x1="75" y1="100" x2="80" y2="102" stroke="black" stroke-width="1" />
<line x1="80" y1="102" x2="86" y2="100" stroke="black" stroke-width="1" />
<rect x="39" y="98" width="36" height="5" style="fill:#5d3c2d;stroke:black;stroke-width:1;fill-opacity:1;stroke-opacity:0.3" />
<rect x="86" y="98" width="36" height="5" style="fill:#5d3c2d;stroke:black;stroke-width:1;fill-opacity:1;stroke-opacity:0.3" />
<line x1="75" y1="107" x2="79" y2="109" stroke="black" stroke-width="1" />
<line x1="79" y1="109" x2="83" y2="107" stroke="black" stroke-width="1" />
<rect x="39" y="105" width="36" height="5" style="fill:#5d3c2d;stroke:black;stroke-width:1;fill-opacity:1;stroke-opacity:0.3" />
<rect x="83" y="105" width="36" height="5" style="fill:#5d3c2d;stroke:black;stroke-width:1;fill-opacity:1;stroke-opacity:0.3" />
<line x1="75" y1="114" x2="80" y2="116" stroke="black" stroke-width="1" />
<line x1="80" y1="116" x2="86" y2="114" stroke="black" stroke-width="1" />
<rect x="39" y="112" width="36" height="5" style="fill:#5d3c2d;stroke:black;stroke-width:1;fill-opacity:1;stroke-opacity:0.3" />
<rect x="86" y="112" width="36" height="5" style="fill:#5d3c2d;stroke:black;stroke-width:1;fill-opacity:1;stroke-opacity:0.3" />
<line x1="75" y1="121" x2="81" y2="123" stroke="black" stroke-width="1" />
<line x1="81" y1="123" x2="87" y2="121" stroke="black" stroke-width="1" />
<rect x="39" y="119" width="36" height="5" style="fill:#5d3c2d;stroke:black;stroke-width:1;fill-opacity:1;stroke-opacity:0.3" />
<rect x="87" y="119" width="36" height="5" style="fill:#5d3c2d;stroke:black;stroke-width:1;fill-opacity:1;stroke-opacity:0.3" />
<line x1="75" y1="128" x2="91" y2="130" stroke="black" stroke-width="1" />
<line x1="91" y1="130" x2="107" y2="128" stroke="black" stroke-width="1" />
<rect x="39" y="126" width="36" height="5" style="fill:#5d3c2d;stroke:black;stroke-width:1;fill-opacity:1;stroke-opacity:0.3" />
<rect x="107" y="126" width="36" height="5" style="fill:#5d3c2d;stroke:black;stroke-width:1;fill-opacity:1;stroke-opacity:0.3" />
<line x1="75" y1="135" x2="78" y2="137" stroke="black" stroke-width="1" />
<line x1="78" y1="137" x2="82" y2="135" stroke="black" stroke-width="1" />
<rect x="39" y="133" width="36" height="5" style="fill:#5d3c2d;stroke:black;stroke-width:1;fill-opacity:1;stroke-opacity:0.3" />
<rect x="82" y="133" width="36" height="5" style="fill:#5d3c2d;stroke:black;stroke-width:1;fill-opacity:1;stroke-opacity:0.3" />
<line x1="75" y1="142" x2="80" y2="144" stroke="black" stroke-width="1" />
<line x1="80" y1="144" x2="86" y2="142" stroke="black" stroke-width="1" />
<rect x="39" y="140" width="36" height="5" style="fill:#5d3c2d;stroke:black;stroke-width:1;fill-opacity:1;stroke-opacity:0.3" />
<rect x="86" y="140" width="36" height="5" style="fill:#5d3c2d;stroke:black;stroke-width:1;fill-opacity:1;stroke-opacity:0.3" />
<line x1="75" y1="149" x2="78" y2="151" stroke="black" stroke-width="1" />
<line x1="78" y1="151" x2="82" y2="149" stroke="black" stroke-width="1" />
<rect x="39" y="147" width="36" height="5" style="fill:#5d3c2d;stroke:black;stroke-width:1;fill-opacity:1;stroke-opacity:0.3" />
<rect x="82" y="147" width="36" height="5" style="fill:#5d3c2d;stroke:black;stroke-width:1;fill-opacity:1;stroke-opacity:0.3" />
<line x1="75" y1="156" x2="79" y2="158" stroke="black" stroke-width="1" />
<line x1="79" y1="158" x2="83" y2="156" stroke="black" stroke-width="1" />
<rect x="39" y="154" width="36" height="5" style="fill:#5d3c2d;stroke:black;stroke-width:1;fill-opacity:1;stroke-opacity:0.3" />
<rect x="83" y="154" width="36" height="5" style="fill:#5d3c2d;stroke:black;stroke-width:1;fill-opacity:1;stroke-opacity:0.3" />
<line x1="75" y1="163" x2="79" y2="165" stroke="black" stroke-width="1" />
<line x1="79" y1="165" x2="84" y2="163" stroke="black" stroke-width="1" />
<rect x="39" y="161" width="36" height="5" style="fill:#5d3c2d;stroke:black;stroke-width:1;fill-opacity:1;stroke-opacity:0.3" />
<rect x="84" y="161" width="35" height="5" style="fill:#5d3c2d;stroke:black;stroke-width:1;fill-opacity:1;stroke-opacity:0.3" />
<line x1="149" y1="30" x2="153" y2="32" stroke="black" stroke-width="1" />
<line x1="153" y1="32" x2="158" y2="30" stroke="black" stroke-width="1" />
<rect x="113" y="28" width="36" height="5" style="fill:#5d3c2d;stroke:black;stroke-width:1;fill-opacity:1;stroke-opacity:0.3" />
<rect x="158" y="28" width="35" height="5" style="fill:#5d3c2d;stroke:black;stroke-width:1;fill-opacity:1;stroke-opacity:0.3" />
<line x1="152" y1="37" x2="155" y2="39" stroke="black" stroke-width="1" />
<line x1="155" y1="39" x2="158" y2="37" stroke="black" stroke-width="1" />
<rect x="116" y="35" width="36" height="5" style="fill:#5d3c2d;stroke:black;stroke-width:1;fill-opacity:1;stroke-opacity:0.3" />
<rect x="158" y="35" width="36" height="5" style="fill:#5d3c2d;stroke:black;stroke-width:1;fill-opacity:1;stroke-opacity:0.3" />
<line x1="154" y1="44" x2="156" y2="46" stroke="black" stroke-width="1" />
<line x1="156" y1="46" x2="158" y2="44" stroke="black" stroke-width="1" />
<rect x="118" y="42" width="36" height="5" style="fill:#5d3c2d;stroke:black;stroke-width:1;fill-opacity:1;stroke-opacity:0.3" />
<rect x="158" y="42" width="35" height="5" style="fill:#5d3c2d;stroke:black;stroke-width:1;fill-opacity:1;stroke-opacity:0.3" />
<line x1="155" y1="65" x2="159" y2="67" stroke="black" stroke-width="1" />
<line x1="159" y1="67" x2="164" y2="65" stroke="black" stroke-width="1" />
<rect x="119" y="63" width="36" height="5" style="fill:#5d3c2d;stroke:black;stroke-width:1;fill-opacity:1;stroke-opacity:0.3" />
<rect x="164" y="63" width="35" height="5" style="fill:#5d3c2d;stroke:black;stroke-width:1;fill-opacity:1;stroke-opacity:0.3" />
<line x1="156" y1="86" x2="161" y2="88" stroke="black" stroke-width="1" />
<line x1="161" y1="88" x2="166" y2="86" stroke="black" stroke-width="1" />
<rect x="120" y="84" width="36" height="5" style="fill:#5d3c2d;stroke:black;stroke-width:1;fill-opacity:1;stroke-opacity:0.3" />
<rect x="166" y="84" width="36" height="5" style="fill:#5d3c2d;stroke:black;stroke-width:1;fill-opacity:1;stroke-opacity:0.3" />
<line x1="156" y1="107" x2="160" y2="109" stroke="black" stroke-width="1" />
<line x1="160" y1="109" x2="165" y2="107" stroke="black" stroke-width="1" />
<rect x="120" y="105" width="36" height="5" style="fill:#5d3c2d;stroke:black;stroke-width:1;fill-opacity:1;stroke-opacity:0.3" />
<rect x="165" y="105" width="36" height="5" style="fill:#5d3c2d;stroke:black;stroke-width:1;fill-opacity:1;stroke-opacity:0.3" />
<line x1="156" y1="135" x2="158" y2="137" stroke="black" stroke-width="1" />
<line x1="158" y1="137" x2="161" y2="135" stroke="black" stroke-width="1" />
<rect x="120" y="133" width="36" height="5" style="fill:#5d3c2d;stroke:black;stroke-width:1;fill-opacity:1;stroke-opacity:0.3" />
<rect x="161" y="133" width="36" height="5" style="fill:#5d3c2d;stroke:black;stroke-width:1;fill-opacity:1;stroke-opacity:0.3" />
<line x1="156" y1="149" x2="160" y2="151" stroke="black" stroke-width="1" />
<line x1="160" y1="151" x2="164" y2="149" stroke="black" stroke-width="1" />
<rect x="120" y="147" width="36" height="5" style="fill:#5d3c2d;stroke:black;stroke-width:1;fill-opacity:1;stroke-opacity:0.3" />
<rect x="164" y="147" width="36" height="5" style="fill:#5d3c2d;stroke:black;stroke-width:1;fill-opacity:1;stroke-opacity:0.3" />
<line x1="157" y1="93" x2="160" y2="95" stroke="black" stroke-width="1" />
<line x1="160" y1="95" x2="164" y2="93" stroke="black" stroke-width="1" />
<rect x="121" y="91" width="36" height="5" style="fill:#5d3c2d;stroke:black;stroke-width:1;fill-opacity:1;stroke-opacity:0.3" />
<rect x="164" y="91" width="36" height="5" style="fill:#5d3c2d;stroke:black;stroke-width:1;fill-opacity:1;stroke-opacity:0.3" />
<line x1="157" y1="156" x2="160" y2="158" stroke="black" stroke-width="1" />
<line x1="160" y1="158" x2="163" y2="156" stroke="black" stroke-width="1" />
<rect x="121" y="154" width="36" height="5" style="fill:#5d3c2d;stroke:black;stroke-width:1;fill-opacity:1;stroke-opacity:0.3" />
<rect x="163" y="154" width="36" height="5" style="fill:#5d3c2d;stroke:black;stroke-width:1;fill-opacity:1;stroke-opacity:0.3" />
<line x1="176" y1="72" x2="180" y2="74" stroke="black" stroke-width="1" />
<line x1="180" y1="74" x2="184" y2="72" stroke="black" stroke-width="1" />
<rect x="122" y="70" width="54" height="5" style="fill:#5d3c2d;stroke:black;stroke-width:1;fill-opacity:1;stroke-opacity:0.3" />
<rect x="184" y="70" width="54" height="5" style="fill:#5d3c2d;stroke:black;stroke-width:1;fill-opacity:1;stroke-opacity:0.3" />
<line x1="159" y1="51" x2="161" y2="53" stroke="black" stroke-width="1" />
<line x1="161" y1="53" x2="164" y2="51" stroke="black" stroke-width="1" />
<rect x="123" y="49" width="36" height="5" style="fill:#5d3c2d;stroke:black;stroke-width:1;fill-opacity:1;stroke-opacity:0.3" />
<rect x="164" y="49" width="36" height="5" style="fill:#5d3c2d;stroke:black;stroke-width:1;fill-opacity:1;stroke-opacity:0.3" />
<line x1="159" y1="79" x2="161" y2="81" stroke="black" stroke-width="1" />
<line x1="161" y1="81" x2="164" y2="79" stroke="black" stroke-width="1" />
<rect x="123" y="77" width="36" height="5" style="fill:#5d3c2d;stroke:black;stroke-width:1;fill-opacity:1;stroke-opacity:0.3" />
<rect x="164" y="77" width="36" height="5" style="fill:#5d3c2d;stroke:black;stroke-width:1;fill-opacity:1;stroke-opacity:0.3" />
<line x1="159" y1="100" x2="161" y2="102" stroke="black" stroke-width="1" />
<line x1="161" y1="102" x2="164" y2="100" stroke="black" stroke-width="1" />
<rect x="123" y="98" width="36" height="5" style="fill:#5d3c2d;stroke:black;stroke-width:1;fill-opacity:1;stroke-opacity:0.3" />
<rect x="164" y="98" width="36" height="5" style="fill:#5d3c2d;stroke:black;stroke-width:1;fill-opacity:1;stroke-opacity:0.3" />
<line x1="159" y1="114" x2="161" y2="116" stroke="black" stroke-width="1" />
<line x1="161" y1="116" x2="163" y2="114" stroke="black" stroke-width="1" />
<rect x="123" y="112" width="36" height="5" style="fill:#5d3c2d;stroke:black;stroke-width:1;fill-opacity:1;stroke-opacity:0.3" />
<rect x="163" y="112" width="36" height="5" style="fill:#5d3c2d;stroke:black;stroke-width:1;fill-opacity:1;stroke-opacity:0.3" />
<line x1="160" y1="121" x2="163" y2="123" stroke="black" stroke-width="1" />
<line x1="163" y1="123" x2="167" y2="121" stroke="black" stroke-width="1" />
<rect x="124" y="119" width="36" height="5" style="fill:#5d3c2d;stroke:black;stroke-width:1;fill-opacity:1;stroke-opacity:0.3" />
<rect x="167" y="119" width="36" height="5" style="fill:#5d3c2d;stroke:black;stroke-width:1;fill-opacity:1;stroke-opacity:0.3" />
<line x1="160" y1="142" x2="162" y2="144" stroke="black" stroke-width="1" />
<line x1="162" y1="144" x2="164" y2="142" stroke="black" stroke-width="1" />
<rect x="124" y="140" width="36" height="5" style="fill:#5d3c2d;stroke:black;stroke-width:1;fill-opacity:1;stroke-opacity:0.3" />
<rect x="164" y="140" width="36" height="5" style="fill:#5d3c2d;stroke:black;stroke-width:1;fill-opacity:1;stroke-opacity:0.3" />
<line x1="160" y1="163" x2="162" y2="165" stroke="black" stroke-width="1" />
<line x1="162" y1="165" x2="164" y2="163" stroke="black" stroke-width="1" />
<rect x="124" y="161" width="36" height="5" style="fill:#5d3c2d;stroke:black;stroke-width:1;fill-opacity:1;stroke-opacity:0.3" />
<rect x="164" y="161" width="36" height="5" style="fill:#5d3c2d;stroke:black;stroke-width:1;fill-opacity:1;stroke-opacity:0.3" />
<line x1="169" y1="58" x2="173" y2="60" stroke="black" stroke-width="1" />
<line x1="173" y1="60" x2="178" y2="58" stroke="black" stroke-width="1" />
<rect x="133" y="56" width="36" height="5" style="fill:#5d3c2d;stroke:black;stroke-width:1;fill-opacity:1;stroke-opacity:0.3" />
<rect x="178" y="56" width="35" height="5" style="fill:#5d3c2d;stroke:black;stroke-width:1;fill-opacity:1;stroke-opacity:0.3" />
<line x1="179" y1="128" x2="187" y2="130" stroke="black" stroke-width="1" />
<line x1="187" y1="130" x2="195" y2="128" stroke="black" stroke-width="1" />
<rect x="143" y="126" width="36" height="5" style="fill:#5d3c2d;stroke:black;stroke-width:1;fill-opacity:1;stroke-opacity:0.3" />
<rect x="195" y="126" width="36" height="5" style="fill:#5d3c2d;stroke:black;stroke-width:1;fill-opacity:1;stroke-opacity:0.3" />
<line x1="231" y1="30" x2="235" y2="32" stroke="black" stroke-width="1" />
<line x1="235" y1="32" x2="240" y2="30" stroke="black" stroke-width="1" />
<rect x="195" y="28" width="36" height="5" style="fill:#5d3c2d;stroke:black;stroke-width:1;fill-opacity:1;stroke-opacity:0.3" />
<rect x="240" y="28" width="36" height="5" style="fill:#5d3c2d;stroke:black;stroke-width:1;fill-opacity:1;stroke-opacity:0.3" />
<line x1="231" y1="37" x2="241" y2="39" stroke="black" stroke-width="1" />
<line x1="241" y1="39" x2="252" y2="37" stroke="black" stroke-width="1" />
<rect x="195" y="35" width="36" height="5" style="fill:#5d3c2d;stroke:black;stroke-width:1;fill-opacity:1;stroke-opacity:0.3" />
<rect x="252" y="35" width="36" height="5" style="fill:#5d3c2d;stroke:black;stroke-width:1;fill-opacity:1;stroke-opacity:0.3" />
<line x1="231" y1="44" x2="235" y2="46" stroke="black" stroke-width="1" />
<line x1="235" y1="46" x2="240" y2="44" stroke="black" stroke-width="1" />
<rect x="195" y="42" width="36" height="5" style="fill:#5d3c2d;stroke:black;stroke-width:1;fill-opacity:1;stroke-opacity:0.3" />
<rect x="240" y="42" width="36" height="5" style="fill:#5d3c2d;stroke:black;stroke-width:1;fill-opacity:1;stroke-opacity:0.3" />
<line x1="234" y1="135" x2="237" y2="137" stroke="black" stroke-width="1" />
<line x1="237" y1="137" x2="241" y2="135" stroke="black" stroke-width="1" />
<rect x="198" y="133" width="36" height="5" style="fill:#5d3c2d;stroke:black;stroke-width:1;fill-opacity:1;stroke-opacity:0.3" />
<rect x="241" y="133" width="36" height="5" style="fill:#5d3c2d;stroke:black;stroke-width:1;fill-opacity:1;stroke-opacity:0.3" />
<line x1="236" y1="65" x2="238" y2="67" stroke="black" stroke-width="1" />
<line x1="238" y1="67" x2="240" y2="65" stroke="black" stroke-width="1" />
<rect x="200" y="63" width="36" height="5" style="fill:#f5b024;stroke:black;stroke-width:1;fill-opacity:1;stroke-opacity:0.3" />
<rect x="240" y="63" width="36" height="5" style="fill:#f5b024;stroke:black;stroke-width:1;fill-opacity:1;stroke-opacity:0.3" />
<line x1="236" y1="93" x2="240" y2="95" stroke="black" stroke-width="1" />
<line x1="240" y1="95" x2="245" y2="93" stroke="black" stroke-width="1" />
<rect x="200" y="91" width="36" height="5" style="fill:#5d3c2d;stroke:black;stroke-width:1;fill-opacity:1;stroke-opacity:0.3" />
<rect x="245" y="91" width="35" height="5" style="fill:#5d3c2d;stroke:black;stroke-width:1;fill-opacity:1;stroke-opacity:0.3" />
<line x1="236" y1="114" x2="237" y2="116" stroke="black" stroke-width="1" />
<line x1="237" y1="116" x2="239" y2="114" stroke="black" stroke-width="1" />
<rect x="200" y="112" width="36" height="5" style="fill:#5d3c2d;stroke:black;stroke-width:1;fill-opacity:1;stroke-opacity:0.3" />
<rect x="239" y="112" width="36" height="5" style="fill:#5d3c2d;stroke:black;stroke-width:1;fill-opacity:1;stroke-opacity:0.3" />
<line x1="236" y1="156" x2="238" y2="158" stroke="black" stroke-width="1" />
<line x1="238" y1="158" x2="240" y2="156" stroke="black" stroke-width="1" />
<rect x="200" y="154" width="36" height="5" style="fill:#f5b024;stroke:black;stroke-width:1;fill-opacity:1;stroke-opacity:0.3" />
<rect x="240" y="154" width="35" height="5" style="fill:#f5b024;stroke:black;stroke-width:1;fill-opacity:1;stroke-opacity:0.3" />
<line x1="246" y1="51" x2="249" y2="53" stroke="black" stroke-width="1" />
<line x1="249" y1="53" x2="252" y2="51" stroke="black" stroke-width="1" />
<rect x="210" y="49" width="36" height="5" style="fill:#5d3c2d;stroke:black;stroke-width:1;fill-opacity:1;stroke-opacity:0.3" />
<rect x="252" y="49" width="36" height="5" style="fill:#5d3c2d;stroke:black;stroke-width:1;fill-opacity:1;stroke-opacity:0.3" />
<line x1="246" y1="79" x2="249" y2="81" stroke="black" stroke-width="1" />
<line x1="249" y1="81" x2="252" y2="79" stroke="black" stroke-width="1" />
<rect x="210" y="77" width="35" height="5" style="fill:#5d3c2d;stroke:black;stroke-width:1;fill-opacity:1;stroke-opacity:0.3" />
<rect x="252" y="77" width="36" height="5" style="fill:#5d3c2d;stroke:black;stroke-width:1;fill-opacity:1;stroke-opacity:0.3" />
<line x1="246" y1="86" x2="249" y2="88" stroke="black" stroke-width="1" />
<line x1="249" y1="88" x2="253" y2="86" stroke="black" stroke-width="1" />
<rect x="210" y="84" width="36" height="5" style="fill:#5d3c2d;stroke:black;stroke-width:1;fill-opacity:1;stroke-opacity:0.3" />
<rect x="253" y="84" width="36" height="5" style="fill:#5d3c2d;stroke:black;stroke-width:1;fill-opacity:1;stroke-opacity:0.3" />
<line x1="246" y1="100" x2="249" y2="102" stroke="black" stroke-width="1" />
<line x1="249" y1="102" x2="253" y2="100" stroke="black" stroke-width="1" />
<rect x="210" y="98" width="36" height="5" style="fill:#5d3c2d;stroke:black;stroke-width:1;fill-opacity:1;stroke-opacity:0.3" />
<rect x="253" y="98" width="34" height="5" style="fill:#5d3c2d;stroke:black;stroke-width:1;fill-opacity:1;stroke-opacity:0.3" />
<line x1="246" y1="107" x2="249" y2="109" stroke="black" stroke-width="1" />
<line x1="249" y1="109" x2="253" y2="107" stroke="black" stroke-width="1" />
<rect x="210" y="105" width="36" height="5" style="fill:#5d3c2d;stroke:black;stroke-width:1;fill-opacity:1;stroke-opacity:0.3" />
<rect x="253" y="105" width="36" height="5" style="fill:#5d3c2d;stroke:black;stroke-width:1;fill-opacity:1;stroke-opacity:0.3" />
<line x1="248" y1="121" x2="251" y2="123" stroke="black" stroke-width="1" />
<line x1="251" y1="123" x2="254" y2="121" stroke="black" stroke-width="1" />
<rect x="211" y="119" width="36" height="5" style="fill:#5d3c2d;stroke:black;stroke-width:1;fill-opacity:1;stroke-opacity:0.3" />
<rect x="254" y="119" width="35" height="5" style="fill:#5d3c2d;stroke:black;stroke-width:1;fill-opacity:1;stroke-opacity:0.3" />
<line x1="248" y1="142" x2="254" y2="144" stroke="black" stroke-width="1" />
<line x1="254" y1="144" x2="260" y2="142" stroke="black" stroke-width="1" />
<rect x="212" y="140" width="36" height="5" style="fill:#5d3c2d;stroke:black;stroke-width:1;fill-opacity:1;stroke-opacity:0.3" />
<rect x="260" y="140" width="36" height="5" style="fill:#5d3c2d;stroke:black;stroke-width:1;fill-opacity:1;stroke-opacity:0.3" />
<line x1="248" y1="149" x2="250" y2="151" stroke="black" stroke-width="1" />
<line x1="250" y1="151" x2="252" y2="149" stroke="black" stroke-width="1" />
<rect x="212" y="147" width="36" height="5" style="fill:#5d3c2d;stroke:black;stroke-width:1;fill-opacity:1;stroke-opacity:0.3" />
<rect x="252" y="147" width="35" height="5" style="fill:#5d3c2d;stroke:black;stroke-width:1;fill-opacity:1;stroke-opacity:0.3" />
<line x1="249" y1="163" x2="251" y2="165" stroke="black" stroke-width="1" />
<line x1="251" y1="165" x2="254" y2="163" stroke="black" stroke-width="1" />
<rect x="213" y="161" width="36" height="5" style="fill:#5d3c2d;stroke:black;stroke-width:1;fill-opacity:1;stroke-opacity:0.3" />
<rect x="254" y="161" width="35" height="5" style="fill:#5d3c2d;stroke:black;stroke-width:1;fill-opacity:1;stroke-opacity:0.3" />
<line x1="251" y1="58" x2="274" y2="60" stroke="black" stroke-width="1" />
<line x1="274" y1="60" x2="297" y2="58" stroke="black" stroke-width="1" />
<rect x="215" y="56" width="36" height="5" style="fill:#5d3c2d;stroke:black;stroke-width:1;fill-opacity:1;stroke-opacity:0.3" />
<rect x="297" y="56" width="36" height="5" style="fill:#5d3c2d;stroke:black;stroke-width:1;fill-opacity:1;stroke-opacity:0.3" />
<line x1="267" y1="128" x2="277" y2="130" stroke="black" stroke-width="1" />
<line x1="277" y1="130" x2="287" y2="128" stroke="black" stroke-width="1" />
<rect x="231" y="126" width="35" height="5" style="fill:#5d3c2d;stroke:black;stroke-width:1;fill-opacity:1;stroke-opacity:0.3" />
<rect x="287" y="126" width="35" height="5" style="fill:#5d3c2d;stroke:black;stroke-width:1;fill-opacity:1;stroke-opacity:0.3" />
<line x1="275" y1="72" x2="287" y2="74" stroke="black" stroke-width="1" />
<line x1="287" y1="74" x2="300" y2="72" stroke="black" stroke-width="1" />
<rect x="239" y="70" width="36" height="5" style="fill:#5d3c2d;stroke:black;stroke-width:1;fill-opacity:1;stroke-opacity:0.3" />
<rect x="300" y="70" width="36" height="5" style="fill:#5d3c2d;stroke:black;stroke-width:1;fill-opacity:1;stroke-opacity:0.3" />
<line x1="311" y1="114" x2="315" y2="116" stroke="black" stroke-width="1" />
<line x1="315" y1="116" x2="320" y2="114" stroke="black" stroke-width="1" />
<rect x="275" y="112" width="36" height="5" style="fill:#5d3c2d;stroke:black;stroke-width:1;fill-opacity:1;stroke-opacity:0.3" />
<rect x="320" y="112" width="34" height="5" style="fill:#5d3c2d;stroke:black;stroke-width:1;fill-opacity:1;stroke-opacity:0.3" />
<line x1="355" y1="114" x2="3059" y2="114" stroke="pink" stroke-width="1" />
<rect x="3059" y="112" width="1" height="5" style="fill:#5d3c2d;stroke:black;stroke-width:1;fill-opacity:1;stroke-opacity:0.3" />
<line x1="312" y1="44" x2="316" y2="46" stroke="black" stroke-width="1" />
<line x1="316" y1="46" x2="320" y2="44" stroke="black" stroke-width="1" />
<rect x="276" y="42" width="36" height="5" style="fill:#5d3c2d;stroke:black;stroke-width:1;fill-opacity:1;stroke-opacity:0.3" />
<rect x="320" y="42" width="34" height="5" style="fill:#5d3c2d;stroke:black;stroke-width:1;fill-opacity:1;stroke-opacity:0.3" />
<line x1="355" y1="44" x2="3059" y2="44" stroke="pink" stroke-width="1" />
<rect x="3059" y="42" width="1" height="5" style="fill:#5d3c2d;stroke:black;stroke-width:1;fill-opacity:1;stroke-opacity:0.3" />
<line x1="312" y1="65" x2="320" y2="67" stroke="black" stroke-width="1" />
<line x1="320" y1="67" x2="328" y2="65" stroke="black" stroke-width="1" />
<rect x="276" y="63" width="36" height="5" style="fill:#5d3c2d;stroke:black;stroke-width:1;fill-opacity:1;stroke-opacity:0.3" />
<rect x="328" y="63" width="26" height="5" style="fill:#5d3c2d;stroke:black;stroke-width:1;fill-opacity:1;stroke-opacity:0.3" />
<line x1="355" y1="65" x2="3059" y2="65" stroke="pink" stroke-width="1" />
<rect x="3059" y="63" width="9" height="5" style="fill:#5d3c2d;stroke:black;stroke-width:1;fill-opacity:1;stroke-opacity:0.3" />
<line x1="312" y1="156" x2="317" y2="158" stroke="black" stroke-width="1" />
<line x1="317" y1="158" x2="322" y2="156" stroke="black" stroke-width="1" />
<rect x="276" y="154" width="36" height="5" style="fill:#5d3c2d;stroke:black;stroke-width:1;fill-opacity:1;stroke-opacity:0.3" />
<rect x="322" y="154" width="32" height="5" style="fill:#5d3c2d;stroke:black;stroke-width:1;fill-opacity:1;stroke-opacity:0.3" />
<line x1="355" y1="156" x2="3059" y2="156" stroke="pink" stroke-width="1" />
<rect x="3059" y="154" width="2" height="5" style="fill:#5d3c2d;stroke:black;stroke-width:1;fill-opacity:1;stroke-opacity:0.3" />
<line x1="312" y1="30" x2="316" y2="32" stroke="black" stroke-width="1" />
<line x1="316" y1="32" x2="320" y2="30" stroke="black" stroke-width="1" />
<rect x="276" y="28" width="36" height="5" style="fill:#5d3c2d;stroke:black;stroke-width:1;fill-opacity:1;stroke-opacity:0.3" />
<rect x="320" y="28" width="34" height="5" style="fill:#5d3c2d;stroke:black;stroke-width:1;fill-opacity:1;stroke-opacity:0.3" />
<line x1="355" y1="30" x2="3059" y2="30" stroke="pink" stroke-width="1" />
<rect x="3059" y="28" width="1" height="5" style="fill:#5d3c2d;stroke:black;stroke-width:1;fill-opacity:1;stroke-opacity:0.3" />
<line x1="313" y1="135" x2="317" y2="137" stroke="black" stroke-width="1" />
<line x1="317" y1="137" x2="321" y2="135" stroke="black" stroke-width="1" />
<rect x="277" y="133" width="36" height="5" style="fill:#5d3c2d;stroke:black;stroke-width:1;fill-opacity:1;stroke-opacity:0.3" />
<rect x="321" y="133" width="36" height="5" style="fill:#5d3c2d;stroke:black;stroke-width:1;fill-opacity:1;stroke-opacity:0.3" />
<line x1="316" y1="93" x2="318" y2="95" stroke="black" stroke-width="1" />
<line x1="318" y1="95" x2="321" y2="93" stroke="black" stroke-width="1" />
<rect x="280" y="91" width="36" height="5" style="fill:#5d3c2d;stroke:black;stroke-width:1;fill-opacity:1;stroke-opacity:0.3" />
<rect x="321" y="91" width="36" height="5" style="fill:#5d3c2d;stroke:black;stroke-width:1;fill-opacity:1;stroke-opacity:0.3" />
<line x1="324" y1="100" x2="363" y2="102" stroke="black" stroke-width="1" />
<line x1="363" y1="102" x2="403" y2="100" stroke="black" stroke-width="1" />
<rect x="288" y="98" width="36" height="5" style="fill:#5d3c2d;stroke:black;stroke-width:1;fill-opacity:1;stroke-opacity:0.3" />
<rect x="403" y="98" width="0" height="5" style="fill:#5d3c2d;stroke:black;stroke-width:1;fill-opacity:1;stroke-opacity:0.3" />
<line x1="403" y1="100" x2="3049" y2="100" stroke="pink" stroke-width="1" />
<rect x="3049" y="98" width="35" height="5" style="fill:#5d3c2d;stroke:black;stroke-width:1;fill-opacity:1;stroke-opacity:0.3" />
<line x1="324" y1="149" x2="326" y2="151" stroke="black" stroke-width="1" />
<line x1="326" y1="151" x2="329" y2="149" stroke="black" stroke-width="1" />
<rect x="288" y="147" width="36" height="5" style="fill:#5d3c2d;stroke:black;stroke-width:1;fill-opacity:1;stroke-opacity:0.3" />
<rect x="329" y="147" width="25" height="5" style="fill:#5d3c2d;stroke:black;stroke-width:1;fill-opacity:1;stroke-opacity:0.3" />
<line x1="355" y1="149" x2="3059" y2="149" stroke="pink" stroke-width="1" />
<rect x="3059" y="147" width="9" height="5" style="fill:#5d3c2d;stroke:black;stroke-width:1;fill-opacity:1;stroke-opacity:0.3" />
<line x1="324" y1="37" x2="326" y2="39" stroke="black" stroke-width="1" />
<line x1="326" y1="39" x2="329" y2="37" stroke="black" stroke-width="1" />
<rect x="288" y="35" width="36" height="5" style="fill:#5d3c2d;stroke:black;stroke-width:1;fill-opacity:1;stroke-opacity:0.3" />
<rect x="329" y="35" width="36" height="5" style="fill:#5d3c2d;stroke:black;stroke-width:1;fill-opacity:1;stroke-opacity:0.3" />
<line x1="324" y1="51" x2="326" y2="53" stroke="black" stroke-width="1" />
<line x1="326" y1="53" x2="329" y2="51" stroke="black" stroke-width="1" />
<rect x="288" y="49" width="36" height="5" style="fill:#5d3c2d;stroke:black;stroke-width:1;fill-opacity:1;stroke-opacity:0.3" />
<rect x="329" y="49" width="35" height="5" style="fill:#5d3c2d;stroke:black;stroke-width:1;fill-opacity:1;stroke-opacity:0.3" />
<line x1="324" y1="79" x2="326" y2="81" stroke="black" stroke-width="1" />
<line x1="326" y1="81" x2="328" y2="79" stroke="black" stroke-width="1" />
<rect x="288" y="77" width="36" height="5" style="fill:#5d3c2d;stroke:black;stroke-width:1;fill-opacity:1;stroke-opacity:0.3" />
<rect x="328" y="77" width="36" height="5" style="fill:#5d3c2d;stroke:black;stroke-width:1;fill-opacity:1;stroke-opacity:0.3" />
<line x1="325" y1="86" x2="328" y2="88" stroke="black" stroke-width="1" />
<line x1="328" y1="88" x2="332" y2="86" stroke="black" stroke-width="1" />
<rect x="289" y="84" width="36" height="5" style="fill:#5d3c2d;stroke:black;stroke-width:1;fill-opacity:1;stroke-opacity:0.3" />
<rect x="332" y="84" width="36" height="5" style="fill:#5d3c2d;stroke:black;stroke-width:1;fill-opacity:1;stroke-opacity:0.3" />
<line x1="325" y1="107" x2="328" y2="109" stroke="black" stroke-width="1" />
<line x1="328" y1="109" x2="332" y2="107" stroke="black" stroke-width="1" />
<rect x="289" y="105" width="36" height="5" style="fill:#5d3c2d;stroke:black;stroke-width:1;fill-opacity:1;stroke-opacity:0.3" />
<rect x="332" y="105" width="22" height="5" style="fill:#5d3c2d;stroke:black;stroke-width:1;fill-opacity:1;stroke-opacity:0.3" />
<line x1="355" y1="107" x2="3059" y2="107" stroke="pink" stroke-width="1" />
<rect x="3059" y="105" width="13" height="5" style="fill:#5d3c2d;stroke:black;stroke-width:1;fill-opacity:1;stroke-opacity:0.3" />
<line x1="326" y1="163" x2="364" y2="165" stroke="black" stroke-width="1" />
<line x1="364" y1="165" x2="403" y2="163" stroke="black" stroke-width="1" />
<rect x="290" y="161" width="36" height="5" style="fill:#5d3c2d;stroke:black;stroke-width:1;fill-opacity:1;stroke-opacity:0.3" />
<rect x="403" y="161" width="0" height="5" style="fill:#5d3c2d;stroke:black;stroke-width:1;fill-opacity:1;stroke-opacity:0.3" />
<line x1="403" y1="163" x2="3049" y2="163" stroke="pink" stroke-width="1" />
<rect x="3049" y="161" width="35" height="5" style="fill:#5d3c2d;stroke:black;stroke-width:1;fill-opacity:1;stroke-opacity:0.3" />
<line x1="326" y1="121" x2="331" y2="123" stroke="black" stroke-width="1" />
<line x1="331" y1="123" x2="336" y2="121" stroke="black" stroke-width="1" />
<rect x="290" y="119" width="36" height="5" style="fill:#5d3c2d;stroke:black;stroke-width:1;fill-opacity:1;stroke-opacity:0.3" />
<rect x="336" y="119" width="36" height="5" style="fill:#5d3c2d;stroke:black;stroke-width:1;fill-opacity:1;stroke-opacity:0.3" />
<line x1="332" y1="142" x2="337" y2="144" stroke="black" stroke-width="1" />
<line x1="337" y1="144" x2="343" y2="142" stroke="black" stroke-width="1" />
<rect x="296" y="140" width="36" height="5" style="fill:#5d3c2d;stroke:black;stroke-width:1;fill-opacity:1;stroke-opacity:0.3" />
<rect x="343" y="140" width="36" height="5" style="fill:#5d3c2d;stroke:black;stroke-width:1;fill-opacity:1;stroke-opacity:0.3" />
<line x1="359" y1="128" x2="373" y2="130" stroke="black" stroke-width="1" />
<line x1="373" y1="130" x2="388" y2="128" stroke="black" stroke-width="1" />
<rect x="322" y="126" width="36" height="5" style="fill:#5d3c2d;stroke:black;stroke-width:1;fill-opacity:1;stroke-opacity:0.3" />
<rect x="388" y="126" width="36" height="5" style="fill:#5d3c2d;stroke:black;stroke-width:1;fill-opacity:1;stroke-opacity:0.3" />
<line x1="369" y1="58" x2="386" y2="60" stroke="black" stroke-width="1" />
<line x1="386" y1="60" x2="403" y2="58" stroke="black" stroke-width="1" />
<rect x="333" y="56" width="36" height="5" style="fill:#5d3c2d;stroke:black;stroke-width:1;fill-opacity:1;stroke-opacity:0.3" />
<rect x="403" y="56" width="0" height="5" style="fill:#5d3c2d;stroke:black;stroke-width:1;fill-opacity:1;stroke-opacity:0.3" />
<line x1="403" y1="58" x2="3049" y2="58" stroke="pink" stroke-width="1" />
<rect x="3049" y="56" width="35" height="5" style="fill:#5d3c2d;stroke:black;stroke-width:1;fill-opacity:1;stroke-opacity:0.3" />
<line x1="372" y1="72" x2="384" y2="74" stroke="black" stroke-width="1" />
<line x1="384" y1="74" x2="396" y2="72" stroke="black" stroke-width="1" />
<rect x="336" y="70" width="36" height="5" style="fill:#5d3c2d;stroke:black;stroke-width:1;fill-opacity:1;stroke-opacity:0.3" />
<rect x="396" y="70" width="33" height="5" style="fill:#5d3c2d;stroke:black;stroke-width:1;fill-opacity:1;stroke-opacity:0.3" />
<line x1="430" y1="72" x2="3074" y2="72" stroke="pink" stroke-width="1" />
<rect x="3074" y="70" width="2" height="5" style="fill:#5d3c2d;stroke:black;stroke-width:1;fill-opacity:1;stroke-opacity:0.3" />
<line x1="393" y1="93" x2="397" y2="95" stroke="black" stroke-width="1" />
<line x1="397" y1="95" x2="402" y2="93" stroke="black" stroke-width="1" />
<rect x="357" y="91" width="36" height="5" style="fill:#5d3c2d;stroke:black;stroke-width:1;fill-opacity:1;stroke-opacity:0.3" />
<rect x="402" y="91" width="33" height="5" style="fill:#5d3c2d;stroke:black;stroke-width:1;fill-opacity:1;stroke-opacity:0.3" />
<line x1="436" y1="93" x2="3102" y2="93" stroke="pink" stroke-width="1" />
<rect x="3102" y="91" width="2" height="5" style="fill:#5d3c2d;stroke:black;stroke-width:1;fill-opacity:1;stroke-opacity:0.3" />
<line x1="394" y1="135" x2="414" y2="137" stroke="black" stroke-width="1" />
<line x1="414" y1="137" x2="434" y2="135" stroke="black" stroke-width="1" />
<rect x="357" y="133" width="36" height="5" style="fill:#5d3c2d;stroke:black;stroke-width:1;fill-opacity:1;stroke-opacity:0.3" />
<rect x="434" y="133" width="1" height="5" style="fill:#5d3c2d;stroke:black;stroke-width:1;fill-opacity:1;stroke-opacity:0.3" />
<line x1="435" y1="135" x2="3114" y2="135" stroke="pink" stroke-width="1" />
<rect x="3114" y="133" width="34" height="5" style="fill:#5d3c2d;stroke:black;stroke-width:1;fill-opacity:1;stroke-opacity:0.3" />
<line x1="400" y1="79" x2="404" y2="81" stroke="black" stroke-width="1" />
<line x1="404" y1="81" x2="408" y2="79" stroke="black" stroke-width="1" />
<rect x="364" y="77" width="36" height="5" style="fill:#5d3c2d;stroke:black;stroke-width:1;fill-opacity:1;stroke-opacity:0.3" />
<rect x="408" y="77" width="36" height="5" style="fill:#5d3c2d;stroke:black;stroke-width:1;fill-opacity:1;stroke-opacity:0.3" />
<line x1="400" y1="51" x2="417" y2="53" stroke="black" stroke-width="1" />
<line x1="417" y1="53" x2="434" y2="51" stroke="black" stroke-width="1" />
<rect x="364" y="49" width="36" height="5" style="fill:#5d3c2d;stroke:black;stroke-width:1;fill-opacity:1;stroke-opacity:0.3" />
<rect x="434" y="49" width="1" height="5" style="fill:#5d3c2d;stroke:black;stroke-width:1;fill-opacity:1;stroke-opacity:0.3" />
<line x1="435" y1="51" x2="3114" y2="51" stroke="pink" stroke-width="1" />
<rect x="3114" y="49" width="34" height="5" style="fill:#5d3c2d;stroke:black;stroke-width:1;fill-opacity:1;stroke-opacity:0.3" />
<line x1="401" y1="37" x2="403" y2="39" stroke="black" stroke-width="1" />
<line x1="403" y1="39" x2="405" y2="37" stroke="black" stroke-width="1" />
<rect x="365" y="35" width="36" height="5" style="fill:#5d3c2d;stroke:black;stroke-width:1;fill-opacity:1;stroke-opacity:0.3" />
<rect x="405" y="35" width="36" height="5" style="fill:#5d3c2d;stroke:black;stroke-width:1;fill-opacity:1;stroke-opacity:0.3" />
<line x1="404" y1="86" x2="411" y2="88" stroke="black" stroke-width="1" />
<line x1="411" y1="88" x2="419" y2="86" stroke="black" stroke-width="1" />
<rect x="368" y="84" width="36" height="5" style="fill:#5d3c2d;stroke:black;stroke-width:1;fill-opacity:1;stroke-opacity:0.3" />
<rect x="419" y="84" width="36" height="5" style="fill:#5d3c2d;stroke:black;stroke-width:1;fill-opacity:1;stroke-opacity:0.3" />
<line x1="408" y1="121" x2="421" y2="123" stroke="black" stroke-width="1" />
<line x1="421" y1="123" x2="434" y2="121" stroke="black" stroke-width="1" />
<rect x="372" y="119" width="36" height="5" style="fill:#5d3c2d;stroke:black;stroke-width:1;fill-opacity:1;stroke-opacity:0.3" />
<rect x="434" y="119" width="1" height="5" style="fill:#5d3c2d;stroke:black;stroke-width:1;fill-opacity:1;stroke-opacity:0.3" />
<line x1="435" y1="121" x2="3114" y2="121" stroke="pink" stroke-width="1" />
<rect x="3114" y="119" width="28" height="5" style="fill:#5d3c2d;stroke:black;stroke-width:1;fill-opacity:1;stroke-opacity:0.3" />
<rect x="3143" y="119" width="5" height="5" style="fill:#5d3c2d;stroke:black;stroke-width:1;fill-opacity:1;stroke-opacity:0.3" />
<line x1="415" y1="142" x2="424" y2="144" stroke="black" stroke-width="1" />
<line x1="424" y1="144" x2="434" y2="142" stroke="black" stroke-width="1" />
<rect x="379" y="140" width="36" height="5" style="fill:#5d3c2d;stroke:black;stroke-width:1;fill-opacity:1;stroke-opacity:0.3" />
<rect x="434" y="140" width="1" height="5" style="fill:#5d3c2d;stroke:black;stroke-width:1;fill-opacity:1;stroke-opacity:0.3" />
<line x1="435" y1="142" x2="3105" y2="142" stroke="pink" stroke-width="1" />
<rect x="3105" y="140" width="34" height="5" style="fill:#5d3c2d;stroke:black;stroke-width:1;fill-opacity:1;stroke-opacity:0.3" />
<line x1="460" y1="128" x2="468" y2="130" stroke="black" stroke-width="1" />
<line x1="468" y1="130" x2="476" y2="128" stroke="black" stroke-width="1" />
<rect x="424" y="126" width="36" height="5" style="fill:#5d3c2d;stroke:black;stroke-width:1;fill-opacity:1;stroke-opacity:0.3" />
<rect x="476" y="126" width="0" height="5" style="fill:#5d3c2d;stroke:black;stroke-width:1;fill-opacity:1;stroke-opacity:0.3" />
<line x1="476" y1="128" x2="3141" y2="128" stroke="pink" stroke-width="1" />
<rect x="3141" y="126" width="35" height="5" style="fill:#5d3c2d;stroke:black;stroke-width:1;fill-opacity:1;stroke-opacity:0.3" />
<line x1="478" y1="37" x2="481" y2="39" stroke="black" stroke-width="1" />
<line x1="481" y1="39" x2="484" y2="37" stroke="black" stroke-width="1" />
<rect x="441" y="35" width="36" height="5" style="fill:#5d3c2d;stroke:black;stroke-width:1;fill-opacity:1;stroke-opacity:0.3" />
<rect x="484" y="35" width="36" height="5" style="fill:#5d3c2d;stroke:black;stroke-width:1;fill-opacity:1;stroke-opacity:0.3" />
<line x1="480" y1="79" x2="482" y2="81" stroke="black" stroke-width="1" />
<line x1="482" y1="81" x2="484" y2="79" stroke="black" stroke-width="1" />
<rect x="444" y="77" width="36" height="5" style="fill:#5d3c2d;stroke:black;stroke-width:1;fill-opacity:1;stroke-opacity:0.3" />
<rect x="484" y="77" width="36" height="5" style="fill:#5d3c2d;stroke:black;stroke-width:1;fill-opacity:1;stroke-opacity:0.3" />
<line x1="491" y1="86" x2="502" y2="88" stroke="black" stroke-width="1" />
<line x1="502" y1="88" x2="513" y2="86" stroke="black" stroke-width="1" />
<rect x="455" y="84" width="36" height="5" style="fill:#5d3c2d;stroke:black;stroke-width:1;fill-opacity:1;stroke-opacity:0.3" />
<rect x="513" y="84" width="3" height="5" style="fill:#5d3c2d;stroke:black;stroke-width:1;fill-opacity:1;stroke-opacity:0.3" />
<line x1="516" y1="86" x2="3220" y2="86" stroke="pink" stroke-width="1" />
<rect x="3220" y="84" width="32" height="5" style="fill:#5d3c2d;stroke:black;stroke-width:1;fill-opacity:1;stroke-opacity:0.3" />
<line x1="556" y1="79" x2="568" y2="81" stroke="black" stroke-width="1" />
<line x1="568" y1="81" x2="580" y2="79" stroke="black" stroke-width="1" />
<rect x="520" y="77" width="36" height="5" style="fill:#5d3c2d;stroke:black;stroke-width:1;fill-opacity:1;stroke-opacity:0.3" />
<rect x="580" y="77" width="0" height="5" style="fill:#5d3c2d;stroke:black;stroke-width:1;fill-opacity:1;stroke-opacity:0.3" />
<line x1="581" y1="79" x2="3253" y2="79" stroke="pink" stroke-width="1" />
<rect x="3253" y="77" width="35" height="5" style="fill:#5d3c2d;stroke:black;stroke-width:1;fill-opacity:1;stroke-opacity:0.3" />
<line x1="556" y1="37" x2="574" y2="39" stroke="black" stroke-width="1" />
<line x1="574" y1="39" x2="592" y2="37" stroke="black" stroke-width="1" />
<rect x="520" y="35" width="36" height="5" style="fill:#5d3c2d;stroke:black;stroke-width:1;fill-opacity:1;stroke-opacity:0.3" />
<rect x="592" y="35" width="0" height="5" style="fill:#5d3c2d;stroke:black;stroke-width:1;fill-opacity:1;stroke-opacity:0.3" />
<line x1="593" y1="37" x2="3253" y2="37" stroke="pink" stroke-width="1" />
<rect x="3253" y="35" width="35" height="5" style="fill:#5d3c2d;stroke:black;stroke-width:1;fill-opacity:1;stroke-opacity:0.3" />
<text x="15"  y="176" style="font-family:Arial;font-size:10;stroke:black;fill:black;">all.merged.bam</text>
</svg>
    
