<?xml version="1.0" encoding="utf-8" standalone="no"?>
<!DOCTYPE svg PUBLIC "-//W3C//DTD SVG 1.1//EN"
  "http://www.w3.org/Graphics/SVG/1.1/DTD/svg11.dtd">
<svg height="1140" width="1000" version="1.1" viewBox="0 0 1000 1140" xmlns="http://www.w3.org/2000/svg" xmlns:xlink="http://www.w3.org/1999/xlink">
<line x1="30" y1="11" x2="969" y2="11" stroke="black" stroke-width="1" />
<rect x="30" y="9" width="41" height="5" style="fill:#f50002;stroke:black;stroke-width:1;fill-opacity:1;stroke-opacity:0.3" />
<rect x="72" y="9" width="41" height="5" style="fill:#53a1b5;stroke:black;stroke-width:1;fill-opacity:1;stroke-opacity:0.3" />
<rect x="165" y="9" width="41" height="5" style="fill:#53a1b5;stroke:black;stroke-width:1;fill-opacity:1;stroke-opacity:0.3" />
<rect x="292" y="9" width="86" height="5" style="fill:#53a1b5;stroke:black;stroke-width:1;fill-opacity:1;stroke-opacity:0.3" />
<rect x="379" y="9" width="231" height="5" style="fill:#f50002;stroke:black;stroke-width:1;fill-opacity:1;stroke-opacity:0.3" />
<rect x="684" y="9" width="284" height="5" style="fill:#f50002;stroke:black;stroke-width:1;fill-opacity:1;stroke-opacity:0.3" />
<text x="30"  y="23" style="font-family:Arial;font-size:10;stroke:black;fill:black;">Cre17.g719100.t1.2.v5.5 (+) chromosome_17:2825282-2828383</text>
<line x1="31" y1="30" x2="38" y2="32" stroke="black" stroke-width="1" />
<line x1="38" y1="32" x2="45" y2="30" stroke="black" stroke-width="1" />
<rect x="1" y="28" width="30" height="5" style="fill:#5d3c2d;stroke:black;stroke-width:1;fill-opacity:1;stroke-opacity:0.3" />
<rect x="45" y="28" width="30" height="5" style="fill:#5d3c2d;stroke:black;stroke-width:1;fill-opacity:1;stroke-opacity:0.3" />
<line x1="43" y1="37" x2="52" y2="39" stroke="black" stroke-width="1" />
<line x1="52" y1="39" x2="62" y2="37" stroke="black" stroke-width="1" />
<rect x="13" y="35" width="30" height="5" style="fill:#5d3c2d;stroke:black;stroke-width:1;fill-opacity:1;stroke-opacity:0.3" />
<rect x="62" y="35" width="30" height="5" style="fill:#5d3c2d;stroke:black;stroke-width:1;fill-opacity:1;stroke-opacity:0.3" />
<line x1="65" y1="44" x2="67" y2="46" stroke="black" stroke-width="1" />
<line x1="67" y1="46" x2="69" y2="44" stroke="black" stroke-width="1" />
<rect x="35" y="42" width="30" height="5" style="fill:#5d3c2d;stroke:black;stroke-width:1;fill-opacity:1;stroke-opacity:0.3" />
<rect x="69" y="42" width="30" height="5" style="fill:#5d3c2d;stroke:black;stroke-width:1;fill-opacity:1;stroke-opacity:0.3" />
<line x1="83" y1="51" x2="85" y2="53" stroke="black" stroke-width="1" />
<line x1="85" y1="53" x2="88" y2="51" stroke="black" stroke-width="1" />
<rect x="37" y="49" width="45" height="5" style="fill:#5d3c2d;stroke:black;stroke-width:1;fill-opacity:1;stroke-opacity:0.3" />
<rect x="88" y="49" width="25" height="5" style="fill:#5d3c2d;stroke:black;stroke-width:1;fill-opacity:1;stroke-opacity:0.3" />
<line x1="113" y1="51" x2="165" y2="51" stroke="pink" stroke-width="1" />
<rect x="165" y="49" width="19" height="5" style="fill:#5d3c2d;stroke:black;stroke-width:1;fill-opacity:1;stroke-opacity:0.3" />
<line x1="76" y1="58" x2="82" y2="60" stroke="black" stroke-width="1" />
<line x1="82" y1="60" x2="88" y2="58" stroke="black" stroke-width="1" />
<rect x="46" y="56" width="30" height="5" style="fill:#5d3c2d;stroke:black;stroke-width:1;fill-opacity:1;stroke-opacity:0.3" />
<rect x="88" y="56" width="25" height="5" style="fill:#5d3c2d;stroke:black;stroke-width:1;fill-opacity:1;stroke-opacity:0.3" />
<line x1="113" y1="58" x2="165" y2="58" stroke="pink" stroke-width="1" />
<rect x="165" y="56" width="4" height="5" style="fill:#5d3c2d;stroke:black;stroke-width:1;fill-opacity:1;stroke-opacity:0.3" />
<line x1="83" y1="65" x2="87" y2="67" stroke="black" stroke-width="1" />
<line x1="87" y1="67" x2="92" y2="65" stroke="black" stroke-width="1" />
<rect x="53" y="63" width="30" height="5" style="fill:#5d3c2d;stroke:black;stroke-width:1;fill-opacity:1;stroke-opacity:0.3" />
<rect x="92" y="63" width="20" height="5" style="fill:#5d3c2d;stroke:black;stroke-width:1;fill-opacity:1;stroke-opacity:0.3" />
<line x1="113" y1="65" x2="165" y2="65" stroke="pink" stroke-width="1" />
<rect x="165" y="63" width="9" height="5" style="fill:#5d3c2d;stroke:black;stroke-width:1;fill-opacity:1;stroke-opacity:0.3" />
<line x1="87" y1="72" x2="89" y2="74" stroke="black" stroke-width="1" />
<line x1="89" y1="74" x2="92" y2="72" stroke="black" stroke-width="1" />
<rect x="57" y="70" width="30" height="5" style="fill:#5d3c2d;stroke:black;stroke-width:1;fill-opacity:1;stroke-opacity:0.3" />
<rect x="92" y="70" width="21" height="5" style="fill:#5d3c2d;stroke:black;stroke-width:1;fill-opacity:1;stroke-opacity:0.3" />
<line x1="113" y1="72" x2="165" y2="72" stroke="pink" stroke-width="1" />
<rect x="165" y="70" width="9" height="5" style="fill:#5d3c2d;stroke:black;stroke-width:1;fill-opacity:1;stroke-opacity:0.3" />
<line x1="88" y1="79" x2="97" y2="81" stroke="black" stroke-width="1" />
<line x1="97" y1="81" x2="107" y2="79" stroke="black" stroke-width="1" />
<rect x="58" y="77" width="30" height="5" style="fill:#5d3c2d;stroke:black;stroke-width:1;fill-opacity:1;stroke-opacity:0.3" />
<rect x="107" y="77" width="6" height="5" style="fill:#5d3c2d;stroke:black;stroke-width:1;fill-opacity:1;stroke-opacity:0.3" />
<line x1="113" y1="79" x2="165" y2="79" stroke="pink" stroke-width="1" />
<rect x="165" y="77" width="23" height="5" style="fill:#5d3c2d;stroke:black;stroke-width:1;fill-opacity:1;stroke-opacity:0.3" />
<line x1="105" y1="86" x2="109" y2="88" stroke="black" stroke-width="1" />
<line x1="109" y1="88" x2="113" y2="86" stroke="black" stroke-width="1" />
<rect x="75" y="84" width="30" height="5" style="fill:#5d3c2d;stroke:black;stroke-width:1;fill-opacity:1;stroke-opacity:0.3" />
<rect x="113" y="84" width="0" height="5" style="fill:#5d3c2d;stroke:black;stroke-width:1;fill-opacity:1;stroke-opacity:0.3" />
<line x1="113" y1="86" x2="165" y2="86" stroke="pink" stroke-width="1" />
<rect x="165" y="84" width="29" height="5" style="fill:#5d3c2d;stroke:black;stroke-width:1;fill-opacity:1;stroke-opacity:0.3" />
<line x1="165" y1="30" x2="179" y2="32" stroke="black" stroke-width="1" />
<line x1="179" y1="32" x2="193" y2="30" stroke="black" stroke-width="1" />
<rect x="83" y="28" width="29" height="5" style="fill:#5d3c2d;stroke:black;stroke-width:1;fill-opacity:1;stroke-opacity:0.3" />
<line x1="113" y1="30" x2="165" y2="30" stroke="pink" stroke-width="1" />
<rect x="165" y="28" width="0" height="5" style="fill:#5d3c2d;stroke:black;stroke-width:1;fill-opacity:1;stroke-opacity:0.3" />
<rect x="193" y="28" width="13" height="5" style="fill:#5d3c2d;stroke:black;stroke-width:1;fill-opacity:1;stroke-opacity:0.3" />
<line x1="206" y1="30" x2="292" y2="30" stroke="pink" stroke-width="1" />
<rect x="292" y="28" width="16" height="5" style="fill:#5d3c2d;stroke:black;stroke-width:1;fill-opacity:1;stroke-opacity:0.3" />
<line x1="170" y1="93" x2="178" y2="95" stroke="black" stroke-width="1" />
<line x1="178" y1="95" x2="187" y2="93" stroke="black" stroke-width="1" />
<rect x="89" y="91" width="24" height="5" style="fill:#5d3c2d;stroke:black;stroke-width:1;fill-opacity:1;stroke-opacity:0.3" />
<line x1="113" y1="93" x2="165" y2="93" stroke="pink" stroke-width="1" />
<rect x="165" y="91" width="5" height="5" style="fill:#5d3c2d;stroke:black;stroke-width:1;fill-opacity:1;stroke-opacity:0.3" />
<rect x="187" y="91" width="19" height="5" style="fill:#5d3c2d;stroke:black;stroke-width:1;fill-opacity:1;stroke-opacity:0.3" />
<line x1="206" y1="93" x2="292" y2="93" stroke="pink" stroke-width="1" />
<rect x="292" y="91" width="10" height="5" style="fill:#5d3c2d;stroke:black;stroke-width:1;fill-opacity:1;stroke-opacity:0.3" />
<line x1="172" y1="100" x2="174" y2="102" stroke="black" stroke-width="1" />
<line x1="174" y1="102" x2="176" y2="100" stroke="black" stroke-width="1" />
<rect x="90" y="98" width="23" height="5" style="fill:#5d3c2d;stroke:black;stroke-width:1;fill-opacity:1;stroke-opacity:0.3" />
<line x1="113" y1="100" x2="165" y2="100" stroke="pink" stroke-width="1" />
<rect x="165" y="98" width="6" height="5" style="fill:#5d3c2d;stroke:black;stroke-width:1;fill-opacity:1;stroke-opacity:0.3" />
<rect x="176" y="98" width="29" height="5" style="fill:#5d3c2d;stroke:black;stroke-width:1;fill-opacity:1;stroke-opacity:0.3" />
<line x1="185" y1="37" x2="189" y2="39" stroke="black" stroke-width="1" />
<line x1="189" y1="39" x2="194" y2="37" stroke="black" stroke-width="1" />
<rect x="104" y="35" width="9" height="5" style="fill:#f5b024;stroke:black;stroke-width:1;fill-opacity:1;stroke-opacity:0.3" />
<line x1="113" y1="37" x2="165" y2="37" stroke="pink" stroke-width="1" />
<rect x="165" y="35" width="20" height="5" style="fill:#f5b024;stroke:black;stroke-width:1;fill-opacity:1;stroke-opacity:0.3" />
<rect x="194" y="35" width="12" height="5" style="fill:#f5b024;stroke:black;stroke-width:1;fill-opacity:1;stroke-opacity:0.3" />
<line x1="206" y1="37" x2="292" y2="37" stroke="pink" stroke-width="1" />
<rect x="292" y="35" width="17" height="5" style="fill:#f5b024;stroke:black;stroke-width:1;fill-opacity:1;stroke-opacity:0.3" />
<line x1="186" y1="44" x2="250" y2="46" stroke="black" stroke-width="1" />
<line x1="250" y1="46" x2="315" y2="44" stroke="black" stroke-width="1" />
<rect x="105" y="42" width="8" height="5" style="fill:#5d3c2d;stroke:black;stroke-width:1;fill-opacity:1;stroke-opacity:0.3" />
<line x1="113" y1="44" x2="165" y2="44" stroke="pink" stroke-width="1" />
<rect x="165" y="42" width="21" height="5" style="fill:#5d3c2d;stroke:black;stroke-width:1;fill-opacity:1;stroke-opacity:0.3" />
<rect x="315" y="42" width="30" height="5" style="fill:#5d3c2d;stroke:black;stroke-width:1;fill-opacity:1;stroke-opacity:0.3" />
<line x1="188" y1="107" x2="190" y2="109" stroke="black" stroke-width="1" />
<line x1="190" y1="109" x2="193" y2="107" stroke="black" stroke-width="1" />
<rect x="106" y="105" width="7" height="5" style="fill:#5d3c2d;stroke:black;stroke-width:1;fill-opacity:1;stroke-opacity:0.3" />
<line x1="113" y1="107" x2="165" y2="107" stroke="pink" stroke-width="1" />
<rect x="165" y="105" width="23" height="5" style="fill:#5d3c2d;stroke:black;stroke-width:1;fill-opacity:1;stroke-opacity:0.3" />
<rect x="193" y="105" width="13" height="5" style="fill:#5d3c2d;stroke:black;stroke-width:1;fill-opacity:1;stroke-opacity:0.3" />
<line x1="206" y1="107" x2="292" y2="107" stroke="pink" stroke-width="1" />
<rect x="292" y="105" width="17" height="5" style="fill:#5d3c2d;stroke:black;stroke-width:1;fill-opacity:1;stroke-opacity:0.3" />
<line x1="191" y1="114" x2="195" y2="116" stroke="black" stroke-width="1" />
<line x1="195" y1="116" x2="199" y2="114" stroke="black" stroke-width="1" />
<rect x="109" y="112" width="4" height="5" style="fill:#5d3c2d;stroke:black;stroke-width:1;fill-opacity:1;stroke-opacity:0.3" />
<line x1="113" y1="114" x2="165" y2="114" stroke="pink" stroke-width="1" />
<rect x="165" y="112" width="26" height="5" style="fill:#5d3c2d;stroke:black;stroke-width:1;fill-opacity:1;stroke-opacity:0.3" />
<rect x="199" y="112" width="6" height="5" style="fill:#5d3c2d;stroke:black;stroke-width:1;fill-opacity:1;stroke-opacity:0.3" />
<line x1="206" y1="114" x2="292" y2="114" stroke="pink" stroke-width="1" />
<rect x="292" y="112" width="23" height="5" style="fill:#5d3c2d;stroke:black;stroke-width:1;fill-opacity:1;stroke-opacity:0.3" />
<line x1="206" y1="58" x2="252" y2="60" stroke="black" stroke-width="1" />
<line x1="252" y1="60" x2="299" y2="58" stroke="black" stroke-width="1" />
<rect x="176" y="56" width="30" height="5" style="fill:#5d3c2d;stroke:black;stroke-width:1;fill-opacity:1;stroke-opacity:0.3" />
<rect x="299" y="56" width="30" height="5" style="fill:#5d3c2d;stroke:black;stroke-width:1;fill-opacity:1;stroke-opacity:0.3" />
<line x1="297" y1="65" x2="299" y2="67" stroke="black" stroke-width="1" />
<line x1="299" y1="67" x2="302" y2="65" stroke="black" stroke-width="1" />
<rect x="182" y="63" width="24" height="5" style="fill:#5d3c2d;stroke:black;stroke-width:1;fill-opacity:1;stroke-opacity:0.3" />
<line x1="206" y1="65" x2="292" y2="65" stroke="pink" stroke-width="1" />
<rect x="292" y="63" width="5" height="5" style="fill:#5d3c2d;stroke:black;stroke-width:1;fill-opacity:1;stroke-opacity:0.3" />
<rect x="302" y="63" width="29" height="5" style="fill:#5d3c2d;stroke:black;stroke-width:1;fill-opacity:1;stroke-opacity:0.3" />
<line x1="315" y1="72" x2="328" y2="74" stroke="black" stroke-width="1" />
<line x1="328" y1="74" x2="341" y2="72" stroke="black" stroke-width="1" />
<rect x="184" y="70" width="22" height="5" style="fill:#5d3c2d;stroke:black;stroke-width:1;fill-opacity:1;stroke-opacity:0.3" />
<line x1="206" y1="72" x2="292" y2="72" stroke="pink" stroke-width="1" />
<rect x="292" y="70" width="23" height="5" style="fill:#5d3c2d;stroke:black;stroke-width:1;fill-opacity:1;stroke-opacity:0.3" />
<rect x="341" y="70" width="45" height="5" style="fill:#5d3c2d;stroke:black;stroke-width:1;fill-opacity:1;stroke-opacity:0.3" />
<line x1="320" y1="51" x2="333" y2="53" stroke="black" stroke-width="1" />
<line x1="333" y1="53" x2="347" y2="51" stroke="black" stroke-width="1" />
<rect x="205" y="49" width="1" height="5" style="fill:#5d3c2d;stroke:black;stroke-width:1;fill-opacity:1;stroke-opacity:0.3" />
<line x1="206" y1="51" x2="292" y2="51" stroke="pink" stroke-width="1" />
<rect x="292" y="49" width="28" height="5" style="fill:#5d3c2d;stroke:black;stroke-width:1;fill-opacity:1;stroke-opacity:0.3" />
<rect x="347" y="49" width="30" height="5" style="fill:#5d3c2d;stroke:black;stroke-width:1;fill-opacity:1;stroke-opacity:0.3" />
<line x1="322" y1="79" x2="325" y2="81" stroke="black" stroke-width="1" />
<line x1="325" y1="81" x2="329" y2="79" stroke="black" stroke-width="1" />
<rect x="206" y="77" width="0" height="5" style="fill:#5d3c2d;stroke:black;stroke-width:1;fill-opacity:1;stroke-opacity:0.3" />
<line x1="206" y1="79" x2="292" y2="79" stroke="pink" stroke-width="1" />
<rect x="292" y="77" width="29" height="5" style="fill:#5d3c2d;stroke:black;stroke-width:1;fill-opacity:1;stroke-opacity:0.3" />
<rect x="329" y="77" width="30" height="5" style="fill:#5d3c2d;stroke:black;stroke-width:1;fill-opacity:1;stroke-opacity:0.3" />
<line x1="239" y1="86" x2="241" y2="88" stroke="black" stroke-width="1" />
<line x1="241" y1="88" x2="244" y2="86" stroke="black" stroke-width="1" />
<rect x="209" y="84" width="29" height="5" style="fill:#f5b024;stroke:black;stroke-width:1;fill-opacity:1;stroke-opacity:0.3" />
<rect x="244" y="84" width="30" height="5" style="fill:#f5b024;stroke:black;stroke-width:1;fill-opacity:1;stroke-opacity:0.3" />
<line x1="335" y1="86" x2="338" y2="88" stroke="black" stroke-width="1" />
<line x1="338" y1="88" x2="342" y2="86" stroke="black" stroke-width="1" />
<rect x="291" y="84" width="44" height="5" style="fill:#5d3c2d;stroke:black;stroke-width:1;fill-opacity:1;stroke-opacity:0.3" />
<rect x="342" y="84" width="44" height="5" style="fill:#5d3c2d;stroke:black;stroke-width:1;fill-opacity:1;stroke-opacity:0.3" />
<line x1="337" y1="100" x2="339" y2="102" stroke="black" stroke-width="1" />
<line x1="339" y1="102" x2="342" y2="100" stroke="black" stroke-width="1" />
<rect x="291" y="98" width="45" height="5" style="fill:#5d3c2d;stroke:black;stroke-width:1;fill-opacity:1;stroke-opacity:0.3" />
<rect x="342" y="98" width="45" height="5" style="fill:#5d3c2d;stroke:black;stroke-width:1;fill-opacity:1;stroke-opacity:0.3" />
<line x1="324" y1="121" x2="330" y2="123" stroke="black" stroke-width="1" />
<line x1="330" y1="123" x2="336" y2="121" stroke="black" stroke-width="1" />
<rect x="293" y="119" width="30" height="5" style="fill:#5d3c2d;stroke:black;stroke-width:1;fill-opacity:1;stroke-opacity:0.3" />
<rect x="336" y="119" width="30" height="5" style="fill:#5d3c2d;stroke:black;stroke-width:1;fill-opacity:1;stroke-opacity:0.3" />
<line x1="327" y1="128" x2="338" y2="130" stroke="black" stroke-width="1" />
<line x1="338" y1="130" x2="350" y2="128" stroke="black" stroke-width="1" />
<rect x="296" y="126" width="30" height="5" style="fill:#5d3c2d;stroke:black;stroke-width:1;fill-opacity:1;stroke-opacity:0.3" />
<rect x="350" y="126" width="30" height="5" style="fill:#5d3c2d;stroke:black;stroke-width:1;fill-opacity:1;stroke-opacity:0.3" />
<line x1="328" y1="135" x2="334" y2="137" stroke="black" stroke-width="1" />
<line x1="334" y1="137" x2="341" y2="135" stroke="black" stroke-width="1" />
<rect x="298" y="133" width="30" height="5" style="fill:#5d3c2d;stroke:black;stroke-width:1;fill-opacity:1;stroke-opacity:0.3" />
<rect x="341" y="133" width="30" height="5" style="fill:#5d3c2d;stroke:black;stroke-width:1;fill-opacity:1;stroke-opacity:0.3" />
<line x1="329" y1="142" x2="331" y2="144" stroke="black" stroke-width="1" />
<line x1="331" y1="144" x2="334" y2="142" stroke="black" stroke-width="1" />
<rect x="298" y="140" width="30" height="5" style="fill:#f5b024;stroke:black;stroke-width:1;fill-opacity:1;stroke-opacity:0.3" />
<rect x="334" y="140" width="30" height="5" style="fill:#f5b024;stroke:black;stroke-width:1;fill-opacity:1;stroke-opacity:0.3" />
<line x1="329" y1="149" x2="343" y2="151" stroke="black" stroke-width="1" />
<line x1="343" y1="151" x2="357" y2="149" stroke="black" stroke-width="1" />
<rect x="299" y="147" width="30" height="5" style="fill:#5d3c2d;stroke:black;stroke-width:1;fill-opacity:1;stroke-opacity:0.3" />
<rect x="357" y="147" width="30" height="5" style="fill:#5d3c2d;stroke:black;stroke-width:1;fill-opacity:1;stroke-opacity:0.3" />
<line x1="329" y1="156" x2="331" y2="158" stroke="black" stroke-width="1" />
<line x1="331" y1="158" x2="334" y2="156" stroke="black" stroke-width="1" />
<rect x="299" y="154" width="30" height="5" style="fill:#5d3c2d;stroke:black;stroke-width:1;fill-opacity:1;stroke-opacity:0.3" />
<rect x="334" y="154" width="30" height="5" style="fill:#5d3c2d;stroke:black;stroke-width:1;fill-opacity:1;stroke-opacity:0.3" />
<line x1="331" y1="163" x2="333" y2="165" stroke="black" stroke-width="1" />
<line x1="333" y1="165" x2="335" y2="163" stroke="black" stroke-width="1" />
<rect x="300" y="161" width="30" height="5" style="fill:#5d3c2d;stroke:black;stroke-width:1;fill-opacity:1;stroke-opacity:0.3" />
<rect x="335" y="161" width="29" height="5" style="fill:#5d3c2d;stroke:black;stroke-width:1;fill-opacity:1;stroke-opacity:0.3" />
<line x1="341" y1="30" x2="348" y2="32" stroke="black" stroke-width="1" />
<line x1="348" y1="32" x2="356" y2="30" stroke="black" stroke-width="1" />
<rect x="311" y="28" width="30" height="5" style="fill:#5d3c2d;stroke:black;stroke-width:1;fill-opacity:1;stroke-opacity:0.3" />
<rect x="356" y="28" width="29" height="5" style="fill:#5d3c2d;stroke:black;stroke-width:1;fill-opacity:1;stroke-opacity:0.3" />
<line x1="360" y1="37" x2="366" y2="39" stroke="black" stroke-width="1" />
<line x1="366" y1="39" x2="372" y2="37" stroke="black" stroke-width="1" />
<rect x="314" y="35" width="45" height="5" style="fill:#5d3c2d;stroke:black;stroke-width:1;fill-opacity:1;stroke-opacity:0.3" />
<rect x="372" y="35" width="45" height="5" style="fill:#5d3c2d;stroke:black;stroke-width:1;fill-opacity:1;stroke-opacity:0.3" />
<line x1="346" y1="93" x2="350" y2="95" stroke="black" stroke-width="1" />
<line x1="350" y1="95" x2="355" y2="93" stroke="black" stroke-width="1" />
<rect x="316" y="91" width="30" height="5" style="fill:#5d3c2d;stroke:black;stroke-width:1;fill-opacity:1;stroke-opacity:0.3" />
<rect x="355" y="91" width="30" height="5" style="fill:#5d3c2d;stroke:black;stroke-width:1;fill-opacity:1;stroke-opacity:0.3" />
<line x1="349" y1="107" x2="352" y2="109" stroke="black" stroke-width="1" />
<line x1="352" y1="109" x2="356" y2="107" stroke="black" stroke-width="1" />
<rect x="318" y="105" width="30" height="5" style="fill:#5d3c2d;stroke:black;stroke-width:1;fill-opacity:1;stroke-opacity:0.3" />
<rect x="356" y="105" width="30" height="5" style="fill:#5d3c2d;stroke:black;stroke-width:1;fill-opacity:1;stroke-opacity:0.3" />
<line x1="349" y1="114" x2="356" y2="116" stroke="black" stroke-width="1" />
<line x1="356" y1="116" x2="363" y2="114" stroke="black" stroke-width="1" />
<rect x="318" y="112" width="30" height="5" style="fill:#5d3c2d;stroke:black;stroke-width:1;fill-opacity:1;stroke-opacity:0.3" />
<rect x="363" y="112" width="29" height="5" style="fill:#5d3c2d;stroke:black;stroke-width:1;fill-opacity:1;stroke-opacity:0.3" />
<line x1="360" y1="58" x2="378" y2="60" stroke="black" stroke-width="1" />
<line x1="378" y1="60" x2="396" y2="58" stroke="black" stroke-width="1" />
<rect x="330" y="56" width="30" height="5" style="fill:#5d3c2d;stroke:black;stroke-width:1;fill-opacity:1;stroke-opacity:0.3" />
<rect x="396" y="56" width="29" height="5" style="fill:#5d3c2d;stroke:black;stroke-width:1;fill-opacity:1;stroke-opacity:0.3" />
<line x1="367" y1="65" x2="381" y2="67" stroke="black" stroke-width="1" />
<line x1="381" y1="67" x2="395" y2="65" stroke="black" stroke-width="1" />
<rect x="337" y="63" width="30" height="5" style="fill:#5d3c2d;stroke:black;stroke-width:1;fill-opacity:1;stroke-opacity:0.3" />
<rect x="395" y="63" width="30" height="5" style="fill:#5d3c2d;stroke:black;stroke-width:1;fill-opacity:1;stroke-opacity:0.3" />
<line x1="376" y1="44" x2="378" y2="46" stroke="black" stroke-width="1" />
<line x1="378" y1="46" x2="380" y2="44" stroke="black" stroke-width="1" />
<rect x="346" y="42" width="30" height="5" style="fill:#5d3c2d;stroke:black;stroke-width:1;fill-opacity:1;stroke-opacity:0.3" />
<rect x="380" y="42" width="30" height="5" style="fill:#5d3c2d;stroke:black;stroke-width:1;fill-opacity:1;stroke-opacity:0.3" />
<line x1="394" y1="79" x2="406" y2="81" stroke="black" stroke-width="1" />
<line x1="406" y1="81" x2="419" y2="79" stroke="black" stroke-width="1" />
<rect x="364" y="77" width="30" height="5" style="fill:#5d3c2d;stroke:black;stroke-width:1;fill-opacity:1;stroke-opacity:0.3" />
<rect x="419" y="77" width="29" height="5" style="fill:#5d3c2d;stroke:black;stroke-width:1;fill-opacity:1;stroke-opacity:0.3" />
<line x1="397" y1="121" x2="408" y2="123" stroke="black" stroke-width="1" />
<line x1="408" y1="123" x2="419" y2="121" stroke="black" stroke-width="1" />
<rect x="367" y="119" width="30" height="5" style="fill:#5d3c2d;stroke:black;stroke-width:1;fill-opacity:1;stroke-opacity:0.3" />
<rect x="419" y="119" width="29" height="5" style="fill:#5d3c2d;stroke:black;stroke-width:1;fill-opacity:1;stroke-opacity:0.3" />
<line x1="398" y1="142" x2="404" y2="144" stroke="black" stroke-width="1" />
<line x1="404" y1="144" x2="410" y2="142" stroke="black" stroke-width="1" />
<rect x="367" y="140" width="30" height="5" style="fill:#5d3c2d;stroke:black;stroke-width:1;fill-opacity:1;stroke-opacity:0.3" />
<rect x="410" y="140" width="30" height="5" style="fill:#5d3c2d;stroke:black;stroke-width:1;fill-opacity:1;stroke-opacity:0.3" />
<line x1="402" y1="135" x2="410" y2="137" stroke="black" stroke-width="1" />
<line x1="410" y1="137" x2="419" y2="135" stroke="black" stroke-width="1" />
<rect x="371" y="133" width="30" height="5" style="fill:#5d3c2d;stroke:black;stroke-width:1;fill-opacity:1;stroke-opacity:0.3" />
<rect x="419" y="133" width="30" height="5" style="fill:#5d3c2d;stroke:black;stroke-width:1;fill-opacity:1;stroke-opacity:0.3" />
<line x1="426" y1="51" x2="430" y2="53" stroke="black" stroke-width="1" />
<line x1="430" y1="53" x2="434" y2="51" stroke="black" stroke-width="1" />
<rect x="381" y="49" width="45" height="5" style="fill:#5d3c2d;stroke:black;stroke-width:1;fill-opacity:1;stroke-opacity:0.3" />
<rect x="434" y="49" width="45" height="5" style="fill:#5d3c2d;stroke:black;stroke-width:1;fill-opacity:1;stroke-opacity:0.3" />
<line x1="427" y1="128" x2="430" y2="130" stroke="black" stroke-width="1" />
<line x1="430" y1="130" x2="434" y2="128" stroke="black" stroke-width="1" />
<rect x="381" y="126" width="45" height="5" style="fill:#5d3c2d;stroke:black;stroke-width:1;fill-opacity:1;stroke-opacity:0.3" />
<rect x="434" y="126" width="45" height="5" style="fill:#5d3c2d;stroke:black;stroke-width:1;fill-opacity:1;stroke-opacity:0.3" />
<line x1="416" y1="30" x2="419" y2="32" stroke="black" stroke-width="1" />
<line x1="419" y1="32" x2="423" y2="30" stroke="black" stroke-width="1" />
<rect x="386" y="28" width="30" height="5" style="fill:#5d3c2d;stroke:black;stroke-width:1;fill-opacity:1;stroke-opacity:0.3" />
<rect x="423" y="28" width="29" height="5" style="fill:#5d3c2d;stroke:black;stroke-width:1;fill-opacity:1;stroke-opacity:0.3" />
<line x1="417" y1="72" x2="419" y2="74" stroke="black" stroke-width="1" />
<line x1="419" y1="74" x2="422" y2="72" stroke="black" stroke-width="1" />
<rect x="387" y="70" width="30" height="5" style="fill:#5d3c2d;stroke:black;stroke-width:1;fill-opacity:1;stroke-opacity:0.3" />
<rect x="422" y="70" width="30" height="5" style="fill:#5d3c2d;stroke:black;stroke-width:1;fill-opacity:1;stroke-opacity:0.3" />
<line x1="423" y1="86" x2="436" y2="88" stroke="black" stroke-width="1" />
<line x1="436" y1="88" x2="449" y2="86" stroke="black" stroke-width="1" />
<rect x="393" y="84" width="30" height="5" style="fill:#5d3c2d;stroke:black;stroke-width:1;fill-opacity:1;stroke-opacity:0.3" />
<rect x="449" y="84" width="29" height="5" style="fill:#5d3c2d;stroke:black;stroke-width:1;fill-opacity:1;stroke-opacity:0.3" />
<line x1="441" y1="44" x2="452" y2="46" stroke="black" stroke-width="1" />
<line x1="452" y1="46" x2="463" y2="44" stroke="black" stroke-width="1" />
<rect x="411" y="42" width="30" height="5" style="fill:#5d3c2d;stroke:black;stroke-width:1;fill-opacity:1;stroke-opacity:0.3" />
<rect x="463" y="42" width="30" height="5" style="fill:#5d3c2d;stroke:black;stroke-width:1;fill-opacity:1;stroke-opacity:0.3" />
<line x1="459" y1="93" x2="467" y2="95" stroke="black" stroke-width="1" />
<line x1="467" y1="95" x2="476" y2="93" stroke="black" stroke-width="1" />
<rect x="413" y="91" width="45" height="5" style="fill:#5d3c2d;stroke:black;stroke-width:1;fill-opacity:1;stroke-opacity:0.3" />
<rect x="476" y="91" width="45" height="5" style="fill:#5d3c2d;stroke:black;stroke-width:1;fill-opacity:1;stroke-opacity:0.3" />
<line x1="444" y1="100" x2="449" y2="102" stroke="black" stroke-width="1" />
<line x1="449" y1="102" x2="455" y2="100" stroke="black" stroke-width="1" />
<rect x="414" y="98" width="30" height="5" style="fill:#5d3c2d;stroke:black;stroke-width:1;fill-opacity:1;stroke-opacity:0.3" />
<rect x="455" y="98" width="30" height="5" style="fill:#5d3c2d;stroke:black;stroke-width:1;fill-opacity:1;stroke-opacity:0.3" />
<line x1="455" y1="37" x2="457" y2="39" stroke="black" stroke-width="1" />
<line x1="457" y1="39" x2="460" y2="37" stroke="black" stroke-width="1" />
<rect x="425" y="35" width="30" height="5" style="fill:#f5b024;stroke:black;stroke-width:1;fill-opacity:1;stroke-opacity:0.3" />
<rect x="460" y="35" width="30" height="5" style="fill:#f5b024;stroke:black;stroke-width:1;fill-opacity:1;stroke-opacity:0.3" />
<line x1="458" y1="58" x2="475" y2="60" stroke="black" stroke-width="1" />
<line x1="475" y1="60" x2="492" y2="58" stroke="black" stroke-width="1" />
<rect x="428" y="56" width="30" height="5" style="fill:#5d3c2d;stroke:black;stroke-width:1;fill-opacity:1;stroke-opacity:0.3" />
<rect x="492" y="56" width="30" height="5" style="fill:#5d3c2d;stroke:black;stroke-width:1;fill-opacity:1;stroke-opacity:0.3" />
<line x1="460" y1="65" x2="461" y2="67" stroke="black" stroke-width="1" />
<line x1="461" y1="67" x2="463" y2="65" stroke="black" stroke-width="1" />
<rect x="429" y="63" width="30" height="5" style="fill:#5d3c2d;stroke:black;stroke-width:1;fill-opacity:1;stroke-opacity:0.3" />
<rect x="463" y="63" width="29" height="5" style="fill:#5d3c2d;stroke:black;stroke-width:1;fill-opacity:1;stroke-opacity:0.3" />
<line x1="460" y1="107" x2="461" y2="109" stroke="black" stroke-width="1" />
<line x1="461" y1="109" x2="463" y2="107" stroke="black" stroke-width="1" />
<rect x="429" y="105" width="30" height="5" style="fill:#5d3c2d;stroke:black;stroke-width:1;fill-opacity:1;stroke-opacity:0.3" />
<rect x="463" y="105" width="29" height="5" style="fill:#5d3c2d;stroke:black;stroke-width:1;fill-opacity:1;stroke-opacity:0.3" />
<line x1="460" y1="114" x2="461" y2="116" stroke="black" stroke-width="1" />
<line x1="461" y1="116" x2="463" y2="114" stroke="black" stroke-width="1" />
<rect x="429" y="112" width="30" height="5" style="fill:#5d3c2d;stroke:black;stroke-width:1;fill-opacity:1;stroke-opacity:0.3" />
<rect x="463" y="112" width="29" height="5" style="fill:#5d3c2d;stroke:black;stroke-width:1;fill-opacity:1;stroke-opacity:0.3" />
<line x1="476" y1="142" x2="484" y2="144" stroke="black" stroke-width="1" />
<line x1="484" y1="144" x2="492" y2="142" stroke="black" stroke-width="1" />
<rect x="445" y="140" width="30" height="5" style="fill:#5d3c2d;stroke:black;stroke-width:1;fill-opacity:1;stroke-opacity:0.3" />
<rect x="492" y="140" width="29" height="5" style="fill:#5d3c2d;stroke:black;stroke-width:1;fill-opacity:1;stroke-opacity:0.3" />
<line x1="477" y1="149" x2="484" y2="151" stroke="black" stroke-width="1" />
<line x1="484" y1="151" x2="491" y2="149" stroke="black" stroke-width="1" />
<rect x="447" y="147" width="30" height="5" style="fill:#5d3c2d;stroke:black;stroke-width:1;fill-opacity:1;stroke-opacity:0.3" />
<rect x="491" y="147" width="30" height="5" style="fill:#5d3c2d;stroke:black;stroke-width:1;fill-opacity:1;stroke-opacity:0.3" />
<line x1="477" y1="156" x2="483" y2="158" stroke="black" stroke-width="1" />
<line x1="483" y1="158" x2="490" y2="156" stroke="black" stroke-width="1" />
<rect x="447" y="154" width="30" height="5" style="fill:#5d3c2d;stroke:black;stroke-width:1;fill-opacity:1;stroke-opacity:0.3" />
<rect x="490" y="154" width="29" height="5" style="fill:#5d3c2d;stroke:black;stroke-width:1;fill-opacity:1;stroke-opacity:0.3" />
<line x1="485" y1="30" x2="488" y2="32" stroke="black" stroke-width="1" />
<line x1="488" y1="32" x2="491" y2="30" stroke="black" stroke-width="1" />
<rect x="455" y="28" width="30" height="5" style="fill:#5d3c2d;stroke:black;stroke-width:1;fill-opacity:1;stroke-opacity:0.3" />
<rect x="491" y="28" width="29" height="5" style="fill:#5d3c2d;stroke:black;stroke-width:1;fill-opacity:1;stroke-opacity:0.3" />
<line x1="494" y1="72" x2="498" y2="74" stroke="black" stroke-width="1" />
<line x1="498" y1="74" x2="502" y2="72" stroke="black" stroke-width="1" />
<rect x="463" y="70" width="30" height="5" style="fill:#5d3c2d;stroke:black;stroke-width:1;fill-opacity:1;stroke-opacity:0.3" />
<rect x="502" y="70" width="30" height="5" style="fill:#5d3c2d;stroke:black;stroke-width:1;fill-opacity:1;stroke-opacity:0.3" />
<line x1="495" y1="79" x2="496" y2="81" stroke="black" stroke-width="1" />
<line x1="496" y1="81" x2="498" y2="79" stroke="black" stroke-width="1" />
<rect x="465" y="77" width="30" height="5" style="fill:#5d3c2d;stroke:black;stroke-width:1;fill-opacity:1;stroke-opacity:0.3" />
<rect x="498" y="77" width="30" height="5" style="fill:#5d3c2d;stroke:black;stroke-width:1;fill-opacity:1;stroke-opacity:0.3" />
<line x1="509" y1="121" x2="513" y2="123" stroke="black" stroke-width="1" />
<line x1="513" y1="123" x2="518" y2="121" stroke="black" stroke-width="1" />
<rect x="478" y="119" width="30" height="5" style="fill:#f5b024;stroke:black;stroke-width:1;fill-opacity:1;stroke-opacity:0.3" />
<rect x="518" y="119" width="30" height="5" style="fill:#f5b024;stroke:black;stroke-width:1;fill-opacity:1;stroke-opacity:0.3" />
<line x1="665" y1="30" x2="677" y2="32" stroke="black" stroke-width="1" />
<line x1="677" y1="32" x2="690" y2="30" stroke="black" stroke-width="1" />
<rect x="635" y="28" width="30" height="5" style="fill:#5d3c2d;stroke:black;stroke-width:1;fill-opacity:1;stroke-opacity:0.3" />
<rect x="690" y="28" width="30" height="5" style="fill:#5d3c2d;stroke:black;stroke-width:1;fill-opacity:1;stroke-opacity:0.3" />
<text x="15"  y="176" style="font-family:Arial;font-size:10;stroke:black;fill:black;">all.merged.bam</text>
</svg>
    
