<?xml version="1.0" encoding="utf-8" standalone="no"?>
<!DOCTYPE svg PUBLIC "-//W3C//DTD SVG 1.1//EN"
  "http://www.w3.org/Graphics/SVG/1.1/DTD/svg11.dtd">
<svg height="1140" width="1000" version="1.1" viewBox="0 0 1000 1140" xmlns="http://www.w3.org/2000/svg" xmlns:xlink="http://www.w3.org/1999/xlink">
<line x1="106" y1="11" x2="892" y2="11" stroke="black" stroke-width="1" />
<rect x="106" y="9" width="173" height="5" style="fill:#f50002;stroke:black;stroke-width:1;fill-opacity:1;stroke-opacity:0.3" />
<rect x="280" y="9" width="400" height="5" style="fill:#53a1b5;stroke:black;stroke-width:1;fill-opacity:1;stroke-opacity:0.3" />
<rect x="681" y="9" width="211" height="5" style="fill:#f50002;stroke:black;stroke-width:1;fill-opacity:1;stroke-opacity:0.3" />
<text x="106"  y="23" style="font-family:Arial;font-size:10;stroke:black;fill:black;">Cre17.g719150.t1.2.v5.5 (+) chromosome_17:2828432-2829173</text>
<line x1="440" y1="30" x2="489" y2="32" stroke="black" stroke-width="1" />
<line x1="489" y1="32" x2="538" y2="30" stroke="black" stroke-width="1" />
<rect x="281" y="28" width="159" height="5" style="fill:#5d3c2d;stroke:black;stroke-width:1;fill-opacity:1;stroke-opacity:0.3" />
<rect x="538" y="28" width="159" height="5" style="fill:#5d3c2d;stroke:black;stroke-width:1;fill-opacity:1;stroke-opacity:0.3" />
<line x1="474" y1="37" x2="490" y2="39" stroke="black" stroke-width="1" />
<line x1="490" y1="39" x2="507" y2="37" stroke="black" stroke-width="1" />
<rect x="315" y="35" width="159" height="5" style="fill:#5d3c2d;stroke:black;stroke-width:1;fill-opacity:1;stroke-opacity:0.3" />
<rect x="507" y="35" width="159" height="5" style="fill:#5d3c2d;stroke:black;stroke-width:1;fill-opacity:1;stroke-opacity:0.3" />
<line x1="682" y1="44" x2="700" y2="46" stroke="black" stroke-width="1" />
<line x1="700" y1="46" x2="719" y2="44" stroke="black" stroke-width="1" />
<rect x="576" y="42" width="106" height="5" style="fill:#5d3c2d;stroke:black;stroke-width:1;fill-opacity:1;stroke-opacity:0.3" />
<rect x="719" y="42" width="106" height="5" style="fill:#5d3c2d;stroke:black;stroke-width:1;fill-opacity:1;stroke-opacity:0.3" />
<line x1="707" y1="51" x2="718" y2="53" stroke="black" stroke-width="1" />
<line x1="718" y1="53" x2="729" y2="51" stroke="black" stroke-width="1" />
<rect x="602" y="49" width="104" height="5" style="fill:#5d3c2d;stroke:black;stroke-width:1;fill-opacity:1;stroke-opacity:0.3" />
<rect x="729" y="49" width="106" height="5" style="fill:#5d3c2d;stroke:black;stroke-width:1;fill-opacity:1;stroke-opacity:0.3" />
<line x1="725" y1="58" x2="734" y2="60" stroke="black" stroke-width="1" />
<line x1="734" y1="60" x2="743" y2="58" stroke="black" stroke-width="1" />
<rect x="618" y="56" width="106" height="5" style="fill:#5d3c2d;stroke:black;stroke-width:1;fill-opacity:1;stroke-opacity:0.3" />
<rect x="743" y="56" width="105" height="5" style="fill:#5d3c2d;stroke:black;stroke-width:1;fill-opacity:1;stroke-opacity:0.3" />
<line x1="728" y1="65" x2="736" y2="67" stroke="black" stroke-width="1" />
<line x1="736" y1="67" x2="745" y2="65" stroke="black" stroke-width="1" />
<rect x="622" y="63" width="106" height="5" style="fill:#5d3c2d;stroke:black;stroke-width:1;fill-opacity:1;stroke-opacity:0.3" />
<rect x="745" y="63" width="104" height="5" style="fill:#5d3c2d;stroke:black;stroke-width:1;fill-opacity:1;stroke-opacity:0.3" />
<text x="15"  y="176" style="font-family:Arial;font-size:10;stroke:black;fill:black;">all.merged.bam</text>
</svg>
    
