<?xml version="1.0" encoding="utf-8" standalone="no"?>
<!DOCTYPE svg PUBLIC "-//W3C//DTD SVG 1.1//EN"
  "http://www.w3.org/Graphics/SVG/1.1/DTD/svg11.dtd">
<svg height="1140" width="1000" version="1.1" viewBox="0 0 1000 1140" xmlns="http://www.w3.org/2000/svg" xmlns:xlink="http://www.w3.org/1999/xlink">
<line x1="19" y1="11" x2="980" y2="11" stroke="black" stroke-width="1" />
<rect x="19" y="9" width="11" height="5" style="fill:#f50002;stroke:black;stroke-width:1;fill-opacity:1;stroke-opacity:0.3" />
<rect x="31" y="9" width="37" height="5" style="fill:#53a1b5;stroke:black;stroke-width:1;fill-opacity:1;stroke-opacity:0.3" />
<rect x="123" y="9" width="4" height="5" style="fill:#53a1b5;stroke:black;stroke-width:1;fill-opacity:1;stroke-opacity:0.3" />
<rect x="306" y="9" width="36" height="5" style="fill:#53a1b5;stroke:black;stroke-width:1;fill-opacity:1;stroke-opacity:0.3" />
<rect x="420" y="9" width="31" height="5" style="fill:#53a1b5;stroke:black;stroke-width:1;fill-opacity:1;stroke-opacity:0.3" />
<rect x="470" y="9" width="5" height="5" style="fill:#53a1b5;stroke:black;stroke-width:1;fill-opacity:1;stroke-opacity:0.3" />
<rect x="499" y="9" width="11" height="5" style="fill:#53a1b5;stroke:black;stroke-width:1;fill-opacity:1;stroke-opacity:0.3" />
<rect x="526" y="9" width="14" height="5" style="fill:#53a1b5;stroke:black;stroke-width:1;fill-opacity:1;stroke-opacity:0.3" />
<rect x="571" y="9" width="33" height="5" style="fill:#53a1b5;stroke:black;stroke-width:1;fill-opacity:1;stroke-opacity:0.3" />
<rect x="629" y="9" width="49" height="5" style="fill:#53a1b5;stroke:black;stroke-width:1;fill-opacity:1;stroke-opacity:0.3" />
<rect x="705" y="9" width="21" height="5" style="fill:#53a1b5;stroke:black;stroke-width:1;fill-opacity:1;stroke-opacity:0.3" />
<rect x="756" y="9" width="14" height="5" style="fill:#53a1b5;stroke:black;stroke-width:1;fill-opacity:1;stroke-opacity:0.3" />
<rect x="792" y="9" width="60" height="5" style="fill:#53a1b5;stroke:black;stroke-width:1;fill-opacity:1;stroke-opacity:0.3" />
<rect x="853" y="9" width="126" height="5" style="fill:#f50002;stroke:black;stroke-width:1;fill-opacity:1;stroke-opacity:0.3" />
<text x="19"  y="23" style="font-family:Arial;font-size:10;stroke:black;fill:black;">Cre12.g559000.t2.1.v5.5 (+) chromosome_12:7144996-7149867</text>
<line x1="46" y1="30" x2="56" y2="32" stroke="black" stroke-width="1" />
<line x1="56" y1="32" x2="66" y2="30" stroke="black" stroke-width="1" />
<rect x="26" y="28" width="19" height="5" style="fill:#5d3c2d;stroke:black;stroke-width:1;fill-opacity:1;stroke-opacity:0.3" />
<rect x="66" y="28" width="2" height="5" style="fill:#5d3c2d;stroke:black;stroke-width:1;fill-opacity:1;stroke-opacity:0.3" />
<line x1="69" y1="30" x2="123" y2="30" stroke="pink" stroke-width="1" />
<rect x="123" y="28" width="4" height="5" style="fill:#5d3c2d;stroke:black;stroke-width:1;fill-opacity:1;stroke-opacity:0.3" />
<line x1="128" y1="30" x2="306" y2="30" stroke="pink" stroke-width="1" />
<rect x="306" y="28" width="12" height="5" style="fill:#5d3c2d;stroke:black;stroke-width:1;fill-opacity:1;stroke-opacity:0.3" />
<line x1="53" y1="37" x2="55" y2="39" stroke="black" stroke-width="1" />
<line x1="55" y1="39" x2="57" y2="37" stroke="black" stroke-width="1" />
<rect x="33" y="35" width="19" height="5" style="fill:#5d3c2d;stroke:black;stroke-width:1;fill-opacity:1;stroke-opacity:0.3" />
<rect x="57" y="35" width="11" height="5" style="fill:#5d3c2d;stroke:black;stroke-width:1;fill-opacity:1;stroke-opacity:0.3" />
<line x1="69" y1="37" x2="123" y2="37" stroke="pink" stroke-width="1" />
<rect x="123" y="35" width="4" height="5" style="fill:#5d3c2d;stroke:black;stroke-width:1;fill-opacity:1;stroke-opacity:0.3" />
<line x1="329" y1="37" x2="331" y2="39" stroke="black" stroke-width="1" />
<line x1="331" y1="39" x2="333" y2="37" stroke="black" stroke-width="1" />
<rect x="309" y="35" width="19" height="5" style="fill:#5d3c2d;stroke:black;stroke-width:1;fill-opacity:1;stroke-opacity:0.3" />
<rect x="333" y="35" width="9" height="5" style="fill:#5d3c2d;stroke:black;stroke-width:1;fill-opacity:1;stroke-opacity:0.3" />
<line x1="343" y1="37" x2="370" y2="37" stroke="pink" stroke-width="1" />
<rect x="370" y="35" width="9" height="5" style="fill:#5d3c2d;stroke:black;stroke-width:1;fill-opacity:1;stroke-opacity:0.3" />
<line x1="343" y1="30" x2="356" y2="32" stroke="black" stroke-width="1" />
<line x1="356" y1="32" x2="370" y2="30" stroke="black" stroke-width="1" />
<rect x="325" y="28" width="18" height="5" style="fill:#5d3c2d;stroke:black;stroke-width:1;fill-opacity:1;stroke-opacity:0.3" />
<rect x="370" y="28" width="9" height="5" style="fill:#5d3c2d;stroke:black;stroke-width:1;fill-opacity:1;stroke-opacity:0.3" />
<line x1="379" y1="30" x2="420" y2="30" stroke="pink" stroke-width="1" />
<rect x="420" y="28" width="9" height="5" style="fill:#5d3c2d;stroke:black;stroke-width:1;fill-opacity:1;stroke-opacity:0.3" />
<line x1="447" y1="37" x2="458" y2="39" stroke="black" stroke-width="1" />
<line x1="458" y1="39" x2="470" y2="37" stroke="black" stroke-width="1" />
<rect x="428" y="35" width="19" height="5" style="fill:#5d3c2d;stroke:black;stroke-width:1;fill-opacity:1;stroke-opacity:0.3" />
<rect x="470" y="35" width="4" height="5" style="fill:#5d3c2d;stroke:black;stroke-width:1;fill-opacity:1;stroke-opacity:0.3" />
<line x1="475" y1="37" x2="499" y2="37" stroke="pink" stroke-width="1" />
<rect x="499" y="35" width="11" height="5" style="fill:#5d3c2d;stroke:black;stroke-width:1;fill-opacity:1;stroke-opacity:0.3" />
<line x1="510" y1="37" x2="526" y2="37" stroke="pink" stroke-width="1" />
<rect x="526" y="35" width="3" height="5" style="fill:#5d3c2d;stroke:black;stroke-width:1;fill-opacity:1;stroke-opacity:0.3" />
<line x1="447" y1="44" x2="458" y2="46" stroke="black" stroke-width="1" />
<line x1="458" y1="46" x2="470" y2="44" stroke="black" stroke-width="1" />
<rect x="428" y="42" width="19" height="5" style="fill:#5d3c2d;stroke:black;stroke-width:1;fill-opacity:1;stroke-opacity:0.3" />
<rect x="470" y="42" width="4" height="5" style="fill:#5d3c2d;stroke:black;stroke-width:1;fill-opacity:1;stroke-opacity:0.3" />
<line x1="475" y1="44" x2="499" y2="44" stroke="pink" stroke-width="1" />
<rect x="499" y="42" width="11" height="5" style="fill:#5d3c2d;stroke:black;stroke-width:1;fill-opacity:1;stroke-opacity:0.3" />
<line x1="510" y1="44" x2="526" y2="44" stroke="pink" stroke-width="1" />
<rect x="526" y="42" width="3" height="5" style="fill:#5d3c2d;stroke:black;stroke-width:1;fill-opacity:1;stroke-opacity:0.3" />
<line x1="531" y1="30" x2="533" y2="32" stroke="black" stroke-width="1" />
<line x1="533" y1="32" x2="535" y2="30" stroke="black" stroke-width="1" />
<rect x="472" y="28" width="2" height="5" style="fill:#5d3c2d;stroke:black;stroke-width:1;fill-opacity:1;stroke-opacity:0.3" />
<line x1="475" y1="30" x2="499" y2="30" stroke="pink" stroke-width="1" />
<rect x="499" y="28" width="11" height="5" style="fill:#5d3c2d;stroke:black;stroke-width:1;fill-opacity:1;stroke-opacity:0.3" />
<line x1="510" y1="30" x2="526" y2="30" stroke="pink" stroke-width="1" />
<rect x="526" y="28" width="5" height="5" style="fill:#5d3c2d;stroke:black;stroke-width:1;fill-opacity:1;stroke-opacity:0.3" />
<rect x="535" y="28" width="5" height="5" style="fill:#5d3c2d;stroke:black;stroke-width:1;fill-opacity:1;stroke-opacity:0.3" />
<line x1="540" y1="30" x2="571" y2="30" stroke="pink" stroke-width="1" />
<rect x="571" y="28" width="14" height="5" style="fill:#5d3c2d;stroke:black;stroke-width:1;fill-opacity:1;stroke-opacity:0.3" />
<line x1="635" y1="30" x2="636" y2="32" stroke="black" stroke-width="1" />
<line x1="636" y1="32" x2="638" y2="30" stroke="black" stroke-width="1" />
<rect x="591" y="28" width="14" height="5" style="fill:#f5b024;stroke:black;stroke-width:1;fill-opacity:1;stroke-opacity:0.3" />
<line x1="605" y1="30" x2="629" y2="30" stroke="pink" stroke-width="1" />
<rect x="629" y="28" width="5" height="5" style="fill:#f5b024;stroke:black;stroke-width:1;fill-opacity:1;stroke-opacity:0.3" />
<rect x="638" y="28" width="19" height="5" style="fill:#f5b024;stroke:black;stroke-width:1;fill-opacity:1;stroke-opacity:0.3" />
<line x1="714" y1="30" x2="716" y2="32" stroke="black" stroke-width="1" />
<line x1="716" y1="32" x2="718" y2="30" stroke="black" stroke-width="1" />
<rect x="668" y="28" width="10" height="5" style="fill:#5d3c2d;stroke:black;stroke-width:1;fill-opacity:1;stroke-opacity:0.3" />
<line x1="679" y1="30" x2="705" y2="30" stroke="pink" stroke-width="1" />
<rect x="705" y="28" width="8" height="5" style="fill:#5d3c2d;stroke:black;stroke-width:1;fill-opacity:1;stroke-opacity:0.3" />
<rect x="718" y="28" width="8" height="5" style="fill:#5d3c2d;stroke:black;stroke-width:1;fill-opacity:1;stroke-opacity:0.3" />
<line x1="727" y1="30" x2="756" y2="30" stroke="pink" stroke-width="1" />
<rect x="756" y="28" width="11" height="5" style="fill:#5d3c2d;stroke:black;stroke-width:1;fill-opacity:1;stroke-opacity:0.3" />
<line x1="809" y1="30" x2="811" y2="32" stroke="black" stroke-width="1" />
<line x1="811" y1="32" x2="813" y2="30" stroke="black" stroke-width="1" />
<rect x="768" y="28" width="3" height="5" style="fill:#5d3c2d;stroke:black;stroke-width:1;fill-opacity:1;stroke-opacity:0.3" />
<line x1="771" y1="30" x2="792" y2="30" stroke="pink" stroke-width="1" />
<rect x="792" y="28" width="16" height="5" style="fill:#5d3c2d;stroke:black;stroke-width:1;fill-opacity:1;stroke-opacity:0.3" />
<rect x="813" y="28" width="19" height="5" style="fill:#5d3c2d;stroke:black;stroke-width:1;fill-opacity:1;stroke-opacity:0.3" />
<line x1="828" y1="37" x2="829" y2="39" stroke="black" stroke-width="1" />
<line x1="829" y1="39" x2="831" y2="37" stroke="black" stroke-width="1" />
<rect x="798" y="35" width="29" height="5" style="fill:#5d3c2d;stroke:black;stroke-width:1;fill-opacity:1;stroke-opacity:0.3" />
<rect x="831" y="35" width="29" height="5" style="fill:#5d3c2d;stroke:black;stroke-width:1;fill-opacity:1;stroke-opacity:0.3" />
<line x1="840" y1="44" x2="841" y2="46" stroke="black" stroke-width="1" />
<line x1="841" y1="46" x2="843" y2="44" stroke="black" stroke-width="1" />
<rect x="810" y="42" width="29" height="5" style="fill:#5d3c2d;stroke:black;stroke-width:1;fill-opacity:1;stroke-opacity:0.3" />
<rect x="843" y="42" width="29" height="5" style="fill:#5d3c2d;stroke:black;stroke-width:1;fill-opacity:1;stroke-opacity:0.3" />
<line x1="860" y1="30" x2="863" y2="32" stroke="black" stroke-width="1" />
<line x1="863" y1="32" x2="867" y2="30" stroke="black" stroke-width="1" />
<rect x="841" y="28" width="19" height="5" style="fill:#5d3c2d;stroke:black;stroke-width:1;fill-opacity:1;stroke-opacity:0.3" />
<rect x="867" y="28" width="19" height="5" style="fill:#5d3c2d;stroke:black;stroke-width:1;fill-opacity:1;stroke-opacity:0.3" />
<line x1="948" y1="30" x2="951" y2="32" stroke="black" stroke-width="1" />
<line x1="951" y1="32" x2="954" y2="30" stroke="black" stroke-width="1" />
<rect x="928" y="28" width="19" height="5" style="fill:#5d3c2d;stroke:black;stroke-width:1;fill-opacity:1;stroke-opacity:0.3" />
<rect x="954" y="28" width="19" height="5" style="fill:#5d3c2d;stroke:black;stroke-width:1;fill-opacity:1;stroke-opacity:0.3" />
<line x1="951" y1="37" x2="954" y2="39" stroke="black" stroke-width="1" />
<line x1="954" y1="39" x2="957" y2="37" stroke="black" stroke-width="1" />
<rect x="931" y="35" width="19" height="5" style="fill:#5d3c2d;stroke:black;stroke-width:1;fill-opacity:1;stroke-opacity:0.3" />
<rect x="957" y="35" width="19" height="5" style="fill:#5d3c2d;stroke:black;stroke-width:1;fill-opacity:1;stroke-opacity:0.3" />
<line x1="951" y1="44" x2="954" y2="46" stroke="black" stroke-width="1" />
<line x1="954" y1="46" x2="957" y2="44" stroke="black" stroke-width="1" />
<rect x="931" y="42" width="19" height="5" style="fill:#5d3c2d;stroke:black;stroke-width:1;fill-opacity:1;stroke-opacity:0.3" />
<rect x="957" y="42" width="19" height="5" style="fill:#5d3c2d;stroke:black;stroke-width:1;fill-opacity:1;stroke-opacity:0.3" />
<line x1="956" y1="51" x2="958" y2="53" stroke="black" stroke-width="1" />
<line x1="958" y1="53" x2="960" y2="51" stroke="black" stroke-width="1" />
<rect x="936" y="49" width="19" height="5" style="fill:#5d3c2d;stroke:black;stroke-width:1;fill-opacity:1;stroke-opacity:0.3" />
<rect x="960" y="49" width="19" height="5" style="fill:#5d3c2d;stroke:black;stroke-width:1;fill-opacity:1;stroke-opacity:0.3" />
<line x1="959" y1="58" x2="963" y2="60" stroke="black" stroke-width="1" />
<line x1="963" y1="60" x2="968" y2="58" stroke="black" stroke-width="1" />
<rect x="939" y="56" width="19" height="5" style="fill:#5d3c2d;stroke:black;stroke-width:1;fill-opacity:1;stroke-opacity:0.3" />
<rect x="968" y="56" width="19" height="5" style="fill:#5d3c2d;stroke:black;stroke-width:1;fill-opacity:1;stroke-opacity:0.3" />
<line x1="962" y1="65" x2="964" y2="67" stroke="black" stroke-width="1" />
<line x1="964" y1="67" x2="967" y2="65" stroke="black" stroke-width="1" />
<rect x="943" y="63" width="19" height="5" style="fill:#f5b024;stroke:black;stroke-width:1;fill-opacity:1;stroke-opacity:0.3" />
<rect x="967" y="63" width="19" height="5" style="fill:#f5b024;stroke:black;stroke-width:1;fill-opacity:1;stroke-opacity:0.3" />
<line x1="962" y1="72" x2="964" y2="74" stroke="black" stroke-width="1" />
<line x1="964" y1="74" x2="967" y2="72" stroke="black" stroke-width="1" />
<rect x="943" y="70" width="19" height="5" style="fill:#5d3c2d;stroke:black;stroke-width:1;fill-opacity:1;stroke-opacity:0.3" />
<rect x="967" y="70" width="19" height="5" style="fill:#5d3c2d;stroke:black;stroke-width:1;fill-opacity:1;stroke-opacity:0.3" />
<line x1="967" y1="79" x2="969" y2="81" stroke="black" stroke-width="1" />
<line x1="969" y1="81" x2="972" y2="79" stroke="black" stroke-width="1" />
<rect x="947" y="77" width="19" height="5" style="fill:#5d3c2d;stroke:black;stroke-width:1;fill-opacity:1;stroke-opacity:0.3" />
<rect x="972" y="77" width="19" height="5" style="fill:#5d3c2d;stroke:black;stroke-width:1;fill-opacity:1;stroke-opacity:0.3" />
<line x1="968" y1="86" x2="970" y2="88" stroke="black" stroke-width="1" />
<line x1="970" y1="88" x2="973" y2="86" stroke="black" stroke-width="1" />
<rect x="948" y="84" width="19" height="5" style="fill:#5d3c2d;stroke:black;stroke-width:1;fill-opacity:1;stroke-opacity:0.3" />
<rect x="973" y="84" width="19" height="5" style="fill:#5d3c2d;stroke:black;stroke-width:1;fill-opacity:1;stroke-opacity:0.3" />
<text x="15"  y="176" style="font-family:Arial;font-size:10;stroke:black;fill:black;">all.merged.bam</text>
</svg>
    
