<?xml version="1.0" encoding="utf-8" standalone="no"?>
<!DOCTYPE svg PUBLIC "-//W3C//DTD SVG 1.1//EN"
  "http://www.w3.org/Graphics/SVG/1.1/DTD/svg11.dtd">
<svg height="1140" width="1000" version="1.1" viewBox="0 0 1000 1140" xmlns="http://www.w3.org/2000/svg" xmlns:xlink="http://www.w3.org/1999/xlink">
<line x1="71" y1="11" x2="928" y2="11" stroke="black" stroke-width="1" />
<rect x="71" y="9" width="17" height="5" style="fill:#f50002;stroke:black;stroke-width:1;fill-opacity:1;stroke-opacity:0.3" />
<rect x="89" y="9" width="437" height="5" style="fill:#53a1b5;stroke:black;stroke-width:1;fill-opacity:1;stroke-opacity:0.3" />
<rect x="527" y="9" width="400" height="5" style="fill:#f50002;stroke:black;stroke-width:1;fill-opacity:1;stroke-opacity:0.3" />
<text x="71"  y="23" style="font-family:Arial;font-size:10;stroke:black;fill:black;">Cre12.g526250.t1.2.v5.5 (+) chromosome_12:5042816-5044020</text>
<line x1="479" y1="30" x2="489" y2="32" stroke="black" stroke-width="1" />
<line x1="489" y1="32" x2="500" y2="30" stroke="black" stroke-width="1" />
<rect x="372" y="28" width="106" height="5" style="fill:#5d3c2d;stroke:black;stroke-width:1;fill-opacity:1;stroke-opacity:0.3" />
<rect x="500" y="28" width="106" height="5" style="fill:#5d3c2d;stroke:black;stroke-width:1;fill-opacity:1;stroke-opacity:0.3" />
<line x1="445" y1="37" x2="484" y2="39" stroke="black" stroke-width="1" />
<line x1="484" y1="39" x2="524" y2="37" stroke="black" stroke-width="1" />
<rect x="374" y="35" width="71" height="5" style="fill:#5d3c2d;stroke:black;stroke-width:1;fill-opacity:1;stroke-opacity:0.3" />
<rect x="524" y="35" width="71" height="5" style="fill:#5d3c2d;stroke:black;stroke-width:1;fill-opacity:1;stroke-opacity:0.3" />
<line x1="492" y1="44" x2="518" y2="46" stroke="black" stroke-width="1" />
<line x1="518" y1="46" x2="544" y2="44" stroke="black" stroke-width="1" />
<rect x="385" y="42" width="106" height="5" style="fill:#5d3c2d;stroke:black;stroke-width:1;fill-opacity:1;stroke-opacity:0.3" />
<rect x="544" y="42" width="106" height="5" style="fill:#5d3c2d;stroke:black;stroke-width:1;fill-opacity:1;stroke-opacity:0.3" />
<line x1="464" y1="51" x2="491" y2="53" stroke="black" stroke-width="1" />
<line x1="491" y1="53" x2="519" y2="51" stroke="black" stroke-width="1" />
<rect x="392" y="49" width="71" height="5" style="fill:#5d3c2d;stroke:black;stroke-width:1;fill-opacity:1;stroke-opacity:0.3" />
<rect x="519" y="49" width="70" height="5" style="fill:#5d3c2d;stroke:black;stroke-width:1;fill-opacity:1;stroke-opacity:0.3" />
<line x1="465" y1="58" x2="488" y2="60" stroke="black" stroke-width="1" />
<line x1="488" y1="60" x2="512" y2="58" stroke="black" stroke-width="1" />
<rect x="394" y="56" width="71" height="5" style="fill:#5d3c2d;stroke:black;stroke-width:1;fill-opacity:1;stroke-opacity:0.3" />
<rect x="512" y="56" width="71" height="5" style="fill:#5d3c2d;stroke:black;stroke-width:1;fill-opacity:1;stroke-opacity:0.3" />
<line x1="469" y1="65" x2="494" y2="67" stroke="black" stroke-width="1" />
<line x1="494" y1="67" x2="519" y2="65" stroke="black" stroke-width="1" />
<rect x="398" y="63" width="71" height="5" style="fill:#5d3c2d;stroke:black;stroke-width:1;fill-opacity:1;stroke-opacity:0.3" />
<rect x="519" y="63" width="71" height="5" style="fill:#5d3c2d;stroke:black;stroke-width:1;fill-opacity:1;stroke-opacity:0.3" />
<line x1="489" y1="72" x2="503" y2="74" stroke="black" stroke-width="1" />
<line x1="503" y1="74" x2="518" y2="72" stroke="black" stroke-width="1" />
<rect x="418" y="70" width="71" height="5" style="fill:#f5b024;stroke:black;stroke-width:1;fill-opacity:1;stroke-opacity:0.3" />
<rect x="518" y="70" width="71" height="5" style="fill:#f5b024;stroke:black;stroke-width:1;fill-opacity:1;stroke-opacity:0.3" />
<line x1="492" y1="79" x2="510" y2="81" stroke="black" stroke-width="1" />
<line x1="510" y1="81" x2="528" y2="79" stroke="black" stroke-width="1" />
<rect x="421" y="77" width="71" height="5" style="fill:#f5b024;stroke:black;stroke-width:1;fill-opacity:1;stroke-opacity:0.3" />
<rect x="528" y="77" width="69" height="5" style="fill:#f5b024;stroke:black;stroke-width:1;fill-opacity:1;stroke-opacity:0.3" />
<line x1="516" y1="86" x2="532" y2="88" stroke="black" stroke-width="1" />
<line x1="532" y1="88" x2="549" y2="86" stroke="black" stroke-width="1" />
<rect x="445" y="84" width="71" height="5" style="fill:#5d3c2d;stroke:black;stroke-width:1;fill-opacity:1;stroke-opacity:0.3" />
<rect x="549" y="84" width="70" height="5" style="fill:#5d3c2d;stroke:black;stroke-width:1;fill-opacity:1;stroke-opacity:0.3" />
<line x1="529" y1="93" x2="545" y2="95" stroke="black" stroke-width="1" />
<line x1="545" y1="95" x2="562" y2="93" stroke="black" stroke-width="1" />
<rect x="458" y="91" width="71" height="5" style="fill:#5d3c2d;stroke:black;stroke-width:1;fill-opacity:1;stroke-opacity:0.3" />
<rect x="562" y="91" width="70" height="5" style="fill:#5d3c2d;stroke:black;stroke-width:1;fill-opacity:1;stroke-opacity:0.3" />
<line x1="530" y1="100" x2="548" y2="102" stroke="black" stroke-width="1" />
<line x1="548" y1="102" x2="567" y2="100" stroke="black" stroke-width="1" />
<rect x="459" y="98" width="71" height="5" style="fill:#5d3c2d;stroke:black;stroke-width:1;fill-opacity:1;stroke-opacity:0.3" />
<rect x="567" y="98" width="70" height="5" style="fill:#5d3c2d;stroke:black;stroke-width:1;fill-opacity:1;stroke-opacity:0.3" />
<line x1="540" y1="107" x2="550" y2="109" stroke="black" stroke-width="1" />
<line x1="550" y1="109" x2="561" y2="107" stroke="black" stroke-width="1" />
<rect x="469" y="105" width="71" height="5" style="fill:#5d3c2d;stroke:black;stroke-width:1;fill-opacity:1;stroke-opacity:0.3" />
<rect x="561" y="105" width="71" height="5" style="fill:#5d3c2d;stroke:black;stroke-width:1;fill-opacity:1;stroke-opacity:0.3" />
<line x1="543" y1="114" x2="552" y2="116" stroke="black" stroke-width="1" />
<line x1="552" y1="116" x2="562" y2="114" stroke="black" stroke-width="1" />
<rect x="472" y="112" width="71" height="5" style="fill:#5d3c2d;stroke:black;stroke-width:1;fill-opacity:1;stroke-opacity:0.3" />
<rect x="562" y="112" width="70" height="5" style="fill:#5d3c2d;stroke:black;stroke-width:1;fill-opacity:1;stroke-opacity:0.3" />
<line x1="544" y1="121" x2="556" y2="123" stroke="black" stroke-width="1" />
<line x1="556" y1="123" x2="568" y2="121" stroke="black" stroke-width="1" />
<rect x="473" y="119" width="71" height="5" style="fill:#5d3c2d;stroke:black;stroke-width:1;fill-opacity:1;stroke-opacity:0.3" />
<rect x="568" y="119" width="71" height="5" style="fill:#5d3c2d;stroke:black;stroke-width:1;fill-opacity:1;stroke-opacity:0.3" />
<line x1="550" y1="128" x2="555" y2="130" stroke="black" stroke-width="1" />
<line x1="555" y1="130" x2="560" y2="128" stroke="black" stroke-width="1" />
<rect x="479" y="126" width="71" height="5" style="fill:#5d3c2d;stroke:black;stroke-width:1;fill-opacity:1;stroke-opacity:0.3" />
<rect x="560" y="126" width="71" height="5" style="fill:#5d3c2d;stroke:black;stroke-width:1;fill-opacity:1;stroke-opacity:0.3" />
<line x1="550" y1="135" x2="558" y2="137" stroke="black" stroke-width="1" />
<line x1="558" y1="137" x2="567" y2="135" stroke="black" stroke-width="1" />
<rect x="479" y="133" width="71" height="5" style="fill:#5d3c2d;stroke:black;stroke-width:1;fill-opacity:1;stroke-opacity:0.3" />
<rect x="567" y="133" width="70" height="5" style="fill:#5d3c2d;stroke:black;stroke-width:1;fill-opacity:1;stroke-opacity:0.3" />
<line x1="550" y1="142" x2="564" y2="144" stroke="black" stroke-width="1" />
<line x1="564" y1="144" x2="579" y2="142" stroke="black" stroke-width="1" />
<rect x="479" y="140" width="71" height="5" style="fill:#5d3c2d;stroke:black;stroke-width:1;fill-opacity:1;stroke-opacity:0.3" />
<rect x="579" y="140" width="71" height="5" style="fill:#5d3c2d;stroke:black;stroke-width:1;fill-opacity:1;stroke-opacity:0.3" />
<line x1="550" y1="149" x2="563" y2="151" stroke="black" stroke-width="1" />
<line x1="563" y1="151" x2="577" y2="149" stroke="black" stroke-width="1" />
<rect x="479" y="147" width="71" height="5" style="fill:#5d3c2d;stroke:black;stroke-width:1;fill-opacity:1;stroke-opacity:0.3" />
<rect x="577" y="147" width="71" height="5" style="fill:#5d3c2d;stroke:black;stroke-width:1;fill-opacity:1;stroke-opacity:0.3" />
<line x1="550" y1="156" x2="555" y2="158" stroke="black" stroke-width="1" />
<line x1="555" y1="158" x2="561" y2="156" stroke="black" stroke-width="1" />
<rect x="479" y="154" width="71" height="5" style="fill:#5d3c2d;stroke:black;stroke-width:1;fill-opacity:1;stroke-opacity:0.3" />
<rect x="561" y="154" width="71" height="5" style="fill:#5d3c2d;stroke:black;stroke-width:1;fill-opacity:1;stroke-opacity:0.3" />
<line x1="551" y1="163" x2="559" y2="165" stroke="black" stroke-width="1" />
<line x1="559" y1="165" x2="567" y2="163" stroke="black" stroke-width="1" />
<rect x="480" y="161" width="71" height="5" style="fill:#5d3c2d;stroke:black;stroke-width:1;fill-opacity:1;stroke-opacity:0.3" />
<rect x="567" y="161" width="71" height="5" style="fill:#5d3c2d;stroke:black;stroke-width:1;fill-opacity:1;stroke-opacity:0.3" />
<line x1="708" y1="30" x2="712" y2="32" stroke="black" stroke-width="1" />
<line x1="712" y1="32" x2="716" y2="30" stroke="black" stroke-width="1" />
<rect x="637" y="28" width="18" height="5" style="fill:#5d3c2d;stroke:black;stroke-width:1;fill-opacity:1;stroke-opacity:0.3" />
<line x1="655" y1="30" x2="656" y2="30" stroke="pink" stroke-width="1" />
<rect x="656" y="28" width="51" height="5" style="fill:#5d3c2d;stroke:black;stroke-width:1;fill-opacity:1;stroke-opacity:0.3" />
<rect x="716" y="28" width="71" height="5" style="fill:#5d3c2d;stroke:black;stroke-width:1;fill-opacity:1;stroke-opacity:0.3" />
<line x1="711" y1="37" x2="725" y2="39" stroke="black" stroke-width="1" />
<line x1="725" y1="39" x2="739" y2="37" stroke="black" stroke-width="1" />
<rect x="640" y="35" width="14" height="5" style="fill:#5d3c2d;stroke:black;stroke-width:1;fill-opacity:1;stroke-opacity:0.3" />
<line x1="655" y1="37" x2="656" y2="37" stroke="pink" stroke-width="1" />
<rect x="656" y="35" width="55" height="5" style="fill:#5d3c2d;stroke:black;stroke-width:1;fill-opacity:1;stroke-opacity:0.3" />
<rect x="739" y="35" width="71" height="5" style="fill:#5d3c2d;stroke:black;stroke-width:1;fill-opacity:1;stroke-opacity:0.3" />
<line x1="711" y1="51" x2="725" y2="53" stroke="black" stroke-width="1" />
<line x1="725" y1="53" x2="739" y2="51" stroke="black" stroke-width="1" />
<rect x="640" y="49" width="14" height="5" style="fill:#5d3c2d;stroke:black;stroke-width:1;fill-opacity:1;stroke-opacity:0.3" />
<line x1="655" y1="51" x2="656" y2="51" stroke="pink" stroke-width="1" />
<rect x="656" y="49" width="55" height="5" style="fill:#5d3c2d;stroke:black;stroke-width:1;fill-opacity:1;stroke-opacity:0.3" />
<rect x="739" y="49" width="71" height="5" style="fill:#5d3c2d;stroke:black;stroke-width:1;fill-opacity:1;stroke-opacity:0.3" />
<line x1="713" y1="58" x2="723" y2="60" stroke="black" stroke-width="1" />
<line x1="723" y1="60" x2="733" y2="58" stroke="black" stroke-width="1" />
<rect x="641" y="56" width="13" height="5" style="fill:#5d3c2d;stroke:black;stroke-width:1;fill-opacity:1;stroke-opacity:0.3" />
<line x1="655" y1="58" x2="656" y2="58" stroke="pink" stroke-width="1" />
<rect x="656" y="56" width="56" height="5" style="fill:#5d3c2d;stroke:black;stroke-width:1;fill-opacity:1;stroke-opacity:0.3" />
<rect x="733" y="56" width="71" height="5" style="fill:#5d3c2d;stroke:black;stroke-width:1;fill-opacity:1;stroke-opacity:0.3" />
<line x1="731" y1="44" x2="771" y2="46" stroke="black" stroke-width="1" />
<line x1="771" y1="46" x2="812" y2="44" stroke="black" stroke-width="1" />
<rect x="660" y="42" width="71" height="5" style="fill:#5d3c2d;stroke:black;stroke-width:1;fill-opacity:1;stroke-opacity:0.3" />
<rect x="812" y="42" width="71" height="5" style="fill:#5d3c2d;stroke:black;stroke-width:1;fill-opacity:1;stroke-opacity:0.3" />
<line x1="731" y1="65" x2="746" y2="67" stroke="black" stroke-width="1" />
<line x1="746" y1="67" x2="761" y2="65" stroke="black" stroke-width="1" />
<rect x="660" y="63" width="71" height="5" style="fill:#5d3c2d;stroke:black;stroke-width:1;fill-opacity:1;stroke-opacity:0.3" />
<rect x="761" y="63" width="71" height="5" style="fill:#5d3c2d;stroke:black;stroke-width:1;fill-opacity:1;stroke-opacity:0.3" />
<line x1="731" y1="72" x2="771" y2="74" stroke="black" stroke-width="1" />
<line x1="771" y1="74" x2="812" y2="72" stroke="black" stroke-width="1" />
<rect x="660" y="70" width="71" height="5" style="fill:#5d3c2d;stroke:black;stroke-width:1;fill-opacity:1;stroke-opacity:0.3" />
<rect x="812" y="70" width="71" height="5" style="fill:#5d3c2d;stroke:black;stroke-width:1;fill-opacity:1;stroke-opacity:0.3" />
<line x1="731" y1="79" x2="764" y2="81" stroke="black" stroke-width="1" />
<line x1="764" y1="81" x2="798" y2="79" stroke="black" stroke-width="1" />
<rect x="660" y="77" width="71" height="5" style="fill:#5d3c2d;stroke:black;stroke-width:1;fill-opacity:1;stroke-opacity:0.3" />
<rect x="798" y="77" width="71" height="5" style="fill:#5d3c2d;stroke:black;stroke-width:1;fill-opacity:1;stroke-opacity:0.3" />
<line x1="745" y1="86" x2="761" y2="88" stroke="black" stroke-width="1" />
<line x1="761" y1="88" x2="778" y2="86" stroke="black" stroke-width="1" />
<rect x="674" y="84" width="71" height="5" style="fill:#5d3c2d;stroke:black;stroke-width:1;fill-opacity:1;stroke-opacity:0.3" />
<rect x="778" y="84" width="71" height="5" style="fill:#5d3c2d;stroke:black;stroke-width:1;fill-opacity:1;stroke-opacity:0.3" />
<line x1="743" y1="93" x2="770" y2="95" stroke="black" stroke-width="1" />
<line x1="770" y1="95" x2="797" y2="93" stroke="black" stroke-width="1" />
<rect x="679" y="91" width="64" height="5" style="fill:#5d3c2d;stroke:black;stroke-width:1;fill-opacity:1;stroke-opacity:0.3" />
<rect x="797" y="91" width="71" height="5" style="fill:#5d3c2d;stroke:black;stroke-width:1;fill-opacity:1;stroke-opacity:0.3" />
<line x1="763" y1="100" x2="770" y2="102" stroke="black" stroke-width="1" />
<line x1="770" y1="102" x2="777" y2="100" stroke="black" stroke-width="1" />
<rect x="693" y="98" width="70" height="5" style="fill:#5d3c2d;stroke:black;stroke-width:1;fill-opacity:1;stroke-opacity:0.3" />
<rect x="777" y="98" width="71" height="5" style="fill:#5d3c2d;stroke:black;stroke-width:1;fill-opacity:1;stroke-opacity:0.3" />
<line x1="762" y1="107" x2="769" y2="109" stroke="black" stroke-width="1" />
<line x1="769" y1="109" x2="777" y2="107" stroke="black" stroke-width="1" />
<rect x="693" y="105" width="68" height="5" style="fill:#5d3c2d;stroke:black;stroke-width:1;fill-opacity:1;stroke-opacity:0.3" />
<rect x="777" y="105" width="71" height="5" style="fill:#5d3c2d;stroke:black;stroke-width:1;fill-opacity:1;stroke-opacity:0.3" />
<line x1="796" y1="114" x2="809" y2="116" stroke="black" stroke-width="1" />
<line x1="809" y1="116" x2="822" y2="114" stroke="black" stroke-width="1" />
<rect x="725" y="112" width="71" height="5" style="fill:#5d3c2d;stroke:black;stroke-width:1;fill-opacity:1;stroke-opacity:0.3" />
<rect x="822" y="112" width="70" height="5" style="fill:#5d3c2d;stroke:black;stroke-width:1;fill-opacity:1;stroke-opacity:0.3" />
<line x1="796" y1="121" x2="813" y2="123" stroke="black" stroke-width="1" />
<line x1="813" y1="123" x2="831" y2="121" stroke="black" stroke-width="1" />
<rect x="725" y="119" width="70" height="5" style="fill:#5d3c2d;stroke:black;stroke-width:1;fill-opacity:1;stroke-opacity:0.3" />
<rect x="831" y="119" width="71" height="5" style="fill:#5d3c2d;stroke:black;stroke-width:1;fill-opacity:1;stroke-opacity:0.3" />
<line x1="814" y1="128" x2="833" y2="130" stroke="black" stroke-width="1" />
<line x1="833" y1="130" x2="852" y2="128" stroke="black" stroke-width="1" />
<rect x="743" y="126" width="71" height="5" style="fill:#5d3c2d;stroke:black;stroke-width:1;fill-opacity:1;stroke-opacity:0.3" />
<rect x="852" y="126" width="69" height="5" style="fill:#5d3c2d;stroke:black;stroke-width:1;fill-opacity:1;stroke-opacity:0.3" />
<line x1="822" y1="135" x2="826" y2="137" stroke="black" stroke-width="1" />
<line x1="826" y1="137" x2="830" y2="135" stroke="black" stroke-width="1" />
<rect x="750" y="133" width="71" height="5" style="fill:#5d3c2d;stroke:black;stroke-width:1;fill-opacity:1;stroke-opacity:0.3" />
<rect x="830" y="133" width="71" height="5" style="fill:#5d3c2d;stroke:black;stroke-width:1;fill-opacity:1;stroke-opacity:0.3" />
<line x1="869" y1="142" x2="873" y2="144" stroke="black" stroke-width="1" />
<line x1="873" y1="144" x2="878" y2="142" stroke="black" stroke-width="1" />
<rect x="762" y="140" width="106" height="5" style="fill:#5d3c2d;stroke:black;stroke-width:1;fill-opacity:1;stroke-opacity:0.3" />
<rect x="878" y="140" width="106" height="5" style="fill:#5d3c2d;stroke:black;stroke-width:1;fill-opacity:1;stroke-opacity:0.3" />
<line x1="839" y1="149" x2="846" y2="151" stroke="black" stroke-width="1" />
<line x1="846" y1="151" x2="854" y2="149" stroke="black" stroke-width="1" />
<rect x="768" y="147" width="71" height="5" style="fill:#5d3c2d;stroke:black;stroke-width:1;fill-opacity:1;stroke-opacity:0.3" />
<rect x="854" y="147" width="71" height="5" style="fill:#5d3c2d;stroke:black;stroke-width:1;fill-opacity:1;stroke-opacity:0.3" />
<line x1="855" y1="156" x2="861" y2="158" stroke="black" stroke-width="1" />
<line x1="861" y1="158" x2="867" y2="156" stroke="black" stroke-width="1" />
<rect x="784" y="154" width="71" height="5" style="fill:#5d3c2d;stroke:black;stroke-width:1;fill-opacity:1;stroke-opacity:0.3" />
<rect x="867" y="154" width="71" height="5" style="fill:#5d3c2d;stroke:black;stroke-width:1;fill-opacity:1;stroke-opacity:0.3" />
<line x1="879" y1="30" x2="887" y2="32" stroke="black" stroke-width="1" />
<line x1="887" y1="32" x2="896" y2="30" stroke="black" stroke-width="1" />
<rect x="807" y="28" width="71" height="5" style="fill:#5d3c2d;stroke:black;stroke-width:1;fill-opacity:1;stroke-opacity:0.3" />
<rect x="896" y="28" width="71" height="5" style="fill:#5d3c2d;stroke:black;stroke-width:1;fill-opacity:1;stroke-opacity:0.3" />
<line x1="882" y1="37" x2="890" y2="39" stroke="black" stroke-width="1" />
<line x1="890" y1="39" x2="898" y2="37" stroke="black" stroke-width="1" />
<rect x="811" y="35" width="71" height="5" style="fill:#5d3c2d;stroke:black;stroke-width:1;fill-opacity:1;stroke-opacity:0.3" />
<rect x="898" y="35" width="71" height="5" style="fill:#5d3c2d;stroke:black;stroke-width:1;fill-opacity:1;stroke-opacity:0.3" />
<line x1="886" y1="51" x2="892" y2="53" stroke="black" stroke-width="1" />
<line x1="892" y1="53" x2="898" y2="51" stroke="black" stroke-width="1" />
<rect x="814" y="49" width="71" height="5" style="fill:#5d3c2d;stroke:black;stroke-width:1;fill-opacity:1;stroke-opacity:0.3" />
<rect x="898" y="49" width="71" height="5" style="fill:#5d3c2d;stroke:black;stroke-width:1;fill-opacity:1;stroke-opacity:0.3" />
<line x1="888" y1="58" x2="908" y2="60" stroke="black" stroke-width="1" />
<line x1="908" y1="60" x2="928" y2="58" stroke="black" stroke-width="1" />
<rect x="817" y="56" width="71" height="5" style="fill:#5d3c2d;stroke:black;stroke-width:1;fill-opacity:1;stroke-opacity:0.3" />
<rect x="928" y="56" width="71" height="5" style="fill:#5d3c2d;stroke:black;stroke-width:1;fill-opacity:1;stroke-opacity:0.3" />
<text x="15"  y="176" style="font-family:Arial;font-size:10;stroke:black;fill:black;">all.merged.bam</text>
</svg>
    
