<?xml version="1.0" encoding="utf-8" standalone="no"?>
<!DOCTYPE svg PUBLIC "-//W3C//DTD SVG 1.1//EN"
  "http://www.w3.org/Graphics/SVG/1.1/DTD/svg11.dtd">
<svg height="1140" width="1000" version="1.1" viewBox="0 0 1000 1140" xmlns="http://www.w3.org/2000/svg" xmlns:xlink="http://www.w3.org/1999/xlink">
<line x1="38" y1="11" x2="961" y2="11" stroke="black" stroke-width="1" />
<rect x="38" y="9" width="83" height="5" style="fill:#f50002;stroke:black;stroke-width:1;fill-opacity:1;stroke-opacity:0.3" />
<rect x="122" y="9" width="59" height="5" style="fill:#53a1b5;stroke:black;stroke-width:1;fill-opacity:1;stroke-opacity:0.3" />
<rect x="246" y="9" width="38" height="5" style="fill:#53a1b5;stroke:black;stroke-width:1;fill-opacity:1;stroke-opacity:0.3" />
<rect x="349" y="9" width="24" height="5" style="fill:#53a1b5;stroke:black;stroke-width:1;fill-opacity:1;stroke-opacity:0.3" />
<rect x="485" y="9" width="54" height="5" style="fill:#53a1b5;stroke:black;stroke-width:1;fill-opacity:1;stroke-opacity:0.3" />
<rect x="619" y="9" width="33" height="5" style="fill:#53a1b5;stroke:black;stroke-width:1;fill-opacity:1;stroke-opacity:0.3" />
<rect x="739" y="9" width="24" height="5" style="fill:#53a1b5;stroke:black;stroke-width:1;fill-opacity:1;stroke-opacity:0.3" />
<rect x="764" y="9" width="196" height="5" style="fill:#f50002;stroke:black;stroke-width:1;fill-opacity:1;stroke-opacity:0.3" />
<text x="38"  y="23" style="font-family:Arial;font-size:10;stroke:black;fill:black;">Cre16.g653650.t1.1.v5.5 (+) chromosome_16:1565636-1568027</text>
<line x1="102" y1="30" x2="105" y2="32" stroke="black" stroke-width="1" />
<line x1="105" y1="32" x2="108" y2="30" stroke="black" stroke-width="1" />
<rect x="48" y="28" width="53" height="5" style="fill:#5d3c2d;stroke:black;stroke-width:1;fill-opacity:1;stroke-opacity:0.3" />
<rect x="108" y="28" width="56" height="5" style="fill:#5d3c2d;stroke:black;stroke-width:1;fill-opacity:1;stroke-opacity:0.3" />
<line x1="105" y1="37" x2="107" y2="39" stroke="black" stroke-width="1" />
<line x1="107" y1="39" x2="110" y2="37" stroke="black" stroke-width="1" />
<rect x="51" y="35" width="54" height="5" style="fill:#5d3c2d;stroke:black;stroke-width:1;fill-opacity:1;stroke-opacity:0.3" />
<rect x="110" y="35" width="57" height="5" style="fill:#5d3c2d;stroke:black;stroke-width:1;fill-opacity:1;stroke-opacity:0.3" />
<line x1="89" y1="44" x2="97" y2="46" stroke="black" stroke-width="1" />
<line x1="97" y1="46" x2="106" y2="44" stroke="black" stroke-width="1" />
<rect x="51" y="42" width="38" height="5" style="fill:#5d3c2d;stroke:black;stroke-width:1;fill-opacity:1;stroke-opacity:0.3" />
<rect x="106" y="42" width="38" height="5" style="fill:#5d3c2d;stroke:black;stroke-width:1;fill-opacity:1;stroke-opacity:0.3" />
<line x1="89" y1="51" x2="102" y2="53" stroke="black" stroke-width="1" />
<line x1="102" y1="53" x2="116" y2="51" stroke="black" stroke-width="1" />
<rect x="51" y="49" width="38" height="5" style="fill:#5d3c2d;stroke:black;stroke-width:1;fill-opacity:1;stroke-opacity:0.3" />
<rect x="116" y="49" width="38" height="5" style="fill:#5d3c2d;stroke:black;stroke-width:1;fill-opacity:1;stroke-opacity:0.3" />
<line x1="105" y1="58" x2="108" y2="60" stroke="black" stroke-width="1" />
<line x1="108" y1="60" x2="111" y2="58" stroke="black" stroke-width="1" />
<rect x="51" y="56" width="54" height="5" style="fill:#5d3c2d;stroke:black;stroke-width:1;fill-opacity:1;stroke-opacity:0.3" />
<rect x="111" y="56" width="57" height="5" style="fill:#5d3c2d;stroke:black;stroke-width:1;fill-opacity:1;stroke-opacity:0.3" />
<line x1="89" y1="65" x2="93" y2="67" stroke="black" stroke-width="1" />
<line x1="93" y1="67" x2="97" y2="65" stroke="black" stroke-width="1" />
<rect x="51" y="63" width="38" height="5" style="fill:#5d3c2d;stroke:black;stroke-width:1;fill-opacity:1;stroke-opacity:0.3" />
<rect x="97" y="63" width="38" height="5" style="fill:#5d3c2d;stroke:black;stroke-width:1;fill-opacity:1;stroke-opacity:0.3" />
<line x1="89" y1="72" x2="95" y2="74" stroke="black" stroke-width="1" />
<line x1="95" y1="74" x2="102" y2="72" stroke="black" stroke-width="1" />
<rect x="51" y="70" width="38" height="5" style="fill:#5d3c2d;stroke:black;stroke-width:1;fill-opacity:1;stroke-opacity:0.3" />
<rect x="102" y="70" width="38" height="5" style="fill:#5d3c2d;stroke:black;stroke-width:1;fill-opacity:1;stroke-opacity:0.3" />
<line x1="89" y1="79" x2="95" y2="81" stroke="black" stroke-width="1" />
<line x1="95" y1="81" x2="102" y2="79" stroke="black" stroke-width="1" />
<rect x="51" y="77" width="38" height="5" style="fill:#5d3c2d;stroke:black;stroke-width:1;fill-opacity:1;stroke-opacity:0.3" />
<rect x="102" y="77" width="38" height="5" style="fill:#5d3c2d;stroke:black;stroke-width:1;fill-opacity:1;stroke-opacity:0.3" />
<line x1="105" y1="86" x2="109" y2="88" stroke="black" stroke-width="1" />
<line x1="109" y1="88" x2="113" y2="86" stroke="black" stroke-width="1" />
<rect x="51" y="84" width="54" height="5" style="fill:#5d3c2d;stroke:black;stroke-width:1;fill-opacity:1;stroke-opacity:0.3" />
<rect x="113" y="84" width="57" height="5" style="fill:#5d3c2d;stroke:black;stroke-width:1;fill-opacity:1;stroke-opacity:0.3" />
<line x1="90" y1="93" x2="93" y2="95" stroke="black" stroke-width="1" />
<line x1="93" y1="95" x2="97" y2="93" stroke="black" stroke-width="1" />
<rect x="51" y="91" width="38" height="5" style="fill:#5d3c2d;stroke:black;stroke-width:1;fill-opacity:1;stroke-opacity:0.3" />
<rect x="97" y="91" width="38" height="5" style="fill:#5d3c2d;stroke:black;stroke-width:1;fill-opacity:1;stroke-opacity:0.3" />
<line x1="90" y1="100" x2="93" y2="102" stroke="black" stroke-width="1" />
<line x1="93" y1="102" x2="97" y2="100" stroke="black" stroke-width="1" />
<rect x="51" y="98" width="38" height="5" style="fill:#5d3c2d;stroke:black;stroke-width:1;fill-opacity:1;stroke-opacity:0.3" />
<rect x="97" y="98" width="38" height="5" style="fill:#5d3c2d;stroke:black;stroke-width:1;fill-opacity:1;stroke-opacity:0.3" />
<line x1="105" y1="107" x2="112" y2="109" stroke="black" stroke-width="1" />
<line x1="112" y1="109" x2="120" y2="107" stroke="black" stroke-width="1" />
<rect x="52" y="105" width="53" height="5" style="fill:#5d3c2d;stroke:black;stroke-width:1;fill-opacity:1;stroke-opacity:0.3" />
<rect x="120" y="105" width="57" height="5" style="fill:#5d3c2d;stroke:black;stroke-width:1;fill-opacity:1;stroke-opacity:0.3" />
<line x1="105" y1="114" x2="114" y2="116" stroke="black" stroke-width="1" />
<line x1="114" y1="116" x2="123" y2="114" stroke="black" stroke-width="1" />
<rect x="52" y="112" width="53" height="5" style="fill:#5d3c2d;stroke:black;stroke-width:1;fill-opacity:1;stroke-opacity:0.3" />
<rect x="123" y="112" width="57" height="5" style="fill:#5d3c2d;stroke:black;stroke-width:1;fill-opacity:1;stroke-opacity:0.3" />
<line x1="105" y1="121" x2="110" y2="123" stroke="black" stroke-width="1" />
<line x1="110" y1="123" x2="116" y2="121" stroke="black" stroke-width="1" />
<rect x="52" y="119" width="53" height="5" style="fill:#5d3c2d;stroke:black;stroke-width:1;fill-opacity:1;stroke-opacity:0.3" />
<rect x="116" y="119" width="57" height="5" style="fill:#5d3c2d;stroke:black;stroke-width:1;fill-opacity:1;stroke-opacity:0.3" />
<line x1="91" y1="128" x2="101" y2="130" stroke="black" stroke-width="1" />
<line x1="101" y1="130" x2="112" y2="128" stroke="black" stroke-width="1" />
<rect x="52" y="126" width="38" height="5" style="fill:#5d3c2d;stroke:black;stroke-width:1;fill-opacity:1;stroke-opacity:0.3" />
<rect x="112" y="126" width="37" height="5" style="fill:#5d3c2d;stroke:black;stroke-width:1;fill-opacity:1;stroke-opacity:0.3" />
<line x1="105" y1="135" x2="108" y2="137" stroke="black" stroke-width="1" />
<line x1="108" y1="137" x2="112" y2="135" stroke="black" stroke-width="1" />
<rect x="52" y="133" width="52" height="5" style="fill:#5d3c2d;stroke:black;stroke-width:1;fill-opacity:1;stroke-opacity:0.3" />
<rect x="112" y="133" width="57" height="5" style="fill:#5d3c2d;stroke:black;stroke-width:1;fill-opacity:1;stroke-opacity:0.3" />
<line x1="105" y1="142" x2="109" y2="144" stroke="black" stroke-width="1" />
<line x1="109" y1="144" x2="113" y2="142" stroke="black" stroke-width="1" />
<rect x="52" y="140" width="52" height="5" style="fill:#5d3c2d;stroke:black;stroke-width:1;fill-opacity:1;stroke-opacity:0.3" />
<rect x="113" y="140" width="57" height="5" style="fill:#5d3c2d;stroke:black;stroke-width:1;fill-opacity:1;stroke-opacity:0.3" />
<line x1="111" y1="149" x2="114" y2="151" stroke="black" stroke-width="1" />
<line x1="114" y1="151" x2="118" y2="149" stroke="black" stroke-width="1" />
<rect x="53" y="147" width="57" height="5" style="fill:#5d3c2d;stroke:black;stroke-width:1;fill-opacity:1;stroke-opacity:0.3" />
<rect x="118" y="147" width="57" height="5" style="fill:#5d3c2d;stroke:black;stroke-width:1;fill-opacity:1;stroke-opacity:0.3" />
<line x1="111" y1="156" x2="114" y2="158" stroke="black" stroke-width="1" />
<line x1="114" y1="158" x2="118" y2="156" stroke="black" stroke-width="1" />
<rect x="53" y="154" width="57" height="5" style="fill:#5d3c2d;stroke:black;stroke-width:1;fill-opacity:1;stroke-opacity:0.3" />
<rect x="118" y="154" width="57" height="5" style="fill:#5d3c2d;stroke:black;stroke-width:1;fill-opacity:1;stroke-opacity:0.3" />
<line x1="92" y1="163" x2="94" y2="165" stroke="black" stroke-width="1" />
<line x1="94" y1="165" x2="97" y2="163" stroke="black" stroke-width="1" />
<rect x="53" y="161" width="38" height="5" style="fill:#5d3c2d;stroke:black;stroke-width:1;fill-opacity:1;stroke-opacity:0.3" />
<rect x="97" y="161" width="37" height="5" style="fill:#5d3c2d;stroke:black;stroke-width:1;fill-opacity:1;stroke-opacity:0.3" />
<line x1="173" y1="163" x2="211" y2="165" stroke="black" stroke-width="1" />
<line x1="211" y1="165" x2="250" y2="163" stroke="black" stroke-width="1" />
<rect x="135" y="161" width="38" height="5" style="fill:#f5b024;stroke:black;stroke-width:1;fill-opacity:1;stroke-opacity:0.3" />
<rect x="250" y="161" width="35" height="5" style="fill:#f5b024;stroke:black;stroke-width:1;fill-opacity:1;stroke-opacity:0.3" />
<line x1="285" y1="163" x2="349" y2="163" stroke="pink" stroke-width="1" />
<rect x="349" y="161" width="3" height="5" style="fill:#f5b024;stroke:black;stroke-width:1;fill-opacity:1;stroke-opacity:0.3" />
<line x1="174" y1="65" x2="212" y2="67" stroke="black" stroke-width="1" />
<line x1="212" y1="67" x2="250" y2="65" stroke="black" stroke-width="1" />
<rect x="136" y="63" width="38" height="5" style="fill:#5d3c2d;stroke:black;stroke-width:1;fill-opacity:1;stroke-opacity:0.3" />
<rect x="250" y="63" width="35" height="5" style="fill:#5d3c2d;stroke:black;stroke-width:1;fill-opacity:1;stroke-opacity:0.3" />
<line x1="285" y1="65" x2="349" y2="65" stroke="pink" stroke-width="1" />
<rect x="349" y="63" width="3" height="5" style="fill:#5d3c2d;stroke:black;stroke-width:1;fill-opacity:1;stroke-opacity:0.3" />
<line x1="258" y1="93" x2="266" y2="95" stroke="black" stroke-width="1" />
<line x1="266" y1="95" x2="274" y2="93" stroke="black" stroke-width="1" />
<rect x="136" y="91" width="45" height="5" style="fill:#5d3c2d;stroke:black;stroke-width:1;fill-opacity:1;stroke-opacity:0.3" />
<line x1="182" y1="93" x2="246" y2="93" stroke="pink" stroke-width="1" />
<rect x="246" y="91" width="11" height="5" style="fill:#5d3c2d;stroke:black;stroke-width:1;fill-opacity:1;stroke-opacity:0.3" />
<rect x="274" y="91" width="10" height="5" style="fill:#5d3c2d;stroke:black;stroke-width:1;fill-opacity:1;stroke-opacity:0.3" />
<line x1="285" y1="93" x2="349" y2="93" stroke="pink" stroke-width="1" />
<rect x="349" y="91" width="25" height="5" style="fill:#5d3c2d;stroke:black;stroke-width:1;fill-opacity:1;stroke-opacity:0.3" />
<line x1="375" y1="93" x2="485" y2="93" stroke="pink" stroke-width="1" />
<rect x="485" y="91" width="21" height="5" style="fill:#5d3c2d;stroke:black;stroke-width:1;fill-opacity:1;stroke-opacity:0.3" />
<line x1="175" y1="100" x2="262" y2="102" stroke="black" stroke-width="1" />
<line x1="262" y1="102" x2="349" y2="100" stroke="black" stroke-width="1" />
<rect x="136" y="98" width="38" height="5" style="fill:#5d3c2d;stroke:black;stroke-width:1;fill-opacity:1;stroke-opacity:0.3" />
<rect x="349" y="98" width="37" height="5" style="fill:#5d3c2d;stroke:black;stroke-width:1;fill-opacity:1;stroke-opacity:0.3" />
<line x1="260" y1="72" x2="265" y2="74" stroke="black" stroke-width="1" />
<line x1="265" y1="74" x2="270" y2="72" stroke="black" stroke-width="1" />
<rect x="140" y="70" width="41" height="5" style="fill:#5d3c2d;stroke:black;stroke-width:1;fill-opacity:1;stroke-opacity:0.3" />
<line x1="182" y1="72" x2="246" y2="72" stroke="pink" stroke-width="1" />
<rect x="246" y="70" width="14" height="5" style="fill:#5d3c2d;stroke:black;stroke-width:1;fill-opacity:1;stroke-opacity:0.3" />
<rect x="270" y="70" width="14" height="5" style="fill:#5d3c2d;stroke:black;stroke-width:1;fill-opacity:1;stroke-opacity:0.3" />
<line x1="285" y1="72" x2="349" y2="72" stroke="pink" stroke-width="1" />
<rect x="349" y="70" width="25" height="5" style="fill:#5d3c2d;stroke:black;stroke-width:1;fill-opacity:1;stroke-opacity:0.3" />
<line x1="375" y1="72" x2="485" y2="72" stroke="pink" stroke-width="1" />
<rect x="485" y="70" width="18" height="5" style="fill:#5d3c2d;stroke:black;stroke-width:1;fill-opacity:1;stroke-opacity:0.3" />
<line x1="180" y1="79" x2="226" y2="81" stroke="black" stroke-width="1" />
<line x1="226" y1="81" x2="272" y2="79" stroke="black" stroke-width="1" />
<rect x="141" y="77" width="38" height="5" style="fill:#5d3c2d;stroke:black;stroke-width:1;fill-opacity:1;stroke-opacity:0.3" />
<rect x="272" y="77" width="13" height="5" style="fill:#5d3c2d;stroke:black;stroke-width:1;fill-opacity:1;stroke-opacity:0.3" />
<line x1="285" y1="79" x2="349" y2="79" stroke="pink" stroke-width="1" />
<rect x="349" y="77" width="25" height="5" style="fill:#5d3c2d;stroke:black;stroke-width:1;fill-opacity:1;stroke-opacity:0.3" />
<line x1="247" y1="44" x2="256" y2="46" stroke="black" stroke-width="1" />
<line x1="256" y1="46" x2="266" y2="44" stroke="black" stroke-width="1" />
<rect x="144" y="42" width="23" height="5" style="fill:#5d3c2d;stroke:black;stroke-width:1;fill-opacity:1;stroke-opacity:0.3" />
<rect x="167" y="42" width="13" height="5" style="fill:#5d3c2d;stroke:black;stroke-width:1;fill-opacity:1;stroke-opacity:0.3" />
<line x1="181" y1="44" x2="246" y2="44" stroke="pink" stroke-width="1" />
<rect x="246" y="42" width="1" height="5" style="fill:#5d3c2d;stroke:black;stroke-width:1;fill-opacity:1;stroke-opacity:0.3" />
<rect x="266" y="42" width="19" height="5" style="fill:#5d3c2d;stroke:black;stroke-width:1;fill-opacity:1;stroke-opacity:0.3" />
<line x1="285" y1="44" x2="349" y2="44" stroke="pink" stroke-width="1" />
<rect x="349" y="42" width="17" height="5" style="fill:#5d3c2d;stroke:black;stroke-width:1;fill-opacity:1;stroke-opacity:0.3" />
<line x1="253" y1="128" x2="259" y2="130" stroke="black" stroke-width="1" />
<line x1="259" y1="130" x2="265" y2="128" stroke="black" stroke-width="1" />
<rect x="150" y="126" width="31" height="5" style="fill:#5d3c2d;stroke:black;stroke-width:1;fill-opacity:1;stroke-opacity:0.3" />
<line x1="182" y1="128" x2="246" y2="128" stroke="pink" stroke-width="1" />
<rect x="246" y="126" width="6" height="5" style="fill:#5d3c2d;stroke:black;stroke-width:1;fill-opacity:1;stroke-opacity:0.3" />
<rect x="265" y="126" width="20" height="5" style="fill:#5d3c2d;stroke:black;stroke-width:1;fill-opacity:1;stroke-opacity:0.3" />
<line x1="285" y1="128" x2="349" y2="128" stroke="pink" stroke-width="1" />
<rect x="349" y="126" width="17" height="5" style="fill:#5d3c2d;stroke:black;stroke-width:1;fill-opacity:1;stroke-opacity:0.3" />
<line x1="258" y1="51" x2="261" y2="53" stroke="black" stroke-width="1" />
<line x1="261" y1="53" x2="265" y2="51" stroke="black" stroke-width="1" />
<rect x="155" y="49" width="26" height="5" style="fill:#5d3c2d;stroke:black;stroke-width:1;fill-opacity:1;stroke-opacity:0.3" />
<line x1="182" y1="51" x2="246" y2="51" stroke="pink" stroke-width="1" />
<rect x="246" y="49" width="12" height="5" style="fill:#5d3c2d;stroke:black;stroke-width:1;fill-opacity:1;stroke-opacity:0.3" />
<rect x="265" y="49" width="20" height="5" style="fill:#5d3c2d;stroke:black;stroke-width:1;fill-opacity:1;stroke-opacity:0.3" />
<line x1="285" y1="51" x2="349" y2="51" stroke="pink" stroke-width="1" />
<rect x="349" y="49" width="18" height="5" style="fill:#5d3c2d;stroke:black;stroke-width:1;fill-opacity:1;stroke-opacity:0.3" />
<line x1="268" y1="30" x2="271" y2="32" stroke="black" stroke-width="1" />
<line x1="271" y1="32" x2="274" y2="30" stroke="black" stroke-width="1" />
<rect x="165" y="28" width="16" height="5" style="fill:#5d3c2d;stroke:black;stroke-width:1;fill-opacity:1;stroke-opacity:0.3" />
<line x1="182" y1="30" x2="246" y2="30" stroke="pink" stroke-width="1" />
<rect x="246" y="28" width="21" height="5" style="fill:#5d3c2d;stroke:black;stroke-width:1;fill-opacity:1;stroke-opacity:0.3" />
<rect x="274" y="28" width="11" height="5" style="fill:#5d3c2d;stroke:black;stroke-width:1;fill-opacity:1;stroke-opacity:0.3" />
<line x1="285" y1="30" x2="349" y2="30" stroke="pink" stroke-width="1" />
<rect x="349" y="28" width="25" height="5" style="fill:#5d3c2d;stroke:black;stroke-width:1;fill-opacity:1;stroke-opacity:0.3" />
<line x1="375" y1="30" x2="484" y2="30" stroke="pink" stroke-width="1" />
<rect x="484" y="28" width="1" height="5" style="fill:#5d3c2d;stroke:black;stroke-width:1;fill-opacity:1;stroke-opacity:0.3" />
<line x1="271" y1="37" x2="311" y2="39" stroke="black" stroke-width="1" />
<line x1="311" y1="39" x2="351" y2="37" stroke="black" stroke-width="1" />
<rect x="168" y="35" width="13" height="5" style="fill:#5d3c2d;stroke:black;stroke-width:1;fill-opacity:1;stroke-opacity:0.3" />
<line x1="182" y1="37" x2="246" y2="37" stroke="pink" stroke-width="1" />
<rect x="246" y="35" width="25" height="5" style="fill:#5d3c2d;stroke:black;stroke-width:1;fill-opacity:1;stroke-opacity:0.3" />
<rect x="351" y="35" width="23" height="5" style="fill:#5d3c2d;stroke:black;stroke-width:1;fill-opacity:1;stroke-opacity:0.3" />
<line x1="375" y1="37" x2="485" y2="37" stroke="pink" stroke-width="1" />
<rect x="485" y="35" width="15" height="5" style="fill:#5d3c2d;stroke:black;stroke-width:1;fill-opacity:1;stroke-opacity:0.3" />
<line x1="356" y1="58" x2="360" y2="60" stroke="black" stroke-width="1" />
<line x1="360" y1="60" x2="365" y2="58" stroke="black" stroke-width="1" />
<rect x="169" y="56" width="12" height="5" style="fill:#5d3c2d;stroke:black;stroke-width:1;fill-opacity:1;stroke-opacity:0.3" />
<line x1="182" y1="58" x2="246" y2="58" stroke="pink" stroke-width="1" />
<rect x="246" y="56" width="38" height="5" style="fill:#5d3c2d;stroke:black;stroke-width:1;fill-opacity:1;stroke-opacity:0.3" />
<line x1="285" y1="58" x2="349" y2="58" stroke="pink" stroke-width="1" />
<rect x="349" y="56" width="6" height="5" style="fill:#5d3c2d;stroke:black;stroke-width:1;fill-opacity:1;stroke-opacity:0.3" />
<rect x="365" y="56" width="9" height="5" style="fill:#5d3c2d;stroke:black;stroke-width:1;fill-opacity:1;stroke-opacity:0.3" />
<line x1="375" y1="58" x2="485" y2="58" stroke="pink" stroke-width="1" />
<rect x="485" y="56" width="47" height="5" style="fill:#5d3c2d;stroke:black;stroke-width:1;fill-opacity:1;stroke-opacity:0.3" />
<line x1="358" y1="86" x2="363" y2="88" stroke="black" stroke-width="1" />
<line x1="363" y1="88" x2="368" y2="86" stroke="black" stroke-width="1" />
<rect x="171" y="84" width="10" height="5" style="fill:#5d3c2d;stroke:black;stroke-width:1;fill-opacity:1;stroke-opacity:0.3" />
<line x1="182" y1="86" x2="246" y2="86" stroke="pink" stroke-width="1" />
<rect x="246" y="84" width="38" height="5" style="fill:#5d3c2d;stroke:black;stroke-width:1;fill-opacity:1;stroke-opacity:0.3" />
<line x1="285" y1="86" x2="349" y2="86" stroke="pink" stroke-width="1" />
<rect x="349" y="84" width="8" height="5" style="fill:#5d3c2d;stroke:black;stroke-width:1;fill-opacity:1;stroke-opacity:0.3" />
<rect x="368" y="84" width="6" height="5" style="fill:#5d3c2d;stroke:black;stroke-width:1;fill-opacity:1;stroke-opacity:0.3" />
<line x1="375" y1="86" x2="485" y2="86" stroke="pink" stroke-width="1" />
<rect x="485" y="84" width="51" height="5" style="fill:#5d3c2d;stroke:black;stroke-width:1;fill-opacity:1;stroke-opacity:0.3" />
<line x1="354" y1="135" x2="363" y2="137" stroke="black" stroke-width="1" />
<line x1="363" y1="137" x2="372" y2="135" stroke="black" stroke-width="1" />
<rect x="171" y="133" width="10" height="5" style="fill:#5d3c2d;stroke:black;stroke-width:1;fill-opacity:1;stroke-opacity:0.3" />
<line x1="182" y1="135" x2="246" y2="135" stroke="pink" stroke-width="1" />
<rect x="246" y="133" width="38" height="5" style="fill:#5d3c2d;stroke:black;stroke-width:1;fill-opacity:1;stroke-opacity:0.3" />
<line x1="285" y1="135" x2="349" y2="135" stroke="pink" stroke-width="1" />
<rect x="349" y="133" width="4" height="5" style="fill:#5d3c2d;stroke:black;stroke-width:1;fill-opacity:1;stroke-opacity:0.3" />
<rect x="372" y="133" width="2" height="5" style="fill:#5d3c2d;stroke:black;stroke-width:1;fill-opacity:1;stroke-opacity:0.3" />
<line x1="375" y1="135" x2="484" y2="135" stroke="pink" stroke-width="1" />
<rect x="484" y="133" width="55" height="5" style="fill:#5d3c2d;stroke:black;stroke-width:1;fill-opacity:1;stroke-opacity:0.3" />
<line x1="275" y1="142" x2="313" y2="144" stroke="black" stroke-width="1" />
<line x1="313" y1="144" x2="352" y2="142" stroke="black" stroke-width="1" />
<rect x="172" y="140" width="10" height="5" style="fill:#5d3c2d;stroke:black;stroke-width:1;fill-opacity:1;stroke-opacity:0.3" />
<line x1="182" y1="142" x2="246" y2="142" stroke="pink" stroke-width="1" />
<rect x="246" y="140" width="28" height="5" style="fill:#5d3c2d;stroke:black;stroke-width:1;fill-opacity:1;stroke-opacity:0.3" />
<rect x="352" y="140" width="22" height="5" style="fill:#5d3c2d;stroke:black;stroke-width:1;fill-opacity:1;stroke-opacity:0.3" />
<line x1="375" y1="142" x2="485" y2="142" stroke="pink" stroke-width="1" />
<rect x="485" y="140" width="15" height="5" style="fill:#5d3c2d;stroke:black;stroke-width:1;fill-opacity:1;stroke-opacity:0.3" />
<line x1="277" y1="121" x2="313" y2="123" stroke="black" stroke-width="1" />
<line x1="313" y1="123" x2="350" y2="121" stroke="black" stroke-width="1" />
<rect x="174" y="119" width="7" height="5" style="fill:#5d3c2d;stroke:black;stroke-width:1;fill-opacity:1;stroke-opacity:0.3" />
<line x1="182" y1="121" x2="246" y2="121" stroke="pink" stroke-width="1" />
<rect x="246" y="119" width="30" height="5" style="fill:#5d3c2d;stroke:black;stroke-width:1;fill-opacity:1;stroke-opacity:0.3" />
<rect x="350" y="119" width="24" height="5" style="fill:#5d3c2d;stroke:black;stroke-width:1;fill-opacity:1;stroke-opacity:0.3" />
<line x1="375" y1="121" x2="484" y2="121" stroke="pink" stroke-width="1" />
<rect x="484" y="119" width="14" height="5" style="fill:#5d3c2d;stroke:black;stroke-width:1;fill-opacity:1;stroke-opacity:0.3" />
<line x1="362" y1="156" x2="427" y2="158" stroke="black" stroke-width="1" />
<line x1="427" y1="158" x2="493" y2="156" stroke="black" stroke-width="1" />
<rect x="175" y="154" width="6" height="5" style="fill:#5d3c2d;stroke:black;stroke-width:1;fill-opacity:1;stroke-opacity:0.3" />
<line x1="182" y1="156" x2="246" y2="156" stroke="pink" stroke-width="1" />
<rect x="246" y="154" width="38" height="5" style="fill:#5d3c2d;stroke:black;stroke-width:1;fill-opacity:1;stroke-opacity:0.3" />
<line x1="285" y1="156" x2="349" y2="156" stroke="pink" stroke-width="1" />
<rect x="349" y="154" width="12" height="5" style="fill:#5d3c2d;stroke:black;stroke-width:1;fill-opacity:1;stroke-opacity:0.3" />
<rect x="493" y="154" width="46" height="5" style="fill:#5d3c2d;stroke:black;stroke-width:1;fill-opacity:1;stroke-opacity:0.3" />
<line x1="540" y1="156" x2="619" y2="156" stroke="pink" stroke-width="1" />
<rect x="619" y="154" width="11" height="5" style="fill:#5d3c2d;stroke:black;stroke-width:1;fill-opacity:1;stroke-opacity:0.3" />
<line x1="358" y1="149" x2="426" y2="151" stroke="black" stroke-width="1" />
<line x1="426" y1="151" x2="494" y2="149" stroke="black" stroke-width="1" />
<rect x="177" y="147" width="4" height="5" style="fill:#5d3c2d;stroke:black;stroke-width:1;fill-opacity:1;stroke-opacity:0.3" />
<line x1="182" y1="149" x2="246" y2="149" stroke="pink" stroke-width="1" />
<rect x="246" y="147" width="38" height="5" style="fill:#5d3c2d;stroke:black;stroke-width:1;fill-opacity:1;stroke-opacity:0.3" />
<line x1="285" y1="149" x2="349" y2="149" stroke="pink" stroke-width="1" />
<rect x="349" y="147" width="8" height="5" style="fill:#5d3c2d;stroke:black;stroke-width:1;fill-opacity:1;stroke-opacity:0.3" />
<rect x="494" y="147" width="45" height="5" style="fill:#5d3c2d;stroke:black;stroke-width:1;fill-opacity:1;stroke-opacity:0.3" />
<line x1="540" y1="149" x2="619" y2="149" stroke="pink" stroke-width="1" />
<rect x="619" y="147" width="11" height="5" style="fill:#5d3c2d;stroke:black;stroke-width:1;fill-opacity:1;stroke-opacity:0.3" />
<line x1="281" y1="107" x2="316" y2="109" stroke="black" stroke-width="1" />
<line x1="316" y1="109" x2="351" y2="107" stroke="black" stroke-width="1" />
<rect x="178" y="105" width="3" height="5" style="fill:#5d3c2d;stroke:black;stroke-width:1;fill-opacity:1;stroke-opacity:0.3" />
<line x1="182" y1="107" x2="246" y2="107" stroke="pink" stroke-width="1" />
<rect x="246" y="105" width="35" height="5" style="fill:#5d3c2d;stroke:black;stroke-width:1;fill-opacity:1;stroke-opacity:0.3" />
<rect x="351" y="105" width="23" height="5" style="fill:#5d3c2d;stroke:black;stroke-width:1;fill-opacity:1;stroke-opacity:0.3" />
<line x1="375" y1="107" x2="485" y2="107" stroke="pink" stroke-width="1" />
<rect x="485" y="105" width="15" height="5" style="fill:#5d3c2d;stroke:black;stroke-width:1;fill-opacity:1;stroke-opacity:0.3" />
<line x1="367" y1="114" x2="429" y2="116" stroke="black" stroke-width="1" />
<line x1="429" y1="116" x2="491" y2="114" stroke="black" stroke-width="1" />
<rect x="181" y="112" width="0" height="5" style="fill:#5d3c2d;stroke:black;stroke-width:1;fill-opacity:1;stroke-opacity:0.3" />
<line x1="182" y1="114" x2="246" y2="114" stroke="pink" stroke-width="1" />
<rect x="246" y="112" width="38" height="5" style="fill:#5d3c2d;stroke:black;stroke-width:1;fill-opacity:1;stroke-opacity:0.3" />
<line x1="285" y1="114" x2="349" y2="114" stroke="pink" stroke-width="1" />
<rect x="349" y="112" width="17" height="5" style="fill:#5d3c2d;stroke:black;stroke-width:1;fill-opacity:1;stroke-opacity:0.3" />
<rect x="491" y="112" width="48" height="5" style="fill:#5d3c2d;stroke:black;stroke-width:1;fill-opacity:1;stroke-opacity:0.3" />
<line x1="540" y1="114" x2="619" y2="114" stroke="pink" stroke-width="1" />
<rect x="619" y="112" width="8" height="5" style="fill:#5d3c2d;stroke:black;stroke-width:1;fill-opacity:1;stroke-opacity:0.3" />
<line x1="502" y1="65" x2="513" y2="67" stroke="black" stroke-width="1" />
<line x1="513" y1="67" x2="525" y2="65" stroke="black" stroke-width="1" />
<rect x="353" y="63" width="21" height="5" style="fill:#5d3c2d;stroke:black;stroke-width:1;fill-opacity:1;stroke-opacity:0.3" />
<line x1="375" y1="65" x2="485" y2="65" stroke="pink" stroke-width="1" />
<rect x="485" y="63" width="16" height="5" style="fill:#5d3c2d;stroke:black;stroke-width:1;fill-opacity:1;stroke-opacity:0.3" />
<rect x="525" y="63" width="14" height="5" style="fill:#5d3c2d;stroke:black;stroke-width:1;fill-opacity:1;stroke-opacity:0.3" />
<line x1="540" y1="65" x2="619" y2="65" stroke="pink" stroke-width="1" />
<rect x="619" y="63" width="23" height="5" style="fill:#5d3c2d;stroke:black;stroke-width:1;fill-opacity:1;stroke-opacity:0.3" />
<line x1="502" y1="163" x2="512" y2="165" stroke="black" stroke-width="1" />
<line x1="512" y1="165" x2="523" y2="163" stroke="black" stroke-width="1" />
<rect x="353" y="161" width="21" height="5" style="fill:#5d3c2d;stroke:black;stroke-width:1;fill-opacity:1;stroke-opacity:0.3" />
<line x1="375" y1="163" x2="485" y2="163" stroke="pink" stroke-width="1" />
<rect x="485" y="161" width="16" height="5" style="fill:#5d3c2d;stroke:black;stroke-width:1;fill-opacity:1;stroke-opacity:0.3" />
<rect x="523" y="161" width="16" height="5" style="fill:#5d3c2d;stroke:black;stroke-width:1;fill-opacity:1;stroke-opacity:0.3" />
<line x1="540" y1="163" x2="619" y2="163" stroke="pink" stroke-width="1" />
<rect x="619" y="161" width="21" height="5" style="fill:#5d3c2d;stroke:black;stroke-width:1;fill-opacity:1;stroke-opacity:0.3" />
<line x1="515" y1="44" x2="519" y2="46" stroke="black" stroke-width="1" />
<line x1="519" y1="46" x2="524" y2="44" stroke="black" stroke-width="1" />
<rect x="368" y="42" width="6" height="5" style="fill:#5d3c2d;stroke:black;stroke-width:1;fill-opacity:1;stroke-opacity:0.3" />
<line x1="375" y1="44" x2="485" y2="44" stroke="pink" stroke-width="1" />
<rect x="485" y="42" width="29" height="5" style="fill:#5d3c2d;stroke:black;stroke-width:1;fill-opacity:1;stroke-opacity:0.3" />
<rect x="524" y="42" width="15" height="5" style="fill:#5d3c2d;stroke:black;stroke-width:1;fill-opacity:1;stroke-opacity:0.3" />
<line x1="540" y1="44" x2="619" y2="44" stroke="pink" stroke-width="1" />
<rect x="619" y="42" width="22" height="5" style="fill:#5d3c2d;stroke:black;stroke-width:1;fill-opacity:1;stroke-opacity:0.3" />
<line x1="516" y1="51" x2="574" y2="53" stroke="black" stroke-width="1" />
<line x1="574" y1="53" x2="632" y2="51" stroke="black" stroke-width="1" />
<rect x="368" y="49" width="6" height="5" style="fill:#5d3c2d;stroke:black;stroke-width:1;fill-opacity:1;stroke-opacity:0.3" />
<line x1="375" y1="51" x2="485" y2="51" stroke="pink" stroke-width="1" />
<rect x="485" y="49" width="30" height="5" style="fill:#5d3c2d;stroke:black;stroke-width:1;fill-opacity:1;stroke-opacity:0.3" />
<rect x="632" y="49" width="21" height="5" style="fill:#5d3c2d;stroke:black;stroke-width:1;fill-opacity:1;stroke-opacity:0.3" />
<line x1="654" y1="51" x2="739" y2="51" stroke="pink" stroke-width="1" />
<rect x="739" y="49" width="16" height="5" style="fill:#5d3c2d;stroke:black;stroke-width:1;fill-opacity:1;stroke-opacity:0.3" />
<line x1="533" y1="128" x2="578" y2="130" stroke="black" stroke-width="1" />
<line x1="578" y1="130" x2="624" y2="128" stroke="black" stroke-width="1" />
<rect x="368" y="126" width="6" height="5" style="fill:#5d3c2d;stroke:black;stroke-width:1;fill-opacity:1;stroke-opacity:0.3" />
<line x1="375" y1="128" x2="484" y2="128" stroke="pink" stroke-width="1" />
<rect x="484" y="126" width="48" height="5" style="fill:#5d3c2d;stroke:black;stroke-width:1;fill-opacity:1;stroke-opacity:0.3" />
<rect x="624" y="126" width="30" height="5" style="fill:#5d3c2d;stroke:black;stroke-width:1;fill-opacity:1;stroke-opacity:0.3" />
<line x1="654" y1="128" x2="739" y2="128" stroke="pink" stroke-width="1" />
<rect x="739" y="126" width="27" height="5" style="fill:#5d3c2d;stroke:black;stroke-width:1;fill-opacity:1;stroke-opacity:0.3" />
<line x1="514" y1="79" x2="526" y2="81" stroke="black" stroke-width="1" />
<line x1="526" y1="81" x2="538" y2="79" stroke="black" stroke-width="1" />
<rect x="476" y="77" width="38" height="5" style="fill:#5d3c2d;stroke:black;stroke-width:1;fill-opacity:1;stroke-opacity:0.3" />
<rect x="538" y="77" width="1" height="5" style="fill:#5d3c2d;stroke:black;stroke-width:1;fill-opacity:1;stroke-opacity:0.3" />
<line x1="540" y1="79" x2="619" y2="79" stroke="pink" stroke-width="1" />
<rect x="619" y="77" width="36" height="5" style="fill:#5d3c2d;stroke:black;stroke-width:1;fill-opacity:1;stroke-opacity:0.3" />
<line x1="622" y1="100" x2="630" y2="102" stroke="black" stroke-width="1" />
<line x1="630" y1="102" x2="639" y2="100" stroke="black" stroke-width="1" />
<rect x="486" y="98" width="54" height="5" style="fill:#5d3c2d;stroke:black;stroke-width:1;fill-opacity:1;stroke-opacity:0.3" />
<line x1="540" y1="100" x2="619" y2="100" stroke="pink" stroke-width="1" />
<rect x="619" y="98" width="2" height="5" style="fill:#5d3c2d;stroke:black;stroke-width:1;fill-opacity:1;stroke-opacity:0.3" />
<rect x="639" y="98" width="14" height="5" style="fill:#5d3c2d;stroke:black;stroke-width:1;fill-opacity:1;stroke-opacity:0.3" />
<line x1="654" y1="100" x2="739" y2="100" stroke="pink" stroke-width="1" />
<rect x="739" y="98" width="43" height="5" style="fill:#5d3c2d;stroke:black;stroke-width:1;fill-opacity:1;stroke-opacity:0.3" />
<line x1="622" y1="30" x2="634" y2="32" stroke="black" stroke-width="1" />
<line x1="634" y1="32" x2="647" y2="30" stroke="black" stroke-width="1" />
<rect x="486" y="28" width="53" height="5" style="fill:#5d3c2d;stroke:black;stroke-width:1;fill-opacity:1;stroke-opacity:0.3" />
<line x1="540" y1="30" x2="619" y2="30" stroke="pink" stroke-width="1" />
<rect x="619" y="28" width="2" height="5" style="fill:#5d3c2d;stroke:black;stroke-width:1;fill-opacity:1;stroke-opacity:0.3" />
<rect x="647" y="28" width="6" height="5" style="fill:#5d3c2d;stroke:black;stroke-width:1;fill-opacity:1;stroke-opacity:0.3" />
<line x1="654" y1="30" x2="739" y2="30" stroke="pink" stroke-width="1" />
<rect x="739" y="28" width="50" height="5" style="fill:#5d3c2d;stroke:black;stroke-width:1;fill-opacity:1;stroke-opacity:0.3" />
<line x1="537" y1="121" x2="584" y2="123" stroke="black" stroke-width="1" />
<line x1="584" y1="123" x2="632" y2="121" stroke="black" stroke-width="1" />
<rect x="498" y="119" width="38" height="5" style="fill:#5d3c2d;stroke:black;stroke-width:1;fill-opacity:1;stroke-opacity:0.3" />
<rect x="632" y="119" width="21" height="5" style="fill:#5d3c2d;stroke:black;stroke-width:1;fill-opacity:1;stroke-opacity:0.3" />
<line x1="654" y1="121" x2="739" y2="121" stroke="pink" stroke-width="1" />
<rect x="739" y="119" width="16" height="5" style="fill:#5d3c2d;stroke:black;stroke-width:1;fill-opacity:1;stroke-opacity:0.3" />
<line x1="539" y1="37" x2="585" y2="39" stroke="black" stroke-width="1" />
<line x1="585" y1="39" x2="632" y2="37" stroke="black" stroke-width="1" />
<rect x="501" y="35" width="38" height="5" style="fill:#5d3c2d;stroke:black;stroke-width:1;fill-opacity:1;stroke-opacity:0.3" />
<rect x="632" y="35" width="21" height="5" style="fill:#5d3c2d;stroke:black;stroke-width:1;fill-opacity:1;stroke-opacity:0.3" />
<line x1="654" y1="37" x2="739" y2="37" stroke="pink" stroke-width="1" />
<rect x="739" y="35" width="16" height="5" style="fill:#5d3c2d;stroke:black;stroke-width:1;fill-opacity:1;stroke-opacity:0.3" />
<line x1="539" y1="107" x2="593" y2="109" stroke="black" stroke-width="1" />
<line x1="593" y1="109" x2="648" y2="107" stroke="black" stroke-width="1" />
<rect x="501" y="105" width="38" height="5" style="fill:#5d3c2d;stroke:black;stroke-width:1;fill-opacity:1;stroke-opacity:0.3" />
<rect x="648" y="105" width="6" height="5" style="fill:#5d3c2d;stroke:black;stroke-width:1;fill-opacity:1;stroke-opacity:0.3" />
<line x1="654" y1="107" x2="739" y2="107" stroke="pink" stroke-width="1" />
<rect x="739" y="105" width="30" height="5" style="fill:#5d3c2d;stroke:black;stroke-width:1;fill-opacity:1;stroke-opacity:0.3" />
<line x1="641" y1="142" x2="646" y2="144" stroke="black" stroke-width="1" />
<line x1="646" y1="144" x2="652" y2="142" stroke="black" stroke-width="1" />
<rect x="503" y="140" width="36" height="5" style="fill:#5d3c2d;stroke:black;stroke-width:1;fill-opacity:1;stroke-opacity:0.3" />
<line x1="540" y1="142" x2="619" y2="142" stroke="pink" stroke-width="1" />
<rect x="619" y="140" width="21" height="5" style="fill:#5d3c2d;stroke:black;stroke-width:1;fill-opacity:1;stroke-opacity:0.3" />
<rect x="652" y="140" width="2" height="5" style="fill:#5d3c2d;stroke:black;stroke-width:1;fill-opacity:1;stroke-opacity:0.3" />
<line x1="654" y1="142" x2="739" y2="142" stroke="pink" stroke-width="1" />
<rect x="739" y="140" width="53" height="5" style="fill:#5d3c2d;stroke:black;stroke-width:1;fill-opacity:1;stroke-opacity:0.3" />
<line x1="641" y1="72" x2="645" y2="74" stroke="black" stroke-width="1" />
<line x1="645" y1="74" x2="650" y2="72" stroke="black" stroke-width="1" />
<rect x="503" y="70" width="36" height="5" style="fill:#5d3c2d;stroke:black;stroke-width:1;fill-opacity:1;stroke-opacity:0.3" />
<line x1="540" y1="72" x2="619" y2="72" stroke="pink" stroke-width="1" />
<rect x="619" y="70" width="21" height="5" style="fill:#5d3c2d;stroke:black;stroke-width:1;fill-opacity:1;stroke-opacity:0.3" />
<rect x="650" y="70" width="3" height="5" style="fill:#5d3c2d;stroke:black;stroke-width:1;fill-opacity:1;stroke-opacity:0.3" />
<line x1="654" y1="72" x2="739" y2="72" stroke="pink" stroke-width="1" />
<rect x="739" y="70" width="53" height="5" style="fill:#5d3c2d;stroke:black;stroke-width:1;fill-opacity:1;stroke-opacity:0.3" />
<line x1="645" y1="93" x2="696" y2="95" stroke="black" stroke-width="1" />
<line x1="696" y1="95" x2="747" y2="93" stroke="black" stroke-width="1" />
<rect x="507" y="91" width="32" height="5" style="fill:#5d3c2d;stroke:black;stroke-width:1;fill-opacity:1;stroke-opacity:0.3" />
<line x1="540" y1="93" x2="619" y2="93" stroke="pink" stroke-width="1" />
<rect x="619" y="91" width="25" height="5" style="fill:#5d3c2d;stroke:black;stroke-width:1;fill-opacity:1;stroke-opacity:0.3" />
<rect x="747" y="91" width="57" height="5" style="fill:#5d3c2d;stroke:black;stroke-width:1;fill-opacity:1;stroke-opacity:0.3" />
<line x1="757" y1="58" x2="764" y2="60" stroke="black" stroke-width="1" />
<line x1="764" y1="60" x2="772" y2="58" stroke="black" stroke-width="1" />
<rect x="534" y="56" width="5" height="5" style="fill:#5d3c2d;stroke:black;stroke-width:1;fill-opacity:1;stroke-opacity:0.3" />
<line x1="540" y1="58" x2="619" y2="58" stroke="pink" stroke-width="1" />
<rect x="619" y="56" width="34" height="5" style="fill:#5d3c2d;stroke:black;stroke-width:1;fill-opacity:1;stroke-opacity:0.3" />
<line x1="654" y1="58" x2="739" y2="58" stroke="pink" stroke-width="1" />
<rect x="739" y="56" width="17" height="5" style="fill:#5d3c2d;stroke:black;stroke-width:1;fill-opacity:1;stroke-opacity:0.3" />
<rect x="772" y="56" width="57" height="5" style="fill:#5d3c2d;stroke:black;stroke-width:1;fill-opacity:1;stroke-opacity:0.3" />
<line x1="759" y1="86" x2="770" y2="88" stroke="black" stroke-width="1" />
<line x1="770" y1="88" x2="781" y2="86" stroke="black" stroke-width="1" />
<rect x="537" y="84" width="2" height="5" style="fill:#5d3c2d;stroke:black;stroke-width:1;fill-opacity:1;stroke-opacity:0.3" />
<line x1="540" y1="86" x2="619" y2="86" stroke="pink" stroke-width="1" />
<rect x="619" y="84" width="34" height="5" style="fill:#5d3c2d;stroke:black;stroke-width:1;fill-opacity:1;stroke-opacity:0.3" />
<line x1="654" y1="86" x2="739" y2="86" stroke="pink" stroke-width="1" />
<rect x="739" y="84" width="19" height="5" style="fill:#5d3c2d;stroke:black;stroke-width:1;fill-opacity:1;stroke-opacity:0.3" />
<rect x="781" y="84" width="57" height="5" style="fill:#5d3c2d;stroke:black;stroke-width:1;fill-opacity:1;stroke-opacity:0.3" />
<line x1="745" y1="135" x2="750" y2="137" stroke="black" stroke-width="1" />
<line x1="750" y1="137" x2="755" y2="135" stroke="black" stroke-width="1" />
<rect x="622" y="133" width="31" height="5" style="fill:#5d3c2d;stroke:black;stroke-width:1;fill-opacity:1;stroke-opacity:0.3" />
<line x1="654" y1="135" x2="739" y2="135" stroke="pink" stroke-width="1" />
<rect x="739" y="133" width="6" height="5" style="fill:#5d3c2d;stroke:black;stroke-width:1;fill-opacity:1;stroke-opacity:0.3" />
<rect x="755" y="133" width="37" height="5" style="fill:#5d3c2d;stroke:black;stroke-width:1;fill-opacity:1;stroke-opacity:0.3" />
<line x1="771" y1="114" x2="775" y2="116" stroke="black" stroke-width="1" />
<line x1="775" y1="116" x2="779" y2="114" stroke="black" stroke-width="1" />
<rect x="628" y="112" width="25" height="5" style="fill:#5d3c2d;stroke:black;stroke-width:1;fill-opacity:1;stroke-opacity:0.3" />
<line x1="654" y1="114" x2="739" y2="114" stroke="pink" stroke-width="1" />
<rect x="739" y="112" width="32" height="5" style="fill:#5d3c2d;stroke:black;stroke-width:1;fill-opacity:1;stroke-opacity:0.3" />
<rect x="779" y="112" width="56" height="5" style="fill:#5d3c2d;stroke:black;stroke-width:1;fill-opacity:1;stroke-opacity:0.3" />
<line x1="774" y1="156" x2="785" y2="158" stroke="black" stroke-width="1" />
<line x1="785" y1="158" x2="796" y2="156" stroke="black" stroke-width="1" />
<rect x="631" y="154" width="23" height="5" style="fill:#5d3c2d;stroke:black;stroke-width:1;fill-opacity:1;stroke-opacity:0.3" />
<line x1="654" y1="156" x2="739" y2="156" stroke="pink" stroke-width="1" />
<rect x="739" y="154" width="34" height="5" style="fill:#5d3c2d;stroke:black;stroke-width:1;fill-opacity:1;stroke-opacity:0.3" />
<rect x="796" y="154" width="57" height="5" style="fill:#5d3c2d;stroke:black;stroke-width:1;fill-opacity:1;stroke-opacity:0.3" />
<line x1="775" y1="149" x2="777" y2="151" stroke="black" stroke-width="1" />
<line x1="777" y1="151" x2="779" y2="149" stroke="black" stroke-width="1" />
<rect x="631" y="147" width="22" height="5" style="fill:#5d3c2d;stroke:black;stroke-width:1;fill-opacity:1;stroke-opacity:0.3" />
<line x1="654" y1="149" x2="739" y2="149" stroke="pink" stroke-width="1" />
<rect x="739" y="147" width="35" height="5" style="fill:#5d3c2d;stroke:black;stroke-width:1;fill-opacity:1;stroke-opacity:0.3" />
<rect x="779" y="147" width="56" height="5" style="fill:#5d3c2d;stroke:black;stroke-width:1;fill-opacity:1;stroke-opacity:0.3" />
<line x1="766" y1="163" x2="783" y2="165" stroke="black" stroke-width="1" />
<line x1="783" y1="165" x2="801" y2="163" stroke="black" stroke-width="1" />
<rect x="642" y="161" width="11" height="5" style="fill:#5d3c2d;stroke:black;stroke-width:1;fill-opacity:1;stroke-opacity:0.3" />
<line x1="654" y1="163" x2="739" y2="163" stroke="pink" stroke-width="1" />
<rect x="739" y="161" width="26" height="5" style="fill:#5d3c2d;stroke:black;stroke-width:1;fill-opacity:1;stroke-opacity:0.3" />
<rect x="801" y="161" width="37" height="5" style="fill:#5d3c2d;stroke:black;stroke-width:1;fill-opacity:1;stroke-opacity:0.3" />
<line x1="766" y1="44" x2="781" y2="46" stroke="black" stroke-width="1" />
<line x1="781" y1="46" x2="796" y2="44" stroke="black" stroke-width="1" />
<rect x="643" y="42" width="11" height="5" style="fill:#f5b024;stroke:black;stroke-width:1;fill-opacity:1;stroke-opacity:0.3" />
<line x1="654" y1="44" x2="739" y2="44" stroke="pink" stroke-width="1" />
<rect x="739" y="42" width="27" height="5" style="fill:#f5b024;stroke:black;stroke-width:1;fill-opacity:1;stroke-opacity:0.3" />
<rect x="796" y="42" width="38" height="5" style="fill:#f5b024;stroke:black;stroke-width:1;fill-opacity:1;stroke-opacity:0.3" />
<line x1="785" y1="65" x2="790" y2="67" stroke="black" stroke-width="1" />
<line x1="790" y1="67" x2="796" y2="65" stroke="black" stroke-width="1" />
<rect x="643" y="63" width="10" height="5" style="fill:#5d3c2d;stroke:black;stroke-width:1;fill-opacity:1;stroke-opacity:0.3" />
<line x1="654" y1="65" x2="739" y2="65" stroke="pink" stroke-width="1" />
<rect x="739" y="63" width="45" height="5" style="fill:#5d3c2d;stroke:black;stroke-width:1;fill-opacity:1;stroke-opacity:0.3" />
<rect x="796" y="63" width="57" height="5" style="fill:#5d3c2d;stroke:black;stroke-width:1;fill-opacity:1;stroke-opacity:0.3" />
<line x1="754" y1="79" x2="775" y2="81" stroke="black" stroke-width="1" />
<line x1="775" y1="81" x2="797" y2="79" stroke="black" stroke-width="1" />
<rect x="716" y="77" width="38" height="5" style="fill:#5d3c2d;stroke:black;stroke-width:1;fill-opacity:1;stroke-opacity:0.3" />
<rect x="797" y="77" width="38" height="5" style="fill:#5d3c2d;stroke:black;stroke-width:1;fill-opacity:1;stroke-opacity:0.3" />
<line x1="804" y1="37" x2="809" y2="39" stroke="black" stroke-width="1" />
<line x1="809" y1="39" x2="815" y2="37" stroke="black" stroke-width="1" />
<rect x="765" y="35" width="38" height="5" style="fill:#5d3c2d;stroke:black;stroke-width:1;fill-opacity:1;stroke-opacity:0.3" />
<rect x="815" y="35" width="38" height="5" style="fill:#5d3c2d;stroke:black;stroke-width:1;fill-opacity:1;stroke-opacity:0.3" />
<line x1="805" y1="51" x2="810" y2="53" stroke="black" stroke-width="1" />
<line x1="810" y1="53" x2="816" y2="51" stroke="black" stroke-width="1" />
<rect x="766" y="49" width="38" height="5" style="fill:#5d3c2d;stroke:black;stroke-width:1;fill-opacity:1;stroke-opacity:0.3" />
<rect x="816" y="49" width="38" height="5" style="fill:#5d3c2d;stroke:black;stroke-width:1;fill-opacity:1;stroke-opacity:0.3" />
<line x1="807" y1="121" x2="811" y2="123" stroke="black" stroke-width="1" />
<line x1="811" y1="123" x2="815" y2="121" stroke="black" stroke-width="1" />
<rect x="768" y="119" width="38" height="5" style="fill:#5d3c2d;stroke:black;stroke-width:1;fill-opacity:1;stroke-opacity:0.3" />
<rect x="815" y="119" width="38" height="5" style="fill:#5d3c2d;stroke:black;stroke-width:1;fill-opacity:1;stroke-opacity:0.3" />
<line x1="811" y1="107" x2="818" y2="109" stroke="black" stroke-width="1" />
<line x1="818" y1="109" x2="826" y2="107" stroke="black" stroke-width="1" />
<rect x="772" y="105" width="38" height="5" style="fill:#5d3c2d;stroke:black;stroke-width:1;fill-opacity:1;stroke-opacity:0.3" />
<rect x="826" y="105" width="35" height="5" style="fill:#5d3c2d;stroke:black;stroke-width:1;fill-opacity:1;stroke-opacity:0.3" />
<line x1="810" y1="128" x2="812" y2="130" stroke="black" stroke-width="1" />
<line x1="812" y1="130" x2="815" y2="128" stroke="black" stroke-width="1" />
<rect x="772" y="126" width="37" height="5" style="fill:#5d3c2d;stroke:black;stroke-width:1;fill-opacity:1;stroke-opacity:0.3" />
<rect x="815" y="126" width="38" height="5" style="fill:#5d3c2d;stroke:black;stroke-width:1;fill-opacity:1;stroke-opacity:0.3" />
<text x="15"  y="176" style="font-family:Arial;font-size:10;stroke:black;fill:black;">all.merged.bam</text>
</svg>
    
