<?xml version="1.0" encoding="utf-8" standalone="no"?>
<!DOCTYPE svg PUBLIC "-//W3C//DTD SVG 1.1//EN"
  "http://www.w3.org/Graphics/SVG/1.1/DTD/svg11.dtd">
<svg height="1140" width="1000" version="1.1" viewBox="0 0 1000 1140" xmlns="http://www.w3.org/2000/svg" xmlns:xlink="http://www.w3.org/1999/xlink">
<line x1="36" y1="11" x2="963" y2="11" stroke="black" stroke-width="1" />
<rect x="36" y="9" width="50" height="5" style="fill:#f50002;stroke:black;stroke-width:1;fill-opacity:1;stroke-opacity:0.3" />
<rect x="86" y="9" width="12" height="5" style="fill:#53a1b5;stroke:black;stroke-width:1;fill-opacity:1;stroke-opacity:0.3" />
<rect x="181" y="9" width="61" height="5" style="fill:#53a1b5;stroke:black;stroke-width:1;fill-opacity:1;stroke-opacity:0.3" />
<rect x="441" y="9" width="98" height="5" style="fill:#53a1b5;stroke:black;stroke-width:1;fill-opacity:1;stroke-opacity:0.3" />
<rect x="625" y="9" width="70" height="5" style="fill:#53a1b5;stroke:black;stroke-width:1;fill-opacity:1;stroke-opacity:0.3" />
<rect x="696" y="9" width="266" height="5" style="fill:#f50002;stroke:black;stroke-width:1;fill-opacity:1;stroke-opacity:0.3" />
<text x="36"  y="23" style="font-family:Arial;font-size:10;stroke:black;fill:black;">Cre14.g630775.t1.1.v5.5 (+) chromosome_14:3468485-3471056</text>
<line x1="101" y1="30" x2="113" y2="32" stroke="black" stroke-width="1" />
<line x1="113" y1="32" x2="125" y2="30" stroke="black" stroke-width="1" />
<rect x="65" y="28" width="36" height="5" style="fill:#5d3c2d;stroke:black;stroke-width:1;fill-opacity:1;stroke-opacity:0.3" />
<rect x="125" y="28" width="4" height="5" style="fill:#5d3c2d;stroke:black;stroke-width:1;fill-opacity:1;stroke-opacity:0.3" />
<line x1="130" y1="30" x2="1186" y2="30" stroke="pink" stroke-width="1" />
<rect x="1186" y="28" width="31" height="5" style="fill:#5d3c2d;stroke:black;stroke-width:1;fill-opacity:1;stroke-opacity:0.3" />
<line x1="101" y1="37" x2="106" y2="39" stroke="black" stroke-width="1" />
<line x1="106" y1="39" x2="112" y2="37" stroke="black" stroke-width="1" />
<rect x="65" y="35" width="36" height="5" style="fill:#5d3c2d;stroke:black;stroke-width:1;fill-opacity:1;stroke-opacity:0.3" />
<rect x="112" y="35" width="17" height="5" style="fill:#5d3c2d;stroke:black;stroke-width:1;fill-opacity:1;stroke-opacity:0.3" />
<line x1="130" y1="37" x2="1186" y2="37" stroke="pink" stroke-width="1" />
<rect x="1186" y="35" width="18" height="5" style="fill:#5d3c2d;stroke:black;stroke-width:1;fill-opacity:1;stroke-opacity:0.3" />
<line x1="101" y1="44" x2="106" y2="46" stroke="black" stroke-width="1" />
<line x1="106" y1="46" x2="112" y2="44" stroke="black" stroke-width="1" />
<rect x="65" y="42" width="36" height="5" style="fill:#5d3c2d;stroke:black;stroke-width:1;fill-opacity:1;stroke-opacity:0.3" />
<rect x="112" y="42" width="17" height="5" style="fill:#5d3c2d;stroke:black;stroke-width:1;fill-opacity:1;stroke-opacity:0.3" />
<line x1="130" y1="44" x2="2350" y2="44" stroke="pink" stroke-width="1" />
<rect x="2350" y="42" width="18" height="5" style="fill:#5d3c2d;stroke:black;stroke-width:1;fill-opacity:1;stroke-opacity:0.3" />
<line x1="104" y1="51" x2="107" y2="53" stroke="black" stroke-width="1" />
<line x1="107" y1="53" x2="111" y2="51" stroke="black" stroke-width="1" />
<rect x="68" y="49" width="36" height="5" style="fill:#5d3c2d;stroke:black;stroke-width:1;fill-opacity:1;stroke-opacity:0.3" />
<rect x="111" y="49" width="19" height="5" style="fill:#5d3c2d;stroke:black;stroke-width:1;fill-opacity:1;stroke-opacity:0.3" />
<line x1="130" y1="51" x2="2350" y2="51" stroke="pink" stroke-width="1" />
<rect x="2350" y="49" width="16" height="5" style="fill:#5d3c2d;stroke:black;stroke-width:1;fill-opacity:1;stroke-opacity:0.3" />
<line x1="104" y1="58" x2="142" y2="60" stroke="black" stroke-width="1" />
<line x1="142" y1="60" x2="180" y2="58" stroke="black" stroke-width="1" />
<rect x="68" y="56" width="36" height="5" style="fill:#5d3c2d;stroke:black;stroke-width:1;fill-opacity:1;stroke-opacity:0.3" />
<rect x="180" y="56" width="1" height="5" style="fill:#5d3c2d;stroke:black;stroke-width:1;fill-opacity:1;stroke-opacity:0.3" />
<line x1="181" y1="58" x2="1186" y2="58" stroke="pink" stroke-width="1" />
<rect x="1186" y="56" width="31" height="5" style="fill:#5d3c2d;stroke:black;stroke-width:1;fill-opacity:1;stroke-opacity:0.3" />
<line x1="106" y1="65" x2="109" y2="67" stroke="black" stroke-width="1" />
<line x1="109" y1="67" x2="113" y2="65" stroke="black" stroke-width="1" />
<rect x="69" y="63" width="36" height="5" style="fill:#5d3c2d;stroke:black;stroke-width:1;fill-opacity:1;stroke-opacity:0.3" />
<rect x="113" y="63" width="16" height="5" style="fill:#5d3c2d;stroke:black;stroke-width:1;fill-opacity:1;stroke-opacity:0.3" />
<line x1="130" y1="65" x2="1186" y2="65" stroke="pink" stroke-width="1" />
<rect x="1186" y="63" width="19" height="5" style="fill:#5d3c2d;stroke:black;stroke-width:1;fill-opacity:1;stroke-opacity:0.3" />
<line x1="109" y1="72" x2="117" y2="74" stroke="black" stroke-width="1" />
<line x1="117" y1="74" x2="126" y2="72" stroke="black" stroke-width="1" />
<rect x="73" y="70" width="36" height="5" style="fill:#5d3c2d;stroke:black;stroke-width:1;fill-opacity:1;stroke-opacity:0.3" />
<rect x="126" y="70" width="3" height="5" style="fill:#5d3c2d;stroke:black;stroke-width:1;fill-opacity:1;stroke-opacity:0.3" />
<line x1="130" y1="72" x2="181" y2="72" stroke="pink" stroke-width="1" />
<rect x="181" y="70" width="32" height="5" style="fill:#5d3c2d;stroke:black;stroke-width:1;fill-opacity:1;stroke-opacity:0.3" />
<line x1="111" y1="79" x2="118" y2="81" stroke="black" stroke-width="1" />
<line x1="118" y1="81" x2="126" y2="79" stroke="black" stroke-width="1" />
<rect x="75" y="77" width="36" height="5" style="fill:#5d3c2d;stroke:black;stroke-width:1;fill-opacity:1;stroke-opacity:0.3" />
<rect x="126" y="77" width="3" height="5" style="fill:#5d3c2d;stroke:black;stroke-width:1;fill-opacity:1;stroke-opacity:0.3" />
<line x1="130" y1="79" x2="181" y2="79" stroke="pink" stroke-width="1" />
<rect x="181" y="77" width="32" height="5" style="fill:#5d3c2d;stroke:black;stroke-width:1;fill-opacity:1;stroke-opacity:0.3" />
<line x1="115" y1="86" x2="129" y2="88" stroke="black" stroke-width="1" />
<line x1="129" y1="88" x2="144" y2="86" stroke="black" stroke-width="1" />
<rect x="79" y="84" width="36" height="5" style="fill:#5d3c2d;stroke:black;stroke-width:1;fill-opacity:1;stroke-opacity:0.3" />
<rect x="144" y="84" width="8" height="5" style="fill:#5d3c2d;stroke:black;stroke-width:1;fill-opacity:1;stroke-opacity:0.3" />
<line x1="152" y1="86" x2="1158" y2="86" stroke="pink" stroke-width="1" />
<rect x="1158" y="84" width="27" height="5" style="fill:#5d3c2d;stroke:black;stroke-width:1;fill-opacity:1;stroke-opacity:0.3" />
<line x1="120" y1="93" x2="122" y2="95" stroke="black" stroke-width="1" />
<line x1="122" y1="95" x2="124" y2="93" stroke="black" stroke-width="1" />
<rect x="84" y="91" width="36" height="5" style="fill:#5d3c2d;stroke:black;stroke-width:1;fill-opacity:1;stroke-opacity:0.3" />
<rect x="124" y="91" width="5" height="5" style="fill:#5d3c2d;stroke:black;stroke-width:1;fill-opacity:1;stroke-opacity:0.3" />
<line x1="130" y1="93" x2="181" y2="93" stroke="pink" stroke-width="1" />
<rect x="181" y="91" width="30" height="5" style="fill:#5d3c2d;stroke:black;stroke-width:1;fill-opacity:1;stroke-opacity:0.3" />
<line x1="123" y1="100" x2="153" y2="102" stroke="black" stroke-width="1" />
<line x1="153" y1="102" x2="183" y2="100" stroke="black" stroke-width="1" />
<rect x="86" y="98" width="36" height="5" style="fill:#5d3c2d;stroke:black;stroke-width:1;fill-opacity:1;stroke-opacity:0.3" />
<rect x="183" y="98" width="30" height="5" style="fill:#5d3c2d;stroke:black;stroke-width:1;fill-opacity:1;stroke-opacity:0.3" />
<line x1="213" y1="100" x2="1095" y2="100" stroke="pink" stroke-width="1" />
<rect x="1095" y="98" width="5" height="5" style="fill:#5d3c2d;stroke:black;stroke-width:1;fill-opacity:1;stroke-opacity:0.3" />
<line x1="123" y1="107" x2="127" y2="109" stroke="black" stroke-width="1" />
<line x1="127" y1="109" x2="132" y2="107" stroke="black" stroke-width="1" />
<rect x="86" y="105" width="36" height="5" style="fill:#5d3c2d;stroke:black;stroke-width:1;fill-opacity:1;stroke-opacity:0.3" />
<rect x="132" y="105" width="20" height="5" style="fill:#5d3c2d;stroke:black;stroke-width:1;fill-opacity:1;stroke-opacity:0.3" />
<line x1="152" y1="107" x2="1158" y2="107" stroke="pink" stroke-width="1" />
<rect x="1158" y="105" width="15" height="5" style="fill:#5d3c2d;stroke:black;stroke-width:1;fill-opacity:1;stroke-opacity:0.3" />
<line x1="125" y1="114" x2="128" y2="116" stroke="black" stroke-width="1" />
<line x1="128" y1="116" x2="132" y2="114" stroke="black" stroke-width="1" />
<rect x="89" y="112" width="36" height="5" style="fill:#f5b024;stroke:black;stroke-width:1;fill-opacity:1;stroke-opacity:0.3" />
<rect x="132" y="112" width="36" height="5" style="fill:#f5b024;stroke:black;stroke-width:1;fill-opacity:1;stroke-opacity:0.3" />
<line x1="126" y1="121" x2="130" y2="123" stroke="black" stroke-width="1" />
<line x1="130" y1="123" x2="134" y2="121" stroke="black" stroke-width="1" />
<rect x="90" y="119" width="36" height="5" style="fill:#5d3c2d;stroke:black;stroke-width:1;fill-opacity:1;stroke-opacity:0.3" />
<rect x="134" y="119" width="18" height="5" style="fill:#5d3c2d;stroke:black;stroke-width:1;fill-opacity:1;stroke-opacity:0.3" />
<line x1="152" y1="121" x2="1158" y2="121" stroke="pink" stroke-width="1" />
<rect x="1158" y="119" width="17" height="5" style="fill:#5d3c2d;stroke:black;stroke-width:1;fill-opacity:1;stroke-opacity:0.3" />
<line x1="169" y1="128" x2="171" y2="130" stroke="black" stroke-width="1" />
<line x1="171" y1="130" x2="174" y2="128" stroke="black" stroke-width="1" />
<rect x="99" y="126" width="19" height="5" style="fill:#f5b024;stroke:black;stroke-width:1;fill-opacity:1;stroke-opacity:0.3" />
<line x1="118" y1="128" x2="152" y2="128" stroke="pink" stroke-width="1" />
<rect x="152" y="126" width="16" height="5" style="fill:#f5b024;stroke:black;stroke-width:1;fill-opacity:1;stroke-opacity:0.3" />
<rect x="174" y="126" width="36" height="5" style="fill:#f5b024;stroke:black;stroke-width:1;fill-opacity:1;stroke-opacity:0.3" />
<line x1="200" y1="135" x2="203" y2="137" stroke="black" stroke-width="1" />
<line x1="203" y1="137" x2="207" y2="135" stroke="black" stroke-width="1" />
<rect x="119" y="133" width="11" height="5" style="fill:#5d3c2d;stroke:black;stroke-width:1;fill-opacity:1;stroke-opacity:0.3" />
<line x1="130" y1="135" x2="181" y2="135" stroke="pink" stroke-width="1" />
<rect x="181" y="133" width="19" height="5" style="fill:#5d3c2d;stroke:black;stroke-width:1;fill-opacity:1;stroke-opacity:0.3" />
<rect x="207" y="133" width="35" height="5" style="fill:#5d3c2d;stroke:black;stroke-width:1;fill-opacity:1;stroke-opacity:0.3" />
<line x1="243" y1="135" x2="1493" y2="135" stroke="pink" stroke-width="1" />
<rect x="1493" y="133" width="0" height="5" style="fill:#5d3c2d;stroke:black;stroke-width:1;fill-opacity:1;stroke-opacity:0.3" />
<line x1="186" y1="142" x2="187" y2="144" stroke="black" stroke-width="1" />
<line x1="187" y1="144" x2="189" y2="142" stroke="black" stroke-width="1" />
<rect x="150" y="140" width="36" height="5" style="fill:#5d3c2d;stroke:black;stroke-width:1;fill-opacity:1;stroke-opacity:0.3" />
<rect x="189" y="140" width="32" height="5" style="fill:#5d3c2d;stroke:black;stroke-width:1;fill-opacity:1;stroke-opacity:0.3" />
<line x1="216" y1="114" x2="222" y2="116" stroke="black" stroke-width="1" />
<line x1="222" y1="116" x2="229" y2="114" stroke="black" stroke-width="1" />
<rect x="182" y="112" width="33" height="5" style="fill:#5d3c2d;stroke:black;stroke-width:1;fill-opacity:1;stroke-opacity:0.3" />
<rect x="229" y="112" width="14" height="5" style="fill:#5d3c2d;stroke:black;stroke-width:1;fill-opacity:1;stroke-opacity:0.3" />
<line x1="243" y1="114" x2="1493" y2="114" stroke="pink" stroke-width="1" />
<rect x="1493" y="112" width="22" height="5" style="fill:#5d3c2d;stroke:black;stroke-width:1;fill-opacity:1;stroke-opacity:0.3" />
<line x1="222" y1="149" x2="224" y2="151" stroke="black" stroke-width="1" />
<line x1="224" y1="151" x2="226" y2="149" stroke="black" stroke-width="1" />
<rect x="186" y="147" width="36" height="5" style="fill:#5d3c2d;stroke:black;stroke-width:1;fill-opacity:1;stroke-opacity:0.3" />
<rect x="226" y="147" width="16" height="5" style="fill:#5d3c2d;stroke:black;stroke-width:1;fill-opacity:1;stroke-opacity:0.3" />
<line x1="243" y1="149" x2="1493" y2="149" stroke="pink" stroke-width="1" />
<rect x="1493" y="147" width="19" height="5" style="fill:#5d3c2d;stroke:black;stroke-width:1;fill-opacity:1;stroke-opacity:0.3" />
<line x1="223" y1="156" x2="228" y2="158" stroke="black" stroke-width="1" />
<line x1="228" y1="158" x2="234" y2="156" stroke="black" stroke-width="1" />
<rect x="187" y="154" width="35" height="5" style="fill:#5d3c2d;stroke:black;stroke-width:1;fill-opacity:1;stroke-opacity:0.3" />
<rect x="234" y="154" width="9" height="5" style="fill:#5d3c2d;stroke:black;stroke-width:1;fill-opacity:1;stroke-opacity:0.3" />
<line x1="243" y1="156" x2="1493" y2="156" stroke="pink" stroke-width="1" />
<rect x="1493" y="154" width="27" height="5" style="fill:#5d3c2d;stroke:black;stroke-width:1;fill-opacity:1;stroke-opacity:0.3" />
<line x1="242" y1="163" x2="245" y2="165" stroke="black" stroke-width="1" />
<line x1="245" y1="165" x2="248" y2="163" stroke="black" stroke-width="1" />
<rect x="188" y="161" width="54" height="5" style="fill:#5d3c2d;stroke:black;stroke-width:1;fill-opacity:1;stroke-opacity:0.3" />
<rect x="248" y="161" width="13" height="5" style="fill:#5d3c2d;stroke:black;stroke-width:1;fill-opacity:1;stroke-opacity:0.3" />
<line x1="261" y1="163" x2="1493" y2="163" stroke="pink" stroke-width="1" />
<rect x="1493" y="161" width="40" height="5" style="fill:#5d3c2d;stroke:black;stroke-width:1;fill-opacity:1;stroke-opacity:0.3" />
<line x1="287" y1="72" x2="291" y2="74" stroke="black" stroke-width="1" />
<line x1="291" y1="74" x2="296" y2="72" stroke="black" stroke-width="1" />
<rect x="251" y="70" width="36" height="5" style="fill:#5d3c2d;stroke:black;stroke-width:1;fill-opacity:1;stroke-opacity:0.3" />
<rect x="296" y="70" width="36" height="5" style="fill:#5d3c2d;stroke:black;stroke-width:1;fill-opacity:1;stroke-opacity:0.3" />
<line x1="312" y1="79" x2="321" y2="81" stroke="black" stroke-width="1" />
<line x1="321" y1="81" x2="330" y2="79" stroke="black" stroke-width="1" />
<rect x="260" y="77" width="52" height="5" style="fill:#5d3c2d;stroke:black;stroke-width:1;fill-opacity:1;stroke-opacity:0.3" />
<rect x="330" y="77" width="54" height="5" style="fill:#5d3c2d;stroke:black;stroke-width:1;fill-opacity:1;stroke-opacity:0.3" />
<line x1="333" y1="93" x2="336" y2="95" stroke="black" stroke-width="1" />
<line x1="336" y1="95" x2="339" y2="93" stroke="black" stroke-width="1" />
<rect x="279" y="91" width="54" height="5" style="fill:#f5b024;stroke:black;stroke-width:1;fill-opacity:1;stroke-opacity:0.3" />
<rect x="339" y="91" width="13" height="5" style="fill:#f5b024;stroke:black;stroke-width:1;fill-opacity:1;stroke-opacity:0.3" />
<line x1="352" y1="93" x2="1358" y2="93" stroke="pink" stroke-width="1" />
<rect x="1358" y="91" width="40" height="5" style="fill:#f5b024;stroke:black;stroke-width:1;fill-opacity:1;stroke-opacity:0.3" />
<line x1="316" y1="128" x2="326" y2="130" stroke="black" stroke-width="1" />
<line x1="326" y1="130" x2="337" y2="128" stroke="black" stroke-width="1" />
<rect x="280" y="126" width="36" height="5" style="fill:#5d3c2d;stroke:black;stroke-width:1;fill-opacity:1;stroke-opacity:0.3" />
<rect x="337" y="126" width="35" height="5" style="fill:#5d3c2d;stroke:black;stroke-width:1;fill-opacity:1;stroke-opacity:0.3" />
<line x1="318" y1="142" x2="333" y2="144" stroke="black" stroke-width="1" />
<line x1="333" y1="144" x2="348" y2="142" stroke="black" stroke-width="1" />
<rect x="282" y="140" width="36" height="5" style="fill:#f5b024;stroke:black;stroke-width:1;fill-opacity:1;stroke-opacity:0.3" />
<rect x="348" y="140" width="27" height="5" style="fill:#f5b024;stroke:black;stroke-width:1;fill-opacity:1;stroke-opacity:0.3" />
<line x1="376" y1="142" x2="2547" y2="142" stroke="pink" stroke-width="1" />
<rect x="2547" y="140" width="8" height="5" style="fill:#f5b024;stroke:black;stroke-width:1;fill-opacity:1;stroke-opacity:0.3" />
<line x1="521" y1="72" x2="522" y2="74" stroke="black" stroke-width="1" />
<line x1="522" y1="74" x2="524" y2="72" stroke="black" stroke-width="1" />
<rect x="486" y="70" width="34" height="5" style="fill:#5d3c2d;stroke:black;stroke-width:1;fill-opacity:1;stroke-opacity:0.3" />
<rect x="524" y="70" width="15" height="5" style="fill:#5d3c2d;stroke:black;stroke-width:1;fill-opacity:1;stroke-opacity:0.3" />
<line x1="540" y1="72" x2="625" y2="72" stroke="pink" stroke-width="1" />
<rect x="625" y="70" width="19" height="5" style="fill:#5d3c2d;stroke:black;stroke-width:1;fill-opacity:1;stroke-opacity:0.3" />
<line x1="652" y1="79" x2="654" y2="81" stroke="black" stroke-width="1" />
<line x1="654" y1="81" x2="656" y2="79" stroke="black" stroke-width="1" />
<rect x="513" y="77" width="27" height="5" style="fill:#5d3c2d;stroke:black;stroke-width:1;fill-opacity:1;stroke-opacity:0.3" />
<line x1="540" y1="79" x2="625" y2="79" stroke="pink" stroke-width="1" />
<rect x="625" y="77" width="26" height="5" style="fill:#5d3c2d;stroke:black;stroke-width:1;fill-opacity:1;stroke-opacity:0.3" />
<rect x="656" y="77" width="54" height="5" style="fill:#5d3c2d;stroke:black;stroke-width:1;fill-opacity:1;stroke-opacity:0.3" />
<line x1="635" y1="128" x2="652" y2="130" stroke="black" stroke-width="1" />
<line x1="652" y1="130" x2="670" y2="128" stroke="black" stroke-width="1" />
<rect x="514" y="126" width="26" height="5" style="fill:#5d3c2d;stroke:black;stroke-width:1;fill-opacity:1;stroke-opacity:0.3" />
<line x1="540" y1="128" x2="625" y2="128" stroke="pink" stroke-width="1" />
<rect x="625" y="126" width="9" height="5" style="fill:#5d3c2d;stroke:black;stroke-width:1;fill-opacity:1;stroke-opacity:0.3" />
<rect x="670" y="126" width="36" height="5" style="fill:#5d3c2d;stroke:black;stroke-width:1;fill-opacity:1;stroke-opacity:0.3" />
<line x1="681" y1="72" x2="696" y2="74" stroke="black" stroke-width="1" />
<line x1="696" y1="74" x2="712" y2="72" stroke="black" stroke-width="1" />
<rect x="645" y="70" width="36" height="5" style="fill:#5d3c2d;stroke:black;stroke-width:1;fill-opacity:1;stroke-opacity:0.3" />
<rect x="712" y="70" width="36" height="5" style="fill:#5d3c2d;stroke:black;stroke-width:1;fill-opacity:1;stroke-opacity:0.3" />
<line x1="743" y1="128" x2="745" y2="130" stroke="black" stroke-width="1" />
<line x1="745" y1="130" x2="747" y2="128" stroke="black" stroke-width="1" />
<rect x="707" y="126" width="36" height="5" style="fill:#5d3c2d;stroke:black;stroke-width:1;fill-opacity:1;stroke-opacity:0.3" />
<rect x="747" y="126" width="35" height="5" style="fill:#5d3c2d;stroke:black;stroke-width:1;fill-opacity:1;stroke-opacity:0.3" />
<line x1="748" y1="79" x2="754" y2="81" stroke="black" stroke-width="1" />
<line x1="754" y1="81" x2="761" y2="79" stroke="black" stroke-width="1" />
<rect x="712" y="77" width="36" height="5" style="fill:#5d3c2d;stroke:black;stroke-width:1;fill-opacity:1;stroke-opacity:0.3" />
<rect x="761" y="77" width="35" height="5" style="fill:#5d3c2d;stroke:black;stroke-width:1;fill-opacity:1;stroke-opacity:0.3" />
<line x1="804" y1="72" x2="810" y2="74" stroke="black" stroke-width="1" />
<line x1="810" y1="74" x2="816" y2="72" stroke="black" stroke-width="1" />
<rect x="750" y="70" width="54" height="5" style="fill:#5d3c2d;stroke:black;stroke-width:1;fill-opacity:1;stroke-opacity:0.3" />
<rect x="816" y="70" width="54" height="5" style="fill:#5d3c2d;stroke:black;stroke-width:1;fill-opacity:1;stroke-opacity:0.3" />
<line x1="824" y1="128" x2="829" y2="130" stroke="black" stroke-width="1" />
<line x1="829" y1="130" x2="835" y2="128" stroke="black" stroke-width="1" />
<rect x="788" y="126" width="36" height="5" style="fill:#5d3c2d;stroke:black;stroke-width:1;fill-opacity:1;stroke-opacity:0.3" />
<rect x="835" y="126" width="36" height="5" style="fill:#5d3c2d;stroke:black;stroke-width:1;fill-opacity:1;stroke-opacity:0.3" />
<line x1="831" y1="79" x2="842" y2="81" stroke="black" stroke-width="1" />
<line x1="842" y1="81" x2="854" y2="79" stroke="black" stroke-width="1" />
<rect x="797" y="77" width="34" height="5" style="fill:#5d3c2d;stroke:black;stroke-width:1;fill-opacity:1;stroke-opacity:0.3" />
<rect x="854" y="77" width="36" height="5" style="fill:#5d3c2d;stroke:black;stroke-width:1;fill-opacity:1;stroke-opacity:0.3" />
<text x="15"  y="176" style="font-family:Arial;font-size:10;stroke:black;fill:black;">all.merged.bam</text>
</svg>
    
