<?xml version="1.0" encoding="utf-8" standalone="no"?>
<!DOCTYPE svg PUBLIC "-//W3C//DTD SVG 1.1//EN"
  "http://www.w3.org/Graphics/SVG/1.1/DTD/svg11.dtd">
<svg height="1140" width="1000" version="1.1" viewBox="0 0 1000 1140" xmlns="http://www.w3.org/2000/svg" xmlns:xlink="http://www.w3.org/1999/xlink">
<line x1="35" y1="11" x2="964" y2="11" stroke="black" stroke-width="1" />
<rect x="35" y="9" width="243" height="5" style="fill:#f50002;stroke:black;stroke-width:1;fill-opacity:1;stroke-opacity:0.3" />
<rect x="279" y="9" width="513" height="5" style="fill:#53a1b5;stroke:black;stroke-width:1;fill-opacity:1;stroke-opacity:0.3" />
<rect x="822" y="9" width="31" height="5" style="fill:#53a1b5;stroke:black;stroke-width:1;fill-opacity:1;stroke-opacity:0.3" />
<rect x="913" y="9" width="39" height="5" style="fill:#53a1b5;stroke:black;stroke-width:1;fill-opacity:1;stroke-opacity:0.3" />
<rect x="952" y="9" width="11" height="5" style="fill:#f50002;stroke:black;stroke-width:1;fill-opacity:1;stroke-opacity:0.3" />
<text x="35"  y="23" style="font-family:Arial;font-size:10;stroke:black;fill:black;">Cre16.g656000.t1.2.v5.5 (-) chromosome_16:1914878-1917493</text>
<line x1="160" y1="30" x2="167" y2="32" stroke="black" stroke-width="1" />
<line x1="167" y1="32" x2="175" y2="30" stroke="black" stroke-width="1" />
<rect x="125" y="28" width="35" height="5" style="fill:#f5b024;stroke:black;stroke-width:1;fill-opacity:1;stroke-opacity:0.3" />
<rect x="175" y="28" width="33" height="5" style="fill:#f5b024;stroke:black;stroke-width:1;fill-opacity:1;stroke-opacity:0.3" />
<line x1="160" y1="37" x2="167" y2="39" stroke="black" stroke-width="1" />
<line x1="167" y1="39" x2="175" y2="37" stroke="black" stroke-width="1" />
<rect x="125" y="35" width="35" height="5" style="fill:#f5b024;stroke:black;stroke-width:1;fill-opacity:1;stroke-opacity:0.3" />
<rect x="175" y="35" width="35" height="5" style="fill:#f5b024;stroke:black;stroke-width:1;fill-opacity:1;stroke-opacity:0.3" />
<line x1="160" y1="44" x2="167" y2="46" stroke="black" stroke-width="1" />
<line x1="167" y1="46" x2="175" y2="44" stroke="black" stroke-width="1" />
<rect x="125" y="42" width="35" height="5" style="fill:#f5b024;stroke:black;stroke-width:1;fill-opacity:1;stroke-opacity:0.3" />
<rect x="175" y="42" width="33" height="5" style="fill:#f5b024;stroke:black;stroke-width:1;fill-opacity:1;stroke-opacity:0.3" />
<line x1="161" y1="51" x2="170" y2="53" stroke="black" stroke-width="1" />
<line x1="170" y1="53" x2="180" y2="51" stroke="black" stroke-width="1" />
<rect x="126" y="49" width="35" height="5" style="fill:#f5b024;stroke:black;stroke-width:1;fill-opacity:1;stroke-opacity:0.3" />
<rect x="180" y="49" width="35" height="5" style="fill:#f5b024;stroke:black;stroke-width:1;fill-opacity:1;stroke-opacity:0.3" />
<line x1="164" y1="58" x2="169" y2="60" stroke="black" stroke-width="1" />
<line x1="169" y1="60" x2="175" y2="58" stroke="black" stroke-width="1" />
<rect x="129" y="56" width="35" height="5" style="fill:#f5b024;stroke:black;stroke-width:1;fill-opacity:1;stroke-opacity:0.3" />
<rect x="175" y="56" width="35" height="5" style="fill:#f5b024;stroke:black;stroke-width:1;fill-opacity:1;stroke-opacity:0.3" />
<line x1="169" y1="65" x2="175" y2="67" stroke="black" stroke-width="1" />
<line x1="175" y1="67" x2="182" y2="65" stroke="black" stroke-width="1" />
<rect x="133" y="63" width="35" height="5" style="fill:#f5b024;stroke:black;stroke-width:1;fill-opacity:1;stroke-opacity:0.3" />
<rect x="182" y="63" width="35" height="5" style="fill:#f5b024;stroke:black;stroke-width:1;fill-opacity:1;stroke-opacity:0.3" />
<line x1="169" y1="72" x2="173" y2="74" stroke="black" stroke-width="1" />
<line x1="173" y1="74" x2="178" y2="72" stroke="black" stroke-width="1" />
<rect x="133" y="70" width="35" height="5" style="fill:#f5b024;stroke:black;stroke-width:1;fill-opacity:1;stroke-opacity:0.3" />
<rect x="178" y="70" width="34" height="5" style="fill:#f5b024;stroke:black;stroke-width:1;fill-opacity:1;stroke-opacity:0.3" />
<line x1="168" y1="79" x2="178" y2="81" stroke="black" stroke-width="1" />
<line x1="178" y1="81" x2="188" y2="79" stroke="black" stroke-width="1" />
<rect x="134" y="77" width="34" height="5" style="fill:#f5b024;stroke:black;stroke-width:1;fill-opacity:1;stroke-opacity:0.3" />
<rect x="188" y="77" width="35" height="5" style="fill:#f5b024;stroke:black;stroke-width:1;fill-opacity:1;stroke-opacity:0.3" />
<line x1="169" y1="86" x2="173" y2="88" stroke="black" stroke-width="1" />
<line x1="173" y1="88" x2="178" y2="86" stroke="black" stroke-width="1" />
<rect x="135" y="84" width="34" height="5" style="fill:#f5b024;stroke:black;stroke-width:1;fill-opacity:1;stroke-opacity:0.3" />
<rect x="178" y="84" width="34" height="5" style="fill:#f5b024;stroke:black;stroke-width:1;fill-opacity:1;stroke-opacity:0.3" />
<line x1="174" y1="93" x2="181" y2="95" stroke="black" stroke-width="1" />
<line x1="181" y1="95" x2="188" y2="93" stroke="black" stroke-width="1" />
<rect x="140" y="91" width="33" height="5" style="fill:#f5b024;stroke:black;stroke-width:1;fill-opacity:1;stroke-opacity:0.3" />
<rect x="188" y="91" width="35" height="5" style="fill:#f5b024;stroke:black;stroke-width:1;fill-opacity:1;stroke-opacity:0.3" />
<line x1="174" y1="100" x2="181" y2="102" stroke="black" stroke-width="1" />
<line x1="181" y1="102" x2="188" y2="100" stroke="black" stroke-width="1" />
<rect x="141" y="98" width="33" height="5" style="fill:#f5b024;stroke:black;stroke-width:1;fill-opacity:1;stroke-opacity:0.3" />
<rect x="188" y="98" width="35" height="5" style="fill:#f5b024;stroke:black;stroke-width:1;fill-opacity:1;stroke-opacity:0.3" />
<line x1="297" y1="30" x2="300" y2="32" stroke="black" stroke-width="1" />
<line x1="300" y1="32" x2="303" y2="30" stroke="black" stroke-width="1" />
<rect x="244" y="28" width="53" height="5" style="fill:#f5b024;stroke:black;stroke-width:1;fill-opacity:1;stroke-opacity:0.3" />
<rect x="303" y="28" width="52" height="5" style="fill:#f5b024;stroke:black;stroke-width:1;fill-opacity:1;stroke-opacity:0.3" />
<line x1="279" y1="37" x2="282" y2="39" stroke="black" stroke-width="1" />
<line x1="282" y1="39" x2="286" y2="37" stroke="black" stroke-width="1" />
<rect x="244" y="35" width="35" height="5" style="fill:#f5b024;stroke:black;stroke-width:1;fill-opacity:1;stroke-opacity:0.3" />
<rect x="286" y="35" width="34" height="5" style="fill:#f5b024;stroke:black;stroke-width:1;fill-opacity:1;stroke-opacity:0.3" />
<line x1="291" y1="44" x2="300" y2="46" stroke="black" stroke-width="1" />
<line x1="300" y1="46" x2="309" y2="44" stroke="black" stroke-width="1" />
<rect x="256" y="42" width="35" height="5" style="fill:#f5b024;stroke:black;stroke-width:1;fill-opacity:1;stroke-opacity:0.3" />
<rect x="309" y="42" width="35" height="5" style="fill:#f5b024;stroke:black;stroke-width:1;fill-opacity:1;stroke-opacity:0.3" />
<line x1="295" y1="51" x2="302" y2="53" stroke="black" stroke-width="1" />
<line x1="302" y1="53" x2="309" y2="51" stroke="black" stroke-width="1" />
<rect x="261" y="49" width="34" height="5" style="fill:#f5b024;stroke:black;stroke-width:1;fill-opacity:1;stroke-opacity:0.3" />
<rect x="309" y="49" width="35" height="5" style="fill:#f5b024;stroke:black;stroke-width:1;fill-opacity:1;stroke-opacity:0.3" />
<line x1="295" y1="58" x2="301" y2="60" stroke="black" stroke-width="1" />
<line x1="301" y1="60" x2="308" y2="58" stroke="black" stroke-width="1" />
<rect x="261" y="56" width="34" height="5" style="fill:#f5b024;stroke:black;stroke-width:1;fill-opacity:1;stroke-opacity:0.3" />
<rect x="308" y="56" width="35" height="5" style="fill:#f5b024;stroke:black;stroke-width:1;fill-opacity:1;stroke-opacity:0.3" />
<line x1="295" y1="65" x2="302" y2="67" stroke="black" stroke-width="1" />
<line x1="302" y1="67" x2="309" y2="65" stroke="black" stroke-width="1" />
<rect x="261" y="63" width="34" height="5" style="fill:#f5b024;stroke:black;stroke-width:1;fill-opacity:1;stroke-opacity:0.3" />
<rect x="309" y="63" width="35" height="5" style="fill:#f5b024;stroke:black;stroke-width:1;fill-opacity:1;stroke-opacity:0.3" />
<line x1="297" y1="72" x2="300" y2="74" stroke="black" stroke-width="1" />
<line x1="300" y1="74" x2="303" y2="72" stroke="black" stroke-width="1" />
<rect x="261" y="70" width="35" height="5" style="fill:#f5b024;stroke:black;stroke-width:1;fill-opacity:1;stroke-opacity:0.3" />
<rect x="303" y="70" width="35" height="5" style="fill:#f5b024;stroke:black;stroke-width:1;fill-opacity:1;stroke-opacity:0.3" />
<line x1="295" y1="79" x2="297" y2="81" stroke="black" stroke-width="1" />
<line x1="297" y1="81" x2="299" y2="79" stroke="black" stroke-width="1" />
<rect x="263" y="77" width="31" height="5" style="fill:#5d3c2d;stroke:black;stroke-width:1;fill-opacity:1;stroke-opacity:0.3" />
<rect x="299" y="77" width="35" height="5" style="fill:#5d3c2d;stroke:black;stroke-width:1;fill-opacity:1;stroke-opacity:0.3" />
<line x1="301" y1="86" x2="305" y2="88" stroke="black" stroke-width="1" />
<line x1="305" y1="88" x2="309" y2="86" stroke="black" stroke-width="1" />
<rect x="265" y="84" width="35" height="5" style="fill:#f5b024;stroke:black;stroke-width:1;fill-opacity:1;stroke-opacity:0.3" />
<rect x="309" y="84" width="35" height="5" style="fill:#f5b024;stroke:black;stroke-width:1;fill-opacity:1;stroke-opacity:0.3" />
<line x1="303" y1="93" x2="312" y2="95" stroke="black" stroke-width="1" />
<line x1="312" y1="95" x2="321" y2="93" stroke="black" stroke-width="1" />
<rect x="268" y="91" width="35" height="5" style="fill:#f5b024;stroke:black;stroke-width:1;fill-opacity:1;stroke-opacity:0.3" />
<rect x="321" y="91" width="34" height="5" style="fill:#f5b024;stroke:black;stroke-width:1;fill-opacity:1;stroke-opacity:0.3" />
<line x1="305" y1="100" x2="308" y2="102" stroke="black" stroke-width="1" />
<line x1="308" y1="102" x2="312" y2="100" stroke="black" stroke-width="1" />
<rect x="269" y="98" width="35" height="5" style="fill:#f5b024;stroke:black;stroke-width:1;fill-opacity:1;stroke-opacity:0.3" />
<rect x="312" y="98" width="35" height="5" style="fill:#f5b024;stroke:black;stroke-width:1;fill-opacity:1;stroke-opacity:0.3" />
<line x1="313" y1="107" x2="315" y2="109" stroke="black" stroke-width="1" />
<line x1="315" y1="109" x2="317" y2="107" stroke="black" stroke-width="1" />
<rect x="278" y="105" width="35" height="5" style="fill:#f5b024;stroke:black;stroke-width:1;fill-opacity:1;stroke-opacity:0.3" />
<rect x="317" y="105" width="35" height="5" style="fill:#f5b024;stroke:black;stroke-width:1;fill-opacity:1;stroke-opacity:0.3" />
<line x1="313" y1="114" x2="315" y2="116" stroke="black" stroke-width="1" />
<line x1="315" y1="116" x2="317" y2="114" stroke="black" stroke-width="1" />
<rect x="278" y="112" width="34" height="5" style="fill:#f5b024;stroke:black;stroke-width:1;fill-opacity:1;stroke-opacity:0.3" />
<rect x="317" y="112" width="32" height="5" style="fill:#f5b024;stroke:black;stroke-width:1;fill-opacity:1;stroke-opacity:0.3" />
<line x1="313" y1="121" x2="315" y2="123" stroke="black" stroke-width="1" />
<line x1="315" y1="123" x2="318" y2="121" stroke="black" stroke-width="1" />
<rect x="278" y="119" width="35" height="5" style="fill:#f5b024;stroke:black;stroke-width:1;fill-opacity:1;stroke-opacity:0.3" />
<rect x="318" y="119" width="35" height="5" style="fill:#f5b024;stroke:black;stroke-width:1;fill-opacity:1;stroke-opacity:0.3" />
<line x1="324" y1="128" x2="337" y2="130" stroke="black" stroke-width="1" />
<line x1="337" y1="130" x2="351" y2="128" stroke="black" stroke-width="1" />
<rect x="289" y="126" width="35" height="5" style="fill:#f5b024;stroke:black;stroke-width:1;fill-opacity:1;stroke-opacity:0.3" />
<rect x="351" y="126" width="33" height="5" style="fill:#f5b024;stroke:black;stroke-width:1;fill-opacity:1;stroke-opacity:0.3" />
<line x1="326" y1="135" x2="331" y2="137" stroke="black" stroke-width="1" />
<line x1="331" y1="137" x2="337" y2="135" stroke="black" stroke-width="1" />
<rect x="291" y="133" width="35" height="5" style="fill:#f5b024;stroke:black;stroke-width:1;fill-opacity:1;stroke-opacity:0.3" />
<rect x="337" y="133" width="35" height="5" style="fill:#f5b024;stroke:black;stroke-width:1;fill-opacity:1;stroke-opacity:0.3" />
<line x1="332" y1="142" x2="334" y2="144" stroke="black" stroke-width="1" />
<line x1="334" y1="144" x2="337" y2="142" stroke="black" stroke-width="1" />
<rect x="296" y="140" width="35" height="5" style="fill:#f5b024;stroke:black;stroke-width:1;fill-opacity:1;stroke-opacity:0.3" />
<rect x="337" y="140" width="35" height="5" style="fill:#f5b024;stroke:black;stroke-width:1;fill-opacity:1;stroke-opacity:0.3" />
<line x1="334" y1="149" x2="345" y2="151" stroke="black" stroke-width="1" />
<line x1="345" y1="151" x2="356" y2="149" stroke="black" stroke-width="1" />
<rect x="299" y="147" width="35" height="5" style="fill:#f5b024;stroke:black;stroke-width:1;fill-opacity:1;stroke-opacity:0.3" />
<rect x="356" y="147" width="35" height="5" style="fill:#f5b024;stroke:black;stroke-width:1;fill-opacity:1;stroke-opacity:0.3" />
<line x1="349" y1="156" x2="353" y2="158" stroke="black" stroke-width="1" />
<line x1="353" y1="158" x2="357" y2="156" stroke="black" stroke-width="1" />
<rect x="301" y="154" width="48" height="5" style="fill:#f5b024;stroke:black;stroke-width:1;fill-opacity:1;stroke-opacity:0.3" />
<rect x="357" y="154" width="53" height="5" style="fill:#f5b024;stroke:black;stroke-width:1;fill-opacity:1;stroke-opacity:0.3" />
<line x1="336" y1="163" x2="340" y2="165" stroke="black" stroke-width="1" />
<line x1="340" y1="165" x2="344" y2="163" stroke="black" stroke-width="1" />
<rect x="301" y="161" width="35" height="5" style="fill:#5d3c2d;stroke:black;stroke-width:1;fill-opacity:1;stroke-opacity:0.3" />
<rect x="344" y="161" width="35" height="5" style="fill:#5d3c2d;stroke:black;stroke-width:1;fill-opacity:1;stroke-opacity:0.3" />
<line x1="355" y1="37" x2="357" y2="39" stroke="black" stroke-width="1" />
<line x1="357" y1="39" x2="359" y2="37" stroke="black" stroke-width="1" />
<rect x="321" y="35" width="34" height="5" style="fill:#f5b024;stroke:black;stroke-width:1;fill-opacity:1;stroke-opacity:0.3" />
<rect x="359" y="35" width="34" height="5" style="fill:#f5b024;stroke:black;stroke-width:1;fill-opacity:1;stroke-opacity:0.3" />
<line x1="388" y1="44" x2="392" y2="46" stroke="black" stroke-width="1" />
<line x1="392" y1="46" x2="396" y2="44" stroke="black" stroke-width="1" />
<rect x="354" y="42" width="34" height="5" style="fill:#f5b024;stroke:black;stroke-width:1;fill-opacity:1;stroke-opacity:0.3" />
<rect x="396" y="42" width="35" height="5" style="fill:#f5b024;stroke:black;stroke-width:1;fill-opacity:1;stroke-opacity:0.3" />
<line x1="388" y1="51" x2="395" y2="53" stroke="black" stroke-width="1" />
<line x1="395" y1="53" x2="403" y2="51" stroke="black" stroke-width="1" />
<rect x="354" y="49" width="33" height="5" style="fill:#f5b024;stroke:black;stroke-width:1;fill-opacity:1;stroke-opacity:0.3" />
<rect x="403" y="49" width="35" height="5" style="fill:#f5b024;stroke:black;stroke-width:1;fill-opacity:1;stroke-opacity:0.3" />
<line x1="390" y1="30" x2="403" y2="32" stroke="black" stroke-width="1" />
<line x1="403" y1="32" x2="417" y2="30" stroke="black" stroke-width="1" />
<rect x="356" y="28" width="34" height="5" style="fill:#f5b024;stroke:black;stroke-width:1;fill-opacity:1;stroke-opacity:0.3" />
<rect x="417" y="28" width="35" height="5" style="fill:#f5b024;stroke:black;stroke-width:1;fill-opacity:1;stroke-opacity:0.3" />
<line x1="395" y1="58" x2="398" y2="60" stroke="black" stroke-width="1" />
<line x1="398" y1="60" x2="401" y2="58" stroke="black" stroke-width="1" />
<rect x="359" y="56" width="35" height="5" style="fill:#f5b024;stroke:black;stroke-width:1;fill-opacity:1;stroke-opacity:0.3" />
<rect x="401" y="56" width="35" height="5" style="fill:#f5b024;stroke:black;stroke-width:1;fill-opacity:1;stroke-opacity:0.3" />
<line x1="397" y1="65" x2="399" y2="67" stroke="black" stroke-width="1" />
<line x1="399" y1="67" x2="402" y2="65" stroke="black" stroke-width="1" />
<rect x="361" y="63" width="35" height="5" style="fill:#f5b024;stroke:black;stroke-width:1;fill-opacity:1;stroke-opacity:0.3" />
<rect x="402" y="63" width="35" height="5" style="fill:#f5b024;stroke:black;stroke-width:1;fill-opacity:1;stroke-opacity:0.3" />
<line x1="405" y1="72" x2="410" y2="74" stroke="black" stroke-width="1" />
<line x1="410" y1="74" x2="416" y2="72" stroke="black" stroke-width="1" />
<rect x="370" y="70" width="35" height="5" style="fill:#f5b024;stroke:black;stroke-width:1;fill-opacity:1;stroke-opacity:0.3" />
<rect x="416" y="70" width="34" height="5" style="fill:#f5b024;stroke:black;stroke-width:1;fill-opacity:1;stroke-opacity:0.3" />
<line x1="405" y1="79" x2="408" y2="81" stroke="black" stroke-width="1" />
<line x1="408" y1="81" x2="412" y2="79" stroke="black" stroke-width="1" />
<rect x="370" y="77" width="35" height="5" style="fill:#f5b024;stroke:black;stroke-width:1;fill-opacity:1;stroke-opacity:0.3" />
<rect x="412" y="77" width="34" height="5" style="fill:#f5b024;stroke:black;stroke-width:1;fill-opacity:1;stroke-opacity:0.3" />
<line x1="405" y1="86" x2="412" y2="88" stroke="black" stroke-width="1" />
<line x1="412" y1="88" x2="419" y2="86" stroke="black" stroke-width="1" />
<rect x="370" y="84" width="35" height="5" style="fill:#f5b024;stroke:black;stroke-width:1;fill-opacity:1;stroke-opacity:0.3" />
<rect x="419" y="84" width="35" height="5" style="fill:#f5b024;stroke:black;stroke-width:1;fill-opacity:1;stroke-opacity:0.3" />
<line x1="410" y1="93" x2="413" y2="95" stroke="black" stroke-width="1" />
<line x1="413" y1="95" x2="417" y2="93" stroke="black" stroke-width="1" />
<rect x="375" y="91" width="35" height="5" style="fill:#f5b024;stroke:black;stroke-width:1;fill-opacity:1;stroke-opacity:0.3" />
<rect x="417" y="91" width="35" height="5" style="fill:#f5b024;stroke:black;stroke-width:1;fill-opacity:1;stroke-opacity:0.3" />
<line x1="440" y1="37" x2="447" y2="39" stroke="black" stroke-width="1" />
<line x1="447" y1="39" x2="455" y2="37" stroke="black" stroke-width="1" />
<rect x="405" y="35" width="35" height="5" style="fill:#f5b024;stroke:black;stroke-width:1;fill-opacity:1;stroke-opacity:0.3" />
<rect x="455" y="35" width="35" height="5" style="fill:#f5b024;stroke:black;stroke-width:1;fill-opacity:1;stroke-opacity:0.3" />
<line x1="444" y1="100" x2="447" y2="102" stroke="black" stroke-width="1" />
<line x1="447" y1="102" x2="451" y2="100" stroke="black" stroke-width="1" />
<rect x="409" y="98" width="35" height="5" style="fill:#f5b024;stroke:black;stroke-width:1;fill-opacity:1;stroke-opacity:0.3" />
<rect x="451" y="98" width="35" height="5" style="fill:#f5b024;stroke:black;stroke-width:1;fill-opacity:1;stroke-opacity:0.3" />
<line x1="444" y1="107" x2="449" y2="109" stroke="black" stroke-width="1" />
<line x1="449" y1="109" x2="455" y2="107" stroke="black" stroke-width="1" />
<rect x="409" y="105" width="35" height="5" style="fill:#f5b024;stroke:black;stroke-width:1;fill-opacity:1;stroke-opacity:0.3" />
<rect x="455" y="105" width="35" height="5" style="fill:#f5b024;stroke:black;stroke-width:1;fill-opacity:1;stroke-opacity:0.3" />
<line x1="465" y1="114" x2="471" y2="116" stroke="black" stroke-width="1" />
<line x1="471" y1="116" x2="477" y2="114" stroke="black" stroke-width="1" />
<rect x="411" y="112" width="53" height="5" style="fill:#f5b024;stroke:black;stroke-width:1;fill-opacity:1;stroke-opacity:0.3" />
<rect x="477" y="112" width="53" height="5" style="fill:#f5b024;stroke:black;stroke-width:1;fill-opacity:1;stroke-opacity:0.3" />
<line x1="449" y1="121" x2="455" y2="123" stroke="black" stroke-width="1" />
<line x1="455" y1="123" x2="461" y2="121" stroke="black" stroke-width="1" />
<rect x="416" y="119" width="32" height="5" style="fill:#f5b024;stroke:black;stroke-width:1;fill-opacity:1;stroke-opacity:0.3" />
<rect x="461" y="119" width="35" height="5" style="fill:#f5b024;stroke:black;stroke-width:1;fill-opacity:1;stroke-opacity:0.3" />
<line x1="455" y1="128" x2="459" y2="130" stroke="black" stroke-width="1" />
<line x1="459" y1="130" x2="464" y2="128" stroke="black" stroke-width="1" />
<rect x="420" y="126" width="35" height="5" style="fill:#f5b024;stroke:black;stroke-width:1;fill-opacity:1;stroke-opacity:0.3" />
<rect x="464" y="126" width="35" height="5" style="fill:#f5b024;stroke:black;stroke-width:1;fill-opacity:1;stroke-opacity:0.3" />
<line x1="460" y1="135" x2="463" y2="137" stroke="black" stroke-width="1" />
<line x1="463" y1="137" x2="467" y2="135" stroke="black" stroke-width="1" />
<rect x="425" y="133" width="34" height="5" style="fill:#f5b024;stroke:black;stroke-width:1;fill-opacity:1;stroke-opacity:0.3" />
<rect x="467" y="133" width="35" height="5" style="fill:#f5b024;stroke:black;stroke-width:1;fill-opacity:1;stroke-opacity:0.3" />
<line x1="490" y1="30" x2="504" y2="32" stroke="black" stroke-width="1" />
<line x1="504" y1="32" x2="519" y2="30" stroke="black" stroke-width="1" />
<rect x="454" y="28" width="35" height="5" style="fill:#f5b024;stroke:black;stroke-width:1;fill-opacity:1;stroke-opacity:0.3" />
<rect x="519" y="28" width="35" height="5" style="fill:#f5b024;stroke:black;stroke-width:1;fill-opacity:1;stroke-opacity:0.3" />
<line x1="495" y1="44" x2="507" y2="46" stroke="black" stroke-width="1" />
<line x1="507" y1="46" x2="519" y2="44" stroke="black" stroke-width="1" />
<rect x="460" y="42" width="35" height="5" style="fill:#f5b024;stroke:black;stroke-width:1;fill-opacity:1;stroke-opacity:0.3" />
<rect x="519" y="42" width="35" height="5" style="fill:#f5b024;stroke:black;stroke-width:1;fill-opacity:1;stroke-opacity:0.3" />
<line x1="499" y1="51" x2="506" y2="53" stroke="black" stroke-width="1" />
<line x1="506" y1="53" x2="513" y2="51" stroke="black" stroke-width="1" />
<rect x="463" y="49" width="35" height="5" style="fill:#f5b024;stroke:black;stroke-width:1;fill-opacity:1;stroke-opacity:0.3" />
<rect x="513" y="49" width="35" height="5" style="fill:#f5b024;stroke:black;stroke-width:1;fill-opacity:1;stroke-opacity:0.3" />
<line x1="500" y1="58" x2="515" y2="60" stroke="black" stroke-width="1" />
<line x1="515" y1="60" x2="530" y2="58" stroke="black" stroke-width="1" />
<rect x="466" y="56" width="34" height="5" style="fill:#f5b024;stroke:black;stroke-width:1;fill-opacity:1;stroke-opacity:0.3" />
<rect x="530" y="56" width="35" height="5" style="fill:#f5b024;stroke:black;stroke-width:1;fill-opacity:1;stroke-opacity:0.3" />
<line x1="509" y1="65" x2="517" y2="67" stroke="black" stroke-width="1" />
<line x1="517" y1="67" x2="525" y2="65" stroke="black" stroke-width="1" />
<rect x="474" y="63" width="35" height="5" style="fill:#f5b024;stroke:black;stroke-width:1;fill-opacity:1;stroke-opacity:0.3" />
<rect x="525" y="63" width="35" height="5" style="fill:#f5b024;stroke:black;stroke-width:1;fill-opacity:1;stroke-opacity:0.3" />
<line x1="623" y1="30" x2="626" y2="32" stroke="black" stroke-width="1" />
<line x1="626" y1="32" x2="629" y2="30" stroke="black" stroke-width="1" />
<rect x="590" y="28" width="33" height="5" style="fill:#f5b024;stroke:black;stroke-width:1;fill-opacity:1;stroke-opacity:0.3" />
<rect x="629" y="28" width="35" height="5" style="fill:#f5b024;stroke:black;stroke-width:1;fill-opacity:1;stroke-opacity:0.3" />
<line x1="662" y1="37" x2="670" y2="39" stroke="black" stroke-width="1" />
<line x1="670" y1="39" x2="678" y2="37" stroke="black" stroke-width="1" />
<rect x="627" y="35" width="35" height="5" style="fill:#f5b024;stroke:black;stroke-width:1;fill-opacity:1;stroke-opacity:0.3" />
<rect x="678" y="35" width="32" height="5" style="fill:#f5b024;stroke:black;stroke-width:1;fill-opacity:1;stroke-opacity:0.3" />
<line x1="666" y1="44" x2="669" y2="46" stroke="black" stroke-width="1" />
<line x1="669" y1="46" x2="672" y2="44" stroke="black" stroke-width="1" />
<rect x="631" y="42" width="35" height="5" style="fill:#f5b024;stroke:black;stroke-width:1;fill-opacity:1;stroke-opacity:0.3" />
<rect x="672" y="42" width="35" height="5" style="fill:#f5b024;stroke:black;stroke-width:1;fill-opacity:1;stroke-opacity:0.3" />
<line x1="666" y1="51" x2="675" y2="53" stroke="black" stroke-width="1" />
<line x1="675" y1="53" x2="685" y2="51" stroke="black" stroke-width="1" />
<rect x="631" y="49" width="35" height="5" style="fill:#f5b024;stroke:black;stroke-width:1;fill-opacity:1;stroke-opacity:0.3" />
<rect x="685" y="49" width="35" height="5" style="fill:#f5b024;stroke:black;stroke-width:1;fill-opacity:1;stroke-opacity:0.3" />
<line x1="676" y1="58" x2="679" y2="60" stroke="black" stroke-width="1" />
<line x1="679" y1="60" x2="682" y2="58" stroke="black" stroke-width="1" />
<rect x="642" y="56" width="34" height="5" style="fill:#f5b024;stroke:black;stroke-width:1;fill-opacity:1;stroke-opacity:0.3" />
<rect x="682" y="56" width="35" height="5" style="fill:#f5b024;stroke:black;stroke-width:1;fill-opacity:1;stroke-opacity:0.3" />
<line x1="676" y1="65" x2="679" y2="67" stroke="black" stroke-width="1" />
<line x1="679" y1="67" x2="682" y2="65" stroke="black" stroke-width="1" />
<rect x="642" y="63" width="34" height="5" style="fill:#f5b024;stroke:black;stroke-width:1;fill-opacity:1;stroke-opacity:0.3" />
<rect x="682" y="63" width="35" height="5" style="fill:#f5b024;stroke:black;stroke-width:1;fill-opacity:1;stroke-opacity:0.3" />
<line x1="691" y1="72" x2="705" y2="74" stroke="black" stroke-width="1" />
<line x1="705" y1="74" x2="720" y2="72" stroke="black" stroke-width="1" />
<rect x="656" y="70" width="35" height="5" style="fill:#f5b024;stroke:black;stroke-width:1;fill-opacity:1;stroke-opacity:0.3" />
<rect x="720" y="70" width="35" height="5" style="fill:#f5b024;stroke:black;stroke-width:1;fill-opacity:1;stroke-opacity:0.3" />
<line x1="698" y1="79" x2="711" y2="81" stroke="black" stroke-width="1" />
<line x1="711" y1="81" x2="724" y2="79" stroke="black" stroke-width="1" />
<rect x="662" y="77" width="35" height="5" style="fill:#f5b024;stroke:black;stroke-width:1;fill-opacity:1;stroke-opacity:0.3" />
<rect x="724" y="77" width="35" height="5" style="fill:#f5b024;stroke:black;stroke-width:1;fill-opacity:1;stroke-opacity:0.3" />
<line x1="703" y1="30" x2="705" y2="32" stroke="black" stroke-width="1" />
<line x1="705" y1="32" x2="707" y2="30" stroke="black" stroke-width="1" />
<rect x="668" y="28" width="35" height="5" style="fill:#f5b024;stroke:black;stroke-width:1;fill-opacity:1;stroke-opacity:0.3" />
<rect x="707" y="28" width="35" height="5" style="fill:#f5b024;stroke:black;stroke-width:1;fill-opacity:1;stroke-opacity:0.3" />
<line x1="705" y1="86" x2="709" y2="88" stroke="black" stroke-width="1" />
<line x1="709" y1="88" x2="714" y2="86" stroke="black" stroke-width="1" />
<rect x="670" y="84" width="35" height="5" style="fill:#f5b024;stroke:black;stroke-width:1;fill-opacity:1;stroke-opacity:0.3" />
<rect x="714" y="84" width="35" height="5" style="fill:#f5b024;stroke:black;stroke-width:1;fill-opacity:1;stroke-opacity:0.3" />
<line x1="724" y1="93" x2="730" y2="95" stroke="black" stroke-width="1" />
<line x1="730" y1="95" x2="736" y2="93" stroke="black" stroke-width="1" />
<rect x="670" y="91" width="53" height="5" style="fill:#f5b024;stroke:black;stroke-width:1;fill-opacity:1;stroke-opacity:0.3" />
<rect x="736" y="91" width="48" height="5" style="fill:#f5b024;stroke:black;stroke-width:1;fill-opacity:1;stroke-opacity:0.3" />
<line x1="727" y1="100" x2="737" y2="102" stroke="black" stroke-width="1" />
<line x1="737" y1="102" x2="747" y2="100" stroke="black" stroke-width="1" />
<rect x="678" y="98" width="49" height="5" style="fill:#f5b024;stroke:black;stroke-width:1;fill-opacity:1;stroke-opacity:0.3" />
<rect x="747" y="98" width="45" height="5" style="fill:#f5b024;stroke:black;stroke-width:1;fill-opacity:1;stroke-opacity:0.3" />
<line x1="793" y1="100" x2="822" y2="100" stroke="pink" stroke-width="1" />
<rect x="822" y="98" width="7" height="5" style="fill:#f5b024;stroke:black;stroke-width:1;fill-opacity:1;stroke-opacity:0.3" />
<line x1="724" y1="107" x2="727" y2="109" stroke="black" stroke-width="1" />
<line x1="727" y1="109" x2="731" y2="107" stroke="black" stroke-width="1" />
<rect x="688" y="105" width="35" height="5" style="fill:#f5b024;stroke:black;stroke-width:1;fill-opacity:1;stroke-opacity:0.3" />
<rect x="731" y="105" width="35" height="5" style="fill:#f5b024;stroke:black;stroke-width:1;fill-opacity:1;stroke-opacity:0.3" />
<line x1="724" y1="114" x2="727" y2="116" stroke="black" stroke-width="1" />
<line x1="727" y1="116" x2="731" y2="114" stroke="black" stroke-width="1" />
<rect x="688" y="112" width="35" height="5" style="fill:#f5b024;stroke:black;stroke-width:1;fill-opacity:1;stroke-opacity:0.3" />
<rect x="731" y="112" width="35" height="5" style="fill:#f5b024;stroke:black;stroke-width:1;fill-opacity:1;stroke-opacity:0.3" />
<line x1="724" y1="121" x2="727" y2="123" stroke="black" stroke-width="1" />
<line x1="727" y1="123" x2="731" y2="121" stroke="black" stroke-width="1" />
<rect x="688" y="119" width="35" height="5" style="fill:#f5b024;stroke:black;stroke-width:1;fill-opacity:1;stroke-opacity:0.3" />
<rect x="731" y="119" width="35" height="5" style="fill:#f5b024;stroke:black;stroke-width:1;fill-opacity:1;stroke-opacity:0.3" />
<line x1="736" y1="128" x2="750" y2="130" stroke="black" stroke-width="1" />
<line x1="750" y1="130" x2="764" y2="128" stroke="black" stroke-width="1" />
<rect x="701" y="126" width="35" height="5" style="fill:#f5b024;stroke:black;stroke-width:1;fill-opacity:1;stroke-opacity:0.3" />
<rect x="764" y="126" width="28" height="5" style="fill:#f5b024;stroke:black;stroke-width:1;fill-opacity:1;stroke-opacity:0.3" />
<line x1="793" y1="128" x2="822" y2="128" stroke="pink" stroke-width="1" />
<rect x="822" y="126" width="7" height="5" style="fill:#f5b024;stroke:black;stroke-width:1;fill-opacity:1;stroke-opacity:0.3" />
<line x1="741" y1="135" x2="749" y2="137" stroke="black" stroke-width="1" />
<line x1="749" y1="137" x2="758" y2="135" stroke="black" stroke-width="1" />
<rect x="706" y="133" width="35" height="5" style="fill:#f5b024;stroke:black;stroke-width:1;fill-opacity:1;stroke-opacity:0.3" />
<rect x="758" y="133" width="35" height="5" style="fill:#f5b024;stroke:black;stroke-width:1;fill-opacity:1;stroke-opacity:0.3" />
<line x1="742" y1="142" x2="748" y2="144" stroke="black" stroke-width="1" />
<line x1="748" y1="144" x2="754" y2="142" stroke="black" stroke-width="1" />
<rect x="706" y="140" width="35" height="5" style="fill:#f5b024;stroke:black;stroke-width:1;fill-opacity:1;stroke-opacity:0.3" />
<rect x="754" y="140" width="35" height="5" style="fill:#f5b024;stroke:black;stroke-width:1;fill-opacity:1;stroke-opacity:0.3" />
<line x1="743" y1="149" x2="748" y2="151" stroke="black" stroke-width="1" />
<line x1="748" y1="151" x2="754" y2="149" stroke="black" stroke-width="1" />
<rect x="707" y="147" width="35" height="5" style="fill:#5d3c2d;stroke:black;stroke-width:1;fill-opacity:1;stroke-opacity:0.3" />
<rect x="754" y="147" width="35" height="5" style="fill:#5d3c2d;stroke:black;stroke-width:1;fill-opacity:1;stroke-opacity:0.3" />
<line x1="743" y1="156" x2="745" y2="158" stroke="black" stroke-width="1" />
<line x1="745" y1="158" x2="747" y2="156" stroke="black" stroke-width="1" />
<rect x="707" y="154" width="35" height="5" style="fill:#f5b024;stroke:black;stroke-width:1;fill-opacity:1;stroke-opacity:0.3" />
<rect x="747" y="154" width="35" height="5" style="fill:#f5b024;stroke:black;stroke-width:1;fill-opacity:1;stroke-opacity:0.3" />
<line x1="741" y1="37" x2="744" y2="39" stroke="black" stroke-width="1" />
<line x1="744" y1="39" x2="747" y2="37" stroke="black" stroke-width="1" />
<rect x="711" y="35" width="30" height="5" style="fill:#f5b024;stroke:black;stroke-width:1;fill-opacity:1;stroke-opacity:0.3" />
<rect x="747" y="35" width="35" height="5" style="fill:#f5b024;stroke:black;stroke-width:1;fill-opacity:1;stroke-opacity:0.3" />
<line x1="751" y1="44" x2="756" y2="46" stroke="black" stroke-width="1" />
<line x1="756" y1="46" x2="761" y2="44" stroke="black" stroke-width="1" />
<rect x="715" y="42" width="35" height="5" style="fill:#f5b024;stroke:black;stroke-width:1;fill-opacity:1;stroke-opacity:0.3" />
<rect x="761" y="42" width="31" height="5" style="fill:#f5b024;stroke:black;stroke-width:1;fill-opacity:1;stroke-opacity:0.3" />
<line x1="793" y1="44" x2="822" y2="44" stroke="pink" stroke-width="1" />
<rect x="822" y="42" width="3" height="5" style="fill:#f5b024;stroke:black;stroke-width:1;fill-opacity:1;stroke-opacity:0.3" />
<line x1="788" y1="30" x2="808" y2="32" stroke="black" stroke-width="1" />
<line x1="808" y1="32" x2="828" y2="30" stroke="black" stroke-width="1" />
<rect x="754" y="28" width="34" height="5" style="fill:#f5b024;stroke:black;stroke-width:1;fill-opacity:1;stroke-opacity:0.3" />
<rect x="828" y="28" width="25" height="5" style="fill:#f5b024;stroke:black;stroke-width:1;fill-opacity:1;stroke-opacity:0.3" />
<line x1="854" y1="30" x2="913" y2="30" stroke="pink" stroke-width="1" />
<rect x="913" y="28" width="9" height="5" style="fill:#f5b024;stroke:black;stroke-width:1;fill-opacity:1;stroke-opacity:0.3" />
<line x1="836" y1="51" x2="876" y2="53" stroke="black" stroke-width="1" />
<line x1="876" y1="53" x2="917" y2="51" stroke="black" stroke-width="1" />
<rect x="780" y="49" width="20" height="5" style="fill:#5d3c2d;stroke:black;stroke-width:1;fill-opacity:1;stroke-opacity:0.3" />
<line x1="801" y1="51" x2="822" y2="51" stroke="pink" stroke-width="1" />
<rect x="822" y="49" width="14" height="5" style="fill:#5d3c2d;stroke:black;stroke-width:1;fill-opacity:1;stroke-opacity:0.3" />
<rect x="917" y="49" width="33" height="5" style="fill:#5d3c2d;stroke:black;stroke-width:1;fill-opacity:1;stroke-opacity:0.3" />
<text x="15"  y="176" style="font-family:Arial;font-size:10;stroke:black;fill:black;">all.merged.bam</text>
</svg>
    
