<?xml version="1.0" encoding="utf-8" standalone="no"?>
<!DOCTYPE svg PUBLIC "-//W3C//DTD SVG 1.1//EN"
  "http://www.w3.org/Graphics/SVG/1.1/DTD/svg11.dtd">
<svg height="1140" width="1000" version="1.1" viewBox="0 0 1000 1140" xmlns="http://www.w3.org/2000/svg" xmlns:xlink="http://www.w3.org/1999/xlink">
<line x1="49" y1="11" x2="950" y2="11" stroke="black" stroke-width="1" />
<rect x="49" y="9" width="193" height="5" style="fill:#f50002;stroke:black;stroke-width:1;fill-opacity:1;stroke-opacity:0.3" />
<rect x="243" y="9" width="170" height="5" style="fill:#53a1b5;stroke:black;stroke-width:1;fill-opacity:1;stroke-opacity:0.3" />
<rect x="567" y="9" width="14" height="5" style="fill:#53a1b5;stroke:black;stroke-width:1;fill-opacity:1;stroke-opacity:0.3" />
<rect x="751" y="9" width="61" height="5" style="fill:#53a1b5;stroke:black;stroke-width:1;fill-opacity:1;stroke-opacity:0.3" />
<rect x="911" y="9" width="3" height="5" style="fill:#53a1b5;stroke:black;stroke-width:1;fill-opacity:1;stroke-opacity:0.3" />
<rect x="915" y="9" width="34" height="5" style="fill:#f50002;stroke:black;stroke-width:1;fill-opacity:1;stroke-opacity:0.3" />
<text x="49"  y="23" style="font-family:Arial;font-size:10;stroke:black;fill:black;">Cre13.g563050.t1.1.v5.5 (-) chromosome_13:145622-147449</text>
<line x1="98" y1="30" x2="102" y2="32" stroke="black" stroke-width="1" />
<line x1="102" y1="32" x2="106" y2="30" stroke="black" stroke-width="1" />
<rect x="49" y="28" width="49" height="5" style="fill:#f5b024;stroke:black;stroke-width:1;fill-opacity:1;stroke-opacity:0.3" />
<rect x="106" y="28" width="49" height="5" style="fill:#f5b024;stroke:black;stroke-width:1;fill-opacity:1;stroke-opacity:0.3" />
<line x1="98" y1="37" x2="104" y2="39" stroke="black" stroke-width="1" />
<line x1="104" y1="39" x2="110" y2="37" stroke="black" stroke-width="1" />
<rect x="49" y="35" width="49" height="5" style="fill:#f5b024;stroke:black;stroke-width:1;fill-opacity:1;stroke-opacity:0.3" />
<rect x="110" y="35" width="49" height="5" style="fill:#f5b024;stroke:black;stroke-width:1;fill-opacity:1;stroke-opacity:0.3" />
<line x1="100" y1="44" x2="102" y2="46" stroke="black" stroke-width="1" />
<line x1="102" y1="46" x2="105" y2="44" stroke="black" stroke-width="1" />
<rect x="50" y="42" width="49" height="5" style="fill:#f5b024;stroke:black;stroke-width:1;fill-opacity:1;stroke-opacity:0.3" />
<rect x="105" y="42" width="49" height="5" style="fill:#f5b024;stroke:black;stroke-width:1;fill-opacity:1;stroke-opacity:0.3" />
<line x1="100" y1="51" x2="105" y2="53" stroke="black" stroke-width="1" />
<line x1="105" y1="53" x2="110" y2="51" stroke="black" stroke-width="1" />
<rect x="50" y="49" width="49" height="5" style="fill:#f5b024;stroke:black;stroke-width:1;fill-opacity:1;stroke-opacity:0.3" />
<rect x="110" y="49" width="49" height="5" style="fill:#f5b024;stroke:black;stroke-width:1;fill-opacity:1;stroke-opacity:0.3" />
<line x1="99" y1="58" x2="112" y2="60" stroke="black" stroke-width="1" />
<line x1="112" y1="60" x2="125" y2="58" stroke="black" stroke-width="1" />
<rect x="50" y="56" width="48" height="5" style="fill:#f5b024;stroke:black;stroke-width:1;fill-opacity:1;stroke-opacity:0.3" />
<rect x="125" y="56" width="49" height="5" style="fill:#f5b024;stroke:black;stroke-width:1;fill-opacity:1;stroke-opacity:0.3" />
<line x1="99" y1="65" x2="102" y2="67" stroke="black" stroke-width="1" />
<line x1="102" y1="67" x2="105" y2="65" stroke="black" stroke-width="1" />
<rect x="50" y="63" width="48" height="5" style="fill:#f5b024;stroke:black;stroke-width:1;fill-opacity:1;stroke-opacity:0.3" />
<rect x="105" y="63" width="49" height="5" style="fill:#f5b024;stroke:black;stroke-width:1;fill-opacity:1;stroke-opacity:0.3" />
<line x1="100" y1="72" x2="104" y2="74" stroke="black" stroke-width="1" />
<line x1="104" y1="74" x2="108" y2="72" stroke="black" stroke-width="1" />
<rect x="50" y="70" width="49" height="5" style="fill:#f5b024;stroke:black;stroke-width:1;fill-opacity:1;stroke-opacity:0.3" />
<rect x="108" y="70" width="49" height="5" style="fill:#f5b024;stroke:black;stroke-width:1;fill-opacity:1;stroke-opacity:0.3" />
<line x1="99" y1="79" x2="103" y2="81" stroke="black" stroke-width="1" />
<line x1="103" y1="81" x2="107" y2="79" stroke="black" stroke-width="1" />
<rect x="50" y="77" width="48" height="5" style="fill:#f5b024;stroke:black;stroke-width:1;fill-opacity:1;stroke-opacity:0.3" />
<rect x="107" y="77" width="49" height="5" style="fill:#f5b024;stroke:black;stroke-width:1;fill-opacity:1;stroke-opacity:0.3" />
<line x1="99" y1="86" x2="103" y2="88" stroke="black" stroke-width="1" />
<line x1="103" y1="88" x2="107" y2="86" stroke="black" stroke-width="1" />
<rect x="50" y="84" width="48" height="5" style="fill:#f5b024;stroke:black;stroke-width:1;fill-opacity:1;stroke-opacity:0.3" />
<rect x="107" y="84" width="49" height="5" style="fill:#f5b024;stroke:black;stroke-width:1;fill-opacity:1;stroke-opacity:0.3" />
<line x1="100" y1="93" x2="106" y2="95" stroke="black" stroke-width="1" />
<line x1="106" y1="95" x2="113" y2="93" stroke="black" stroke-width="1" />
<rect x="50" y="91" width="49" height="5" style="fill:#f5b024;stroke:black;stroke-width:1;fill-opacity:1;stroke-opacity:0.3" />
<rect x="113" y="91" width="49" height="5" style="fill:#f5b024;stroke:black;stroke-width:1;fill-opacity:1;stroke-opacity:0.3" />
<line x1="100" y1="100" x2="106" y2="102" stroke="black" stroke-width="1" />
<line x1="106" y1="102" x2="112" y2="100" stroke="black" stroke-width="1" />
<rect x="50" y="98" width="49" height="5" style="fill:#f5b024;stroke:black;stroke-width:1;fill-opacity:1;stroke-opacity:0.3" />
<rect x="112" y="98" width="49" height="5" style="fill:#f5b024;stroke:black;stroke-width:1;fill-opacity:1;stroke-opacity:0.3" />
<line x1="100" y1="107" x2="105" y2="109" stroke="black" stroke-width="1" />
<line x1="105" y1="109" x2="110" y2="107" stroke="black" stroke-width="1" />
<rect x="51" y="105" width="49" height="5" style="fill:#f5b024;stroke:black;stroke-width:1;fill-opacity:1;stroke-opacity:0.3" />
<rect x="110" y="105" width="49" height="5" style="fill:#f5b024;stroke:black;stroke-width:1;fill-opacity:1;stroke-opacity:0.3" />
<line x1="100" y1="114" x2="104" y2="116" stroke="black" stroke-width="1" />
<line x1="104" y1="116" x2="109" y2="114" stroke="black" stroke-width="1" />
<rect x="51" y="112" width="49" height="5" style="fill:#f5b024;stroke:black;stroke-width:1;fill-opacity:1;stroke-opacity:0.3" />
<rect x="109" y="112" width="49" height="5" style="fill:#f5b024;stroke:black;stroke-width:1;fill-opacity:1;stroke-opacity:0.3" />
<line x1="100" y1="121" x2="105" y2="123" stroke="black" stroke-width="1" />
<line x1="105" y1="123" x2="111" y2="121" stroke="black" stroke-width="1" />
<rect x="51" y="119" width="48" height="5" style="fill:#f5b024;stroke:black;stroke-width:1;fill-opacity:1;stroke-opacity:0.3" />
<rect x="111" y="119" width="49" height="5" style="fill:#f5b024;stroke:black;stroke-width:1;fill-opacity:1;stroke-opacity:0.3" />
<line x1="101" y1="128" x2="104" y2="130" stroke="black" stroke-width="1" />
<line x1="104" y1="130" x2="107" y2="128" stroke="black" stroke-width="1" />
<rect x="51" y="126" width="49" height="5" style="fill:#f5b024;stroke:black;stroke-width:1;fill-opacity:1;stroke-opacity:0.3" />
<rect x="107" y="126" width="49" height="5" style="fill:#f5b024;stroke:black;stroke-width:1;fill-opacity:1;stroke-opacity:0.3" />
<line x1="101" y1="135" x2="104" y2="137" stroke="black" stroke-width="1" />
<line x1="104" y1="137" x2="107" y2="135" stroke="black" stroke-width="1" />
<rect x="52" y="133" width="48" height="5" style="fill:#f5b024;stroke:black;stroke-width:1;fill-opacity:1;stroke-opacity:0.3" />
<rect x="107" y="133" width="49" height="5" style="fill:#f5b024;stroke:black;stroke-width:1;fill-opacity:1;stroke-opacity:0.3" />
<line x1="102" y1="142" x2="108" y2="144" stroke="black" stroke-width="1" />
<line x1="108" y1="144" x2="114" y2="142" stroke="black" stroke-width="1" />
<rect x="52" y="140" width="49" height="5" style="fill:#f5b024;stroke:black;stroke-width:1;fill-opacity:1;stroke-opacity:0.3" />
<rect x="114" y="140" width="49" height="5" style="fill:#f5b024;stroke:black;stroke-width:1;fill-opacity:1;stroke-opacity:0.3" />
<line x1="102" y1="149" x2="112" y2="151" stroke="black" stroke-width="1" />
<line x1="112" y1="151" x2="123" y2="149" stroke="black" stroke-width="1" />
<rect x="52" y="147" width="49" height="5" style="fill:#f5b024;stroke:black;stroke-width:1;fill-opacity:1;stroke-opacity:0.3" />
<rect x="123" y="147" width="49" height="5" style="fill:#f5b024;stroke:black;stroke-width:1;fill-opacity:1;stroke-opacity:0.3" />
<line x1="102" y1="156" x2="108" y2="158" stroke="black" stroke-width="1" />
<line x1="108" y1="158" x2="115" y2="156" stroke="black" stroke-width="1" />
<rect x="52" y="154" width="49" height="5" style="fill:#f5b024;stroke:black;stroke-width:1;fill-opacity:1;stroke-opacity:0.3" />
<rect x="115" y="154" width="49" height="5" style="fill:#f5b024;stroke:black;stroke-width:1;fill-opacity:1;stroke-opacity:0.3" />
<line x1="101" y1="163" x2="106" y2="165" stroke="black" stroke-width="1" />
<line x1="106" y1="165" x2="112" y2="163" stroke="black" stroke-width="1" />
<rect x="52" y="161" width="48" height="5" style="fill:#f5b024;stroke:black;stroke-width:1;fill-opacity:1;stroke-opacity:0.3" />
<rect x="112" y="161" width="49" height="5" style="fill:#f5b024;stroke:black;stroke-width:1;fill-opacity:1;stroke-opacity:0.3" />
<line x1="204" y1="30" x2="210" y2="32" stroke="black" stroke-width="1" />
<line x1="210" y1="32" x2="216" y2="30" stroke="black" stroke-width="1" />
<rect x="155" y="28" width="49" height="5" style="fill:#f5b024;stroke:black;stroke-width:1;fill-opacity:1;stroke-opacity:0.3" />
<rect x="216" y="28" width="49" height="5" style="fill:#f5b024;stroke:black;stroke-width:1;fill-opacity:1;stroke-opacity:0.3" />
<line x1="204" y1="44" x2="210" y2="46" stroke="black" stroke-width="1" />
<line x1="210" y1="46" x2="216" y2="44" stroke="black" stroke-width="1" />
<rect x="155" y="42" width="49" height="5" style="fill:#f5b024;stroke:black;stroke-width:1;fill-opacity:1;stroke-opacity:0.3" />
<rect x="216" y="42" width="49" height="5" style="fill:#f5b024;stroke:black;stroke-width:1;fill-opacity:1;stroke-opacity:0.3" />
<line x1="205" y1="65" x2="211" y2="67" stroke="black" stroke-width="1" />
<line x1="211" y1="67" x2="218" y2="65" stroke="black" stroke-width="1" />
<rect x="156" y="63" width="49" height="5" style="fill:#f5b024;stroke:black;stroke-width:1;fill-opacity:1;stroke-opacity:0.3" />
<rect x="218" y="63" width="49" height="5" style="fill:#f5b024;stroke:black;stroke-width:1;fill-opacity:1;stroke-opacity:0.3" />
<line x1="205" y1="128" x2="211" y2="130" stroke="black" stroke-width="1" />
<line x1="211" y1="130" x2="218" y2="128" stroke="black" stroke-width="1" />
<rect x="156" y="126" width="49" height="5" style="fill:#f5b024;stroke:black;stroke-width:1;fill-opacity:1;stroke-opacity:0.3" />
<rect x="218" y="126" width="49" height="5" style="fill:#f5b024;stroke:black;stroke-width:1;fill-opacity:1;stroke-opacity:0.3" />
<line x1="206" y1="79" x2="210" y2="81" stroke="black" stroke-width="1" />
<line x1="210" y1="81" x2="215" y2="79" stroke="black" stroke-width="1" />
<rect x="157" y="77" width="49" height="5" style="fill:#f5b024;stroke:black;stroke-width:1;fill-opacity:1;stroke-opacity:0.3" />
<rect x="215" y="77" width="49" height="5" style="fill:#f5b024;stroke:black;stroke-width:1;fill-opacity:1;stroke-opacity:0.3" />
<line x1="206" y1="86" x2="211" y2="88" stroke="black" stroke-width="1" />
<line x1="211" y1="88" x2="216" y2="86" stroke="black" stroke-width="1" />
<rect x="157" y="84" width="49" height="5" style="fill:#f5b024;stroke:black;stroke-width:1;fill-opacity:1;stroke-opacity:0.3" />
<rect x="216" y="84" width="49" height="5" style="fill:#f5b024;stroke:black;stroke-width:1;fill-opacity:1;stroke-opacity:0.3" />
<line x1="206" y1="135" x2="211" y2="137" stroke="black" stroke-width="1" />
<line x1="211" y1="137" x2="217" y2="135" stroke="black" stroke-width="1" />
<rect x="157" y="133" width="49" height="5" style="fill:#f5b024;stroke:black;stroke-width:1;fill-opacity:1;stroke-opacity:0.3" />
<rect x="217" y="133" width="49" height="5" style="fill:#f5b024;stroke:black;stroke-width:1;fill-opacity:1;stroke-opacity:0.3" />
<line x1="208" y1="72" x2="213" y2="74" stroke="black" stroke-width="1" />
<line x1="213" y1="74" x2="218" y2="72" stroke="black" stroke-width="1" />
<rect x="158" y="70" width="49" height="5" style="fill:#f5b024;stroke:black;stroke-width:1;fill-opacity:1;stroke-opacity:0.3" />
<rect x="218" y="70" width="49" height="5" style="fill:#f5b024;stroke:black;stroke-width:1;fill-opacity:1;stroke-opacity:0.3" />
<line x1="211" y1="37" x2="213" y2="39" stroke="black" stroke-width="1" />
<line x1="213" y1="39" x2="216" y2="37" stroke="black" stroke-width="1" />
<rect x="161" y="35" width="49" height="5" style="fill:#f5b024;stroke:black;stroke-width:1;fill-opacity:1;stroke-opacity:0.3" />
<rect x="216" y="35" width="49" height="5" style="fill:#f5b024;stroke:black;stroke-width:1;fill-opacity:1;stroke-opacity:0.3" />
<line x1="211" y1="51" x2="213" y2="53" stroke="black" stroke-width="1" />
<line x1="213" y1="53" x2="216" y2="51" stroke="black" stroke-width="1" />
<rect x="161" y="49" width="49" height="5" style="fill:#f5b024;stroke:black;stroke-width:1;fill-opacity:1;stroke-opacity:0.3" />
<rect x="216" y="49" width="49" height="5" style="fill:#f5b024;stroke:black;stroke-width:1;fill-opacity:1;stroke-opacity:0.3" />
<line x1="211" y1="100" x2="226" y2="102" stroke="black" stroke-width="1" />
<line x1="226" y1="102" x2="242" y2="100" stroke="black" stroke-width="1" />
<rect x="162" y="98" width="49" height="5" style="fill:#f5b024;stroke:black;stroke-width:1;fill-opacity:1;stroke-opacity:0.3" />
<rect x="242" y="98" width="49" height="5" style="fill:#f5b024;stroke:black;stroke-width:1;fill-opacity:1;stroke-opacity:0.3" />
<line x1="212" y1="93" x2="217" y2="95" stroke="black" stroke-width="1" />
<line x1="217" y1="95" x2="222" y2="93" stroke="black" stroke-width="1" />
<rect x="163" y="91" width="49" height="5" style="fill:#f5b024;stroke:black;stroke-width:1;fill-opacity:1;stroke-opacity:0.3" />
<rect x="222" y="91" width="49" height="5" style="fill:#f5b024;stroke:black;stroke-width:1;fill-opacity:1;stroke-opacity:0.3" />
<line x1="213" y1="107" x2="222" y2="109" stroke="black" stroke-width="1" />
<line x1="222" y1="109" x2="231" y2="107" stroke="black" stroke-width="1" />
<rect x="163" y="105" width="49" height="5" style="fill:#f5b024;stroke:black;stroke-width:1;fill-opacity:1;stroke-opacity:0.3" />
<rect x="231" y="105" width="49" height="5" style="fill:#f5b024;stroke:black;stroke-width:1;fill-opacity:1;stroke-opacity:0.3" />
<line x1="211" y1="114" x2="224" y2="116" stroke="black" stroke-width="1" />
<line x1="224" y1="116" x2="237" y2="114" stroke="black" stroke-width="1" />
<rect x="163" y="112" width="47" height="5" style="fill:#f5b024;stroke:black;stroke-width:1;fill-opacity:1;stroke-opacity:0.3" />
<rect x="237" y="112" width="49" height="5" style="fill:#f5b024;stroke:black;stroke-width:1;fill-opacity:1;stroke-opacity:0.3" />
<line x1="213" y1="121" x2="223" y2="123" stroke="black" stroke-width="1" />
<line x1="223" y1="123" x2="234" y2="121" stroke="black" stroke-width="1" />
<rect x="164" y="119" width="49" height="5" style="fill:#f5b024;stroke:black;stroke-width:1;fill-opacity:1;stroke-opacity:0.3" />
<rect x="234" y="119" width="49" height="5" style="fill:#f5b024;stroke:black;stroke-width:1;fill-opacity:1;stroke-opacity:0.3" />
<line x1="216" y1="142" x2="218" y2="144" stroke="black" stroke-width="1" />
<line x1="218" y1="144" x2="221" y2="142" stroke="black" stroke-width="1" />
<rect x="167" y="140" width="49" height="5" style="fill:#f5b024;stroke:black;stroke-width:1;fill-opacity:1;stroke-opacity:0.3" />
<rect x="221" y="140" width="49" height="5" style="fill:#f5b024;stroke:black;stroke-width:1;fill-opacity:1;stroke-opacity:0.3" />
<line x1="217" y1="156" x2="222" y2="158" stroke="black" stroke-width="1" />
<line x1="222" y1="158" x2="227" y2="156" stroke="black" stroke-width="1" />
<rect x="169" y="154" width="48" height="5" style="fill:#f5b024;stroke:black;stroke-width:1;fill-opacity:1;stroke-opacity:0.3" />
<rect x="227" y="154" width="49" height="5" style="fill:#f5b024;stroke:black;stroke-width:1;fill-opacity:1;stroke-opacity:0.3" />
<line x1="217" y1="163" x2="222" y2="165" stroke="black" stroke-width="1" />
<line x1="222" y1="165" x2="227" y2="163" stroke="black" stroke-width="1" />
<rect x="169" y="161" width="48" height="5" style="fill:#f5b024;stroke:black;stroke-width:1;fill-opacity:1;stroke-opacity:0.3" />
<rect x="227" y="161" width="49" height="5" style="fill:#f5b024;stroke:black;stroke-width:1;fill-opacity:1;stroke-opacity:0.3" />
<line x1="228" y1="58" x2="231" y2="60" stroke="black" stroke-width="1" />
<line x1="231" y1="60" x2="234" y2="58" stroke="black" stroke-width="1" />
<rect x="179" y="56" width="49" height="5" style="fill:#f5b024;stroke:black;stroke-width:1;fill-opacity:1;stroke-opacity:0.3" />
<rect x="234" y="56" width="49" height="5" style="fill:#f5b024;stroke:black;stroke-width:1;fill-opacity:1;stroke-opacity:0.3" />
<line x1="228" y1="149" x2="245" y2="151" stroke="black" stroke-width="1" />
<line x1="245" y1="151" x2="262" y2="149" stroke="black" stroke-width="1" />
<rect x="179" y="147" width="48" height="5" style="fill:#f5b024;stroke:black;stroke-width:1;fill-opacity:1;stroke-opacity:0.3" />
<rect x="262" y="147" width="49" height="5" style="fill:#f5b024;stroke:black;stroke-width:1;fill-opacity:1;stroke-opacity:0.3" />
<line x1="341" y1="30" x2="364" y2="32" stroke="black" stroke-width="1" />
<line x1="364" y1="32" x2="387" y2="30" stroke="black" stroke-width="1" />
<rect x="267" y="28" width="73" height="5" style="fill:#f5b024;stroke:black;stroke-width:1;fill-opacity:1;stroke-opacity:0.3" />
<rect x="387" y="28" width="27" height="5" style="fill:#f5b024;stroke:black;stroke-width:1;fill-opacity:1;stroke-opacity:0.3" />
<line x1="414" y1="30" x2="567" y2="30" stroke="pink" stroke-width="1" />
<rect x="567" y="28" width="14" height="5" style="fill:#f5b024;stroke:black;stroke-width:1;fill-opacity:1;stroke-opacity:0.3" />
<line x1="581" y1="30" x2="751" y2="30" stroke="pink" stroke-width="1" />
<rect x="751" y="28" width="31" height="5" style="fill:#f5b024;stroke:black;stroke-width:1;fill-opacity:1;stroke-opacity:0.3" />
<line x1="342" y1="37" x2="347" y2="39" stroke="black" stroke-width="1" />
<line x1="347" y1="39" x2="352" y2="37" stroke="black" stroke-width="1" />
<rect x="268" y="35" width="73" height="5" style="fill:#f5b024;stroke:black;stroke-width:1;fill-opacity:1;stroke-opacity:0.3" />
<rect x="352" y="35" width="62" height="5" style="fill:#f5b024;stroke:black;stroke-width:1;fill-opacity:1;stroke-opacity:0.3" />
<line x1="414" y1="37" x2="567" y2="37" stroke="pink" stroke-width="1" />
<rect x="567" y="35" width="11" height="5" style="fill:#f5b024;stroke:black;stroke-width:1;fill-opacity:1;stroke-opacity:0.3" />
<line x1="321" y1="44" x2="330" y2="46" stroke="black" stroke-width="1" />
<line x1="330" y1="46" x2="340" y2="44" stroke="black" stroke-width="1" />
<rect x="271" y="42" width="49" height="5" style="fill:#f5b024;stroke:black;stroke-width:1;fill-opacity:1;stroke-opacity:0.3" />
<rect x="340" y="42" width="49" height="5" style="fill:#f5b024;stroke:black;stroke-width:1;fill-opacity:1;stroke-opacity:0.3" />
<line x1="321" y1="51" x2="323" y2="53" stroke="black" stroke-width="1" />
<line x1="323" y1="53" x2="326" y2="51" stroke="black" stroke-width="1" />
<rect x="272" y="49" width="48" height="5" style="fill:#f5b024;stroke:black;stroke-width:1;fill-opacity:1;stroke-opacity:0.3" />
<rect x="326" y="49" width="49" height="5" style="fill:#f5b024;stroke:black;stroke-width:1;fill-opacity:1;stroke-opacity:0.3" />
<line x1="321" y1="65" x2="340" y2="67" stroke="black" stroke-width="1" />
<line x1="340" y1="67" x2="360" y2="65" stroke="black" stroke-width="1" />
<rect x="272" y="63" width="49" height="5" style="fill:#f5b024;stroke:black;stroke-width:1;fill-opacity:1;stroke-opacity:0.3" />
<rect x="360" y="63" width="49" height="5" style="fill:#f5b024;stroke:black;stroke-width:1;fill-opacity:1;stroke-opacity:0.3" />
<line x1="322" y1="72" x2="349" y2="74" stroke="black" stroke-width="1" />
<line x1="349" y1="74" x2="376" y2="72" stroke="black" stroke-width="1" />
<rect x="273" y="70" width="49" height="5" style="fill:#f5b024;stroke:black;stroke-width:1;fill-opacity:1;stroke-opacity:0.3" />
<rect x="376" y="70" width="38" height="5" style="fill:#f5b024;stroke:black;stroke-width:1;fill-opacity:1;stroke-opacity:0.3" />
<line x1="414" y1="72" x2="567" y2="72" stroke="pink" stroke-width="1" />
<rect x="567" y="70" width="10" height="5" style="fill:#f5b024;stroke:black;stroke-width:1;fill-opacity:1;stroke-opacity:0.3" />
<line x1="322" y1="79" x2="330" y2="81" stroke="black" stroke-width="1" />
<line x1="330" y1="81" x2="339" y2="79" stroke="black" stroke-width="1" />
<rect x="273" y="77" width="49" height="5" style="fill:#f5b024;stroke:black;stroke-width:1;fill-opacity:1;stroke-opacity:0.3" />
<rect x="339" y="77" width="49" height="5" style="fill:#f5b024;stroke:black;stroke-width:1;fill-opacity:1;stroke-opacity:0.3" />
<line x1="320" y1="86" x2="341" y2="88" stroke="black" stroke-width="1" />
<line x1="341" y1="88" x2="363" y2="86" stroke="black" stroke-width="1" />
<rect x="273" y="84" width="47" height="5" style="fill:#f5b024;stroke:black;stroke-width:1;fill-opacity:1;stroke-opacity:0.3" />
<rect x="363" y="84" width="49" height="5" style="fill:#f5b024;stroke:black;stroke-width:1;fill-opacity:1;stroke-opacity:0.3" />
<line x1="322" y1="93" x2="330" y2="95" stroke="black" stroke-width="1" />
<line x1="330" y1="95" x2="338" y2="93" stroke="black" stroke-width="1" />
<rect x="273" y="91" width="49" height="5" style="fill:#f5b024;stroke:black;stroke-width:1;fill-opacity:1;stroke-opacity:0.3" />
<rect x="338" y="91" width="49" height="5" style="fill:#f5b024;stroke:black;stroke-width:1;fill-opacity:1;stroke-opacity:0.3" />
<line x1="323" y1="128" x2="326" y2="130" stroke="black" stroke-width="1" />
<line x1="326" y1="130" x2="329" y2="128" stroke="black" stroke-width="1" />
<rect x="274" y="126" width="49" height="5" style="fill:#f5b024;stroke:black;stroke-width:1;fill-opacity:1;stroke-opacity:0.3" />
<rect x="329" y="126" width="49" height="5" style="fill:#f5b024;stroke:black;stroke-width:1;fill-opacity:1;stroke-opacity:0.3" />
<line x1="349" y1="135" x2="357" y2="137" stroke="black" stroke-width="1" />
<line x1="357" y1="137" x2="365" y2="135" stroke="black" stroke-width="1" />
<rect x="275" y="133" width="73" height="5" style="fill:#f5b024;stroke:black;stroke-width:1;fill-opacity:1;stroke-opacity:0.3" />
<rect x="365" y="133" width="48" height="5" style="fill:#f5b024;stroke:black;stroke-width:1;fill-opacity:1;stroke-opacity:0.3" />
<line x1="414" y1="135" x2="567" y2="135" stroke="pink" stroke-width="1" />
<rect x="567" y="133" width="14" height="5" style="fill:#f5b024;stroke:black;stroke-width:1;fill-opacity:1;stroke-opacity:0.3" />
<line x1="581" y1="135" x2="751" y2="135" stroke="pink" stroke-width="1" />
<rect x="751" y="133" width="10" height="5" style="fill:#f5b024;stroke:black;stroke-width:1;fill-opacity:1;stroke-opacity:0.3" />
<line x1="325" y1="142" x2="335" y2="144" stroke="black" stroke-width="1" />
<line x1="335" y1="144" x2="345" y2="142" stroke="black" stroke-width="1" />
<rect x="276" y="140" width="49" height="5" style="fill:#f5b024;stroke:black;stroke-width:1;fill-opacity:1;stroke-opacity:0.3" />
<rect x="345" y="140" width="49" height="5" style="fill:#f5b024;stroke:black;stroke-width:1;fill-opacity:1;stroke-opacity:0.3" />
<line x1="326" y1="156" x2="335" y2="158" stroke="black" stroke-width="1" />
<line x1="335" y1="158" x2="344" y2="156" stroke="black" stroke-width="1" />
<rect x="277" y="154" width="48" height="5" style="fill:#f5b024;stroke:black;stroke-width:1;fill-opacity:1;stroke-opacity:0.3" />
<rect x="344" y="154" width="49" height="5" style="fill:#f5b024;stroke:black;stroke-width:1;fill-opacity:1;stroke-opacity:0.3" />
<line x1="326" y1="163" x2="330" y2="165" stroke="black" stroke-width="1" />
<line x1="330" y1="165" x2="334" y2="163" stroke="black" stroke-width="1" />
<rect x="277" y="161" width="49" height="5" style="fill:#f5b024;stroke:black;stroke-width:1;fill-opacity:1;stroke-opacity:0.3" />
<rect x="334" y="161" width="49" height="5" style="fill:#f5b024;stroke:black;stroke-width:1;fill-opacity:1;stroke-opacity:0.3" />
<line x1="330" y1="107" x2="333" y2="109" stroke="black" stroke-width="1" />
<line x1="333" y1="109" x2="336" y2="107" stroke="black" stroke-width="1" />
<rect x="281" y="105" width="49" height="5" style="fill:#f5b024;stroke:black;stroke-width:1;fill-opacity:1;stroke-opacity:0.3" />
<rect x="336" y="105" width="49" height="5" style="fill:#f5b024;stroke:black;stroke-width:1;fill-opacity:1;stroke-opacity:0.3" />
<line x1="334" y1="58" x2="339" y2="60" stroke="black" stroke-width="1" />
<line x1="339" y1="60" x2="344" y2="58" stroke="black" stroke-width="1" />
<rect x="285" y="56" width="49" height="5" style="fill:#f5b024;stroke:black;stroke-width:1;fill-opacity:1;stroke-opacity:0.3" />
<rect x="344" y="56" width="48" height="5" style="fill:#f5b024;stroke:black;stroke-width:1;fill-opacity:1;stroke-opacity:0.3" />
<line x1="343" y1="100" x2="352" y2="102" stroke="black" stroke-width="1" />
<line x1="352" y1="102" x2="362" y2="100" stroke="black" stroke-width="1" />
<rect x="293" y="98" width="49" height="5" style="fill:#f5b024;stroke:black;stroke-width:1;fill-opacity:1;stroke-opacity:0.3" />
<rect x="362" y="98" width="49" height="5" style="fill:#f5b024;stroke:black;stroke-width:1;fill-opacity:1;stroke-opacity:0.3" />
<line x1="371" y1="114" x2="375" y2="116" stroke="black" stroke-width="1" />
<line x1="375" y1="116" x2="379" y2="114" stroke="black" stroke-width="1" />
<rect x="297" y="112" width="73" height="5" style="fill:#f5b024;stroke:black;stroke-width:1;fill-opacity:1;stroke-opacity:0.3" />
<rect x="379" y="112" width="35" height="5" style="fill:#f5b024;stroke:black;stroke-width:1;fill-opacity:1;stroke-opacity:0.3" />
<line x1="414" y1="114" x2="567" y2="114" stroke="pink" stroke-width="1" />
<rect x="567" y="112" width="14" height="5" style="fill:#f5b024;stroke:black;stroke-width:1;fill-opacity:1;stroke-opacity:0.3" />
<line x1="581" y1="114" x2="751" y2="114" stroke="pink" stroke-width="1" />
<rect x="751" y="112" width="24" height="5" style="fill:#f5b024;stroke:black;stroke-width:1;fill-opacity:1;stroke-opacity:0.3" />
<line x1="347" y1="121" x2="362" y2="123" stroke="black" stroke-width="1" />
<line x1="362" y1="123" x2="377" y2="121" stroke="black" stroke-width="1" />
<rect x="298" y="119" width="48" height="5" style="fill:#f5b024;stroke:black;stroke-width:1;fill-opacity:1;stroke-opacity:0.3" />
<rect x="377" y="119" width="49" height="5" style="fill:#f5b024;stroke:black;stroke-width:1;fill-opacity:1;stroke-opacity:0.3" />
<line x1="361" y1="149" x2="368" y2="151" stroke="black" stroke-width="1" />
<line x1="368" y1="151" x2="375" y2="149" stroke="black" stroke-width="1" />
<rect x="312" y="147" width="49" height="5" style="fill:#f5b024;stroke:black;stroke-width:1;fill-opacity:1;stroke-opacity:0.3" />
<rect x="375" y="147" width="38" height="5" style="fill:#f5b024;stroke:black;stroke-width:1;fill-opacity:1;stroke-opacity:0.3" />
<line x1="414" y1="149" x2="567" y2="149" stroke="pink" stroke-width="1" />
<rect x="567" y="147" width="10" height="5" style="fill:#f5b024;stroke:black;stroke-width:1;fill-opacity:1;stroke-opacity:0.3" />
<line x1="442" y1="44" x2="449" y2="46" stroke="black" stroke-width="1" />
<line x1="449" y1="46" x2="457" y2="44" stroke="black" stroke-width="1" />
<rect x="393" y="42" width="49" height="5" style="fill:#f5b024;stroke:black;stroke-width:1;fill-opacity:1;stroke-opacity:0.3" />
<rect x="457" y="42" width="49" height="5" style="fill:#f5b024;stroke:black;stroke-width:1;fill-opacity:1;stroke-opacity:0.3" />
<line x1="765" y1="51" x2="770" y2="53" stroke="black" stroke-width="1" />
<line x1="770" y1="53" x2="776" y2="51" stroke="black" stroke-width="1" />
<rect x="393" y="49" width="21" height="5" style="fill:#f5b024;stroke:black;stroke-width:1;fill-opacity:1;stroke-opacity:0.3" />
<line x1="414" y1="51" x2="567" y2="51" stroke="pink" stroke-width="1" />
<rect x="567" y="49" width="14" height="5" style="fill:#f5b024;stroke:black;stroke-width:1;fill-opacity:1;stroke-opacity:0.3" />
<line x1="581" y1="51" x2="751" y2="51" stroke="pink" stroke-width="1" />
<rect x="751" y="49" width="13" height="5" style="fill:#f5b024;stroke:black;stroke-width:1;fill-opacity:1;stroke-opacity:0.3" />
<rect x="776" y="49" width="37" height="5" style="fill:#f5b024;stroke:black;stroke-width:1;fill-opacity:1;stroke-opacity:0.3" />
<line x1="813" y1="51" x2="911" y2="51" stroke="pink" stroke-width="1" />
<rect x="911" y="49" width="11" height="5" style="fill:#f5b024;stroke:black;stroke-width:1;fill-opacity:1;stroke-opacity:0.3" />
<line x1="767" y1="58" x2="777" y2="60" stroke="black" stroke-width="1" />
<line x1="777" y1="60" x2="788" y2="58" stroke="black" stroke-width="1" />
<rect x="395" y="56" width="19" height="5" style="fill:#f5b024;stroke:black;stroke-width:1;fill-opacity:1;stroke-opacity:0.3" />
<line x1="414" y1="58" x2="567" y2="58" stroke="pink" stroke-width="1" />
<rect x="567" y="56" width="14" height="5" style="fill:#f5b024;stroke:black;stroke-width:1;fill-opacity:1;stroke-opacity:0.3" />
<line x1="581" y1="58" x2="751" y2="58" stroke="pink" stroke-width="1" />
<rect x="751" y="56" width="15" height="5" style="fill:#f5b024;stroke:black;stroke-width:1;fill-opacity:1;stroke-opacity:0.3" />
<rect x="788" y="56" width="25" height="5" style="fill:#f5b024;stroke:black;stroke-width:1;fill-opacity:1;stroke-opacity:0.3" />
<line x1="813" y1="58" x2="911" y2="58" stroke="pink" stroke-width="1" />
<rect x="911" y="56" width="24" height="5" style="fill:#f5b024;stroke:black;stroke-width:1;fill-opacity:1;stroke-opacity:0.3" />
<line x1="767" y1="79" x2="771" y2="81" stroke="black" stroke-width="1" />
<line x1="771" y1="81" x2="776" y2="79" stroke="black" stroke-width="1" />
<rect x="395" y="77" width="19" height="5" style="fill:#f5b024;stroke:black;stroke-width:1;fill-opacity:1;stroke-opacity:0.3" />
<line x1="414" y1="79" x2="567" y2="79" stroke="pink" stroke-width="1" />
<rect x="567" y="77" width="14" height="5" style="fill:#f5b024;stroke:black;stroke-width:1;fill-opacity:1;stroke-opacity:0.3" />
<line x1="581" y1="79" x2="751" y2="79" stroke="pink" stroke-width="1" />
<rect x="751" y="77" width="15" height="5" style="fill:#f5b024;stroke:black;stroke-width:1;fill-opacity:1;stroke-opacity:0.3" />
<rect x="776" y="77" width="37" height="5" style="fill:#f5b024;stroke:black;stroke-width:1;fill-opacity:1;stroke-opacity:0.3" />
<line x1="813" y1="79" x2="911" y2="79" stroke="pink" stroke-width="1" />
<rect x="911" y="77" width="11" height="5" style="fill:#f5b024;stroke:black;stroke-width:1;fill-opacity:1;stroke-opacity:0.3" />
<line x1="767" y1="93" x2="776" y2="95" stroke="black" stroke-width="1" />
<line x1="776" y1="95" x2="785" y2="93" stroke="black" stroke-width="1" />
<rect x="396" y="91" width="17" height="5" style="fill:#f5b024;stroke:black;stroke-width:1;fill-opacity:1;stroke-opacity:0.3" />
<line x1="414" y1="93" x2="567" y2="93" stroke="pink" stroke-width="1" />
<rect x="567" y="91" width="14" height="5" style="fill:#f5b024;stroke:black;stroke-width:1;fill-opacity:1;stroke-opacity:0.3" />
<line x1="581" y1="93" x2="751" y2="93" stroke="pink" stroke-width="1" />
<rect x="751" y="91" width="15" height="5" style="fill:#f5b024;stroke:black;stroke-width:1;fill-opacity:1;stroke-opacity:0.3" />
<rect x="785" y="91" width="28" height="5" style="fill:#f5b024;stroke:black;stroke-width:1;fill-opacity:1;stroke-opacity:0.3" />
<line x1="813" y1="93" x2="911" y2="93" stroke="pink" stroke-width="1" />
<rect x="911" y="91" width="20" height="5" style="fill:#f5b024;stroke:black;stroke-width:1;fill-opacity:1;stroke-opacity:0.3" />
<line x1="769" y1="107" x2="775" y2="109" stroke="black" stroke-width="1" />
<line x1="775" y1="109" x2="781" y2="107" stroke="black" stroke-width="1" />
<rect x="398" y="105" width="16" height="5" style="fill:#f5b024;stroke:black;stroke-width:1;fill-opacity:1;stroke-opacity:0.3" />
<line x1="414" y1="107" x2="567" y2="107" stroke="pink" stroke-width="1" />
<rect x="567" y="105" width="14" height="5" style="fill:#f5b024;stroke:black;stroke-width:1;fill-opacity:1;stroke-opacity:0.3" />
<line x1="581" y1="107" x2="751" y2="107" stroke="pink" stroke-width="1" />
<rect x="751" y="105" width="17" height="5" style="fill:#f5b024;stroke:black;stroke-width:1;fill-opacity:1;stroke-opacity:0.3" />
<rect x="781" y="105" width="49" height="5" style="fill:#f5b024;stroke:black;stroke-width:1;fill-opacity:1;stroke-opacity:0.3" />
<line x1="769" y1="128" x2="775" y2="130" stroke="black" stroke-width="1" />
<line x1="775" y1="130" x2="781" y2="128" stroke="black" stroke-width="1" />
<rect x="398" y="126" width="16" height="5" style="fill:#f5b024;stroke:black;stroke-width:1;fill-opacity:1;stroke-opacity:0.3" />
<line x1="414" y1="128" x2="567" y2="128" stroke="pink" stroke-width="1" />
<rect x="567" y="126" width="14" height="5" style="fill:#f5b024;stroke:black;stroke-width:1;fill-opacity:1;stroke-opacity:0.3" />
<line x1="581" y1="128" x2="751" y2="128" stroke="pink" stroke-width="1" />
<rect x="751" y="126" width="17" height="5" style="fill:#f5b024;stroke:black;stroke-width:1;fill-opacity:1;stroke-opacity:0.3" />
<rect x="781" y="126" width="49" height="5" style="fill:#f5b024;stroke:black;stroke-width:1;fill-opacity:1;stroke-opacity:0.3" />
<line x1="774" y1="142" x2="786" y2="144" stroke="black" stroke-width="1" />
<line x1="786" y1="144" x2="799" y2="142" stroke="black" stroke-width="1" />
<rect x="402" y="140" width="12" height="5" style="fill:#f5b024;stroke:black;stroke-width:1;fill-opacity:1;stroke-opacity:0.3" />
<line x1="414" y1="142" x2="567" y2="142" stroke="pink" stroke-width="1" />
<rect x="567" y="140" width="14" height="5" style="fill:#f5b024;stroke:black;stroke-width:1;fill-opacity:1;stroke-opacity:0.3" />
<line x1="581" y1="142" x2="751" y2="142" stroke="pink" stroke-width="1" />
<rect x="751" y="140" width="22" height="5" style="fill:#f5b024;stroke:black;stroke-width:1;fill-opacity:1;stroke-opacity:0.3" />
<rect x="799" y="140" width="14" height="5" style="fill:#f5b024;stroke:black;stroke-width:1;fill-opacity:1;stroke-opacity:0.3" />
<line x1="813" y1="142" x2="911" y2="142" stroke="pink" stroke-width="1" />
<rect x="911" y="140" width="35" height="5" style="fill:#f5b024;stroke:black;stroke-width:1;fill-opacity:1;stroke-opacity:0.3" />
<line x1="774" y1="156" x2="786" y2="158" stroke="black" stroke-width="1" />
<line x1="786" y1="158" x2="799" y2="156" stroke="black" stroke-width="1" />
<rect x="402" y="154" width="12" height="5" style="fill:#f5b024;stroke:black;stroke-width:1;fill-opacity:1;stroke-opacity:0.3" />
<line x1="414" y1="156" x2="567" y2="156" stroke="pink" stroke-width="1" />
<rect x="567" y="154" width="14" height="5" style="fill:#f5b024;stroke:black;stroke-width:1;fill-opacity:1;stroke-opacity:0.3" />
<line x1="581" y1="156" x2="751" y2="156" stroke="pink" stroke-width="1" />
<rect x="751" y="154" width="22" height="5" style="fill:#f5b024;stroke:black;stroke-width:1;fill-opacity:1;stroke-opacity:0.3" />
<rect x="799" y="154" width="14" height="5" style="fill:#f5b024;stroke:black;stroke-width:1;fill-opacity:1;stroke-opacity:0.3" />
<line x1="813" y1="156" x2="911" y2="156" stroke="pink" stroke-width="1" />
<rect x="911" y="154" width="35" height="5" style="fill:#f5b024;stroke:black;stroke-width:1;fill-opacity:1;stroke-opacity:0.3" />
<line x1="785" y1="65" x2="796" y2="67" stroke="black" stroke-width="1" />
<line x1="796" y1="67" x2="807" y2="65" stroke="black" stroke-width="1" />
<rect x="413" y="63" width="0" height="5" style="fill:#f5b024;stroke:black;stroke-width:1;fill-opacity:1;stroke-opacity:0.3" />
<line x1="414" y1="65" x2="567" y2="65" stroke="pink" stroke-width="1" />
<rect x="567" y="63" width="14" height="5" style="fill:#f5b024;stroke:black;stroke-width:1;fill-opacity:1;stroke-opacity:0.3" />
<line x1="581" y1="65" x2="751" y2="65" stroke="pink" stroke-width="1" />
<rect x="751" y="63" width="33" height="5" style="fill:#f5b024;stroke:black;stroke-width:1;fill-opacity:1;stroke-opacity:0.3" />
<rect x="807" y="63" width="5" height="5" style="fill:#f5b024;stroke:black;stroke-width:1;fill-opacity:1;stroke-opacity:0.3" />
<line x1="813" y1="65" x2="911" y2="65" stroke="pink" stroke-width="1" />
<rect x="911" y="63" width="43" height="5" style="fill:#f5b024;stroke:black;stroke-width:1;fill-opacity:1;stroke-opacity:0.3" />
<line x1="615" y1="86" x2="639" y2="88" stroke="black" stroke-width="1" />
<line x1="639" y1="88" x2="664" y2="86" stroke="black" stroke-width="1" />
<rect x="414" y="84" width="0" height="5" style="fill:#f5b024;stroke:black;stroke-width:1;fill-opacity:1;stroke-opacity:0.3" />
<line x1="414" y1="86" x2="567" y2="86" stroke="pink" stroke-width="1" />
<rect x="567" y="84" width="48" height="5" style="fill:#f5b024;stroke:black;stroke-width:1;fill-opacity:1;stroke-opacity:0.3" />
<rect x="664" y="84" width="49" height="5" style="fill:#f5b024;stroke:black;stroke-width:1;fill-opacity:1;stroke-opacity:0.3" />
<line x1="463" y1="100" x2="471" y2="102" stroke="black" stroke-width="1" />
<line x1="471" y1="102" x2="480" y2="100" stroke="black" stroke-width="1" />
<rect x="414" y="98" width="49" height="5" style="fill:#f5b024;stroke:black;stroke-width:1;fill-opacity:1;stroke-opacity:0.3" />
<rect x="480" y="98" width="49" height="5" style="fill:#f5b024;stroke:black;stroke-width:1;fill-opacity:1;stroke-opacity:0.3" />
<line x1="483" y1="121" x2="498" y2="123" stroke="black" stroke-width="1" />
<line x1="498" y1="123" x2="514" y2="121" stroke="black" stroke-width="1" />
<rect x="435" y="119" width="48" height="5" style="fill:#f5b024;stroke:black;stroke-width:1;fill-opacity:1;stroke-opacity:0.3" />
<rect x="514" y="119" width="49" height="5" style="fill:#f5b024;stroke:black;stroke-width:1;fill-opacity:1;stroke-opacity:0.3" />
<line x1="498" y1="163" x2="506" y2="165" stroke="black" stroke-width="1" />
<line x1="506" y1="165" x2="514" y2="163" stroke="black" stroke-width="1" />
<rect x="449" y="161" width="49" height="5" style="fill:#f5b024;stroke:black;stroke-width:1;fill-opacity:1;stroke-opacity:0.3" />
<rect x="514" y="161" width="49" height="5" style="fill:#f5b024;stroke:black;stroke-width:1;fill-opacity:1;stroke-opacity:0.3" />
<line x1="556" y1="44" x2="561" y2="46" stroke="black" stroke-width="1" />
<line x1="561" y1="46" x2="567" y2="44" stroke="black" stroke-width="1" />
<rect x="506" y="42" width="49" height="5" style="fill:#f5b024;stroke:black;stroke-width:1;fill-opacity:1;stroke-opacity:0.3" />
<rect x="567" y="42" width="49" height="5" style="fill:#f5b024;stroke:black;stroke-width:1;fill-opacity:1;stroke-opacity:0.3" />
<line x1="602" y1="100" x2="621" y2="102" stroke="black" stroke-width="1" />
<line x1="621" y1="102" x2="641" y2="100" stroke="black" stroke-width="1" />
<rect x="553" y="98" width="49" height="5" style="fill:#f5b024;stroke:black;stroke-width:1;fill-opacity:1;stroke-opacity:0.3" />
<rect x="641" y="98" width="49" height="5" style="fill:#f5b024;stroke:black;stroke-width:1;fill-opacity:1;stroke-opacity:0.3" />
<line x1="652" y1="37" x2="664" y2="39" stroke="black" stroke-width="1" />
<line x1="664" y1="39" x2="676" y2="37" stroke="black" stroke-width="1" />
<rect x="603" y="35" width="49" height="5" style="fill:#f5b024;stroke:black;stroke-width:1;fill-opacity:1;stroke-opacity:0.3" />
<rect x="676" y="35" width="49" height="5" style="fill:#f5b024;stroke:black;stroke-width:1;fill-opacity:1;stroke-opacity:0.3" />
<line x1="695" y1="44" x2="700" y2="46" stroke="black" stroke-width="1" />
<line x1="700" y1="46" x2="706" y2="44" stroke="black" stroke-width="1" />
<rect x="646" y="42" width="49" height="5" style="fill:#f5b024;stroke:black;stroke-width:1;fill-opacity:1;stroke-opacity:0.3" />
<rect x="706" y="42" width="49" height="5" style="fill:#f5b024;stroke:black;stroke-width:1;fill-opacity:1;stroke-opacity:0.3" />
<line x1="719" y1="72" x2="731" y2="74" stroke="black" stroke-width="1" />
<line x1="731" y1="74" x2="744" y2="72" stroke="black" stroke-width="1" />
<rect x="670" y="70" width="49" height="5" style="fill:#f5b024;stroke:black;stroke-width:1;fill-opacity:1;stroke-opacity:0.3" />
<rect x="744" y="70" width="49" height="5" style="fill:#f5b024;stroke:black;stroke-width:1;fill-opacity:1;stroke-opacity:0.3" />
<line x1="762" y1="100" x2="768" y2="102" stroke="black" stroke-width="1" />
<line x1="768" y1="102" x2="775" y2="100" stroke="black" stroke-width="1" />
<rect x="713" y="98" width="49" height="5" style="fill:#f5b024;stroke:black;stroke-width:1;fill-opacity:1;stroke-opacity:0.3" />
<rect x="775" y="98" width="37" height="5" style="fill:#f5b024;stroke:black;stroke-width:1;fill-opacity:1;stroke-opacity:0.3" />
<line x1="813" y1="100" x2="911" y2="100" stroke="pink" stroke-width="1" />
<rect x="911" y="98" width="11" height="5" style="fill:#f5b024;stroke:black;stroke-width:1;fill-opacity:1;stroke-opacity:0.3" />
<line x1="765" y1="86" x2="770" y2="88" stroke="black" stroke-width="1" />
<line x1="770" y1="88" x2="776" y2="86" stroke="black" stroke-width="1" />
<rect x="715" y="84" width="49" height="5" style="fill:#f5b024;stroke:black;stroke-width:1;fill-opacity:1;stroke-opacity:0.3" />
<rect x="776" y="84" width="36" height="5" style="fill:#f5b024;stroke:black;stroke-width:1;fill-opacity:1;stroke-opacity:0.3" />
<line x1="813" y1="86" x2="911" y2="86" stroke="pink" stroke-width="1" />
<rect x="911" y="84" width="12" height="5" style="fill:#f5b024;stroke:black;stroke-width:1;fill-opacity:1;stroke-opacity:0.3" />
<line x1="801" y1="37" x2="804" y2="39" stroke="black" stroke-width="1" />
<line x1="804" y1="39" x2="808" y2="37" stroke="black" stroke-width="1" />
<rect x="751" y="35" width="49" height="5" style="fill:#f5b024;stroke:black;stroke-width:1;fill-opacity:1;stroke-opacity:0.3" />
<rect x="808" y="35" width="4" height="5" style="fill:#f5b024;stroke:black;stroke-width:1;fill-opacity:1;stroke-opacity:0.3" />
<line x1="813" y1="37" x2="911" y2="37" stroke="pink" stroke-width="1" />
<rect x="911" y="35" width="44" height="5" style="fill:#f5b024;stroke:black;stroke-width:1;fill-opacity:1;stroke-opacity:0.3" />
<text x="15"  y="176" style="font-family:Arial;font-size:10;stroke:black;fill:black;">all.merged.bam</text>
</svg>
    
