<?xml version="1.0" encoding="utf-8" standalone="no"?>
<!DOCTYPE svg PUBLIC "-//W3C//DTD SVG 1.1//EN"
  "http://www.w3.org/Graphics/SVG/1.1/DTD/svg11.dtd">
<svg height="1140" width="1000" version="1.1" viewBox="0 0 1000 1140" xmlns="http://www.w3.org/2000/svg" xmlns:xlink="http://www.w3.org/1999/xlink">
<line x1="47" y1="11" x2="951" y2="11" stroke="black" stroke-width="1" />
<rect x="47" y="9" width="40" height="5" style="fill:#f50002;stroke:black;stroke-width:1;fill-opacity:1;stroke-opacity:0.3" />
<rect x="88" y="9" width="40" height="5" style="fill:#53a1b5;stroke:black;stroke-width:1;fill-opacity:1;stroke-opacity:0.3" />
<rect x="167" y="9" width="77" height="5" style="fill:#53a1b5;stroke:black;stroke-width:1;fill-opacity:1;stroke-opacity:0.3" />
<rect x="442" y="9" width="82" height="5" style="fill:#53a1b5;stroke:black;stroke-width:1;fill-opacity:1;stroke-opacity:0.3" />
<rect x="650" y="9" width="26" height="5" style="fill:#53a1b5;stroke:black;stroke-width:1;fill-opacity:1;stroke-opacity:0.3" />
<rect x="677" y="9" width="273" height="5" style="fill:#f50002;stroke:black;stroke-width:1;fill-opacity:1;stroke-opacity:0.3" />
<text x="47"  y="23" style="font-family:Arial;font-size:10;stroke:black;fill:black;">Cre12.g558150.t1.2.v5.5 (+) chromosome_12:7254675-7256566</text>
<line x1="71" y1="30" x2="76" y2="32" stroke="black" stroke-width="1" />
<line x1="76" y1="32" x2="82" y2="30" stroke="black" stroke-width="1" />
<rect x="0" y="28" width="71" height="5" style="fill:#5d3c2d;stroke:black;stroke-width:1;fill-opacity:1;stroke-opacity:0.3" />
<rect x="82" y="28" width="46" height="5" style="fill:#5d3c2d;stroke:black;stroke-width:1;fill-opacity:1;stroke-opacity:0.3" />
<line x1="129" y1="30" x2="167" y2="30" stroke="pink" stroke-width="1" />
<rect x="167" y="28" width="24" height="5" style="fill:#5d3c2d;stroke:black;stroke-width:1;fill-opacity:1;stroke-opacity:0.3" />
<line x1="72" y1="37" x2="77" y2="39" stroke="black" stroke-width="1" />
<line x1="77" y1="39" x2="82" y2="37" stroke="black" stroke-width="1" />
<rect x="0" y="35" width="71" height="5" style="fill:#5d3c2d;stroke:black;stroke-width:1;fill-opacity:1;stroke-opacity:0.3" />
<rect x="82" y="35" width="47" height="5" style="fill:#5d3c2d;stroke:black;stroke-width:1;fill-opacity:1;stroke-opacity:0.3" />
<line x1="129" y1="37" x2="167" y2="37" stroke="pink" stroke-width="1" />
<rect x="167" y="35" width="23" height="5" style="fill:#5d3c2d;stroke:black;stroke-width:1;fill-opacity:1;stroke-opacity:0.3" />
<line x1="48" y1="44" x2="51" y2="46" stroke="black" stroke-width="1" />
<line x1="51" y1="46" x2="54" y2="44" stroke="black" stroke-width="1" />
<rect x="0" y="42" width="47" height="5" style="fill:#5d3c2d;stroke:black;stroke-width:1;fill-opacity:1;stroke-opacity:0.3" />
<rect x="54" y="42" width="47" height="5" style="fill:#5d3c2d;stroke:black;stroke-width:1;fill-opacity:1;stroke-opacity:0.3" />
<line x1="72" y1="51" x2="76" y2="53" stroke="black" stroke-width="1" />
<line x1="76" y1="53" x2="81" y2="51" stroke="black" stroke-width="1" />
<rect x="0" y="49" width="71" height="5" style="fill:#5d3c2d;stroke:black;stroke-width:1;fill-opacity:1;stroke-opacity:0.3" />
<rect x="81" y="49" width="47" height="5" style="fill:#5d3c2d;stroke:black;stroke-width:1;fill-opacity:1;stroke-opacity:0.3" />
<line x1="129" y1="51" x2="167" y2="51" stroke="pink" stroke-width="1" />
<rect x="167" y="49" width="23" height="5" style="fill:#5d3c2d;stroke:black;stroke-width:1;fill-opacity:1;stroke-opacity:0.3" />
<line x1="49" y1="58" x2="69" y2="60" stroke="black" stroke-width="1" />
<line x1="69" y1="60" x2="89" y2="58" stroke="black" stroke-width="1" />
<rect x="1" y="56" width="47" height="5" style="fill:#5d3c2d;stroke:black;stroke-width:1;fill-opacity:1;stroke-opacity:0.3" />
<rect x="89" y="56" width="40" height="5" style="fill:#5d3c2d;stroke:black;stroke-width:1;fill-opacity:1;stroke-opacity:0.3" />
<line x1="129" y1="58" x2="167" y2="58" stroke="pink" stroke-width="1" />
<rect x="167" y="56" width="7" height="5" style="fill:#5d3c2d;stroke:black;stroke-width:1;fill-opacity:1;stroke-opacity:0.3" />
<line x1="49" y1="65" x2="82" y2="67" stroke="black" stroke-width="1" />
<line x1="82" y1="67" x2="115" y2="65" stroke="black" stroke-width="1" />
<rect x="1" y="63" width="47" height="5" style="fill:#5d3c2d;stroke:black;stroke-width:1;fill-opacity:1;stroke-opacity:0.3" />
<rect x="115" y="63" width="13" height="5" style="fill:#5d3c2d;stroke:black;stroke-width:1;fill-opacity:1;stroke-opacity:0.3" />
<line x1="129" y1="65" x2="167" y2="65" stroke="pink" stroke-width="1" />
<rect x="167" y="63" width="33" height="5" style="fill:#5d3c2d;stroke:black;stroke-width:1;fill-opacity:1;stroke-opacity:0.3" />
<line x1="49" y1="72" x2="56" y2="74" stroke="black" stroke-width="1" />
<line x1="56" y1="74" x2="64" y2="72" stroke="black" stroke-width="1" />
<rect x="1" y="70" width="47" height="5" style="fill:#5d3c2d;stroke:black;stroke-width:1;fill-opacity:1;stroke-opacity:0.3" />
<rect x="64" y="70" width="47" height="5" style="fill:#5d3c2d;stroke:black;stroke-width:1;fill-opacity:1;stroke-opacity:0.3" />
<line x1="49" y1="79" x2="62" y2="81" stroke="black" stroke-width="1" />
<line x1="62" y1="81" x2="76" y2="79" stroke="black" stroke-width="1" />
<rect x="1" y="77" width="47" height="5" style="fill:#5d3c2d;stroke:black;stroke-width:1;fill-opacity:1;stroke-opacity:0.3" />
<rect x="76" y="77" width="47" height="5" style="fill:#5d3c2d;stroke:black;stroke-width:1;fill-opacity:1;stroke-opacity:0.3" />
<line x1="49" y1="86" x2="56" y2="88" stroke="black" stroke-width="1" />
<line x1="56" y1="88" x2="64" y2="86" stroke="black" stroke-width="1" />
<rect x="1" y="84" width="47" height="5" style="fill:#5d3c2d;stroke:black;stroke-width:1;fill-opacity:1;stroke-opacity:0.3" />
<rect x="64" y="84" width="47" height="5" style="fill:#5d3c2d;stroke:black;stroke-width:1;fill-opacity:1;stroke-opacity:0.3" />
<line x1="55" y1="93" x2="69" y2="95" stroke="black" stroke-width="1" />
<line x1="69" y1="95" x2="83" y2="93" stroke="black" stroke-width="1" />
<rect x="7" y="91" width="47" height="5" style="fill:#5d3c2d;stroke:black;stroke-width:1;fill-opacity:1;stroke-opacity:0.3" />
<rect x="83" y="91" width="47" height="5" style="fill:#5d3c2d;stroke:black;stroke-width:1;fill-opacity:1;stroke-opacity:0.3" />
<line x1="56" y1="100" x2="72" y2="102" stroke="black" stroke-width="1" />
<line x1="72" y1="102" x2="89" y2="100" stroke="black" stroke-width="1" />
<rect x="8" y="98" width="47" height="5" style="fill:#5d3c2d;stroke:black;stroke-width:1;fill-opacity:1;stroke-opacity:0.3" />
<rect x="89" y="98" width="40" height="5" style="fill:#5d3c2d;stroke:black;stroke-width:1;fill-opacity:1;stroke-opacity:0.3" />
<line x1="129" y1="100" x2="167" y2="100" stroke="pink" stroke-width="1" />
<rect x="167" y="98" width="7" height="5" style="fill:#5d3c2d;stroke:black;stroke-width:1;fill-opacity:1;stroke-opacity:0.3" />
<line x1="56" y1="107" x2="60" y2="109" stroke="black" stroke-width="1" />
<line x1="60" y1="109" x2="64" y2="107" stroke="black" stroke-width="1" />
<rect x="8" y="105" width="47" height="5" style="fill:#5d3c2d;stroke:black;stroke-width:1;fill-opacity:1;stroke-opacity:0.3" />
<rect x="64" y="105" width="47" height="5" style="fill:#5d3c2d;stroke:black;stroke-width:1;fill-opacity:1;stroke-opacity:0.3" />
<line x1="56" y1="114" x2="59" y2="116" stroke="black" stroke-width="1" />
<line x1="59" y1="116" x2="62" y2="114" stroke="black" stroke-width="1" />
<rect x="8" y="112" width="47" height="5" style="fill:#5d3c2d;stroke:black;stroke-width:1;fill-opacity:1;stroke-opacity:0.3" />
<rect x="62" y="112" width="47" height="5" style="fill:#5d3c2d;stroke:black;stroke-width:1;fill-opacity:1;stroke-opacity:0.3" />
<line x1="57" y1="121" x2="66" y2="123" stroke="black" stroke-width="1" />
<line x1="66" y1="123" x2="76" y2="121" stroke="black" stroke-width="1" />
<rect x="9" y="119" width="47" height="5" style="fill:#5d3c2d;stroke:black;stroke-width:1;fill-opacity:1;stroke-opacity:0.3" />
<rect x="76" y="119" width="46" height="5" style="fill:#5d3c2d;stroke:black;stroke-width:1;fill-opacity:1;stroke-opacity:0.3" />
<line x1="57" y1="128" x2="66" y2="130" stroke="black" stroke-width="1" />
<line x1="66" y1="130" x2="76" y2="128" stroke="black" stroke-width="1" />
<rect x="9" y="126" width="47" height="5" style="fill:#5d3c2d;stroke:black;stroke-width:1;fill-opacity:1;stroke-opacity:0.3" />
<rect x="76" y="126" width="47" height="5" style="fill:#5d3c2d;stroke:black;stroke-width:1;fill-opacity:1;stroke-opacity:0.3" />
<line x1="61" y1="135" x2="78" y2="137" stroke="black" stroke-width="1" />
<line x1="78" y1="137" x2="96" y2="135" stroke="black" stroke-width="1" />
<rect x="13" y="133" width="47" height="5" style="fill:#5d3c2d;stroke:black;stroke-width:1;fill-opacity:1;stroke-opacity:0.3" />
<rect x="96" y="133" width="33" height="5" style="fill:#5d3c2d;stroke:black;stroke-width:1;fill-opacity:1;stroke-opacity:0.3" />
<line x1="129" y1="135" x2="167" y2="135" stroke="pink" stroke-width="1" />
<rect x="167" y="133" width="14" height="5" style="fill:#5d3c2d;stroke:black;stroke-width:1;fill-opacity:1;stroke-opacity:0.3" />
<line x1="86" y1="142" x2="89" y2="144" stroke="black" stroke-width="1" />
<line x1="89" y1="144" x2="93" y2="142" stroke="black" stroke-width="1" />
<rect x="14" y="140" width="71" height="5" style="fill:#5d3c2d;stroke:black;stroke-width:1;fill-opacity:1;stroke-opacity:0.3" />
<rect x="93" y="140" width="36" height="5" style="fill:#5d3c2d;stroke:black;stroke-width:1;fill-opacity:1;stroke-opacity:0.3" />
<line x1="129" y1="142" x2="167" y2="142" stroke="pink" stroke-width="1" />
<rect x="167" y="140" width="35" height="5" style="fill:#5d3c2d;stroke:black;stroke-width:1;fill-opacity:1;stroke-opacity:0.3" />
<line x1="85" y1="149" x2="96" y2="151" stroke="black" stroke-width="1" />
<line x1="96" y1="151" x2="107" y2="149" stroke="black" stroke-width="1" />
<rect x="14" y="147" width="71" height="5" style="fill:#5d3c2d;stroke:black;stroke-width:1;fill-opacity:1;stroke-opacity:0.3" />
<rect x="107" y="147" width="22" height="5" style="fill:#5d3c2d;stroke:black;stroke-width:1;fill-opacity:1;stroke-opacity:0.3" />
<line x1="129" y1="149" x2="167" y2="149" stroke="pink" stroke-width="1" />
<rect x="167" y="147" width="48" height="5" style="fill:#5d3c2d;stroke:black;stroke-width:1;fill-opacity:1;stroke-opacity:0.3" />
<line x1="62" y1="156" x2="69" y2="158" stroke="black" stroke-width="1" />
<line x1="69" y1="158" x2="76" y2="156" stroke="black" stroke-width="1" />
<rect x="14" y="154" width="47" height="5" style="fill:#5d3c2d;stroke:black;stroke-width:1;fill-opacity:1;stroke-opacity:0.3" />
<rect x="76" y="154" width="47" height="5" style="fill:#5d3c2d;stroke:black;stroke-width:1;fill-opacity:1;stroke-opacity:0.3" />
<line x1="63" y1="163" x2="76" y2="165" stroke="black" stroke-width="1" />
<line x1="76" y1="165" x2="90" y2="163" stroke="black" stroke-width="1" />
<rect x="15" y="161" width="47" height="5" style="fill:#5d3c2d;stroke:black;stroke-width:1;fill-opacity:1;stroke-opacity:0.3" />
<rect x="90" y="161" width="38" height="5" style="fill:#5d3c2d;stroke:black;stroke-width:1;fill-opacity:1;stroke-opacity:0.3" />
<line x1="129" y1="163" x2="167" y2="163" stroke="pink" stroke-width="1" />
<rect x="167" y="161" width="9" height="5" style="fill:#5d3c2d;stroke:black;stroke-width:1;fill-opacity:1;stroke-opacity:0.3" />
<line x1="187" y1="44" x2="192" y2="46" stroke="black" stroke-width="1" />
<line x1="192" y1="46" x2="197" y2="44" stroke="black" stroke-width="1" />
<rect x="101" y="42" width="27" height="5" style="fill:#5d3c2d;stroke:black;stroke-width:1;fill-opacity:1;stroke-opacity:0.3" />
<line x1="129" y1="44" x2="167" y2="44" stroke="pink" stroke-width="1" />
<rect x="167" y="42" width="20" height="5" style="fill:#5d3c2d;stroke:black;stroke-width:1;fill-opacity:1;stroke-opacity:0.3" />
<rect x="197" y="42" width="47" height="5" style="fill:#5d3c2d;stroke:black;stroke-width:1;fill-opacity:1;stroke-opacity:0.3" />
<line x1="196" y1="114" x2="210" y2="116" stroke="black" stroke-width="1" />
<line x1="210" y1="116" x2="225" y2="114" stroke="black" stroke-width="1" />
<rect x="110" y="112" width="19" height="5" style="fill:#5d3c2d;stroke:black;stroke-width:1;fill-opacity:1;stroke-opacity:0.3" />
<line x1="129" y1="114" x2="167" y2="114" stroke="pink" stroke-width="1" />
<rect x="167" y="112" width="28" height="5" style="fill:#5d3c2d;stroke:black;stroke-width:1;fill-opacity:1;stroke-opacity:0.3" />
<rect x="225" y="112" width="21" height="5" style="fill:#5d3c2d;stroke:black;stroke-width:1;fill-opacity:1;stroke-opacity:0.3" />
<line x1="246" y1="114" x2="442" y2="114" stroke="pink" stroke-width="1" />
<rect x="442" y="112" width="26" height="5" style="fill:#5d3c2d;stroke:black;stroke-width:1;fill-opacity:1;stroke-opacity:0.3" />
<line x1="198" y1="72" x2="206" y2="74" stroke="black" stroke-width="1" />
<line x1="206" y1="74" x2="214" y2="72" stroke="black" stroke-width="1" />
<rect x="112" y="70" width="17" height="5" style="fill:#5d3c2d;stroke:black;stroke-width:1;fill-opacity:1;stroke-opacity:0.3" />
<line x1="129" y1="72" x2="167" y2="72" stroke="pink" stroke-width="1" />
<rect x="167" y="70" width="30" height="5" style="fill:#5d3c2d;stroke:black;stroke-width:1;fill-opacity:1;stroke-opacity:0.3" />
<rect x="214" y="70" width="31" height="5" style="fill:#5d3c2d;stroke:black;stroke-width:1;fill-opacity:1;stroke-opacity:0.3" />
<line x1="246" y1="72" x2="442" y2="72" stroke="pink" stroke-width="1" />
<rect x="442" y="70" width="16" height="5" style="fill:#5d3c2d;stroke:black;stroke-width:1;fill-opacity:1;stroke-opacity:0.3" />
<line x1="200" y1="86" x2="205" y2="88" stroke="black" stroke-width="1" />
<line x1="205" y1="88" x2="210" y2="86" stroke="black" stroke-width="1" />
<rect x="114" y="84" width="14" height="5" style="fill:#5d3c2d;stroke:black;stroke-width:1;fill-opacity:1;stroke-opacity:0.3" />
<line x1="129" y1="86" x2="167" y2="86" stroke="pink" stroke-width="1" />
<rect x="167" y="84" width="32" height="5" style="fill:#5d3c2d;stroke:black;stroke-width:1;fill-opacity:1;stroke-opacity:0.3" />
<rect x="210" y="84" width="35" height="5" style="fill:#5d3c2d;stroke:black;stroke-width:1;fill-opacity:1;stroke-opacity:0.3" />
<line x1="246" y1="86" x2="442" y2="86" stroke="pink" stroke-width="1" />
<rect x="442" y="84" width="11" height="5" style="fill:#5d3c2d;stroke:black;stroke-width:1;fill-opacity:1;stroke-opacity:0.3" />
<line x1="226" y1="107" x2="334" y2="109" stroke="black" stroke-width="1" />
<line x1="334" y1="109" x2="443" y2="107" stroke="black" stroke-width="1" />
<rect x="116" y="105" width="13" height="5" style="fill:#5d3c2d;stroke:black;stroke-width:1;fill-opacity:1;stroke-opacity:0.3" />
<line x1="129" y1="107" x2="167" y2="107" stroke="pink" stroke-width="1" />
<rect x="167" y="105" width="58" height="5" style="fill:#5d3c2d;stroke:black;stroke-width:1;fill-opacity:1;stroke-opacity:0.3" />
<rect x="443" y="105" width="71" height="5" style="fill:#5d3c2d;stroke:black;stroke-width:1;fill-opacity:1;stroke-opacity:0.3" />
<line x1="210" y1="79" x2="212" y2="81" stroke="black" stroke-width="1" />
<line x1="212" y1="81" x2="215" y2="79" stroke="black" stroke-width="1" />
<rect x="124" y="77" width="5" height="5" style="fill:#f5b024;stroke:black;stroke-width:1;fill-opacity:1;stroke-opacity:0.3" />
<line x1="129" y1="79" x2="167" y2="79" stroke="pink" stroke-width="1" />
<rect x="167" y="77" width="42" height="5" style="fill:#f5b024;stroke:black;stroke-width:1;fill-opacity:1;stroke-opacity:0.3" />
<rect x="215" y="77" width="31" height="5" style="fill:#f5b024;stroke:black;stroke-width:1;fill-opacity:1;stroke-opacity:0.3" />
<line x1="246" y1="79" x2="442" y2="79" stroke="pink" stroke-width="1" />
<rect x="442" y="77" width="16" height="5" style="fill:#f5b024;stroke:black;stroke-width:1;fill-opacity:1;stroke-opacity:0.3" />
<line x1="210" y1="121" x2="213" y2="123" stroke="black" stroke-width="1" />
<line x1="213" y1="123" x2="216" y2="121" stroke="black" stroke-width="1" />
<rect x="124" y="119" width="5" height="5" style="fill:#5d3c2d;stroke:black;stroke-width:1;fill-opacity:1;stroke-opacity:0.3" />
<line x1="129" y1="121" x2="167" y2="121" stroke="pink" stroke-width="1" />
<rect x="167" y="119" width="42" height="5" style="fill:#5d3c2d;stroke:black;stroke-width:1;fill-opacity:1;stroke-opacity:0.3" />
<rect x="216" y="119" width="29" height="5" style="fill:#5d3c2d;stroke:black;stroke-width:1;fill-opacity:1;stroke-opacity:0.3" />
<line x1="246" y1="121" x2="442" y2="121" stroke="pink" stroke-width="1" />
<rect x="442" y="119" width="18" height="5" style="fill:#5d3c2d;stroke:black;stroke-width:1;fill-opacity:1;stroke-opacity:0.3" />
<line x1="211" y1="128" x2="216" y2="130" stroke="black" stroke-width="1" />
<line x1="216" y1="130" x2="221" y2="128" stroke="black" stroke-width="1" />
<rect x="125" y="126" width="3" height="5" style="fill:#5d3c2d;stroke:black;stroke-width:1;fill-opacity:1;stroke-opacity:0.3" />
<line x1="129" y1="128" x2="167" y2="128" stroke="pink" stroke-width="1" />
<rect x="167" y="126" width="43" height="5" style="fill:#5d3c2d;stroke:black;stroke-width:1;fill-opacity:1;stroke-opacity:0.3" />
<rect x="221" y="126" width="24" height="5" style="fill:#5d3c2d;stroke:black;stroke-width:1;fill-opacity:1;stroke-opacity:0.3" />
<line x1="246" y1="128" x2="442" y2="128" stroke="pink" stroke-width="1" />
<rect x="442" y="126" width="23" height="5" style="fill:#5d3c2d;stroke:black;stroke-width:1;fill-opacity:1;stroke-opacity:0.3" />
<line x1="173" y1="156" x2="193" y2="158" stroke="black" stroke-width="1" />
<line x1="193" y1="158" x2="213" y2="156" stroke="black" stroke-width="1" />
<rect x="125" y="154" width="47" height="5" style="fill:#5d3c2d;stroke:black;stroke-width:1;fill-opacity:1;stroke-opacity:0.3" />
<rect x="213" y="154" width="47" height="5" style="fill:#5d3c2d;stroke:black;stroke-width:1;fill-opacity:1;stroke-opacity:0.3" />
<line x1="183" y1="93" x2="187" y2="95" stroke="black" stroke-width="1" />
<line x1="187" y1="95" x2="192" y2="93" stroke="black" stroke-width="1" />
<rect x="135" y="91" width="47" height="5" style="fill:#5d3c2d;stroke:black;stroke-width:1;fill-opacity:1;stroke-opacity:0.3" />
<rect x="192" y="91" width="47" height="5" style="fill:#5d3c2d;stroke:black;stroke-width:1;fill-opacity:1;stroke-opacity:0.3" />
<line x1="223" y1="58" x2="335" y2="60" stroke="black" stroke-width="1" />
<line x1="335" y1="60" x2="447" y2="58" stroke="black" stroke-width="1" />
<rect x="175" y="56" width="47" height="5" style="fill:#5d3c2d;stroke:black;stroke-width:1;fill-opacity:1;stroke-opacity:0.3" />
<rect x="447" y="56" width="47" height="5" style="fill:#5d3c2d;stroke:black;stroke-width:1;fill-opacity:1;stroke-opacity:0.3" />
<line x1="225" y1="100" x2="232" y2="102" stroke="black" stroke-width="1" />
<line x1="232" y1="102" x2="239" y2="100" stroke="black" stroke-width="1" />
<rect x="177" y="98" width="47" height="5" style="fill:#5d3c2d;stroke:black;stroke-width:1;fill-opacity:1;stroke-opacity:0.3" />
<rect x="239" y="98" width="6" height="5" style="fill:#5d3c2d;stroke:black;stroke-width:1;fill-opacity:1;stroke-opacity:0.3" />
<line x1="246" y1="100" x2="442" y2="100" stroke="pink" stroke-width="1" />
<rect x="442" y="98" width="41" height="5" style="fill:#5d3c2d;stroke:black;stroke-width:1;fill-opacity:1;stroke-opacity:0.3" />
<line x1="226" y1="163" x2="228" y2="165" stroke="black" stroke-width="1" />
<line x1="228" y1="165" x2="231" y2="163" stroke="black" stroke-width="1" />
<rect x="178" y="161" width="47" height="5" style="fill:#5d3c2d;stroke:black;stroke-width:1;fill-opacity:1;stroke-opacity:0.3" />
<rect x="231" y="161" width="14" height="5" style="fill:#5d3c2d;stroke:black;stroke-width:1;fill-opacity:1;stroke-opacity:0.3" />
<line x1="246" y1="163" x2="442" y2="163" stroke="pink" stroke-width="1" />
<rect x="442" y="161" width="32" height="5" style="fill:#5d3c2d;stroke:black;stroke-width:1;fill-opacity:1;stroke-opacity:0.3" />
<line x1="232" y1="135" x2="343" y2="137" stroke="black" stroke-width="1" />
<line x1="343" y1="137" x2="454" y2="135" stroke="black" stroke-width="1" />
<rect x="184" y="133" width="47" height="5" style="fill:#5d3c2d;stroke:black;stroke-width:1;fill-opacity:1;stroke-opacity:0.3" />
<rect x="454" y="133" width="47" height="5" style="fill:#5d3c2d;stroke:black;stroke-width:1;fill-opacity:1;stroke-opacity:0.3" />
<line x1="239" y1="37" x2="362" y2="39" stroke="black" stroke-width="1" />
<line x1="362" y1="39" x2="485" y2="37" stroke="black" stroke-width="1" />
<rect x="192" y="35" width="47" height="5" style="fill:#5d3c2d;stroke:black;stroke-width:1;fill-opacity:1;stroke-opacity:0.3" />
<rect x="485" y="35" width="40" height="5" style="fill:#5d3c2d;stroke:black;stroke-width:1;fill-opacity:1;stroke-opacity:0.3" />
<line x1="525" y1="37" x2="650" y2="37" stroke="pink" stroke-width="1" />
<rect x="650" y="35" width="7" height="5" style="fill:#5d3c2d;stroke:black;stroke-width:1;fill-opacity:1;stroke-opacity:0.3" />
<line x1="463" y1="30" x2="470" y2="32" stroke="black" stroke-width="1" />
<line x1="470" y1="32" x2="478" y2="30" stroke="black" stroke-width="1" />
<rect x="195" y="28" width="50" height="5" style="fill:#5d3c2d;stroke:black;stroke-width:1;fill-opacity:1;stroke-opacity:0.3" />
<line x1="246" y1="30" x2="442" y2="30" stroke="pink" stroke-width="1" />
<rect x="442" y="28" width="21" height="5" style="fill:#5d3c2d;stroke:black;stroke-width:1;fill-opacity:1;stroke-opacity:0.3" />
<rect x="478" y="28" width="47" height="5" style="fill:#5d3c2d;stroke:black;stroke-width:1;fill-opacity:1;stroke-opacity:0.3" />
<line x1="525" y1="30" x2="650" y2="30" stroke="pink" stroke-width="1" />
<rect x="650" y="28" width="24" height="5" style="fill:#5d3c2d;stroke:black;stroke-width:1;fill-opacity:1;stroke-opacity:0.3" />
<line x1="243" y1="51" x2="347" y2="53" stroke="black" stroke-width="1" />
<line x1="347" y1="53" x2="452" y2="51" stroke="black" stroke-width="1" />
<rect x="195" y="49" width="47" height="5" style="fill:#5d3c2d;stroke:black;stroke-width:1;fill-opacity:1;stroke-opacity:0.3" />
<rect x="452" y="49" width="47" height="5" style="fill:#5d3c2d;stroke:black;stroke-width:1;fill-opacity:1;stroke-opacity:0.3" />
<line x1="446" y1="65" x2="451" y2="67" stroke="black" stroke-width="1" />
<line x1="451" y1="67" x2="457" y2="65" stroke="black" stroke-width="1" />
<rect x="202" y="63" width="43" height="5" style="fill:#5d3c2d;stroke:black;stroke-width:1;fill-opacity:1;stroke-opacity:0.3" />
<line x1="246" y1="65" x2="442" y2="65" stroke="pink" stroke-width="1" />
<rect x="442" y="63" width="3" height="5" style="fill:#5d3c2d;stroke:black;stroke-width:1;fill-opacity:1;stroke-opacity:0.3" />
<rect x="457" y="63" width="47" height="5" style="fill:#5d3c2d;stroke:black;stroke-width:1;fill-opacity:1;stroke-opacity:0.3" />
<line x1="447" y1="142" x2="468" y2="144" stroke="black" stroke-width="1" />
<line x1="468" y1="144" x2="489" y2="142" stroke="black" stroke-width="1" />
<rect x="203" y="140" width="43" height="5" style="fill:#5d3c2d;stroke:black;stroke-width:1;fill-opacity:1;stroke-opacity:0.3" />
<line x1="246" y1="142" x2="442" y2="142" stroke="pink" stroke-width="1" />
<rect x="442" y="140" width="4" height="5" style="fill:#5d3c2d;stroke:black;stroke-width:1;fill-opacity:1;stroke-opacity:0.3" />
<rect x="489" y="140" width="36" height="5" style="fill:#5d3c2d;stroke:black;stroke-width:1;fill-opacity:1;stroke-opacity:0.3" />
<line x1="525" y1="142" x2="650" y2="142" stroke="pink" stroke-width="1" />
<rect x="650" y="140" width="11" height="5" style="fill:#5d3c2d;stroke:black;stroke-width:1;fill-opacity:1;stroke-opacity:0.3" />
<line x1="461" y1="149" x2="473" y2="151" stroke="black" stroke-width="1" />
<line x1="473" y1="151" x2="485" y2="149" stroke="black" stroke-width="1" />
<rect x="217" y="147" width="29" height="5" style="fill:#5d3c2d;stroke:black;stroke-width:1;fill-opacity:1;stroke-opacity:0.3" />
<line x1="246" y1="149" x2="442" y2="149" stroke="pink" stroke-width="1" />
<rect x="442" y="147" width="18" height="5" style="fill:#5d3c2d;stroke:black;stroke-width:1;fill-opacity:1;stroke-opacity:0.3" />
<rect x="485" y="147" width="40" height="5" style="fill:#5d3c2d;stroke:black;stroke-width:1;fill-opacity:1;stroke-opacity:0.3" />
<line x1="525" y1="149" x2="650" y2="149" stroke="pink" stroke-width="1" />
<rect x="650" y="147" width="7" height="5" style="fill:#5d3c2d;stroke:black;stroke-width:1;fill-opacity:1;stroke-opacity:0.3" />
<line x1="481" y1="93" x2="490" y2="95" stroke="black" stroke-width="1" />
<line x1="490" y1="95" x2="500" y2="93" stroke="black" stroke-width="1" />
<rect x="240" y="91" width="5" height="5" style="fill:#5d3c2d;stroke:black;stroke-width:1;fill-opacity:1;stroke-opacity:0.3" />
<line x1="246" y1="93" x2="442" y2="93" stroke="pink" stroke-width="1" />
<rect x="442" y="91" width="38" height="5" style="fill:#5d3c2d;stroke:black;stroke-width:1;fill-opacity:1;stroke-opacity:0.3" />
<rect x="500" y="91" width="25" height="5" style="fill:#5d3c2d;stroke:black;stroke-width:1;fill-opacity:1;stroke-opacity:0.3" />
<line x1="525" y1="93" x2="650" y2="93" stroke="pink" stroke-width="1" />
<rect x="650" y="91" width="21" height="5" style="fill:#5d3c2d;stroke:black;stroke-width:1;fill-opacity:1;stroke-opacity:0.3" />
<line x1="489" y1="44" x2="500" y2="46" stroke="black" stroke-width="1" />
<line x1="500" y1="46" x2="512" y2="44" stroke="black" stroke-width="1" />
<rect x="245" y="42" width="0" height="5" style="fill:#5d3c2d;stroke:black;stroke-width:1;fill-opacity:1;stroke-opacity:0.3" />
<line x1="246" y1="44" x2="442" y2="44" stroke="pink" stroke-width="1" />
<rect x="442" y="42" width="46" height="5" style="fill:#5d3c2d;stroke:black;stroke-width:1;fill-opacity:1;stroke-opacity:0.3" />
<rect x="512" y="42" width="13" height="5" style="fill:#5d3c2d;stroke:black;stroke-width:1;fill-opacity:1;stroke-opacity:0.3" />
<line x1="525" y1="44" x2="650" y2="44" stroke="pink" stroke-width="1" />
<rect x="650" y="42" width="34" height="5" style="fill:#5d3c2d;stroke:black;stroke-width:1;fill-opacity:1;stroke-opacity:0.3" />
<line x1="311" y1="156" x2="327" y2="158" stroke="black" stroke-width="1" />
<line x1="327" y1="158" x2="344" y2="156" stroke="black" stroke-width="1" />
<rect x="263" y="154" width="47" height="5" style="fill:#f5b024;stroke:black;stroke-width:1;fill-opacity:1;stroke-opacity:0.3" />
<rect x="344" y="154" width="47" height="5" style="fill:#f5b024;stroke:black;stroke-width:1;fill-opacity:1;stroke-opacity:0.3" />
<line x1="513" y1="156" x2="517" y2="158" stroke="black" stroke-width="1" />
<line x1="517" y1="158" x2="521" y2="156" stroke="black" stroke-width="1" />
<rect x="442" y="154" width="71" height="5" style="fill:#5d3c2d;stroke:black;stroke-width:1;fill-opacity:1;stroke-opacity:0.3" />
<rect x="521" y="154" width="4" height="5" style="fill:#5d3c2d;stroke:black;stroke-width:1;fill-opacity:1;stroke-opacity:0.3" />
<line x1="525" y1="156" x2="650" y2="156" stroke="pink" stroke-width="1" />
<rect x="650" y="154" width="65" height="5" style="fill:#5d3c2d;stroke:black;stroke-width:1;fill-opacity:1;stroke-opacity:0.3" />
<line x1="502" y1="86" x2="511" y2="88" stroke="black" stroke-width="1" />
<line x1="511" y1="88" x2="520" y2="86" stroke="black" stroke-width="1" />
<rect x="454" y="84" width="47" height="5" style="fill:#5d3c2d;stroke:black;stroke-width:1;fill-opacity:1;stroke-opacity:0.3" />
<rect x="520" y="84" width="5" height="5" style="fill:#5d3c2d;stroke:black;stroke-width:1;fill-opacity:1;stroke-opacity:0.3" />
<line x1="525" y1="86" x2="650" y2="86" stroke="pink" stroke-width="1" />
<rect x="650" y="84" width="42" height="5" style="fill:#5d3c2d;stroke:black;stroke-width:1;fill-opacity:1;stroke-opacity:0.3" />
<line x1="507" y1="72" x2="513" y2="74" stroke="black" stroke-width="1" />
<line x1="513" y1="74" x2="520" y2="72" stroke="black" stroke-width="1" />
<rect x="459" y="70" width="47" height="5" style="fill:#5d3c2d;stroke:black;stroke-width:1;fill-opacity:1;stroke-opacity:0.3" />
<rect x="520" y="70" width="5" height="5" style="fill:#5d3c2d;stroke:black;stroke-width:1;fill-opacity:1;stroke-opacity:0.3" />
<line x1="525" y1="72" x2="650" y2="72" stroke="pink" stroke-width="1" />
<rect x="650" y="70" width="42" height="5" style="fill:#5d3c2d;stroke:black;stroke-width:1;fill-opacity:1;stroke-opacity:0.3" />
<line x1="507" y1="79" x2="514" y2="81" stroke="black" stroke-width="1" />
<line x1="514" y1="81" x2="521" y2="79" stroke="black" stroke-width="1" />
<rect x="459" y="77" width="47" height="5" style="fill:#5d3c2d;stroke:black;stroke-width:1;fill-opacity:1;stroke-opacity:0.3" />
<rect x="521" y="77" width="4" height="5" style="fill:#5d3c2d;stroke:black;stroke-width:1;fill-opacity:1;stroke-opacity:0.3" />
<line x1="525" y1="79" x2="650" y2="79" stroke="pink" stroke-width="1" />
<rect x="650" y="77" width="43" height="5" style="fill:#5d3c2d;stroke:black;stroke-width:1;fill-opacity:1;stroke-opacity:0.3" />
<line x1="510" y1="121" x2="596" y2="123" stroke="black" stroke-width="1" />
<line x1="596" y1="123" x2="683" y2="121" stroke="black" stroke-width="1" />
<rect x="463" y="119" width="47" height="5" style="fill:#5d3c2d;stroke:black;stroke-width:1;fill-opacity:1;stroke-opacity:0.3" />
<rect x="683" y="119" width="46" height="5" style="fill:#5d3c2d;stroke:black;stroke-width:1;fill-opacity:1;stroke-opacity:0.3" />
<line x1="663" y1="128" x2="672" y2="130" stroke="black" stroke-width="1" />
<line x1="672" y1="130" x2="681" y2="128" stroke="black" stroke-width="1" />
<rect x="467" y="126" width="58" height="5" style="fill:#5d3c2d;stroke:black;stroke-width:1;fill-opacity:1;stroke-opacity:0.3" />
<line x1="525" y1="128" x2="650" y2="128" stroke="pink" stroke-width="1" />
<rect x="650" y="126" width="12" height="5" style="fill:#5d3c2d;stroke:black;stroke-width:1;fill-opacity:1;stroke-opacity:0.3" />
<rect x="681" y="126" width="71" height="5" style="fill:#5d3c2d;stroke:black;stroke-width:1;fill-opacity:1;stroke-opacity:0.3" />
<line x1="517" y1="114" x2="588" y2="116" stroke="black" stroke-width="1" />
<line x1="588" y1="116" x2="659" y2="114" stroke="black" stroke-width="1" />
<rect x="469" y="112" width="47" height="5" style="fill:#5d3c2d;stroke:black;stroke-width:1;fill-opacity:1;stroke-opacity:0.3" />
<rect x="659" y="112" width="47" height="5" style="fill:#5d3c2d;stroke:black;stroke-width:1;fill-opacity:1;stroke-opacity:0.3" />
<line x1="524" y1="163" x2="595" y2="165" stroke="black" stroke-width="1" />
<line x1="595" y1="165" x2="666" y2="163" stroke="black" stroke-width="1" />
<rect x="476" y="161" width="47" height="5" style="fill:#5d3c2d;stroke:black;stroke-width:1;fill-opacity:1;stroke-opacity:0.3" />
<rect x="666" y="161" width="47" height="5" style="fill:#5d3c2d;stroke:black;stroke-width:1;fill-opacity:1;stroke-opacity:0.3" />
<line x1="656" y1="100" x2="664" y2="102" stroke="black" stroke-width="1" />
<line x1="664" y1="102" x2="673" y2="100" stroke="black" stroke-width="1" />
<rect x="484" y="98" width="41" height="5" style="fill:#5d3c2d;stroke:black;stroke-width:1;fill-opacity:1;stroke-opacity:0.3" />
<line x1="525" y1="100" x2="650" y2="100" stroke="pink" stroke-width="1" />
<rect x="650" y="98" width="6" height="5" style="fill:#5d3c2d;stroke:black;stroke-width:1;fill-opacity:1;stroke-opacity:0.3" />
<rect x="673" y="98" width="47" height="5" style="fill:#5d3c2d;stroke:black;stroke-width:1;fill-opacity:1;stroke-opacity:0.3" />
<line x1="658" y1="58" x2="670" y2="60" stroke="black" stroke-width="1" />
<line x1="670" y1="60" x2="682" y2="58" stroke="black" stroke-width="1" />
<rect x="495" y="56" width="30" height="5" style="fill:#f5b024;stroke:black;stroke-width:1;fill-opacity:1;stroke-opacity:0.3" />
<line x1="525" y1="58" x2="650" y2="58" stroke="pink" stroke-width="1" />
<rect x="650" y="56" width="8" height="5" style="fill:#f5b024;stroke:black;stroke-width:1;fill-opacity:1;stroke-opacity:0.3" />
<rect x="682" y="56" width="47" height="5" style="fill:#f5b024;stroke:black;stroke-width:1;fill-opacity:1;stroke-opacity:0.3" />
<line x1="675" y1="51" x2="682" y2="53" stroke="black" stroke-width="1" />
<line x1="682" y1="53" x2="690" y2="51" stroke="black" stroke-width="1" />
<rect x="502" y="49" width="22" height="5" style="fill:#5d3c2d;stroke:black;stroke-width:1;fill-opacity:1;stroke-opacity:0.3" />
<line x1="525" y1="51" x2="650" y2="51" stroke="pink" stroke-width="1" />
<rect x="650" y="49" width="24" height="5" style="fill:#5d3c2d;stroke:black;stroke-width:1;fill-opacity:1;stroke-opacity:0.3" />
<rect x="690" y="49" width="47" height="5" style="fill:#5d3c2d;stroke:black;stroke-width:1;fill-opacity:1;stroke-opacity:0.3" />
<line x1="675" y1="135" x2="702" y2="137" stroke="black" stroke-width="1" />
<line x1="702" y1="137" x2="730" y2="135" stroke="black" stroke-width="1" />
<rect x="502" y="133" width="22" height="5" style="fill:#5d3c2d;stroke:black;stroke-width:1;fill-opacity:1;stroke-opacity:0.3" />
<line x1="525" y1="135" x2="650" y2="135" stroke="pink" stroke-width="1" />
<rect x="650" y="133" width="24" height="5" style="fill:#5d3c2d;stroke:black;stroke-width:1;fill-opacity:1;stroke-opacity:0.3" />
<rect x="730" y="133" width="46" height="5" style="fill:#5d3c2d;stroke:black;stroke-width:1;fill-opacity:1;stroke-opacity:0.3" />
<line x1="678" y1="65" x2="691" y2="67" stroke="black" stroke-width="1" />
<line x1="691" y1="67" x2="705" y2="65" stroke="black" stroke-width="1" />
<rect x="505" y="63" width="20" height="5" style="fill:#5d3c2d;stroke:black;stroke-width:1;fill-opacity:1;stroke-opacity:0.3" />
<line x1="525" y1="65" x2="650" y2="65" stroke="pink" stroke-width="1" />
<rect x="650" y="63" width="27" height="5" style="fill:#5d3c2d;stroke:black;stroke-width:1;fill-opacity:1;stroke-opacity:0.3" />
<rect x="705" y="63" width="46" height="5" style="fill:#5d3c2d;stroke:black;stroke-width:1;fill-opacity:1;stroke-opacity:0.3" />
<line x1="688" y1="107" x2="691" y2="109" stroke="black" stroke-width="1" />
<line x1="691" y1="109" x2="694" y2="107" stroke="black" stroke-width="1" />
<rect x="515" y="105" width="10" height="5" style="fill:#5d3c2d;stroke:black;stroke-width:1;fill-opacity:1;stroke-opacity:0.3" />
<line x1="525" y1="107" x2="650" y2="107" stroke="pink" stroke-width="1" />
<rect x="650" y="105" width="37" height="5" style="fill:#5d3c2d;stroke:black;stroke-width:1;fill-opacity:1;stroke-opacity:0.3" />
<rect x="694" y="105" width="47" height="5" style="fill:#5d3c2d;stroke:black;stroke-width:1;fill-opacity:1;stroke-opacity:0.3" />
<line x1="706" y1="37" x2="717" y2="39" stroke="black" stroke-width="1" />
<line x1="717" y1="39" x2="729" y2="37" stroke="black" stroke-width="1" />
<rect x="658" y="35" width="47" height="5" style="fill:#5d3c2d;stroke:black;stroke-width:1;fill-opacity:1;stroke-opacity:0.3" />
<rect x="729" y="35" width="46" height="5" style="fill:#5d3c2d;stroke:black;stroke-width:1;fill-opacity:1;stroke-opacity:0.3" />
<line x1="707" y1="149" x2="718" y2="151" stroke="black" stroke-width="1" />
<line x1="718" y1="151" x2="729" y2="149" stroke="black" stroke-width="1" />
<rect x="660" y="147" width="47" height="5" style="fill:#f5b024;stroke:black;stroke-width:1;fill-opacity:1;stroke-opacity:0.3" />
<rect x="729" y="147" width="47" height="5" style="fill:#f5b024;stroke:black;stroke-width:1;fill-opacity:1;stroke-opacity:0.3" />
<line x1="714" y1="142" x2="721" y2="144" stroke="black" stroke-width="1" />
<line x1="721" y1="144" x2="728" y2="142" stroke="black" stroke-width="1" />
<rect x="666" y="140" width="47" height="5" style="fill:#5d3c2d;stroke:black;stroke-width:1;fill-opacity:1;stroke-opacity:0.3" />
<rect x="728" y="140" width="47" height="5" style="fill:#5d3c2d;stroke:black;stroke-width:1;fill-opacity:1;stroke-opacity:0.3" />
<line x1="720" y1="93" x2="727" y2="95" stroke="black" stroke-width="1" />
<line x1="727" y1="95" x2="735" y2="93" stroke="black" stroke-width="1" />
<rect x="672" y="91" width="47" height="5" style="fill:#5d3c2d;stroke:black;stroke-width:1;fill-opacity:1;stroke-opacity:0.3" />
<rect x="735" y="91" width="47" height="5" style="fill:#5d3c2d;stroke:black;stroke-width:1;fill-opacity:1;stroke-opacity:0.3" />
<line x1="723" y1="30" x2="742" y2="32" stroke="black" stroke-width="1" />
<line x1="742" y1="32" x2="762" y2="30" stroke="black" stroke-width="1" />
<rect x="675" y="28" width="47" height="5" style="fill:#5d3c2d;stroke:black;stroke-width:1;fill-opacity:1;stroke-opacity:0.3" />
<rect x="762" y="28" width="47" height="5" style="fill:#5d3c2d;stroke:black;stroke-width:1;fill-opacity:1;stroke-opacity:0.3" />
<line x1="733" y1="44" x2="737" y2="46" stroke="black" stroke-width="1" />
<line x1="737" y1="46" x2="742" y2="44" stroke="black" stroke-width="1" />
<rect x="685" y="42" width="47" height="5" style="fill:#5d3c2d;stroke:black;stroke-width:1;fill-opacity:1;stroke-opacity:0.3" />
<rect x="742" y="42" width="47" height="5" style="fill:#5d3c2d;stroke:black;stroke-width:1;fill-opacity:1;stroke-opacity:0.3" />
<line x1="740" y1="72" x2="742" y2="74" stroke="black" stroke-width="1" />
<line x1="742" y1="74" x2="745" y2="72" stroke="black" stroke-width="1" />
<rect x="693" y="70" width="47" height="5" style="fill:#5d3c2d;stroke:black;stroke-width:1;fill-opacity:1;stroke-opacity:0.3" />
<rect x="745" y="70" width="47" height="5" style="fill:#5d3c2d;stroke:black;stroke-width:1;fill-opacity:1;stroke-opacity:0.3" />
<line x1="740" y1="86" x2="755" y2="88" stroke="black" stroke-width="1" />
<line x1="755" y1="88" x2="770" y2="86" stroke="black" stroke-width="1" />
<rect x="693" y="84" width="47" height="5" style="fill:#5d3c2d;stroke:black;stroke-width:1;fill-opacity:1;stroke-opacity:0.3" />
<rect x="770" y="84" width="47" height="5" style="fill:#5d3c2d;stroke:black;stroke-width:1;fill-opacity:1;stroke-opacity:0.3" />
<line x1="741" y1="79" x2="750" y2="81" stroke="black" stroke-width="1" />
<line x1="750" y1="81" x2="760" y2="79" stroke="black" stroke-width="1" />
<rect x="694" y="77" width="47" height="5" style="fill:#5d3c2d;stroke:black;stroke-width:1;fill-opacity:1;stroke-opacity:0.3" />
<rect x="760" y="77" width="47" height="5" style="fill:#5d3c2d;stroke:black;stroke-width:1;fill-opacity:1;stroke-opacity:0.3" />
<line x1="754" y1="114" x2="769" y2="116" stroke="black" stroke-width="1" />
<line x1="769" y1="116" x2="784" y2="114" stroke="black" stroke-width="1" />
<rect x="706" y="112" width="47" height="5" style="fill:#5d3c2d;stroke:black;stroke-width:1;fill-opacity:1;stroke-opacity:0.3" />
<rect x="784" y="112" width="47" height="5" style="fill:#5d3c2d;stroke:black;stroke-width:1;fill-opacity:1;stroke-opacity:0.3" />
<line x1="786" y1="156" x2="791" y2="158" stroke="black" stroke-width="1" />
<line x1="791" y1="158" x2="797" y2="156" stroke="black" stroke-width="1" />
<rect x="715" y="154" width="71" height="5" style="fill:#5d3c2d;stroke:black;stroke-width:1;fill-opacity:1;stroke-opacity:0.3" />
<rect x="797" y="154" width="71" height="5" style="fill:#5d3c2d;stroke:black;stroke-width:1;fill-opacity:1;stroke-opacity:0.3" />
<line x1="764" y1="163" x2="803" y2="165" stroke="black" stroke-width="1" />
<line x1="803" y1="165" x2="842" y2="163" stroke="black" stroke-width="1" />
<rect x="717" y="161" width="47" height="5" style="fill:#5d3c2d;stroke:black;stroke-width:1;fill-opacity:1;stroke-opacity:0.3" />
<rect x="842" y="161" width="47" height="5" style="fill:#5d3c2d;stroke:black;stroke-width:1;fill-opacity:1;stroke-opacity:0.3" />
<line x1="769" y1="100" x2="776" y2="102" stroke="black" stroke-width="1" />
<line x1="776" y1="102" x2="784" y2="100" stroke="black" stroke-width="1" />
<rect x="721" y="98" width="47" height="5" style="fill:#5d3c2d;stroke:black;stroke-width:1;fill-opacity:1;stroke-opacity:0.3" />
<rect x="784" y="98" width="47" height="5" style="fill:#5d3c2d;stroke:black;stroke-width:1;fill-opacity:1;stroke-opacity:0.3" />
<line x1="777" y1="58" x2="780" y2="60" stroke="black" stroke-width="1" />
<line x1="780" y1="60" x2="784" y2="58" stroke="black" stroke-width="1" />
<rect x="729" y="56" width="47" height="5" style="fill:#5d3c2d;stroke:black;stroke-width:1;fill-opacity:1;stroke-opacity:0.3" />
<rect x="784" y="56" width="47" height="5" style="fill:#5d3c2d;stroke:black;stroke-width:1;fill-opacity:1;stroke-opacity:0.3" />
<line x1="778" y1="121" x2="799" y2="123" stroke="black" stroke-width="1" />
<line x1="799" y1="123" x2="821" y2="121" stroke="black" stroke-width="1" />
<rect x="730" y="119" width="47" height="5" style="fill:#5d3c2d;stroke:black;stroke-width:1;fill-opacity:1;stroke-opacity:0.3" />
<rect x="821" y="119" width="47" height="5" style="fill:#5d3c2d;stroke:black;stroke-width:1;fill-opacity:1;stroke-opacity:0.3" />
<line x1="788" y1="51" x2="796" y2="53" stroke="black" stroke-width="1" />
<line x1="796" y1="53" x2="804" y2="51" stroke="black" stroke-width="1" />
<rect x="740" y="49" width="47" height="5" style="fill:#5d3c2d;stroke:black;stroke-width:1;fill-opacity:1;stroke-opacity:0.3" />
<rect x="804" y="49" width="47" height="5" style="fill:#5d3c2d;stroke:black;stroke-width:1;fill-opacity:1;stroke-opacity:0.3" />
<line x1="813" y1="107" x2="815" y2="109" stroke="black" stroke-width="1" />
<line x1="815" y1="109" x2="818" y2="107" stroke="black" stroke-width="1" />
<rect x="741" y="105" width="71" height="5" style="fill:#5d3c2d;stroke:black;stroke-width:1;fill-opacity:1;stroke-opacity:0.3" />
<rect x="818" y="105" width="71" height="5" style="fill:#5d3c2d;stroke:black;stroke-width:1;fill-opacity:1;stroke-opacity:0.3" />
<line x1="799" y1="65" x2="809" y2="67" stroke="black" stroke-width="1" />
<line x1="809" y1="67" x2="820" y2="65" stroke="black" stroke-width="1" />
<rect x="751" y="63" width="47" height="5" style="fill:#5d3c2d;stroke:black;stroke-width:1;fill-opacity:1;stroke-opacity:0.3" />
<rect x="820" y="63" width="47" height="5" style="fill:#5d3c2d;stroke:black;stroke-width:1;fill-opacity:1;stroke-opacity:0.3" />
<line x1="801" y1="128" x2="807" y2="130" stroke="black" stroke-width="1" />
<line x1="807" y1="130" x2="813" y2="128" stroke="black" stroke-width="1" />
<rect x="753" y="126" width="47" height="5" style="fill:#5d3c2d;stroke:black;stroke-width:1;fill-opacity:1;stroke-opacity:0.3" />
<rect x="813" y="126" width="47" height="5" style="fill:#5d3c2d;stroke:black;stroke-width:1;fill-opacity:1;stroke-opacity:0.3" />
<line x1="824" y1="37" x2="830" y2="39" stroke="black" stroke-width="1" />
<line x1="830" y1="39" x2="837" y2="37" stroke="black" stroke-width="1" />
<rect x="776" y="35" width="47" height="5" style="fill:#5d3c2d;stroke:black;stroke-width:1;fill-opacity:1;stroke-opacity:0.3" />
<rect x="837" y="35" width="47" height="5" style="fill:#5d3c2d;stroke:black;stroke-width:1;fill-opacity:1;stroke-opacity:0.3" />
<line x1="824" y1="135" x2="828" y2="137" stroke="black" stroke-width="1" />
<line x1="828" y1="137" x2="833" y2="135" stroke="black" stroke-width="1" />
<rect x="776" y="133" width="47" height="5" style="fill:#5d3c2d;stroke:black;stroke-width:1;fill-opacity:1;stroke-opacity:0.3" />
<rect x="833" y="133" width="47" height="5" style="fill:#5d3c2d;stroke:black;stroke-width:1;fill-opacity:1;stroke-opacity:0.3" />
<line x1="825" y1="142" x2="836" y2="144" stroke="black" stroke-width="1" />
<line x1="836" y1="144" x2="847" y2="142" stroke="black" stroke-width="1" />
<rect x="777" y="140" width="47" height="5" style="fill:#5d3c2d;stroke:black;stroke-width:1;fill-opacity:1;stroke-opacity:0.3" />
<rect x="847" y="140" width="47" height="5" style="fill:#5d3c2d;stroke:black;stroke-width:1;fill-opacity:1;stroke-opacity:0.3" />
<line x1="826" y1="149" x2="830" y2="151" stroke="black" stroke-width="1" />
<line x1="830" y1="151" x2="834" y2="149" stroke="black" stroke-width="1" />
<rect x="778" y="147" width="47" height="5" style="fill:#f5b024;stroke:black;stroke-width:1;fill-opacity:1;stroke-opacity:0.3" />
<rect x="834" y="147" width="47" height="5" style="fill:#f5b024;stroke:black;stroke-width:1;fill-opacity:1;stroke-opacity:0.3" />
<line x1="832" y1="93" x2="852" y2="95" stroke="black" stroke-width="1" />
<line x1="852" y1="95" x2="872" y2="93" stroke="black" stroke-width="1" />
<rect x="784" y="91" width="47" height="5" style="fill:#5d3c2d;stroke:black;stroke-width:1;fill-opacity:1;stroke-opacity:0.3" />
<rect x="872" y="91" width="47" height="5" style="fill:#5d3c2d;stroke:black;stroke-width:1;fill-opacity:1;stroke-opacity:0.3" />
<line x1="836" y1="44" x2="843" y2="46" stroke="black" stroke-width="1" />
<line x1="843" y1="46" x2="850" y2="44" stroke="black" stroke-width="1" />
<rect x="790" y="42" width="45" height="5" style="fill:#5d3c2d;stroke:black;stroke-width:1;fill-opacity:1;stroke-opacity:0.3" />
<rect x="850" y="42" width="47" height="5" style="fill:#5d3c2d;stroke:black;stroke-width:1;fill-opacity:1;stroke-opacity:0.3" />
<line x1="842" y1="72" x2="845" y2="74" stroke="black" stroke-width="1" />
<line x1="845" y1="74" x2="849" y2="72" stroke="black" stroke-width="1" />
<rect x="794" y="70" width="47" height="5" style="fill:#5d3c2d;stroke:black;stroke-width:1;fill-opacity:1;stroke-opacity:0.3" />
<rect x="849" y="70" width="47" height="5" style="fill:#5d3c2d;stroke:black;stroke-width:1;fill-opacity:1;stroke-opacity:0.3" />
<line x1="855" y1="79" x2="876" y2="81" stroke="black" stroke-width="1" />
<line x1="876" y1="81" x2="898" y2="79" stroke="black" stroke-width="1" />
<rect x="807" y="77" width="47" height="5" style="fill:#5d3c2d;stroke:black;stroke-width:1;fill-opacity:1;stroke-opacity:0.3" />
<rect x="898" y="77" width="47" height="5" style="fill:#5d3c2d;stroke:black;stroke-width:1;fill-opacity:1;stroke-opacity:0.3" />
<line x1="858" y1="30" x2="866" y2="32" stroke="black" stroke-width="1" />
<line x1="866" y1="32" x2="874" y2="30" stroke="black" stroke-width="1" />
<rect x="810" y="28" width="47" height="5" style="fill:#5d3c2d;stroke:black;stroke-width:1;fill-opacity:1;stroke-opacity:0.3" />
<rect x="874" y="28" width="47" height="5" style="fill:#5d3c2d;stroke:black;stroke-width:1;fill-opacity:1;stroke-opacity:0.3" />
<line x1="866" y1="86" x2="877" y2="88" stroke="black" stroke-width="1" />
<line x1="877" y1="88" x2="888" y2="86" stroke="black" stroke-width="1" />
<rect x="818" y="84" width="47" height="5" style="fill:#5d3c2d;stroke:black;stroke-width:1;fill-opacity:1;stroke-opacity:0.3" />
<rect x="888" y="84" width="47" height="5" style="fill:#5d3c2d;stroke:black;stroke-width:1;fill-opacity:1;stroke-opacity:0.3" />
<line x1="880" y1="114" x2="887" y2="116" stroke="black" stroke-width="1" />
<line x1="887" y1="116" x2="894" y2="114" stroke="black" stroke-width="1" />
<rect x="832" y="112" width="47" height="5" style="fill:#5d3c2d;stroke:black;stroke-width:1;fill-opacity:1;stroke-opacity:0.3" />
<rect x="894" y="112" width="47" height="5" style="fill:#5d3c2d;stroke:black;stroke-width:1;fill-opacity:1;stroke-opacity:0.3" />
<line x1="879" y1="58" x2="884" y2="60" stroke="black" stroke-width="1" />
<line x1="884" y1="60" x2="890" y2="58" stroke="black" stroke-width="1" />
<rect x="833" y="56" width="46" height="5" style="fill:#f5b024;stroke:black;stroke-width:1;fill-opacity:1;stroke-opacity:0.3" />
<rect x="890" y="56" width="47" height="5" style="fill:#f5b024;stroke:black;stroke-width:1;fill-opacity:1;stroke-opacity:0.3" />
<line x1="881" y1="100" x2="886" y2="102" stroke="black" stroke-width="1" />
<line x1="886" y1="102" x2="892" y2="100" stroke="black" stroke-width="1" />
<rect x="833" y="98" width="47" height="5" style="fill:#5d3c2d;stroke:black;stroke-width:1;fill-opacity:1;stroke-opacity:0.3" />
<rect x="892" y="98" width="47" height="5" style="fill:#5d3c2d;stroke:black;stroke-width:1;fill-opacity:1;stroke-opacity:0.3" />
<line x1="911" y1="51" x2="914" y2="53" stroke="black" stroke-width="1" />
<line x1="914" y1="53" x2="917" y2="51" stroke="black" stroke-width="1" />
<rect x="863" y="49" width="47" height="5" style="fill:#5d3c2d;stroke:black;stroke-width:1;fill-opacity:1;stroke-opacity:0.3" />
<rect x="917" y="49" width="47" height="5" style="fill:#5d3c2d;stroke:black;stroke-width:1;fill-opacity:1;stroke-opacity:0.3" />
<line x1="911" y1="128" x2="916" y2="130" stroke="black" stroke-width="1" />
<line x1="916" y1="130" x2="922" y2="128" stroke="black" stroke-width="1" />
<rect x="863" y="126" width="47" height="5" style="fill:#5d3c2d;stroke:black;stroke-width:1;fill-opacity:1;stroke-opacity:0.3" />
<rect x="922" y="126" width="47" height="5" style="fill:#5d3c2d;stroke:black;stroke-width:1;fill-opacity:1;stroke-opacity:0.3" />
<line x1="916" y1="65" x2="926" y2="67" stroke="black" stroke-width="1" />
<line x1="926" y1="67" x2="936" y2="65" stroke="black" stroke-width="1" />
<rect x="868" y="63" width="47" height="5" style="fill:#5d3c2d;stroke:black;stroke-width:1;fill-opacity:1;stroke-opacity:0.3" />
<rect x="936" y="63" width="47" height="5" style="fill:#5d3c2d;stroke:black;stroke-width:1;fill-opacity:1;stroke-opacity:0.3" />
<text x="15"  y="176" style="font-family:Arial;font-size:10;stroke:black;fill:black;">all.merged.bam</text>
</svg>
    
