<?xml version="1.0" encoding="utf-8" standalone="no"?>
<!DOCTYPE svg PUBLIC "-//W3C//DTD SVG 1.1//EN"
  "http://www.w3.org/Graphics/SVG/1.1/DTD/svg11.dtd">
<svg height="1140" width="1000" version="1.1" viewBox="0 0 1000 1140" xmlns="http://www.w3.org/2000/svg" xmlns:xlink="http://www.w3.org/1999/xlink">
<line x1="8" y1="11" x2="991" y2="11" stroke="black" stroke-width="1" />
<rect x="8" y="9" width="93" height="5" style="fill:#f50002;stroke:black;stroke-width:1;fill-opacity:1;stroke-opacity:0.3" />
<rect x="102" y="9" width="49" height="5" style="fill:#53a1b5;stroke:black;stroke-width:1;fill-opacity:1;stroke-opacity:0.3" />
<rect x="167" y="9" width="20" height="5" style="fill:#53a1b5;stroke:black;stroke-width:1;fill-opacity:1;stroke-opacity:0.3" />
<rect x="202" y="9" width="11" height="5" style="fill:#53a1b5;stroke:black;stroke-width:1;fill-opacity:1;stroke-opacity:0.3" />
<rect x="227" y="9" width="3" height="5" style="fill:#53a1b5;stroke:black;stroke-width:1;fill-opacity:1;stroke-opacity:0.3" />
<rect x="254" y="9" width="16" height="5" style="fill:#53a1b5;stroke:black;stroke-width:1;fill-opacity:1;stroke-opacity:0.3" />
<rect x="286" y="9" width="51" height="5" style="fill:#53a1b5;stroke:black;stroke-width:1;fill-opacity:1;stroke-opacity:0.3" />
<rect x="363" y="9" width="7" height="5" style="fill:#53a1b5;stroke:black;stroke-width:1;fill-opacity:1;stroke-opacity:0.3" />
<rect x="384" y="9" width="9" height="5" style="fill:#53a1b5;stroke:black;stroke-width:1;fill-opacity:1;stroke-opacity:0.3" />
<rect x="404" y="9" width="9" height="5" style="fill:#53a1b5;stroke:black;stroke-width:1;fill-opacity:1;stroke-opacity:0.3" />
<rect x="427" y="9" width="10" height="5" style="fill:#53a1b5;stroke:black;stroke-width:1;fill-opacity:1;stroke-opacity:0.3" />
<rect x="446" y="9" width="9" height="5" style="fill:#53a1b5;stroke:black;stroke-width:1;fill-opacity:1;stroke-opacity:0.3" />
<rect x="467" y="9" width="12" height="5" style="fill:#53a1b5;stroke:black;stroke-width:1;fill-opacity:1;stroke-opacity:0.3" />
<rect x="494" y="9" width="17" height="5" style="fill:#53a1b5;stroke:black;stroke-width:1;fill-opacity:1;stroke-opacity:0.3" />
<rect x="527" y="9" width="9" height="5" style="fill:#53a1b5;stroke:black;stroke-width:1;fill-opacity:1;stroke-opacity:0.3" />
<rect x="553" y="9" width="41" height="5" style="fill:#53a1b5;stroke:black;stroke-width:1;fill-opacity:1;stroke-opacity:0.3" />
<rect x="617" y="9" width="24" height="5" style="fill:#53a1b5;stroke:black;stroke-width:1;fill-opacity:1;stroke-opacity:0.3" />
<rect x="659" y="9" width="17" height="5" style="fill:#53a1b5;stroke:black;stroke-width:1;fill-opacity:1;stroke-opacity:0.3" />
<rect x="694" y="9" width="10" height="5" style="fill:#53a1b5;stroke:black;stroke-width:1;fill-opacity:1;stroke-opacity:0.3" />
<rect x="717" y="9" width="3" height="5" style="fill:#53a1b5;stroke:black;stroke-width:1;fill-opacity:1;stroke-opacity:0.3" />
<rect x="732" y="9" width="8" height="5" style="fill:#53a1b5;stroke:black;stroke-width:1;fill-opacity:1;stroke-opacity:0.3" />
<rect x="757" y="9" width="5" height="5" style="fill:#53a1b5;stroke:black;stroke-width:1;fill-opacity:1;stroke-opacity:0.3" />
<rect x="775" y="9" width="9" height="5" style="fill:#53a1b5;stroke:black;stroke-width:1;fill-opacity:1;stroke-opacity:0.3" />
<rect x="798" y="9" width="13" height="5" style="fill:#53a1b5;stroke:black;stroke-width:1;fill-opacity:1;stroke-opacity:0.3" />
<rect x="827" y="9" width="12" height="5" style="fill:#53a1b5;stroke:black;stroke-width:1;fill-opacity:1;stroke-opacity:0.3" />
<rect x="863" y="9" width="20" height="5" style="fill:#53a1b5;stroke:black;stroke-width:1;fill-opacity:1;stroke-opacity:0.3" />
<rect x="902" y="9" width="6" height="5" style="fill:#53a1b5;stroke:black;stroke-width:1;fill-opacity:1;stroke-opacity:0.3" />
<rect x="922" y="9" width="5" height="5" style="fill:#53a1b5;stroke:black;stroke-width:1;fill-opacity:1;stroke-opacity:0.3" />
<rect x="936" y="9" width="13" height="5" style="fill:#53a1b5;stroke:black;stroke-width:1;fill-opacity:1;stroke-opacity:0.3" />
<rect x="974" y="9" width="11" height="5" style="fill:#53a1b5;stroke:black;stroke-width:1;fill-opacity:1;stroke-opacity:0.3" />
<rect x="987" y="9" width="4" height="5" style="fill:#f50002;stroke:black;stroke-width:1;fill-opacity:1;stroke-opacity:0.3" />
<text x="8"  y="23" style="font-family:Arial;font-size:10;stroke:black;fill:black;">Cre12.g516300.t1.1.v5.5 (-) chromosome_12:3932478-3943703</text>
<line x1="18" y1="30" x2="18" y2="32" stroke="black" stroke-width="1" />
<line x1="18" y1="32" x2="19" y2="30" stroke="black" stroke-width="1" />
<rect x="9" y="28" width="8" height="5" style="fill:#f5b024;stroke:black;stroke-width:1;fill-opacity:1;stroke-opacity:0.3" />
<rect x="19" y="28" width="8" height="5" style="fill:#f5b024;stroke:black;stroke-width:1;fill-opacity:1;stroke-opacity:0.3" />
<line x1="20" y1="37" x2="21" y2="39" stroke="black" stroke-width="1" />
<line x1="21" y1="39" x2="23" y2="37" stroke="black" stroke-width="1" />
<rect x="11" y="35" width="8" height="5" style="fill:#f5b024;stroke:black;stroke-width:1;fill-opacity:1;stroke-opacity:0.3" />
<rect x="23" y="35" width="8" height="5" style="fill:#f5b024;stroke:black;stroke-width:1;fill-opacity:1;stroke-opacity:0.3" />
<line x1="20" y1="44" x2="21" y2="46" stroke="black" stroke-width="1" />
<line x1="21" y1="46" x2="23" y2="44" stroke="black" stroke-width="1" />
<rect x="11" y="42" width="8" height="5" style="fill:#f5b024;stroke:black;stroke-width:1;fill-opacity:1;stroke-opacity:0.3" />
<rect x="23" y="42" width="8" height="5" style="fill:#f5b024;stroke:black;stroke-width:1;fill-opacity:1;stroke-opacity:0.3" />
<line x1="22" y1="51" x2="24" y2="53" stroke="black" stroke-width="1" />
<line x1="24" y1="53" x2="26" y2="51" stroke="black" stroke-width="1" />
<rect x="13" y="49" width="8" height="5" style="fill:#f5b024;stroke:black;stroke-width:1;fill-opacity:1;stroke-opacity:0.3" />
<rect x="26" y="49" width="8" height="5" style="fill:#f5b024;stroke:black;stroke-width:1;fill-opacity:1;stroke-opacity:0.3" />
<line x1="22" y1="58" x2="24" y2="60" stroke="black" stroke-width="1" />
<line x1="24" y1="60" x2="26" y2="58" stroke="black" stroke-width="1" />
<rect x="13" y="56" width="8" height="5" style="fill:#f5b024;stroke:black;stroke-width:1;fill-opacity:1;stroke-opacity:0.3" />
<rect x="26" y="56" width="8" height="5" style="fill:#f5b024;stroke:black;stroke-width:1;fill-opacity:1;stroke-opacity:0.3" />
<line x1="23" y1="65" x2="27" y2="67" stroke="black" stroke-width="1" />
<line x1="27" y1="67" x2="32" y2="65" stroke="black" stroke-width="1" />
<rect x="14" y="63" width="8" height="5" style="fill:#5d3c2d;stroke:black;stroke-width:1;fill-opacity:1;stroke-opacity:0.3" />
<rect x="32" y="63" width="8" height="5" style="fill:#5d3c2d;stroke:black;stroke-width:1;fill-opacity:1;stroke-opacity:0.3" />
<line x1="25" y1="72" x2="26" y2="74" stroke="black" stroke-width="1" />
<line x1="26" y1="74" x2="28" y2="72" stroke="black" stroke-width="1" />
<rect x="16" y="70" width="8" height="5" style="fill:#f5b024;stroke:black;stroke-width:1;fill-opacity:1;stroke-opacity:0.3" />
<rect x="28" y="70" width="8" height="5" style="fill:#f5b024;stroke:black;stroke-width:1;fill-opacity:1;stroke-opacity:0.3" />
<line x1="29" y1="79" x2="30" y2="81" stroke="black" stroke-width="1" />
<line x1="30" y1="81" x2="31" y2="79" stroke="black" stroke-width="1" />
<rect x="20" y="77" width="8" height="5" style="fill:#5d3c2d;stroke:black;stroke-width:1;fill-opacity:1;stroke-opacity:0.3" />
<rect x="31" y="77" width="8" height="5" style="fill:#5d3c2d;stroke:black;stroke-width:1;fill-opacity:1;stroke-opacity:0.3" />
<line x1="33" y1="86" x2="36" y2="88" stroke="black" stroke-width="1" />
<line x1="36" y1="88" x2="39" y2="86" stroke="black" stroke-width="1" />
<rect x="25" y="84" width="7" height="5" style="fill:#f5b024;stroke:black;stroke-width:1;fill-opacity:1;stroke-opacity:0.3" />
<rect x="39" y="84" width="8" height="5" style="fill:#f5b024;stroke:black;stroke-width:1;fill-opacity:1;stroke-opacity:0.3" />
<line x1="35" y1="93" x2="36" y2="95" stroke="black" stroke-width="1" />
<line x1="36" y1="95" x2="37" y2="93" stroke="black" stroke-width="1" />
<rect x="27" y="91" width="8" height="5" style="fill:#f5b024;stroke:black;stroke-width:1;fill-opacity:1;stroke-opacity:0.3" />
<rect x="37" y="91" width="8" height="5" style="fill:#f5b024;stroke:black;stroke-width:1;fill-opacity:1;stroke-opacity:0.3" />
<line x1="58" y1="30" x2="59" y2="32" stroke="black" stroke-width="1" />
<line x1="59" y1="32" x2="60" y2="30" stroke="black" stroke-width="1" />
<rect x="49" y="28" width="8" height="5" style="fill:#f5b024;stroke:black;stroke-width:1;fill-opacity:1;stroke-opacity:0.3" />
<rect x="60" y="28" width="8" height="5" style="fill:#f5b024;stroke:black;stroke-width:1;fill-opacity:1;stroke-opacity:0.3" />
<line x1="58" y1="37" x2="59" y2="39" stroke="black" stroke-width="1" />
<line x1="59" y1="39" x2="61" y2="37" stroke="black" stroke-width="1" />
<rect x="50" y="35" width="8" height="5" style="fill:#5d3c2d;stroke:black;stroke-width:1;fill-opacity:1;stroke-opacity:0.3" />
<rect x="61" y="35" width="8" height="5" style="fill:#5d3c2d;stroke:black;stroke-width:1;fill-opacity:1;stroke-opacity:0.3" />
<line x1="72" y1="44" x2="72" y2="46" stroke="black" stroke-width="1" />
<line x1="72" y1="46" x2="73" y2="44" stroke="black" stroke-width="1" />
<rect x="64" y="42" width="8" height="5" style="fill:#f5b024;stroke:black;stroke-width:1;fill-opacity:1;stroke-opacity:0.3" />
<rect x="73" y="42" width="8" height="5" style="fill:#f5b024;stroke:black;stroke-width:1;fill-opacity:1;stroke-opacity:0.3" />
<line x1="77" y1="51" x2="79" y2="53" stroke="black" stroke-width="1" />
<line x1="79" y1="53" x2="82" y2="51" stroke="black" stroke-width="1" />
<rect x="68" y="49" width="8" height="5" style="fill:#f5b024;stroke:black;stroke-width:1;fill-opacity:1;stroke-opacity:0.3" />
<rect x="82" y="49" width="8" height="5" style="fill:#f5b024;stroke:black;stroke-width:1;fill-opacity:1;stroke-opacity:0.3" />
<line x1="85" y1="30" x2="86" y2="32" stroke="black" stroke-width="1" />
<line x1="86" y1="32" x2="87" y2="30" stroke="black" stroke-width="1" />
<rect x="76" y="28" width="8" height="5" style="fill:#f5b024;stroke:black;stroke-width:1;fill-opacity:1;stroke-opacity:0.3" />
<rect x="87" y="28" width="8" height="5" style="fill:#f5b024;stroke:black;stroke-width:1;fill-opacity:1;stroke-opacity:0.3" />
<line x1="84" y1="37" x2="85" y2="39" stroke="black" stroke-width="1" />
<line x1="85" y1="39" x2="87" y2="37" stroke="black" stroke-width="1" />
<rect x="77" y="35" width="7" height="5" style="fill:#f5b024;stroke:black;stroke-width:1;fill-opacity:1;stroke-opacity:0.3" />
<rect x="87" y="35" width="8" height="5" style="fill:#f5b024;stroke:black;stroke-width:1;fill-opacity:1;stroke-opacity:0.3" />
<line x1="97" y1="44" x2="116" y2="46" stroke="black" stroke-width="1" />
<line x1="116" y1="46" x2="136" y2="44" stroke="black" stroke-width="1" />
<rect x="89" y="42" width="8" height="5" style="fill:#f5b024;stroke:black;stroke-width:1;fill-opacity:1;stroke-opacity:0.3" />
<rect x="136" y="42" width="8" height="5" style="fill:#f5b024;stroke:black;stroke-width:1;fill-opacity:1;stroke-opacity:0.3" />
<line x1="112" y1="30" x2="117" y2="32" stroke="black" stroke-width="1" />
<line x1="117" y1="32" x2="122" y2="30" stroke="black" stroke-width="1" />
<rect x="104" y="28" width="8" height="5" style="fill:#f5b024;stroke:black;stroke-width:1;fill-opacity:1;stroke-opacity:0.3" />
<rect x="122" y="28" width="8" height="5" style="fill:#f5b024;stroke:black;stroke-width:1;fill-opacity:1;stroke-opacity:0.3" />
<line x1="116" y1="37" x2="119" y2="39" stroke="black" stroke-width="1" />
<line x1="119" y1="39" x2="122" y2="37" stroke="black" stroke-width="1" />
<rect x="107" y="35" width="8" height="5" style="fill:#f5b024;stroke:black;stroke-width:1;fill-opacity:1;stroke-opacity:0.3" />
<rect x="122" y="35" width="8" height="5" style="fill:#f5b024;stroke:black;stroke-width:1;fill-opacity:1;stroke-opacity:0.3" />
<line x1="119" y1="51" x2="120" y2="53" stroke="black" stroke-width="1" />
<line x1="120" y1="53" x2="121" y2="51" stroke="black" stroke-width="1" />
<rect x="111" y="49" width="8" height="5" style="fill:#f5b024;stroke:black;stroke-width:1;fill-opacity:1;stroke-opacity:0.3" />
<rect x="121" y="49" width="8" height="5" style="fill:#f5b024;stroke:black;stroke-width:1;fill-opacity:1;stroke-opacity:0.3" />
<line x1="129" y1="58" x2="130" y2="60" stroke="black" stroke-width="1" />
<line x1="130" y1="60" x2="131" y2="58" stroke="black" stroke-width="1" />
<rect x="121" y="56" width="8" height="5" style="fill:#f5b024;stroke:black;stroke-width:1;fill-opacity:1;stroke-opacity:0.3" />
<rect x="131" y="56" width="8" height="5" style="fill:#f5b024;stroke:black;stroke-width:1;fill-opacity:1;stroke-opacity:0.3" />
<line x1="130" y1="65" x2="133" y2="67" stroke="black" stroke-width="1" />
<line x1="133" y1="67" x2="136" y2="65" stroke="black" stroke-width="1" />
<rect x="121" y="63" width="8" height="5" style="fill:#f5b024;stroke:black;stroke-width:1;fill-opacity:1;stroke-opacity:0.3" />
<rect x="136" y="63" width="8" height="5" style="fill:#f5b024;stroke:black;stroke-width:1;fill-opacity:1;stroke-opacity:0.3" />
<line x1="134" y1="72" x2="137" y2="74" stroke="black" stroke-width="1" />
<line x1="137" y1="74" x2="141" y2="72" stroke="black" stroke-width="1" />
<rect x="125" y="70" width="8" height="5" style="fill:#f5b024;stroke:black;stroke-width:1;fill-opacity:1;stroke-opacity:0.3" />
<rect x="141" y="70" width="8" height="5" style="fill:#f5b024;stroke:black;stroke-width:1;fill-opacity:1;stroke-opacity:0.3" />
<line x1="142" y1="30" x2="144" y2="32" stroke="black" stroke-width="1" />
<line x1="144" y1="32" x2="147" y2="30" stroke="black" stroke-width="1" />
<rect x="134" y="28" width="8" height="5" style="fill:#f5b024;stroke:black;stroke-width:1;fill-opacity:1;stroke-opacity:0.3" />
<rect x="147" y="28" width="3" height="5" style="fill:#f5b024;stroke:black;stroke-width:1;fill-opacity:1;stroke-opacity:0.3" />
<line x1="151" y1="30" x2="167" y2="30" stroke="pink" stroke-width="1" />
<rect x="167" y="28" width="4" height="5" style="fill:#f5b024;stroke:black;stroke-width:1;fill-opacity:1;stroke-opacity:0.3" />
<line x1="171" y1="37" x2="173" y2="39" stroke="black" stroke-width="1" />
<line x1="173" y1="39" x2="175" y2="37" stroke="black" stroke-width="1" />
<rect x="146" y="35" width="5" height="5" style="fill:#f5b024;stroke:black;stroke-width:1;fill-opacity:1;stroke-opacity:0.3" />
<line x1="151" y1="37" x2="167" y2="37" stroke="pink" stroke-width="1" />
<rect x="167" y="35" width="3" height="5" style="fill:#f5b024;stroke:black;stroke-width:1;fill-opacity:1;stroke-opacity:0.3" />
<rect x="175" y="35" width="8" height="5" style="fill:#f5b024;stroke:black;stroke-width:1;fill-opacity:1;stroke-opacity:0.3" />
<line x1="176" y1="44" x2="177" y2="46" stroke="black" stroke-width="1" />
<line x1="177" y1="46" x2="179" y2="44" stroke="black" stroke-width="1" />
<rect x="147" y="42" width="3" height="5" style="fill:#f5b024;stroke:black;stroke-width:1;fill-opacity:1;stroke-opacity:0.3" />
<line x1="151" y1="44" x2="167" y2="44" stroke="pink" stroke-width="1" />
<rect x="167" y="42" width="9" height="5" style="fill:#f5b024;stroke:black;stroke-width:1;fill-opacity:1;stroke-opacity:0.3" />
<rect x="179" y="42" width="8" height="5" style="fill:#f5b024;stroke:black;stroke-width:1;fill-opacity:1;stroke-opacity:0.3" />
<line x1="187" y1="44" x2="202" y2="44" stroke="pink" stroke-width="1" />
<rect x="202" y="42" width="4" height="5" style="fill:#f5b024;stroke:black;stroke-width:1;fill-opacity:1;stroke-opacity:0.3" />
<line x1="187" y1="30" x2="190" y2="32" stroke="black" stroke-width="1" />
<line x1="190" y1="32" x2="193" y2="30" stroke="black" stroke-width="1" />
<rect x="178" y="28" width="8" height="5" style="fill:#f5b024;stroke:black;stroke-width:1;fill-opacity:1;stroke-opacity:0.3" />
<rect x="193" y="28" width="8" height="5" style="fill:#f5b024;stroke:black;stroke-width:1;fill-opacity:1;stroke-opacity:0.3" />
<line x1="187" y1="51" x2="194" y2="53" stroke="black" stroke-width="1" />
<line x1="194" y1="53" x2="202" y2="51" stroke="black" stroke-width="1" />
<rect x="179" y="49" width="8" height="5" style="fill:#f5b024;stroke:black;stroke-width:1;fill-opacity:1;stroke-opacity:0.3" />
<rect x="202" y="49" width="8" height="5" style="fill:#f5b024;stroke:black;stroke-width:1;fill-opacity:1;stroke-opacity:0.3" />
<line x1="187" y1="58" x2="194" y2="60" stroke="black" stroke-width="1" />
<line x1="194" y1="60" x2="202" y2="58" stroke="black" stroke-width="1" />
<rect x="179" y="56" width="8" height="5" style="fill:#f5b024;stroke:black;stroke-width:1;fill-opacity:1;stroke-opacity:0.3" />
<rect x="202" y="56" width="8" height="5" style="fill:#f5b024;stroke:black;stroke-width:1;fill-opacity:1;stroke-opacity:0.3" />
<line x1="207" y1="65" x2="208" y2="67" stroke="black" stroke-width="1" />
<line x1="208" y1="67" x2="210" y2="65" stroke="black" stroke-width="1" />
<rect x="179" y="63" width="8" height="5" style="fill:#f5b024;stroke:black;stroke-width:1;fill-opacity:1;stroke-opacity:0.3" />
<line x1="187" y1="65" x2="202" y2="65" stroke="pink" stroke-width="1" />
<rect x="202" y="63" width="4" height="5" style="fill:#f5b024;stroke:black;stroke-width:1;fill-opacity:1;stroke-opacity:0.3" />
<rect x="210" y="63" width="3" height="5" style="fill:#f5b024;stroke:black;stroke-width:1;fill-opacity:1;stroke-opacity:0.3" />
<line x1="214" y1="65" x2="227" y2="65" stroke="pink" stroke-width="1" />
<rect x="227" y="63" width="3" height="5" style="fill:#f5b024;stroke:black;stroke-width:1;fill-opacity:1;stroke-opacity:0.3" />
<line x1="231" y1="65" x2="254" y2="65" stroke="pink" stroke-width="1" />
<rect x="254" y="63" width="5" height="5" style="fill:#f5b024;stroke:black;stroke-width:1;fill-opacity:1;stroke-opacity:0.3" />
<line x1="265" y1="30" x2="266" y2="32" stroke="black" stroke-width="1" />
<line x1="266" y1="32" x2="267" y2="30" stroke="black" stroke-width="1" />
<rect x="229" y="28" width="2" height="5" style="fill:#f5b024;stroke:black;stroke-width:1;fill-opacity:1;stroke-opacity:0.3" />
<line x1="231" y1="30" x2="254" y2="30" stroke="pink" stroke-width="1" />
<rect x="254" y="28" width="10" height="5" style="fill:#f5b024;stroke:black;stroke-width:1;fill-opacity:1;stroke-opacity:0.3" />
<rect x="267" y="28" width="3" height="5" style="fill:#f5b024;stroke:black;stroke-width:1;fill-opacity:1;stroke-opacity:0.3" />
<line x1="271" y1="30" x2="286" y2="30" stroke="pink" stroke-width="1" />
<rect x="286" y="28" width="9" height="5" style="fill:#f5b024;stroke:black;stroke-width:1;fill-opacity:1;stroke-opacity:0.3" />
<line x1="266" y1="37" x2="267" y2="39" stroke="black" stroke-width="1" />
<line x1="267" y1="39" x2="269" y2="37" stroke="black" stroke-width="1" />
<rect x="257" y="35" width="8" height="5" style="fill:#f5b024;stroke:black;stroke-width:1;fill-opacity:1;stroke-opacity:0.3" />
<rect x="269" y="35" width="1" height="5" style="fill:#f5b024;stroke:black;stroke-width:1;fill-opacity:1;stroke-opacity:0.3" />
<line x1="271" y1="37" x2="286" y2="37" stroke="pink" stroke-width="1" />
<rect x="286" y="35" width="7" height="5" style="fill:#f5b024;stroke:black;stroke-width:1;fill-opacity:1;stroke-opacity:0.3" />
<line x1="289" y1="44" x2="290" y2="46" stroke="black" stroke-width="1" />
<line x1="290" y1="46" x2="292" y2="44" stroke="black" stroke-width="1" />
<rect x="261" y="42" width="9" height="5" style="fill:#f5b024;stroke:black;stroke-width:1;fill-opacity:1;stroke-opacity:0.3" />
<line x1="271" y1="44" x2="286" y2="44" stroke="pink" stroke-width="1" />
<rect x="286" y="42" width="3" height="5" style="fill:#f5b024;stroke:black;stroke-width:1;fill-opacity:1;stroke-opacity:0.3" />
<rect x="292" y="42" width="12" height="5" style="fill:#f5b024;stroke:black;stroke-width:1;fill-opacity:1;stroke-opacity:0.3" />
<line x1="290" y1="51" x2="291" y2="53" stroke="black" stroke-width="1" />
<line x1="291" y1="53" x2="292" y2="51" stroke="black" stroke-width="1" />
<rect x="267" y="49" width="4" height="5" style="fill:#f5b024;stroke:black;stroke-width:1;fill-opacity:1;stroke-opacity:0.3" />
<line x1="271" y1="51" x2="286" y2="51" stroke="pink" stroke-width="1" />
<rect x="286" y="49" width="4" height="5" style="fill:#f5b024;stroke:black;stroke-width:1;fill-opacity:1;stroke-opacity:0.3" />
<rect x="292" y="49" width="8" height="5" style="fill:#f5b024;stroke:black;stroke-width:1;fill-opacity:1;stroke-opacity:0.3" />
<line x1="295" y1="58" x2="296" y2="60" stroke="black" stroke-width="1" />
<line x1="296" y1="60" x2="298" y2="58" stroke="black" stroke-width="1" />
<rect x="286" y="56" width="8" height="5" style="fill:#f5b024;stroke:black;stroke-width:1;fill-opacity:1;stroke-opacity:0.3" />
<rect x="298" y="56" width="8" height="5" style="fill:#f5b024;stroke:black;stroke-width:1;fill-opacity:1;stroke-opacity:0.3" />
<line x1="300" y1="65" x2="301" y2="67" stroke="black" stroke-width="1" />
<line x1="301" y1="67" x2="302" y2="65" stroke="black" stroke-width="1" />
<rect x="291" y="63" width="8" height="5" style="fill:#f5b024;stroke:black;stroke-width:1;fill-opacity:1;stroke-opacity:0.3" />
<rect x="302" y="63" width="8" height="5" style="fill:#f5b024;stroke:black;stroke-width:1;fill-opacity:1;stroke-opacity:0.3" />
<line x1="302" y1="72" x2="303" y2="74" stroke="black" stroke-width="1" />
<line x1="303" y1="74" x2="305" y2="72" stroke="black" stroke-width="1" />
<rect x="293" y="70" width="8" height="5" style="fill:#f5b024;stroke:black;stroke-width:1;fill-opacity:1;stroke-opacity:0.3" />
<rect x="305" y="70" width="8" height="5" style="fill:#f5b024;stroke:black;stroke-width:1;fill-opacity:1;stroke-opacity:0.3" />
<line x1="317" y1="30" x2="319" y2="32" stroke="black" stroke-width="1" />
<line x1="319" y1="32" x2="322" y2="30" stroke="black" stroke-width="1" />
<rect x="308" y="28" width="8" height="5" style="fill:#5d3c2d;stroke:black;stroke-width:1;fill-opacity:1;stroke-opacity:0.3" />
<rect x="322" y="28" width="8" height="5" style="fill:#5d3c2d;stroke:black;stroke-width:1;fill-opacity:1;stroke-opacity:0.3" />
<line x1="338" y1="37" x2="351" y2="39" stroke="black" stroke-width="1" />
<line x1="351" y1="39" x2="364" y2="37" stroke="black" stroke-width="1" />
<rect x="325" y="35" width="13" height="5" style="fill:#f5b024;stroke:black;stroke-width:1;fill-opacity:1;stroke-opacity:0.3" />
<rect x="364" y="35" width="6" height="5" style="fill:#f5b024;stroke:black;stroke-width:1;fill-opacity:1;stroke-opacity:0.3" />
<line x1="370" y1="37" x2="384" y2="37" stroke="pink" stroke-width="1" />
<rect x="384" y="35" width="6" height="5" style="fill:#f5b024;stroke:black;stroke-width:1;fill-opacity:1;stroke-opacity:0.3" />
<line x1="335" y1="44" x2="349" y2="46" stroke="black" stroke-width="1" />
<line x1="349" y1="46" x2="363" y2="44" stroke="black" stroke-width="1" />
<rect x="326" y="42" width="8" height="5" style="fill:#f5b024;stroke:black;stroke-width:1;fill-opacity:1;stroke-opacity:0.3" />
<rect x="363" y="42" width="7" height="5" style="fill:#f5b024;stroke:black;stroke-width:1;fill-opacity:1;stroke-opacity:0.3" />
<line x1="370" y1="44" x2="384" y2="44" stroke="pink" stroke-width="1" />
<rect x="384" y="42" width="1" height="5" style="fill:#f5b024;stroke:black;stroke-width:1;fill-opacity:1;stroke-opacity:0.3" />
<line x1="336" y1="51" x2="349" y2="53" stroke="black" stroke-width="1" />
<line x1="349" y1="53" x2="363" y2="51" stroke="black" stroke-width="1" />
<rect x="328" y="49" width="8" height="5" style="fill:#5d3c2d;stroke:black;stroke-width:1;fill-opacity:1;stroke-opacity:0.3" />
<rect x="363" y="49" width="7" height="5" style="fill:#5d3c2d;stroke:black;stroke-width:1;fill-opacity:1;stroke-opacity:0.3" />
<line x1="370" y1="51" x2="384" y2="51" stroke="pink" stroke-width="1" />
<rect x="384" y="49" width="0" height="5" style="fill:#5d3c2d;stroke:black;stroke-width:1;fill-opacity:1;stroke-opacity:0.3" />
<line x1="385" y1="30" x2="386" y2="32" stroke="black" stroke-width="1" />
<line x1="386" y1="32" x2="388" y2="30" stroke="black" stroke-width="1" />
<rect x="363" y="28" width="7" height="5" style="fill:#f5b024;stroke:black;stroke-width:1;fill-opacity:1;stroke-opacity:0.3" />
<line x1="370" y1="30" x2="384" y2="30" stroke="pink" stroke-width="1" />
<rect x="384" y="28" width="1" height="5" style="fill:#f5b024;stroke:black;stroke-width:1;fill-opacity:1;stroke-opacity:0.3" />
<rect x="388" y="28" width="8" height="5" style="fill:#f5b024;stroke:black;stroke-width:1;fill-opacity:1;stroke-opacity:0.3" />
<line x1="413" y1="30" x2="420" y2="32" stroke="black" stroke-width="1" />
<line x1="420" y1="32" x2="428" y2="30" stroke="black" stroke-width="1" />
<rect x="405" y="28" width="8" height="5" style="fill:#f5b024;stroke:black;stroke-width:1;fill-opacity:1;stroke-opacity:0.3" />
<rect x="428" y="28" width="8" height="5" style="fill:#f5b024;stroke:black;stroke-width:1;fill-opacity:1;stroke-opacity:0.3" />
<line x1="431" y1="37" x2="433" y2="39" stroke="black" stroke-width="1" />
<line x1="433" y1="39" x2="435" y2="37" stroke="black" stroke-width="1" />
<rect x="409" y="35" width="4" height="5" style="fill:#f5b024;stroke:black;stroke-width:1;fill-opacity:1;stroke-opacity:0.3" />
<line x1="414" y1="37" x2="427" y2="37" stroke="pink" stroke-width="1" />
<rect x="427" y="35" width="4" height="5" style="fill:#f5b024;stroke:black;stroke-width:1;fill-opacity:1;stroke-opacity:0.3" />
<rect x="435" y="35" width="2" height="5" style="fill:#f5b024;stroke:black;stroke-width:1;fill-opacity:1;stroke-opacity:0.3" />
<line x1="437" y1="37" x2="446" y2="37" stroke="pink" stroke-width="1" />
<rect x="446" y="35" width="6" height="5" style="fill:#f5b024;stroke:black;stroke-width:1;fill-opacity:1;stroke-opacity:0.3" />
<line x1="437" y1="44" x2="441" y2="46" stroke="black" stroke-width="1" />
<line x1="441" y1="46" x2="446" y2="44" stroke="black" stroke-width="1" />
<rect x="411" y="42" width="2" height="5" style="fill:#f5b024;stroke:black;stroke-width:1;fill-opacity:1;stroke-opacity:0.3" />
<line x1="414" y1="44" x2="427" y2="44" stroke="pink" stroke-width="1" />
<rect x="427" y="42" width="10" height="5" style="fill:#f5b024;stroke:black;stroke-width:1;fill-opacity:1;stroke-opacity:0.3" />
<rect x="446" y="42" width="10" height="5" style="fill:#f5b024;stroke:black;stroke-width:1;fill-opacity:1;stroke-opacity:0.3" />
<line x1="456" y1="44" x2="467" y2="44" stroke="pink" stroke-width="1" />
<rect x="467" y="42" width="2" height="5" style="fill:#f5b024;stroke:black;stroke-width:1;fill-opacity:1;stroke-opacity:0.3" />
<line x1="450" y1="51" x2="451" y2="53" stroke="black" stroke-width="1" />
<line x1="451" y1="53" x2="453" y2="51" stroke="black" stroke-width="1" />
<rect x="428" y="49" width="9" height="5" style="fill:#f5b024;stroke:black;stroke-width:1;fill-opacity:1;stroke-opacity:0.3" />
<line x1="437" y1="51" x2="446" y2="51" stroke="pink" stroke-width="1" />
<rect x="446" y="49" width="3" height="5" style="fill:#f5b024;stroke:black;stroke-width:1;fill-opacity:1;stroke-opacity:0.3" />
<rect x="453" y="49" width="2" height="5" style="fill:#f5b024;stroke:black;stroke-width:1;fill-opacity:1;stroke-opacity:0.3" />
<line x1="456" y1="51" x2="467" y2="51" stroke="pink" stroke-width="1" />
<rect x="467" y="49" width="10" height="5" style="fill:#f5b024;stroke:black;stroke-width:1;fill-opacity:1;stroke-opacity:0.3" />
<line x1="468" y1="30" x2="469" y2="32" stroke="black" stroke-width="1" />
<line x1="469" y1="32" x2="470" y2="30" stroke="black" stroke-width="1" />
<rect x="448" y="28" width="7" height="5" style="fill:#f5b024;stroke:black;stroke-width:1;fill-opacity:1;stroke-opacity:0.3" />
<line x1="456" y1="30" x2="467" y2="30" stroke="pink" stroke-width="1" />
<rect x="467" y="28" width="0" height="5" style="fill:#f5b024;stroke:black;stroke-width:1;fill-opacity:1;stroke-opacity:0.3" />
<rect x="470" y="28" width="8" height="5" style="fill:#f5b024;stroke:black;stroke-width:1;fill-opacity:1;stroke-opacity:0.3" />
<line x1="469" y1="58" x2="470" y2="60" stroke="black" stroke-width="1" />
<line x1="470" y1="60" x2="471" y2="58" stroke="black" stroke-width="1" />
<rect x="450" y="56" width="6" height="5" style="fill:#f5b024;stroke:black;stroke-width:1;fill-opacity:1;stroke-opacity:0.3" />
<line x1="456" y1="58" x2="467" y2="58" stroke="pink" stroke-width="1" />
<rect x="467" y="56" width="2" height="5" style="fill:#f5b024;stroke:black;stroke-width:1;fill-opacity:1;stroke-opacity:0.3" />
<rect x="471" y="56" width="8" height="5" style="fill:#f5b024;stroke:black;stroke-width:1;fill-opacity:1;stroke-opacity:0.3" />
<line x1="472" y1="65" x2="474" y2="67" stroke="black" stroke-width="1" />
<line x1="474" y1="67" x2="476" y2="65" stroke="black" stroke-width="1" />
<rect x="452" y="63" width="3" height="5" style="fill:#f5b024;stroke:black;stroke-width:1;fill-opacity:1;stroke-opacity:0.3" />
<line x1="456" y1="65" x2="467" y2="65" stroke="pink" stroke-width="1" />
<rect x="467" y="63" width="4" height="5" style="fill:#f5b024;stroke:black;stroke-width:1;fill-opacity:1;stroke-opacity:0.3" />
<rect x="476" y="63" width="3" height="5" style="fill:#f5b024;stroke:black;stroke-width:1;fill-opacity:1;stroke-opacity:0.3" />
<line x1="480" y1="65" x2="494" y2="65" stroke="pink" stroke-width="1" />
<rect x="494" y="63" width="4" height="5" style="fill:#f5b024;stroke:black;stroke-width:1;fill-opacity:1;stroke-opacity:0.3" />
<line x1="503" y1="30" x2="504" y2="32" stroke="black" stroke-width="1" />
<line x1="504" y1="32" x2="505" y2="30" stroke="black" stroke-width="1" />
<rect x="494" y="28" width="8" height="5" style="fill:#f5b024;stroke:black;stroke-width:1;fill-opacity:1;stroke-opacity:0.3" />
<rect x="505" y="28" width="7" height="5" style="fill:#f5b024;stroke:black;stroke-width:1;fill-opacity:1;stroke-opacity:0.3" />
<line x1="512" y1="30" x2="527" y2="30" stroke="pink" stroke-width="1" />
<rect x="527" y="28" width="1" height="5" style="fill:#f5b024;stroke:black;stroke-width:1;fill-opacity:1;stroke-opacity:0.3" />
<line x1="580" y1="30" x2="582" y2="32" stroke="black" stroke-width="1" />
<line x1="582" y1="32" x2="585" y2="30" stroke="black" stroke-width="1" />
<rect x="571" y="28" width="8" height="5" style="fill:#f5b024;stroke:black;stroke-width:1;fill-opacity:1;stroke-opacity:0.3" />
<rect x="585" y="28" width="8" height="5" style="fill:#f5b024;stroke:black;stroke-width:1;fill-opacity:1;stroke-opacity:0.3" />
<line x1="618" y1="37" x2="619" y2="39" stroke="black" stroke-width="1" />
<line x1="619" y1="39" x2="620" y2="37" stroke="black" stroke-width="1" />
<rect x="587" y="35" width="7" height="5" style="fill:#f5b024;stroke:black;stroke-width:1;fill-opacity:1;stroke-opacity:0.3" />
<line x1="595" y1="37" x2="617" y2="37" stroke="pink" stroke-width="1" />
<rect x="617" y="35" width="1" height="5" style="fill:#f5b024;stroke:black;stroke-width:1;fill-opacity:1;stroke-opacity:0.3" />
<rect x="620" y="35" width="8" height="5" style="fill:#f5b024;stroke:black;stroke-width:1;fill-opacity:1;stroke-opacity:0.3" />
<line x1="867" y1="30" x2="867" y2="32" stroke="black" stroke-width="1" />
<line x1="867" y1="32" x2="868" y2="30" stroke="black" stroke-width="1" />
<rect x="835" y="28" width="4" height="5" style="fill:#f5b024;stroke:black;stroke-width:1;fill-opacity:1;stroke-opacity:0.3" />
<line x1="840" y1="30" x2="863" y2="30" stroke="pink" stroke-width="1" />
<rect x="863" y="28" width="4" height="5" style="fill:#f5b024;stroke:black;stroke-width:1;fill-opacity:1;stroke-opacity:0.3" />
<rect x="868" y="28" width="8" height="5" style="fill:#f5b024;stroke:black;stroke-width:1;fill-opacity:1;stroke-opacity:0.3" />
<line x1="876" y1="37" x2="876" y2="39" stroke="black" stroke-width="1" />
<line x1="876" y1="39" x2="877" y2="37" stroke="black" stroke-width="1" />
<rect x="839" y="35" width="0" height="5" style="fill:#f5b024;stroke:black;stroke-width:1;fill-opacity:1;stroke-opacity:0.3" />
<line x1="840" y1="37" x2="863" y2="37" stroke="pink" stroke-width="1" />
<rect x="863" y="35" width="12" height="5" style="fill:#f5b024;stroke:black;stroke-width:1;fill-opacity:1;stroke-opacity:0.3" />
<rect x="877" y="35" width="6" height="5" style="fill:#f5b024;stroke:black;stroke-width:1;fill-opacity:1;stroke-opacity:0.3" />
<line x1="883" y1="37" x2="902" y2="37" stroke="pink" stroke-width="1" />
<rect x="902" y="35" width="6" height="5" style="fill:#f5b024;stroke:black;stroke-width:1;fill-opacity:1;stroke-opacity:0.3" />
<line x1="909" y1="37" x2="922" y2="37" stroke="pink" stroke-width="1" />
<rect x="922" y="35" width="0" height="5" style="fill:#f5b024;stroke:black;stroke-width:1;fill-opacity:1;stroke-opacity:0.3" />
<text x="15"  y="176" style="font-family:Arial;font-size:10;stroke:black;fill:black;">all.merged.bam</text>
</svg>
    
