<?xml version="1.0" encoding="utf-8" standalone="no"?>
<!DOCTYPE svg PUBLIC "-//W3C//DTD SVG 1.1//EN"
  "http://www.w3.org/Graphics/SVG/1.1/DTD/svg11.dtd">
<svg height="1140" width="1000" version="1.1" viewBox="0 0 1000 1140" xmlns="http://www.w3.org/2000/svg" xmlns:xlink="http://www.w3.org/1999/xlink">
<line x1="67" y1="11" x2="931" y2="11" stroke="black" stroke-width="1" />
<rect x="67" y="9" width="51" height="5" style="fill:#f50002;stroke:black;stroke-width:1;fill-opacity:1;stroke-opacity:0.3" />
<rect x="120" y="9" width="58" height="5" style="fill:#53a1b5;stroke:black;stroke-width:1;fill-opacity:1;stroke-opacity:0.3" />
<rect x="555" y="9" width="66" height="5" style="fill:#53a1b5;stroke:black;stroke-width:1;fill-opacity:1;stroke-opacity:0.3" />
<rect x="622" y="9" width="308" height="5" style="fill:#f50002;stroke:black;stroke-width:1;fill-opacity:1;stroke-opacity:0.3" />
<text x="67"  y="23" style="font-family:Arial;font-size:10;stroke:black;fill:black;">Cre10.g437500.t1.2.v5.5 (+) chromosome_10:2640042-2641313</text>
<line x1="120" y1="30" x2="126" y2="32" stroke="black" stroke-width="1" />
<line x1="126" y1="32" x2="133" y2="30" stroke="black" stroke-width="1" />
<rect x="52" y="28" width="67" height="5" style="fill:#5d3c2d;stroke:black;stroke-width:1;fill-opacity:1;stroke-opacity:0.3" />
<rect x="133" y="28" width="45" height="5" style="fill:#5d3c2d;stroke:black;stroke-width:1;fill-opacity:1;stroke-opacity:0.3" />
<line x1="179" y1="30" x2="555" y2="30" stroke="pink" stroke-width="1" />
<rect x="555" y="28" width="22" height="5" style="fill:#5d3c2d;stroke:black;stroke-width:1;fill-opacity:1;stroke-opacity:0.3" />
<line x1="156" y1="37" x2="163" y2="39" stroke="black" stroke-width="1" />
<line x1="163" y1="39" x2="171" y2="37" stroke="black" stroke-width="1" />
<rect x="55" y="35" width="101" height="5" style="fill:#5d3c2d;stroke:black;stroke-width:1;fill-opacity:1;stroke-opacity:0.3" />
<rect x="171" y="35" width="7" height="5" style="fill:#5d3c2d;stroke:black;stroke-width:1;fill-opacity:1;stroke-opacity:0.3" />
<line x1="179" y1="37" x2="555" y2="37" stroke="pink" stroke-width="1" />
<rect x="555" y="35" width="93" height="5" style="fill:#5d3c2d;stroke:black;stroke-width:1;fill-opacity:1;stroke-opacity:0.3" />
<line x1="161" y1="44" x2="362" y2="46" stroke="black" stroke-width="1" />
<line x1="362" y1="46" x2="564" y2="44" stroke="black" stroke-width="1" />
<rect x="59" y="42" width="101" height="5" style="fill:#5d3c2d;stroke:black;stroke-width:1;fill-opacity:1;stroke-opacity:0.3" />
<rect x="564" y="42" width="101" height="5" style="fill:#5d3c2d;stroke:black;stroke-width:1;fill-opacity:1;stroke-opacity:0.3" />
<line x1="129" y1="51" x2="460" y2="53" stroke="black" stroke-width="1" />
<line x1="460" y1="53" x2="791" y2="51" stroke="black" stroke-width="1" />
<rect x="61" y="49" width="67" height="5" style="fill:#5d3c2d;stroke:black;stroke-width:1;fill-opacity:1;stroke-opacity:0.3" />
<rect x="791" y="49" width="67" height="5" style="fill:#5d3c2d;stroke:black;stroke-width:1;fill-opacity:1;stroke-opacity:0.3" />
<line x1="132" y1="58" x2="135" y2="60" stroke="black" stroke-width="1" />
<line x1="135" y1="60" x2="139" y2="58" stroke="black" stroke-width="1" />
<rect x="64" y="56" width="67" height="5" style="fill:#5d3c2d;stroke:black;stroke-width:1;fill-opacity:1;stroke-opacity:0.3" />
<rect x="139" y="56" width="39" height="5" style="fill:#5d3c2d;stroke:black;stroke-width:1;fill-opacity:1;stroke-opacity:0.3" />
<line x1="179" y1="58" x2="555" y2="58" stroke="pink" stroke-width="1" />
<rect x="555" y="56" width="28" height="5" style="fill:#5d3c2d;stroke:black;stroke-width:1;fill-opacity:1;stroke-opacity:0.3" />
<line x1="132" y1="65" x2="148" y2="67" stroke="black" stroke-width="1" />
<line x1="148" y1="67" x2="164" y2="65" stroke="black" stroke-width="1" />
<rect x="64" y="63" width="67" height="5" style="fill:#5d3c2d;stroke:black;stroke-width:1;fill-opacity:1;stroke-opacity:0.3" />
<rect x="164" y="63" width="14" height="5" style="fill:#5d3c2d;stroke:black;stroke-width:1;fill-opacity:1;stroke-opacity:0.3" />
<line x1="179" y1="65" x2="555" y2="65" stroke="pink" stroke-width="1" />
<rect x="555" y="63" width="52" height="5" style="fill:#5d3c2d;stroke:black;stroke-width:1;fill-opacity:1;stroke-opacity:0.3" />
<line x1="133" y1="72" x2="144" y2="74" stroke="black" stroke-width="1" />
<line x1="144" y1="74" x2="156" y2="72" stroke="black" stroke-width="1" />
<rect x="65" y="70" width="67" height="5" style="fill:#5d3c2d;stroke:black;stroke-width:1;fill-opacity:1;stroke-opacity:0.3" />
<rect x="156" y="70" width="22" height="5" style="fill:#5d3c2d;stroke:black;stroke-width:1;fill-opacity:1;stroke-opacity:0.3" />
<line x1="179" y1="72" x2="555" y2="72" stroke="pink" stroke-width="1" />
<rect x="555" y="70" width="44" height="5" style="fill:#5d3c2d;stroke:black;stroke-width:1;fill-opacity:1;stroke-opacity:0.3" />
<line x1="135" y1="79" x2="355" y2="81" stroke="black" stroke-width="1" />
<line x1="355" y1="81" x2="576" y2="79" stroke="black" stroke-width="1" />
<rect x="67" y="77" width="23" height="5" style="fill:#5d3c2d;stroke:black;stroke-width:1;fill-opacity:1;stroke-opacity:0.3" />
<rect x="90" y="77" width="44" height="5" style="fill:#5d3c2d;stroke:black;stroke-width:1;fill-opacity:1;stroke-opacity:0.3" />
<rect x="576" y="77" width="67" height="5" style="fill:#5d3c2d;stroke:black;stroke-width:1;fill-opacity:1;stroke-opacity:0.3" />
<line x1="135" y1="86" x2="355" y2="88" stroke="black" stroke-width="1" />
<line x1="355" y1="88" x2="576" y2="86" stroke="black" stroke-width="1" />
<rect x="67" y="84" width="23" height="5" style="fill:#5d3c2d;stroke:black;stroke-width:1;fill-opacity:1;stroke-opacity:0.3" />
<rect x="90" y="84" width="44" height="5" style="fill:#5d3c2d;stroke:black;stroke-width:1;fill-opacity:1;stroke-opacity:0.3" />
<rect x="576" y="84" width="67" height="5" style="fill:#5d3c2d;stroke:black;stroke-width:1;fill-opacity:1;stroke-opacity:0.3" />
<line x1="135" y1="93" x2="349" y2="95" stroke="black" stroke-width="1" />
<line x1="349" y1="95" x2="563" y2="93" stroke="black" stroke-width="1" />
<rect x="67" y="91" width="67" height="5" style="fill:#5d3c2d;stroke:black;stroke-width:1;fill-opacity:1;stroke-opacity:0.3" />
<rect x="563" y="91" width="67" height="5" style="fill:#5d3c2d;stroke:black;stroke-width:1;fill-opacity:1;stroke-opacity:0.3" />
<line x1="135" y1="100" x2="351" y2="102" stroke="black" stroke-width="1" />
<line x1="351" y1="102" x2="567" y2="100" stroke="black" stroke-width="1" />
<rect x="67" y="98" width="67" height="5" style="fill:#5d3c2d;stroke:black;stroke-width:1;fill-opacity:1;stroke-opacity:0.3" />
<rect x="567" y="98" width="67" height="5" style="fill:#5d3c2d;stroke:black;stroke-width:1;fill-opacity:1;stroke-opacity:0.3" />
<line x1="135" y1="107" x2="410" y2="109" stroke="black" stroke-width="1" />
<line x1="410" y1="109" x2="685" y2="107" stroke="black" stroke-width="1" />
<rect x="67" y="105" width="67" height="5" style="fill:#5d3c2d;stroke:black;stroke-width:1;fill-opacity:1;stroke-opacity:0.3" />
<rect x="685" y="105" width="67" height="5" style="fill:#5d3c2d;stroke:black;stroke-width:1;fill-opacity:1;stroke-opacity:0.3" />
<line x1="137" y1="114" x2="147" y2="116" stroke="black" stroke-width="1" />
<line x1="147" y1="116" x2="158" y2="114" stroke="black" stroke-width="1" />
<rect x="69" y="112" width="67" height="5" style="fill:#5d3c2d;stroke:black;stroke-width:1;fill-opacity:1;stroke-opacity:0.3" />
<rect x="158" y="112" width="21" height="5" style="fill:#5d3c2d;stroke:black;stroke-width:1;fill-opacity:1;stroke-opacity:0.3" />
<line x1="179" y1="114" x2="555" y2="114" stroke="pink" stroke-width="1" />
<rect x="555" y="112" width="46" height="5" style="fill:#5d3c2d;stroke:black;stroke-width:1;fill-opacity:1;stroke-opacity:0.3" />
<line x1="137" y1="121" x2="145" y2="123" stroke="black" stroke-width="1" />
<line x1="145" y1="123" x2="154" y2="121" stroke="black" stroke-width="1" />
<rect x="69" y="119" width="67" height="5" style="fill:#5d3c2d;stroke:black;stroke-width:1;fill-opacity:1;stroke-opacity:0.3" />
<rect x="154" y="119" width="25" height="5" style="fill:#5d3c2d;stroke:black;stroke-width:1;fill-opacity:1;stroke-opacity:0.3" />
<line x1="179" y1="121" x2="555" y2="121" stroke="pink" stroke-width="1" />
<rect x="555" y="119" width="42" height="5" style="fill:#5d3c2d;stroke:black;stroke-width:1;fill-opacity:1;stroke-opacity:0.3" />
<line x1="137" y1="128" x2="145" y2="130" stroke="black" stroke-width="1" />
<line x1="145" y1="130" x2="154" y2="128" stroke="black" stroke-width="1" />
<rect x="69" y="126" width="67" height="5" style="fill:#5d3c2d;stroke:black;stroke-width:1;fill-opacity:1;stroke-opacity:0.3" />
<rect x="154" y="126" width="24" height="5" style="fill:#5d3c2d;stroke:black;stroke-width:1;fill-opacity:1;stroke-opacity:0.3" />
<line x1="179" y1="128" x2="555" y2="128" stroke="pink" stroke-width="1" />
<rect x="555" y="126" width="42" height="5" style="fill:#5d3c2d;stroke:black;stroke-width:1;fill-opacity:1;stroke-opacity:0.3" />
<line x1="137" y1="135" x2="151" y2="137" stroke="black" stroke-width="1" />
<line x1="151" y1="137" x2="166" y2="135" stroke="black" stroke-width="1" />
<rect x="69" y="133" width="67" height="5" style="fill:#5d3c2d;stroke:black;stroke-width:1;fill-opacity:1;stroke-opacity:0.3" />
<rect x="166" y="133" width="12" height="5" style="fill:#5d3c2d;stroke:black;stroke-width:1;fill-opacity:1;stroke-opacity:0.3" />
<line x1="179" y1="135" x2="555" y2="135" stroke="pink" stroke-width="1" />
<rect x="555" y="133" width="55" height="5" style="fill:#5d3c2d;stroke:black;stroke-width:1;fill-opacity:1;stroke-opacity:0.3" />
<line x1="171" y1="142" x2="365" y2="144" stroke="black" stroke-width="1" />
<line x1="365" y1="144" x2="560" y2="142" stroke="black" stroke-width="1" />
<rect x="69" y="140" width="101" height="5" style="fill:#5d3c2d;stroke:black;stroke-width:1;fill-opacity:1;stroke-opacity:0.3" />
<rect x="560" y="140" width="101" height="5" style="fill:#5d3c2d;stroke:black;stroke-width:1;fill-opacity:1;stroke-opacity:0.3" />
<line x1="171" y1="149" x2="366" y2="151" stroke="black" stroke-width="1" />
<line x1="366" y1="151" x2="561" y2="149" stroke="black" stroke-width="1" />
<rect x="69" y="147" width="101" height="5" style="fill:#5d3c2d;stroke:black;stroke-width:1;fill-opacity:1;stroke-opacity:0.3" />
<rect x="561" y="147" width="101" height="5" style="fill:#5d3c2d;stroke:black;stroke-width:1;fill-opacity:1;stroke-opacity:0.3" />
<line x1="137" y1="156" x2="350" y2="158" stroke="black" stroke-width="1" />
<line x1="350" y1="158" x2="563" y2="156" stroke="black" stroke-width="1" />
<rect x="69" y="154" width="67" height="5" style="fill:#5d3c2d;stroke:black;stroke-width:1;fill-opacity:1;stroke-opacity:0.3" />
<rect x="563" y="154" width="67" height="5" style="fill:#5d3c2d;stroke:black;stroke-width:1;fill-opacity:1;stroke-opacity:0.3" />
<line x1="137" y1="163" x2="146" y2="165" stroke="black" stroke-width="1" />
<line x1="146" y1="165" x2="155" y2="163" stroke="black" stroke-width="1" />
<rect x="69" y="161" width="67" height="5" style="fill:#5d3c2d;stroke:black;stroke-width:1;fill-opacity:1;stroke-opacity:0.3" />
<rect x="155" y="161" width="23" height="5" style="fill:#5d3c2d;stroke:black;stroke-width:1;fill-opacity:1;stroke-opacity:0.3" />
<line x1="179" y1="163" x2="555" y2="163" stroke="pink" stroke-width="1" />
<rect x="555" y="161" width="43" height="5" style="fill:#5d3c2d;stroke:black;stroke-width:1;fill-opacity:1;stroke-opacity:0.3" />
<line x1="644" y1="30" x2="647" y2="32" stroke="black" stroke-width="1" />
<line x1="647" y1="32" x2="651" y2="30" stroke="black" stroke-width="1" />
<rect x="578" y="28" width="65" height="5" style="fill:#5d3c2d;stroke:black;stroke-width:1;fill-opacity:1;stroke-opacity:0.3" />
<rect x="651" y="28" width="67" height="5" style="fill:#5d3c2d;stroke:black;stroke-width:1;fill-opacity:1;stroke-opacity:0.3" />
<line x1="641" y1="58" x2="646" y2="60" stroke="black" stroke-width="1" />
<line x1="646" y1="60" x2="652" y2="58" stroke="black" stroke-width="1" />
<rect x="584" y="56" width="57" height="5" style="fill:#f5b024;stroke:black;stroke-width:1;fill-opacity:1;stroke-opacity:0.3" />
<rect x="652" y="56" width="67" height="5" style="fill:#f5b024;stroke:black;stroke-width:1;fill-opacity:1;stroke-opacity:0.3" />
<line x1="660" y1="121" x2="668" y2="123" stroke="black" stroke-width="1" />
<line x1="668" y1="123" x2="676" y2="121" stroke="black" stroke-width="1" />
<rect x="598" y="119" width="61" height="5" style="fill:#5d3c2d;stroke:black;stroke-width:1;fill-opacity:1;stroke-opacity:0.3" />
<rect x="676" y="119" width="67" height="5" style="fill:#5d3c2d;stroke:black;stroke-width:1;fill-opacity:1;stroke-opacity:0.3" />
<line x1="658" y1="128" x2="667" y2="130" stroke="black" stroke-width="1" />
<line x1="667" y1="130" x2="677" y2="128" stroke="black" stroke-width="1" />
<rect x="598" y="126" width="60" height="5" style="fill:#5d3c2d;stroke:black;stroke-width:1;fill-opacity:1;stroke-opacity:0.3" />
<rect x="677" y="126" width="67" height="5" style="fill:#5d3c2d;stroke:black;stroke-width:1;fill-opacity:1;stroke-opacity:0.3" />
<line x1="666" y1="163" x2="691" y2="165" stroke="black" stroke-width="1" />
<line x1="691" y1="165" x2="716" y2="163" stroke="black" stroke-width="1" />
<rect x="599" y="161" width="67" height="5" style="fill:#5d3c2d;stroke:black;stroke-width:1;fill-opacity:1;stroke-opacity:0.3" />
<rect x="716" y="161" width="67" height="5" style="fill:#5d3c2d;stroke:black;stroke-width:1;fill-opacity:1;stroke-opacity:0.3" />
<line x1="668" y1="72" x2="676" y2="74" stroke="black" stroke-width="1" />
<line x1="676" y1="74" x2="684" y2="72" stroke="black" stroke-width="1" />
<rect x="600" y="70" width="67" height="5" style="fill:#5d3c2d;stroke:black;stroke-width:1;fill-opacity:1;stroke-opacity:0.3" />
<rect x="684" y="70" width="67" height="5" style="fill:#5d3c2d;stroke:black;stroke-width:1;fill-opacity:1;stroke-opacity:0.3" />
<line x1="705" y1="114" x2="709" y2="116" stroke="black" stroke-width="1" />
<line x1="709" y1="116" x2="714" y2="114" stroke="black" stroke-width="1" />
<rect x="603" y="112" width="101" height="5" style="fill:#5d3c2d;stroke:black;stroke-width:1;fill-opacity:1;stroke-opacity:0.3" />
<rect x="714" y="112" width="101" height="5" style="fill:#5d3c2d;stroke:black;stroke-width:1;fill-opacity:1;stroke-opacity:0.3" />
<line x1="671" y1="65" x2="677" y2="67" stroke="black" stroke-width="1" />
<line x1="677" y1="67" x2="683" y2="65" stroke="black" stroke-width="1" />
<rect x="610" y="63" width="61" height="5" style="fill:#5d3c2d;stroke:black;stroke-width:1;fill-opacity:1;stroke-opacity:0.3" />
<rect x="683" y="63" width="67" height="5" style="fill:#5d3c2d;stroke:black;stroke-width:1;fill-opacity:1;stroke-opacity:0.3" />
<line x1="679" y1="135" x2="722" y2="137" stroke="black" stroke-width="1" />
<line x1="722" y1="137" x2="766" y2="135" stroke="black" stroke-width="1" />
<rect x="611" y="133" width="67" height="5" style="fill:#5d3c2d;stroke:black;stroke-width:1;fill-opacity:1;stroke-opacity:0.3" />
<rect x="766" y="133" width="67" height="5" style="fill:#5d3c2d;stroke:black;stroke-width:1;fill-opacity:1;stroke-opacity:0.3" />
<line x1="699" y1="93" x2="732" y2="95" stroke="black" stroke-width="1" />
<line x1="732" y1="95" x2="766" y2="93" stroke="black" stroke-width="1" />
<rect x="631" y="91" width="67" height="5" style="fill:#5d3c2d;stroke:black;stroke-width:1;fill-opacity:1;stroke-opacity:0.3" />
<rect x="766" y="91" width="66" height="5" style="fill:#5d3c2d;stroke:black;stroke-width:1;fill-opacity:1;stroke-opacity:0.3" />
<line x1="701" y1="156" x2="706" y2="158" stroke="black" stroke-width="1" />
<line x1="706" y1="158" x2="712" y2="156" stroke="black" stroke-width="1" />
<rect x="633" y="154" width="67" height="5" style="fill:#5d3c2d;stroke:black;stroke-width:1;fill-opacity:1;stroke-opacity:0.3" />
<rect x="712" y="154" width="67" height="5" style="fill:#5d3c2d;stroke:black;stroke-width:1;fill-opacity:1;stroke-opacity:0.3" />
<line x1="737" y1="100" x2="749" y2="102" stroke="black" stroke-width="1" />
<line x1="749" y1="102" x2="762" y2="100" stroke="black" stroke-width="1" />
<rect x="635" y="98" width="101" height="5" style="fill:#5d3c2d;stroke:black;stroke-width:1;fill-opacity:1;stroke-opacity:0.3" />
<rect x="762" y="98" width="101" height="5" style="fill:#5d3c2d;stroke:black;stroke-width:1;fill-opacity:1;stroke-opacity:0.3" />
<line x1="712" y1="79" x2="716" y2="81" stroke="black" stroke-width="1" />
<line x1="716" y1="81" x2="720" y2="79" stroke="black" stroke-width="1" />
<rect x="644" y="77" width="67" height="5" style="fill:#5d3c2d;stroke:black;stroke-width:1;fill-opacity:1;stroke-opacity:0.3" />
<rect x="720" y="77" width="67" height="5" style="fill:#5d3c2d;stroke:black;stroke-width:1;fill-opacity:1;stroke-opacity:0.3" />
<line x1="712" y1="86" x2="721" y2="88" stroke="black" stroke-width="1" />
<line x1="721" y1="88" x2="731" y2="86" stroke="black" stroke-width="1" />
<rect x="644" y="84" width="67" height="5" style="fill:#5d3c2d;stroke:black;stroke-width:1;fill-opacity:1;stroke-opacity:0.3" />
<rect x="731" y="84" width="67" height="5" style="fill:#5d3c2d;stroke:black;stroke-width:1;fill-opacity:1;stroke-opacity:0.3" />
<line x1="718" y1="37" x2="723" y2="39" stroke="black" stroke-width="1" />
<line x1="723" y1="39" x2="729" y2="37" stroke="black" stroke-width="1" />
<rect x="650" y="35" width="67" height="5" style="fill:#5d3c2d;stroke:black;stroke-width:1;fill-opacity:1;stroke-opacity:0.3" />
<rect x="729" y="35" width="67" height="5" style="fill:#5d3c2d;stroke:black;stroke-width:1;fill-opacity:1;stroke-opacity:0.3" />
<line x1="730" y1="142" x2="740" y2="144" stroke="black" stroke-width="1" />
<line x1="740" y1="144" x2="751" y2="142" stroke="black" stroke-width="1" />
<rect x="662" y="140" width="67" height="5" style="fill:#5d3c2d;stroke:black;stroke-width:1;fill-opacity:1;stroke-opacity:0.3" />
<rect x="751" y="140" width="67" height="5" style="fill:#5d3c2d;stroke:black;stroke-width:1;fill-opacity:1;stroke-opacity:0.3" />
<line x1="730" y1="149" x2="738" y2="151" stroke="black" stroke-width="1" />
<line x1="738" y1="151" x2="747" y2="149" stroke="black" stroke-width="1" />
<rect x="663" y="147" width="67" height="5" style="fill:#5d3c2d;stroke:black;stroke-width:1;fill-opacity:1;stroke-opacity:0.3" />
<rect x="747" y="147" width="67" height="5" style="fill:#5d3c2d;stroke:black;stroke-width:1;fill-opacity:1;stroke-opacity:0.3" />
<line x1="734" y1="44" x2="762" y2="46" stroke="black" stroke-width="1" />
<line x1="762" y1="46" x2="790" y2="44" stroke="black" stroke-width="1" />
<rect x="666" y="42" width="67" height="5" style="fill:#5d3c2d;stroke:black;stroke-width:1;fill-opacity:1;stroke-opacity:0.3" />
<rect x="790" y="42" width="67" height="5" style="fill:#5d3c2d;stroke:black;stroke-width:1;fill-opacity:1;stroke-opacity:0.3" />
<line x1="787" y1="30" x2="806" y2="32" stroke="black" stroke-width="1" />
<line x1="806" y1="32" x2="826" y2="30" stroke="black" stroke-width="1" />
<rect x="719" y="28" width="67" height="5" style="fill:#f5b024;stroke:black;stroke-width:1;fill-opacity:1;stroke-opacity:0.3" />
<rect x="826" y="28" width="67" height="5" style="fill:#f5b024;stroke:black;stroke-width:1;fill-opacity:1;stroke-opacity:0.3" />
<line x1="787" y1="58" x2="800" y2="60" stroke="black" stroke-width="1" />
<line x1="800" y1="60" x2="813" y2="58" stroke="black" stroke-width="1" />
<rect x="719" y="56" width="67" height="5" style="fill:#5d3c2d;stroke:black;stroke-width:1;fill-opacity:1;stroke-opacity:0.3" />
<rect x="813" y="56" width="67" height="5" style="fill:#5d3c2d;stroke:black;stroke-width:1;fill-opacity:1;stroke-opacity:0.3" />
<line x1="811" y1="121" x2="820" y2="123" stroke="black" stroke-width="1" />
<line x1="820" y1="123" x2="829" y2="121" stroke="black" stroke-width="1" />
<rect x="743" y="119" width="67" height="5" style="fill:#5d3c2d;stroke:black;stroke-width:1;fill-opacity:1;stroke-opacity:0.3" />
<rect x="829" y="119" width="67" height="5" style="fill:#5d3c2d;stroke:black;stroke-width:1;fill-opacity:1;stroke-opacity:0.3" />
<line x1="813" y1="128" x2="821" y2="130" stroke="black" stroke-width="1" />
<line x1="821" y1="130" x2="829" y2="128" stroke="black" stroke-width="1" />
<rect x="745" y="126" width="67" height="5" style="fill:#5d3c2d;stroke:black;stroke-width:1;fill-opacity:1;stroke-opacity:0.3" />
<rect x="829" y="126" width="67" height="5" style="fill:#5d3c2d;stroke:black;stroke-width:1;fill-opacity:1;stroke-opacity:0.3" />
<line x1="819" y1="65" x2="840" y2="67" stroke="black" stroke-width="1" />
<line x1="840" y1="67" x2="862" y2="65" stroke="black" stroke-width="1" />
<rect x="751" y="63" width="67" height="5" style="fill:#5d3c2d;stroke:black;stroke-width:1;fill-opacity:1;stroke-opacity:0.3" />
<rect x="862" y="63" width="67" height="5" style="fill:#5d3c2d;stroke:black;stroke-width:1;fill-opacity:1;stroke-opacity:0.3" />
<line x1="821" y1="72" x2="835" y2="74" stroke="black" stroke-width="1" />
<line x1="835" y1="74" x2="849" y2="72" stroke="black" stroke-width="1" />
<rect x="753" y="70" width="67" height="5" style="fill:#5d3c2d;stroke:black;stroke-width:1;fill-opacity:1;stroke-opacity:0.3" />
<rect x="849" y="70" width="67" height="5" style="fill:#5d3c2d;stroke:black;stroke-width:1;fill-opacity:1;stroke-opacity:0.3" />
<line x1="821" y1="107" x2="835" y2="109" stroke="black" stroke-width="1" />
<line x1="835" y1="109" x2="849" y2="107" stroke="black" stroke-width="1" />
<rect x="753" y="105" width="67" height="5" style="fill:#5d3c2d;stroke:black;stroke-width:1;fill-opacity:1;stroke-opacity:0.3" />
<rect x="849" y="105" width="67" height="5" style="fill:#5d3c2d;stroke:black;stroke-width:1;fill-opacity:1;stroke-opacity:0.3" />
<line x1="848" y1="156" x2="854" y2="158" stroke="black" stroke-width="1" />
<line x1="854" y1="158" x2="860" y2="156" stroke="black" stroke-width="1" />
<rect x="780" y="154" width="67" height="5" style="fill:#5d3c2d;stroke:black;stroke-width:1;fill-opacity:1;stroke-opacity:0.3" />
<rect x="860" y="154" width="67" height="5" style="fill:#5d3c2d;stroke:black;stroke-width:1;fill-opacity:1;stroke-opacity:0.3" />
<line x1="852" y1="163" x2="856" y2="165" stroke="black" stroke-width="1" />
<line x1="856" y1="165" x2="860" y2="163" stroke="black" stroke-width="1" />
<rect x="784" y="161" width="67" height="5" style="fill:#5d3c2d;stroke:black;stroke-width:1;fill-opacity:1;stroke-opacity:0.3" />
<rect x="860" y="161" width="67" height="5" style="fill:#5d3c2d;stroke:black;stroke-width:1;fill-opacity:1;stroke-opacity:0.3" />
<line x1="855" y1="79" x2="859" y2="81" stroke="black" stroke-width="1" />
<line x1="859" y1="81" x2="864" y2="79" stroke="black" stroke-width="1" />
<rect x="788" y="77" width="67" height="5" style="fill:#5d3c2d;stroke:black;stroke-width:1;fill-opacity:1;stroke-opacity:0.3" />
<rect x="864" y="77" width="66" height="5" style="fill:#5d3c2d;stroke:black;stroke-width:1;fill-opacity:1;stroke-opacity:0.3" />
<line x1="873" y1="37" x2="893" y2="39" stroke="black" stroke-width="1" />
<line x1="893" y1="39" x2="914" y2="37" stroke="black" stroke-width="1" />
<rect x="805" y="35" width="67" height="5" style="fill:#5d3c2d;stroke:black;stroke-width:1;fill-opacity:1;stroke-opacity:0.3" />
<rect x="914" y="35" width="67" height="5" style="fill:#5d3c2d;stroke:black;stroke-width:1;fill-opacity:1;stroke-opacity:0.3" />
<line x1="877" y1="86" x2="890" y2="88" stroke="black" stroke-width="1" />
<line x1="890" y1="88" x2="903" y2="86" stroke="black" stroke-width="1" />
<rect x="809" y="84" width="67" height="5" style="fill:#5d3c2d;stroke:black;stroke-width:1;fill-opacity:1;stroke-opacity:0.3" />
<rect x="903" y="84" width="67" height="5" style="fill:#5d3c2d;stroke:black;stroke-width:1;fill-opacity:1;stroke-opacity:0.3" />
<line x1="887" y1="114" x2="892" y2="116" stroke="black" stroke-width="1" />
<line x1="892" y1="116" x2="897" y2="114" stroke="black" stroke-width="1" />
<rect x="819" y="112" width="67" height="5" style="fill:#f5b024;stroke:black;stroke-width:1;fill-opacity:1;stroke-opacity:0.3" />
<rect x="897" y="112" width="66" height="5" style="fill:#f5b024;stroke:black;stroke-width:1;fill-opacity:1;stroke-opacity:0.3" />
<line x1="889" y1="142" x2="900" y2="144" stroke="black" stroke-width="1" />
<line x1="900" y1="144" x2="911" y2="142" stroke="black" stroke-width="1" />
<rect x="821" y="140" width="67" height="5" style="fill:#5d3c2d;stroke:black;stroke-width:1;fill-opacity:1;stroke-opacity:0.3" />
<rect x="911" y="140" width="67" height="5" style="fill:#5d3c2d;stroke:black;stroke-width:1;fill-opacity:1;stroke-opacity:0.3" />
<line x1="900" y1="149" x2="913" y2="151" stroke="black" stroke-width="1" />
<line x1="913" y1="151" x2="926" y2="149" stroke="black" stroke-width="1" />
<rect x="832" y="147" width="67" height="5" style="fill:#5d3c2d;stroke:black;stroke-width:1;fill-opacity:1;stroke-opacity:0.3" />
<rect x="926" y="147" width="55" height="5" style="fill:#5d3c2d;stroke:black;stroke-width:1;fill-opacity:1;stroke-opacity:0.3" />
<line x1="901" y1="93" x2="907" y2="95" stroke="black" stroke-width="1" />
<line x1="907" y1="95" x2="914" y2="93" stroke="black" stroke-width="1" />
<rect x="833" y="91" width="67" height="5" style="fill:#5d3c2d;stroke:black;stroke-width:1;fill-opacity:1;stroke-opacity:0.3" />
<rect x="914" y="91" width="67" height="5" style="fill:#5d3c2d;stroke:black;stroke-width:1;fill-opacity:1;stroke-opacity:0.3" />
<line x1="913" y1="135" x2="920" y2="137" stroke="black" stroke-width="1" />
<line x1="920" y1="137" x2="927" y2="135" stroke="black" stroke-width="1" />
<rect x="845" y="133" width="67" height="5" style="fill:#5d3c2d;stroke:black;stroke-width:1;fill-opacity:1;stroke-opacity:0.3" />
<rect x="927" y="133" width="67" height="5" style="fill:#5d3c2d;stroke:black;stroke-width:1;fill-opacity:1;stroke-opacity:0.3" />
<text x="15"  y="176" style="font-family:Arial;font-size:10;stroke:black;fill:black;">all.merged.bam</text>
</svg>
    
