<?xml version="1.0" encoding="utf-8" standalone="no"?>
<!DOCTYPE svg PUBLIC "-//W3C//DTD SVG 1.1//EN"
  "http://www.w3.org/Graphics/SVG/1.1/DTD/svg11.dtd">
<svg height="1140" width="1000" version="1.1" viewBox="0 0 1000 1140" xmlns="http://www.w3.org/2000/svg" xmlns:xlink="http://www.w3.org/1999/xlink">
<line x1="63" y1="11" x2="935" y2="11" stroke="black" stroke-width="1" />
<rect x="63" y="9" width="511" height="5" style="fill:#f50002;stroke:black;stroke-width:1;fill-opacity:1;stroke-opacity:0.3" />
<rect x="575" y="9" width="191" height="5" style="fill:#53a1b5;stroke:black;stroke-width:1;fill-opacity:1;stroke-opacity:0.3" />
<rect x="767" y="9" width="167" height="5" style="fill:#f50002;stroke:black;stroke-width:1;fill-opacity:1;stroke-opacity:0.3" />
<text x="63"  y="23" style="font-family:Arial;font-size:10;stroke:black;fill:black;">Cre14.g612426.t1.1.v5.5 (-) chromosome_14:679693-681055</text>
<line x1="362" y1="30" x2="367" y2="32" stroke="black" stroke-width="1" />
<line x1="367" y1="32" x2="373" y2="30" stroke="black" stroke-width="1" />
<rect x="298" y="28" width="63" height="5" style="fill:#f5b024;stroke:black;stroke-width:1;fill-opacity:1;stroke-opacity:0.3" />
<rect x="373" y="28" width="63" height="5" style="fill:#f5b024;stroke:black;stroke-width:1;fill-opacity:1;stroke-opacity:0.3" />
<line x1="480" y1="37" x2="487" y2="39" stroke="black" stroke-width="1" />
<line x1="487" y1="39" x2="494" y2="37" stroke="black" stroke-width="1" />
<rect x="417" y="35" width="63" height="5" style="fill:#f5b024;stroke:black;stroke-width:1;fill-opacity:1;stroke-opacity:0.3" />
<rect x="494" y="35" width="63" height="5" style="fill:#f5b024;stroke:black;stroke-width:1;fill-opacity:1;stroke-opacity:0.3" />
<line x1="511" y1="30" x2="516" y2="32" stroke="black" stroke-width="1" />
<line x1="516" y1="32" x2="522" y2="30" stroke="black" stroke-width="1" />
<rect x="448" y="28" width="62" height="5" style="fill:#f5b024;stroke:black;stroke-width:1;fill-opacity:1;stroke-opacity:0.3" />
<rect x="522" y="28" width="63" height="5" style="fill:#f5b024;stroke:black;stroke-width:1;fill-opacity:1;stroke-opacity:0.3" />
<line x1="776" y1="30" x2="782" y2="32" stroke="black" stroke-width="1" />
<line x1="782" y1="32" x2="788" y2="30" stroke="black" stroke-width="1" />
<rect x="712" y="28" width="63" height="5" style="fill:#5d3c2d;stroke:black;stroke-width:1;fill-opacity:1;stroke-opacity:0.3" />
<rect x="788" y="28" width="63" height="5" style="fill:#5d3c2d;stroke:black;stroke-width:1;fill-opacity:1;stroke-opacity:0.3" />
<line x1="778" y1="37" x2="786" y2="39" stroke="black" stroke-width="1" />
<line x1="786" y1="39" x2="795" y2="37" stroke="black" stroke-width="1" />
<rect x="714" y="35" width="63" height="5" style="fill:#f5b024;stroke:black;stroke-width:1;fill-opacity:1;stroke-opacity:0.3" />
<rect x="795" y="35" width="63" height="5" style="fill:#f5b024;stroke:black;stroke-width:1;fill-opacity:1;stroke-opacity:0.3" />
<line x1="809" y1="44" x2="831" y2="46" stroke="black" stroke-width="1" />
<line x1="831" y1="46" x2="854" y2="44" stroke="black" stroke-width="1" />
<rect x="745" y="42" width="63" height="5" style="fill:#f5b024;stroke:black;stroke-width:1;fill-opacity:1;stroke-opacity:0.3" />
<rect x="854" y="42" width="63" height="5" style="fill:#f5b024;stroke:black;stroke-width:1;fill-opacity:1;stroke-opacity:0.3" />
<text x="15"  y="176" style="font-family:Arial;font-size:10;stroke:black;fill:black;">all.merged.bam</text>
</svg>
    
