<?xml version="1.0" encoding="utf-8" standalone="no"?>
<!DOCTYPE svg PUBLIC "-//W3C//DTD SVG 1.1//EN"
  "http://www.w3.org/Graphics/SVG/1.1/DTD/svg11.dtd">
<svg height="1140" width="1000" version="1.1" viewBox="0 0 1000 1140" xmlns="http://www.w3.org/2000/svg" xmlns:xlink="http://www.w3.org/1999/xlink">
<line x1="14" y1="11" x2="985" y2="11" stroke="black" stroke-width="1" />
<rect x="14" y="9" width="368" height="5" style="fill:#f50002;stroke:black;stroke-width:1;fill-opacity:1;stroke-opacity:0.3" />
<rect x="382" y="9" width="12" height="5" style="fill:#53a1b5;stroke:black;stroke-width:1;fill-opacity:1;stroke-opacity:0.3" />
<rect x="419" y="9" width="19" height="5" style="fill:#53a1b5;stroke:black;stroke-width:1;fill-opacity:1;stroke-opacity:0.3" />
<rect x="463" y="9" width="45" height="5" style="fill:#53a1b5;stroke:black;stroke-width:1;fill-opacity:1;stroke-opacity:0.3" />
<rect x="541" y="9" width="25" height="5" style="fill:#53a1b5;stroke:black;stroke-width:1;fill-opacity:1;stroke-opacity:0.3" />
<rect x="593" y="9" width="15" height="5" style="fill:#53a1b5;stroke:black;stroke-width:1;fill-opacity:1;stroke-opacity:0.3" />
<rect x="625" y="9" width="25" height="5" style="fill:#53a1b5;stroke:black;stroke-width:1;fill-opacity:1;stroke-opacity:0.3" />
<rect x="673" y="9" width="25" height="5" style="fill:#53a1b5;stroke:black;stroke-width:1;fill-opacity:1;stroke-opacity:0.3" />
<rect x="728" y="9" width="7" height="5" style="fill:#53a1b5;stroke:black;stroke-width:1;fill-opacity:1;stroke-opacity:0.3" />
<rect x="766" y="9" width="10" height="5" style="fill:#53a1b5;stroke:black;stroke-width:1;fill-opacity:1;stroke-opacity:0.3" />
<rect x="795" y="9" width="21" height="5" style="fill:#53a1b5;stroke:black;stroke-width:1;fill-opacity:1;stroke-opacity:0.3" />
<rect x="849" y="9" width="6" height="5" style="fill:#53a1b5;stroke:black;stroke-width:1;fill-opacity:1;stroke-opacity:0.3" />
<rect x="869" y="9" width="17" height="5" style="fill:#53a1b5;stroke:black;stroke-width:1;fill-opacity:1;stroke-opacity:0.3" />
<rect x="887" y="9" width="98" height="5" style="fill:#f50002;stroke:black;stroke-width:1;fill-opacity:1;stroke-opacity:0.3" />
<text x="14"  y="23" style="font-family:Arial;font-size:10;stroke:black;fill:black;">Cre16.g686850.t1.2.v5.5 (-) chromosome_16:4727110-4734025</text>
<line x1="321" y1="30" x2="323" y2="32" stroke="black" stroke-width="1" />
<line x1="323" y1="32" x2="326" y2="30" stroke="black" stroke-width="1" />
<rect x="307" y="28" width="14" height="5" style="fill:#f5b024;stroke:black;stroke-width:1;fill-opacity:1;stroke-opacity:0.3" />
<rect x="326" y="28" width="14" height="5" style="fill:#f5b024;stroke:black;stroke-width:1;fill-opacity:1;stroke-opacity:0.3" />
<line x1="343" y1="37" x2="346" y2="39" stroke="black" stroke-width="1" />
<line x1="346" y1="39" x2="349" y2="37" stroke="black" stroke-width="1" />
<rect x="322" y="35" width="21" height="5" style="fill:#f5b024;stroke:black;stroke-width:1;fill-opacity:1;stroke-opacity:0.3" />
<rect x="349" y="35" width="21" height="5" style="fill:#f5b024;stroke:black;stroke-width:1;fill-opacity:1;stroke-opacity:0.3" />
<line x1="485" y1="30" x2="488" y2="32" stroke="black" stroke-width="1" />
<line x1="488" y1="32" x2="492" y2="30" stroke="black" stroke-width="1" />
<rect x="464" y="28" width="21" height="5" style="fill:#f5b024;stroke:black;stroke-width:1;fill-opacity:1;stroke-opacity:0.3" />
<rect x="492" y="28" width="16" height="5" style="fill:#f5b024;stroke:black;stroke-width:1;fill-opacity:1;stroke-opacity:0.3" />
<line x1="508" y1="30" x2="541" y2="30" stroke="pink" stroke-width="1" />
<rect x="541" y="28" width="4" height="5" style="fill:#f5b024;stroke:black;stroke-width:1;fill-opacity:1;stroke-opacity:0.3" />
<line x1="637" y1="30" x2="639" y2="32" stroke="black" stroke-width="1" />
<line x1="639" y1="32" x2="642" y2="30" stroke="black" stroke-width="1" />
<rect x="600" y="28" width="9" height="5" style="fill:#f5b024;stroke:black;stroke-width:1;fill-opacity:1;stroke-opacity:0.3" />
<line x1="609" y1="30" x2="625" y2="30" stroke="pink" stroke-width="1" />
<rect x="625" y="28" width="11" height="5" style="fill:#f5b024;stroke:black;stroke-width:1;fill-opacity:1;stroke-opacity:0.3" />
<rect x="642" y="28" width="9" height="5" style="fill:#f5b024;stroke:black;stroke-width:1;fill-opacity:1;stroke-opacity:0.3" />
<line x1="651" y1="30" x2="673" y2="30" stroke="pink" stroke-width="1" />
<rect x="673" y="28" width="11" height="5" style="fill:#f5b024;stroke:black;stroke-width:1;fill-opacity:1;stroke-opacity:0.3" />
<line x1="682" y1="37" x2="685" y2="39" stroke="black" stroke-width="1" />
<line x1="685" y1="39" x2="688" y2="37" stroke="black" stroke-width="1" />
<rect x="646" y="35" width="5" height="5" style="fill:#f5b024;stroke:black;stroke-width:1;fill-opacity:1;stroke-opacity:0.3" />
<line x1="651" y1="37" x2="673" y2="37" stroke="pink" stroke-width="1" />
<rect x="673" y="35" width="8" height="5" style="fill:#f5b024;stroke:black;stroke-width:1;fill-opacity:1;stroke-opacity:0.3" />
<rect x="688" y="35" width="10" height="5" style="fill:#f5b024;stroke:black;stroke-width:1;fill-opacity:1;stroke-opacity:0.3" />
<line x1="699" y1="37" x2="728" y2="37" stroke="pink" stroke-width="1" />
<rect x="728" y="35" width="3" height="5" style="fill:#f5b024;stroke:black;stroke-width:1;fill-opacity:1;stroke-opacity:0.3" />
<line x1="695" y1="44" x2="715" y2="46" stroke="black" stroke-width="1" />
<line x1="715" y1="46" x2="735" y2="44" stroke="black" stroke-width="1" />
<rect x="681" y="42" width="14" height="5" style="fill:#f5b024;stroke:black;stroke-width:1;fill-opacity:1;stroke-opacity:0.3" />
<rect x="735" y="42" width="0" height="5" style="fill:#f5b024;stroke:black;stroke-width:1;fill-opacity:1;stroke-opacity:0.3" />
<line x1="736" y1="44" x2="766" y2="44" stroke="pink" stroke-width="1" />
<rect x="766" y="42" width="10" height="5" style="fill:#f5b024;stroke:black;stroke-width:1;fill-opacity:1;stroke-opacity:0.3" />
<line x1="776" y1="44" x2="795" y2="44" stroke="pink" stroke-width="1" />
<rect x="795" y="42" width="2" height="5" style="fill:#f5b024;stroke:black;stroke-width:1;fill-opacity:1;stroke-opacity:0.3" />
<text x="15"  y="176" style="font-family:Arial;font-size:10;stroke:black;fill:black;">all.merged.bam</text>
</svg>
    
