<?xml version="1.0" encoding="utf-8" standalone="no"?>
<!DOCTYPE svg PUBLIC "-//W3C//DTD SVG 1.1//EN"
  "http://www.w3.org/Graphics/SVG/1.1/DTD/svg11.dtd">
<svg height="1140" width="1000" version="1.1" viewBox="0 0 1000 1140" xmlns="http://www.w3.org/2000/svg" xmlns:xlink="http://www.w3.org/1999/xlink">
<line x1="47" y1="11" x2="952" y2="11" stroke="black" stroke-width="1" />
<rect x="47" y="9" width="90" height="5" style="fill:#f50002;stroke:black;stroke-width:1;fill-opacity:1;stroke-opacity:0.3" />
<rect x="137" y="9" width="399" height="5" style="fill:#53a1b5;stroke:black;stroke-width:1;fill-opacity:1;stroke-opacity:0.3" />
<rect x="608" y="9" width="37" height="5" style="fill:#53a1b5;stroke:black;stroke-width:1;fill-opacity:1;stroke-opacity:0.3" />
<rect x="759" y="9" width="42" height="5" style="fill:#53a1b5;stroke:black;stroke-width:1;fill-opacity:1;stroke-opacity:0.3" />
<rect x="801" y="9" width="150" height="5" style="fill:#f50002;stroke:black;stroke-width:1;fill-opacity:1;stroke-opacity:0.3" />
<text x="47"  y="23" style="font-family:Arial;font-size:10;stroke:black;fill:black;">Cre14.g633950.t1.2.v5.5 (-) chromosome_14:4105020-4106935</text>
<line x1="48" y1="30" x2="62" y2="32" stroke="black" stroke-width="1" />
<line x1="62" y1="32" x2="77" y2="30" stroke="black" stroke-width="1" />
<rect x="0" y="28" width="47" height="5" style="fill:#f5b024;stroke:black;stroke-width:1;fill-opacity:1;stroke-opacity:0.3" />
<rect x="77" y="28" width="47" height="5" style="fill:#f5b024;stroke:black;stroke-width:1;fill-opacity:1;stroke-opacity:0.3" />
<line x1="55" y1="37" x2="61" y2="39" stroke="black" stroke-width="1" />
<line x1="61" y1="39" x2="67" y2="37" stroke="black" stroke-width="1" />
<rect x="8" y="35" width="47" height="5" style="fill:#f5b024;stroke:black;stroke-width:1;fill-opacity:1;stroke-opacity:0.3" />
<rect x="67" y="35" width="47" height="5" style="fill:#f5b024;stroke:black;stroke-width:1;fill-opacity:1;stroke-opacity:0.3" />
<line x1="57" y1="44" x2="66" y2="46" stroke="black" stroke-width="1" />
<line x1="66" y1="46" x2="75" y2="44" stroke="black" stroke-width="1" />
<rect x="10" y="42" width="47" height="5" style="fill:#f5b024;stroke:black;stroke-width:1;fill-opacity:1;stroke-opacity:0.3" />
<rect x="75" y="42" width="15" height="5" style="fill:#f5b024;stroke:black;stroke-width:1;fill-opacity:1;stroke-opacity:0.3" />
<line x1="91" y1="44" x2="92" y2="44" stroke="pink" stroke-width="1" />
<rect x="92" y="42" width="30" height="5" style="fill:#f5b024;stroke:black;stroke-width:1;fill-opacity:1;stroke-opacity:0.3" />
<line x1="64" y1="51" x2="135" y2="53" stroke="black" stroke-width="1" />
<line x1="135" y1="53" x2="206" y2="51" stroke="black" stroke-width="1" />
<rect x="17" y="49" width="46" height="5" style="fill:#f5b024;stroke:black;stroke-width:1;fill-opacity:1;stroke-opacity:0.3" />
<rect x="206" y="49" width="47" height="5" style="fill:#f5b024;stroke:black;stroke-width:1;fill-opacity:1;stroke-opacity:0.3" />
<line x1="66" y1="58" x2="74" y2="60" stroke="black" stroke-width="1" />
<line x1="74" y1="60" x2="82" y2="58" stroke="black" stroke-width="1" />
<rect x="19" y="56" width="47" height="5" style="fill:#f5b024;stroke:black;stroke-width:1;fill-opacity:1;stroke-opacity:0.3" />
<rect x="82" y="56" width="47" height="5" style="fill:#f5b024;stroke:black;stroke-width:1;fill-opacity:1;stroke-opacity:0.3" />
<line x1="67" y1="65" x2="73" y2="67" stroke="black" stroke-width="1" />
<line x1="73" y1="67" x2="80" y2="65" stroke="black" stroke-width="1" />
<rect x="19" y="63" width="47" height="5" style="fill:#f5b024;stroke:black;stroke-width:1;fill-opacity:1;stroke-opacity:0.3" />
<rect x="80" y="63" width="47" height="5" style="fill:#f5b024;stroke:black;stroke-width:1;fill-opacity:1;stroke-opacity:0.3" />
<line x1="67" y1="72" x2="72" y2="74" stroke="black" stroke-width="1" />
<line x1="72" y1="74" x2="77" y2="72" stroke="black" stroke-width="1" />
<rect x="19" y="70" width="47" height="5" style="fill:#f5b024;stroke:black;stroke-width:1;fill-opacity:1;stroke-opacity:0.3" />
<rect x="77" y="70" width="47" height="5" style="fill:#f5b024;stroke:black;stroke-width:1;fill-opacity:1;stroke-opacity:0.3" />
<line x1="68" y1="79" x2="77" y2="81" stroke="black" stroke-width="1" />
<line x1="77" y1="81" x2="86" y2="79" stroke="black" stroke-width="1" />
<rect x="20" y="77" width="47" height="5" style="fill:#f5b024;stroke:black;stroke-width:1;fill-opacity:1;stroke-opacity:0.3" />
<rect x="86" y="77" width="47" height="5" style="fill:#f5b024;stroke:black;stroke-width:1;fill-opacity:1;stroke-opacity:0.3" />
<line x1="73" y1="86" x2="79" y2="88" stroke="black" stroke-width="1" />
<line x1="79" y1="88" x2="86" y2="86" stroke="black" stroke-width="1" />
<rect x="25" y="84" width="47" height="5" style="fill:#f5b024;stroke:black;stroke-width:1;fill-opacity:1;stroke-opacity:0.3" />
<rect x="86" y="84" width="47" height="5" style="fill:#f5b024;stroke:black;stroke-width:1;fill-opacity:1;stroke-opacity:0.3" />
<line x1="96" y1="93" x2="99" y2="95" stroke="black" stroke-width="1" />
<line x1="99" y1="95" x2="103" y2="93" stroke="black" stroke-width="1" />
<rect x="25" y="91" width="70" height="5" style="fill:#f5b024;stroke:black;stroke-width:1;fill-opacity:1;stroke-opacity:0.3" />
<rect x="103" y="91" width="70" height="5" style="fill:#f5b024;stroke:black;stroke-width:1;fill-opacity:1;stroke-opacity:0.3" />
<line x1="96" y1="100" x2="99" y2="102" stroke="black" stroke-width="1" />
<line x1="99" y1="102" x2="103" y2="100" stroke="black" stroke-width="1" />
<rect x="25" y="98" width="70" height="5" style="fill:#f5b024;stroke:black;stroke-width:1;fill-opacity:1;stroke-opacity:0.3" />
<rect x="103" y="98" width="70" height="5" style="fill:#f5b024;stroke:black;stroke-width:1;fill-opacity:1;stroke-opacity:0.3" />
<line x1="73" y1="107" x2="77" y2="109" stroke="black" stroke-width="1" />
<line x1="77" y1="109" x2="82" y2="107" stroke="black" stroke-width="1" />
<rect x="25" y="105" width="47" height="5" style="fill:#f5b024;stroke:black;stroke-width:1;fill-opacity:1;stroke-opacity:0.3" />
<rect x="82" y="105" width="47" height="5" style="fill:#f5b024;stroke:black;stroke-width:1;fill-opacity:1;stroke-opacity:0.3" />
<line x1="73" y1="114" x2="75" y2="116" stroke="black" stroke-width="1" />
<line x1="75" y1="116" x2="78" y2="114" stroke="black" stroke-width="1" />
<rect x="26" y="112" width="46" height="5" style="fill:#f5b024;stroke:black;stroke-width:1;fill-opacity:1;stroke-opacity:0.3" />
<rect x="78" y="112" width="47" height="5" style="fill:#f5b024;stroke:black;stroke-width:1;fill-opacity:1;stroke-opacity:0.3" />
<line x1="74" y1="121" x2="86" y2="123" stroke="black" stroke-width="1" />
<line x1="86" y1="123" x2="98" y2="121" stroke="black" stroke-width="1" />
<rect x="26" y="119" width="47" height="5" style="fill:#f5b024;stroke:black;stroke-width:1;fill-opacity:1;stroke-opacity:0.3" />
<rect x="98" y="119" width="47" height="5" style="fill:#f5b024;stroke:black;stroke-width:1;fill-opacity:1;stroke-opacity:0.3" />
<line x1="74" y1="128" x2="76" y2="130" stroke="black" stroke-width="1" />
<line x1="76" y1="130" x2="79" y2="128" stroke="black" stroke-width="1" />
<rect x="26" y="126" width="47" height="5" style="fill:#f5b024;stroke:black;stroke-width:1;fill-opacity:1;stroke-opacity:0.3" />
<rect x="79" y="126" width="12" height="5" style="fill:#f5b024;stroke:black;stroke-width:1;fill-opacity:1;stroke-opacity:0.3" />
<line x1="92" y1="128" x2="92" y2="128" stroke="pink" stroke-width="1" />
<rect x="92" y="126" width="34" height="5" style="fill:#f5b024;stroke:black;stroke-width:1;fill-opacity:1;stroke-opacity:0.3" />
<line x1="73" y1="135" x2="81" y2="137" stroke="black" stroke-width="1" />
<line x1="81" y1="137" x2="90" y2="135" stroke="black" stroke-width="1" />
<rect x="27" y="133" width="45" height="5" style="fill:#f5b024;stroke:black;stroke-width:1;fill-opacity:1;stroke-opacity:0.3" />
<rect x="90" y="133" width="47" height="5" style="fill:#f5b024;stroke:black;stroke-width:1;fill-opacity:1;stroke-opacity:0.3" />
<line x1="74" y1="142" x2="112" y2="144" stroke="black" stroke-width="1" />
<line x1="112" y1="144" x2="151" y2="142" stroke="black" stroke-width="1" />
<rect x="27" y="140" width="47" height="5" style="fill:#5d3c2d;stroke:black;stroke-width:1;fill-opacity:1;stroke-opacity:0.3" />
<rect x="151" y="140" width="47" height="5" style="fill:#5d3c2d;stroke:black;stroke-width:1;fill-opacity:1;stroke-opacity:0.3" />
<line x1="98" y1="149" x2="124" y2="151" stroke="black" stroke-width="1" />
<line x1="124" y1="151" x2="151" y2="149" stroke="black" stroke-width="1" />
<rect x="27" y="147" width="70" height="5" style="fill:#f5b024;stroke:black;stroke-width:1;fill-opacity:1;stroke-opacity:0.3" />
<rect x="151" y="147" width="65" height="5" style="fill:#f5b024;stroke:black;stroke-width:1;fill-opacity:1;stroke-opacity:0.3" />
<line x1="74" y1="156" x2="104" y2="158" stroke="black" stroke-width="1" />
<line x1="104" y1="158" x2="135" y2="156" stroke="black" stroke-width="1" />
<rect x="27" y="154" width="46" height="5" style="fill:#f5b024;stroke:black;stroke-width:1;fill-opacity:1;stroke-opacity:0.3" />
<rect x="135" y="154" width="47" height="5" style="fill:#f5b024;stroke:black;stroke-width:1;fill-opacity:1;stroke-opacity:0.3" />
<line x1="73" y1="163" x2="79" y2="165" stroke="black" stroke-width="1" />
<line x1="79" y1="165" x2="86" y2="163" stroke="black" stroke-width="1" />
<rect x="27" y="161" width="46" height="5" style="fill:#f5b024;stroke:black;stroke-width:1;fill-opacity:1;stroke-opacity:0.3" />
<rect x="86" y="161" width="47" height="5" style="fill:#f5b024;stroke:black;stroke-width:1;fill-opacity:1;stroke-opacity:0.3" />
<line x1="161" y1="37" x2="177" y2="39" stroke="black" stroke-width="1" />
<line x1="177" y1="39" x2="193" y2="37" stroke="black" stroke-width="1" />
<rect x="114" y="35" width="47" height="5" style="fill:#f5b024;stroke:black;stroke-width:1;fill-opacity:1;stroke-opacity:0.3" />
<rect x="193" y="35" width="47" height="5" style="fill:#f5b024;stroke:black;stroke-width:1;fill-opacity:1;stroke-opacity:0.3" />
<line x1="170" y1="44" x2="176" y2="46" stroke="black" stroke-width="1" />
<line x1="176" y1="46" x2="183" y2="44" stroke="black" stroke-width="1" />
<rect x="123" y="42" width="47" height="5" style="fill:#f5b024;stroke:black;stroke-width:1;fill-opacity:1;stroke-opacity:0.3" />
<rect x="183" y="42" width="47" height="5" style="fill:#f5b024;stroke:black;stroke-width:1;fill-opacity:1;stroke-opacity:0.3" />
<line x1="171" y1="72" x2="173" y2="74" stroke="black" stroke-width="1" />
<line x1="173" y1="74" x2="176" y2="72" stroke="black" stroke-width="1" />
<rect x="124" y="70" width="47" height="5" style="fill:#f5b024;stroke:black;stroke-width:1;fill-opacity:1;stroke-opacity:0.3" />
<rect x="176" y="70" width="47" height="5" style="fill:#f5b024;stroke:black;stroke-width:1;fill-opacity:1;stroke-opacity:0.3" />
<line x1="174" y1="30" x2="199" y2="32" stroke="black" stroke-width="1" />
<line x1="199" y1="32" x2="225" y2="30" stroke="black" stroke-width="1" />
<rect x="127" y="28" width="47" height="5" style="fill:#f5b024;stroke:black;stroke-width:1;fill-opacity:1;stroke-opacity:0.3" />
<rect x="225" y="28" width="47" height="5" style="fill:#f5b024;stroke:black;stroke-width:1;fill-opacity:1;stroke-opacity:0.3" />
<line x1="174" y1="65" x2="188" y2="67" stroke="black" stroke-width="1" />
<line x1="188" y1="67" x2="203" y2="65" stroke="black" stroke-width="1" />
<rect x="128" y="63" width="46" height="5" style="fill:#5d3c2d;stroke:black;stroke-width:1;fill-opacity:1;stroke-opacity:0.3" />
<rect x="203" y="63" width="47" height="5" style="fill:#5d3c2d;stroke:black;stroke-width:1;fill-opacity:1;stroke-opacity:0.3" />
<line x1="175" y1="114" x2="182" y2="116" stroke="black" stroke-width="1" />
<line x1="182" y1="116" x2="189" y2="114" stroke="black" stroke-width="1" />
<rect x="128" y="112" width="47" height="5" style="fill:#f5b024;stroke:black;stroke-width:1;fill-opacity:1;stroke-opacity:0.3" />
<rect x="189" y="112" width="47" height="5" style="fill:#f5b024;stroke:black;stroke-width:1;fill-opacity:1;stroke-opacity:0.3" />
<line x1="176" y1="128" x2="181" y2="130" stroke="black" stroke-width="1" />
<line x1="181" y1="130" x2="187" y2="128" stroke="black" stroke-width="1" />
<rect x="129" y="126" width="47" height="5" style="fill:#f5b024;stroke:black;stroke-width:1;fill-opacity:1;stroke-opacity:0.3" />
<rect x="187" y="126" width="47" height="5" style="fill:#f5b024;stroke:black;stroke-width:1;fill-opacity:1;stroke-opacity:0.3" />
<line x1="177" y1="58" x2="185" y2="60" stroke="black" stroke-width="1" />
<line x1="185" y1="60" x2="193" y2="58" stroke="black" stroke-width="1" />
<rect x="130" y="56" width="47" height="5" style="fill:#f5b024;stroke:black;stroke-width:1;fill-opacity:1;stroke-opacity:0.3" />
<rect x="193" y="56" width="47" height="5" style="fill:#f5b024;stroke:black;stroke-width:1;fill-opacity:1;stroke-opacity:0.3" />
<line x1="177" y1="107" x2="187" y2="109" stroke="black" stroke-width="1" />
<line x1="187" y1="109" x2="197" y2="107" stroke="black" stroke-width="1" />
<rect x="130" y="105" width="47" height="5" style="fill:#f5b024;stroke:black;stroke-width:1;fill-opacity:1;stroke-opacity:0.3" />
<rect x="197" y="105" width="47" height="5" style="fill:#f5b024;stroke:black;stroke-width:1;fill-opacity:1;stroke-opacity:0.3" />
<line x1="182" y1="79" x2="191" y2="81" stroke="black" stroke-width="1" />
<line x1="191" y1="81" x2="200" y2="79" stroke="black" stroke-width="1" />
<rect x="135" y="77" width="47" height="5" style="fill:#5d3c2d;stroke:black;stroke-width:1;fill-opacity:1;stroke-opacity:0.3" />
<rect x="200" y="77" width="47" height="5" style="fill:#5d3c2d;stroke:black;stroke-width:1;fill-opacity:1;stroke-opacity:0.3" />
<line x1="182" y1="86" x2="189" y2="88" stroke="black" stroke-width="1" />
<line x1="189" y1="88" x2="197" y2="86" stroke="black" stroke-width="1" />
<rect x="135" y="84" width="47" height="5" style="fill:#f5b024;stroke:black;stroke-width:1;fill-opacity:1;stroke-opacity:0.3" />
<rect x="197" y="84" width="47" height="5" style="fill:#f5b024;stroke:black;stroke-width:1;fill-opacity:1;stroke-opacity:0.3" />
<line x1="182" y1="163" x2="189" y2="165" stroke="black" stroke-width="1" />
<line x1="189" y1="165" x2="197" y2="163" stroke="black" stroke-width="1" />
<rect x="135" y="161" width="47" height="5" style="fill:#5d3c2d;stroke:black;stroke-width:1;fill-opacity:1;stroke-opacity:0.3" />
<rect x="197" y="161" width="47" height="5" style="fill:#5d3c2d;stroke:black;stroke-width:1;fill-opacity:1;stroke-opacity:0.3" />
<line x1="185" y1="135" x2="192" y2="137" stroke="black" stroke-width="1" />
<line x1="192" y1="137" x2="200" y2="135" stroke="black" stroke-width="1" />
<rect x="138" y="133" width="47" height="5" style="fill:#5d3c2d;stroke:black;stroke-width:1;fill-opacity:1;stroke-opacity:0.3" />
<rect x="200" y="133" width="46" height="5" style="fill:#5d3c2d;stroke:black;stroke-width:1;fill-opacity:1;stroke-opacity:0.3" />
<line x1="194" y1="121" x2="209" y2="123" stroke="black" stroke-width="1" />
<line x1="209" y1="123" x2="225" y2="121" stroke="black" stroke-width="1" />
<rect x="146" y="119" width="47" height="5" style="fill:#f5b024;stroke:black;stroke-width:1;fill-opacity:1;stroke-opacity:0.3" />
<rect x="225" y="119" width="47" height="5" style="fill:#f5b024;stroke:black;stroke-width:1;fill-opacity:1;stroke-opacity:0.3" />
<line x1="249" y1="93" x2="257" y2="95" stroke="black" stroke-width="1" />
<line x1="257" y1="95" x2="265" y2="93" stroke="black" stroke-width="1" />
<rect x="178" y="91" width="70" height="5" style="fill:#f5b024;stroke:black;stroke-width:1;fill-opacity:1;stroke-opacity:0.3" />
<rect x="265" y="91" width="67" height="5" style="fill:#f5b024;stroke:black;stroke-width:1;fill-opacity:1;stroke-opacity:0.3" />
<line x1="225" y1="100" x2="236" y2="102" stroke="black" stroke-width="1" />
<line x1="236" y1="102" x2="248" y2="100" stroke="black" stroke-width="1" />
<rect x="179" y="98" width="46" height="5" style="fill:#f5b024;stroke:black;stroke-width:1;fill-opacity:1;stroke-opacity:0.3" />
<rect x="248" y="98" width="45" height="5" style="fill:#f5b024;stroke:black;stroke-width:1;fill-opacity:1;stroke-opacity:0.3" />
<line x1="231" y1="156" x2="235" y2="158" stroke="black" stroke-width="1" />
<line x1="235" y1="158" x2="239" y2="156" stroke="black" stroke-width="1" />
<rect x="184" y="154" width="46" height="5" style="fill:#f5b024;stroke:black;stroke-width:1;fill-opacity:1;stroke-opacity:0.3" />
<rect x="239" y="154" width="47" height="5" style="fill:#f5b024;stroke:black;stroke-width:1;fill-opacity:1;stroke-opacity:0.3" />
<line x1="247" y1="142" x2="259" y2="144" stroke="black" stroke-width="1" />
<line x1="259" y1="144" x2="272" y2="142" stroke="black" stroke-width="1" />
<rect x="199" y="140" width="47" height="5" style="fill:#5d3c2d;stroke:black;stroke-width:1;fill-opacity:1;stroke-opacity:0.3" />
<rect x="272" y="140" width="46" height="5" style="fill:#5d3c2d;stroke:black;stroke-width:1;fill-opacity:1;stroke-opacity:0.3" />
<line x1="272" y1="72" x2="276" y2="74" stroke="black" stroke-width="1" />
<line x1="276" y1="74" x2="281" y2="72" stroke="black" stroke-width="1" />
<rect x="225" y="70" width="46" height="5" style="fill:#f5b024;stroke:black;stroke-width:1;fill-opacity:1;stroke-opacity:0.3" />
<rect x="281" y="70" width="47" height="5" style="fill:#f5b024;stroke:black;stroke-width:1;fill-opacity:1;stroke-opacity:0.3" />
<line x1="273" y1="149" x2="279" y2="151" stroke="black" stroke-width="1" />
<line x1="279" y1="151" x2="286" y2="149" stroke="black" stroke-width="1" />
<rect x="225" y="147" width="47" height="5" style="fill:#f5b024;stroke:black;stroke-width:1;fill-opacity:1;stroke-opacity:0.3" />
<rect x="286" y="147" width="47" height="5" style="fill:#f5b024;stroke:black;stroke-width:1;fill-opacity:1;stroke-opacity:0.3" />
<line x1="279" y1="44" x2="285" y2="46" stroke="black" stroke-width="1" />
<line x1="285" y1="46" x2="291" y2="44" stroke="black" stroke-width="1" />
<rect x="232" y="42" width="47" height="5" style="fill:#f5b024;stroke:black;stroke-width:1;fill-opacity:1;stroke-opacity:0.3" />
<rect x="291" y="42" width="47" height="5" style="fill:#f5b024;stroke:black;stroke-width:1;fill-opacity:1;stroke-opacity:0.3" />
<line x1="321" y1="30" x2="329" y2="32" stroke="black" stroke-width="1" />
<line x1="329" y1="32" x2="337" y2="30" stroke="black" stroke-width="1" />
<rect x="274" y="28" width="47" height="5" style="fill:#f5b024;stroke:black;stroke-width:1;fill-opacity:1;stroke-opacity:0.3" />
<rect x="337" y="28" width="47" height="5" style="fill:#f5b024;stroke:black;stroke-width:1;fill-opacity:1;stroke-opacity:0.3" />
<line x1="320" y1="37" x2="327" y2="39" stroke="black" stroke-width="1" />
<line x1="327" y1="39" x2="334" y2="37" stroke="black" stroke-width="1" />
<rect x="275" y="35" width="45" height="5" style="fill:#f5b024;stroke:black;stroke-width:1;fill-opacity:1;stroke-opacity:0.3" />
<rect x="334" y="35" width="47" height="5" style="fill:#f5b024;stroke:black;stroke-width:1;fill-opacity:1;stroke-opacity:0.3" />
<line x1="323" y1="51" x2="326" y2="53" stroke="black" stroke-width="1" />
<line x1="326" y1="53" x2="329" y2="51" stroke="black" stroke-width="1" />
<rect x="275" y="49" width="47" height="5" style="fill:#f5b024;stroke:black;stroke-width:1;fill-opacity:1;stroke-opacity:0.3" />
<rect x="329" y="49" width="47" height="5" style="fill:#f5b024;stroke:black;stroke-width:1;fill-opacity:1;stroke-opacity:0.3" />
<line x1="327" y1="58" x2="336" y2="60" stroke="black" stroke-width="1" />
<line x1="336" y1="60" x2="346" y2="58" stroke="black" stroke-width="1" />
<rect x="280" y="56" width="46" height="5" style="fill:#f5b024;stroke:black;stroke-width:1;fill-opacity:1;stroke-opacity:0.3" />
<rect x="346" y="56" width="43" height="5" style="fill:#f5b024;stroke:black;stroke-width:1;fill-opacity:1;stroke-opacity:0.3" />
<line x1="327" y1="65" x2="335" y2="67" stroke="black" stroke-width="1" />
<line x1="335" y1="67" x2="343" y2="65" stroke="black" stroke-width="1" />
<rect x="280" y="63" width="46" height="5" style="fill:#f5b024;stroke:black;stroke-width:1;fill-opacity:1;stroke-opacity:0.3" />
<rect x="343" y="63" width="46" height="5" style="fill:#f5b024;stroke:black;stroke-width:1;fill-opacity:1;stroke-opacity:0.3" />
<line x1="337" y1="79" x2="344" y2="81" stroke="black" stroke-width="1" />
<line x1="344" y1="81" x2="352" y2="79" stroke="black" stroke-width="1" />
<rect x="290" y="77" width="47" height="5" style="fill:#f5b024;stroke:black;stroke-width:1;fill-opacity:1;stroke-opacity:0.3" />
<rect x="352" y="77" width="47" height="5" style="fill:#f5b024;stroke:black;stroke-width:1;fill-opacity:1;stroke-opacity:0.3" />
<line x1="361" y1="86" x2="369" y2="88" stroke="black" stroke-width="1" />
<line x1="369" y1="88" x2="377" y2="86" stroke="black" stroke-width="1" />
<rect x="290" y="84" width="70" height="5" style="fill:#f5b024;stroke:black;stroke-width:1;fill-opacity:1;stroke-opacity:0.3" />
<rect x="377" y="84" width="70" height="5" style="fill:#f5b024;stroke:black;stroke-width:1;fill-opacity:1;stroke-opacity:0.3" />
<line x1="338" y1="107" x2="342" y2="109" stroke="black" stroke-width="1" />
<line x1="342" y1="109" x2="346" y2="107" stroke="black" stroke-width="1" />
<rect x="291" y="105" width="47" height="5" style="fill:#f5b024;stroke:black;stroke-width:1;fill-opacity:1;stroke-opacity:0.3" />
<rect x="346" y="105" width="47" height="5" style="fill:#f5b024;stroke:black;stroke-width:1;fill-opacity:1;stroke-opacity:0.3" />
<line x1="369" y1="100" x2="372" y2="102" stroke="black" stroke-width="1" />
<line x1="372" y1="102" x2="375" y2="100" stroke="black" stroke-width="1" />
<rect x="298" y="98" width="70" height="5" style="fill:#f5b024;stroke:black;stroke-width:1;fill-opacity:1;stroke-opacity:0.3" />
<rect x="375" y="98" width="70" height="5" style="fill:#f5b024;stroke:black;stroke-width:1;fill-opacity:1;stroke-opacity:0.3" />
<line x1="346" y1="114" x2="348" y2="116" stroke="black" stroke-width="1" />
<line x1="348" y1="116" x2="351" y2="114" stroke="black" stroke-width="1" />
<rect x="299" y="112" width="47" height="5" style="fill:#f5b024;stroke:black;stroke-width:1;fill-opacity:1;stroke-opacity:0.3" />
<rect x="351" y="112" width="47" height="5" style="fill:#f5b024;stroke:black;stroke-width:1;fill-opacity:1;stroke-opacity:0.3" />
<line x1="370" y1="121" x2="394" y2="123" stroke="black" stroke-width="1" />
<line x1="394" y1="123" x2="418" y2="121" stroke="black" stroke-width="1" />
<rect x="300" y="119" width="70" height="5" style="fill:#f5b024;stroke:black;stroke-width:1;fill-opacity:1;stroke-opacity:0.3" />
<rect x="418" y="119" width="70" height="5" style="fill:#f5b024;stroke:black;stroke-width:1;fill-opacity:1;stroke-opacity:0.3" />
<line x1="374" y1="128" x2="379" y2="130" stroke="black" stroke-width="1" />
<line x1="379" y1="130" x2="384" y2="128" stroke="black" stroke-width="1" />
<rect x="303" y="126" width="70" height="5" style="fill:#f5b024;stroke:black;stroke-width:1;fill-opacity:1;stroke-opacity:0.3" />
<rect x="384" y="126" width="70" height="5" style="fill:#f5b024;stroke:black;stroke-width:1;fill-opacity:1;stroke-opacity:0.3" />
<line x1="374" y1="135" x2="379" y2="137" stroke="black" stroke-width="1" />
<line x1="379" y1="137" x2="384" y2="135" stroke="black" stroke-width="1" />
<rect x="303" y="133" width="70" height="5" style="fill:#f5b024;stroke:black;stroke-width:1;fill-opacity:1;stroke-opacity:0.3" />
<rect x="384" y="133" width="70" height="5" style="fill:#f5b024;stroke:black;stroke-width:1;fill-opacity:1;stroke-opacity:0.3" />
<line x1="375" y1="156" x2="382" y2="158" stroke="black" stroke-width="1" />
<line x1="382" y1="158" x2="390" y2="156" stroke="black" stroke-width="1" />
<rect x="306" y="154" width="68" height="5" style="fill:#5d3c2d;stroke:black;stroke-width:1;fill-opacity:1;stroke-opacity:0.3" />
<rect x="390" y="154" width="64" height="5" style="fill:#5d3c2d;stroke:black;stroke-width:1;fill-opacity:1;stroke-opacity:0.3" />
<line x1="362" y1="163" x2="366" y2="165" stroke="black" stroke-width="1" />
<line x1="366" y1="165" x2="371" y2="163" stroke="black" stroke-width="1" />
<rect x="315" y="161" width="47" height="5" style="fill:#f5b024;stroke:black;stroke-width:1;fill-opacity:1;stroke-opacity:0.3" />
<rect x="371" y="161" width="47" height="5" style="fill:#f5b024;stroke:black;stroke-width:1;fill-opacity:1;stroke-opacity:0.3" />
<line x1="369" y1="142" x2="381" y2="144" stroke="black" stroke-width="1" />
<line x1="381" y1="144" x2="393" y2="142" stroke="black" stroke-width="1" />
<rect x="322" y="140" width="47" height="5" style="fill:#f5b024;stroke:black;stroke-width:1;fill-opacity:1;stroke-opacity:0.3" />
<rect x="393" y="140" width="47" height="5" style="fill:#f5b024;stroke:black;stroke-width:1;fill-opacity:1;stroke-opacity:0.3" />
<line x1="408" y1="44" x2="418" y2="46" stroke="black" stroke-width="1" />
<line x1="418" y1="46" x2="429" y2="44" stroke="black" stroke-width="1" />
<rect x="338" y="42" width="69" height="5" style="fill:#f5b024;stroke:black;stroke-width:1;fill-opacity:1;stroke-opacity:0.3" />
<rect x="429" y="42" width="68" height="5" style="fill:#f5b024;stroke:black;stroke-width:1;fill-opacity:1;stroke-opacity:0.3" />
<line x1="395" y1="72" x2="398" y2="74" stroke="black" stroke-width="1" />
<line x1="398" y1="74" x2="402" y2="72" stroke="black" stroke-width="1" />
<rect x="348" y="70" width="47" height="5" style="fill:#f5b024;stroke:black;stroke-width:1;fill-opacity:1;stroke-opacity:0.3" />
<rect x="402" y="70" width="47" height="5" style="fill:#f5b024;stroke:black;stroke-width:1;fill-opacity:1;stroke-opacity:0.3" />
<line x1="395" y1="93" x2="407" y2="95" stroke="black" stroke-width="1" />
<line x1="407" y1="95" x2="419" y2="93" stroke="black" stroke-width="1" />
<rect x="348" y="91" width="46" height="5" style="fill:#f5b024;stroke:black;stroke-width:1;fill-opacity:1;stroke-opacity:0.3" />
<rect x="419" y="91" width="47" height="5" style="fill:#f5b024;stroke:black;stroke-width:1;fill-opacity:1;stroke-opacity:0.3" />
<line x1="395" y1="149" x2="407" y2="151" stroke="black" stroke-width="1" />
<line x1="407" y1="151" x2="419" y2="149" stroke="black" stroke-width="1" />
<rect x="348" y="147" width="46" height="5" style="fill:#f5b024;stroke:black;stroke-width:1;fill-opacity:1;stroke-opacity:0.3" />
<rect x="419" y="147" width="47" height="5" style="fill:#f5b024;stroke:black;stroke-width:1;fill-opacity:1;stroke-opacity:0.3" />
<line x1="427" y1="51" x2="446" y2="53" stroke="black" stroke-width="1" />
<line x1="446" y1="53" x2="466" y2="51" stroke="black" stroke-width="1" />
<rect x="379" y="49" width="47" height="5" style="fill:#f5b024;stroke:black;stroke-width:1;fill-opacity:1;stroke-opacity:0.3" />
<rect x="466" y="49" width="47" height="5" style="fill:#f5b024;stroke:black;stroke-width:1;fill-opacity:1;stroke-opacity:0.3" />
<line x1="429" y1="37" x2="431" y2="39" stroke="black" stroke-width="1" />
<line x1="431" y1="39" x2="434" y2="37" stroke="black" stroke-width="1" />
<rect x="382" y="35" width="47" height="5" style="fill:#f5b024;stroke:black;stroke-width:1;fill-opacity:1;stroke-opacity:0.3" />
<rect x="434" y="35" width="47" height="5" style="fill:#f5b024;stroke:black;stroke-width:1;fill-opacity:1;stroke-opacity:0.3" />
<line x1="434" y1="30" x2="439" y2="32" stroke="black" stroke-width="1" />
<line x1="439" y1="32" x2="445" y2="30" stroke="black" stroke-width="1" />
<rect x="387" y="28" width="47" height="5" style="fill:#5d3c2d;stroke:black;stroke-width:1;fill-opacity:1;stroke-opacity:0.3" />
<rect x="445" y="28" width="45" height="5" style="fill:#5d3c2d;stroke:black;stroke-width:1;fill-opacity:1;stroke-opacity:0.3" />
<line x1="444" y1="58" x2="456" y2="60" stroke="black" stroke-width="1" />
<line x1="456" y1="60" x2="469" y2="58" stroke="black" stroke-width="1" />
<rect x="396" y="56" width="47" height="5" style="fill:#f5b024;stroke:black;stroke-width:1;fill-opacity:1;stroke-opacity:0.3" />
<rect x="469" y="56" width="47" height="5" style="fill:#f5b024;stroke:black;stroke-width:1;fill-opacity:1;stroke-opacity:0.3" />
<line x1="449" y1="65" x2="460" y2="67" stroke="black" stroke-width="1" />
<line x1="460" y1="67" x2="472" y2="65" stroke="black" stroke-width="1" />
<rect x="402" y="63" width="47" height="5" style="fill:#f5b024;stroke:black;stroke-width:1;fill-opacity:1;stroke-opacity:0.3" />
<rect x="472" y="63" width="47" height="5" style="fill:#f5b024;stroke:black;stroke-width:1;fill-opacity:1;stroke-opacity:0.3" />
<line x1="450" y1="79" x2="464" y2="81" stroke="black" stroke-width="1" />
<line x1="464" y1="81" x2="478" y2="79" stroke="black" stroke-width="1" />
<rect x="403" y="77" width="46" height="5" style="fill:#f5b024;stroke:black;stroke-width:1;fill-opacity:1;stroke-opacity:0.3" />
<rect x="478" y="77" width="47" height="5" style="fill:#f5b024;stroke:black;stroke-width:1;fill-opacity:1;stroke-opacity:0.3" />
<line x1="450" y1="107" x2="464" y2="109" stroke="black" stroke-width="1" />
<line x1="464" y1="109" x2="478" y2="107" stroke="black" stroke-width="1" />
<rect x="403" y="105" width="46" height="5" style="fill:#f5b024;stroke:black;stroke-width:1;fill-opacity:1;stroke-opacity:0.3" />
<rect x="478" y="105" width="47" height="5" style="fill:#f5b024;stroke:black;stroke-width:1;fill-opacity:1;stroke-opacity:0.3" />
<line x1="452" y1="114" x2="466" y2="116" stroke="black" stroke-width="1" />
<line x1="466" y1="116" x2="481" y2="114" stroke="black" stroke-width="1" />
<rect x="405" y="112" width="47" height="5" style="fill:#f5b024;stroke:black;stroke-width:1;fill-opacity:1;stroke-opacity:0.3" />
<rect x="481" y="112" width="47" height="5" style="fill:#f5b024;stroke:black;stroke-width:1;fill-opacity:1;stroke-opacity:0.3" />
<line x1="466" y1="163" x2="477" y2="165" stroke="black" stroke-width="1" />
<line x1="477" y1="165" x2="488" y2="163" stroke="black" stroke-width="1" />
<rect x="419" y="161" width="47" height="5" style="fill:#f5b024;stroke:black;stroke-width:1;fill-opacity:1;stroke-opacity:0.3" />
<rect x="488" y="161" width="47" height="5" style="fill:#f5b024;stroke:black;stroke-width:1;fill-opacity:1;stroke-opacity:0.3" />
<line x1="491" y1="142" x2="495" y2="144" stroke="black" stroke-width="1" />
<line x1="495" y1="144" x2="499" y2="142" stroke="black" stroke-width="1" />
<rect x="444" y="140" width="46" height="5" style="fill:#f5b024;stroke:black;stroke-width:1;fill-opacity:1;stroke-opacity:0.3" />
<rect x="499" y="140" width="38" height="5" style="fill:#f5b024;stroke:black;stroke-width:1;fill-opacity:1;stroke-opacity:0.3" />
<line x1="537" y1="142" x2="608" y2="142" stroke="pink" stroke-width="1" />
<rect x="608" y="140" width="8" height="5" style="fill:#f5b024;stroke:black;stroke-width:1;fill-opacity:1;stroke-opacity:0.3" />
<line x1="493" y1="100" x2="498" y2="102" stroke="black" stroke-width="1" />
<line x1="498" y1="102" x2="504" y2="100" stroke="black" stroke-width="1" />
<rect x="446" y="98" width="46" height="5" style="fill:#f5b024;stroke:black;stroke-width:1;fill-opacity:1;stroke-opacity:0.3" />
<rect x="504" y="98" width="33" height="5" style="fill:#f5b024;stroke:black;stroke-width:1;fill-opacity:1;stroke-opacity:0.3" />
<line x1="537" y1="100" x2="608" y2="100" stroke="pink" stroke-width="1" />
<rect x="608" y="98" width="13" height="5" style="fill:#f5b024;stroke:black;stroke-width:1;fill-opacity:1;stroke-opacity:0.3" />
<line x1="500" y1="72" x2="514" y2="74" stroke="black" stroke-width="1" />
<line x1="514" y1="74" x2="528" y2="72" stroke="black" stroke-width="1" />
<rect x="453" y="70" width="47" height="5" style="fill:#f5b024;stroke:black;stroke-width:1;fill-opacity:1;stroke-opacity:0.3" />
<rect x="528" y="70" width="9" height="5" style="fill:#f5b024;stroke:black;stroke-width:1;fill-opacity:1;stroke-opacity:0.3" />
<line x1="537" y1="72" x2="608" y2="72" stroke="pink" stroke-width="1" />
<rect x="608" y="70" width="37" height="5" style="fill:#f5b024;stroke:black;stroke-width:1;fill-opacity:1;stroke-opacity:0.3" />
<line x1="507" y1="86" x2="563" y2="88" stroke="black" stroke-width="1" />
<line x1="563" y1="88" x2="619" y2="86" stroke="black" stroke-width="1" />
<rect x="460" y="84" width="47" height="5" style="fill:#f5b024;stroke:black;stroke-width:1;fill-opacity:1;stroke-opacity:0.3" />
<rect x="619" y="84" width="26" height="5" style="fill:#f5b024;stroke:black;stroke-width:1;fill-opacity:1;stroke-opacity:0.3" />
<line x1="646" y1="86" x2="759" y2="86" stroke="pink" stroke-width="1" />
<rect x="759" y="84" width="20" height="5" style="fill:#f5b024;stroke:black;stroke-width:1;fill-opacity:1;stroke-opacity:0.3" />
<line x1="508" y1="128" x2="518" y2="130" stroke="black" stroke-width="1" />
<line x1="518" y1="130" x2="528" y2="128" stroke="black" stroke-width="1" />
<rect x="462" y="126" width="46" height="5" style="fill:#f5b024;stroke:black;stroke-width:1;fill-opacity:1;stroke-opacity:0.3" />
<rect x="528" y="126" width="9" height="5" style="fill:#f5b024;stroke:black;stroke-width:1;fill-opacity:1;stroke-opacity:0.3" />
<line x1="537" y1="128" x2="608" y2="128" stroke="pink" stroke-width="1" />
<rect x="608" y="126" width="37" height="5" style="fill:#f5b024;stroke:black;stroke-width:1;fill-opacity:1;stroke-opacity:0.3" />
<line x1="513" y1="93" x2="516" y2="95" stroke="black" stroke-width="1" />
<line x1="516" y1="95" x2="520" y2="93" stroke="black" stroke-width="1" />
<rect x="466" y="91" width="47" height="5" style="fill:#f5b024;stroke:black;stroke-width:1;fill-opacity:1;stroke-opacity:0.3" />
<rect x="520" y="91" width="17" height="5" style="fill:#f5b024;stroke:black;stroke-width:1;fill-opacity:1;stroke-opacity:0.3" />
<line x1="537" y1="93" x2="608" y2="93" stroke="pink" stroke-width="1" />
<rect x="608" y="91" width="30" height="5" style="fill:#f5b024;stroke:black;stroke-width:1;fill-opacity:1;stroke-opacity:0.3" />
<line x1="513" y1="135" x2="569" y2="137" stroke="black" stroke-width="1" />
<line x1="569" y1="137" x2="625" y2="135" stroke="black" stroke-width="1" />
<rect x="466" y="133" width="47" height="5" style="fill:#f5b024;stroke:black;stroke-width:1;fill-opacity:1;stroke-opacity:0.3" />
<rect x="625" y="133" width="20" height="5" style="fill:#f5b024;stroke:black;stroke-width:1;fill-opacity:1;stroke-opacity:0.3" />
<line x1="646" y1="135" x2="759" y2="135" stroke="pink" stroke-width="1" />
<rect x="759" y="133" width="26" height="5" style="fill:#f5b024;stroke:black;stroke-width:1;fill-opacity:1;stroke-opacity:0.3" />
<line x1="514" y1="149" x2="521" y2="151" stroke="black" stroke-width="1" />
<line x1="521" y1="151" x2="528" y2="149" stroke="black" stroke-width="1" />
<rect x="466" y="147" width="47" height="5" style="fill:#f5b024;stroke:black;stroke-width:1;fill-opacity:1;stroke-opacity:0.3" />
<rect x="528" y="147" width="9" height="5" style="fill:#f5b024;stroke:black;stroke-width:1;fill-opacity:1;stroke-opacity:0.3" />
<line x1="537" y1="149" x2="608" y2="149" stroke="pink" stroke-width="1" />
<rect x="608" y="147" width="37" height="5" style="fill:#f5b024;stroke:black;stroke-width:1;fill-opacity:1;stroke-opacity:0.3" />
<line x1="514" y1="156" x2="522" y2="158" stroke="black" stroke-width="1" />
<line x1="522" y1="158" x2="530" y2="156" stroke="black" stroke-width="1" />
<rect x="466" y="154" width="47" height="5" style="fill:#f5b024;stroke:black;stroke-width:1;fill-opacity:1;stroke-opacity:0.3" />
<rect x="530" y="154" width="7" height="5" style="fill:#f5b024;stroke:black;stroke-width:1;fill-opacity:1;stroke-opacity:0.3" />
<line x1="537" y1="156" x2="608" y2="156" stroke="pink" stroke-width="1" />
<rect x="608" y="154" width="38" height="5" style="fill:#f5b024;stroke:black;stroke-width:1;fill-opacity:1;stroke-opacity:0.3" />
<line x1="646" y1="156" x2="759" y2="156" stroke="pink" stroke-width="1" />
<rect x="759" y="154" width="1" height="5" style="fill:#f5b024;stroke:black;stroke-width:1;fill-opacity:1;stroke-opacity:0.3" />
<line x1="530" y1="37" x2="574" y2="39" stroke="black" stroke-width="1" />
<line x1="574" y1="39" x2="619" y2="37" stroke="black" stroke-width="1" />
<rect x="482" y="35" width="47" height="5" style="fill:#f5b024;stroke:black;stroke-width:1;fill-opacity:1;stroke-opacity:0.3" />
<rect x="619" y="35" width="27" height="5" style="fill:#f5b024;stroke:black;stroke-width:1;fill-opacity:1;stroke-opacity:0.3" />
<line x1="646" y1="37" x2="759" y2="37" stroke="pink" stroke-width="1" />
<rect x="759" y="35" width="19" height="5" style="fill:#f5b024;stroke:black;stroke-width:1;fill-opacity:1;stroke-opacity:0.3" />
<line x1="536" y1="121" x2="574" y2="123" stroke="black" stroke-width="1" />
<line x1="574" y1="123" x2="612" y2="121" stroke="black" stroke-width="1" />
<rect x="489" y="119" width="47" height="5" style="fill:#f5b024;stroke:black;stroke-width:1;fill-opacity:1;stroke-opacity:0.3" />
<rect x="612" y="119" width="34" height="5" style="fill:#f5b024;stroke:black;stroke-width:1;fill-opacity:1;stroke-opacity:0.3" />
<line x1="646" y1="121" x2="759" y2="121" stroke="pink" stroke-width="1" />
<rect x="759" y="119" width="13" height="5" style="fill:#f5b024;stroke:black;stroke-width:1;fill-opacity:1;stroke-opacity:0.3" />
<line x1="538" y1="30" x2="578" y2="32" stroke="black" stroke-width="1" />
<line x1="578" y1="32" x2="619" y2="30" stroke="black" stroke-width="1" />
<rect x="491" y="28" width="46" height="5" style="fill:#f5b024;stroke:black;stroke-width:1;fill-opacity:1;stroke-opacity:0.3" />
<rect x="619" y="28" width="27" height="5" style="fill:#f5b024;stroke:black;stroke-width:1;fill-opacity:1;stroke-opacity:0.3" />
<line x1="646" y1="30" x2="759" y2="30" stroke="pink" stroke-width="1" />
<rect x="759" y="28" width="19" height="5" style="fill:#f5b024;stroke:black;stroke-width:1;fill-opacity:1;stroke-opacity:0.3" />
<line x1="615" y1="44" x2="628" y2="46" stroke="black" stroke-width="1" />
<line x1="628" y1="46" x2="642" y2="44" stroke="black" stroke-width="1" />
<rect x="498" y="42" width="39" height="5" style="fill:#f5b024;stroke:black;stroke-width:1;fill-opacity:1;stroke-opacity:0.3" />
<line x1="537" y1="44" x2="608" y2="44" stroke="pink" stroke-width="1" />
<rect x="608" y="42" width="7" height="5" style="fill:#f5b024;stroke:black;stroke-width:1;fill-opacity:1;stroke-opacity:0.3" />
<rect x="642" y="42" width="3" height="5" style="fill:#f5b024;stroke:black;stroke-width:1;fill-opacity:1;stroke-opacity:0.3" />
<line x1="646" y1="44" x2="759" y2="44" stroke="pink" stroke-width="1" />
<rect x="759" y="42" width="43" height="5" style="fill:#f5b024;stroke:black;stroke-width:1;fill-opacity:1;stroke-opacity:0.3" />
<line x1="633" y1="51" x2="698" y2="53" stroke="black" stroke-width="1" />
<line x1="698" y1="53" x2="764" y2="51" stroke="black" stroke-width="1" />
<rect x="515" y="49" width="22" height="5" style="fill:#f5b024;stroke:black;stroke-width:1;fill-opacity:1;stroke-opacity:0.3" />
<line x1="537" y1="51" x2="608" y2="51" stroke="pink" stroke-width="1" />
<rect x="608" y="49" width="25" height="5" style="fill:#f5b024;stroke:black;stroke-width:1;fill-opacity:1;stroke-opacity:0.3" />
<rect x="764" y="49" width="47" height="5" style="fill:#f5b024;stroke:black;stroke-width:1;fill-opacity:1;stroke-opacity:0.3" />
<line x1="641" y1="58" x2="709" y2="60" stroke="black" stroke-width="1" />
<line x1="709" y1="60" x2="777" y2="58" stroke="black" stroke-width="1" />
<rect x="524" y="56" width="13" height="5" style="fill:#f5b024;stroke:black;stroke-width:1;fill-opacity:1;stroke-opacity:0.3" />
<line x1="537" y1="58" x2="608" y2="58" stroke="pink" stroke-width="1" />
<rect x="608" y="56" width="33" height="5" style="fill:#f5b024;stroke:black;stroke-width:1;fill-opacity:1;stroke-opacity:0.3" />
<rect x="777" y="56" width="47" height="5" style="fill:#f5b024;stroke:black;stroke-width:1;fill-opacity:1;stroke-opacity:0.3" />
<line x1="641" y1="65" x2="702" y2="67" stroke="black" stroke-width="1" />
<line x1="702" y1="67" x2="764" y2="65" stroke="black" stroke-width="1" />
<rect x="524" y="63" width="13" height="5" style="fill:#f5b024;stroke:black;stroke-width:1;fill-opacity:1;stroke-opacity:0.3" />
<line x1="537" y1="65" x2="608" y2="65" stroke="pink" stroke-width="1" />
<rect x="608" y="63" width="33" height="5" style="fill:#f5b024;stroke:black;stroke-width:1;fill-opacity:1;stroke-opacity:0.3" />
<rect x="764" y="63" width="47" height="5" style="fill:#f5b024;stroke:black;stroke-width:1;fill-opacity:1;stroke-opacity:0.3" />
<line x1="647" y1="79" x2="705" y2="81" stroke="black" stroke-width="1" />
<line x1="705" y1="81" x2="764" y2="79" stroke="black" stroke-width="1" />
<rect x="529" y="77" width="8" height="5" style="fill:#f5b024;stroke:black;stroke-width:1;fill-opacity:1;stroke-opacity:0.3" />
<line x1="537" y1="79" x2="608" y2="79" stroke="pink" stroke-width="1" />
<rect x="608" y="77" width="39" height="5" style="fill:#f5b024;stroke:black;stroke-width:1;fill-opacity:1;stroke-opacity:0.3" />
<rect x="764" y="77" width="47" height="5" style="fill:#f5b024;stroke:black;stroke-width:1;fill-opacity:1;stroke-opacity:0.3" />
<line x1="629" y1="107" x2="693" y2="109" stroke="black" stroke-width="1" />
<line x1="693" y1="109" x2="758" y2="107" stroke="black" stroke-width="1" />
<rect x="582" y="105" width="46" height="5" style="fill:#f5b024;stroke:black;stroke-width:1;fill-opacity:1;stroke-opacity:0.3" />
<rect x="758" y="105" width="43" height="5" style="fill:#f5b024;stroke:black;stroke-width:1;fill-opacity:1;stroke-opacity:0.3" />
<line x1="767" y1="114" x2="773" y2="116" stroke="black" stroke-width="1" />
<line x1="773" y1="116" x2="780" y2="114" stroke="black" stroke-width="1" />
<rect x="607" y="112" width="38" height="5" style="fill:#f5b024;stroke:black;stroke-width:1;fill-opacity:1;stroke-opacity:0.3" />
<line x1="646" y1="114" x2="759" y2="114" stroke="pink" stroke-width="1" />
<rect x="759" y="112" width="8" height="5" style="fill:#f5b024;stroke:black;stroke-width:1;fill-opacity:1;stroke-opacity:0.3" />
<rect x="780" y="112" width="47" height="5" style="fill:#f5b024;stroke:black;stroke-width:1;fill-opacity:1;stroke-opacity:0.3" />
<line x1="773" y1="163" x2="777" y2="165" stroke="black" stroke-width="1" />
<line x1="777" y1="165" x2="781" y2="163" stroke="black" stroke-width="1" />
<rect x="613" y="161" width="33" height="5" style="fill:#f5b024;stroke:black;stroke-width:1;fill-opacity:1;stroke-opacity:0.3" />
<line x1="646" y1="163" x2="759" y2="163" stroke="pink" stroke-width="1" />
<rect x="759" y="161" width="14" height="5" style="fill:#f5b024;stroke:black;stroke-width:1;fill-opacity:1;stroke-opacity:0.3" />
<rect x="781" y="161" width="47" height="5" style="fill:#f5b024;stroke:black;stroke-width:1;fill-opacity:1;stroke-opacity:0.3" />
<line x1="778" y1="142" x2="784" y2="144" stroke="black" stroke-width="1" />
<line x1="784" y1="144" x2="790" y2="142" stroke="black" stroke-width="1" />
<rect x="619" y="140" width="27" height="5" style="fill:#f5b024;stroke:black;stroke-width:1;fill-opacity:1;stroke-opacity:0.3" />
<line x1="646" y1="142" x2="759" y2="142" stroke="pink" stroke-width="1" />
<rect x="759" y="140" width="19" height="5" style="fill:#f5b024;stroke:black;stroke-width:1;fill-opacity:1;stroke-opacity:0.3" />
<rect x="790" y="140" width="47" height="5" style="fill:#f5b024;stroke:black;stroke-width:1;fill-opacity:1;stroke-opacity:0.3" />
<line x1="792" y1="100" x2="794" y2="102" stroke="black" stroke-width="1" />
<line x1="794" y1="102" x2="797" y2="100" stroke="black" stroke-width="1" />
<rect x="631" y="98" width="14" height="5" style="fill:#f5b024;stroke:black;stroke-width:1;fill-opacity:1;stroke-opacity:0.3" />
<line x1="646" y1="100" x2="759" y2="100" stroke="pink" stroke-width="1" />
<rect x="759" y="98" width="32" height="5" style="fill:#f5b024;stroke:black;stroke-width:1;fill-opacity:1;stroke-opacity:0.3" />
<rect x="797" y="98" width="47" height="5" style="fill:#f5b024;stroke:black;stroke-width:1;fill-opacity:1;stroke-opacity:0.3" />
<line x1="798" y1="93" x2="805" y2="95" stroke="black" stroke-width="1" />
<line x1="805" y1="95" x2="812" y2="93" stroke="black" stroke-width="1" />
<rect x="638" y="91" width="8" height="5" style="fill:#f5b024;stroke:black;stroke-width:1;fill-opacity:1;stroke-opacity:0.3" />
<line x1="646" y1="93" x2="759" y2="93" stroke="pink" stroke-width="1" />
<rect x="759" y="91" width="39" height="5" style="fill:#f5b024;stroke:black;stroke-width:1;fill-opacity:1;stroke-opacity:0.3" />
<rect x="812" y="91" width="47" height="5" style="fill:#f5b024;stroke:black;stroke-width:1;fill-opacity:1;stroke-opacity:0.3" />
<line x1="806" y1="72" x2="812" y2="74" stroke="black" stroke-width="1" />
<line x1="812" y1="74" x2="819" y2="72" stroke="black" stroke-width="1" />
<rect x="646" y="70" width="0" height="5" style="fill:#f5b024;stroke:black;stroke-width:1;fill-opacity:1;stroke-opacity:0.3" />
<line x1="646" y1="72" x2="759" y2="72" stroke="pink" stroke-width="1" />
<rect x="759" y="70" width="46" height="5" style="fill:#f5b024;stroke:black;stroke-width:1;fill-opacity:1;stroke-opacity:0.3" />
<rect x="819" y="70" width="47" height="5" style="fill:#f5b024;stroke:black;stroke-width:1;fill-opacity:1;stroke-opacity:0.3" />
<line x1="703" y1="128" x2="714" y2="130" stroke="black" stroke-width="1" />
<line x1="714" y1="130" x2="725" y2="128" stroke="black" stroke-width="1" />
<rect x="656" y="126" width="47" height="5" style="fill:#f5b024;stroke:black;stroke-width:1;fill-opacity:1;stroke-opacity:0.3" />
<rect x="725" y="126" width="47" height="5" style="fill:#f5b024;stroke:black;stroke-width:1;fill-opacity:1;stroke-opacity:0.3" />
<line x1="724" y1="149" x2="727" y2="151" stroke="black" stroke-width="1" />
<line x1="727" y1="151" x2="731" y2="149" stroke="black" stroke-width="1" />
<rect x="677" y="147" width="47" height="5" style="fill:#f5b024;stroke:black;stroke-width:1;fill-opacity:1;stroke-opacity:0.3" />
<rect x="731" y="147" width="47" height="5" style="fill:#f5b024;stroke:black;stroke-width:1;fill-opacity:1;stroke-opacity:0.3" />
<line x1="809" y1="156" x2="826" y2="158" stroke="black" stroke-width="1" />
<line x1="826" y1="158" x2="844" y2="156" stroke="black" stroke-width="1" />
<rect x="761" y="154" width="47" height="5" style="fill:#f5b024;stroke:black;stroke-width:1;fill-opacity:1;stroke-opacity:0.3" />
<rect x="844" y="154" width="47" height="5" style="fill:#f5b024;stroke:black;stroke-width:1;fill-opacity:1;stroke-opacity:0.3" />
<line x1="820" y1="121" x2="823" y2="123" stroke="black" stroke-width="1" />
<line x1="823" y1="123" x2="826" y2="121" stroke="black" stroke-width="1" />
<rect x="775" y="119" width="45" height="5" style="fill:#f5b024;stroke:black;stroke-width:1;fill-opacity:1;stroke-opacity:0.3" />
<rect x="826" y="119" width="47" height="5" style="fill:#f5b024;stroke:black;stroke-width:1;fill-opacity:1;stroke-opacity:0.3" />
<line x1="822" y1="128" x2="832" y2="130" stroke="black" stroke-width="1" />
<line x1="832" y1="130" x2="843" y2="128" stroke="black" stroke-width="1" />
<rect x="775" y="126" width="47" height="5" style="fill:#f5b024;stroke:black;stroke-width:1;fill-opacity:1;stroke-opacity:0.3" />
<rect x="843" y="126" width="47" height="5" style="fill:#f5b024;stroke:black;stroke-width:1;fill-opacity:1;stroke-opacity:0.3" />
<line x1="854" y1="30" x2="859" y2="32" stroke="black" stroke-width="1" />
<line x1="859" y1="32" x2="864" y2="30" stroke="black" stroke-width="1" />
<rect x="783" y="28" width="70" height="5" style="fill:#f5b024;stroke:black;stroke-width:1;fill-opacity:1;stroke-opacity:0.3" />
<rect x="864" y="28" width="70" height="5" style="fill:#f5b024;stroke:black;stroke-width:1;fill-opacity:1;stroke-opacity:0.3" />
<line x1="834" y1="37" x2="837" y2="39" stroke="black" stroke-width="1" />
<line x1="837" y1="39" x2="840" y2="37" stroke="black" stroke-width="1" />
<rect x="788" y="35" width="45" height="5" style="fill:#f5b024;stroke:black;stroke-width:1;fill-opacity:1;stroke-opacity:0.3" />
<rect x="840" y="35" width="47" height="5" style="fill:#f5b024;stroke:black;stroke-width:1;fill-opacity:1;stroke-opacity:0.3" />
<line x1="836" y1="86" x2="845" y2="88" stroke="black" stroke-width="1" />
<line x1="845" y1="88" x2="854" y2="86" stroke="black" stroke-width="1" />
<rect x="788" y="84" width="47" height="5" style="fill:#f5b024;stroke:black;stroke-width:1;fill-opacity:1;stroke-opacity:0.3" />
<rect x="854" y="84" width="47" height="5" style="fill:#f5b024;stroke:black;stroke-width:1;fill-opacity:1;stroke-opacity:0.3" />
<line x1="851" y1="44" x2="856" y2="46" stroke="black" stroke-width="1" />
<line x1="856" y1="46" x2="861" y2="44" stroke="black" stroke-width="1" />
<rect x="804" y="42" width="47" height="5" style="fill:#f5b024;stroke:black;stroke-width:1;fill-opacity:1;stroke-opacity:0.3" />
<rect x="861" y="42" width="47" height="5" style="fill:#f5b024;stroke:black;stroke-width:1;fill-opacity:1;stroke-opacity:0.3" />
<text x="15"  y="176" style="font-family:Arial;font-size:10;stroke:black;fill:black;">all.merged.bam</text>
</svg>
    
