<?xml version="1.0" encoding="utf-8" standalone="no"?>
<!DOCTYPE svg PUBLIC "-//W3C//DTD SVG 1.1//EN"
  "http://www.w3.org/Graphics/SVG/1.1/DTD/svg11.dtd">
<svg height="1140" width="1000" version="1.1" viewBox="0 0 1000 1140" xmlns="http://www.w3.org/2000/svg" xmlns:xlink="http://www.w3.org/1999/xlink">
<line x1="111" y1="11" x2="887" y2="11" stroke="black" stroke-width="1" />
<rect x="111" y="9" width="241" height="5" style="fill:#f50002;stroke:black;stroke-width:1;fill-opacity:1;stroke-opacity:0.3" />
<rect x="354" y="9" width="120" height="5" style="fill:#53a1b5;stroke:black;stroke-width:1;fill-opacity:1;stroke-opacity:0.3" />
<rect x="659" y="9" width="51" height="5" style="fill:#53a1b5;stroke:black;stroke-width:1;fill-opacity:1;stroke-opacity:0.3" />
<rect x="807" y="9" width="22" height="5" style="fill:#53a1b5;stroke:black;stroke-width:1;fill-opacity:1;stroke-opacity:0.3" />
<rect x="831" y="9" width="55" height="5" style="fill:#f50002;stroke:black;stroke-width:1;fill-opacity:1;stroke-opacity:0.3" />
<text x="111"  y="23" style="font-family:Arial;font-size:10;stroke:black;fill:black;">Cre12.g483850.t1.2.v5.5 (-) chromosome_12:84672-85365</text>
<line x1="268" y1="30" x2="293" y2="32" stroke="black" stroke-width="1" />
<line x1="293" y1="32" x2="319" y2="30" stroke="black" stroke-width="1" />
<rect x="108" y="28" width="159" height="5" style="fill:#f5b024;stroke:black;stroke-width:1;fill-opacity:1;stroke-opacity:0.3" />
<rect x="319" y="28" width="156" height="5" style="fill:#f5b024;stroke:black;stroke-width:1;fill-opacity:1;stroke-opacity:0.3" />
<line x1="476" y1="30" x2="659" y2="30" stroke="pink" stroke-width="1" />
<rect x="659" y="28" width="11" height="5" style="fill:#f5b024;stroke:black;stroke-width:1;fill-opacity:1;stroke-opacity:0.3" />
<line x1="221" y1="37" x2="238" y2="39" stroke="black" stroke-width="1" />
<line x1="238" y1="39" x2="256" y2="37" stroke="black" stroke-width="1" />
<rect x="109" y="35" width="111" height="5" style="fill:#f5b024;stroke:black;stroke-width:1;fill-opacity:1;stroke-opacity:0.3" />
<rect x="256" y="35" width="111" height="5" style="fill:#f5b024;stroke:black;stroke-width:1;fill-opacity:1;stroke-opacity:0.3" />
<line x1="219" y1="44" x2="228" y2="46" stroke="black" stroke-width="1" />
<line x1="228" y1="46" x2="237" y2="44" stroke="black" stroke-width="1" />
<rect x="109" y="42" width="109" height="5" style="fill:#f5b024;stroke:black;stroke-width:1;fill-opacity:1;stroke-opacity:0.3" />
<rect x="237" y="42" width="111" height="5" style="fill:#f5b024;stroke:black;stroke-width:1;fill-opacity:1;stroke-opacity:0.3" />
<line x1="221" y1="51" x2="236" y2="53" stroke="black" stroke-width="1" />
<line x1="236" y1="53" x2="252" y2="51" stroke="black" stroke-width="1" />
<rect x="109" y="49" width="111" height="5" style="fill:#f5b024;stroke:black;stroke-width:1;fill-opacity:1;stroke-opacity:0.3" />
<rect x="252" y="49" width="111" height="5" style="fill:#f5b024;stroke:black;stroke-width:1;fill-opacity:1;stroke-opacity:0.3" />
<line x1="221" y1="58" x2="254" y2="60" stroke="black" stroke-width="1" />
<line x1="254" y1="60" x2="288" y2="58" stroke="black" stroke-width="1" />
<rect x="109" y="56" width="111" height="5" style="fill:#f5b024;stroke:black;stroke-width:1;fill-opacity:1;stroke-opacity:0.3" />
<rect x="288" y="56" width="111" height="5" style="fill:#f5b024;stroke:black;stroke-width:1;fill-opacity:1;stroke-opacity:0.3" />
<line x1="220" y1="65" x2="225" y2="67" stroke="black" stroke-width="1" />
<line x1="225" y1="67" x2="231" y2="65" stroke="black" stroke-width="1" />
<rect x="109" y="63" width="110" height="5" style="fill:#f5b024;stroke:black;stroke-width:1;fill-opacity:1;stroke-opacity:0.3" />
<rect x="231" y="63" width="110" height="5" style="fill:#f5b024;stroke:black;stroke-width:1;fill-opacity:1;stroke-opacity:0.3" />
<line x1="214" y1="72" x2="226" y2="74" stroke="black" stroke-width="1" />
<line x1="226" y1="74" x2="238" y2="72" stroke="black" stroke-width="1" />
<rect x="109" y="70" width="105" height="5" style="fill:#f5b024;stroke:black;stroke-width:1;fill-opacity:1;stroke-opacity:0.3" />
<rect x="238" y="70" width="110" height="5" style="fill:#f5b024;stroke:black;stroke-width:1;fill-opacity:1;stroke-opacity:0.3" />
<line x1="221" y1="79" x2="231" y2="81" stroke="black" stroke-width="1" />
<line x1="231" y1="81" x2="241" y2="79" stroke="black" stroke-width="1" />
<rect x="109" y="77" width="111" height="5" style="fill:#f5b024;stroke:black;stroke-width:1;fill-opacity:1;stroke-opacity:0.3" />
<rect x="241" y="77" width="111" height="5" style="fill:#f5b024;stroke:black;stroke-width:1;fill-opacity:1;stroke-opacity:0.3" />
<line x1="221" y1="86" x2="244" y2="88" stroke="black" stroke-width="1" />
<line x1="244" y1="88" x2="267" y2="86" stroke="black" stroke-width="1" />
<rect x="109" y="84" width="111" height="5" style="fill:#f5b024;stroke:black;stroke-width:1;fill-opacity:1;stroke-opacity:0.3" />
<rect x="267" y="84" width="111" height="5" style="fill:#f5b024;stroke:black;stroke-width:1;fill-opacity:1;stroke-opacity:0.3" />
<line x1="221" y1="93" x2="235" y2="95" stroke="black" stroke-width="1" />
<line x1="235" y1="95" x2="250" y2="93" stroke="black" stroke-width="1" />
<rect x="109" y="91" width="111" height="5" style="fill:#f5b024;stroke:black;stroke-width:1;fill-opacity:1;stroke-opacity:0.3" />
<rect x="250" y="91" width="111" height="5" style="fill:#f5b024;stroke:black;stroke-width:1;fill-opacity:1;stroke-opacity:0.3" />
<line x1="221" y1="100" x2="236" y2="102" stroke="black" stroke-width="1" />
<line x1="236" y1="102" x2="251" y2="100" stroke="black" stroke-width="1" />
<rect x="109" y="98" width="111" height="5" style="fill:#f5b024;stroke:black;stroke-width:1;fill-opacity:1;stroke-opacity:0.3" />
<rect x="251" y="98" width="111" height="5" style="fill:#f5b024;stroke:black;stroke-width:1;fill-opacity:1;stroke-opacity:0.3" />
<line x1="221" y1="107" x2="240" y2="109" stroke="black" stroke-width="1" />
<line x1="240" y1="109" x2="260" y2="107" stroke="black" stroke-width="1" />
<rect x="109" y="105" width="111" height="5" style="fill:#f5b024;stroke:black;stroke-width:1;fill-opacity:1;stroke-opacity:0.3" />
<rect x="260" y="105" width="111" height="5" style="fill:#f5b024;stroke:black;stroke-width:1;fill-opacity:1;stroke-opacity:0.3" />
<line x1="221" y1="114" x2="264" y2="116" stroke="black" stroke-width="1" />
<line x1="264" y1="116" x2="308" y2="114" stroke="black" stroke-width="1" />
<rect x="109" y="112" width="111" height="5" style="fill:#f5b024;stroke:black;stroke-width:1;fill-opacity:1;stroke-opacity:0.3" />
<rect x="308" y="112" width="111" height="5" style="fill:#f5b024;stroke:black;stroke-width:1;fill-opacity:1;stroke-opacity:0.3" />
<line x1="220" y1="121" x2="249" y2="123" stroke="black" stroke-width="1" />
<line x1="249" y1="123" x2="278" y2="121" stroke="black" stroke-width="1" />
<rect x="109" y="119" width="110" height="5" style="fill:#f5b024;stroke:black;stroke-width:1;fill-opacity:1;stroke-opacity:0.3" />
<rect x="278" y="119" width="111" height="5" style="fill:#f5b024;stroke:black;stroke-width:1;fill-opacity:1;stroke-opacity:0.3" />
<line x1="221" y1="128" x2="227" y2="130" stroke="black" stroke-width="1" />
<line x1="227" y1="130" x2="234" y2="128" stroke="black" stroke-width="1" />
<rect x="109" y="126" width="111" height="5" style="fill:#f5b024;stroke:black;stroke-width:1;fill-opacity:1;stroke-opacity:0.3" />
<rect x="234" y="126" width="111" height="5" style="fill:#f5b024;stroke:black;stroke-width:1;fill-opacity:1;stroke-opacity:0.3" />
<line x1="221" y1="135" x2="258" y2="137" stroke="black" stroke-width="1" />
<line x1="258" y1="137" x2="295" y2="135" stroke="black" stroke-width="1" />
<rect x="109" y="133" width="111" height="5" style="fill:#f5b024;stroke:black;stroke-width:1;fill-opacity:1;stroke-opacity:0.3" />
<rect x="295" y="133" width="111" height="5" style="fill:#f5b024;stroke:black;stroke-width:1;fill-opacity:1;stroke-opacity:0.3" />
<line x1="210" y1="142" x2="272" y2="144" stroke="black" stroke-width="1" />
<line x1="272" y1="144" x2="334" y2="142" stroke="black" stroke-width="1" />
<rect x="109" y="140" width="100" height="5" style="fill:#f5b024;stroke:black;stroke-width:1;fill-opacity:1;stroke-opacity:0.3" />
<rect x="334" y="140" width="111" height="5" style="fill:#f5b024;stroke:black;stroke-width:1;fill-opacity:1;stroke-opacity:0.3" />
<line x1="221" y1="149" x2="226" y2="151" stroke="black" stroke-width="1" />
<line x1="226" y1="151" x2="232" y2="149" stroke="black" stroke-width="1" />
<rect x="109" y="147" width="111" height="5" style="fill:#f5b024;stroke:black;stroke-width:1;fill-opacity:1;stroke-opacity:0.3" />
<rect x="232" y="147" width="111" height="5" style="fill:#f5b024;stroke:black;stroke-width:1;fill-opacity:1;stroke-opacity:0.3" />
<line x1="221" y1="156" x2="229" y2="158" stroke="black" stroke-width="1" />
<line x1="229" y1="158" x2="238" y2="156" stroke="black" stroke-width="1" />
<rect x="109" y="154" width="111" height="5" style="fill:#f5b024;stroke:black;stroke-width:1;fill-opacity:1;stroke-opacity:0.3" />
<rect x="238" y="154" width="110" height="5" style="fill:#f5b024;stroke:black;stroke-width:1;fill-opacity:1;stroke-opacity:0.3" />
<line x1="221" y1="163" x2="236" y2="165" stroke="black" stroke-width="1" />
<line x1="236" y1="165" x2="252" y2="163" stroke="black" stroke-width="1" />
<rect x="109" y="161" width="111" height="5" style="fill:#f5b024;stroke:black;stroke-width:1;fill-opacity:1;stroke-opacity:0.3" />
<rect x="252" y="161" width="111" height="5" style="fill:#f5b024;stroke:black;stroke-width:1;fill-opacity:1;stroke-opacity:0.3" />
<line x1="453" y1="65" x2="557" y2="67" stroke="black" stroke-width="1" />
<line x1="557" y1="67" x2="662" y2="65" stroke="black" stroke-width="1" />
<rect x="342" y="63" width="110" height="5" style="fill:#f5b024;stroke:black;stroke-width:1;fill-opacity:1;stroke-opacity:0.3" />
<rect x="662" y="63" width="50" height="5" style="fill:#f5b024;stroke:black;stroke-width:1;fill-opacity:1;stroke-opacity:0.3" />
<line x1="712" y1="65" x2="807" y2="65" stroke="pink" stroke-width="1" />
<rect x="807" y="63" width="61" height="5" style="fill:#f5b024;stroke:black;stroke-width:1;fill-opacity:1;stroke-opacity:0.3" />
<line x1="457" y1="149" x2="463" y2="151" stroke="black" stroke-width="1" />
<line x1="463" y1="151" x2="470" y2="149" stroke="black" stroke-width="1" />
<rect x="345" y="147" width="111" height="5" style="fill:#f5b024;stroke:black;stroke-width:1;fill-opacity:1;stroke-opacity:0.3" />
<rect x="470" y="147" width="5" height="5" style="fill:#f5b024;stroke:black;stroke-width:1;fill-opacity:1;stroke-opacity:0.3" />
<line x1="476" y1="149" x2="659" y2="149" stroke="pink" stroke-width="1" />
<rect x="659" y="147" width="52" height="5" style="fill:#f5b024;stroke:black;stroke-width:1;fill-opacity:1;stroke-opacity:0.3" />
<line x1="712" y1="149" x2="807" y2="149" stroke="pink" stroke-width="1" />
<rect x="807" y="147" width="53" height="5" style="fill:#f5b024;stroke:black;stroke-width:1;fill-opacity:1;stroke-opacity:0.3" />
<line x1="458" y1="128" x2="464" y2="130" stroke="black" stroke-width="1" />
<line x1="464" y1="130" x2="470" y2="128" stroke="black" stroke-width="1" />
<rect x="346" y="126" width="111" height="5" style="fill:#f5b024;stroke:black;stroke-width:1;fill-opacity:1;stroke-opacity:0.3" />
<rect x="470" y="126" width="5" height="5" style="fill:#f5b024;stroke:black;stroke-width:1;fill-opacity:1;stroke-opacity:0.3" />
<line x1="476" y1="128" x2="659" y2="128" stroke="pink" stroke-width="1" />
<rect x="659" y="126" width="52" height="5" style="fill:#f5b024;stroke:black;stroke-width:1;fill-opacity:1;stroke-opacity:0.3" />
<line x1="712" y1="128" x2="807" y2="128" stroke="pink" stroke-width="1" />
<rect x="807" y="126" width="53" height="5" style="fill:#f5b024;stroke:black;stroke-width:1;fill-opacity:1;stroke-opacity:0.3" />
<line x1="461" y1="44" x2="561" y2="46" stroke="black" stroke-width="1" />
<line x1="561" y1="46" x2="662" y2="44" stroke="black" stroke-width="1" />
<rect x="350" y="42" width="111" height="5" style="fill:#f5b024;stroke:black;stroke-width:1;fill-opacity:1;stroke-opacity:0.3" />
<rect x="662" y="42" width="50" height="5" style="fill:#f5b024;stroke:black;stroke-width:1;fill-opacity:1;stroke-opacity:0.3" />
<line x1="712" y1="44" x2="807" y2="44" stroke="pink" stroke-width="1" />
<rect x="807" y="42" width="61" height="5" style="fill:#f5b024;stroke:black;stroke-width:1;fill-opacity:1;stroke-opacity:0.3" />
<line x1="463" y1="72" x2="562" y2="74" stroke="black" stroke-width="1" />
<line x1="562" y1="74" x2="662" y2="72" stroke="black" stroke-width="1" />
<rect x="351" y="70" width="111" height="5" style="fill:#f5b024;stroke:black;stroke-width:1;fill-opacity:1;stroke-opacity:0.3" />
<rect x="662" y="70" width="50" height="5" style="fill:#f5b024;stroke:black;stroke-width:1;fill-opacity:1;stroke-opacity:0.3" />
<line x1="712" y1="72" x2="807" y2="72" stroke="pink" stroke-width="1" />
<rect x="807" y="70" width="61" height="5" style="fill:#f5b024;stroke:black;stroke-width:1;fill-opacity:1;stroke-opacity:0.3" />
<line x1="466" y1="79" x2="562" y2="81" stroke="black" stroke-width="1" />
<line x1="562" y1="81" x2="659" y2="79" stroke="black" stroke-width="1" />
<rect x="354" y="77" width="111" height="5" style="fill:#f5b024;stroke:black;stroke-width:1;fill-opacity:1;stroke-opacity:0.3" />
<rect x="659" y="77" width="52" height="5" style="fill:#f5b024;stroke:black;stroke-width:1;fill-opacity:1;stroke-opacity:0.3" />
<line x1="712" y1="79" x2="807" y2="79" stroke="pink" stroke-width="1" />
<rect x="807" y="77" width="59" height="5" style="fill:#f5b024;stroke:black;stroke-width:1;fill-opacity:1;stroke-opacity:0.3" />
<line x1="466" y1="156" x2="561" y2="158" stroke="black" stroke-width="1" />
<line x1="561" y1="158" x2="656" y2="156" stroke="black" stroke-width="1" />
<rect x="354" y="154" width="111" height="5" style="fill:#f5b024;stroke:black;stroke-width:1;fill-opacity:1;stroke-opacity:0.3" />
<rect x="656" y="154" width="55" height="5" style="fill:#f5b024;stroke:black;stroke-width:1;fill-opacity:1;stroke-opacity:0.3" />
<line x1="712" y1="156" x2="807" y2="156" stroke="pink" stroke-width="1" />
<rect x="807" y="154" width="55" height="5" style="fill:#f5b024;stroke:black;stroke-width:1;fill-opacity:1;stroke-opacity:0.3" />
<line x1="474" y1="93" x2="569" y2="95" stroke="black" stroke-width="1" />
<line x1="569" y1="95" x2="664" y2="93" stroke="black" stroke-width="1" />
<rect x="362" y="91" width="111" height="5" style="fill:#f5b024;stroke:black;stroke-width:1;fill-opacity:1;stroke-opacity:0.3" />
<rect x="664" y="91" width="48" height="5" style="fill:#f5b024;stroke:black;stroke-width:1;fill-opacity:1;stroke-opacity:0.3" />
<line x1="712" y1="93" x2="807" y2="93" stroke="pink" stroke-width="1" />
<rect x="807" y="91" width="63" height="5" style="fill:#f5b024;stroke:black;stroke-width:1;fill-opacity:1;stroke-opacity:0.3" />
<line x1="474" y1="100" x2="567" y2="102" stroke="black" stroke-width="1" />
<line x1="567" y1="102" x2="661" y2="100" stroke="black" stroke-width="1" />
<rect x="363" y="98" width="110" height="5" style="fill:#f5b024;stroke:black;stroke-width:1;fill-opacity:1;stroke-opacity:0.3" />
<rect x="661" y="98" width="51" height="5" style="fill:#f5b024;stroke:black;stroke-width:1;fill-opacity:1;stroke-opacity:0.3" />
<line x1="712" y1="100" x2="807" y2="100" stroke="pink" stroke-width="1" />
<rect x="807" y="98" width="60" height="5" style="fill:#f5b024;stroke:black;stroke-width:1;fill-opacity:1;stroke-opacity:0.3" />
<line x1="476" y1="51" x2="568" y2="53" stroke="black" stroke-width="1" />
<line x1="568" y1="53" x2="661" y2="51" stroke="black" stroke-width="1" />
<rect x="364" y="49" width="111" height="5" style="fill:#f5b024;stroke:black;stroke-width:1;fill-opacity:1;stroke-opacity:0.3" />
<rect x="661" y="49" width="51" height="5" style="fill:#f5b024;stroke:black;stroke-width:1;fill-opacity:1;stroke-opacity:0.3" />
<line x1="712" y1="51" x2="807" y2="51" stroke="pink" stroke-width="1" />
<rect x="807" y="49" width="60" height="5" style="fill:#f5b024;stroke:black;stroke-width:1;fill-opacity:1;stroke-opacity:0.3" />
<line x1="476" y1="163" x2="570" y2="165" stroke="black" stroke-width="1" />
<line x1="570" y1="165" x2="665" y2="163" stroke="black" stroke-width="1" />
<rect x="364" y="161" width="111" height="5" style="fill:#f5b024;stroke:black;stroke-width:1;fill-opacity:1;stroke-opacity:0.3" />
<rect x="665" y="161" width="46" height="5" style="fill:#f5b024;stroke:black;stroke-width:1;fill-opacity:1;stroke-opacity:0.3" />
<line x1="712" y1="163" x2="807" y2="163" stroke="pink" stroke-width="1" />
<rect x="807" y="161" width="64" height="5" style="fill:#f5b024;stroke:black;stroke-width:1;fill-opacity:1;stroke-opacity:0.3" />
<line x1="663" y1="37" x2="673" y2="39" stroke="black" stroke-width="1" />
<line x1="673" y1="39" x2="683" y2="37" stroke="black" stroke-width="1" />
<rect x="368" y="35" width="108" height="5" style="fill:#f5b024;stroke:black;stroke-width:1;fill-opacity:1;stroke-opacity:0.3" />
<line x1="476" y1="37" x2="659" y2="37" stroke="pink" stroke-width="1" />
<rect x="659" y="35" width="3" height="5" style="fill:#f5b024;stroke:black;stroke-width:1;fill-opacity:1;stroke-opacity:0.3" />
<rect x="683" y="35" width="111" height="5" style="fill:#f5b024;stroke:black;stroke-width:1;fill-opacity:1;stroke-opacity:0.3" />
<line x1="675" y1="86" x2="682" y2="88" stroke="black" stroke-width="1" />
<line x1="682" y1="88" x2="690" y2="86" stroke="black" stroke-width="1" />
<rect x="380" y="84" width="96" height="5" style="fill:#f5b024;stroke:black;stroke-width:1;fill-opacity:1;stroke-opacity:0.3" />
<line x1="476" y1="86" x2="659" y2="86" stroke="pink" stroke-width="1" />
<rect x="659" y="84" width="15" height="5" style="fill:#f5b024;stroke:black;stroke-width:1;fill-opacity:1;stroke-opacity:0.3" />
<rect x="690" y="84" width="22" height="5" style="fill:#f5b024;stroke:black;stroke-width:1;fill-opacity:1;stroke-opacity:0.3" />
<line x1="712" y1="86" x2="807" y2="86" stroke="pink" stroke-width="1" />
<rect x="807" y="84" width="89" height="5" style="fill:#f5b024;stroke:black;stroke-width:1;fill-opacity:1;stroke-opacity:0.3" />
<line x1="676" y1="107" x2="755" y2="109" stroke="black" stroke-width="1" />
<line x1="755" y1="109" x2="835" y2="107" stroke="black" stroke-width="1" />
<rect x="381" y="105" width="95" height="5" style="fill:#f5b024;stroke:black;stroke-width:1;fill-opacity:1;stroke-opacity:0.3" />
<line x1="476" y1="107" x2="659" y2="107" stroke="pink" stroke-width="1" />
<rect x="659" y="105" width="16" height="5" style="fill:#f5b024;stroke:black;stroke-width:1;fill-opacity:1;stroke-opacity:0.3" />
<rect x="835" y="105" width="111" height="5" style="fill:#f5b024;stroke:black;stroke-width:1;fill-opacity:1;stroke-opacity:0.3" />
<line x1="687" y1="121" x2="702" y2="123" stroke="black" stroke-width="1" />
<line x1="702" y1="123" x2="717" y2="121" stroke="black" stroke-width="1" />
<rect x="392" y="119" width="83" height="5" style="fill:#f5b024;stroke:black;stroke-width:1;fill-opacity:1;stroke-opacity:0.3" />
<line x1="476" y1="121" x2="659" y2="121" stroke="pink" stroke-width="1" />
<rect x="659" y="119" width="27" height="5" style="fill:#f5b024;stroke:black;stroke-width:1;fill-opacity:1;stroke-opacity:0.3" />
<rect x="717" y="119" width="111" height="5" style="fill:#f5b024;stroke:black;stroke-width:1;fill-opacity:1;stroke-opacity:0.3" />
<line x1="695" y1="58" x2="707" y2="60" stroke="black" stroke-width="1" />
<line x1="707" y1="60" x2="719" y2="58" stroke="black" stroke-width="1" />
<rect x="400" y="56" width="76" height="5" style="fill:#f5b024;stroke:black;stroke-width:1;fill-opacity:1;stroke-opacity:0.3" />
<line x1="476" y1="58" x2="659" y2="58" stroke="pink" stroke-width="1" />
<rect x="659" y="56" width="35" height="5" style="fill:#f5b024;stroke:black;stroke-width:1;fill-opacity:1;stroke-opacity:0.3" />
<rect x="719" y="56" width="111" height="5" style="fill:#f5b024;stroke:black;stroke-width:1;fill-opacity:1;stroke-opacity:0.3" />
<line x1="521" y1="135" x2="532" y2="137" stroke="black" stroke-width="1" />
<line x1="532" y1="137" x2="543" y2="135" stroke="black" stroke-width="1" />
<rect x="409" y="133" width="111" height="5" style="fill:#f5b024;stroke:black;stroke-width:1;fill-opacity:1;stroke-opacity:0.3" />
<rect x="543" y="133" width="111" height="5" style="fill:#f5b024;stroke:black;stroke-width:1;fill-opacity:1;stroke-opacity:0.3" />
<line x1="534" y1="114" x2="547" y2="116" stroke="black" stroke-width="1" />
<line x1="547" y1="116" x2="561" y2="114" stroke="black" stroke-width="1" />
<rect x="423" y="112" width="110" height="5" style="fill:#f5b024;stroke:black;stroke-width:1;fill-opacity:1;stroke-opacity:0.3" />
<rect x="561" y="112" width="111" height="5" style="fill:#f5b024;stroke:black;stroke-width:1;fill-opacity:1;stroke-opacity:0.3" />
<line x1="836" y1="142" x2="843" y2="144" stroke="black" stroke-width="1" />
<line x1="843" y1="144" x2="850" y2="142" stroke="black" stroke-width="1" />
<rect x="446" y="140" width="30" height="5" style="fill:#f5b024;stroke:black;stroke-width:1;fill-opacity:1;stroke-opacity:0.3" />
<line x1="476" y1="142" x2="659" y2="142" stroke="pink" stroke-width="1" />
<rect x="659" y="140" width="52" height="5" style="fill:#f5b024;stroke:black;stroke-width:1;fill-opacity:1;stroke-opacity:0.3" />
<line x1="712" y1="142" x2="807" y2="142" stroke="pink" stroke-width="1" />
<rect x="807" y="140" width="29" height="5" style="fill:#f5b024;stroke:black;stroke-width:1;fill-opacity:1;stroke-opacity:0.3" />
<rect x="850" y="140" width="111" height="5" style="fill:#f5b024;stroke:black;stroke-width:1;fill-opacity:1;stroke-opacity:0.3" />
<text x="15"  y="176" style="font-family:Arial;font-size:10;stroke:black;fill:black;">all.merged.bam</text>
</svg>
    
