<?xml version="1.0" encoding="utf-8" standalone="no"?>
<!DOCTYPE svg PUBLIC "-//W3C//DTD SVG 1.1//EN"
  "http://www.w3.org/Graphics/SVG/1.1/DTD/svg11.dtd">
<svg height="1140" width="1000" version="1.1" viewBox="0 0 1000 1140" xmlns="http://www.w3.org/2000/svg" xmlns:xlink="http://www.w3.org/1999/xlink">
<line x1="21" y1="11" x2="977" y2="11" stroke="black" stroke-width="1" />
<rect x="21" y="9" width="160" height="5" style="fill:#f50002;stroke:black;stroke-width:1;fill-opacity:1;stroke-opacity:0.3" />
<rect x="182" y="9" width="183" height="5" style="fill:#53a1b5;stroke:black;stroke-width:1;fill-opacity:1;stroke-opacity:0.3" />
<rect x="414" y="9" width="89" height="5" style="fill:#53a1b5;stroke:black;stroke-width:1;fill-opacity:1;stroke-opacity:0.3" />
<rect x="537" y="9" width="30" height="5" style="fill:#53a1b5;stroke:black;stroke-width:1;fill-opacity:1;stroke-opacity:0.3" />
<rect x="619" y="9" width="131" height="5" style="fill:#53a1b5;stroke:black;stroke-width:1;fill-opacity:1;stroke-opacity:0.3" />
<rect x="751" y="9" width="226" height="5" style="fill:#f50002;stroke:black;stroke-width:1;fill-opacity:1;stroke-opacity:0.3" />
<text x="21"  y="23" style="font-family:Arial;font-size:10;stroke:black;fill:black;">Cre12.g489850.t1.2.v5.5 (+) chromosome_12:1183700-1188072</text>
<line x1="87" y1="30" x2="94" y2="32" stroke="black" stroke-width="1" />
<line x1="94" y1="32" x2="101" y2="30" stroke="black" stroke-width="1" />
<rect x="65" y="28" width="21" height="5" style="fill:#5d3c2d;stroke:black;stroke-width:1;fill-opacity:1;stroke-opacity:0.3" />
<rect x="101" y="28" width="21" height="5" style="fill:#5d3c2d;stroke:black;stroke-width:1;fill-opacity:1;stroke-opacity:0.3" />
<line x1="123" y1="37" x2="158" y2="39" stroke="black" stroke-width="1" />
<line x1="158" y1="39" x2="193" y2="37" stroke="black" stroke-width="1" />
<rect x="101" y="35" width="21" height="5" style="fill:#5d3c2d;stroke:black;stroke-width:1;fill-opacity:1;stroke-opacity:0.3" />
<rect x="193" y="35" width="21" height="5" style="fill:#5d3c2d;stroke:black;stroke-width:1;fill-opacity:1;stroke-opacity:0.3" />
<line x1="189" y1="44" x2="191" y2="46" stroke="black" stroke-width="1" />
<line x1="191" y1="46" x2="193" y2="44" stroke="black" stroke-width="1" />
<rect x="111" y="42" width="17" height="5" style="fill:#5d3c2d;stroke:black;stroke-width:1;fill-opacity:1;stroke-opacity:0.3" />
<line x1="128" y1="44" x2="184" y2="44" stroke="pink" stroke-width="1" />
<rect x="184" y="42" width="4" height="5" style="fill:#5d3c2d;stroke:black;stroke-width:1;fill-opacity:1;stroke-opacity:0.3" />
<rect x="193" y="42" width="19" height="5" style="fill:#5d3c2d;stroke:black;stroke-width:1;fill-opacity:1;stroke-opacity:0.3" />
<line x1="226" y1="30" x2="228" y2="32" stroke="black" stroke-width="1" />
<line x1="228" y1="32" x2="231" y2="30" stroke="black" stroke-width="1" />
<rect x="204" y="28" width="21" height="5" style="fill:#5d3c2d;stroke:black;stroke-width:1;fill-opacity:1;stroke-opacity:0.3" />
<rect x="231" y="28" width="21" height="5" style="fill:#5d3c2d;stroke:black;stroke-width:1;fill-opacity:1;stroke-opacity:0.3" />
<line x1="232" y1="51" x2="234" y2="53" stroke="black" stroke-width="1" />
<line x1="234" y1="53" x2="236" y2="51" stroke="black" stroke-width="1" />
<rect x="210" y="49" width="21" height="5" style="fill:#5d3c2d;stroke:black;stroke-width:1;fill-opacity:1;stroke-opacity:0.3" />
<rect x="236" y="49" width="21" height="5" style="fill:#5d3c2d;stroke:black;stroke-width:1;fill-opacity:1;stroke-opacity:0.3" />
<line x1="249" y1="37" x2="251" y2="39" stroke="black" stroke-width="1" />
<line x1="251" y1="39" x2="253" y2="37" stroke="black" stroke-width="1" />
<rect x="217" y="35" width="31" height="5" style="fill:#5d3c2d;stroke:black;stroke-width:1;fill-opacity:1;stroke-opacity:0.3" />
<rect x="253" y="35" width="32" height="5" style="fill:#5d3c2d;stroke:black;stroke-width:1;fill-opacity:1;stroke-opacity:0.3" />
<line x1="247" y1="44" x2="249" y2="46" stroke="black" stroke-width="1" />
<line x1="249" y1="46" x2="251" y2="44" stroke="black" stroke-width="1" />
<rect x="225" y="42" width="21" height="5" style="fill:#5d3c2d;stroke:black;stroke-width:1;fill-opacity:1;stroke-opacity:0.3" />
<rect x="251" y="42" width="21" height="5" style="fill:#5d3c2d;stroke:black;stroke-width:1;fill-opacity:1;stroke-opacity:0.3" />
<line x1="255" y1="58" x2="259" y2="60" stroke="black" stroke-width="1" />
<line x1="259" y1="60" x2="264" y2="58" stroke="black" stroke-width="1" />
<rect x="233" y="56" width="21" height="5" style="fill:#f5b024;stroke:black;stroke-width:1;fill-opacity:1;stroke-opacity:0.3" />
<rect x="264" y="56" width="21" height="5" style="fill:#f5b024;stroke:black;stroke-width:1;fill-opacity:1;stroke-opacity:0.3" />
<line x1="264" y1="65" x2="266" y2="67" stroke="black" stroke-width="1" />
<line x1="266" y1="67" x2="269" y2="65" stroke="black" stroke-width="1" />
<rect x="242" y="63" width="21" height="5" style="fill:#5d3c2d;stroke:black;stroke-width:1;fill-opacity:1;stroke-opacity:0.3" />
<rect x="269" y="63" width="21" height="5" style="fill:#5d3c2d;stroke:black;stroke-width:1;fill-opacity:1;stroke-opacity:0.3" />
<line x1="264" y1="72" x2="266" y2="74" stroke="black" stroke-width="1" />
<line x1="266" y1="74" x2="269" y2="72" stroke="black" stroke-width="1" />
<rect x="242" y="70" width="21" height="5" style="fill:#5d3c2d;stroke:black;stroke-width:1;fill-opacity:1;stroke-opacity:0.3" />
<rect x="269" y="70" width="21" height="5" style="fill:#5d3c2d;stroke:black;stroke-width:1;fill-opacity:1;stroke-opacity:0.3" />
<line x1="298" y1="30" x2="299" y2="32" stroke="black" stroke-width="1" />
<line x1="299" y1="32" x2="301" y2="30" stroke="black" stroke-width="1" />
<rect x="276" y="28" width="21" height="5" style="fill:#5d3c2d;stroke:black;stroke-width:1;fill-opacity:1;stroke-opacity:0.3" />
<rect x="301" y="28" width="21" height="5" style="fill:#5d3c2d;stroke:black;stroke-width:1;fill-opacity:1;stroke-opacity:0.3" />
<line x1="298" y1="44" x2="308" y2="46" stroke="black" stroke-width="1" />
<line x1="308" y1="46" x2="318" y2="44" stroke="black" stroke-width="1" />
<rect x="276" y="42" width="21" height="5" style="fill:#5d3c2d;stroke:black;stroke-width:1;fill-opacity:1;stroke-opacity:0.3" />
<rect x="318" y="42" width="21" height="5" style="fill:#5d3c2d;stroke:black;stroke-width:1;fill-opacity:1;stroke-opacity:0.3" />
<line x1="315" y1="37" x2="324" y2="39" stroke="black" stroke-width="1" />
<line x1="324" y1="39" x2="333" y2="37" stroke="black" stroke-width="1" />
<rect x="294" y="35" width="21" height="5" style="fill:#5d3c2d;stroke:black;stroke-width:1;fill-opacity:1;stroke-opacity:0.3" />
<rect x="333" y="35" width="21" height="5" style="fill:#5d3c2d;stroke:black;stroke-width:1;fill-opacity:1;stroke-opacity:0.3" />
<line x1="325" y1="51" x2="327" y2="53" stroke="black" stroke-width="1" />
<line x1="327" y1="53" x2="329" y2="51" stroke="black" stroke-width="1" />
<rect x="303" y="49" width="21" height="5" style="fill:#5d3c2d;stroke:black;stroke-width:1;fill-opacity:1;stroke-opacity:0.3" />
<rect x="329" y="49" width="21" height="5" style="fill:#5d3c2d;stroke:black;stroke-width:1;fill-opacity:1;stroke-opacity:0.3" />
<line x1="325" y1="58" x2="327" y2="60" stroke="black" stroke-width="1" />
<line x1="327" y1="60" x2="329" y2="58" stroke="black" stroke-width="1" />
<rect x="303" y="56" width="21" height="5" style="fill:#5d3c2d;stroke:black;stroke-width:1;fill-opacity:1;stroke-opacity:0.3" />
<rect x="329" y="56" width="21" height="5" style="fill:#5d3c2d;stroke:black;stroke-width:1;fill-opacity:1;stroke-opacity:0.3" />
<line x1="336" y1="65" x2="344" y2="67" stroke="black" stroke-width="1" />
<line x1="344" y1="67" x2="352" y2="65" stroke="black" stroke-width="1" />
<rect x="315" y="63" width="21" height="5" style="fill:#5d3c2d;stroke:black;stroke-width:1;fill-opacity:1;stroke-opacity:0.3" />
<rect x="352" y="63" width="13" height="5" style="fill:#5d3c2d;stroke:black;stroke-width:1;fill-opacity:1;stroke-opacity:0.3" />
<line x1="366" y1="65" x2="414" y2="65" stroke="pink" stroke-width="1" />
<rect x="414" y="63" width="8" height="5" style="fill:#5d3c2d;stroke:black;stroke-width:1;fill-opacity:1;stroke-opacity:0.3" />
<line x1="340" y1="72" x2="347" y2="74" stroke="black" stroke-width="1" />
<line x1="347" y1="74" x2="354" y2="72" stroke="black" stroke-width="1" />
<rect x="318" y="70" width="21" height="5" style="fill:#5d3c2d;stroke:black;stroke-width:1;fill-opacity:1;stroke-opacity:0.3" />
<rect x="354" y="70" width="11" height="5" style="fill:#5d3c2d;stroke:black;stroke-width:1;fill-opacity:1;stroke-opacity:0.3" />
<line x1="366" y1="72" x2="414" y2="72" stroke="pink" stroke-width="1" />
<rect x="414" y="70" width="10" height="5" style="fill:#5d3c2d;stroke:black;stroke-width:1;fill-opacity:1;stroke-opacity:0.3" />
<line x1="366" y1="30" x2="391" y2="32" stroke="black" stroke-width="1" />
<line x1="391" y1="32" x2="417" y2="30" stroke="black" stroke-width="1" />
<rect x="334" y="28" width="32" height="5" style="fill:#5d3c2d;stroke:black;stroke-width:1;fill-opacity:1;stroke-opacity:0.3" />
<rect x="417" y="28" width="32" height="5" style="fill:#5d3c2d;stroke:black;stroke-width:1;fill-opacity:1;stroke-opacity:0.3" />
<line x1="366" y1="79" x2="391" y2="81" stroke="black" stroke-width="1" />
<line x1="391" y1="81" x2="417" y2="79" stroke="black" stroke-width="1" />
<rect x="334" y="77" width="32" height="5" style="fill:#5d3c2d;stroke:black;stroke-width:1;fill-opacity:1;stroke-opacity:0.3" />
<rect x="417" y="77" width="32" height="5" style="fill:#5d3c2d;stroke:black;stroke-width:1;fill-opacity:1;stroke-opacity:0.3" />
<line x1="356" y1="86" x2="391" y2="88" stroke="black" stroke-width="1" />
<line x1="391" y1="88" x2="427" y2="86" stroke="black" stroke-width="1" />
<rect x="334" y="84" width="21" height="5" style="fill:#5d3c2d;stroke:black;stroke-width:1;fill-opacity:1;stroke-opacity:0.3" />
<rect x="427" y="84" width="21" height="5" style="fill:#5d3c2d;stroke:black;stroke-width:1;fill-opacity:1;stroke-opacity:0.3" />
<line x1="451" y1="37" x2="459" y2="39" stroke="black" stroke-width="1" />
<line x1="459" y1="39" x2="467" y2="37" stroke="black" stroke-width="1" />
<rect x="429" y="35" width="21" height="5" style="fill:#5d3c2d;stroke:black;stroke-width:1;fill-opacity:1;stroke-opacity:0.3" />
<rect x="467" y="35" width="21" height="5" style="fill:#5d3c2d;stroke:black;stroke-width:1;fill-opacity:1;stroke-opacity:0.3" />
<line x1="461" y1="44" x2="463" y2="46" stroke="black" stroke-width="1" />
<line x1="463" y1="46" x2="466" y2="44" stroke="black" stroke-width="1" />
<rect x="439" y="42" width="21" height="5" style="fill:#5d3c2d;stroke:black;stroke-width:1;fill-opacity:1;stroke-opacity:0.3" />
<rect x="466" y="42" width="21" height="5" style="fill:#5d3c2d;stroke:black;stroke-width:1;fill-opacity:1;stroke-opacity:0.3" />
<line x1="467" y1="51" x2="472" y2="53" stroke="black" stroke-width="1" />
<line x1="472" y1="53" x2="477" y2="51" stroke="black" stroke-width="1" />
<rect x="445" y="49" width="21" height="5" style="fill:#5d3c2d;stroke:black;stroke-width:1;fill-opacity:1;stroke-opacity:0.3" />
<rect x="477" y="49" width="21" height="5" style="fill:#5d3c2d;stroke:black;stroke-width:1;fill-opacity:1;stroke-opacity:0.3" />
<line x1="471" y1="58" x2="477" y2="60" stroke="black" stroke-width="1" />
<line x1="477" y1="60" x2="483" y2="58" stroke="black" stroke-width="1" />
<rect x="450" y="56" width="21" height="5" style="fill:#5d3c2d;stroke:black;stroke-width:1;fill-opacity:1;stroke-opacity:0.3" />
<rect x="483" y="56" width="20" height="5" style="fill:#5d3c2d;stroke:black;stroke-width:1;fill-opacity:1;stroke-opacity:0.3" />
<line x1="503" y1="58" x2="537" y2="58" stroke="pink" stroke-width="1" />
<rect x="537" y="56" width="1" height="5" style="fill:#5d3c2d;stroke:black;stroke-width:1;fill-opacity:1;stroke-opacity:0.3" />
<line x1="491" y1="30" x2="514" y2="32" stroke="black" stroke-width="1" />
<line x1="514" y1="32" x2="538" y2="30" stroke="black" stroke-width="1" />
<rect x="469" y="28" width="21" height="5" style="fill:#5d3c2d;stroke:black;stroke-width:1;fill-opacity:1;stroke-opacity:0.3" />
<rect x="538" y="28" width="21" height="5" style="fill:#5d3c2d;stroke:black;stroke-width:1;fill-opacity:1;stroke-opacity:0.3" />
<line x1="500" y1="65" x2="521" y2="67" stroke="black" stroke-width="1" />
<line x1="521" y1="67" x2="543" y2="65" stroke="black" stroke-width="1" />
<rect x="479" y="63" width="21" height="5" style="fill:#5d3c2d;stroke:black;stroke-width:1;fill-opacity:1;stroke-opacity:0.3" />
<rect x="543" y="63" width="21" height="5" style="fill:#5d3c2d;stroke:black;stroke-width:1;fill-opacity:1;stroke-opacity:0.3" />
<line x1="542" y1="72" x2="543" y2="74" stroke="black" stroke-width="1" />
<line x1="543" y1="74" x2="545" y2="72" stroke="black" stroke-width="1" />
<rect x="486" y="70" width="16" height="5" style="fill:#5d3c2d;stroke:black;stroke-width:1;fill-opacity:1;stroke-opacity:0.3" />
<line x1="503" y1="72" x2="537" y2="72" stroke="pink" stroke-width="1" />
<rect x="537" y="70" width="5" height="5" style="fill:#5d3c2d;stroke:black;stroke-width:1;fill-opacity:1;stroke-opacity:0.3" />
<rect x="545" y="70" width="21" height="5" style="fill:#5d3c2d;stroke:black;stroke-width:1;fill-opacity:1;stroke-opacity:0.3" />
<line x1="545" y1="37" x2="547" y2="39" stroke="black" stroke-width="1" />
<line x1="547" y1="39" x2="549" y2="37" stroke="black" stroke-width="1" />
<rect x="489" y="35" width="13" height="5" style="fill:#5d3c2d;stroke:black;stroke-width:1;fill-opacity:1;stroke-opacity:0.3" />
<line x1="503" y1="37" x2="537" y2="37" stroke="pink" stroke-width="1" />
<rect x="537" y="35" width="8" height="5" style="fill:#5d3c2d;stroke:black;stroke-width:1;fill-opacity:1;stroke-opacity:0.3" />
<rect x="549" y="35" width="18" height="5" style="fill:#5d3c2d;stroke:black;stroke-width:1;fill-opacity:1;stroke-opacity:0.3" />
<line x1="568" y1="37" x2="619" y2="37" stroke="pink" stroke-width="1" />
<rect x="619" y="35" width="3" height="5" style="fill:#5d3c2d;stroke:black;stroke-width:1;fill-opacity:1;stroke-opacity:0.3" />
<line x1="546" y1="44" x2="548" y2="46" stroke="black" stroke-width="1" />
<line x1="548" y1="46" x2="551" y2="44" stroke="black" stroke-width="1" />
<rect x="490" y="42" width="13" height="5" style="fill:#5d3c2d;stroke:black;stroke-width:1;fill-opacity:1;stroke-opacity:0.3" />
<line x1="503" y1="44" x2="537" y2="44" stroke="pink" stroke-width="1" />
<rect x="537" y="42" width="8" height="5" style="fill:#5d3c2d;stroke:black;stroke-width:1;fill-opacity:1;stroke-opacity:0.3" />
<rect x="551" y="42" width="17" height="5" style="fill:#5d3c2d;stroke:black;stroke-width:1;fill-opacity:1;stroke-opacity:0.3" />
<line x1="568" y1="44" x2="619" y2="44" stroke="pink" stroke-width="1" />
<rect x="619" y="42" width="4" height="5" style="fill:#5d3c2d;stroke:black;stroke-width:1;fill-opacity:1;stroke-opacity:0.3" />
<line x1="552" y1="79" x2="557" y2="81" stroke="black" stroke-width="1" />
<line x1="557" y1="81" x2="563" y2="79" stroke="black" stroke-width="1" />
<rect x="496" y="77" width="6" height="5" style="fill:#5d3c2d;stroke:black;stroke-width:1;fill-opacity:1;stroke-opacity:0.3" />
<line x1="503" y1="79" x2="537" y2="79" stroke="pink" stroke-width="1" />
<rect x="537" y="77" width="14" height="5" style="fill:#5d3c2d;stroke:black;stroke-width:1;fill-opacity:1;stroke-opacity:0.3" />
<rect x="563" y="77" width="5" height="5" style="fill:#5d3c2d;stroke:black;stroke-width:1;fill-opacity:1;stroke-opacity:0.3" />
<line x1="568" y1="79" x2="619" y2="79" stroke="pink" stroke-width="1" />
<rect x="619" y="77" width="16" height="5" style="fill:#5d3c2d;stroke:black;stroke-width:1;fill-opacity:1;stroke-opacity:0.3" />
<line x1="555" y1="51" x2="557" y2="53" stroke="black" stroke-width="1" />
<line x1="557" y1="53" x2="560" y2="51" stroke="black" stroke-width="1" />
<rect x="499" y="49" width="3" height="5" style="fill:#5d3c2d;stroke:black;stroke-width:1;fill-opacity:1;stroke-opacity:0.3" />
<line x1="503" y1="51" x2="537" y2="51" stroke="pink" stroke-width="1" />
<rect x="537" y="49" width="18" height="5" style="fill:#5d3c2d;stroke:black;stroke-width:1;fill-opacity:1;stroke-opacity:0.3" />
<rect x="560" y="49" width="8" height="5" style="fill:#5d3c2d;stroke:black;stroke-width:1;fill-opacity:1;stroke-opacity:0.3" />
<line x1="568" y1="51" x2="619" y2="51" stroke="pink" stroke-width="1" />
<rect x="619" y="49" width="12" height="5" style="fill:#5d3c2d;stroke:black;stroke-width:1;fill-opacity:1;stroke-opacity:0.3" />
<line x1="561" y1="58" x2="564" y2="60" stroke="black" stroke-width="1" />
<line x1="564" y1="60" x2="568" y2="58" stroke="black" stroke-width="1" />
<rect x="540" y="56" width="20" height="5" style="fill:#f5b024;stroke:black;stroke-width:1;fill-opacity:1;stroke-opacity:0.3" />
<rect x="568" y="56" width="0" height="5" style="fill:#f5b024;stroke:black;stroke-width:1;fill-opacity:1;stroke-opacity:0.3" />
<line x1="568" y1="58" x2="619" y2="58" stroke="pink" stroke-width="1" />
<rect x="619" y="56" width="21" height="5" style="fill:#f5b024;stroke:black;stroke-width:1;fill-opacity:1;stroke-opacity:0.3" />
<line x1="626" y1="86" x2="649" y2="88" stroke="black" stroke-width="1" />
<line x1="649" y1="88" x2="672" y2="86" stroke="black" stroke-width="1" />
<rect x="553" y="84" width="15" height="5" style="fill:#5d3c2d;stroke:black;stroke-width:1;fill-opacity:1;stroke-opacity:0.3" />
<line x1="568" y1="86" x2="619" y2="86" stroke="pink" stroke-width="1" />
<rect x="619" y="84" width="6" height="5" style="fill:#5d3c2d;stroke:black;stroke-width:1;fill-opacity:1;stroke-opacity:0.3" />
<rect x="672" y="84" width="21" height="5" style="fill:#5d3c2d;stroke:black;stroke-width:1;fill-opacity:1;stroke-opacity:0.3" />
<line x1="647" y1="30" x2="651" y2="32" stroke="black" stroke-width="1" />
<line x1="651" y1="32" x2="656" y2="30" stroke="black" stroke-width="1" />
<rect x="625" y="28" width="21" height="5" style="fill:#5d3c2d;stroke:black;stroke-width:1;fill-opacity:1;stroke-opacity:0.3" />
<rect x="656" y="28" width="21" height="5" style="fill:#5d3c2d;stroke:black;stroke-width:1;fill-opacity:1;stroke-opacity:0.3" />
<line x1="662" y1="37" x2="667" y2="39" stroke="black" stroke-width="1" />
<line x1="667" y1="39" x2="672" y2="37" stroke="black" stroke-width="1" />
<rect x="640" y="35" width="21" height="5" style="fill:#5d3c2d;stroke:black;stroke-width:1;fill-opacity:1;stroke-opacity:0.3" />
<rect x="672" y="35" width="21" height="5" style="fill:#5d3c2d;stroke:black;stroke-width:1;fill-opacity:1;stroke-opacity:0.3" />
<line x1="663" y1="44" x2="667" y2="46" stroke="black" stroke-width="1" />
<line x1="667" y1="46" x2="671" y2="44" stroke="black" stroke-width="1" />
<rect x="641" y="42" width="21" height="5" style="fill:#5d3c2d;stroke:black;stroke-width:1;fill-opacity:1;stroke-opacity:0.3" />
<rect x="671" y="42" width="21" height="5" style="fill:#5d3c2d;stroke:black;stroke-width:1;fill-opacity:1;stroke-opacity:0.3" />
<line x1="670" y1="51" x2="677" y2="53" stroke="black" stroke-width="1" />
<line x1="677" y1="53" x2="685" y2="51" stroke="black" stroke-width="1" />
<rect x="648" y="49" width="21" height="5" style="fill:#5d3c2d;stroke:black;stroke-width:1;fill-opacity:1;stroke-opacity:0.3" />
<rect x="685" y="49" width="21" height="5" style="fill:#5d3c2d;stroke:black;stroke-width:1;fill-opacity:1;stroke-opacity:0.3" />
<line x1="680" y1="58" x2="682" y2="60" stroke="black" stroke-width="1" />
<line x1="682" y1="60" x2="685" y2="58" stroke="black" stroke-width="1" />
<rect x="658" y="56" width="21" height="5" style="fill:#5d3c2d;stroke:black;stroke-width:1;fill-opacity:1;stroke-opacity:0.3" />
<rect x="685" y="56" width="21" height="5" style="fill:#5d3c2d;stroke:black;stroke-width:1;fill-opacity:1;stroke-opacity:0.3" />
<line x1="704" y1="65" x2="708" y2="67" stroke="black" stroke-width="1" />
<line x1="708" y1="67" x2="712" y2="65" stroke="black" stroke-width="1" />
<rect x="671" y="63" width="32" height="5" style="fill:#5d3c2d;stroke:black;stroke-width:1;fill-opacity:1;stroke-opacity:0.3" />
<rect x="712" y="63" width="32" height="5" style="fill:#5d3c2d;stroke:black;stroke-width:1;fill-opacity:1;stroke-opacity:0.3" />
<line x1="707" y1="72" x2="709" y2="74" stroke="black" stroke-width="1" />
<line x1="709" y1="74" x2="711" y2="72" stroke="black" stroke-width="1" />
<rect x="674" y="70" width="32" height="5" style="fill:#5d3c2d;stroke:black;stroke-width:1;fill-opacity:1;stroke-opacity:0.3" />
<rect x="711" y="70" width="32" height="5" style="fill:#5d3c2d;stroke:black;stroke-width:1;fill-opacity:1;stroke-opacity:0.3" />
<line x1="707" y1="79" x2="709" y2="81" stroke="black" stroke-width="1" />
<line x1="709" y1="81" x2="711" y2="79" stroke="black" stroke-width="1" />
<rect x="674" y="77" width="32" height="5" style="fill:#5d3c2d;stroke:black;stroke-width:1;fill-opacity:1;stroke-opacity:0.3" />
<rect x="711" y="77" width="32" height="5" style="fill:#5d3c2d;stroke:black;stroke-width:1;fill-opacity:1;stroke-opacity:0.3" />
<line x1="714" y1="30" x2="720" y2="32" stroke="black" stroke-width="1" />
<line x1="720" y1="32" x2="727" y2="30" stroke="black" stroke-width="1" />
<rect x="692" y="28" width="21" height="5" style="fill:#5d3c2d;stroke:black;stroke-width:1;fill-opacity:1;stroke-opacity:0.3" />
<rect x="727" y="28" width="21" height="5" style="fill:#5d3c2d;stroke:black;stroke-width:1;fill-opacity:1;stroke-opacity:0.3" />
<line x1="714" y1="93" x2="722" y2="95" stroke="black" stroke-width="1" />
<line x1="722" y1="95" x2="730" y2="93" stroke="black" stroke-width="1" />
<rect x="692" y="91" width="21" height="5" style="fill:#5d3c2d;stroke:black;stroke-width:1;fill-opacity:1;stroke-opacity:0.3" />
<rect x="730" y="91" width="21" height="5" style="fill:#5d3c2d;stroke:black;stroke-width:1;fill-opacity:1;stroke-opacity:0.3" />
<line x1="716" y1="37" x2="719" y2="39" stroke="black" stroke-width="1" />
<line x1="719" y1="39" x2="723" y2="37" stroke="black" stroke-width="1" />
<rect x="694" y="35" width="21" height="5" style="fill:#5d3c2d;stroke:black;stroke-width:1;fill-opacity:1;stroke-opacity:0.3" />
<rect x="723" y="35" width="21" height="5" style="fill:#5d3c2d;stroke:black;stroke-width:1;fill-opacity:1;stroke-opacity:0.3" />
<line x1="724" y1="44" x2="726" y2="46" stroke="black" stroke-width="1" />
<line x1="726" y1="46" x2="729" y2="44" stroke="black" stroke-width="1" />
<rect x="703" y="42" width="21" height="5" style="fill:#5d3c2d;stroke:black;stroke-width:1;fill-opacity:1;stroke-opacity:0.3" />
<rect x="729" y="42" width="21" height="5" style="fill:#5d3c2d;stroke:black;stroke-width:1;fill-opacity:1;stroke-opacity:0.3" />
<line x1="752" y1="51" x2="755" y2="53" stroke="black" stroke-width="1" />
<line x1="755" y1="53" x2="758" y2="51" stroke="black" stroke-width="1" />
<rect x="719" y="49" width="32" height="5" style="fill:#5d3c2d;stroke:black;stroke-width:1;fill-opacity:1;stroke-opacity:0.3" />
<rect x="758" y="49" width="32" height="5" style="fill:#5d3c2d;stroke:black;stroke-width:1;fill-opacity:1;stroke-opacity:0.3" />
<line x1="748" y1="58" x2="750" y2="60" stroke="black" stroke-width="1" />
<line x1="750" y1="60" x2="753" y2="58" stroke="black" stroke-width="1" />
<rect x="721" y="56" width="26" height="5" style="fill:#5d3c2d;stroke:black;stroke-width:1;fill-opacity:1;stroke-opacity:0.3" />
<rect x="753" y="56" width="32" height="5" style="fill:#5d3c2d;stroke:black;stroke-width:1;fill-opacity:1;stroke-opacity:0.3" />
<line x1="748" y1="86" x2="750" y2="88" stroke="black" stroke-width="1" />
<line x1="750" y1="88" x2="752" y2="86" stroke="black" stroke-width="1" />
<rect x="726" y="84" width="21" height="5" style="fill:#5d3c2d;stroke:black;stroke-width:1;fill-opacity:1;stroke-opacity:0.3" />
<rect x="752" y="84" width="21" height="5" style="fill:#5d3c2d;stroke:black;stroke-width:1;fill-opacity:1;stroke-opacity:0.3" />
<line x1="764" y1="100" x2="769" y2="102" stroke="black" stroke-width="1" />
<line x1="769" y1="102" x2="775" y2="100" stroke="black" stroke-width="1" />
<rect x="742" y="98" width="21" height="5" style="fill:#5d3c2d;stroke:black;stroke-width:1;fill-opacity:1;stroke-opacity:0.3" />
<rect x="775" y="98" width="21" height="5" style="fill:#5d3c2d;stroke:black;stroke-width:1;fill-opacity:1;stroke-opacity:0.3" />
<line x1="767" y1="72" x2="771" y2="74" stroke="black" stroke-width="1" />
<line x1="771" y1="74" x2="775" y2="72" stroke="black" stroke-width="1" />
<rect x="745" y="70" width="21" height="5" style="fill:#5d3c2d;stroke:black;stroke-width:1;fill-opacity:1;stroke-opacity:0.3" />
<rect x="775" y="70" width="21" height="5" style="fill:#5d3c2d;stroke:black;stroke-width:1;fill-opacity:1;stroke-opacity:0.3" />
<line x1="767" y1="65" x2="769" y2="67" stroke="black" stroke-width="1" />
<line x1="769" y1="67" x2="771" y2="65" stroke="black" stroke-width="1" />
<rect x="745" y="63" width="21" height="5" style="fill:#5d3c2d;stroke:black;stroke-width:1;fill-opacity:1;stroke-opacity:0.3" />
<rect x="771" y="63" width="21" height="5" style="fill:#5d3c2d;stroke:black;stroke-width:1;fill-opacity:1;stroke-opacity:0.3" />
<line x1="767" y1="79" x2="771" y2="81" stroke="black" stroke-width="1" />
<line x1="771" y1="81" x2="775" y2="79" stroke="black" stroke-width="1" />
<rect x="745" y="77" width="21" height="5" style="fill:#5d3c2d;stroke:black;stroke-width:1;fill-opacity:1;stroke-opacity:0.3" />
<rect x="775" y="77" width="21" height="5" style="fill:#5d3c2d;stroke:black;stroke-width:1;fill-opacity:1;stroke-opacity:0.3" />
<line x1="789" y1="30" x2="795" y2="32" stroke="black" stroke-width="1" />
<line x1="795" y1="32" x2="802" y2="30" stroke="black" stroke-width="1" />
<rect x="757" y="28" width="32" height="5" style="fill:#5d3c2d;stroke:black;stroke-width:1;fill-opacity:1;stroke-opacity:0.3" />
<rect x="802" y="28" width="32" height="5" style="fill:#5d3c2d;stroke:black;stroke-width:1;fill-opacity:1;stroke-opacity:0.3" />
<line x1="782" y1="37" x2="784" y2="39" stroke="black" stroke-width="1" />
<line x1="784" y1="39" x2="787" y2="37" stroke="black" stroke-width="1" />
<rect x="760" y="35" width="21" height="5" style="fill:#5d3c2d;stroke:black;stroke-width:1;fill-opacity:1;stroke-opacity:0.3" />
<rect x="787" y="35" width="21" height="5" style="fill:#5d3c2d;stroke:black;stroke-width:1;fill-opacity:1;stroke-opacity:0.3" />
<line x1="786" y1="44" x2="787" y2="46" stroke="black" stroke-width="1" />
<line x1="787" y1="46" x2="789" y2="44" stroke="black" stroke-width="1" />
<rect x="764" y="42" width="21" height="5" style="fill:#5d3c2d;stroke:black;stroke-width:1;fill-opacity:1;stroke-opacity:0.3" />
<rect x="789" y="42" width="21" height="5" style="fill:#5d3c2d;stroke:black;stroke-width:1;fill-opacity:1;stroke-opacity:0.3" />
<line x1="793" y1="93" x2="801" y2="95" stroke="black" stroke-width="1" />
<line x1="801" y1="95" x2="809" y2="93" stroke="black" stroke-width="1" />
<rect x="771" y="91" width="21" height="5" style="fill:#5d3c2d;stroke:black;stroke-width:1;fill-opacity:1;stroke-opacity:0.3" />
<rect x="809" y="91" width="21" height="5" style="fill:#5d3c2d;stroke:black;stroke-width:1;fill-opacity:1;stroke-opacity:0.3" />
<line x1="794" y1="107" x2="803" y2="109" stroke="black" stroke-width="1" />
<line x1="803" y1="109" x2="813" y2="107" stroke="black" stroke-width="1" />
<rect x="773" y="105" width="21" height="5" style="fill:#5d3c2d;stroke:black;stroke-width:1;fill-opacity:1;stroke-opacity:0.3" />
<rect x="813" y="105" width="21" height="5" style="fill:#5d3c2d;stroke:black;stroke-width:1;fill-opacity:1;stroke-opacity:0.3" />
<line x1="794" y1="114" x2="803" y2="116" stroke="black" stroke-width="1" />
<line x1="803" y1="116" x2="813" y2="114" stroke="black" stroke-width="1" />
<rect x="773" y="112" width="21" height="5" style="fill:#5d3c2d;stroke:black;stroke-width:1;fill-opacity:1;stroke-opacity:0.3" />
<rect x="813" y="112" width="21" height="5" style="fill:#5d3c2d;stroke:black;stroke-width:1;fill-opacity:1;stroke-opacity:0.3" />
<line x1="801" y1="86" x2="804" y2="88" stroke="black" stroke-width="1" />
<line x1="804" y1="88" x2="808" y2="86" stroke="black" stroke-width="1" />
<rect x="780" y="84" width="21" height="5" style="fill:#5d3c2d;stroke:black;stroke-width:1;fill-opacity:1;stroke-opacity:0.3" />
<rect x="808" y="84" width="21" height="5" style="fill:#5d3c2d;stroke:black;stroke-width:1;fill-opacity:1;stroke-opacity:0.3" />
<line x1="810" y1="58" x2="813" y2="60" stroke="black" stroke-width="1" />
<line x1="813" y1="60" x2="816" y2="58" stroke="black" stroke-width="1" />
<rect x="788" y="56" width="21" height="5" style="fill:#5d3c2d;stroke:black;stroke-width:1;fill-opacity:1;stroke-opacity:0.3" />
<rect x="816" y="56" width="21" height="5" style="fill:#5d3c2d;stroke:black;stroke-width:1;fill-opacity:1;stroke-opacity:0.3" />
<line x1="818" y1="51" x2="822" y2="53" stroke="black" stroke-width="1" />
<line x1="822" y1="53" x2="827" y2="51" stroke="black" stroke-width="1" />
<rect x="796" y="49" width="21" height="5" style="fill:#5d3c2d;stroke:black;stroke-width:1;fill-opacity:1;stroke-opacity:0.3" />
<rect x="827" y="49" width="21" height="5" style="fill:#5d3c2d;stroke:black;stroke-width:1;fill-opacity:1;stroke-opacity:0.3" />
<line x1="821" y1="65" x2="825" y2="67" stroke="black" stroke-width="1" />
<line x1="825" y1="67" x2="829" y2="65" stroke="black" stroke-width="1" />
<rect x="800" y="63" width="21" height="5" style="fill:#5d3c2d;stroke:black;stroke-width:1;fill-opacity:1;stroke-opacity:0.3" />
<rect x="829" y="63" width="21" height="5" style="fill:#5d3c2d;stroke:black;stroke-width:1;fill-opacity:1;stroke-opacity:0.3" />
<line x1="824" y1="72" x2="825" y2="74" stroke="black" stroke-width="1" />
<line x1="825" y1="74" x2="827" y2="72" stroke="black" stroke-width="1" />
<rect x="802" y="70" width="21" height="5" style="fill:#5d3c2d;stroke:black;stroke-width:1;fill-opacity:1;stroke-opacity:0.3" />
<rect x="827" y="70" width="21" height="5" style="fill:#5d3c2d;stroke:black;stroke-width:1;fill-opacity:1;stroke-opacity:0.3" />
<line x1="843" y1="37" x2="847" y2="39" stroke="black" stroke-width="1" />
<line x1="847" y1="39" x2="852" y2="37" stroke="black" stroke-width="1" />
<rect x="821" y="35" width="21" height="5" style="fill:#5d3c2d;stroke:black;stroke-width:1;fill-opacity:1;stroke-opacity:0.3" />
<rect x="852" y="35" width="21" height="5" style="fill:#5d3c2d;stroke:black;stroke-width:1;fill-opacity:1;stroke-opacity:0.3" />
<line x1="843" y1="44" x2="849" y2="46" stroke="black" stroke-width="1" />
<line x1="849" y1="46" x2="856" y2="44" stroke="black" stroke-width="1" />
<rect x="821" y="42" width="21" height="5" style="fill:#5d3c2d;stroke:black;stroke-width:1;fill-opacity:1;stroke-opacity:0.3" />
<rect x="856" y="42" width="21" height="5" style="fill:#5d3c2d;stroke:black;stroke-width:1;fill-opacity:1;stroke-opacity:0.3" />
<line x1="843" y1="79" x2="849" y2="81" stroke="black" stroke-width="1" />
<line x1="849" y1="81" x2="856" y2="79" stroke="black" stroke-width="1" />
<rect x="821" y="77" width="21" height="5" style="fill:#5d3c2d;stroke:black;stroke-width:1;fill-opacity:1;stroke-opacity:0.3" />
<rect x="856" y="77" width="21" height="5" style="fill:#5d3c2d;stroke:black;stroke-width:1;fill-opacity:1;stroke-opacity:0.3" />
<line x1="848" y1="100" x2="854" y2="102" stroke="black" stroke-width="1" />
<line x1="854" y1="102" x2="860" y2="100" stroke="black" stroke-width="1" />
<rect x="826" y="98" width="21" height="5" style="fill:#5d3c2d;stroke:black;stroke-width:1;fill-opacity:1;stroke-opacity:0.3" />
<rect x="860" y="98" width="21" height="5" style="fill:#5d3c2d;stroke:black;stroke-width:1;fill-opacity:1;stroke-opacity:0.3" />
<line x1="850" y1="121" x2="855" y2="123" stroke="black" stroke-width="1" />
<line x1="855" y1="123" x2="861" y2="121" stroke="black" stroke-width="1" />
<rect x="828" y="119" width="21" height="5" style="fill:#5d3c2d;stroke:black;stroke-width:1;fill-opacity:1;stroke-opacity:0.3" />
<rect x="861" y="119" width="21" height="5" style="fill:#5d3c2d;stroke:black;stroke-width:1;fill-opacity:1;stroke-opacity:0.3" />
<line x1="857" y1="30" x2="861" y2="32" stroke="black" stroke-width="1" />
<line x1="861" y1="32" x2="865" y2="30" stroke="black" stroke-width="1" />
<rect x="835" y="28" width="21" height="5" style="fill:#5d3c2d;stroke:black;stroke-width:1;fill-opacity:1;stroke-opacity:0.3" />
<rect x="865" y="28" width="21" height="5" style="fill:#5d3c2d;stroke:black;stroke-width:1;fill-opacity:1;stroke-opacity:0.3" />
<line x1="861" y1="58" x2="864" y2="60" stroke="black" stroke-width="1" />
<line x1="864" y1="60" x2="868" y2="58" stroke="black" stroke-width="1" />
<rect x="839" y="56" width="21" height="5" style="fill:#5d3c2d;stroke:black;stroke-width:1;fill-opacity:1;stroke-opacity:0.3" />
<rect x="868" y="56" width="21" height="5" style="fill:#5d3c2d;stroke:black;stroke-width:1;fill-opacity:1;stroke-opacity:0.3" />
<line x1="862" y1="86" x2="863" y2="88" stroke="black" stroke-width="1" />
<line x1="863" y1="88" x2="864" y2="86" stroke="black" stroke-width="1" />
<rect x="840" y="84" width="21" height="5" style="fill:#5d3c2d;stroke:black;stroke-width:1;fill-opacity:1;stroke-opacity:0.3" />
<rect x="864" y="84" width="21" height="5" style="fill:#5d3c2d;stroke:black;stroke-width:1;fill-opacity:1;stroke-opacity:0.3" />
<line x1="860" y1="93" x2="864" y2="95" stroke="black" stroke-width="1" />
<line x1="864" y1="95" x2="868" y2="93" stroke="black" stroke-width="1" />
<rect x="841" y="91" width="19" height="5" style="fill:#5d3c2d;stroke:black;stroke-width:1;fill-opacity:1;stroke-opacity:0.3" />
<rect x="868" y="91" width="21" height="5" style="fill:#5d3c2d;stroke:black;stroke-width:1;fill-opacity:1;stroke-opacity:0.3" />
<line x1="864" y1="107" x2="866" y2="109" stroke="black" stroke-width="1" />
<line x1="866" y1="109" x2="869" y2="107" stroke="black" stroke-width="1" />
<rect x="842" y="105" width="21" height="5" style="fill:#f5b024;stroke:black;stroke-width:1;fill-opacity:1;stroke-opacity:0.3" />
<rect x="869" y="105" width="21" height="5" style="fill:#f5b024;stroke:black;stroke-width:1;fill-opacity:1;stroke-opacity:0.3" />
<line x1="865" y1="114" x2="867" y2="116" stroke="black" stroke-width="1" />
<line x1="867" y1="116" x2="870" y2="114" stroke="black" stroke-width="1" />
<rect x="843" y="112" width="21" height="5" style="fill:#5d3c2d;stroke:black;stroke-width:1;fill-opacity:1;stroke-opacity:0.3" />
<rect x="870" y="112" width="21" height="5" style="fill:#5d3c2d;stroke:black;stroke-width:1;fill-opacity:1;stroke-opacity:0.3" />
<line x1="868" y1="128" x2="869" y2="130" stroke="black" stroke-width="1" />
<line x1="869" y1="130" x2="870" y2="128" stroke="black" stroke-width="1" />
<rect x="846" y="126" width="21" height="5" style="fill:#5d3c2d;stroke:black;stroke-width:1;fill-opacity:1;stroke-opacity:0.3" />
<rect x="870" y="126" width="21" height="5" style="fill:#5d3c2d;stroke:black;stroke-width:1;fill-opacity:1;stroke-opacity:0.3" />
<line x1="878" y1="51" x2="886" y2="53" stroke="black" stroke-width="1" />
<line x1="886" y1="53" x2="894" y2="51" stroke="black" stroke-width="1" />
<rect x="856" y="49" width="21" height="5" style="fill:#5d3c2d;stroke:black;stroke-width:1;fill-opacity:1;stroke-opacity:0.3" />
<rect x="894" y="49" width="21" height="5" style="fill:#5d3c2d;stroke:black;stroke-width:1;fill-opacity:1;stroke-opacity:0.3" />
<line x1="887" y1="65" x2="912" y2="67" stroke="black" stroke-width="1" />
<line x1="912" y1="67" x2="938" y2="65" stroke="black" stroke-width="1" />
<rect x="865" y="63" width="21" height="5" style="fill:#5d3c2d;stroke:black;stroke-width:1;fill-opacity:1;stroke-opacity:0.3" />
<rect x="938" y="63" width="21" height="5" style="fill:#5d3c2d;stroke:black;stroke-width:1;fill-opacity:1;stroke-opacity:0.3" />
<line x1="900" y1="37" x2="903" y2="39" stroke="black" stroke-width="1" />
<line x1="903" y1="39" x2="906" y2="37" stroke="black" stroke-width="1" />
<rect x="878" y="35" width="21" height="5" style="fill:#5d3c2d;stroke:black;stroke-width:1;fill-opacity:1;stroke-opacity:0.3" />
<rect x="906" y="35" width="21" height="5" style="fill:#5d3c2d;stroke:black;stroke-width:1;fill-opacity:1;stroke-opacity:0.3" />
<line x1="900" y1="44" x2="903" y2="46" stroke="black" stroke-width="1" />
<line x1="903" y1="46" x2="906" y2="44" stroke="black" stroke-width="1" />
<rect x="878" y="42" width="21" height="5" style="fill:#5d3c2d;stroke:black;stroke-width:1;fill-opacity:1;stroke-opacity:0.3" />
<rect x="906" y="42" width="21" height="5" style="fill:#5d3c2d;stroke:black;stroke-width:1;fill-opacity:1;stroke-opacity:0.3" />
<line x1="900" y1="72" x2="903" y2="74" stroke="black" stroke-width="1" />
<line x1="903" y1="74" x2="906" y2="72" stroke="black" stroke-width="1" />
<rect x="878" y="70" width="21" height="5" style="fill:#5d3c2d;stroke:black;stroke-width:1;fill-opacity:1;stroke-opacity:0.3" />
<rect x="906" y="70" width="21" height="5" style="fill:#5d3c2d;stroke:black;stroke-width:1;fill-opacity:1;stroke-opacity:0.3" />
<line x1="901" y1="79" x2="904" y2="81" stroke="black" stroke-width="1" />
<line x1="904" y1="81" x2="907" y2="79" stroke="black" stroke-width="1" />
<rect x="879" y="77" width="21" height="5" style="fill:#5d3c2d;stroke:black;stroke-width:1;fill-opacity:1;stroke-opacity:0.3" />
<rect x="907" y="77" width="21" height="5" style="fill:#5d3c2d;stroke:black;stroke-width:1;fill-opacity:1;stroke-opacity:0.3" />
<line x1="904" y1="135" x2="905" y2="137" stroke="black" stroke-width="1" />
<line x1="905" y1="137" x2="907" y2="135" stroke="black" stroke-width="1" />
<rect x="882" y="133" width="21" height="5" style="fill:#f5b024;stroke:black;stroke-width:1;fill-opacity:1;stroke-opacity:0.3" />
<rect x="907" y="133" width="21" height="5" style="fill:#f5b024;stroke:black;stroke-width:1;fill-opacity:1;stroke-opacity:0.3" />
<line x1="909" y1="30" x2="910" y2="32" stroke="black" stroke-width="1" />
<line x1="910" y1="32" x2="912" y2="30" stroke="black" stroke-width="1" />
<rect x="887" y="28" width="21" height="5" style="fill:#5d3c2d;stroke:black;stroke-width:1;fill-opacity:1;stroke-opacity:0.3" />
<rect x="912" y="28" width="21" height="5" style="fill:#5d3c2d;stroke:black;stroke-width:1;fill-opacity:1;stroke-opacity:0.3" />
<line x1="919" y1="58" x2="925" y2="60" stroke="black" stroke-width="1" />
<line x1="925" y1="60" x2="931" y2="58" stroke="black" stroke-width="1" />
<rect x="897" y="56" width="21" height="5" style="fill:#5d3c2d;stroke:black;stroke-width:1;fill-opacity:1;stroke-opacity:0.3" />
<rect x="931" y="56" width="20" height="5" style="fill:#5d3c2d;stroke:black;stroke-width:1;fill-opacity:1;stroke-opacity:0.3" />
<line x1="924" y1="86" x2="925" y2="88" stroke="black" stroke-width="1" />
<line x1="925" y1="88" x2="927" y2="86" stroke="black" stroke-width="1" />
<rect x="902" y="84" width="21" height="5" style="fill:#5d3c2d;stroke:black;stroke-width:1;fill-opacity:1;stroke-opacity:0.3" />
<rect x="927" y="84" width="21" height="5" style="fill:#5d3c2d;stroke:black;stroke-width:1;fill-opacity:1;stroke-opacity:0.3" />
<line x1="924" y1="93" x2="933" y2="95" stroke="black" stroke-width="1" />
<line x1="933" y1="95" x2="943" y2="93" stroke="black" stroke-width="1" />
<rect x="903" y="91" width="21" height="5" style="fill:#5d3c2d;stroke:black;stroke-width:1;fill-opacity:1;stroke-opacity:0.3" />
<rect x="943" y="91" width="21" height="5" style="fill:#5d3c2d;stroke:black;stroke-width:1;fill-opacity:1;stroke-opacity:0.3" />
<line x1="924" y1="100" x2="931" y2="102" stroke="black" stroke-width="1" />
<line x1="931" y1="102" x2="938" y2="100" stroke="black" stroke-width="1" />
<rect x="903" y="98" width="21" height="5" style="fill:#5d3c2d;stroke:black;stroke-width:1;fill-opacity:1;stroke-opacity:0.3" />
<rect x="938" y="98" width="21" height="5" style="fill:#5d3c2d;stroke:black;stroke-width:1;fill-opacity:1;stroke-opacity:0.3" />
<line x1="931" y1="107" x2="936" y2="109" stroke="black" stroke-width="1" />
<line x1="936" y1="109" x2="941" y2="107" stroke="black" stroke-width="1" />
<rect x="909" y="105" width="21" height="5" style="fill:#5d3c2d;stroke:black;stroke-width:1;fill-opacity:1;stroke-opacity:0.3" />
<rect x="941" y="105" width="21" height="5" style="fill:#5d3c2d;stroke:black;stroke-width:1;fill-opacity:1;stroke-opacity:0.3" />
<line x1="932" y1="114" x2="942" y2="116" stroke="black" stroke-width="1" />
<line x1="942" y1="116" x2="952" y2="114" stroke="black" stroke-width="1" />
<rect x="910" y="112" width="21" height="5" style="fill:#5d3c2d;stroke:black;stroke-width:1;fill-opacity:1;stroke-opacity:0.3" />
<rect x="952" y="112" width="21" height="5" style="fill:#5d3c2d;stroke:black;stroke-width:1;fill-opacity:1;stroke-opacity:0.3" />
<line x1="933" y1="121" x2="944" y2="123" stroke="black" stroke-width="1" />
<line x1="944" y1="123" x2="956" y2="121" stroke="black" stroke-width="1" />
<rect x="911" y="119" width="21" height="5" style="fill:#5d3c2d;stroke:black;stroke-width:1;fill-opacity:1;stroke-opacity:0.3" />
<rect x="956" y="119" width="20" height="5" style="fill:#5d3c2d;stroke:black;stroke-width:1;fill-opacity:1;stroke-opacity:0.3" />
<line x1="935" y1="128" x2="943" y2="130" stroke="black" stroke-width="1" />
<line x1="943" y1="130" x2="952" y2="128" stroke="black" stroke-width="1" />
<rect x="913" y="126" width="21" height="5" style="fill:#5d3c2d;stroke:black;stroke-width:1;fill-opacity:1;stroke-opacity:0.3" />
<rect x="952" y="126" width="21" height="5" style="fill:#5d3c2d;stroke:black;stroke-width:1;fill-opacity:1;stroke-opacity:0.3" />
<line x1="938" y1="51" x2="945" y2="53" stroke="black" stroke-width="1" />
<line x1="945" y1="53" x2="953" y2="51" stroke="black" stroke-width="1" />
<rect x="916" y="49" width="21" height="5" style="fill:#5d3c2d;stroke:black;stroke-width:1;fill-opacity:1;stroke-opacity:0.3" />
<rect x="953" y="49" width="21" height="5" style="fill:#5d3c2d;stroke:black;stroke-width:1;fill-opacity:1;stroke-opacity:0.3" />
<line x1="943" y1="142" x2="949" y2="144" stroke="black" stroke-width="1" />
<line x1="949" y1="144" x2="956" y2="142" stroke="black" stroke-width="1" />
<rect x="921" y="140" width="21" height="5" style="fill:#5d3c2d;stroke:black;stroke-width:1;fill-opacity:1;stroke-opacity:0.3" />
<rect x="956" y="140" width="21" height="5" style="fill:#5d3c2d;stroke:black;stroke-width:1;fill-opacity:1;stroke-opacity:0.3" />
<line x1="944" y1="149" x2="948" y2="151" stroke="black" stroke-width="1" />
<line x1="948" y1="151" x2="952" y2="149" stroke="black" stroke-width="1" />
<rect x="922" y="147" width="21" height="5" style="fill:#5d3c2d;stroke:black;stroke-width:1;fill-opacity:1;stroke-opacity:0.3" />
<rect x="952" y="147" width="21" height="5" style="fill:#5d3c2d;stroke:black;stroke-width:1;fill-opacity:1;stroke-opacity:0.3" />
<line x1="945" y1="156" x2="950" y2="158" stroke="black" stroke-width="1" />
<line x1="950" y1="158" x2="956" y2="156" stroke="black" stroke-width="1" />
<rect x="923" y="154" width="21" height="5" style="fill:#5d3c2d;stroke:black;stroke-width:1;fill-opacity:1;stroke-opacity:0.3" />
<rect x="956" y="154" width="21" height="5" style="fill:#5d3c2d;stroke:black;stroke-width:1;fill-opacity:1;stroke-opacity:0.3" />
<line x1="949" y1="163" x2="950" y2="165" stroke="black" stroke-width="1" />
<line x1="950" y1="165" x2="952" y2="163" stroke="black" stroke-width="1" />
<rect x="927" y="161" width="21" height="5" style="fill:#5d3c2d;stroke:black;stroke-width:1;fill-opacity:1;stroke-opacity:0.3" />
<rect x="952" y="161" width="21" height="5" style="fill:#5d3c2d;stroke:black;stroke-width:1;fill-opacity:1;stroke-opacity:0.3" />
<line x1="951" y1="37" x2="953" y2="39" stroke="black" stroke-width="1" />
<line x1="953" y1="39" x2="955" y2="37" stroke="black" stroke-width="1" />
<rect x="929" y="35" width="21" height="5" style="fill:#5d3c2d;stroke:black;stroke-width:1;fill-opacity:1;stroke-opacity:0.3" />
<rect x="955" y="35" width="21" height="5" style="fill:#5d3c2d;stroke:black;stroke-width:1;fill-opacity:1;stroke-opacity:0.3" />
<line x1="953" y1="44" x2="954" y2="46" stroke="black" stroke-width="1" />
<line x1="954" y1="46" x2="956" y2="44" stroke="black" stroke-width="1" />
<rect x="931" y="42" width="21" height="5" style="fill:#5d3c2d;stroke:black;stroke-width:1;fill-opacity:1;stroke-opacity:0.3" />
<rect x="956" y="42" width="21" height="5" style="fill:#5d3c2d;stroke:black;stroke-width:1;fill-opacity:1;stroke-opacity:0.3" />
<line x1="953" y1="72" x2="954" y2="74" stroke="black" stroke-width="1" />
<line x1="954" y1="74" x2="956" y2="72" stroke="black" stroke-width="1" />
<rect x="931" y="70" width="21" height="5" style="fill:#5d3c2d;stroke:black;stroke-width:1;fill-opacity:1;stroke-opacity:0.3" />
<rect x="956" y="70" width="21" height="5" style="fill:#5d3c2d;stroke:black;stroke-width:1;fill-opacity:1;stroke-opacity:0.3" />
<line x1="953" y1="79" x2="954" y2="81" stroke="black" stroke-width="1" />
<line x1="954" y1="81" x2="956" y2="79" stroke="black" stroke-width="1" />
<rect x="931" y="77" width="21" height="5" style="fill:#5d3c2d;stroke:black;stroke-width:1;fill-opacity:1;stroke-opacity:0.3" />
<rect x="956" y="77" width="21" height="5" style="fill:#5d3c2d;stroke:black;stroke-width:1;fill-opacity:1;stroke-opacity:0.3" />
<text x="15"  y="176" style="font-family:Arial;font-size:10;stroke:black;fill:black;">all.merged.bam</text>
</svg>
    
