<?xml version="1.0" encoding="utf-8" standalone="no"?>
<!DOCTYPE svg PUBLIC "-//W3C//DTD SVG 1.1//EN"
  "http://www.w3.org/Graphics/SVG/1.1/DTD/svg11.dtd">
<svg height="1140" width="1000" version="1.1" viewBox="0 0 1000 1140" xmlns="http://www.w3.org/2000/svg" xmlns:xlink="http://www.w3.org/1999/xlink">
<line x1="62" y1="11" x2="937" y2="11" stroke="black" stroke-width="1" />
<rect x="62" y="9" width="684" height="5" style="fill:#f50002;stroke:black;stroke-width:1;fill-opacity:1;stroke-opacity:0.3" />
<rect x="747" y="9" width="139" height="5" style="fill:#53a1b5;stroke:black;stroke-width:1;fill-opacity:1;stroke-opacity:0.3" />
<rect x="887" y="9" width="49" height="5" style="fill:#f50002;stroke:black;stroke-width:1;fill-opacity:1;stroke-opacity:0.3" />
<text x="62"  y="23" style="font-family:Arial;font-size:10;stroke:black;fill:black;">Cre13.g568316.t1.2.v5.5 (-) chromosome_13:980422-981826</text>
<line x1="124" y1="30" x2="128" y2="32" stroke="black" stroke-width="1" />
<line x1="128" y1="32" x2="132" y2="30" stroke="black" stroke-width="1" />
<rect x="62" y="28" width="62" height="5" style="fill:#f5b024;stroke:black;stroke-width:1;fill-opacity:1;stroke-opacity:0.3" />
<rect x="132" y="28" width="62" height="5" style="fill:#f5b024;stroke:black;stroke-width:1;fill-opacity:1;stroke-opacity:0.3" />
<line x1="124" y1="37" x2="138" y2="39" stroke="black" stroke-width="1" />
<line x1="138" y1="39" x2="153" y2="37" stroke="black" stroke-width="1" />
<rect x="64" y="35" width="60" height="5" style="fill:#f5b024;stroke:black;stroke-width:1;fill-opacity:1;stroke-opacity:0.3" />
<rect x="153" y="35" width="62" height="5" style="fill:#f5b024;stroke:black;stroke-width:1;fill-opacity:1;stroke-opacity:0.3" />
<line x1="135" y1="44" x2="140" y2="46" stroke="black" stroke-width="1" />
<line x1="140" y1="46" x2="146" y2="44" stroke="black" stroke-width="1" />
<rect x="73" y="42" width="62" height="5" style="fill:#f5b024;stroke:black;stroke-width:1;fill-opacity:1;stroke-opacity:0.3" />
<rect x="146" y="42" width="62" height="5" style="fill:#f5b024;stroke:black;stroke-width:1;fill-opacity:1;stroke-opacity:0.3" />
<line x1="135" y1="51" x2="139" y2="53" stroke="black" stroke-width="1" />
<line x1="139" y1="53" x2="144" y2="51" stroke="black" stroke-width="1" />
<rect x="73" y="49" width="61" height="5" style="fill:#f5b024;stroke:black;stroke-width:1;fill-opacity:1;stroke-opacity:0.3" />
<rect x="144" y="49" width="62" height="5" style="fill:#f5b024;stroke:black;stroke-width:1;fill-opacity:1;stroke-opacity:0.3" />
<line x1="135" y1="58" x2="139" y2="60" stroke="black" stroke-width="1" />
<line x1="139" y1="60" x2="144" y2="58" stroke="black" stroke-width="1" />
<rect x="73" y="56" width="61" height="5" style="fill:#f5b024;stroke:black;stroke-width:1;fill-opacity:1;stroke-opacity:0.3" />
<rect x="144" y="56" width="62" height="5" style="fill:#f5b024;stroke:black;stroke-width:1;fill-opacity:1;stroke-opacity:0.3" />
<line x1="142" y1="65" x2="147" y2="67" stroke="black" stroke-width="1" />
<line x1="147" y1="67" x2="152" y2="65" stroke="black" stroke-width="1" />
<rect x="80" y="63" width="61" height="5" style="fill:#f5b024;stroke:black;stroke-width:1;fill-opacity:1;stroke-opacity:0.3" />
<rect x="152" y="63" width="62" height="5" style="fill:#f5b024;stroke:black;stroke-width:1;fill-opacity:1;stroke-opacity:0.3" />
<line x1="147" y1="72" x2="151" y2="74" stroke="black" stroke-width="1" />
<line x1="151" y1="74" x2="155" y2="72" stroke="black" stroke-width="1" />
<rect x="85" y="70" width="62" height="5" style="fill:#f5b024;stroke:black;stroke-width:1;fill-opacity:1;stroke-opacity:0.3" />
<rect x="155" y="70" width="62" height="5" style="fill:#f5b024;stroke:black;stroke-width:1;fill-opacity:1;stroke-opacity:0.3" />
<line x1="148" y1="79" x2="163" y2="81" stroke="black" stroke-width="1" />
<line x1="163" y1="81" x2="178" y2="79" stroke="black" stroke-width="1" />
<rect x="86" y="77" width="61" height="5" style="fill:#5d3c2d;stroke:black;stroke-width:1;fill-opacity:1;stroke-opacity:0.3" />
<rect x="178" y="77" width="62" height="5" style="fill:#5d3c2d;stroke:black;stroke-width:1;fill-opacity:1;stroke-opacity:0.3" />
<line x1="160" y1="86" x2="176" y2="88" stroke="black" stroke-width="1" />
<line x1="176" y1="88" x2="192" y2="86" stroke="black" stroke-width="1" />
<rect x="98" y="84" width="62" height="5" style="fill:#f5b024;stroke:black;stroke-width:1;fill-opacity:1;stroke-opacity:0.3" />
<rect x="192" y="84" width="62" height="5" style="fill:#f5b024;stroke:black;stroke-width:1;fill-opacity:1;stroke-opacity:0.3" />
<line x1="160" y1="93" x2="168" y2="95" stroke="black" stroke-width="1" />
<line x1="168" y1="95" x2="177" y2="93" stroke="black" stroke-width="1" />
<rect x="99" y="91" width="61" height="5" style="fill:#f5b024;stroke:black;stroke-width:1;fill-opacity:1;stroke-opacity:0.3" />
<rect x="177" y="91" width="62" height="5" style="fill:#f5b024;stroke:black;stroke-width:1;fill-opacity:1;stroke-opacity:0.3" />
<line x1="181" y1="100" x2="189" y2="102" stroke="black" stroke-width="1" />
<line x1="189" y1="102" x2="197" y2="100" stroke="black" stroke-width="1" />
<rect x="119" y="98" width="62" height="5" style="fill:#f5b024;stroke:black;stroke-width:1;fill-opacity:1;stroke-opacity:0.3" />
<rect x="197" y="98" width="62" height="5" style="fill:#f5b024;stroke:black;stroke-width:1;fill-opacity:1;stroke-opacity:0.3" />
<line x1="206" y1="107" x2="219" y2="109" stroke="black" stroke-width="1" />
<line x1="219" y1="109" x2="232" y2="107" stroke="black" stroke-width="1" />
<rect x="143" y="105" width="62" height="5" style="fill:#f5b024;stroke:black;stroke-width:1;fill-opacity:1;stroke-opacity:0.3" />
<rect x="232" y="105" width="62" height="5" style="fill:#f5b024;stroke:black;stroke-width:1;fill-opacity:1;stroke-opacity:0.3" />
<line x1="206" y1="114" x2="215" y2="116" stroke="black" stroke-width="1" />
<line x1="215" y1="116" x2="224" y2="114" stroke="black" stroke-width="1" />
<rect x="144" y="112" width="62" height="5" style="fill:#f5b024;stroke:black;stroke-width:1;fill-opacity:1;stroke-opacity:0.3" />
<rect x="224" y="112" width="62" height="5" style="fill:#f5b024;stroke:black;stroke-width:1;fill-opacity:1;stroke-opacity:0.3" />
<line x1="212" y1="121" x2="229" y2="123" stroke="black" stroke-width="1" />
<line x1="229" y1="123" x2="246" y2="121" stroke="black" stroke-width="1" />
<rect x="150" y="119" width="62" height="5" style="fill:#f5b024;stroke:black;stroke-width:1;fill-opacity:1;stroke-opacity:0.3" />
<rect x="246" y="119" width="62" height="5" style="fill:#f5b024;stroke:black;stroke-width:1;fill-opacity:1;stroke-opacity:0.3" />
<line x1="235" y1="128" x2="240" y2="130" stroke="black" stroke-width="1" />
<line x1="240" y1="130" x2="245" y2="128" stroke="black" stroke-width="1" />
<rect x="173" y="126" width="61" height="5" style="fill:#f5b024;stroke:black;stroke-width:1;fill-opacity:1;stroke-opacity:0.3" />
<rect x="245" y="126" width="62" height="5" style="fill:#f5b024;stroke:black;stroke-width:1;fill-opacity:1;stroke-opacity:0.3" />
<line x1="235" y1="135" x2="240" y2="137" stroke="black" stroke-width="1" />
<line x1="240" y1="137" x2="245" y2="135" stroke="black" stroke-width="1" />
<rect x="173" y="133" width="61" height="5" style="fill:#f5b024;stroke:black;stroke-width:1;fill-opacity:1;stroke-opacity:0.3" />
<rect x="245" y="133" width="62" height="5" style="fill:#f5b024;stroke:black;stroke-width:1;fill-opacity:1;stroke-opacity:0.3" />
<line x1="239" y1="142" x2="242" y2="144" stroke="black" stroke-width="1" />
<line x1="242" y1="144" x2="246" y2="142" stroke="black" stroke-width="1" />
<rect x="178" y="140" width="61" height="5" style="fill:#f5b024;stroke:black;stroke-width:1;fill-opacity:1;stroke-opacity:0.3" />
<rect x="246" y="140" width="62" height="5" style="fill:#f5b024;stroke:black;stroke-width:1;fill-opacity:1;stroke-opacity:0.3" />
<line x1="254" y1="149" x2="265" y2="151" stroke="black" stroke-width="1" />
<line x1="265" y1="151" x2="277" y2="149" stroke="black" stroke-width="1" />
<rect x="192" y="147" width="62" height="5" style="fill:#f5b024;stroke:black;stroke-width:1;fill-opacity:1;stroke-opacity:0.3" />
<rect x="277" y="147" width="62" height="5" style="fill:#f5b024;stroke:black;stroke-width:1;fill-opacity:1;stroke-opacity:0.3" />
<line x1="261" y1="30" x2="265" y2="32" stroke="black" stroke-width="1" />
<line x1="265" y1="32" x2="269" y2="30" stroke="black" stroke-width="1" />
<rect x="199" y="28" width="61" height="5" style="fill:#f5b024;stroke:black;stroke-width:1;fill-opacity:1;stroke-opacity:0.3" />
<rect x="269" y="28" width="62" height="5" style="fill:#f5b024;stroke:black;stroke-width:1;fill-opacity:1;stroke-opacity:0.3" />
<line x1="270" y1="51" x2="305" y2="53" stroke="black" stroke-width="1" />
<line x1="305" y1="53" x2="341" y2="51" stroke="black" stroke-width="1" />
<rect x="208" y="49" width="62" height="5" style="fill:#f5b024;stroke:black;stroke-width:1;fill-opacity:1;stroke-opacity:0.3" />
<rect x="341" y="49" width="54" height="5" style="fill:#f5b024;stroke:black;stroke-width:1;fill-opacity:1;stroke-opacity:0.3" />
<line x1="269" y1="58" x2="293" y2="60" stroke="black" stroke-width="1" />
<line x1="293" y1="60" x2="317" y2="58" stroke="black" stroke-width="1" />
<rect x="208" y="56" width="61" height="5" style="fill:#f5b024;stroke:black;stroke-width:1;fill-opacity:1;stroke-opacity:0.3" />
<rect x="317" y="56" width="62" height="5" style="fill:#f5b024;stroke:black;stroke-width:1;fill-opacity:1;stroke-opacity:0.3" />
<line x1="284" y1="37" x2="292" y2="39" stroke="black" stroke-width="1" />
<line x1="292" y1="39" x2="300" y2="37" stroke="black" stroke-width="1" />
<rect x="221" y="35" width="62" height="5" style="fill:#f5b024;stroke:black;stroke-width:1;fill-opacity:1;stroke-opacity:0.3" />
<rect x="300" y="35" width="62" height="5" style="fill:#f5b024;stroke:black;stroke-width:1;fill-opacity:1;stroke-opacity:0.3" />
<line x1="289" y1="44" x2="301" y2="46" stroke="black" stroke-width="1" />
<line x1="301" y1="46" x2="314" y2="44" stroke="black" stroke-width="1" />
<rect x="227" y="42" width="61" height="5" style="fill:#f5b024;stroke:black;stroke-width:1;fill-opacity:1;stroke-opacity:0.3" />
<rect x="314" y="42" width="62" height="5" style="fill:#f5b024;stroke:black;stroke-width:1;fill-opacity:1;stroke-opacity:0.3" />
<line x1="290" y1="65" x2="297" y2="67" stroke="black" stroke-width="1" />
<line x1="297" y1="67" x2="304" y2="65" stroke="black" stroke-width="1" />
<rect x="228" y="63" width="62" height="5" style="fill:#5d3c2d;stroke:black;stroke-width:1;fill-opacity:1;stroke-opacity:0.3" />
<rect x="304" y="63" width="62" height="5" style="fill:#5d3c2d;stroke:black;stroke-width:1;fill-opacity:1;stroke-opacity:0.3" />
<line x1="298" y1="72" x2="306" y2="74" stroke="black" stroke-width="1" />
<line x1="306" y1="74" x2="314" y2="72" stroke="black" stroke-width="1" />
<rect x="236" y="70" width="62" height="5" style="fill:#f5b024;stroke:black;stroke-width:1;fill-opacity:1;stroke-opacity:0.3" />
<rect x="314" y="70" width="62" height="5" style="fill:#f5b024;stroke:black;stroke-width:1;fill-opacity:1;stroke-opacity:0.3" />
<line x1="304" y1="79" x2="318" y2="81" stroke="black" stroke-width="1" />
<line x1="318" y1="81" x2="332" y2="79" stroke="black" stroke-width="1" />
<rect x="241" y="77" width="62" height="5" style="fill:#f5b024;stroke:black;stroke-width:1;fill-opacity:1;stroke-opacity:0.3" />
<rect x="332" y="77" width="62" height="5" style="fill:#f5b024;stroke:black;stroke-width:1;fill-opacity:1;stroke-opacity:0.3" />
<line x1="383" y1="86" x2="395" y2="88" stroke="black" stroke-width="1" />
<line x1="395" y1="88" x2="408" y2="86" stroke="black" stroke-width="1" />
<rect x="321" y="84" width="61" height="5" style="fill:#f5b024;stroke:black;stroke-width:1;fill-opacity:1;stroke-opacity:0.3" />
<rect x="408" y="84" width="61" height="5" style="fill:#f5b024;stroke:black;stroke-width:1;fill-opacity:1;stroke-opacity:0.3" />
<line x1="393" y1="93" x2="401" y2="95" stroke="black" stroke-width="1" />
<line x1="401" y1="95" x2="409" y2="93" stroke="black" stroke-width="1" />
<rect x="331" y="91" width="62" height="5" style="fill:#f5b024;stroke:black;stroke-width:1;fill-opacity:1;stroke-opacity:0.3" />
<rect x="409" y="91" width="62" height="5" style="fill:#f5b024;stroke:black;stroke-width:1;fill-opacity:1;stroke-opacity:0.3" />
<line x1="400" y1="30" x2="404" y2="32" stroke="black" stroke-width="1" />
<line x1="404" y1="32" x2="408" y2="30" stroke="black" stroke-width="1" />
<rect x="338" y="28" width="61" height="5" style="fill:#f5b024;stroke:black;stroke-width:1;fill-opacity:1;stroke-opacity:0.3" />
<rect x="408" y="28" width="62" height="5" style="fill:#f5b024;stroke:black;stroke-width:1;fill-opacity:1;stroke-opacity:0.3" />
<line x1="446" y1="37" x2="464" y2="39" stroke="black" stroke-width="1" />
<line x1="464" y1="39" x2="483" y2="37" stroke="black" stroke-width="1" />
<rect x="384" y="35" width="61" height="5" style="fill:#f5b024;stroke:black;stroke-width:1;fill-opacity:1;stroke-opacity:0.3" />
<rect x="483" y="35" width="62" height="5" style="fill:#f5b024;stroke:black;stroke-width:1;fill-opacity:1;stroke-opacity:0.3" />
<line x1="458" y1="44" x2="466" y2="46" stroke="black" stroke-width="1" />
<line x1="466" y1="46" x2="475" y2="44" stroke="black" stroke-width="1" />
<rect x="397" y="42" width="61" height="5" style="fill:#5d3c2d;stroke:black;stroke-width:1;fill-opacity:1;stroke-opacity:0.3" />
<rect x="475" y="42" width="62" height="5" style="fill:#5d3c2d;stroke:black;stroke-width:1;fill-opacity:1;stroke-opacity:0.3" />
<line x1="469" y1="51" x2="475" y2="53" stroke="black" stroke-width="1" />
<line x1="475" y1="53" x2="482" y2="51" stroke="black" stroke-width="1" />
<rect x="407" y="49" width="62" height="5" style="fill:#f5b024;stroke:black;stroke-width:1;fill-opacity:1;stroke-opacity:0.3" />
<rect x="482" y="49" width="62" height="5" style="fill:#f5b024;stroke:black;stroke-width:1;fill-opacity:1;stroke-opacity:0.3" />
<line x1="469" y1="58" x2="472" y2="60" stroke="black" stroke-width="1" />
<line x1="472" y1="60" x2="476" y2="58" stroke="black" stroke-width="1" />
<rect x="408" y="56" width="61" height="5" style="fill:#5d3c2d;stroke:black;stroke-width:1;fill-opacity:1;stroke-opacity:0.3" />
<rect x="476" y="56" width="62" height="5" style="fill:#5d3c2d;stroke:black;stroke-width:1;fill-opacity:1;stroke-opacity:0.3" />
<line x1="485" y1="65" x2="512" y2="67" stroke="black" stroke-width="1" />
<line x1="512" y1="67" x2="539" y2="65" stroke="black" stroke-width="1" />
<rect x="423" y="63" width="62" height="5" style="fill:#f5b024;stroke:black;stroke-width:1;fill-opacity:1;stroke-opacity:0.3" />
<rect x="539" y="63" width="62" height="5" style="fill:#f5b024;stroke:black;stroke-width:1;fill-opacity:1;stroke-opacity:0.3" />
<line x1="528" y1="72" x2="537" y2="74" stroke="black" stroke-width="1" />
<line x1="537" y1="74" x2="546" y2="72" stroke="black" stroke-width="1" />
<rect x="466" y="70" width="62" height="5" style="fill:#5d3c2d;stroke:black;stroke-width:1;fill-opacity:1;stroke-opacity:0.3" />
<rect x="546" y="70" width="62" height="5" style="fill:#5d3c2d;stroke:black;stroke-width:1;fill-opacity:1;stroke-opacity:0.3" />
<line x1="558" y1="30" x2="571" y2="32" stroke="black" stroke-width="1" />
<line x1="571" y1="32" x2="585" y2="30" stroke="black" stroke-width="1" />
<rect x="496" y="28" width="62" height="5" style="fill:#f5b024;stroke:black;stroke-width:1;fill-opacity:1;stroke-opacity:0.3" />
<rect x="585" y="28" width="62" height="5" style="fill:#f5b024;stroke:black;stroke-width:1;fill-opacity:1;stroke-opacity:0.3" />
<line x1="576" y1="79" x2="579" y2="81" stroke="black" stroke-width="1" />
<line x1="579" y1="81" x2="583" y2="79" stroke="black" stroke-width="1" />
<rect x="514" y="77" width="62" height="5" style="fill:#f5b024;stroke:black;stroke-width:1;fill-opacity:1;stroke-opacity:0.3" />
<rect x="583" y="77" width="62" height="5" style="fill:#f5b024;stroke:black;stroke-width:1;fill-opacity:1;stroke-opacity:0.3" />
<line x1="583" y1="86" x2="586" y2="88" stroke="black" stroke-width="1" />
<line x1="586" y1="88" x2="589" y2="86" stroke="black" stroke-width="1" />
<rect x="520" y="84" width="62" height="5" style="fill:#5d3c2d;stroke:black;stroke-width:1;fill-opacity:1;stroke-opacity:0.3" />
<rect x="589" y="84" width="62" height="5" style="fill:#5d3c2d;stroke:black;stroke-width:1;fill-opacity:1;stroke-opacity:0.3" />
<line x1="583" y1="93" x2="590" y2="95" stroke="black" stroke-width="1" />
<line x1="590" y1="95" x2="598" y2="93" stroke="black" stroke-width="1" />
<rect x="520" y="91" width="62" height="5" style="fill:#5d3c2d;stroke:black;stroke-width:1;fill-opacity:1;stroke-opacity:0.3" />
<rect x="598" y="91" width="62" height="5" style="fill:#5d3c2d;stroke:black;stroke-width:1;fill-opacity:1;stroke-opacity:0.3" />
<line x1="588" y1="100" x2="591" y2="102" stroke="black" stroke-width="1" />
<line x1="591" y1="102" x2="595" y2="100" stroke="black" stroke-width="1" />
<rect x="525" y="98" width="62" height="5" style="fill:#f5b024;stroke:black;stroke-width:1;fill-opacity:1;stroke-opacity:0.3" />
<rect x="595" y="98" width="62" height="5" style="fill:#f5b024;stroke:black;stroke-width:1;fill-opacity:1;stroke-opacity:0.3" />
<line x1="608" y1="37" x2="618" y2="39" stroke="black" stroke-width="1" />
<line x1="618" y1="39" x2="629" y2="37" stroke="black" stroke-width="1" />
<rect x="545" y="35" width="62" height="5" style="fill:#f5b024;stroke:black;stroke-width:1;fill-opacity:1;stroke-opacity:0.3" />
<rect x="629" y="35" width="61" height="5" style="fill:#f5b024;stroke:black;stroke-width:1;fill-opacity:1;stroke-opacity:0.3" />
<line x1="610" y1="44" x2="619" y2="46" stroke="black" stroke-width="1" />
<line x1="619" y1="46" x2="629" y2="44" stroke="black" stroke-width="1" />
<rect x="548" y="42" width="62" height="5" style="fill:#f5b024;stroke:black;stroke-width:1;fill-opacity:1;stroke-opacity:0.3" />
<rect x="629" y="42" width="62" height="5" style="fill:#f5b024;stroke:black;stroke-width:1;fill-opacity:1;stroke-opacity:0.3" />
<line x1="614" y1="51" x2="628" y2="53" stroke="black" stroke-width="1" />
<line x1="628" y1="53" x2="642" y2="51" stroke="black" stroke-width="1" />
<rect x="552" y="49" width="62" height="5" style="fill:#f5b024;stroke:black;stroke-width:1;fill-opacity:1;stroke-opacity:0.3" />
<rect x="642" y="49" width="62" height="5" style="fill:#f5b024;stroke:black;stroke-width:1;fill-opacity:1;stroke-opacity:0.3" />
<line x1="682" y1="58" x2="690" y2="60" stroke="black" stroke-width="1" />
<line x1="690" y1="60" x2="699" y2="58" stroke="black" stroke-width="1" />
<rect x="619" y="56" width="62" height="5" style="fill:#f5b024;stroke:black;stroke-width:1;fill-opacity:1;stroke-opacity:0.3" />
<rect x="699" y="56" width="62" height="5" style="fill:#f5b024;stroke:black;stroke-width:1;fill-opacity:1;stroke-opacity:0.3" />
<line x1="697" y1="65" x2="712" y2="67" stroke="black" stroke-width="1" />
<line x1="712" y1="67" x2="727" y2="65" stroke="black" stroke-width="1" />
<rect x="635" y="63" width="62" height="5" style="fill:#f5b024;stroke:black;stroke-width:1;fill-opacity:1;stroke-opacity:0.3" />
<rect x="727" y="63" width="61" height="5" style="fill:#f5b024;stroke:black;stroke-width:1;fill-opacity:1;stroke-opacity:0.3" />
<line x1="697" y1="72" x2="711" y2="74" stroke="black" stroke-width="1" />
<line x1="711" y1="74" x2="726" y2="72" stroke="black" stroke-width="1" />
<rect x="635" y="70" width="62" height="5" style="fill:#f5b024;stroke:black;stroke-width:1;fill-opacity:1;stroke-opacity:0.3" />
<rect x="726" y="70" width="62" height="5" style="fill:#f5b024;stroke:black;stroke-width:1;fill-opacity:1;stroke-opacity:0.3" />
<line x1="715" y1="30" x2="736" y2="32" stroke="black" stroke-width="1" />
<line x1="736" y1="32" x2="758" y2="30" stroke="black" stroke-width="1" />
<rect x="652" y="28" width="62" height="5" style="fill:#f5b024;stroke:black;stroke-width:1;fill-opacity:1;stroke-opacity:0.3" />
<rect x="758" y="28" width="62" height="5" style="fill:#f5b024;stroke:black;stroke-width:1;fill-opacity:1;stroke-opacity:0.3" />
<line x1="715" y1="79" x2="721" y2="81" stroke="black" stroke-width="1" />
<line x1="721" y1="81" x2="728" y2="79" stroke="black" stroke-width="1" />
<rect x="653" y="77" width="62" height="5" style="fill:#f5b024;stroke:black;stroke-width:1;fill-opacity:1;stroke-opacity:0.3" />
<rect x="728" y="77" width="62" height="5" style="fill:#f5b024;stroke:black;stroke-width:1;fill-opacity:1;stroke-opacity:0.3" />
<line x1="750" y1="86" x2="762" y2="88" stroke="black" stroke-width="1" />
<line x1="762" y1="88" x2="775" y2="86" stroke="black" stroke-width="1" />
<rect x="688" y="84" width="62" height="5" style="fill:#f5b024;stroke:black;stroke-width:1;fill-opacity:1;stroke-opacity:0.3" />
<rect x="775" y="84" width="62" height="5" style="fill:#f5b024;stroke:black;stroke-width:1;fill-opacity:1;stroke-opacity:0.3" />
<line x1="750" y1="93" x2="762" y2="95" stroke="black" stroke-width="1" />
<line x1="762" y1="95" x2="775" y2="93" stroke="black" stroke-width="1" />
<rect x="688" y="91" width="62" height="5" style="fill:#f5b024;stroke:black;stroke-width:1;fill-opacity:1;stroke-opacity:0.3" />
<rect x="775" y="91" width="62" height="5" style="fill:#f5b024;stroke:black;stroke-width:1;fill-opacity:1;stroke-opacity:0.3" />
<line x1="760" y1="37" x2="772" y2="39" stroke="black" stroke-width="1" />
<line x1="772" y1="39" x2="784" y2="37" stroke="black" stroke-width="1" />
<rect x="698" y="35" width="62" height="5" style="fill:#f5b024;stroke:black;stroke-width:1;fill-opacity:1;stroke-opacity:0.3" />
<rect x="784" y="35" width="62" height="5" style="fill:#f5b024;stroke:black;stroke-width:1;fill-opacity:1;stroke-opacity:0.3" />
<line x1="760" y1="44" x2="772" y2="46" stroke="black" stroke-width="1" />
<line x1="772" y1="46" x2="784" y2="44" stroke="black" stroke-width="1" />
<rect x="698" y="42" width="62" height="5" style="fill:#f5b024;stroke:black;stroke-width:1;fill-opacity:1;stroke-opacity:0.3" />
<rect x="784" y="42" width="62" height="5" style="fill:#f5b024;stroke:black;stroke-width:1;fill-opacity:1;stroke-opacity:0.3" />
<line x1="770" y1="51" x2="775" y2="53" stroke="black" stroke-width="1" />
<line x1="775" y1="53" x2="780" y2="51" stroke="black" stroke-width="1" />
<rect x="708" y="49" width="62" height="5" style="fill:#f5b024;stroke:black;stroke-width:1;fill-opacity:1;stroke-opacity:0.3" />
<rect x="780" y="49" width="62" height="5" style="fill:#f5b024;stroke:black;stroke-width:1;fill-opacity:1;stroke-opacity:0.3" />
<line x1="770" y1="100" x2="775" y2="102" stroke="black" stroke-width="1" />
<line x1="775" y1="102" x2="780" y2="100" stroke="black" stroke-width="1" />
<rect x="708" y="98" width="62" height="5" style="fill:#f5b024;stroke:black;stroke-width:1;fill-opacity:1;stroke-opacity:0.3" />
<rect x="780" y="98" width="62" height="5" style="fill:#f5b024;stroke:black;stroke-width:1;fill-opacity:1;stroke-opacity:0.3" />
<line x1="777" y1="107" x2="781" y2="109" stroke="black" stroke-width="1" />
<line x1="781" y1="109" x2="786" y2="107" stroke="black" stroke-width="1" />
<rect x="715" y="105" width="62" height="5" style="fill:#f5b024;stroke:black;stroke-width:1;fill-opacity:1;stroke-opacity:0.3" />
<rect x="786" y="105" width="62" height="5" style="fill:#f5b024;stroke:black;stroke-width:1;fill-opacity:1;stroke-opacity:0.3" />
<line x1="778" y1="114" x2="792" y2="116" stroke="black" stroke-width="1" />
<line x1="792" y1="116" x2="806" y2="114" stroke="black" stroke-width="1" />
<rect x="715" y="112" width="62" height="5" style="fill:#f5b024;stroke:black;stroke-width:1;fill-opacity:1;stroke-opacity:0.3" />
<rect x="806" y="112" width="62" height="5" style="fill:#f5b024;stroke:black;stroke-width:1;fill-opacity:1;stroke-opacity:0.3" />
<line x1="779" y1="121" x2="785" y2="123" stroke="black" stroke-width="1" />
<line x1="785" y1="123" x2="791" y2="121" stroke="black" stroke-width="1" />
<rect x="717" y="119" width="62" height="5" style="fill:#f5b024;stroke:black;stroke-width:1;fill-opacity:1;stroke-opacity:0.3" />
<rect x="791" y="119" width="62" height="5" style="fill:#f5b024;stroke:black;stroke-width:1;fill-opacity:1;stroke-opacity:0.3" />
<line x1="795" y1="128" x2="806" y2="130" stroke="black" stroke-width="1" />
<line x1="806" y1="130" x2="818" y2="128" stroke="black" stroke-width="1" />
<rect x="733" y="126" width="61" height="5" style="fill:#f5b024;stroke:black;stroke-width:1;fill-opacity:1;stroke-opacity:0.3" />
<rect x="818" y="126" width="62" height="5" style="fill:#f5b024;stroke:black;stroke-width:1;fill-opacity:1;stroke-opacity:0.3" />
<line x1="797" y1="135" x2="821" y2="137" stroke="black" stroke-width="1" />
<line x1="821" y1="137" x2="846" y2="135" stroke="black" stroke-width="1" />
<rect x="735" y="133" width="62" height="5" style="fill:#f5b024;stroke:black;stroke-width:1;fill-opacity:1;stroke-opacity:0.3" />
<rect x="846" y="133" width="19" height="5" style="fill:#f5b024;stroke:black;stroke-width:1;fill-opacity:1;stroke-opacity:0.3" />
<rect x="866" y="133" width="42" height="5" style="fill:#f5b024;stroke:black;stroke-width:1;fill-opacity:1;stroke-opacity:0.3" />
<line x1="797" y1="142" x2="821" y2="144" stroke="black" stroke-width="1" />
<line x1="821" y1="144" x2="846" y2="142" stroke="black" stroke-width="1" />
<rect x="735" y="140" width="62" height="5" style="fill:#f5b024;stroke:black;stroke-width:1;fill-opacity:1;stroke-opacity:0.3" />
<rect x="846" y="140" width="19" height="5" style="fill:#f5b024;stroke:black;stroke-width:1;fill-opacity:1;stroke-opacity:0.3" />
<rect x="866" y="140" width="42" height="5" style="fill:#f5b024;stroke:black;stroke-width:1;fill-opacity:1;stroke-opacity:0.3" />
<line x1="808" y1="149" x2="817" y2="151" stroke="black" stroke-width="1" />
<line x1="817" y1="151" x2="827" y2="149" stroke="black" stroke-width="1" />
<rect x="746" y="147" width="62" height="5" style="fill:#f5b024;stroke:black;stroke-width:1;fill-opacity:1;stroke-opacity:0.3" />
<rect x="827" y="147" width="62" height="5" style="fill:#f5b024;stroke:black;stroke-width:1;fill-opacity:1;stroke-opacity:0.3" />
<line x1="809" y1="156" x2="818" y2="158" stroke="black" stroke-width="1" />
<line x1="818" y1="158" x2="827" y2="156" stroke="black" stroke-width="1" />
<rect x="747" y="154" width="61" height="5" style="fill:#f5b024;stroke:black;stroke-width:1;fill-opacity:1;stroke-opacity:0.3" />
<rect x="827" y="154" width="62" height="5" style="fill:#f5b024;stroke:black;stroke-width:1;fill-opacity:1;stroke-opacity:0.3" />
<line x1="809" y1="163" x2="818" y2="165" stroke="black" stroke-width="1" />
<line x1="818" y1="165" x2="827" y2="163" stroke="black" stroke-width="1" />
<rect x="747" y="161" width="61" height="5" style="fill:#f5b024;stroke:black;stroke-width:1;fill-opacity:1;stroke-opacity:0.3" />
<rect x="827" y="161" width="62" height="5" style="fill:#f5b024;stroke:black;stroke-width:1;fill-opacity:1;stroke-opacity:0.3" />
<line x1="828" y1="58" x2="837" y2="60" stroke="black" stroke-width="1" />
<line x1="837" y1="60" x2="846" y2="58" stroke="black" stroke-width="1" />
<rect x="766" y="56" width="62" height="5" style="fill:#f5b024;stroke:black;stroke-width:1;fill-opacity:1;stroke-opacity:0.3" />
<rect x="846" y="56" width="62" height="5" style="fill:#f5b024;stroke:black;stroke-width:1;fill-opacity:1;stroke-opacity:0.3" />
<text x="15"  y="176" style="font-family:Arial;font-size:10;stroke:black;fill:black;">all.merged.bam</text>
</svg>
    
