<?xml version="1.0" encoding="utf-8" standalone="no"?>
<!DOCTYPE svg PUBLIC "-//W3C//DTD SVG 1.1//EN"
  "http://www.w3.org/Graphics/SVG/1.1/DTD/svg11.dtd">
<svg height="1140" width="1000" version="1.1" viewBox="0 0 1000 1140" xmlns="http://www.w3.org/2000/svg" xmlns:xlink="http://www.w3.org/1999/xlink">
<line x1="42" y1="11" x2="957" y2="11" stroke="black" stroke-width="1" />
<rect x="42" y="9" width="48" height="5" style="fill:#f50002;stroke:black;stroke-width:1;fill-opacity:1;stroke-opacity:0.3" />
<rect x="91" y="9" width="544" height="5" style="fill:#53a1b5;stroke:black;stroke-width:1;fill-opacity:1;stroke-opacity:0.3" />
<rect x="686" y="9" width="46" height="5" style="fill:#53a1b5;stroke:black;stroke-width:1;fill-opacity:1;stroke-opacity:0.3" />
<rect x="781" y="9" width="51" height="5" style="fill:#53a1b5;stroke:black;stroke-width:1;fill-opacity:1;stroke-opacity:0.3" />
<rect x="833" y="9" width="124" height="5" style="fill:#f50002;stroke:black;stroke-width:1;fill-opacity:1;stroke-opacity:0.3" />
<text x="42"  y="23" style="font-family:Arial;font-size:10;stroke:black;fill:black;">Cre10.g450700.t1.1.v5.5 (+) chromosome_10:4290280-4292452</text>
<line x1="46" y1="30" x2="55" y2="32" stroke="black" stroke-width="1" />
<line x1="55" y1="32" x2="64" y2="30" stroke="black" stroke-width="1" />
<rect x="4" y="28" width="42" height="5" style="fill:#5d3c2d;stroke:black;stroke-width:1;fill-opacity:1;stroke-opacity:0.3" />
<rect x="64" y="28" width="42" height="5" style="fill:#5d3c2d;stroke:black;stroke-width:1;fill-opacity:1;stroke-opacity:0.3" />
<line x1="130" y1="37" x2="145" y2="39" stroke="black" stroke-width="1" />
<line x1="145" y1="39" x2="161" y2="37" stroke="black" stroke-width="1" />
<rect x="88" y="35" width="42" height="5" style="fill:#f5b024;stroke:black;stroke-width:1;fill-opacity:1;stroke-opacity:0.3" />
<rect x="161" y="35" width="42" height="5" style="fill:#f5b024;stroke:black;stroke-width:1;fill-opacity:1;stroke-opacity:0.3" />
<line x1="131" y1="44" x2="160" y2="46" stroke="black" stroke-width="1" />
<line x1="160" y1="46" x2="190" y2="44" stroke="black" stroke-width="1" />
<rect x="89" y="42" width="42" height="5" style="fill:#5d3c2d;stroke:black;stroke-width:1;fill-opacity:1;stroke-opacity:0.3" />
<rect x="190" y="42" width="40" height="5" style="fill:#5d3c2d;stroke:black;stroke-width:1;fill-opacity:1;stroke-opacity:0.3" />
<line x1="132" y1="51" x2="147" y2="53" stroke="black" stroke-width="1" />
<line x1="147" y1="53" x2="163" y2="51" stroke="black" stroke-width="1" />
<rect x="90" y="49" width="42" height="5" style="fill:#5d3c2d;stroke:black;stroke-width:1;fill-opacity:1;stroke-opacity:0.3" />
<rect x="163" y="49" width="42" height="5" style="fill:#5d3c2d;stroke:black;stroke-width:1;fill-opacity:1;stroke-opacity:0.3" />
<line x1="133" y1="58" x2="137" y2="60" stroke="black" stroke-width="1" />
<line x1="137" y1="60" x2="142" y2="58" stroke="black" stroke-width="1" />
<rect x="91" y="56" width="42" height="5" style="fill:#5d3c2d;stroke:black;stroke-width:1;fill-opacity:1;stroke-opacity:0.3" />
<rect x="142" y="56" width="39" height="5" style="fill:#5d3c2d;stroke:black;stroke-width:1;fill-opacity:1;stroke-opacity:0.3" />
<line x1="134" y1="65" x2="138" y2="67" stroke="black" stroke-width="1" />
<line x1="138" y1="67" x2="143" y2="65" stroke="black" stroke-width="1" />
<rect x="92" y="63" width="42" height="5" style="fill:#5d3c2d;stroke:black;stroke-width:1;fill-opacity:1;stroke-opacity:0.3" />
<rect x="143" y="63" width="40" height="5" style="fill:#5d3c2d;stroke:black;stroke-width:1;fill-opacity:1;stroke-opacity:0.3" />
<line x1="160" y1="72" x2="163" y2="74" stroke="black" stroke-width="1" />
<line x1="163" y1="74" x2="167" y2="72" stroke="black" stroke-width="1" />
<rect x="98" y="70" width="61" height="5" style="fill:#5d3c2d;stroke:black;stroke-width:1;fill-opacity:1;stroke-opacity:0.3" />
<rect x="167" y="70" width="63" height="5" style="fill:#5d3c2d;stroke:black;stroke-width:1;fill-opacity:1;stroke-opacity:0.3" />
<line x1="146" y1="79" x2="150" y2="81" stroke="black" stroke-width="1" />
<line x1="150" y1="81" x2="155" y2="79" stroke="black" stroke-width="1" />
<rect x="104" y="77" width="42" height="5" style="fill:#5d3c2d;stroke:black;stroke-width:1;fill-opacity:1;stroke-opacity:0.3" />
<rect x="155" y="77" width="41" height="5" style="fill:#5d3c2d;stroke:black;stroke-width:1;fill-opacity:1;stroke-opacity:0.3" />
<line x1="150" y1="30" x2="156" y2="32" stroke="black" stroke-width="1" />
<line x1="156" y1="32" x2="163" y2="30" stroke="black" stroke-width="1" />
<rect x="108" y="28" width="42" height="5" style="fill:#5d3c2d;stroke:black;stroke-width:1;fill-opacity:1;stroke-opacity:0.3" />
<rect x="163" y="28" width="34" height="5" style="fill:#5d3c2d;stroke:black;stroke-width:1;fill-opacity:1;stroke-opacity:0.3" />
<line x1="152" y1="86" x2="156" y2="88" stroke="black" stroke-width="1" />
<line x1="156" y1="88" x2="161" y2="86" stroke="black" stroke-width="1" />
<rect x="109" y="84" width="42" height="5" style="fill:#5d3c2d;stroke:black;stroke-width:1;fill-opacity:1;stroke-opacity:0.3" />
<rect x="161" y="84" width="41" height="5" style="fill:#5d3c2d;stroke:black;stroke-width:1;fill-opacity:1;stroke-opacity:0.3" />
<line x1="153" y1="93" x2="156" y2="95" stroke="black" stroke-width="1" />
<line x1="156" y1="95" x2="160" y2="93" stroke="black" stroke-width="1" />
<rect x="111" y="91" width="42" height="5" style="fill:#f5b024;stroke:black;stroke-width:1;fill-opacity:1;stroke-opacity:0.3" />
<rect x="160" y="91" width="35" height="5" style="fill:#f5b024;stroke:black;stroke-width:1;fill-opacity:1;stroke-opacity:0.3" />
<line x1="153" y1="100" x2="157" y2="102" stroke="black" stroke-width="1" />
<line x1="157" y1="102" x2="161" y2="100" stroke="black" stroke-width="1" />
<rect x="111" y="98" width="42" height="5" style="fill:#f5b024;stroke:black;stroke-width:1;fill-opacity:1;stroke-opacity:0.3" />
<rect x="161" y="98" width="41" height="5" style="fill:#f5b024;stroke:black;stroke-width:1;fill-opacity:1;stroke-opacity:0.3" />
<line x1="154" y1="107" x2="157" y2="109" stroke="black" stroke-width="1" />
<line x1="157" y1="109" x2="160" y2="107" stroke="black" stroke-width="1" />
<rect x="112" y="105" width="42" height="5" style="fill:#5d3c2d;stroke:black;stroke-width:1;fill-opacity:1;stroke-opacity:0.3" />
<rect x="160" y="105" width="42" height="5" style="fill:#5d3c2d;stroke:black;stroke-width:1;fill-opacity:1;stroke-opacity:0.3" />
<line x1="155" y1="114" x2="158" y2="116" stroke="black" stroke-width="1" />
<line x1="158" y1="116" x2="161" y2="114" stroke="black" stroke-width="1" />
<rect x="112" y="112" width="42" height="5" style="fill:#5d3c2d;stroke:black;stroke-width:1;fill-opacity:1;stroke-opacity:0.3" />
<rect x="161" y="112" width="42" height="5" style="fill:#5d3c2d;stroke:black;stroke-width:1;fill-opacity:1;stroke-opacity:0.3" />
<line x1="155" y1="121" x2="168" y2="123" stroke="black" stroke-width="1" />
<line x1="168" y1="123" x2="182" y2="121" stroke="black" stroke-width="1" />
<rect x="113" y="119" width="42" height="5" style="fill:#5d3c2d;stroke:black;stroke-width:1;fill-opacity:1;stroke-opacity:0.3" />
<rect x="182" y="119" width="42" height="5" style="fill:#5d3c2d;stroke:black;stroke-width:1;fill-opacity:1;stroke-opacity:0.3" />
<line x1="157" y1="128" x2="160" y2="130" stroke="black" stroke-width="1" />
<line x1="160" y1="130" x2="163" y2="128" stroke="black" stroke-width="1" />
<rect x="115" y="126" width="42" height="5" style="fill:#5d3c2d;stroke:black;stroke-width:1;fill-opacity:1;stroke-opacity:0.3" />
<rect x="163" y="126" width="42" height="5" style="fill:#5d3c2d;stroke:black;stroke-width:1;fill-opacity:1;stroke-opacity:0.3" />
<line x1="158" y1="135" x2="160" y2="137" stroke="black" stroke-width="1" />
<line x1="160" y1="137" x2="162" y2="135" stroke="black" stroke-width="1" />
<rect x="115" y="133" width="42" height="5" style="fill:#5d3c2d;stroke:black;stroke-width:1;fill-opacity:1;stroke-opacity:0.3" />
<rect x="162" y="133" width="42" height="5" style="fill:#5d3c2d;stroke:black;stroke-width:1;fill-opacity:1;stroke-opacity:0.3" />
<line x1="158" y1="142" x2="161" y2="144" stroke="black" stroke-width="1" />
<line x1="161" y1="144" x2="165" y2="142" stroke="black" stroke-width="1" />
<rect x="116" y="140" width="42" height="5" style="fill:#5d3c2d;stroke:black;stroke-width:1;fill-opacity:1;stroke-opacity:0.3" />
<rect x="165" y="140" width="41" height="5" style="fill:#5d3c2d;stroke:black;stroke-width:1;fill-opacity:1;stroke-opacity:0.3" />
<line x1="168" y1="149" x2="185" y2="151" stroke="black" stroke-width="1" />
<line x1="185" y1="151" x2="202" y2="149" stroke="black" stroke-width="1" />
<rect x="126" y="147" width="42" height="5" style="fill:#5d3c2d;stroke:black;stroke-width:1;fill-opacity:1;stroke-opacity:0.3" />
<rect x="202" y="147" width="42" height="5" style="fill:#5d3c2d;stroke:black;stroke-width:1;fill-opacity:1;stroke-opacity:0.3" />
<line x1="168" y1="156" x2="177" y2="158" stroke="black" stroke-width="1" />
<line x1="177" y1="158" x2="187" y2="156" stroke="black" stroke-width="1" />
<rect x="126" y="154" width="42" height="5" style="fill:#5d3c2d;stroke:black;stroke-width:1;fill-opacity:1;stroke-opacity:0.3" />
<rect x="187" y="154" width="42" height="5" style="fill:#5d3c2d;stroke:black;stroke-width:1;fill-opacity:1;stroke-opacity:0.3" />
<line x1="173" y1="163" x2="181" y2="165" stroke="black" stroke-width="1" />
<line x1="181" y1="165" x2="189" y2="163" stroke="black" stroke-width="1" />
<rect x="131" y="161" width="41" height="5" style="fill:#5d3c2d;stroke:black;stroke-width:1;fill-opacity:1;stroke-opacity:0.3" />
<rect x="189" y="161" width="42" height="5" style="fill:#5d3c2d;stroke:black;stroke-width:1;fill-opacity:1;stroke-opacity:0.3" />
<line x1="225" y1="58" x2="244" y2="60" stroke="black" stroke-width="1" />
<line x1="244" y1="60" x2="264" y2="58" stroke="black" stroke-width="1" />
<rect x="182" y="56" width="42" height="5" style="fill:#5d3c2d;stroke:black;stroke-width:1;fill-opacity:1;stroke-opacity:0.3" />
<rect x="264" y="56" width="42" height="5" style="fill:#5d3c2d;stroke:black;stroke-width:1;fill-opacity:1;stroke-opacity:0.3" />
<line x1="227" y1="65" x2="237" y2="67" stroke="black" stroke-width="1" />
<line x1="237" y1="67" x2="248" y2="65" stroke="black" stroke-width="1" />
<rect x="185" y="63" width="42" height="5" style="fill:#5d3c2d;stroke:black;stroke-width:1;fill-opacity:1;stroke-opacity:0.3" />
<rect x="248" y="63" width="41" height="5" style="fill:#5d3c2d;stroke:black;stroke-width:1;fill-opacity:1;stroke-opacity:0.3" />
<line x1="238" y1="93" x2="251" y2="95" stroke="black" stroke-width="1" />
<line x1="251" y1="95" x2="265" y2="93" stroke="black" stroke-width="1" />
<rect x="196" y="91" width="42" height="5" style="fill:#5d3c2d;stroke:black;stroke-width:1;fill-opacity:1;stroke-opacity:0.3" />
<rect x="265" y="91" width="42" height="5" style="fill:#5d3c2d;stroke:black;stroke-width:1;fill-opacity:1;stroke-opacity:0.3" />
<line x1="239" y1="30" x2="246" y2="32" stroke="black" stroke-width="1" />
<line x1="246" y1="32" x2="253" y2="30" stroke="black" stroke-width="1" />
<rect x="197" y="28" width="42" height="5" style="fill:#5d3c2d;stroke:black;stroke-width:1;fill-opacity:1;stroke-opacity:0.3" />
<rect x="253" y="28" width="42" height="5" style="fill:#5d3c2d;stroke:black;stroke-width:1;fill-opacity:1;stroke-opacity:0.3" />
<line x1="241" y1="79" x2="254" y2="81" stroke="black" stroke-width="1" />
<line x1="254" y1="81" x2="268" y2="79" stroke="black" stroke-width="1" />
<rect x="199" y="77" width="42" height="5" style="fill:#f5b024;stroke:black;stroke-width:1;fill-opacity:1;stroke-opacity:0.3" />
<rect x="268" y="77" width="42" height="5" style="fill:#f5b024;stroke:black;stroke-width:1;fill-opacity:1;stroke-opacity:0.3" />
<line x1="246" y1="37" x2="274" y2="39" stroke="black" stroke-width="1" />
<line x1="274" y1="39" x2="302" y2="37" stroke="black" stroke-width="1" />
<rect x="204" y="35" width="42" height="5" style="fill:#5d3c2d;stroke:black;stroke-width:1;fill-opacity:1;stroke-opacity:0.3" />
<rect x="302" y="35" width="42" height="5" style="fill:#5d3c2d;stroke:black;stroke-width:1;fill-opacity:1;stroke-opacity:0.3" />
<line x1="249" y1="51" x2="256" y2="53" stroke="black" stroke-width="1" />
<line x1="256" y1="53" x2="263" y2="51" stroke="black" stroke-width="1" />
<rect x="207" y="49" width="42" height="5" style="fill:#5d3c2d;stroke:black;stroke-width:1;fill-opacity:1;stroke-opacity:0.3" />
<rect x="263" y="49" width="42" height="5" style="fill:#5d3c2d;stroke:black;stroke-width:1;fill-opacity:1;stroke-opacity:0.3" />
<line x1="249" y1="86" x2="261" y2="88" stroke="black" stroke-width="1" />
<line x1="261" y1="88" x2="274" y2="86" stroke="black" stroke-width="1" />
<rect x="208" y="84" width="41" height="5" style="fill:#5d3c2d;stroke:black;stroke-width:1;fill-opacity:1;stroke-opacity:0.3" />
<rect x="274" y="84" width="42" height="5" style="fill:#5d3c2d;stroke:black;stroke-width:1;fill-opacity:1;stroke-opacity:0.3" />
<line x1="253" y1="100" x2="256" y2="102" stroke="black" stroke-width="1" />
<line x1="256" y1="102" x2="259" y2="100" stroke="black" stroke-width="1" />
<rect x="211" y="98" width="42" height="5" style="fill:#5d3c2d;stroke:black;stroke-width:1;fill-opacity:1;stroke-opacity:0.3" />
<rect x="259" y="98" width="42" height="5" style="fill:#5d3c2d;stroke:black;stroke-width:1;fill-opacity:1;stroke-opacity:0.3" />
<line x1="254" y1="107" x2="261" y2="109" stroke="black" stroke-width="1" />
<line x1="261" y1="109" x2="268" y2="107" stroke="black" stroke-width="1" />
<rect x="211" y="105" width="42" height="5" style="fill:#5d3c2d;stroke:black;stroke-width:1;fill-opacity:1;stroke-opacity:0.3" />
<rect x="268" y="105" width="42" height="5" style="fill:#5d3c2d;stroke:black;stroke-width:1;fill-opacity:1;stroke-opacity:0.3" />
<line x1="254" y1="114" x2="278" y2="116" stroke="black" stroke-width="1" />
<line x1="278" y1="116" x2="302" y2="114" stroke="black" stroke-width="1" />
<rect x="211" y="112" width="42" height="5" style="fill:#5d3c2d;stroke:black;stroke-width:1;fill-opacity:1;stroke-opacity:0.3" />
<rect x="302" y="112" width="41" height="5" style="fill:#5d3c2d;stroke:black;stroke-width:1;fill-opacity:1;stroke-opacity:0.3" />
<line x1="254" y1="128" x2="256" y2="130" stroke="black" stroke-width="1" />
<line x1="256" y1="130" x2="259" y2="128" stroke="black" stroke-width="1" />
<rect x="211" y="126" width="42" height="5" style="fill:#5d3c2d;stroke:black;stroke-width:1;fill-opacity:1;stroke-opacity:0.3" />
<rect x="259" y="126" width="42" height="5" style="fill:#5d3c2d;stroke:black;stroke-width:1;fill-opacity:1;stroke-opacity:0.3" />
<line x1="257" y1="135" x2="259" y2="137" stroke="black" stroke-width="1" />
<line x1="259" y1="137" x2="262" y2="135" stroke="black" stroke-width="1" />
<rect x="215" y="133" width="42" height="5" style="fill:#5d3c2d;stroke:black;stroke-width:1;fill-opacity:1;stroke-opacity:0.3" />
<rect x="262" y="133" width="42" height="5" style="fill:#5d3c2d;stroke:black;stroke-width:1;fill-opacity:1;stroke-opacity:0.3" />
<line x1="257" y1="142" x2="260" y2="144" stroke="black" stroke-width="1" />
<line x1="260" y1="144" x2="264" y2="142" stroke="black" stroke-width="1" />
<rect x="215" y="140" width="42" height="5" style="fill:#5d3c2d;stroke:black;stroke-width:1;fill-opacity:1;stroke-opacity:0.3" />
<rect x="264" y="140" width="42" height="5" style="fill:#5d3c2d;stroke:black;stroke-width:1;fill-opacity:1;stroke-opacity:0.3" />
<line x1="287" y1="121" x2="290" y2="123" stroke="black" stroke-width="1" />
<line x1="290" y1="123" x2="293" y2="121" stroke="black" stroke-width="1" />
<rect x="225" y="119" width="62" height="5" style="fill:#f5b024;stroke:black;stroke-width:1;fill-opacity:1;stroke-opacity:0.3" />
<rect x="293" y="119" width="52" height="5" style="fill:#f5b024;stroke:black;stroke-width:1;fill-opacity:1;stroke-opacity:0.3" />
<line x1="275" y1="44" x2="278" y2="46" stroke="black" stroke-width="1" />
<line x1="278" y1="46" x2="282" y2="44" stroke="black" stroke-width="1" />
<rect x="233" y="42" width="42" height="5" style="fill:#5d3c2d;stroke:black;stroke-width:1;fill-opacity:1;stroke-opacity:0.3" />
<rect x="282" y="42" width="42" height="5" style="fill:#5d3c2d;stroke:black;stroke-width:1;fill-opacity:1;stroke-opacity:0.3" />
<line x1="284" y1="72" x2="288" y2="74" stroke="black" stroke-width="1" />
<line x1="288" y1="74" x2="292" y2="72" stroke="black" stroke-width="1" />
<rect x="242" y="70" width="42" height="5" style="fill:#5d3c2d;stroke:black;stroke-width:1;fill-opacity:1;stroke-opacity:0.3" />
<rect x="292" y="70" width="42" height="5" style="fill:#5d3c2d;stroke:black;stroke-width:1;fill-opacity:1;stroke-opacity:0.3" />
<line x1="291" y1="149" x2="301" y2="151" stroke="black" stroke-width="1" />
<line x1="301" y1="151" x2="311" y2="149" stroke="black" stroke-width="1" />
<rect x="249" y="147" width="42" height="5" style="fill:#5d3c2d;stroke:black;stroke-width:1;fill-opacity:1;stroke-opacity:0.3" />
<rect x="311" y="147" width="42" height="5" style="fill:#5d3c2d;stroke:black;stroke-width:1;fill-opacity:1;stroke-opacity:0.3" />
<line x1="291" y1="156" x2="296" y2="158" stroke="black" stroke-width="1" />
<line x1="296" y1="158" x2="302" y2="156" stroke="black" stroke-width="1" />
<rect x="249" y="154" width="42" height="5" style="fill:#5d3c2d;stroke:black;stroke-width:1;fill-opacity:1;stroke-opacity:0.3" />
<rect x="302" y="154" width="42" height="5" style="fill:#5d3c2d;stroke:black;stroke-width:1;fill-opacity:1;stroke-opacity:0.3" />
<line x1="292" y1="163" x2="297" y2="165" stroke="black" stroke-width="1" />
<line x1="297" y1="165" x2="302" y2="163" stroke="black" stroke-width="1" />
<rect x="249" y="161" width="42" height="5" style="fill:#5d3c2d;stroke:black;stroke-width:1;fill-opacity:1;stroke-opacity:0.3" />
<rect x="302" y="161" width="42" height="5" style="fill:#5d3c2d;stroke:black;stroke-width:1;fill-opacity:1;stroke-opacity:0.3" />
<line x1="344" y1="30" x2="390" y2="32" stroke="black" stroke-width="1" />
<line x1="390" y1="32" x2="436" y2="30" stroke="black" stroke-width="1" />
<rect x="302" y="28" width="42" height="5" style="fill:#5d3c2d;stroke:black;stroke-width:1;fill-opacity:1;stroke-opacity:0.3" />
<rect x="436" y="28" width="42" height="5" style="fill:#5d3c2d;stroke:black;stroke-width:1;fill-opacity:1;stroke-opacity:0.3" />
<line x1="348" y1="51" x2="354" y2="53" stroke="black" stroke-width="1" />
<line x1="354" y1="53" x2="361" y2="51" stroke="black" stroke-width="1" />
<rect x="313" y="49" width="34" height="5" style="fill:#5d3c2d;stroke:black;stroke-width:1;fill-opacity:1;stroke-opacity:0.3" />
<rect x="361" y="49" width="42" height="5" style="fill:#5d3c2d;stroke:black;stroke-width:1;fill-opacity:1;stroke-opacity:0.3" />
<line x1="419" y1="37" x2="464" y2="39" stroke="black" stroke-width="1" />
<line x1="464" y1="39" x2="510" y2="37" stroke="black" stroke-width="1" />
<rect x="358" y="35" width="61" height="5" style="fill:#5d3c2d;stroke:black;stroke-width:1;fill-opacity:1;stroke-opacity:0.3" />
<rect x="510" y="35" width="63" height="5" style="fill:#5d3c2d;stroke:black;stroke-width:1;fill-opacity:1;stroke-opacity:0.3" />
<line x1="404" y1="44" x2="446" y2="46" stroke="black" stroke-width="1" />
<line x1="446" y1="46" x2="489" y2="44" stroke="black" stroke-width="1" />
<rect x="361" y="42" width="42" height="5" style="fill:#5d3c2d;stroke:black;stroke-width:1;fill-opacity:1;stroke-opacity:0.3" />
<rect x="489" y="42" width="42" height="5" style="fill:#5d3c2d;stroke:black;stroke-width:1;fill-opacity:1;stroke-opacity:0.3" />
<line x1="424" y1="58" x2="453" y2="60" stroke="black" stroke-width="1" />
<line x1="453" y1="60" x2="482" y2="58" stroke="black" stroke-width="1" />
<rect x="366" y="56" width="58" height="5" style="fill:#5d3c2d;stroke:black;stroke-width:1;fill-opacity:1;stroke-opacity:0.3" />
<rect x="482" y="56" width="54" height="5" style="fill:#5d3c2d;stroke:black;stroke-width:1;fill-opacity:1;stroke-opacity:0.3" />
<line x1="425" y1="65" x2="452" y2="67" stroke="black" stroke-width="1" />
<line x1="452" y1="67" x2="480" y2="65" stroke="black" stroke-width="1" />
<rect x="366" y="63" width="58" height="5" style="fill:#5d3c2d;stroke:black;stroke-width:1;fill-opacity:1;stroke-opacity:0.3" />
<rect x="480" y="63" width="56" height="5" style="fill:#5d3c2d;stroke:black;stroke-width:1;fill-opacity:1;stroke-opacity:0.3" />
<line x1="534" y1="30" x2="540" y2="32" stroke="black" stroke-width="1" />
<line x1="540" y1="32" x2="547" y2="30" stroke="black" stroke-width="1" />
<rect x="492" y="28" width="42" height="5" style="fill:#f5b024;stroke:black;stroke-width:1;fill-opacity:1;stroke-opacity:0.3" />
<rect x="547" y="28" width="42" height="5" style="fill:#f5b024;stroke:black;stroke-width:1;fill-opacity:1;stroke-opacity:0.3" />
<line x1="536" y1="51" x2="539" y2="53" stroke="black" stroke-width="1" />
<line x1="539" y1="53" x2="542" y2="51" stroke="black" stroke-width="1" />
<rect x="494" y="49" width="42" height="5" style="fill:#5d3c2d;stroke:black;stroke-width:1;fill-opacity:1;stroke-opacity:0.3" />
<rect x="542" y="49" width="41" height="5" style="fill:#5d3c2d;stroke:black;stroke-width:1;fill-opacity:1;stroke-opacity:0.3" />
<line x1="536" y1="72" x2="541" y2="74" stroke="black" stroke-width="1" />
<line x1="541" y1="74" x2="547" y2="72" stroke="black" stroke-width="1" />
<rect x="494" y="70" width="42" height="5" style="fill:#5d3c2d;stroke:black;stroke-width:1;fill-opacity:1;stroke-opacity:0.3" />
<rect x="547" y="70" width="38" height="5" style="fill:#5d3c2d;stroke:black;stroke-width:1;fill-opacity:1;stroke-opacity:0.3" />
<line x1="538" y1="79" x2="548" y2="81" stroke="black" stroke-width="1" />
<line x1="548" y1="81" x2="558" y2="79" stroke="black" stroke-width="1" />
<rect x="496" y="77" width="42" height="5" style="fill:#5d3c2d;stroke:black;stroke-width:1;fill-opacity:1;stroke-opacity:0.3" />
<rect x="558" y="77" width="41" height="5" style="fill:#5d3c2d;stroke:black;stroke-width:1;fill-opacity:1;stroke-opacity:0.3" />
<line x1="539" y1="86" x2="547" y2="88" stroke="black" stroke-width="1" />
<line x1="547" y1="88" x2="555" y2="86" stroke="black" stroke-width="1" />
<rect x="497" y="84" width="42" height="5" style="fill:#5d3c2d;stroke:black;stroke-width:1;fill-opacity:1;stroke-opacity:0.3" />
<rect x="555" y="84" width="42" height="5" style="fill:#5d3c2d;stroke:black;stroke-width:1;fill-opacity:1;stroke-opacity:0.3" />
<line x1="541" y1="93" x2="543" y2="95" stroke="black" stroke-width="1" />
<line x1="543" y1="95" x2="546" y2="93" stroke="black" stroke-width="1" />
<rect x="499" y="91" width="42" height="5" style="fill:#5d3c2d;stroke:black;stroke-width:1;fill-opacity:1;stroke-opacity:0.3" />
<rect x="546" y="91" width="41" height="5" style="fill:#5d3c2d;stroke:black;stroke-width:1;fill-opacity:1;stroke-opacity:0.3" />
<line x1="715" y1="30" x2="719" y2="32" stroke="black" stroke-width="1" />
<line x1="719" y1="32" x2="724" y2="30" stroke="black" stroke-width="1" />
<rect x="623" y="28" width="13" height="5" style="fill:#5d3c2d;stroke:black;stroke-width:1;fill-opacity:1;stroke-opacity:0.3" />
<line x1="636" y1="30" x2="686" y2="30" stroke="pink" stroke-width="1" />
<rect x="686" y="28" width="29" height="5" style="fill:#5d3c2d;stroke:black;stroke-width:1;fill-opacity:1;stroke-opacity:0.3" />
<rect x="724" y="28" width="8" height="5" style="fill:#5d3c2d;stroke:black;stroke-width:1;fill-opacity:1;stroke-opacity:0.3" />
<line x1="732" y1="30" x2="781" y2="30" stroke="pink" stroke-width="1" />
<rect x="781" y="28" width="34" height="5" style="fill:#5d3c2d;stroke:black;stroke-width:1;fill-opacity:1;stroke-opacity:0.3" />
<line x1="784" y1="37" x2="795" y2="39" stroke="black" stroke-width="1" />
<line x1="795" y1="39" x2="806" y2="37" stroke="black" stroke-width="1" />
<rect x="630" y="35" width="5" height="5" style="fill:#5d3c2d;stroke:black;stroke-width:1;fill-opacity:1;stroke-opacity:0.3" />
<line x1="636" y1="37" x2="686" y2="37" stroke="pink" stroke-width="1" />
<rect x="686" y="35" width="46" height="5" style="fill:#5d3c2d;stroke:black;stroke-width:1;fill-opacity:1;stroke-opacity:0.3" />
<line x1="732" y1="37" x2="781" y2="37" stroke="pink" stroke-width="1" />
<rect x="781" y="35" width="3" height="5" style="fill:#5d3c2d;stroke:black;stroke-width:1;fill-opacity:1;stroke-opacity:0.3" />
<rect x="806" y="35" width="63" height="5" style="fill:#5d3c2d;stroke:black;stroke-width:1;fill-opacity:1;stroke-opacity:0.3" />
<line x1="722" y1="44" x2="754" y2="46" stroke="black" stroke-width="1" />
<line x1="754" y1="46" x2="787" y2="44" stroke="black" stroke-width="1" />
<rect x="630" y="42" width="5" height="5" style="fill:#5d3c2d;stroke:black;stroke-width:1;fill-opacity:1;stroke-opacity:0.3" />
<line x1="636" y1="44" x2="686" y2="44" stroke="pink" stroke-width="1" />
<rect x="686" y="42" width="36" height="5" style="fill:#5d3c2d;stroke:black;stroke-width:1;fill-opacity:1;stroke-opacity:0.3" />
<rect x="787" y="42" width="42" height="5" style="fill:#5d3c2d;stroke:black;stroke-width:1;fill-opacity:1;stroke-opacity:0.3" />
<line x1="722" y1="51" x2="754" y2="53" stroke="black" stroke-width="1" />
<line x1="754" y1="53" x2="786" y2="51" stroke="black" stroke-width="1" />
<rect x="630" y="49" width="5" height="5" style="fill:#5d3c2d;stroke:black;stroke-width:1;fill-opacity:1;stroke-opacity:0.3" />
<line x1="636" y1="51" x2="686" y2="51" stroke="pink" stroke-width="1" />
<rect x="686" y="49" width="36" height="5" style="fill:#5d3c2d;stroke:black;stroke-width:1;fill-opacity:1;stroke-opacity:0.3" />
<rect x="786" y="49" width="42" height="5" style="fill:#5d3c2d;stroke:black;stroke-width:1;fill-opacity:1;stroke-opacity:0.3" />
<line x1="729" y1="58" x2="767" y2="60" stroke="black" stroke-width="1" />
<line x1="767" y1="60" x2="806" y2="58" stroke="black" stroke-width="1" />
<rect x="686" y="56" width="42" height="5" style="fill:#5d3c2d;stroke:black;stroke-width:1;fill-opacity:1;stroke-opacity:0.3" />
<rect x="806" y="56" width="42" height="5" style="fill:#5d3c2d;stroke:black;stroke-width:1;fill-opacity:1;stroke-opacity:0.3" />
<line x1="732" y1="65" x2="759" y2="67" stroke="black" stroke-width="1" />
<line x1="759" y1="67" x2="787" y2="65" stroke="black" stroke-width="1" />
<rect x="690" y="63" width="42" height="5" style="fill:#5d3c2d;stroke:black;stroke-width:1;fill-opacity:1;stroke-opacity:0.3" />
<rect x="787" y="63" width="42" height="5" style="fill:#5d3c2d;stroke:black;stroke-width:1;fill-opacity:1;stroke-opacity:0.3" />
<line x1="782" y1="72" x2="793" y2="74" stroke="black" stroke-width="1" />
<line x1="793" y1="74" x2="804" y2="72" stroke="black" stroke-width="1" />
<rect x="691" y="70" width="41" height="5" style="fill:#5d3c2d;stroke:black;stroke-width:1;fill-opacity:1;stroke-opacity:0.3" />
<line x1="732" y1="72" x2="781" y2="72" stroke="pink" stroke-width="1" />
<rect x="781" y="70" width="0" height="5" style="fill:#5d3c2d;stroke:black;stroke-width:1;fill-opacity:1;stroke-opacity:0.3" />
<rect x="804" y="70" width="42" height="5" style="fill:#5d3c2d;stroke:black;stroke-width:1;fill-opacity:1;stroke-opacity:0.3" />
<line x1="784" y1="79" x2="796" y2="81" stroke="black" stroke-width="1" />
<line x1="796" y1="81" x2="808" y2="79" stroke="black" stroke-width="1" />
<rect x="694" y="77" width="38" height="5" style="fill:#5d3c2d;stroke:black;stroke-width:1;fill-opacity:1;stroke-opacity:0.3" />
<line x1="732" y1="79" x2="781" y2="79" stroke="pink" stroke-width="1" />
<rect x="781" y="77" width="3" height="5" style="fill:#5d3c2d;stroke:black;stroke-width:1;fill-opacity:1;stroke-opacity:0.3" />
<rect x="808" y="77" width="42" height="5" style="fill:#5d3c2d;stroke:black;stroke-width:1;fill-opacity:1;stroke-opacity:0.3" />
<line x1="784" y1="86" x2="796" y2="88" stroke="black" stroke-width="1" />
<line x1="796" y1="88" x2="808" y2="86" stroke="black" stroke-width="1" />
<rect x="694" y="84" width="38" height="5" style="fill:#5d3c2d;stroke:black;stroke-width:1;fill-opacity:1;stroke-opacity:0.3" />
<line x1="732" y1="86" x2="781" y2="86" stroke="pink" stroke-width="1" />
<rect x="781" y="84" width="3" height="5" style="fill:#5d3c2d;stroke:black;stroke-width:1;fill-opacity:1;stroke-opacity:0.3" />
<rect x="808" y="84" width="42" height="5" style="fill:#5d3c2d;stroke:black;stroke-width:1;fill-opacity:1;stroke-opacity:0.3" />
<line x1="785" y1="93" x2="837" y2="95" stroke="black" stroke-width="1" />
<line x1="837" y1="95" x2="890" y2="93" stroke="black" stroke-width="1" />
<rect x="694" y="91" width="37" height="5" style="fill:#5d3c2d;stroke:black;stroke-width:1;fill-opacity:1;stroke-opacity:0.3" />
<line x1="732" y1="93" x2="781" y2="93" stroke="pink" stroke-width="1" />
<rect x="781" y="91" width="4" height="5" style="fill:#5d3c2d;stroke:black;stroke-width:1;fill-opacity:1;stroke-opacity:0.3" />
<rect x="890" y="91" width="42" height="5" style="fill:#5d3c2d;stroke:black;stroke-width:1;fill-opacity:1;stroke-opacity:0.3" />
<line x1="786" y1="100" x2="795" y2="102" stroke="black" stroke-width="1" />
<line x1="795" y1="102" x2="804" y2="100" stroke="black" stroke-width="1" />
<rect x="696" y="98" width="36" height="5" style="fill:#5d3c2d;stroke:black;stroke-width:1;fill-opacity:1;stroke-opacity:0.3" />
<line x1="732" y1="100" x2="781" y2="100" stroke="pink" stroke-width="1" />
<rect x="781" y="98" width="5" height="5" style="fill:#5d3c2d;stroke:black;stroke-width:1;fill-opacity:1;stroke-opacity:0.3" />
<rect x="804" y="98" width="42" height="5" style="fill:#5d3c2d;stroke:black;stroke-width:1;fill-opacity:1;stroke-opacity:0.3" />
<line x1="788" y1="107" x2="795" y2="109" stroke="black" stroke-width="1" />
<line x1="795" y1="109" x2="803" y2="107" stroke="black" stroke-width="1" />
<rect x="697" y="105" width="34" height="5" style="fill:#5d3c2d;stroke:black;stroke-width:1;fill-opacity:1;stroke-opacity:0.3" />
<line x1="732" y1="107" x2="781" y2="107" stroke="pink" stroke-width="1" />
<rect x="781" y="105" width="7" height="5" style="fill:#5d3c2d;stroke:black;stroke-width:1;fill-opacity:1;stroke-opacity:0.3" />
<rect x="803" y="105" width="42" height="5" style="fill:#5d3c2d;stroke:black;stroke-width:1;fill-opacity:1;stroke-opacity:0.3" />
<line x1="790" y1="114" x2="798" y2="116" stroke="black" stroke-width="1" />
<line x1="798" y1="116" x2="806" y2="114" stroke="black" stroke-width="1" />
<rect x="699" y="112" width="33" height="5" style="fill:#5d3c2d;stroke:black;stroke-width:1;fill-opacity:1;stroke-opacity:0.3" />
<line x1="732" y1="114" x2="781" y2="114" stroke="pink" stroke-width="1" />
<rect x="781" y="112" width="8" height="5" style="fill:#5d3c2d;stroke:black;stroke-width:1;fill-opacity:1;stroke-opacity:0.3" />
<rect x="806" y="112" width="42" height="5" style="fill:#5d3c2d;stroke:black;stroke-width:1;fill-opacity:1;stroke-opacity:0.3" />
<line x1="791" y1="121" x2="797" y2="123" stroke="black" stroke-width="1" />
<line x1="797" y1="123" x2="804" y2="121" stroke="black" stroke-width="1" />
<rect x="700" y="119" width="32" height="5" style="fill:#5d3c2d;stroke:black;stroke-width:1;fill-opacity:1;stroke-opacity:0.3" />
<line x1="732" y1="121" x2="781" y2="121" stroke="pink" stroke-width="1" />
<rect x="781" y="119" width="10" height="5" style="fill:#5d3c2d;stroke:black;stroke-width:1;fill-opacity:1;stroke-opacity:0.3" />
<rect x="804" y="119" width="42" height="5" style="fill:#5d3c2d;stroke:black;stroke-width:1;fill-opacity:1;stroke-opacity:0.3" />
<line x1="813" y1="128" x2="816" y2="130" stroke="black" stroke-width="1" />
<line x1="816" y1="130" x2="819" y2="128" stroke="black" stroke-width="1" />
<rect x="702" y="126" width="30" height="5" style="fill:#5d3c2d;stroke:black;stroke-width:1;fill-opacity:1;stroke-opacity:0.3" />
<line x1="732" y1="128" x2="781" y2="128" stroke="pink" stroke-width="1" />
<rect x="781" y="126" width="32" height="5" style="fill:#5d3c2d;stroke:black;stroke-width:1;fill-opacity:1;stroke-opacity:0.3" />
<rect x="819" y="126" width="63" height="5" style="fill:#5d3c2d;stroke:black;stroke-width:1;fill-opacity:1;stroke-opacity:0.3" />
<line x1="795" y1="135" x2="799" y2="137" stroke="black" stroke-width="1" />
<line x1="799" y1="137" x2="804" y2="135" stroke="black" stroke-width="1" />
<rect x="705" y="133" width="27" height="5" style="fill:#f5b024;stroke:black;stroke-width:1;fill-opacity:1;stroke-opacity:0.3" />
<line x1="732" y1="135" x2="781" y2="135" stroke="pink" stroke-width="1" />
<rect x="781" y="133" width="14" height="5" style="fill:#f5b024;stroke:black;stroke-width:1;fill-opacity:1;stroke-opacity:0.3" />
<rect x="804" y="133" width="42" height="5" style="fill:#f5b024;stroke:black;stroke-width:1;fill-opacity:1;stroke-opacity:0.3" />
<line x1="796" y1="142" x2="799" y2="144" stroke="black" stroke-width="1" />
<line x1="799" y1="144" x2="803" y2="142" stroke="black" stroke-width="1" />
<rect x="705" y="140" width="27" height="5" style="fill:#5d3c2d;stroke:black;stroke-width:1;fill-opacity:1;stroke-opacity:0.3" />
<line x1="732" y1="142" x2="781" y2="142" stroke="pink" stroke-width="1" />
<rect x="781" y="140" width="14" height="5" style="fill:#5d3c2d;stroke:black;stroke-width:1;fill-opacity:1;stroke-opacity:0.3" />
<rect x="803" y="140" width="42" height="5" style="fill:#5d3c2d;stroke:black;stroke-width:1;fill-opacity:1;stroke-opacity:0.3" />
<line x1="796" y1="149" x2="802" y2="151" stroke="black" stroke-width="1" />
<line x1="802" y1="151" x2="808" y2="149" stroke="black" stroke-width="1" />
<rect x="705" y="147" width="26" height="5" style="fill:#5d3c2d;stroke:black;stroke-width:1;fill-opacity:1;stroke-opacity:0.3" />
<line x1="732" y1="149" x2="781" y2="149" stroke="pink" stroke-width="1" />
<rect x="781" y="147" width="15" height="5" style="fill:#5d3c2d;stroke:black;stroke-width:1;fill-opacity:1;stroke-opacity:0.3" />
<rect x="808" y="147" width="42" height="5" style="fill:#5d3c2d;stroke:black;stroke-width:1;fill-opacity:1;stroke-opacity:0.3" />
<line x1="796" y1="156" x2="800" y2="158" stroke="black" stroke-width="1" />
<line x1="800" y1="158" x2="804" y2="156" stroke="black" stroke-width="1" />
<rect x="706" y="154" width="26" height="5" style="fill:#5d3c2d;stroke:black;stroke-width:1;fill-opacity:1;stroke-opacity:0.3" />
<line x1="732" y1="156" x2="781" y2="156" stroke="pink" stroke-width="1" />
<rect x="781" y="154" width="15" height="5" style="fill:#5d3c2d;stroke:black;stroke-width:1;fill-opacity:1;stroke-opacity:0.3" />
<rect x="804" y="154" width="42" height="5" style="fill:#5d3c2d;stroke:black;stroke-width:1;fill-opacity:1;stroke-opacity:0.3" />
<line x1="797" y1="163" x2="800" y2="165" stroke="black" stroke-width="1" />
<line x1="800" y1="165" x2="804" y2="163" stroke="black" stroke-width="1" />
<rect x="706" y="161" width="26" height="5" style="fill:#5d3c2d;stroke:black;stroke-width:1;fill-opacity:1;stroke-opacity:0.3" />
<line x1="732" y1="163" x2="781" y2="163" stroke="pink" stroke-width="1" />
<rect x="781" y="161" width="16" height="5" style="fill:#5d3c2d;stroke:black;stroke-width:1;fill-opacity:1;stroke-opacity:0.3" />
<rect x="804" y="161" width="42" height="5" style="fill:#5d3c2d;stroke:black;stroke-width:1;fill-opacity:1;stroke-opacity:0.3" />
<line x1="874" y1="30" x2="882" y2="32" stroke="black" stroke-width="1" />
<line x1="882" y1="32" x2="890" y2="30" stroke="black" stroke-width="1" />
<rect x="832" y="28" width="42" height="5" style="fill:#5d3c2d;stroke:black;stroke-width:1;fill-opacity:1;stroke-opacity:0.3" />
<rect x="890" y="28" width="42" height="5" style="fill:#5d3c2d;stroke:black;stroke-width:1;fill-opacity:1;stroke-opacity:0.3" />
<line x1="874" y1="44" x2="883" y2="46" stroke="black" stroke-width="1" />
<line x1="883" y1="46" x2="893" y2="44" stroke="black" stroke-width="1" />
<rect x="832" y="42" width="42" height="5" style="fill:#5d3c2d;stroke:black;stroke-width:1;fill-opacity:1;stroke-opacity:0.3" />
<rect x="893" y="42" width="42" height="5" style="fill:#5d3c2d;stroke:black;stroke-width:1;fill-opacity:1;stroke-opacity:0.3" />
<line x1="875" y1="51" x2="882" y2="53" stroke="black" stroke-width="1" />
<line x1="882" y1="53" x2="890" y2="51" stroke="black" stroke-width="1" />
<rect x="833" y="49" width="42" height="5" style="fill:#5d3c2d;stroke:black;stroke-width:1;fill-opacity:1;stroke-opacity:0.3" />
<rect x="890" y="49" width="42" height="5" style="fill:#5d3c2d;stroke:black;stroke-width:1;fill-opacity:1;stroke-opacity:0.3" />
<line x1="879" y1="65" x2="884" y2="67" stroke="black" stroke-width="1" />
<line x1="884" y1="67" x2="890" y2="65" stroke="black" stroke-width="1" />
<rect x="836" y="63" width="42" height="5" style="fill:#5d3c2d;stroke:black;stroke-width:1;fill-opacity:1;stroke-opacity:0.3" />
<rect x="890" y="63" width="42" height="5" style="fill:#5d3c2d;stroke:black;stroke-width:1;fill-opacity:1;stroke-opacity:0.3" />
<line x1="887" y1="107" x2="893" y2="109" stroke="black" stroke-width="1" />
<line x1="893" y1="109" x2="900" y2="107" stroke="black" stroke-width="1" />
<rect x="845" y="105" width="42" height="5" style="fill:#5d3c2d;stroke:black;stroke-width:1;fill-opacity:1;stroke-opacity:0.3" />
<rect x="900" y="105" width="42" height="5" style="fill:#5d3c2d;stroke:black;stroke-width:1;fill-opacity:1;stroke-opacity:0.3" />
<line x1="887" y1="142" x2="893" y2="144" stroke="black" stroke-width="1" />
<line x1="893" y1="144" x2="899" y2="142" stroke="black" stroke-width="1" />
<rect x="845" y="140" width="42" height="5" style="fill:#5d3c2d;stroke:black;stroke-width:1;fill-opacity:1;stroke-opacity:0.3" />
<rect x="899" y="140" width="42" height="5" style="fill:#5d3c2d;stroke:black;stroke-width:1;fill-opacity:1;stroke-opacity:0.3" />
<line x1="888" y1="72" x2="890" y2="74" stroke="black" stroke-width="1" />
<line x1="890" y1="74" x2="893" y2="72" stroke="black" stroke-width="1" />
<rect x="846" y="70" width="42" height="5" style="fill:#5d3c2d;stroke:black;stroke-width:1;fill-opacity:1;stroke-opacity:0.3" />
<rect x="893" y="70" width="42" height="5" style="fill:#5d3c2d;stroke:black;stroke-width:1;fill-opacity:1;stroke-opacity:0.3" />
<line x1="893" y1="58" x2="897" y2="60" stroke="black" stroke-width="1" />
<line x1="897" y1="60" x2="901" y2="58" stroke="black" stroke-width="1" />
<rect x="851" y="56" width="42" height="5" style="fill:#5d3c2d;stroke:black;stroke-width:1;fill-opacity:1;stroke-opacity:0.3" />
<rect x="901" y="56" width="41" height="5" style="fill:#5d3c2d;stroke:black;stroke-width:1;fill-opacity:1;stroke-opacity:0.3" />
<line x1="893" y1="79" x2="896" y2="81" stroke="black" stroke-width="1" />
<line x1="896" y1="81" x2="900" y2="79" stroke="black" stroke-width="1" />
<rect x="851" y="77" width="42" height="5" style="fill:#5d3c2d;stroke:black;stroke-width:1;fill-opacity:1;stroke-opacity:0.3" />
<rect x="900" y="77" width="41" height="5" style="fill:#5d3c2d;stroke:black;stroke-width:1;fill-opacity:1;stroke-opacity:0.3" />
<line x1="892" y1="86" x2="897" y2="88" stroke="black" stroke-width="1" />
<line x1="897" y1="88" x2="902" y2="86" stroke="black" stroke-width="1" />
<rect x="855" y="84" width="37" height="5" style="fill:#f5b024;stroke:black;stroke-width:1;fill-opacity:1;stroke-opacity:0.3" />
<rect x="902" y="84" width="42" height="5" style="fill:#f5b024;stroke:black;stroke-width:1;fill-opacity:1;stroke-opacity:0.3" />
<text x="15"  y="176" style="font-family:Arial;font-size:10;stroke:black;fill:black;">all.merged.bam</text>
</svg>
    
