<?xml version="1.0" encoding="utf-8" standalone="no"?>
<!DOCTYPE svg PUBLIC "-//W3C//DTD SVG 1.1//EN"
  "http://www.w3.org/Graphics/SVG/1.1/DTD/svg11.dtd">
<svg height="1140" width="1000" version="1.1" viewBox="0 0 1000 1140" xmlns="http://www.w3.org/2000/svg" xmlns:xlink="http://www.w3.org/1999/xlink">
<line x1="83" y1="11" x2="915" y2="11" stroke="black" stroke-width="1" />
<rect x="83" y="9" width="597" height="5" style="fill:#f50002;stroke:black;stroke-width:1;fill-opacity:1;stroke-opacity:0.3" />
<rect x="682" y="9" width="178" height="5" style="fill:#53a1b5;stroke:black;stroke-width:1;fill-opacity:1;stroke-opacity:0.3" />
<rect x="861" y="9" width="53" height="5" style="fill:#f50002;stroke:black;stroke-width:1;fill-opacity:1;stroke-opacity:0.3" />
<text x="83"  y="23" style="font-family:Arial;font-size:10;stroke:black;fill:black;">Cre10.g426616.t1.1.v5.5 (-) chromosome_10:1234077-1235067</text>
<line x1="193" y1="30" x2="199" y2="32" stroke="black" stroke-width="1" />
<line x1="199" y1="32" x2="205" y2="30" stroke="black" stroke-width="1" />
<rect x="109" y="28" width="83" height="5" style="fill:#f5b024;stroke:black;stroke-width:1;fill-opacity:1;stroke-opacity:0.3" />
<rect x="205" y="28" width="35" height="5" style="fill:#f5b024;stroke:black;stroke-width:1;fill-opacity:1;stroke-opacity:0.3" />
<line x1="240" y1="30" x2="324" y2="30" stroke="pink" stroke-width="1" />
<rect x="324" y="28" width="48" height="5" style="fill:#f5b024;stroke:black;stroke-width:1;fill-opacity:1;stroke-opacity:0.3" />
<line x1="193" y1="37" x2="199" y2="39" stroke="black" stroke-width="1" />
<line x1="199" y1="39" x2="205" y2="37" stroke="black" stroke-width="1" />
<rect x="109" y="35" width="83" height="5" style="fill:#5d3c2d;stroke:black;stroke-width:1;fill-opacity:1;stroke-opacity:0.3" />
<rect x="205" y="35" width="35" height="5" style="fill:#5d3c2d;stroke:black;stroke-width:1;fill-opacity:1;stroke-opacity:0.3" />
<line x1="240" y1="37" x2="324" y2="37" stroke="pink" stroke-width="1" />
<rect x="324" y="35" width="48" height="5" style="fill:#5d3c2d;stroke:black;stroke-width:1;fill-opacity:1;stroke-opacity:0.3" />
<line x1="240" y1="44" x2="274" y2="46" stroke="black" stroke-width="1" />
<line x1="274" y1="46" x2="309" y2="44" stroke="black" stroke-width="1" />
<rect x="114" y="42" width="125" height="5" style="fill:#f5b024;stroke:black;stroke-width:1;fill-opacity:1;stroke-opacity:0.3" />
<rect x="309" y="42" width="125" height="5" style="fill:#f5b024;stroke:black;stroke-width:1;fill-opacity:1;stroke-opacity:0.3" />
<line x1="219" y1="51" x2="239" y2="53" stroke="black" stroke-width="1" />
<line x1="239" y1="53" x2="260" y2="51" stroke="black" stroke-width="1" />
<rect x="135" y="49" width="83" height="5" style="fill:#f5b024;stroke:black;stroke-width:1;fill-opacity:1;stroke-opacity:0.3" />
<rect x="260" y="49" width="83" height="5" style="fill:#f5b024;stroke:black;stroke-width:1;fill-opacity:1;stroke-opacity:0.3" />
<line x1="219" y1="58" x2="230" y2="60" stroke="black" stroke-width="1" />
<line x1="230" y1="60" x2="241" y2="58" stroke="black" stroke-width="1" />
<rect x="136" y="56" width="83" height="5" style="fill:#f5b024;stroke:black;stroke-width:1;fill-opacity:1;stroke-opacity:0.3" />
<rect x="241" y="56" width="83" height="5" style="fill:#f5b024;stroke:black;stroke-width:1;fill-opacity:1;stroke-opacity:0.3" />
<line x1="294" y1="65" x2="301" y2="67" stroke="black" stroke-width="1" />
<line x1="301" y1="67" x2="309" y2="65" stroke="black" stroke-width="1" />
<rect x="168" y="63" width="125" height="5" style="fill:#f5b024;stroke:black;stroke-width:1;fill-opacity:1;stroke-opacity:0.3" />
<rect x="309" y="63" width="125" height="5" style="fill:#f5b024;stroke:black;stroke-width:1;fill-opacity:1;stroke-opacity:0.3" />
<line x1="260" y1="72" x2="305" y2="74" stroke="black" stroke-width="1" />
<line x1="305" y1="74" x2="350" y2="72" stroke="black" stroke-width="1" />
<rect x="176" y="70" width="83" height="5" style="fill:#f5b024;stroke:black;stroke-width:1;fill-opacity:1;stroke-opacity:0.3" />
<rect x="350" y="70" width="83" height="5" style="fill:#f5b024;stroke:black;stroke-width:1;fill-opacity:1;stroke-opacity:0.3" />
<line x1="287" y1="79" x2="317" y2="81" stroke="black" stroke-width="1" />
<line x1="317" y1="81" x2="348" y2="79" stroke="black" stroke-width="1" />
<rect x="204" y="77" width="83" height="5" style="fill:#5d3c2d;stroke:black;stroke-width:1;fill-opacity:1;stroke-opacity:0.3" />
<rect x="348" y="77" width="83" height="5" style="fill:#5d3c2d;stroke:black;stroke-width:1;fill-opacity:1;stroke-opacity:0.3" />
<line x1="289" y1="86" x2="304" y2="88" stroke="black" stroke-width="1" />
<line x1="304" y1="88" x2="319" y2="86" stroke="black" stroke-width="1" />
<rect x="205" y="84" width="83" height="5" style="fill:#f5b024;stroke:black;stroke-width:1;fill-opacity:1;stroke-opacity:0.3" />
<rect x="319" y="84" width="83" height="5" style="fill:#f5b024;stroke:black;stroke-width:1;fill-opacity:1;stroke-opacity:0.3" />
<line x1="290" y1="93" x2="296" y2="95" stroke="black" stroke-width="1" />
<line x1="296" y1="95" x2="303" y2="93" stroke="black" stroke-width="1" />
<rect x="206" y="91" width="83" height="5" style="fill:#f5b024;stroke:black;stroke-width:1;fill-opacity:1;stroke-opacity:0.3" />
<rect x="303" y="91" width="83" height="5" style="fill:#f5b024;stroke:black;stroke-width:1;fill-opacity:1;stroke-opacity:0.3" />
<line x1="291" y1="100" x2="316" y2="102" stroke="black" stroke-width="1" />
<line x1="316" y1="102" x2="342" y2="100" stroke="black" stroke-width="1" />
<rect x="207" y="98" width="83" height="5" style="fill:#f5b024;stroke:black;stroke-width:1;fill-opacity:1;stroke-opacity:0.3" />
<rect x="342" y="98" width="83" height="5" style="fill:#f5b024;stroke:black;stroke-width:1;fill-opacity:1;stroke-opacity:0.3" />
<line x1="292" y1="107" x2="308" y2="109" stroke="black" stroke-width="1" />
<line x1="308" y1="109" x2="325" y2="107" stroke="black" stroke-width="1" />
<rect x="209" y="105" width="83" height="5" style="fill:#f5b024;stroke:black;stroke-width:1;fill-opacity:1;stroke-opacity:0.3" />
<rect x="325" y="105" width="83" height="5" style="fill:#f5b024;stroke:black;stroke-width:1;fill-opacity:1;stroke-opacity:0.3" />
<line x1="302" y1="114" x2="309" y2="116" stroke="black" stroke-width="1" />
<line x1="309" y1="116" x2="317" y2="114" stroke="black" stroke-width="1" />
<rect x="218" y="112" width="83" height="5" style="fill:#f5b024;stroke:black;stroke-width:1;fill-opacity:1;stroke-opacity:0.3" />
<rect x="317" y="112" width="83" height="5" style="fill:#f5b024;stroke:black;stroke-width:1;fill-opacity:1;stroke-opacity:0.3" />
<line x1="302" y1="121" x2="313" y2="123" stroke="black" stroke-width="1" />
<line x1="313" y1="123" x2="325" y2="121" stroke="black" stroke-width="1" />
<rect x="218" y="119" width="83" height="5" style="fill:#f5b024;stroke:black;stroke-width:1;fill-opacity:1;stroke-opacity:0.3" />
<rect x="325" y="119" width="83" height="5" style="fill:#f5b024;stroke:black;stroke-width:1;fill-opacity:1;stroke-opacity:0.3" />
<line x1="308" y1="128" x2="328" y2="130" stroke="black" stroke-width="1" />
<line x1="328" y1="130" x2="348" y2="128" stroke="black" stroke-width="1" />
<rect x="225" y="126" width="83" height="5" style="fill:#f5b024;stroke:black;stroke-width:1;fill-opacity:1;stroke-opacity:0.3" />
<rect x="348" y="126" width="83" height="5" style="fill:#f5b024;stroke:black;stroke-width:1;fill-opacity:1;stroke-opacity:0.3" />
<line x1="311" y1="135" x2="326" y2="137" stroke="black" stroke-width="1" />
<line x1="326" y1="137" x2="342" y2="135" stroke="black" stroke-width="1" />
<rect x="228" y="133" width="83" height="5" style="fill:#f5b024;stroke:black;stroke-width:1;fill-opacity:1;stroke-opacity:0.3" />
<rect x="342" y="133" width="83" height="5" style="fill:#f5b024;stroke:black;stroke-width:1;fill-opacity:1;stroke-opacity:0.3" />
<line x1="312" y1="142" x2="320" y2="144" stroke="black" stroke-width="1" />
<line x1="320" y1="144" x2="328" y2="142" stroke="black" stroke-width="1" />
<rect x="228" y="140" width="83" height="5" style="fill:#f5b024;stroke:black;stroke-width:1;fill-opacity:1;stroke-opacity:0.3" />
<rect x="328" y="140" width="83" height="5" style="fill:#f5b024;stroke:black;stroke-width:1;fill-opacity:1;stroke-opacity:0.3" />
<line x1="354" y1="149" x2="387" y2="151" stroke="black" stroke-width="1" />
<line x1="387" y1="151" x2="420" y2="149" stroke="black" stroke-width="1" />
<rect x="229" y="147" width="125" height="5" style="fill:#f5b024;stroke:black;stroke-width:1;fill-opacity:1;stroke-opacity:0.3" />
<rect x="420" y="147" width="125" height="5" style="fill:#f5b024;stroke:black;stroke-width:1;fill-opacity:1;stroke-opacity:0.3" />
<line x1="336" y1="156" x2="343" y2="158" stroke="black" stroke-width="1" />
<line x1="343" y1="158" x2="350" y2="156" stroke="black" stroke-width="1" />
<rect x="252" y="154" width="83" height="5" style="fill:#5d3c2d;stroke:black;stroke-width:1;fill-opacity:1;stroke-opacity:0.3" />
<rect x="350" y="154" width="83" height="5" style="fill:#5d3c2d;stroke:black;stroke-width:1;fill-opacity:1;stroke-opacity:0.3" />
<line x1="336" y1="163" x2="360" y2="165" stroke="black" stroke-width="1" />
<line x1="360" y1="165" x2="384" y2="163" stroke="black" stroke-width="1" />
<rect x="252" y="161" width="83" height="5" style="fill:#5d3c2d;stroke:black;stroke-width:1;fill-opacity:1;stroke-opacity:0.3" />
<rect x="384" y="161" width="82" height="5" style="fill:#5d3c2d;stroke:black;stroke-width:1;fill-opacity:1;stroke-opacity:0.3" />
<line x1="410" y1="58" x2="432" y2="60" stroke="black" stroke-width="1" />
<line x1="432" y1="60" x2="455" y2="58" stroke="black" stroke-width="1" />
<rect x="326" y="56" width="83" height="5" style="fill:#f5b024;stroke:black;stroke-width:1;fill-opacity:1;stroke-opacity:0.3" />
<rect x="455" y="56" width="83" height="5" style="fill:#f5b024;stroke:black;stroke-width:1;fill-opacity:1;stroke-opacity:0.3" />
<line x1="470" y1="51" x2="477" y2="53" stroke="black" stroke-width="1" />
<line x1="477" y1="53" x2="485" y2="51" stroke="black" stroke-width="1" />
<rect x="344" y="49" width="125" height="5" style="fill:#f5b024;stroke:black;stroke-width:1;fill-opacity:1;stroke-opacity:0.3" />
<rect x="485" y="49" width="125" height="5" style="fill:#f5b024;stroke:black;stroke-width:1;fill-opacity:1;stroke-opacity:0.3" />
<line x1="462" y1="30" x2="494" y2="32" stroke="black" stroke-width="1" />
<line x1="494" y1="32" x2="527" y2="30" stroke="black" stroke-width="1" />
<rect x="379" y="28" width="83" height="5" style="fill:#f5b024;stroke:black;stroke-width:1;fill-opacity:1;stroke-opacity:0.3" />
<rect x="527" y="28" width="83" height="5" style="fill:#f5b024;stroke:black;stroke-width:1;fill-opacity:1;stroke-opacity:0.3" />
<line x1="462" y1="37" x2="491" y2="39" stroke="black" stroke-width="1" />
<line x1="491" y1="39" x2="520" y2="37" stroke="black" stroke-width="1" />
<rect x="379" y="35" width="83" height="5" style="fill:#f5b024;stroke:black;stroke-width:1;fill-opacity:1;stroke-opacity:0.3" />
<rect x="520" y="35" width="83" height="5" style="fill:#f5b024;stroke:black;stroke-width:1;fill-opacity:1;stroke-opacity:0.3" />
<line x1="475" y1="93" x2="492" y2="95" stroke="black" stroke-width="1" />
<line x1="492" y1="95" x2="509" y2="93" stroke="black" stroke-width="1" />
<rect x="391" y="91" width="83" height="5" style="fill:#f5b024;stroke:black;stroke-width:1;fill-opacity:1;stroke-opacity:0.3" />
<rect x="509" y="91" width="83" height="5" style="fill:#f5b024;stroke:black;stroke-width:1;fill-opacity:1;stroke-opacity:0.3" />
<line x1="488" y1="86" x2="501" y2="88" stroke="black" stroke-width="1" />
<line x1="501" y1="88" x2="514" y2="86" stroke="black" stroke-width="1" />
<rect x="404" y="84" width="83" height="5" style="fill:#f5b024;stroke:black;stroke-width:1;fill-opacity:1;stroke-opacity:0.3" />
<rect x="514" y="84" width="76" height="5" style="fill:#f5b024;stroke:black;stroke-width:1;fill-opacity:1;stroke-opacity:0.3" />
<line x1="491" y1="114" x2="495" y2="116" stroke="black" stroke-width="1" />
<line x1="495" y1="116" x2="500" y2="114" stroke="black" stroke-width="1" />
<rect x="407" y="112" width="83" height="5" style="fill:#f5b024;stroke:black;stroke-width:1;fill-opacity:1;stroke-opacity:0.3" />
<rect x="500" y="112" width="83" height="5" style="fill:#f5b024;stroke:black;stroke-width:1;fill-opacity:1;stroke-opacity:0.3" />
<line x1="493" y1="107" x2="510" y2="109" stroke="black" stroke-width="1" />
<line x1="510" y1="109" x2="527" y2="107" stroke="black" stroke-width="1" />
<rect x="409" y="105" width="83" height="5" style="fill:#f5b024;stroke:black;stroke-width:1;fill-opacity:1;stroke-opacity:0.3" />
<rect x="527" y="105" width="83" height="5" style="fill:#f5b024;stroke:black;stroke-width:1;fill-opacity:1;stroke-opacity:0.3" />
<line x1="503" y1="121" x2="511" y2="123" stroke="black" stroke-width="1" />
<line x1="511" y1="123" x2="520" y2="121" stroke="black" stroke-width="1" />
<rect x="419" y="119" width="83" height="5" style="fill:#f5b024;stroke:black;stroke-width:1;fill-opacity:1;stroke-opacity:0.3" />
<rect x="520" y="119" width="30" height="5" style="fill:#f5b024;stroke:black;stroke-width:1;fill-opacity:1;stroke-opacity:0.3" />
<line x1="550" y1="121" x2="551" y2="121" stroke="pink" stroke-width="1" />
<rect x="551" y="119" width="52" height="5" style="fill:#f5b024;stroke:black;stroke-width:1;fill-opacity:1;stroke-opacity:0.3" />
<line x1="505" y1="142" x2="519" y2="144" stroke="black" stroke-width="1" />
<line x1="519" y1="144" x2="534" y2="142" stroke="black" stroke-width="1" />
<rect x="422" y="140" width="83" height="5" style="fill:#f5b024;stroke:black;stroke-width:1;fill-opacity:1;stroke-opacity:0.3" />
<rect x="534" y="140" width="83" height="5" style="fill:#f5b024;stroke:black;stroke-width:1;fill-opacity:1;stroke-opacity:0.3" />
<line x1="513" y1="100" x2="518" y2="102" stroke="black" stroke-width="1" />
<line x1="518" y1="102" x2="524" y2="100" stroke="black" stroke-width="1" />
<rect x="429" y="98" width="83" height="5" style="fill:#f5b024;stroke:black;stroke-width:1;fill-opacity:1;stroke-opacity:0.3" />
<rect x="524" y="98" width="83" height="5" style="fill:#f5b024;stroke:black;stroke-width:1;fill-opacity:1;stroke-opacity:0.3" />
<line x1="516" y1="79" x2="523" y2="81" stroke="black" stroke-width="1" />
<line x1="523" y1="81" x2="531" y2="79" stroke="black" stroke-width="1" />
<rect x="432" y="77" width="83" height="5" style="fill:#f5b024;stroke:black;stroke-width:1;fill-opacity:1;stroke-opacity:0.3" />
<rect x="531" y="77" width="19" height="5" style="fill:#f5b024;stroke:black;stroke-width:1;fill-opacity:1;stroke-opacity:0.3" />
<rect x="550" y="77" width="64" height="5" style="fill:#f5b024;stroke:black;stroke-width:1;fill-opacity:1;stroke-opacity:0.3" />
<line x1="524" y1="44" x2="530" y2="46" stroke="black" stroke-width="1" />
<line x1="530" y1="46" x2="536" y2="44" stroke="black" stroke-width="1" />
<rect x="440" y="42" width="83" height="5" style="fill:#f5b024;stroke:black;stroke-width:1;fill-opacity:1;stroke-opacity:0.3" />
<rect x="536" y="42" width="83" height="5" style="fill:#f5b024;stroke:black;stroke-width:1;fill-opacity:1;stroke-opacity:0.3" />
<line x1="525" y1="65" x2="541" y2="67" stroke="black" stroke-width="1" />
<line x1="541" y1="67" x2="558" y2="65" stroke="black" stroke-width="1" />
<rect x="445" y="63" width="80" height="5" style="fill:#f5b024;stroke:black;stroke-width:1;fill-opacity:1;stroke-opacity:0.3" />
<rect x="558" y="63" width="83" height="5" style="fill:#f5b024;stroke:black;stroke-width:1;fill-opacity:1;stroke-opacity:0.3" />
<line x1="537" y1="72" x2="544" y2="74" stroke="black" stroke-width="1" />
<line x1="544" y1="74" x2="551" y2="72" stroke="black" stroke-width="1" />
<rect x="453" y="70" width="83" height="5" style="fill:#f5b024;stroke:black;stroke-width:1;fill-opacity:1;stroke-opacity:0.3" />
<rect x="551" y="70" width="83" height="5" style="fill:#f5b024;stroke:black;stroke-width:1;fill-opacity:1;stroke-opacity:0.3" />
<line x1="542" y1="128" x2="547" y2="130" stroke="black" stroke-width="1" />
<line x1="547" y1="130" x2="552" y2="128" stroke="black" stroke-width="1" />
<rect x="459" y="126" width="83" height="5" style="fill:#f5b024;stroke:black;stroke-width:1;fill-opacity:1;stroke-opacity:0.3" />
<rect x="552" y="126" width="83" height="5" style="fill:#f5b024;stroke:black;stroke-width:1;fill-opacity:1;stroke-opacity:0.3" />
<line x1="544" y1="135" x2="553" y2="137" stroke="black" stroke-width="1" />
<line x1="553" y1="137" x2="562" y2="135" stroke="black" stroke-width="1" />
<rect x="460" y="133" width="83" height="5" style="fill:#f5b024;stroke:black;stroke-width:1;fill-opacity:1;stroke-opacity:0.3" />
<rect x="562" y="133" width="83" height="5" style="fill:#f5b024;stroke:black;stroke-width:1;fill-opacity:1;stroke-opacity:0.3" />
<line x1="545" y1="156" x2="561" y2="158" stroke="black" stroke-width="1" />
<line x1="561" y1="158" x2="577" y2="156" stroke="black" stroke-width="1" />
<rect x="461" y="154" width="83" height="5" style="fill:#f5b024;stroke:black;stroke-width:1;fill-opacity:1;stroke-opacity:0.3" />
<rect x="577" y="154" width="83" height="5" style="fill:#f5b024;stroke:black;stroke-width:1;fill-opacity:1;stroke-opacity:0.3" />
<line x1="623" y1="163" x2="627" y2="165" stroke="black" stroke-width="1" />
<line x1="627" y1="165" x2="632" y2="163" stroke="black" stroke-width="1" />
<rect x="498" y="161" width="125" height="5" style="fill:#f5b024;stroke:black;stroke-width:1;fill-opacity:1;stroke-opacity:0.3" />
<rect x="632" y="161" width="125" height="5" style="fill:#f5b024;stroke:black;stroke-width:1;fill-opacity:1;stroke-opacity:0.3" />
<line x1="648" y1="58" x2="660" y2="60" stroke="black" stroke-width="1" />
<line x1="660" y1="60" x2="673" y2="58" stroke="black" stroke-width="1" />
<rect x="564" y="56" width="83" height="5" style="fill:#f5b024;stroke:black;stroke-width:1;fill-opacity:1;stroke-opacity:0.3" />
<rect x="673" y="56" width="83" height="5" style="fill:#f5b024;stroke:black;stroke-width:1;fill-opacity:1;stroke-opacity:0.3" />
<line x1="649" y1="149" x2="665" y2="151" stroke="black" stroke-width="1" />
<line x1="665" y1="151" x2="681" y2="149" stroke="black" stroke-width="1" />
<rect x="565" y="147" width="83" height="5" style="fill:#f5b024;stroke:black;stroke-width:1;fill-opacity:1;stroke-opacity:0.3" />
<rect x="681" y="147" width="83" height="5" style="fill:#f5b024;stroke:black;stroke-width:1;fill-opacity:1;stroke-opacity:0.3" />
<line x1="667" y1="114" x2="693" y2="116" stroke="black" stroke-width="1" />
<line x1="693" y1="116" x2="720" y2="114" stroke="black" stroke-width="1" />
<rect x="584" y="112" width="83" height="5" style="fill:#f5b024;stroke:black;stroke-width:1;fill-opacity:1;stroke-opacity:0.3" />
<rect x="720" y="112" width="76" height="5" style="fill:#f5b024;stroke:black;stroke-width:1;fill-opacity:1;stroke-opacity:0.3" />
<line x1="676" y1="86" x2="715" y2="88" stroke="black" stroke-width="1" />
<line x1="715" y1="88" x2="754" y2="86" stroke="black" stroke-width="1" />
<rect x="592" y="84" width="83" height="5" style="fill:#f5b024;stroke:black;stroke-width:1;fill-opacity:1;stroke-opacity:0.3" />
<rect x="754" y="84" width="83" height="5" style="fill:#f5b024;stroke:black;stroke-width:1;fill-opacity:1;stroke-opacity:0.3" />
<line x1="691" y1="37" x2="703" y2="39" stroke="black" stroke-width="1" />
<line x1="703" y1="39" x2="716" y2="37" stroke="black" stroke-width="1" />
<rect x="607" y="35" width="83" height="5" style="fill:#f5b024;stroke:black;stroke-width:1;fill-opacity:1;stroke-opacity:0.3" />
<rect x="716" y="35" width="83" height="5" style="fill:#f5b024;stroke:black;stroke-width:1;fill-opacity:1;stroke-opacity:0.3" />
<line x1="692" y1="93" x2="717" y2="95" stroke="black" stroke-width="1" />
<line x1="717" y1="95" x2="742" y2="93" stroke="black" stroke-width="1" />
<rect x="608" y="91" width="83" height="5" style="fill:#f5b024;stroke:black;stroke-width:1;fill-opacity:1;stroke-opacity:0.3" />
<rect x="742" y="91" width="83" height="5" style="fill:#f5b024;stroke:black;stroke-width:1;fill-opacity:1;stroke-opacity:0.3" />
<line x1="722" y1="30" x2="733" y2="32" stroke="black" stroke-width="1" />
<line x1="733" y1="32" x2="744" y2="30" stroke="black" stroke-width="1" />
<rect x="639" y="28" width="83" height="5" style="fill:#f5b024;stroke:black;stroke-width:1;fill-opacity:1;stroke-opacity:0.3" />
<rect x="744" y="28" width="83" height="5" style="fill:#f5b024;stroke:black;stroke-width:1;fill-opacity:1;stroke-opacity:0.3" />
<line x1="724" y1="44" x2="732" y2="46" stroke="black" stroke-width="1" />
<line x1="732" y1="46" x2="740" y2="44" stroke="black" stroke-width="1" />
<rect x="640" y="42" width="83" height="5" style="fill:#5d3c2d;stroke:black;stroke-width:1;fill-opacity:1;stroke-opacity:0.3" />
<rect x="740" y="42" width="61" height="5" style="fill:#5d3c2d;stroke:black;stroke-width:1;fill-opacity:1;stroke-opacity:0.3" />
<line x1="801" y1="44" x2="949" y2="44" stroke="pink" stroke-width="1" />
<rect x="949" y="42" width="22" height="5" style="fill:#5d3c2d;stroke:black;stroke-width:1;fill-opacity:1;stroke-opacity:0.3" />
<line x1="723" y1="51" x2="738" y2="53" stroke="black" stroke-width="1" />
<line x1="738" y1="53" x2="754" y2="51" stroke="black" stroke-width="1" />
<rect x="640" y="49" width="83" height="5" style="fill:#5d3c2d;stroke:black;stroke-width:1;fill-opacity:1;stroke-opacity:0.3" />
<rect x="754" y="49" width="83" height="5" style="fill:#5d3c2d;stroke:black;stroke-width:1;fill-opacity:1;stroke-opacity:0.3" />
<line x1="722" y1="72" x2="755" y2="74" stroke="black" stroke-width="1" />
<line x1="755" y1="74" x2="788" y2="72" stroke="black" stroke-width="1" />
<rect x="640" y="70" width="81" height="5" style="fill:#5d3c2d;stroke:black;stroke-width:1;fill-opacity:1;stroke-opacity:0.3" />
<rect x="788" y="70" width="13" height="5" style="fill:#5d3c2d;stroke:black;stroke-width:1;fill-opacity:1;stroke-opacity:0.3" />
<line x1="801" y1="72" x2="949" y2="72" stroke="pink" stroke-width="1" />
<rect x="949" y="70" width="70" height="5" style="fill:#5d3c2d;stroke:black;stroke-width:1;fill-opacity:1;stroke-opacity:0.3" />
<line x1="724" y1="79" x2="734" y2="81" stroke="black" stroke-width="1" />
<line x1="734" y1="81" x2="745" y2="79" stroke="black" stroke-width="1" />
<rect x="640" y="77" width="83" height="5" style="fill:#5d3c2d;stroke:black;stroke-width:1;fill-opacity:1;stroke-opacity:0.3" />
<rect x="745" y="77" width="56" height="5" style="fill:#5d3c2d;stroke:black;stroke-width:1;fill-opacity:1;stroke-opacity:0.3" />
<line x1="801" y1="79" x2="949" y2="79" stroke="pink" stroke-width="1" />
<rect x="949" y="77" width="26" height="5" style="fill:#5d3c2d;stroke:black;stroke-width:1;fill-opacity:1;stroke-opacity:0.3" />
<line x1="724" y1="100" x2="763" y2="102" stroke="black" stroke-width="1" />
<line x1="763" y1="102" x2="802" y2="100" stroke="black" stroke-width="1" />
<rect x="640" y="98" width="83" height="5" style="fill:#f5b024;stroke:black;stroke-width:1;fill-opacity:1;stroke-opacity:0.3" />
<rect x="802" y="98" width="83" height="5" style="fill:#f5b024;stroke:black;stroke-width:1;fill-opacity:1;stroke-opacity:0.3" />
<line x1="724" y1="65" x2="743" y2="67" stroke="black" stroke-width="1" />
<line x1="743" y1="67" x2="763" y2="65" stroke="black" stroke-width="1" />
<rect x="643" y="63" width="81" height="5" style="fill:#f5b024;stroke:black;stroke-width:1;fill-opacity:1;stroke-opacity:0.3" />
<rect x="763" y="63" width="83" height="5" style="fill:#f5b024;stroke:black;stroke-width:1;fill-opacity:1;stroke-opacity:0.3" />
<line x1="722" y1="107" x2="726" y2="109" stroke="black" stroke-width="1" />
<line x1="726" y1="109" x2="730" y2="107" stroke="black" stroke-width="1" />
<rect x="643" y="105" width="78" height="5" style="fill:#5d3c2d;stroke:black;stroke-width:1;fill-opacity:1;stroke-opacity:0.3" />
<rect x="730" y="105" width="71" height="5" style="fill:#5d3c2d;stroke:black;stroke-width:1;fill-opacity:1;stroke-opacity:0.3" />
<line x1="801" y1="107" x2="949" y2="107" stroke="pink" stroke-width="1" />
<rect x="949" y="105" width="11" height="5" style="fill:#5d3c2d;stroke:black;stroke-width:1;fill-opacity:1;stroke-opacity:0.3" />
<line x1="724" y1="121" x2="736" y2="123" stroke="black" stroke-width="1" />
<line x1="736" y1="123" x2="748" y2="121" stroke="black" stroke-width="1" />
<rect x="645" y="119" width="78" height="5" style="fill:#5d3c2d;stroke:black;stroke-width:1;fill-opacity:1;stroke-opacity:0.3" />
<rect x="748" y="119" width="53" height="5" style="fill:#5d3c2d;stroke:black;stroke-width:1;fill-opacity:1;stroke-opacity:0.3" />
<line x1="801" y1="121" x2="949" y2="121" stroke="pink" stroke-width="1" />
<rect x="949" y="119" width="30" height="5" style="fill:#5d3c2d;stroke:black;stroke-width:1;fill-opacity:1;stroke-opacity:0.3" />
<line x1="731" y1="128" x2="738" y2="130" stroke="black" stroke-width="1" />
<line x1="738" y1="130" x2="745" y2="128" stroke="black" stroke-width="1" />
<rect x="650" y="126" width="80" height="5" style="fill:#5d3c2d;stroke:black;stroke-width:1;fill-opacity:1;stroke-opacity:0.3" />
<rect x="745" y="126" width="56" height="5" style="fill:#5d3c2d;stroke:black;stroke-width:1;fill-opacity:1;stroke-opacity:0.3" />
<line x1="801" y1="128" x2="949" y2="128" stroke="pink" stroke-width="1" />
<rect x="949" y="126" width="27" height="5" style="fill:#5d3c2d;stroke:black;stroke-width:1;fill-opacity:1;stroke-opacity:0.3" />
<line x1="744" y1="135" x2="769" y2="137" stroke="black" stroke-width="1" />
<line x1="769" y1="137" x2="795" y2="135" stroke="black" stroke-width="1" />
<rect x="660" y="133" width="83" height="5" style="fill:#5d3c2d;stroke:black;stroke-width:1;fill-opacity:1;stroke-opacity:0.3" />
<rect x="795" y="133" width="6" height="5" style="fill:#5d3c2d;stroke:black;stroke-width:1;fill-opacity:1;stroke-opacity:0.3" />
<line x1="801" y1="135" x2="949" y2="135" stroke="pink" stroke-width="1" />
<rect x="949" y="133" width="77" height="5" style="fill:#5d3c2d;stroke:black;stroke-width:1;fill-opacity:1;stroke-opacity:0.3" />
<line x1="748" y1="142" x2="762" y2="144" stroke="black" stroke-width="1" />
<line x1="762" y1="144" x2="777" y2="142" stroke="black" stroke-width="1" />
<rect x="670" y="140" width="78" height="5" style="fill:#5d3c2d;stroke:black;stroke-width:1;fill-opacity:1;stroke-opacity:0.3" />
<rect x="777" y="140" width="24" height="5" style="fill:#5d3c2d;stroke:black;stroke-width:1;fill-opacity:1;stroke-opacity:0.3" />
<line x1="801" y1="142" x2="949" y2="142" stroke="pink" stroke-width="1" />
<rect x="949" y="140" width="59" height="5" style="fill:#5d3c2d;stroke:black;stroke-width:1;fill-opacity:1;stroke-opacity:0.3" />
<line x1="752" y1="156" x2="766" y2="158" stroke="black" stroke-width="1" />
<line x1="766" y1="158" x2="780" y2="156" stroke="black" stroke-width="1" />
<rect x="674" y="154" width="78" height="5" style="fill:#5d3c2d;stroke:black;stroke-width:1;fill-opacity:1;stroke-opacity:0.3" />
<rect x="780" y="154" width="20" height="5" style="fill:#5d3c2d;stroke:black;stroke-width:1;fill-opacity:1;stroke-opacity:0.3" />
<line x1="801" y1="156" x2="949" y2="156" stroke="pink" stroke-width="1" />
<rect x="949" y="154" width="62" height="5" style="fill:#5d3c2d;stroke:black;stroke-width:1;fill-opacity:1;stroke-opacity:0.3" />
<text x="15"  y="176" style="font-family:Arial;font-size:10;stroke:black;fill:black;">all.merged.bam</text>
</svg>
    
