<?xml version="1.0" encoding="utf-8" standalone="no"?>
<!DOCTYPE svg PUBLIC "-//W3C//DTD SVG 1.1//EN"
  "http://www.w3.org/Graphics/SVG/1.1/DTD/svg11.dtd">
<svg height="1140" width="1000" version="1.1" viewBox="0 0 1000 1140" xmlns="http://www.w3.org/2000/svg" xmlns:xlink="http://www.w3.org/1999/xlink">
<line x1="52" y1="11" x2="946" y2="11" stroke="black" stroke-width="1" />
<rect x="52" y="9" width="59" height="5" style="fill:#f50002;stroke:black;stroke-width:1;fill-opacity:1;stroke-opacity:0.3" />
<rect x="112" y="9" width="13" height="5" style="fill:#53a1b5;stroke:black;stroke-width:1;fill-opacity:1;stroke-opacity:0.3" />
<rect x="337" y="9" width="54" height="5" style="fill:#53a1b5;stroke:black;stroke-width:1;fill-opacity:1;stroke-opacity:0.3" />
<rect x="560" y="9" width="17" height="5" style="fill:#53a1b5;stroke:black;stroke-width:1;fill-opacity:1;stroke-opacity:0.3" />
<rect x="578" y="9" width="368" height="5" style="fill:#f50002;stroke:black;stroke-width:1;fill-opacity:1;stroke-opacity:0.3" />
<text x="52"  y="23" style="font-family:Arial;font-size:10;stroke:black;fill:black;">Cre13.g577026.t1.1.v5.5 (+) chromosome_13:2033936-2035639</text>
<line x1="355" y1="30" x2="358" y2="32" stroke="black" stroke-width="1" />
<line x1="358" y1="32" x2="362" y2="30" stroke="black" stroke-width="1" />
<rect x="92" y="28" width="34" height="5" style="fill:#5d3c2d;stroke:black;stroke-width:1;fill-opacity:1;stroke-opacity:0.3" />
<line x1="127" y1="30" x2="337" y2="30" stroke="pink" stroke-width="1" />
<rect x="337" y="28" width="17" height="5" style="fill:#5d3c2d;stroke:black;stroke-width:1;fill-opacity:1;stroke-opacity:0.3" />
<rect x="362" y="28" width="29" height="5" style="fill:#5d3c2d;stroke:black;stroke-width:1;fill-opacity:1;stroke-opacity:0.3" />
<line x1="392" y1="30" x2="1178" y2="30" stroke="pink" stroke-width="1" />
<rect x="1178" y="28" width="23" height="5" style="fill:#5d3c2d;stroke:black;stroke-width:1;fill-opacity:1;stroke-opacity:0.3" />
<line x1="358" y1="37" x2="367" y2="39" stroke="black" stroke-width="1" />
<line x1="367" y1="39" x2="376" y2="37" stroke="black" stroke-width="1" />
<rect x="95" y="35" width="32" height="5" style="fill:#5d3c2d;stroke:black;stroke-width:1;fill-opacity:1;stroke-opacity:0.3" />
<line x1="127" y1="37" x2="337" y2="37" stroke="pink" stroke-width="1" />
<rect x="337" y="35" width="20" height="5" style="fill:#5d3c2d;stroke:black;stroke-width:1;fill-opacity:1;stroke-opacity:0.3" />
<rect x="376" y="35" width="16" height="5" style="fill:#5d3c2d;stroke:black;stroke-width:1;fill-opacity:1;stroke-opacity:0.3" />
<line x1="392" y1="37" x2="1178" y2="37" stroke="pink" stroke-width="1" />
<rect x="1178" y="35" width="36" height="5" style="fill:#5d3c2d;stroke:black;stroke-width:1;fill-opacity:1;stroke-opacity:0.3" />
<line x1="363" y1="44" x2="368" y2="46" stroke="black" stroke-width="1" />
<line x1="368" y1="46" x2="373" y2="44" stroke="black" stroke-width="1" />
<rect x="100" y="42" width="26" height="5" style="fill:#5d3c2d;stroke:black;stroke-width:1;fill-opacity:1;stroke-opacity:0.3" />
<line x1="127" y1="44" x2="337" y2="44" stroke="pink" stroke-width="1" />
<rect x="337" y="42" width="25" height="5" style="fill:#5d3c2d;stroke:black;stroke-width:1;fill-opacity:1;stroke-opacity:0.3" />
<rect x="373" y="42" width="18" height="5" style="fill:#5d3c2d;stroke:black;stroke-width:1;fill-opacity:1;stroke-opacity:0.3" />
<line x1="392" y1="44" x2="1178" y2="44" stroke="pink" stroke-width="1" />
<rect x="1178" y="42" width="33" height="5" style="fill:#5d3c2d;stroke:black;stroke-width:1;fill-opacity:1;stroke-opacity:0.3" />
<line x1="367" y1="51" x2="371" y2="53" stroke="black" stroke-width="1" />
<line x1="371" y1="53" x2="375" y2="51" stroke="black" stroke-width="1" />
<rect x="104" y="49" width="22" height="5" style="fill:#5d3c2d;stroke:black;stroke-width:1;fill-opacity:1;stroke-opacity:0.3" />
<line x1="127" y1="51" x2="337" y2="51" stroke="pink" stroke-width="1" />
<rect x="337" y="49" width="29" height="5" style="fill:#5d3c2d;stroke:black;stroke-width:1;fill-opacity:1;stroke-opacity:0.3" />
<rect x="375" y="49" width="17" height="5" style="fill:#5d3c2d;stroke:black;stroke-width:1;fill-opacity:1;stroke-opacity:0.3" />
<line x1="392" y1="51" x2="1178" y2="51" stroke="pink" stroke-width="1" />
<rect x="1178" y="49" width="35" height="5" style="fill:#5d3c2d;stroke:black;stroke-width:1;fill-opacity:1;stroke-opacity:0.3" />
<line x1="462" y1="58" x2="473" y2="60" stroke="black" stroke-width="1" />
<line x1="473" y1="60" x2="485" y2="58" stroke="black" stroke-width="1" />
<rect x="410" y="56" width="51" height="5" style="fill:#5d3c2d;stroke:black;stroke-width:1;fill-opacity:1;stroke-opacity:0.3" />
<rect x="485" y="56" width="49" height="5" style="fill:#5d3c2d;stroke:black;stroke-width:1;fill-opacity:1;stroke-opacity:0.3" />
<line x1="474" y1="65" x2="478" y2="67" stroke="black" stroke-width="1" />
<line x1="478" y1="67" x2="483" y2="65" stroke="black" stroke-width="1" />
<rect x="422" y="63" width="52" height="5" style="fill:#5d3c2d;stroke:black;stroke-width:1;fill-opacity:1;stroke-opacity:0.3" />
<rect x="483" y="63" width="51" height="5" style="fill:#5d3c2d;stroke:black;stroke-width:1;fill-opacity:1;stroke-opacity:0.3" />
<text x="15"  y="176" style="font-family:Arial;font-size:10;stroke:black;fill:black;">all.merged.bam</text>
</svg>
    
