<?xml version="1.0" encoding="utf-8" standalone="no"?>
<!DOCTYPE svg PUBLIC "-//W3C//DTD SVG 1.1//EN"
  "http://www.w3.org/Graphics/SVG/1.1/DTD/svg11.dtd">
<svg height="1140" width="1000" version="1.1" viewBox="0 0 1000 1140" xmlns="http://www.w3.org/2000/svg" xmlns:xlink="http://www.w3.org/1999/xlink">
<line x1="54" y1="11" x2="945" y2="11" stroke="black" stroke-width="1" />
<rect x="54" y="9" width="540" height="5" style="fill:#f50002;stroke:black;stroke-width:1;fill-opacity:1;stroke-opacity:0.3" />
<rect x="686" y="9" width="18" height="5" style="fill:#f50002;stroke:black;stroke-width:1;fill-opacity:1;stroke-opacity:0.3" />
<rect x="705" y="9" width="126" height="5" style="fill:#53a1b5;stroke:black;stroke-width:1;fill-opacity:1;stroke-opacity:0.3" />
<rect x="832" y="9" width="112" height="5" style="fill:#f50002;stroke:black;stroke-width:1;fill-opacity:1;stroke-opacity:0.3" />
<text x="54"  y="23" style="font-family:Arial;font-size:10;stroke:black;fill:black;">Cre12.g530934.t1.2.v5.5 (-) chromosome_12:5490900-5492545</text>
<line x1="61" y1="30" x2="71" y2="32" stroke="black" stroke-width="1" />
<line x1="71" y1="32" x2="82" y2="30" stroke="black" stroke-width="1" />
<rect x="7" y="28" width="54" height="5" style="fill:#f5b024;stroke:black;stroke-width:1;fill-opacity:1;stroke-opacity:0.3" />
<rect x="82" y="28" width="54" height="5" style="fill:#f5b024;stroke:black;stroke-width:1;fill-opacity:1;stroke-opacity:0.3" />
<line x1="74" y1="37" x2="78" y2="39" stroke="black" stroke-width="1" />
<line x1="78" y1="39" x2="83" y2="37" stroke="black" stroke-width="1" />
<rect x="20" y="35" width="54" height="5" style="fill:#f5b024;stroke:black;stroke-width:1;fill-opacity:1;stroke-opacity:0.3" />
<rect x="83" y="35" width="54" height="5" style="fill:#f5b024;stroke:black;stroke-width:1;fill-opacity:1;stroke-opacity:0.3" />
<line x1="75" y1="44" x2="78" y2="46" stroke="black" stroke-width="1" />
<line x1="78" y1="46" x2="81" y2="44" stroke="black" stroke-width="1" />
<rect x="21" y="42" width="54" height="5" style="fill:#f5b024;stroke:black;stroke-width:1;fill-opacity:1;stroke-opacity:0.3" />
<rect x="81" y="42" width="54" height="5" style="fill:#f5b024;stroke:black;stroke-width:1;fill-opacity:1;stroke-opacity:0.3" />
<line x1="75" y1="51" x2="78" y2="53" stroke="black" stroke-width="1" />
<line x1="78" y1="53" x2="82" y2="51" stroke="black" stroke-width="1" />
<rect x="21" y="49" width="54" height="5" style="fill:#f5b024;stroke:black;stroke-width:1;fill-opacity:1;stroke-opacity:0.3" />
<rect x="82" y="49" width="54" height="5" style="fill:#f5b024;stroke:black;stroke-width:1;fill-opacity:1;stroke-opacity:0.3" />
<line x1="75" y1="58" x2="84" y2="60" stroke="black" stroke-width="1" />
<line x1="84" y1="60" x2="93" y2="58" stroke="black" stroke-width="1" />
<rect x="21" y="56" width="54" height="5" style="fill:#f5b024;stroke:black;stroke-width:1;fill-opacity:1;stroke-opacity:0.3" />
<rect x="93" y="56" width="54" height="5" style="fill:#f5b024;stroke:black;stroke-width:1;fill-opacity:1;stroke-opacity:0.3" />
<line x1="75" y1="65" x2="78" y2="67" stroke="black" stroke-width="1" />
<line x1="78" y1="67" x2="81" y2="65" stroke="black" stroke-width="1" />
<rect x="21" y="63" width="54" height="5" style="fill:#f5b024;stroke:black;stroke-width:1;fill-opacity:1;stroke-opacity:0.3" />
<rect x="81" y="63" width="54" height="5" style="fill:#f5b024;stroke:black;stroke-width:1;fill-opacity:1;stroke-opacity:0.3" />
<line x1="75" y1="72" x2="78" y2="74" stroke="black" stroke-width="1" />
<line x1="78" y1="74" x2="81" y2="72" stroke="black" stroke-width="1" />
<rect x="21" y="70" width="54" height="5" style="fill:#f5b024;stroke:black;stroke-width:1;fill-opacity:1;stroke-opacity:0.3" />
<rect x="81" y="70" width="54" height="5" style="fill:#f5b024;stroke:black;stroke-width:1;fill-opacity:1;stroke-opacity:0.3" />
<line x1="75" y1="79" x2="81" y2="81" stroke="black" stroke-width="1" />
<line x1="81" y1="81" x2="87" y2="79" stroke="black" stroke-width="1" />
<rect x="21" y="77" width="54" height="5" style="fill:#f5b024;stroke:black;stroke-width:1;fill-opacity:1;stroke-opacity:0.3" />
<rect x="87" y="77" width="54" height="5" style="fill:#f5b024;stroke:black;stroke-width:1;fill-opacity:1;stroke-opacity:0.3" />
<line x1="75" y1="86" x2="84" y2="88" stroke="black" stroke-width="1" />
<line x1="84" y1="88" x2="94" y2="86" stroke="black" stroke-width="1" />
<rect x="21" y="84" width="54" height="5" style="fill:#f5b024;stroke:black;stroke-width:1;fill-opacity:1;stroke-opacity:0.3" />
<rect x="94" y="84" width="54" height="5" style="fill:#f5b024;stroke:black;stroke-width:1;fill-opacity:1;stroke-opacity:0.3" />
<line x1="76" y1="93" x2="81" y2="95" stroke="black" stroke-width="1" />
<line x1="81" y1="95" x2="87" y2="93" stroke="black" stroke-width="1" />
<rect x="22" y="91" width="54" height="5" style="fill:#f5b024;stroke:black;stroke-width:1;fill-opacity:1;stroke-opacity:0.3" />
<rect x="87" y="91" width="54" height="5" style="fill:#f5b024;stroke:black;stroke-width:1;fill-opacity:1;stroke-opacity:0.3" />
<line x1="80" y1="100" x2="96" y2="102" stroke="black" stroke-width="1" />
<line x1="96" y1="102" x2="112" y2="100" stroke="black" stroke-width="1" />
<rect x="26" y="98" width="54" height="5" style="fill:#f5b024;stroke:black;stroke-width:1;fill-opacity:1;stroke-opacity:0.3" />
<rect x="112" y="98" width="54" height="5" style="fill:#f5b024;stroke:black;stroke-width:1;fill-opacity:1;stroke-opacity:0.3" />
<line x1="81" y1="107" x2="84" y2="109" stroke="black" stroke-width="1" />
<line x1="84" y1="109" x2="87" y2="107" stroke="black" stroke-width="1" />
<rect x="27" y="105" width="54" height="5" style="fill:#f5b024;stroke:black;stroke-width:1;fill-opacity:1;stroke-opacity:0.3" />
<rect x="87" y="105" width="54" height="5" style="fill:#f5b024;stroke:black;stroke-width:1;fill-opacity:1;stroke-opacity:0.3" />
<line x1="81" y1="114" x2="103" y2="116" stroke="black" stroke-width="1" />
<line x1="103" y1="116" x2="126" y2="114" stroke="black" stroke-width="1" />
<rect x="27" y="112" width="54" height="5" style="fill:#f5b024;stroke:black;stroke-width:1;fill-opacity:1;stroke-opacity:0.3" />
<rect x="126" y="112" width="54" height="5" style="fill:#f5b024;stroke:black;stroke-width:1;fill-opacity:1;stroke-opacity:0.3" />
<line x1="81" y1="121" x2="102" y2="123" stroke="black" stroke-width="1" />
<line x1="102" y1="123" x2="124" y2="121" stroke="black" stroke-width="1" />
<rect x="27" y="119" width="54" height="5" style="fill:#f5b024;stroke:black;stroke-width:1;fill-opacity:1;stroke-opacity:0.3" />
<rect x="124" y="119" width="54" height="5" style="fill:#f5b024;stroke:black;stroke-width:1;fill-opacity:1;stroke-opacity:0.3" />
<line x1="82" y1="128" x2="93" y2="130" stroke="black" stroke-width="1" />
<line x1="93" y1="130" x2="105" y2="128" stroke="black" stroke-width="1" />
<rect x="28" y="126" width="54" height="5" style="fill:#f5b024;stroke:black;stroke-width:1;fill-opacity:1;stroke-opacity:0.3" />
<rect x="105" y="126" width="54" height="5" style="fill:#f5b024;stroke:black;stroke-width:1;fill-opacity:1;stroke-opacity:0.3" />
<line x1="85" y1="135" x2="88" y2="137" stroke="black" stroke-width="1" />
<line x1="88" y1="137" x2="92" y2="135" stroke="black" stroke-width="1" />
<rect x="30" y="133" width="54" height="5" style="fill:#f5b024;stroke:black;stroke-width:1;fill-opacity:1;stroke-opacity:0.3" />
<rect x="92" y="133" width="54" height="5" style="fill:#f5b024;stroke:black;stroke-width:1;fill-opacity:1;stroke-opacity:0.3" />
<line x1="87" y1="142" x2="161" y2="144" stroke="black" stroke-width="1" />
<line x1="161" y1="144" x2="236" y2="142" stroke="black" stroke-width="1" />
<rect x="33" y="140" width="54" height="5" style="fill:#f5b024;stroke:black;stroke-width:1;fill-opacity:1;stroke-opacity:0.3" />
<rect x="236" y="140" width="54" height="5" style="fill:#f5b024;stroke:black;stroke-width:1;fill-opacity:1;stroke-opacity:0.3" />
<line x1="88" y1="149" x2="91" y2="151" stroke="black" stroke-width="1" />
<line x1="91" y1="151" x2="94" y2="149" stroke="black" stroke-width="1" />
<rect x="34" y="147" width="54" height="5" style="fill:#f5b024;stroke:black;stroke-width:1;fill-opacity:1;stroke-opacity:0.3" />
<rect x="94" y="147" width="54" height="5" style="fill:#f5b024;stroke:black;stroke-width:1;fill-opacity:1;stroke-opacity:0.3" />
<line x1="88" y1="156" x2="105" y2="158" stroke="black" stroke-width="1" />
<line x1="105" y1="158" x2="123" y2="156" stroke="black" stroke-width="1" />
<rect x="34" y="154" width="54" height="5" style="fill:#f5b024;stroke:black;stroke-width:1;fill-opacity:1;stroke-opacity:0.3" />
<rect x="123" y="154" width="54" height="5" style="fill:#f5b024;stroke:black;stroke-width:1;fill-opacity:1;stroke-opacity:0.3" />
<line x1="88" y1="163" x2="92" y2="165" stroke="black" stroke-width="1" />
<line x1="92" y1="165" x2="97" y2="163" stroke="black" stroke-width="1" />
<rect x="34" y="161" width="54" height="5" style="fill:#f5b024;stroke:black;stroke-width:1;fill-opacity:1;stroke-opacity:0.3" />
<rect x="97" y="161" width="54" height="5" style="fill:#f5b024;stroke:black;stroke-width:1;fill-opacity:1;stroke-opacity:0.3" />
<line x1="189" y1="44" x2="212" y2="46" stroke="black" stroke-width="1" />
<line x1="212" y1="46" x2="236" y2="44" stroke="black" stroke-width="1" />
<rect x="135" y="42" width="53" height="5" style="fill:#5d3c2d;stroke:black;stroke-width:1;fill-opacity:1;stroke-opacity:0.3" />
<rect x="236" y="42" width="54" height="5" style="fill:#5d3c2d;stroke:black;stroke-width:1;fill-opacity:1;stroke-opacity:0.3" />
<line x1="189" y1="65" x2="212" y2="67" stroke="black" stroke-width="1" />
<line x1="212" y1="67" x2="235" y2="65" stroke="black" stroke-width="1" />
<rect x="135" y="63" width="54" height="5" style="fill:#5d3c2d;stroke:black;stroke-width:1;fill-opacity:1;stroke-opacity:0.3" />
<rect x="235" y="63" width="54" height="5" style="fill:#5d3c2d;stroke:black;stroke-width:1;fill-opacity:1;stroke-opacity:0.3" />
<line x1="190" y1="72" x2="212" y2="74" stroke="black" stroke-width="1" />
<line x1="212" y1="74" x2="234" y2="72" stroke="black" stroke-width="1" />
<rect x="135" y="70" width="54" height="5" style="fill:#5d3c2d;stroke:black;stroke-width:1;fill-opacity:1;stroke-opacity:0.3" />
<rect x="234" y="70" width="54" height="5" style="fill:#5d3c2d;stroke:black;stroke-width:1;fill-opacity:1;stroke-opacity:0.3" />
<line x1="192" y1="30" x2="197" y2="32" stroke="black" stroke-width="1" />
<line x1="197" y1="32" x2="202" y2="30" stroke="black" stroke-width="1" />
<rect x="138" y="28" width="54" height="5" style="fill:#f5b024;stroke:black;stroke-width:1;fill-opacity:1;stroke-opacity:0.3" />
<rect x="202" y="28" width="54" height="5" style="fill:#f5b024;stroke:black;stroke-width:1;fill-opacity:1;stroke-opacity:0.3" />
<line x1="192" y1="37" x2="202" y2="39" stroke="black" stroke-width="1" />
<line x1="202" y1="39" x2="213" y2="37" stroke="black" stroke-width="1" />
<rect x="138" y="35" width="54" height="5" style="fill:#f5b024;stroke:black;stroke-width:1;fill-opacity:1;stroke-opacity:0.3" />
<rect x="213" y="35" width="54" height="5" style="fill:#f5b024;stroke:black;stroke-width:1;fill-opacity:1;stroke-opacity:0.3" />
<line x1="193" y1="51" x2="214" y2="53" stroke="black" stroke-width="1" />
<line x1="214" y1="53" x2="236" y2="51" stroke="black" stroke-width="1" />
<rect x="139" y="49" width="53" height="5" style="fill:#5d3c2d;stroke:black;stroke-width:1;fill-opacity:1;stroke-opacity:0.3" />
<rect x="236" y="49" width="54" height="5" style="fill:#5d3c2d;stroke:black;stroke-width:1;fill-opacity:1;stroke-opacity:0.3" />
<line x1="197" y1="79" x2="203" y2="81" stroke="black" stroke-width="1" />
<line x1="203" y1="81" x2="209" y2="79" stroke="black" stroke-width="1" />
<rect x="144" y="77" width="53" height="5" style="fill:#f5b024;stroke:black;stroke-width:1;fill-opacity:1;stroke-opacity:0.3" />
<rect x="209" y="77" width="54" height="5" style="fill:#f5b024;stroke:black;stroke-width:1;fill-opacity:1;stroke-opacity:0.3" />
<line x1="198" y1="93" x2="217" y2="95" stroke="black" stroke-width="1" />
<line x1="217" y1="95" x2="237" y2="93" stroke="black" stroke-width="1" />
<rect x="144" y="91" width="54" height="5" style="fill:#f5b024;stroke:black;stroke-width:1;fill-opacity:1;stroke-opacity:0.3" />
<rect x="237" y="91" width="54" height="5" style="fill:#f5b024;stroke:black;stroke-width:1;fill-opacity:1;stroke-opacity:0.3" />
<line x1="198" y1="107" x2="226" y2="109" stroke="black" stroke-width="1" />
<line x1="226" y1="109" x2="255" y2="107" stroke="black" stroke-width="1" />
<rect x="144" y="105" width="54" height="5" style="fill:#f5b024;stroke:black;stroke-width:1;fill-opacity:1;stroke-opacity:0.3" />
<rect x="255" y="105" width="54" height="5" style="fill:#f5b024;stroke:black;stroke-width:1;fill-opacity:1;stroke-opacity:0.3" />
<line x1="218" y1="58" x2="226" y2="60" stroke="black" stroke-width="1" />
<line x1="226" y1="60" x2="235" y2="58" stroke="black" stroke-width="1" />
<rect x="165" y="56" width="53" height="5" style="fill:#5d3c2d;stroke:black;stroke-width:1;fill-opacity:1;stroke-opacity:0.3" />
<rect x="235" y="56" width="54" height="5" style="fill:#5d3c2d;stroke:black;stroke-width:1;fill-opacity:1;stroke-opacity:0.3" />
<line x1="218" y1="86" x2="224" y2="88" stroke="black" stroke-width="1" />
<line x1="224" y1="88" x2="231" y2="86" stroke="black" stroke-width="1" />
<rect x="165" y="84" width="53" height="5" style="fill:#f5b024;stroke:black;stroke-width:1;fill-opacity:1;stroke-opacity:0.3" />
<rect x="231" y="84" width="54" height="5" style="fill:#f5b024;stroke:black;stroke-width:1;fill-opacity:1;stroke-opacity:0.3" />
<line x1="219" y1="128" x2="224" y2="130" stroke="black" stroke-width="1" />
<line x1="224" y1="130" x2="230" y2="128" stroke="black" stroke-width="1" />
<rect x="165" y="126" width="54" height="5" style="fill:#f5b024;stroke:black;stroke-width:1;fill-opacity:1;stroke-opacity:0.3" />
<rect x="230" y="126" width="54" height="5" style="fill:#f5b024;stroke:black;stroke-width:1;fill-opacity:1;stroke-opacity:0.3" />
<line x1="219" y1="135" x2="227" y2="137" stroke="black" stroke-width="1" />
<line x1="227" y1="137" x2="236" y2="135" stroke="black" stroke-width="1" />
<rect x="165" y="133" width="54" height="5" style="fill:#f5b024;stroke:black;stroke-width:1;fill-opacity:1;stroke-opacity:0.3" />
<rect x="236" y="133" width="53" height="5" style="fill:#f5b024;stroke:black;stroke-width:1;fill-opacity:1;stroke-opacity:0.3" />
<line x1="218" y1="149" x2="226" y2="151" stroke="black" stroke-width="1" />
<line x1="226" y1="151" x2="234" y2="149" stroke="black" stroke-width="1" />
<rect x="166" y="147" width="52" height="5" style="fill:#5d3c2d;stroke:black;stroke-width:1;fill-opacity:1;stroke-opacity:0.3" />
<rect x="234" y="147" width="54" height="5" style="fill:#5d3c2d;stroke:black;stroke-width:1;fill-opacity:1;stroke-opacity:0.3" />
<line x1="220" y1="163" x2="225" y2="165" stroke="black" stroke-width="1" />
<line x1="225" y1="165" x2="230" y2="163" stroke="black" stroke-width="1" />
<rect x="166" y="161" width="54" height="5" style="fill:#f5b024;stroke:black;stroke-width:1;fill-opacity:1;stroke-opacity:0.3" />
<rect x="230" y="161" width="54" height="5" style="fill:#f5b024;stroke:black;stroke-width:1;fill-opacity:1;stroke-opacity:0.3" />
<line x1="222" y1="100" x2="226" y2="102" stroke="black" stroke-width="1" />
<line x1="226" y1="102" x2="231" y2="100" stroke="black" stroke-width="1" />
<rect x="168" y="98" width="54" height="5" style="fill:#f5b024;stroke:black;stroke-width:1;fill-opacity:1;stroke-opacity:0.3" />
<rect x="231" y="98" width="54" height="5" style="fill:#f5b024;stroke:black;stroke-width:1;fill-opacity:1;stroke-opacity:0.3" />
<line x1="231" y1="156" x2="235" y2="158" stroke="black" stroke-width="1" />
<line x1="235" y1="158" x2="239" y2="156" stroke="black" stroke-width="1" />
<rect x="177" y="154" width="54" height="5" style="fill:#f5b024;stroke:black;stroke-width:1;fill-opacity:1;stroke-opacity:0.3" />
<rect x="239" y="154" width="54" height="5" style="fill:#f5b024;stroke:black;stroke-width:1;fill-opacity:1;stroke-opacity:0.3" />
<line x1="234" y1="121" x2="241" y2="123" stroke="black" stroke-width="1" />
<line x1="241" y1="123" x2="249" y2="121" stroke="black" stroke-width="1" />
<rect x="179" y="119" width="54" height="5" style="fill:#f5b024;stroke:black;stroke-width:1;fill-opacity:1;stroke-opacity:0.3" />
<rect x="249" y="119" width="54" height="5" style="fill:#f5b024;stroke:black;stroke-width:1;fill-opacity:1;stroke-opacity:0.3" />
<line x1="248" y1="114" x2="255" y2="116" stroke="black" stroke-width="1" />
<line x1="255" y1="116" x2="262" y2="114" stroke="black" stroke-width="1" />
<rect x="194" y="112" width="54" height="5" style="fill:#f5b024;stroke:black;stroke-width:1;fill-opacity:1;stroke-opacity:0.3" />
<rect x="262" y="112" width="54" height="5" style="fill:#f5b024;stroke:black;stroke-width:1;fill-opacity:1;stroke-opacity:0.3" />
<line x1="310" y1="30" x2="317" y2="32" stroke="black" stroke-width="1" />
<line x1="317" y1="32" x2="325" y2="30" stroke="black" stroke-width="1" />
<rect x="256" y="28" width="54" height="5" style="fill:#f5b024;stroke:black;stroke-width:1;fill-opacity:1;stroke-opacity:0.3" />
<rect x="325" y="28" width="54" height="5" style="fill:#f5b024;stroke:black;stroke-width:1;fill-opacity:1;stroke-opacity:0.3" />
<line x1="317" y1="79" x2="323" y2="81" stroke="black" stroke-width="1" />
<line x1="323" y1="81" x2="330" y2="79" stroke="black" stroke-width="1" />
<rect x="263" y="77" width="54" height="5" style="fill:#f5b024;stroke:black;stroke-width:1;fill-opacity:1;stroke-opacity:0.3" />
<rect x="330" y="77" width="54" height="5" style="fill:#f5b024;stroke:black;stroke-width:1;fill-opacity:1;stroke-opacity:0.3" />
<line x1="322" y1="37" x2="326" y2="39" stroke="black" stroke-width="1" />
<line x1="326" y1="39" x2="330" y2="37" stroke="black" stroke-width="1" />
<rect x="268" y="35" width="54" height="5" style="fill:#f5b024;stroke:black;stroke-width:1;fill-opacity:1;stroke-opacity:0.3" />
<rect x="330" y="35" width="53" height="5" style="fill:#f5b024;stroke:black;stroke-width:1;fill-opacity:1;stroke-opacity:0.3" />
<line x1="339" y1="128" x2="342" y2="130" stroke="black" stroke-width="1" />
<line x1="342" y1="130" x2="346" y2="128" stroke="black" stroke-width="1" />
<rect x="284" y="126" width="54" height="5" style="fill:#f5b024;stroke:black;stroke-width:1;fill-opacity:1;stroke-opacity:0.3" />
<rect x="346" y="126" width="54" height="5" style="fill:#f5b024;stroke:black;stroke-width:1;fill-opacity:1;stroke-opacity:0.3" />
<line x1="339" y1="163" x2="398" y2="165" stroke="black" stroke-width="1" />
<line x1="398" y1="165" x2="458" y2="163" stroke="black" stroke-width="1" />
<rect x="285" y="161" width="54" height="5" style="fill:#f5b024;stroke:black;stroke-width:1;fill-opacity:1;stroke-opacity:0.3" />
<rect x="458" y="161" width="54" height="5" style="fill:#f5b024;stroke:black;stroke-width:1;fill-opacity:1;stroke-opacity:0.3" />
<line x1="340" y1="86" x2="348" y2="88" stroke="black" stroke-width="1" />
<line x1="348" y1="88" x2="356" y2="86" stroke="black" stroke-width="1" />
<rect x="286" y="84" width="54" height="5" style="fill:#f5b024;stroke:black;stroke-width:1;fill-opacity:1;stroke-opacity:0.3" />
<rect x="356" y="84" width="54" height="5" style="fill:#f5b024;stroke:black;stroke-width:1;fill-opacity:1;stroke-opacity:0.3" />
<line x1="340" y1="100" x2="349" y2="102" stroke="black" stroke-width="1" />
<line x1="349" y1="102" x2="358" y2="100" stroke="black" stroke-width="1" />
<rect x="286" y="98" width="54" height="5" style="fill:#f5b024;stroke:black;stroke-width:1;fill-opacity:1;stroke-opacity:0.3" />
<rect x="358" y="98" width="54" height="5" style="fill:#f5b024;stroke:black;stroke-width:1;fill-opacity:1;stroke-opacity:0.3" />
<line x1="340" y1="72" x2="347" y2="74" stroke="black" stroke-width="1" />
<line x1="347" y1="74" x2="354" y2="72" stroke="black" stroke-width="1" />
<rect x="288" y="70" width="52" height="5" style="fill:#f5b024;stroke:black;stroke-width:1;fill-opacity:1;stroke-opacity:0.3" />
<rect x="354" y="70" width="54" height="5" style="fill:#f5b024;stroke:black;stroke-width:1;fill-opacity:1;stroke-opacity:0.3" />
<line x1="342" y1="149" x2="345" y2="151" stroke="black" stroke-width="1" />
<line x1="345" y1="151" x2="349" y2="149" stroke="black" stroke-width="1" />
<rect x="288" y="147" width="54" height="5" style="fill:#f5b024;stroke:black;stroke-width:1;fill-opacity:1;stroke-opacity:0.3" />
<rect x="349" y="147" width="54" height="5" style="fill:#f5b024;stroke:black;stroke-width:1;fill-opacity:1;stroke-opacity:0.3" />
<line x1="343" y1="65" x2="345" y2="67" stroke="black" stroke-width="1" />
<line x1="345" y1="67" x2="348" y2="65" stroke="black" stroke-width="1" />
<rect x="289" y="63" width="54" height="5" style="fill:#f5b024;stroke:black;stroke-width:1;fill-opacity:1;stroke-opacity:0.3" />
<rect x="348" y="63" width="54" height="5" style="fill:#f5b024;stroke:black;stroke-width:1;fill-opacity:1;stroke-opacity:0.3" />
<line x1="343" y1="58" x2="350" y2="60" stroke="black" stroke-width="1" />
<line x1="350" y1="60" x2="358" y2="58" stroke="black" stroke-width="1" />
<rect x="289" y="56" width="53" height="5" style="fill:#f5b024;stroke:black;stroke-width:1;fill-opacity:1;stroke-opacity:0.3" />
<rect x="358" y="56" width="54" height="5" style="fill:#f5b024;stroke:black;stroke-width:1;fill-opacity:1;stroke-opacity:0.3" />
<line x1="343" y1="135" x2="364" y2="137" stroke="black" stroke-width="1" />
<line x1="364" y1="137" x2="386" y2="135" stroke="black" stroke-width="1" />
<rect x="289" y="133" width="54" height="5" style="fill:#f5b024;stroke:black;stroke-width:1;fill-opacity:1;stroke-opacity:0.3" />
<rect x="386" y="133" width="54" height="5" style="fill:#f5b024;stroke:black;stroke-width:1;fill-opacity:1;stroke-opacity:0.3" />
<line x1="344" y1="44" x2="351" y2="46" stroke="black" stroke-width="1" />
<line x1="351" y1="46" x2="359" y2="44" stroke="black" stroke-width="1" />
<rect x="290" y="42" width="54" height="5" style="fill:#f5b024;stroke:black;stroke-width:1;fill-opacity:1;stroke-opacity:0.3" />
<rect x="359" y="42" width="54" height="5" style="fill:#f5b024;stroke:black;stroke-width:1;fill-opacity:1;stroke-opacity:0.3" />
<line x1="344" y1="51" x2="357" y2="53" stroke="black" stroke-width="1" />
<line x1="357" y1="53" x2="370" y2="51" stroke="black" stroke-width="1" />
<rect x="290" y="49" width="54" height="5" style="fill:#f5b024;stroke:black;stroke-width:1;fill-opacity:1;stroke-opacity:0.3" />
<rect x="370" y="49" width="54" height="5" style="fill:#f5b024;stroke:black;stroke-width:1;fill-opacity:1;stroke-opacity:0.3" />
<line x1="345" y1="142" x2="356" y2="144" stroke="black" stroke-width="1" />
<line x1="356" y1="144" x2="368" y2="142" stroke="black" stroke-width="1" />
<rect x="290" y="140" width="54" height="5" style="fill:#f5b024;stroke:black;stroke-width:1;fill-opacity:1;stroke-opacity:0.3" />
<rect x="368" y="140" width="54" height="5" style="fill:#f5b024;stroke:black;stroke-width:1;fill-opacity:1;stroke-opacity:0.3" />
<line x1="346" y1="93" x2="366" y2="95" stroke="black" stroke-width="1" />
<line x1="366" y1="95" x2="386" y2="93" stroke="black" stroke-width="1" />
<rect x="291" y="91" width="54" height="5" style="fill:#f5b024;stroke:black;stroke-width:1;fill-opacity:1;stroke-opacity:0.3" />
<rect x="386" y="91" width="54" height="5" style="fill:#f5b024;stroke:black;stroke-width:1;fill-opacity:1;stroke-opacity:0.3" />
<line x1="348" y1="156" x2="356" y2="158" stroke="black" stroke-width="1" />
<line x1="356" y1="158" x2="364" y2="156" stroke="black" stroke-width="1" />
<rect x="294" y="154" width="53" height="5" style="fill:#f5b024;stroke:black;stroke-width:1;fill-opacity:1;stroke-opacity:0.3" />
<rect x="364" y="154" width="54" height="5" style="fill:#f5b024;stroke:black;stroke-width:1;fill-opacity:1;stroke-opacity:0.3" />
<line x1="358" y1="121" x2="381" y2="123" stroke="black" stroke-width="1" />
<line x1="381" y1="123" x2="404" y2="121" stroke="black" stroke-width="1" />
<rect x="303" y="119" width="54" height="5" style="fill:#f5b024;stroke:black;stroke-width:1;fill-opacity:1;stroke-opacity:0.3" />
<rect x="404" y="119" width="54" height="5" style="fill:#f5b024;stroke:black;stroke-width:1;fill-opacity:1;stroke-opacity:0.3" />
<line x1="374" y1="107" x2="380" y2="109" stroke="black" stroke-width="1" />
<line x1="380" y1="109" x2="387" y2="107" stroke="black" stroke-width="1" />
<rect x="320" y="105" width="54" height="5" style="fill:#f5b024;stroke:black;stroke-width:1;fill-opacity:1;stroke-opacity:0.3" />
<rect x="387" y="105" width="54" height="5" style="fill:#f5b024;stroke:black;stroke-width:1;fill-opacity:1;stroke-opacity:0.3" />
<line x1="374" y1="114" x2="380" y2="116" stroke="black" stroke-width="1" />
<line x1="380" y1="116" x2="387" y2="114" stroke="black" stroke-width="1" />
<rect x="320" y="112" width="54" height="5" style="fill:#f5b024;stroke:black;stroke-width:1;fill-opacity:1;stroke-opacity:0.3" />
<rect x="387" y="112" width="54" height="5" style="fill:#f5b024;stroke:black;stroke-width:1;fill-opacity:1;stroke-opacity:0.3" />
<line x1="434" y1="30" x2="450" y2="32" stroke="black" stroke-width="1" />
<line x1="450" y1="32" x2="466" y2="30" stroke="black" stroke-width="1" />
<rect x="380" y="28" width="54" height="5" style="fill:#f5b024;stroke:black;stroke-width:1;fill-opacity:1;stroke-opacity:0.3" />
<rect x="466" y="28" width="54" height="5" style="fill:#f5b024;stroke:black;stroke-width:1;fill-opacity:1;stroke-opacity:0.3" />
<line x1="438" y1="37" x2="448" y2="39" stroke="black" stroke-width="1" />
<line x1="448" y1="39" x2="459" y2="37" stroke="black" stroke-width="1" />
<rect x="384" y="35" width="54" height="5" style="fill:#5d3c2d;stroke:black;stroke-width:1;fill-opacity:1;stroke-opacity:0.3" />
<rect x="459" y="35" width="54" height="5" style="fill:#5d3c2d;stroke:black;stroke-width:1;fill-opacity:1;stroke-opacity:0.3" />
<line x1="439" y1="79" x2="448" y2="81" stroke="black" stroke-width="1" />
<line x1="448" y1="81" x2="458" y2="79" stroke="black" stroke-width="1" />
<rect x="385" y="77" width="54" height="5" style="fill:#f5b024;stroke:black;stroke-width:1;fill-opacity:1;stroke-opacity:0.3" />
<rect x="458" y="77" width="54" height="5" style="fill:#f5b024;stroke:black;stroke-width:1;fill-opacity:1;stroke-opacity:0.3" />
<line x1="457" y1="65" x2="471" y2="67" stroke="black" stroke-width="1" />
<line x1="471" y1="67" x2="485" y2="65" stroke="black" stroke-width="1" />
<rect x="403" y="63" width="54" height="5" style="fill:#f5b024;stroke:black;stroke-width:1;fill-opacity:1;stroke-opacity:0.3" />
<rect x="485" y="63" width="54" height="5" style="fill:#f5b024;stroke:black;stroke-width:1;fill-opacity:1;stroke-opacity:0.3" />
<line x1="456" y1="128" x2="467" y2="130" stroke="black" stroke-width="1" />
<line x1="467" y1="130" x2="478" y2="128" stroke="black" stroke-width="1" />
<rect x="403" y="126" width="53" height="5" style="fill:#f5b024;stroke:black;stroke-width:1;fill-opacity:1;stroke-opacity:0.3" />
<rect x="478" y="126" width="54" height="5" style="fill:#f5b024;stroke:black;stroke-width:1;fill-opacity:1;stroke-opacity:0.3" />
<line x1="458" y1="149" x2="470" y2="151" stroke="black" stroke-width="1" />
<line x1="470" y1="151" x2="483" y2="149" stroke="black" stroke-width="1" />
<rect x="404" y="147" width="54" height="5" style="fill:#f5b024;stroke:black;stroke-width:1;fill-opacity:1;stroke-opacity:0.3" />
<rect x="483" y="147" width="54" height="5" style="fill:#f5b024;stroke:black;stroke-width:1;fill-opacity:1;stroke-opacity:0.3" />
<line x1="463" y1="72" x2="479" y2="74" stroke="black" stroke-width="1" />
<line x1="479" y1="74" x2="496" y2="72" stroke="black" stroke-width="1" />
<rect x="410" y="70" width="53" height="5" style="fill:#f5b024;stroke:black;stroke-width:1;fill-opacity:1;stroke-opacity:0.3" />
<rect x="496" y="70" width="47" height="5" style="fill:#f5b024;stroke:black;stroke-width:1;fill-opacity:1;stroke-opacity:0.3" />
<line x1="468" y1="44" x2="492" y2="46" stroke="black" stroke-width="1" />
<line x1="492" y1="46" x2="516" y2="44" stroke="black" stroke-width="1" />
<rect x="414" y="42" width="54" height="5" style="fill:#f5b024;stroke:black;stroke-width:1;fill-opacity:1;stroke-opacity:0.3" />
<rect x="516" y="42" width="54" height="5" style="fill:#f5b024;stroke:black;stroke-width:1;fill-opacity:1;stroke-opacity:0.3" />
<line x1="469" y1="58" x2="477" y2="60" stroke="black" stroke-width="1" />
<line x1="477" y1="60" x2="486" y2="58" stroke="black" stroke-width="1" />
<rect x="414" y="56" width="54" height="5" style="fill:#f5b024;stroke:black;stroke-width:1;fill-opacity:1;stroke-opacity:0.3" />
<rect x="486" y="56" width="54" height="5" style="fill:#f5b024;stroke:black;stroke-width:1;fill-opacity:1;stroke-opacity:0.3" />
<line x1="469" y1="86" x2="486" y2="88" stroke="black" stroke-width="1" />
<line x1="486" y1="88" x2="504" y2="86" stroke="black" stroke-width="1" />
<rect x="415" y="84" width="54" height="5" style="fill:#f5b024;stroke:black;stroke-width:1;fill-opacity:1;stroke-opacity:0.3" />
<rect x="504" y="84" width="54" height="5" style="fill:#f5b024;stroke:black;stroke-width:1;fill-opacity:1;stroke-opacity:0.3" />
<line x1="470" y1="100" x2="474" y2="102" stroke="black" stroke-width="1" />
<line x1="474" y1="102" x2="478" y2="100" stroke="black" stroke-width="1" />
<rect x="416" y="98" width="54" height="5" style="fill:#f5b024;stroke:black;stroke-width:1;fill-opacity:1;stroke-opacity:0.3" />
<rect x="478" y="98" width="54" height="5" style="fill:#f5b024;stroke:black;stroke-width:1;fill-opacity:1;stroke-opacity:0.3" />
<line x1="475" y1="156" x2="480" y2="158" stroke="black" stroke-width="1" />
<line x1="480" y1="158" x2="485" y2="156" stroke="black" stroke-width="1" />
<rect x="421" y="154" width="54" height="5" style="fill:#f5b024;stroke:black;stroke-width:1;fill-opacity:1;stroke-opacity:0.3" />
<rect x="485" y="154" width="54" height="5" style="fill:#f5b024;stroke:black;stroke-width:1;fill-opacity:1;stroke-opacity:0.3" />
<line x1="476" y1="142" x2="481" y2="144" stroke="black" stroke-width="1" />
<line x1="481" y1="144" x2="486" y2="142" stroke="black" stroke-width="1" />
<rect x="422" y="140" width="54" height="5" style="fill:#f5b024;stroke:black;stroke-width:1;fill-opacity:1;stroke-opacity:0.3" />
<rect x="486" y="140" width="54" height="5" style="fill:#f5b024;stroke:black;stroke-width:1;fill-opacity:1;stroke-opacity:0.3" />
<line x1="480" y1="51" x2="483" y2="53" stroke="black" stroke-width="1" />
<line x1="483" y1="53" x2="486" y2="51" stroke="black" stroke-width="1" />
<rect x="426" y="49" width="53" height="5" style="fill:#5d3c2d;stroke:black;stroke-width:1;fill-opacity:1;stroke-opacity:0.3" />
<rect x="486" y="49" width="54" height="5" style="fill:#5d3c2d;stroke:black;stroke-width:1;fill-opacity:1;stroke-opacity:0.3" />
<line x1="496" y1="93" x2="516" y2="95" stroke="black" stroke-width="1" />
<line x1="516" y1="95" x2="537" y2="93" stroke="black" stroke-width="1" />
<rect x="442" y="91" width="54" height="5" style="fill:#f5b024;stroke:black;stroke-width:1;fill-opacity:1;stroke-opacity:0.3" />
<rect x="537" y="91" width="54" height="5" style="fill:#f5b024;stroke:black;stroke-width:1;fill-opacity:1;stroke-opacity:0.3" />
<line x1="496" y1="107" x2="507" y2="109" stroke="black" stroke-width="1" />
<line x1="507" y1="109" x2="518" y2="107" stroke="black" stroke-width="1" />
<rect x="442" y="105" width="54" height="5" style="fill:#f5b024;stroke:black;stroke-width:1;fill-opacity:1;stroke-opacity:0.3" />
<rect x="518" y="105" width="54" height="5" style="fill:#f5b024;stroke:black;stroke-width:1;fill-opacity:1;stroke-opacity:0.3" />
<line x1="497" y1="114" x2="503" y2="116" stroke="black" stroke-width="1" />
<line x1="503" y1="116" x2="509" y2="114" stroke="black" stroke-width="1" />
<rect x="443" y="112" width="54" height="5" style="fill:#f5b024;stroke:black;stroke-width:1;fill-opacity:1;stroke-opacity:0.3" />
<rect x="509" y="112" width="54" height="5" style="fill:#f5b024;stroke:black;stroke-width:1;fill-opacity:1;stroke-opacity:0.3" />
<line x1="498" y1="135" x2="502" y2="137" stroke="black" stroke-width="1" />
<line x1="502" y1="137" x2="507" y2="135" stroke="black" stroke-width="1" />
<rect x="444" y="133" width="54" height="5" style="fill:#f5b024;stroke:black;stroke-width:1;fill-opacity:1;stroke-opacity:0.3" />
<rect x="507" y="133" width="53" height="5" style="fill:#f5b024;stroke:black;stroke-width:1;fill-opacity:1;stroke-opacity:0.3" />
<line x1="513" y1="121" x2="524" y2="123" stroke="black" stroke-width="1" />
<line x1="524" y1="123" x2="536" y2="121" stroke="black" stroke-width="1" />
<rect x="458" y="119" width="54" height="5" style="fill:#f5b024;stroke:black;stroke-width:1;fill-opacity:1;stroke-opacity:0.3" />
<rect x="536" y="119" width="54" height="5" style="fill:#f5b024;stroke:black;stroke-width:1;fill-opacity:1;stroke-opacity:0.3" />
<line x1="569" y1="37" x2="578" y2="39" stroke="black" stroke-width="1" />
<line x1="578" y1="39" x2="588" y2="37" stroke="black" stroke-width="1" />
<rect x="515" y="35" width="54" height="5" style="fill:#f5b024;stroke:black;stroke-width:1;fill-opacity:1;stroke-opacity:0.3" />
<rect x="588" y="35" width="6" height="5" style="fill:#f5b024;stroke:black;stroke-width:1;fill-opacity:1;stroke-opacity:0.3" />
<line x1="595" y1="37" x2="686" y2="37" stroke="pink" stroke-width="1" />
<rect x="686" y="35" width="47" height="5" style="fill:#f5b024;stroke:black;stroke-width:1;fill-opacity:1;stroke-opacity:0.3" />
<line x1="569" y1="79" x2="572" y2="81" stroke="black" stroke-width="1" />
<line x1="572" y1="81" x2="575" y2="79" stroke="black" stroke-width="1" />
<rect x="515" y="77" width="54" height="5" style="fill:#f5b024;stroke:black;stroke-width:1;fill-opacity:1;stroke-opacity:0.3" />
<rect x="575" y="77" width="20" height="5" style="fill:#f5b024;stroke:black;stroke-width:1;fill-opacity:1;stroke-opacity:0.3" />
<line x1="595" y1="79" x2="686" y2="79" stroke="pink" stroke-width="1" />
<rect x="686" y="77" width="34" height="5" style="fill:#f5b024;stroke:black;stroke-width:1;fill-opacity:1;stroke-opacity:0.3" />
<line x1="569" y1="163" x2="633" y2="165" stroke="black" stroke-width="1" />
<line x1="633" y1="165" x2="697" y2="163" stroke="black" stroke-width="1" />
<rect x="515" y="161" width="54" height="5" style="fill:#f5b024;stroke:black;stroke-width:1;fill-opacity:1;stroke-opacity:0.3" />
<rect x="697" y="161" width="54" height="5" style="fill:#f5b024;stroke:black;stroke-width:1;fill-opacity:1;stroke-opacity:0.3" />
<line x1="574" y1="30" x2="580" y2="32" stroke="black" stroke-width="1" />
<line x1="580" y1="32" x2="586" y2="30" stroke="black" stroke-width="1" />
<rect x="520" y="28" width="54" height="5" style="fill:#f5b024;stroke:black;stroke-width:1;fill-opacity:1;stroke-opacity:0.3" />
<rect x="586" y="28" width="9" height="5" style="fill:#f5b024;stroke:black;stroke-width:1;fill-opacity:1;stroke-opacity:0.3" />
<line x1="595" y1="30" x2="686" y2="30" stroke="pink" stroke-width="1" />
<rect x="686" y="28" width="44" height="5" style="fill:#f5b024;stroke:black;stroke-width:1;fill-opacity:1;stroke-opacity:0.3" />
<line x1="589" y1="100" x2="639" y2="102" stroke="black" stroke-width="1" />
<line x1="639" y1="102" x2="689" y2="100" stroke="black" stroke-width="1" />
<rect x="535" y="98" width="53" height="5" style="fill:#f5b024;stroke:black;stroke-width:1;fill-opacity:1;stroke-opacity:0.3" />
<rect x="689" y="98" width="53" height="5" style="fill:#f5b024;stroke:black;stroke-width:1;fill-opacity:1;stroke-opacity:0.3" />
<line x1="589" y1="128" x2="645" y2="130" stroke="black" stroke-width="1" />
<line x1="645" y1="130" x2="702" y2="128" stroke="black" stroke-width="1" />
<rect x="535" y="126" width="53" height="5" style="fill:#f5b024;stroke:black;stroke-width:1;fill-opacity:1;stroke-opacity:0.3" />
<rect x="702" y="126" width="54" height="5" style="fill:#f5b024;stroke:black;stroke-width:1;fill-opacity:1;stroke-opacity:0.3" />
<line x1="592" y1="149" x2="637" y2="151" stroke="black" stroke-width="1" />
<line x1="637" y1="151" x2="683" y2="149" stroke="black" stroke-width="1" />
<rect x="537" y="147" width="54" height="5" style="fill:#f5b024;stroke:black;stroke-width:1;fill-opacity:1;stroke-opacity:0.3" />
<rect x="683" y="147" width="54" height="5" style="fill:#f5b024;stroke:black;stroke-width:1;fill-opacity:1;stroke-opacity:0.3" />
<line x1="692" y1="51" x2="695" y2="53" stroke="black" stroke-width="1" />
<line x1="695" y1="53" x2="699" y2="51" stroke="black" stroke-width="1" />
<rect x="548" y="49" width="47" height="5" style="fill:#5d3c2d;stroke:black;stroke-width:1;fill-opacity:1;stroke-opacity:0.3" />
<line x1="595" y1="51" x2="686" y2="51" stroke="pink" stroke-width="1" />
<rect x="686" y="49" width="6" height="5" style="fill:#5d3c2d;stroke:black;stroke-width:1;fill-opacity:1;stroke-opacity:0.3" />
<rect x="699" y="49" width="54" height="5" style="fill:#5d3c2d;stroke:black;stroke-width:1;fill-opacity:1;stroke-opacity:0.3" />
<line x1="693" y1="58" x2="718" y2="60" stroke="black" stroke-width="1" />
<line x1="718" y1="60" x2="743" y2="58" stroke="black" stroke-width="1" />
<rect x="548" y="56" width="47" height="5" style="fill:#f5b024;stroke:black;stroke-width:1;fill-opacity:1;stroke-opacity:0.3" />
<line x1="595" y1="58" x2="686" y2="58" stroke="pink" stroke-width="1" />
<rect x="686" y="56" width="7" height="5" style="fill:#f5b024;stroke:black;stroke-width:1;fill-opacity:1;stroke-opacity:0.3" />
<rect x="743" y="56" width="54" height="5" style="fill:#f5b024;stroke:black;stroke-width:1;fill-opacity:1;stroke-opacity:0.3" />
<line x1="699" y1="65" x2="704" y2="67" stroke="black" stroke-width="1" />
<line x1="704" y1="67" x2="710" y2="65" stroke="black" stroke-width="1" />
<rect x="554" y="63" width="41" height="5" style="fill:#f5b024;stroke:black;stroke-width:1;fill-opacity:1;stroke-opacity:0.3" />
<line x1="595" y1="65" x2="686" y2="65" stroke="pink" stroke-width="1" />
<rect x="686" y="63" width="13" height="5" style="fill:#f5b024;stroke:black;stroke-width:1;fill-opacity:1;stroke-opacity:0.3" />
<rect x="710" y="63" width="54" height="5" style="fill:#f5b024;stroke:black;stroke-width:1;fill-opacity:1;stroke-opacity:0.3" />
<line x1="699" y1="72" x2="708" y2="74" stroke="black" stroke-width="1" />
<line x1="708" y1="74" x2="717" y2="72" stroke="black" stroke-width="1" />
<rect x="554" y="70" width="40" height="5" style="fill:#f5b024;stroke:black;stroke-width:1;fill-opacity:1;stroke-opacity:0.3" />
<line x1="595" y1="72" x2="686" y2="72" stroke="pink" stroke-width="1" />
<rect x="686" y="70" width="13" height="5" style="fill:#f5b024;stroke:black;stroke-width:1;fill-opacity:1;stroke-opacity:0.3" />
<rect x="717" y="70" width="54" height="5" style="fill:#f5b024;stroke:black;stroke-width:1;fill-opacity:1;stroke-opacity:0.3" />
<line x1="699" y1="142" x2="709" y2="144" stroke="black" stroke-width="1" />
<line x1="709" y1="144" x2="720" y2="142" stroke="black" stroke-width="1" />
<rect x="554" y="140" width="40" height="5" style="fill:#f5b024;stroke:black;stroke-width:1;fill-opacity:1;stroke-opacity:0.3" />
<line x1="595" y1="142" x2="686" y2="142" stroke="pink" stroke-width="1" />
<rect x="686" y="140" width="13" height="5" style="fill:#f5b024;stroke:black;stroke-width:1;fill-opacity:1;stroke-opacity:0.3" />
<rect x="720" y="140" width="54" height="5" style="fill:#f5b024;stroke:black;stroke-width:1;fill-opacity:1;stroke-opacity:0.3" />
<line x1="700" y1="156" x2="714" y2="158" stroke="black" stroke-width="1" />
<line x1="714" y1="158" x2="729" y2="156" stroke="black" stroke-width="1" />
<rect x="555" y="154" width="39" height="5" style="fill:#f5b024;stroke:black;stroke-width:1;fill-opacity:1;stroke-opacity:0.3" />
<line x1="595" y1="156" x2="686" y2="156" stroke="pink" stroke-width="1" />
<rect x="686" y="154" width="14" height="5" style="fill:#f5b024;stroke:black;stroke-width:1;fill-opacity:1;stroke-opacity:0.3" />
<rect x="729" y="154" width="54" height="5" style="fill:#f5b024;stroke:black;stroke-width:1;fill-opacity:1;stroke-opacity:0.3" />
<line x1="710" y1="86" x2="722" y2="88" stroke="black" stroke-width="1" />
<line x1="722" y1="88" x2="735" y2="86" stroke="black" stroke-width="1" />
<rect x="565" y="84" width="29" height="5" style="fill:#f5b024;stroke:black;stroke-width:1;fill-opacity:1;stroke-opacity:0.3" />
<line x1="595" y1="86" x2="686" y2="86" stroke="pink" stroke-width="1" />
<rect x="686" y="84" width="24" height="5" style="fill:#f5b024;stroke:black;stroke-width:1;fill-opacity:1;stroke-opacity:0.3" />
<rect x="735" y="84" width="53" height="5" style="fill:#f5b024;stroke:black;stroke-width:1;fill-opacity:1;stroke-opacity:0.3" />
<line x1="710" y1="114" x2="730" y2="116" stroke="black" stroke-width="1" />
<line x1="730" y1="116" x2="750" y2="114" stroke="black" stroke-width="1" />
<rect x="565" y="112" width="29" height="5" style="fill:#f5b024;stroke:black;stroke-width:1;fill-opacity:1;stroke-opacity:0.3" />
<line x1="595" y1="114" x2="686" y2="114" stroke="pink" stroke-width="1" />
<rect x="686" y="112" width="24" height="5" style="fill:#f5b024;stroke:black;stroke-width:1;fill-opacity:1;stroke-opacity:0.3" />
<rect x="750" y="112" width="54" height="5" style="fill:#f5b024;stroke:black;stroke-width:1;fill-opacity:1;stroke-opacity:0.3" />
<line x1="711" y1="135" x2="720" y2="137" stroke="black" stroke-width="1" />
<line x1="720" y1="137" x2="729" y2="135" stroke="black" stroke-width="1" />
<rect x="566" y="133" width="29" height="5" style="fill:#f5b024;stroke:black;stroke-width:1;fill-opacity:1;stroke-opacity:0.3" />
<line x1="595" y1="135" x2="686" y2="135" stroke="pink" stroke-width="1" />
<rect x="686" y="133" width="24" height="5" style="fill:#f5b024;stroke:black;stroke-width:1;fill-opacity:1;stroke-opacity:0.3" />
<rect x="729" y="133" width="54" height="5" style="fill:#f5b024;stroke:black;stroke-width:1;fill-opacity:1;stroke-opacity:0.3" />
<line x1="745" y1="44" x2="757" y2="46" stroke="black" stroke-width="1" />
<line x1="757" y1="46" x2="770" y2="44" stroke="black" stroke-width="1" />
<rect x="573" y="42" width="21" height="5" style="fill:#f5b024;stroke:black;stroke-width:1;fill-opacity:1;stroke-opacity:0.3" />
<line x1="595" y1="44" x2="686" y2="44" stroke="pink" stroke-width="1" />
<rect x="686" y="42" width="59" height="5" style="fill:#f5b024;stroke:black;stroke-width:1;fill-opacity:1;stroke-opacity:0.3" />
<rect x="770" y="42" width="81" height="5" style="fill:#f5b024;stroke:black;stroke-width:1;fill-opacity:1;stroke-opacity:0.3" />
<line x1="720" y1="107" x2="727" y2="109" stroke="black" stroke-width="1" />
<line x1="727" y1="109" x2="735" y2="107" stroke="black" stroke-width="1" />
<rect x="575" y="105" width="20" height="5" style="fill:#f5b024;stroke:black;stroke-width:1;fill-opacity:1;stroke-opacity:0.3" />
<line x1="595" y1="107" x2="686" y2="107" stroke="pink" stroke-width="1" />
<rect x="686" y="105" width="34" height="5" style="fill:#f5b024;stroke:black;stroke-width:1;fill-opacity:1;stroke-opacity:0.3" />
<rect x="735" y="105" width="54" height="5" style="fill:#f5b024;stroke:black;stroke-width:1;fill-opacity:1;stroke-opacity:0.3" />
<line x1="746" y1="93" x2="751" y2="95" stroke="black" stroke-width="1" />
<line x1="751" y1="95" x2="756" y2="93" stroke="black" stroke-width="1" />
<rect x="692" y="91" width="54" height="5" style="fill:#f5b024;stroke:black;stroke-width:1;fill-opacity:1;stroke-opacity:0.3" />
<rect x="756" y="91" width="54" height="5" style="fill:#f5b024;stroke:black;stroke-width:1;fill-opacity:1;stroke-opacity:0.3" />
<line x1="746" y1="121" x2="751" y2="123" stroke="black" stroke-width="1" />
<line x1="751" y1="123" x2="756" y2="121" stroke="black" stroke-width="1" />
<rect x="692" y="119" width="54" height="5" style="fill:#f5b024;stroke:black;stroke-width:1;fill-opacity:1;stroke-opacity:0.3" />
<rect x="756" y="119" width="54" height="5" style="fill:#f5b024;stroke:black;stroke-width:1;fill-opacity:1;stroke-opacity:0.3" />
<line x1="803" y1="79" x2="807" y2="81" stroke="black" stroke-width="1" />
<line x1="807" y1="81" x2="812" y2="79" stroke="black" stroke-width="1" />
<rect x="722" y="77" width="81" height="5" style="fill:#f5b024;stroke:black;stroke-width:1;fill-opacity:1;stroke-opacity:0.3" />
<rect x="812" y="77" width="81" height="5" style="fill:#f5b024;stroke:black;stroke-width:1;fill-opacity:1;stroke-opacity:0.3" />
<line x1="785" y1="30" x2="809" y2="32" stroke="black" stroke-width="1" />
<line x1="809" y1="32" x2="833" y2="30" stroke="black" stroke-width="1" />
<rect x="731" y="28" width="53" height="5" style="fill:#f5b024;stroke:black;stroke-width:1;fill-opacity:1;stroke-opacity:0.3" />
<rect x="833" y="28" width="54" height="5" style="fill:#f5b024;stroke:black;stroke-width:1;fill-opacity:1;stroke-opacity:0.3" />
<line x1="790" y1="37" x2="814" y2="39" stroke="black" stroke-width="1" />
<line x1="814" y1="39" x2="839" y2="37" stroke="black" stroke-width="1" />
<rect x="736" y="35" width="54" height="5" style="fill:#5d3c2d;stroke:black;stroke-width:1;fill-opacity:1;stroke-opacity:0.3" />
<rect x="839" y="35" width="54" height="5" style="fill:#5d3c2d;stroke:black;stroke-width:1;fill-opacity:1;stroke-opacity:0.3" />
<line x1="797" y1="100" x2="809" y2="102" stroke="black" stroke-width="1" />
<line x1="809" y1="102" x2="822" y2="100" stroke="black" stroke-width="1" />
<rect x="743" y="98" width="54" height="5" style="fill:#f5b024;stroke:black;stroke-width:1;fill-opacity:1;stroke-opacity:0.3" />
<rect x="822" y="98" width="54" height="5" style="fill:#f5b024;stroke:black;stroke-width:1;fill-opacity:1;stroke-opacity:0.3" />
<line x1="803" y1="149" x2="812" y2="151" stroke="black" stroke-width="1" />
<line x1="812" y1="151" x2="822" y2="149" stroke="black" stroke-width="1" />
<rect x="750" y="147" width="53" height="5" style="fill:#f5b024;stroke:black;stroke-width:1;fill-opacity:1;stroke-opacity:0.3" />
<rect x="822" y="147" width="54" height="5" style="fill:#f5b024;stroke:black;stroke-width:1;fill-opacity:1;stroke-opacity:0.3" />
<line x1="806" y1="163" x2="822" y2="165" stroke="black" stroke-width="1" />
<line x1="822" y1="165" x2="839" y2="163" stroke="black" stroke-width="1" />
<rect x="752" y="161" width="54" height="5" style="fill:#5d3c2d;stroke:black;stroke-width:1;fill-opacity:1;stroke-opacity:0.3" />
<rect x="839" y="161" width="54" height="5" style="fill:#5d3c2d;stroke:black;stroke-width:1;fill-opacity:1;stroke-opacity:0.3" />
<line x1="812" y1="51" x2="825" y2="53" stroke="black" stroke-width="1" />
<line x1="825" y1="53" x2="839" y2="51" stroke="black" stroke-width="1" />
<rect x="757" y="49" width="54" height="5" style="fill:#f5b024;stroke:black;stroke-width:1;fill-opacity:1;stroke-opacity:0.3" />
<rect x="839" y="49" width="54" height="5" style="fill:#f5b024;stroke:black;stroke-width:1;fill-opacity:1;stroke-opacity:0.3" />
<line x1="815" y1="128" x2="827" y2="130" stroke="black" stroke-width="1" />
<line x1="827" y1="130" x2="839" y2="128" stroke="black" stroke-width="1" />
<rect x="761" y="126" width="54" height="5" style="fill:#f5b024;stroke:black;stroke-width:1;fill-opacity:1;stroke-opacity:0.3" />
<rect x="839" y="126" width="54" height="5" style="fill:#f5b024;stroke:black;stroke-width:1;fill-opacity:1;stroke-opacity:0.3" />
<line x1="818" y1="65" x2="825" y2="67" stroke="black" stroke-width="1" />
<line x1="825" y1="67" x2="833" y2="65" stroke="black" stroke-width="1" />
<rect x="764" y="63" width="54" height="5" style="fill:#f5b024;stroke:black;stroke-width:1;fill-opacity:1;stroke-opacity:0.3" />
<rect x="833" y="63" width="54" height="5" style="fill:#f5b024;stroke:black;stroke-width:1;fill-opacity:1;stroke-opacity:0.3" />
<line x1="825" y1="72" x2="832" y2="74" stroke="black" stroke-width="1" />
<line x1="832" y1="74" x2="839" y2="72" stroke="black" stroke-width="1" />
<rect x="771" y="70" width="54" height="5" style="fill:#f5b024;stroke:black;stroke-width:1;fill-opacity:1;stroke-opacity:0.3" />
<rect x="839" y="70" width="54" height="5" style="fill:#f5b024;stroke:black;stroke-width:1;fill-opacity:1;stroke-opacity:0.3" />
<line x1="829" y1="142" x2="834" y2="144" stroke="black" stroke-width="1" />
<line x1="834" y1="144" x2="839" y2="142" stroke="black" stroke-width="1" />
<rect x="775" y="140" width="54" height="5" style="fill:#f5b024;stroke:black;stroke-width:1;fill-opacity:1;stroke-opacity:0.3" />
<rect x="839" y="140" width="54" height="5" style="fill:#f5b024;stroke:black;stroke-width:1;fill-opacity:1;stroke-opacity:0.3" />
<line x1="863" y1="58" x2="867" y2="60" stroke="black" stroke-width="1" />
<line x1="867" y1="60" x2="871" y2="58" stroke="black" stroke-width="1" />
<rect x="809" y="56" width="54" height="5" style="fill:#f5b024;stroke:black;stroke-width:1;fill-opacity:1;stroke-opacity:0.3" />
<rect x="871" y="56" width="54" height="5" style="fill:#f5b024;stroke:black;stroke-width:1;fill-opacity:1;stroke-opacity:0.3" />
<line x1="907" y1="44" x2="909" y2="46" stroke="black" stroke-width="1" />
<line x1="909" y1="46" x2="912" y2="44" stroke="black" stroke-width="1" />
<rect x="853" y="42" width="54" height="5" style="fill:#f5b024;stroke:black;stroke-width:1;fill-opacity:1;stroke-opacity:0.3" />
<rect x="912" y="42" width="54" height="5" style="fill:#f5b024;stroke:black;stroke-width:1;fill-opacity:1;stroke-opacity:0.3" />
<line x1="912" y1="86" x2="924" y2="88" stroke="black" stroke-width="1" />
<line x1="924" y1="88" x2="936" y2="86" stroke="black" stroke-width="1" />
<rect x="858" y="84" width="54" height="5" style="fill:#f5b024;stroke:black;stroke-width:1;fill-opacity:1;stroke-opacity:0.3" />
<rect x="936" y="84" width="54" height="5" style="fill:#f5b024;stroke:black;stroke-width:1;fill-opacity:1;stroke-opacity:0.3" />
<text x="15"  y="176" style="font-family:Arial;font-size:10;stroke:black;fill:black;">all.merged.bam</text>
</svg>
    
