<?xml version="1.0" encoding="utf-8" standalone="no"?>
<!DOCTYPE svg PUBLIC "-//W3C//DTD SVG 1.1//EN"
  "http://www.w3.org/Graphics/SVG/1.1/DTD/svg11.dtd">
<svg height="1140" width="1000" version="1.1" viewBox="0 0 1000 1140" xmlns="http://www.w3.org/2000/svg" xmlns:xlink="http://www.w3.org/1999/xlink">
<line x1="18" y1="11" x2="981" y2="11" stroke="black" stroke-width="1" />
<rect x="18" y="9" width="39" height="5" style="fill:#f50002;stroke:black;stroke-width:1;fill-opacity:1;stroke-opacity:0.3" />
<rect x="57" y="9" width="10" height="5" style="fill:#53a1b5;stroke:black;stroke-width:1;fill-opacity:1;stroke-opacity:0.3" />
<rect x="100" y="9" width="56" height="5" style="fill:#53a1b5;stroke:black;stroke-width:1;fill-opacity:1;stroke-opacity:0.3" />
<rect x="184" y="9" width="69" height="5" style="fill:#53a1b5;stroke:black;stroke-width:1;fill-opacity:1;stroke-opacity:0.3" />
<rect x="282" y="9" width="28" height="5" style="fill:#53a1b5;stroke:black;stroke-width:1;fill-opacity:1;stroke-opacity:0.3" />
<rect x="363" y="9" width="17" height="5" style="fill:#53a1b5;stroke:black;stroke-width:1;fill-opacity:1;stroke-opacity:0.3" />
<rect x="412" y="9" width="28" height="5" style="fill:#53a1b5;stroke:black;stroke-width:1;fill-opacity:1;stroke-opacity:0.3" />
<rect x="470" y="9" width="29" height="5" style="fill:#53a1b5;stroke:black;stroke-width:1;fill-opacity:1;stroke-opacity:0.3" />
<rect x="528" y="9" width="21" height="5" style="fill:#53a1b5;stroke:black;stroke-width:1;fill-opacity:1;stroke-opacity:0.3" />
<rect x="584" y="9" width="16" height="5" style="fill:#53a1b5;stroke:black;stroke-width:1;fill-opacity:1;stroke-opacity:0.3" />
<rect x="629" y="9" width="28" height="5" style="fill:#53a1b5;stroke:black;stroke-width:1;fill-opacity:1;stroke-opacity:0.3" />
<rect x="687" y="9" width="39" height="5" style="fill:#53a1b5;stroke:black;stroke-width:1;fill-opacity:1;stroke-opacity:0.3" />
<rect x="749" y="9" width="16" height="5" style="fill:#53a1b5;stroke:black;stroke-width:1;fill-opacity:1;stroke-opacity:0.3" />
<rect x="797" y="9" width="39" height="5" style="fill:#53a1b5;stroke:black;stroke-width:1;fill-opacity:1;stroke-opacity:0.3" />
<rect x="836" y="9" width="144" height="5" style="fill:#f50002;stroke:black;stroke-width:1;fill-opacity:1;stroke-opacity:0.3" />
<text x="18"  y="23" style="font-family:Arial;font-size:10;stroke:black;fill:black;">Cre10.g419150.t1.1.v5.5 (+) chromosome_10:203944-209246</text>
<line x1="803" y1="30" x2="804" y2="32" stroke="black" stroke-width="1" />
<line x1="804" y1="32" x2="805" y2="30" stroke="black" stroke-width="1" />
<rect x="753" y="28" width="12" height="5" style="fill:#5d3c2d;stroke:black;stroke-width:1;fill-opacity:1;stroke-opacity:0.3" />
<line x1="765" y1="30" x2="797" y2="30" stroke="pink" stroke-width="1" />
<rect x="797" y="28" width="5" height="5" style="fill:#5d3c2d;stroke:black;stroke-width:1;fill-opacity:1;stroke-opacity:0.3" />
<rect x="805" y="28" width="18" height="5" style="fill:#5d3c2d;stroke:black;stroke-width:1;fill-opacity:1;stroke-opacity:0.3" />
<line x1="817" y1="37" x2="820" y2="39" stroke="black" stroke-width="1" />
<line x1="820" y1="39" x2="823" y2="37" stroke="black" stroke-width="1" />
<rect x="799" y="35" width="18" height="5" style="fill:#5d3c2d;stroke:black;stroke-width:1;fill-opacity:1;stroke-opacity:0.3" />
<rect x="823" y="35" width="18" height="5" style="fill:#5d3c2d;stroke:black;stroke-width:1;fill-opacity:1;stroke-opacity:0.3" />
<line x1="894" y1="30" x2="895" y2="32" stroke="black" stroke-width="1" />
<line x1="895" y1="32" x2="896" y2="30" stroke="black" stroke-width="1" />
<rect x="876" y="28" width="18" height="5" style="fill:#5d3c2d;stroke:black;stroke-width:1;fill-opacity:1;stroke-opacity:0.3" />
<rect x="896" y="28" width="18" height="5" style="fill:#5d3c2d;stroke:black;stroke-width:1;fill-opacity:1;stroke-opacity:0.3" />
<line x1="903" y1="37" x2="904" y2="39" stroke="black" stroke-width="1" />
<line x1="904" y1="39" x2="905" y2="37" stroke="black" stroke-width="1" />
<rect x="885" y="35" width="18" height="5" style="fill:#5d3c2d;stroke:black;stroke-width:1;fill-opacity:1;stroke-opacity:0.3" />
<rect x="905" y="35" width="18" height="5" style="fill:#5d3c2d;stroke:black;stroke-width:1;fill-opacity:1;stroke-opacity:0.3" />
<text x="15"  y="176" style="font-family:Arial;font-size:10;stroke:black;fill:black;">all.merged.bam</text>
</svg>
    
