<?xml version="1.0" encoding="utf-8" standalone="no"?>
<!DOCTYPE svg PUBLIC "-//W3C//DTD SVG 1.1//EN"
  "http://www.w3.org/Graphics/SVG/1.1/DTD/svg11.dtd">
<svg height="1140" width="1000" version="1.1" viewBox="0 0 1000 1140" xmlns="http://www.w3.org/2000/svg" xmlns:xlink="http://www.w3.org/1999/xlink">
<line x1="37" y1="11" x2="961" y2="11" stroke="black" stroke-width="1" />
<rect x="37" y="9" width="230" height="5" style="fill:#f50002;stroke:black;stroke-width:1;fill-opacity:1;stroke-opacity:0.3" />
<rect x="394" y="9" width="159" height="5" style="fill:#f50002;stroke:black;stroke-width:1;fill-opacity:1;stroke-opacity:0.3" />
<rect x="554" y="9" width="28" height="5" style="fill:#53a1b5;stroke:black;stroke-width:1;fill-opacity:1;stroke-opacity:0.3" />
<rect x="612" y="9" width="91" height="5" style="fill:#53a1b5;stroke:black;stroke-width:1;fill-opacity:1;stroke-opacity:0.3" />
<rect x="704" y="9" width="257" height="5" style="fill:#f50002;stroke:black;stroke-width:1;fill-opacity:1;stroke-opacity:0.3" />
<text x="37"  y="23" style="font-family:Arial;font-size:10;stroke:black;fill:black;">Cre17.g724873.t1.2.v5.5 (-) chromosome_17:3464096-3466531</text>
<line x1="47" y1="30" x2="50" y2="32" stroke="black" stroke-width="1" />
<line x1="50" y1="32" x2="53" y2="30" stroke="black" stroke-width="1" />
<rect x="9" y="28" width="37" height="5" style="fill:#5d3c2d;stroke:black;stroke-width:1;fill-opacity:1;stroke-opacity:0.3" />
<rect x="53" y="28" width="37" height="5" style="fill:#5d3c2d;stroke:black;stroke-width:1;fill-opacity:1;stroke-opacity:0.3" />
<line x1="49" y1="37" x2="59" y2="39" stroke="black" stroke-width="1" />
<line x1="59" y1="39" x2="70" y2="37" stroke="black" stroke-width="1" />
<rect x="11" y="35" width="37" height="5" style="fill:#5d3c2d;stroke:black;stroke-width:1;fill-opacity:1;stroke-opacity:0.3" />
<rect x="70" y="35" width="37" height="5" style="fill:#5d3c2d;stroke:black;stroke-width:1;fill-opacity:1;stroke-opacity:0.3" />
<line x1="49" y1="44" x2="51" y2="46" stroke="black" stroke-width="1" />
<line x1="51" y1="46" x2="53" y2="44" stroke="black" stroke-width="1" />
<rect x="11" y="42" width="37" height="5" style="fill:#5d3c2d;stroke:black;stroke-width:1;fill-opacity:1;stroke-opacity:0.3" />
<rect x="53" y="42" width="37" height="5" style="fill:#5d3c2d;stroke:black;stroke-width:1;fill-opacity:1;stroke-opacity:0.3" />
<line x1="49" y1="51" x2="59" y2="53" stroke="black" stroke-width="1" />
<line x1="59" y1="53" x2="70" y2="51" stroke="black" stroke-width="1" />
<rect x="11" y="49" width="37" height="5" style="fill:#5d3c2d;stroke:black;stroke-width:1;fill-opacity:1;stroke-opacity:0.3" />
<rect x="70" y="49" width="37" height="5" style="fill:#5d3c2d;stroke:black;stroke-width:1;fill-opacity:1;stroke-opacity:0.3" />
<line x1="53" y1="58" x2="61" y2="60" stroke="black" stroke-width="1" />
<line x1="61" y1="60" x2="70" y2="58" stroke="black" stroke-width="1" />
<rect x="16" y="56" width="37" height="5" style="fill:#5d3c2d;stroke:black;stroke-width:1;fill-opacity:1;stroke-opacity:0.3" />
<rect x="70" y="56" width="37" height="5" style="fill:#5d3c2d;stroke:black;stroke-width:1;fill-opacity:1;stroke-opacity:0.3" />
<line x1="57" y1="65" x2="60" y2="67" stroke="black" stroke-width="1" />
<line x1="60" y1="67" x2="63" y2="65" stroke="black" stroke-width="1" />
<rect x="19" y="63" width="37" height="5" style="fill:#5d3c2d;stroke:black;stroke-width:1;fill-opacity:1;stroke-opacity:0.3" />
<rect x="63" y="63" width="37" height="5" style="fill:#5d3c2d;stroke:black;stroke-width:1;fill-opacity:1;stroke-opacity:0.3" />
<line x1="64" y1="72" x2="71" y2="74" stroke="black" stroke-width="1" />
<line x1="71" y1="74" x2="78" y2="72" stroke="black" stroke-width="1" />
<rect x="26" y="70" width="37" height="5" style="fill:#5d3c2d;stroke:black;stroke-width:1;fill-opacity:1;stroke-opacity:0.3" />
<rect x="78" y="70" width="37" height="5" style="fill:#5d3c2d;stroke:black;stroke-width:1;fill-opacity:1;stroke-opacity:0.3" />
<line x1="64" y1="79" x2="75" y2="81" stroke="black" stroke-width="1" />
<line x1="75" y1="81" x2="86" y2="79" stroke="black" stroke-width="1" />
<rect x="26" y="77" width="37" height="5" style="fill:#5d3c2d;stroke:black;stroke-width:1;fill-opacity:1;stroke-opacity:0.3" />
<rect x="86" y="77" width="37" height="5" style="fill:#5d3c2d;stroke:black;stroke-width:1;fill-opacity:1;stroke-opacity:0.3" />
<line x1="64" y1="86" x2="67" y2="88" stroke="black" stroke-width="1" />
<line x1="67" y1="88" x2="70" y2="86" stroke="black" stroke-width="1" />
<rect x="26" y="84" width="37" height="5" style="fill:#f5b024;stroke:black;stroke-width:1;fill-opacity:1;stroke-opacity:0.3" />
<rect x="70" y="84" width="37" height="5" style="fill:#f5b024;stroke:black;stroke-width:1;fill-opacity:1;stroke-opacity:0.3" />
<line x1="64" y1="93" x2="66" y2="95" stroke="black" stroke-width="1" />
<line x1="66" y1="95" x2="69" y2="93" stroke="black" stroke-width="1" />
<rect x="26" y="91" width="37" height="5" style="fill:#5d3c2d;stroke:black;stroke-width:1;fill-opacity:1;stroke-opacity:0.3" />
<rect x="69" y="91" width="37" height="5" style="fill:#5d3c2d;stroke:black;stroke-width:1;fill-opacity:1;stroke-opacity:0.3" />
<line x1="66" y1="100" x2="68" y2="102" stroke="black" stroke-width="1" />
<line x1="68" y1="102" x2="70" y2="100" stroke="black" stroke-width="1" />
<rect x="28" y="98" width="37" height="5" style="fill:#5d3c2d;stroke:black;stroke-width:1;fill-opacity:1;stroke-opacity:0.3" />
<rect x="70" y="98" width="37" height="5" style="fill:#5d3c2d;stroke:black;stroke-width:1;fill-opacity:1;stroke-opacity:0.3" />
<line x1="68" y1="107" x2="70" y2="109" stroke="black" stroke-width="1" />
<line x1="70" y1="109" x2="72" y2="107" stroke="black" stroke-width="1" />
<rect x="30" y="105" width="37" height="5" style="fill:#5d3c2d;stroke:black;stroke-width:1;fill-opacity:1;stroke-opacity:0.3" />
<rect x="72" y="105" width="37" height="5" style="fill:#5d3c2d;stroke:black;stroke-width:1;fill-opacity:1;stroke-opacity:0.3" />
<line x1="61" y1="114" x2="68" y2="116" stroke="black" stroke-width="1" />
<line x1="68" y1="116" x2="75" y2="114" stroke="black" stroke-width="1" />
<rect x="30" y="112" width="31" height="5" style="fill:#5d3c2d;stroke:black;stroke-width:1;fill-opacity:1;stroke-opacity:0.3" />
<rect x="75" y="112" width="37" height="5" style="fill:#5d3c2d;stroke:black;stroke-width:1;fill-opacity:1;stroke-opacity:0.3" />
<line x1="70" y1="121" x2="80" y2="123" stroke="black" stroke-width="1" />
<line x1="80" y1="123" x2="91" y2="121" stroke="black" stroke-width="1" />
<rect x="32" y="119" width="37" height="5" style="fill:#5d3c2d;stroke:black;stroke-width:1;fill-opacity:1;stroke-opacity:0.3" />
<rect x="91" y="119" width="37" height="5" style="fill:#5d3c2d;stroke:black;stroke-width:1;fill-opacity:1;stroke-opacity:0.3" />
<line x1="73" y1="128" x2="83" y2="130" stroke="black" stroke-width="1" />
<line x1="83" y1="130" x2="93" y2="128" stroke="black" stroke-width="1" />
<rect x="36" y="126" width="37" height="5" style="fill:#5d3c2d;stroke:black;stroke-width:1;fill-opacity:1;stroke-opacity:0.3" />
<rect x="93" y="126" width="37" height="5" style="fill:#5d3c2d;stroke:black;stroke-width:1;fill-opacity:1;stroke-opacity:0.3" />
<line x1="74" y1="135" x2="94" y2="137" stroke="black" stroke-width="1" />
<line x1="94" y1="137" x2="115" y2="135" stroke="black" stroke-width="1" />
<rect x="36" y="133" width="37" height="5" style="fill:#5d3c2d;stroke:black;stroke-width:1;fill-opacity:1;stroke-opacity:0.3" />
<rect x="115" y="133" width="37" height="5" style="fill:#5d3c2d;stroke:black;stroke-width:1;fill-opacity:1;stroke-opacity:0.3" />
<line x1="76" y1="142" x2="81" y2="144" stroke="black" stroke-width="1" />
<line x1="81" y1="144" x2="87" y2="142" stroke="black" stroke-width="1" />
<rect x="38" y="140" width="37" height="5" style="fill:#f5b024;stroke:black;stroke-width:1;fill-opacity:1;stroke-opacity:0.3" />
<rect x="87" y="140" width="37" height="5" style="fill:#f5b024;stroke:black;stroke-width:1;fill-opacity:1;stroke-opacity:0.3" />
<line x1="77" y1="149" x2="81" y2="151" stroke="black" stroke-width="1" />
<line x1="81" y1="151" x2="86" y2="149" stroke="black" stroke-width="1" />
<rect x="39" y="147" width="37" height="5" style="fill:#5d3c2d;stroke:black;stroke-width:1;fill-opacity:1;stroke-opacity:0.3" />
<rect x="86" y="147" width="37" height="5" style="fill:#5d3c2d;stroke:black;stroke-width:1;fill-opacity:1;stroke-opacity:0.3" />
<line x1="77" y1="156" x2="81" y2="158" stroke="black" stroke-width="1" />
<line x1="81" y1="158" x2="85" y2="156" stroke="black" stroke-width="1" />
<rect x="39" y="154" width="37" height="5" style="fill:#5d3c2d;stroke:black;stroke-width:1;fill-opacity:1;stroke-opacity:0.3" />
<rect x="85" y="154" width="37" height="5" style="fill:#5d3c2d;stroke:black;stroke-width:1;fill-opacity:1;stroke-opacity:0.3" />
<line x1="80" y1="163" x2="83" y2="165" stroke="black" stroke-width="1" />
<line x1="83" y1="165" x2="86" y2="163" stroke="black" stroke-width="1" />
<rect x="42" y="161" width="37" height="5" style="fill:#5d3c2d;stroke:black;stroke-width:1;fill-opacity:1;stroke-opacity:0.3" />
<rect x="86" y="161" width="37" height="5" style="fill:#5d3c2d;stroke:black;stroke-width:1;fill-opacity:1;stroke-opacity:0.3" />
<line x1="131" y1="30" x2="142" y2="32" stroke="black" stroke-width="1" />
<line x1="142" y1="32" x2="153" y2="30" stroke="black" stroke-width="1" />
<rect x="93" y="28" width="37" height="5" style="fill:#5d3c2d;stroke:black;stroke-width:1;fill-opacity:1;stroke-opacity:0.3" />
<rect x="153" y="28" width="36" height="5" style="fill:#5d3c2d;stroke:black;stroke-width:1;fill-opacity:1;stroke-opacity:0.3" />
<line x1="132" y1="44" x2="136" y2="46" stroke="black" stroke-width="1" />
<line x1="136" y1="46" x2="141" y2="44" stroke="black" stroke-width="1" />
<rect x="94" y="42" width="37" height="5" style="fill:#5d3c2d;stroke:black;stroke-width:1;fill-opacity:1;stroke-opacity:0.3" />
<rect x="141" y="42" width="37" height="5" style="fill:#5d3c2d;stroke:black;stroke-width:1;fill-opacity:1;stroke-opacity:0.3" />
<line x1="141" y1="65" x2="151" y2="67" stroke="black" stroke-width="1" />
<line x1="151" y1="67" x2="161" y2="65" stroke="black" stroke-width="1" />
<rect x="103" y="63" width="37" height="5" style="fill:#5d3c2d;stroke:black;stroke-width:1;fill-opacity:1;stroke-opacity:0.3" />
<rect x="161" y="63" width="37" height="5" style="fill:#5d3c2d;stroke:black;stroke-width:1;fill-opacity:1;stroke-opacity:0.3" />
<line x1="146" y1="37" x2="155" y2="39" stroke="black" stroke-width="1" />
<line x1="155" y1="39" x2="165" y2="37" stroke="black" stroke-width="1" />
<rect x="108" y="35" width="37" height="5" style="fill:#5d3c2d;stroke:black;stroke-width:1;fill-opacity:1;stroke-opacity:0.3" />
<rect x="165" y="35" width="37" height="5" style="fill:#5d3c2d;stroke:black;stroke-width:1;fill-opacity:1;stroke-opacity:0.3" />
<line x1="147" y1="51" x2="154" y2="53" stroke="black" stroke-width="1" />
<line x1="154" y1="53" x2="161" y2="51" stroke="black" stroke-width="1" />
<rect x="110" y="49" width="37" height="5" style="fill:#5d3c2d;stroke:black;stroke-width:1;fill-opacity:1;stroke-opacity:0.3" />
<rect x="161" y="49" width="37" height="5" style="fill:#5d3c2d;stroke:black;stroke-width:1;fill-opacity:1;stroke-opacity:0.3" />
<line x1="148" y1="58" x2="156" y2="60" stroke="black" stroke-width="1" />
<line x1="156" y1="60" x2="165" y2="58" stroke="black" stroke-width="1" />
<rect x="110" y="56" width="37" height="5" style="fill:#5d3c2d;stroke:black;stroke-width:1;fill-opacity:1;stroke-opacity:0.3" />
<rect x="165" y="56" width="37" height="5" style="fill:#5d3c2d;stroke:black;stroke-width:1;fill-opacity:1;stroke-opacity:0.3" />
<line x1="151" y1="86" x2="155" y2="88" stroke="black" stroke-width="1" />
<line x1="155" y1="88" x2="159" y2="86" stroke="black" stroke-width="1" />
<rect x="113" y="84" width="37" height="5" style="fill:#5d3c2d;stroke:black;stroke-width:1;fill-opacity:1;stroke-opacity:0.3" />
<rect x="159" y="84" width="37" height="5" style="fill:#5d3c2d;stroke:black;stroke-width:1;fill-opacity:1;stroke-opacity:0.3" />
<line x1="152" y1="72" x2="158" y2="74" stroke="black" stroke-width="1" />
<line x1="158" y1="74" x2="165" y2="72" stroke="black" stroke-width="1" />
<rect x="117" y="70" width="35" height="5" style="fill:#5d3c2d;stroke:black;stroke-width:1;fill-opacity:1;stroke-opacity:0.3" />
<rect x="165" y="70" width="37" height="5" style="fill:#5d3c2d;stroke:black;stroke-width:1;fill-opacity:1;stroke-opacity:0.3" />
<line x1="156" y1="93" x2="159" y2="95" stroke="black" stroke-width="1" />
<line x1="159" y1="95" x2="162" y2="93" stroke="black" stroke-width="1" />
<rect x="118" y="91" width="37" height="5" style="fill:#5d3c2d;stroke:black;stroke-width:1;fill-opacity:1;stroke-opacity:0.3" />
<rect x="162" y="91" width="37" height="5" style="fill:#5d3c2d;stroke:black;stroke-width:1;fill-opacity:1;stroke-opacity:0.3" />
<line x1="158" y1="100" x2="161" y2="102" stroke="black" stroke-width="1" />
<line x1="161" y1="102" x2="165" y2="100" stroke="black" stroke-width="1" />
<rect x="121" y="98" width="37" height="5" style="fill:#f5b024;stroke:black;stroke-width:1;fill-opacity:1;stroke-opacity:0.3" />
<rect x="165" y="98" width="37" height="5" style="fill:#f5b024;stroke:black;stroke-width:1;fill-opacity:1;stroke-opacity:0.3" />
<line x1="159" y1="107" x2="161" y2="109" stroke="black" stroke-width="1" />
<line x1="161" y1="109" x2="163" y2="107" stroke="black" stroke-width="1" />
<rect x="121" y="105" width="37" height="5" style="fill:#5d3c2d;stroke:black;stroke-width:1;fill-opacity:1;stroke-opacity:0.3" />
<rect x="163" y="105" width="37" height="5" style="fill:#5d3c2d;stroke:black;stroke-width:1;fill-opacity:1;stroke-opacity:0.3" />
<line x1="162" y1="79" x2="164" y2="81" stroke="black" stroke-width="1" />
<line x1="164" y1="81" x2="167" y2="79" stroke="black" stroke-width="1" />
<rect x="124" y="77" width="37" height="5" style="fill:#5d3c2d;stroke:black;stroke-width:1;fill-opacity:1;stroke-opacity:0.3" />
<rect x="167" y="77" width="37" height="5" style="fill:#5d3c2d;stroke:black;stroke-width:1;fill-opacity:1;stroke-opacity:0.3" />
<line x1="163" y1="114" x2="166" y2="116" stroke="black" stroke-width="1" />
<line x1="166" y1="116" x2="170" y2="114" stroke="black" stroke-width="1" />
<rect x="125" y="112" width="37" height="5" style="fill:#5d3c2d;stroke:black;stroke-width:1;fill-opacity:1;stroke-opacity:0.3" />
<rect x="170" y="112" width="37" height="5" style="fill:#5d3c2d;stroke:black;stroke-width:1;fill-opacity:1;stroke-opacity:0.3" />
<line x1="165" y1="142" x2="175" y2="144" stroke="black" stroke-width="1" />
<line x1="175" y1="144" x2="185" y2="142" stroke="black" stroke-width="1" />
<rect x="127" y="140" width="37" height="5" style="fill:#5d3c2d;stroke:black;stroke-width:1;fill-opacity:1;stroke-opacity:0.3" />
<rect x="185" y="140" width="37" height="5" style="fill:#5d3c2d;stroke:black;stroke-width:1;fill-opacity:1;stroke-opacity:0.3" />
<line x1="176" y1="121" x2="177" y2="123" stroke="black" stroke-width="1" />
<line x1="177" y1="123" x2="179" y2="121" stroke="black" stroke-width="1" />
<rect x="138" y="119" width="37" height="5" style="fill:#5d3c2d;stroke:black;stroke-width:1;fill-opacity:1;stroke-opacity:0.3" />
<rect x="179" y="119" width="37" height="5" style="fill:#5d3c2d;stroke:black;stroke-width:1;fill-opacity:1;stroke-opacity:0.3" />
<line x1="180" y1="128" x2="184" y2="130" stroke="black" stroke-width="1" />
<line x1="184" y1="130" x2="188" y2="128" stroke="black" stroke-width="1" />
<rect x="143" y="126" width="37" height="5" style="fill:#5d3c2d;stroke:black;stroke-width:1;fill-opacity:1;stroke-opacity:0.3" />
<rect x="188" y="126" width="37" height="5" style="fill:#5d3c2d;stroke:black;stroke-width:1;fill-opacity:1;stroke-opacity:0.3" />
<line x1="181" y1="149" x2="190" y2="151" stroke="black" stroke-width="1" />
<line x1="190" y1="151" x2="200" y2="149" stroke="black" stroke-width="1" />
<rect x="143" y="147" width="37" height="5" style="fill:#5d3c2d;stroke:black;stroke-width:1;fill-opacity:1;stroke-opacity:0.3" />
<rect x="200" y="147" width="37" height="5" style="fill:#5d3c2d;stroke:black;stroke-width:1;fill-opacity:1;stroke-opacity:0.3" />
<line x1="183" y1="156" x2="194" y2="158" stroke="black" stroke-width="1" />
<line x1="194" y1="158" x2="205" y2="156" stroke="black" stroke-width="1" />
<rect x="151" y="154" width="32" height="5" style="fill:#5d3c2d;stroke:black;stroke-width:1;fill-opacity:1;stroke-opacity:0.3" />
<rect x="205" y="154" width="37" height="5" style="fill:#5d3c2d;stroke:black;stroke-width:1;fill-opacity:1;stroke-opacity:0.3" />
<line x1="191" y1="135" x2="195" y2="137" stroke="black" stroke-width="1" />
<line x1="195" y1="137" x2="199" y2="135" stroke="black" stroke-width="1" />
<rect x="154" y="133" width="37" height="5" style="fill:#5d3c2d;stroke:black;stroke-width:1;fill-opacity:1;stroke-opacity:0.3" />
<rect x="199" y="133" width="37" height="5" style="fill:#5d3c2d;stroke:black;stroke-width:1;fill-opacity:1;stroke-opacity:0.3" />
<line x1="198" y1="163" x2="208" y2="165" stroke="black" stroke-width="1" />
<line x1="208" y1="165" x2="219" y2="163" stroke="black" stroke-width="1" />
<rect x="160" y="161" width="37" height="5" style="fill:#5d3c2d;stroke:black;stroke-width:1;fill-opacity:1;stroke-opacity:0.3" />
<rect x="219" y="161" width="37" height="5" style="fill:#5d3c2d;stroke:black;stroke-width:1;fill-opacity:1;stroke-opacity:0.3" />
<line x1="234" y1="30" x2="239" y2="32" stroke="black" stroke-width="1" />
<line x1="239" y1="32" x2="245" y2="30" stroke="black" stroke-width="1" />
<rect x="196" y="28" width="37" height="5" style="fill:#5d3c2d;stroke:black;stroke-width:1;fill-opacity:1;stroke-opacity:0.3" />
<rect x="245" y="28" width="37" height="5" style="fill:#5d3c2d;stroke:black;stroke-width:1;fill-opacity:1;stroke-opacity:0.3" />
<line x1="234" y1="44" x2="243" y2="46" stroke="black" stroke-width="1" />
<line x1="243" y1="46" x2="252" y2="44" stroke="black" stroke-width="1" />
<rect x="196" y="42" width="37" height="5" style="fill:#5d3c2d;stroke:black;stroke-width:1;fill-opacity:1;stroke-opacity:0.3" />
<rect x="252" y="42" width="37" height="5" style="fill:#5d3c2d;stroke:black;stroke-width:1;fill-opacity:1;stroke-opacity:0.3" />
<line x1="256" y1="37" x2="271" y2="39" stroke="black" stroke-width="1" />
<line x1="271" y1="39" x2="286" y2="37" stroke="black" stroke-width="1" />
<rect x="218" y="35" width="37" height="5" style="fill:#5d3c2d;stroke:black;stroke-width:1;fill-opacity:1;stroke-opacity:0.3" />
<rect x="286" y="35" width="37" height="5" style="fill:#5d3c2d;stroke:black;stroke-width:1;fill-opacity:1;stroke-opacity:0.3" />
<line x1="267" y1="51" x2="289" y2="53" stroke="black" stroke-width="1" />
<line x1="289" y1="53" x2="311" y2="51" stroke="black" stroke-width="1" />
<rect x="229" y="49" width="29" height="5" style="fill:#5d3c2d;stroke:black;stroke-width:1;fill-opacity:1;stroke-opacity:0.3" />
<line x1="258" y1="51" x2="258" y2="51" stroke="pink" stroke-width="1" />
<rect x="258" y="49" width="8" height="5" style="fill:#5d3c2d;stroke:black;stroke-width:1;fill-opacity:1;stroke-opacity:0.3" />
<rect x="311" y="49" width="37" height="5" style="fill:#5d3c2d;stroke:black;stroke-width:1;fill-opacity:1;stroke-opacity:0.3" />
<line x1="276" y1="58" x2="280" y2="60" stroke="black" stroke-width="1" />
<line x1="280" y1="60" x2="284" y2="58" stroke="black" stroke-width="1" />
<rect x="241" y="56" width="35" height="5" style="fill:#5d3c2d;stroke:black;stroke-width:1;fill-opacity:1;stroke-opacity:0.3" />
<rect x="284" y="56" width="37" height="5" style="fill:#5d3c2d;stroke:black;stroke-width:1;fill-opacity:1;stroke-opacity:0.3" />
<line x1="324" y1="30" x2="328" y2="32" stroke="black" stroke-width="1" />
<line x1="328" y1="32" x2="333" y2="30" stroke="black" stroke-width="1" />
<rect x="286" y="28" width="37" height="5" style="fill:#5d3c2d;stroke:black;stroke-width:1;fill-opacity:1;stroke-opacity:0.3" />
<rect x="333" y="28" width="37" height="5" style="fill:#5d3c2d;stroke:black;stroke-width:1;fill-opacity:1;stroke-opacity:0.3" />
<line x1="325" y1="65" x2="331" y2="67" stroke="black" stroke-width="1" />
<line x1="331" y1="67" x2="338" y2="65" stroke="black" stroke-width="1" />
<rect x="287" y="63" width="37" height="5" style="fill:#f5b024;stroke:black;stroke-width:1;fill-opacity:1;stroke-opacity:0.3" />
<rect x="338" y="63" width="37" height="5" style="fill:#f5b024;stroke:black;stroke-width:1;fill-opacity:1;stroke-opacity:0.3" />
<line x1="428" y1="30" x2="437" y2="32" stroke="black" stroke-width="1" />
<line x1="437" y1="32" x2="447" y2="30" stroke="black" stroke-width="1" />
<rect x="390" y="28" width="37" height="5" style="fill:#f5b024;stroke:black;stroke-width:1;fill-opacity:1;stroke-opacity:0.3" />
<rect x="447" y="28" width="37" height="5" style="fill:#f5b024;stroke:black;stroke-width:1;fill-opacity:1;stroke-opacity:0.3" />
<line x1="428" y1="37" x2="433" y2="39" stroke="black" stroke-width="1" />
<line x1="433" y1="39" x2="438" y2="37" stroke="black" stroke-width="1" />
<rect x="390" y="35" width="37" height="5" style="fill:#f5b024;stroke:black;stroke-width:1;fill-opacity:1;stroke-opacity:0.3" />
<rect x="438" y="35" width="37" height="5" style="fill:#f5b024;stroke:black;stroke-width:1;fill-opacity:1;stroke-opacity:0.3" />
<line x1="431" y1="44" x2="443" y2="46" stroke="black" stroke-width="1" />
<line x1="443" y1="46" x2="456" y2="44" stroke="black" stroke-width="1" />
<rect x="393" y="42" width="37" height="5" style="fill:#f5b024;stroke:black;stroke-width:1;fill-opacity:1;stroke-opacity:0.3" />
<rect x="456" y="42" width="37" height="5" style="fill:#f5b024;stroke:black;stroke-width:1;fill-opacity:1;stroke-opacity:0.3" />
<line x1="431" y1="51" x2="443" y2="53" stroke="black" stroke-width="1" />
<line x1="443" y1="53" x2="456" y2="51" stroke="black" stroke-width="1" />
<rect x="393" y="49" width="37" height="5" style="fill:#f5b024;stroke:black;stroke-width:1;fill-opacity:1;stroke-opacity:0.3" />
<rect x="456" y="49" width="37" height="5" style="fill:#f5b024;stroke:black;stroke-width:1;fill-opacity:1;stroke-opacity:0.3" />
<line x1="450" y1="58" x2="458" y2="60" stroke="black" stroke-width="1" />
<line x1="458" y1="60" x2="466" y2="58" stroke="black" stroke-width="1" />
<rect x="394" y="56" width="56" height="5" style="fill:#f5b024;stroke:black;stroke-width:1;fill-opacity:1;stroke-opacity:0.3" />
<rect x="466" y="56" width="56" height="5" style="fill:#f5b024;stroke:black;stroke-width:1;fill-opacity:1;stroke-opacity:0.3" />
<line x1="451" y1="65" x2="453" y2="67" stroke="black" stroke-width="1" />
<line x1="453" y1="67" x2="455" y2="65" stroke="black" stroke-width="1" />
<rect x="394" y="63" width="56" height="5" style="fill:#f5b024;stroke:black;stroke-width:1;fill-opacity:1;stroke-opacity:0.3" />
<rect x="455" y="63" width="56" height="5" style="fill:#f5b024;stroke:black;stroke-width:1;fill-opacity:1;stroke-opacity:0.3" />
<line x1="439" y1="72" x2="442" y2="74" stroke="black" stroke-width="1" />
<line x1="442" y1="74" x2="446" y2="72" stroke="black" stroke-width="1" />
<rect x="401" y="70" width="37" height="5" style="fill:#f5b024;stroke:black;stroke-width:1;fill-opacity:1;stroke-opacity:0.3" />
<rect x="446" y="70" width="37" height="5" style="fill:#f5b024;stroke:black;stroke-width:1;fill-opacity:1;stroke-opacity:0.3" />
<line x1="439" y1="79" x2="442" y2="81" stroke="black" stroke-width="1" />
<line x1="442" y1="81" x2="446" y2="79" stroke="black" stroke-width="1" />
<rect x="401" y="77" width="37" height="5" style="fill:#f5b024;stroke:black;stroke-width:1;fill-opacity:1;stroke-opacity:0.3" />
<rect x="446" y="77" width="37" height="5" style="fill:#f5b024;stroke:black;stroke-width:1;fill-opacity:1;stroke-opacity:0.3" />
<line x1="440" y1="86" x2="443" y2="88" stroke="black" stroke-width="1" />
<line x1="443" y1="88" x2="446" y2="86" stroke="black" stroke-width="1" />
<rect x="402" y="84" width="37" height="5" style="fill:#f5b024;stroke:black;stroke-width:1;fill-opacity:1;stroke-opacity:0.3" />
<rect x="446" y="84" width="37" height="5" style="fill:#f5b024;stroke:black;stroke-width:1;fill-opacity:1;stroke-opacity:0.3" />
<line x1="440" y1="93" x2="444" y2="95" stroke="black" stroke-width="1" />
<line x1="444" y1="95" x2="448" y2="93" stroke="black" stroke-width="1" />
<rect x="402" y="91" width="37" height="5" style="fill:#f5b024;stroke:black;stroke-width:1;fill-opacity:1;stroke-opacity:0.3" />
<rect x="448" y="91" width="37" height="5" style="fill:#f5b024;stroke:black;stroke-width:1;fill-opacity:1;stroke-opacity:0.3" />
<line x1="440" y1="100" x2="444" y2="102" stroke="black" stroke-width="1" />
<line x1="444" y1="102" x2="448" y2="100" stroke="black" stroke-width="1" />
<rect x="402" y="98" width="37" height="5" style="fill:#5d3c2d;stroke:black;stroke-width:1;fill-opacity:1;stroke-opacity:0.3" />
<rect x="448" y="98" width="37" height="5" style="fill:#5d3c2d;stroke:black;stroke-width:1;fill-opacity:1;stroke-opacity:0.3" />
<line x1="442" y1="107" x2="445" y2="109" stroke="black" stroke-width="1" />
<line x1="445" y1="109" x2="448" y2="107" stroke="black" stroke-width="1" />
<rect x="404" y="105" width="37" height="5" style="fill:#5d3c2d;stroke:black;stroke-width:1;fill-opacity:1;stroke-opacity:0.3" />
<rect x="448" y="105" width="37" height="5" style="fill:#5d3c2d;stroke:black;stroke-width:1;fill-opacity:1;stroke-opacity:0.3" />
<line x1="448" y1="114" x2="452" y2="116" stroke="black" stroke-width="1" />
<line x1="452" y1="116" x2="456" y2="114" stroke="black" stroke-width="1" />
<rect x="410" y="112" width="37" height="5" style="fill:#f5b024;stroke:black;stroke-width:1;fill-opacity:1;stroke-opacity:0.3" />
<rect x="456" y="112" width="37" height="5" style="fill:#f5b024;stroke:black;stroke-width:1;fill-opacity:1;stroke-opacity:0.3" />
<line x1="448" y1="121" x2="456" y2="123" stroke="black" stroke-width="1" />
<line x1="456" y1="123" x2="465" y2="121" stroke="black" stroke-width="1" />
<rect x="410" y="119" width="37" height="5" style="fill:#f5b024;stroke:black;stroke-width:1;fill-opacity:1;stroke-opacity:0.3" />
<rect x="465" y="119" width="37" height="5" style="fill:#f5b024;stroke:black;stroke-width:1;fill-opacity:1;stroke-opacity:0.3" />
<line x1="451" y1="128" x2="454" y2="130" stroke="black" stroke-width="1" />
<line x1="454" y1="130" x2="457" y2="128" stroke="black" stroke-width="1" />
<rect x="413" y="126" width="37" height="5" style="fill:#f5b024;stroke:black;stroke-width:1;fill-opacity:1;stroke-opacity:0.3" />
<rect x="457" y="126" width="37" height="5" style="fill:#f5b024;stroke:black;stroke-width:1;fill-opacity:1;stroke-opacity:0.3" />
<line x1="452" y1="135" x2="455" y2="137" stroke="black" stroke-width="1" />
<line x1="455" y1="137" x2="459" y2="135" stroke="black" stroke-width="1" />
<rect x="414" y="133" width="37" height="5" style="fill:#f5b024;stroke:black;stroke-width:1;fill-opacity:1;stroke-opacity:0.3" />
<rect x="459" y="133" width="37" height="5" style="fill:#f5b024;stroke:black;stroke-width:1;fill-opacity:1;stroke-opacity:0.3" />
<line x1="465" y1="142" x2="468" y2="144" stroke="black" stroke-width="1" />
<line x1="468" y1="144" x2="472" y2="142" stroke="black" stroke-width="1" />
<rect x="427" y="140" width="37" height="5" style="fill:#f5b024;stroke:black;stroke-width:1;fill-opacity:1;stroke-opacity:0.3" />
<rect x="472" y="140" width="37" height="5" style="fill:#f5b024;stroke:black;stroke-width:1;fill-opacity:1;stroke-opacity:0.3" />
<line x1="465" y1="149" x2="482" y2="151" stroke="black" stroke-width="1" />
<line x1="482" y1="151" x2="499" y2="149" stroke="black" stroke-width="1" />
<rect x="427" y="147" width="37" height="5" style="fill:#f5b024;stroke:black;stroke-width:1;fill-opacity:1;stroke-opacity:0.3" />
<rect x="499" y="147" width="37" height="5" style="fill:#f5b024;stroke:black;stroke-width:1;fill-opacity:1;stroke-opacity:0.3" />
<line x1="474" y1="156" x2="477" y2="158" stroke="black" stroke-width="1" />
<line x1="477" y1="158" x2="480" y2="156" stroke="black" stroke-width="1" />
<rect x="437" y="154" width="37" height="5" style="fill:#f5b024;stroke:black;stroke-width:1;fill-opacity:1;stroke-opacity:0.3" />
<rect x="480" y="154" width="37" height="5" style="fill:#f5b024;stroke:black;stroke-width:1;fill-opacity:1;stroke-opacity:0.3" />
<line x1="516" y1="163" x2="524" y2="165" stroke="black" stroke-width="1" />
<line x1="524" y1="165" x2="533" y2="163" stroke="black" stroke-width="1" />
<rect x="459" y="161" width="56" height="5" style="fill:#5d3c2d;stroke:black;stroke-width:1;fill-opacity:1;stroke-opacity:0.3" />
<rect x="533" y="161" width="56" height="5" style="fill:#5d3c2d;stroke:black;stroke-width:1;fill-opacity:1;stroke-opacity:0.3" />
<line x1="516" y1="37" x2="519" y2="39" stroke="black" stroke-width="1" />
<line x1="519" y1="39" x2="522" y2="37" stroke="black" stroke-width="1" />
<rect x="479" y="35" width="37" height="5" style="fill:#f5b024;stroke:black;stroke-width:1;fill-opacity:1;stroke-opacity:0.3" />
<rect x="522" y="35" width="37" height="5" style="fill:#f5b024;stroke:black;stroke-width:1;fill-opacity:1;stroke-opacity:0.3" />
<line x1="523" y1="30" x2="525" y2="32" stroke="black" stroke-width="1" />
<line x1="525" y1="32" x2="528" y2="30" stroke="black" stroke-width="1" />
<rect x="485" y="28" width="37" height="5" style="fill:#f5b024;stroke:black;stroke-width:1;fill-opacity:1;stroke-opacity:0.3" />
<rect x="528" y="28" width="37" height="5" style="fill:#f5b024;stroke:black;stroke-width:1;fill-opacity:1;stroke-opacity:0.3" />
<line x1="524" y1="72" x2="538" y2="74" stroke="black" stroke-width="1" />
<line x1="538" y1="74" x2="552" y2="72" stroke="black" stroke-width="1" />
<rect x="486" y="70" width="37" height="5" style="fill:#f5b024;stroke:black;stroke-width:1;fill-opacity:1;stroke-opacity:0.3" />
<rect x="552" y="70" width="30" height="5" style="fill:#f5b024;stroke:black;stroke-width:1;fill-opacity:1;stroke-opacity:0.3" />
<line x1="583" y1="72" x2="612" y2="72" stroke="pink" stroke-width="1" />
<rect x="612" y="70" width="7" height="5" style="fill:#f5b024;stroke:black;stroke-width:1;fill-opacity:1;stroke-opacity:0.3" />
<line x1="551" y1="44" x2="557" y2="46" stroke="black" stroke-width="1" />
<line x1="557" y1="46" x2="564" y2="44" stroke="black" stroke-width="1" />
<rect x="514" y="42" width="37" height="5" style="fill:#f5b024;stroke:black;stroke-width:1;fill-opacity:1;stroke-opacity:0.3" />
<rect x="564" y="42" width="37" height="5" style="fill:#f5b024;stroke:black;stroke-width:1;fill-opacity:1;stroke-opacity:0.3" />
<line x1="560" y1="51" x2="574" y2="53" stroke="black" stroke-width="1" />
<line x1="574" y1="53" x2="589" y2="51" stroke="black" stroke-width="1" />
<rect x="522" y="49" width="37" height="5" style="fill:#5d3c2d;stroke:black;stroke-width:1;fill-opacity:1;stroke-opacity:0.3" />
<rect x="589" y="49" width="37" height="5" style="fill:#5d3c2d;stroke:black;stroke-width:1;fill-opacity:1;stroke-opacity:0.3" />
<line x1="565" y1="58" x2="589" y2="60" stroke="black" stroke-width="1" />
<line x1="589" y1="60" x2="613" y2="58" stroke="black" stroke-width="1" />
<rect x="528" y="56" width="37" height="5" style="fill:#f5b024;stroke:black;stroke-width:1;fill-opacity:1;stroke-opacity:0.3" />
<rect x="613" y="56" width="37" height="5" style="fill:#f5b024;stroke:black;stroke-width:1;fill-opacity:1;stroke-opacity:0.3" />
<line x1="567" y1="65" x2="570" y2="67" stroke="black" stroke-width="1" />
<line x1="570" y1="67" x2="573" y2="65" stroke="black" stroke-width="1" />
<rect x="529" y="63" width="37" height="5" style="fill:#5d3c2d;stroke:black;stroke-width:1;fill-opacity:1;stroke-opacity:0.3" />
<rect x="573" y="63" width="37" height="5" style="fill:#5d3c2d;stroke:black;stroke-width:1;fill-opacity:1;stroke-opacity:0.3" />
<line x1="584" y1="79" x2="586" y2="81" stroke="black" stroke-width="1" />
<line x1="586" y1="81" x2="589" y2="79" stroke="black" stroke-width="1" />
<rect x="546" y="77" width="37" height="5" style="fill:#5d3c2d;stroke:black;stroke-width:1;fill-opacity:1;stroke-opacity:0.3" />
<rect x="589" y="77" width="37" height="5" style="fill:#5d3c2d;stroke:black;stroke-width:1;fill-opacity:1;stroke-opacity:0.3" />
<line x1="584" y1="86" x2="607" y2="88" stroke="black" stroke-width="1" />
<line x1="607" y1="88" x2="630" y2="86" stroke="black" stroke-width="1" />
<rect x="549" y="84" width="35" height="5" style="fill:#f5b024;stroke:black;stroke-width:1;fill-opacity:1;stroke-opacity:0.3" />
<rect x="630" y="84" width="37" height="5" style="fill:#f5b024;stroke:black;stroke-width:1;fill-opacity:1;stroke-opacity:0.3" />
<line x1="622" y1="93" x2="650" y2="95" stroke="black" stroke-width="1" />
<line x1="650" y1="95" x2="679" y2="93" stroke="black" stroke-width="1" />
<rect x="558" y="91" width="25" height="5" style="fill:#f5b024;stroke:black;stroke-width:1;fill-opacity:1;stroke-opacity:0.3" />
<line x1="583" y1="93" x2="612" y2="93" stroke="pink" stroke-width="1" />
<rect x="612" y="91" width="10" height="5" style="fill:#f5b024;stroke:black;stroke-width:1;fill-opacity:1;stroke-opacity:0.3" />
<rect x="679" y="91" width="37" height="5" style="fill:#f5b024;stroke:black;stroke-width:1;fill-opacity:1;stroke-opacity:0.3" />
<line x1="625" y1="100" x2="638" y2="102" stroke="black" stroke-width="1" />
<line x1="638" y1="102" x2="651" y2="100" stroke="black" stroke-width="1" />
<rect x="558" y="98" width="24" height="5" style="fill:#f5b024;stroke:black;stroke-width:1;fill-opacity:1;stroke-opacity:0.3" />
<line x1="583" y1="100" x2="612" y2="100" stroke="pink" stroke-width="1" />
<rect x="612" y="98" width="12" height="5" style="fill:#f5b024;stroke:black;stroke-width:1;fill-opacity:1;stroke-opacity:0.3" />
<rect x="651" y="98" width="37" height="5" style="fill:#f5b024;stroke:black;stroke-width:1;fill-opacity:1;stroke-opacity:0.3" />
<line x1="613" y1="30" x2="624" y2="32" stroke="black" stroke-width="1" />
<line x1="624" y1="32" x2="636" y2="30" stroke="black" stroke-width="1" />
<rect x="575" y="28" width="37" height="5" style="fill:#5d3c2d;stroke:black;stroke-width:1;fill-opacity:1;stroke-opacity:0.3" />
<rect x="636" y="28" width="12" height="5" style="fill:#5d3c2d;stroke:black;stroke-width:1;fill-opacity:1;stroke-opacity:0.3" />
<line x1="648" y1="30" x2="677" y2="30" stroke="pink" stroke-width="1" />
<rect x="677" y="28" width="25" height="5" style="fill:#5d3c2d;stroke:black;stroke-width:1;fill-opacity:1;stroke-opacity:0.3" />
<line x1="645" y1="37" x2="662" y2="39" stroke="black" stroke-width="1" />
<line x1="662" y1="39" x2="679" y2="37" stroke="black" stroke-width="1" />
<rect x="607" y="35" width="37" height="5" style="fill:#5d3c2d;stroke:black;stroke-width:1;fill-opacity:1;stroke-opacity:0.3" />
<rect x="679" y="35" width="37" height="5" style="fill:#5d3c2d;stroke:black;stroke-width:1;fill-opacity:1;stroke-opacity:0.3" />
<line x1="647" y1="44" x2="667" y2="46" stroke="black" stroke-width="1" />
<line x1="667" y1="46" x2="688" y2="44" stroke="black" stroke-width="1" />
<rect x="609" y="42" width="37" height="5" style="fill:#5d3c2d;stroke:black;stroke-width:1;fill-opacity:1;stroke-opacity:0.3" />
<rect x="688" y="42" width="37" height="5" style="fill:#5d3c2d;stroke:black;stroke-width:1;fill-opacity:1;stroke-opacity:0.3" />
<line x1="648" y1="65" x2="663" y2="67" stroke="black" stroke-width="1" />
<line x1="663" y1="67" x2="679" y2="65" stroke="black" stroke-width="1" />
<rect x="611" y="63" width="36" height="5" style="fill:#5d3c2d;stroke:black;stroke-width:1;fill-opacity:1;stroke-opacity:0.3" />
<rect x="679" y="63" width="37" height="5" style="fill:#5d3c2d;stroke:black;stroke-width:1;fill-opacity:1;stroke-opacity:0.3" />
<line x1="785" y1="30" x2="787" y2="32" stroke="black" stroke-width="1" />
<line x1="787" y1="32" x2="790" y2="30" stroke="black" stroke-width="1" />
<rect x="747" y="28" width="37" height="5" style="fill:#5d3c2d;stroke:black;stroke-width:1;fill-opacity:1;stroke-opacity:0.3" />
<rect x="790" y="28" width="37" height="5" style="fill:#5d3c2d;stroke:black;stroke-width:1;fill-opacity:1;stroke-opacity:0.3" />
<line x1="794" y1="37" x2="798" y2="39" stroke="black" stroke-width="1" />
<line x1="798" y1="39" x2="803" y2="37" stroke="black" stroke-width="1" />
<rect x="756" y="35" width="37" height="5" style="fill:#5d3c2d;stroke:black;stroke-width:1;fill-opacity:1;stroke-opacity:0.3" />
<rect x="803" y="35" width="37" height="5" style="fill:#5d3c2d;stroke:black;stroke-width:1;fill-opacity:1;stroke-opacity:0.3" />
<text x="15"  y="176" style="font-family:Arial;font-size:10;stroke:black;fill:black;">all.merged.bam</text>
</svg>
    
