<?xml version="1.0" encoding="utf-8" standalone="no"?>
<!DOCTYPE svg PUBLIC "-//W3C//DTD SVG 1.1//EN"
  "http://www.w3.org/Graphics/SVG/1.1/DTD/svg11.dtd">
<svg height="1140" width="1000" version="1.1" viewBox="0 0 1000 1140" xmlns="http://www.w3.org/2000/svg" xmlns:xlink="http://www.w3.org/1999/xlink">
<line x1="48" y1="11" x2="951" y2="11" stroke="black" stroke-width="1" />
<rect x="48" y="9" width="129" height="5" style="fill:#f50002;stroke:black;stroke-width:1;fill-opacity:1;stroke-opacity:0.3" />
<rect x="177" y="9" width="36" height="5" style="fill:#53a1b5;stroke:black;stroke-width:1;fill-opacity:1;stroke-opacity:0.3" />
<rect x="337" y="9" width="290" height="5" style="fill:#53a1b5;stroke:black;stroke-width:1;fill-opacity:1;stroke-opacity:0.3" />
<rect x="629" y="9" width="322" height="5" style="fill:#f50002;stroke:black;stroke-width:1;fill-opacity:1;stroke-opacity:0.3" />
<text x="48"  y="23" style="font-family:Arial;font-size:10;stroke:black;fill:black;">Cre11.g467601.t1.1.v5.5 (+) chromosome_11:520726-522587</text>
<line x1="126" y1="30" x2="129" y2="32" stroke="black" stroke-width="1" />
<line x1="129" y1="32" x2="132" y2="30" stroke="black" stroke-width="1" />
<rect x="78" y="28" width="48" height="5" style="fill:#5d3c2d;stroke:black;stroke-width:1;fill-opacity:1;stroke-opacity:0.3" />
<rect x="132" y="28" width="48" height="5" style="fill:#5d3c2d;stroke:black;stroke-width:1;fill-opacity:1;stroke-opacity:0.3" />
<line x1="132" y1="37" x2="139" y2="39" stroke="black" stroke-width="1" />
<line x1="139" y1="39" x2="147" y2="37" stroke="black" stroke-width="1" />
<rect x="84" y="35" width="48" height="5" style="fill:#5d3c2d;stroke:black;stroke-width:1;fill-opacity:1;stroke-opacity:0.3" />
<rect x="147" y="35" width="48" height="5" style="fill:#5d3c2d;stroke:black;stroke-width:1;fill-opacity:1;stroke-opacity:0.3" />
<line x1="158" y1="44" x2="168" y2="46" stroke="black" stroke-width="1" />
<line x1="168" y1="46" x2="178" y2="44" stroke="black" stroke-width="1" />
<rect x="110" y="42" width="48" height="5" style="fill:#5d3c2d;stroke:black;stroke-width:1;fill-opacity:1;stroke-opacity:0.3" />
<rect x="178" y="42" width="36" height="5" style="fill:#5d3c2d;stroke:black;stroke-width:1;fill-opacity:1;stroke-opacity:0.3" />
<line x1="215" y1="44" x2="337" y2="44" stroke="pink" stroke-width="1" />
<rect x="337" y="42" width="12" height="5" style="fill:#5d3c2d;stroke:black;stroke-width:1;fill-opacity:1;stroke-opacity:0.3" />
<line x1="194" y1="51" x2="197" y2="53" stroke="black" stroke-width="1" />
<line x1="197" y1="53" x2="200" y2="51" stroke="black" stroke-width="1" />
<rect x="121" y="49" width="72" height="5" style="fill:#5d3c2d;stroke:black;stroke-width:1;fill-opacity:1;stroke-opacity:0.3" />
<rect x="200" y="49" width="15" height="5" style="fill:#5d3c2d;stroke:black;stroke-width:1;fill-opacity:1;stroke-opacity:0.3" />
<line x1="215" y1="51" x2="337" y2="51" stroke="pink" stroke-width="1" />
<rect x="337" y="49" width="57" height="5" style="fill:#5d3c2d;stroke:black;stroke-width:1;fill-opacity:1;stroke-opacity:0.3" />
<line x1="176" y1="58" x2="183" y2="60" stroke="black" stroke-width="1" />
<line x1="183" y1="60" x2="191" y2="58" stroke="black" stroke-width="1" />
<rect x="127" y="56" width="48" height="5" style="fill:#5d3c2d;stroke:black;stroke-width:1;fill-opacity:1;stroke-opacity:0.3" />
<rect x="191" y="56" width="23" height="5" style="fill:#5d3c2d;stroke:black;stroke-width:1;fill-opacity:1;stroke-opacity:0.3" />
<line x1="215" y1="58" x2="337" y2="58" stroke="pink" stroke-width="1" />
<rect x="337" y="56" width="24" height="5" style="fill:#5d3c2d;stroke:black;stroke-width:1;fill-opacity:1;stroke-opacity:0.3" />
<line x1="183" y1="65" x2="187" y2="67" stroke="black" stroke-width="1" />
<line x1="187" y1="67" x2="191" y2="65" stroke="black" stroke-width="1" />
<rect x="135" y="63" width="48" height="5" style="fill:#5d3c2d;stroke:black;stroke-width:1;fill-opacity:1;stroke-opacity:0.3" />
<rect x="191" y="63" width="23" height="5" style="fill:#5d3c2d;stroke:black;stroke-width:1;fill-opacity:1;stroke-opacity:0.3" />
<line x1="215" y1="65" x2="337" y2="65" stroke="pink" stroke-width="1" />
<rect x="337" y="63" width="23" height="5" style="fill:#5d3c2d;stroke:black;stroke-width:1;fill-opacity:1;stroke-opacity:0.3" />
<line x1="207" y1="72" x2="272" y2="74" stroke="black" stroke-width="1" />
<line x1="272" y1="74" x2="338" y2="72" stroke="black" stroke-width="1" />
<rect x="158" y="70" width="48" height="5" style="fill:#5d3c2d;stroke:black;stroke-width:1;fill-opacity:1;stroke-opacity:0.3" />
<rect x="338" y="70" width="48" height="5" style="fill:#5d3c2d;stroke:black;stroke-width:1;fill-opacity:1;stroke-opacity:0.3" />
<line x1="210" y1="79" x2="278" y2="81" stroke="black" stroke-width="1" />
<line x1="278" y1="81" x2="346" y2="79" stroke="black" stroke-width="1" />
<rect x="162" y="77" width="48" height="5" style="fill:#5d3c2d;stroke:black;stroke-width:1;fill-opacity:1;stroke-opacity:0.3" />
<rect x="346" y="77" width="48" height="5" style="fill:#5d3c2d;stroke:black;stroke-width:1;fill-opacity:1;stroke-opacity:0.3" />
<line x1="214" y1="86" x2="283" y2="88" stroke="black" stroke-width="1" />
<line x1="283" y1="88" x2="352" y2="86" stroke="black" stroke-width="1" />
<rect x="166" y="84" width="48" height="5" style="fill:#5d3c2d;stroke:black;stroke-width:1;fill-opacity:1;stroke-opacity:0.3" />
<rect x="352" y="84" width="48" height="5" style="fill:#5d3c2d;stroke:black;stroke-width:1;fill-opacity:1;stroke-opacity:0.3" />
<line x1="352" y1="30" x2="363" y2="32" stroke="black" stroke-width="1" />
<line x1="363" y1="32" x2="374" y2="30" stroke="black" stroke-width="1" />
<rect x="181" y="28" width="33" height="5" style="fill:#5d3c2d;stroke:black;stroke-width:1;fill-opacity:1;stroke-opacity:0.3" />
<line x1="215" y1="30" x2="337" y2="30" stroke="pink" stroke-width="1" />
<rect x="337" y="28" width="14" height="5" style="fill:#5d3c2d;stroke:black;stroke-width:1;fill-opacity:1;stroke-opacity:0.3" />
<rect x="374" y="28" width="48" height="5" style="fill:#5d3c2d;stroke:black;stroke-width:1;fill-opacity:1;stroke-opacity:0.3" />
<line x1="354" y1="93" x2="359" y2="95" stroke="black" stroke-width="1" />
<line x1="359" y1="95" x2="364" y2="93" stroke="black" stroke-width="1" />
<rect x="183" y="91" width="32" height="5" style="fill:#5d3c2d;stroke:black;stroke-width:1;fill-opacity:1;stroke-opacity:0.3" />
<line x1="215" y1="93" x2="337" y2="93" stroke="pink" stroke-width="1" />
<rect x="337" y="91" width="16" height="5" style="fill:#5d3c2d;stroke:black;stroke-width:1;fill-opacity:1;stroke-opacity:0.3" />
<rect x="364" y="91" width="48" height="5" style="fill:#5d3c2d;stroke:black;stroke-width:1;fill-opacity:1;stroke-opacity:0.3" />
<line x1="385" y1="100" x2="389" y2="102" stroke="black" stroke-width="1" />
<line x1="389" y1="102" x2="393" y2="100" stroke="black" stroke-width="1" />
<rect x="190" y="98" width="25" height="5" style="fill:#5d3c2d;stroke:black;stroke-width:1;fill-opacity:1;stroke-opacity:0.3" />
<line x1="215" y1="100" x2="337" y2="100" stroke="pink" stroke-width="1" />
<rect x="337" y="98" width="47" height="5" style="fill:#5d3c2d;stroke:black;stroke-width:1;fill-opacity:1;stroke-opacity:0.3" />
<rect x="393" y="98" width="72" height="5" style="fill:#5d3c2d;stroke:black;stroke-width:1;fill-opacity:1;stroke-opacity:0.3" />
<line x1="385" y1="107" x2="389" y2="109" stroke="black" stroke-width="1" />
<line x1="389" y1="109" x2="393" y2="107" stroke="black" stroke-width="1" />
<rect x="190" y="105" width="25" height="5" style="fill:#5d3c2d;stroke:black;stroke-width:1;fill-opacity:1;stroke-opacity:0.3" />
<line x1="215" y1="107" x2="337" y2="107" stroke="pink" stroke-width="1" />
<rect x="337" y="105" width="47" height="5" style="fill:#5d3c2d;stroke:black;stroke-width:1;fill-opacity:1;stroke-opacity:0.3" />
<rect x="393" y="105" width="72" height="5" style="fill:#5d3c2d;stroke:black;stroke-width:1;fill-opacity:1;stroke-opacity:0.3" />
<line x1="366" y1="114" x2="371" y2="116" stroke="black" stroke-width="1" />
<line x1="371" y1="116" x2="377" y2="114" stroke="black" stroke-width="1" />
<rect x="195" y="112" width="19" height="5" style="fill:#5d3c2d;stroke:black;stroke-width:1;fill-opacity:1;stroke-opacity:0.3" />
<line x1="215" y1="114" x2="337" y2="114" stroke="pink" stroke-width="1" />
<rect x="337" y="112" width="28" height="5" style="fill:#5d3c2d;stroke:black;stroke-width:1;fill-opacity:1;stroke-opacity:0.3" />
<rect x="377" y="112" width="48" height="5" style="fill:#5d3c2d;stroke:black;stroke-width:1;fill-opacity:1;stroke-opacity:0.3" />
<line x1="370" y1="37" x2="398" y2="39" stroke="black" stroke-width="1" />
<line x1="398" y1="39" x2="427" y2="37" stroke="black" stroke-width="1" />
<rect x="199" y="35" width="16" height="5" style="fill:#5d3c2d;stroke:black;stroke-width:1;fill-opacity:1;stroke-opacity:0.3" />
<line x1="215" y1="37" x2="337" y2="37" stroke="pink" stroke-width="1" />
<rect x="337" y="35" width="32" height="5" style="fill:#5d3c2d;stroke:black;stroke-width:1;fill-opacity:1;stroke-opacity:0.3" />
<rect x="427" y="35" width="47" height="5" style="fill:#5d3c2d;stroke:black;stroke-width:1;fill-opacity:1;stroke-opacity:0.3" />
<line x1="375" y1="121" x2="386" y2="123" stroke="black" stroke-width="1" />
<line x1="386" y1="123" x2="397" y2="121" stroke="black" stroke-width="1" />
<rect x="204" y="119" width="10" height="5" style="fill:#5d3c2d;stroke:black;stroke-width:1;fill-opacity:1;stroke-opacity:0.3" />
<line x1="215" y1="121" x2="337" y2="121" stroke="pink" stroke-width="1" />
<rect x="337" y="119" width="37" height="5" style="fill:#5d3c2d;stroke:black;stroke-width:1;fill-opacity:1;stroke-opacity:0.3" />
<rect x="397" y="119" width="48" height="5" style="fill:#5d3c2d;stroke:black;stroke-width:1;fill-opacity:1;stroke-opacity:0.3" />
<line x1="375" y1="128" x2="381" y2="130" stroke="black" stroke-width="1" />
<line x1="381" y1="130" x2="387" y2="128" stroke="black" stroke-width="1" />
<rect x="204" y="126" width="10" height="5" style="fill:#5d3c2d;stroke:black;stroke-width:1;fill-opacity:1;stroke-opacity:0.3" />
<line x1="215" y1="128" x2="337" y2="128" stroke="pink" stroke-width="1" />
<rect x="337" y="126" width="37" height="5" style="fill:#5d3c2d;stroke:black;stroke-width:1;fill-opacity:1;stroke-opacity:0.3" />
<rect x="387" y="126" width="48" height="5" style="fill:#5d3c2d;stroke:black;stroke-width:1;fill-opacity:1;stroke-opacity:0.3" />
<line x1="401" y1="135" x2="410" y2="137" stroke="black" stroke-width="1" />
<line x1="410" y1="137" x2="420" y2="135" stroke="black" stroke-width="1" />
<rect x="206" y="133" width="8" height="5" style="fill:#5d3c2d;stroke:black;stroke-width:1;fill-opacity:1;stroke-opacity:0.3" />
<line x1="215" y1="135" x2="337" y2="135" stroke="pink" stroke-width="1" />
<rect x="337" y="133" width="63" height="5" style="fill:#5d3c2d;stroke:black;stroke-width:1;fill-opacity:1;stroke-opacity:0.3" />
<rect x="420" y="133" width="72" height="5" style="fill:#5d3c2d;stroke:black;stroke-width:1;fill-opacity:1;stroke-opacity:0.3" />
<line x1="401" y1="142" x2="410" y2="144" stroke="black" stroke-width="1" />
<line x1="410" y1="144" x2="420" y2="142" stroke="black" stroke-width="1" />
<rect x="206" y="140" width="8" height="5" style="fill:#5d3c2d;stroke:black;stroke-width:1;fill-opacity:1;stroke-opacity:0.3" />
<line x1="215" y1="142" x2="337" y2="142" stroke="pink" stroke-width="1" />
<rect x="337" y="140" width="63" height="5" style="fill:#5d3c2d;stroke:black;stroke-width:1;fill-opacity:1;stroke-opacity:0.3" />
<rect x="420" y="140" width="72" height="5" style="fill:#5d3c2d;stroke:black;stroke-width:1;fill-opacity:1;stroke-opacity:0.3" />
<line x1="402" y1="149" x2="405" y2="151" stroke="black" stroke-width="1" />
<line x1="405" y1="151" x2="409" y2="149" stroke="black" stroke-width="1" />
<rect x="207" y="147" width="7" height="5" style="fill:#5d3c2d;stroke:black;stroke-width:1;fill-opacity:1;stroke-opacity:0.3" />
<line x1="215" y1="149" x2="337" y2="149" stroke="pink" stroke-width="1" />
<rect x="337" y="147" width="64" height="5" style="fill:#5d3c2d;stroke:black;stroke-width:1;fill-opacity:1;stroke-opacity:0.3" />
<rect x="409" y="147" width="72" height="5" style="fill:#5d3c2d;stroke:black;stroke-width:1;fill-opacity:1;stroke-opacity:0.3" />
<line x1="384" y1="156" x2="392" y2="158" stroke="black" stroke-width="1" />
<line x1="392" y1="158" x2="401" y2="156" stroke="black" stroke-width="1" />
<rect x="213" y="154" width="1" height="5" style="fill:#5d3c2d;stroke:black;stroke-width:1;fill-opacity:1;stroke-opacity:0.3" />
<line x1="215" y1="156" x2="337" y2="156" stroke="pink" stroke-width="1" />
<rect x="337" y="154" width="47" height="5" style="fill:#5d3c2d;stroke:black;stroke-width:1;fill-opacity:1;stroke-opacity:0.3" />
<rect x="401" y="154" width="48" height="5" style="fill:#5d3c2d;stroke:black;stroke-width:1;fill-opacity:1;stroke-opacity:0.3" />
<line x1="409" y1="163" x2="411" y2="165" stroke="black" stroke-width="1" />
<line x1="411" y1="165" x2="414" y2="163" stroke="black" stroke-width="1" />
<rect x="214" y="161" width="0" height="5" style="fill:#5d3c2d;stroke:black;stroke-width:1;fill-opacity:1;stroke-opacity:0.3" />
<line x1="215" y1="163" x2="337" y2="163" stroke="pink" stroke-width="1" />
<rect x="337" y="161" width="71" height="5" style="fill:#5d3c2d;stroke:black;stroke-width:1;fill-opacity:1;stroke-opacity:0.3" />
<rect x="414" y="161" width="72" height="5" style="fill:#5d3c2d;stroke:black;stroke-width:1;fill-opacity:1;stroke-opacity:0.3" />
<line x1="424" y1="44" x2="436" y2="46" stroke="black" stroke-width="1" />
<line x1="436" y1="46" x2="449" y2="44" stroke="black" stroke-width="1" />
<rect x="351" y="42" width="72" height="5" style="fill:#f5b024;stroke:black;stroke-width:1;fill-opacity:1;stroke-opacity:0.3" />
<rect x="449" y="42" width="72" height="5" style="fill:#f5b024;stroke:black;stroke-width:1;fill-opacity:1;stroke-opacity:0.3" />
<line x1="409" y1="65" x2="417" y2="67" stroke="black" stroke-width="1" />
<line x1="417" y1="67" x2="425" y2="65" stroke="black" stroke-width="1" />
<rect x="361" y="63" width="48" height="5" style="fill:#5d3c2d;stroke:black;stroke-width:1;fill-opacity:1;stroke-opacity:0.3" />
<rect x="425" y="63" width="48" height="5" style="fill:#5d3c2d;stroke:black;stroke-width:1;fill-opacity:1;stroke-opacity:0.3" />
<line x1="417" y1="58" x2="428" y2="60" stroke="black" stroke-width="1" />
<line x1="428" y1="60" x2="439" y2="58" stroke="black" stroke-width="1" />
<rect x="368" y="56" width="48" height="5" style="fill:#5d3c2d;stroke:black;stroke-width:1;fill-opacity:1;stroke-opacity:0.3" />
<rect x="439" y="56" width="47" height="5" style="fill:#5d3c2d;stroke:black;stroke-width:1;fill-opacity:1;stroke-opacity:0.3" />
<line x1="436" y1="72" x2="443" y2="74" stroke="black" stroke-width="1" />
<line x1="443" y1="74" x2="451" y2="72" stroke="black" stroke-width="1" />
<rect x="388" y="70" width="48" height="5" style="fill:#5d3c2d;stroke:black;stroke-width:1;fill-opacity:1;stroke-opacity:0.3" />
<rect x="451" y="70" width="48" height="5" style="fill:#5d3c2d;stroke:black;stroke-width:1;fill-opacity:1;stroke-opacity:0.3" />
<line x1="446" y1="51" x2="460" y2="53" stroke="black" stroke-width="1" />
<line x1="460" y1="53" x2="474" y2="51" stroke="black" stroke-width="1" />
<rect x="398" y="49" width="48" height="5" style="fill:#5d3c2d;stroke:black;stroke-width:1;fill-opacity:1;stroke-opacity:0.3" />
<rect x="474" y="49" width="48" height="5" style="fill:#5d3c2d;stroke:black;stroke-width:1;fill-opacity:1;stroke-opacity:0.3" />
<line x1="446" y1="79" x2="460" y2="81" stroke="black" stroke-width="1" />
<line x1="460" y1="81" x2="474" y2="79" stroke="black" stroke-width="1" />
<rect x="398" y="77" width="48" height="5" style="fill:#5d3c2d;stroke:black;stroke-width:1;fill-opacity:1;stroke-opacity:0.3" />
<rect x="474" y="77" width="48" height="5" style="fill:#5d3c2d;stroke:black;stroke-width:1;fill-opacity:1;stroke-opacity:0.3" />
<line x1="473" y1="86" x2="479" y2="88" stroke="black" stroke-width="1" />
<line x1="479" y1="88" x2="486" y2="86" stroke="black" stroke-width="1" />
<rect x="401" y="84" width="72" height="5" style="fill:#f5b024;stroke:black;stroke-width:1;fill-opacity:1;stroke-opacity:0.3" />
<rect x="486" y="84" width="72" height="5" style="fill:#f5b024;stroke:black;stroke-width:1;fill-opacity:1;stroke-opacity:0.3" />
<line x1="487" y1="93" x2="491" y2="95" stroke="black" stroke-width="1" />
<line x1="491" y1="95" x2="495" y2="93" stroke="black" stroke-width="1" />
<rect x="414" y="91" width="72" height="5" style="fill:#5d3c2d;stroke:black;stroke-width:1;fill-opacity:1;stroke-opacity:0.3" />
<rect x="495" y="91" width="70" height="5" style="fill:#5d3c2d;stroke:black;stroke-width:1;fill-opacity:1;stroke-opacity:0.3" />
<line x1="483" y1="30" x2="495" y2="32" stroke="black" stroke-width="1" />
<line x1="495" y1="32" x2="507" y2="30" stroke="black" stroke-width="1" />
<rect x="434" y="28" width="48" height="5" style="fill:#5d3c2d;stroke:black;stroke-width:1;fill-opacity:1;stroke-opacity:0.3" />
<rect x="507" y="28" width="48" height="5" style="fill:#5d3c2d;stroke:black;stroke-width:1;fill-opacity:1;stroke-opacity:0.3" />
<line x1="487" y1="114" x2="495" y2="116" stroke="black" stroke-width="1" />
<line x1="495" y1="116" x2="504" y2="114" stroke="black" stroke-width="1" />
<rect x="438" y="112" width="48" height="5" style="fill:#5d3c2d;stroke:black;stroke-width:1;fill-opacity:1;stroke-opacity:0.3" />
<rect x="504" y="112" width="48" height="5" style="fill:#5d3c2d;stroke:black;stroke-width:1;fill-opacity:1;stroke-opacity:0.3" />
<line x1="490" y1="128" x2="497" y2="130" stroke="black" stroke-width="1" />
<line x1="497" y1="130" x2="504" y2="128" stroke="black" stroke-width="1" />
<rect x="441" y="126" width="48" height="5" style="fill:#5d3c2d;stroke:black;stroke-width:1;fill-opacity:1;stroke-opacity:0.3" />
<rect x="504" y="126" width="46" height="5" style="fill:#5d3c2d;stroke:black;stroke-width:1;fill-opacity:1;stroke-opacity:0.3" />
<line x1="503" y1="121" x2="514" y2="123" stroke="black" stroke-width="1" />
<line x1="514" y1="123" x2="525" y2="121" stroke="black" stroke-width="1" />
<rect x="455" y="119" width="48" height="5" style="fill:#5d3c2d;stroke:black;stroke-width:1;fill-opacity:1;stroke-opacity:0.3" />
<rect x="525" y="119" width="48" height="5" style="fill:#5d3c2d;stroke:black;stroke-width:1;fill-opacity:1;stroke-opacity:0.3" />
<line x1="524" y1="37" x2="529" y2="39" stroke="black" stroke-width="1" />
<line x1="529" y1="39" x2="535" y2="37" stroke="black" stroke-width="1" />
<rect x="475" y="35" width="48" height="5" style="fill:#5d3c2d;stroke:black;stroke-width:1;fill-opacity:1;stroke-opacity:0.3" />
<rect x="535" y="35" width="47" height="5" style="fill:#5d3c2d;stroke:black;stroke-width:1;fill-opacity:1;stroke-opacity:0.3" />
<line x1="525" y1="65" x2="533" y2="67" stroke="black" stroke-width="1" />
<line x1="533" y1="67" x2="542" y2="65" stroke="black" stroke-width="1" />
<rect x="476" y="63" width="48" height="5" style="fill:#f5b024;stroke:black;stroke-width:1;fill-opacity:1;stroke-opacity:0.3" />
<rect x="542" y="63" width="48" height="5" style="fill:#f5b024;stroke:black;stroke-width:1;fill-opacity:1;stroke-opacity:0.3" />
<line x1="526" y1="100" x2="529" y2="102" stroke="black" stroke-width="1" />
<line x1="529" y1="102" x2="533" y2="100" stroke="black" stroke-width="1" />
<rect x="477" y="98" width="48" height="5" style="fill:#5d3c2d;stroke:black;stroke-width:1;fill-opacity:1;stroke-opacity:0.3" />
<rect x="533" y="98" width="48" height="5" style="fill:#5d3c2d;stroke:black;stroke-width:1;fill-opacity:1;stroke-opacity:0.3" />
<line x1="540" y1="58" x2="568" y2="60" stroke="black" stroke-width="1" />
<line x1="568" y1="60" x2="597" y2="58" stroke="black" stroke-width="1" />
<rect x="491" y="56" width="48" height="5" style="fill:#5d3c2d;stroke:black;stroke-width:1;fill-opacity:1;stroke-opacity:0.3" />
<rect x="597" y="56" width="43" height="5" style="fill:#5d3c2d;stroke:black;stroke-width:1;fill-opacity:1;stroke-opacity:0.3" />
<line x1="540" y1="107" x2="566" y2="109" stroke="black" stroke-width="1" />
<line x1="566" y1="109" x2="592" y2="107" stroke="black" stroke-width="1" />
<rect x="491" y="105" width="48" height="5" style="fill:#5d3c2d;stroke:black;stroke-width:1;fill-opacity:1;stroke-opacity:0.3" />
<rect x="592" y="105" width="48" height="5" style="fill:#5d3c2d;stroke:black;stroke-width:1;fill-opacity:1;stroke-opacity:0.3" />
<line x1="571" y1="135" x2="587" y2="137" stroke="black" stroke-width="1" />
<line x1="587" y1="137" x2="603" y2="135" stroke="black" stroke-width="1" />
<rect x="499" y="133" width="72" height="5" style="fill:#5d3c2d;stroke:black;stroke-width:1;fill-opacity:1;stroke-opacity:0.3" />
<rect x="603" y="133" width="72" height="5" style="fill:#5d3c2d;stroke:black;stroke-width:1;fill-opacity:1;stroke-opacity:0.3" />
<line x1="562" y1="72" x2="575" y2="74" stroke="black" stroke-width="1" />
<line x1="575" y1="74" x2="588" y2="72" stroke="black" stroke-width="1" />
<rect x="513" y="70" width="48" height="5" style="fill:#5d3c2d;stroke:black;stroke-width:1;fill-opacity:1;stroke-opacity:0.3" />
<rect x="588" y="70" width="44" height="5" style="fill:#5d3c2d;stroke:black;stroke-width:1;fill-opacity:1;stroke-opacity:0.3" />
<line x1="564" y1="142" x2="577" y2="144" stroke="black" stroke-width="1" />
<line x1="577" y1="144" x2="591" y2="142" stroke="black" stroke-width="1" />
<rect x="516" y="140" width="48" height="5" style="fill:#5d3c2d;stroke:black;stroke-width:1;fill-opacity:1;stroke-opacity:0.3" />
<rect x="591" y="140" width="40" height="5" style="fill:#5d3c2d;stroke:black;stroke-width:1;fill-opacity:1;stroke-opacity:0.3" />
<line x1="591" y1="149" x2="601" y2="151" stroke="black" stroke-width="1" />
<line x1="601" y1="151" x2="611" y2="149" stroke="black" stroke-width="1" />
<rect x="518" y="147" width="72" height="5" style="fill:#5d3c2d;stroke:black;stroke-width:1;fill-opacity:1;stroke-opacity:0.3" />
<rect x="611" y="147" width="72" height="5" style="fill:#5d3c2d;stroke:black;stroke-width:1;fill-opacity:1;stroke-opacity:0.3" />
<line x1="572" y1="44" x2="581" y2="46" stroke="black" stroke-width="1" />
<line x1="581" y1="46" x2="591" y2="44" stroke="black" stroke-width="1" />
<rect x="524" y="42" width="48" height="5" style="fill:#5d3c2d;stroke:black;stroke-width:1;fill-opacity:1;stroke-opacity:0.3" />
<rect x="591" y="42" width="48" height="5" style="fill:#5d3c2d;stroke:black;stroke-width:1;fill-opacity:1;stroke-opacity:0.3" />
<line x1="573" y1="51" x2="583" y2="53" stroke="black" stroke-width="1" />
<line x1="583" y1="53" x2="594" y2="51" stroke="black" stroke-width="1" />
<rect x="524" y="49" width="48" height="5" style="fill:#5d3c2d;stroke:black;stroke-width:1;fill-opacity:1;stroke-opacity:0.3" />
<rect x="594" y="49" width="48" height="5" style="fill:#5d3c2d;stroke:black;stroke-width:1;fill-opacity:1;stroke-opacity:0.3" />
<line x1="597" y1="79" x2="599" y2="81" stroke="black" stroke-width="1" />
<line x1="599" y1="81" x2="602" y2="79" stroke="black" stroke-width="1" />
<rect x="525" y="77" width="72" height="5" style="fill:#5d3c2d;stroke:black;stroke-width:1;fill-opacity:1;stroke-opacity:0.3" />
<rect x="602" y="77" width="72" height="5" style="fill:#5d3c2d;stroke:black;stroke-width:1;fill-opacity:1;stroke-opacity:0.3" />
<line x1="601" y1="156" x2="605" y2="158" stroke="black" stroke-width="1" />
<line x1="605" y1="158" x2="610" y2="156" stroke="black" stroke-width="1" />
<rect x="529" y="154" width="72" height="5" style="fill:#5d3c2d;stroke:black;stroke-width:1;fill-opacity:1;stroke-opacity:0.3" />
<rect x="610" y="154" width="72" height="5" style="fill:#5d3c2d;stroke:black;stroke-width:1;fill-opacity:1;stroke-opacity:0.3" />
<line x1="602" y1="163" x2="605" y2="165" stroke="black" stroke-width="1" />
<line x1="605" y1="165" x2="609" y2="163" stroke="black" stroke-width="1" />
<rect x="530" y="161" width="72" height="5" style="fill:#5d3c2d;stroke:black;stroke-width:1;fill-opacity:1;stroke-opacity:0.3" />
<rect x="609" y="161" width="72" height="5" style="fill:#5d3c2d;stroke:black;stroke-width:1;fill-opacity:1;stroke-opacity:0.3" />
<line x1="601" y1="114" x2="622" y2="116" stroke="black" stroke-width="1" />
<line x1="622" y1="116" x2="644" y2="114" stroke="black" stroke-width="1" />
<rect x="553" y="112" width="48" height="5" style="fill:#5d3c2d;stroke:black;stroke-width:1;fill-opacity:1;stroke-opacity:0.3" />
<rect x="644" y="112" width="48" height="5" style="fill:#5d3c2d;stroke:black;stroke-width:1;fill-opacity:1;stroke-opacity:0.3" />
<line x1="602" y1="128" x2="618" y2="130" stroke="black" stroke-width="1" />
<line x1="618" y1="130" x2="634" y2="128" stroke="black" stroke-width="1" />
<rect x="554" y="126" width="48" height="5" style="fill:#5d3c2d;stroke:black;stroke-width:1;fill-opacity:1;stroke-opacity:0.3" />
<rect x="634" y="126" width="48" height="5" style="fill:#5d3c2d;stroke:black;stroke-width:1;fill-opacity:1;stroke-opacity:0.3" />
<line x1="629" y1="30" x2="634" y2="32" stroke="black" stroke-width="1" />
<line x1="634" y1="32" x2="639" y2="30" stroke="black" stroke-width="1" />
<rect x="556" y="28" width="72" height="5" style="fill:#5d3c2d;stroke:black;stroke-width:1;fill-opacity:1;stroke-opacity:0.3" />
<rect x="639" y="28" width="72" height="5" style="fill:#5d3c2d;stroke:black;stroke-width:1;fill-opacity:1;stroke-opacity:0.3" />
<line x1="610" y1="86" x2="623" y2="88" stroke="black" stroke-width="1" />
<line x1="623" y1="88" x2="637" y2="86" stroke="black" stroke-width="1" />
<rect x="562" y="84" width="48" height="5" style="fill:#5d3c2d;stroke:black;stroke-width:1;fill-opacity:1;stroke-opacity:0.3" />
<rect x="637" y="84" width="48" height="5" style="fill:#5d3c2d;stroke:black;stroke-width:1;fill-opacity:1;stroke-opacity:0.3" />
<line x1="618" y1="93" x2="629" y2="95" stroke="black" stroke-width="1" />
<line x1="629" y1="95" x2="640" y2="93" stroke="black" stroke-width="1" />
<rect x="569" y="91" width="48" height="5" style="fill:#5d3c2d;stroke:black;stroke-width:1;fill-opacity:1;stroke-opacity:0.3" />
<rect x="640" y="91" width="48" height="5" style="fill:#5d3c2d;stroke:black;stroke-width:1;fill-opacity:1;stroke-opacity:0.3" />
<line x1="649" y1="121" x2="658" y2="123" stroke="black" stroke-width="1" />
<line x1="658" y1="123" x2="668" y2="121" stroke="black" stroke-width="1" />
<rect x="576" y="119" width="72" height="5" style="fill:#5d3c2d;stroke:black;stroke-width:1;fill-opacity:1;stroke-opacity:0.3" />
<rect x="668" y="119" width="72" height="5" style="fill:#5d3c2d;stroke:black;stroke-width:1;fill-opacity:1;stroke-opacity:0.3" />
<line x1="631" y1="37" x2="638" y2="39" stroke="black" stroke-width="1" />
<line x1="638" y1="39" x2="645" y2="37" stroke="black" stroke-width="1" />
<rect x="583" y="35" width="48" height="5" style="fill:#f5b024;stroke:black;stroke-width:1;fill-opacity:1;stroke-opacity:0.3" />
<rect x="645" y="35" width="47" height="5" style="fill:#f5b024;stroke:black;stroke-width:1;fill-opacity:1;stroke-opacity:0.3" />
<line x1="635" y1="100" x2="639" y2="102" stroke="black" stroke-width="1" />
<line x1="639" y1="102" x2="643" y2="100" stroke="black" stroke-width="1" />
<rect x="586" y="98" width="48" height="5" style="fill:#5d3c2d;stroke:black;stroke-width:1;fill-opacity:1;stroke-opacity:0.3" />
<rect x="643" y="98" width="48" height="5" style="fill:#5d3c2d;stroke:black;stroke-width:1;fill-opacity:1;stroke-opacity:0.3" />
<line x1="665" y1="65" x2="668" y2="67" stroke="black" stroke-width="1" />
<line x1="668" y1="67" x2="671" y2="65" stroke="black" stroke-width="1" />
<rect x="592" y="63" width="72" height="5" style="fill:#5d3c2d;stroke:black;stroke-width:1;fill-opacity:1;stroke-opacity:0.3" />
<rect x="671" y="63" width="72" height="5" style="fill:#5d3c2d;stroke:black;stroke-width:1;fill-opacity:1;stroke-opacity:0.3" />
<line x1="679" y1="142" x2="687" y2="144" stroke="black" stroke-width="1" />
<line x1="687" y1="144" x2="695" y2="142" stroke="black" stroke-width="1" />
<rect x="631" y="140" width="48" height="5" style="fill:#5d3c2d;stroke:black;stroke-width:1;fill-opacity:1;stroke-opacity:0.3" />
<rect x="695" y="140" width="48" height="5" style="fill:#5d3c2d;stroke:black;stroke-width:1;fill-opacity:1;stroke-opacity:0.3" />
<line x1="685" y1="72" x2="688" y2="74" stroke="black" stroke-width="1" />
<line x1="688" y1="74" x2="691" y2="72" stroke="black" stroke-width="1" />
<rect x="637" y="70" width="48" height="5" style="fill:#5d3c2d;stroke:black;stroke-width:1;fill-opacity:1;stroke-opacity:0.3" />
<rect x="691" y="70" width="48" height="5" style="fill:#5d3c2d;stroke:black;stroke-width:1;fill-opacity:1;stroke-opacity:0.3" />
<line x1="690" y1="44" x2="695" y2="46" stroke="black" stroke-width="1" />
<line x1="695" y1="46" x2="701" y2="44" stroke="black" stroke-width="1" />
<rect x="641" y="42" width="48" height="5" style="fill:#5d3c2d;stroke:black;stroke-width:1;fill-opacity:1;stroke-opacity:0.3" />
<rect x="701" y="42" width="48" height="5" style="fill:#5d3c2d;stroke:black;stroke-width:1;fill-opacity:1;stroke-opacity:0.3" />
<line x1="692" y1="51" x2="700" y2="53" stroke="black" stroke-width="1" />
<line x1="700" y1="53" x2="708" y2="51" stroke="black" stroke-width="1" />
<rect x="644" y="49" width="48" height="5" style="fill:#5d3c2d;stroke:black;stroke-width:1;fill-opacity:1;stroke-opacity:0.3" />
<rect x="708" y="49" width="48" height="5" style="fill:#5d3c2d;stroke:black;stroke-width:1;fill-opacity:1;stroke-opacity:0.3" />
<line x1="693" y1="58" x2="702" y2="60" stroke="black" stroke-width="1" />
<line x1="702" y1="60" x2="711" y2="58" stroke="black" stroke-width="1" />
<rect x="645" y="56" width="48" height="5" style="fill:#5d3c2d;stroke:black;stroke-width:1;fill-opacity:1;stroke-opacity:0.3" />
<rect x="711" y="56" width="48" height="5" style="fill:#5d3c2d;stroke:black;stroke-width:1;fill-opacity:1;stroke-opacity:0.3" />
<line x1="693" y1="107" x2="702" y2="109" stroke="black" stroke-width="1" />
<line x1="702" y1="109" x2="711" y2="107" stroke="black" stroke-width="1" />
<rect x="645" y="105" width="48" height="5" style="fill:#5d3c2d;stroke:black;stroke-width:1;fill-opacity:1;stroke-opacity:0.3" />
<rect x="711" y="105" width="48" height="5" style="fill:#5d3c2d;stroke:black;stroke-width:1;fill-opacity:1;stroke-opacity:0.3" />
<line x1="729" y1="79" x2="731" y2="81" stroke="black" stroke-width="1" />
<line x1="731" y1="81" x2="734" y2="79" stroke="black" stroke-width="1" />
<rect x="680" y="77" width="48" height="5" style="fill:#f5b024;stroke:black;stroke-width:1;fill-opacity:1;stroke-opacity:0.3" />
<rect x="734" y="77" width="48" height="5" style="fill:#f5b024;stroke:black;stroke-width:1;fill-opacity:1;stroke-opacity:0.3" />
<line x1="753" y1="135" x2="767" y2="137" stroke="black" stroke-width="1" />
<line x1="767" y1="137" x2="781" y2="135" stroke="black" stroke-width="1" />
<rect x="680" y="133" width="72" height="5" style="fill:#f5b024;stroke:black;stroke-width:1;fill-opacity:1;stroke-opacity:0.3" />
<rect x="781" y="133" width="72" height="5" style="fill:#f5b024;stroke:black;stroke-width:1;fill-opacity:1;stroke-opacity:0.3" />
<line x1="729" y1="163" x2="736" y2="165" stroke="black" stroke-width="1" />
<line x1="736" y1="165" x2="743" y2="163" stroke="black" stroke-width="1" />
<rect x="681" y="161" width="48" height="5" style="fill:#5d3c2d;stroke:black;stroke-width:1;fill-opacity:1;stroke-opacity:0.3" />
<rect x="743" y="161" width="48" height="5" style="fill:#5d3c2d;stroke:black;stroke-width:1;fill-opacity:1;stroke-opacity:0.3" />
<line x1="732" y1="128" x2="755" y2="130" stroke="black" stroke-width="1" />
<line x1="755" y1="130" x2="778" y2="128" stroke="black" stroke-width="1" />
<rect x="684" y="126" width="48" height="5" style="fill:#5d3c2d;stroke:black;stroke-width:1;fill-opacity:1;stroke-opacity:0.3" />
<rect x="778" y="126" width="48" height="5" style="fill:#5d3c2d;stroke:black;stroke-width:1;fill-opacity:1;stroke-opacity:0.3" />
<line x1="738" y1="86" x2="742" y2="88" stroke="black" stroke-width="1" />
<line x1="742" y1="88" x2="746" y2="86" stroke="black" stroke-width="1" />
<rect x="690" y="84" width="48" height="5" style="fill:#f5b024;stroke:black;stroke-width:1;fill-opacity:1;stroke-opacity:0.3" />
<rect x="746" y="84" width="48" height="5" style="fill:#f5b024;stroke:black;stroke-width:1;fill-opacity:1;stroke-opacity:0.3" />
<line x1="771" y1="37" x2="781" y2="39" stroke="black" stroke-width="1" />
<line x1="781" y1="39" x2="792" y2="37" stroke="black" stroke-width="1" />
<rect x="698" y="35" width="72" height="5" style="fill:#5d3c2d;stroke:black;stroke-width:1;fill-opacity:1;stroke-opacity:0.3" />
<rect x="792" y="35" width="72" height="5" style="fill:#5d3c2d;stroke:black;stroke-width:1;fill-opacity:1;stroke-opacity:0.3" />
<line x1="750" y1="93" x2="767" y2="95" stroke="black" stroke-width="1" />
<line x1="767" y1="95" x2="785" y2="93" stroke="black" stroke-width="1" />
<rect x="702" y="91" width="48" height="5" style="fill:#5d3c2d;stroke:black;stroke-width:1;fill-opacity:1;stroke-opacity:0.3" />
<rect x="785" y="91" width="48" height="5" style="fill:#5d3c2d;stroke:black;stroke-width:1;fill-opacity:1;stroke-opacity:0.3" />
<line x1="751" y1="100" x2="768" y2="102" stroke="black" stroke-width="1" />
<line x1="768" y1="102" x2="786" y2="100" stroke="black" stroke-width="1" />
<rect x="702" y="98" width="48" height="5" style="fill:#5d3c2d;stroke:black;stroke-width:1;fill-opacity:1;stroke-opacity:0.3" />
<rect x="786" y="98" width="48" height="5" style="fill:#5d3c2d;stroke:black;stroke-width:1;fill-opacity:1;stroke-opacity:0.3" />
<line x1="755" y1="114" x2="769" y2="116" stroke="black" stroke-width="1" />
<line x1="769" y1="116" x2="784" y2="114" stroke="black" stroke-width="1" />
<rect x="706" y="112" width="48" height="5" style="fill:#5d3c2d;stroke:black;stroke-width:1;fill-opacity:1;stroke-opacity:0.3" />
<rect x="784" y="112" width="18" height="5" style="fill:#5d3c2d;stroke:black;stroke-width:1;fill-opacity:1;stroke-opacity:0.3" />
<rect x="802" y="112" width="30" height="5" style="fill:#5d3c2d;stroke:black;stroke-width:1;fill-opacity:1;stroke-opacity:0.3" />
<line x1="759" y1="149" x2="787" y2="151" stroke="black" stroke-width="1" />
<line x1="787" y1="151" x2="815" y2="149" stroke="black" stroke-width="1" />
<rect x="711" y="147" width="48" height="5" style="fill:#5d3c2d;stroke:black;stroke-width:1;fill-opacity:1;stroke-opacity:0.3" />
<rect x="815" y="147" width="48" height="5" style="fill:#5d3c2d;stroke:black;stroke-width:1;fill-opacity:1;stroke-opacity:0.3" />
<line x1="773" y1="30" x2="779" y2="32" stroke="black" stroke-width="1" />
<line x1="779" y1="32" x2="785" y2="30" stroke="black" stroke-width="1" />
<rect x="724" y="28" width="48" height="5" style="fill:#5d3c2d;stroke:black;stroke-width:1;fill-opacity:1;stroke-opacity:0.3" />
<rect x="785" y="28" width="48" height="5" style="fill:#5d3c2d;stroke:black;stroke-width:1;fill-opacity:1;stroke-opacity:0.3" />
<line x1="777" y1="156" x2="781" y2="158" stroke="black" stroke-width="1" />
<line x1="781" y1="158" x2="786" y2="156" stroke="black" stroke-width="1" />
<rect x="729" y="154" width="48" height="5" style="fill:#5d3c2d;stroke:black;stroke-width:1;fill-opacity:1;stroke-opacity:0.3" />
<rect x="786" y="154" width="48" height="5" style="fill:#5d3c2d;stroke:black;stroke-width:1;fill-opacity:1;stroke-opacity:0.3" />
<line x1="808" y1="72" x2="812" y2="74" stroke="black" stroke-width="1" />
<line x1="812" y1="74" x2="816" y2="72" stroke="black" stroke-width="1" />
<rect x="741" y="70" width="66" height="5" style="fill:#5d3c2d;stroke:black;stroke-width:1;fill-opacity:1;stroke-opacity:0.3" />
<rect x="816" y="70" width="72" height="5" style="fill:#5d3c2d;stroke:black;stroke-width:1;fill-opacity:1;stroke-opacity:0.3" />
<line x1="791" y1="121" x2="798" y2="123" stroke="black" stroke-width="1" />
<line x1="798" y1="123" x2="806" y2="121" stroke="black" stroke-width="1" />
<rect x="742" y="119" width="48" height="5" style="fill:#5d3c2d;stroke:black;stroke-width:1;fill-opacity:1;stroke-opacity:0.3" />
<rect x="806" y="119" width="48" height="5" style="fill:#5d3c2d;stroke:black;stroke-width:1;fill-opacity:1;stroke-opacity:0.3" />
<line x1="808" y1="44" x2="818" y2="46" stroke="black" stroke-width="1" />
<line x1="818" y1="46" x2="828" y2="44" stroke="black" stroke-width="1" />
<rect x="760" y="42" width="48" height="5" style="fill:#5d3c2d;stroke:black;stroke-width:1;fill-opacity:1;stroke-opacity:0.3" />
<rect x="828" y="42" width="48" height="5" style="fill:#5d3c2d;stroke:black;stroke-width:1;fill-opacity:1;stroke-opacity:0.3" />
<line x1="813" y1="51" x2="822" y2="53" stroke="black" stroke-width="1" />
<line x1="822" y1="53" x2="831" y2="51" stroke="black" stroke-width="1" />
<rect x="764" y="49" width="48" height="5" style="fill:#5d3c2d;stroke:black;stroke-width:1;fill-opacity:1;stroke-opacity:0.3" />
<rect x="831" y="49" width="48" height="5" style="fill:#5d3c2d;stroke:black;stroke-width:1;fill-opacity:1;stroke-opacity:0.3" />
<line x1="822" y1="58" x2="830" y2="60" stroke="black" stroke-width="1" />
<line x1="830" y1="60" x2="839" y2="58" stroke="black" stroke-width="1" />
<rect x="774" y="56" width="48" height="5" style="fill:#5d3c2d;stroke:black;stroke-width:1;fill-opacity:1;stroke-opacity:0.3" />
<rect x="839" y="56" width="48" height="5" style="fill:#5d3c2d;stroke:black;stroke-width:1;fill-opacity:1;stroke-opacity:0.3" />
<line x1="829" y1="65" x2="834" y2="67" stroke="black" stroke-width="1" />
<line x1="834" y1="67" x2="840" y2="65" stroke="black" stroke-width="1" />
<rect x="780" y="63" width="48" height="5" style="fill:#5d3c2d;stroke:black;stroke-width:1;fill-opacity:1;stroke-opacity:0.3" />
<rect x="840" y="63" width="48" height="5" style="fill:#5d3c2d;stroke:black;stroke-width:1;fill-opacity:1;stroke-opacity:0.3" />
<line x1="830" y1="107" x2="835" y2="109" stroke="black" stroke-width="1" />
<line x1="835" y1="109" x2="840" y2="107" stroke="black" stroke-width="1" />
<rect x="781" y="105" width="48" height="5" style="fill:#5d3c2d;stroke:black;stroke-width:1;fill-opacity:1;stroke-opacity:0.3" />
<rect x="840" y="105" width="48" height="5" style="fill:#5d3c2d;stroke:black;stroke-width:1;fill-opacity:1;stroke-opacity:0.3" />
<line x1="830" y1="142" x2="835" y2="144" stroke="black" stroke-width="1" />
<line x1="835" y1="144" x2="840" y2="142" stroke="black" stroke-width="1" />
<rect x="781" y="140" width="48" height="5" style="fill:#5d3c2d;stroke:black;stroke-width:1;fill-opacity:1;stroke-opacity:0.3" />
<rect x="840" y="140" width="48" height="5" style="fill:#5d3c2d;stroke:black;stroke-width:1;fill-opacity:1;stroke-opacity:0.3" />
<line x1="828" y1="79" x2="833" y2="81" stroke="black" stroke-width="1" />
<line x1="833" y1="81" x2="839" y2="79" stroke="black" stroke-width="1" />
<rect x="784" y="77" width="43" height="5" style="fill:#5d3c2d;stroke:black;stroke-width:1;fill-opacity:1;stroke-opacity:0.3" />
<rect x="839" y="77" width="48" height="5" style="fill:#5d3c2d;stroke:black;stroke-width:1;fill-opacity:1;stroke-opacity:0.3" />
<line x1="840" y1="163" x2="848" y2="165" stroke="black" stroke-width="1" />
<line x1="848" y1="165" x2="857" y2="163" stroke="black" stroke-width="1" />
<rect x="792" y="161" width="48" height="5" style="fill:#5d3c2d;stroke:black;stroke-width:1;fill-opacity:1;stroke-opacity:0.3" />
<rect x="857" y="161" width="48" height="5" style="fill:#5d3c2d;stroke:black;stroke-width:1;fill-opacity:1;stroke-opacity:0.3" />
<text x="15"  y="176" style="font-family:Arial;font-size:10;stroke:black;fill:black;">all.merged.bam</text>
</svg>
    
