<?xml version="1.0" encoding="utf-8" standalone="no"?>
<!DOCTYPE svg PUBLIC "-//W3C//DTD SVG 1.1//EN"
  "http://www.w3.org/Graphics/SVG/1.1/DTD/svg11.dtd">
<svg height="1140" width="1000" version="1.1" viewBox="0 0 1000 1140" xmlns="http://www.w3.org/2000/svg" xmlns:xlink="http://www.w3.org/1999/xlink">
<line x1="76" y1="11" x2="922" y2="11" stroke="black" stroke-width="1" />
<rect x="76" y="9" width="566" height="5" style="fill:#f50002;stroke:black;stroke-width:1;fill-opacity:1;stroke-opacity:0.3" />
<rect x="643" y="9" width="173" height="5" style="fill:#53a1b5;stroke:black;stroke-width:1;fill-opacity:1;stroke-opacity:0.3" />
<rect x="818" y="9" width="104" height="5" style="fill:#f50002;stroke:black;stroke-width:1;fill-opacity:1;stroke-opacity:0.3" />
<text x="76"  y="23" style="font-family:Arial;font-size:10;stroke:black;fill:black;">Cre16.g648288.t1.2.v5.5 (-) chromosome_16:899398-900503</text>
<line x1="705" y1="30" x2="724" y2="32" stroke="black" stroke-width="1" />
<line x1="724" y1="32" x2="744" y2="30" stroke="black" stroke-width="1" />
<rect x="629" y="28" width="76" height="5" style="fill:#5d3c2d;stroke:black;stroke-width:1;fill-opacity:1;stroke-opacity:0.3" />
<rect x="744" y="28" width="76" height="5" style="fill:#5d3c2d;stroke:black;stroke-width:1;fill-opacity:1;stroke-opacity:0.3" />
<line x1="754" y1="37" x2="774" y2="39" stroke="black" stroke-width="1" />
<line x1="774" y1="39" x2="794" y2="37" stroke="black" stroke-width="1" />
<rect x="678" y="35" width="76" height="5" style="fill:#5d3c2d;stroke:black;stroke-width:1;fill-opacity:1;stroke-opacity:0.3" />
<rect x="794" y="35" width="75" height="5" style="fill:#5d3c2d;stroke:black;stroke-width:1;fill-opacity:1;stroke-opacity:0.3" />
<line x1="763" y1="44" x2="768" y2="46" stroke="black" stroke-width="1" />
<line x1="768" y1="46" x2="773" y2="44" stroke="black" stroke-width="1" />
<rect x="687" y="42" width="75" height="5" style="fill:#f5b024;stroke:black;stroke-width:1;fill-opacity:1;stroke-opacity:0.3" />
<rect x="773" y="42" width="76" height="5" style="fill:#f5b024;stroke:black;stroke-width:1;fill-opacity:1;stroke-opacity:0.3" />
<line x1="766" y1="51" x2="779" y2="53" stroke="black" stroke-width="1" />
<line x1="779" y1="53" x2="793" y2="51" stroke="black" stroke-width="1" />
<rect x="689" y="49" width="76" height="5" style="fill:#f5b024;stroke:black;stroke-width:1;fill-opacity:1;stroke-opacity:0.3" />
<rect x="793" y="49" width="76" height="5" style="fill:#f5b024;stroke:black;stroke-width:1;fill-opacity:1;stroke-opacity:0.3" />
<line x1="779" y1="58" x2="783" y2="60" stroke="black" stroke-width="1" />
<line x1="783" y1="60" x2="788" y2="58" stroke="black" stroke-width="1" />
<rect x="702" y="56" width="76" height="5" style="fill:#f5b024;stroke:black;stroke-width:1;fill-opacity:1;stroke-opacity:0.3" />
<rect x="788" y="56" width="76" height="5" style="fill:#f5b024;stroke:black;stroke-width:1;fill-opacity:1;stroke-opacity:0.3" />
<line x1="823" y1="65" x2="832" y2="67" stroke="black" stroke-width="1" />
<line x1="832" y1="67" x2="841" y2="65" stroke="black" stroke-width="1" />
<rect x="747" y="63" width="76" height="5" style="fill:#f5b024;stroke:black;stroke-width:1;fill-opacity:1;stroke-opacity:0.3" />
<rect x="841" y="63" width="76" height="5" style="fill:#f5b024;stroke:black;stroke-width:1;fill-opacity:1;stroke-opacity:0.3" />
<line x1="866" y1="72" x2="877" y2="74" stroke="black" stroke-width="1" />
<line x1="877" y1="74" x2="888" y2="72" stroke="black" stroke-width="1" />
<rect x="789" y="70" width="76" height="5" style="fill:#f5b024;stroke:black;stroke-width:1;fill-opacity:1;stroke-opacity:0.3" />
<rect x="888" y="70" width="76" height="5" style="fill:#f5b024;stroke:black;stroke-width:1;fill-opacity:1;stroke-opacity:0.3" />
<text x="15"  y="176" style="font-family:Arial;font-size:10;stroke:black;fill:black;">all.merged.bam</text>
</svg>
    
