<?xml version="1.0" encoding="utf-8" standalone="no"?>
<!DOCTYPE svg PUBLIC "-//W3C//DTD SVG 1.1//EN"
  "http://www.w3.org/Graphics/SVG/1.1/DTD/svg11.dtd">
<svg height="1140" width="1000" version="1.1" viewBox="0 0 1000 1140" xmlns="http://www.w3.org/2000/svg" xmlns:xlink="http://www.w3.org/1999/xlink">
<line x1="24" y1="11" x2="975" y2="11" stroke="black" stroke-width="1" />
<rect x="24" y="9" width="14" height="5" style="fill:#f50002;stroke:black;stroke-width:1;fill-opacity:1;stroke-opacity:0.3" />
<rect x="39" y="9" width="102" height="5" style="fill:#53a1b5;stroke:black;stroke-width:1;fill-opacity:1;stroke-opacity:0.3" />
<rect x="516" y="9" width="14" height="5" style="fill:#53a1b5;stroke:black;stroke-width:1;fill-opacity:1;stroke-opacity:0.3" />
<rect x="531" y="9" width="443" height="5" style="fill:#f50002;stroke:black;stroke-width:1;fill-opacity:1;stroke-opacity:0.3" />
<text x="24"  y="23" style="font-family:Arial;font-size:10;stroke:black;fill:black;">Cre16.g690509.t1.1.v5.5 (+) chromosome_16:3943218-3947059</text>
<line x1="26" y1="30" x2="27" y2="32" stroke="black" stroke-width="1" />
<line x1="27" y1="32" x2="29" y2="30" stroke="black" stroke-width="1" />
<rect x="1" y="28" width="24" height="5" style="fill:#5d3c2d;stroke:black;stroke-width:1;fill-opacity:1;stroke-opacity:0.3" />
<rect x="29" y="28" width="24" height="5" style="fill:#5d3c2d;stroke:black;stroke-width:1;fill-opacity:1;stroke-opacity:0.3" />
<line x1="53" y1="37" x2="57" y2="39" stroke="black" stroke-width="1" />
<line x1="57" y1="39" x2="61" y2="37" stroke="black" stroke-width="1" />
<rect x="16" y="35" width="37" height="5" style="fill:#5d3c2d;stroke:black;stroke-width:1;fill-opacity:1;stroke-opacity:0.3" />
<rect x="61" y="35" width="37" height="5" style="fill:#5d3c2d;stroke:black;stroke-width:1;fill-opacity:1;stroke-opacity:0.3" />
<line x1="53" y1="44" x2="66" y2="46" stroke="black" stroke-width="1" />
<line x1="66" y1="46" x2="79" y2="44" stroke="black" stroke-width="1" />
<rect x="30" y="42" width="23" height="5" style="fill:#5d3c2d;stroke:black;stroke-width:1;fill-opacity:1;stroke-opacity:0.3" />
<rect x="79" y="42" width="23" height="5" style="fill:#5d3c2d;stroke:black;stroke-width:1;fill-opacity:1;stroke-opacity:0.3" />
<line x1="106" y1="30" x2="108" y2="32" stroke="black" stroke-width="1" />
<line x1="108" y1="32" x2="111" y2="30" stroke="black" stroke-width="1" />
<rect x="70" y="28" width="35" height="5" style="fill:#5d3c2d;stroke:black;stroke-width:1;fill-opacity:1;stroke-opacity:0.3" />
<rect x="111" y="28" width="37" height="5" style="fill:#5d3c2d;stroke:black;stroke-width:1;fill-opacity:1;stroke-opacity:0.3" />
<line x1="175" y1="30" x2="178" y2="32" stroke="black" stroke-width="1" />
<line x1="178" y1="32" x2="182" y2="30" stroke="black" stroke-width="1" />
<rect x="150" y="28" width="24" height="5" style="fill:#5d3c2d;stroke:black;stroke-width:1;fill-opacity:1;stroke-opacity:0.3" />
<rect x="182" y="28" width="24" height="5" style="fill:#5d3c2d;stroke:black;stroke-width:1;fill-opacity:1;stroke-opacity:0.3" />
<line x1="230" y1="37" x2="231" y2="39" stroke="black" stroke-width="1" />
<line x1="231" y1="39" x2="233" y2="37" stroke="black" stroke-width="1" />
<rect x="193" y="35" width="36" height="5" style="fill:#5d3c2d;stroke:black;stroke-width:1;fill-opacity:1;stroke-opacity:0.3" />
<rect x="233" y="35" width="37" height="5" style="fill:#5d3c2d;stroke:black;stroke-width:1;fill-opacity:1;stroke-opacity:0.3" />
<line x1="313" y1="30" x2="317" y2="32" stroke="black" stroke-width="1" />
<line x1="317" y1="32" x2="321" y2="30" stroke="black" stroke-width="1" />
<rect x="289" y="28" width="24" height="5" style="fill:#5d3c2d;stroke:black;stroke-width:1;fill-opacity:1;stroke-opacity:0.3" />
<rect x="321" y="28" width="24" height="5" style="fill:#5d3c2d;stroke:black;stroke-width:1;fill-opacity:1;stroke-opacity:0.3" />
<line x1="324" y1="37" x2="328" y2="39" stroke="black" stroke-width="1" />
<line x1="328" y1="39" x2="332" y2="37" stroke="black" stroke-width="1" />
<rect x="300" y="35" width="24" height="5" style="fill:#5d3c2d;stroke:black;stroke-width:1;fill-opacity:1;stroke-opacity:0.3" />
<rect x="332" y="35" width="24" height="5" style="fill:#5d3c2d;stroke:black;stroke-width:1;fill-opacity:1;stroke-opacity:0.3" />
<line x1="328" y1="44" x2="330" y2="46" stroke="black" stroke-width="1" />
<line x1="330" y1="46" x2="332" y2="44" stroke="black" stroke-width="1" />
<rect x="304" y="42" width="24" height="5" style="fill:#5d3c2d;stroke:black;stroke-width:1;fill-opacity:1;stroke-opacity:0.3" />
<rect x="332" y="42" width="24" height="5" style="fill:#5d3c2d;stroke:black;stroke-width:1;fill-opacity:1;stroke-opacity:0.3" />
<line x1="360" y1="51" x2="363" y2="53" stroke="black" stroke-width="1" />
<line x1="363" y1="53" x2="366" y2="51" stroke="black" stroke-width="1" />
<rect x="323" y="49" width="37" height="5" style="fill:#5d3c2d;stroke:black;stroke-width:1;fill-opacity:1;stroke-opacity:0.3" />
<rect x="366" y="49" width="37" height="5" style="fill:#5d3c2d;stroke:black;stroke-width:1;fill-opacity:1;stroke-opacity:0.3" />
<line x1="373" y1="30" x2="378" y2="32" stroke="black" stroke-width="1" />
<line x1="378" y1="32" x2="384" y2="30" stroke="black" stroke-width="1" />
<rect x="348" y="28" width="24" height="5" style="fill:#5d3c2d;stroke:black;stroke-width:1;fill-opacity:1;stroke-opacity:0.3" />
<rect x="384" y="28" width="24" height="5" style="fill:#5d3c2d;stroke:black;stroke-width:1;fill-opacity:1;stroke-opacity:0.3" />
<line x1="456" y1="30" x2="460" y2="32" stroke="black" stroke-width="1" />
<line x1="460" y1="32" x2="464" y2="30" stroke="black" stroke-width="1" />
<rect x="431" y="28" width="24" height="5" style="fill:#5d3c2d;stroke:black;stroke-width:1;fill-opacity:1;stroke-opacity:0.3" />
<rect x="464" y="28" width="24" height="5" style="fill:#5d3c2d;stroke:black;stroke-width:1;fill-opacity:1;stroke-opacity:0.3" />
<line x1="542" y1="30" x2="546" y2="32" stroke="black" stroke-width="1" />
<line x1="546" y1="32" x2="551" y2="30" stroke="black" stroke-width="1" />
<rect x="517" y="28" width="24" height="5" style="fill:#5d3c2d;stroke:black;stroke-width:1;fill-opacity:1;stroke-opacity:0.3" />
<rect x="551" y="28" width="24" height="5" style="fill:#5d3c2d;stroke:black;stroke-width:1;fill-opacity:1;stroke-opacity:0.3" />
<line x1="605" y1="30" x2="607" y2="32" stroke="black" stroke-width="1" />
<line x1="607" y1="32" x2="610" y2="30" stroke="black" stroke-width="1" />
<rect x="581" y="28" width="24" height="5" style="fill:#5d3c2d;stroke:black;stroke-width:1;fill-opacity:1;stroke-opacity:0.3" />
<rect x="610" y="28" width="24" height="5" style="fill:#5d3c2d;stroke:black;stroke-width:1;fill-opacity:1;stroke-opacity:0.3" />
<line x1="656" y1="37" x2="662" y2="39" stroke="black" stroke-width="1" />
<line x1="662" y1="39" x2="668" y2="37" stroke="black" stroke-width="1" />
<rect x="619" y="35" width="37" height="5" style="fill:#5d3c2d;stroke:black;stroke-width:1;fill-opacity:1;stroke-opacity:0.3" />
<rect x="668" y="35" width="37" height="5" style="fill:#5d3c2d;stroke:black;stroke-width:1;fill-opacity:1;stroke-opacity:0.3" />
<line x1="652" y1="44" x2="660" y2="46" stroke="black" stroke-width="1" />
<line x1="660" y1="46" x2="668" y2="44" stroke="black" stroke-width="1" />
<rect x="627" y="42" width="24" height="5" style="fill:#5d3c2d;stroke:black;stroke-width:1;fill-opacity:1;stroke-opacity:0.3" />
<rect x="668" y="42" width="24" height="5" style="fill:#5d3c2d;stroke:black;stroke-width:1;fill-opacity:1;stroke-opacity:0.3" />
<line x1="660" y1="51" x2="664" y2="53" stroke="black" stroke-width="1" />
<line x1="664" y1="53" x2="668" y2="51" stroke="black" stroke-width="1" />
<rect x="635" y="49" width="24" height="5" style="fill:#5d3c2d;stroke:black;stroke-width:1;fill-opacity:1;stroke-opacity:0.3" />
<rect x="668" y="49" width="24" height="5" style="fill:#5d3c2d;stroke:black;stroke-width:1;fill-opacity:1;stroke-opacity:0.3" />
<line x1="710" y1="30" x2="713" y2="32" stroke="black" stroke-width="1" />
<line x1="713" y1="32" x2="717" y2="30" stroke="black" stroke-width="1" />
<rect x="685" y="28" width="24" height="5" style="fill:#5d3c2d;stroke:black;stroke-width:1;fill-opacity:1;stroke-opacity:0.3" />
<rect x="717" y="28" width="24" height="5" style="fill:#5d3c2d;stroke:black;stroke-width:1;fill-opacity:1;stroke-opacity:0.3" />
<line x1="760" y1="37" x2="761" y2="39" stroke="black" stroke-width="1" />
<line x1="761" y1="39" x2="763" y2="37" stroke="black" stroke-width="1" />
<rect x="723" y="35" width="33" height="5" style="fill:#5d3c2d;stroke:black;stroke-width:1;fill-opacity:1;stroke-opacity:0.3" />
<line x1="756" y1="37" x2="757" y2="37" stroke="pink" stroke-width="1" />
<rect x="757" y="35" width="3" height="5" style="fill:#5d3c2d;stroke:black;stroke-width:1;fill-opacity:1;stroke-opacity:0.3" />
<rect x="763" y="35" width="7" height="5" style="fill:#5d3c2d;stroke:black;stroke-width:1;fill-opacity:1;stroke-opacity:0.3" />
<line x1="771" y1="37" x2="772" y2="37" stroke="pink" stroke-width="1" />
<rect x="772" y="35" width="25" height="5" style="fill:#5d3c2d;stroke:black;stroke-width:1;fill-opacity:1;stroke-opacity:0.3" />
<line x1="764" y1="44" x2="767" y2="46" stroke="black" stroke-width="1" />
<line x1="767" y1="46" x2="771" y2="44" stroke="black" stroke-width="1" />
<rect x="727" y="42" width="28" height="5" style="fill:#5d3c2d;stroke:black;stroke-width:1;fill-opacity:1;stroke-opacity:0.3" />
<line x1="756" y1="44" x2="757" y2="44" stroke="pink" stroke-width="1" />
<rect x="757" y="42" width="7" height="5" style="fill:#5d3c2d;stroke:black;stroke-width:1;fill-opacity:1;stroke-opacity:0.3" />
<rect x="771" y="42" width="31" height="5" style="fill:#5d3c2d;stroke:black;stroke-width:1;fill-opacity:1;stroke-opacity:0.3" />
<line x1="764" y1="51" x2="765" y2="53" stroke="black" stroke-width="1" />
<line x1="765" y1="53" x2="767" y2="51" stroke="black" stroke-width="1" />
<rect x="727" y="49" width="28" height="5" style="fill:#5d3c2d;stroke:black;stroke-width:1;fill-opacity:1;stroke-opacity:0.3" />
<line x1="756" y1="51" x2="757" y2="51" stroke="pink" stroke-width="1" />
<rect x="757" y="49" width="7" height="5" style="fill:#5d3c2d;stroke:black;stroke-width:1;fill-opacity:1;stroke-opacity:0.3" />
<rect x="767" y="49" width="3" height="5" style="fill:#5d3c2d;stroke:black;stroke-width:1;fill-opacity:1;stroke-opacity:0.3" />
<line x1="771" y1="51" x2="772" y2="51" stroke="pink" stroke-width="1" />
<rect x="772" y="49" width="32" height="5" style="fill:#5d3c2d;stroke:black;stroke-width:1;fill-opacity:1;stroke-opacity:0.3" />
<line x1="760" y1="58" x2="769" y2="60" stroke="black" stroke-width="1" />
<line x1="769" y1="60" x2="778" y2="58" stroke="black" stroke-width="1" />
<rect x="735" y="56" width="21" height="5" style="fill:#5d3c2d;stroke:black;stroke-width:1;fill-opacity:1;stroke-opacity:0.3" />
<line x1="756" y1="58" x2="757" y2="58" stroke="pink" stroke-width="1" />
<rect x="757" y="56" width="2" height="5" style="fill:#5d3c2d;stroke:black;stroke-width:1;fill-opacity:1;stroke-opacity:0.3" />
<rect x="778" y="56" width="24" height="5" style="fill:#5d3c2d;stroke:black;stroke-width:1;fill-opacity:1;stroke-opacity:0.3" />
<line x1="761" y1="65" x2="766" y2="67" stroke="black" stroke-width="1" />
<line x1="766" y1="67" x2="771" y2="65" stroke="black" stroke-width="1" />
<rect x="737" y="63" width="19" height="5" style="fill:#5d3c2d;stroke:black;stroke-width:1;fill-opacity:1;stroke-opacity:0.3" />
<line x1="756" y1="65" x2="757" y2="65" stroke="pink" stroke-width="1" />
<rect x="757" y="63" width="4" height="5" style="fill:#5d3c2d;stroke:black;stroke-width:1;fill-opacity:1;stroke-opacity:0.3" />
<rect x="771" y="63" width="24" height="5" style="fill:#5d3c2d;stroke:black;stroke-width:1;fill-opacity:1;stroke-opacity:0.3" />
<line x1="761" y1="72" x2="766" y2="74" stroke="black" stroke-width="1" />
<line x1="766" y1="74" x2="772" y2="72" stroke="black" stroke-width="1" />
<rect x="737" y="70" width="19" height="5" style="fill:#5d3c2d;stroke:black;stroke-width:1;fill-opacity:1;stroke-opacity:0.3" />
<line x1="756" y1="72" x2="757" y2="72" stroke="pink" stroke-width="1" />
<rect x="757" y="70" width="4" height="5" style="fill:#5d3c2d;stroke:black;stroke-width:1;fill-opacity:1;stroke-opacity:0.3" />
<rect x="772" y="70" width="24" height="5" style="fill:#5d3c2d;stroke:black;stroke-width:1;fill-opacity:1;stroke-opacity:0.3" />
<line x1="789" y1="30" x2="793" y2="32" stroke="black" stroke-width="1" />
<line x1="793" y1="32" x2="798" y2="30" stroke="black" stroke-width="1" />
<rect x="764" y="28" width="6" height="5" style="fill:#5d3c2d;stroke:black;stroke-width:1;fill-opacity:1;stroke-opacity:0.3" />
<line x1="771" y1="30" x2="772" y2="30" stroke="pink" stroke-width="1" />
<rect x="772" y="28" width="17" height="5" style="fill:#5d3c2d;stroke:black;stroke-width:1;fill-opacity:1;stroke-opacity:0.3" />
<rect x="798" y="28" width="24" height="5" style="fill:#5d3c2d;stroke:black;stroke-width:1;fill-opacity:1;stroke-opacity:0.3" />
<line x1="803" y1="79" x2="808" y2="81" stroke="black" stroke-width="1" />
<line x1="808" y1="81" x2="814" y2="79" stroke="black" stroke-width="1" />
<rect x="779" y="77" width="24" height="5" style="fill:#5d3c2d;stroke:black;stroke-width:1;fill-opacity:1;stroke-opacity:0.3" />
<rect x="814" y="77" width="24" height="5" style="fill:#5d3c2d;stroke:black;stroke-width:1;fill-opacity:1;stroke-opacity:0.3" />
<line x1="808" y1="86" x2="815" y2="88" stroke="black" stroke-width="1" />
<line x1="815" y1="88" x2="823" y2="86" stroke="black" stroke-width="1" />
<rect x="783" y="84" width="24" height="5" style="fill:#5d3c2d;stroke:black;stroke-width:1;fill-opacity:1;stroke-opacity:0.3" />
<rect x="823" y="84" width="24" height="5" style="fill:#5d3c2d;stroke:black;stroke-width:1;fill-opacity:1;stroke-opacity:0.3" />
<line x1="832" y1="93" x2="837" y2="95" stroke="black" stroke-width="1" />
<line x1="837" y1="95" x2="842" y2="93" stroke="black" stroke-width="1" />
<rect x="795" y="91" width="36" height="5" style="fill:#5d3c2d;stroke:black;stroke-width:1;fill-opacity:1;stroke-opacity:0.3" />
<rect x="842" y="91" width="37" height="5" style="fill:#5d3c2d;stroke:black;stroke-width:1;fill-opacity:1;stroke-opacity:0.3" />
<line x1="825" y1="37" x2="826" y2="39" stroke="black" stroke-width="1" />
<line x1="826" y1="39" x2="828" y2="37" stroke="black" stroke-width="1" />
<rect x="800" y="35" width="24" height="5" style="fill:#5d3c2d;stroke:black;stroke-width:1;fill-opacity:1;stroke-opacity:0.3" />
<rect x="828" y="35" width="24" height="5" style="fill:#5d3c2d;stroke:black;stroke-width:1;fill-opacity:1;stroke-opacity:0.3" />
<line x1="825" y1="65" x2="826" y2="67" stroke="black" stroke-width="1" />
<line x1="826" y1="67" x2="828" y2="65" stroke="black" stroke-width="1" />
<rect x="800" y="63" width="24" height="5" style="fill:#5d3c2d;stroke:black;stroke-width:1;fill-opacity:1;stroke-opacity:0.3" />
<rect x="828" y="63" width="24" height="5" style="fill:#5d3c2d;stroke:black;stroke-width:1;fill-opacity:1;stroke-opacity:0.3" />
<line x1="833" y1="44" x2="835" y2="46" stroke="black" stroke-width="1" />
<line x1="835" y1="46" x2="837" y2="44" stroke="black" stroke-width="1" />
<rect x="808" y="42" width="24" height="5" style="fill:#f5b024;stroke:black;stroke-width:1;fill-opacity:1;stroke-opacity:0.3" />
<rect x="837" y="42" width="24" height="5" style="fill:#f5b024;stroke:black;stroke-width:1;fill-opacity:1;stroke-opacity:0.3" />
<line x1="833" y1="51" x2="834" y2="53" stroke="black" stroke-width="1" />
<line x1="834" y1="53" x2="836" y2="51" stroke="black" stroke-width="1" />
<rect x="808" y="49" width="24" height="5" style="fill:#f5b024;stroke:black;stroke-width:1;fill-opacity:1;stroke-opacity:0.3" />
<rect x="836" y="49" width="24" height="5" style="fill:#f5b024;stroke:black;stroke-width:1;fill-opacity:1;stroke-opacity:0.3" />
<line x1="833" y1="58" x2="834" y2="60" stroke="black" stroke-width="1" />
<line x1="834" y1="60" x2="836" y2="58" stroke="black" stroke-width="1" />
<rect x="808" y="56" width="24" height="5" style="fill:#f5b024;stroke:black;stroke-width:1;fill-opacity:1;stroke-opacity:0.3" />
<rect x="836" y="56" width="24" height="5" style="fill:#f5b024;stroke:black;stroke-width:1;fill-opacity:1;stroke-opacity:0.3" />
<line x1="839" y1="72" x2="846" y2="74" stroke="black" stroke-width="1" />
<line x1="846" y1="74" x2="854" y2="72" stroke="black" stroke-width="1" />
<rect x="814" y="70" width="24" height="5" style="fill:#5d3c2d;stroke:black;stroke-width:1;fill-opacity:1;stroke-opacity:0.3" />
<rect x="854" y="70" width="24" height="5" style="fill:#5d3c2d;stroke:black;stroke-width:1;fill-opacity:1;stroke-opacity:0.3" />
<line x1="858" y1="30" x2="862" y2="32" stroke="black" stroke-width="1" />
<line x1="862" y1="32" x2="867" y2="30" stroke="black" stroke-width="1" />
<rect x="833" y="28" width="24" height="5" style="fill:#5d3c2d;stroke:black;stroke-width:1;fill-opacity:1;stroke-opacity:0.3" />
<rect x="867" y="28" width="24" height="5" style="fill:#5d3c2d;stroke:black;stroke-width:1;fill-opacity:1;stroke-opacity:0.3" />
<line x1="891" y1="37" x2="894" y2="39" stroke="black" stroke-width="1" />
<line x1="894" y1="39" x2="898" y2="37" stroke="black" stroke-width="1" />
<rect x="867" y="35" width="24" height="5" style="fill:#5d3c2d;stroke:black;stroke-width:1;fill-opacity:1;stroke-opacity:0.3" />
<rect x="898" y="35" width="24" height="5" style="fill:#5d3c2d;stroke:black;stroke-width:1;fill-opacity:1;stroke-opacity:0.3" />
<line x1="891" y1="44" x2="894" y2="46" stroke="black" stroke-width="1" />
<line x1="894" y1="46" x2="898" y2="44" stroke="black" stroke-width="1" />
<rect x="867" y="42" width="24" height="5" style="fill:#5d3c2d;stroke:black;stroke-width:1;fill-opacity:1;stroke-opacity:0.3" />
<rect x="898" y="42" width="24" height="5" style="fill:#5d3c2d;stroke:black;stroke-width:1;fill-opacity:1;stroke-opacity:0.3" />
<text x="15"  y="176" style="font-family:Arial;font-size:10;stroke:black;fill:black;">all.merged.bam</text>
</svg>
    
