<?xml version="1.0" encoding="utf-8" standalone="no"?>
<!DOCTYPE svg PUBLIC "-//W3C//DTD SVG 1.1//EN"
  "http://www.w3.org/Graphics/SVG/1.1/DTD/svg11.dtd">
<svg height="1140" width="1000" version="1.1" viewBox="0 0 1000 1140" xmlns="http://www.w3.org/2000/svg" xmlns:xlink="http://www.w3.org/1999/xlink">
<line x1="68" y1="11" x2="930" y2="11" stroke="black" stroke-width="1" />
<rect x="68" y="9" width="557" height="5" style="fill:#f50002;stroke:black;stroke-width:1;fill-opacity:1;stroke-opacity:0.3" />
<rect x="626" y="9" width="192" height="5" style="fill:#53a1b5;stroke:black;stroke-width:1;fill-opacity:1;stroke-opacity:0.3" />
<rect x="819" y="9" width="111" height="5" style="fill:#f50002;stroke:black;stroke-width:1;fill-opacity:1;stroke-opacity:0.3" />
<text x="68"  y="23" style="font-family:Arial;font-size:10;stroke:black;fill:black;">Cre12.g518002.t1.1.v5.5 (-) chromosome_12:4111925-4113185</text>
<line x1="135" y1="30" x2="144" y2="32" stroke="black" stroke-width="1" />
<line x1="144" y1="32" x2="154" y2="30" stroke="black" stroke-width="1" />
<rect x="67" y="28" width="68" height="5" style="fill:#f5b024;stroke:black;stroke-width:1;fill-opacity:1;stroke-opacity:0.3" />
<rect x="154" y="28" width="68" height="5" style="fill:#f5b024;stroke:black;stroke-width:1;fill-opacity:1;stroke-opacity:0.3" />
<line x1="135" y1="37" x2="162" y2="39" stroke="black" stroke-width="1" />
<line x1="162" y1="39" x2="190" y2="37" stroke="black" stroke-width="1" />
<rect x="67" y="35" width="67" height="5" style="fill:#f5b024;stroke:black;stroke-width:1;fill-opacity:1;stroke-opacity:0.3" />
<rect x="190" y="35" width="68" height="5" style="fill:#f5b024;stroke:black;stroke-width:1;fill-opacity:1;stroke-opacity:0.3" />
<line x1="138" y1="44" x2="150" y2="46" stroke="black" stroke-width="1" />
<line x1="150" y1="46" x2="162" y2="44" stroke="black" stroke-width="1" />
<rect x="71" y="42" width="67" height="5" style="fill:#f5b024;stroke:black;stroke-width:1;fill-opacity:1;stroke-opacity:0.3" />
<rect x="162" y="42" width="68" height="5" style="fill:#f5b024;stroke:black;stroke-width:1;fill-opacity:1;stroke-opacity:0.3" />
<line x1="140" y1="51" x2="149" y2="53" stroke="black" stroke-width="1" />
<line x1="149" y1="53" x2="159" y2="51" stroke="black" stroke-width="1" />
<rect x="71" y="49" width="7" height="5" style="fill:#f5b024;stroke:black;stroke-width:1;fill-opacity:1;stroke-opacity:0.3" />
<rect x="79" y="49" width="60" height="5" style="fill:#f5b024;stroke:black;stroke-width:1;fill-opacity:1;stroke-opacity:0.3" />
<rect x="159" y="49" width="68" height="5" style="fill:#f5b024;stroke:black;stroke-width:1;fill-opacity:1;stroke-opacity:0.3" />
<line x1="156" y1="58" x2="161" y2="60" stroke="black" stroke-width="1" />
<line x1="161" y1="60" x2="167" y2="58" stroke="black" stroke-width="1" />
<rect x="87" y="56" width="68" height="5" style="fill:#f5b024;stroke:black;stroke-width:1;fill-opacity:1;stroke-opacity:0.3" />
<rect x="167" y="56" width="68" height="5" style="fill:#f5b024;stroke:black;stroke-width:1;fill-opacity:1;stroke-opacity:0.3" />
<line x1="206" y1="65" x2="214" y2="67" stroke="black" stroke-width="1" />
<line x1="214" y1="67" x2="223" y2="65" stroke="black" stroke-width="1" />
<rect x="104" y="63" width="102" height="5" style="fill:#f5b024;stroke:black;stroke-width:1;fill-opacity:1;stroke-opacity:0.3" />
<rect x="223" y="63" width="102" height="5" style="fill:#f5b024;stroke:black;stroke-width:1;fill-opacity:1;stroke-opacity:0.3" />
<line x1="188" y1="72" x2="197" y2="74" stroke="black" stroke-width="1" />
<line x1="197" y1="74" x2="206" y2="72" stroke="black" stroke-width="1" />
<rect x="122" y="70" width="65" height="5" style="fill:#5d3c2d;stroke:black;stroke-width:1;fill-opacity:1;stroke-opacity:0.3" />
<rect x="206" y="70" width="68" height="5" style="fill:#5d3c2d;stroke:black;stroke-width:1;fill-opacity:1;stroke-opacity:0.3" />
<line x1="207" y1="79" x2="232" y2="81" stroke="black" stroke-width="1" />
<line x1="232" y1="81" x2="257" y2="79" stroke="black" stroke-width="1" />
<rect x="138" y="77" width="68" height="5" style="fill:#f5b024;stroke:black;stroke-width:1;fill-opacity:1;stroke-opacity:0.3" />
<rect x="257" y="77" width="68" height="5" style="fill:#f5b024;stroke:black;stroke-width:1;fill-opacity:1;stroke-opacity:0.3" />
<line x1="263" y1="86" x2="278" y2="88" stroke="black" stroke-width="1" />
<line x1="278" y1="88" x2="293" y2="86" stroke="black" stroke-width="1" />
<rect x="160" y="84" width="102" height="5" style="fill:#f5b024;stroke:black;stroke-width:1;fill-opacity:1;stroke-opacity:0.3" />
<rect x="293" y="84" width="102" height="5" style="fill:#f5b024;stroke:black;stroke-width:1;fill-opacity:1;stroke-opacity:0.3" />
<line x1="232" y1="93" x2="245" y2="95" stroke="black" stroke-width="1" />
<line x1="245" y1="95" x2="258" y2="93" stroke="black" stroke-width="1" />
<rect x="164" y="91" width="68" height="5" style="fill:#f5b024;stroke:black;stroke-width:1;fill-opacity:1;stroke-opacity:0.3" />
<rect x="258" y="91" width="68" height="5" style="fill:#f5b024;stroke:black;stroke-width:1;fill-opacity:1;stroke-opacity:0.3" />
<line x1="253" y1="100" x2="268" y2="102" stroke="black" stroke-width="1" />
<line x1="268" y1="102" x2="284" y2="100" stroke="black" stroke-width="1" />
<rect x="184" y="98" width="68" height="5" style="fill:#f5b024;stroke:black;stroke-width:1;fill-opacity:1;stroke-opacity:0.3" />
<rect x="284" y="98" width="68" height="5" style="fill:#f5b024;stroke:black;stroke-width:1;fill-opacity:1;stroke-opacity:0.3" />
<line x1="258" y1="107" x2="262" y2="109" stroke="black" stroke-width="1" />
<line x1="262" y1="109" x2="267" y2="107" stroke="black" stroke-width="1" />
<rect x="189" y="105" width="68" height="5" style="fill:#f5b024;stroke:black;stroke-width:1;fill-opacity:1;stroke-opacity:0.3" />
<rect x="267" y="105" width="68" height="5" style="fill:#f5b024;stroke:black;stroke-width:1;fill-opacity:1;stroke-opacity:0.3" />
<line x1="263" y1="114" x2="286" y2="116" stroke="black" stroke-width="1" />
<line x1="286" y1="116" x2="310" y2="114" stroke="black" stroke-width="1" />
<rect x="195" y="112" width="67" height="5" style="fill:#f5b024;stroke:black;stroke-width:1;fill-opacity:1;stroke-opacity:0.3" />
<rect x="310" y="112" width="68" height="5" style="fill:#f5b024;stroke:black;stroke-width:1;fill-opacity:1;stroke-opacity:0.3" />
<line x1="299" y1="121" x2="304" y2="123" stroke="black" stroke-width="1" />
<line x1="304" y1="123" x2="310" y2="121" stroke="black" stroke-width="1" />
<rect x="197" y="119" width="102" height="5" style="fill:#f5b024;stroke:black;stroke-width:1;fill-opacity:1;stroke-opacity:0.3" />
<rect x="310" y="119" width="102" height="5" style="fill:#f5b024;stroke:black;stroke-width:1;fill-opacity:1;stroke-opacity:0.3" />
<line x1="299" y1="128" x2="304" y2="130" stroke="black" stroke-width="1" />
<line x1="304" y1="130" x2="310" y2="128" stroke="black" stroke-width="1" />
<rect x="197" y="126" width="102" height="5" style="fill:#f5b024;stroke:black;stroke-width:1;fill-opacity:1;stroke-opacity:0.3" />
<rect x="310" y="126" width="101" height="5" style="fill:#f5b024;stroke:black;stroke-width:1;fill-opacity:1;stroke-opacity:0.3" />
<line x1="275" y1="135" x2="292" y2="137" stroke="black" stroke-width="1" />
<line x1="292" y1="137" x2="310" y2="135" stroke="black" stroke-width="1" />
<rect x="207" y="133" width="68" height="5" style="fill:#f5b024;stroke:black;stroke-width:1;fill-opacity:1;stroke-opacity:0.3" />
<rect x="310" y="133" width="68" height="5" style="fill:#f5b024;stroke:black;stroke-width:1;fill-opacity:1;stroke-opacity:0.3" />
<line x1="393" y1="30" x2="406" y2="32" stroke="black" stroke-width="1" />
<line x1="406" y1="32" x2="420" y2="30" stroke="black" stroke-width="1" />
<rect x="325" y="28" width="68" height="5" style="fill:#f5b024;stroke:black;stroke-width:1;fill-opacity:1;stroke-opacity:0.3" />
<rect x="420" y="28" width="68" height="5" style="fill:#f5b024;stroke:black;stroke-width:1;fill-opacity:1;stroke-opacity:0.3" />
<line x1="394" y1="37" x2="401" y2="39" stroke="black" stroke-width="1" />
<line x1="401" y1="39" x2="409" y2="37" stroke="black" stroke-width="1" />
<rect x="325" y="35" width="68" height="5" style="fill:#f5b024;stroke:black;stroke-width:1;fill-opacity:1;stroke-opacity:0.3" />
<rect x="409" y="35" width="68" height="5" style="fill:#f5b024;stroke:black;stroke-width:1;fill-opacity:1;stroke-opacity:0.3" />
<line x1="394" y1="44" x2="397" y2="46" stroke="black" stroke-width="1" />
<line x1="397" y1="46" x2="401" y2="44" stroke="black" stroke-width="1" />
<rect x="326" y="42" width="68" height="5" style="fill:#f5b024;stroke:black;stroke-width:1;fill-opacity:1;stroke-opacity:0.3" />
<rect x="401" y="42" width="68" height="5" style="fill:#f5b024;stroke:black;stroke-width:1;fill-opacity:1;stroke-opacity:0.3" />
<line x1="405" y1="51" x2="421" y2="53" stroke="black" stroke-width="1" />
<line x1="421" y1="53" x2="438" y2="51" stroke="black" stroke-width="1" />
<rect x="337" y="49" width="68" height="5" style="fill:#f5b024;stroke:black;stroke-width:1;fill-opacity:1;stroke-opacity:0.3" />
<rect x="438" y="49" width="68" height="5" style="fill:#f5b024;stroke:black;stroke-width:1;fill-opacity:1;stroke-opacity:0.3" />
<line x1="409" y1="58" x2="418" y2="60" stroke="black" stroke-width="1" />
<line x1="418" y1="60" x2="428" y2="58" stroke="black" stroke-width="1" />
<rect x="341" y="56" width="67" height="5" style="fill:#f5b024;stroke:black;stroke-width:1;fill-opacity:1;stroke-opacity:0.3" />
<rect x="428" y="56" width="68" height="5" style="fill:#f5b024;stroke:black;stroke-width:1;fill-opacity:1;stroke-opacity:0.3" />
<line x1="410" y1="65" x2="420" y2="67" stroke="black" stroke-width="1" />
<line x1="420" y1="67" x2="431" y2="65" stroke="black" stroke-width="1" />
<rect x="342" y="63" width="68" height="5" style="fill:#f5b024;stroke:black;stroke-width:1;fill-opacity:1;stroke-opacity:0.3" />
<rect x="431" y="63" width="68" height="5" style="fill:#f5b024;stroke:black;stroke-width:1;fill-opacity:1;stroke-opacity:0.3" />
<line x1="414" y1="72" x2="433" y2="74" stroke="black" stroke-width="1" />
<line x1="433" y1="74" x2="453" y2="72" stroke="black" stroke-width="1" />
<rect x="347" y="70" width="67" height="5" style="fill:#f5b024;stroke:black;stroke-width:1;fill-opacity:1;stroke-opacity:0.3" />
<rect x="453" y="70" width="68" height="5" style="fill:#f5b024;stroke:black;stroke-width:1;fill-opacity:1;stroke-opacity:0.3" />
<line x1="442" y1="79" x2="457" y2="81" stroke="black" stroke-width="1" />
<line x1="457" y1="81" x2="472" y2="79" stroke="black" stroke-width="1" />
<rect x="373" y="77" width="68" height="5" style="fill:#f5b024;stroke:black;stroke-width:1;fill-opacity:1;stroke-opacity:0.3" />
<rect x="472" y="77" width="68" height="5" style="fill:#f5b024;stroke:black;stroke-width:1;fill-opacity:1;stroke-opacity:0.3" />
<line x1="444" y1="93" x2="457" y2="95" stroke="black" stroke-width="1" />
<line x1="457" y1="95" x2="470" y2="93" stroke="black" stroke-width="1" />
<rect x="375" y="91" width="68" height="5" style="fill:#f5b024;stroke:black;stroke-width:1;fill-opacity:1;stroke-opacity:0.3" />
<rect x="470" y="91" width="68" height="5" style="fill:#f5b024;stroke:black;stroke-width:1;fill-opacity:1;stroke-opacity:0.3" />
<line x1="464" y1="86" x2="492" y2="88" stroke="black" stroke-width="1" />
<line x1="492" y1="88" x2="521" y2="86" stroke="black" stroke-width="1" />
<rect x="396" y="84" width="67" height="5" style="fill:#f5b024;stroke:black;stroke-width:1;fill-opacity:1;stroke-opacity:0.3" />
<rect x="521" y="84" width="68" height="5" style="fill:#f5b024;stroke:black;stroke-width:1;fill-opacity:1;stroke-opacity:0.3" />
<line x1="465" y1="100" x2="471" y2="102" stroke="black" stroke-width="1" />
<line x1="471" y1="102" x2="478" y2="100" stroke="black" stroke-width="1" />
<rect x="396" y="98" width="68" height="5" style="fill:#5d3c2d;stroke:black;stroke-width:1;fill-opacity:1;stroke-opacity:0.3" />
<rect x="478" y="98" width="68" height="5" style="fill:#5d3c2d;stroke:black;stroke-width:1;fill-opacity:1;stroke-opacity:0.3" />
<line x1="473" y1="107" x2="478" y2="109" stroke="black" stroke-width="1" />
<line x1="478" y1="109" x2="483" y2="107" stroke="black" stroke-width="1" />
<rect x="407" y="105" width="66" height="5" style="fill:#f5b024;stroke:black;stroke-width:1;fill-opacity:1;stroke-opacity:0.3" />
<rect x="483" y="105" width="68" height="5" style="fill:#f5b024;stroke:black;stroke-width:1;fill-opacity:1;stroke-opacity:0.3" />
<line x1="492" y1="114" x2="505" y2="116" stroke="black" stroke-width="1" />
<line x1="505" y1="116" x2="519" y2="114" stroke="black" stroke-width="1" />
<rect x="424" y="112" width="68" height="5" style="fill:#f5b024;stroke:black;stroke-width:1;fill-opacity:1;stroke-opacity:0.3" />
<rect x="519" y="112" width="68" height="5" style="fill:#f5b024;stroke:black;stroke-width:1;fill-opacity:1;stroke-opacity:0.3" />
<line x1="496" y1="121" x2="502" y2="123" stroke="black" stroke-width="1" />
<line x1="502" y1="123" x2="509" y2="121" stroke="black" stroke-width="1" />
<rect x="427" y="119" width="68" height="5" style="fill:#f5b024;stroke:black;stroke-width:1;fill-opacity:1;stroke-opacity:0.3" />
<rect x="509" y="119" width="68" height="5" style="fill:#f5b024;stroke:black;stroke-width:1;fill-opacity:1;stroke-opacity:0.3" />
<line x1="497" y1="128" x2="518" y2="130" stroke="black" stroke-width="1" />
<line x1="518" y1="130" x2="540" y2="128" stroke="black" stroke-width="1" />
<rect x="429" y="126" width="68" height="5" style="fill:#f5b024;stroke:black;stroke-width:1;fill-opacity:1;stroke-opacity:0.3" />
<rect x="540" y="126" width="68" height="5" style="fill:#f5b024;stroke:black;stroke-width:1;fill-opacity:1;stroke-opacity:0.3" />
<line x1="531" y1="135" x2="547" y2="137" stroke="black" stroke-width="1" />
<line x1="547" y1="137" x2="563" y2="135" stroke="black" stroke-width="1" />
<rect x="429" y="133" width="102" height="5" style="fill:#f5b024;stroke:black;stroke-width:1;fill-opacity:1;stroke-opacity:0.3" />
<rect x="563" y="133" width="45" height="5" style="fill:#f5b024;stroke:black;stroke-width:1;fill-opacity:1;stroke-opacity:0.3" />
<line x1="609" y1="135" x2="679" y2="135" stroke="pink" stroke-width="1" />
<rect x="679" y="133" width="57" height="5" style="fill:#f5b024;stroke:black;stroke-width:1;fill-opacity:1;stroke-opacity:0.3" />
<line x1="535" y1="142" x2="543" y2="144" stroke="black" stroke-width="1" />
<line x1="543" y1="144" x2="551" y2="142" stroke="black" stroke-width="1" />
<rect x="466" y="140" width="68" height="5" style="fill:#f5b024;stroke:black;stroke-width:1;fill-opacity:1;stroke-opacity:0.3" />
<rect x="551" y="140" width="68" height="5" style="fill:#f5b024;stroke:black;stroke-width:1;fill-opacity:1;stroke-opacity:0.3" />
<line x1="537" y1="149" x2="560" y2="151" stroke="black" stroke-width="1" />
<line x1="560" y1="151" x2="583" y2="149" stroke="black" stroke-width="1" />
<rect x="468" y="147" width="68" height="5" style="fill:#f5b024;stroke:black;stroke-width:1;fill-opacity:1;stroke-opacity:0.3" />
<rect x="583" y="147" width="68" height="5" style="fill:#f5b024;stroke:black;stroke-width:1;fill-opacity:1;stroke-opacity:0.3" />
<line x1="537" y1="156" x2="548" y2="158" stroke="black" stroke-width="1" />
<line x1="548" y1="158" x2="559" y2="156" stroke="black" stroke-width="1" />
<rect x="468" y="154" width="68" height="5" style="fill:#f5b024;stroke:black;stroke-width:1;fill-opacity:1;stroke-opacity:0.3" />
<rect x="559" y="154" width="68" height="5" style="fill:#f5b024;stroke:black;stroke-width:1;fill-opacity:1;stroke-opacity:0.3" />
<line x1="537" y1="163" x2="561" y2="165" stroke="black" stroke-width="1" />
<line x1="561" y1="165" x2="586" y2="163" stroke="black" stroke-width="1" />
<rect x="469" y="161" width="68" height="5" style="fill:#f5b024;stroke:black;stroke-width:1;fill-opacity:1;stroke-opacity:0.3" />
<rect x="586" y="161" width="68" height="5" style="fill:#f5b024;stroke:black;stroke-width:1;fill-opacity:1;stroke-opacity:0.3" />
<line x1="542" y1="44" x2="558" y2="46" stroke="black" stroke-width="1" />
<line x1="558" y1="46" x2="574" y2="44" stroke="black" stroke-width="1" />
<rect x="474" y="42" width="67" height="5" style="fill:#f5b024;stroke:black;stroke-width:1;fill-opacity:1;stroke-opacity:0.3" />
<rect x="574" y="42" width="68" height="5" style="fill:#f5b024;stroke:black;stroke-width:1;fill-opacity:1;stroke-opacity:0.3" />
<line x1="571" y1="30" x2="591" y2="32" stroke="black" stroke-width="1" />
<line x1="591" y1="32" x2="611" y2="30" stroke="black" stroke-width="1" />
<rect x="503" y="28" width="68" height="5" style="fill:#f5b024;stroke:black;stroke-width:1;fill-opacity:1;stroke-opacity:0.3" />
<rect x="611" y="28" width="68" height="5" style="fill:#f5b024;stroke:black;stroke-width:1;fill-opacity:1;stroke-opacity:0.3" />
<line x1="571" y1="37" x2="591" y2="39" stroke="black" stroke-width="1" />
<line x1="591" y1="39" x2="611" y2="37" stroke="black" stroke-width="1" />
<rect x="503" y="35" width="68" height="5" style="fill:#f5b024;stroke:black;stroke-width:1;fill-opacity:1;stroke-opacity:0.3" />
<rect x="611" y="35" width="68" height="5" style="fill:#f5b024;stroke:black;stroke-width:1;fill-opacity:1;stroke-opacity:0.3" />
<line x1="571" y1="58" x2="591" y2="60" stroke="black" stroke-width="1" />
<line x1="591" y1="60" x2="611" y2="58" stroke="black" stroke-width="1" />
<rect x="503" y="56" width="68" height="5" style="fill:#f5b024;stroke:black;stroke-width:1;fill-opacity:1;stroke-opacity:0.3" />
<rect x="611" y="56" width="68" height="5" style="fill:#f5b024;stroke:black;stroke-width:1;fill-opacity:1;stroke-opacity:0.3" />
<line x1="572" y1="65" x2="583" y2="67" stroke="black" stroke-width="1" />
<line x1="583" y1="67" x2="594" y2="65" stroke="black" stroke-width="1" />
<rect x="504" y="63" width="68" height="5" style="fill:#f5b024;stroke:black;stroke-width:1;fill-opacity:1;stroke-opacity:0.3" />
<rect x="594" y="63" width="15" height="5" style="fill:#f5b024;stroke:black;stroke-width:1;fill-opacity:1;stroke-opacity:0.3" />
<line x1="609" y1="65" x2="679" y2="65" stroke="pink" stroke-width="1" />
<rect x="679" y="63" width="53" height="5" style="fill:#f5b024;stroke:black;stroke-width:1;fill-opacity:1;stroke-opacity:0.3" />
<line x1="578" y1="51" x2="590" y2="53" stroke="black" stroke-width="1" />
<line x1="590" y1="53" x2="603" y2="51" stroke="black" stroke-width="1" />
<rect x="509" y="49" width="68" height="5" style="fill:#f5b024;stroke:black;stroke-width:1;fill-opacity:1;stroke-opacity:0.3" />
<rect x="603" y="49" width="68" height="5" style="fill:#f5b024;stroke:black;stroke-width:1;fill-opacity:1;stroke-opacity:0.3" />
<line x1="633" y1="72" x2="639" y2="74" stroke="black" stroke-width="1" />
<line x1="639" y1="74" x2="646" y2="72" stroke="black" stroke-width="1" />
<rect x="564" y="70" width="68" height="5" style="fill:#f5b024;stroke:black;stroke-width:1;fill-opacity:1;stroke-opacity:0.3" />
<rect x="646" y="70" width="68" height="5" style="fill:#f5b024;stroke:black;stroke-width:1;fill-opacity:1;stroke-opacity:0.3" />
<line x1="633" y1="79" x2="639" y2="81" stroke="black" stroke-width="1" />
<line x1="639" y1="81" x2="646" y2="79" stroke="black" stroke-width="1" />
<rect x="564" y="77" width="68" height="5" style="fill:#f5b024;stroke:black;stroke-width:1;fill-opacity:1;stroke-opacity:0.3" />
<rect x="646" y="77" width="68" height="5" style="fill:#f5b024;stroke:black;stroke-width:1;fill-opacity:1;stroke-opacity:0.3" />
<line x1="775" y1="93" x2="781" y2="95" stroke="black" stroke-width="1" />
<line x1="781" y1="95" x2="787" y2="93" stroke="black" stroke-width="1" />
<rect x="579" y="91" width="30" height="5" style="fill:#f5b024;stroke:black;stroke-width:1;fill-opacity:1;stroke-opacity:0.3" />
<line x1="609" y1="93" x2="679" y2="93" stroke="pink" stroke-width="1" />
<rect x="679" y="91" width="31" height="5" style="fill:#f5b024;stroke:black;stroke-width:1;fill-opacity:1;stroke-opacity:0.3" />
<line x1="711" y1="93" x2="768" y2="93" stroke="pink" stroke-width="1" />
<rect x="768" y="91" width="6" height="5" style="fill:#f5b024;stroke:black;stroke-width:1;fill-opacity:1;stroke-opacity:0.3" />
<rect x="787" y="91" width="68" height="5" style="fill:#f5b024;stroke:black;stroke-width:1;fill-opacity:1;stroke-opacity:0.3" />
<line x1="648" y1="100" x2="657" y2="102" stroke="black" stroke-width="1" />
<line x1="657" y1="102" x2="667" y2="100" stroke="black" stroke-width="1" />
<rect x="579" y="98" width="68" height="5" style="fill:#f5b024;stroke:black;stroke-width:1;fill-opacity:1;stroke-opacity:0.3" />
<rect x="667" y="98" width="68" height="5" style="fill:#f5b024;stroke:black;stroke-width:1;fill-opacity:1;stroke-opacity:0.3" />
<line x1="738" y1="44" x2="760" y2="46" stroke="black" stroke-width="1" />
<line x1="760" y1="46" x2="783" y2="44" stroke="black" stroke-width="1" />
<rect x="670" y="42" width="68" height="5" style="fill:#f5b024;stroke:black;stroke-width:1;fill-opacity:1;stroke-opacity:0.3" />
<rect x="783" y="42" width="68" height="5" style="fill:#f5b024;stroke:black;stroke-width:1;fill-opacity:1;stroke-opacity:0.3" />
<line x1="765" y1="30" x2="776" y2="32" stroke="black" stroke-width="1" />
<line x1="776" y1="32" x2="787" y2="30" stroke="black" stroke-width="1" />
<rect x="697" y="28" width="68" height="5" style="fill:#f5b024;stroke:black;stroke-width:1;fill-opacity:1;stroke-opacity:0.3" />
<rect x="787" y="28" width="68" height="5" style="fill:#f5b024;stroke:black;stroke-width:1;fill-opacity:1;stroke-opacity:0.3" />
<line x1="891" y1="37" x2="898" y2="39" stroke="black" stroke-width="1" />
<line x1="898" y1="39" x2="906" y2="37" stroke="black" stroke-width="1" />
<rect x="824" y="35" width="67" height="5" style="fill:#5d3c2d;stroke:black;stroke-width:1;fill-opacity:1;stroke-opacity:0.3" />
<rect x="906" y="35" width="68" height="5" style="fill:#5d3c2d;stroke:black;stroke-width:1;fill-opacity:1;stroke-opacity:0.3" />
<text x="15"  y="176" style="font-family:Arial;font-size:10;stroke:black;fill:black;">all.merged.bam</text>
</svg>
    
