<?xml version="1.0" encoding="utf-8" standalone="no"?>
<!DOCTYPE svg PUBLIC "-//W3C//DTD SVG 1.1//EN"
  "http://www.w3.org/Graphics/SVG/1.1/DTD/svg11.dtd">
<svg height="1140" width="1000" version="1.1" viewBox="0 0 1000 1140" xmlns="http://www.w3.org/2000/svg" xmlns:xlink="http://www.w3.org/1999/xlink">
<line x1="54" y1="11" x2="945" y2="11" stroke="black" stroke-width="1" />
<rect x="54" y="9" width="63" height="5" style="fill:#f50002;stroke:black;stroke-width:1;fill-opacity:1;stroke-opacity:0.3" />
<rect x="161" y="9" width="49" height="5" style="fill:#f50002;stroke:black;stroke-width:1;fill-opacity:1;stroke-opacity:0.3" />
<rect x="275" y="9" width="0" height="5" style="fill:#f50002;stroke:black;stroke-width:1;fill-opacity:1;stroke-opacity:0.3" />
<rect x="275" y="9" width="110" height="5" style="fill:#53a1b5;stroke:black;stroke-width:1;fill-opacity:1;stroke-opacity:0.3" />
<rect x="584" y="9" width="117" height="5" style="fill:#53a1b5;stroke:black;stroke-width:1;fill-opacity:1;stroke-opacity:0.3" />
<rect x="701" y="9" width="243" height="5" style="fill:#f50002;stroke:black;stroke-width:1;fill-opacity:1;stroke-opacity:0.3" />
<text x="54"  y="23" style="font-family:Arial;font-size:10;stroke:black;fill:black;">Cre12.g559550.t1.2.v5.5 (+) chromosome_12:7064679-7066315</text>
<line x1="106" y1="30" x2="144" y2="32" stroke="black" stroke-width="1" />
<line x1="144" y1="32" x2="182" y2="30" stroke="black" stroke-width="1" />
<rect x="51" y="28" width="54" height="5" style="fill:#5d3c2d;stroke:black;stroke-width:1;fill-opacity:1;stroke-opacity:0.3" />
<rect x="182" y="28" width="29" height="5" style="fill:#5d3c2d;stroke:black;stroke-width:1;fill-opacity:1;stroke-opacity:0.3" />
<line x1="211" y1="30" x2="275" y2="30" stroke="pink" stroke-width="1" />
<rect x="275" y="28" width="21" height="5" style="fill:#5d3c2d;stroke:black;stroke-width:1;fill-opacity:1;stroke-opacity:0.3" />
<line x1="179" y1="37" x2="191" y2="39" stroke="black" stroke-width="1" />
<line x1="191" y1="39" x2="203" y2="37" stroke="black" stroke-width="1" />
<rect x="54" y="35" width="64" height="5" style="fill:#5d3c2d;stroke:black;stroke-width:1;fill-opacity:1;stroke-opacity:0.3" />
<line x1="118" y1="37" x2="161" y2="37" stroke="pink" stroke-width="1" />
<rect x="161" y="35" width="17" height="5" style="fill:#5d3c2d;stroke:black;stroke-width:1;fill-opacity:1;stroke-opacity:0.3" />
<rect x="203" y="35" width="8" height="5" style="fill:#5d3c2d;stroke:black;stroke-width:1;fill-opacity:1;stroke-opacity:0.3" />
<line x1="211" y1="37" x2="275" y2="37" stroke="pink" stroke-width="1" />
<rect x="275" y="35" width="73" height="5" style="fill:#5d3c2d;stroke:black;stroke-width:1;fill-opacity:1;stroke-opacity:0.3" />
<line x1="111" y1="44" x2="145" y2="46" stroke="black" stroke-width="1" />
<line x1="145" y1="46" x2="179" y2="44" stroke="black" stroke-width="1" />
<rect x="57" y="42" width="54" height="5" style="fill:#5d3c2d;stroke:black;stroke-width:1;fill-opacity:1;stroke-opacity:0.3" />
<rect x="179" y="42" width="32" height="5" style="fill:#5d3c2d;stroke:black;stroke-width:1;fill-opacity:1;stroke-opacity:0.3" />
<line x1="211" y1="44" x2="275" y2="44" stroke="pink" stroke-width="1" />
<rect x="275" y="42" width="21" height="5" style="fill:#5d3c2d;stroke:black;stroke-width:1;fill-opacity:1;stroke-opacity:0.3" />
<line x1="111" y1="51" x2="143" y2="53" stroke="black" stroke-width="1" />
<line x1="143" y1="53" x2="175" y2="51" stroke="black" stroke-width="1" />
<rect x="57" y="49" width="54" height="5" style="fill:#5d3c2d;stroke:black;stroke-width:1;fill-opacity:1;stroke-opacity:0.3" />
<rect x="175" y="49" width="35" height="5" style="fill:#5d3c2d;stroke:black;stroke-width:1;fill-opacity:1;stroke-opacity:0.3" />
<line x1="211" y1="51" x2="275" y2="51" stroke="pink" stroke-width="1" />
<rect x="275" y="49" width="17" height="5" style="fill:#5d3c2d;stroke:black;stroke-width:1;fill-opacity:1;stroke-opacity:0.3" />
<line x1="202" y1="58" x2="206" y2="60" stroke="black" stroke-width="1" />
<line x1="206" y1="60" x2="210" y2="58" stroke="black" stroke-width="1" />
<rect x="77" y="56" width="40" height="5" style="fill:#5d3c2d;stroke:black;stroke-width:1;fill-opacity:1;stroke-opacity:0.3" />
<line x1="118" y1="58" x2="161" y2="58" stroke="pink" stroke-width="1" />
<rect x="161" y="56" width="40" height="5" style="fill:#5d3c2d;stroke:black;stroke-width:1;fill-opacity:1;stroke-opacity:0.3" />
<rect x="210" y="56" width="1" height="5" style="fill:#5d3c2d;stroke:black;stroke-width:1;fill-opacity:1;stroke-opacity:0.3" />
<line x1="211" y1="58" x2="275" y2="58" stroke="pink" stroke-width="1" />
<rect x="275" y="56" width="80" height="5" style="fill:#5d3c2d;stroke:black;stroke-width:1;fill-opacity:1;stroke-opacity:0.3" />
<line x1="203" y1="65" x2="234" y2="67" stroke="black" stroke-width="1" />
<line x1="234" y1="67" x2="266" y2="65" stroke="black" stroke-width="1" />
<rect x="78" y="63" width="39" height="5" style="fill:#5d3c2d;stroke:black;stroke-width:1;fill-opacity:1;stroke-opacity:0.3" />
<line x1="118" y1="65" x2="161" y2="65" stroke="pink" stroke-width="1" />
<rect x="161" y="63" width="41" height="5" style="fill:#5d3c2d;stroke:black;stroke-width:1;fill-opacity:1;stroke-opacity:0.3" />
<rect x="266" y="63" width="81" height="5" style="fill:#5d3c2d;stroke:black;stroke-width:1;fill-opacity:1;stroke-opacity:0.3" />
<line x1="178" y1="72" x2="233" y2="74" stroke="black" stroke-width="1" />
<line x1="233" y1="74" x2="288" y2="72" stroke="black" stroke-width="1" />
<rect x="81" y="70" width="37" height="5" style="fill:#5d3c2d;stroke:black;stroke-width:1;fill-opacity:1;stroke-opacity:0.3" />
<line x1="118" y1="72" x2="161" y2="72" stroke="pink" stroke-width="1" />
<rect x="161" y="70" width="16" height="5" style="fill:#5d3c2d;stroke:black;stroke-width:1;fill-opacity:1;stroke-opacity:0.3" />
<rect x="288" y="70" width="54" height="5" style="fill:#5d3c2d;stroke:black;stroke-width:1;fill-opacity:1;stroke-opacity:0.3" />
<line x1="188" y1="79" x2="199" y2="81" stroke="black" stroke-width="1" />
<line x1="199" y1="81" x2="210" y2="79" stroke="black" stroke-width="1" />
<rect x="90" y="77" width="27" height="5" style="fill:#5d3c2d;stroke:black;stroke-width:1;fill-opacity:1;stroke-opacity:0.3" />
<line x1="118" y1="79" x2="161" y2="79" stroke="pink" stroke-width="1" />
<rect x="161" y="77" width="26" height="5" style="fill:#5d3c2d;stroke:black;stroke-width:1;fill-opacity:1;stroke-opacity:0.3" />
<rect x="210" y="77" width="1" height="5" style="fill:#5d3c2d;stroke:black;stroke-width:1;fill-opacity:1;stroke-opacity:0.3" />
<line x1="211" y1="79" x2="275" y2="79" stroke="pink" stroke-width="1" />
<rect x="275" y="77" width="52" height="5" style="fill:#5d3c2d;stroke:black;stroke-width:1;fill-opacity:1;stroke-opacity:0.3" />
<line x1="188" y1="86" x2="198" y2="88" stroke="black" stroke-width="1" />
<line x1="198" y1="88" x2="209" y2="86" stroke="black" stroke-width="1" />
<rect x="90" y="84" width="27" height="5" style="fill:#5d3c2d;stroke:black;stroke-width:1;fill-opacity:1;stroke-opacity:0.3" />
<line x1="118" y1="86" x2="161" y2="86" stroke="pink" stroke-width="1" />
<rect x="161" y="84" width="26" height="5" style="fill:#5d3c2d;stroke:black;stroke-width:1;fill-opacity:1;stroke-opacity:0.3" />
<rect x="209" y="84" width="2" height="5" style="fill:#5d3c2d;stroke:black;stroke-width:1;fill-opacity:1;stroke-opacity:0.3" />
<line x1="211" y1="86" x2="275" y2="86" stroke="pink" stroke-width="1" />
<rect x="275" y="84" width="51" height="5" style="fill:#5d3c2d;stroke:black;stroke-width:1;fill-opacity:1;stroke-opacity:0.3" />
<line x1="191" y1="93" x2="232" y2="95" stroke="black" stroke-width="1" />
<line x1="232" y1="95" x2="274" y2="93" stroke="black" stroke-width="1" />
<rect x="93" y="91" width="25" height="5" style="fill:#5d3c2d;stroke:black;stroke-width:1;fill-opacity:1;stroke-opacity:0.3" />
<line x1="118" y1="93" x2="161" y2="93" stroke="pink" stroke-width="1" />
<rect x="161" y="91" width="29" height="5" style="fill:#5d3c2d;stroke:black;stroke-width:1;fill-opacity:1;stroke-opacity:0.3" />
<rect x="274" y="91" width="52" height="5" style="fill:#5d3c2d;stroke:black;stroke-width:1;fill-opacity:1;stroke-opacity:0.3" />
<line x1="191" y1="100" x2="200" y2="102" stroke="black" stroke-width="1" />
<line x1="200" y1="102" x2="209" y2="100" stroke="black" stroke-width="1" />
<rect x="93" y="98" width="25" height="5" style="fill:#5d3c2d;stroke:black;stroke-width:1;fill-opacity:1;stroke-opacity:0.3" />
<line x1="118" y1="100" x2="161" y2="100" stroke="pink" stroke-width="1" />
<rect x="161" y="98" width="29" height="5" style="fill:#5d3c2d;stroke:black;stroke-width:1;fill-opacity:1;stroke-opacity:0.3" />
<rect x="209" y="98" width="2" height="5" style="fill:#5d3c2d;stroke:black;stroke-width:1;fill-opacity:1;stroke-opacity:0.3" />
<line x1="211" y1="100" x2="275" y2="100" stroke="pink" stroke-width="1" />
<rect x="275" y="98" width="51" height="5" style="fill:#5d3c2d;stroke:black;stroke-width:1;fill-opacity:1;stroke-opacity:0.3" />
<line x1="192" y1="107" x2="243" y2="109" stroke="black" stroke-width="1" />
<line x1="243" y1="109" x2="295" y2="107" stroke="black" stroke-width="1" />
<rect x="95" y="105" width="23" height="5" style="fill:#5d3c2d;stroke:black;stroke-width:1;fill-opacity:1;stroke-opacity:0.3" />
<line x1="118" y1="107" x2="161" y2="107" stroke="pink" stroke-width="1" />
<rect x="161" y="105" width="31" height="5" style="fill:#5d3c2d;stroke:black;stroke-width:1;fill-opacity:1;stroke-opacity:0.3" />
<rect x="295" y="105" width="54" height="5" style="fill:#5d3c2d;stroke:black;stroke-width:1;fill-opacity:1;stroke-opacity:0.3" />
<line x1="206" y1="114" x2="247" y2="116" stroke="black" stroke-width="1" />
<line x1="247" y1="116" x2="288" y2="114" stroke="black" stroke-width="1" />
<rect x="109" y="112" width="9" height="5" style="fill:#5d3c2d;stroke:black;stroke-width:1;fill-opacity:1;stroke-opacity:0.3" />
<line x1="118" y1="114" x2="161" y2="114" stroke="pink" stroke-width="1" />
<rect x="161" y="112" width="45" height="5" style="fill:#5d3c2d;stroke:black;stroke-width:1;fill-opacity:1;stroke-opacity:0.3" />
<rect x="288" y="112" width="54" height="5" style="fill:#5d3c2d;stroke:black;stroke-width:1;fill-opacity:1;stroke-opacity:0.3" />
<line x1="207" y1="121" x2="254" y2="123" stroke="black" stroke-width="1" />
<line x1="254" y1="123" x2="302" y2="121" stroke="black" stroke-width="1" />
<rect x="110" y="119" width="8" height="5" style="fill:#5d3c2d;stroke:black;stroke-width:1;fill-opacity:1;stroke-opacity:0.3" />
<line x1="118" y1="121" x2="161" y2="121" stroke="pink" stroke-width="1" />
<rect x="161" y="119" width="46" height="5" style="fill:#5d3c2d;stroke:black;stroke-width:1;fill-opacity:1;stroke-opacity:0.3" />
<rect x="302" y="119" width="54" height="5" style="fill:#5d3c2d;stroke:black;stroke-width:1;fill-opacity:1;stroke-opacity:0.3" />
<line x1="307" y1="128" x2="327" y2="130" stroke="black" stroke-width="1" />
<line x1="327" y1="130" x2="348" y2="128" stroke="black" stroke-width="1" />
<rect x="161" y="126" width="50" height="5" style="fill:#5d3c2d;stroke:black;stroke-width:1;fill-opacity:1;stroke-opacity:0.3" />
<line x1="211" y1="128" x2="275" y2="128" stroke="pink" stroke-width="1" />
<rect x="275" y="126" width="31" height="5" style="fill:#5d3c2d;stroke:black;stroke-width:1;fill-opacity:1;stroke-opacity:0.3" />
<rect x="348" y="126" width="38" height="5" style="fill:#5d3c2d;stroke:black;stroke-width:1;fill-opacity:1;stroke-opacity:0.3" />
<line x1="387" y1="128" x2="584" y2="128" stroke="pink" stroke-width="1" />
<rect x="584" y="126" width="43" height="5" style="fill:#5d3c2d;stroke:black;stroke-width:1;fill-opacity:1;stroke-opacity:0.3" />
<line x1="320" y1="135" x2="324" y2="137" stroke="black" stroke-width="1" />
<line x1="324" y1="137" x2="329" y2="135" stroke="black" stroke-width="1" />
<rect x="201" y="133" width="9" height="5" style="fill:#f5b024;stroke:black;stroke-width:1;fill-opacity:1;stroke-opacity:0.3" />
<line x1="211" y1="135" x2="275" y2="135" stroke="pink" stroke-width="1" />
<rect x="275" y="133" width="44" height="5" style="fill:#f5b024;stroke:black;stroke-width:1;fill-opacity:1;stroke-opacity:0.3" />
<rect x="329" y="133" width="54" height="5" style="fill:#f5b024;stroke:black;stroke-width:1;fill-opacity:1;stroke-opacity:0.3" />
<line x1="350" y1="142" x2="493" y2="144" stroke="black" stroke-width="1" />
<line x1="493" y1="144" x2="637" y2="142" stroke="black" stroke-width="1" />
<rect x="205" y="140" width="6" height="5" style="fill:#5d3c2d;stroke:black;stroke-width:1;fill-opacity:1;stroke-opacity:0.3" />
<line x1="211" y1="142" x2="275" y2="142" stroke="pink" stroke-width="1" />
<rect x="275" y="140" width="75" height="5" style="fill:#5d3c2d;stroke:black;stroke-width:1;fill-opacity:1;stroke-opacity:0.3" />
<rect x="637" y="140" width="80" height="5" style="fill:#5d3c2d;stroke:black;stroke-width:1;fill-opacity:1;stroke-opacity:0.3" />
<line x1="267" y1="149" x2="279" y2="151" stroke="black" stroke-width="1" />
<line x1="279" y1="151" x2="291" y2="149" stroke="black" stroke-width="1" />
<rect x="212" y="147" width="54" height="5" style="fill:#5d3c2d;stroke:black;stroke-width:1;fill-opacity:1;stroke-opacity:0.3" />
<rect x="291" y="147" width="54" height="5" style="fill:#5d3c2d;stroke:black;stroke-width:1;fill-opacity:1;stroke-opacity:0.3" />
<line x1="339" y1="156" x2="342" y2="158" stroke="black" stroke-width="1" />
<line x1="342" y1="158" x2="346" y2="156" stroke="black" stroke-width="1" />
<rect x="284" y="154" width="54" height="5" style="fill:#5d3c2d;stroke:black;stroke-width:1;fill-opacity:1;stroke-opacity:0.3" />
<rect x="346" y="154" width="40" height="5" style="fill:#5d3c2d;stroke:black;stroke-width:1;fill-opacity:1;stroke-opacity:0.3" />
<line x1="387" y1="156" x2="584" y2="156" stroke="pink" stroke-width="1" />
<rect x="584" y="154" width="13" height="5" style="fill:#5d3c2d;stroke:black;stroke-width:1;fill-opacity:1;stroke-opacity:0.3" />
<line x1="346" y1="163" x2="362" y2="165" stroke="black" stroke-width="1" />
<line x1="362" y1="165" x2="379" y2="163" stroke="black" stroke-width="1" />
<rect x="291" y="161" width="54" height="5" style="fill:#5d3c2d;stroke:black;stroke-width:1;fill-opacity:1;stroke-opacity:0.3" />
<rect x="379" y="161" width="7" height="5" style="fill:#5d3c2d;stroke:black;stroke-width:1;fill-opacity:1;stroke-opacity:0.3" />
<line x1="387" y1="163" x2="584" y2="163" stroke="pink" stroke-width="1" />
<rect x="584" y="161" width="47" height="5" style="fill:#5d3c2d;stroke:black;stroke-width:1;fill-opacity:1;stroke-opacity:0.3" />
<line x1="364" y1="30" x2="369" y2="32" stroke="black" stroke-width="1" />
<line x1="369" y1="32" x2="375" y2="30" stroke="black" stroke-width="1" />
<rect x="309" y="28" width="54" height="5" style="fill:#5d3c2d;stroke:black;stroke-width:1;fill-opacity:1;stroke-opacity:0.3" />
<rect x="375" y="28" width="11" height="5" style="fill:#5d3c2d;stroke:black;stroke-width:1;fill-opacity:1;stroke-opacity:0.3" />
<line x1="387" y1="30" x2="584" y2="30" stroke="pink" stroke-width="1" />
<rect x="584" y="28" width="42" height="5" style="fill:#5d3c2d;stroke:black;stroke-width:1;fill-opacity:1;stroke-opacity:0.3" />
<line x1="377" y1="44" x2="480" y2="46" stroke="black" stroke-width="1" />
<line x1="480" y1="46" x2="583" y2="44" stroke="black" stroke-width="1" />
<rect x="323" y="42" width="54" height="5" style="fill:#5d3c2d;stroke:black;stroke-width:1;fill-opacity:1;stroke-opacity:0.3" />
<rect x="583" y="42" width="53" height="5" style="fill:#5d3c2d;stroke:black;stroke-width:1;fill-opacity:1;stroke-opacity:0.3" />
<line x1="598" y1="51" x2="602" y2="53" stroke="black" stroke-width="1" />
<line x1="602" y1="53" x2="606" y2="51" stroke="black" stroke-width="1" />
<rect x="346" y="49" width="40" height="5" style="fill:#5d3c2d;stroke:black;stroke-width:1;fill-opacity:1;stroke-opacity:0.3" />
<line x1="387" y1="51" x2="584" y2="51" stroke="pink" stroke-width="1" />
<rect x="584" y="49" width="14" height="5" style="fill:#5d3c2d;stroke:black;stroke-width:1;fill-opacity:1;stroke-opacity:0.3" />
<rect x="606" y="49" width="54" height="5" style="fill:#5d3c2d;stroke:black;stroke-width:1;fill-opacity:1;stroke-opacity:0.3" />
<line x1="599" y1="65" x2="608" y2="67" stroke="black" stroke-width="1" />
<line x1="608" y1="67" x2="617" y2="65" stroke="black" stroke-width="1" />
<rect x="348" y="63" width="38" height="5" style="fill:#5d3c2d;stroke:black;stroke-width:1;fill-opacity:1;stroke-opacity:0.3" />
<line x1="387" y1="65" x2="584" y2="65" stroke="pink" stroke-width="1" />
<rect x="584" y="63" width="15" height="5" style="fill:#5d3c2d;stroke:black;stroke-width:1;fill-opacity:1;stroke-opacity:0.3" />
<rect x="617" y="63" width="54" height="5" style="fill:#5d3c2d;stroke:black;stroke-width:1;fill-opacity:1;stroke-opacity:0.3" />
<line x1="609" y1="37" x2="624" y2="39" stroke="black" stroke-width="1" />
<line x1="624" y1="39" x2="640" y2="37" stroke="black" stroke-width="1" />
<rect x="357" y="35" width="29" height="5" style="fill:#5d3c2d;stroke:black;stroke-width:1;fill-opacity:1;stroke-opacity:0.3" />
<line x1="387" y1="37" x2="584" y2="37" stroke="pink" stroke-width="1" />
<rect x="584" y="35" width="25" height="5" style="fill:#5d3c2d;stroke:black;stroke-width:1;fill-opacity:1;stroke-opacity:0.3" />
<rect x="640" y="35" width="54" height="5" style="fill:#5d3c2d;stroke:black;stroke-width:1;fill-opacity:1;stroke-opacity:0.3" />
<line x1="654" y1="58" x2="656" y2="60" stroke="black" stroke-width="1" />
<line x1="656" y1="60" x2="659" y2="58" stroke="black" stroke-width="1" />
<rect x="375" y="56" width="11" height="5" style="fill:#5d3c2d;stroke:black;stroke-width:1;fill-opacity:1;stroke-opacity:0.3" />
<line x1="387" y1="58" x2="584" y2="58" stroke="pink" stroke-width="1" />
<rect x="584" y="56" width="70" height="5" style="fill:#5d3c2d;stroke:black;stroke-width:1;fill-opacity:1;stroke-opacity:0.3" />
<rect x="659" y="56" width="81" height="5" style="fill:#5d3c2d;stroke:black;stroke-width:1;fill-opacity:1;stroke-opacity:0.3" />
<line x1="627" y1="72" x2="633" y2="74" stroke="black" stroke-width="1" />
<line x1="633" y1="74" x2="640" y2="72" stroke="black" stroke-width="1" />
<rect x="376" y="70" width="10" height="5" style="fill:#5d3c2d;stroke:black;stroke-width:1;fill-opacity:1;stroke-opacity:0.3" />
<line x1="387" y1="72" x2="584" y2="72" stroke="pink" stroke-width="1" />
<rect x="584" y="70" width="43" height="5" style="fill:#5d3c2d;stroke:black;stroke-width:1;fill-opacity:1;stroke-opacity:0.3" />
<rect x="640" y="70" width="54" height="5" style="fill:#5d3c2d;stroke:black;stroke-width:1;fill-opacity:1;stroke-opacity:0.3" />
<line x1="630" y1="79" x2="634" y2="81" stroke="black" stroke-width="1" />
<line x1="634" y1="81" x2="638" y2="79" stroke="black" stroke-width="1" />
<rect x="378" y="77" width="8" height="5" style="fill:#5d3c2d;stroke:black;stroke-width:1;fill-opacity:1;stroke-opacity:0.3" />
<line x1="387" y1="79" x2="584" y2="79" stroke="pink" stroke-width="1" />
<rect x="584" y="77" width="46" height="5" style="fill:#5d3c2d;stroke:black;stroke-width:1;fill-opacity:1;stroke-opacity:0.3" />
<rect x="638" y="77" width="53" height="5" style="fill:#5d3c2d;stroke:black;stroke-width:1;fill-opacity:1;stroke-opacity:0.3" />
<line x1="632" y1="86" x2="638" y2="88" stroke="black" stroke-width="1" />
<line x1="638" y1="88" x2="645" y2="86" stroke="black" stroke-width="1" />
<rect x="381" y="84" width="5" height="5" style="fill:#5d3c2d;stroke:black;stroke-width:1;fill-opacity:1;stroke-opacity:0.3" />
<line x1="387" y1="86" x2="584" y2="86" stroke="pink" stroke-width="1" />
<rect x="584" y="84" width="48" height="5" style="fill:#5d3c2d;stroke:black;stroke-width:1;fill-opacity:1;stroke-opacity:0.3" />
<rect x="645" y="84" width="54" height="5" style="fill:#5d3c2d;stroke:black;stroke-width:1;fill-opacity:1;stroke-opacity:0.3" />
<line x1="659" y1="93" x2="684" y2="95" stroke="black" stroke-width="1" />
<line x1="684" y1="95" x2="709" y2="93" stroke="black" stroke-width="1" />
<rect x="381" y="91" width="5" height="5" style="fill:#5d3c2d;stroke:black;stroke-width:1;fill-opacity:1;stroke-opacity:0.3" />
<line x1="387" y1="93" x2="584" y2="93" stroke="pink" stroke-width="1" />
<rect x="584" y="91" width="75" height="5" style="fill:#5d3c2d;stroke:black;stroke-width:1;fill-opacity:1;stroke-opacity:0.3" />
<rect x="709" y="91" width="81" height="5" style="fill:#5d3c2d;stroke:black;stroke-width:1;fill-opacity:1;stroke-opacity:0.3" />
<line x1="637" y1="100" x2="641" y2="102" stroke="black" stroke-width="1" />
<line x1="641" y1="102" x2="645" y2="100" stroke="black" stroke-width="1" />
<rect x="385" y="98" width="1" height="5" style="fill:#5d3c2d;stroke:black;stroke-width:1;fill-opacity:1;stroke-opacity:0.3" />
<line x1="387" y1="100" x2="584" y2="100" stroke="pink" stroke-width="1" />
<rect x="584" y="98" width="53" height="5" style="fill:#5d3c2d;stroke:black;stroke-width:1;fill-opacity:1;stroke-opacity:0.3" />
<rect x="645" y="98" width="54" height="5" style="fill:#5d3c2d;stroke:black;stroke-width:1;fill-opacity:1;stroke-opacity:0.3" />
<line x1="640" y1="107" x2="656" y2="109" stroke="black" stroke-width="1" />
<line x1="656" y1="109" x2="672" y2="107" stroke="black" stroke-width="1" />
<rect x="585" y="105" width="54" height="5" style="fill:#5d3c2d;stroke:black;stroke-width:1;fill-opacity:1;stroke-opacity:0.3" />
<rect x="672" y="105" width="54" height="5" style="fill:#5d3c2d;stroke:black;stroke-width:1;fill-opacity:1;stroke-opacity:0.3" />
<line x1="643" y1="114" x2="695" y2="116" stroke="black" stroke-width="1" />
<line x1="695" y1="116" x2="747" y2="114" stroke="black" stroke-width="1" />
<rect x="589" y="112" width="54" height="5" style="fill:#5d3c2d;stroke:black;stroke-width:1;fill-opacity:1;stroke-opacity:0.3" />
<rect x="747" y="112" width="53" height="5" style="fill:#5d3c2d;stroke:black;stroke-width:1;fill-opacity:1;stroke-opacity:0.3" />
<line x1="678" y1="121" x2="696" y2="123" stroke="black" stroke-width="1" />
<line x1="696" y1="123" x2="714" y2="121" stroke="black" stroke-width="1" />
<rect x="599" y="119" width="78" height="5" style="fill:#f5b024;stroke:black;stroke-width:1;fill-opacity:1;stroke-opacity:0.3" />
<rect x="714" y="119" width="76" height="5" style="fill:#f5b024;stroke:black;stroke-width:1;fill-opacity:1;stroke-opacity:0.3" />
<line x1="654" y1="135" x2="658" y2="137" stroke="black" stroke-width="1" />
<line x1="658" y1="137" x2="663" y2="135" stroke="black" stroke-width="1" />
<rect x="600" y="133" width="54" height="5" style="fill:#f5b024;stroke:black;stroke-width:1;fill-opacity:1;stroke-opacity:0.3" />
<rect x="663" y="133" width="54" height="5" style="fill:#f5b024;stroke:black;stroke-width:1;fill-opacity:1;stroke-opacity:0.3" />
<line x1="660" y1="149" x2="663" y2="151" stroke="black" stroke-width="1" />
<line x1="663" y1="151" x2="667" y2="149" stroke="black" stroke-width="1" />
<rect x="605" y="147" width="54" height="5" style="fill:#5d3c2d;stroke:black;stroke-width:1;fill-opacity:1;stroke-opacity:0.3" />
<rect x="667" y="147" width="54" height="5" style="fill:#5d3c2d;stroke:black;stroke-width:1;fill-opacity:1;stroke-opacity:0.3" />
<line x1="656" y1="156" x2="659" y2="158" stroke="black" stroke-width="1" />
<line x1="659" y1="158" x2="663" y2="156" stroke="black" stroke-width="1" />
<rect x="606" y="154" width="50" height="5" style="fill:#5d3c2d;stroke:black;stroke-width:1;fill-opacity:1;stroke-opacity:0.3" />
<rect x="663" y="154" width="54" height="5" style="fill:#5d3c2d;stroke:black;stroke-width:1;fill-opacity:1;stroke-opacity:0.3" />
<line x1="682" y1="30" x2="701" y2="32" stroke="black" stroke-width="1" />
<line x1="701" y1="32" x2="720" y2="30" stroke="black" stroke-width="1" />
<rect x="628" y="28" width="54" height="5" style="fill:#5d3c2d;stroke:black;stroke-width:1;fill-opacity:1;stroke-opacity:0.3" />
<rect x="720" y="28" width="52" height="5" style="fill:#5d3c2d;stroke:black;stroke-width:1;fill-opacity:1;stroke-opacity:0.3" />
<line x1="686" y1="128" x2="692" y2="130" stroke="black" stroke-width="1" />
<line x1="692" y1="130" x2="698" y2="128" stroke="black" stroke-width="1" />
<rect x="632" y="126" width="54" height="5" style="fill:#5d3c2d;stroke:black;stroke-width:1;fill-opacity:1;stroke-opacity:0.3" />
<rect x="698" y="126" width="54" height="5" style="fill:#5d3c2d;stroke:black;stroke-width:1;fill-opacity:1;stroke-opacity:0.3" />
<line x1="719" y1="44" x2="727" y2="46" stroke="black" stroke-width="1" />
<line x1="727" y1="46" x2="735" y2="44" stroke="black" stroke-width="1" />
<rect x="637" y="42" width="81" height="5" style="fill:#5d3c2d;stroke:black;stroke-width:1;fill-opacity:1;stroke-opacity:0.3" />
<rect x="735" y="42" width="81" height="5" style="fill:#5d3c2d;stroke:black;stroke-width:1;fill-opacity:1;stroke-opacity:0.3" />
<line x1="740" y1="163" x2="746" y2="165" stroke="black" stroke-width="1" />
<line x1="746" y1="165" x2="752" y2="163" stroke="black" stroke-width="1" />
<rect x="659" y="161" width="81" height="5" style="fill:#5d3c2d;stroke:black;stroke-width:1;fill-opacity:1;stroke-opacity:0.3" />
<rect x="752" y="161" width="81" height="5" style="fill:#5d3c2d;stroke:black;stroke-width:1;fill-opacity:1;stroke-opacity:0.3" />
<line x1="716" y1="51" x2="736" y2="53" stroke="black" stroke-width="1" />
<line x1="736" y1="53" x2="757" y2="51" stroke="black" stroke-width="1" />
<rect x="661" y="49" width="54" height="5" style="fill:#5d3c2d;stroke:black;stroke-width:1;fill-opacity:1;stroke-opacity:0.3" />
<rect x="757" y="49" width="53" height="5" style="fill:#5d3c2d;stroke:black;stroke-width:1;fill-opacity:1;stroke-opacity:0.3" />
<line x1="727" y1="65" x2="761" y2="67" stroke="black" stroke-width="1" />
<line x1="761" y1="67" x2="795" y2="65" stroke="black" stroke-width="1" />
<rect x="672" y="63" width="54" height="5" style="fill:#5d3c2d;stroke:black;stroke-width:1;fill-opacity:1;stroke-opacity:0.3" />
<rect x="795" y="63" width="54" height="5" style="fill:#5d3c2d;stroke:black;stroke-width:1;fill-opacity:1;stroke-opacity:0.3" />
<line x1="768" y1="79" x2="774" y2="81" stroke="black" stroke-width="1" />
<line x1="774" y1="81" x2="781" y2="79" stroke="black" stroke-width="1" />
<rect x="693" y="77" width="74" height="5" style="fill:#f5b024;stroke:black;stroke-width:1;fill-opacity:1;stroke-opacity:0.3" />
<rect x="781" y="77" width="81" height="5" style="fill:#f5b024;stroke:black;stroke-width:1;fill-opacity:1;stroke-opacity:0.3" />
<line x1="750" y1="37" x2="756" y2="39" stroke="black" stroke-width="1" />
<line x1="756" y1="39" x2="762" y2="37" stroke="black" stroke-width="1" />
<rect x="695" y="35" width="54" height="5" style="fill:#5d3c2d;stroke:black;stroke-width:1;fill-opacity:1;stroke-opacity:0.3" />
<rect x="762" y="35" width="54" height="5" style="fill:#5d3c2d;stroke:black;stroke-width:1;fill-opacity:1;stroke-opacity:0.3" />
<line x1="752" y1="72" x2="760" y2="74" stroke="black" stroke-width="1" />
<line x1="760" y1="74" x2="768" y2="72" stroke="black" stroke-width="1" />
<rect x="697" y="70" width="54" height="5" style="fill:#5d3c2d;stroke:black;stroke-width:1;fill-opacity:1;stroke-opacity:0.3" />
<rect x="768" y="70" width="54" height="5" style="fill:#5d3c2d;stroke:black;stroke-width:1;fill-opacity:1;stroke-opacity:0.3" />
<line x1="757" y1="86" x2="762" y2="88" stroke="black" stroke-width="1" />
<line x1="762" y1="88" x2="768" y2="86" stroke="black" stroke-width="1" />
<rect x="702" y="84" width="54" height="5" style="fill:#5d3c2d;stroke:black;stroke-width:1;fill-opacity:1;stroke-opacity:0.3" />
<rect x="768" y="84" width="54" height="5" style="fill:#5d3c2d;stroke:black;stroke-width:1;fill-opacity:1;stroke-opacity:0.3" />
<line x1="757" y1="100" x2="760" y2="102" stroke="black" stroke-width="1" />
<line x1="760" y1="102" x2="763" y2="100" stroke="black" stroke-width="1" />
<rect x="702" y="98" width="54" height="5" style="fill:#5d3c2d;stroke:black;stroke-width:1;fill-opacity:1;stroke-opacity:0.3" />
<rect x="763" y="98" width="54" height="5" style="fill:#5d3c2d;stroke:black;stroke-width:1;fill-opacity:1;stroke-opacity:0.3" />
<line x1="767" y1="135" x2="781" y2="137" stroke="black" stroke-width="1" />
<line x1="781" y1="137" x2="795" y2="135" stroke="black" stroke-width="1" />
<rect x="719" y="133" width="47" height="5" style="fill:#5d3c2d;stroke:black;stroke-width:1;fill-opacity:1;stroke-opacity:0.3" />
<rect x="795" y="133" width="54" height="5" style="fill:#5d3c2d;stroke:black;stroke-width:1;fill-opacity:1;stroke-opacity:0.3" />
<line x1="777" y1="142" x2="799" y2="144" stroke="black" stroke-width="1" />
<line x1="799" y1="144" x2="821" y2="142" stroke="black" stroke-width="1" />
<rect x="723" y="140" width="54" height="5" style="fill:#5d3c2d;stroke:black;stroke-width:1;fill-opacity:1;stroke-opacity:0.3" />
<rect x="821" y="140" width="53" height="5" style="fill:#5d3c2d;stroke:black;stroke-width:1;fill-opacity:1;stroke-opacity:0.3" />
<line x1="807" y1="149" x2="812" y2="151" stroke="black" stroke-width="1" />
<line x1="812" y1="151" x2="818" y2="149" stroke="black" stroke-width="1" />
<rect x="726" y="147" width="81" height="5" style="fill:#5d3c2d;stroke:black;stroke-width:1;fill-opacity:1;stroke-opacity:0.3" />
<rect x="818" y="147" width="81" height="5" style="fill:#5d3c2d;stroke:black;stroke-width:1;fill-opacity:1;stroke-opacity:0.3" />
<line x1="786" y1="107" x2="811" y2="109" stroke="black" stroke-width="1" />
<line x1="811" y1="109" x2="837" y2="107" stroke="black" stroke-width="1" />
<rect x="732" y="105" width="54" height="5" style="fill:#5d3c2d;stroke:black;stroke-width:1;fill-opacity:1;stroke-opacity:0.3" />
<rect x="837" y="105" width="52" height="5" style="fill:#5d3c2d;stroke:black;stroke-width:1;fill-opacity:1;stroke-opacity:0.3" />
<line x1="787" y1="156" x2="791" y2="158" stroke="black" stroke-width="1" />
<line x1="791" y1="158" x2="795" y2="156" stroke="black" stroke-width="1" />
<rect x="733" y="154" width="54" height="5" style="fill:#5d3c2d;stroke:black;stroke-width:1;fill-opacity:1;stroke-opacity:0.3" />
<rect x="795" y="154" width="54" height="5" style="fill:#5d3c2d;stroke:black;stroke-width:1;fill-opacity:1;stroke-opacity:0.3" />
<line x1="789" y1="58" x2="795" y2="60" stroke="black" stroke-width="1" />
<line x1="795" y1="60" x2="802" y2="58" stroke="black" stroke-width="1" />
<rect x="741" y="56" width="47" height="5" style="fill:#5d3c2d;stroke:black;stroke-width:1;fill-opacity:1;stroke-opacity:0.3" />
<rect x="802" y="56" width="54" height="5" style="fill:#5d3c2d;stroke:black;stroke-width:1;fill-opacity:1;stroke-opacity:0.3" />
<line x1="809" y1="128" x2="814" y2="130" stroke="black" stroke-width="1" />
<line x1="814" y1="130" x2="820" y2="128" stroke="black" stroke-width="1" />
<rect x="755" y="126" width="54" height="5" style="fill:#5d3c2d;stroke:black;stroke-width:1;fill-opacity:1;stroke-opacity:0.3" />
<rect x="820" y="126" width="54" height="5" style="fill:#5d3c2d;stroke:black;stroke-width:1;fill-opacity:1;stroke-opacity:0.3" />
<line x1="827" y1="30" x2="837" y2="32" stroke="black" stroke-width="1" />
<line x1="837" y1="32" x2="847" y2="30" stroke="black" stroke-width="1" />
<rect x="773" y="28" width="54" height="5" style="fill:#5d3c2d;stroke:black;stroke-width:1;fill-opacity:1;stroke-opacity:0.3" />
<rect x="847" y="28" width="53" height="5" style="fill:#5d3c2d;stroke:black;stroke-width:1;fill-opacity:1;stroke-opacity:0.3" />
<line x1="845" y1="93" x2="852" y2="95" stroke="black" stroke-width="1" />
<line x1="852" y1="95" x2="859" y2="93" stroke="black" stroke-width="1" />
<rect x="790" y="91" width="54" height="5" style="fill:#5d3c2d;stroke:black;stroke-width:1;fill-opacity:1;stroke-opacity:0.3" />
<rect x="859" y="91" width="54" height="5" style="fill:#5d3c2d;stroke:black;stroke-width:1;fill-opacity:1;stroke-opacity:0.3" />
<line x1="851" y1="121" x2="856" y2="123" stroke="black" stroke-width="1" />
<line x1="856" y1="123" x2="861" y2="121" stroke="black" stroke-width="1" />
<rect x="796" y="119" width="54" height="5" style="fill:#f5b024;stroke:black;stroke-width:1;fill-opacity:1;stroke-opacity:0.3" />
<rect x="861" y="119" width="53" height="5" style="fill:#f5b024;stroke:black;stroke-width:1;fill-opacity:1;stroke-opacity:0.3" />
<text x="15"  y="176" style="font-family:Arial;font-size:10;stroke:black;fill:black;">all.merged.bam</text>
</svg>
    
