<?xml version="1.0" encoding="utf-8" standalone="no"?>
<!DOCTYPE svg PUBLIC "-//W3C//DTD SVG 1.1//EN"
  "http://www.w3.org/Graphics/SVG/1.1/DTD/svg11.dtd">
<svg height="1140" width="1000" version="1.1" viewBox="0 0 1000 1140" xmlns="http://www.w3.org/2000/svg" xmlns:xlink="http://www.w3.org/1999/xlink">
<line x1="21" y1="11" x2="977" y2="11" stroke="black" stroke-width="1" />
<rect x="21" y="9" width="82" height="5" style="fill:#f50002;stroke:black;stroke-width:1;fill-opacity:1;stroke-opacity:0.3" />
<rect x="104" y="9" width="156" height="5" style="fill:#53a1b5;stroke:black;stroke-width:1;fill-opacity:1;stroke-opacity:0.3" />
<rect x="296" y="9" width="15" height="5" style="fill:#53a1b5;stroke:black;stroke-width:1;fill-opacity:1;stroke-opacity:0.3" />
<rect x="339" y="9" width="95" height="5" style="fill:#53a1b5;stroke:black;stroke-width:1;fill-opacity:1;stroke-opacity:0.3" />
<rect x="487" y="9" width="26" height="5" style="fill:#53a1b5;stroke:black;stroke-width:1;fill-opacity:1;stroke-opacity:0.3" />
<rect x="550" y="9" width="94" height="5" style="fill:#53a1b5;stroke:black;stroke-width:1;fill-opacity:1;stroke-opacity:0.3" />
<rect x="699" y="9" width="131" height="5" style="fill:#53a1b5;stroke:black;stroke-width:1;fill-opacity:1;stroke-opacity:0.3" />
<rect x="863" y="9" width="58" height="5" style="fill:#53a1b5;stroke:black;stroke-width:1;fill-opacity:1;stroke-opacity:0.3" />
<rect x="922" y="9" width="55" height="5" style="fill:#f50002;stroke:black;stroke-width:1;fill-opacity:1;stroke-opacity:0.3" />
<text x="21"  y="23" style="font-family:Arial;font-size:10;stroke:black;fill:black;">Cre17.g737850.t1.1.v5.5 (-) chromosome_17:5596738-5601100</text>
<line x1="42" y1="30" x2="44" y2="32" stroke="black" stroke-width="1" />
<line x1="44" y1="32" x2="46" y2="30" stroke="black" stroke-width="1" />
<rect x="21" y="28" width="21" height="5" style="fill:#f5b024;stroke:black;stroke-width:1;fill-opacity:1;stroke-opacity:0.3" />
<rect x="46" y="28" width="21" height="5" style="fill:#f5b024;stroke:black;stroke-width:1;fill-opacity:1;stroke-opacity:0.3" />
<line x1="43" y1="37" x2="44" y2="39" stroke="black" stroke-width="1" />
<line x1="44" y1="39" x2="46" y2="37" stroke="black" stroke-width="1" />
<rect x="21" y="35" width="21" height="5" style="fill:#f5b024;stroke:black;stroke-width:1;fill-opacity:1;stroke-opacity:0.3" />
<rect x="46" y="35" width="21" height="5" style="fill:#f5b024;stroke:black;stroke-width:1;fill-opacity:1;stroke-opacity:0.3" />
<line x1="46" y1="44" x2="50" y2="46" stroke="black" stroke-width="1" />
<line x1="50" y1="46" x2="54" y2="44" stroke="black" stroke-width="1" />
<rect x="24" y="42" width="21" height="5" style="fill:#f5b024;stroke:black;stroke-width:1;fill-opacity:1;stroke-opacity:0.3" />
<rect x="54" y="42" width="21" height="5" style="fill:#f5b024;stroke:black;stroke-width:1;fill-opacity:1;stroke-opacity:0.3" />
<line x1="47" y1="51" x2="55" y2="53" stroke="black" stroke-width="1" />
<line x1="55" y1="53" x2="63" y2="51" stroke="black" stroke-width="1" />
<rect x="25" y="49" width="21" height="5" style="fill:#f5b024;stroke:black;stroke-width:1;fill-opacity:1;stroke-opacity:0.3" />
<rect x="63" y="49" width="21" height="5" style="fill:#f5b024;stroke:black;stroke-width:1;fill-opacity:1;stroke-opacity:0.3" />
<line x1="51" y1="58" x2="53" y2="60" stroke="black" stroke-width="1" />
<line x1="53" y1="60" x2="56" y2="58" stroke="black" stroke-width="1" />
<rect x="29" y="56" width="21" height="5" style="fill:#f5b024;stroke:black;stroke-width:1;fill-opacity:1;stroke-opacity:0.3" />
<rect x="56" y="56" width="21" height="5" style="fill:#f5b024;stroke:black;stroke-width:1;fill-opacity:1;stroke-opacity:0.3" />
<line x1="72" y1="65" x2="75" y2="67" stroke="black" stroke-width="1" />
<line x1="75" y1="67" x2="78" y2="65" stroke="black" stroke-width="1" />
<rect x="39" y="63" width="32" height="5" style="fill:#f5b024;stroke:black;stroke-width:1;fill-opacity:1;stroke-opacity:0.3" />
<rect x="78" y="63" width="32" height="5" style="fill:#f5b024;stroke:black;stroke-width:1;fill-opacity:1;stroke-opacity:0.3" />
<line x1="61" y1="72" x2="63" y2="74" stroke="black" stroke-width="1" />
<line x1="63" y1="74" x2="65" y2="72" stroke="black" stroke-width="1" />
<rect x="39" y="70" width="21" height="5" style="fill:#f5b024;stroke:black;stroke-width:1;fill-opacity:1;stroke-opacity:0.3" />
<rect x="65" y="70" width="21" height="5" style="fill:#f5b024;stroke:black;stroke-width:1;fill-opacity:1;stroke-opacity:0.3" />
<line x1="65" y1="79" x2="73" y2="81" stroke="black" stroke-width="1" />
<line x1="73" y1="81" x2="82" y2="79" stroke="black" stroke-width="1" />
<rect x="44" y="77" width="21" height="5" style="fill:#f5b024;stroke:black;stroke-width:1;fill-opacity:1;stroke-opacity:0.3" />
<rect x="82" y="77" width="21" height="5" style="fill:#f5b024;stroke:black;stroke-width:1;fill-opacity:1;stroke-opacity:0.3" />
<line x1="66" y1="86" x2="70" y2="88" stroke="black" stroke-width="1" />
<line x1="70" y1="88" x2="74" y2="86" stroke="black" stroke-width="1" />
<rect x="44" y="84" width="21" height="5" style="fill:#f5b024;stroke:black;stroke-width:1;fill-opacity:1;stroke-opacity:0.3" />
<rect x="74" y="84" width="21" height="5" style="fill:#f5b024;stroke:black;stroke-width:1;fill-opacity:1;stroke-opacity:0.3" />
<line x1="67" y1="93" x2="69" y2="95" stroke="black" stroke-width="1" />
<line x1="69" y1="95" x2="71" y2="93" stroke="black" stroke-width="1" />
<rect x="45" y="91" width="21" height="5" style="fill:#f5b024;stroke:black;stroke-width:1;fill-opacity:1;stroke-opacity:0.3" />
<rect x="71" y="91" width="21" height="5" style="fill:#f5b024;stroke:black;stroke-width:1;fill-opacity:1;stroke-opacity:0.3" />
<line x1="69" y1="100" x2="71" y2="102" stroke="black" stroke-width="1" />
<line x1="71" y1="102" x2="73" y2="100" stroke="black" stroke-width="1" />
<rect x="47" y="98" width="21" height="5" style="fill:#f5b024;stroke:black;stroke-width:1;fill-opacity:1;stroke-opacity:0.3" />
<rect x="73" y="98" width="21" height="5" style="fill:#f5b024;stroke:black;stroke-width:1;fill-opacity:1;stroke-opacity:0.3" />
<line x1="70" y1="107" x2="77" y2="109" stroke="black" stroke-width="1" />
<line x1="77" y1="109" x2="84" y2="107" stroke="black" stroke-width="1" />
<rect x="48" y="105" width="21" height="5" style="fill:#f5b024;stroke:black;stroke-width:1;fill-opacity:1;stroke-opacity:0.3" />
<rect x="84" y="105" width="21" height="5" style="fill:#f5b024;stroke:black;stroke-width:1;fill-opacity:1;stroke-opacity:0.3" />
<line x1="81" y1="114" x2="84" y2="116" stroke="black" stroke-width="1" />
<line x1="84" y1="116" x2="88" y2="114" stroke="black" stroke-width="1" />
<rect x="48" y="112" width="32" height="5" style="fill:#f5b024;stroke:black;stroke-width:1;fill-opacity:1;stroke-opacity:0.3" />
<rect x="88" y="112" width="32" height="5" style="fill:#f5b024;stroke:black;stroke-width:1;fill-opacity:1;stroke-opacity:0.3" />
<line x1="70" y1="121" x2="71" y2="123" stroke="black" stroke-width="1" />
<line x1="71" y1="123" x2="72" y2="121" stroke="black" stroke-width="1" />
<rect x="49" y="119" width="21" height="5" style="fill:#5d3c2d;stroke:black;stroke-width:1;fill-opacity:1;stroke-opacity:0.3" />
<rect x="72" y="119" width="21" height="5" style="fill:#5d3c2d;stroke:black;stroke-width:1;fill-opacity:1;stroke-opacity:0.3" />
<line x1="84" y1="128" x2="87" y2="130" stroke="black" stroke-width="1" />
<line x1="87" y1="130" x2="91" y2="128" stroke="black" stroke-width="1" />
<rect x="62" y="126" width="21" height="5" style="fill:#f5b024;stroke:black;stroke-width:1;fill-opacity:1;stroke-opacity:0.3" />
<rect x="91" y="126" width="21" height="5" style="fill:#f5b024;stroke:black;stroke-width:1;fill-opacity:1;stroke-opacity:0.3" />
<line x1="87" y1="135" x2="91" y2="137" stroke="black" stroke-width="1" />
<line x1="91" y1="137" x2="96" y2="135" stroke="black" stroke-width="1" />
<rect x="65" y="133" width="21" height="5" style="fill:#f5b024;stroke:black;stroke-width:1;fill-opacity:1;stroke-opacity:0.3" />
<rect x="96" y="133" width="21" height="5" style="fill:#f5b024;stroke:black;stroke-width:1;fill-opacity:1;stroke-opacity:0.3" />
<line x1="98" y1="30" x2="103" y2="32" stroke="black" stroke-width="1" />
<line x1="103" y1="32" x2="109" y2="30" stroke="black" stroke-width="1" />
<rect x="76" y="28" width="21" height="5" style="fill:#f5b024;stroke:black;stroke-width:1;fill-opacity:1;stroke-opacity:0.3" />
<rect x="109" y="28" width="21" height="5" style="fill:#f5b024;stroke:black;stroke-width:1;fill-opacity:1;stroke-opacity:0.3" />
<line x1="110" y1="37" x2="116" y2="39" stroke="black" stroke-width="1" />
<line x1="116" y1="39" x2="122" y2="37" stroke="black" stroke-width="1" />
<rect x="88" y="35" width="21" height="5" style="fill:#f5b024;stroke:black;stroke-width:1;fill-opacity:1;stroke-opacity:0.3" />
<rect x="122" y="35" width="21" height="5" style="fill:#f5b024;stroke:black;stroke-width:1;fill-opacity:1;stroke-opacity:0.3" />
<line x1="111" y1="44" x2="113" y2="46" stroke="black" stroke-width="1" />
<line x1="113" y1="46" x2="116" y2="44" stroke="black" stroke-width="1" />
<rect x="90" y="42" width="21" height="5" style="fill:#f5b024;stroke:black;stroke-width:1;fill-opacity:1;stroke-opacity:0.3" />
<rect x="116" y="42" width="21" height="5" style="fill:#f5b024;stroke:black;stroke-width:1;fill-opacity:1;stroke-opacity:0.3" />
<line x1="123" y1="51" x2="127" y2="53" stroke="black" stroke-width="1" />
<line x1="127" y1="53" x2="132" y2="51" stroke="black" stroke-width="1" />
<rect x="101" y="49" width="21" height="5" style="fill:#f5b024;stroke:black;stroke-width:1;fill-opacity:1;stroke-opacity:0.3" />
<rect x="132" y="49" width="21" height="5" style="fill:#f5b024;stroke:black;stroke-width:1;fill-opacity:1;stroke-opacity:0.3" />
<line x1="125" y1="58" x2="141" y2="60" stroke="black" stroke-width="1" />
<line x1="141" y1="60" x2="157" y2="58" stroke="black" stroke-width="1" />
<rect x="103" y="56" width="21" height="5" style="fill:#f5b024;stroke:black;stroke-width:1;fill-opacity:1;stroke-opacity:0.3" />
<rect x="157" y="56" width="21" height="5" style="fill:#f5b024;stroke:black;stroke-width:1;fill-opacity:1;stroke-opacity:0.3" />
<line x1="156" y1="30" x2="157" y2="32" stroke="black" stroke-width="1" />
<line x1="157" y1="32" x2="158" y2="30" stroke="black" stroke-width="1" />
<rect x="137" y="28" width="18" height="5" style="fill:#f5b024;stroke:black;stroke-width:1;fill-opacity:1;stroke-opacity:0.3" />
<rect x="158" y="28" width="21" height="5" style="fill:#f5b024;stroke:black;stroke-width:1;fill-opacity:1;stroke-opacity:0.3" />
<line x1="169" y1="37" x2="173" y2="39" stroke="black" stroke-width="1" />
<line x1="173" y1="39" x2="177" y2="37" stroke="black" stroke-width="1" />
<rect x="147" y="35" width="21" height="5" style="fill:#f5b024;stroke:black;stroke-width:1;fill-opacity:1;stroke-opacity:0.3" />
<rect x="177" y="35" width="21" height="5" style="fill:#f5b024;stroke:black;stroke-width:1;fill-opacity:1;stroke-opacity:0.3" />
<line x1="169" y1="44" x2="173" y2="46" stroke="black" stroke-width="1" />
<line x1="173" y1="46" x2="177" y2="44" stroke="black" stroke-width="1" />
<rect x="148" y="42" width="21" height="5" style="fill:#f5b024;stroke:black;stroke-width:1;fill-opacity:1;stroke-opacity:0.3" />
<rect x="177" y="42" width="21" height="5" style="fill:#f5b024;stroke:black;stroke-width:1;fill-opacity:1;stroke-opacity:0.3" />
<line x1="172" y1="65" x2="176" y2="67" stroke="black" stroke-width="1" />
<line x1="176" y1="67" x2="181" y2="65" stroke="black" stroke-width="1" />
<rect x="150" y="63" width="21" height="5" style="fill:#f5b024;stroke:black;stroke-width:1;fill-opacity:1;stroke-opacity:0.3" />
<rect x="181" y="63" width="21" height="5" style="fill:#f5b024;stroke:black;stroke-width:1;fill-opacity:1;stroke-opacity:0.3" />
<line x1="192" y1="51" x2="197" y2="53" stroke="black" stroke-width="1" />
<line x1="197" y1="53" x2="202" y2="51" stroke="black" stroke-width="1" />
<rect x="170" y="49" width="21" height="5" style="fill:#f5b024;stroke:black;stroke-width:1;fill-opacity:1;stroke-opacity:0.3" />
<rect x="202" y="49" width="21" height="5" style="fill:#f5b024;stroke:black;stroke-width:1;fill-opacity:1;stroke-opacity:0.3" />
<line x1="192" y1="72" x2="197" y2="74" stroke="black" stroke-width="1" />
<line x1="197" y1="74" x2="203" y2="72" stroke="black" stroke-width="1" />
<rect x="170" y="70" width="21" height="5" style="fill:#f5b024;stroke:black;stroke-width:1;fill-opacity:1;stroke-opacity:0.3" />
<rect x="203" y="70" width="21" height="5" style="fill:#f5b024;stroke:black;stroke-width:1;fill-opacity:1;stroke-opacity:0.3" />
<line x1="197" y1="79" x2="198" y2="81" stroke="black" stroke-width="1" />
<line x1="198" y1="81" x2="199" y2="79" stroke="black" stroke-width="1" />
<rect x="175" y="77" width="21" height="5" style="fill:#f5b024;stroke:black;stroke-width:1;fill-opacity:1;stroke-opacity:0.3" />
<rect x="199" y="77" width="21" height="5" style="fill:#f5b024;stroke:black;stroke-width:1;fill-opacity:1;stroke-opacity:0.3" />
<line x1="198" y1="86" x2="201" y2="88" stroke="black" stroke-width="1" />
<line x1="201" y1="88" x2="205" y2="86" stroke="black" stroke-width="1" />
<rect x="176" y="84" width="21" height="5" style="fill:#f5b024;stroke:black;stroke-width:1;fill-opacity:1;stroke-opacity:0.3" />
<rect x="205" y="84" width="21" height="5" style="fill:#f5b024;stroke:black;stroke-width:1;fill-opacity:1;stroke-opacity:0.3" />
<line x1="204" y1="30" x2="209" y2="32" stroke="black" stroke-width="1" />
<line x1="209" y1="32" x2="215" y2="30" stroke="black" stroke-width="1" />
<rect x="182" y="28" width="21" height="5" style="fill:#f5b024;stroke:black;stroke-width:1;fill-opacity:1;stroke-opacity:0.3" />
<rect x="215" y="28" width="19" height="5" style="fill:#f5b024;stroke:black;stroke-width:1;fill-opacity:1;stroke-opacity:0.3" />
<line x1="204" y1="58" x2="206" y2="60" stroke="black" stroke-width="1" />
<line x1="206" y1="60" x2="208" y2="58" stroke="black" stroke-width="1" />
<rect x="183" y="56" width="21" height="5" style="fill:#f5b024;stroke:black;stroke-width:1;fill-opacity:1;stroke-opacity:0.3" />
<rect x="208" y="56" width="21" height="5" style="fill:#f5b024;stroke:black;stroke-width:1;fill-opacity:1;stroke-opacity:0.3" />
<line x1="208" y1="93" x2="212" y2="95" stroke="black" stroke-width="1" />
<line x1="212" y1="95" x2="217" y2="93" stroke="black" stroke-width="1" />
<rect x="187" y="91" width="21" height="5" style="fill:#f5b024;stroke:black;stroke-width:1;fill-opacity:1;stroke-opacity:0.3" />
<rect x="217" y="91" width="21" height="5" style="fill:#f5b024;stroke:black;stroke-width:1;fill-opacity:1;stroke-opacity:0.3" />
<line x1="225" y1="100" x2="230" y2="102" stroke="black" stroke-width="1" />
<line x1="230" y1="102" x2="235" y2="100" stroke="black" stroke-width="1" />
<rect x="193" y="98" width="32" height="5" style="fill:#f5b024;stroke:black;stroke-width:1;fill-opacity:1;stroke-opacity:0.3" />
<rect x="235" y="98" width="32" height="5" style="fill:#f5b024;stroke:black;stroke-width:1;fill-opacity:1;stroke-opacity:0.3" />
<line x1="218" y1="107" x2="221" y2="109" stroke="black" stroke-width="1" />
<line x1="221" y1="109" x2="224" y2="107" stroke="black" stroke-width="1" />
<rect x="197" y="105" width="21" height="5" style="fill:#f5b024;stroke:black;stroke-width:1;fill-opacity:1;stroke-opacity:0.3" />
<rect x="224" y="105" width="21" height="5" style="fill:#f5b024;stroke:black;stroke-width:1;fill-opacity:1;stroke-opacity:0.3" />
<line x1="219" y1="114" x2="233" y2="116" stroke="black" stroke-width="1" />
<line x1="233" y1="116" x2="247" y2="114" stroke="black" stroke-width="1" />
<rect x="197" y="112" width="21" height="5" style="fill:#f5b024;stroke:black;stroke-width:1;fill-opacity:1;stroke-opacity:0.3" />
<rect x="247" y="112" width="14" height="5" style="fill:#f5b024;stroke:black;stroke-width:1;fill-opacity:1;stroke-opacity:0.3" />
<line x1="261" y1="114" x2="296" y2="114" stroke="pink" stroke-width="1" />
<rect x="296" y="112" width="7" height="5" style="fill:#f5b024;stroke:black;stroke-width:1;fill-opacity:1;stroke-opacity:0.3" />
<line x1="221" y1="37" x2="222" y2="39" stroke="black" stroke-width="1" />
<line x1="222" y1="39" x2="223" y2="37" stroke="black" stroke-width="1" />
<rect x="199" y="35" width="21" height="5" style="fill:#f5b024;stroke:black;stroke-width:1;fill-opacity:1;stroke-opacity:0.3" />
<rect x="223" y="35" width="21" height="5" style="fill:#f5b024;stroke:black;stroke-width:1;fill-opacity:1;stroke-opacity:0.3" />
<line x1="222" y1="44" x2="225" y2="46" stroke="black" stroke-width="1" />
<line x1="225" y1="46" x2="228" y2="44" stroke="black" stroke-width="1" />
<rect x="200" y="42" width="21" height="5" style="fill:#f5b024;stroke:black;stroke-width:1;fill-opacity:1;stroke-opacity:0.3" />
<rect x="228" y="42" width="21" height="5" style="fill:#f5b024;stroke:black;stroke-width:1;fill-opacity:1;stroke-opacity:0.3" />
<line x1="235" y1="65" x2="239" y2="67" stroke="black" stroke-width="1" />
<line x1="239" y1="67" x2="243" y2="65" stroke="black" stroke-width="1" />
<rect x="213" y="63" width="21" height="5" style="fill:#5d3c2d;stroke:black;stroke-width:1;fill-opacity:1;stroke-opacity:0.3" />
<rect x="243" y="63" width="21" height="5" style="fill:#5d3c2d;stroke:black;stroke-width:1;fill-opacity:1;stroke-opacity:0.3" />
<line x1="241" y1="121" x2="247" y2="123" stroke="black" stroke-width="1" />
<line x1="247" y1="123" x2="253" y2="121" stroke="black" stroke-width="1" />
<rect x="220" y="119" width="21" height="5" style="fill:#f5b024;stroke:black;stroke-width:1;fill-opacity:1;stroke-opacity:0.3" />
<rect x="253" y="119" width="8" height="5" style="fill:#f5b024;stroke:black;stroke-width:1;fill-opacity:1;stroke-opacity:0.3" />
<line x1="261" y1="121" x2="296" y2="121" stroke="pink" stroke-width="1" />
<rect x="296" y="119" width="13" height="5" style="fill:#f5b024;stroke:black;stroke-width:1;fill-opacity:1;stroke-opacity:0.3" />
<line x1="242" y1="128" x2="269" y2="130" stroke="black" stroke-width="1" />
<line x1="269" y1="130" x2="296" y2="128" stroke="black" stroke-width="1" />
<rect x="220" y="126" width="21" height="5" style="fill:#f5b024;stroke:black;stroke-width:1;fill-opacity:1;stroke-opacity:0.3" />
<rect x="296" y="126" width="15" height="5" style="fill:#f5b024;stroke:black;stroke-width:1;fill-opacity:1;stroke-opacity:0.3" />
<line x1="312" y1="128" x2="339" y2="128" stroke="pink" stroke-width="1" />
<rect x="339" y="126" width="5" height="5" style="fill:#f5b024;stroke:black;stroke-width:1;fill-opacity:1;stroke-opacity:0.3" />
<line x1="245" y1="79" x2="246" y2="81" stroke="black" stroke-width="1" />
<line x1="246" y1="81" x2="248" y2="79" stroke="black" stroke-width="1" />
<rect x="223" y="77" width="21" height="5" style="fill:#f5b024;stroke:black;stroke-width:1;fill-opacity:1;stroke-opacity:0.3" />
<rect x="248" y="77" width="12" height="5" style="fill:#f5b024;stroke:black;stroke-width:1;fill-opacity:1;stroke-opacity:0.3" />
<line x1="261" y1="79" x2="296" y2="79" stroke="pink" stroke-width="1" />
<rect x="296" y="77" width="9" height="5" style="fill:#f5b024;stroke:black;stroke-width:1;fill-opacity:1;stroke-opacity:0.3" />
<line x1="261" y1="30" x2="267" y2="32" stroke="black" stroke-width="1" />
<line x1="267" y1="32" x2="273" y2="30" stroke="black" stroke-width="1" />
<rect x="239" y="28" width="21" height="5" style="fill:#5d3c2d;stroke:black;stroke-width:1;fill-opacity:1;stroke-opacity:0.3" />
<rect x="273" y="28" width="21" height="5" style="fill:#5d3c2d;stroke:black;stroke-width:1;fill-opacity:1;stroke-opacity:0.3" />
<line x1="299" y1="51" x2="303" y2="53" stroke="black" stroke-width="1" />
<line x1="303" y1="53" x2="307" y2="51" stroke="black" stroke-width="1" />
<rect x="244" y="49" width="17" height="5" style="fill:#f5b024;stroke:black;stroke-width:1;fill-opacity:1;stroke-opacity:0.3" />
<line x1="261" y1="51" x2="296" y2="51" stroke="pink" stroke-width="1" />
<rect x="296" y="49" width="2" height="5" style="fill:#f5b024;stroke:black;stroke-width:1;fill-opacity:1;stroke-opacity:0.3" />
<rect x="307" y="49" width="5" height="5" style="fill:#f5b024;stroke:black;stroke-width:1;fill-opacity:1;stroke-opacity:0.3" />
<line x1="312" y1="51" x2="339" y2="51" stroke="pink" stroke-width="1" />
<rect x="339" y="49" width="16" height="5" style="fill:#f5b024;stroke:black;stroke-width:1;fill-opacity:1;stroke-opacity:0.3" />
<line x1="266" y1="58" x2="281" y2="60" stroke="black" stroke-width="1" />
<line x1="281" y1="60" x2="296" y2="58" stroke="black" stroke-width="1" />
<rect x="245" y="56" width="20" height="5" style="fill:#f5b024;stroke:black;stroke-width:1;fill-opacity:1;stroke-opacity:0.3" />
<rect x="296" y="56" width="15" height="5" style="fill:#f5b024;stroke:black;stroke-width:1;fill-opacity:1;stroke-opacity:0.3" />
<line x1="312" y1="58" x2="339" y2="58" stroke="pink" stroke-width="1" />
<rect x="339" y="56" width="5" height="5" style="fill:#f5b024;stroke:black;stroke-width:1;fill-opacity:1;stroke-opacity:0.3" />
<line x1="303" y1="37" x2="305" y2="39" stroke="black" stroke-width="1" />
<line x1="305" y1="39" x2="307" y2="37" stroke="black" stroke-width="1" />
<rect x="246" y="35" width="15" height="5" style="fill:#f5b024;stroke:black;stroke-width:1;fill-opacity:1;stroke-opacity:0.3" />
<line x1="261" y1="37" x2="296" y2="37" stroke="pink" stroke-width="1" />
<rect x="296" y="35" width="6" height="5" style="fill:#f5b024;stroke:black;stroke-width:1;fill-opacity:1;stroke-opacity:0.3" />
<rect x="307" y="35" width="5" height="5" style="fill:#f5b024;stroke:black;stroke-width:1;fill-opacity:1;stroke-opacity:0.3" />
<line x1="312" y1="37" x2="339" y2="37" stroke="pink" stroke-width="1" />
<rect x="339" y="35" width="16" height="5" style="fill:#f5b024;stroke:black;stroke-width:1;fill-opacity:1;stroke-opacity:0.3" />
<line x1="303" y1="72" x2="321" y2="74" stroke="black" stroke-width="1" />
<line x1="321" y1="74" x2="339" y2="72" stroke="black" stroke-width="1" />
<rect x="246" y="70" width="15" height="5" style="fill:#f5b024;stroke:black;stroke-width:1;fill-opacity:1;stroke-opacity:0.3" />
<line x1="261" y1="72" x2="296" y2="72" stroke="pink" stroke-width="1" />
<rect x="296" y="70" width="6" height="5" style="fill:#f5b024;stroke:black;stroke-width:1;fill-opacity:1;stroke-opacity:0.3" />
<rect x="339" y="70" width="21" height="5" style="fill:#f5b024;stroke:black;stroke-width:1;fill-opacity:1;stroke-opacity:0.3" />
<line x1="304" y1="86" x2="321" y2="88" stroke="black" stroke-width="1" />
<line x1="321" y1="88" x2="339" y2="86" stroke="black" stroke-width="1" />
<rect x="247" y="84" width="14" height="5" style="fill:#5d3c2d;stroke:black;stroke-width:1;fill-opacity:1;stroke-opacity:0.3" />
<line x1="261" y1="86" x2="296" y2="86" stroke="pink" stroke-width="1" />
<rect x="296" y="84" width="7" height="5" style="fill:#5d3c2d;stroke:black;stroke-width:1;fill-opacity:1;stroke-opacity:0.3" />
<rect x="339" y="84" width="21" height="5" style="fill:#5d3c2d;stroke:black;stroke-width:1;fill-opacity:1;stroke-opacity:0.3" />
<line x1="312" y1="44" x2="325" y2="46" stroke="black" stroke-width="1" />
<line x1="325" y1="46" x2="339" y2="44" stroke="black" stroke-width="1" />
<rect x="255" y="42" width="5" height="5" style="fill:#f5b024;stroke:black;stroke-width:1;fill-opacity:1;stroke-opacity:0.3" />
<line x1="261" y1="44" x2="296" y2="44" stroke="pink" stroke-width="1" />
<rect x="296" y="42" width="16" height="5" style="fill:#f5b024;stroke:black;stroke-width:1;fill-opacity:1;stroke-opacity:0.3" />
<rect x="339" y="42" width="21" height="5" style="fill:#f5b024;stroke:black;stroke-width:1;fill-opacity:1;stroke-opacity:0.3" />
<line x1="340" y1="93" x2="341" y2="95" stroke="black" stroke-width="1" />
<line x1="341" y1="95" x2="343" y2="93" stroke="black" stroke-width="1" />
<rect x="256" y="91" width="5" height="5" style="fill:#f5b024;stroke:black;stroke-width:1;fill-opacity:1;stroke-opacity:0.3" />
<line x1="261" y1="93" x2="296" y2="93" stroke="pink" stroke-width="1" />
<rect x="296" y="91" width="15" height="5" style="fill:#f5b024;stroke:black;stroke-width:1;fill-opacity:1;stroke-opacity:0.3" />
<line x1="312" y1="93" x2="339" y2="93" stroke="pink" stroke-width="1" />
<rect x="339" y="91" width="0" height="5" style="fill:#f5b024;stroke:black;stroke-width:1;fill-opacity:1;stroke-opacity:0.3" />
<rect x="343" y="91" width="21" height="5" style="fill:#f5b024;stroke:black;stroke-width:1;fill-opacity:1;stroke-opacity:0.3" />
<line x1="292" y1="65" x2="294" y2="67" stroke="black" stroke-width="1" />
<line x1="294" y1="67" x2="297" y2="65" stroke="black" stroke-width="1" />
<rect x="270" y="63" width="21" height="5" style="fill:#5d3c2d;stroke:black;stroke-width:1;fill-opacity:1;stroke-opacity:0.3" />
<rect x="297" y="63" width="21" height="5" style="fill:#5d3c2d;stroke:black;stroke-width:1;fill-opacity:1;stroke-opacity:0.3" />
<line x1="309" y1="100" x2="325" y2="102" stroke="black" stroke-width="1" />
<line x1="325" y1="102" x2="341" y2="100" stroke="black" stroke-width="1" />
<rect x="287" y="98" width="21" height="5" style="fill:#f5b024;stroke:black;stroke-width:1;fill-opacity:1;stroke-opacity:0.3" />
<rect x="341" y="98" width="20" height="5" style="fill:#f5b024;stroke:black;stroke-width:1;fill-opacity:1;stroke-opacity:0.3" />
<line x1="312" y1="107" x2="326" y2="109" stroke="black" stroke-width="1" />
<line x1="326" y1="109" x2="340" y2="107" stroke="black" stroke-width="1" />
<rect x="293" y="105" width="18" height="5" style="fill:#f5b024;stroke:black;stroke-width:1;fill-opacity:1;stroke-opacity:0.3" />
<rect x="340" y="105" width="21" height="5" style="fill:#f5b024;stroke:black;stroke-width:1;fill-opacity:1;stroke-opacity:0.3" />
<line x1="354" y1="30" x2="359" y2="32" stroke="black" stroke-width="1" />
<line x1="359" y1="32" x2="364" y2="30" stroke="black" stroke-width="1" />
<rect x="305" y="28" width="7" height="5" style="fill:#f5b024;stroke:black;stroke-width:1;fill-opacity:1;stroke-opacity:0.3" />
<line x1="312" y1="30" x2="339" y2="30" stroke="pink" stroke-width="1" />
<rect x="339" y="28" width="14" height="5" style="fill:#f5b024;stroke:black;stroke-width:1;fill-opacity:1;stroke-opacity:0.3" />
<rect x="364" y="28" width="21" height="5" style="fill:#f5b024;stroke:black;stroke-width:1;fill-opacity:1;stroke-opacity:0.3" />
<line x1="338" y1="79" x2="341" y2="81" stroke="black" stroke-width="1" />
<line x1="341" y1="81" x2="345" y2="79" stroke="black" stroke-width="1" />
<rect x="316" y="77" width="21" height="5" style="fill:#5d3c2d;stroke:black;stroke-width:1;fill-opacity:1;stroke-opacity:0.3" />
<rect x="345" y="77" width="21" height="5" style="fill:#5d3c2d;stroke:black;stroke-width:1;fill-opacity:1;stroke-opacity:0.3" />
<line x1="348" y1="65" x2="351" y2="67" stroke="black" stroke-width="1" />
<line x1="351" y1="67" x2="354" y2="65" stroke="black" stroke-width="1" />
<rect x="326" y="63" width="21" height="5" style="fill:#5d3c2d;stroke:black;stroke-width:1;fill-opacity:1;stroke-opacity:0.3" />
<rect x="354" y="63" width="21" height="5" style="fill:#5d3c2d;stroke:black;stroke-width:1;fill-opacity:1;stroke-opacity:0.3" />
<line x1="362" y1="114" x2="370" y2="116" stroke="black" stroke-width="1" />
<line x1="370" y1="116" x2="379" y2="114" stroke="black" stroke-width="1" />
<rect x="340" y="112" width="21" height="5" style="fill:#5d3c2d;stroke:black;stroke-width:1;fill-opacity:1;stroke-opacity:0.3" />
<rect x="379" y="112" width="21" height="5" style="fill:#5d3c2d;stroke:black;stroke-width:1;fill-opacity:1;stroke-opacity:0.3" />
<line x1="362" y1="121" x2="363" y2="123" stroke="black" stroke-width="1" />
<line x1="363" y1="123" x2="365" y2="121" stroke="black" stroke-width="1" />
<rect x="340" y="119" width="21" height="5" style="fill:#f5b024;stroke:black;stroke-width:1;fill-opacity:1;stroke-opacity:0.3" />
<rect x="365" y="119" width="21" height="5" style="fill:#f5b024;stroke:black;stroke-width:1;fill-opacity:1;stroke-opacity:0.3" />
<line x1="365" y1="135" x2="369" y2="137" stroke="black" stroke-width="1" />
<line x1="369" y1="137" x2="374" y2="135" stroke="black" stroke-width="1" />
<rect x="344" y="133" width="21" height="5" style="fill:#f5b024;stroke:black;stroke-width:1;fill-opacity:1;stroke-opacity:0.3" />
<rect x="374" y="133" width="21" height="5" style="fill:#f5b024;stroke:black;stroke-width:1;fill-opacity:1;stroke-opacity:0.3" />
<line x1="368" y1="58" x2="370" y2="60" stroke="black" stroke-width="1" />
<line x1="370" y1="60" x2="372" y2="58" stroke="black" stroke-width="1" />
<rect x="346" y="56" width="21" height="5" style="fill:#f5b024;stroke:black;stroke-width:1;fill-opacity:1;stroke-opacity:0.3" />
<rect x="372" y="56" width="21" height="5" style="fill:#f5b024;stroke:black;stroke-width:1;fill-opacity:1;stroke-opacity:0.3" />
<line x1="371" y1="128" x2="375" y2="130" stroke="black" stroke-width="1" />
<line x1="375" y1="130" x2="379" y2="128" stroke="black" stroke-width="1" />
<rect x="349" y="126" width="21" height="5" style="fill:#f5b024;stroke:black;stroke-width:1;fill-opacity:1;stroke-opacity:0.3" />
<rect x="379" y="126" width="21" height="5" style="fill:#f5b024;stroke:black;stroke-width:1;fill-opacity:1;stroke-opacity:0.3" />
<line x1="371" y1="142" x2="376" y2="144" stroke="black" stroke-width="1" />
<line x1="376" y1="144" x2="382" y2="142" stroke="black" stroke-width="1" />
<rect x="349" y="140" width="21" height="5" style="fill:#5d3c2d;stroke:black;stroke-width:1;fill-opacity:1;stroke-opacity:0.3" />
<rect x="382" y="140" width="21" height="5" style="fill:#5d3c2d;stroke:black;stroke-width:1;fill-opacity:1;stroke-opacity:0.3" />
<line x1="374" y1="149" x2="375" y2="151" stroke="black" stroke-width="1" />
<line x1="375" y1="151" x2="376" y2="149" stroke="black" stroke-width="1" />
<rect x="352" y="147" width="21" height="5" style="fill:#f5b024;stroke:black;stroke-width:1;fill-opacity:1;stroke-opacity:0.3" />
<rect x="376" y="147" width="21" height="5" style="fill:#f5b024;stroke:black;stroke-width:1;fill-opacity:1;stroke-opacity:0.3" />
<line x1="374" y1="156" x2="377" y2="158" stroke="black" stroke-width="1" />
<line x1="377" y1="158" x2="381" y2="156" stroke="black" stroke-width="1" />
<rect x="353" y="154" width="21" height="5" style="fill:#f5b024;stroke:black;stroke-width:1;fill-opacity:1;stroke-opacity:0.3" />
<rect x="381" y="154" width="21" height="5" style="fill:#f5b024;stroke:black;stroke-width:1;fill-opacity:1;stroke-opacity:0.3" />
<line x1="382" y1="37" x2="392" y2="39" stroke="black" stroke-width="1" />
<line x1="392" y1="39" x2="403" y2="37" stroke="black" stroke-width="1" />
<rect x="360" y="35" width="21" height="5" style="fill:#5d3c2d;stroke:black;stroke-width:1;fill-opacity:1;stroke-opacity:0.3" />
<rect x="403" y="35" width="21" height="5" style="fill:#5d3c2d;stroke:black;stroke-width:1;fill-opacity:1;stroke-opacity:0.3" />
<line x1="382" y1="51" x2="383" y2="53" stroke="black" stroke-width="1" />
<line x1="383" y1="53" x2="385" y2="51" stroke="black" stroke-width="1" />
<rect x="360" y="49" width="21" height="5" style="fill:#f5b024;stroke:black;stroke-width:1;fill-opacity:1;stroke-opacity:0.3" />
<rect x="385" y="49" width="21" height="5" style="fill:#f5b024;stroke:black;stroke-width:1;fill-opacity:1;stroke-opacity:0.3" />
<line x1="383" y1="44" x2="387" y2="46" stroke="black" stroke-width="1" />
<line x1="387" y1="46" x2="392" y2="44" stroke="black" stroke-width="1" />
<rect x="361" y="42" width="21" height="5" style="fill:#f5b024;stroke:black;stroke-width:1;fill-opacity:1;stroke-opacity:0.3" />
<rect x="392" y="42" width="21" height="5" style="fill:#f5b024;stroke:black;stroke-width:1;fill-opacity:1;stroke-opacity:0.3" />
<line x1="384" y1="72" x2="390" y2="74" stroke="black" stroke-width="1" />
<line x1="390" y1="74" x2="396" y2="72" stroke="black" stroke-width="1" />
<rect x="362" y="70" width="21" height="5" style="fill:#f5b024;stroke:black;stroke-width:1;fill-opacity:1;stroke-opacity:0.3" />
<rect x="396" y="70" width="21" height="5" style="fill:#f5b024;stroke:black;stroke-width:1;fill-opacity:1;stroke-opacity:0.3" />
<line x1="384" y1="86" x2="390" y2="88" stroke="black" stroke-width="1" />
<line x1="390" y1="88" x2="396" y2="86" stroke="black" stroke-width="1" />
<rect x="362" y="84" width="21" height="5" style="fill:#f5b024;stroke:black;stroke-width:1;fill-opacity:1;stroke-opacity:0.3" />
<rect x="396" y="84" width="21" height="5" style="fill:#f5b024;stroke:black;stroke-width:1;fill-opacity:1;stroke-opacity:0.3" />
<line x1="388" y1="79" x2="395" y2="81" stroke="black" stroke-width="1" />
<line x1="395" y1="81" x2="403" y2="79" stroke="black" stroke-width="1" />
<rect x="368" y="77" width="20" height="5" style="fill:#f5b024;stroke:black;stroke-width:1;fill-opacity:1;stroke-opacity:0.3" />
<rect x="403" y="77" width="21" height="5" style="fill:#f5b024;stroke:black;stroke-width:1;fill-opacity:1;stroke-opacity:0.3" />
<line x1="390" y1="93" x2="394" y2="95" stroke="black" stroke-width="1" />
<line x1="394" y1="95" x2="398" y2="93" stroke="black" stroke-width="1" />
<rect x="368" y="91" width="21" height="5" style="fill:#5d3c2d;stroke:black;stroke-width:1;fill-opacity:1;stroke-opacity:0.3" />
<rect x="398" y="91" width="21" height="5" style="fill:#5d3c2d;stroke:black;stroke-width:1;fill-opacity:1;stroke-opacity:0.3" />
<line x1="390" y1="100" x2="391" y2="102" stroke="black" stroke-width="1" />
<line x1="391" y1="102" x2="393" y2="100" stroke="black" stroke-width="1" />
<rect x="369" y="98" width="21" height="5" style="fill:#f5b024;stroke:black;stroke-width:1;fill-opacity:1;stroke-opacity:0.3" />
<rect x="393" y="98" width="21" height="5" style="fill:#f5b024;stroke:black;stroke-width:1;fill-opacity:1;stroke-opacity:0.3" />
<line x1="393" y1="107" x2="398" y2="109" stroke="black" stroke-width="1" />
<line x1="398" y1="109" x2="404" y2="107" stroke="black" stroke-width="1" />
<rect x="371" y="105" width="21" height="5" style="fill:#f5b024;stroke:black;stroke-width:1;fill-opacity:1;stroke-opacity:0.3" />
<rect x="404" y="105" width="21" height="5" style="fill:#f5b024;stroke:black;stroke-width:1;fill-opacity:1;stroke-opacity:0.3" />
<line x1="402" y1="65" x2="406" y2="67" stroke="black" stroke-width="1" />
<line x1="406" y1="67" x2="411" y2="65" stroke="black" stroke-width="1" />
<rect x="380" y="63" width="21" height="5" style="fill:#f5b024;stroke:black;stroke-width:1;fill-opacity:1;stroke-opacity:0.3" />
<rect x="411" y="63" width="21" height="5" style="fill:#f5b024;stroke:black;stroke-width:1;fill-opacity:1;stroke-opacity:0.3" />
<line x1="404" y1="163" x2="411" y2="165" stroke="black" stroke-width="1" />
<line x1="411" y1="165" x2="419" y2="163" stroke="black" stroke-width="1" />
<rect x="382" y="161" width="21" height="5" style="fill:#f5b024;stroke:black;stroke-width:1;fill-opacity:1;stroke-opacity:0.3" />
<rect x="419" y="161" width="16" height="5" style="fill:#f5b024;stroke:black;stroke-width:1;fill-opacity:1;stroke-opacity:0.3" />
<line x1="435" y1="163" x2="487" y2="163" stroke="pink" stroke-width="1" />
<rect x="487" y="161" width="5" height="5" style="fill:#f5b024;stroke:black;stroke-width:1;fill-opacity:1;stroke-opacity:0.3" />
<line x1="413" y1="30" x2="416" y2="32" stroke="black" stroke-width="1" />
<line x1="416" y1="32" x2="420" y2="30" stroke="black" stroke-width="1" />
<rect x="391" y="28" width="21" height="5" style="fill:#f5b024;stroke:black;stroke-width:1;fill-opacity:1;stroke-opacity:0.3" />
<rect x="420" y="28" width="14" height="5" style="fill:#f5b024;stroke:black;stroke-width:1;fill-opacity:1;stroke-opacity:0.3" />
<line x1="435" y1="30" x2="487" y2="30" stroke="pink" stroke-width="1" />
<rect x="487" y="28" width="7" height="5" style="fill:#f5b024;stroke:black;stroke-width:1;fill-opacity:1;stroke-opacity:0.3" />
<line x1="413" y1="121" x2="416" y2="123" stroke="black" stroke-width="1" />
<line x1="416" y1="123" x2="420" y2="121" stroke="black" stroke-width="1" />
<rect x="391" y="119" width="21" height="5" style="fill:#5d3c2d;stroke:black;stroke-width:1;fill-opacity:1;stroke-opacity:0.3" />
<rect x="420" y="119" width="14" height="5" style="fill:#5d3c2d;stroke:black;stroke-width:1;fill-opacity:1;stroke-opacity:0.3" />
<line x1="435" y1="121" x2="487" y2="121" stroke="pink" stroke-width="1" />
<rect x="487" y="119" width="7" height="5" style="fill:#5d3c2d;stroke:black;stroke-width:1;fill-opacity:1;stroke-opacity:0.3" />
<line x1="490" y1="44" x2="491" y2="46" stroke="black" stroke-width="1" />
<line x1="491" y1="46" x2="493" y2="44" stroke="black" stroke-width="1" />
<rect x="416" y="42" width="19" height="5" style="fill:#f5b024;stroke:black;stroke-width:1;fill-opacity:1;stroke-opacity:0.3" />
<line x1="435" y1="44" x2="487" y2="44" stroke="pink" stroke-width="1" />
<rect x="487" y="42" width="2" height="5" style="fill:#f5b024;stroke:black;stroke-width:1;fill-opacity:1;stroke-opacity:0.3" />
<rect x="493" y="42" width="20" height="5" style="fill:#f5b024;stroke:black;stroke-width:1;fill-opacity:1;stroke-opacity:0.3" />
<line x1="581" y1="30" x2="584" y2="32" stroke="black" stroke-width="1" />
<line x1="584" y1="32" x2="587" y2="30" stroke="black" stroke-width="1" />
<rect x="559" y="28" width="21" height="5" style="fill:#f5b024;stroke:black;stroke-width:1;fill-opacity:1;stroke-opacity:0.3" />
<rect x="587" y="28" width="21" height="5" style="fill:#f5b024;stroke:black;stroke-width:1;fill-opacity:1;stroke-opacity:0.3" />
<line x1="598" y1="37" x2="603" y2="39" stroke="black" stroke-width="1" />
<line x1="603" y1="39" x2="608" y2="37" stroke="black" stroke-width="1" />
<rect x="576" y="35" width="21" height="5" style="fill:#5d3c2d;stroke:black;stroke-width:1;fill-opacity:1;stroke-opacity:0.3" />
<rect x="608" y="35" width="21" height="5" style="fill:#5d3c2d;stroke:black;stroke-width:1;fill-opacity:1;stroke-opacity:0.3" />
<line x1="601" y1="44" x2="606" y2="46" stroke="black" stroke-width="1" />
<line x1="606" y1="46" x2="612" y2="44" stroke="black" stroke-width="1" />
<rect x="579" y="42" width="21" height="5" style="fill:#f5b024;stroke:black;stroke-width:1;fill-opacity:1;stroke-opacity:0.3" />
<rect x="612" y="42" width="21" height="5" style="fill:#f5b024;stroke:black;stroke-width:1;fill-opacity:1;stroke-opacity:0.3" />
<line x1="620" y1="51" x2="624" y2="53" stroke="black" stroke-width="1" />
<line x1="624" y1="53" x2="628" y2="51" stroke="black" stroke-width="1" />
<rect x="598" y="49" width="21" height="5" style="fill:#f5b024;stroke:black;stroke-width:1;fill-opacity:1;stroke-opacity:0.3" />
<rect x="628" y="49" width="16" height="5" style="fill:#f5b024;stroke:black;stroke-width:1;fill-opacity:1;stroke-opacity:0.3" />
<line x1="644" y1="51" x2="699" y2="51" stroke="pink" stroke-width="1" />
<rect x="699" y="49" width="5" height="5" style="fill:#f5b024;stroke:black;stroke-width:1;fill-opacity:1;stroke-opacity:0.3" />
<line x1="625" y1="58" x2="632" y2="60" stroke="black" stroke-width="1" />
<line x1="632" y1="60" x2="639" y2="58" stroke="black" stroke-width="1" />
<rect x="603" y="56" width="21" height="5" style="fill:#f5b024;stroke:black;stroke-width:1;fill-opacity:1;stroke-opacity:0.3" />
<rect x="639" y="56" width="5" height="5" style="fill:#f5b024;stroke:black;stroke-width:1;fill-opacity:1;stroke-opacity:0.3" />
<line x1="644" y1="58" x2="699" y2="58" stroke="pink" stroke-width="1" />
<rect x="699" y="56" width="16" height="5" style="fill:#f5b024;stroke:black;stroke-width:1;fill-opacity:1;stroke-opacity:0.3" />
<line x1="632" y1="30" x2="634" y2="32" stroke="black" stroke-width="1" />
<line x1="634" y1="32" x2="636" y2="30" stroke="black" stroke-width="1" />
<rect x="610" y="28" width="21" height="5" style="fill:#5d3c2d;stroke:black;stroke-width:1;fill-opacity:1;stroke-opacity:0.3" />
<rect x="636" y="28" width="21" height="5" style="fill:#5d3c2d;stroke:black;stroke-width:1;fill-opacity:1;stroke-opacity:0.3" />
<line x1="633" y1="65" x2="637" y2="67" stroke="black" stroke-width="1" />
<line x1="637" y1="67" x2="642" y2="65" stroke="black" stroke-width="1" />
<rect x="612" y="63" width="21" height="5" style="fill:#f5b024;stroke:black;stroke-width:1;fill-opacity:1;stroke-opacity:0.3" />
<rect x="642" y="63" width="1" height="5" style="fill:#f5b024;stroke:black;stroke-width:1;fill-opacity:1;stroke-opacity:0.3" />
<line x1="644" y1="65" x2="699" y2="65" stroke="pink" stroke-width="1" />
<rect x="699" y="63" width="20" height="5" style="fill:#f5b024;stroke:black;stroke-width:1;fill-opacity:1;stroke-opacity:0.3" />
<line x1="638" y1="72" x2="670" y2="74" stroke="black" stroke-width="1" />
<line x1="670" y1="74" x2="702" y2="72" stroke="black" stroke-width="1" />
<rect x="616" y="70" width="21" height="5" style="fill:#f5b024;stroke:black;stroke-width:1;fill-opacity:1;stroke-opacity:0.3" />
<rect x="702" y="70" width="21" height="5" style="fill:#f5b024;stroke:black;stroke-width:1;fill-opacity:1;stroke-opacity:0.3" />
<line x1="716" y1="37" x2="722" y2="39" stroke="black" stroke-width="1" />
<line x1="722" y1="39" x2="729" y2="37" stroke="black" stroke-width="1" />
<rect x="639" y="35" width="5" height="5" style="fill:#f5b024;stroke:black;stroke-width:1;fill-opacity:1;stroke-opacity:0.3" />
<line x1="644" y1="37" x2="699" y2="37" stroke="pink" stroke-width="1" />
<rect x="699" y="35" width="16" height="5" style="fill:#f5b024;stroke:black;stroke-width:1;fill-opacity:1;stroke-opacity:0.3" />
<rect x="729" y="35" width="21" height="5" style="fill:#f5b024;stroke:black;stroke-width:1;fill-opacity:1;stroke-opacity:0.3" />
<line x1="738" y1="30" x2="740" y2="32" stroke="black" stroke-width="1" />
<line x1="740" y1="32" x2="743" y2="30" stroke="black" stroke-width="1" />
<rect x="716" y="28" width="21" height="5" style="fill:#f5b024;stroke:black;stroke-width:1;fill-opacity:1;stroke-opacity:0.3" />
<rect x="743" y="28" width="19" height="5" style="fill:#f5b024;stroke:black;stroke-width:1;fill-opacity:1;stroke-opacity:0.3" />
<line x1="744" y1="44" x2="745" y2="46" stroke="black" stroke-width="1" />
<line x1="745" y1="46" x2="747" y2="44" stroke="black" stroke-width="1" />
<rect x="722" y="42" width="21" height="5" style="fill:#f5b024;stroke:black;stroke-width:1;fill-opacity:1;stroke-opacity:0.3" />
<rect x="747" y="42" width="21" height="5" style="fill:#f5b024;stroke:black;stroke-width:1;fill-opacity:1;stroke-opacity:0.3" />
<line x1="750" y1="51" x2="754" y2="53" stroke="black" stroke-width="1" />
<line x1="754" y1="53" x2="759" y2="51" stroke="black" stroke-width="1" />
<rect x="728" y="49" width="21" height="5" style="fill:#f5b024;stroke:black;stroke-width:1;fill-opacity:1;stroke-opacity:0.3" />
<rect x="759" y="49" width="21" height="5" style="fill:#f5b024;stroke:black;stroke-width:1;fill-opacity:1;stroke-opacity:0.3" />
<line x1="750" y1="58" x2="754" y2="60" stroke="black" stroke-width="1" />
<line x1="754" y1="60" x2="759" y2="58" stroke="black" stroke-width="1" />
<rect x="728" y="56" width="21" height="5" style="fill:#f5b024;stroke:black;stroke-width:1;fill-opacity:1;stroke-opacity:0.3" />
<rect x="759" y="56" width="21" height="5" style="fill:#f5b024;stroke:black;stroke-width:1;fill-opacity:1;stroke-opacity:0.3" />
<line x1="757" y1="65" x2="764" y2="67" stroke="black" stroke-width="1" />
<line x1="764" y1="67" x2="772" y2="65" stroke="black" stroke-width="1" />
<rect x="735" y="63" width="21" height="5" style="fill:#f5b024;stroke:black;stroke-width:1;fill-opacity:1;stroke-opacity:0.3" />
<rect x="772" y="63" width="21" height="5" style="fill:#f5b024;stroke:black;stroke-width:1;fill-opacity:1;stroke-opacity:0.3" />
<line x1="757" y1="72" x2="764" y2="74" stroke="black" stroke-width="1" />
<line x1="764" y1="74" x2="772" y2="72" stroke="black" stroke-width="1" />
<rect x="735" y="70" width="21" height="5" style="fill:#f5b024;stroke:black;stroke-width:1;fill-opacity:1;stroke-opacity:0.3" />
<rect x="772" y="70" width="21" height="5" style="fill:#f5b024;stroke:black;stroke-width:1;fill-opacity:1;stroke-opacity:0.3" />
<line x1="773" y1="37" x2="775" y2="39" stroke="black" stroke-width="1" />
<line x1="775" y1="39" x2="777" y2="37" stroke="black" stroke-width="1" />
<rect x="751" y="35" width="21" height="5" style="fill:#f5b024;stroke:black;stroke-width:1;fill-opacity:1;stroke-opacity:0.3" />
<rect x="777" y="35" width="21" height="5" style="fill:#f5b024;stroke:black;stroke-width:1;fill-opacity:1;stroke-opacity:0.3" />
<line x1="807" y1="30" x2="813" y2="32" stroke="black" stroke-width="1" />
<line x1="813" y1="32" x2="820" y2="30" stroke="black" stroke-width="1" />
<rect x="785" y="28" width="21" height="5" style="fill:#f5b024;stroke:black;stroke-width:1;fill-opacity:1;stroke-opacity:0.3" />
<rect x="820" y="28" width="11" height="5" style="fill:#f5b024;stroke:black;stroke-width:1;fill-opacity:1;stroke-opacity:0.3" />
<line x1="831" y1="30" x2="863" y2="30" stroke="pink" stroke-width="1" />
<rect x="863" y="28" width="10" height="5" style="fill:#f5b024;stroke:black;stroke-width:1;fill-opacity:1;stroke-opacity:0.3" />
<line x1="882" y1="37" x2="883" y2="39" stroke="black" stroke-width="1" />
<line x1="883" y1="39" x2="885" y2="37" stroke="black" stroke-width="1" />
<rect x="828" y="35" width="2" height="5" style="fill:#f5b024;stroke:black;stroke-width:1;fill-opacity:1;stroke-opacity:0.3" />
<line x1="831" y1="37" x2="863" y2="37" stroke="pink" stroke-width="1" />
<rect x="863" y="35" width="19" height="5" style="fill:#f5b024;stroke:black;stroke-width:1;fill-opacity:1;stroke-opacity:0.3" />
<rect x="885" y="35" width="21" height="5" style="fill:#f5b024;stroke:black;stroke-width:1;fill-opacity:1;stroke-opacity:0.3" />
<line x1="892" y1="44" x2="897" y2="46" stroke="black" stroke-width="1" />
<line x1="897" y1="46" x2="902" y2="44" stroke="black" stroke-width="1" />
<rect x="870" y="42" width="21" height="5" style="fill:#f5b024;stroke:black;stroke-width:1;fill-opacity:1;stroke-opacity:0.3" />
<rect x="902" y="42" width="21" height="5" style="fill:#f5b024;stroke:black;stroke-width:1;fill-opacity:1;stroke-opacity:0.3" />
<line x1="909" y1="30" x2="911" y2="32" stroke="black" stroke-width="1" />
<line x1="911" y1="32" x2="914" y2="30" stroke="black" stroke-width="1" />
<rect x="887" y="28" width="21" height="5" style="fill:#f5b024;stroke:black;stroke-width:1;fill-opacity:1;stroke-opacity:0.3" />
<rect x="914" y="28" width="21" height="5" style="fill:#f5b024;stroke:black;stroke-width:1;fill-opacity:1;stroke-opacity:0.3" />
<line x1="909" y1="51" x2="916" y2="53" stroke="black" stroke-width="1" />
<line x1="916" y1="53" x2="923" y2="51" stroke="black" stroke-width="1" />
<rect x="887" y="49" width="21" height="5" style="fill:#f5b024;stroke:black;stroke-width:1;fill-opacity:1;stroke-opacity:0.3" />
<rect x="923" y="49" width="21" height="5" style="fill:#f5b024;stroke:black;stroke-width:1;fill-opacity:1;stroke-opacity:0.3" />
<line x1="927" y1="58" x2="947" y2="60" stroke="black" stroke-width="1" />
<line x1="947" y1="60" x2="967" y2="58" stroke="black" stroke-width="1" />
<rect x="905" y="56" width="21" height="5" style="fill:#5d3c2d;stroke:black;stroke-width:1;fill-opacity:1;stroke-opacity:0.3" />
<rect x="967" y="56" width="21" height="5" style="fill:#5d3c2d;stroke:black;stroke-width:1;fill-opacity:1;stroke-opacity:0.3" />
<line x1="938" y1="37" x2="941" y2="39" stroke="black" stroke-width="1" />
<line x1="941" y1="39" x2="945" y2="37" stroke="black" stroke-width="1" />
<rect x="916" y="35" width="21" height="5" style="fill:#f5b024;stroke:black;stroke-width:1;fill-opacity:1;stroke-opacity:0.3" />
<rect x="945" y="35" width="21" height="5" style="fill:#f5b024;stroke:black;stroke-width:1;fill-opacity:1;stroke-opacity:0.3" />
<text x="15"  y="176" style="font-family:Arial;font-size:10;stroke:black;fill:black;">all.merged.bam</text>
</svg>
    
