<?xml version="1.0" encoding="utf-8" standalone="no"?>
<!DOCTYPE svg PUBLIC "-//W3C//DTD SVG 1.1//EN"
  "http://www.w3.org/Graphics/SVG/1.1/DTD/svg11.dtd">
<svg height="1140" width="1000" version="1.1" viewBox="0 0 1000 1140" xmlns="http://www.w3.org/2000/svg" xmlns:xlink="http://www.w3.org/1999/xlink">
<line x1="25" y1="11" x2="974" y2="11" stroke="black" stroke-width="1" />
<rect x="25" y="9" width="94" height="5" style="fill:#f50002;stroke:black;stroke-width:1;fill-opacity:1;stroke-opacity:0.3" />
<rect x="120" y="9" width="9" height="5" style="fill:#53a1b5;stroke:black;stroke-width:1;fill-opacity:1;stroke-opacity:0.3" />
<rect x="754" y="9" width="30" height="5" style="fill:#53a1b5;stroke:black;stroke-width:1;fill-opacity:1;stroke-opacity:0.3" />
<rect x="799" y="9" width="19" height="5" style="fill:#53a1b5;stroke:black;stroke-width:1;fill-opacity:1;stroke-opacity:0.3" />
<rect x="853" y="9" width="12" height="5" style="fill:#53a1b5;stroke:black;stroke-width:1;fill-opacity:1;stroke-opacity:0.3" />
<rect x="905" y="9" width="8" height="5" style="fill:#53a1b5;stroke:black;stroke-width:1;fill-opacity:1;stroke-opacity:0.3" />
<rect x="914" y="9" width="60" height="5" style="fill:#f50002;stroke:black;stroke-width:1;fill-opacity:1;stroke-opacity:0.3" />
<text x="25"  y="23" style="font-family:Arial;font-size:10;stroke:black;fill:black;">Cre14.g631141.t1.2.v5.5 (+) chromosome_14:3583659-3587432</text>
<line x1="228" y1="30" x2="237" y2="32" stroke="black" stroke-width="1" />
<line x1="237" y1="32" x2="246" y2="30" stroke="black" stroke-width="1" />
<rect x="203" y="28" width="25" height="5" style="fill:#5d3c2d;stroke:black;stroke-width:1;fill-opacity:1;stroke-opacity:0.3" />
<rect x="246" y="28" width="25" height="5" style="fill:#5d3c2d;stroke:black;stroke-width:1;fill-opacity:1;stroke-opacity:0.3" />
<line x1="376" y1="30" x2="447" y2="32" stroke="black" stroke-width="1" />
<line x1="447" y1="32" x2="519" y2="30" stroke="black" stroke-width="1" />
<rect x="351" y="28" width="25" height="5" style="fill:#5d3c2d;stroke:black;stroke-width:1;fill-opacity:1;stroke-opacity:0.3" />
<rect x="519" y="28" width="25" height="5" style="fill:#5d3c2d;stroke:black;stroke-width:1;fill-opacity:1;stroke-opacity:0.3" />
<line x1="435" y1="37" x2="436" y2="39" stroke="black" stroke-width="1" />
<line x1="436" y1="39" x2="437" y2="37" stroke="black" stroke-width="1" />
<rect x="409" y="35" width="25" height="5" style="fill:#5d3c2d;stroke:black;stroke-width:1;fill-opacity:1;stroke-opacity:0.3" />
<rect x="437" y="35" width="25" height="5" style="fill:#5d3c2d;stroke:black;stroke-width:1;fill-opacity:1;stroke-opacity:0.3" />
<line x1="734" y1="30" x2="739" y2="32" stroke="black" stroke-width="1" />
<line x1="739" y1="32" x2="745" y2="30" stroke="black" stroke-width="1" />
<rect x="709" y="28" width="25" height="5" style="fill:#5d3c2d;stroke:black;stroke-width:1;fill-opacity:1;stroke-opacity:0.3" />
<rect x="745" y="28" width="25" height="5" style="fill:#5d3c2d;stroke:black;stroke-width:1;fill-opacity:1;stroke-opacity:0.3" />
<line x1="737" y1="37" x2="746" y2="39" stroke="black" stroke-width="1" />
<line x1="746" y1="39" x2="755" y2="37" stroke="black" stroke-width="1" />
<rect x="712" y="35" width="25" height="5" style="fill:#5d3c2d;stroke:black;stroke-width:1;fill-opacity:1;stroke-opacity:0.3" />
<rect x="755" y="35" width="25" height="5" style="fill:#5d3c2d;stroke:black;stroke-width:1;fill-opacity:1;stroke-opacity:0.3" />
<line x1="738" y1="44" x2="746" y2="46" stroke="black" stroke-width="1" />
<line x1="746" y1="46" x2="755" y2="44" stroke="black" stroke-width="1" />
<rect x="713" y="42" width="25" height="5" style="fill:#5d3c2d;stroke:black;stroke-width:1;fill-opacity:1;stroke-opacity:0.3" />
<rect x="755" y="42" width="25" height="5" style="fill:#5d3c2d;stroke:black;stroke-width:1;fill-opacity:1;stroke-opacity:0.3" />
<line x1="739" y1="51" x2="745" y2="53" stroke="black" stroke-width="1" />
<line x1="745" y1="53" x2="752" y2="51" stroke="black" stroke-width="1" />
<rect x="714" y="49" width="25" height="5" style="fill:#5d3c2d;stroke:black;stroke-width:1;fill-opacity:1;stroke-opacity:0.3" />
<rect x="752" y="49" width="25" height="5" style="fill:#5d3c2d;stroke:black;stroke-width:1;fill-opacity:1;stroke-opacity:0.3" />
<line x1="739" y1="58" x2="753" y2="60" stroke="black" stroke-width="1" />
<line x1="753" y1="60" x2="767" y2="58" stroke="black" stroke-width="1" />
<rect x="714" y="56" width="25" height="5" style="fill:#5d3c2d;stroke:black;stroke-width:1;fill-opacity:1;stroke-opacity:0.3" />
<rect x="767" y="56" width="16" height="5" style="fill:#5d3c2d;stroke:black;stroke-width:1;fill-opacity:1;stroke-opacity:0.3" />
<line x1="784" y1="58" x2="799" y2="58" stroke="pink" stroke-width="1" />
<rect x="799" y="56" width="8" height="5" style="fill:#5d3c2d;stroke:black;stroke-width:1;fill-opacity:1;stroke-opacity:0.3" />
<line x1="740" y1="65" x2="745" y2="67" stroke="black" stroke-width="1" />
<line x1="745" y1="67" x2="751" y2="65" stroke="black" stroke-width="1" />
<rect x="715" y="63" width="25" height="5" style="fill:#5d3c2d;stroke:black;stroke-width:1;fill-opacity:1;stroke-opacity:0.3" />
<rect x="751" y="63" width="25" height="5" style="fill:#5d3c2d;stroke:black;stroke-width:1;fill-opacity:1;stroke-opacity:0.3" />
<line x1="741" y1="72" x2="745" y2="74" stroke="black" stroke-width="1" />
<line x1="745" y1="74" x2="749" y2="72" stroke="black" stroke-width="1" />
<rect x="715" y="70" width="25" height="5" style="fill:#5d3c2d;stroke:black;stroke-width:1;fill-opacity:1;stroke-opacity:0.3" />
<rect x="749" y="70" width="25" height="5" style="fill:#5d3c2d;stroke:black;stroke-width:1;fill-opacity:1;stroke-opacity:0.3" />
<line x1="741" y1="79" x2="743" y2="81" stroke="black" stroke-width="1" />
<line x1="743" y1="81" x2="745" y2="79" stroke="black" stroke-width="1" />
<rect x="716" y="77" width="25" height="5" style="fill:#5d3c2d;stroke:black;stroke-width:1;fill-opacity:1;stroke-opacity:0.3" />
<rect x="745" y="77" width="25" height="5" style="fill:#5d3c2d;stroke:black;stroke-width:1;fill-opacity:1;stroke-opacity:0.3" />
<line x1="741" y1="86" x2="748" y2="88" stroke="black" stroke-width="1" />
<line x1="748" y1="88" x2="755" y2="86" stroke="black" stroke-width="1" />
<rect x="716" y="84" width="25" height="5" style="fill:#5d3c2d;stroke:black;stroke-width:1;fill-opacity:1;stroke-opacity:0.3" />
<rect x="755" y="84" width="25" height="5" style="fill:#5d3c2d;stroke:black;stroke-width:1;fill-opacity:1;stroke-opacity:0.3" />
<line x1="750" y1="93" x2="755" y2="95" stroke="black" stroke-width="1" />
<line x1="755" y1="95" x2="761" y2="93" stroke="black" stroke-width="1" />
<rect x="716" y="91" width="33" height="5" style="fill:#5d3c2d;stroke:black;stroke-width:1;fill-opacity:1;stroke-opacity:0.3" />
<rect x="761" y="91" width="22" height="5" style="fill:#5d3c2d;stroke:black;stroke-width:1;fill-opacity:1;stroke-opacity:0.3" />
<line x1="784" y1="93" x2="799" y2="93" stroke="pink" stroke-width="1" />
<rect x="799" y="91" width="15" height="5" style="fill:#5d3c2d;stroke:black;stroke-width:1;fill-opacity:1;stroke-opacity:0.3" />
<line x1="744" y1="100" x2="754" y2="102" stroke="black" stroke-width="1" />
<line x1="754" y1="102" x2="765" y2="100" stroke="black" stroke-width="1" />
<rect x="718" y="98" width="25" height="5" style="fill:#5d3c2d;stroke:black;stroke-width:1;fill-opacity:1;stroke-opacity:0.3" />
<rect x="765" y="98" width="18" height="5" style="fill:#5d3c2d;stroke:black;stroke-width:1;fill-opacity:1;stroke-opacity:0.3" />
<line x1="784" y1="100" x2="799" y2="100" stroke="pink" stroke-width="1" />
<rect x="799" y="98" width="6" height="5" style="fill:#5d3c2d;stroke:black;stroke-width:1;fill-opacity:1;stroke-opacity:0.3" />
<line x1="744" y1="107" x2="746" y2="109" stroke="black" stroke-width="1" />
<line x1="746" y1="109" x2="749" y2="107" stroke="black" stroke-width="1" />
<rect x="719" y="105" width="25" height="5" style="fill:#5d3c2d;stroke:black;stroke-width:1;fill-opacity:1;stroke-opacity:0.3" />
<rect x="749" y="105" width="25" height="5" style="fill:#5d3c2d;stroke:black;stroke-width:1;fill-opacity:1;stroke-opacity:0.3" />
<line x1="747" y1="114" x2="751" y2="116" stroke="black" stroke-width="1" />
<line x1="751" y1="116" x2="755" y2="114" stroke="black" stroke-width="1" />
<rect x="722" y="112" width="25" height="5" style="fill:#5d3c2d;stroke:black;stroke-width:1;fill-opacity:1;stroke-opacity:0.3" />
<rect x="755" y="112" width="25" height="5" style="fill:#5d3c2d;stroke:black;stroke-width:1;fill-opacity:1;stroke-opacity:0.3" />
<line x1="747" y1="121" x2="751" y2="123" stroke="black" stroke-width="1" />
<line x1="751" y1="123" x2="755" y2="121" stroke="black" stroke-width="1" />
<rect x="722" y="119" width="25" height="5" style="fill:#5d3c2d;stroke:black;stroke-width:1;fill-opacity:1;stroke-opacity:0.3" />
<rect x="755" y="119" width="25" height="5" style="fill:#5d3c2d;stroke:black;stroke-width:1;fill-opacity:1;stroke-opacity:0.3" />
<line x1="747" y1="128" x2="749" y2="130" stroke="black" stroke-width="1" />
<line x1="749" y1="130" x2="751" y2="128" stroke="black" stroke-width="1" />
<rect x="722" y="126" width="25" height="5" style="fill:#5d3c2d;stroke:black;stroke-width:1;fill-opacity:1;stroke-opacity:0.3" />
<rect x="751" y="126" width="25" height="5" style="fill:#5d3c2d;stroke:black;stroke-width:1;fill-opacity:1;stroke-opacity:0.3" />
<line x1="748" y1="135" x2="749" y2="137" stroke="black" stroke-width="1" />
<line x1="749" y1="137" x2="751" y2="135" stroke="black" stroke-width="1" />
<rect x="723" y="133" width="25" height="5" style="fill:#5d3c2d;stroke:black;stroke-width:1;fill-opacity:1;stroke-opacity:0.3" />
<rect x="751" y="133" width="25" height="5" style="fill:#5d3c2d;stroke:black;stroke-width:1;fill-opacity:1;stroke-opacity:0.3" />
<line x1="749" y1="142" x2="752" y2="144" stroke="black" stroke-width="1" />
<line x1="752" y1="144" x2="755" y2="142" stroke="black" stroke-width="1" />
<rect x="723" y="140" width="25" height="5" style="fill:#5d3c2d;stroke:black;stroke-width:1;fill-opacity:1;stroke-opacity:0.3" />
<rect x="755" y="140" width="25" height="5" style="fill:#5d3c2d;stroke:black;stroke-width:1;fill-opacity:1;stroke-opacity:0.3" />
<line x1="749" y1="149" x2="752" y2="151" stroke="black" stroke-width="1" />
<line x1="752" y1="151" x2="755" y2="149" stroke="black" stroke-width="1" />
<rect x="723" y="147" width="25" height="5" style="fill:#5d3c2d;stroke:black;stroke-width:1;fill-opacity:1;stroke-opacity:0.3" />
<rect x="755" y="147" width="25" height="5" style="fill:#5d3c2d;stroke:black;stroke-width:1;fill-opacity:1;stroke-opacity:0.3" />
<line x1="749" y1="156" x2="757" y2="158" stroke="black" stroke-width="1" />
<line x1="757" y1="158" x2="765" y2="156" stroke="black" stroke-width="1" />
<rect x="724" y="154" width="25" height="5" style="fill:#5d3c2d;stroke:black;stroke-width:1;fill-opacity:1;stroke-opacity:0.3" />
<rect x="765" y="154" width="19" height="5" style="fill:#5d3c2d;stroke:black;stroke-width:1;fill-opacity:1;stroke-opacity:0.3" />
<line x1="784" y1="156" x2="799" y2="156" stroke="pink" stroke-width="1" />
<rect x="799" y="154" width="6" height="5" style="fill:#5d3c2d;stroke:black;stroke-width:1;fill-opacity:1;stroke-opacity:0.3" />
<line x1="754" y1="163" x2="759" y2="165" stroke="black" stroke-width="1" />
<line x1="759" y1="165" x2="765" y2="163" stroke="black" stroke-width="1" />
<rect x="729" y="161" width="25" height="5" style="fill:#5d3c2d;stroke:black;stroke-width:1;fill-opacity:1;stroke-opacity:0.3" />
<rect x="765" y="161" width="18" height="5" style="fill:#5d3c2d;stroke:black;stroke-width:1;fill-opacity:1;stroke-opacity:0.3" />
<line x1="784" y1="163" x2="799" y2="163" stroke="pink" stroke-width="1" />
<rect x="799" y="161" width="6" height="5" style="fill:#5d3c2d;stroke:black;stroke-width:1;fill-opacity:1;stroke-opacity:0.3" />
<line x1="812" y1="30" x2="814" y2="32" stroke="black" stroke-width="1" />
<line x1="814" y1="32" x2="817" y2="30" stroke="black" stroke-width="1" />
<rect x="771" y="28" width="12" height="5" style="fill:#5d3c2d;stroke:black;stroke-width:1;fill-opacity:1;stroke-opacity:0.3" />
<line x1="784" y1="30" x2="799" y2="30" stroke="pink" stroke-width="1" />
<rect x="799" y="28" width="12" height="5" style="fill:#5d3c2d;stroke:black;stroke-width:1;fill-opacity:1;stroke-opacity:0.3" />
<rect x="817" y="28" width="2" height="5" style="fill:#5d3c2d;stroke:black;stroke-width:1;fill-opacity:1;stroke-opacity:0.3" />
<line x1="819" y1="30" x2="853" y2="30" stroke="pink" stroke-width="1" />
<rect x="853" y="28" width="13" height="5" style="fill:#5d3c2d;stroke:black;stroke-width:1;fill-opacity:1;stroke-opacity:0.3" />
<line x1="866" y1="30" x2="905" y2="30" stroke="pink" stroke-width="1" />
<rect x="905" y="28" width="10" height="5" style="fill:#5d3c2d;stroke:black;stroke-width:1;fill-opacity:1;stroke-opacity:0.3" />
<line x1="812" y1="79" x2="861" y2="81" stroke="black" stroke-width="1" />
<line x1="861" y1="81" x2="911" y2="79" stroke="black" stroke-width="1" />
<rect x="771" y="77" width="12" height="5" style="fill:#5d3c2d;stroke:black;stroke-width:1;fill-opacity:1;stroke-opacity:0.3" />
<line x1="784" y1="79" x2="799" y2="79" stroke="pink" stroke-width="1" />
<rect x="799" y="77" width="12" height="5" style="fill:#5d3c2d;stroke:black;stroke-width:1;fill-opacity:1;stroke-opacity:0.3" />
<rect x="911" y="77" width="25" height="5" style="fill:#5d3c2d;stroke:black;stroke-width:1;fill-opacity:1;stroke-opacity:0.3" />
<line x1="816" y1="72" x2="837" y2="74" stroke="black" stroke-width="1" />
<line x1="837" y1="74" x2="858" y2="72" stroke="black" stroke-width="1" />
<rect x="775" y="70" width="9" height="5" style="fill:#5d3c2d;stroke:black;stroke-width:1;fill-opacity:1;stroke-opacity:0.3" />
<line x1="784" y1="72" x2="799" y2="72" stroke="pink" stroke-width="1" />
<rect x="799" y="70" width="16" height="5" style="fill:#5d3c2d;stroke:black;stroke-width:1;fill-opacity:1;stroke-opacity:0.3" />
<rect x="858" y="70" width="8" height="5" style="fill:#5d3c2d;stroke:black;stroke-width:1;fill-opacity:1;stroke-opacity:0.3" />
<line x1="866" y1="72" x2="905" y2="72" stroke="pink" stroke-width="1" />
<rect x="905" y="70" width="16" height="5" style="fill:#5d3c2d;stroke:black;stroke-width:1;fill-opacity:1;stroke-opacity:0.3" />
<line x1="816" y1="107" x2="835" y2="109" stroke="black" stroke-width="1" />
<line x1="835" y1="109" x2="855" y2="107" stroke="black" stroke-width="1" />
<rect x="775" y="105" width="8" height="5" style="fill:#5d3c2d;stroke:black;stroke-width:1;fill-opacity:1;stroke-opacity:0.3" />
<line x1="784" y1="107" x2="799" y2="107" stroke="pink" stroke-width="1" />
<rect x="799" y="105" width="16" height="5" style="fill:#5d3c2d;stroke:black;stroke-width:1;fill-opacity:1;stroke-opacity:0.3" />
<rect x="855" y="105" width="11" height="5" style="fill:#5d3c2d;stroke:black;stroke-width:1;fill-opacity:1;stroke-opacity:0.3" />
<line x1="866" y1="107" x2="905" y2="107" stroke="pink" stroke-width="1" />
<rect x="905" y="105" width="13" height="5" style="fill:#5d3c2d;stroke:black;stroke-width:1;fill-opacity:1;stroke-opacity:0.3" />
<line x1="817" y1="65" x2="868" y2="67" stroke="black" stroke-width="1" />
<line x1="868" y1="67" x2="920" y2="65" stroke="black" stroke-width="1" />
<rect x="776" y="63" width="7" height="5" style="fill:#5d3c2d;stroke:black;stroke-width:1;fill-opacity:1;stroke-opacity:0.3" />
<line x1="784" y1="65" x2="799" y2="65" stroke="pink" stroke-width="1" />
<rect x="799" y="63" width="17" height="5" style="fill:#5d3c2d;stroke:black;stroke-width:1;fill-opacity:1;stroke-opacity:0.3" />
<rect x="920" y="63" width="25" height="5" style="fill:#5d3c2d;stroke:black;stroke-width:1;fill-opacity:1;stroke-opacity:0.3" />
<line x1="818" y1="128" x2="838" y2="130" stroke="black" stroke-width="1" />
<line x1="838" y1="130" x2="858" y2="128" stroke="black" stroke-width="1" />
<rect x="777" y="126" width="6" height="5" style="fill:#5d3c2d;stroke:black;stroke-width:1;fill-opacity:1;stroke-opacity:0.3" />
<line x1="784" y1="128" x2="799" y2="128" stroke="pink" stroke-width="1" />
<rect x="799" y="126" width="18" height="5" style="fill:#5d3c2d;stroke:black;stroke-width:1;fill-opacity:1;stroke-opacity:0.3" />
<rect x="858" y="126" width="8" height="5" style="fill:#5d3c2d;stroke:black;stroke-width:1;fill-opacity:1;stroke-opacity:0.3" />
<line x1="866" y1="128" x2="905" y2="128" stroke="pink" stroke-width="1" />
<rect x="905" y="126" width="16" height="5" style="fill:#5d3c2d;stroke:black;stroke-width:1;fill-opacity:1;stroke-opacity:0.3" />
<line x1="818" y1="135" x2="839" y2="137" stroke="black" stroke-width="1" />
<line x1="839" y1="137" x2="861" y2="135" stroke="black" stroke-width="1" />
<rect x="777" y="133" width="6" height="5" style="fill:#5d3c2d;stroke:black;stroke-width:1;fill-opacity:1;stroke-opacity:0.3" />
<line x1="784" y1="135" x2="799" y2="135" stroke="pink" stroke-width="1" />
<rect x="799" y="133" width="18" height="5" style="fill:#5d3c2d;stroke:black;stroke-width:1;fill-opacity:1;stroke-opacity:0.3" />
<rect x="861" y="133" width="5" height="5" style="fill:#5d3c2d;stroke:black;stroke-width:1;fill-opacity:1;stroke-opacity:0.3" />
<line x1="866" y1="135" x2="905" y2="135" stroke="pink" stroke-width="1" />
<rect x="905" y="133" width="19" height="5" style="fill:#5d3c2d;stroke:black;stroke-width:1;fill-opacity:1;stroke-opacity:0.3" />
<line x1="854" y1="51" x2="885" y2="53" stroke="black" stroke-width="1" />
<line x1="885" y1="53" x2="917" y2="51" stroke="black" stroke-width="1" />
<rect x="779" y="49" width="4" height="5" style="fill:#5d3c2d;stroke:black;stroke-width:1;fill-opacity:1;stroke-opacity:0.3" />
<line x1="784" y1="51" x2="799" y2="51" stroke="pink" stroke-width="1" />
<rect x="799" y="49" width="19" height="5" style="fill:#5d3c2d;stroke:black;stroke-width:1;fill-opacity:1;stroke-opacity:0.3" />
<line x1="819" y1="51" x2="853" y2="51" stroke="pink" stroke-width="1" />
<rect x="853" y="49" width="1" height="5" style="fill:#5d3c2d;stroke:black;stroke-width:1;fill-opacity:1;stroke-opacity:0.3" />
<rect x="917" y="49" width="25" height="5" style="fill:#5d3c2d;stroke:black;stroke-width:1;fill-opacity:1;stroke-opacity:0.3" />
<line x1="856" y1="37" x2="881" y2="39" stroke="black" stroke-width="1" />
<line x1="881" y1="39" x2="907" y2="37" stroke="black" stroke-width="1" />
<rect x="781" y="35" width="3" height="5" style="fill:#5d3c2d;stroke:black;stroke-width:1;fill-opacity:1;stroke-opacity:0.3" />
<line x1="784" y1="37" x2="799" y2="37" stroke="pink" stroke-width="1" />
<rect x="799" y="35" width="19" height="5" style="fill:#5d3c2d;stroke:black;stroke-width:1;fill-opacity:1;stroke-opacity:0.3" />
<line x1="819" y1="37" x2="853" y2="37" stroke="pink" stroke-width="1" />
<rect x="853" y="35" width="2" height="5" style="fill:#5d3c2d;stroke:black;stroke-width:1;fill-opacity:1;stroke-opacity:0.3" />
<rect x="907" y="35" width="25" height="5" style="fill:#5d3c2d;stroke:black;stroke-width:1;fill-opacity:1;stroke-opacity:0.3" />
<line x1="856" y1="44" x2="886" y2="46" stroke="black" stroke-width="1" />
<line x1="886" y1="46" x2="917" y2="44" stroke="black" stroke-width="1" />
<rect x="781" y="42" width="2" height="5" style="fill:#5d3c2d;stroke:black;stroke-width:1;fill-opacity:1;stroke-opacity:0.3" />
<line x1="784" y1="44" x2="799" y2="44" stroke="pink" stroke-width="1" />
<rect x="799" y="42" width="19" height="5" style="fill:#5d3c2d;stroke:black;stroke-width:1;fill-opacity:1;stroke-opacity:0.3" />
<line x1="819" y1="44" x2="853" y2="44" stroke="pink" stroke-width="1" />
<rect x="853" y="42" width="3" height="5" style="fill:#5d3c2d;stroke:black;stroke-width:1;fill-opacity:1;stroke-opacity:0.3" />
<rect x="917" y="42" width="25" height="5" style="fill:#5d3c2d;stroke:black;stroke-width:1;fill-opacity:1;stroke-opacity:0.3" />
<line x1="856" y1="86" x2="858" y2="88" stroke="black" stroke-width="1" />
<line x1="858" y1="88" x2="861" y2="86" stroke="black" stroke-width="1" />
<rect x="781" y="84" width="2" height="5" style="fill:#5d3c2d;stroke:black;stroke-width:1;fill-opacity:1;stroke-opacity:0.3" />
<line x1="784" y1="86" x2="799" y2="86" stroke="pink" stroke-width="1" />
<rect x="799" y="84" width="19" height="5" style="fill:#5d3c2d;stroke:black;stroke-width:1;fill-opacity:1;stroke-opacity:0.3" />
<line x1="819" y1="86" x2="853" y2="86" stroke="pink" stroke-width="1" />
<rect x="853" y="84" width="3" height="5" style="fill:#5d3c2d;stroke:black;stroke-width:1;fill-opacity:1;stroke-opacity:0.3" />
<rect x="861" y="84" width="5" height="5" style="fill:#5d3c2d;stroke:black;stroke-width:1;fill-opacity:1;stroke-opacity:0.3" />
<line x1="866" y1="86" x2="905" y2="86" stroke="pink" stroke-width="1" />
<rect x="905" y="84" width="19" height="5" style="fill:#5d3c2d;stroke:black;stroke-width:1;fill-opacity:1;stroke-opacity:0.3" />
<line x1="856" y1="114" x2="858" y2="116" stroke="black" stroke-width="1" />
<line x1="858" y1="116" x2="861" y2="114" stroke="black" stroke-width="1" />
<rect x="781" y="112" width="2" height="5" style="fill:#5d3c2d;stroke:black;stroke-width:1;fill-opacity:1;stroke-opacity:0.3" />
<line x1="784" y1="114" x2="799" y2="114" stroke="pink" stroke-width="1" />
<rect x="799" y="112" width="19" height="5" style="fill:#5d3c2d;stroke:black;stroke-width:1;fill-opacity:1;stroke-opacity:0.3" />
<line x1="819" y1="114" x2="853" y2="114" stroke="pink" stroke-width="1" />
<rect x="853" y="112" width="3" height="5" style="fill:#5d3c2d;stroke:black;stroke-width:1;fill-opacity:1;stroke-opacity:0.3" />
<rect x="861" y="112" width="5" height="5" style="fill:#5d3c2d;stroke:black;stroke-width:1;fill-opacity:1;stroke-opacity:0.3" />
<line x1="866" y1="114" x2="905" y2="114" stroke="pink" stroke-width="1" />
<rect x="905" y="112" width="19" height="5" style="fill:#5d3c2d;stroke:black;stroke-width:1;fill-opacity:1;stroke-opacity:0.3" />
<line x1="857" y1="121" x2="861" y2="123" stroke="black" stroke-width="1" />
<line x1="861" y1="123" x2="865" y2="121" stroke="black" stroke-width="1" />
<rect x="782" y="119" width="2" height="5" style="fill:#5d3c2d;stroke:black;stroke-width:1;fill-opacity:1;stroke-opacity:0.3" />
<line x1="784" y1="121" x2="799" y2="121" stroke="pink" stroke-width="1" />
<rect x="799" y="119" width="19" height="5" style="fill:#5d3c2d;stroke:black;stroke-width:1;fill-opacity:1;stroke-opacity:0.3" />
<line x1="819" y1="121" x2="853" y2="121" stroke="pink" stroke-width="1" />
<rect x="853" y="119" width="3" height="5" style="fill:#5d3c2d;stroke:black;stroke-width:1;fill-opacity:1;stroke-opacity:0.3" />
<rect x="865" y="119" width="1" height="5" style="fill:#5d3c2d;stroke:black;stroke-width:1;fill-opacity:1;stroke-opacity:0.3" />
<line x1="866" y1="121" x2="905" y2="121" stroke="pink" stroke-width="1" />
<rect x="905" y="119" width="23" height="5" style="fill:#5d3c2d;stroke:black;stroke-width:1;fill-opacity:1;stroke-opacity:0.3" />
<line x1="858" y1="142" x2="894" y2="144" stroke="black" stroke-width="1" />
<line x1="894" y1="144" x2="930" y2="142" stroke="black" stroke-width="1" />
<rect x="783" y="140" width="0" height="5" style="fill:#5d3c2d;stroke:black;stroke-width:1;fill-opacity:1;stroke-opacity:0.3" />
<line x1="784" y1="142" x2="799" y2="142" stroke="pink" stroke-width="1" />
<rect x="799" y="140" width="19" height="5" style="fill:#5d3c2d;stroke:black;stroke-width:1;fill-opacity:1;stroke-opacity:0.3" />
<line x1="819" y1="142" x2="853" y2="142" stroke="pink" stroke-width="1" />
<rect x="853" y="140" width="5" height="5" style="fill:#5d3c2d;stroke:black;stroke-width:1;fill-opacity:1;stroke-opacity:0.3" />
<rect x="930" y="140" width="24" height="5" style="fill:#5d3c2d;stroke:black;stroke-width:1;fill-opacity:1;stroke-opacity:0.3" />
<line x1="859" y1="149" x2="882" y2="151" stroke="black" stroke-width="1" />
<line x1="882" y1="151" x2="906" y2="149" stroke="black" stroke-width="1" />
<rect x="784" y="147" width="0" height="5" style="fill:#f5b024;stroke:black;stroke-width:1;fill-opacity:1;stroke-opacity:0.3" />
<line x1="784" y1="149" x2="799" y2="149" stroke="pink" stroke-width="1" />
<rect x="799" y="147" width="19" height="5" style="fill:#f5b024;stroke:black;stroke-width:1;fill-opacity:1;stroke-opacity:0.3" />
<line x1="819" y1="149" x2="853" y2="149" stroke="pink" stroke-width="1" />
<rect x="853" y="147" width="5" height="5" style="fill:#f5b024;stroke:black;stroke-width:1;fill-opacity:1;stroke-opacity:0.3" />
<rect x="906" y="147" width="25" height="5" style="fill:#f5b024;stroke:black;stroke-width:1;fill-opacity:1;stroke-opacity:0.3" />
<line x1="865" y1="156" x2="887" y2="158" stroke="black" stroke-width="1" />
<line x1="887" y1="158" x2="909" y2="156" stroke="black" stroke-width="1" />
<rect x="805" y="154" width="13" height="5" style="fill:#5d3c2d;stroke:black;stroke-width:1;fill-opacity:1;stroke-opacity:0.3" />
<line x1="819" y1="156" x2="853" y2="156" stroke="pink" stroke-width="1" />
<rect x="853" y="154" width="11" height="5" style="fill:#5d3c2d;stroke:black;stroke-width:1;fill-opacity:1;stroke-opacity:0.3" />
<rect x="909" y="154" width="24" height="5" style="fill:#5d3c2d;stroke:black;stroke-width:1;fill-opacity:1;stroke-opacity:0.3" />
<line x1="865" y1="163" x2="892" y2="165" stroke="black" stroke-width="1" />
<line x1="892" y1="165" x2="919" y2="163" stroke="black" stroke-width="1" />
<rect x="805" y="161" width="13" height="5" style="fill:#5d3c2d;stroke:black;stroke-width:1;fill-opacity:1;stroke-opacity:0.3" />
<line x1="819" y1="163" x2="853" y2="163" stroke="pink" stroke-width="1" />
<rect x="853" y="161" width="11" height="5" style="fill:#5d3c2d;stroke:black;stroke-width:1;fill-opacity:1;stroke-opacity:0.3" />
<rect x="919" y="161" width="24" height="5" style="fill:#5d3c2d;stroke:black;stroke-width:1;fill-opacity:1;stroke-opacity:0.3" />
<line x1="865" y1="100" x2="885" y2="102" stroke="black" stroke-width="1" />
<line x1="885" y1="102" x2="906" y2="100" stroke="black" stroke-width="1" />
<rect x="806" y="98" width="12" height="5" style="fill:#5d3c2d;stroke:black;stroke-width:1;fill-opacity:1;stroke-opacity:0.3" />
<line x1="819" y1="100" x2="853" y2="100" stroke="pink" stroke-width="1" />
<rect x="853" y="98" width="12" height="5" style="fill:#5d3c2d;stroke:black;stroke-width:1;fill-opacity:1;stroke-opacity:0.3" />
<rect x="906" y="98" width="24" height="5" style="fill:#5d3c2d;stroke:black;stroke-width:1;fill-opacity:1;stroke-opacity:0.3" />
<line x1="908" y1="58" x2="923" y2="60" stroke="black" stroke-width="1" />
<line x1="923" y1="60" x2="938" y2="58" stroke="black" stroke-width="1" />
<rect x="809" y="56" width="9" height="5" style="fill:#5d3c2d;stroke:black;stroke-width:1;fill-opacity:1;stroke-opacity:0.3" />
<line x1="819" y1="58" x2="853" y2="58" stroke="pink" stroke-width="1" />
<rect x="853" y="56" width="13" height="5" style="fill:#5d3c2d;stroke:black;stroke-width:1;fill-opacity:1;stroke-opacity:0.3" />
<line x1="866" y1="58" x2="905" y2="58" stroke="pink" stroke-width="1" />
<rect x="905" y="56" width="2" height="5" style="fill:#5d3c2d;stroke:black;stroke-width:1;fill-opacity:1;stroke-opacity:0.3" />
<rect x="938" y="56" width="25" height="5" style="fill:#5d3c2d;stroke:black;stroke-width:1;fill-opacity:1;stroke-opacity:0.3" />
<line x1="913" y1="93" x2="915" y2="95" stroke="black" stroke-width="1" />
<line x1="915" y1="95" x2="917" y2="93" stroke="black" stroke-width="1" />
<rect x="815" y="91" width="4" height="5" style="fill:#5d3c2d;stroke:black;stroke-width:1;fill-opacity:1;stroke-opacity:0.3" />
<line x1="819" y1="93" x2="853" y2="93" stroke="pink" stroke-width="1" />
<rect x="853" y="91" width="13" height="5" style="fill:#5d3c2d;stroke:black;stroke-width:1;fill-opacity:1;stroke-opacity:0.3" />
<line x1="866" y1="93" x2="905" y2="93" stroke="pink" stroke-width="1" />
<rect x="905" y="91" width="8" height="5" style="fill:#5d3c2d;stroke:black;stroke-width:1;fill-opacity:1;stroke-opacity:0.3" />
<rect x="917" y="91" width="25" height="5" style="fill:#5d3c2d;stroke:black;stroke-width:1;fill-opacity:1;stroke-opacity:0.3" />
<line x1="942" y1="30" x2="944" y2="32" stroke="black" stroke-width="1" />
<line x1="944" y1="32" x2="947" y2="30" stroke="black" stroke-width="1" />
<rect x="916" y="28" width="25" height="5" style="fill:#5d3c2d;stroke:black;stroke-width:1;fill-opacity:1;stroke-opacity:0.3" />
<rect x="947" y="28" width="25" height="5" style="fill:#5d3c2d;stroke:black;stroke-width:1;fill-opacity:1;stroke-opacity:0.3" />
<line x1="944" y1="107" x2="945" y2="109" stroke="black" stroke-width="1" />
<line x1="945" y1="109" x2="947" y2="107" stroke="black" stroke-width="1" />
<rect x="919" y="105" width="25" height="5" style="fill:#5d3c2d;stroke:black;stroke-width:1;fill-opacity:1;stroke-opacity:0.3" />
<rect x="947" y="105" width="25" height="5" style="fill:#5d3c2d;stroke:black;stroke-width:1;fill-opacity:1;stroke-opacity:0.3" />
<text x="15"  y="176" style="font-family:Arial;font-size:10;stroke:black;fill:black;">all.merged.bam</text>
</svg>
    
