<?xml version="1.0" encoding="utf-8" standalone="no"?>
<!DOCTYPE svg PUBLIC "-//W3C//DTD SVG 1.1//EN"
  "http://www.w3.org/Graphics/SVG/1.1/DTD/svg11.dtd">
<svg height="1140" width="1000" version="1.1" viewBox="0 0 1000 1140" xmlns="http://www.w3.org/2000/svg" xmlns:xlink="http://www.w3.org/1999/xlink">
<line x1="24" y1="11" x2="975" y2="11" stroke="black" stroke-width="1" />
<rect x="24" y="9" width="109" height="5" style="fill:#f50002;stroke:black;stroke-width:1;fill-opacity:1;stroke-opacity:0.3" />
<rect x="134" y="9" width="517" height="5" style="fill:#53a1b5;stroke:black;stroke-width:1;fill-opacity:1;stroke-opacity:0.3" />
<rect x="651" y="9" width="323" height="5" style="fill:#f50002;stroke:black;stroke-width:1;fill-opacity:1;stroke-opacity:0.3" />
<text x="24"  y="23" style="font-family:Arial;font-size:10;stroke:black;fill:black;">Cre14.g625100.t1.2.v5.5 (+) chromosome_14:2488491-2492372</text>
<line x1="83" y1="30" x2="85" y2="32" stroke="black" stroke-width="1" />
<line x1="85" y1="32" x2="88" y2="30" stroke="black" stroke-width="1" />
<rect x="58" y="28" width="24" height="5" style="fill:#f5b024;stroke:black;stroke-width:1;fill-opacity:1;stroke-opacity:0.3" />
<rect x="88" y="28" width="24" height="5" style="fill:#f5b024;stroke:black;stroke-width:1;fill-opacity:1;stroke-opacity:0.3" />
<line x1="131" y1="37" x2="135" y2="39" stroke="black" stroke-width="1" />
<line x1="135" y1="39" x2="139" y2="37" stroke="black" stroke-width="1" />
<rect x="107" y="35" width="24" height="5" style="fill:#5d3c2d;stroke:black;stroke-width:1;fill-opacity:1;stroke-opacity:0.3" />
<rect x="139" y="35" width="24" height="5" style="fill:#5d3c2d;stroke:black;stroke-width:1;fill-opacity:1;stroke-opacity:0.3" />
<line x1="155" y1="30" x2="157" y2="32" stroke="black" stroke-width="1" />
<line x1="157" y1="32" x2="159" y2="30" stroke="black" stroke-width="1" />
<rect x="131" y="28" width="24" height="5" style="fill:#5d3c2d;stroke:black;stroke-width:1;fill-opacity:1;stroke-opacity:0.3" />
<rect x="159" y="28" width="24" height="5" style="fill:#5d3c2d;stroke:black;stroke-width:1;fill-opacity:1;stroke-opacity:0.3" />
<line x1="165" y1="44" x2="166" y2="46" stroke="black" stroke-width="1" />
<line x1="166" y1="46" x2="167" y2="44" stroke="black" stroke-width="1" />
<rect x="140" y="42" width="24" height="5" style="fill:#5d3c2d;stroke:black;stroke-width:1;fill-opacity:1;stroke-opacity:0.3" />
<rect x="167" y="42" width="24" height="5" style="fill:#5d3c2d;stroke:black;stroke-width:1;fill-opacity:1;stroke-opacity:0.3" />
<line x1="171" y1="51" x2="176" y2="53" stroke="black" stroke-width="1" />
<line x1="176" y1="53" x2="182" y2="51" stroke="black" stroke-width="1" />
<rect x="147" y="49" width="24" height="5" style="fill:#5d3c2d;stroke:black;stroke-width:1;fill-opacity:1;stroke-opacity:0.3" />
<rect x="182" y="49" width="23" height="5" style="fill:#5d3c2d;stroke:black;stroke-width:1;fill-opacity:1;stroke-opacity:0.3" />
<line x1="184" y1="58" x2="187" y2="60" stroke="black" stroke-width="1" />
<line x1="187" y1="60" x2="191" y2="58" stroke="black" stroke-width="1" />
<rect x="147" y="56" width="36" height="5" style="fill:#5d3c2d;stroke:black;stroke-width:1;fill-opacity:1;stroke-opacity:0.3" />
<rect x="191" y="56" width="36" height="5" style="fill:#5d3c2d;stroke:black;stroke-width:1;fill-opacity:1;stroke-opacity:0.3" />
<line x1="220" y1="30" x2="222" y2="32" stroke="black" stroke-width="1" />
<line x1="222" y1="32" x2="225" y2="30" stroke="black" stroke-width="1" />
<rect x="196" y="28" width="24" height="5" style="fill:#5d3c2d;stroke:black;stroke-width:1;fill-opacity:1;stroke-opacity:0.3" />
<rect x="225" y="28" width="24" height="5" style="fill:#5d3c2d;stroke:black;stroke-width:1;fill-opacity:1;stroke-opacity:0.3" />
<line x1="251" y1="37" x2="253" y2="39" stroke="black" stroke-width="1" />
<line x1="253" y1="39" x2="256" y2="37" stroke="black" stroke-width="1" />
<rect x="226" y="35" width="24" height="5" style="fill:#5d3c2d;stroke:black;stroke-width:1;fill-opacity:1;stroke-opacity:0.3" />
<rect x="256" y="35" width="24" height="5" style="fill:#5d3c2d;stroke:black;stroke-width:1;fill-opacity:1;stroke-opacity:0.3" />
<line x1="272" y1="44" x2="273" y2="46" stroke="black" stroke-width="1" />
<line x1="273" y1="46" x2="274" y2="44" stroke="black" stroke-width="1" />
<rect x="247" y="42" width="24" height="5" style="fill:#5d3c2d;stroke:black;stroke-width:1;fill-opacity:1;stroke-opacity:0.3" />
<rect x="274" y="42" width="24" height="5" style="fill:#5d3c2d;stroke:black;stroke-width:1;fill-opacity:1;stroke-opacity:0.3" />
<line x1="318" y1="30" x2="320" y2="32" stroke="black" stroke-width="1" />
<line x1="320" y1="32" x2="322" y2="30" stroke="black" stroke-width="1" />
<rect x="281" y="28" width="36" height="5" style="fill:#5d3c2d;stroke:black;stroke-width:1;fill-opacity:1;stroke-opacity:0.3" />
<rect x="322" y="28" width="36" height="5" style="fill:#5d3c2d;stroke:black;stroke-width:1;fill-opacity:1;stroke-opacity:0.3" />
<line x1="342" y1="37" x2="349" y2="39" stroke="black" stroke-width="1" />
<line x1="349" y1="39" x2="357" y2="37" stroke="black" stroke-width="1" />
<rect x="305" y="35" width="36" height="5" style="fill:#5d3c2d;stroke:black;stroke-width:1;fill-opacity:1;stroke-opacity:0.3" />
<rect x="357" y="35" width="36" height="5" style="fill:#5d3c2d;stroke:black;stroke-width:1;fill-opacity:1;stroke-opacity:0.3" />
<line x1="378" y1="44" x2="383" y2="46" stroke="black" stroke-width="1" />
<line x1="383" y1="46" x2="389" y2="44" stroke="black" stroke-width="1" />
<rect x="341" y="42" width="36" height="5" style="fill:#5d3c2d;stroke:black;stroke-width:1;fill-opacity:1;stroke-opacity:0.3" />
<rect x="389" y="42" width="36" height="5" style="fill:#5d3c2d;stroke:black;stroke-width:1;fill-opacity:1;stroke-opacity:0.3" />
<line x1="367" y1="51" x2="369" y2="53" stroke="black" stroke-width="1" />
<line x1="369" y1="53" x2="371" y2="51" stroke="black" stroke-width="1" />
<rect x="343" y="49" width="24" height="5" style="fill:#5d3c2d;stroke:black;stroke-width:1;fill-opacity:1;stroke-opacity:0.3" />
<rect x="371" y="49" width="24" height="5" style="fill:#5d3c2d;stroke:black;stroke-width:1;fill-opacity:1;stroke-opacity:0.3" />
<line x1="411" y1="30" x2="416" y2="32" stroke="black" stroke-width="1" />
<line x1="416" y1="32" x2="422" y2="30" stroke="black" stroke-width="1" />
<rect x="381" y="28" width="29" height="5" style="fill:#5d3c2d;stroke:black;stroke-width:1;fill-opacity:1;stroke-opacity:0.3" />
<rect x="422" y="28" width="33" height="5" style="fill:#5d3c2d;stroke:black;stroke-width:1;fill-opacity:1;stroke-opacity:0.3" />
<line x1="407" y1="58" x2="422" y2="60" stroke="black" stroke-width="1" />
<line x1="422" y1="60" x2="437" y2="58" stroke="black" stroke-width="1" />
<rect x="382" y="56" width="24" height="5" style="fill:#5d3c2d;stroke:black;stroke-width:1;fill-opacity:1;stroke-opacity:0.3" />
<rect x="437" y="56" width="24" height="5" style="fill:#5d3c2d;stroke:black;stroke-width:1;fill-opacity:1;stroke-opacity:0.3" />
<line x1="411" y1="65" x2="422" y2="67" stroke="black" stroke-width="1" />
<line x1="422" y1="67" x2="434" y2="65" stroke="black" stroke-width="1" />
<rect x="387" y="63" width="24" height="5" style="fill:#5d3c2d;stroke:black;stroke-width:1;fill-opacity:1;stroke-opacity:0.3" />
<rect x="434" y="63" width="24" height="5" style="fill:#5d3c2d;stroke:black;stroke-width:1;fill-opacity:1;stroke-opacity:0.3" />
<line x1="423" y1="37" x2="424" y2="39" stroke="black" stroke-width="1" />
<line x1="424" y1="39" x2="426" y2="37" stroke="black" stroke-width="1" />
<rect x="399" y="35" width="24" height="5" style="fill:#5d3c2d;stroke:black;stroke-width:1;fill-opacity:1;stroke-opacity:0.3" />
<rect x="426" y="35" width="24" height="5" style="fill:#5d3c2d;stroke:black;stroke-width:1;fill-opacity:1;stroke-opacity:0.3" />
<line x1="457" y1="44" x2="476" y2="46" stroke="black" stroke-width="1" />
<line x1="476" y1="46" x2="495" y2="44" stroke="black" stroke-width="1" />
<rect x="433" y="42" width="24" height="5" style="fill:#5d3c2d;stroke:black;stroke-width:1;fill-opacity:1;stroke-opacity:0.3" />
<rect x="495" y="42" width="24" height="5" style="fill:#5d3c2d;stroke:black;stroke-width:1;fill-opacity:1;stroke-opacity:0.3" />
<line x1="467" y1="51" x2="472" y2="53" stroke="black" stroke-width="1" />
<line x1="472" y1="53" x2="477" y2="51" stroke="black" stroke-width="1" />
<rect x="442" y="49" width="24" height="5" style="fill:#5d3c2d;stroke:black;stroke-width:1;fill-opacity:1;stroke-opacity:0.3" />
<rect x="477" y="49" width="24" height="5" style="fill:#5d3c2d;stroke:black;stroke-width:1;fill-opacity:1;stroke-opacity:0.3" />
<line x1="490" y1="37" x2="494" y2="39" stroke="black" stroke-width="1" />
<line x1="494" y1="39" x2="498" y2="37" stroke="black" stroke-width="1" />
<rect x="453" y="35" width="36" height="5" style="fill:#5d3c2d;stroke:black;stroke-width:1;fill-opacity:1;stroke-opacity:0.3" />
<rect x="498" y="35" width="36" height="5" style="fill:#5d3c2d;stroke:black;stroke-width:1;fill-opacity:1;stroke-opacity:0.3" />
<line x1="487" y1="30" x2="493" y2="32" stroke="black" stroke-width="1" />
<line x1="493" y1="32" x2="499" y2="30" stroke="black" stroke-width="1" />
<rect x="463" y="28" width="24" height="5" style="fill:#5d3c2d;stroke:black;stroke-width:1;fill-opacity:1;stroke-opacity:0.3" />
<rect x="499" y="28" width="24" height="5" style="fill:#5d3c2d;stroke:black;stroke-width:1;fill-opacity:1;stroke-opacity:0.3" />
<line x1="508" y1="58" x2="541" y2="60" stroke="black" stroke-width="1" />
<line x1="541" y1="60" x2="575" y2="58" stroke="black" stroke-width="1" />
<rect x="484" y="56" width="24" height="5" style="fill:#5d3c2d;stroke:black;stroke-width:1;fill-opacity:1;stroke-opacity:0.3" />
<rect x="575" y="56" width="24" height="5" style="fill:#5d3c2d;stroke:black;stroke-width:1;fill-opacity:1;stroke-opacity:0.3" />
<line x1="511" y1="65" x2="519" y2="67" stroke="black" stroke-width="1" />
<line x1="519" y1="67" x2="527" y2="65" stroke="black" stroke-width="1" />
<rect x="486" y="63" width="24" height="5" style="fill:#5d3c2d;stroke:black;stroke-width:1;fill-opacity:1;stroke-opacity:0.3" />
<rect x="527" y="63" width="24" height="5" style="fill:#5d3c2d;stroke:black;stroke-width:1;fill-opacity:1;stroke-opacity:0.3" />
<line x1="551" y1="30" x2="557" y2="32" stroke="black" stroke-width="1" />
<line x1="557" y1="32" x2="563" y2="30" stroke="black" stroke-width="1" />
<rect x="527" y="28" width="24" height="5" style="fill:#5d3c2d;stroke:black;stroke-width:1;fill-opacity:1;stroke-opacity:0.3" />
<rect x="563" y="28" width="24" height="5" style="fill:#5d3c2d;stroke:black;stroke-width:1;fill-opacity:1;stroke-opacity:0.3" />
<line x1="570" y1="37" x2="574" y2="39" stroke="black" stroke-width="1" />
<line x1="574" y1="39" x2="578" y2="37" stroke="black" stroke-width="1" />
<rect x="537" y="35" width="33" height="5" style="fill:#5d3c2d;stroke:black;stroke-width:1;fill-opacity:1;stroke-opacity:0.3" />
<rect x="578" y="35" width="36" height="5" style="fill:#5d3c2d;stroke:black;stroke-width:1;fill-opacity:1;stroke-opacity:0.3" />
<line x1="562" y1="44" x2="565" y2="46" stroke="black" stroke-width="1" />
<line x1="565" y1="46" x2="568" y2="44" stroke="black" stroke-width="1" />
<rect x="537" y="42" width="24" height="5" style="fill:#5d3c2d;stroke:black;stroke-width:1;fill-opacity:1;stroke-opacity:0.3" />
<rect x="568" y="42" width="24" height="5" style="fill:#5d3c2d;stroke:black;stroke-width:1;fill-opacity:1;stroke-opacity:0.3" />
<line x1="564" y1="51" x2="574" y2="53" stroke="black" stroke-width="1" />
<line x1="574" y1="53" x2="584" y2="51" stroke="black" stroke-width="1" />
<rect x="539" y="49" width="24" height="5" style="fill:#5d3c2d;stroke:black;stroke-width:1;fill-opacity:1;stroke-opacity:0.3" />
<rect x="584" y="49" width="24" height="5" style="fill:#5d3c2d;stroke:black;stroke-width:1;fill-opacity:1;stroke-opacity:0.3" />
<line x1="578" y1="65" x2="580" y2="67" stroke="black" stroke-width="1" />
<line x1="580" y1="67" x2="583" y2="65" stroke="black" stroke-width="1" />
<rect x="554" y="63" width="24" height="5" style="fill:#5d3c2d;stroke:black;stroke-width:1;fill-opacity:1;stroke-opacity:0.3" />
<rect x="583" y="63" width="24" height="5" style="fill:#5d3c2d;stroke:black;stroke-width:1;fill-opacity:1;stroke-opacity:0.3" />
<line x1="581" y1="72" x2="587" y2="74" stroke="black" stroke-width="1" />
<line x1="587" y1="74" x2="594" y2="72" stroke="black" stroke-width="1" />
<rect x="556" y="70" width="24" height="5" style="fill:#5d3c2d;stroke:black;stroke-width:1;fill-opacity:1;stroke-opacity:0.3" />
<rect x="594" y="70" width="24" height="5" style="fill:#5d3c2d;stroke:black;stroke-width:1;fill-opacity:1;stroke-opacity:0.3" />
<line x1="584" y1="79" x2="590" y2="81" stroke="black" stroke-width="1" />
<line x1="590" y1="81" x2="597" y2="79" stroke="black" stroke-width="1" />
<rect x="559" y="77" width="24" height="5" style="fill:#5d3c2d;stroke:black;stroke-width:1;fill-opacity:1;stroke-opacity:0.3" />
<rect x="597" y="77" width="24" height="5" style="fill:#5d3c2d;stroke:black;stroke-width:1;fill-opacity:1;stroke-opacity:0.3" />
<line x1="609" y1="86" x2="615" y2="88" stroke="black" stroke-width="1" />
<line x1="615" y1="88" x2="622" y2="86" stroke="black" stroke-width="1" />
<rect x="572" y="84" width="36" height="5" style="fill:#5d3c2d;stroke:black;stroke-width:1;fill-opacity:1;stroke-opacity:0.3" />
<rect x="622" y="84" width="36" height="5" style="fill:#5d3c2d;stroke:black;stroke-width:1;fill-opacity:1;stroke-opacity:0.3" />
<line x1="606" y1="93" x2="613" y2="95" stroke="black" stroke-width="1" />
<line x1="613" y1="95" x2="620" y2="93" stroke="black" stroke-width="1" />
<rect x="582" y="91" width="24" height="5" style="fill:#5d3c2d;stroke:black;stroke-width:1;fill-opacity:1;stroke-opacity:0.3" />
<rect x="620" y="91" width="24" height="5" style="fill:#5d3c2d;stroke:black;stroke-width:1;fill-opacity:1;stroke-opacity:0.3" />
<line x1="612" y1="30" x2="615" y2="32" stroke="black" stroke-width="1" />
<line x1="615" y1="32" x2="618" y2="30" stroke="black" stroke-width="1" />
<rect x="588" y="28" width="24" height="5" style="fill:#5d3c2d;stroke:black;stroke-width:1;fill-opacity:1;stroke-opacity:0.3" />
<rect x="618" y="28" width="24" height="5" style="fill:#5d3c2d;stroke:black;stroke-width:1;fill-opacity:1;stroke-opacity:0.3" />
<line x1="614" y1="100" x2="616" y2="102" stroke="black" stroke-width="1" />
<line x1="616" y1="102" x2="619" y2="100" stroke="black" stroke-width="1" />
<rect x="589" y="98" width="24" height="5" style="fill:#5d3c2d;stroke:black;stroke-width:1;fill-opacity:1;stroke-opacity:0.3" />
<rect x="619" y="98" width="24" height="5" style="fill:#5d3c2d;stroke:black;stroke-width:1;fill-opacity:1;stroke-opacity:0.3" />
<line x1="620" y1="44" x2="624" y2="46" stroke="black" stroke-width="1" />
<line x1="624" y1="46" x2="629" y2="44" stroke="black" stroke-width="1" />
<rect x="595" y="42" width="24" height="5" style="fill:#5d3c2d;stroke:black;stroke-width:1;fill-opacity:1;stroke-opacity:0.3" />
<rect x="629" y="42" width="24" height="5" style="fill:#5d3c2d;stroke:black;stroke-width:1;fill-opacity:1;stroke-opacity:0.3" />
<line x1="626" y1="58" x2="633" y2="60" stroke="black" stroke-width="1" />
<line x1="633" y1="60" x2="641" y2="58" stroke="black" stroke-width="1" />
<rect x="602" y="56" width="24" height="5" style="fill:#5d3c2d;stroke:black;stroke-width:1;fill-opacity:1;stroke-opacity:0.3" />
<rect x="641" y="56" width="24" height="5" style="fill:#5d3c2d;stroke:black;stroke-width:1;fill-opacity:1;stroke-opacity:0.3" />
<line x1="627" y1="107" x2="629" y2="109" stroke="black" stroke-width="1" />
<line x1="629" y1="109" x2="631" y2="107" stroke="black" stroke-width="1" />
<rect x="603" y="105" width="24" height="5" style="fill:#5d3c2d;stroke:black;stroke-width:1;fill-opacity:1;stroke-opacity:0.3" />
<rect x="631" y="105" width="24" height="5" style="fill:#5d3c2d;stroke:black;stroke-width:1;fill-opacity:1;stroke-opacity:0.3" />
<line x1="627" y1="114" x2="629" y2="116" stroke="black" stroke-width="1" />
<line x1="629" y1="116" x2="631" y2="114" stroke="black" stroke-width="1" />
<rect x="603" y="112" width="24" height="5" style="fill:#5d3c2d;stroke:black;stroke-width:1;fill-opacity:1;stroke-opacity:0.3" />
<rect x="631" y="112" width="24" height="5" style="fill:#5d3c2d;stroke:black;stroke-width:1;fill-opacity:1;stroke-opacity:0.3" />
<line x1="628" y1="121" x2="632" y2="123" stroke="black" stroke-width="1" />
<line x1="632" y1="123" x2="637" y2="121" stroke="black" stroke-width="1" />
<rect x="603" y="119" width="24" height="5" style="fill:#5d3c2d;stroke:black;stroke-width:1;fill-opacity:1;stroke-opacity:0.3" />
<rect x="637" y="119" width="24" height="5" style="fill:#5d3c2d;stroke:black;stroke-width:1;fill-opacity:1;stroke-opacity:0.3" />
<line x1="631" y1="128" x2="633" y2="130" stroke="black" stroke-width="1" />
<line x1="633" y1="130" x2="635" y2="128" stroke="black" stroke-width="1" />
<rect x="607" y="126" width="24" height="5" style="fill:#5d3c2d;stroke:black;stroke-width:1;fill-opacity:1;stroke-opacity:0.3" />
<rect x="635" y="126" width="24" height="5" style="fill:#5d3c2d;stroke:black;stroke-width:1;fill-opacity:1;stroke-opacity:0.3" />
<line x1="633" y1="65" x2="663" y2="67" stroke="black" stroke-width="1" />
<line x1="663" y1="67" x2="693" y2="65" stroke="black" stroke-width="1" />
<rect x="608" y="63" width="24" height="5" style="fill:#5d3c2d;stroke:black;stroke-width:1;fill-opacity:1;stroke-opacity:0.3" />
<rect x="693" y="63" width="24" height="5" style="fill:#5d3c2d;stroke:black;stroke-width:1;fill-opacity:1;stroke-opacity:0.3" />
<line x1="637" y1="51" x2="639" y2="53" stroke="black" stroke-width="1" />
<line x1="639" y1="53" x2="641" y2="51" stroke="black" stroke-width="1" />
<rect x="613" y="49" width="24" height="5" style="fill:#5d3c2d;stroke:black;stroke-width:1;fill-opacity:1;stroke-opacity:0.3" />
<rect x="641" y="49" width="24" height="5" style="fill:#5d3c2d;stroke:black;stroke-width:1;fill-opacity:1;stroke-opacity:0.3" />
<line x1="644" y1="37" x2="647" y2="39" stroke="black" stroke-width="1" />
<line x1="647" y1="39" x2="650" y2="37" stroke="black" stroke-width="1" />
<rect x="620" y="35" width="24" height="5" style="fill:#5d3c2d;stroke:black;stroke-width:1;fill-opacity:1;stroke-opacity:0.3" />
<rect x="650" y="35" width="24" height="5" style="fill:#5d3c2d;stroke:black;stroke-width:1;fill-opacity:1;stroke-opacity:0.3" />
<line x1="666" y1="72" x2="674" y2="74" stroke="black" stroke-width="1" />
<line x1="674" y1="74" x2="682" y2="72" stroke="black" stroke-width="1" />
<rect x="629" y="70" width="36" height="5" style="fill:#5d3c2d;stroke:black;stroke-width:1;fill-opacity:1;stroke-opacity:0.3" />
<rect x="682" y="70" width="36" height="5" style="fill:#5d3c2d;stroke:black;stroke-width:1;fill-opacity:1;stroke-opacity:0.3" />
<line x1="668" y1="79" x2="669" y2="81" stroke="black" stroke-width="1" />
<line x1="669" y1="81" x2="671" y2="79" stroke="black" stroke-width="1" />
<rect x="631" y="77" width="36" height="5" style="fill:#5d3c2d;stroke:black;stroke-width:1;fill-opacity:1;stroke-opacity:0.3" />
<rect x="671" y="77" width="36" height="5" style="fill:#5d3c2d;stroke:black;stroke-width:1;fill-opacity:1;stroke-opacity:0.3" />
<line x1="668" y1="30" x2="670" y2="32" stroke="black" stroke-width="1" />
<line x1="670" y1="32" x2="673" y2="30" stroke="black" stroke-width="1" />
<rect x="644" y="28" width="24" height="5" style="fill:#5d3c2d;stroke:black;stroke-width:1;fill-opacity:1;stroke-opacity:0.3" />
<rect x="673" y="28" width="24" height="5" style="fill:#5d3c2d;stroke:black;stroke-width:1;fill-opacity:1;stroke-opacity:0.3" />
<line x1="668" y1="100" x2="670" y2="102" stroke="black" stroke-width="1" />
<line x1="670" y1="102" x2="673" y2="100" stroke="black" stroke-width="1" />
<rect x="644" y="98" width="24" height="5" style="fill:#5d3c2d;stroke:black;stroke-width:1;fill-opacity:1;stroke-opacity:0.3" />
<rect x="673" y="98" width="24" height="5" style="fill:#5d3c2d;stroke:black;stroke-width:1;fill-opacity:1;stroke-opacity:0.3" />
<line x1="688" y1="44" x2="689" y2="46" stroke="black" stroke-width="1" />
<line x1="689" y1="46" x2="691" y2="44" stroke="black" stroke-width="1" />
<rect x="664" y="42" width="24" height="5" style="fill:#5d3c2d;stroke:black;stroke-width:1;fill-opacity:1;stroke-opacity:0.3" />
<rect x="691" y="42" width="24" height="5" style="fill:#5d3c2d;stroke:black;stroke-width:1;fill-opacity:1;stroke-opacity:0.3" />
<line x1="689" y1="86" x2="691" y2="88" stroke="black" stroke-width="1" />
<line x1="691" y1="88" x2="693" y2="86" stroke="black" stroke-width="1" />
<rect x="665" y="84" width="24" height="5" style="fill:#5d3c2d;stroke:black;stroke-width:1;fill-opacity:1;stroke-opacity:0.3" />
<rect x="693" y="84" width="24" height="5" style="fill:#5d3c2d;stroke:black;stroke-width:1;fill-opacity:1;stroke-opacity:0.3" />
<line x1="697" y1="51" x2="698" y2="53" stroke="black" stroke-width="1" />
<line x1="698" y1="53" x2="700" y2="51" stroke="black" stroke-width="1" />
<rect x="672" y="49" width="24" height="5" style="fill:#5d3c2d;stroke:black;stroke-width:1;fill-opacity:1;stroke-opacity:0.3" />
<rect x="700" y="49" width="24" height="5" style="fill:#5d3c2d;stroke:black;stroke-width:1;fill-opacity:1;stroke-opacity:0.3" />
<line x1="704" y1="37" x2="714" y2="39" stroke="black" stroke-width="1" />
<line x1="714" y1="39" x2="725" y2="37" stroke="black" stroke-width="1" />
<rect x="680" y="35" width="24" height="5" style="fill:#5d3c2d;stroke:black;stroke-width:1;fill-opacity:1;stroke-opacity:0.3" />
<rect x="725" y="35" width="24" height="5" style="fill:#5d3c2d;stroke:black;stroke-width:1;fill-opacity:1;stroke-opacity:0.3" />
<line x1="705" y1="58" x2="706" y2="60" stroke="black" stroke-width="1" />
<line x1="706" y1="60" x2="708" y2="58" stroke="black" stroke-width="1" />
<rect x="681" y="56" width="24" height="5" style="fill:#5d3c2d;stroke:black;stroke-width:1;fill-opacity:1;stroke-opacity:0.3" />
<rect x="708" y="56" width="24" height="5" style="fill:#5d3c2d;stroke:black;stroke-width:1;fill-opacity:1;stroke-opacity:0.3" />
<line x1="719" y1="93" x2="720" y2="95" stroke="black" stroke-width="1" />
<line x1="720" y1="95" x2="721" y2="93" stroke="black" stroke-width="1" />
<rect x="682" y="91" width="36" height="5" style="fill:#5d3c2d;stroke:black;stroke-width:1;fill-opacity:1;stroke-opacity:0.3" />
<rect x="721" y="91" width="36" height="5" style="fill:#5d3c2d;stroke:black;stroke-width:1;fill-opacity:1;stroke-opacity:0.3" />
<line x1="708" y1="107" x2="711" y2="109" stroke="black" stroke-width="1" />
<line x1="711" y1="109" x2="714" y2="107" stroke="black" stroke-width="1" />
<rect x="684" y="105" width="24" height="5" style="fill:#5d3c2d;stroke:black;stroke-width:1;fill-opacity:1;stroke-opacity:0.3" />
<rect x="714" y="105" width="24" height="5" style="fill:#5d3c2d;stroke:black;stroke-width:1;fill-opacity:1;stroke-opacity:0.3" />
<line x1="708" y1="114" x2="711" y2="116" stroke="black" stroke-width="1" />
<line x1="711" y1="116" x2="714" y2="114" stroke="black" stroke-width="1" />
<rect x="684" y="112" width="24" height="5" style="fill:#5d3c2d;stroke:black;stroke-width:1;fill-opacity:1;stroke-opacity:0.3" />
<rect x="714" y="112" width="24" height="5" style="fill:#5d3c2d;stroke:black;stroke-width:1;fill-opacity:1;stroke-opacity:0.3" />
<line x1="712" y1="121" x2="718" y2="123" stroke="black" stroke-width="1" />
<line x1="718" y1="123" x2="725" y2="121" stroke="black" stroke-width="1" />
<rect x="687" y="119" width="24" height="5" style="fill:#5d3c2d;stroke:black;stroke-width:1;fill-opacity:1;stroke-opacity:0.3" />
<rect x="725" y="119" width="24" height="5" style="fill:#5d3c2d;stroke:black;stroke-width:1;fill-opacity:1;stroke-opacity:0.3" />
<line x1="730" y1="30" x2="737" y2="32" stroke="black" stroke-width="1" />
<line x1="737" y1="32" x2="745" y2="30" stroke="black" stroke-width="1" />
<rect x="705" y="28" width="24" height="5" style="fill:#5d3c2d;stroke:black;stroke-width:1;fill-opacity:1;stroke-opacity:0.3" />
<rect x="745" y="28" width="24" height="5" style="fill:#5d3c2d;stroke:black;stroke-width:1;fill-opacity:1;stroke-opacity:0.3" />
<line x1="758" y1="44" x2="760" y2="46" stroke="black" stroke-width="1" />
<line x1="760" y1="46" x2="763" y2="44" stroke="black" stroke-width="1" />
<rect x="721" y="42" width="36" height="5" style="fill:#5d3c2d;stroke:black;stroke-width:1;fill-opacity:1;stroke-opacity:0.3" />
<rect x="763" y="42" width="36" height="5" style="fill:#5d3c2d;stroke:black;stroke-width:1;fill-opacity:1;stroke-opacity:0.3" />
<line x1="754" y1="51" x2="755" y2="53" stroke="black" stroke-width="1" />
<line x1="755" y1="53" x2="756" y2="51" stroke="black" stroke-width="1" />
<rect x="729" y="49" width="24" height="5" style="fill:#5d3c2d;stroke:black;stroke-width:1;fill-opacity:1;stroke-opacity:0.3" />
<rect x="756" y="49" width="24" height="5" style="fill:#5d3c2d;stroke:black;stroke-width:1;fill-opacity:1;stroke-opacity:0.3" />
<line x1="755" y1="65" x2="764" y2="67" stroke="black" stroke-width="1" />
<line x1="764" y1="67" x2="773" y2="65" stroke="black" stroke-width="1" />
<rect x="730" y="63" width="24" height="5" style="fill:#5d3c2d;stroke:black;stroke-width:1;fill-opacity:1;stroke-opacity:0.3" />
<rect x="773" y="63" width="24" height="5" style="fill:#5d3c2d;stroke:black;stroke-width:1;fill-opacity:1;stroke-opacity:0.3" />
<line x1="755" y1="72" x2="761" y2="74" stroke="black" stroke-width="1" />
<line x1="761" y1="74" x2="768" y2="72" stroke="black" stroke-width="1" />
<rect x="731" y="70" width="24" height="5" style="fill:#5d3c2d;stroke:black;stroke-width:1;fill-opacity:1;stroke-opacity:0.3" />
<rect x="768" y="70" width="24" height="5" style="fill:#5d3c2d;stroke:black;stroke-width:1;fill-opacity:1;stroke-opacity:0.3" />
<line x1="758" y1="58" x2="762" y2="60" stroke="black" stroke-width="1" />
<line x1="762" y1="60" x2="767" y2="58" stroke="black" stroke-width="1" />
<rect x="734" y="56" width="24" height="5" style="fill:#5d3c2d;stroke:black;stroke-width:1;fill-opacity:1;stroke-opacity:0.3" />
<rect x="767" y="56" width="24" height="5" style="fill:#5d3c2d;stroke:black;stroke-width:1;fill-opacity:1;stroke-opacity:0.3" />
<line x1="770" y1="79" x2="778" y2="81" stroke="black" stroke-width="1" />
<line x1="778" y1="81" x2="787" y2="79" stroke="black" stroke-width="1" />
<rect x="746" y="77" width="24" height="5" style="fill:#5d3c2d;stroke:black;stroke-width:1;fill-opacity:1;stroke-opacity:0.3" />
<rect x="787" y="77" width="24" height="5" style="fill:#5d3c2d;stroke:black;stroke-width:1;fill-opacity:1;stroke-opacity:0.3" />
<line x1="770" y1="86" x2="775" y2="88" stroke="black" stroke-width="1" />
<line x1="775" y1="88" x2="781" y2="86" stroke="black" stroke-width="1" />
<rect x="746" y="84" width="24" height="5" style="fill:#5d3c2d;stroke:black;stroke-width:1;fill-opacity:1;stroke-opacity:0.3" />
<rect x="781" y="84" width="24" height="5" style="fill:#5d3c2d;stroke:black;stroke-width:1;fill-opacity:1;stroke-opacity:0.3" />
<line x1="771" y1="100" x2="775" y2="102" stroke="black" stroke-width="1" />
<line x1="775" y1="102" x2="779" y2="100" stroke="black" stroke-width="1" />
<rect x="746" y="98" width="24" height="5" style="fill:#5d3c2d;stroke:black;stroke-width:1;fill-opacity:1;stroke-opacity:0.3" />
<rect x="779" y="98" width="24" height="5" style="fill:#5d3c2d;stroke:black;stroke-width:1;fill-opacity:1;stroke-opacity:0.3" />
<line x1="783" y1="37" x2="794" y2="39" stroke="black" stroke-width="1" />
<line x1="794" y1="39" x2="806" y2="37" stroke="black" stroke-width="1" />
<rect x="759" y="35" width="24" height="5" style="fill:#5d3c2d;stroke:black;stroke-width:1;fill-opacity:1;stroke-opacity:0.3" />
<rect x="806" y="35" width="24" height="5" style="fill:#5d3c2d;stroke:black;stroke-width:1;fill-opacity:1;stroke-opacity:0.3" />
<line x1="783" y1="93" x2="786" y2="95" stroke="black" stroke-width="1" />
<line x1="786" y1="95" x2="790" y2="93" stroke="black" stroke-width="1" />
<rect x="759" y="91" width="24" height="5" style="fill:#5d3c2d;stroke:black;stroke-width:1;fill-opacity:1;stroke-opacity:0.3" />
<rect x="790" y="91" width="24" height="5" style="fill:#5d3c2d;stroke:black;stroke-width:1;fill-opacity:1;stroke-opacity:0.3" />
<line x1="783" y1="107" x2="786" y2="109" stroke="black" stroke-width="1" />
<line x1="786" y1="109" x2="790" y2="107" stroke="black" stroke-width="1" />
<rect x="759" y="105" width="24" height="5" style="fill:#5d3c2d;stroke:black;stroke-width:1;fill-opacity:1;stroke-opacity:0.3" />
<rect x="790" y="105" width="24" height="5" style="fill:#5d3c2d;stroke:black;stroke-width:1;fill-opacity:1;stroke-opacity:0.3" />
<line x1="784" y1="114" x2="794" y2="116" stroke="black" stroke-width="1" />
<line x1="794" y1="116" x2="804" y2="114" stroke="black" stroke-width="1" />
<rect x="759" y="112" width="24" height="5" style="fill:#5d3c2d;stroke:black;stroke-width:1;fill-opacity:1;stroke-opacity:0.3" />
<rect x="804" y="112" width="24" height="5" style="fill:#5d3c2d;stroke:black;stroke-width:1;fill-opacity:1;stroke-opacity:0.3" />
<line x1="796" y1="30" x2="803" y2="32" stroke="black" stroke-width="1" />
<line x1="803" y1="32" x2="810" y2="30" stroke="black" stroke-width="1" />
<rect x="772" y="28" width="24" height="5" style="fill:#5d3c2d;stroke:black;stroke-width:1;fill-opacity:1;stroke-opacity:0.3" />
<rect x="810" y="28" width="24" height="5" style="fill:#5d3c2d;stroke:black;stroke-width:1;fill-opacity:1;stroke-opacity:0.3" />
<line x1="798" y1="121" x2="801" y2="123" stroke="black" stroke-width="1" />
<line x1="801" y1="123" x2="805" y2="121" stroke="black" stroke-width="1" />
<rect x="774" y="119" width="24" height="5" style="fill:#5d3c2d;stroke:black;stroke-width:1;fill-opacity:1;stroke-opacity:0.3" />
<rect x="805" y="119" width="24" height="5" style="fill:#5d3c2d;stroke:black;stroke-width:1;fill-opacity:1;stroke-opacity:0.3" />
<line x1="808" y1="51" x2="813" y2="53" stroke="black" stroke-width="1" />
<line x1="813" y1="53" x2="818" y2="51" stroke="black" stroke-width="1" />
<rect x="784" y="49" width="24" height="5" style="fill:#5d3c2d;stroke:black;stroke-width:1;fill-opacity:1;stroke-opacity:0.3" />
<rect x="818" y="49" width="23" height="5" style="fill:#5d3c2d;stroke:black;stroke-width:1;fill-opacity:1;stroke-opacity:0.3" />
<line x1="809" y1="128" x2="815" y2="130" stroke="black" stroke-width="1" />
<line x1="815" y1="130" x2="821" y2="128" stroke="black" stroke-width="1" />
<rect x="784" y="126" width="24" height="5" style="fill:#5d3c2d;stroke:black;stroke-width:1;fill-opacity:1;stroke-opacity:0.3" />
<rect x="821" y="126" width="23" height="5" style="fill:#5d3c2d;stroke:black;stroke-width:1;fill-opacity:1;stroke-opacity:0.3" />
<line x1="812" y1="135" x2="813" y2="137" stroke="black" stroke-width="1" />
<line x1="813" y1="137" x2="815" y2="135" stroke="black" stroke-width="1" />
<rect x="787" y="133" width="24" height="5" style="fill:#5d3c2d;stroke:black;stroke-width:1;fill-opacity:1;stroke-opacity:0.3" />
<rect x="815" y="133" width="24" height="5" style="fill:#5d3c2d;stroke:black;stroke-width:1;fill-opacity:1;stroke-opacity:0.3" />
<line x1="814" y1="142" x2="817" y2="144" stroke="black" stroke-width="1" />
<line x1="817" y1="144" x2="821" y2="142" stroke="black" stroke-width="1" />
<rect x="789" y="140" width="24" height="5" style="fill:#5d3c2d;stroke:black;stroke-width:1;fill-opacity:1;stroke-opacity:0.3" />
<rect x="821" y="140" width="24" height="5" style="fill:#5d3c2d;stroke:black;stroke-width:1;fill-opacity:1;stroke-opacity:0.3" />
<line x1="815" y1="149" x2="818" y2="151" stroke="black" stroke-width="1" />
<line x1="818" y1="151" x2="821" y2="149" stroke="black" stroke-width="1" />
<rect x="791" y="147" width="24" height="5" style="fill:#5d3c2d;stroke:black;stroke-width:1;fill-opacity:1;stroke-opacity:0.3" />
<rect x="821" y="147" width="24" height="5" style="fill:#5d3c2d;stroke:black;stroke-width:1;fill-opacity:1;stroke-opacity:0.3" />
<line x1="817" y1="58" x2="824" y2="60" stroke="black" stroke-width="1" />
<line x1="824" y1="60" x2="832" y2="58" stroke="black" stroke-width="1" />
<rect x="792" y="56" width="24" height="5" style="fill:#5d3c2d;stroke:black;stroke-width:1;fill-opacity:1;stroke-opacity:0.3" />
<rect x="832" y="56" width="24" height="5" style="fill:#5d3c2d;stroke:black;stroke-width:1;fill-opacity:1;stroke-opacity:0.3" />
<line x1="829" y1="44" x2="830" y2="46" stroke="black" stroke-width="1" />
<line x1="830" y1="46" x2="832" y2="44" stroke="black" stroke-width="1" />
<rect x="804" y="42" width="24" height="5" style="fill:#5d3c2d;stroke:black;stroke-width:1;fill-opacity:1;stroke-opacity:0.3" />
<rect x="832" y="42" width="24" height="5" style="fill:#5d3c2d;stroke:black;stroke-width:1;fill-opacity:1;stroke-opacity:0.3" />
<line x1="847" y1="65" x2="871" y2="67" stroke="black" stroke-width="1" />
<line x1="871" y1="67" x2="896" y2="65" stroke="black" stroke-width="1" />
<rect x="823" y="63" width="24" height="5" style="fill:#5d3c2d;stroke:black;stroke-width:1;fill-opacity:1;stroke-opacity:0.3" />
<rect x="896" y="63" width="24" height="5" style="fill:#5d3c2d;stroke:black;stroke-width:1;fill-opacity:1;stroke-opacity:0.3" />
<line x1="870" y1="30" x2="876" y2="32" stroke="black" stroke-width="1" />
<line x1="876" y1="32" x2="882" y2="30" stroke="black" stroke-width="1" />
<rect x="846" y="28" width="24" height="5" style="fill:#5d3c2d;stroke:black;stroke-width:1;fill-opacity:1;stroke-opacity:0.3" />
<rect x="882" y="28" width="24" height="5" style="fill:#5d3c2d;stroke:black;stroke-width:1;fill-opacity:1;stroke-opacity:0.3" />
<line x1="870" y1="37" x2="875" y2="39" stroke="black" stroke-width="1" />
<line x1="875" y1="39" x2="881" y2="37" stroke="black" stroke-width="1" />
<rect x="846" y="35" width="24" height="5" style="fill:#5d3c2d;stroke:black;stroke-width:1;fill-opacity:1;stroke-opacity:0.3" />
<rect x="881" y="35" width="21" height="5" style="fill:#5d3c2d;stroke:black;stroke-width:1;fill-opacity:1;stroke-opacity:0.3" />
<line x1="887" y1="51" x2="899" y2="53" stroke="black" stroke-width="1" />
<line x1="899" y1="53" x2="912" y2="51" stroke="black" stroke-width="1" />
<rect x="851" y="49" width="35" height="5" style="fill:#5d3c2d;stroke:black;stroke-width:1;fill-opacity:1;stroke-opacity:0.3" />
<rect x="912" y="49" width="36" height="5" style="fill:#5d3c2d;stroke:black;stroke-width:1;fill-opacity:1;stroke-opacity:0.3" />
<line x1="883" y1="44" x2="890" y2="46" stroke="black" stroke-width="1" />
<line x1="890" y1="46" x2="897" y2="44" stroke="black" stroke-width="1" />
<rect x="859" y="42" width="24" height="5" style="fill:#5d3c2d;stroke:black;stroke-width:1;fill-opacity:1;stroke-opacity:0.3" />
<rect x="897" y="42" width="24" height="5" style="fill:#5d3c2d;stroke:black;stroke-width:1;fill-opacity:1;stroke-opacity:0.3" />
<line x1="902" y1="58" x2="906" y2="60" stroke="black" stroke-width="1" />
<line x1="906" y1="60" x2="910" y2="58" stroke="black" stroke-width="1" />
<rect x="878" y="56" width="23" height="5" style="fill:#5d3c2d;stroke:black;stroke-width:1;fill-opacity:1;stroke-opacity:0.3" />
<rect x="910" y="56" width="24" height="5" style="fill:#5d3c2d;stroke:black;stroke-width:1;fill-opacity:1;stroke-opacity:0.3" />
<line x1="914" y1="72" x2="915" y2="74" stroke="black" stroke-width="1" />
<line x1="915" y1="74" x2="917" y2="72" stroke="black" stroke-width="1" />
<rect x="889" y="70" width="24" height="5" style="fill:#5d3c2d;stroke:black;stroke-width:1;fill-opacity:1;stroke-opacity:0.3" />
<rect x="917" y="70" width="24" height="5" style="fill:#5d3c2d;stroke:black;stroke-width:1;fill-opacity:1;stroke-opacity:0.3" />
<line x1="923" y1="79" x2="928" y2="81" stroke="black" stroke-width="1" />
<line x1="928" y1="81" x2="934" y2="79" stroke="black" stroke-width="1" />
<rect x="898" y="77" width="24" height="5" style="fill:#5d3c2d;stroke:black;stroke-width:1;fill-opacity:1;stroke-opacity:0.3" />
<rect x="934" y="77" width="24" height="5" style="fill:#5d3c2d;stroke:black;stroke-width:1;fill-opacity:1;stroke-opacity:0.3" />
<line x1="925" y1="86" x2="932" y2="88" stroke="black" stroke-width="1" />
<line x1="932" y1="88" x2="940" y2="86" stroke="black" stroke-width="1" />
<rect x="900" y="84" width="24" height="5" style="fill:#5d3c2d;stroke:black;stroke-width:1;fill-opacity:1;stroke-opacity:0.3" />
<rect x="940" y="84" width="24" height="5" style="fill:#5d3c2d;stroke:black;stroke-width:1;fill-opacity:1;stroke-opacity:0.3" />
<line x1="928" y1="37" x2="933" y2="39" stroke="black" stroke-width="1" />
<line x1="933" y1="39" x2="938" y2="37" stroke="black" stroke-width="1" />
<rect x="904" y="35" width="24" height="5" style="fill:#5d3c2d;stroke:black;stroke-width:1;fill-opacity:1;stroke-opacity:0.3" />
<rect x="938" y="35" width="24" height="5" style="fill:#5d3c2d;stroke:black;stroke-width:1;fill-opacity:1;stroke-opacity:0.3" />
<line x1="929" y1="93" x2="938" y2="95" stroke="black" stroke-width="1" />
<line x1="938" y1="95" x2="948" y2="93" stroke="black" stroke-width="1" />
<rect x="904" y="91" width="24" height="5" style="fill:#5d3c2d;stroke:black;stroke-width:1;fill-opacity:1;stroke-opacity:0.3" />
<rect x="948" y="91" width="24" height="5" style="fill:#5d3c2d;stroke:black;stroke-width:1;fill-opacity:1;stroke-opacity:0.3" />
<line x1="934" y1="30" x2="937" y2="32" stroke="black" stroke-width="1" />
<line x1="937" y1="32" x2="940" y2="30" stroke="black" stroke-width="1" />
<rect x="909" y="28" width="24" height="5" style="fill:#5d3c2d;stroke:black;stroke-width:1;fill-opacity:1;stroke-opacity:0.3" />
<rect x="940" y="28" width="24" height="5" style="fill:#5d3c2d;stroke:black;stroke-width:1;fill-opacity:1;stroke-opacity:0.3" />
<line x1="940" y1="100" x2="944" y2="102" stroke="black" stroke-width="1" />
<line x1="944" y1="102" x2="948" y2="100" stroke="black" stroke-width="1" />
<rect x="915" y="98" width="24" height="5" style="fill:#5d3c2d;stroke:black;stroke-width:1;fill-opacity:1;stroke-opacity:0.3" />
<rect x="948" y="98" width="24" height="5" style="fill:#5d3c2d;stroke:black;stroke-width:1;fill-opacity:1;stroke-opacity:0.3" />
<line x1="942" y1="107" x2="947" y2="109" stroke="black" stroke-width="1" />
<line x1="947" y1="109" x2="952" y2="107" stroke="black" stroke-width="1" />
<rect x="918" y="105" width="24" height="5" style="fill:#5d3c2d;stroke:black;stroke-width:1;fill-opacity:1;stroke-opacity:0.3" />
<rect x="952" y="105" width="24" height="5" style="fill:#5d3c2d;stroke:black;stroke-width:1;fill-opacity:1;stroke-opacity:0.3" />
<line x1="944" y1="114" x2="950" y2="116" stroke="black" stroke-width="1" />
<line x1="950" y1="116" x2="957" y2="114" stroke="black" stroke-width="1" />
<rect x="920" y="112" width="24" height="5" style="fill:#5d3c2d;stroke:black;stroke-width:1;fill-opacity:1;stroke-opacity:0.3" />
<rect x="957" y="112" width="24" height="5" style="fill:#5d3c2d;stroke:black;stroke-width:1;fill-opacity:1;stroke-opacity:0.3" />
<line x1="945" y1="121" x2="947" y2="123" stroke="black" stroke-width="1" />
<line x1="947" y1="123" x2="949" y2="121" stroke="black" stroke-width="1" />
<rect x="920" y="119" width="24" height="5" style="fill:#5d3c2d;stroke:black;stroke-width:1;fill-opacity:1;stroke-opacity:0.3" />
<rect x="949" y="119" width="24" height="5" style="fill:#5d3c2d;stroke:black;stroke-width:1;fill-opacity:1;stroke-opacity:0.3" />
<line x1="947" y1="44" x2="949" y2="46" stroke="black" stroke-width="1" />
<line x1="949" y1="46" x2="952" y2="44" stroke="black" stroke-width="1" />
<rect x="922" y="42" width="24" height="5" style="fill:#5d3c2d;stroke:black;stroke-width:1;fill-opacity:1;stroke-opacity:0.3" />
<rect x="952" y="42" width="24" height="5" style="fill:#5d3c2d;stroke:black;stroke-width:1;fill-opacity:1;stroke-opacity:0.3" />
<line x1="947" y1="65" x2="949" y2="67" stroke="black" stroke-width="1" />
<line x1="949" y1="67" x2="952" y2="65" stroke="black" stroke-width="1" />
<rect x="923" y="63" width="24" height="5" style="fill:#5d3c2d;stroke:black;stroke-width:1;fill-opacity:1;stroke-opacity:0.3" />
<rect x="952" y="63" width="24" height="5" style="fill:#5d3c2d;stroke:black;stroke-width:1;fill-opacity:1;stroke-opacity:0.3" />
<line x1="948" y1="128" x2="949" y2="130" stroke="black" stroke-width="1" />
<line x1="949" y1="130" x2="951" y2="128" stroke="black" stroke-width="1" />
<rect x="924" y="126" width="24" height="5" style="fill:#5d3c2d;stroke:black;stroke-width:1;fill-opacity:1;stroke-opacity:0.3" />
<rect x="951" y="126" width="24" height="5" style="fill:#5d3c2d;stroke:black;stroke-width:1;fill-opacity:1;stroke-opacity:0.3" />
<line x1="953" y1="135" x2="956" y2="137" stroke="black" stroke-width="1" />
<line x1="956" y1="137" x2="960" y2="135" stroke="black" stroke-width="1" />
<rect x="928" y="133" width="24" height="5" style="fill:#f5b024;stroke:black;stroke-width:1;fill-opacity:1;stroke-opacity:0.3" />
<rect x="960" y="133" width="24" height="5" style="fill:#f5b024;stroke:black;stroke-width:1;fill-opacity:1;stroke-opacity:0.3" />
<line x1="953" y1="142" x2="956" y2="144" stroke="black" stroke-width="1" />
<line x1="956" y1="144" x2="960" y2="142" stroke="black" stroke-width="1" />
<rect x="929" y="140" width="24" height="5" style="fill:#5d3c2d;stroke:black;stroke-width:1;fill-opacity:1;stroke-opacity:0.3" />
<rect x="960" y="140" width="24" height="5" style="fill:#5d3c2d;stroke:black;stroke-width:1;fill-opacity:1;stroke-opacity:0.3" />
<text x="15"  y="176" style="font-family:Arial;font-size:10;stroke:black;fill:black;">all.merged.bam</text>
</svg>
    
