<?xml version="1.0" encoding="utf-8" standalone="no"?>
<!DOCTYPE svg PUBLIC "-//W3C//DTD SVG 1.1//EN"
  "http://www.w3.org/Graphics/SVG/1.1/DTD/svg11.dtd">
<svg height="1140" width="1000" version="1.1" viewBox="0 0 1000 1140" xmlns="http://www.w3.org/2000/svg" xmlns:xlink="http://www.w3.org/1999/xlink">
<line x1="33" y1="11" x2="965" y2="11" stroke="black" stroke-width="1" />
<rect x="33" y="9" width="201" height="5" style="fill:#f50002;stroke:black;stroke-width:1;fill-opacity:1;stroke-opacity:0.3" />
<rect x="236" y="9" width="116" height="5" style="fill:#53a1b5;stroke:black;stroke-width:1;fill-opacity:1;stroke-opacity:0.3" />
<rect x="459" y="9" width="25" height="5" style="fill:#53a1b5;stroke:black;stroke-width:1;fill-opacity:1;stroke-opacity:0.3" />
<rect x="592" y="9" width="57" height="5" style="fill:#53a1b5;stroke:black;stroke-width:1;fill-opacity:1;stroke-opacity:0.3" />
<rect x="750" y="9" width="29" height="5" style="fill:#53a1b5;stroke:black;stroke-width:1;fill-opacity:1;stroke-opacity:0.3" />
<rect x="842" y="9" width="86" height="5" style="fill:#53a1b5;stroke:black;stroke-width:1;fill-opacity:1;stroke-opacity:0.3" />
<rect x="928" y="9" width="36" height="5" style="fill:#f50002;stroke:black;stroke-width:1;fill-opacity:1;stroke-opacity:0.3" />
<text x="33"  y="23" style="font-family:Arial;font-size:10;stroke:black;fill:black;">Cre13.g580300.t1.2.v5.5 (-) chromosome_13:2505919-2508667</text>
<line x1="173" y1="30" x2="188" y2="32" stroke="black" stroke-width="1" />
<line x1="188" y1="32" x2="203" y2="30" stroke="black" stroke-width="1" />
<rect x="139" y="28" width="33" height="5" style="fill:#f5b024;stroke:black;stroke-width:1;fill-opacity:1;stroke-opacity:0.3" />
<rect x="203" y="28" width="33" height="5" style="fill:#f5b024;stroke:black;stroke-width:1;fill-opacity:1;stroke-opacity:0.3" />
<line x1="173" y1="37" x2="179" y2="39" stroke="black" stroke-width="1" />
<line x1="179" y1="39" x2="186" y2="37" stroke="black" stroke-width="1" />
<rect x="139" y="35" width="33" height="5" style="fill:#f5b024;stroke:black;stroke-width:1;fill-opacity:1;stroke-opacity:0.3" />
<rect x="186" y="35" width="33" height="5" style="fill:#f5b024;stroke:black;stroke-width:1;fill-opacity:1;stroke-opacity:0.3" />
<line x1="173" y1="44" x2="183" y2="46" stroke="black" stroke-width="1" />
<line x1="183" y1="46" x2="193" y2="44" stroke="black" stroke-width="1" />
<rect x="139" y="42" width="33" height="5" style="fill:#f5b024;stroke:black;stroke-width:1;fill-opacity:1;stroke-opacity:0.3" />
<rect x="193" y="42" width="33" height="5" style="fill:#f5b024;stroke:black;stroke-width:1;fill-opacity:1;stroke-opacity:0.3" />
<line x1="173" y1="51" x2="187" y2="53" stroke="black" stroke-width="1" />
<line x1="187" y1="53" x2="202" y2="51" stroke="black" stroke-width="1" />
<rect x="139" y="49" width="33" height="5" style="fill:#f5b024;stroke:black;stroke-width:1;fill-opacity:1;stroke-opacity:0.3" />
<rect x="202" y="49" width="33" height="5" style="fill:#f5b024;stroke:black;stroke-width:1;fill-opacity:1;stroke-opacity:0.3" />
<line x1="173" y1="58" x2="178" y2="60" stroke="black" stroke-width="1" />
<line x1="178" y1="60" x2="184" y2="58" stroke="black" stroke-width="1" />
<rect x="139" y="56" width="33" height="5" style="fill:#f5b024;stroke:black;stroke-width:1;fill-opacity:1;stroke-opacity:0.3" />
<rect x="184" y="56" width="33" height="5" style="fill:#f5b024;stroke:black;stroke-width:1;fill-opacity:1;stroke-opacity:0.3" />
<line x1="190" y1="65" x2="199" y2="67" stroke="black" stroke-width="1" />
<line x1="199" y1="67" x2="208" y2="65" stroke="black" stroke-width="1" />
<rect x="140" y="63" width="50" height="5" style="fill:#f5b024;stroke:black;stroke-width:1;fill-opacity:1;stroke-opacity:0.3" />
<rect x="208" y="63" width="50" height="5" style="fill:#f5b024;stroke:black;stroke-width:1;fill-opacity:1;stroke-opacity:0.3" />
<line x1="172" y1="72" x2="177" y2="74" stroke="black" stroke-width="1" />
<line x1="177" y1="74" x2="182" y2="72" stroke="black" stroke-width="1" />
<rect x="140" y="70" width="32" height="5" style="fill:#f5b024;stroke:black;stroke-width:1;fill-opacity:1;stroke-opacity:0.3" />
<rect x="182" y="70" width="33" height="5" style="fill:#f5b024;stroke:black;stroke-width:1;fill-opacity:1;stroke-opacity:0.3" />
<line x1="173" y1="79" x2="178" y2="81" stroke="black" stroke-width="1" />
<line x1="178" y1="81" x2="184" y2="79" stroke="black" stroke-width="1" />
<rect x="140" y="77" width="32" height="5" style="fill:#f5b024;stroke:black;stroke-width:1;fill-opacity:1;stroke-opacity:0.3" />
<rect x="184" y="77" width="33" height="5" style="fill:#f5b024;stroke:black;stroke-width:1;fill-opacity:1;stroke-opacity:0.3" />
<line x1="174" y1="86" x2="176" y2="88" stroke="black" stroke-width="1" />
<line x1="176" y1="88" x2="179" y2="86" stroke="black" stroke-width="1" />
<rect x="141" y="84" width="33" height="5" style="fill:#f5b024;stroke:black;stroke-width:1;fill-opacity:1;stroke-opacity:0.3" />
<rect x="179" y="84" width="33" height="5" style="fill:#f5b024;stroke:black;stroke-width:1;fill-opacity:1;stroke-opacity:0.3" />
<line x1="174" y1="93" x2="185" y2="95" stroke="black" stroke-width="1" />
<line x1="185" y1="95" x2="196" y2="93" stroke="black" stroke-width="1" />
<rect x="141" y="91" width="33" height="5" style="fill:#f5b024;stroke:black;stroke-width:1;fill-opacity:1;stroke-opacity:0.3" />
<rect x="196" y="91" width="33" height="5" style="fill:#f5b024;stroke:black;stroke-width:1;fill-opacity:1;stroke-opacity:0.3" />
<line x1="174" y1="100" x2="176" y2="102" stroke="black" stroke-width="1" />
<line x1="176" y1="102" x2="179" y2="100" stroke="black" stroke-width="1" />
<rect x="141" y="98" width="33" height="5" style="fill:#f5b024;stroke:black;stroke-width:1;fill-opacity:1;stroke-opacity:0.3" />
<rect x="179" y="98" width="33" height="5" style="fill:#f5b024;stroke:black;stroke-width:1;fill-opacity:1;stroke-opacity:0.3" />
<line x1="174" y1="107" x2="183" y2="109" stroke="black" stroke-width="1" />
<line x1="183" y1="109" x2="193" y2="107" stroke="black" stroke-width="1" />
<rect x="141" y="105" width="33" height="5" style="fill:#f5b024;stroke:black;stroke-width:1;fill-opacity:1;stroke-opacity:0.3" />
<rect x="193" y="105" width="33" height="5" style="fill:#f5b024;stroke:black;stroke-width:1;fill-opacity:1;stroke-opacity:0.3" />
<line x1="174" y1="114" x2="195" y2="116" stroke="black" stroke-width="1" />
<line x1="195" y1="116" x2="216" y2="114" stroke="black" stroke-width="1" />
<rect x="141" y="112" width="33" height="5" style="fill:#f5b024;stroke:black;stroke-width:1;fill-opacity:1;stroke-opacity:0.3" />
<rect x="216" y="112" width="33" height="5" style="fill:#f5b024;stroke:black;stroke-width:1;fill-opacity:1;stroke-opacity:0.3" />
<line x1="178" y1="121" x2="181" y2="123" stroke="black" stroke-width="1" />
<line x1="181" y1="123" x2="185" y2="121" stroke="black" stroke-width="1" />
<rect x="144" y="119" width="33" height="5" style="fill:#f5b024;stroke:black;stroke-width:1;fill-opacity:1;stroke-opacity:0.3" />
<rect x="185" y="119" width="33" height="5" style="fill:#f5b024;stroke:black;stroke-width:1;fill-opacity:1;stroke-opacity:0.3" />
<line x1="181" y1="128" x2="184" y2="130" stroke="black" stroke-width="1" />
<line x1="184" y1="130" x2="188" y2="128" stroke="black" stroke-width="1" />
<rect x="148" y="126" width="33" height="5" style="fill:#f5b024;stroke:black;stroke-width:1;fill-opacity:1;stroke-opacity:0.3" />
<rect x="188" y="126" width="33" height="5" style="fill:#f5b024;stroke:black;stroke-width:1;fill-opacity:1;stroke-opacity:0.3" />
<line x1="182" y1="135" x2="189" y2="137" stroke="black" stroke-width="1" />
<line x1="189" y1="137" x2="196" y2="135" stroke="black" stroke-width="1" />
<rect x="148" y="133" width="33" height="5" style="fill:#f5b024;stroke:black;stroke-width:1;fill-opacity:1;stroke-opacity:0.3" />
<rect x="196" y="133" width="33" height="5" style="fill:#f5b024;stroke:black;stroke-width:1;fill-opacity:1;stroke-opacity:0.3" />
<line x1="186" y1="142" x2="194" y2="144" stroke="black" stroke-width="1" />
<line x1="194" y1="144" x2="202" y2="142" stroke="black" stroke-width="1" />
<rect x="152" y="140" width="33" height="5" style="fill:#f5b024;stroke:black;stroke-width:1;fill-opacity:1;stroke-opacity:0.3" />
<rect x="202" y="140" width="33" height="5" style="fill:#f5b024;stroke:black;stroke-width:1;fill-opacity:1;stroke-opacity:0.3" />
<line x1="186" y1="149" x2="191" y2="151" stroke="black" stroke-width="1" />
<line x1="191" y1="151" x2="196" y2="149" stroke="black" stroke-width="1" />
<rect x="152" y="147" width="33" height="5" style="fill:#f5b024;stroke:black;stroke-width:1;fill-opacity:1;stroke-opacity:0.3" />
<rect x="196" y="147" width="33" height="5" style="fill:#f5b024;stroke:black;stroke-width:1;fill-opacity:1;stroke-opacity:0.3" />
<line x1="186" y1="156" x2="188" y2="158" stroke="black" stroke-width="1" />
<line x1="188" y1="158" x2="191" y2="156" stroke="black" stroke-width="1" />
<rect x="152" y="154" width="33" height="5" style="fill:#f5b024;stroke:black;stroke-width:1;fill-opacity:1;stroke-opacity:0.3" />
<rect x="191" y="154" width="33" height="5" style="fill:#f5b024;stroke:black;stroke-width:1;fill-opacity:1;stroke-opacity:0.3" />
<line x1="186" y1="163" x2="194" y2="165" stroke="black" stroke-width="1" />
<line x1="194" y1="165" x2="203" y2="163" stroke="black" stroke-width="1" />
<rect x="152" y="161" width="33" height="5" style="fill:#f5b024;stroke:black;stroke-width:1;fill-opacity:1;stroke-opacity:0.3" />
<rect x="203" y="161" width="33" height="5" style="fill:#f5b024;stroke:black;stroke-width:1;fill-opacity:1;stroke-opacity:0.3" />
<line x1="247" y1="86" x2="252" y2="88" stroke="black" stroke-width="1" />
<line x1="252" y1="88" x2="258" y2="86" stroke="black" stroke-width="1" />
<rect x="213" y="84" width="33" height="5" style="fill:#f5b024;stroke:black;stroke-width:1;fill-opacity:1;stroke-opacity:0.3" />
<rect x="258" y="84" width="33" height="5" style="fill:#f5b024;stroke:black;stroke-width:1;fill-opacity:1;stroke-opacity:0.3" />
<line x1="267" y1="72" x2="273" y2="74" stroke="black" stroke-width="1" />
<line x1="273" y1="74" x2="279" y2="72" stroke="black" stroke-width="1" />
<rect x="217" y="70" width="50" height="5" style="fill:#f5b024;stroke:black;stroke-width:1;fill-opacity:1;stroke-opacity:0.3" />
<rect x="279" y="70" width="50" height="5" style="fill:#f5b024;stroke:black;stroke-width:1;fill-opacity:1;stroke-opacity:0.3" />
<line x1="255" y1="37" x2="262" y2="39" stroke="black" stroke-width="1" />
<line x1="262" y1="39" x2="269" y2="37" stroke="black" stroke-width="1" />
<rect x="221" y="35" width="33" height="5" style="fill:#f5b024;stroke:black;stroke-width:1;fill-opacity:1;stroke-opacity:0.3" />
<rect x="269" y="35" width="33" height="5" style="fill:#f5b024;stroke:black;stroke-width:1;fill-opacity:1;stroke-opacity:0.3" />
<line x1="254" y1="58" x2="258" y2="60" stroke="black" stroke-width="1" />
<line x1="258" y1="60" x2="262" y2="58" stroke="black" stroke-width="1" />
<rect x="221" y="56" width="33" height="5" style="fill:#f5b024;stroke:black;stroke-width:1;fill-opacity:1;stroke-opacity:0.3" />
<rect x="262" y="56" width="33" height="5" style="fill:#f5b024;stroke:black;stroke-width:1;fill-opacity:1;stroke-opacity:0.3" />
<line x1="255" y1="79" x2="259" y2="81" stroke="black" stroke-width="1" />
<line x1="259" y1="81" x2="263" y2="79" stroke="black" stroke-width="1" />
<rect x="221" y="77" width="33" height="5" style="fill:#f5b024;stroke:black;stroke-width:1;fill-opacity:1;stroke-opacity:0.3" />
<rect x="263" y="77" width="33" height="5" style="fill:#f5b024;stroke:black;stroke-width:1;fill-opacity:1;stroke-opacity:0.3" />
<line x1="255" y1="100" x2="264" y2="102" stroke="black" stroke-width="1" />
<line x1="264" y1="102" x2="273" y2="100" stroke="black" stroke-width="1" />
<rect x="221" y="98" width="33" height="5" style="fill:#f5b024;stroke:black;stroke-width:1;fill-opacity:1;stroke-opacity:0.3" />
<rect x="273" y="98" width="33" height="5" style="fill:#f5b024;stroke:black;stroke-width:1;fill-opacity:1;stroke-opacity:0.3" />
<line x1="272" y1="121" x2="285" y2="123" stroke="black" stroke-width="1" />
<line x1="285" y1="123" x2="299" y2="121" stroke="black" stroke-width="1" />
<rect x="221" y="119" width="50" height="5" style="fill:#f5b024;stroke:black;stroke-width:1;fill-opacity:1;stroke-opacity:0.3" />
<rect x="299" y="119" width="50" height="5" style="fill:#f5b024;stroke:black;stroke-width:1;fill-opacity:1;stroke-opacity:0.3" />
<line x1="257" y1="128" x2="259" y2="130" stroke="black" stroke-width="1" />
<line x1="259" y1="130" x2="261" y2="128" stroke="black" stroke-width="1" />
<rect x="223" y="126" width="33" height="5" style="fill:#f5b024;stroke:black;stroke-width:1;fill-opacity:1;stroke-opacity:0.3" />
<rect x="261" y="126" width="33" height="5" style="fill:#f5b024;stroke:black;stroke-width:1;fill-opacity:1;stroke-opacity:0.3" />
<line x1="262" y1="44" x2="264" y2="46" stroke="black" stroke-width="1" />
<line x1="264" y1="46" x2="266" y2="44" stroke="black" stroke-width="1" />
<rect x="228" y="42" width="33" height="5" style="fill:#f5b024;stroke:black;stroke-width:1;fill-opacity:1;stroke-opacity:0.3" />
<rect x="266" y="42" width="33" height="5" style="fill:#f5b024;stroke:black;stroke-width:1;fill-opacity:1;stroke-opacity:0.3" />
<line x1="279" y1="107" x2="286" y2="109" stroke="black" stroke-width="1" />
<line x1="286" y1="109" x2="294" y2="107" stroke="black" stroke-width="1" />
<rect x="228" y="105" width="50" height="5" style="fill:#f5b024;stroke:black;stroke-width:1;fill-opacity:1;stroke-opacity:0.3" />
<rect x="294" y="105" width="50" height="5" style="fill:#f5b024;stroke:black;stroke-width:1;fill-opacity:1;stroke-opacity:0.3" />
<line x1="263" y1="156" x2="271" y2="158" stroke="black" stroke-width="1" />
<line x1="271" y1="158" x2="279" y2="156" stroke="black" stroke-width="1" />
<rect x="229" y="154" width="33" height="5" style="fill:#f5b024;stroke:black;stroke-width:1;fill-opacity:1;stroke-opacity:0.3" />
<rect x="279" y="154" width="33" height="5" style="fill:#f5b024;stroke:black;stroke-width:1;fill-opacity:1;stroke-opacity:0.3" />
<line x1="264" y1="93" x2="267" y2="95" stroke="black" stroke-width="1" />
<line x1="267" y1="95" x2="271" y2="93" stroke="black" stroke-width="1" />
<rect x="230" y="91" width="33" height="5" style="fill:#f5b024;stroke:black;stroke-width:1;fill-opacity:1;stroke-opacity:0.3" />
<rect x="271" y="91" width="33" height="5" style="fill:#f5b024;stroke:black;stroke-width:1;fill-opacity:1;stroke-opacity:0.3" />
<line x1="266" y1="135" x2="268" y2="137" stroke="black" stroke-width="1" />
<line x1="268" y1="137" x2="271" y2="135" stroke="black" stroke-width="1" />
<rect x="232" y="133" width="33" height="5" style="fill:#f5b024;stroke:black;stroke-width:1;fill-opacity:1;stroke-opacity:0.3" />
<rect x="271" y="133" width="33" height="5" style="fill:#f5b024;stroke:black;stroke-width:1;fill-opacity:1;stroke-opacity:0.3" />
<line x1="292" y1="30" x2="295" y2="32" stroke="black" stroke-width="1" />
<line x1="295" y1="32" x2="298" y2="30" stroke="black" stroke-width="1" />
<rect x="241" y="28" width="50" height="5" style="fill:#f5b024;stroke:black;stroke-width:1;fill-opacity:1;stroke-opacity:0.3" />
<rect x="298" y="28" width="50" height="5" style="fill:#f5b024;stroke:black;stroke-width:1;fill-opacity:1;stroke-opacity:0.3" />
<line x1="280" y1="51" x2="287" y2="53" stroke="black" stroke-width="1" />
<line x1="287" y1="53" x2="295" y2="51" stroke="black" stroke-width="1" />
<rect x="246" y="49" width="33" height="5" style="fill:#f5b024;stroke:black;stroke-width:1;fill-opacity:1;stroke-opacity:0.3" />
<rect x="295" y="49" width="33" height="5" style="fill:#f5b024;stroke:black;stroke-width:1;fill-opacity:1;stroke-opacity:0.3" />
<line x1="291" y1="114" x2="293" y2="116" stroke="black" stroke-width="1" />
<line x1="293" y1="116" x2="296" y2="114" stroke="black" stroke-width="1" />
<rect x="258" y="112" width="33" height="5" style="fill:#f5b024;stroke:black;stroke-width:1;fill-opacity:1;stroke-opacity:0.3" />
<rect x="296" y="112" width="33" height="5" style="fill:#f5b024;stroke:black;stroke-width:1;fill-opacity:1;stroke-opacity:0.3" />
<line x1="294" y1="65" x2="298" y2="67" stroke="black" stroke-width="1" />
<line x1="298" y1="67" x2="303" y2="65" stroke="black" stroke-width="1" />
<rect x="260" y="63" width="33" height="5" style="fill:#f5b024;stroke:black;stroke-width:1;fill-opacity:1;stroke-opacity:0.3" />
<rect x="303" y="63" width="33" height="5" style="fill:#f5b024;stroke:black;stroke-width:1;fill-opacity:1;stroke-opacity:0.3" />
<line x1="294" y1="142" x2="299" y2="144" stroke="black" stroke-width="1" />
<line x1="299" y1="144" x2="304" y2="142" stroke="black" stroke-width="1" />
<rect x="260" y="140" width="33" height="5" style="fill:#f5b024;stroke:black;stroke-width:1;fill-opacity:1;stroke-opacity:0.3" />
<rect x="304" y="140" width="33" height="5" style="fill:#f5b024;stroke:black;stroke-width:1;fill-opacity:1;stroke-opacity:0.3" />
<line x1="298" y1="149" x2="301" y2="151" stroke="black" stroke-width="1" />
<line x1="301" y1="151" x2="305" y2="149" stroke="black" stroke-width="1" />
<rect x="264" y="147" width="33" height="5" style="fill:#f5b024;stroke:black;stroke-width:1;fill-opacity:1;stroke-opacity:0.3" />
<rect x="305" y="147" width="33" height="5" style="fill:#f5b024;stroke:black;stroke-width:1;fill-opacity:1;stroke-opacity:0.3" />
<line x1="299" y1="163" x2="303" y2="165" stroke="black" stroke-width="1" />
<line x1="303" y1="165" x2="307" y2="163" stroke="black" stroke-width="1" />
<rect x="265" y="161" width="33" height="5" style="fill:#f5b024;stroke:black;stroke-width:1;fill-opacity:1;stroke-opacity:0.3" />
<rect x="307" y="161" width="33" height="5" style="fill:#f5b024;stroke:black;stroke-width:1;fill-opacity:1;stroke-opacity:0.3" />
<line x1="337" y1="37" x2="341" y2="39" stroke="black" stroke-width="1" />
<line x1="341" y1="39" x2="345" y2="37" stroke="black" stroke-width="1" />
<rect x="303" y="35" width="33" height="5" style="fill:#f5b024;stroke:black;stroke-width:1;fill-opacity:1;stroke-opacity:0.3" />
<rect x="345" y="35" width="7" height="5" style="fill:#f5b024;stroke:black;stroke-width:1;fill-opacity:1;stroke-opacity:0.3" />
<line x1="353" y1="37" x2="459" y2="37" stroke="pink" stroke-width="1" />
<rect x="459" y="35" width="25" height="5" style="fill:#f5b024;stroke:black;stroke-width:1;fill-opacity:1;stroke-opacity:0.3" />
<line x1="484" y1="37" x2="592" y2="37" stroke="pink" stroke-width="1" />
<rect x="592" y="35" width="0" height="5" style="fill:#f5b024;stroke:black;stroke-width:1;fill-opacity:1;stroke-opacity:0.3" />
<line x1="338" y1="44" x2="401" y2="46" stroke="black" stroke-width="1" />
<line x1="401" y1="46" x2="465" y2="44" stroke="black" stroke-width="1" />
<rect x="304" y="42" width="33" height="5" style="fill:#f5b024;stroke:black;stroke-width:1;fill-opacity:1;stroke-opacity:0.3" />
<rect x="465" y="42" width="19" height="5" style="fill:#f5b024;stroke:black;stroke-width:1;fill-opacity:1;stroke-opacity:0.3" />
<line x1="484" y1="44" x2="592" y2="44" stroke="pink" stroke-width="1" />
<rect x="592" y="42" width="14" height="5" style="fill:#f5b024;stroke:black;stroke-width:1;fill-opacity:1;stroke-opacity:0.3" />
<line x1="339" y1="58" x2="403" y2="60" stroke="black" stroke-width="1" />
<line x1="403" y1="60" x2="467" y2="58" stroke="black" stroke-width="1" />
<rect x="305" y="56" width="33" height="5" style="fill:#f5b024;stroke:black;stroke-width:1;fill-opacity:1;stroke-opacity:0.3" />
<rect x="467" y="56" width="17" height="5" style="fill:#f5b024;stroke:black;stroke-width:1;fill-opacity:1;stroke-opacity:0.3" />
<line x1="484" y1="58" x2="592" y2="58" stroke="pink" stroke-width="1" />
<rect x="592" y="56" width="16" height="5" style="fill:#f5b024;stroke:black;stroke-width:1;fill-opacity:1;stroke-opacity:0.3" />
<line x1="340" y1="79" x2="403" y2="81" stroke="black" stroke-width="1" />
<line x1="403" y1="81" x2="466" y2="79" stroke="black" stroke-width="1" />
<rect x="306" y="77" width="33" height="5" style="fill:#f5b024;stroke:black;stroke-width:1;fill-opacity:1;stroke-opacity:0.3" />
<rect x="466" y="77" width="17" height="5" style="fill:#f5b024;stroke:black;stroke-width:1;fill-opacity:1;stroke-opacity:0.3" />
<line x1="484" y1="79" x2="592" y2="79" stroke="pink" stroke-width="1" />
<rect x="592" y="77" width="16" height="5" style="fill:#f5b024;stroke:black;stroke-width:1;fill-opacity:1;stroke-opacity:0.3" />
<line x1="342" y1="86" x2="404" y2="88" stroke="black" stroke-width="1" />
<line x1="404" y1="88" x2="466" y2="86" stroke="black" stroke-width="1" />
<rect x="308" y="84" width="33" height="5" style="fill:#f5b024;stroke:black;stroke-width:1;fill-opacity:1;stroke-opacity:0.3" />
<rect x="466" y="84" width="17" height="5" style="fill:#f5b024;stroke:black;stroke-width:1;fill-opacity:1;stroke-opacity:0.3" />
<line x1="484" y1="86" x2="592" y2="86" stroke="pink" stroke-width="1" />
<rect x="592" y="84" width="15" height="5" style="fill:#f5b024;stroke:black;stroke-width:1;fill-opacity:1;stroke-opacity:0.3" />
<line x1="466" y1="93" x2="472" y2="95" stroke="black" stroke-width="1" />
<line x1="472" y1="95" x2="479" y2="93" stroke="black" stroke-width="1" />
<rect x="309" y="91" width="43" height="5" style="fill:#f5b024;stroke:black;stroke-width:1;fill-opacity:1;stroke-opacity:0.3" />
<line x1="353" y1="93" x2="459" y2="93" stroke="pink" stroke-width="1" />
<rect x="459" y="91" width="7" height="5" style="fill:#f5b024;stroke:black;stroke-width:1;fill-opacity:1;stroke-opacity:0.3" />
<rect x="479" y="91" width="5" height="5" style="fill:#f5b024;stroke:black;stroke-width:1;fill-opacity:1;stroke-opacity:0.3" />
<line x1="484" y1="93" x2="592" y2="93" stroke="pink" stroke-width="1" />
<rect x="592" y="91" width="45" height="5" style="fill:#f5b024;stroke:black;stroke-width:1;fill-opacity:1;stroke-opacity:0.3" />
<line x1="347" y1="100" x2="406" y2="102" stroke="black" stroke-width="1" />
<line x1="406" y1="102" x2="466" y2="100" stroke="black" stroke-width="1" />
<rect x="314" y="98" width="33" height="5" style="fill:#f5b024;stroke:black;stroke-width:1;fill-opacity:1;stroke-opacity:0.3" />
<rect x="466" y="98" width="17" height="5" style="fill:#f5b024;stroke:black;stroke-width:1;fill-opacity:1;stroke-opacity:0.3" />
<line x1="484" y1="100" x2="592" y2="100" stroke="pink" stroke-width="1" />
<rect x="592" y="98" width="16" height="5" style="fill:#f5b024;stroke:black;stroke-width:1;fill-opacity:1;stroke-opacity:0.3" />
<line x1="347" y1="128" x2="407" y2="130" stroke="black" stroke-width="1" />
<line x1="407" y1="130" x2="467" y2="128" stroke="black" stroke-width="1" />
<rect x="314" y="126" width="33" height="5" style="fill:#f5b024;stroke:black;stroke-width:1;fill-opacity:1;stroke-opacity:0.3" />
<rect x="467" y="126" width="17" height="5" style="fill:#f5b024;stroke:black;stroke-width:1;fill-opacity:1;stroke-opacity:0.3" />
<line x1="484" y1="128" x2="592" y2="128" stroke="pink" stroke-width="1" />
<rect x="592" y="126" width="16" height="5" style="fill:#f5b024;stroke:black;stroke-width:1;fill-opacity:1;stroke-opacity:0.3" />
<line x1="348" y1="135" x2="372" y2="137" stroke="black" stroke-width="1" />
<line x1="372" y1="137" x2="396" y2="135" stroke="black" stroke-width="1" />
<rect x="314" y="133" width="33" height="5" style="fill:#f5b024;stroke:black;stroke-width:1;fill-opacity:1;stroke-opacity:0.3" />
<rect x="396" y="133" width="33" height="5" style="fill:#f5b024;stroke:black;stroke-width:1;fill-opacity:1;stroke-opacity:0.3" />
<line x1="350" y1="156" x2="405" y2="158" stroke="black" stroke-width="1" />
<line x1="405" y1="158" x2="460" y2="156" stroke="black" stroke-width="1" />
<rect x="316" y="154" width="33" height="5" style="fill:#f5b024;stroke:black;stroke-width:1;fill-opacity:1;stroke-opacity:0.3" />
<rect x="460" y="154" width="24" height="5" style="fill:#f5b024;stroke:black;stroke-width:1;fill-opacity:1;stroke-opacity:0.3" />
<line x1="484" y1="156" x2="592" y2="156" stroke="pink" stroke-width="1" />
<rect x="592" y="154" width="9" height="5" style="fill:#f5b024;stroke:black;stroke-width:1;fill-opacity:1;stroke-opacity:0.3" />
<line x1="474" y1="51" x2="538" y2="53" stroke="black" stroke-width="1" />
<line x1="538" y1="53" x2="603" y2="51" stroke="black" stroke-width="1" />
<rect x="334" y="49" width="18" height="5" style="fill:#f5b024;stroke:black;stroke-width:1;fill-opacity:1;stroke-opacity:0.3" />
<line x1="353" y1="51" x2="459" y2="51" stroke="pink" stroke-width="1" />
<rect x="459" y="49" width="15" height="5" style="fill:#f5b024;stroke:black;stroke-width:1;fill-opacity:1;stroke-opacity:0.3" />
<rect x="603" y="49" width="33" height="5" style="fill:#f5b024;stroke:black;stroke-width:1;fill-opacity:1;stroke-opacity:0.3" />
<line x1="605" y1="65" x2="608" y2="67" stroke="black" stroke-width="1" />
<line x1="608" y1="67" x2="612" y2="65" stroke="black" stroke-width="1" />
<rect x="340" y="63" width="12" height="5" style="fill:#f5b024;stroke:black;stroke-width:1;fill-opacity:1;stroke-opacity:0.3" />
<line x1="353" y1="65" x2="459" y2="65" stroke="pink" stroke-width="1" />
<rect x="459" y="63" width="25" height="5" style="fill:#f5b024;stroke:black;stroke-width:1;fill-opacity:1;stroke-opacity:0.3" />
<line x1="484" y1="65" x2="592" y2="65" stroke="pink" stroke-width="1" />
<rect x="592" y="63" width="13" height="5" style="fill:#f5b024;stroke:black;stroke-width:1;fill-opacity:1;stroke-opacity:0.3" />
<rect x="612" y="63" width="38" height="5" style="fill:#f5b024;stroke:black;stroke-width:1;fill-opacity:1;stroke-opacity:0.3" />
<line x1="650" y1="65" x2="750" y2="65" stroke="pink" stroke-width="1" />
<rect x="750" y="63" width="12" height="5" style="fill:#f5b024;stroke:black;stroke-width:1;fill-opacity:1;stroke-opacity:0.3" />
<line x1="480" y1="72" x2="541" y2="74" stroke="black" stroke-width="1" />
<line x1="541" y1="74" x2="602" y2="72" stroke="black" stroke-width="1" />
<rect x="340" y="70" width="12" height="5" style="fill:#f5b024;stroke:black;stroke-width:1;fill-opacity:1;stroke-opacity:0.3" />
<line x1="353" y1="72" x2="459" y2="72" stroke="pink" stroke-width="1" />
<rect x="459" y="70" width="21" height="5" style="fill:#f5b024;stroke:black;stroke-width:1;fill-opacity:1;stroke-opacity:0.3" />
<rect x="602" y="70" width="33" height="5" style="fill:#f5b024;stroke:black;stroke-width:1;fill-opacity:1;stroke-opacity:0.3" />
<line x1="480" y1="114" x2="549" y2="116" stroke="black" stroke-width="1" />
<line x1="549" y1="116" x2="619" y2="114" stroke="black" stroke-width="1" />
<rect x="340" y="112" width="12" height="5" style="fill:#f5b024;stroke:black;stroke-width:1;fill-opacity:1;stroke-opacity:0.3" />
<line x1="353" y1="114" x2="459" y2="114" stroke="pink" stroke-width="1" />
<rect x="459" y="112" width="21" height="5" style="fill:#f5b024;stroke:black;stroke-width:1;fill-opacity:1;stroke-opacity:0.3" />
<rect x="619" y="112" width="31" height="5" style="fill:#f5b024;stroke:black;stroke-width:1;fill-opacity:1;stroke-opacity:0.3" />
<line x1="481" y1="142" x2="536" y2="144" stroke="black" stroke-width="1" />
<line x1="536" y1="144" x2="592" y2="142" stroke="black" stroke-width="1" />
<rect x="341" y="140" width="11" height="5" style="fill:#f5b024;stroke:black;stroke-width:1;fill-opacity:1;stroke-opacity:0.3" />
<line x1="353" y1="142" x2="459" y2="142" stroke="pink" stroke-width="1" />
<rect x="459" y="140" width="22" height="5" style="fill:#f5b024;stroke:black;stroke-width:1;fill-opacity:1;stroke-opacity:0.3" />
<rect x="592" y="140" width="33" height="5" style="fill:#f5b024;stroke:black;stroke-width:1;fill-opacity:1;stroke-opacity:0.3" />
<line x1="599" y1="30" x2="601" y2="32" stroke="black" stroke-width="1" />
<line x1="601" y1="32" x2="603" y2="30" stroke="black" stroke-width="1" />
<rect x="351" y="28" width="1" height="5" style="fill:#f5b024;stroke:black;stroke-width:1;fill-opacity:1;stroke-opacity:0.3" />
<line x1="353" y1="30" x2="459" y2="30" stroke="pink" stroke-width="1" />
<rect x="459" y="28" width="25" height="5" style="fill:#f5b024;stroke:black;stroke-width:1;fill-opacity:1;stroke-opacity:0.3" />
<line x1="484" y1="30" x2="592" y2="30" stroke="pink" stroke-width="1" />
<rect x="592" y="28" width="7" height="5" style="fill:#f5b024;stroke:black;stroke-width:1;fill-opacity:1;stroke-opacity:0.3" />
<rect x="603" y="28" width="33" height="5" style="fill:#f5b024;stroke:black;stroke-width:1;fill-opacity:1;stroke-opacity:0.3" />
<line x1="398" y1="107" x2="400" y2="109" stroke="black" stroke-width="1" />
<line x1="400" y1="109" x2="402" y2="107" stroke="black" stroke-width="1" />
<rect x="364" y="105" width="33" height="5" style="fill:#f5b024;stroke:black;stroke-width:1;fill-opacity:1;stroke-opacity:0.3" />
<rect x="402" y="105" width="33" height="5" style="fill:#f5b024;stroke:black;stroke-width:1;fill-opacity:1;stroke-opacity:0.3" />
<line x1="600" y1="107" x2="603" y2="109" stroke="black" stroke-width="1" />
<line x1="603" y1="109" x2="607" y2="107" stroke="black" stroke-width="1" />
<rect x="458" y="105" width="25" height="5" style="fill:#f5b024;stroke:black;stroke-width:1;fill-opacity:1;stroke-opacity:0.3" />
<line x1="484" y1="107" x2="592" y2="107" stroke="pink" stroke-width="1" />
<rect x="592" y="105" width="8" height="5" style="fill:#f5b024;stroke:black;stroke-width:1;fill-opacity:1;stroke-opacity:0.3" />
<rect x="607" y="105" width="33" height="5" style="fill:#f5b024;stroke:black;stroke-width:1;fill-opacity:1;stroke-opacity:0.3" />
<line x1="610" y1="121" x2="615" y2="123" stroke="black" stroke-width="1" />
<line x1="615" y1="123" x2="620" y2="121" stroke="black" stroke-width="1" />
<rect x="468" y="119" width="16" height="5" style="fill:#f5b024;stroke:black;stroke-width:1;fill-opacity:1;stroke-opacity:0.3" />
<line x1="484" y1="121" x2="592" y2="121" stroke="pink" stroke-width="1" />
<rect x="592" y="119" width="17" height="5" style="fill:#f5b024;stroke:black;stroke-width:1;fill-opacity:1;stroke-opacity:0.3" />
<rect x="620" y="119" width="29" height="5" style="fill:#f5b024;stroke:black;stroke-width:1;fill-opacity:1;stroke-opacity:0.3" />
<line x1="650" y1="121" x2="750" y2="121" stroke="pink" stroke-width="1" />
<rect x="750" y="119" width="4" height="5" style="fill:#f5b024;stroke:black;stroke-width:1;fill-opacity:1;stroke-opacity:0.3" />
<line x1="610" y1="135" x2="626" y2="137" stroke="black" stroke-width="1" />
<line x1="626" y1="137" x2="642" y2="135" stroke="black" stroke-width="1" />
<rect x="468" y="133" width="15" height="5" style="fill:#f5b024;stroke:black;stroke-width:1;fill-opacity:1;stroke-opacity:0.3" />
<line x1="484" y1="135" x2="592" y2="135" stroke="pink" stroke-width="1" />
<rect x="592" y="133" width="18" height="5" style="fill:#f5b024;stroke:black;stroke-width:1;fill-opacity:1;stroke-opacity:0.3" />
<rect x="642" y="133" width="7" height="5" style="fill:#f5b024;stroke:black;stroke-width:1;fill-opacity:1;stroke-opacity:0.3" />
<line x1="650" y1="135" x2="750" y2="135" stroke="pink" stroke-width="1" />
<rect x="750" y="133" width="26" height="5" style="fill:#f5b024;stroke:black;stroke-width:1;fill-opacity:1;stroke-opacity:0.3" />
<line x1="628" y1="149" x2="633" y2="151" stroke="black" stroke-width="1" />
<line x1="633" y1="151" x2="639" y2="149" stroke="black" stroke-width="1" />
<rect x="469" y="147" width="14" height="5" style="fill:#f5b024;stroke:black;stroke-width:1;fill-opacity:1;stroke-opacity:0.3" />
<line x1="484" y1="149" x2="592" y2="149" stroke="pink" stroke-width="1" />
<rect x="592" y="147" width="35" height="5" style="fill:#f5b024;stroke:black;stroke-width:1;fill-opacity:1;stroke-opacity:0.3" />
<rect x="639" y="147" width="11" height="5" style="fill:#f5b024;stroke:black;stroke-width:1;fill-opacity:1;stroke-opacity:0.3" />
<line x1="650" y1="149" x2="750" y2="149" stroke="pink" stroke-width="1" />
<rect x="750" y="147" width="29" height="5" style="fill:#f5b024;stroke:black;stroke-width:1;fill-opacity:1;stroke-opacity:0.3" />
<line x1="779" y1="149" x2="842" y2="149" stroke="pink" stroke-width="1" />
<rect x="842" y="147" width="10" height="5" style="fill:#f5b024;stroke:black;stroke-width:1;fill-opacity:1;stroke-opacity:0.3" />
<line x1="611" y1="163" x2="614" y2="165" stroke="black" stroke-width="1" />
<line x1="614" y1="165" x2="618" y2="163" stroke="black" stroke-width="1" />
<rect x="469" y="161" width="14" height="5" style="fill:#f5b024;stroke:black;stroke-width:1;fill-opacity:1;stroke-opacity:0.3" />
<line x1="484" y1="163" x2="592" y2="163" stroke="pink" stroke-width="1" />
<rect x="592" y="161" width="19" height="5" style="fill:#f5b024;stroke:black;stroke-width:1;fill-opacity:1;stroke-opacity:0.3" />
<rect x="618" y="161" width="31" height="5" style="fill:#f5b024;stroke:black;stroke-width:1;fill-opacity:1;stroke-opacity:0.3" />
<line x1="650" y1="163" x2="750" y2="163" stroke="pink" stroke-width="1" />
<rect x="750" y="161" width="2" height="5" style="fill:#f5b024;stroke:black;stroke-width:1;fill-opacity:1;stroke-opacity:0.3" />
<line x1="765" y1="37" x2="768" y2="39" stroke="black" stroke-width="1" />
<line x1="768" y1="39" x2="771" y2="37" stroke="black" stroke-width="1" />
<rect x="631" y="35" width="18" height="5" style="fill:#f5b024;stroke:black;stroke-width:1;fill-opacity:1;stroke-opacity:0.3" />
<line x1="650" y1="37" x2="750" y2="37" stroke="pink" stroke-width="1" />
<rect x="750" y="35" width="14" height="5" style="fill:#f5b024;stroke:black;stroke-width:1;fill-opacity:1;stroke-opacity:0.3" />
<rect x="771" y="35" width="8" height="5" style="fill:#f5b024;stroke:black;stroke-width:1;fill-opacity:1;stroke-opacity:0.3" />
<line x1="779" y1="37" x2="842" y2="37" stroke="pink" stroke-width="1" />
<rect x="842" y="35" width="25" height="5" style="fill:#f5b024;stroke:black;stroke-width:1;fill-opacity:1;stroke-opacity:0.3" />
<line x1="766" y1="44" x2="771" y2="46" stroke="black" stroke-width="1" />
<line x1="771" y1="46" x2="777" y2="44" stroke="black" stroke-width="1" />
<rect x="632" y="42" width="17" height="5" style="fill:#f5b024;stroke:black;stroke-width:1;fill-opacity:1;stroke-opacity:0.3" />
<line x1="650" y1="44" x2="750" y2="44" stroke="pink" stroke-width="1" />
<rect x="750" y="42" width="15" height="5" style="fill:#f5b024;stroke:black;stroke-width:1;fill-opacity:1;stroke-opacity:0.3" />
<rect x="777" y="42" width="2" height="5" style="fill:#f5b024;stroke:black;stroke-width:1;fill-opacity:1;stroke-opacity:0.3" />
<line x1="779" y1="44" x2="842" y2="44" stroke="pink" stroke-width="1" />
<rect x="842" y="42" width="31" height="5" style="fill:#f5b024;stroke:black;stroke-width:1;fill-opacity:1;stroke-opacity:0.3" />
<line x1="770" y1="58" x2="825" y2="60" stroke="black" stroke-width="1" />
<line x1="825" y1="60" x2="880" y2="58" stroke="black" stroke-width="1" />
<rect x="636" y="56" width="13" height="5" style="fill:#f5b024;stroke:black;stroke-width:1;fill-opacity:1;stroke-opacity:0.3" />
<line x1="650" y1="58" x2="750" y2="58" stroke="pink" stroke-width="1" />
<rect x="750" y="56" width="20" height="5" style="fill:#f5b024;stroke:black;stroke-width:1;fill-opacity:1;stroke-opacity:0.3" />
<rect x="880" y="56" width="33" height="5" style="fill:#f5b024;stroke:black;stroke-width:1;fill-opacity:1;stroke-opacity:0.3" />
<line x1="857" y1="30" x2="859" y2="32" stroke="black" stroke-width="1" />
<line x1="859" y1="32" x2="862" y2="30" stroke="black" stroke-width="1" />
<rect x="644" y="28" width="5" height="5" style="fill:#f5b024;stroke:black;stroke-width:1;fill-opacity:1;stroke-opacity:0.3" />
<line x1="650" y1="30" x2="750" y2="30" stroke="pink" stroke-width="1" />
<rect x="750" y="28" width="29" height="5" style="fill:#f5b024;stroke:black;stroke-width:1;fill-opacity:1;stroke-opacity:0.3" />
<line x1="779" y1="30" x2="842" y2="30" stroke="pink" stroke-width="1" />
<rect x="842" y="28" width="14" height="5" style="fill:#f5b024;stroke:black;stroke-width:1;fill-opacity:1;stroke-opacity:0.3" />
<rect x="862" y="28" width="50" height="5" style="fill:#f5b024;stroke:black;stroke-width:1;fill-opacity:1;stroke-opacity:0.3" />
<line x1="778" y1="51" x2="811" y2="53" stroke="black" stroke-width="1" />
<line x1="811" y1="53" x2="844" y2="51" stroke="black" stroke-width="1" />
<rect x="644" y="49" width="5" height="5" style="fill:#f5b024;stroke:black;stroke-width:1;fill-opacity:1;stroke-opacity:0.3" />
<line x1="650" y1="51" x2="750" y2="51" stroke="pink" stroke-width="1" />
<rect x="750" y="49" width="28" height="5" style="fill:#f5b024;stroke:black;stroke-width:1;fill-opacity:1;stroke-opacity:0.3" />
<rect x="844" y="49" width="33" height="5" style="fill:#f5b024;stroke:black;stroke-width:1;fill-opacity:1;stroke-opacity:0.3" />
<line x1="731" y1="72" x2="735" y2="74" stroke="black" stroke-width="1" />
<line x1="735" y1="74" x2="739" y2="72" stroke="black" stroke-width="1" />
<rect x="697" y="70" width="33" height="5" style="fill:#f5b024;stroke:black;stroke-width:1;fill-opacity:1;stroke-opacity:0.3" />
<rect x="739" y="70" width="33" height="5" style="fill:#f5b024;stroke:black;stroke-width:1;fill-opacity:1;stroke-opacity:0.3" />
<line x1="847" y1="79" x2="849" y2="81" stroke="black" stroke-width="1" />
<line x1="849" y1="81" x2="851" y2="79" stroke="black" stroke-width="1" />
<rect x="751" y="77" width="28" height="5" style="fill:#f5b024;stroke:black;stroke-width:1;fill-opacity:1;stroke-opacity:0.3" />
<line x1="779" y1="79" x2="842" y2="79" stroke="pink" stroke-width="1" />
<rect x="842" y="77" width="5" height="5" style="fill:#f5b024;stroke:black;stroke-width:1;fill-opacity:1;stroke-opacity:0.3" />
<rect x="851" y="77" width="33" height="5" style="fill:#f5b024;stroke:black;stroke-width:1;fill-opacity:1;stroke-opacity:0.3" />
<line x1="853" y1="86" x2="861" y2="88" stroke="black" stroke-width="1" />
<line x1="861" y1="88" x2="869" y2="86" stroke="black" stroke-width="1" />
<rect x="756" y="84" width="23" height="5" style="fill:#f5b024;stroke:black;stroke-width:1;fill-opacity:1;stroke-opacity:0.3" />
<line x1="779" y1="86" x2="842" y2="86" stroke="pink" stroke-width="1" />
<rect x="842" y="84" width="10" height="5" style="fill:#f5b024;stroke:black;stroke-width:1;fill-opacity:1;stroke-opacity:0.3" />
<rect x="869" y="84" width="33" height="5" style="fill:#f5b024;stroke:black;stroke-width:1;fill-opacity:1;stroke-opacity:0.3" />
<line x1="855" y1="93" x2="868" y2="95" stroke="black" stroke-width="1" />
<line x1="868" y1="95" x2="881" y2="93" stroke="black" stroke-width="1" />
<rect x="759" y="91" width="20" height="5" style="fill:#f5b024;stroke:black;stroke-width:1;fill-opacity:1;stroke-opacity:0.3" />
<line x1="779" y1="93" x2="842" y2="93" stroke="pink" stroke-width="1" />
<rect x="842" y="91" width="13" height="5" style="fill:#f5b024;stroke:black;stroke-width:1;fill-opacity:1;stroke-opacity:0.3" />
<rect x="881" y="91" width="33" height="5" style="fill:#f5b024;stroke:black;stroke-width:1;fill-opacity:1;stroke-opacity:0.3" />
<line x1="858" y1="100" x2="863" y2="102" stroke="black" stroke-width="1" />
<line x1="863" y1="102" x2="868" y2="100" stroke="black" stroke-width="1" />
<rect x="762" y="98" width="17" height="5" style="fill:#f5b024;stroke:black;stroke-width:1;fill-opacity:1;stroke-opacity:0.3" />
<line x1="779" y1="100" x2="842" y2="100" stroke="pink" stroke-width="1" />
<rect x="842" y="98" width="16" height="5" style="fill:#f5b024;stroke:black;stroke-width:1;fill-opacity:1;stroke-opacity:0.3" />
<rect x="868" y="98" width="33" height="5" style="fill:#f5b024;stroke:black;stroke-width:1;fill-opacity:1;stroke-opacity:0.3" />
<line x1="859" y1="65" x2="863" y2="67" stroke="black" stroke-width="1" />
<line x1="863" y1="67" x2="867" y2="65" stroke="black" stroke-width="1" />
<rect x="763" y="63" width="16" height="5" style="fill:#f5b024;stroke:black;stroke-width:1;fill-opacity:1;stroke-opacity:0.3" />
<line x1="779" y1="65" x2="842" y2="65" stroke="pink" stroke-width="1" />
<rect x="842" y="63" width="17" height="5" style="fill:#f5b024;stroke:black;stroke-width:1;fill-opacity:1;stroke-opacity:0.3" />
<rect x="867" y="63" width="33" height="5" style="fill:#f5b024;stroke:black;stroke-width:1;fill-opacity:1;stroke-opacity:0.3" />
<line x1="859" y1="107" x2="863" y2="109" stroke="black" stroke-width="1" />
<line x1="863" y1="109" x2="867" y2="107" stroke="black" stroke-width="1" />
<rect x="763" y="105" width="16" height="5" style="fill:#f5b024;stroke:black;stroke-width:1;fill-opacity:1;stroke-opacity:0.3" />
<line x1="779" y1="107" x2="842" y2="107" stroke="pink" stroke-width="1" />
<rect x="842" y="105" width="17" height="5" style="fill:#f5b024;stroke:black;stroke-width:1;fill-opacity:1;stroke-opacity:0.3" />
<rect x="867" y="105" width="33" height="5" style="fill:#f5b024;stroke:black;stroke-width:1;fill-opacity:1;stroke-opacity:0.3" />
<line x1="864" y1="114" x2="869" y2="116" stroke="black" stroke-width="1" />
<line x1="869" y1="116" x2="874" y2="114" stroke="black" stroke-width="1" />
<rect x="767" y="112" width="12" height="5" style="fill:#f5b024;stroke:black;stroke-width:1;fill-opacity:1;stroke-opacity:0.3" />
<line x1="779" y1="114" x2="842" y2="114" stroke="pink" stroke-width="1" />
<rect x="842" y="112" width="21" height="5" style="fill:#f5b024;stroke:black;stroke-width:1;fill-opacity:1;stroke-opacity:0.3" />
<rect x="874" y="112" width="33" height="5" style="fill:#f5b024;stroke:black;stroke-width:1;fill-opacity:1;stroke-opacity:0.3" />
<line x1="864" y1="121" x2="868" y2="123" stroke="black" stroke-width="1" />
<line x1="868" y1="123" x2="872" y2="121" stroke="black" stroke-width="1" />
<rect x="768" y="119" width="11" height="5" style="fill:#f5b024;stroke:black;stroke-width:1;fill-opacity:1;stroke-opacity:0.3" />
<line x1="779" y1="121" x2="842" y2="121" stroke="pink" stroke-width="1" />
<rect x="842" y="119" width="22" height="5" style="fill:#f5b024;stroke:black;stroke-width:1;fill-opacity:1;stroke-opacity:0.3" />
<rect x="872" y="119" width="33" height="5" style="fill:#f5b024;stroke:black;stroke-width:1;fill-opacity:1;stroke-opacity:0.3" />
<line x1="867" y1="128" x2="870" y2="130" stroke="black" stroke-width="1" />
<line x1="870" y1="130" x2="874" y2="128" stroke="black" stroke-width="1" />
<rect x="770" y="126" width="9" height="5" style="fill:#f5b024;stroke:black;stroke-width:1;fill-opacity:1;stroke-opacity:0.3" />
<line x1="779" y1="128" x2="842" y2="128" stroke="pink" stroke-width="1" />
<rect x="842" y="126" width="24" height="5" style="fill:#f5b024;stroke:black;stroke-width:1;fill-opacity:1;stroke-opacity:0.3" />
<rect x="874" y="126" width="33" height="5" style="fill:#f5b024;stroke:black;stroke-width:1;fill-opacity:1;stroke-opacity:0.3" />
<line x1="870" y1="72" x2="878" y2="74" stroke="black" stroke-width="1" />
<line x1="878" y1="74" x2="886" y2="72" stroke="black" stroke-width="1" />
<rect x="773" y="70" width="6" height="5" style="fill:#f5b024;stroke:black;stroke-width:1;fill-opacity:1;stroke-opacity:0.3" />
<line x1="779" y1="72" x2="842" y2="72" stroke="pink" stroke-width="1" />
<rect x="842" y="70" width="27" height="5" style="fill:#f5b024;stroke:black;stroke-width:1;fill-opacity:1;stroke-opacity:0.3" />
<rect x="886" y="70" width="33" height="5" style="fill:#f5b024;stroke:black;stroke-width:1;fill-opacity:1;stroke-opacity:0.3" />
<line x1="871" y1="142" x2="880" y2="144" stroke="black" stroke-width="1" />
<line x1="880" y1="144" x2="890" y2="142" stroke="black" stroke-width="1" />
<rect x="774" y="140" width="5" height="5" style="fill:#f5b024;stroke:black;stroke-width:1;fill-opacity:1;stroke-opacity:0.3" />
<line x1="779" y1="142" x2="842" y2="142" stroke="pink" stroke-width="1" />
<rect x="842" y="140" width="28" height="5" style="fill:#f5b024;stroke:black;stroke-width:1;fill-opacity:1;stroke-opacity:0.3" />
<rect x="890" y="140" width="33" height="5" style="fill:#f5b024;stroke:black;stroke-width:1;fill-opacity:1;stroke-opacity:0.3" />
<line x1="890" y1="135" x2="904" y2="137" stroke="black" stroke-width="1" />
<line x1="904" y1="137" x2="918" y2="135" stroke="black" stroke-width="1" />
<rect x="776" y="133" width="3" height="5" style="fill:#f5b024;stroke:black;stroke-width:1;fill-opacity:1;stroke-opacity:0.3" />
<line x1="779" y1="135" x2="842" y2="135" stroke="pink" stroke-width="1" />
<rect x="842" y="133" width="47" height="5" style="fill:#f5b024;stroke:black;stroke-width:1;fill-opacity:1;stroke-opacity:0.3" />
<rect x="918" y="133" width="50" height="5" style="fill:#f5b024;stroke:black;stroke-width:1;fill-opacity:1;stroke-opacity:0.3" />
<line x1="878" y1="156" x2="888" y2="158" stroke="black" stroke-width="1" />
<line x1="888" y1="158" x2="898" y2="156" stroke="black" stroke-width="1" />
<rect x="845" y="154" width="33" height="5" style="fill:#f5b024;stroke:black;stroke-width:1;fill-opacity:1;stroke-opacity:0.3" />
<rect x="898" y="154" width="33" height="5" style="fill:#f5b024;stroke:black;stroke-width:1;fill-opacity:1;stroke-opacity:0.3" />
<line x1="908" y1="149" x2="913" y2="151" stroke="black" stroke-width="1" />
<line x1="913" y1="151" x2="918" y2="149" stroke="black" stroke-width="1" />
<rect x="857" y="147" width="50" height="5" style="fill:#f5b024;stroke:black;stroke-width:1;fill-opacity:1;stroke-opacity:0.3" />
<rect x="918" y="147" width="50" height="5" style="fill:#f5b024;stroke:black;stroke-width:1;fill-opacity:1;stroke-opacity:0.3" />
<line x1="891" y1="163" x2="896" y2="165" stroke="black" stroke-width="1" />
<line x1="896" y1="165" x2="902" y2="163" stroke="black" stroke-width="1" />
<rect x="857" y="161" width="33" height="5" style="fill:#f5b024;stroke:black;stroke-width:1;fill-opacity:1;stroke-opacity:0.3" />
<rect x="902" y="161" width="33" height="5" style="fill:#f5b024;stroke:black;stroke-width:1;fill-opacity:1;stroke-opacity:0.3" />
<line x1="913" y1="37" x2="924" y2="39" stroke="black" stroke-width="1" />
<line x1="924" y1="39" x2="936" y2="37" stroke="black" stroke-width="1" />
<rect x="879" y="35" width="33" height="5" style="fill:#f5b024;stroke:black;stroke-width:1;fill-opacity:1;stroke-opacity:0.3" />
<rect x="936" y="35" width="33" height="5" style="fill:#f5b024;stroke:black;stroke-width:1;fill-opacity:1;stroke-opacity:0.3" />
<line x1="919" y1="44" x2="921" y2="46" stroke="black" stroke-width="1" />
<line x1="921" y1="46" x2="923" y2="44" stroke="black" stroke-width="1" />
<rect x="886" y="42" width="33" height="5" style="fill:#f5b024;stroke:black;stroke-width:1;fill-opacity:1;stroke-opacity:0.3" />
<rect x="923" y="42" width="33" height="5" style="fill:#f5b024;stroke:black;stroke-width:1;fill-opacity:1;stroke-opacity:0.3" />
<line x1="931" y1="51" x2="933" y2="53" stroke="black" stroke-width="1" />
<line x1="933" y1="53" x2="936" y2="51" stroke="black" stroke-width="1" />
<rect x="897" y="49" width="33" height="5" style="fill:#f5b024;stroke:black;stroke-width:1;fill-opacity:1;stroke-opacity:0.3" />
<rect x="936" y="49" width="33" height="5" style="fill:#f5b024;stroke:black;stroke-width:1;fill-opacity:1;stroke-opacity:0.3" />
<line x1="933" y1="79" x2="935" y2="81" stroke="black" stroke-width="1" />
<line x1="935" y1="81" x2="938" y2="79" stroke="black" stroke-width="1" />
<rect x="900" y="77" width="33" height="5" style="fill:#f5b024;stroke:black;stroke-width:1;fill-opacity:1;stroke-opacity:0.3" />
<rect x="938" y="77" width="33" height="5" style="fill:#f5b024;stroke:black;stroke-width:1;fill-opacity:1;stroke-opacity:0.3" />
<text x="15"  y="176" style="font-family:Arial;font-size:10;stroke:black;fill:black;">all.merged.bam</text>
</svg>
    
