<?xml version="1.0" encoding="utf-8" standalone="no"?>
<!DOCTYPE svg PUBLIC "-//W3C//DTD SVG 1.1//EN"
  "http://www.w3.org/Graphics/SVG/1.1/DTD/svg11.dtd">
<svg height="1140" width="1000" version="1.1" viewBox="0 0 1000 1140" xmlns="http://www.w3.org/2000/svg" xmlns:xlink="http://www.w3.org/1999/xlink">
<line x1="39" y1="11" x2="959" y2="11" stroke="black" stroke-width="1" />
<rect x="39" y="9" width="515" height="5" style="fill:#f50002;stroke:black;stroke-width:1;fill-opacity:1;stroke-opacity:0.3" />
<rect x="555" y="9" width="72" height="5" style="fill:#53a1b5;stroke:black;stroke-width:1;fill-opacity:1;stroke-opacity:0.3" />
<rect x="734" y="9" width="13" height="5" style="fill:#53a1b5;stroke:black;stroke-width:1;fill-opacity:1;stroke-opacity:0.3" />
<rect x="809" y="9" width="48" height="5" style="fill:#53a1b5;stroke:black;stroke-width:1;fill-opacity:1;stroke-opacity:0.3" />
<rect x="857" y="9" width="101" height="5" style="fill:#f50002;stroke:black;stroke-width:1;fill-opacity:1;stroke-opacity:0.3" />
<text x="39"  y="23" style="font-family:Arial;font-size:10;stroke:black;fill:black;">Cre11.g467685.t1.1.v5.5 (-) chromosome_11:1152260-1154565</text>
<line x1="79" y1="30" x2="93" y2="32" stroke="black" stroke-width="1" />
<line x1="93" y1="32" x2="107" y2="30" stroke="black" stroke-width="1" />
<rect x="39" y="28" width="39" height="5" style="fill:#f5b024;stroke:black;stroke-width:1;fill-opacity:1;stroke-opacity:0.3" />
<rect x="107" y="28" width="39" height="5" style="fill:#f5b024;stroke:black;stroke-width:1;fill-opacity:1;stroke-opacity:0.3" />
<line x1="144" y1="37" x2="148" y2="39" stroke="black" stroke-width="1" />
<line x1="148" y1="39" x2="152" y2="37" stroke="black" stroke-width="1" />
<rect x="104" y="35" width="39" height="5" style="fill:#f5b024;stroke:black;stroke-width:1;fill-opacity:1;stroke-opacity:0.3" />
<rect x="152" y="35" width="39" height="5" style="fill:#f5b024;stroke:black;stroke-width:1;fill-opacity:1;stroke-opacity:0.3" />
<line x1="276" y1="30" x2="279" y2="32" stroke="black" stroke-width="1" />
<line x1="279" y1="32" x2="282" y2="30" stroke="black" stroke-width="1" />
<rect x="237" y="28" width="39" height="5" style="fill:#5d3c2d;stroke:black;stroke-width:1;fill-opacity:1;stroke-opacity:0.3" />
<rect x="282" y="28" width="39" height="5" style="fill:#5d3c2d;stroke:black;stroke-width:1;fill-opacity:1;stroke-opacity:0.3" />
<line x1="283" y1="37" x2="291" y2="39" stroke="black" stroke-width="1" />
<line x1="291" y1="39" x2="300" y2="37" stroke="black" stroke-width="1" />
<rect x="244" y="35" width="39" height="5" style="fill:#f5b024;stroke:black;stroke-width:1;fill-opacity:1;stroke-opacity:0.3" />
<rect x="300" y="35" width="39" height="5" style="fill:#f5b024;stroke:black;stroke-width:1;fill-opacity:1;stroke-opacity:0.3" />
<line x1="286" y1="44" x2="299" y2="46" stroke="black" stroke-width="1" />
<line x1="299" y1="46" x2="313" y2="44" stroke="black" stroke-width="1" />
<rect x="246" y="42" width="39" height="5" style="fill:#f5b024;stroke:black;stroke-width:1;fill-opacity:1;stroke-opacity:0.3" />
<rect x="313" y="42" width="39" height="5" style="fill:#f5b024;stroke:black;stroke-width:1;fill-opacity:1;stroke-opacity:0.3" />
<line x1="372" y1="30" x2="379" y2="32" stroke="black" stroke-width="1" />
<line x1="379" y1="32" x2="387" y2="30" stroke="black" stroke-width="1" />
<rect x="332" y="28" width="39" height="5" style="fill:#f5b024;stroke:black;stroke-width:1;fill-opacity:1;stroke-opacity:0.3" />
<rect x="387" y="28" width="39" height="5" style="fill:#f5b024;stroke:black;stroke-width:1;fill-opacity:1;stroke-opacity:0.3" />
<line x1="381" y1="37" x2="385" y2="39" stroke="black" stroke-width="1" />
<line x1="385" y1="39" x2="389" y2="37" stroke="black" stroke-width="1" />
<rect x="341" y="35" width="39" height="5" style="fill:#f5b024;stroke:black;stroke-width:1;fill-opacity:1;stroke-opacity:0.3" />
<rect x="389" y="35" width="39" height="5" style="fill:#f5b024;stroke:black;stroke-width:1;fill-opacity:1;stroke-opacity:0.3" />
<line x1="381" y1="51" x2="388" y2="53" stroke="black" stroke-width="1" />
<line x1="388" y1="53" x2="395" y2="51" stroke="black" stroke-width="1" />
<rect x="341" y="49" width="39" height="5" style="fill:#f5b024;stroke:black;stroke-width:1;fill-opacity:1;stroke-opacity:0.3" />
<rect x="395" y="49" width="39" height="5" style="fill:#f5b024;stroke:black;stroke-width:1;fill-opacity:1;stroke-opacity:0.3" />
<line x1="390" y1="58" x2="392" y2="60" stroke="black" stroke-width="1" />
<line x1="392" y1="60" x2="394" y2="58" stroke="black" stroke-width="1" />
<rect x="350" y="56" width="39" height="5" style="fill:#f5b024;stroke:black;stroke-width:1;fill-opacity:1;stroke-opacity:0.3" />
<rect x="394" y="56" width="39" height="5" style="fill:#f5b024;stroke:black;stroke-width:1;fill-opacity:1;stroke-opacity:0.3" />
<line x1="418" y1="44" x2="438" y2="46" stroke="black" stroke-width="1" />
<line x1="438" y1="46" x2="459" y2="44" stroke="black" stroke-width="1" />
<rect x="379" y="42" width="39" height="5" style="fill:#f5b024;stroke:black;stroke-width:1;fill-opacity:1;stroke-opacity:0.3" />
<rect x="459" y="42" width="39" height="5" style="fill:#f5b024;stroke:black;stroke-width:1;fill-opacity:1;stroke-opacity:0.3" />
<line x1="445" y1="65" x2="448" y2="67" stroke="black" stroke-width="1" />
<line x1="448" y1="67" x2="451" y2="65" stroke="black" stroke-width="1" />
<rect x="405" y="63" width="39" height="5" style="fill:#f5b024;stroke:black;stroke-width:1;fill-opacity:1;stroke-opacity:0.3" />
<rect x="451" y="63" width="39" height="5" style="fill:#f5b024;stroke:black;stroke-width:1;fill-opacity:1;stroke-opacity:0.3" />
<line x1="498" y1="30" x2="516" y2="32" stroke="black" stroke-width="1" />
<line x1="516" y1="32" x2="534" y2="30" stroke="black" stroke-width="1" />
<rect x="458" y="28" width="39" height="5" style="fill:#f5b024;stroke:black;stroke-width:1;fill-opacity:1;stroke-opacity:0.3" />
<rect x="534" y="28" width="39" height="5" style="fill:#f5b024;stroke:black;stroke-width:1;fill-opacity:1;stroke-opacity:0.3" />
<line x1="499" y1="37" x2="508" y2="39" stroke="black" stroke-width="1" />
<line x1="508" y1="39" x2="517" y2="37" stroke="black" stroke-width="1" />
<rect x="459" y="35" width="39" height="5" style="fill:#f5b024;stroke:black;stroke-width:1;fill-opacity:1;stroke-opacity:0.3" />
<rect x="517" y="35" width="39" height="5" style="fill:#f5b024;stroke:black;stroke-width:1;fill-opacity:1;stroke-opacity:0.3" />
<line x1="498" y1="51" x2="507" y2="53" stroke="black" stroke-width="1" />
<line x1="507" y1="53" x2="516" y2="51" stroke="black" stroke-width="1" />
<rect x="459" y="49" width="39" height="5" style="fill:#f5b024;stroke:black;stroke-width:1;fill-opacity:1;stroke-opacity:0.3" />
<rect x="516" y="49" width="39" height="5" style="fill:#f5b024;stroke:black;stroke-width:1;fill-opacity:1;stroke-opacity:0.3" />
<line x1="499" y1="58" x2="501" y2="60" stroke="black" stroke-width="1" />
<line x1="501" y1="60" x2="504" y2="58" stroke="black" stroke-width="1" />
<rect x="459" y="56" width="39" height="5" style="fill:#5d3c2d;stroke:black;stroke-width:1;fill-opacity:1;stroke-opacity:0.3" />
<rect x="504" y="56" width="39" height="5" style="fill:#5d3c2d;stroke:black;stroke-width:1;fill-opacity:1;stroke-opacity:0.3" />
<line x1="498" y1="72" x2="512" y2="74" stroke="black" stroke-width="1" />
<line x1="512" y1="74" x2="527" y2="72" stroke="black" stroke-width="1" />
<rect x="459" y="70" width="39" height="5" style="fill:#f5b024;stroke:black;stroke-width:1;fill-opacity:1;stroke-opacity:0.3" />
<rect x="527" y="70" width="39" height="5" style="fill:#f5b024;stroke:black;stroke-width:1;fill-opacity:1;stroke-opacity:0.3" />
<line x1="499" y1="79" x2="508" y2="81" stroke="black" stroke-width="1" />
<line x1="508" y1="81" x2="517" y2="79" stroke="black" stroke-width="1" />
<rect x="459" y="77" width="39" height="5" style="fill:#f5b024;stroke:black;stroke-width:1;fill-opacity:1;stroke-opacity:0.3" />
<rect x="517" y="77" width="39" height="5" style="fill:#f5b024;stroke:black;stroke-width:1;fill-opacity:1;stroke-opacity:0.3" />
<line x1="519" y1="86" x2="532" y2="88" stroke="black" stroke-width="1" />
<line x1="532" y1="88" x2="545" y2="86" stroke="black" stroke-width="1" />
<rect x="459" y="84" width="59" height="5" style="fill:#f5b024;stroke:black;stroke-width:1;fill-opacity:1;stroke-opacity:0.3" />
<rect x="545" y="84" width="59" height="5" style="fill:#f5b024;stroke:black;stroke-width:1;fill-opacity:1;stroke-opacity:0.3" />
<line x1="499" y1="93" x2="503" y2="95" stroke="black" stroke-width="1" />
<line x1="503" y1="95" x2="508" y2="93" stroke="black" stroke-width="1" />
<rect x="460" y="91" width="38" height="5" style="fill:#f5b024;stroke:black;stroke-width:1;fill-opacity:1;stroke-opacity:0.3" />
<rect x="508" y="91" width="39" height="5" style="fill:#f5b024;stroke:black;stroke-width:1;fill-opacity:1;stroke-opacity:0.3" />
<line x1="505" y1="100" x2="507" y2="102" stroke="black" stroke-width="1" />
<line x1="507" y1="102" x2="509" y2="100" stroke="black" stroke-width="1" />
<rect x="465" y="98" width="39" height="5" style="fill:#f5b024;stroke:black;stroke-width:1;fill-opacity:1;stroke-opacity:0.3" />
<rect x="509" y="98" width="39" height="5" style="fill:#f5b024;stroke:black;stroke-width:1;fill-opacity:1;stroke-opacity:0.3" />
<line x1="505" y1="107" x2="507" y2="109" stroke="black" stroke-width="1" />
<line x1="507" y1="109" x2="509" y2="107" stroke="black" stroke-width="1" />
<rect x="465" y="105" width="39" height="5" style="fill:#f5b024;stroke:black;stroke-width:1;fill-opacity:1;stroke-opacity:0.3" />
<rect x="509" y="105" width="39" height="5" style="fill:#f5b024;stroke:black;stroke-width:1;fill-opacity:1;stroke-opacity:0.3" />
<line x1="505" y1="114" x2="511" y2="116" stroke="black" stroke-width="1" />
<line x1="511" y1="116" x2="517" y2="114" stroke="black" stroke-width="1" />
<rect x="466" y="112" width="39" height="5" style="fill:#f5b024;stroke:black;stroke-width:1;fill-opacity:1;stroke-opacity:0.3" />
<rect x="517" y="112" width="39" height="5" style="fill:#f5b024;stroke:black;stroke-width:1;fill-opacity:1;stroke-opacity:0.3" />
<line x1="506" y1="121" x2="514" y2="123" stroke="black" stroke-width="1" />
<line x1="514" y1="123" x2="523" y2="121" stroke="black" stroke-width="1" />
<rect x="466" y="119" width="39" height="5" style="fill:#f5b024;stroke:black;stroke-width:1;fill-opacity:1;stroke-opacity:0.3" />
<rect x="523" y="119" width="39" height="5" style="fill:#f5b024;stroke:black;stroke-width:1;fill-opacity:1;stroke-opacity:0.3" />
<line x1="506" y1="128" x2="511" y2="130" stroke="black" stroke-width="1" />
<line x1="511" y1="130" x2="517" y2="128" stroke="black" stroke-width="1" />
<rect x="466" y="126" width="39" height="5" style="fill:#5d3c2d;stroke:black;stroke-width:1;fill-opacity:1;stroke-opacity:0.3" />
<rect x="517" y="126" width="39" height="5" style="fill:#5d3c2d;stroke:black;stroke-width:1;fill-opacity:1;stroke-opacity:0.3" />
<line x1="506" y1="135" x2="512" y2="137" stroke="black" stroke-width="1" />
<line x1="512" y1="137" x2="518" y2="135" stroke="black" stroke-width="1" />
<rect x="466" y="133" width="39" height="5" style="fill:#f5b024;stroke:black;stroke-width:1;fill-opacity:1;stroke-opacity:0.3" />
<rect x="518" y="133" width="39" height="5" style="fill:#f5b024;stroke:black;stroke-width:1;fill-opacity:1;stroke-opacity:0.3" />
<line x1="506" y1="142" x2="511" y2="144" stroke="black" stroke-width="1" />
<line x1="511" y1="144" x2="517" y2="142" stroke="black" stroke-width="1" />
<rect x="466" y="140" width="39" height="5" style="fill:#5d3c2d;stroke:black;stroke-width:1;fill-opacity:1;stroke-opacity:0.3" />
<rect x="517" y="140" width="39" height="5" style="fill:#5d3c2d;stroke:black;stroke-width:1;fill-opacity:1;stroke-opacity:0.3" />
<line x1="506" y1="149" x2="511" y2="151" stroke="black" stroke-width="1" />
<line x1="511" y1="151" x2="517" y2="149" stroke="black" stroke-width="1" />
<rect x="466" y="147" width="39" height="5" style="fill:#5d3c2d;stroke:black;stroke-width:1;fill-opacity:1;stroke-opacity:0.3" />
<rect x="517" y="147" width="39" height="5" style="fill:#5d3c2d;stroke:black;stroke-width:1;fill-opacity:1;stroke-opacity:0.3" />
<line x1="517" y1="156" x2="525" y2="158" stroke="black" stroke-width="1" />
<line x1="525" y1="158" x2="534" y2="156" stroke="black" stroke-width="1" />
<rect x="477" y="154" width="39" height="5" style="fill:#f5b024;stroke:black;stroke-width:1;fill-opacity:1;stroke-opacity:0.3" />
<rect x="534" y="154" width="39" height="5" style="fill:#f5b024;stroke:black;stroke-width:1;fill-opacity:1;stroke-opacity:0.3" />
<line x1="518" y1="163" x2="520" y2="165" stroke="black" stroke-width="1" />
<line x1="520" y1="165" x2="523" y2="163" stroke="black" stroke-width="1" />
<rect x="478" y="161" width="39" height="5" style="fill:#f5b024;stroke:black;stroke-width:1;fill-opacity:1;stroke-opacity:0.3" />
<rect x="523" y="161" width="39" height="5" style="fill:#f5b024;stroke:black;stroke-width:1;fill-opacity:1;stroke-opacity:0.3" />
<line x1="545" y1="44" x2="547" y2="46" stroke="black" stroke-width="1" />
<line x1="547" y1="46" x2="550" y2="44" stroke="black" stroke-width="1" />
<rect x="505" y="42" width="39" height="5" style="fill:#f5b024;stroke:black;stroke-width:1;fill-opacity:1;stroke-opacity:0.3" />
<rect x="550" y="42" width="39" height="5" style="fill:#f5b024;stroke:black;stroke-width:1;fill-opacity:1;stroke-opacity:0.3" />
<line x1="545" y1="65" x2="547" y2="67" stroke="black" stroke-width="1" />
<line x1="547" y1="67" x2="549" y2="65" stroke="black" stroke-width="1" />
<rect x="505" y="63" width="39" height="5" style="fill:#f5b024;stroke:black;stroke-width:1;fill-opacity:1;stroke-opacity:0.3" />
<rect x="549" y="63" width="39" height="5" style="fill:#f5b024;stroke:black;stroke-width:1;fill-opacity:1;stroke-opacity:0.3" />
<line x1="584" y1="58" x2="586" y2="60" stroke="black" stroke-width="1" />
<line x1="586" y1="60" x2="589" y2="58" stroke="black" stroke-width="1" />
<rect x="544" y="56" width="39" height="5" style="fill:#f5b024;stroke:black;stroke-width:1;fill-opacity:1;stroke-opacity:0.3" />
<rect x="589" y="56" width="38" height="5" style="fill:#f5b024;stroke:black;stroke-width:1;fill-opacity:1;stroke-opacity:0.3" />
<line x1="628" y1="58" x2="734" y2="58" stroke="pink" stroke-width="1" />
<rect x="734" y="56" width="1" height="5" style="fill:#f5b024;stroke:black;stroke-width:1;fill-opacity:1;stroke-opacity:0.3" />
<line x1="588" y1="93" x2="595" y2="95" stroke="black" stroke-width="1" />
<line x1="595" y1="95" x2="602" y2="93" stroke="black" stroke-width="1" />
<rect x="548" y="91" width="39" height="5" style="fill:#f5b024;stroke:black;stroke-width:1;fill-opacity:1;stroke-opacity:0.3" />
<rect x="602" y="91" width="25" height="5" style="fill:#f5b024;stroke:black;stroke-width:1;fill-opacity:1;stroke-opacity:0.3" />
<line x1="628" y1="93" x2="734" y2="93" stroke="pink" stroke-width="1" />
<rect x="734" y="91" width="13" height="5" style="fill:#f5b024;stroke:black;stroke-width:1;fill-opacity:1;stroke-opacity:0.3" />
<line x1="588" y1="100" x2="591" y2="102" stroke="black" stroke-width="1" />
<line x1="591" y1="102" x2="594" y2="100" stroke="black" stroke-width="1" />
<rect x="549" y="98" width="39" height="5" style="fill:#f5b024;stroke:black;stroke-width:1;fill-opacity:1;stroke-opacity:0.3" />
<rect x="594" y="98" width="33" height="5" style="fill:#f5b024;stroke:black;stroke-width:1;fill-opacity:1;stroke-opacity:0.3" />
<line x1="628" y1="100" x2="734" y2="100" stroke="pink" stroke-width="1" />
<rect x="734" y="98" width="6" height="5" style="fill:#f5b024;stroke:black;stroke-width:1;fill-opacity:1;stroke-opacity:0.3" />
<line x1="589" y1="107" x2="591" y2="109" stroke="black" stroke-width="1" />
<line x1="591" y1="109" x2="594" y2="107" stroke="black" stroke-width="1" />
<rect x="549" y="105" width="39" height="5" style="fill:#f5b024;stroke:black;stroke-width:1;fill-opacity:1;stroke-opacity:0.3" />
<rect x="594" y="105" width="33" height="5" style="fill:#f5b024;stroke:black;stroke-width:1;fill-opacity:1;stroke-opacity:0.3" />
<line x1="628" y1="107" x2="734" y2="107" stroke="pink" stroke-width="1" />
<rect x="734" y="105" width="6" height="5" style="fill:#f5b024;stroke:black;stroke-width:1;fill-opacity:1;stroke-opacity:0.3" />
<line x1="596" y1="51" x2="607" y2="53" stroke="black" stroke-width="1" />
<line x1="607" y1="53" x2="619" y2="51" stroke="black" stroke-width="1" />
<rect x="556" y="49" width="39" height="5" style="fill:#f5b024;stroke:black;stroke-width:1;fill-opacity:1;stroke-opacity:0.3" />
<rect x="619" y="49" width="9" height="5" style="fill:#f5b024;stroke:black;stroke-width:1;fill-opacity:1;stroke-opacity:0.3" />
<line x1="628" y1="51" x2="734" y2="51" stroke="pink" stroke-width="1" />
<rect x="734" y="49" width="13" height="5" style="fill:#f5b024;stroke:black;stroke-width:1;fill-opacity:1;stroke-opacity:0.3" />
<line x1="748" y1="51" x2="809" y2="51" stroke="pink" stroke-width="1" />
<rect x="809" y="49" width="17" height="5" style="fill:#f5b024;stroke:black;stroke-width:1;fill-opacity:1;stroke-opacity:0.3" />
<line x1="596" y1="37" x2="605" y2="39" stroke="black" stroke-width="1" />
<line x1="605" y1="39" x2="614" y2="37" stroke="black" stroke-width="1" />
<rect x="557" y="35" width="39" height="5" style="fill:#f5b024;stroke:black;stroke-width:1;fill-opacity:1;stroke-opacity:0.3" />
<rect x="614" y="35" width="13" height="5" style="fill:#f5b024;stroke:black;stroke-width:1;fill-opacity:1;stroke-opacity:0.3" />
<line x1="628" y1="37" x2="734" y2="37" stroke="pink" stroke-width="1" />
<rect x="734" y="35" width="13" height="5" style="fill:#f5b024;stroke:black;stroke-width:1;fill-opacity:1;stroke-opacity:0.3" />
<line x1="748" y1="37" x2="809" y2="37" stroke="pink" stroke-width="1" />
<rect x="809" y="35" width="12" height="5" style="fill:#f5b024;stroke:black;stroke-width:1;fill-opacity:1;stroke-opacity:0.3" />
<line x1="598" y1="79" x2="602" y2="81" stroke="black" stroke-width="1" />
<line x1="602" y1="81" x2="607" y2="79" stroke="black" stroke-width="1" />
<rect x="558" y="77" width="39" height="5" style="fill:#f5b024;stroke:black;stroke-width:1;fill-opacity:1;stroke-opacity:0.3" />
<rect x="607" y="77" width="21" height="5" style="fill:#f5b024;stroke:black;stroke-width:1;fill-opacity:1;stroke-opacity:0.3" />
<line x1="628" y1="79" x2="734" y2="79" stroke="pink" stroke-width="1" />
<rect x="734" y="77" width="13" height="5" style="fill:#f5b024;stroke:black;stroke-width:1;fill-opacity:1;stroke-opacity:0.3" />
<line x1="748" y1="79" x2="783" y2="79" stroke="pink" stroke-width="1" />
<rect x="783" y="77" width="5" height="5" style="fill:#f5b024;stroke:black;stroke-width:1;fill-opacity:1;stroke-opacity:0.3" />
<line x1="598" y1="114" x2="602" y2="116" stroke="black" stroke-width="1" />
<line x1="602" y1="116" x2="607" y2="114" stroke="black" stroke-width="1" />
<rect x="558" y="112" width="39" height="5" style="fill:#f5b024;stroke:black;stroke-width:1;fill-opacity:1;stroke-opacity:0.3" />
<rect x="607" y="112" width="21" height="5" style="fill:#f5b024;stroke:black;stroke-width:1;fill-opacity:1;stroke-opacity:0.3" />
<line x1="628" y1="114" x2="734" y2="114" stroke="pink" stroke-width="1" />
<rect x="734" y="112" width="13" height="5" style="fill:#f5b024;stroke:black;stroke-width:1;fill-opacity:1;stroke-opacity:0.3" />
<line x1="748" y1="114" x2="783" y2="114" stroke="pink" stroke-width="1" />
<rect x="783" y="112" width="5" height="5" style="fill:#f5b024;stroke:black;stroke-width:1;fill-opacity:1;stroke-opacity:0.3" />
<line x1="599" y1="128" x2="603" y2="130" stroke="black" stroke-width="1" />
<line x1="603" y1="130" x2="608" y2="128" stroke="black" stroke-width="1" />
<rect x="559" y="126" width="39" height="5" style="fill:#f5b024;stroke:black;stroke-width:1;fill-opacity:1;stroke-opacity:0.3" />
<rect x="608" y="126" width="20" height="5" style="fill:#f5b024;stroke:black;stroke-width:1;fill-opacity:1;stroke-opacity:0.3" />
<line x1="628" y1="128" x2="734" y2="128" stroke="pink" stroke-width="1" />
<rect x="734" y="126" width="13" height="5" style="fill:#f5b024;stroke:black;stroke-width:1;fill-opacity:1;stroke-opacity:0.3" />
<line x1="748" y1="128" x2="809" y2="128" stroke="pink" stroke-width="1" />
<rect x="809" y="126" width="5" height="5" style="fill:#f5b024;stroke:black;stroke-width:1;fill-opacity:1;stroke-opacity:0.3" />
<line x1="600" y1="135" x2="608" y2="137" stroke="black" stroke-width="1" />
<line x1="608" y1="137" x2="616" y2="135" stroke="black" stroke-width="1" />
<rect x="561" y="133" width="39" height="5" style="fill:#f5b024;stroke:black;stroke-width:1;fill-opacity:1;stroke-opacity:0.3" />
<rect x="616" y="133" width="12" height="5" style="fill:#f5b024;stroke:black;stroke-width:1;fill-opacity:1;stroke-opacity:0.3" />
<line x1="628" y1="135" x2="734" y2="135" stroke="pink" stroke-width="1" />
<rect x="734" y="133" width="13" height="5" style="fill:#f5b024;stroke:black;stroke-width:1;fill-opacity:1;stroke-opacity:0.3" />
<line x1="748" y1="135" x2="783" y2="135" stroke="pink" stroke-width="1" />
<rect x="783" y="133" width="13" height="5" style="fill:#f5b024;stroke:black;stroke-width:1;fill-opacity:1;stroke-opacity:0.3" />
<line x1="601" y1="142" x2="717" y2="144" stroke="black" stroke-width="1" />
<line x1="717" y1="144" x2="833" y2="142" stroke="black" stroke-width="1" />
<rect x="562" y="140" width="39" height="5" style="fill:#f5b024;stroke:black;stroke-width:1;fill-opacity:1;stroke-opacity:0.3" />
<rect x="833" y="140" width="39" height="5" style="fill:#f5b024;stroke:black;stroke-width:1;fill-opacity:1;stroke-opacity:0.3" />
<line x1="601" y1="149" x2="610" y2="151" stroke="black" stroke-width="1" />
<line x1="610" y1="151" x2="620" y2="149" stroke="black" stroke-width="1" />
<rect x="562" y="147" width="39" height="5" style="fill:#f5b024;stroke:black;stroke-width:1;fill-opacity:1;stroke-opacity:0.3" />
<rect x="620" y="147" width="8" height="5" style="fill:#f5b024;stroke:black;stroke-width:1;fill-opacity:1;stroke-opacity:0.3" />
<line x1="628" y1="149" x2="734" y2="149" stroke="pink" stroke-width="1" />
<rect x="734" y="147" width="13" height="5" style="fill:#f5b024;stroke:black;stroke-width:1;fill-opacity:1;stroke-opacity:0.3" />
<line x1="748" y1="149" x2="809" y2="149" stroke="pink" stroke-width="1" />
<rect x="809" y="147" width="17" height="5" style="fill:#f5b024;stroke:black;stroke-width:1;fill-opacity:1;stroke-opacity:0.3" />
<line x1="603" y1="121" x2="610" y2="123" stroke="black" stroke-width="1" />
<line x1="610" y1="123" x2="617" y2="121" stroke="black" stroke-width="1" />
<rect x="563" y="119" width="39" height="5" style="fill:#f5b024;stroke:black;stroke-width:1;fill-opacity:1;stroke-opacity:0.3" />
<rect x="617" y="119" width="10" height="5" style="fill:#f5b024;stroke:black;stroke-width:1;fill-opacity:1;stroke-opacity:0.3" />
<line x1="628" y1="121" x2="734" y2="121" stroke="pink" stroke-width="1" />
<rect x="734" y="119" width="13" height="5" style="fill:#f5b024;stroke:black;stroke-width:1;fill-opacity:1;stroke-opacity:0.3" />
<line x1="748" y1="121" x2="809" y2="121" stroke="pink" stroke-width="1" />
<rect x="809" y="119" width="15" height="5" style="fill:#f5b024;stroke:black;stroke-width:1;fill-opacity:1;stroke-opacity:0.3" />
<line x1="603" y1="163" x2="611" y2="165" stroke="black" stroke-width="1" />
<line x1="611" y1="165" x2="619" y2="163" stroke="black" stroke-width="1" />
<rect x="563" y="161" width="39" height="5" style="fill:#f5b024;stroke:black;stroke-width:1;fill-opacity:1;stroke-opacity:0.3" />
<rect x="619" y="161" width="8" height="5" style="fill:#f5b024;stroke:black;stroke-width:1;fill-opacity:1;stroke-opacity:0.3" />
<line x1="628" y1="163" x2="734" y2="163" stroke="pink" stroke-width="1" />
<rect x="734" y="161" width="13" height="5" style="fill:#f5b024;stroke:black;stroke-width:1;fill-opacity:1;stroke-opacity:0.3" />
<line x1="748" y1="163" x2="809" y2="163" stroke="pink" stroke-width="1" />
<rect x="809" y="161" width="17" height="5" style="fill:#f5b024;stroke:black;stroke-width:1;fill-opacity:1;stroke-opacity:0.3" />
<line x1="607" y1="72" x2="613" y2="74" stroke="black" stroke-width="1" />
<line x1="613" y1="74" x2="619" y2="72" stroke="black" stroke-width="1" />
<rect x="567" y="70" width="39" height="5" style="fill:#f5b024;stroke:black;stroke-width:1;fill-opacity:1;stroke-opacity:0.3" />
<rect x="619" y="70" width="8" height="5" style="fill:#f5b024;stroke:black;stroke-width:1;fill-opacity:1;stroke-opacity:0.3" />
<line x1="628" y1="72" x2="734" y2="72" stroke="pink" stroke-width="1" />
<rect x="734" y="70" width="13" height="5" style="fill:#f5b024;stroke:black;stroke-width:1;fill-opacity:1;stroke-opacity:0.3" />
<line x1="748" y1="72" x2="809" y2="72" stroke="pink" stroke-width="1" />
<rect x="809" y="70" width="17" height="5" style="fill:#f5b024;stroke:black;stroke-width:1;fill-opacity:1;stroke-opacity:0.3" />
<line x1="614" y1="156" x2="617" y2="158" stroke="black" stroke-width="1" />
<line x1="617" y1="158" x2="621" y2="156" stroke="black" stroke-width="1" />
<rect x="574" y="154" width="39" height="5" style="fill:#f5b024;stroke:black;stroke-width:1;fill-opacity:1;stroke-opacity:0.3" />
<rect x="621" y="154" width="7" height="5" style="fill:#f5b024;stroke:black;stroke-width:1;fill-opacity:1;stroke-opacity:0.3" />
<line x1="628" y1="156" x2="734" y2="156" stroke="pink" stroke-width="1" />
<rect x="734" y="154" width="13" height="5" style="fill:#f5b024;stroke:black;stroke-width:1;fill-opacity:1;stroke-opacity:0.3" />
<line x1="748" y1="156" x2="809" y2="156" stroke="pink" stroke-width="1" />
<rect x="809" y="154" width="19" height="5" style="fill:#f5b024;stroke:black;stroke-width:1;fill-opacity:1;stroke-opacity:0.3" />
<line x1="614" y1="30" x2="678" y2="32" stroke="black" stroke-width="1" />
<line x1="678" y1="32" x2="743" y2="30" stroke="black" stroke-width="1" />
<rect x="574" y="28" width="39" height="5" style="fill:#f5b024;stroke:black;stroke-width:1;fill-opacity:1;stroke-opacity:0.3" />
<rect x="743" y="28" width="5" height="5" style="fill:#f5b024;stroke:black;stroke-width:1;fill-opacity:1;stroke-opacity:0.3" />
<line x1="748" y1="30" x2="809" y2="30" stroke="pink" stroke-width="1" />
<rect x="809" y="28" width="34" height="5" style="fill:#f5b024;stroke:black;stroke-width:1;fill-opacity:1;stroke-opacity:0.3" />
<line x1="816" y1="65" x2="827" y2="67" stroke="black" stroke-width="1" />
<line x1="827" y1="67" x2="838" y2="65" stroke="black" stroke-width="1" />
<rect x="589" y="63" width="38" height="5" style="fill:#f5b024;stroke:black;stroke-width:1;fill-opacity:1;stroke-opacity:0.3" />
<line x1="628" y1="65" x2="734" y2="65" stroke="pink" stroke-width="1" />
<rect x="734" y="63" width="13" height="5" style="fill:#f5b024;stroke:black;stroke-width:1;fill-opacity:1;stroke-opacity:0.3" />
<line x1="748" y1="65" x2="809" y2="65" stroke="pink" stroke-width="1" />
<rect x="809" y="63" width="7" height="5" style="fill:#f5b024;stroke:black;stroke-width:1;fill-opacity:1;stroke-opacity:0.3" />
<rect x="838" y="63" width="59" height="5" style="fill:#f5b024;stroke:black;stroke-width:1;fill-opacity:1;stroke-opacity:0.3" />
<line x1="737" y1="44" x2="763" y2="46" stroke="black" stroke-width="1" />
<line x1="763" y1="46" x2="790" y2="44" stroke="black" stroke-width="1" />
<rect x="590" y="42" width="37" height="5" style="fill:#f5b024;stroke:black;stroke-width:1;fill-opacity:1;stroke-opacity:0.3" />
<line x1="628" y1="44" x2="734" y2="44" stroke="pink" stroke-width="1" />
<rect x="734" y="42" width="2" height="5" style="fill:#f5b024;stroke:black;stroke-width:1;fill-opacity:1;stroke-opacity:0.3" />
<rect x="790" y="42" width="39" height="5" style="fill:#f5b024;stroke:black;stroke-width:1;fill-opacity:1;stroke-opacity:0.3" />
<line x1="786" y1="86" x2="801" y2="88" stroke="black" stroke-width="1" />
<line x1="801" y1="88" x2="817" y2="86" stroke="black" stroke-width="1" />
<rect x="606" y="84" width="21" height="5" style="fill:#f5b024;stroke:black;stroke-width:1;fill-opacity:1;stroke-opacity:0.3" />
<line x1="628" y1="86" x2="734" y2="86" stroke="pink" stroke-width="1" />
<rect x="734" y="84" width="13" height="5" style="fill:#f5b024;stroke:black;stroke-width:1;fill-opacity:1;stroke-opacity:0.3" />
<line x1="748" y1="86" x2="783" y2="86" stroke="pink" stroke-width="1" />
<rect x="783" y="84" width="3" height="5" style="fill:#f5b024;stroke:black;stroke-width:1;fill-opacity:1;stroke-opacity:0.3" />
<rect x="817" y="84" width="39" height="5" style="fill:#f5b024;stroke:black;stroke-width:1;fill-opacity:1;stroke-opacity:0.3" />
<line x1="857" y1="58" x2="865" y2="60" stroke="black" stroke-width="1" />
<line x1="865" y1="60" x2="873" y2="58" stroke="black" stroke-width="1" />
<rect x="736" y="56" width="11" height="5" style="fill:#f5b024;stroke:black;stroke-width:1;fill-opacity:1;stroke-opacity:0.3" />
<line x1="748" y1="58" x2="809" y2="58" stroke="pink" stroke-width="1" />
<rect x="809" y="56" width="47" height="5" style="fill:#f5b024;stroke:black;stroke-width:1;fill-opacity:1;stroke-opacity:0.3" />
<rect x="873" y="56" width="59" height="5" style="fill:#f5b024;stroke:black;stroke-width:1;fill-opacity:1;stroke-opacity:0.3" />
<line x1="861" y1="100" x2="886" y2="102" stroke="black" stroke-width="1" />
<line x1="886" y1="102" x2="911" y2="100" stroke="black" stroke-width="1" />
<rect x="741" y="98" width="7" height="5" style="fill:#f5b024;stroke:black;stroke-width:1;fill-opacity:1;stroke-opacity:0.3" />
<line x1="748" y1="100" x2="809" y2="100" stroke="pink" stroke-width="1" />
<rect x="809" y="98" width="52" height="5" style="fill:#f5b024;stroke:black;stroke-width:1;fill-opacity:1;stroke-opacity:0.3" />
<rect x="911" y="98" width="59" height="5" style="fill:#f5b024;stroke:black;stroke-width:1;fill-opacity:1;stroke-opacity:0.3" />
<line x1="842" y1="107" x2="846" y2="109" stroke="black" stroke-width="1" />
<line x1="846" y1="109" x2="851" y2="107" stroke="black" stroke-width="1" />
<rect x="741" y="105" width="6" height="5" style="fill:#f5b024;stroke:black;stroke-width:1;fill-opacity:1;stroke-opacity:0.3" />
<line x1="748" y1="107" x2="809" y2="107" stroke="pink" stroke-width="1" />
<rect x="809" y="105" width="33" height="5" style="fill:#f5b024;stroke:black;stroke-width:1;fill-opacity:1;stroke-opacity:0.3" />
<rect x="851" y="105" width="39" height="5" style="fill:#f5b024;stroke:black;stroke-width:1;fill-opacity:1;stroke-opacity:0.3" />
<line x1="822" y1="93" x2="826" y2="95" stroke="black" stroke-width="1" />
<line x1="826" y1="95" x2="830" y2="93" stroke="black" stroke-width="1" />
<rect x="783" y="91" width="39" height="5" style="fill:#f5b024;stroke:black;stroke-width:1;fill-opacity:1;stroke-opacity:0.3" />
<rect x="830" y="91" width="39" height="5" style="fill:#f5b024;stroke:black;stroke-width:1;fill-opacity:1;stroke-opacity:0.3" />
<line x1="828" y1="79" x2="847" y2="81" stroke="black" stroke-width="1" />
<line x1="847" y1="81" x2="866" y2="79" stroke="black" stroke-width="1" />
<rect x="789" y="77" width="39" height="5" style="fill:#f5b024;stroke:black;stroke-width:1;fill-opacity:1;stroke-opacity:0.3" />
<rect x="866" y="77" width="39" height="5" style="fill:#f5b024;stroke:black;stroke-width:1;fill-opacity:1;stroke-opacity:0.3" />
<line x1="828" y1="114" x2="833" y2="116" stroke="black" stroke-width="1" />
<line x1="833" y1="116" x2="838" y2="114" stroke="black" stroke-width="1" />
<rect x="789" y="112" width="39" height="5" style="fill:#f5b024;stroke:black;stroke-width:1;fill-opacity:1;stroke-opacity:0.3" />
<rect x="838" y="112" width="39" height="5" style="fill:#f5b024;stroke:black;stroke-width:1;fill-opacity:1;stroke-opacity:0.3" />
<line x1="837" y1="135" x2="853" y2="137" stroke="black" stroke-width="1" />
<line x1="853" y1="137" x2="869" y2="135" stroke="black" stroke-width="1" />
<rect x="797" y="133" width="39" height="5" style="fill:#f5b024;stroke:black;stroke-width:1;fill-opacity:1;stroke-opacity:0.3" />
<rect x="869" y="133" width="39" height="5" style="fill:#f5b024;stroke:black;stroke-width:1;fill-opacity:1;stroke-opacity:0.3" />
<line x1="855" y1="128" x2="863" y2="130" stroke="black" stroke-width="1" />
<line x1="863" y1="130" x2="871" y2="128" stroke="black" stroke-width="1" />
<rect x="815" y="126" width="39" height="5" style="fill:#f5b024;stroke:black;stroke-width:1;fill-opacity:1;stroke-opacity:0.3" />
<rect x="871" y="126" width="39" height="5" style="fill:#f5b024;stroke:black;stroke-width:1;fill-opacity:1;stroke-opacity:0.3" />
<line x1="862" y1="37" x2="864" y2="39" stroke="black" stroke-width="1" />
<line x1="864" y1="39" x2="866" y2="37" stroke="black" stroke-width="1" />
<rect x="822" y="35" width="39" height="5" style="fill:#5d3c2d;stroke:black;stroke-width:1;fill-opacity:1;stroke-opacity:0.3" />
<rect x="866" y="35" width="39" height="5" style="fill:#5d3c2d;stroke:black;stroke-width:1;fill-opacity:1;stroke-opacity:0.3" />
<line x1="869" y1="51" x2="880" y2="53" stroke="black" stroke-width="1" />
<line x1="880" y1="53" x2="891" y2="51" stroke="black" stroke-width="1" />
<rect x="829" y="49" width="39" height="5" style="fill:#f5b024;stroke:black;stroke-width:1;fill-opacity:1;stroke-opacity:0.3" />
<rect x="891" y="49" width="39" height="5" style="fill:#f5b024;stroke:black;stroke-width:1;fill-opacity:1;stroke-opacity:0.3" />
<line x1="875" y1="44" x2="882" y2="46" stroke="black" stroke-width="1" />
<line x1="882" y1="46" x2="890" y2="44" stroke="black" stroke-width="1" />
<rect x="835" y="42" width="39" height="5" style="fill:#f5b024;stroke:black;stroke-width:1;fill-opacity:1;stroke-opacity:0.3" />
<rect x="890" y="42" width="39" height="5" style="fill:#f5b024;stroke:black;stroke-width:1;fill-opacity:1;stroke-opacity:0.3" />
<line x1="875" y1="72" x2="884" y2="74" stroke="black" stroke-width="1" />
<line x1="884" y1="74" x2="893" y2="72" stroke="black" stroke-width="1" />
<rect x="835" y="70" width="39" height="5" style="fill:#f5b024;stroke:black;stroke-width:1;fill-opacity:1;stroke-opacity:0.3" />
<rect x="893" y="70" width="39" height="5" style="fill:#f5b024;stroke:black;stroke-width:1;fill-opacity:1;stroke-opacity:0.3" />
<line x1="875" y1="121" x2="883" y2="123" stroke="black" stroke-width="1" />
<line x1="883" y1="123" x2="892" y2="121" stroke="black" stroke-width="1" />
<rect x="835" y="119" width="39" height="5" style="fill:#f5b024;stroke:black;stroke-width:1;fill-opacity:1;stroke-opacity:0.3" />
<rect x="892" y="119" width="39" height="5" style="fill:#f5b024;stroke:black;stroke-width:1;fill-opacity:1;stroke-opacity:0.3" />
<line x1="875" y1="149" x2="891" y2="151" stroke="black" stroke-width="1" />
<line x1="891" y1="151" x2="907" y2="149" stroke="black" stroke-width="1" />
<rect x="835" y="147" width="39" height="5" style="fill:#f5b024;stroke:black;stroke-width:1;fill-opacity:1;stroke-opacity:0.3" />
<rect x="907" y="147" width="39" height="5" style="fill:#f5b024;stroke:black;stroke-width:1;fill-opacity:1;stroke-opacity:0.3" />
<line x1="876" y1="156" x2="880" y2="158" stroke="black" stroke-width="1" />
<line x1="880" y1="158" x2="885" y2="156" stroke="black" stroke-width="1" />
<rect x="836" y="154" width="39" height="5" style="fill:#f5b024;stroke:black;stroke-width:1;fill-opacity:1;stroke-opacity:0.3" />
<rect x="885" y="154" width="39" height="5" style="fill:#f5b024;stroke:black;stroke-width:1;fill-opacity:1;stroke-opacity:0.3" />
<line x1="876" y1="163" x2="880" y2="165" stroke="black" stroke-width="1" />
<line x1="880" y1="165" x2="885" y2="163" stroke="black" stroke-width="1" />
<rect x="836" y="161" width="39" height="5" style="fill:#f5b024;stroke:black;stroke-width:1;fill-opacity:1;stroke-opacity:0.3" />
<rect x="885" y="161" width="39" height="5" style="fill:#f5b024;stroke:black;stroke-width:1;fill-opacity:1;stroke-opacity:0.3" />
<line x1="884" y1="30" x2="889" y2="32" stroke="black" stroke-width="1" />
<line x1="889" y1="32" x2="895" y2="30" stroke="black" stroke-width="1" />
<rect x="844" y="28" width="39" height="5" style="fill:#f5b024;stroke:black;stroke-width:1;fill-opacity:1;stroke-opacity:0.3" />
<rect x="895" y="28" width="39" height="5" style="fill:#f5b024;stroke:black;stroke-width:1;fill-opacity:1;stroke-opacity:0.3" />
<line x1="898" y1="86" x2="905" y2="88" stroke="black" stroke-width="1" />
<line x1="905" y1="88" x2="912" y2="86" stroke="black" stroke-width="1" />
<rect x="858" y="84" width="39" height="5" style="fill:#f5b024;stroke:black;stroke-width:1;fill-opacity:1;stroke-opacity:0.3" />
<rect x="912" y="84" width="39" height="5" style="fill:#f5b024;stroke:black;stroke-width:1;fill-opacity:1;stroke-opacity:0.3" />
<line x1="911" y1="93" x2="916" y2="95" stroke="black" stroke-width="1" />
<line x1="916" y1="95" x2="922" y2="93" stroke="black" stroke-width="1" />
<rect x="871" y="91" width="39" height="5" style="fill:#f5b024;stroke:black;stroke-width:1;fill-opacity:1;stroke-opacity:0.3" />
<rect x="922" y="91" width="38" height="5" style="fill:#f5b024;stroke:black;stroke-width:1;fill-opacity:1;stroke-opacity:0.3" />
<line x1="919" y1="114" x2="922" y2="116" stroke="black" stroke-width="1" />
<line x1="922" y1="116" x2="926" y2="114" stroke="black" stroke-width="1" />
<rect x="879" y="112" width="39" height="5" style="fill:#f5b024;stroke:black;stroke-width:1;fill-opacity:1;stroke-opacity:0.3" />
<rect x="926" y="112" width="39" height="5" style="fill:#f5b024;stroke:black;stroke-width:1;fill-opacity:1;stroke-opacity:0.3" />
<line x1="922" y1="142" x2="924" y2="144" stroke="black" stroke-width="1" />
<line x1="924" y1="144" x2="926" y2="142" stroke="black" stroke-width="1" />
<rect x="882" y="140" width="39" height="5" style="fill:#f5b024;stroke:black;stroke-width:1;fill-opacity:1;stroke-opacity:0.3" />
<rect x="926" y="140" width="39" height="5" style="fill:#f5b024;stroke:black;stroke-width:1;fill-opacity:1;stroke-opacity:0.3" />
<line x1="937" y1="107" x2="945" y2="109" stroke="black" stroke-width="1" />
<line x1="945" y1="109" x2="953" y2="107" stroke="black" stroke-width="1" />
<rect x="897" y="105" width="39" height="5" style="fill:#f5b024;stroke:black;stroke-width:1;fill-opacity:1;stroke-opacity:0.3" />
<rect x="953" y="105" width="39" height="5" style="fill:#f5b024;stroke:black;stroke-width:1;fill-opacity:1;stroke-opacity:0.3" />
<line x1="944" y1="65" x2="948" y2="67" stroke="black" stroke-width="1" />
<line x1="948" y1="67" x2="952" y2="65" stroke="black" stroke-width="1" />
<rect x="904" y="63" width="39" height="5" style="fill:#5d3c2d;stroke:black;stroke-width:1;fill-opacity:1;stroke-opacity:0.3" />
<rect x="952" y="63" width="39" height="5" style="fill:#5d3c2d;stroke:black;stroke-width:1;fill-opacity:1;stroke-opacity:0.3" />
<text x="15"  y="176" style="font-family:Arial;font-size:10;stroke:black;fill:black;">all.merged.bam</text>
</svg>
    
