<?xml version="1.0" encoding="utf-8" standalone="no"?>
<!DOCTYPE svg PUBLIC "-//W3C//DTD SVG 1.1//EN"
  "http://www.w3.org/Graphics/SVG/1.1/DTD/svg11.dtd">
<svg height="1140" width="1000" version="1.1" viewBox="0 0 1000 1140" xmlns="http://www.w3.org/2000/svg" xmlns:xlink="http://www.w3.org/1999/xlink">
<line x1="32" y1="11" x2="967" y2="11" stroke="black" stroke-width="1" />
<rect x="32" y="9" width="195" height="5" style="fill:#f50002;stroke:black;stroke-width:1;fill-opacity:1;stroke-opacity:0.3" />
<rect x="227" y="9" width="200" height="5" style="fill:#53a1b5;stroke:black;stroke-width:1;fill-opacity:1;stroke-opacity:0.3" />
<rect x="474" y="9" width="218" height="5" style="fill:#53a1b5;stroke:black;stroke-width:1;fill-opacity:1;stroke-opacity:0.3" />
<rect x="742" y="9" width="26" height="5" style="fill:#53a1b5;stroke:black;stroke-width:1;fill-opacity:1;stroke-opacity:0.3" />
<rect x="798" y="9" width="28" height="5" style="fill:#53a1b5;stroke:black;stroke-width:1;fill-opacity:1;stroke-opacity:0.3" />
<rect x="827" y="9" width="140" height="5" style="fill:#f50002;stroke:black;stroke-width:1;fill-opacity:1;stroke-opacity:0.3" />
<text x="32"  y="23" style="font-family:Arial;font-size:10;stroke:black;fill:black;">Cre16.g674152.t1.1.v5.5 (-) chromosome_16:6344055-6346955</text>
<line x1="63" y1="30" x2="75" y2="32" stroke="black" stroke-width="1" />
<line x1="75" y1="32" x2="87" y2="30" stroke="black" stroke-width="1" />
<rect x="31" y="28" width="31" height="5" style="fill:#f5b024;stroke:black;stroke-width:1;fill-opacity:1;stroke-opacity:0.3" />
<rect x="87" y="28" width="32" height="5" style="fill:#f5b024;stroke:black;stroke-width:1;fill-opacity:1;stroke-opacity:0.3" />
<line x1="63" y1="37" x2="81" y2="39" stroke="black" stroke-width="1" />
<line x1="81" y1="39" x2="100" y2="37" stroke="black" stroke-width="1" />
<rect x="32" y="35" width="31" height="5" style="fill:#f5b024;stroke:black;stroke-width:1;fill-opacity:1;stroke-opacity:0.3" />
<rect x="100" y="35" width="32" height="5" style="fill:#f5b024;stroke:black;stroke-width:1;fill-opacity:1;stroke-opacity:0.3" />
<line x1="64" y1="44" x2="66" y2="46" stroke="black" stroke-width="1" />
<line x1="66" y1="46" x2="69" y2="44" stroke="black" stroke-width="1" />
<rect x="32" y="42" width="32" height="5" style="fill:#f5b024;stroke:black;stroke-width:1;fill-opacity:1;stroke-opacity:0.3" />
<rect x="69" y="42" width="32" height="5" style="fill:#f5b024;stroke:black;stroke-width:1;fill-opacity:1;stroke-opacity:0.3" />
<line x1="66" y1="51" x2="77" y2="53" stroke="black" stroke-width="1" />
<line x1="77" y1="53" x2="88" y2="51" stroke="black" stroke-width="1" />
<rect x="34" y="49" width="32" height="5" style="fill:#f5b024;stroke:black;stroke-width:1;fill-opacity:1;stroke-opacity:0.3" />
<rect x="88" y="49" width="32" height="5" style="fill:#f5b024;stroke:black;stroke-width:1;fill-opacity:1;stroke-opacity:0.3" />
<line x1="67" y1="58" x2="73" y2="60" stroke="black" stroke-width="1" />
<line x1="73" y1="60" x2="79" y2="58" stroke="black" stroke-width="1" />
<rect x="34" y="56" width="32" height="5" style="fill:#f5b024;stroke:black;stroke-width:1;fill-opacity:1;stroke-opacity:0.3" />
<rect x="79" y="56" width="32" height="5" style="fill:#f5b024;stroke:black;stroke-width:1;fill-opacity:1;stroke-opacity:0.3" />
<line x1="69" y1="65" x2="81" y2="67" stroke="black" stroke-width="1" />
<line x1="81" y1="67" x2="93" y2="65" stroke="black" stroke-width="1" />
<rect x="37" y="63" width="32" height="5" style="fill:#f5b024;stroke:black;stroke-width:1;fill-opacity:1;stroke-opacity:0.3" />
<rect x="93" y="63" width="32" height="5" style="fill:#f5b024;stroke:black;stroke-width:1;fill-opacity:1;stroke-opacity:0.3" />
<line x1="73" y1="72" x2="77" y2="74" stroke="black" stroke-width="1" />
<line x1="77" y1="74" x2="81" y2="72" stroke="black" stroke-width="1" />
<rect x="41" y="70" width="32" height="5" style="fill:#f5b024;stroke:black;stroke-width:1;fill-opacity:1;stroke-opacity:0.3" />
<rect x="81" y="70" width="32" height="5" style="fill:#f5b024;stroke:black;stroke-width:1;fill-opacity:1;stroke-opacity:0.3" />
<line x1="73" y1="79" x2="79" y2="81" stroke="black" stroke-width="1" />
<line x1="79" y1="81" x2="86" y2="79" stroke="black" stroke-width="1" />
<rect x="41" y="77" width="32" height="5" style="fill:#f5b024;stroke:black;stroke-width:1;fill-opacity:1;stroke-opacity:0.3" />
<rect x="86" y="77" width="32" height="5" style="fill:#f5b024;stroke:black;stroke-width:1;fill-opacity:1;stroke-opacity:0.3" />
<line x1="78" y1="86" x2="120" y2="88" stroke="black" stroke-width="1" />
<line x1="120" y1="88" x2="163" y2="86" stroke="black" stroke-width="1" />
<rect x="45" y="84" width="32" height="5" style="fill:#f5b024;stroke:black;stroke-width:1;fill-opacity:1;stroke-opacity:0.3" />
<rect x="163" y="84" width="32" height="5" style="fill:#f5b024;stroke:black;stroke-width:1;fill-opacity:1;stroke-opacity:0.3" />
<line x1="78" y1="93" x2="79" y2="95" stroke="black" stroke-width="1" />
<line x1="79" y1="95" x2="81" y2="93" stroke="black" stroke-width="1" />
<rect x="46" y="91" width="32" height="5" style="fill:#f5b024;stroke:black;stroke-width:1;fill-opacity:1;stroke-opacity:0.3" />
<rect x="81" y="91" width="32" height="5" style="fill:#f5b024;stroke:black;stroke-width:1;fill-opacity:1;stroke-opacity:0.3" />
<line x1="78" y1="100" x2="79" y2="102" stroke="black" stroke-width="1" />
<line x1="79" y1="102" x2="81" y2="100" stroke="black" stroke-width="1" />
<rect x="46" y="98" width="32" height="5" style="fill:#f5b024;stroke:black;stroke-width:1;fill-opacity:1;stroke-opacity:0.3" />
<rect x="81" y="98" width="32" height="5" style="fill:#f5b024;stroke:black;stroke-width:1;fill-opacity:1;stroke-opacity:0.3" />
<line x1="81" y1="107" x2="84" y2="109" stroke="black" stroke-width="1" />
<line x1="84" y1="109" x2="87" y2="107" stroke="black" stroke-width="1" />
<rect x="49" y="105" width="32" height="5" style="fill:#f5b024;stroke:black;stroke-width:1;fill-opacity:1;stroke-opacity:0.3" />
<rect x="87" y="105" width="32" height="5" style="fill:#f5b024;stroke:black;stroke-width:1;fill-opacity:1;stroke-opacity:0.3" />
<line x1="80" y1="114" x2="85" y2="116" stroke="black" stroke-width="1" />
<line x1="85" y1="116" x2="90" y2="114" stroke="black" stroke-width="1" />
<rect x="49" y="112" width="30" height="5" style="fill:#5d3c2d;stroke:black;stroke-width:1;fill-opacity:1;stroke-opacity:0.3" />
<rect x="90" y="112" width="32" height="5" style="fill:#5d3c2d;stroke:black;stroke-width:1;fill-opacity:1;stroke-opacity:0.3" />
<line x1="93" y1="121" x2="100" y2="123" stroke="black" stroke-width="1" />
<line x1="100" y1="123" x2="108" y2="121" stroke="black" stroke-width="1" />
<rect x="61" y="119" width="32" height="5" style="fill:#f5b024;stroke:black;stroke-width:1;fill-opacity:1;stroke-opacity:0.3" />
<rect x="108" y="119" width="32" height="5" style="fill:#f5b024;stroke:black;stroke-width:1;fill-opacity:1;stroke-opacity:0.3" />
<line x1="93" y1="128" x2="97" y2="130" stroke="black" stroke-width="1" />
<line x1="97" y1="130" x2="101" y2="128" stroke="black" stroke-width="1" />
<rect x="61" y="126" width="32" height="5" style="fill:#f5b024;stroke:black;stroke-width:1;fill-opacity:1;stroke-opacity:0.3" />
<rect x="101" y="126" width="32" height="5" style="fill:#f5b024;stroke:black;stroke-width:1;fill-opacity:1;stroke-opacity:0.3" />
<line x1="94" y1="135" x2="96" y2="137" stroke="black" stroke-width="1" />
<line x1="96" y1="137" x2="98" y2="135" stroke="black" stroke-width="1" />
<rect x="61" y="133" width="32" height="5" style="fill:#f5b024;stroke:black;stroke-width:1;fill-opacity:1;stroke-opacity:0.3" />
<rect x="98" y="133" width="32" height="5" style="fill:#f5b024;stroke:black;stroke-width:1;fill-opacity:1;stroke-opacity:0.3" />
<line x1="94" y1="142" x2="95" y2="144" stroke="black" stroke-width="1" />
<line x1="95" y1="144" x2="97" y2="142" stroke="black" stroke-width="1" />
<rect x="62" y="140" width="32" height="5" style="fill:#f5b024;stroke:black;stroke-width:1;fill-opacity:1;stroke-opacity:0.3" />
<rect x="97" y="140" width="32" height="5" style="fill:#f5b024;stroke:black;stroke-width:1;fill-opacity:1;stroke-opacity:0.3" />
<line x1="120" y1="149" x2="129" y2="151" stroke="black" stroke-width="1" />
<line x1="129" y1="151" x2="138" y2="149" stroke="black" stroke-width="1" />
<rect x="88" y="147" width="32" height="5" style="fill:#f5b024;stroke:black;stroke-width:1;fill-opacity:1;stroke-opacity:0.3" />
<rect x="138" y="147" width="32" height="5" style="fill:#f5b024;stroke:black;stroke-width:1;fill-opacity:1;stroke-opacity:0.3" />
<line x1="138" y1="44" x2="154" y2="46" stroke="black" stroke-width="1" />
<line x1="154" y1="46" x2="171" y2="44" stroke="black" stroke-width="1" />
<rect x="107" y="42" width="31" height="5" style="fill:#f5b024;stroke:black;stroke-width:1;fill-opacity:1;stroke-opacity:0.3" />
<rect x="171" y="42" width="32" height="5" style="fill:#f5b024;stroke:black;stroke-width:1;fill-opacity:1;stroke-opacity:0.3" />
<line x1="139" y1="156" x2="142" y2="158" stroke="black" stroke-width="1" />
<line x1="142" y1="158" x2="145" y2="156" stroke="black" stroke-width="1" />
<rect x="107" y="154" width="32" height="5" style="fill:#f5b024;stroke:black;stroke-width:1;fill-opacity:1;stroke-opacity:0.3" />
<rect x="145" y="154" width="32" height="5" style="fill:#f5b024;stroke:black;stroke-width:1;fill-opacity:1;stroke-opacity:0.3" />
<line x1="139" y1="163" x2="149" y2="165" stroke="black" stroke-width="1" />
<line x1="149" y1="165" x2="159" y2="163" stroke="black" stroke-width="1" />
<rect x="107" y="161" width="32" height="5" style="fill:#f5b024;stroke:black;stroke-width:1;fill-opacity:1;stroke-opacity:0.3" />
<rect x="159" y="161" width="32" height="5" style="fill:#f5b024;stroke:black;stroke-width:1;fill-opacity:1;stroke-opacity:0.3" />
<line x1="145" y1="58" x2="150" y2="60" stroke="black" stroke-width="1" />
<line x1="150" y1="60" x2="155" y2="58" stroke="black" stroke-width="1" />
<rect x="113" y="56" width="31" height="5" style="fill:#f5b024;stroke:black;stroke-width:1;fill-opacity:1;stroke-opacity:0.3" />
<rect x="155" y="56" width="32" height="5" style="fill:#f5b024;stroke:black;stroke-width:1;fill-opacity:1;stroke-opacity:0.3" />
<line x1="149" y1="72" x2="150" y2="74" stroke="black" stroke-width="1" />
<line x1="150" y1="74" x2="152" y2="72" stroke="black" stroke-width="1" />
<rect x="117" y="70" width="32" height="5" style="fill:#f5b024;stroke:black;stroke-width:1;fill-opacity:1;stroke-opacity:0.3" />
<rect x="152" y="70" width="32" height="5" style="fill:#f5b024;stroke:black;stroke-width:1;fill-opacity:1;stroke-opacity:0.3" />
<line x1="150" y1="79" x2="161" y2="81" stroke="black" stroke-width="1" />
<line x1="161" y1="81" x2="172" y2="79" stroke="black" stroke-width="1" />
<rect x="118" y="77" width="32" height="5" style="fill:#f5b024;stroke:black;stroke-width:1;fill-opacity:1;stroke-opacity:0.3" />
<rect x="172" y="77" width="32" height="5" style="fill:#f5b024;stroke:black;stroke-width:1;fill-opacity:1;stroke-opacity:0.3" />
<line x1="171" y1="30" x2="180" y2="32" stroke="black" stroke-width="1" />
<line x1="180" y1="32" x2="189" y2="30" stroke="black" stroke-width="1" />
<rect x="122" y="28" width="48" height="5" style="fill:#f5b024;stroke:black;stroke-width:1;fill-opacity:1;stroke-opacity:0.3" />
<rect x="189" y="28" width="48" height="5" style="fill:#f5b024;stroke:black;stroke-width:1;fill-opacity:1;stroke-opacity:0.3" />
<line x1="154" y1="51" x2="160" y2="53" stroke="black" stroke-width="1" />
<line x1="160" y1="53" x2="167" y2="51" stroke="black" stroke-width="1" />
<rect x="122" y="49" width="31" height="5" style="fill:#f5b024;stroke:black;stroke-width:1;fill-opacity:1;stroke-opacity:0.3" />
<rect x="167" y="49" width="32" height="5" style="fill:#f5b024;stroke:black;stroke-width:1;fill-opacity:1;stroke-opacity:0.3" />
<line x1="155" y1="93" x2="158" y2="95" stroke="black" stroke-width="1" />
<line x1="158" y1="95" x2="161" y2="93" stroke="black" stroke-width="1" />
<rect x="123" y="91" width="32" height="5" style="fill:#f5b024;stroke:black;stroke-width:1;fill-opacity:1;stroke-opacity:0.3" />
<rect x="161" y="91" width="32" height="5" style="fill:#f5b024;stroke:black;stroke-width:1;fill-opacity:1;stroke-opacity:0.3" />
<line x1="156" y1="100" x2="158" y2="102" stroke="black" stroke-width="1" />
<line x1="158" y1="102" x2="161" y2="100" stroke="black" stroke-width="1" />
<rect x="123" y="98" width="32" height="5" style="fill:#f5b024;stroke:black;stroke-width:1;fill-opacity:1;stroke-opacity:0.3" />
<rect x="161" y="98" width="32" height="5" style="fill:#f5b024;stroke:black;stroke-width:1;fill-opacity:1;stroke-opacity:0.3" />
<line x1="157" y1="107" x2="159" y2="109" stroke="black" stroke-width="1" />
<line x1="159" y1="109" x2="161" y2="107" stroke="black" stroke-width="1" />
<rect x="124" y="105" width="32" height="5" style="fill:#5d3c2d;stroke:black;stroke-width:1;fill-opacity:1;stroke-opacity:0.3" />
<rect x="161" y="105" width="32" height="5" style="fill:#5d3c2d;stroke:black;stroke-width:1;fill-opacity:1;stroke-opacity:0.3" />
<line x1="157" y1="114" x2="162" y2="116" stroke="black" stroke-width="1" />
<line x1="162" y1="116" x2="167" y2="114" stroke="black" stroke-width="1" />
<rect x="125" y="112" width="31" height="5" style="fill:#f5b024;stroke:black;stroke-width:1;fill-opacity:1;stroke-opacity:0.3" />
<rect x="167" y="112" width="32" height="5" style="fill:#f5b024;stroke:black;stroke-width:1;fill-opacity:1;stroke-opacity:0.3" />
<line x1="175" y1="65" x2="181" y2="67" stroke="black" stroke-width="1" />
<line x1="181" y1="67" x2="187" y2="65" stroke="black" stroke-width="1" />
<rect x="127" y="63" width="48" height="5" style="fill:#f5b024;stroke:black;stroke-width:1;fill-opacity:1;stroke-opacity:0.3" />
<rect x="187" y="63" width="48" height="5" style="fill:#f5b024;stroke:black;stroke-width:1;fill-opacity:1;stroke-opacity:0.3" />
<line x1="178" y1="135" x2="184" y2="137" stroke="black" stroke-width="1" />
<line x1="184" y1="137" x2="190" y2="135" stroke="black" stroke-width="1" />
<rect x="130" y="133" width="48" height="5" style="fill:#f5b024;stroke:black;stroke-width:1;fill-opacity:1;stroke-opacity:0.3" />
<rect x="190" y="133" width="48" height="5" style="fill:#f5b024;stroke:black;stroke-width:1;fill-opacity:1;stroke-opacity:0.3" />
<line x1="172" y1="37" x2="186" y2="39" stroke="black" stroke-width="1" />
<line x1="186" y1="39" x2="200" y2="37" stroke="black" stroke-width="1" />
<rect x="140" y="35" width="19" height="5" style="fill:#f5b024;stroke:black;stroke-width:1;fill-opacity:1;stroke-opacity:0.3" />
<rect x="159" y="35" width="13" height="5" style="fill:#f5b024;stroke:black;stroke-width:1;fill-opacity:1;stroke-opacity:0.3" />
<rect x="200" y="35" width="32" height="5" style="fill:#f5b024;stroke:black;stroke-width:1;fill-opacity:1;stroke-opacity:0.3" />
<line x1="192" y1="121" x2="194" y2="123" stroke="black" stroke-width="1" />
<line x1="194" y1="123" x2="196" y2="121" stroke="black" stroke-width="1" />
<rect x="144" y="119" width="48" height="5" style="fill:#f5b024;stroke:black;stroke-width:1;fill-opacity:1;stroke-opacity:0.3" />
<rect x="196" y="119" width="48" height="5" style="fill:#f5b024;stroke:black;stroke-width:1;fill-opacity:1;stroke-opacity:0.3" />
<line x1="180" y1="128" x2="190" y2="130" stroke="black" stroke-width="1" />
<line x1="190" y1="130" x2="200" y2="128" stroke="black" stroke-width="1" />
<rect x="148" y="126" width="32" height="5" style="fill:#f5b024;stroke:black;stroke-width:1;fill-opacity:1;stroke-opacity:0.3" />
<rect x="200" y="126" width="32" height="5" style="fill:#f5b024;stroke:black;stroke-width:1;fill-opacity:1;stroke-opacity:0.3" />
<line x1="182" y1="142" x2="189" y2="144" stroke="black" stroke-width="1" />
<line x1="189" y1="144" x2="197" y2="142" stroke="black" stroke-width="1" />
<rect x="151" y="140" width="31" height="5" style="fill:#f5b024;stroke:black;stroke-width:1;fill-opacity:1;stroke-opacity:0.3" />
<rect x="197" y="140" width="32" height="5" style="fill:#f5b024;stroke:black;stroke-width:1;fill-opacity:1;stroke-opacity:0.3" />
<line x1="221" y1="149" x2="222" y2="151" stroke="black" stroke-width="1" />
<line x1="222" y1="151" x2="224" y2="149" stroke="black" stroke-width="1" />
<rect x="172" y="147" width="48" height="5" style="fill:#f5b024;stroke:black;stroke-width:1;fill-opacity:1;stroke-opacity:0.3" />
<rect x="224" y="147" width="45" height="5" style="fill:#f5b024;stroke:black;stroke-width:1;fill-opacity:1;stroke-opacity:0.3" />
<line x1="210" y1="156" x2="217" y2="158" stroke="black" stroke-width="1" />
<line x1="217" y1="158" x2="225" y2="156" stroke="black" stroke-width="1" />
<rect x="178" y="154" width="32" height="5" style="fill:#f5b024;stroke:black;stroke-width:1;fill-opacity:1;stroke-opacity:0.3" />
<rect x="225" y="154" width="32" height="5" style="fill:#f5b024;stroke:black;stroke-width:1;fill-opacity:1;stroke-opacity:0.3" />
<line x1="224" y1="58" x2="226" y2="60" stroke="black" stroke-width="1" />
<line x1="226" y1="60" x2="229" y2="58" stroke="black" stroke-width="1" />
<rect x="192" y="56" width="32" height="5" style="fill:#f5b024;stroke:black;stroke-width:1;fill-opacity:1;stroke-opacity:0.3" />
<rect x="229" y="56" width="32" height="5" style="fill:#f5b024;stroke:black;stroke-width:1;fill-opacity:1;stroke-opacity:0.3" />
<line x1="226" y1="72" x2="229" y2="74" stroke="black" stroke-width="1" />
<line x1="229" y1="74" x2="232" y2="72" stroke="black" stroke-width="1" />
<rect x="194" y="70" width="32" height="5" style="fill:#f5b024;stroke:black;stroke-width:1;fill-opacity:1;stroke-opacity:0.3" />
<rect x="232" y="70" width="32" height="5" style="fill:#f5b024;stroke:black;stroke-width:1;fill-opacity:1;stroke-opacity:0.3" />
<line x1="227" y1="93" x2="229" y2="95" stroke="black" stroke-width="1" />
<line x1="229" y1="95" x2="231" y2="93" stroke="black" stroke-width="1" />
<rect x="194" y="91" width="32" height="5" style="fill:#f5b024;stroke:black;stroke-width:1;fill-opacity:1;stroke-opacity:0.3" />
<rect x="231" y="91" width="32" height="5" style="fill:#f5b024;stroke:black;stroke-width:1;fill-opacity:1;stroke-opacity:0.3" />
<line x1="228" y1="86" x2="230" y2="88" stroke="black" stroke-width="1" />
<line x1="230" y1="88" x2="232" y2="86" stroke="black" stroke-width="1" />
<rect x="196" y="84" width="32" height="5" style="fill:#f5b024;stroke:black;stroke-width:1;fill-opacity:1;stroke-opacity:0.3" />
<rect x="232" y="84" width="32" height="5" style="fill:#f5b024;stroke:black;stroke-width:1;fill-opacity:1;stroke-opacity:0.3" />
<line x1="229" y1="100" x2="238" y2="102" stroke="black" stroke-width="1" />
<line x1="238" y1="102" x2="247" y2="100" stroke="black" stroke-width="1" />
<rect x="197" y="98" width="31" height="5" style="fill:#f5b024;stroke:black;stroke-width:1;fill-opacity:1;stroke-opacity:0.3" />
<rect x="247" y="98" width="31" height="5" style="fill:#f5b024;stroke:black;stroke-width:1;fill-opacity:1;stroke-opacity:0.3" />
<line x1="244" y1="44" x2="247" y2="46" stroke="black" stroke-width="1" />
<line x1="247" y1="46" x2="251" y2="44" stroke="black" stroke-width="1" />
<rect x="211" y="42" width="32" height="5" style="fill:#f5b024;stroke:black;stroke-width:1;fill-opacity:1;stroke-opacity:0.3" />
<rect x="251" y="42" width="32" height="5" style="fill:#f5b024;stroke:black;stroke-width:1;fill-opacity:1;stroke-opacity:0.3" />
<line x1="248" y1="51" x2="250" y2="53" stroke="black" stroke-width="1" />
<line x1="250" y1="53" x2="253" y2="51" stroke="black" stroke-width="1" />
<rect x="216" y="49" width="32" height="5" style="fill:#5d3c2d;stroke:black;stroke-width:1;fill-opacity:1;stroke-opacity:0.3" />
<rect x="253" y="49" width="32" height="5" style="fill:#5d3c2d;stroke:black;stroke-width:1;fill-opacity:1;stroke-opacity:0.3" />
<line x1="248" y1="79" x2="250" y2="81" stroke="black" stroke-width="1" />
<line x1="250" y1="81" x2="253" y2="79" stroke="black" stroke-width="1" />
<rect x="216" y="77" width="32" height="5" style="fill:#f5b024;stroke:black;stroke-width:1;fill-opacity:1;stroke-opacity:0.3" />
<rect x="253" y="77" width="32" height="5" style="fill:#f5b024;stroke:black;stroke-width:1;fill-opacity:1;stroke-opacity:0.3" />
<line x1="251" y1="107" x2="259" y2="109" stroke="black" stroke-width="1" />
<line x1="259" y1="109" x2="267" y2="107" stroke="black" stroke-width="1" />
<rect x="219" y="105" width="31" height="5" style="fill:#f5b024;stroke:black;stroke-width:1;fill-opacity:1;stroke-opacity:0.3" />
<rect x="267" y="105" width="32" height="5" style="fill:#f5b024;stroke:black;stroke-width:1;fill-opacity:1;stroke-opacity:0.3" />
<line x1="252" y1="114" x2="259" y2="116" stroke="black" stroke-width="1" />
<line x1="259" y1="116" x2="267" y2="114" stroke="black" stroke-width="1" />
<rect x="220" y="112" width="31" height="5" style="fill:#f5b024;stroke:black;stroke-width:1;fill-opacity:1;stroke-opacity:0.3" />
<rect x="267" y="112" width="32" height="5" style="fill:#f5b024;stroke:black;stroke-width:1;fill-opacity:1;stroke-opacity:0.3" />
<line x1="252" y1="163" x2="254" y2="165" stroke="black" stroke-width="1" />
<line x1="254" y1="165" x2="256" y2="163" stroke="black" stroke-width="1" />
<rect x="220" y="161" width="31" height="5" style="fill:#f5b024;stroke:black;stroke-width:1;fill-opacity:1;stroke-opacity:0.3" />
<rect x="256" y="161" width="32" height="5" style="fill:#f5b024;stroke:black;stroke-width:1;fill-opacity:1;stroke-opacity:0.3" />
<line x1="271" y1="30" x2="277" y2="32" stroke="black" stroke-width="1" />
<line x1="277" y1="32" x2="284" y2="30" stroke="black" stroke-width="1" />
<rect x="239" y="28" width="32" height="5" style="fill:#f5b024;stroke:black;stroke-width:1;fill-opacity:1;stroke-opacity:0.3" />
<rect x="284" y="28" width="32" height="5" style="fill:#f5b024;stroke:black;stroke-width:1;fill-opacity:1;stroke-opacity:0.3" />
<line x1="271" y1="37" x2="277" y2="39" stroke="black" stroke-width="1" />
<line x1="277" y1="39" x2="284" y2="37" stroke="black" stroke-width="1" />
<rect x="239" y="35" width="32" height="5" style="fill:#f5b024;stroke:black;stroke-width:1;fill-opacity:1;stroke-opacity:0.3" />
<rect x="284" y="35" width="32" height="5" style="fill:#f5b024;stroke:black;stroke-width:1;fill-opacity:1;stroke-opacity:0.3" />
<line x1="273" y1="65" x2="275" y2="67" stroke="black" stroke-width="1" />
<line x1="275" y1="67" x2="278" y2="65" stroke="black" stroke-width="1" />
<rect x="240" y="63" width="32" height="5" style="fill:#f5b024;stroke:black;stroke-width:1;fill-opacity:1;stroke-opacity:0.3" />
<rect x="278" y="63" width="32" height="5" style="fill:#f5b024;stroke:black;stroke-width:1;fill-opacity:1;stroke-opacity:0.3" />
<line x1="273" y1="128" x2="275" y2="130" stroke="black" stroke-width="1" />
<line x1="275" y1="130" x2="278" y2="128" stroke="black" stroke-width="1" />
<rect x="240" y="126" width="32" height="5" style="fill:#f5b024;stroke:black;stroke-width:1;fill-opacity:1;stroke-opacity:0.3" />
<rect x="278" y="126" width="32" height="5" style="fill:#f5b024;stroke:black;stroke-width:1;fill-opacity:1;stroke-opacity:0.3" />
<line x1="275" y1="135" x2="280" y2="137" stroke="black" stroke-width="1" />
<line x1="280" y1="137" x2="285" y2="135" stroke="black" stroke-width="1" />
<rect x="242" y="133" width="32" height="5" style="fill:#f5b024;stroke:black;stroke-width:1;fill-opacity:1;stroke-opacity:0.3" />
<rect x="285" y="133" width="32" height="5" style="fill:#f5b024;stroke:black;stroke-width:1;fill-opacity:1;stroke-opacity:0.3" />
<line x1="291" y1="142" x2="294" y2="144" stroke="black" stroke-width="1" />
<line x1="294" y1="144" x2="297" y2="142" stroke="black" stroke-width="1" />
<rect x="242" y="140" width="48" height="5" style="fill:#f5b024;stroke:black;stroke-width:1;fill-opacity:1;stroke-opacity:0.3" />
<rect x="297" y="140" width="48" height="5" style="fill:#f5b024;stroke:black;stroke-width:1;fill-opacity:1;stroke-opacity:0.3" />
<line x1="284" y1="121" x2="290" y2="123" stroke="black" stroke-width="1" />
<line x1="290" y1="123" x2="297" y2="121" stroke="black" stroke-width="1" />
<rect x="252" y="119" width="32" height="5" style="fill:#f5b024;stroke:black;stroke-width:1;fill-opacity:1;stroke-opacity:0.3" />
<rect x="297" y="119" width="32" height="5" style="fill:#f5b024;stroke:black;stroke-width:1;fill-opacity:1;stroke-opacity:0.3" />
<line x1="306" y1="156" x2="315" y2="158" stroke="black" stroke-width="1" />
<line x1="315" y1="158" x2="325" y2="156" stroke="black" stroke-width="1" />
<rect x="258" y="154" width="47" height="5" style="fill:#f5b024;stroke:black;stroke-width:1;fill-opacity:1;stroke-opacity:0.3" />
<rect x="325" y="154" width="48" height="5" style="fill:#f5b024;stroke:black;stroke-width:1;fill-opacity:1;stroke-opacity:0.3" />
<line x1="305" y1="58" x2="315" y2="60" stroke="black" stroke-width="1" />
<line x1="315" y1="60" x2="325" y2="58" stroke="black" stroke-width="1" />
<rect x="273" y="56" width="32" height="5" style="fill:#f5b024;stroke:black;stroke-width:1;fill-opacity:1;stroke-opacity:0.3" />
<rect x="325" y="56" width="32" height="5" style="fill:#f5b024;stroke:black;stroke-width:1;fill-opacity:1;stroke-opacity:0.3" />
<line x1="309" y1="72" x2="321" y2="74" stroke="black" stroke-width="1" />
<line x1="321" y1="74" x2="333" y2="72" stroke="black" stroke-width="1" />
<rect x="277" y="70" width="32" height="5" style="fill:#f5b024;stroke:black;stroke-width:1;fill-opacity:1;stroke-opacity:0.3" />
<rect x="333" y="70" width="32" height="5" style="fill:#f5b024;stroke:black;stroke-width:1;fill-opacity:1;stroke-opacity:0.3" />
<line x1="309" y1="86" x2="314" y2="88" stroke="black" stroke-width="1" />
<line x1="314" y1="88" x2="319" y2="86" stroke="black" stroke-width="1" />
<rect x="277" y="84" width="32" height="5" style="fill:#f5b024;stroke:black;stroke-width:1;fill-opacity:1;stroke-opacity:0.3" />
<rect x="319" y="84" width="32" height="5" style="fill:#f5b024;stroke:black;stroke-width:1;fill-opacity:1;stroke-opacity:0.3" />
<line x1="311" y1="93" x2="318" y2="95" stroke="black" stroke-width="1" />
<line x1="318" y1="95" x2="325" y2="93" stroke="black" stroke-width="1" />
<rect x="279" y="91" width="32" height="5" style="fill:#f5b024;stroke:black;stroke-width:1;fill-opacity:1;stroke-opacity:0.3" />
<rect x="325" y="91" width="32" height="5" style="fill:#f5b024;stroke:black;stroke-width:1;fill-opacity:1;stroke-opacity:0.3" />
<line x1="313" y1="100" x2="319" y2="102" stroke="black" stroke-width="1" />
<line x1="319" y1="102" x2="326" y2="100" stroke="black" stroke-width="1" />
<rect x="280" y="98" width="32" height="5" style="fill:#f5b024;stroke:black;stroke-width:1;fill-opacity:1;stroke-opacity:0.3" />
<rect x="326" y="98" width="32" height="5" style="fill:#f5b024;stroke:black;stroke-width:1;fill-opacity:1;stroke-opacity:0.3" />
<line x1="313" y1="149" x2="319" y2="151" stroke="black" stroke-width="1" />
<line x1="319" y1="151" x2="325" y2="149" stroke="black" stroke-width="1" />
<rect x="281" y="147" width="32" height="5" style="fill:#f5b024;stroke:black;stroke-width:1;fill-opacity:1;stroke-opacity:0.3" />
<rect x="325" y="147" width="32" height="5" style="fill:#f5b024;stroke:black;stroke-width:1;fill-opacity:1;stroke-opacity:0.3" />
<line x1="331" y1="44" x2="350" y2="46" stroke="black" stroke-width="1" />
<line x1="350" y1="46" x2="369" y2="44" stroke="black" stroke-width="1" />
<rect x="299" y="42" width="32" height="5" style="fill:#f5b024;stroke:black;stroke-width:1;fill-opacity:1;stroke-opacity:0.3" />
<rect x="369" y="42" width="32" height="5" style="fill:#f5b024;stroke:black;stroke-width:1;fill-opacity:1;stroke-opacity:0.3" />
<line x1="333" y1="51" x2="340" y2="53" stroke="black" stroke-width="1" />
<line x1="340" y1="53" x2="347" y2="51" stroke="black" stroke-width="1" />
<rect x="301" y="49" width="32" height="5" style="fill:#f5b024;stroke:black;stroke-width:1;fill-opacity:1;stroke-opacity:0.3" />
<rect x="347" y="49" width="32" height="5" style="fill:#f5b024;stroke:black;stroke-width:1;fill-opacity:1;stroke-opacity:0.3" />
<line x1="362" y1="30" x2="364" y2="32" stroke="black" stroke-width="1" />
<line x1="364" y1="32" x2="366" y2="30" stroke="black" stroke-width="1" />
<rect x="330" y="28" width="32" height="5" style="fill:#f5b024;stroke:black;stroke-width:1;fill-opacity:1;stroke-opacity:0.3" />
<rect x="366" y="28" width="32" height="5" style="fill:#f5b024;stroke:black;stroke-width:1;fill-opacity:1;stroke-opacity:0.3" />
<line x1="388" y1="37" x2="396" y2="39" stroke="black" stroke-width="1" />
<line x1="396" y1="39" x2="404" y2="37" stroke="black" stroke-width="1" />
<rect x="340" y="35" width="48" height="5" style="fill:#f5b024;stroke:black;stroke-width:1;fill-opacity:1;stroke-opacity:0.3" />
<rect x="404" y="35" width="24" height="5" style="fill:#f5b024;stroke:black;stroke-width:1;fill-opacity:1;stroke-opacity:0.3" />
<line x1="428" y1="37" x2="474" y2="37" stroke="pink" stroke-width="1" />
<rect x="474" y="35" width="23" height="5" style="fill:#f5b024;stroke:black;stroke-width:1;fill-opacity:1;stroke-opacity:0.3" />
<line x1="480" y1="51" x2="484" y2="53" stroke="black" stroke-width="1" />
<line x1="484" y1="53" x2="489" y2="51" stroke="black" stroke-width="1" />
<rect x="386" y="49" width="41" height="5" style="fill:#5d3c2d;stroke:black;stroke-width:1;fill-opacity:1;stroke-opacity:0.3" />
<line x1="428" y1="51" x2="474" y2="51" stroke="pink" stroke-width="1" />
<rect x="474" y="49" width="6" height="5" style="fill:#5d3c2d;stroke:black;stroke-width:1;fill-opacity:1;stroke-opacity:0.3" />
<rect x="489" y="49" width="48" height="5" style="fill:#5d3c2d;stroke:black;stroke-width:1;fill-opacity:1;stroke-opacity:0.3" />
<line x1="481" y1="58" x2="488" y2="60" stroke="black" stroke-width="1" />
<line x1="488" y1="60" x2="496" y2="58" stroke="black" stroke-width="1" />
<rect x="387" y="56" width="40" height="5" style="fill:#5d3c2d;stroke:black;stroke-width:1;fill-opacity:1;stroke-opacity:0.3" />
<line x1="428" y1="58" x2="474" y2="58" stroke="pink" stroke-width="1" />
<rect x="474" y="56" width="7" height="5" style="fill:#5d3c2d;stroke:black;stroke-width:1;fill-opacity:1;stroke-opacity:0.3" />
<rect x="496" y="56" width="45" height="5" style="fill:#5d3c2d;stroke:black;stroke-width:1;fill-opacity:1;stroke-opacity:0.3" />
<line x1="423" y1="65" x2="451" y2="67" stroke="black" stroke-width="1" />
<line x1="451" y1="67" x2="480" y2="65" stroke="black" stroke-width="1" />
<rect x="391" y="63" width="32" height="5" style="fill:#f5b024;stroke:black;stroke-width:1;fill-opacity:1;stroke-opacity:0.3" />
<rect x="480" y="63" width="32" height="5" style="fill:#f5b024;stroke:black;stroke-width:1;fill-opacity:1;stroke-opacity:0.3" />
<line x1="441" y1="30" x2="456" y2="32" stroke="black" stroke-width="1" />
<line x1="456" y1="32" x2="471" y2="30" stroke="black" stroke-width="1" />
<rect x="409" y="28" width="32" height="5" style="fill:#f5b024;stroke:black;stroke-width:1;fill-opacity:1;stroke-opacity:0.3" />
<rect x="471" y="28" width="32" height="5" style="fill:#f5b024;stroke:black;stroke-width:1;fill-opacity:1;stroke-opacity:0.3" />
<line x1="571" y1="30" x2="584" y2="32" stroke="black" stroke-width="1" />
<line x1="584" y1="32" x2="597" y2="30" stroke="black" stroke-width="1" />
<rect x="523" y="28" width="48" height="5" style="fill:#f5b024;stroke:black;stroke-width:1;fill-opacity:1;stroke-opacity:0.3" />
<rect x="597" y="28" width="48" height="5" style="fill:#f5b024;stroke:black;stroke-width:1;fill-opacity:1;stroke-opacity:0.3" />
<line x1="592" y1="37" x2="601" y2="39" stroke="black" stroke-width="1" />
<line x1="601" y1="39" x2="610" y2="37" stroke="black" stroke-width="1" />
<rect x="544" y="35" width="48" height="5" style="fill:#f5b024;stroke:black;stroke-width:1;fill-opacity:1;stroke-opacity:0.3" />
<rect x="610" y="35" width="48" height="5" style="fill:#f5b024;stroke:black;stroke-width:1;fill-opacity:1;stroke-opacity:0.3" />
<line x1="593" y1="44" x2="596" y2="46" stroke="black" stroke-width="1" />
<line x1="596" y1="46" x2="600" y2="44" stroke="black" stroke-width="1" />
<rect x="544" y="42" width="48" height="5" style="fill:#f5b024;stroke:black;stroke-width:1;fill-opacity:1;stroke-opacity:0.3" />
<rect x="600" y="42" width="48" height="5" style="fill:#f5b024;stroke:black;stroke-width:1;fill-opacity:1;stroke-opacity:0.3" />
<line x1="593" y1="51" x2="596" y2="53" stroke="black" stroke-width="1" />
<line x1="596" y1="53" x2="600" y2="51" stroke="black" stroke-width="1" />
<rect x="545" y="49" width="48" height="5" style="fill:#f5b024;stroke:black;stroke-width:1;fill-opacity:1;stroke-opacity:0.3" />
<rect x="600" y="49" width="48" height="5" style="fill:#f5b024;stroke:black;stroke-width:1;fill-opacity:1;stroke-opacity:0.3" />
<line x1="593" y1="58" x2="596" y2="60" stroke="black" stroke-width="1" />
<line x1="596" y1="60" x2="600" y2="58" stroke="black" stroke-width="1" />
<rect x="545" y="56" width="48" height="5" style="fill:#f5b024;stroke:black;stroke-width:1;fill-opacity:1;stroke-opacity:0.3" />
<rect x="600" y="56" width="48" height="5" style="fill:#f5b024;stroke:black;stroke-width:1;fill-opacity:1;stroke-opacity:0.3" />
<line x1="639" y1="65" x2="641" y2="67" stroke="black" stroke-width="1" />
<line x1="641" y1="67" x2="644" y2="65" stroke="black" stroke-width="1" />
<rect x="607" y="63" width="32" height="5" style="fill:#f5b024;stroke:black;stroke-width:1;fill-opacity:1;stroke-opacity:0.3" />
<rect x="644" y="63" width="31" height="5" style="fill:#f5b024;stroke:black;stroke-width:1;fill-opacity:1;stroke-opacity:0.3" />
<line x1="656" y1="72" x2="658" y2="74" stroke="black" stroke-width="1" />
<line x1="658" y1="74" x2="660" y2="72" stroke="black" stroke-width="1" />
<rect x="608" y="70" width="48" height="5" style="fill:#f5b024;stroke:black;stroke-width:1;fill-opacity:1;stroke-opacity:0.3" />
<rect x="660" y="70" width="32" height="5" style="fill:#f5b024;stroke:black;stroke-width:1;fill-opacity:1;stroke-opacity:0.3" />
<line x1="693" y1="72" x2="742" y2="72" stroke="pink" stroke-width="1" />
<rect x="742" y="70" width="15" height="5" style="fill:#f5b024;stroke:black;stroke-width:1;fill-opacity:1;stroke-opacity:0.3" />
<line x1="683" y1="79" x2="686" y2="81" stroke="black" stroke-width="1" />
<line x1="686" y1="81" x2="689" y2="79" stroke="black" stroke-width="1" />
<rect x="634" y="77" width="48" height="5" style="fill:#f5b024;stroke:black;stroke-width:1;fill-opacity:1;stroke-opacity:0.3" />
<rect x="689" y="77" width="4" height="5" style="fill:#f5b024;stroke:black;stroke-width:1;fill-opacity:1;stroke-opacity:0.3" />
<line x1="693" y1="79" x2="742" y2="79" stroke="pink" stroke-width="1" />
<rect x="742" y="77" width="27" height="5" style="fill:#f5b024;stroke:black;stroke-width:1;fill-opacity:1;stroke-opacity:0.3" />
<line x1="769" y1="79" x2="798" y2="79" stroke="pink" stroke-width="1" />
<rect x="798" y="77" width="16" height="5" style="fill:#f5b024;stroke:black;stroke-width:1;fill-opacity:1;stroke-opacity:0.3" />
<line x1="685" y1="86" x2="688" y2="88" stroke="black" stroke-width="1" />
<line x1="688" y1="88" x2="692" y2="86" stroke="black" stroke-width="1" />
<rect x="637" y="84" width="48" height="5" style="fill:#f5b024;stroke:black;stroke-width:1;fill-opacity:1;stroke-opacity:0.3" />
<rect x="692" y="84" width="1" height="5" style="fill:#f5b024;stroke:black;stroke-width:1;fill-opacity:1;stroke-opacity:0.3" />
<line x1="693" y1="86" x2="742" y2="86" stroke="pink" stroke-width="1" />
<rect x="742" y="84" width="27" height="5" style="fill:#f5b024;stroke:black;stroke-width:1;fill-opacity:1;stroke-opacity:0.3" />
<line x1="769" y1="86" x2="798" y2="86" stroke="pink" stroke-width="1" />
<rect x="798" y="84" width="19" height="5" style="fill:#f5b024;stroke:black;stroke-width:1;fill-opacity:1;stroke-opacity:0.3" />
<line x1="687" y1="93" x2="716" y2="95" stroke="black" stroke-width="1" />
<line x1="716" y1="95" x2="746" y2="93" stroke="black" stroke-width="1" />
<rect x="639" y="91" width="48" height="5" style="fill:#f5b024;stroke:black;stroke-width:1;fill-opacity:1;stroke-opacity:0.3" />
<rect x="746" y="91" width="22" height="5" style="fill:#f5b024;stroke:black;stroke-width:1;fill-opacity:1;stroke-opacity:0.3" />
<line x1="769" y1="93" x2="798" y2="93" stroke="pink" stroke-width="1" />
<rect x="798" y="91" width="26" height="5" style="fill:#f5b024;stroke:black;stroke-width:1;fill-opacity:1;stroke-opacity:0.3" />
<line x1="676" y1="100" x2="684" y2="102" stroke="black" stroke-width="1" />
<line x1="684" y1="102" x2="692" y2="100" stroke="black" stroke-width="1" />
<rect x="644" y="98" width="32" height="5" style="fill:#f5b024;stroke:black;stroke-width:1;fill-opacity:1;stroke-opacity:0.3" />
<rect x="692" y="98" width="0" height="5" style="fill:#f5b024;stroke:black;stroke-width:1;fill-opacity:1;stroke-opacity:0.3" />
<line x1="693" y1="100" x2="742" y2="100" stroke="pink" stroke-width="1" />
<rect x="742" y="98" width="27" height="5" style="fill:#f5b024;stroke:black;stroke-width:1;fill-opacity:1;stroke-opacity:0.3" />
<line x1="769" y1="100" x2="798" y2="100" stroke="pink" stroke-width="1" />
<rect x="798" y="98" width="4" height="5" style="fill:#f5b024;stroke:black;stroke-width:1;fill-opacity:1;stroke-opacity:0.3" />
<line x1="745" y1="30" x2="747" y2="32" stroke="black" stroke-width="1" />
<line x1="747" y1="32" x2="750" y2="30" stroke="black" stroke-width="1" />
<rect x="649" y="28" width="44" height="5" style="fill:#f5b024;stroke:black;stroke-width:1;fill-opacity:1;stroke-opacity:0.3" />
<line x1="693" y1="30" x2="742" y2="30" stroke="pink" stroke-width="1" />
<rect x="742" y="28" width="3" height="5" style="fill:#f5b024;stroke:black;stroke-width:1;fill-opacity:1;stroke-opacity:0.3" />
<rect x="750" y="28" width="19" height="5" style="fill:#f5b024;stroke:black;stroke-width:1;fill-opacity:1;stroke-opacity:0.3" />
<line x1="769" y1="30" x2="798" y2="30" stroke="pink" stroke-width="1" />
<rect x="798" y="28" width="29" height="5" style="fill:#f5b024;stroke:black;stroke-width:1;fill-opacity:1;stroke-opacity:0.3" />
<line x1="682" y1="44" x2="712" y2="46" stroke="black" stroke-width="1" />
<line x1="712" y1="46" x2="743" y2="44" stroke="black" stroke-width="1" />
<rect x="649" y="42" width="32" height="5" style="fill:#f5b024;stroke:black;stroke-width:1;fill-opacity:1;stroke-opacity:0.3" />
<rect x="743" y="42" width="25" height="5" style="fill:#f5b024;stroke:black;stroke-width:1;fill-opacity:1;stroke-opacity:0.3" />
<line x1="769" y1="44" x2="798" y2="44" stroke="pink" stroke-width="1" />
<rect x="798" y="42" width="6" height="5" style="fill:#f5b024;stroke:black;stroke-width:1;fill-opacity:1;stroke-opacity:0.3" />
<line x1="688" y1="51" x2="714" y2="53" stroke="black" stroke-width="1" />
<line x1="714" y1="53" x2="741" y2="51" stroke="black" stroke-width="1" />
<rect x="657" y="49" width="30" height="5" style="fill:#f5b024;stroke:black;stroke-width:1;fill-opacity:1;stroke-opacity:0.3" />
<rect x="741" y="49" width="27" height="5" style="fill:#f5b024;stroke:black;stroke-width:1;fill-opacity:1;stroke-opacity:0.3" />
<line x1="769" y1="51" x2="798" y2="51" stroke="pink" stroke-width="1" />
<rect x="798" y="49" width="4" height="5" style="fill:#f5b024;stroke:black;stroke-width:1;fill-opacity:1;stroke-opacity:0.3" />
<line x1="754" y1="37" x2="757" y2="39" stroke="black" stroke-width="1" />
<line x1="757" y1="39" x2="761" y2="37" stroke="black" stroke-width="1" />
<rect x="673" y="35" width="19" height="5" style="fill:#f5b024;stroke:black;stroke-width:1;fill-opacity:1;stroke-opacity:0.3" />
<line x1="693" y1="37" x2="742" y2="37" stroke="pink" stroke-width="1" />
<rect x="742" y="35" width="12" height="5" style="fill:#f5b024;stroke:black;stroke-width:1;fill-opacity:1;stroke-opacity:0.3" />
<rect x="761" y="35" width="7" height="5" style="fill:#f5b024;stroke:black;stroke-width:1;fill-opacity:1;stroke-opacity:0.3" />
<line x1="769" y1="37" x2="798" y2="37" stroke="pink" stroke-width="1" />
<rect x="798" y="35" width="24" height="5" style="fill:#f5b024;stroke:black;stroke-width:1;fill-opacity:1;stroke-opacity:0.3" />
<line x1="755" y1="58" x2="759" y2="60" stroke="black" stroke-width="1" />
<line x1="759" y1="60" x2="764" y2="58" stroke="black" stroke-width="1" />
<rect x="674" y="56" width="19" height="5" style="fill:#5d3c2d;stroke:black;stroke-width:1;fill-opacity:1;stroke-opacity:0.3" />
<line x1="693" y1="58" x2="742" y2="58" stroke="pink" stroke-width="1" />
<rect x="742" y="56" width="13" height="5" style="fill:#5d3c2d;stroke:black;stroke-width:1;fill-opacity:1;stroke-opacity:0.3" />
<rect x="764" y="56" width="4" height="5" style="fill:#5d3c2d;stroke:black;stroke-width:1;fill-opacity:1;stroke-opacity:0.3" />
<line x1="769" y1="58" x2="798" y2="58" stroke="pink" stroke-width="1" />
<rect x="798" y="56" width="28" height="5" style="fill:#5d3c2d;stroke:black;stroke-width:1;fill-opacity:1;stroke-opacity:0.3" />
<line x1="807" y1="65" x2="814" y2="67" stroke="black" stroke-width="1" />
<line x1="814" y1="67" x2="822" y2="65" stroke="black" stroke-width="1" />
<rect x="745" y="63" width="23" height="5" style="fill:#f5b024;stroke:black;stroke-width:1;fill-opacity:1;stroke-opacity:0.3" />
<line x1="769" y1="65" x2="798" y2="65" stroke="pink" stroke-width="1" />
<rect x="798" y="63" width="8" height="5" style="fill:#f5b024;stroke:black;stroke-width:1;fill-opacity:1;stroke-opacity:0.3" />
<rect x="822" y="63" width="32" height="5" style="fill:#f5b024;stroke:black;stroke-width:1;fill-opacity:1;stroke-opacity:0.3" />
<line x1="818" y1="107" x2="821" y2="109" stroke="black" stroke-width="1" />
<line x1="821" y1="109" x2="825" y2="107" stroke="black" stroke-width="1" />
<rect x="757" y="105" width="11" height="5" style="fill:#f5b024;stroke:black;stroke-width:1;fill-opacity:1;stroke-opacity:0.3" />
<line x1="769" y1="107" x2="798" y2="107" stroke="pink" stroke-width="1" />
<rect x="798" y="105" width="20" height="5" style="fill:#f5b024;stroke:black;stroke-width:1;fill-opacity:1;stroke-opacity:0.3" />
<rect x="825" y="105" width="32" height="5" style="fill:#f5b024;stroke:black;stroke-width:1;fill-opacity:1;stroke-opacity:0.3" />
<line x1="829" y1="72" x2="836" y2="74" stroke="black" stroke-width="1" />
<line x1="836" y1="74" x2="844" y2="72" stroke="black" stroke-width="1" />
<rect x="760" y="70" width="12" height="5" style="fill:#5d3c2d;stroke:black;stroke-width:1;fill-opacity:1;stroke-opacity:0.3" />
<line x1="772" y1="72" x2="809" y2="72" stroke="pink" stroke-width="1" />
<rect x="809" y="70" width="19" height="5" style="fill:#5d3c2d;stroke:black;stroke-width:1;fill-opacity:1;stroke-opacity:0.3" />
<rect x="844" y="70" width="32" height="5" style="fill:#5d3c2d;stroke:black;stroke-width:1;fill-opacity:1;stroke-opacity:0.3" />
<line x1="834" y1="100" x2="842" y2="102" stroke="black" stroke-width="1" />
<line x1="842" y1="102" x2="851" y2="100" stroke="black" stroke-width="1" />
<rect x="802" y="98" width="31" height="5" style="fill:#f5b024;stroke:black;stroke-width:1;fill-opacity:1;stroke-opacity:0.3" />
<rect x="851" y="98" width="32" height="5" style="fill:#f5b024;stroke:black;stroke-width:1;fill-opacity:1;stroke-opacity:0.3" />
<line x1="889" y1="30" x2="894" y2="32" stroke="black" stroke-width="1" />
<line x1="894" y1="32" x2="900" y2="30" stroke="black" stroke-width="1" />
<rect x="856" y="28" width="32" height="5" style="fill:#5d3c2d;stroke:black;stroke-width:1;fill-opacity:1;stroke-opacity:0.3" />
<rect x="900" y="28" width="31" height="5" style="fill:#5d3c2d;stroke:black;stroke-width:1;fill-opacity:1;stroke-opacity:0.3" />
<line x1="904" y1="37" x2="909" y2="39" stroke="black" stroke-width="1" />
<line x1="909" y1="39" x2="914" y2="37" stroke="black" stroke-width="1" />
<rect x="872" y="35" width="32" height="5" style="fill:#5d3c2d;stroke:black;stroke-width:1;fill-opacity:1;stroke-opacity:0.3" />
<rect x="914" y="35" width="29" height="5" style="fill:#5d3c2d;stroke:black;stroke-width:1;fill-opacity:1;stroke-opacity:0.3" />
<text x="15"  y="176" style="font-family:Arial;font-size:10;stroke:black;fill:black;">all.merged.bam</text>
</svg>
    
