<?xml version="1.0" encoding="utf-8" standalone="no"?>
<!DOCTYPE svg PUBLIC "-//W3C//DTD SVG 1.1//EN"
  "http://www.w3.org/Graphics/SVG/1.1/DTD/svg11.dtd">
<svg height="1140" width="1000" version="1.1" viewBox="0 0 1000 1140" xmlns="http://www.w3.org/2000/svg" xmlns:xlink="http://www.w3.org/1999/xlink">
<line x1="53" y1="11" x2="946" y2="11" stroke="black" stroke-width="1" />
<rect x="53" y="9" width="181" height="5" style="fill:#f50002;stroke:black;stroke-width:1;fill-opacity:1;stroke-opacity:0.3" />
<rect x="235" y="9" width="101" height="5" style="fill:#53a1b5;stroke:black;stroke-width:1;fill-opacity:1;stroke-opacity:0.3" />
<rect x="388" y="9" width="72" height="5" style="fill:#53a1b5;stroke:black;stroke-width:1;fill-opacity:1;stroke-opacity:0.3" />
<rect x="541" y="9" width="144" height="5" style="fill:#53a1b5;stroke:black;stroke-width:1;fill-opacity:1;stroke-opacity:0.3" />
<rect x="743" y="9" width="14" height="5" style="fill:#53a1b5;stroke:black;stroke-width:1;fill-opacity:1;stroke-opacity:0.3" />
<rect x="758" y="9" width="187" height="5" style="fill:#f50002;stroke:black;stroke-width:1;fill-opacity:1;stroke-opacity:0.3" />
<text x="53"  y="23" style="font-family:Arial;font-size:10;stroke:black;fill:black;">Cre15.g643400.t1.2.v5.5 (-) chromosome_15:1795204-1796877</text>
<line x1="118" y1="30" x2="136" y2="32" stroke="black" stroke-width="1" />
<line x1="136" y1="32" x2="155" y2="30" stroke="black" stroke-width="1" />
<rect x="65" y="28" width="52" height="5" style="fill:#f5b024;stroke:black;stroke-width:1;fill-opacity:1;stroke-opacity:0.3" />
<rect x="155" y="28" width="53" height="5" style="fill:#f5b024;stroke:black;stroke-width:1;fill-opacity:1;stroke-opacity:0.3" />
<line x1="119" y1="37" x2="127" y2="39" stroke="black" stroke-width="1" />
<line x1="127" y1="39" x2="135" y2="37" stroke="black" stroke-width="1" />
<rect x="66" y="35" width="53" height="5" style="fill:#f5b024;stroke:black;stroke-width:1;fill-opacity:1;stroke-opacity:0.3" />
<rect x="135" y="35" width="53" height="5" style="fill:#f5b024;stroke:black;stroke-width:1;fill-opacity:1;stroke-opacity:0.3" />
<line x1="127" y1="44" x2="140" y2="46" stroke="black" stroke-width="1" />
<line x1="140" y1="46" x2="153" y2="44" stroke="black" stroke-width="1" />
<rect x="74" y="42" width="53" height="5" style="fill:#f5b024;stroke:black;stroke-width:1;fill-opacity:1;stroke-opacity:0.3" />
<rect x="153" y="42" width="53" height="5" style="fill:#f5b024;stroke:black;stroke-width:1;fill-opacity:1;stroke-opacity:0.3" />
<line x1="129" y1="51" x2="137" y2="53" stroke="black" stroke-width="1" />
<line x1="137" y1="53" x2="145" y2="51" stroke="black" stroke-width="1" />
<rect x="76" y="49" width="52" height="5" style="fill:#f5b024;stroke:black;stroke-width:1;fill-opacity:1;stroke-opacity:0.3" />
<rect x="145" y="49" width="53" height="5" style="fill:#f5b024;stroke:black;stroke-width:1;fill-opacity:1;stroke-opacity:0.3" />
<line x1="130" y1="58" x2="144" y2="60" stroke="black" stroke-width="1" />
<line x1="144" y1="60" x2="158" y2="58" stroke="black" stroke-width="1" />
<rect x="77" y="56" width="52" height="5" style="fill:#f5b024;stroke:black;stroke-width:1;fill-opacity:1;stroke-opacity:0.3" />
<rect x="158" y="56" width="53" height="5" style="fill:#f5b024;stroke:black;stroke-width:1;fill-opacity:1;stroke-opacity:0.3" />
<line x1="139" y1="65" x2="144" y2="67" stroke="black" stroke-width="1" />
<line x1="144" y1="67" x2="149" y2="65" stroke="black" stroke-width="1" />
<rect x="85" y="63" width="53" height="5" style="fill:#f5b024;stroke:black;stroke-width:1;fill-opacity:1;stroke-opacity:0.3" />
<rect x="149" y="63" width="53" height="5" style="fill:#f5b024;stroke:black;stroke-width:1;fill-opacity:1;stroke-opacity:0.3" />
<line x1="285" y1="30" x2="293" y2="32" stroke="black" stroke-width="1" />
<line x1="293" y1="32" x2="301" y2="30" stroke="black" stroke-width="1" />
<rect x="232" y="28" width="53" height="5" style="fill:#5d3c2d;stroke:black;stroke-width:1;fill-opacity:1;stroke-opacity:0.3" />
<rect x="301" y="28" width="53" height="5" style="fill:#5d3c2d;stroke:black;stroke-width:1;fill-opacity:1;stroke-opacity:0.3" />
<line x1="290" y1="37" x2="301" y2="39" stroke="black" stroke-width="1" />
<line x1="301" y1="39" x2="313" y2="37" stroke="black" stroke-width="1" />
<rect x="237" y="35" width="53" height="5" style="fill:#5d3c2d;stroke:black;stroke-width:1;fill-opacity:1;stroke-opacity:0.3" />
<rect x="313" y="35" width="53" height="5" style="fill:#5d3c2d;stroke:black;stroke-width:1;fill-opacity:1;stroke-opacity:0.3" />
<line x1="291" y1="44" x2="296" y2="46" stroke="black" stroke-width="1" />
<line x1="296" y1="46" x2="301" y2="44" stroke="black" stroke-width="1" />
<rect x="237" y="42" width="53" height="5" style="fill:#5d3c2d;stroke:black;stroke-width:1;fill-opacity:1;stroke-opacity:0.3" />
<rect x="301" y="42" width="53" height="5" style="fill:#5d3c2d;stroke:black;stroke-width:1;fill-opacity:1;stroke-opacity:0.3" />
<line x1="291" y1="51" x2="301" y2="53" stroke="black" stroke-width="1" />
<line x1="301" y1="53" x2="311" y2="51" stroke="black" stroke-width="1" />
<rect x="238" y="49" width="53" height="5" style="fill:#f5b024;stroke:black;stroke-width:1;fill-opacity:1;stroke-opacity:0.3" />
<rect x="311" y="49" width="53" height="5" style="fill:#f5b024;stroke:black;stroke-width:1;fill-opacity:1;stroke-opacity:0.3" />
<line x1="293" y1="58" x2="299" y2="60" stroke="black" stroke-width="1" />
<line x1="299" y1="60" x2="306" y2="58" stroke="black" stroke-width="1" />
<rect x="240" y="56" width="53" height="5" style="fill:#5d3c2d;stroke:black;stroke-width:1;fill-opacity:1;stroke-opacity:0.3" />
<rect x="306" y="56" width="53" height="5" style="fill:#5d3c2d;stroke:black;stroke-width:1;fill-opacity:1;stroke-opacity:0.3" />
<line x1="293" y1="65" x2="299" y2="67" stroke="black" stroke-width="1" />
<line x1="299" y1="67" x2="306" y2="65" stroke="black" stroke-width="1" />
<rect x="240" y="63" width="53" height="5" style="fill:#5d3c2d;stroke:black;stroke-width:1;fill-opacity:1;stroke-opacity:0.3" />
<rect x="306" y="63" width="53" height="5" style="fill:#5d3c2d;stroke:black;stroke-width:1;fill-opacity:1;stroke-opacity:0.3" />
<line x1="299" y1="72" x2="308" y2="74" stroke="black" stroke-width="1" />
<line x1="308" y1="74" x2="317" y2="72" stroke="black" stroke-width="1" />
<rect x="247" y="70" width="52" height="5" style="fill:#f5b024;stroke:black;stroke-width:1;fill-opacity:1;stroke-opacity:0.3" />
<rect x="317" y="70" width="53" height="5" style="fill:#f5b024;stroke:black;stroke-width:1;fill-opacity:1;stroke-opacity:0.3" />
<line x1="304" y1="79" x2="329" y2="81" stroke="black" stroke-width="1" />
<line x1="329" y1="81" x2="355" y2="79" stroke="black" stroke-width="1" />
<rect x="251" y="77" width="53" height="5" style="fill:#f5b024;stroke:black;stroke-width:1;fill-opacity:1;stroke-opacity:0.3" />
<rect x="355" y="77" width="53" height="5" style="fill:#f5b024;stroke:black;stroke-width:1;fill-opacity:1;stroke-opacity:0.3" />
<line x1="311" y1="86" x2="318" y2="88" stroke="black" stroke-width="1" />
<line x1="318" y1="88" x2="326" y2="86" stroke="black" stroke-width="1" />
<rect x="258" y="84" width="53" height="5" style="fill:#f5b024;stroke:black;stroke-width:1;fill-opacity:1;stroke-opacity:0.3" />
<rect x="326" y="84" width="53" height="5" style="fill:#f5b024;stroke:black;stroke-width:1;fill-opacity:1;stroke-opacity:0.3" />
<line x1="315" y1="93" x2="319" y2="95" stroke="black" stroke-width="1" />
<line x1="319" y1="95" x2="324" y2="93" stroke="black" stroke-width="1" />
<rect x="262" y="91" width="53" height="5" style="fill:#f5b024;stroke:black;stroke-width:1;fill-opacity:1;stroke-opacity:0.3" />
<rect x="324" y="91" width="53" height="5" style="fill:#f5b024;stroke:black;stroke-width:1;fill-opacity:1;stroke-opacity:0.3" />
<line x1="319" y1="100" x2="326" y2="102" stroke="black" stroke-width="1" />
<line x1="326" y1="102" x2="334" y2="100" stroke="black" stroke-width="1" />
<rect x="266" y="98" width="53" height="5" style="fill:#f5b024;stroke:black;stroke-width:1;fill-opacity:1;stroke-opacity:0.3" />
<rect x="334" y="98" width="53" height="5" style="fill:#f5b024;stroke:black;stroke-width:1;fill-opacity:1;stroke-opacity:0.3" />
<line x1="321" y1="107" x2="327" y2="109" stroke="black" stroke-width="1" />
<line x1="327" y1="109" x2="334" y2="107" stroke="black" stroke-width="1" />
<rect x="268" y="105" width="53" height="5" style="fill:#f5b024;stroke:black;stroke-width:1;fill-opacity:1;stroke-opacity:0.3" />
<rect x="334" y="105" width="53" height="5" style="fill:#f5b024;stroke:black;stroke-width:1;fill-opacity:1;stroke-opacity:0.3" />
<line x1="327" y1="114" x2="335" y2="116" stroke="black" stroke-width="1" />
<line x1="335" y1="116" x2="343" y2="114" stroke="black" stroke-width="1" />
<rect x="274" y="112" width="52" height="5" style="fill:#f5b024;stroke:black;stroke-width:1;fill-opacity:1;stroke-opacity:0.3" />
<rect x="343" y="112" width="53" height="5" style="fill:#f5b024;stroke:black;stroke-width:1;fill-opacity:1;stroke-opacity:0.3" />
<line x1="342" y1="121" x2="349" y2="123" stroke="black" stroke-width="1" />
<line x1="349" y1="123" x2="356" y2="121" stroke="black" stroke-width="1" />
<rect x="288" y="119" width="53" height="5" style="fill:#f5b024;stroke:black;stroke-width:1;fill-opacity:1;stroke-opacity:0.3" />
<rect x="356" y="119" width="52" height="5" style="fill:#f5b024;stroke:black;stroke-width:1;fill-opacity:1;stroke-opacity:0.3" />
<line x1="391" y1="128" x2="402" y2="130" stroke="black" stroke-width="1" />
<line x1="402" y1="130" x2="413" y2="128" stroke="black" stroke-width="1" />
<rect x="338" y="126" width="53" height="5" style="fill:#f5b024;stroke:black;stroke-width:1;fill-opacity:1;stroke-opacity:0.3" />
<rect x="413" y="126" width="47" height="5" style="fill:#f5b024;stroke:black;stroke-width:1;fill-opacity:1;stroke-opacity:0.3" />
<line x1="461" y1="128" x2="541" y2="128" stroke="pink" stroke-width="1" />
<rect x="541" y="126" width="5" height="5" style="fill:#f5b024;stroke:black;stroke-width:1;fill-opacity:1;stroke-opacity:0.3" />
<line x1="394" y1="135" x2="403" y2="137" stroke="black" stroke-width="1" />
<line x1="403" y1="137" x2="413" y2="135" stroke="black" stroke-width="1" />
<rect x="341" y="133" width="53" height="5" style="fill:#f5b024;stroke:black;stroke-width:1;fill-opacity:1;stroke-opacity:0.3" />
<rect x="413" y="133" width="48" height="5" style="fill:#f5b024;stroke:black;stroke-width:1;fill-opacity:1;stroke-opacity:0.3" />
<line x1="461" y1="135" x2="541" y2="135" stroke="pink" stroke-width="1" />
<rect x="541" y="133" width="5" height="5" style="fill:#f5b024;stroke:black;stroke-width:1;fill-opacity:1;stroke-opacity:0.3" />
<line x1="402" y1="142" x2="413" y2="144" stroke="black" stroke-width="1" />
<line x1="413" y1="144" x2="425" y2="142" stroke="black" stroke-width="1" />
<rect x="348" y="140" width="53" height="5" style="fill:#f5b024;stroke:black;stroke-width:1;fill-opacity:1;stroke-opacity:0.3" />
<rect x="425" y="140" width="35" height="5" style="fill:#f5b024;stroke:black;stroke-width:1;fill-opacity:1;stroke-opacity:0.3" />
<line x1="461" y1="142" x2="541" y2="142" stroke="pink" stroke-width="1" />
<rect x="541" y="140" width="18" height="5" style="fill:#f5b024;stroke:black;stroke-width:1;fill-opacity:1;stroke-opacity:0.3" />
<line x1="405" y1="149" x2="410" y2="151" stroke="black" stroke-width="1" />
<line x1="410" y1="151" x2="416" y2="149" stroke="black" stroke-width="1" />
<rect x="351" y="147" width="53" height="5" style="fill:#f5b024;stroke:black;stroke-width:1;fill-opacity:1;stroke-opacity:0.3" />
<rect x="416" y="147" width="44" height="5" style="fill:#f5b024;stroke:black;stroke-width:1;fill-opacity:1;stroke-opacity:0.3" />
<line x1="461" y1="149" x2="541" y2="149" stroke="pink" stroke-width="1" />
<rect x="541" y="147" width="8" height="5" style="fill:#f5b024;stroke:black;stroke-width:1;fill-opacity:1;stroke-opacity:0.3" />
<line x1="405" y1="156" x2="417" y2="158" stroke="black" stroke-width="1" />
<line x1="417" y1="158" x2="430" y2="156" stroke="black" stroke-width="1" />
<rect x="353" y="154" width="51" height="5" style="fill:#5d3c2d;stroke:black;stroke-width:1;fill-opacity:1;stroke-opacity:0.3" />
<rect x="430" y="154" width="30" height="5" style="fill:#5d3c2d;stroke:black;stroke-width:1;fill-opacity:1;stroke-opacity:0.3" />
<line x1="461" y1="156" x2="541" y2="156" stroke="pink" stroke-width="1" />
<rect x="541" y="154" width="22" height="5" style="fill:#5d3c2d;stroke:black;stroke-width:1;fill-opacity:1;stroke-opacity:0.3" />
<line x1="410" y1="30" x2="413" y2="32" stroke="black" stroke-width="1" />
<line x1="413" y1="32" x2="416" y2="30" stroke="black" stroke-width="1" />
<rect x="356" y="28" width="53" height="5" style="fill:#f5b024;stroke:black;stroke-width:1;fill-opacity:1;stroke-opacity:0.3" />
<rect x="416" y="28" width="44" height="5" style="fill:#f5b024;stroke:black;stroke-width:1;fill-opacity:1;stroke-opacity:0.3" />
<line x1="461" y1="30" x2="541" y2="30" stroke="pink" stroke-width="1" />
<rect x="541" y="28" width="8" height="5" style="fill:#f5b024;stroke:black;stroke-width:1;fill-opacity:1;stroke-opacity:0.3" />
<line x1="478" y1="37" x2="481" y2="39" stroke="black" stroke-width="1" />
<line x1="481" y1="39" x2="485" y2="37" stroke="black" stroke-width="1" />
<rect x="424" y="35" width="53" height="5" style="fill:#f5b024;stroke:black;stroke-width:1;fill-opacity:1;stroke-opacity:0.3" />
<rect x="485" y="35" width="44" height="5" style="fill:#f5b024;stroke:black;stroke-width:1;fill-opacity:1;stroke-opacity:0.3" />
<line x1="568" y1="44" x2="573" y2="46" stroke="black" stroke-width="1" />
<line x1="573" y1="46" x2="578" y2="44" stroke="black" stroke-width="1" />
<rect x="435" y="42" width="25" height="5" style="fill:#f5b024;stroke:black;stroke-width:1;fill-opacity:1;stroke-opacity:0.3" />
<line x1="461" y1="44" x2="541" y2="44" stroke="pink" stroke-width="1" />
<rect x="541" y="42" width="27" height="5" style="fill:#f5b024;stroke:black;stroke-width:1;fill-opacity:1;stroke-opacity:0.3" />
<rect x="578" y="42" width="53" height="5" style="fill:#f5b024;stroke:black;stroke-width:1;fill-opacity:1;stroke-opacity:0.3" />
<line x1="568" y1="51" x2="582" y2="53" stroke="black" stroke-width="1" />
<line x1="582" y1="53" x2="596" y2="51" stroke="black" stroke-width="1" />
<rect x="435" y="49" width="25" height="5" style="fill:#f5b024;stroke:black;stroke-width:1;fill-opacity:1;stroke-opacity:0.3" />
<line x1="461" y1="51" x2="541" y2="51" stroke="pink" stroke-width="1" />
<rect x="541" y="49" width="27" height="5" style="fill:#f5b024;stroke:black;stroke-width:1;fill-opacity:1;stroke-opacity:0.3" />
<rect x="596" y="49" width="53" height="5" style="fill:#f5b024;stroke:black;stroke-width:1;fill-opacity:1;stroke-opacity:0.3" />
<line x1="568" y1="58" x2="578" y2="60" stroke="black" stroke-width="1" />
<line x1="578" y1="60" x2="588" y2="58" stroke="black" stroke-width="1" />
<rect x="435" y="56" width="25" height="5" style="fill:#f5b024;stroke:black;stroke-width:1;fill-opacity:1;stroke-opacity:0.3" />
<line x1="461" y1="58" x2="541" y2="58" stroke="pink" stroke-width="1" />
<rect x="541" y="56" width="27" height="5" style="fill:#f5b024;stroke:black;stroke-width:1;fill-opacity:1;stroke-opacity:0.3" />
<rect x="588" y="56" width="53" height="5" style="fill:#f5b024;stroke:black;stroke-width:1;fill-opacity:1;stroke-opacity:0.3" />
<line x1="569" y1="65" x2="576" y2="67" stroke="black" stroke-width="1" />
<line x1="576" y1="67" x2="583" y2="65" stroke="black" stroke-width="1" />
<rect x="436" y="63" width="24" height="5" style="fill:#f5b024;stroke:black;stroke-width:1;fill-opacity:1;stroke-opacity:0.3" />
<line x1="461" y1="65" x2="541" y2="65" stroke="pink" stroke-width="1" />
<rect x="541" y="63" width="28" height="5" style="fill:#f5b024;stroke:black;stroke-width:1;fill-opacity:1;stroke-opacity:0.3" />
<rect x="583" y="63" width="53" height="5" style="fill:#f5b024;stroke:black;stroke-width:1;fill-opacity:1;stroke-opacity:0.3" />
<line x1="577" y1="72" x2="581" y2="74" stroke="black" stroke-width="1" />
<line x1="581" y1="74" x2="585" y2="72" stroke="black" stroke-width="1" />
<rect x="443" y="70" width="17" height="5" style="fill:#f5b024;stroke:black;stroke-width:1;fill-opacity:1;stroke-opacity:0.3" />
<line x1="461" y1="72" x2="541" y2="72" stroke="pink" stroke-width="1" />
<rect x="541" y="70" width="36" height="5" style="fill:#f5b024;stroke:black;stroke-width:1;fill-opacity:1;stroke-opacity:0.3" />
<rect x="585" y="70" width="53" height="5" style="fill:#f5b024;stroke:black;stroke-width:1;fill-opacity:1;stroke-opacity:0.3" />
<line x1="579" y1="79" x2="588" y2="81" stroke="black" stroke-width="1" />
<line x1="588" y1="81" x2="597" y2="79" stroke="black" stroke-width="1" />
<rect x="446" y="77" width="14" height="5" style="fill:#f5b024;stroke:black;stroke-width:1;fill-opacity:1;stroke-opacity:0.3" />
<line x1="461" y1="79" x2="541" y2="79" stroke="pink" stroke-width="1" />
<rect x="541" y="77" width="38" height="5" style="fill:#f5b024;stroke:black;stroke-width:1;fill-opacity:1;stroke-opacity:0.3" />
<rect x="597" y="77" width="53" height="5" style="fill:#f5b024;stroke:black;stroke-width:1;fill-opacity:1;stroke-opacity:0.3" />
<line x1="590" y1="86" x2="595" y2="88" stroke="black" stroke-width="1" />
<line x1="595" y1="88" x2="601" y2="86" stroke="black" stroke-width="1" />
<rect x="457" y="84" width="3" height="5" style="fill:#f5b024;stroke:black;stroke-width:1;fill-opacity:1;stroke-opacity:0.3" />
<line x1="461" y1="86" x2="541" y2="86" stroke="pink" stroke-width="1" />
<rect x="541" y="84" width="49" height="5" style="fill:#f5b024;stroke:black;stroke-width:1;fill-opacity:1;stroke-opacity:0.3" />
<rect x="601" y="84" width="53" height="5" style="fill:#f5b024;stroke:black;stroke-width:1;fill-opacity:1;stroke-opacity:0.3" />
<line x1="602" y1="37" x2="606" y2="39" stroke="black" stroke-width="1" />
<line x1="606" y1="39" x2="610" y2="37" stroke="black" stroke-width="1" />
<rect x="549" y="35" width="53" height="5" style="fill:#f5b024;stroke:black;stroke-width:1;fill-opacity:1;stroke-opacity:0.3" />
<rect x="610" y="35" width="53" height="5" style="fill:#f5b024;stroke:black;stroke-width:1;fill-opacity:1;stroke-opacity:0.3" />
<line x1="636" y1="30" x2="644" y2="32" stroke="black" stroke-width="1" />
<line x1="644" y1="32" x2="653" y2="30" stroke="black" stroke-width="1" />
<rect x="556" y="28" width="80" height="5" style="fill:#f5b024;stroke:black;stroke-width:1;fill-opacity:1;stroke-opacity:0.3" />
<rect x="653" y="28" width="32" height="5" style="fill:#f5b024;stroke:black;stroke-width:1;fill-opacity:1;stroke-opacity:0.3" />
<line x1="685" y1="30" x2="3530" y2="30" stroke="pink" stroke-width="1" />
<rect x="3530" y="28" width="48" height="5" style="fill:#f5b024;stroke:black;stroke-width:1;fill-opacity:1;stroke-opacity:0.3" />
<line x1="610" y1="93" x2="624" y2="95" stroke="black" stroke-width="1" />
<line x1="624" y1="95" x2="638" y2="93" stroke="black" stroke-width="1" />
<rect x="557" y="91" width="53" height="5" style="fill:#f5b024;stroke:black;stroke-width:1;fill-opacity:1;stroke-opacity:0.3" />
<rect x="638" y="91" width="47" height="5" style="fill:#f5b024;stroke:black;stroke-width:1;fill-opacity:1;stroke-opacity:0.3" />
<line x1="685" y1="93" x2="3342" y2="93" stroke="pink" stroke-width="1" />
<rect x="3342" y="91" width="5" height="5" style="fill:#f5b024;stroke:black;stroke-width:1;fill-opacity:1;stroke-opacity:0.3" />
<line x1="616" y1="100" x2="624" y2="102" stroke="black" stroke-width="1" />
<line x1="624" y1="102" x2="633" y2="100" stroke="black" stroke-width="1" />
<rect x="565" y="98" width="51" height="5" style="fill:#f5b024;stroke:black;stroke-width:1;fill-opacity:1;stroke-opacity:0.3" />
<rect x="633" y="98" width="52" height="5" style="fill:#f5b024;stroke:black;stroke-width:1;fill-opacity:1;stroke-opacity:0.3" />
<line x1="685" y1="100" x2="3342" y2="100" stroke="pink" stroke-width="1" />
<rect x="3342" y="98" width="1" height="5" style="fill:#f5b024;stroke:black;stroke-width:1;fill-opacity:1;stroke-opacity:0.3" />
<line x1="625" y1="107" x2="635" y2="109" stroke="black" stroke-width="1" />
<line x1="635" y1="109" x2="646" y2="107" stroke="black" stroke-width="1" />
<rect x="572" y="105" width="53" height="5" style="fill:#f5b024;stroke:black;stroke-width:1;fill-opacity:1;stroke-opacity:0.3" />
<rect x="646" y="105" width="39" height="5" style="fill:#f5b024;stroke:black;stroke-width:1;fill-opacity:1;stroke-opacity:0.3" />
<line x1="685" y1="107" x2="3342" y2="107" stroke="pink" stroke-width="1" />
<rect x="3342" y="105" width="13" height="5" style="fill:#f5b024;stroke:black;stroke-width:1;fill-opacity:1;stroke-opacity:0.3" />
<line x1="701" y1="44" x2="717" y2="46" stroke="black" stroke-width="1" />
<line x1="717" y1="46" x2="734" y2="44" stroke="black" stroke-width="1" />
<rect x="648" y="42" width="53" height="5" style="fill:#5d3c2d;stroke:black;stroke-width:1;fill-opacity:1;stroke-opacity:0.3" />
<rect x="734" y="42" width="53" height="5" style="fill:#5d3c2d;stroke:black;stroke-width:1;fill-opacity:1;stroke-opacity:0.3" />
<line x1="738" y1="37" x2="755" y2="39" stroke="black" stroke-width="1" />
<line x1="755" y1="39" x2="772" y2="37" stroke="black" stroke-width="1" />
<rect x="685" y="35" width="53" height="5" style="fill:#5d3c2d;stroke:black;stroke-width:1;fill-opacity:1;stroke-opacity:0.3" />
<rect x="772" y="35" width="53" height="5" style="fill:#5d3c2d;stroke:black;stroke-width:1;fill-opacity:1;stroke-opacity:0.3" />
<line x1="759" y1="51" x2="767" y2="53" stroke="black" stroke-width="1" />
<line x1="767" y1="53" x2="775" y2="51" stroke="black" stroke-width="1" />
<rect x="705" y="49" width="53" height="5" style="fill:#f5b024;stroke:black;stroke-width:1;fill-opacity:1;stroke-opacity:0.3" />
<rect x="775" y="49" width="53" height="5" style="fill:#f5b024;stroke:black;stroke-width:1;fill-opacity:1;stroke-opacity:0.3" />
<line x1="851" y1="44" x2="867" y2="46" stroke="black" stroke-width="1" />
<line x1="867" y1="46" x2="883" y2="44" stroke="black" stroke-width="1" />
<rect x="797" y="42" width="53" height="5" style="fill:#f5b024;stroke:black;stroke-width:1;fill-opacity:1;stroke-opacity:0.3" />
<rect x="883" y="42" width="53" height="5" style="fill:#f5b024;stroke:black;stroke-width:1;fill-opacity:1;stroke-opacity:0.3" />
<line x1="884" y1="37" x2="913" y2="39" stroke="black" stroke-width="1" />
<line x1="913" y1="39" x2="943" y2="37" stroke="black" stroke-width="1" />
<rect x="830" y="35" width="53" height="5" style="fill:#f5b024;stroke:black;stroke-width:1;fill-opacity:1;stroke-opacity:0.3" />
<rect x="943" y="35" width="53" height="5" style="fill:#f5b024;stroke:black;stroke-width:1;fill-opacity:1;stroke-opacity:0.3" />
<line x1="893" y1="51" x2="905" y2="53" stroke="black" stroke-width="1" />
<line x1="905" y1="53" x2="917" y2="51" stroke="black" stroke-width="1" />
<rect x="839" y="49" width="53" height="5" style="fill:#f5b024;stroke:black;stroke-width:1;fill-opacity:1;stroke-opacity:0.3" />
<rect x="917" y="49" width="53" height="5" style="fill:#f5b024;stroke:black;stroke-width:1;fill-opacity:1;stroke-opacity:0.3" />
<text x="15"  y="176" style="font-family:Arial;font-size:10;stroke:black;fill:black;">all.merged.bam</text>
</svg>
    
