<?xml version="1.0" encoding="utf-8" standalone="no"?>
<!DOCTYPE svg PUBLIC "-//W3C//DTD SVG 1.1//EN"
  "http://www.w3.org/Graphics/SVG/1.1/DTD/svg11.dtd">
<svg height="1140" width="1000" version="1.1" viewBox="0 0 1000 1140" xmlns="http://www.w3.org/2000/svg" xmlns:xlink="http://www.w3.org/1999/xlink">
<line x1="12" y1="11" x2="987" y2="11" stroke="black" stroke-width="1" />
<rect x="12" y="9" width="3" height="5" style="fill:#f50002;stroke:black;stroke-width:1;fill-opacity:1;stroke-opacity:0.3" />
<rect x="16" y="9" width="68" height="5" style="fill:#53a1b5;stroke:black;stroke-width:1;fill-opacity:1;stroke-opacity:0.3" />
<rect x="98" y="9" width="89" height="5" style="fill:#53a1b5;stroke:black;stroke-width:1;fill-opacity:1;stroke-opacity:0.3" />
<rect x="281" y="9" width="11" height="5" style="fill:#53a1b5;stroke:black;stroke-width:1;fill-opacity:1;stroke-opacity:0.3" />
<rect x="379" y="9" width="344" height="5" style="fill:#53a1b5;stroke:black;stroke-width:1;fill-opacity:1;stroke-opacity:0.3" />
<rect x="751" y="9" width="52" height="5" style="fill:#53a1b5;stroke:black;stroke-width:1;fill-opacity:1;stroke-opacity:0.3" />
<rect x="879" y="9" width="59" height="5" style="fill:#53a1b5;stroke:black;stroke-width:1;fill-opacity:1;stroke-opacity:0.3" />
<rect x="939" y="9" width="47" height="5" style="fill:#f50002;stroke:black;stroke-width:1;fill-opacity:1;stroke-opacity:0.3" />
<text x="12"  y="23" style="font-family:Arial;font-size:10;stroke:black;fill:black;">Cre25.g756397.t1.1.v5.5 (+) scaffold_25:78046-85957</text>
<line x1="14" y1="30" x2="282" y2="32" stroke="black" stroke-width="1" />
<line x1="282" y1="32" x2="551" y2="30" stroke="black" stroke-width="1" />
<rect x="2" y="28" width="12" height="5" style="fill:#5d3c2d;stroke:black;stroke-width:1;fill-opacity:1;stroke-opacity:0.3" />
<rect x="551" y="28" width="12" height="5" style="fill:#5d3c2d;stroke:black;stroke-width:1;fill-opacity:1;stroke-opacity:0.3" />
<line x1="16" y1="37" x2="22" y2="39" stroke="black" stroke-width="1" />
<line x1="22" y1="39" x2="28" y2="37" stroke="black" stroke-width="1" />
<rect x="4" y="35" width="12" height="5" style="fill:#5d3c2d;stroke:black;stroke-width:1;fill-opacity:1;stroke-opacity:0.3" />
<rect x="28" y="35" width="12" height="5" style="fill:#5d3c2d;stroke:black;stroke-width:1;fill-opacity:1;stroke-opacity:0.3" />
<line x1="23" y1="44" x2="286" y2="46" stroke="black" stroke-width="1" />
<line x1="286" y1="46" x2="550" y2="44" stroke="black" stroke-width="1" />
<rect x="11" y="42" width="12" height="5" style="fill:#5d3c2d;stroke:black;stroke-width:1;fill-opacity:1;stroke-opacity:0.3" />
<rect x="550" y="42" width="12" height="5" style="fill:#5d3c2d;stroke:black;stroke-width:1;fill-opacity:1;stroke-opacity:0.3" />
<line x1="25" y1="51" x2="26" y2="53" stroke="black" stroke-width="1" />
<line x1="26" y1="53" x2="28" y2="51" stroke="black" stroke-width="1" />
<rect x="13" y="49" width="12" height="5" style="fill:#5d3c2d;stroke:black;stroke-width:1;fill-opacity:1;stroke-opacity:0.3" />
<rect x="28" y="49" width="12" height="5" style="fill:#5d3c2d;stroke:black;stroke-width:1;fill-opacity:1;stroke-opacity:0.3" />
<line x1="26" y1="58" x2="26" y2="60" stroke="black" stroke-width="1" />
<line x1="26" y1="60" x2="27" y2="58" stroke="black" stroke-width="1" />
<rect x="13" y="56" width="12" height="5" style="fill:#5d3c2d;stroke:black;stroke-width:1;fill-opacity:1;stroke-opacity:0.3" />
<rect x="27" y="56" width="12" height="5" style="fill:#5d3c2d;stroke:black;stroke-width:1;fill-opacity:1;stroke-opacity:0.3" />
<line x1="32" y1="65" x2="291" y2="67" stroke="black" stroke-width="1" />
<line x1="291" y1="67" x2="550" y2="65" stroke="black" stroke-width="1" />
<rect x="20" y="63" width="12" height="5" style="fill:#5d3c2d;stroke:black;stroke-width:1;fill-opacity:1;stroke-opacity:0.3" />
<rect x="550" y="63" width="12" height="5" style="fill:#5d3c2d;stroke:black;stroke-width:1;fill-opacity:1;stroke-opacity:0.3" />
<line x1="33" y1="72" x2="292" y2="74" stroke="black" stroke-width="1" />
<line x1="292" y1="74" x2="551" y2="72" stroke="black" stroke-width="1" />
<rect x="21" y="70" width="12" height="5" style="fill:#5d3c2d;stroke:black;stroke-width:1;fill-opacity:1;stroke-opacity:0.3" />
<rect x="551" y="70" width="12" height="5" style="fill:#5d3c2d;stroke:black;stroke-width:1;fill-opacity:1;stroke-opacity:0.3" />
<line x1="37" y1="79" x2="294" y2="81" stroke="black" stroke-width="1" />
<line x1="294" y1="81" x2="551" y2="79" stroke="black" stroke-width="1" />
<rect x="25" y="77" width="12" height="5" style="fill:#5d3c2d;stroke:black;stroke-width:1;fill-opacity:1;stroke-opacity:0.3" />
<rect x="551" y="77" width="12" height="5" style="fill:#5d3c2d;stroke:black;stroke-width:1;fill-opacity:1;stroke-opacity:0.3" />
<line x1="43" y1="86" x2="296" y2="88" stroke="black" stroke-width="1" />
<line x1="296" y1="88" x2="550" y2="86" stroke="black" stroke-width="1" />
<rect x="25" y="84" width="18" height="5" style="fill:#f5b024;stroke:black;stroke-width:1;fill-opacity:1;stroke-opacity:0.3" />
<rect x="550" y="84" width="18" height="5" style="fill:#f5b024;stroke:black;stroke-width:1;fill-opacity:1;stroke-opacity:0.3" />
<line x1="44" y1="93" x2="300" y2="95" stroke="black" stroke-width="1" />
<line x1="300" y1="95" x2="557" y2="93" stroke="black" stroke-width="1" />
<rect x="25" y="91" width="18" height="5" style="fill:#5d3c2d;stroke:black;stroke-width:1;fill-opacity:1;stroke-opacity:0.3" />
<rect x="557" y="91" width="18" height="5" style="fill:#5d3c2d;stroke:black;stroke-width:1;fill-opacity:1;stroke-opacity:0.3" />
<line x1="44" y1="100" x2="297" y2="102" stroke="black" stroke-width="1" />
<line x1="297" y1="102" x2="550" y2="100" stroke="black" stroke-width="1" />
<rect x="26" y="98" width="18" height="5" style="fill:#5d3c2d;stroke:black;stroke-width:1;fill-opacity:1;stroke-opacity:0.3" />
<rect x="550" y="98" width="18" height="5" style="fill:#5d3c2d;stroke:black;stroke-width:1;fill-opacity:1;stroke-opacity:0.3" />
<line x1="45" y1="107" x2="299" y2="109" stroke="black" stroke-width="1" />
<line x1="299" y1="109" x2="554" y2="107" stroke="black" stroke-width="1" />
<rect x="27" y="105" width="18" height="5" style="fill:#5d3c2d;stroke:black;stroke-width:1;fill-opacity:1;stroke-opacity:0.3" />
<rect x="554" y="105" width="18" height="5" style="fill:#5d3c2d;stroke:black;stroke-width:1;fill-opacity:1;stroke-opacity:0.3" />
<line x1="46" y1="114" x2="299" y2="116" stroke="black" stroke-width="1" />
<line x1="299" y1="116" x2="553" y2="114" stroke="black" stroke-width="1" />
<rect x="27" y="112" width="18" height="5" style="fill:#f5b024;stroke:black;stroke-width:1;fill-opacity:1;stroke-opacity:0.3" />
<rect x="553" y="112" width="18" height="5" style="fill:#f5b024;stroke:black;stroke-width:1;fill-opacity:1;stroke-opacity:0.3" />
<line x1="44" y1="121" x2="297" y2="123" stroke="black" stroke-width="1" />
<line x1="297" y1="123" x2="550" y2="121" stroke="black" stroke-width="1" />
<rect x="27" y="119" width="17" height="5" style="fill:#5d3c2d;stroke:black;stroke-width:1;fill-opacity:1;stroke-opacity:0.3" />
<rect x="550" y="119" width="17" height="5" style="fill:#5d3c2d;stroke:black;stroke-width:1;fill-opacity:1;stroke-opacity:0.3" />
<line x1="45" y1="128" x2="298" y2="130" stroke="black" stroke-width="1" />
<line x1="298" y1="130" x2="551" y2="128" stroke="black" stroke-width="1" />
<rect x="29" y="126" width="16" height="5" style="fill:#5d3c2d;stroke:black;stroke-width:1;fill-opacity:1;stroke-opacity:0.3" />
<rect x="551" y="126" width="17" height="5" style="fill:#5d3c2d;stroke:black;stroke-width:1;fill-opacity:1;stroke-opacity:0.3" />
<line x1="53" y1="135" x2="55" y2="137" stroke="black" stroke-width="1" />
<line x1="55" y1="137" x2="57" y2="135" stroke="black" stroke-width="1" />
<rect x="36" y="133" width="17" height="5" style="fill:#5d3c2d;stroke:black;stroke-width:1;fill-opacity:1;stroke-opacity:0.3" />
<rect x="57" y="133" width="18" height="5" style="fill:#5d3c2d;stroke:black;stroke-width:1;fill-opacity:1;stroke-opacity:0.3" />
<line x1="114" y1="37" x2="365" y2="39" stroke="black" stroke-width="1" />
<line x1="365" y1="39" x2="616" y2="37" stroke="black" stroke-width="1" />
<rect x="98" y="35" width="16" height="5" style="fill:#5d3c2d;stroke:black;stroke-width:1;fill-opacity:1;stroke-opacity:0.3" />
<rect x="616" y="35" width="18" height="5" style="fill:#5d3c2d;stroke:black;stroke-width:1;fill-opacity:1;stroke-opacity:0.3" />
<line x1="124" y1="51" x2="376" y2="53" stroke="black" stroke-width="1" />
<line x1="376" y1="53" x2="629" y2="51" stroke="black" stroke-width="1" />
<rect x="106" y="49" width="18" height="5" style="fill:#5d3c2d;stroke:black;stroke-width:1;fill-opacity:1;stroke-opacity:0.3" />
<rect x="629" y="49" width="18" height="5" style="fill:#5d3c2d;stroke:black;stroke-width:1;fill-opacity:1;stroke-opacity:0.3" />
<line x1="126" y1="58" x2="377" y2="60" stroke="black" stroke-width="1" />
<line x1="377" y1="60" x2="629" y2="58" stroke="black" stroke-width="1" />
<rect x="107" y="56" width="18" height="5" style="fill:#5d3c2d;stroke:black;stroke-width:1;fill-opacity:1;stroke-opacity:0.3" />
<rect x="629" y="56" width="18" height="5" style="fill:#5d3c2d;stroke:black;stroke-width:1;fill-opacity:1;stroke-opacity:0.3" />
<line x1="170" y1="135" x2="172" y2="137" stroke="black" stroke-width="1" />
<line x1="172" y1="137" x2="174" y2="135" stroke="black" stroke-width="1" />
<rect x="154" y="133" width="16" height="5" style="fill:#5d3c2d;stroke:black;stroke-width:1;fill-opacity:1;stroke-opacity:0.3" />
<rect x="174" y="133" width="18" height="5" style="fill:#5d3c2d;stroke:black;stroke-width:1;fill-opacity:1;stroke-opacity:0.3" />
<line x1="170" y1="142" x2="175" y2="144" stroke="black" stroke-width="1" />
<line x1="175" y1="144" x2="181" y2="142" stroke="black" stroke-width="1" />
<rect x="155" y="140" width="15" height="5" style="fill:#5d3c2d;stroke:black;stroke-width:1;fill-opacity:1;stroke-opacity:0.3" />
<rect x="181" y="140" width="18" height="5" style="fill:#5d3c2d;stroke:black;stroke-width:1;fill-opacity:1;stroke-opacity:0.3" />
<line x1="167" y1="149" x2="170" y2="151" stroke="black" stroke-width="1" />
<line x1="170" y1="151" x2="174" y2="149" stroke="black" stroke-width="1" />
<rect x="155" y="147" width="12" height="5" style="fill:#f5b024;stroke:black;stroke-width:1;fill-opacity:1;stroke-opacity:0.3" />
<rect x="174" y="147" width="12" height="5" style="fill:#f5b024;stroke:black;stroke-width:1;fill-opacity:1;stroke-opacity:0.3" />
<line x1="173" y1="156" x2="177" y2="158" stroke="black" stroke-width="1" />
<line x1="177" y1="158" x2="181" y2="156" stroke="black" stroke-width="1" />
<rect x="156" y="154" width="17" height="5" style="fill:#5d3c2d;stroke:black;stroke-width:1;fill-opacity:1;stroke-opacity:0.3" />
<rect x="181" y="154" width="18" height="5" style="fill:#5d3c2d;stroke:black;stroke-width:1;fill-opacity:1;stroke-opacity:0.3" />
<line x1="169" y1="163" x2="170" y2="165" stroke="black" stroke-width="1" />
<line x1="170" y1="165" x2="172" y2="163" stroke="black" stroke-width="1" />
<rect x="157" y="161" width="12" height="5" style="fill:#5d3c2d;stroke:black;stroke-width:1;fill-opacity:1;stroke-opacity:0.3" />
<rect x="172" y="161" width="12" height="5" style="fill:#5d3c2d;stroke:black;stroke-width:1;fill-opacity:1;stroke-opacity:0.3" />
<line x1="246" y1="135" x2="502" y2="137" stroke="black" stroke-width="1" />
<line x1="502" y1="137" x2="759" y2="135" stroke="black" stroke-width="1" />
<rect x="233" y="133" width="12" height="5" style="fill:#5d3c2d;stroke:black;stroke-width:1;fill-opacity:1;stroke-opacity:0.3" />
<rect x="759" y="133" width="12" height="5" style="fill:#5d3c2d;stroke:black;stroke-width:1;fill-opacity:1;stroke-opacity:0.3" />
<line x1="267" y1="142" x2="592" y2="144" stroke="black" stroke-width="1" />
<line x1="592" y1="144" x2="918" y2="142" stroke="black" stroke-width="1" />
<rect x="255" y="140" width="12" height="5" style="fill:#5d3c2d;stroke:black;stroke-width:1;fill-opacity:1;stroke-opacity:0.3" />
<rect x="918" y="140" width="12" height="5" style="fill:#5d3c2d;stroke:black;stroke-width:1;fill-opacity:1;stroke-opacity:0.3" />
<line x1="269" y1="149" x2="583" y2="151" stroke="black" stroke-width="1" />
<line x1="583" y1="151" x2="897" y2="149" stroke="black" stroke-width="1" />
<rect x="256" y="147" width="12" height="5" style="fill:#5d3c2d;stroke:black;stroke-width:1;fill-opacity:1;stroke-opacity:0.3" />
<rect x="897" y="147" width="12" height="5" style="fill:#5d3c2d;stroke:black;stroke-width:1;fill-opacity:1;stroke-opacity:0.3" />
<line x1="286" y1="156" x2="544" y2="158" stroke="black" stroke-width="1" />
<line x1="544" y1="158" x2="803" y2="156" stroke="black" stroke-width="1" />
<rect x="274" y="154" width="12" height="5" style="fill:#5d3c2d;stroke:black;stroke-width:1;fill-opacity:1;stroke-opacity:0.3" />
<rect x="803" y="154" width="12" height="5" style="fill:#5d3c2d;stroke:black;stroke-width:1;fill-opacity:1;stroke-opacity:0.3" />
<line x1="299" y1="163" x2="618" y2="165" stroke="black" stroke-width="1" />
<line x1="618" y1="165" x2="938" y2="163" stroke="black" stroke-width="1" />
<rect x="287" y="161" width="12" height="5" style="fill:#5d3c2d;stroke:black;stroke-width:1;fill-opacity:1;stroke-opacity:0.3" />
<rect x="938" y="161" width="12" height="5" style="fill:#5d3c2d;stroke:black;stroke-width:1;fill-opacity:1;stroke-opacity:0.3" />
<line x1="799" y1="30" x2="855" y2="32" stroke="black" stroke-width="1" />
<line x1="855" y1="32" x2="912" y2="30" stroke="black" stroke-width="1" />
<rect x="781" y="28" width="18" height="5" style="fill:#5d3c2d;stroke:black;stroke-width:1;fill-opacity:1;stroke-opacity:0.3" />
<rect x="912" y="28" width="18" height="5" style="fill:#5d3c2d;stroke:black;stroke-width:1;fill-opacity:1;stroke-opacity:0.3" />
<line x1="794" y1="37" x2="856" y2="39" stroke="black" stroke-width="1" />
<line x1="856" y1="39" x2="918" y2="37" stroke="black" stroke-width="1" />
<rect x="782" y="35" width="12" height="5" style="fill:#5d3c2d;stroke:black;stroke-width:1;fill-opacity:1;stroke-opacity:0.3" />
<rect x="918" y="35" width="12" height="5" style="fill:#5d3c2d;stroke:black;stroke-width:1;fill-opacity:1;stroke-opacity:0.3" />
<line x1="795" y1="44" x2="856" y2="46" stroke="black" stroke-width="1" />
<line x1="856" y1="46" x2="918" y2="44" stroke="black" stroke-width="1" />
<rect x="782" y="42" width="12" height="5" style="fill:#5d3c2d;stroke:black;stroke-width:1;fill-opacity:1;stroke-opacity:0.3" />
<rect x="918" y="42" width="12" height="5" style="fill:#5d3c2d;stroke:black;stroke-width:1;fill-opacity:1;stroke-opacity:0.3" />
<line x1="795" y1="51" x2="859" y2="53" stroke="black" stroke-width="1" />
<line x1="859" y1="53" x2="923" y2="51" stroke="black" stroke-width="1" />
<rect x="783" y="49" width="12" height="5" style="fill:#5d3c2d;stroke:black;stroke-width:1;fill-opacity:1;stroke-opacity:0.3" />
<rect x="923" y="49" width="12" height="5" style="fill:#5d3c2d;stroke:black;stroke-width:1;fill-opacity:1;stroke-opacity:0.3" />
<line x1="797" y1="58" x2="859" y2="60" stroke="black" stroke-width="1" />
<line x1="859" y1="60" x2="922" y2="58" stroke="black" stroke-width="1" />
<rect x="785" y="56" width="12" height="5" style="fill:#5d3c2d;stroke:black;stroke-width:1;fill-opacity:1;stroke-opacity:0.3" />
<rect x="922" y="56" width="12" height="5" style="fill:#5d3c2d;stroke:black;stroke-width:1;fill-opacity:1;stroke-opacity:0.3" />
<line x1="798" y1="65" x2="864" y2="67" stroke="black" stroke-width="1" />
<line x1="864" y1="67" x2="930" y2="65" stroke="black" stroke-width="1" />
<rect x="785" y="63" width="12" height="5" style="fill:#5d3c2d;stroke:black;stroke-width:1;fill-opacity:1;stroke-opacity:0.3" />
<rect x="930" y="63" width="12" height="5" style="fill:#5d3c2d;stroke:black;stroke-width:1;fill-opacity:1;stroke-opacity:0.3" />
<line x1="811" y1="72" x2="877" y2="74" stroke="black" stroke-width="1" />
<line x1="877" y1="74" x2="943" y2="72" stroke="black" stroke-width="1" />
<rect x="798" y="70" width="12" height="5" style="fill:#5d3c2d;stroke:black;stroke-width:1;fill-opacity:1;stroke-opacity:0.3" />
<rect x="943" y="70" width="12" height="5" style="fill:#5d3c2d;stroke:black;stroke-width:1;fill-opacity:1;stroke-opacity:0.3" />
<line x1="811" y1="79" x2="875" y2="81" stroke="black" stroke-width="1" />
<line x1="875" y1="81" x2="940" y2="79" stroke="black" stroke-width="1" />
<rect x="799" y="77" width="12" height="5" style="fill:#5d3c2d;stroke:black;stroke-width:1;fill-opacity:1;stroke-opacity:0.3" />
<rect x="940" y="77" width="12" height="5" style="fill:#5d3c2d;stroke:black;stroke-width:1;fill-opacity:1;stroke-opacity:0.3" />
<line x1="811" y1="86" x2="874" y2="88" stroke="black" stroke-width="1" />
<line x1="874" y1="88" x2="938" y2="86" stroke="black" stroke-width="1" />
<rect x="799" y="84" width="12" height="5" style="fill:#5d3c2d;stroke:black;stroke-width:1;fill-opacity:1;stroke-opacity:0.3" />
<rect x="938" y="84" width="12" height="5" style="fill:#5d3c2d;stroke:black;stroke-width:1;fill-opacity:1;stroke-opacity:0.3" />
<line x1="811" y1="93" x2="874" y2="95" stroke="black" stroke-width="1" />
<line x1="874" y1="95" x2="938" y2="93" stroke="black" stroke-width="1" />
<rect x="799" y="91" width="12" height="5" style="fill:#5d3c2d;stroke:black;stroke-width:1;fill-opacity:1;stroke-opacity:0.3" />
<rect x="938" y="91" width="11" height="5" style="fill:#5d3c2d;stroke:black;stroke-width:1;fill-opacity:1;stroke-opacity:0.3" />
<line x1="812" y1="100" x2="873" y2="102" stroke="black" stroke-width="1" />
<line x1="873" y1="102" x2="935" y2="100" stroke="black" stroke-width="1" />
<rect x="799" y="98" width="12" height="5" style="fill:#f5b024;stroke:black;stroke-width:1;fill-opacity:1;stroke-opacity:0.3" />
<rect x="935" y="98" width="12" height="5" style="fill:#f5b024;stroke:black;stroke-width:1;fill-opacity:1;stroke-opacity:0.3" />
<line x1="812" y1="107" x2="876" y2="109" stroke="black" stroke-width="1" />
<line x1="876" y1="109" x2="941" y2="107" stroke="black" stroke-width="1" />
<rect x="799" y="105" width="12" height="5" style="fill:#f5b024;stroke:black;stroke-width:1;fill-opacity:1;stroke-opacity:0.3" />
<rect x="941" y="105" width="12" height="5" style="fill:#f5b024;stroke:black;stroke-width:1;fill-opacity:1;stroke-opacity:0.3" />
<line x1="812" y1="114" x2="873" y2="116" stroke="black" stroke-width="1" />
<line x1="873" y1="116" x2="935" y2="114" stroke="black" stroke-width="1" />
<rect x="799" y="112" width="12" height="5" style="fill:#5d3c2d;stroke:black;stroke-width:1;fill-opacity:1;stroke-opacity:0.3" />
<rect x="935" y="112" width="12" height="5" style="fill:#5d3c2d;stroke:black;stroke-width:1;fill-opacity:1;stroke-opacity:0.3" />
<line x1="812" y1="121" x2="877" y2="123" stroke="black" stroke-width="1" />
<line x1="877" y1="123" x2="942" y2="121" stroke="black" stroke-width="1" />
<rect x="799" y="119" width="12" height="5" style="fill:#f5b024;stroke:black;stroke-width:1;fill-opacity:1;stroke-opacity:0.3" />
<rect x="942" y="119" width="11" height="5" style="fill:#f5b024;stroke:black;stroke-width:1;fill-opacity:1;stroke-opacity:0.3" />
<line x1="812" y1="128" x2="880" y2="130" stroke="black" stroke-width="1" />
<line x1="880" y1="130" x2="949" y2="128" stroke="black" stroke-width="1" />
<rect x="799" y="126" width="12" height="5" style="fill:#5d3c2d;stroke:black;stroke-width:1;fill-opacity:1;stroke-opacity:0.3" />
<rect x="949" y="126" width="12" height="5" style="fill:#5d3c2d;stroke:black;stroke-width:1;fill-opacity:1;stroke-opacity:0.3" />
<line x1="812" y1="135" x2="875" y2="137" stroke="black" stroke-width="1" />
<line x1="875" y1="137" x2="938" y2="135" stroke="black" stroke-width="1" />
<rect x="799" y="133" width="12" height="5" style="fill:#5d3c2d;stroke:black;stroke-width:1;fill-opacity:1;stroke-opacity:0.3" />
<rect x="938" y="133" width="12" height="5" style="fill:#5d3c2d;stroke:black;stroke-width:1;fill-opacity:1;stroke-opacity:0.3" />
<line x1="923" y1="149" x2="924" y2="151" stroke="black" stroke-width="1" />
<line x1="924" y1="151" x2="925" y2="149" stroke="black" stroke-width="1" />
<rect x="910" y="147" width="12" height="5" style="fill:#5d3c2d;stroke:black;stroke-width:1;fill-opacity:1;stroke-opacity:0.3" />
<rect x="925" y="147" width="12" height="5" style="fill:#5d3c2d;stroke:black;stroke-width:1;fill-opacity:1;stroke-opacity:0.3" />
<line x1="925" y1="156" x2="932" y2="158" stroke="black" stroke-width="1" />
<line x1="932" y1="158" x2="940" y2="156" stroke="black" stroke-width="1" />
<rect x="913" y="154" width="12" height="5" style="fill:#5d3c2d;stroke:black;stroke-width:1;fill-opacity:1;stroke-opacity:0.3" />
<rect x="940" y="154" width="12" height="5" style="fill:#5d3c2d;stroke:black;stroke-width:1;fill-opacity:1;stroke-opacity:0.3" />
<line x1="943" y1="30" x2="948" y2="32" stroke="black" stroke-width="1" />
<line x1="948" y1="32" x2="954" y2="30" stroke="black" stroke-width="1" />
<rect x="931" y="28" width="12" height="5" style="fill:#5d3c2d;stroke:black;stroke-width:1;fill-opacity:1;stroke-opacity:0.3" />
<rect x="954" y="28" width="12" height="5" style="fill:#5d3c2d;stroke:black;stroke-width:1;fill-opacity:1;stroke-opacity:0.3" />
<line x1="944" y1="37" x2="951" y2="39" stroke="black" stroke-width="1" />
<line x1="951" y1="39" x2="958" y2="37" stroke="black" stroke-width="1" />
<rect x="932" y="35" width="12" height="5" style="fill:#5d3c2d;stroke:black;stroke-width:1;fill-opacity:1;stroke-opacity:0.3" />
<rect x="958" y="35" width="12" height="5" style="fill:#5d3c2d;stroke:black;stroke-width:1;fill-opacity:1;stroke-opacity:0.3" />
<line x1="950" y1="44" x2="951" y2="46" stroke="black" stroke-width="1" />
<line x1="951" y1="46" x2="953" y2="44" stroke="black" stroke-width="1" />
<rect x="938" y="42" width="12" height="5" style="fill:#5d3c2d;stroke:black;stroke-width:1;fill-opacity:1;stroke-opacity:0.3" />
<rect x="953" y="42" width="12" height="5" style="fill:#5d3c2d;stroke:black;stroke-width:1;fill-opacity:1;stroke-opacity:0.3" />
<line x1="952" y1="51" x2="955" y2="53" stroke="black" stroke-width="1" />
<line x1="955" y1="53" x2="958" y2="51" stroke="black" stroke-width="1" />
<rect x="940" y="49" width="12" height="5" style="fill:#5d3c2d;stroke:black;stroke-width:1;fill-opacity:1;stroke-opacity:0.3" />
<rect x="958" y="49" width="12" height="5" style="fill:#5d3c2d;stroke:black;stroke-width:1;fill-opacity:1;stroke-opacity:0.3" />
<line x1="957" y1="58" x2="960" y2="60" stroke="black" stroke-width="1" />
<line x1="960" y1="60" x2="963" y2="58" stroke="black" stroke-width="1" />
<rect x="941" y="56" width="16" height="5" style="fill:#f5b024;stroke:black;stroke-width:1;fill-opacity:1;stroke-opacity:0.3" />
<rect x="963" y="56" width="18" height="5" style="fill:#f5b024;stroke:black;stroke-width:1;fill-opacity:1;stroke-opacity:0.3" />
<line x1="954" y1="142" x2="961" y2="144" stroke="black" stroke-width="1" />
<line x1="961" y1="144" x2="968" y2="142" stroke="black" stroke-width="1" />
<rect x="941" y="140" width="12" height="5" style="fill:#5d3c2d;stroke:black;stroke-width:1;fill-opacity:1;stroke-opacity:0.3" />
<rect x="968" y="140" width="12" height="5" style="fill:#5d3c2d;stroke:black;stroke-width:1;fill-opacity:1;stroke-opacity:0.3" />
<line x1="954" y1="149" x2="956" y2="151" stroke="black" stroke-width="1" />
<line x1="956" y1="151" x2="958" y2="149" stroke="black" stroke-width="1" />
<rect x="942" y="147" width="12" height="5" style="fill:#5d3c2d;stroke:black;stroke-width:1;fill-opacity:1;stroke-opacity:0.3" />
<rect x="958" y="147" width="12" height="5" style="fill:#5d3c2d;stroke:black;stroke-width:1;fill-opacity:1;stroke-opacity:0.3" />
<line x1="955" y1="65" x2="956" y2="67" stroke="black" stroke-width="1" />
<line x1="956" y1="67" x2="958" y2="65" stroke="black" stroke-width="1" />
<rect x="943" y="63" width="12" height="5" style="fill:#5d3c2d;stroke:black;stroke-width:1;fill-opacity:1;stroke-opacity:0.3" />
<rect x="958" y="63" width="12" height="5" style="fill:#5d3c2d;stroke:black;stroke-width:1;fill-opacity:1;stroke-opacity:0.3" />
<line x1="961" y1="100" x2="967" y2="102" stroke="black" stroke-width="1" />
<line x1="967" y1="102" x2="973" y2="100" stroke="black" stroke-width="1" />
<rect x="948" y="98" width="12" height="5" style="fill:#5d3c2d;stroke:black;stroke-width:1;fill-opacity:1;stroke-opacity:0.3" />
<rect x="973" y="98" width="12" height="5" style="fill:#5d3c2d;stroke:black;stroke-width:1;fill-opacity:1;stroke-opacity:0.3" />
<line x1="984" y1="30" x2="985" y2="32" stroke="black" stroke-width="1" />
<line x1="985" y1="32" x2="987" y2="30" stroke="black" stroke-width="1" />
<rect x="972" y="28" width="12" height="5" style="fill:#f5b024;stroke:black;stroke-width:1;fill-opacity:1;stroke-opacity:0.3" />
<rect x="987" y="28" width="12" height="5" style="fill:#f5b024;stroke:black;stroke-width:1;fill-opacity:1;stroke-opacity:0.3" />
<text x="15"  y="176" style="font-family:Arial;font-size:10;stroke:black;fill:black;">all.merged.bam</text>
</svg>
    
