<?xml version="1.0" encoding="utf-8" standalone="no"?>
<!DOCTYPE svg PUBLIC "-//W3C//DTD SVG 1.1//EN"
  "http://www.w3.org/Graphics/SVG/1.1/DTD/svg11.dtd">
<svg height="1140" width="1000" version="1.1" viewBox="0 0 1000 1140" xmlns="http://www.w3.org/2000/svg" xmlns:xlink="http://www.w3.org/1999/xlink">
<line x1="50" y1="11" x2="949" y2="11" stroke="black" stroke-width="1" />
<rect x="50" y="9" width="334" height="5" style="fill:#f50002;stroke:black;stroke-width:1;fill-opacity:1;stroke-opacity:0.3" />
<rect x="385" y="9" width="105" height="5" style="fill:#53a1b5;stroke:black;stroke-width:1;fill-opacity:1;stroke-opacity:0.3" />
<rect x="571" y="9" width="2" height="5" style="fill:#53a1b5;stroke:black;stroke-width:1;fill-opacity:1;stroke-opacity:0.3" />
<rect x="573" y="9" width="375" height="5" style="fill:#f50002;stroke:black;stroke-width:1;fill-opacity:1;stroke-opacity:0.3" />
<text x="50"  y="23" style="font-family:Arial;font-size:10;stroke:black;fill:black;">Cre22.g753597.t2.1.v5.5 (+) scaffold_22:30496-32277</text>
<line x1="74" y1="30" x2="77" y2="32" stroke="black" stroke-width="1" />
<line x1="77" y1="32" x2="81" y2="30" stroke="black" stroke-width="1" />
<rect x="24" y="28" width="50" height="5" style="fill:#f5b024;stroke:black;stroke-width:1;fill-opacity:1;stroke-opacity:0.3" />
<rect x="81" y="28" width="50" height="5" style="fill:#f5b024;stroke:black;stroke-width:1;fill-opacity:1;stroke-opacity:0.3" />
<line x1="88" y1="37" x2="93" y2="39" stroke="black" stroke-width="1" />
<line x1="93" y1="39" x2="99" y2="37" stroke="black" stroke-width="1" />
<rect x="38" y="35" width="50" height="5" style="fill:#f5b024;stroke:black;stroke-width:1;fill-opacity:1;stroke-opacity:0.3" />
<rect x="99" y="35" width="50" height="5" style="fill:#f5b024;stroke:black;stroke-width:1;fill-opacity:1;stroke-opacity:0.3" />
<line x1="97" y1="44" x2="102" y2="46" stroke="black" stroke-width="1" />
<line x1="102" y1="46" x2="108" y2="44" stroke="black" stroke-width="1" />
<rect x="46" y="42" width="50" height="5" style="fill:#5d3c2d;stroke:black;stroke-width:1;fill-opacity:1;stroke-opacity:0.3" />
<rect x="108" y="42" width="50" height="5" style="fill:#5d3c2d;stroke:black;stroke-width:1;fill-opacity:1;stroke-opacity:0.3" />
<line x1="213" y1="30" x2="216" y2="32" stroke="black" stroke-width="1" />
<line x1="216" y1="32" x2="219" y2="30" stroke="black" stroke-width="1" />
<rect x="163" y="28" width="49" height="5" style="fill:#f5b024;stroke:black;stroke-width:1;fill-opacity:1;stroke-opacity:0.3" />
<rect x="219" y="28" width="50" height="5" style="fill:#f5b024;stroke:black;stroke-width:1;fill-opacity:1;stroke-opacity:0.3" />
<line x1="296" y1="37" x2="304" y2="39" stroke="black" stroke-width="1" />
<line x1="304" y1="39" x2="313" y2="37" stroke="black" stroke-width="1" />
<rect x="246" y="35" width="50" height="5" style="fill:#5d3c2d;stroke:black;stroke-width:1;fill-opacity:1;stroke-opacity:0.3" />
<rect x="313" y="35" width="50" height="5" style="fill:#5d3c2d;stroke:black;stroke-width:1;fill-opacity:1;stroke-opacity:0.3" />
<line x1="329" y1="44" x2="332" y2="46" stroke="black" stroke-width="1" />
<line x1="332" y1="46" x2="335" y2="44" stroke="black" stroke-width="1" />
<rect x="253" y="42" width="75" height="5" style="fill:#5d3c2d;stroke:black;stroke-width:1;fill-opacity:1;stroke-opacity:0.3" />
<rect x="335" y="42" width="75" height="5" style="fill:#5d3c2d;stroke:black;stroke-width:1;fill-opacity:1;stroke-opacity:0.3" />
<line x1="357" y1="30" x2="380" y2="32" stroke="black" stroke-width="1" />
<line x1="380" y1="32" x2="403" y2="30" stroke="black" stroke-width="1" />
<rect x="306" y="28" width="50" height="5" style="fill:#5d3c2d;stroke:black;stroke-width:1;fill-opacity:1;stroke-opacity:0.3" />
<rect x="403" y="28" width="45" height="5" style="fill:#5d3c2d;stroke:black;stroke-width:1;fill-opacity:1;stroke-opacity:0.3" />
<line x1="361" y1="51" x2="364" y2="53" stroke="black" stroke-width="1" />
<line x1="364" y1="53" x2="367" y2="51" stroke="black" stroke-width="1" />
<rect x="310" y="49" width="50" height="5" style="fill:#5d3c2d;stroke:black;stroke-width:1;fill-opacity:1;stroke-opacity:0.3" />
<rect x="367" y="49" width="48" height="5" style="fill:#5d3c2d;stroke:black;stroke-width:1;fill-opacity:1;stroke-opacity:0.3" />
<line x1="397" y1="58" x2="417" y2="60" stroke="black" stroke-width="1" />
<line x1="417" y1="60" x2="437" y2="58" stroke="black" stroke-width="1" />
<rect x="322" y="56" width="74" height="5" style="fill:#5d3c2d;stroke:black;stroke-width:1;fill-opacity:1;stroke-opacity:0.3" />
<rect x="437" y="56" width="54" height="5" style="fill:#5d3c2d;stroke:black;stroke-width:1;fill-opacity:1;stroke-opacity:0.3" />
<line x1="491" y1="58" x2="571" y2="58" stroke="pink" stroke-width="1" />
<rect x="571" y="56" width="21" height="5" style="fill:#5d3c2d;stroke:black;stroke-width:1;fill-opacity:1;stroke-opacity:0.3" />
<line x1="385" y1="65" x2="395" y2="67" stroke="black" stroke-width="1" />
<line x1="395" y1="67" x2="406" y2="65" stroke="black" stroke-width="1" />
<rect x="335" y="63" width="50" height="5" style="fill:#5d3c2d;stroke:black;stroke-width:1;fill-opacity:1;stroke-opacity:0.3" />
<rect x="406" y="63" width="50" height="5" style="fill:#5d3c2d;stroke:black;stroke-width:1;fill-opacity:1;stroke-opacity:0.3" />
<line x1="390" y1="72" x2="404" y2="74" stroke="black" stroke-width="1" />
<line x1="404" y1="74" x2="418" y2="72" stroke="black" stroke-width="1" />
<rect x="340" y="70" width="50" height="5" style="fill:#5d3c2d;stroke:black;stroke-width:1;fill-opacity:1;stroke-opacity:0.3" />
<rect x="418" y="70" width="50" height="5" style="fill:#5d3c2d;stroke:black;stroke-width:1;fill-opacity:1;stroke-opacity:0.3" />
<line x1="421" y1="79" x2="436" y2="81" stroke="black" stroke-width="1" />
<line x1="436" y1="81" x2="451" y2="79" stroke="black" stroke-width="1" />
<rect x="345" y="77" width="75" height="5" style="fill:#5d3c2d;stroke:black;stroke-width:1;fill-opacity:1;stroke-opacity:0.3" />
<rect x="451" y="77" width="40" height="5" style="fill:#5d3c2d;stroke:black;stroke-width:1;fill-opacity:1;stroke-opacity:0.3" />
<line x1="491" y1="79" x2="571" y2="79" stroke="pink" stroke-width="1" />
<rect x="571" y="77" width="29" height="5" style="fill:#5d3c2d;stroke:black;stroke-width:1;fill-opacity:1;stroke-opacity:0.3" />
<line x1="425" y1="86" x2="453" y2="88" stroke="black" stroke-width="1" />
<line x1="453" y1="88" x2="481" y2="86" stroke="black" stroke-width="1" />
<rect x="349" y="84" width="75" height="5" style="fill:#5d3c2d;stroke:black;stroke-width:1;fill-opacity:1;stroke-opacity:0.3" />
<rect x="481" y="84" width="10" height="5" style="fill:#5d3c2d;stroke:black;stroke-width:1;fill-opacity:1;stroke-opacity:0.3" />
<line x1="491" y1="86" x2="571" y2="86" stroke="pink" stroke-width="1" />
<rect x="571" y="84" width="65" height="5" style="fill:#5d3c2d;stroke:black;stroke-width:1;fill-opacity:1;stroke-opacity:0.3" />
<line x1="425" y1="37" x2="433" y2="39" stroke="black" stroke-width="1" />
<line x1="433" y1="39" x2="441" y2="37" stroke="black" stroke-width="1" />
<rect x="375" y="35" width="50" height="5" style="fill:#5d3c2d;stroke:black;stroke-width:1;fill-opacity:1;stroke-opacity:0.3" />
<rect x="441" y="35" width="49" height="5" style="fill:#5d3c2d;stroke:black;stroke-width:1;fill-opacity:1;stroke-opacity:0.3" />
<line x1="491" y1="37" x2="571" y2="37" stroke="pink" stroke-width="1" />
<rect x="571" y="35" width="0" height="5" style="fill:#5d3c2d;stroke:black;stroke-width:1;fill-opacity:1;stroke-opacity:0.3" />
<line x1="426" y1="93" x2="500" y2="95" stroke="black" stroke-width="1" />
<line x1="500" y1="95" x2="574" y2="93" stroke="black" stroke-width="1" />
<rect x="376" y="91" width="50" height="5" style="fill:#5d3c2d;stroke:black;stroke-width:1;fill-opacity:1;stroke-opacity:0.3" />
<rect x="574" y="91" width="50" height="5" style="fill:#5d3c2d;stroke:black;stroke-width:1;fill-opacity:1;stroke-opacity:0.3" />
<line x1="426" y1="100" x2="431" y2="102" stroke="black" stroke-width="1" />
<line x1="431" y1="102" x2="436" y2="100" stroke="black" stroke-width="1" />
<rect x="376" y="98" width="50" height="5" style="fill:#5d3c2d;stroke:black;stroke-width:1;fill-opacity:1;stroke-opacity:0.3" />
<rect x="436" y="98" width="50" height="5" style="fill:#5d3c2d;stroke:black;stroke-width:1;fill-opacity:1;stroke-opacity:0.3" />
<line x1="430" y1="107" x2="435" y2="109" stroke="black" stroke-width="1" />
<line x1="435" y1="109" x2="441" y2="107" stroke="black" stroke-width="1" />
<rect x="379" y="105" width="50" height="5" style="fill:#5d3c2d;stroke:black;stroke-width:1;fill-opacity:1;stroke-opacity:0.3" />
<rect x="441" y="105" width="50" height="5" style="fill:#5d3c2d;stroke:black;stroke-width:1;fill-opacity:1;stroke-opacity:0.3" />
<line x1="430" y1="114" x2="450" y2="116" stroke="black" stroke-width="1" />
<line x1="450" y1="116" x2="470" y2="114" stroke="black" stroke-width="1" />
<rect x="380" y="112" width="50" height="5" style="fill:#f5b024;stroke:black;stroke-width:1;fill-opacity:1;stroke-opacity:0.3" />
<rect x="470" y="112" width="21" height="5" style="fill:#f5b024;stroke:black;stroke-width:1;fill-opacity:1;stroke-opacity:0.3" />
<line x1="491" y1="114" x2="571" y2="114" stroke="pink" stroke-width="1" />
<rect x="571" y="112" width="22" height="5" style="fill:#f5b024;stroke:black;stroke-width:1;fill-opacity:1;stroke-opacity:0.3" />
<line x1="431" y1="121" x2="435" y2="123" stroke="black" stroke-width="1" />
<line x1="435" y1="123" x2="439" y2="121" stroke="black" stroke-width="1" />
<rect x="380" y="119" width="50" height="5" style="fill:#5d3c2d;stroke:black;stroke-width:1;fill-opacity:1;stroke-opacity:0.3" />
<rect x="439" y="119" width="50" height="5" style="fill:#5d3c2d;stroke:black;stroke-width:1;fill-opacity:1;stroke-opacity:0.3" />
<line x1="431" y1="128" x2="435" y2="130" stroke="black" stroke-width="1" />
<line x1="435" y1="130" x2="439" y2="128" stroke="black" stroke-width="1" />
<rect x="380" y="126" width="50" height="5" style="fill:#5d3c2d;stroke:black;stroke-width:1;fill-opacity:1;stroke-opacity:0.3" />
<rect x="439" y="126" width="50" height="5" style="fill:#5d3c2d;stroke:black;stroke-width:1;fill-opacity:1;stroke-opacity:0.3" />
<line x1="431" y1="135" x2="449" y2="137" stroke="black" stroke-width="1" />
<line x1="449" y1="137" x2="468" y2="135" stroke="black" stroke-width="1" />
<rect x="381" y="133" width="50" height="5" style="fill:#5d3c2d;stroke:black;stroke-width:1;fill-opacity:1;stroke-opacity:0.3" />
<rect x="468" y="133" width="23" height="5" style="fill:#5d3c2d;stroke:black;stroke-width:1;fill-opacity:1;stroke-opacity:0.3" />
<line x1="491" y1="135" x2="571" y2="135" stroke="pink" stroke-width="1" />
<rect x="571" y="133" width="25" height="5" style="fill:#5d3c2d;stroke:black;stroke-width:1;fill-opacity:1;stroke-opacity:0.3" />
<line x1="457" y1="142" x2="463" y2="144" stroke="black" stroke-width="1" />
<line x1="463" y1="144" x2="469" y2="142" stroke="black" stroke-width="1" />
<rect x="381" y="140" width="75" height="5" style="fill:#5d3c2d;stroke:black;stroke-width:1;fill-opacity:1;stroke-opacity:0.3" />
<rect x="469" y="140" width="22" height="5" style="fill:#5d3c2d;stroke:black;stroke-width:1;fill-opacity:1;stroke-opacity:0.3" />
<line x1="491" y1="142" x2="571" y2="142" stroke="pink" stroke-width="1" />
<rect x="571" y="140" width="52" height="5" style="fill:#5d3c2d;stroke:black;stroke-width:1;fill-opacity:1;stroke-opacity:0.3" />
<line x1="438" y1="149" x2="446" y2="151" stroke="black" stroke-width="1" />
<line x1="446" y1="151" x2="454" y2="149" stroke="black" stroke-width="1" />
<rect x="387" y="147" width="50" height="5" style="fill:#5d3c2d;stroke:black;stroke-width:1;fill-opacity:1;stroke-opacity:0.3" />
<rect x="454" y="147" width="37" height="5" style="fill:#5d3c2d;stroke:black;stroke-width:1;fill-opacity:1;stroke-opacity:0.3" />
<line x1="491" y1="149" x2="571" y2="149" stroke="pink" stroke-width="1" />
<rect x="571" y="147" width="9" height="5" style="fill:#5d3c2d;stroke:black;stroke-width:1;fill-opacity:1;stroke-opacity:0.3" />
<line x1="444" y1="156" x2="446" y2="158" stroke="black" stroke-width="1" />
<line x1="446" y1="158" x2="449" y2="156" stroke="black" stroke-width="1" />
<rect x="394" y="154" width="50" height="5" style="fill:#5d3c2d;stroke:black;stroke-width:1;fill-opacity:1;stroke-opacity:0.3" />
<rect x="449" y="154" width="42" height="5" style="fill:#5d3c2d;stroke:black;stroke-width:1;fill-opacity:1;stroke-opacity:0.3" />
<line x1="491" y1="156" x2="571" y2="156" stroke="pink" stroke-width="1" />
<rect x="571" y="154" width="8" height="5" style="fill:#5d3c2d;stroke:black;stroke-width:1;fill-opacity:1;stroke-opacity:0.3" />
<line x1="470" y1="163" x2="478" y2="165" stroke="black" stroke-width="1" />
<line x1="478" y1="165" x2="486" y2="163" stroke="black" stroke-width="1" />
<rect x="394" y="161" width="75" height="5" style="fill:#5d3c2d;stroke:black;stroke-width:1;fill-opacity:1;stroke-opacity:0.3" />
<rect x="486" y="161" width="5" height="5" style="fill:#5d3c2d;stroke:black;stroke-width:1;fill-opacity:1;stroke-opacity:0.3" />
<line x1="491" y1="163" x2="571" y2="163" stroke="pink" stroke-width="1" />
<rect x="571" y="161" width="70" height="5" style="fill:#5d3c2d;stroke:black;stroke-width:1;fill-opacity:1;stroke-opacity:0.3" />
<line x1="483" y1="44" x2="534" y2="46" stroke="black" stroke-width="1" />
<line x1="534" y1="46" x2="585" y2="44" stroke="black" stroke-width="1" />
<rect x="433" y="42" width="50" height="5" style="fill:#5d3c2d;stroke:black;stroke-width:1;fill-opacity:1;stroke-opacity:0.3" />
<rect x="585" y="42" width="49" height="5" style="fill:#5d3c2d;stroke:black;stroke-width:1;fill-opacity:1;stroke-opacity:0.3" />
<line x1="635" y1="44" x2="836" y2="44" stroke="pink" stroke-width="1" />
<rect x="836" y="42" width="0" height="5" style="fill:#5d3c2d;stroke:black;stroke-width:1;fill-opacity:1;stroke-opacity:0.3" />
<line x1="483" y1="51" x2="534" y2="53" stroke="black" stroke-width="1" />
<line x1="534" y1="53" x2="586" y2="51" stroke="black" stroke-width="1" />
<rect x="433" y="49" width="50" height="5" style="fill:#5d3c2d;stroke:black;stroke-width:1;fill-opacity:1;stroke-opacity:0.3" />
<rect x="586" y="49" width="48" height="5" style="fill:#5d3c2d;stroke:black;stroke-width:1;fill-opacity:1;stroke-opacity:0.3" />
<line x1="635" y1="51" x2="836" y2="51" stroke="pink" stroke-width="1" />
<rect x="836" y="49" width="1" height="5" style="fill:#5d3c2d;stroke:black;stroke-width:1;fill-opacity:1;stroke-opacity:0.3" />
<line x1="592" y1="30" x2="594" y2="32" stroke="black" stroke-width="1" />
<line x1="594" y1="32" x2="597" y2="30" stroke="black" stroke-width="1" />
<rect x="462" y="28" width="29" height="5" style="fill:#5d3c2d;stroke:black;stroke-width:1;fill-opacity:1;stroke-opacity:0.3" />
<line x1="491" y1="30" x2="571" y2="30" stroke="pink" stroke-width="1" />
<rect x="571" y="28" width="21" height="5" style="fill:#5d3c2d;stroke:black;stroke-width:1;fill-opacity:1;stroke-opacity:0.3" />
<rect x="597" y="28" width="38" height="5" style="fill:#5d3c2d;stroke:black;stroke-width:1;fill-opacity:1;stroke-opacity:0.3" />
<line x1="635" y1="30" x2="836" y2="30" stroke="pink" stroke-width="1" />
<rect x="836" y="28" width="12" height="5" style="fill:#5d3c2d;stroke:black;stroke-width:1;fill-opacity:1;stroke-opacity:0.3" />
<line x1="598" y1="65" x2="601" y2="67" stroke="black" stroke-width="1" />
<line x1="601" y1="67" x2="604" y2="65" stroke="black" stroke-width="1" />
<rect x="468" y="63" width="23" height="5" style="fill:#5d3c2d;stroke:black;stroke-width:1;fill-opacity:1;stroke-opacity:0.3" />
<line x1="491" y1="65" x2="571" y2="65" stroke="pink" stroke-width="1" />
<rect x="571" y="63" width="27" height="5" style="fill:#5d3c2d;stroke:black;stroke-width:1;fill-opacity:1;stroke-opacity:0.3" />
<rect x="604" y="63" width="30" height="5" style="fill:#5d3c2d;stroke:black;stroke-width:1;fill-opacity:1;stroke-opacity:0.3" />
<line x1="635" y1="65" x2="836" y2="65" stroke="pink" stroke-width="1" />
<rect x="836" y="63" width="19" height="5" style="fill:#5d3c2d;stroke:black;stroke-width:1;fill-opacity:1;stroke-opacity:0.3" />
<line x1="598" y1="72" x2="601" y2="74" stroke="black" stroke-width="1" />
<line x1="601" y1="74" x2="604" y2="72" stroke="black" stroke-width="1" />
<rect x="469" y="70" width="22" height="5" style="fill:#5d3c2d;stroke:black;stroke-width:1;fill-opacity:1;stroke-opacity:0.3" />
<line x1="491" y1="72" x2="571" y2="72" stroke="pink" stroke-width="1" />
<rect x="571" y="70" width="27" height="5" style="fill:#5d3c2d;stroke:black;stroke-width:1;fill-opacity:1;stroke-opacity:0.3" />
<rect x="604" y="70" width="30" height="5" style="fill:#5d3c2d;stroke:black;stroke-width:1;fill-opacity:1;stroke-opacity:0.3" />
<line x1="635" y1="72" x2="836" y2="72" stroke="pink" stroke-width="1" />
<rect x="836" y="70" width="19" height="5" style="fill:#5d3c2d;stroke:black;stroke-width:1;fill-opacity:1;stroke-opacity:0.3" />
<line x1="644" y1="37" x2="667" y2="39" stroke="black" stroke-width="1" />
<line x1="667" y1="39" x2="691" y2="37" stroke="black" stroke-width="1" />
<rect x="594" y="35" width="50" height="5" style="fill:#5d3c2d;stroke:black;stroke-width:1;fill-opacity:1;stroke-opacity:0.3" />
<rect x="691" y="35" width="50" height="5" style="fill:#5d3c2d;stroke:black;stroke-width:1;fill-opacity:1;stroke-opacity:0.3" />
<line x1="670" y1="58" x2="680" y2="60" stroke="black" stroke-width="1" />
<line x1="680" y1="60" x2="690" y2="58" stroke="black" stroke-width="1" />
<rect x="620" y="56" width="50" height="5" style="fill:#5d3c2d;stroke:black;stroke-width:1;fill-opacity:1;stroke-opacity:0.3" />
<rect x="690" y="56" width="50" height="5" style="fill:#5d3c2d;stroke:black;stroke-width:1;fill-opacity:1;stroke-opacity:0.3" />
<line x1="675" y1="79" x2="679" y2="81" stroke="black" stroke-width="1" />
<line x1="679" y1="81" x2="683" y2="79" stroke="black" stroke-width="1" />
<rect x="625" y="77" width="50" height="5" style="fill:#f5b024;stroke:black;stroke-width:1;fill-opacity:1;stroke-opacity:0.3" />
<rect x="683" y="77" width="50" height="5" style="fill:#f5b024;stroke:black;stroke-width:1;fill-opacity:1;stroke-opacity:0.3" />
<line x1="737" y1="86" x2="746" y2="88" stroke="black" stroke-width="1" />
<line x1="746" y1="88" x2="756" y2="86" stroke="black" stroke-width="1" />
<rect x="686" y="84" width="50" height="5" style="fill:#5d3c2d;stroke:black;stroke-width:1;fill-opacity:1;stroke-opacity:0.3" />
<rect x="756" y="84" width="50" height="5" style="fill:#5d3c2d;stroke:black;stroke-width:1;fill-opacity:1;stroke-opacity:0.3" />
<line x1="790" y1="93" x2="793" y2="95" stroke="black" stroke-width="1" />
<line x1="793" y1="95" x2="797" y2="93" stroke="black" stroke-width="1" />
<rect x="714" y="91" width="75" height="5" style="fill:#5d3c2d;stroke:black;stroke-width:1;fill-opacity:1;stroke-opacity:0.3" />
<rect x="797" y="91" width="75" height="5" style="fill:#5d3c2d;stroke:black;stroke-width:1;fill-opacity:1;stroke-opacity:0.3" />
<line x1="773" y1="100" x2="787" y2="102" stroke="black" stroke-width="1" />
<line x1="787" y1="102" x2="801" y2="100" stroke="black" stroke-width="1" />
<rect x="723" y="98" width="50" height="5" style="fill:#5d3c2d;stroke:black;stroke-width:1;fill-opacity:1;stroke-opacity:0.3" />
<rect x="801" y="98" width="49" height="5" style="fill:#5d3c2d;stroke:black;stroke-width:1;fill-opacity:1;stroke-opacity:0.3" />
<line x1="780" y1="107" x2="786" y2="109" stroke="black" stroke-width="1" />
<line x1="786" y1="109" x2="792" y2="107" stroke="black" stroke-width="1" />
<rect x="730" y="105" width="50" height="5" style="fill:#5d3c2d;stroke:black;stroke-width:1;fill-opacity:1;stroke-opacity:0.3" />
<rect x="792" y="105" width="50" height="5" style="fill:#5d3c2d;stroke:black;stroke-width:1;fill-opacity:1;stroke-opacity:0.3" />
<line x1="786" y1="79" x2="790" y2="81" stroke="black" stroke-width="1" />
<line x1="790" y1="81" x2="795" y2="79" stroke="black" stroke-width="1" />
<rect x="736" y="77" width="49" height="5" style="fill:#5d3c2d;stroke:black;stroke-width:1;fill-opacity:1;stroke-opacity:0.3" />
<rect x="795" y="77" width="50" height="5" style="fill:#5d3c2d;stroke:black;stroke-width:1;fill-opacity:1;stroke-opacity:0.3" />
<line x1="811" y1="114" x2="821" y2="116" stroke="black" stroke-width="1" />
<line x1="821" y1="116" x2="831" y2="114" stroke="black" stroke-width="1" />
<rect x="736" y="112" width="75" height="5" style="fill:#5d3c2d;stroke:black;stroke-width:1;fill-opacity:1;stroke-opacity:0.3" />
<rect x="831" y="112" width="75" height="5" style="fill:#5d3c2d;stroke:black;stroke-width:1;fill-opacity:1;stroke-opacity:0.3" />
<line x1="790" y1="121" x2="794" y2="123" stroke="black" stroke-width="1" />
<line x1="794" y1="123" x2="798" y2="121" stroke="black" stroke-width="1" />
<rect x="739" y="119" width="50" height="5" style="fill:#5d3c2d;stroke:black;stroke-width:1;fill-opacity:1;stroke-opacity:0.3" />
<rect x="798" y="119" width="50" height="5" style="fill:#5d3c2d;stroke:black;stroke-width:1;fill-opacity:1;stroke-opacity:0.3" />
<line x1="819" y1="37" x2="823" y2="39" stroke="black" stroke-width="1" />
<line x1="823" y1="39" x2="827" y2="37" stroke="black" stroke-width="1" />
<rect x="743" y="35" width="75" height="5" style="fill:#5d3c2d;stroke:black;stroke-width:1;fill-opacity:1;stroke-opacity:0.3" />
<rect x="827" y="35" width="75" height="5" style="fill:#5d3c2d;stroke:black;stroke-width:1;fill-opacity:1;stroke-opacity:0.3" />
<line x1="803" y1="58" x2="816" y2="60" stroke="black" stroke-width="1" />
<line x1="816" y1="60" x2="829" y2="58" stroke="black" stroke-width="1" />
<rect x="752" y="56" width="50" height="5" style="fill:#f5b024;stroke:black;stroke-width:1;fill-opacity:1;stroke-opacity:0.3" />
<rect x="829" y="56" width="50" height="5" style="fill:#f5b024;stroke:black;stroke-width:1;fill-opacity:1;stroke-opacity:0.3" />
<text x="15"  y="176" style="font-family:Arial;font-size:10;stroke:black;fill:black;">all.merged.bam</text>
</svg>
    
