<?xml version="1.0" encoding="utf-8" standalone="no"?>
<!DOCTYPE svg PUBLIC "-//W3C//DTD SVG 1.1//EN"
  "http://www.w3.org/Graphics/SVG/1.1/DTD/svg11.dtd">
<svg height="1140" width="1000" version="1.1" viewBox="0 0 1000 1140" xmlns="http://www.w3.org/2000/svg" xmlns:xlink="http://www.w3.org/1999/xlink">
<line x1="16" y1="11" x2="982" y2="11" stroke="black" stroke-width="1" />
<rect x="16" y="9" width="85" height="5" style="fill:#f50002;stroke:black;stroke-width:1;fill-opacity:1;stroke-opacity:0.3" />
<rect x="103" y="9" width="1" height="5" style="fill:#53a1b5;stroke:black;stroke-width:1;fill-opacity:1;stroke-opacity:0.3" />
<rect x="136" y="9" width="512" height="5" style="fill:#53a1b5;stroke:black;stroke-width:1;fill-opacity:1;stroke-opacity:0.3" />
<rect x="677" y="9" width="202" height="5" style="fill:#53a1b5;stroke:black;stroke-width:1;fill-opacity:1;stroke-opacity:0.3" />
<rect x="908" y="9" width="0" height="5" style="fill:#53a1b5;stroke:black;stroke-width:1;fill-opacity:1;stroke-opacity:0.3" />
<rect x="909" y="9" width="73" height="5" style="fill:#f50002;stroke:black;stroke-width:1;fill-opacity:1;stroke-opacity:0.3" />
<text x="16"  y="23" style="font-family:Arial;font-size:10;stroke:black;fill:black;">Cre20.g751647.t1.1.v5.5 (+) scaffold_20:26976-32697</text>
<line x1="23" y1="30" x2="455" y2="32" stroke="black" stroke-width="1" />
<line x1="455" y1="32" x2="887" y2="30" stroke="black" stroke-width="1" />
<rect x="0" y="28" width="23" height="5" style="fill:#5d3c2d;stroke:black;stroke-width:1;fill-opacity:1;stroke-opacity:0.3" />
<rect x="887" y="28" width="23" height="5" style="fill:#5d3c2d;stroke:black;stroke-width:1;fill-opacity:1;stroke-opacity:0.3" />
<line x1="17" y1="37" x2="456" y2="39" stroke="black" stroke-width="1" />
<line x1="456" y1="39" x2="896" y2="37" stroke="black" stroke-width="1" />
<rect x="0" y="35" width="16" height="5" style="fill:#5d3c2d;stroke:black;stroke-width:1;fill-opacity:1;stroke-opacity:0.3" />
<rect x="896" y="35" width="16" height="5" style="fill:#5d3c2d;stroke:black;stroke-width:1;fill-opacity:1;stroke-opacity:0.3" />
<line x1="19" y1="44" x2="462" y2="46" stroke="black" stroke-width="1" />
<line x1="462" y1="46" x2="905" y2="44" stroke="black" stroke-width="1" />
<rect x="2" y="42" width="16" height="5" style="fill:#5d3c2d;stroke:black;stroke-width:1;fill-opacity:1;stroke-opacity:0.3" />
<rect x="905" y="42" width="16" height="5" style="fill:#5d3c2d;stroke:black;stroke-width:1;fill-opacity:1;stroke-opacity:0.3" />
<line x1="28" y1="51" x2="464" y2="53" stroke="black" stroke-width="1" />
<line x1="464" y1="53" x2="901" y2="51" stroke="black" stroke-width="1" />
<rect x="3" y="49" width="25" height="5" style="fill:#f5b024;stroke:black;stroke-width:1;fill-opacity:1;stroke-opacity:0.3" />
<rect x="901" y="49" width="25" height="5" style="fill:#f5b024;stroke:black;stroke-width:1;fill-opacity:1;stroke-opacity:0.3" />
<line x1="30" y1="58" x2="465" y2="60" stroke="black" stroke-width="1" />
<line x1="465" y1="60" x2="900" y2="58" stroke="black" stroke-width="1" />
<rect x="5" y="56" width="25" height="5" style="fill:#5d3c2d;stroke:black;stroke-width:1;fill-opacity:1;stroke-opacity:0.3" />
<rect x="900" y="56" width="25" height="5" style="fill:#5d3c2d;stroke:black;stroke-width:1;fill-opacity:1;stroke-opacity:0.3" />
<line x1="22" y1="65" x2="466" y2="67" stroke="black" stroke-width="1" />
<line x1="466" y1="67" x2="910" y2="65" stroke="black" stroke-width="1" />
<rect x="5" y="63" width="16" height="5" style="fill:#5d3c2d;stroke:black;stroke-width:1;fill-opacity:1;stroke-opacity:0.3" />
<rect x="910" y="63" width="16" height="5" style="fill:#5d3c2d;stroke:black;stroke-width:1;fill-opacity:1;stroke-opacity:0.3" />
<line x1="24" y1="72" x2="466" y2="74" stroke="black" stroke-width="1" />
<line x1="466" y1="74" x2="909" y2="72" stroke="black" stroke-width="1" />
<rect x="7" y="70" width="16" height="5" style="fill:#5d3c2d;stroke:black;stroke-width:1;fill-opacity:1;stroke-opacity:0.3" />
<rect x="909" y="70" width="16" height="5" style="fill:#5d3c2d;stroke:black;stroke-width:1;fill-opacity:1;stroke-opacity:0.3" />
<line x1="25" y1="79" x2="468" y2="81" stroke="black" stroke-width="1" />
<line x1="468" y1="81" x2="912" y2="79" stroke="black" stroke-width="1" />
<rect x="8" y="77" width="16" height="5" style="fill:#5d3c2d;stroke:black;stroke-width:1;fill-opacity:1;stroke-opacity:0.3" />
<rect x="912" y="77" width="16" height="5" style="fill:#5d3c2d;stroke:black;stroke-width:1;fill-opacity:1;stroke-opacity:0.3" />
<line x1="30" y1="86" x2="469" y2="88" stroke="black" stroke-width="1" />
<line x1="469" y1="88" x2="908" y2="86" stroke="black" stroke-width="1" />
<rect x="13" y="84" width="16" height="5" style="fill:#5d3c2d;stroke:black;stroke-width:1;fill-opacity:1;stroke-opacity:0.3" />
<rect x="908" y="84" width="16" height="5" style="fill:#5d3c2d;stroke:black;stroke-width:1;fill-opacity:1;stroke-opacity:0.3" />
<line x1="30" y1="93" x2="474" y2="95" stroke="black" stroke-width="1" />
<line x1="474" y1="95" x2="918" y2="93" stroke="black" stroke-width="1" />
<rect x="13" y="91" width="16" height="5" style="fill:#5d3c2d;stroke:black;stroke-width:1;fill-opacity:1;stroke-opacity:0.3" />
<rect x="918" y="91" width="16" height="5" style="fill:#5d3c2d;stroke:black;stroke-width:1;fill-opacity:1;stroke-opacity:0.3" />
<line x1="40" y1="100" x2="476" y2="102" stroke="black" stroke-width="1" />
<line x1="476" y1="102" x2="912" y2="100" stroke="black" stroke-width="1" />
<rect x="15" y="98" width="25" height="5" style="fill:#5d3c2d;stroke:black;stroke-width:1;fill-opacity:1;stroke-opacity:0.3" />
<rect x="912" y="98" width="25" height="5" style="fill:#5d3c2d;stroke:black;stroke-width:1;fill-opacity:1;stroke-opacity:0.3" />
<line x1="41" y1="107" x2="475" y2="109" stroke="black" stroke-width="1" />
<line x1="475" y1="109" x2="910" y2="107" stroke="black" stroke-width="1" />
<rect x="15" y="105" width="25" height="5" style="fill:#5d3c2d;stroke:black;stroke-width:1;fill-opacity:1;stroke-opacity:0.3" />
<rect x="910" y="105" width="25" height="5" style="fill:#5d3c2d;stroke:black;stroke-width:1;fill-opacity:1;stroke-opacity:0.3" />
<line x1="33" y1="114" x2="471" y2="116" stroke="black" stroke-width="1" />
<line x1="471" y1="116" x2="909" y2="114" stroke="black" stroke-width="1" />
<rect x="16" y="112" width="16" height="5" style="fill:#5d3c2d;stroke:black;stroke-width:1;fill-opacity:1;stroke-opacity:0.3" />
<rect x="909" y="112" width="16" height="5" style="fill:#5d3c2d;stroke:black;stroke-width:1;fill-opacity:1;stroke-opacity:0.3" />
<line x1="33" y1="121" x2="35" y2="123" stroke="black" stroke-width="1" />
<line x1="35" y1="123" x2="38" y2="121" stroke="black" stroke-width="1" />
<rect x="16" y="119" width="16" height="5" style="fill:#5d3c2d;stroke:black;stroke-width:1;fill-opacity:1;stroke-opacity:0.3" />
<rect x="38" y="119" width="16" height="5" style="fill:#5d3c2d;stroke:black;stroke-width:1;fill-opacity:1;stroke-opacity:0.3" />
<line x1="58" y1="128" x2="490" y2="130" stroke="black" stroke-width="1" />
<line x1="490" y1="130" x2="922" y2="128" stroke="black" stroke-width="1" />
<rect x="33" y="126" width="25" height="5" style="fill:#5d3c2d;stroke:black;stroke-width:1;fill-opacity:1;stroke-opacity:0.3" />
<rect x="922" y="126" width="25" height="5" style="fill:#5d3c2d;stroke:black;stroke-width:1;fill-opacity:1;stroke-opacity:0.3" />
<line x1="55" y1="135" x2="505" y2="137" stroke="black" stroke-width="1" />
<line x1="505" y1="137" x2="956" y2="135" stroke="black" stroke-width="1" />
<rect x="38" y="133" width="16" height="5" style="fill:#5d3c2d;stroke:black;stroke-width:1;fill-opacity:1;stroke-opacity:0.3" />
<rect x="956" y="133" width="16" height="5" style="fill:#5d3c2d;stroke:black;stroke-width:1;fill-opacity:1;stroke-opacity:0.3" />
<line x1="64" y1="142" x2="495" y2="144" stroke="black" stroke-width="1" />
<line x1="495" y1="144" x2="927" y2="142" stroke="black" stroke-width="1" />
<rect x="39" y="140" width="25" height="5" style="fill:#5d3c2d;stroke:black;stroke-width:1;fill-opacity:1;stroke-opacity:0.3" />
<rect x="927" y="140" width="23" height="5" style="fill:#5d3c2d;stroke:black;stroke-width:1;fill-opacity:1;stroke-opacity:0.3" />
<line x1="59" y1="149" x2="64" y2="151" stroke="black" stroke-width="1" />
<line x1="64" y1="151" x2="69" y2="149" stroke="black" stroke-width="1" />
<rect x="42" y="147" width="16" height="5" style="fill:#5d3c2d;stroke:black;stroke-width:1;fill-opacity:1;stroke-opacity:0.3" />
<rect x="69" y="147" width="16" height="5" style="fill:#5d3c2d;stroke:black;stroke-width:1;fill-opacity:1;stroke-opacity:0.3" />
<line x1="62" y1="156" x2="515" y2="158" stroke="black" stroke-width="1" />
<line x1="515" y1="158" x2="968" y2="156" stroke="black" stroke-width="1" />
<rect x="45" y="154" width="16" height="5" style="fill:#5d3c2d;stroke:black;stroke-width:1;fill-opacity:1;stroke-opacity:0.3" />
<rect x="968" y="154" width="16" height="5" style="fill:#5d3c2d;stroke:black;stroke-width:1;fill-opacity:1;stroke-opacity:0.3" />
<line x1="76" y1="163" x2="520" y2="165" stroke="black" stroke-width="1" />
<line x1="520" y1="165" x2="965" y2="163" stroke="black" stroke-width="1" />
<rect x="50" y="161" width="25" height="5" style="fill:#5d3c2d;stroke:black;stroke-width:1;fill-opacity:1;stroke-opacity:0.3" />
<rect x="965" y="161" width="25" height="5" style="fill:#5d3c2d;stroke:black;stroke-width:1;fill-opacity:1;stroke-opacity:0.3" />
<line x1="73" y1="121" x2="520" y2="123" stroke="black" stroke-width="1" />
<line x1="520" y1="123" x2="968" y2="121" stroke="black" stroke-width="1" />
<rect x="56" y="119" width="16" height="5" style="fill:#5d3c2d;stroke:black;stroke-width:1;fill-opacity:1;stroke-opacity:0.3" />
<rect x="968" y="119" width="16" height="5" style="fill:#5d3c2d;stroke:black;stroke-width:1;fill-opacity:1;stroke-opacity:0.3" />
<line x1="101" y1="149" x2="537" y2="151" stroke="black" stroke-width="1" />
<line x1="537" y1="151" x2="974" y2="149" stroke="black" stroke-width="1" />
<rect x="86" y="147" width="14" height="5" style="fill:#5d3c2d;stroke:black;stroke-width:1;fill-opacity:1;stroke-opacity:0.3" />
<rect x="974" y="147" width="14" height="5" style="fill:#5d3c2d;stroke:black;stroke-width:1;fill-opacity:1;stroke-opacity:0.3" />
<line x1="932" y1="30" x2="944" y2="32" stroke="black" stroke-width="1" />
<line x1="944" y1="32" x2="957" y2="30" stroke="black" stroke-width="1" />
<rect x="915" y="28" width="16" height="5" style="fill:#5d3c2d;stroke:black;stroke-width:1;fill-opacity:1;stroke-opacity:0.3" />
<rect x="957" y="28" width="16" height="5" style="fill:#5d3c2d;stroke:black;stroke-width:1;fill-opacity:1;stroke-opacity:0.3" />
<line x1="951" y1="37" x2="954" y2="39" stroke="black" stroke-width="1" />
<line x1="954" y1="39" x2="957" y2="37" stroke="black" stroke-width="1" />
<rect x="926" y="35" width="25" height="5" style="fill:#5d3c2d;stroke:black;stroke-width:1;fill-opacity:1;stroke-opacity:0.3" />
<rect x="957" y="35" width="25" height="5" style="fill:#5d3c2d;stroke:black;stroke-width:1;fill-opacity:1;stroke-opacity:0.3" />
<line x1="949" y1="44" x2="960" y2="46" stroke="black" stroke-width="1" />
<line x1="960" y1="46" x2="972" y2="44" stroke="black" stroke-width="1" />
<rect x="932" y="42" width="16" height="5" style="fill:#5d3c2d;stroke:black;stroke-width:1;fill-opacity:1;stroke-opacity:0.3" />
<rect x="972" y="42" width="16" height="5" style="fill:#5d3c2d;stroke:black;stroke-width:1;fill-opacity:1;stroke-opacity:0.3" />
<line x1="953" y1="51" x2="955" y2="53" stroke="black" stroke-width="1" />
<line x1="955" y1="53" x2="957" y2="51" stroke="black" stroke-width="1" />
<rect x="936" y="49" width="16" height="5" style="fill:#5d3c2d;stroke:black;stroke-width:1;fill-opacity:1;stroke-opacity:0.3" />
<rect x="957" y="49" width="16" height="5" style="fill:#5d3c2d;stroke:black;stroke-width:1;fill-opacity:1;stroke-opacity:0.3" />
<line x1="953" y1="58" x2="956" y2="60" stroke="black" stroke-width="1" />
<line x1="956" y1="60" x2="959" y2="58" stroke="black" stroke-width="1" />
<rect x="937" y="56" width="16" height="5" style="fill:#5d3c2d;stroke:black;stroke-width:1;fill-opacity:1;stroke-opacity:0.3" />
<rect x="959" y="56" width="16" height="5" style="fill:#5d3c2d;stroke:black;stroke-width:1;fill-opacity:1;stroke-opacity:0.3" />
<line x1="955" y1="65" x2="960" y2="67" stroke="black" stroke-width="1" />
<line x1="960" y1="67" x2="965" y2="65" stroke="black" stroke-width="1" />
<rect x="938" y="63" width="16" height="5" style="fill:#5d3c2d;stroke:black;stroke-width:1;fill-opacity:1;stroke-opacity:0.3" />
<rect x="965" y="63" width="16" height="5" style="fill:#5d3c2d;stroke:black;stroke-width:1;fill-opacity:1;stroke-opacity:0.3" />
<line x1="957" y1="72" x2="958" y2="74" stroke="black" stroke-width="1" />
<line x1="958" y1="74" x2="959" y2="72" stroke="black" stroke-width="1" />
<rect x="940" y="70" width="16" height="5" style="fill:#5d3c2d;stroke:black;stroke-width:1;fill-opacity:1;stroke-opacity:0.3" />
<rect x="959" y="70" width="16" height="5" style="fill:#5d3c2d;stroke:black;stroke-width:1;fill-opacity:1;stroke-opacity:0.3" />
<line x1="957" y1="79" x2="961" y2="81" stroke="black" stroke-width="1" />
<line x1="961" y1="81" x2="966" y2="79" stroke="black" stroke-width="1" />
<rect x="940" y="77" width="16" height="5" style="fill:#5d3c2d;stroke:black;stroke-width:1;fill-opacity:1;stroke-opacity:0.3" />
<rect x="966" y="77" width="16" height="5" style="fill:#5d3c2d;stroke:black;stroke-width:1;fill-opacity:1;stroke-opacity:0.3" />
<line x1="959" y1="86" x2="963" y2="88" stroke="black" stroke-width="1" />
<line x1="963" y1="88" x2="968" y2="86" stroke="black" stroke-width="1" />
<rect x="942" y="84" width="16" height="5" style="fill:#5d3c2d;stroke:black;stroke-width:1;fill-opacity:1;stroke-opacity:0.3" />
<rect x="968" y="84" width="16" height="5" style="fill:#5d3c2d;stroke:black;stroke-width:1;fill-opacity:1;stroke-opacity:0.3" />
<line x1="961" y1="93" x2="962" y2="95" stroke="black" stroke-width="1" />
<line x1="962" y1="95" x2="963" y2="93" stroke="black" stroke-width="1" />
<rect x="944" y="91" width="16" height="5" style="fill:#5d3c2d;stroke:black;stroke-width:1;fill-opacity:1;stroke-opacity:0.3" />
<rect x="963" y="91" width="16" height="5" style="fill:#5d3c2d;stroke:black;stroke-width:1;fill-opacity:1;stroke-opacity:0.3" />
<line x1="961" y1="100" x2="965" y2="102" stroke="black" stroke-width="1" />
<line x1="965" y1="102" x2="970" y2="100" stroke="black" stroke-width="1" />
<rect x="944" y="98" width="16" height="5" style="fill:#5d3c2d;stroke:black;stroke-width:1;fill-opacity:1;stroke-opacity:0.3" />
<rect x="970" y="98" width="16" height="5" style="fill:#5d3c2d;stroke:black;stroke-width:1;fill-opacity:1;stroke-opacity:0.3" />
<line x1="961" y1="107" x2="966" y2="109" stroke="black" stroke-width="1" />
<line x1="966" y1="109" x2="971" y2="107" stroke="black" stroke-width="1" />
<rect x="944" y="105" width="16" height="5" style="fill:#5d3c2d;stroke:black;stroke-width:1;fill-opacity:1;stroke-opacity:0.3" />
<rect x="971" y="105" width="16" height="5" style="fill:#5d3c2d;stroke:black;stroke-width:1;fill-opacity:1;stroke-opacity:0.3" />
<line x1="964" y1="114" x2="966" y2="116" stroke="black" stroke-width="1" />
<line x1="966" y1="116" x2="968" y2="114" stroke="black" stroke-width="1" />
<rect x="947" y="112" width="16" height="5" style="fill:#5d3c2d;stroke:black;stroke-width:1;fill-opacity:1;stroke-opacity:0.3" />
<rect x="968" y="112" width="16" height="5" style="fill:#5d3c2d;stroke:black;stroke-width:1;fill-opacity:1;stroke-opacity:0.3" />
<line x1="965" y1="128" x2="968" y2="130" stroke="black" stroke-width="1" />
<line x1="968" y1="130" x2="972" y2="128" stroke="black" stroke-width="1" />
<rect x="948" y="126" width="16" height="5" style="fill:#5d3c2d;stroke:black;stroke-width:1;fill-opacity:1;stroke-opacity:0.3" />
<rect x="972" y="126" width="16" height="5" style="fill:#5d3c2d;stroke:black;stroke-width:1;fill-opacity:1;stroke-opacity:0.3" />
<line x1="972" y1="142" x2="973" y2="144" stroke="black" stroke-width="1" />
<line x1="973" y1="144" x2="974" y2="142" stroke="black" stroke-width="1" />
<rect x="955" y="140" width="16" height="5" style="fill:#5d3c2d;stroke:black;stroke-width:1;fill-opacity:1;stroke-opacity:0.3" />
<rect x="974" y="140" width="16" height="5" style="fill:#5d3c2d;stroke:black;stroke-width:1;fill-opacity:1;stroke-opacity:0.3" />
<text x="15"  y="176" style="font-family:Arial;font-size:10;stroke:black;fill:black;">all.merged.bam</text>
</svg>
    
