<?xml version="1.0" encoding="utf-8" standalone="no"?>
<!DOCTYPE svg PUBLIC "-//W3C//DTD SVG 1.1//EN"
  "http://www.w3.org/Graphics/SVG/1.1/DTD/svg11.dtd">
<svg height="1140" width="1000" version="1.1" viewBox="0 0 1000 1140" xmlns="http://www.w3.org/2000/svg" xmlns:xlink="http://www.w3.org/1999/xlink">
<line x1="40" y1="11" x2="958" y2="11" stroke="black" stroke-width="1" />
<rect x="40" y="9" width="6" height="5" style="fill:#f50002;stroke:black;stroke-width:1;fill-opacity:1;stroke-opacity:0.3" />
<rect x="63" y="9" width="185" height="5" style="fill:#f50002;stroke:black;stroke-width:1;fill-opacity:1;stroke-opacity:0.3" />
<rect x="249" y="9" width="354" height="5" style="fill:#53a1b5;stroke:black;stroke-width:1;fill-opacity:1;stroke-opacity:0.3" />
<rect x="603" y="9" width="354" height="5" style="fill:#f50002;stroke:black;stroke-width:1;fill-opacity:1;stroke-opacity:0.3" />
<text x="40"  y="23" style="font-family:Arial;font-size:10;stroke:black;fill:black;">Cre34.g759197.t1.1.v5.5 (+) scaffold_34:17486-19747</text>
<line x1="454" y1="30" x2="463" y2="32" stroke="black" stroke-width="1" />
<line x1="463" y1="32" x2="472" y2="30" stroke="black" stroke-width="1" />
<rect x="418" y="28" width="36" height="5" style="fill:#5d3c2d;stroke:black;stroke-width:1;fill-opacity:1;stroke-opacity:0.3" />
<rect x="472" y="28" width="40" height="5" style="fill:#5d3c2d;stroke:black;stroke-width:1;fill-opacity:1;stroke-opacity:0.3" />
<line x1="455" y1="37" x2="463" y2="39" stroke="black" stroke-width="1" />
<line x1="463" y1="39" x2="471" y2="37" stroke="black" stroke-width="1" />
<rect x="418" y="35" width="36" height="5" style="fill:#5d3c2d;stroke:black;stroke-width:1;fill-opacity:1;stroke-opacity:0.3" />
<rect x="471" y="35" width="38" height="5" style="fill:#5d3c2d;stroke:black;stroke-width:1;fill-opacity:1;stroke-opacity:0.3" />
<line x1="459" y1="44" x2="465" y2="46" stroke="black" stroke-width="1" />
<line x1="465" y1="46" x2="471" y2="44" stroke="black" stroke-width="1" />
<rect x="419" y="42" width="40" height="5" style="fill:#5d3c2d;stroke:black;stroke-width:1;fill-opacity:1;stroke-opacity:0.3" />
<rect x="471" y="42" width="39" height="5" style="fill:#5d3c2d;stroke:black;stroke-width:1;fill-opacity:1;stroke-opacity:0.3" />
<line x1="716" y1="30" x2="721" y2="32" stroke="black" stroke-width="1" />
<line x1="721" y1="32" x2="726" y2="30" stroke="black" stroke-width="1" />
<rect x="676" y="28" width="39" height="5" style="fill:#5d3c2d;stroke:black;stroke-width:1;fill-opacity:1;stroke-opacity:0.3" />
<rect x="726" y="28" width="40" height="5" style="fill:#5d3c2d;stroke:black;stroke-width:1;fill-opacity:1;stroke-opacity:0.3" />
<line x1="716" y1="37" x2="721" y2="39" stroke="black" stroke-width="1" />
<line x1="721" y1="39" x2="726" y2="37" stroke="black" stroke-width="1" />
<rect x="676" y="35" width="39" height="5" style="fill:#5d3c2d;stroke:black;stroke-width:1;fill-opacity:1;stroke-opacity:0.3" />
<rect x="726" y="35" width="40" height="5" style="fill:#5d3c2d;stroke:black;stroke-width:1;fill-opacity:1;stroke-opacity:0.3" />
<line x1="716" y1="44" x2="721" y2="46" stroke="black" stroke-width="1" />
<line x1="721" y1="46" x2="727" y2="44" stroke="black" stroke-width="1" />
<rect x="676" y="42" width="39" height="5" style="fill:#5d3c2d;stroke:black;stroke-width:1;fill-opacity:1;stroke-opacity:0.3" />
<rect x="727" y="42" width="38" height="5" style="fill:#5d3c2d;stroke:black;stroke-width:1;fill-opacity:1;stroke-opacity:0.3" />
<line x1="716" y1="51" x2="721" y2="53" stroke="black" stroke-width="1" />
<line x1="721" y1="53" x2="726" y2="51" stroke="black" stroke-width="1" />
<rect x="676" y="49" width="39" height="5" style="fill:#5d3c2d;stroke:black;stroke-width:1;fill-opacity:1;stroke-opacity:0.3" />
<rect x="726" y="49" width="40" height="5" style="fill:#5d3c2d;stroke:black;stroke-width:1;fill-opacity:1;stroke-opacity:0.3" />
<line x1="716" y1="58" x2="722" y2="60" stroke="black" stroke-width="1" />
<line x1="722" y1="60" x2="728" y2="58" stroke="black" stroke-width="1" />
<rect x="676" y="56" width="39" height="5" style="fill:#5d3c2d;stroke:black;stroke-width:1;fill-opacity:1;stroke-opacity:0.3" />
<rect x="728" y="56" width="40" height="5" style="fill:#5d3c2d;stroke:black;stroke-width:1;fill-opacity:1;stroke-opacity:0.3" />
<line x1="716" y1="65" x2="724" y2="67" stroke="black" stroke-width="1" />
<line x1="724" y1="67" x2="732" y2="65" stroke="black" stroke-width="1" />
<rect x="676" y="63" width="39" height="5" style="fill:#5d3c2d;stroke:black;stroke-width:1;fill-opacity:1;stroke-opacity:0.3" />
<rect x="732" y="63" width="35" height="5" style="fill:#5d3c2d;stroke:black;stroke-width:1;fill-opacity:1;stroke-opacity:0.3" />
<line x1="716" y1="72" x2="721" y2="74" stroke="black" stroke-width="1" />
<line x1="721" y1="74" x2="726" y2="72" stroke="black" stroke-width="1" />
<rect x="676" y="70" width="39" height="5" style="fill:#5d3c2d;stroke:black;stroke-width:1;fill-opacity:1;stroke-opacity:0.3" />
<rect x="726" y="70" width="40" height="5" style="fill:#5d3c2d;stroke:black;stroke-width:1;fill-opacity:1;stroke-opacity:0.3" />
<line x1="717" y1="79" x2="726" y2="81" stroke="black" stroke-width="1" />
<line x1="726" y1="81" x2="736" y2="79" stroke="black" stroke-width="1" />
<rect x="676" y="77" width="40" height="5" style="fill:#5d3c2d;stroke:black;stroke-width:1;fill-opacity:1;stroke-opacity:0.3" />
<rect x="736" y="77" width="40" height="5" style="fill:#5d3c2d;stroke:black;stroke-width:1;fill-opacity:1;stroke-opacity:0.3" />
<line x1="716" y1="86" x2="718" y2="88" stroke="black" stroke-width="1" />
<line x1="718" y1="88" x2="721" y2="86" stroke="black" stroke-width="1" />
<rect x="676" y="84" width="39" height="5" style="fill:#5d3c2d;stroke:black;stroke-width:1;fill-opacity:1;stroke-opacity:0.3" />
<rect x="721" y="84" width="40" height="5" style="fill:#5d3c2d;stroke:black;stroke-width:1;fill-opacity:1;stroke-opacity:0.3" />
<line x1="716" y1="93" x2="721" y2="95" stroke="black" stroke-width="1" />
<line x1="721" y1="95" x2="727" y2="93" stroke="black" stroke-width="1" />
<rect x="676" y="91" width="39" height="5" style="fill:#5d3c2d;stroke:black;stroke-width:1;fill-opacity:1;stroke-opacity:0.3" />
<rect x="727" y="91" width="40" height="5" style="fill:#5d3c2d;stroke:black;stroke-width:1;fill-opacity:1;stroke-opacity:0.3" />
<line x1="716" y1="100" x2="721" y2="102" stroke="black" stroke-width="1" />
<line x1="721" y1="102" x2="726" y2="100" stroke="black" stroke-width="1" />
<rect x="676" y="98" width="39" height="5" style="fill:#5d3c2d;stroke:black;stroke-width:1;fill-opacity:1;stroke-opacity:0.3" />
<rect x="726" y="98" width="40" height="5" style="fill:#5d3c2d;stroke:black;stroke-width:1;fill-opacity:1;stroke-opacity:0.3" />
<line x1="716" y1="107" x2="721" y2="109" stroke="black" stroke-width="1" />
<line x1="721" y1="109" x2="726" y2="107" stroke="black" stroke-width="1" />
<rect x="676" y="105" width="39" height="5" style="fill:#5d3c2d;stroke:black;stroke-width:1;fill-opacity:1;stroke-opacity:0.3" />
<rect x="726" y="105" width="40" height="5" style="fill:#5d3c2d;stroke:black;stroke-width:1;fill-opacity:1;stroke-opacity:0.3" />
<line x1="716" y1="114" x2="721" y2="116" stroke="black" stroke-width="1" />
<line x1="721" y1="116" x2="727" y2="114" stroke="black" stroke-width="1" />
<rect x="676" y="112" width="39" height="5" style="fill:#5d3c2d;stroke:black;stroke-width:1;fill-opacity:1;stroke-opacity:0.3" />
<rect x="727" y="112" width="40" height="5" style="fill:#5d3c2d;stroke:black;stroke-width:1;fill-opacity:1;stroke-opacity:0.3" />
<line x1="716" y1="121" x2="727" y2="123" stroke="black" stroke-width="1" />
<line x1="727" y1="123" x2="739" y2="121" stroke="black" stroke-width="1" />
<rect x="676" y="119" width="39" height="5" style="fill:#5d3c2d;stroke:black;stroke-width:1;fill-opacity:1;stroke-opacity:0.3" />
<rect x="739" y="119" width="40" height="5" style="fill:#5d3c2d;stroke:black;stroke-width:1;fill-opacity:1;stroke-opacity:0.3" />
<line x1="716" y1="128" x2="718" y2="130" stroke="black" stroke-width="1" />
<line x1="718" y1="130" x2="721" y2="128" stroke="black" stroke-width="1" />
<rect x="676" y="126" width="39" height="5" style="fill:#5d3c2d;stroke:black;stroke-width:1;fill-opacity:1;stroke-opacity:0.3" />
<rect x="721" y="126" width="40" height="5" style="fill:#5d3c2d;stroke:black;stroke-width:1;fill-opacity:1;stroke-opacity:0.3" />
<line x1="716" y1="135" x2="721" y2="137" stroke="black" stroke-width="1" />
<line x1="721" y1="137" x2="726" y2="135" stroke="black" stroke-width="1" />
<rect x="677" y="133" width="39" height="5" style="fill:#5d3c2d;stroke:black;stroke-width:1;fill-opacity:1;stroke-opacity:0.3" />
<rect x="726" y="133" width="40" height="5" style="fill:#5d3c2d;stroke:black;stroke-width:1;fill-opacity:1;stroke-opacity:0.3" />
<line x1="717" y1="142" x2="719" y2="144" stroke="black" stroke-width="1" />
<line x1="719" y1="144" x2="721" y2="142" stroke="black" stroke-width="1" />
<rect x="677" y="140" width="40" height="5" style="fill:#5d3c2d;stroke:black;stroke-width:1;fill-opacity:1;stroke-opacity:0.3" />
<rect x="721" y="140" width="40" height="5" style="fill:#5d3c2d;stroke:black;stroke-width:1;fill-opacity:1;stroke-opacity:0.3" />
<line x1="716" y1="149" x2="722" y2="151" stroke="black" stroke-width="1" />
<line x1="722" y1="151" x2="728" y2="149" stroke="black" stroke-width="1" />
<rect x="677" y="147" width="39" height="5" style="fill:#5d3c2d;stroke:black;stroke-width:1;fill-opacity:1;stroke-opacity:0.3" />
<rect x="728" y="147" width="40" height="5" style="fill:#5d3c2d;stroke:black;stroke-width:1;fill-opacity:1;stroke-opacity:0.3" />
<line x1="719" y1="156" x2="723" y2="158" stroke="black" stroke-width="1" />
<line x1="723" y1="158" x2="727" y2="156" stroke="black" stroke-width="1" />
<rect x="679" y="154" width="40" height="5" style="fill:#f5b024;stroke:black;stroke-width:1;fill-opacity:1;stroke-opacity:0.3" />
<rect x="727" y="154" width="40" height="5" style="fill:#f5b024;stroke:black;stroke-width:1;fill-opacity:1;stroke-opacity:0.3" />
<line x1="720" y1="163" x2="723" y2="165" stroke="black" stroke-width="1" />
<line x1="723" y1="165" x2="726" y2="163" stroke="black" stroke-width="1" />
<rect x="679" y="161" width="40" height="5" style="fill:#5d3c2d;stroke:black;stroke-width:1;fill-opacity:1;stroke-opacity:0.3" />
<rect x="726" y="161" width="40" height="5" style="fill:#5d3c2d;stroke:black;stroke-width:1;fill-opacity:1;stroke-opacity:0.3" />
<line x1="902" y1="30" x2="905" y2="32" stroke="black" stroke-width="1" />
<line x1="905" y1="32" x2="909" y2="30" stroke="black" stroke-width="1" />
<rect x="865" y="28" width="37" height="5" style="fill:#5d3c2d;stroke:black;stroke-width:1;fill-opacity:1;stroke-opacity:0.3" />
<rect x="909" y="28" width="40" height="5" style="fill:#5d3c2d;stroke:black;stroke-width:1;fill-opacity:1;stroke-opacity:0.3" />
<text x="15"  y="176" style="font-family:Arial;font-size:10;stroke:black;fill:black;">all.merged.bam</text>
</svg>
    
