<?xml version="1.0" encoding="utf-8" standalone="no"?>
<!DOCTYPE svg PUBLIC "-//W3C//DTD SVG 1.1//EN"
  "http://www.w3.org/Graphics/SVG/1.1/DTD/svg11.dtd">
<svg height="1140" width="1000" version="1.1" viewBox="0 0 1000 1140" xmlns="http://www.w3.org/2000/svg" xmlns:xlink="http://www.w3.org/1999/xlink">
<line x1="48" y1="11" x2="950" y2="11" stroke="black" stroke-width="1" />
<rect x="48" y="9" width="156" height="5" style="fill:#f50002;stroke:black;stroke-width:1;fill-opacity:1;stroke-opacity:0.3" />
<rect x="205" y="9" width="3" height="5" style="fill:#53a1b5;stroke:black;stroke-width:1;fill-opacity:1;stroke-opacity:0.3" />
<rect x="315" y="9" width="44" height="5" style="fill:#53a1b5;stroke:black;stroke-width:1;fill-opacity:1;stroke-opacity:0.3" />
<rect x="510" y="9" width="32" height="5" style="fill:#53a1b5;stroke:black;stroke-width:1;fill-opacity:1;stroke-opacity:0.3" />
<rect x="542" y="9" width="408" height="5" style="fill:#f50002;stroke:black;stroke-width:1;fill-opacity:1;stroke-opacity:0.3" />
<text x="48"  y="23" style="font-family:Arial;font-size:10;stroke:black;fill:black;">Cre30.g758297.t1.1.v5.5 (+) scaffold_30:50516-52376</text>
<line x1="65" y1="30" x2="71" y2="32" stroke="black" stroke-width="1" />
<line x1="71" y1="32" x2="78" y2="30" stroke="black" stroke-width="1" />
<rect x="16" y="28" width="48" height="5" style="fill:#5d3c2d;stroke:black;stroke-width:1;fill-opacity:1;stroke-opacity:0.3" />
<rect x="78" y="28" width="48" height="5" style="fill:#5d3c2d;stroke:black;stroke-width:1;fill-opacity:1;stroke-opacity:0.3" />
<line x1="66" y1="37" x2="72" y2="39" stroke="black" stroke-width="1" />
<line x1="72" y1="39" x2="79" y2="37" stroke="black" stroke-width="1" />
<rect x="17" y="35" width="48" height="5" style="fill:#5d3c2d;stroke:black;stroke-width:1;fill-opacity:1;stroke-opacity:0.3" />
<rect x="79" y="35" width="48" height="5" style="fill:#5d3c2d;stroke:black;stroke-width:1;fill-opacity:1;stroke-opacity:0.3" />
<line x1="70" y1="44" x2="74" y2="46" stroke="black" stroke-width="1" />
<line x1="74" y1="46" x2="78" y2="44" stroke="black" stroke-width="1" />
<rect x="21" y="42" width="48" height="5" style="fill:#5d3c2d;stroke:black;stroke-width:1;fill-opacity:1;stroke-opacity:0.3" />
<rect x="78" y="42" width="48" height="5" style="fill:#5d3c2d;stroke:black;stroke-width:1;fill-opacity:1;stroke-opacity:0.3" />
<line x1="68" y1="51" x2="71" y2="53" stroke="black" stroke-width="1" />
<line x1="71" y1="53" x2="74" y2="51" stroke="black" stroke-width="1" />
<rect x="21" y="49" width="47" height="5" style="fill:#5d3c2d;stroke:black;stroke-width:1;fill-opacity:1;stroke-opacity:0.3" />
<rect x="74" y="49" width="48" height="5" style="fill:#5d3c2d;stroke:black;stroke-width:1;fill-opacity:1;stroke-opacity:0.3" />
<line x1="68" y1="58" x2="77" y2="60" stroke="black" stroke-width="1" />
<line x1="77" y1="60" x2="86" y2="58" stroke="black" stroke-width="1" />
<rect x="21" y="56" width="47" height="5" style="fill:#5d3c2d;stroke:black;stroke-width:1;fill-opacity:1;stroke-opacity:0.3" />
<rect x="86" y="56" width="48" height="5" style="fill:#5d3c2d;stroke:black;stroke-width:1;fill-opacity:1;stroke-opacity:0.3" />
<line x1="69" y1="65" x2="72" y2="67" stroke="black" stroke-width="1" />
<line x1="72" y1="67" x2="76" y2="65" stroke="black" stroke-width="1" />
<rect x="21" y="63" width="47" height="5" style="fill:#5d3c2d;stroke:black;stroke-width:1;fill-opacity:1;stroke-opacity:0.3" />
<rect x="76" y="63" width="48" height="5" style="fill:#5d3c2d;stroke:black;stroke-width:1;fill-opacity:1;stroke-opacity:0.3" />
<line x1="68" y1="72" x2="73" y2="74" stroke="black" stroke-width="1" />
<line x1="73" y1="74" x2="79" y2="72" stroke="black" stroke-width="1" />
<rect x="21" y="70" width="47" height="5" style="fill:#5d3c2d;stroke:black;stroke-width:1;fill-opacity:1;stroke-opacity:0.3" />
<rect x="79" y="70" width="48" height="5" style="fill:#5d3c2d;stroke:black;stroke-width:1;fill-opacity:1;stroke-opacity:0.3" />
<line x1="68" y1="79" x2="73" y2="81" stroke="black" stroke-width="1" />
<line x1="73" y1="81" x2="79" y2="79" stroke="black" stroke-width="1" />
<rect x="21" y="77" width="46" height="5" style="fill:#5d3c2d;stroke:black;stroke-width:1;fill-opacity:1;stroke-opacity:0.3" />
<rect x="79" y="77" width="48" height="5" style="fill:#5d3c2d;stroke:black;stroke-width:1;fill-opacity:1;stroke-opacity:0.3" />
<line x1="67" y1="86" x2="73" y2="88" stroke="black" stroke-width="1" />
<line x1="73" y1="88" x2="79" y2="86" stroke="black" stroke-width="1" />
<rect x="21" y="84" width="45" height="5" style="fill:#5d3c2d;stroke:black;stroke-width:1;fill-opacity:1;stroke-opacity:0.3" />
<rect x="79" y="84" width="48" height="5" style="fill:#5d3c2d;stroke:black;stroke-width:1;fill-opacity:1;stroke-opacity:0.3" />
<line x1="71" y1="93" x2="74" y2="95" stroke="black" stroke-width="1" />
<line x1="74" y1="95" x2="77" y2="93" stroke="black" stroke-width="1" />
<rect x="22" y="91" width="48" height="5" style="fill:#5d3c2d;stroke:black;stroke-width:1;fill-opacity:1;stroke-opacity:0.3" />
<rect x="77" y="91" width="48" height="5" style="fill:#5d3c2d;stroke:black;stroke-width:1;fill-opacity:1;stroke-opacity:0.3" />
<line x1="71" y1="100" x2="75" y2="102" stroke="black" stroke-width="1" />
<line x1="75" y1="102" x2="79" y2="100" stroke="black" stroke-width="1" />
<rect x="23" y="98" width="48" height="5" style="fill:#5d3c2d;stroke:black;stroke-width:1;fill-opacity:1;stroke-opacity:0.3" />
<rect x="79" y="98" width="48" height="5" style="fill:#5d3c2d;stroke:black;stroke-width:1;fill-opacity:1;stroke-opacity:0.3" />
<line x1="71" y1="107" x2="75" y2="109" stroke="black" stroke-width="1" />
<line x1="75" y1="109" x2="79" y2="107" stroke="black" stroke-width="1" />
<rect x="23" y="105" width="48" height="5" style="fill:#5d3c2d;stroke:black;stroke-width:1;fill-opacity:1;stroke-opacity:0.3" />
<rect x="79" y="105" width="48" height="5" style="fill:#5d3c2d;stroke:black;stroke-width:1;fill-opacity:1;stroke-opacity:0.3" />
<line x1="72" y1="114" x2="75" y2="116" stroke="black" stroke-width="1" />
<line x1="75" y1="116" x2="78" y2="114" stroke="black" stroke-width="1" />
<rect x="23" y="112" width="48" height="5" style="fill:#5d3c2d;stroke:black;stroke-width:1;fill-opacity:1;stroke-opacity:0.3" />
<rect x="78" y="112" width="48" height="5" style="fill:#5d3c2d;stroke:black;stroke-width:1;fill-opacity:1;stroke-opacity:0.3" />
<line x1="73" y1="121" x2="79" y2="123" stroke="black" stroke-width="1" />
<line x1="79" y1="123" x2="85" y2="121" stroke="black" stroke-width="1" />
<rect x="24" y="119" width="48" height="5" style="fill:#5d3c2d;stroke:black;stroke-width:1;fill-opacity:1;stroke-opacity:0.3" />
<rect x="85" y="119" width="48" height="5" style="fill:#5d3c2d;stroke:black;stroke-width:1;fill-opacity:1;stroke-opacity:0.3" />
<line x1="73" y1="128" x2="85" y2="130" stroke="black" stroke-width="1" />
<line x1="85" y1="130" x2="98" y2="128" stroke="black" stroke-width="1" />
<rect x="24" y="126" width="48" height="5" style="fill:#5d3c2d;stroke:black;stroke-width:1;fill-opacity:1;stroke-opacity:0.3" />
<rect x="98" y="126" width="48" height="5" style="fill:#5d3c2d;stroke:black;stroke-width:1;fill-opacity:1;stroke-opacity:0.3" />
<line x1="77" y1="135" x2="82" y2="137" stroke="black" stroke-width="1" />
<line x1="82" y1="137" x2="88" y2="135" stroke="black" stroke-width="1" />
<rect x="28" y="133" width="48" height="5" style="fill:#5d3c2d;stroke:black;stroke-width:1;fill-opacity:1;stroke-opacity:0.3" />
<rect x="88" y="133" width="48" height="5" style="fill:#5d3c2d;stroke:black;stroke-width:1;fill-opacity:1;stroke-opacity:0.3" />
<line x1="101" y1="142" x2="113" y2="144" stroke="black" stroke-width="1" />
<line x1="113" y1="144" x2="125" y2="142" stroke="black" stroke-width="1" />
<rect x="28" y="140" width="72" height="5" style="fill:#5d3c2d;stroke:black;stroke-width:1;fill-opacity:1;stroke-opacity:0.3" />
<rect x="125" y="140" width="72" height="5" style="fill:#5d3c2d;stroke:black;stroke-width:1;fill-opacity:1;stroke-opacity:0.3" />
<line x1="77" y1="149" x2="84" y2="151" stroke="black" stroke-width="1" />
<line x1="84" y1="151" x2="91" y2="149" stroke="black" stroke-width="1" />
<rect x="29" y="147" width="48" height="5" style="fill:#5d3c2d;stroke:black;stroke-width:1;fill-opacity:1;stroke-opacity:0.3" />
<rect x="91" y="147" width="48" height="5" style="fill:#5d3c2d;stroke:black;stroke-width:1;fill-opacity:1;stroke-opacity:0.3" />
<line x1="77" y1="156" x2="80" y2="158" stroke="black" stroke-width="1" />
<line x1="80" y1="158" x2="83" y2="156" stroke="black" stroke-width="1" />
<rect x="29" y="154" width="48" height="5" style="fill:#5d3c2d;stroke:black;stroke-width:1;fill-opacity:1;stroke-opacity:0.3" />
<rect x="83" y="154" width="48" height="5" style="fill:#5d3c2d;stroke:black;stroke-width:1;fill-opacity:1;stroke-opacity:0.3" />
<line x1="77" y1="163" x2="82" y2="165" stroke="black" stroke-width="1" />
<line x1="82" y1="165" x2="87" y2="163" stroke="black" stroke-width="1" />
<rect x="29" y="161" width="48" height="5" style="fill:#5d3c2d;stroke:black;stroke-width:1;fill-opacity:1;stroke-opacity:0.3" />
<rect x="87" y="161" width="48" height="5" style="fill:#5d3c2d;stroke:black;stroke-width:1;fill-opacity:1;stroke-opacity:0.3" />
<line x1="171" y1="51" x2="174" y2="53" stroke="black" stroke-width="1" />
<line x1="174" y1="53" x2="178" y2="51" stroke="black" stroke-width="1" />
<rect x="123" y="49" width="48" height="5" style="fill:#5d3c2d;stroke:black;stroke-width:1;fill-opacity:1;stroke-opacity:0.3" />
<rect x="178" y="49" width="30" height="5" style="fill:#5d3c2d;stroke:black;stroke-width:1;fill-opacity:1;stroke-opacity:0.3" />
<line x1="209" y1="51" x2="315" y2="51" stroke="pink" stroke-width="1" />
<rect x="315" y="49" width="16" height="5" style="fill:#5d3c2d;stroke:black;stroke-width:1;fill-opacity:1;stroke-opacity:0.3" />
<line x1="173" y1="65" x2="183" y2="67" stroke="black" stroke-width="1" />
<line x1="183" y1="67" x2="193" y2="65" stroke="black" stroke-width="1" />
<rect x="125" y="63" width="48" height="5" style="fill:#5d3c2d;stroke:black;stroke-width:1;fill-opacity:1;stroke-opacity:0.3" />
<rect x="193" y="63" width="15" height="5" style="fill:#5d3c2d;stroke:black;stroke-width:1;fill-opacity:1;stroke-opacity:0.3" />
<line x1="209" y1="65" x2="315" y2="65" stroke="pink" stroke-width="1" />
<rect x="315" y="63" width="32" height="5" style="fill:#5d3c2d;stroke:black;stroke-width:1;fill-opacity:1;stroke-opacity:0.3" />
<line x1="174" y1="93" x2="190" y2="95" stroke="black" stroke-width="1" />
<line x1="190" y1="95" x2="206" y2="93" stroke="black" stroke-width="1" />
<rect x="126" y="91" width="48" height="5" style="fill:#f5b024;stroke:black;stroke-width:1;fill-opacity:1;stroke-opacity:0.3" />
<rect x="206" y="91" width="2" height="5" style="fill:#f5b024;stroke:black;stroke-width:1;fill-opacity:1;stroke-opacity:0.3" />
<line x1="209" y1="93" x2="315" y2="93" stroke="pink" stroke-width="1" />
<rect x="315" y="91" width="45" height="5" style="fill:#f5b024;stroke:black;stroke-width:1;fill-opacity:1;stroke-opacity:0.3" />
<line x1="176" y1="30" x2="185" y2="32" stroke="black" stroke-width="1" />
<line x1="185" y1="32" x2="194" y2="30" stroke="black" stroke-width="1" />
<rect x="127" y="28" width="48" height="5" style="fill:#f5b024;stroke:black;stroke-width:1;fill-opacity:1;stroke-opacity:0.3" />
<rect x="194" y="28" width="14" height="5" style="fill:#f5b024;stroke:black;stroke-width:1;fill-opacity:1;stroke-opacity:0.3" />
<line x1="209" y1="30" x2="315" y2="30" stroke="pink" stroke-width="1" />
<rect x="315" y="28" width="33" height="5" style="fill:#f5b024;stroke:black;stroke-width:1;fill-opacity:1;stroke-opacity:0.3" />
<line x1="177" y1="37" x2="185" y2="39" stroke="black" stroke-width="1" />
<line x1="185" y1="39" x2="194" y2="37" stroke="black" stroke-width="1" />
<rect x="128" y="35" width="48" height="5" style="fill:#5d3c2d;stroke:black;stroke-width:1;fill-opacity:1;stroke-opacity:0.3" />
<rect x="194" y="35" width="14" height="5" style="fill:#5d3c2d;stroke:black;stroke-width:1;fill-opacity:1;stroke-opacity:0.3" />
<line x1="209" y1="37" x2="315" y2="37" stroke="pink" stroke-width="1" />
<rect x="315" y="35" width="33" height="5" style="fill:#5d3c2d;stroke:black;stroke-width:1;fill-opacity:1;stroke-opacity:0.3" />
<line x1="180" y1="44" x2="188" y2="46" stroke="black" stroke-width="1" />
<line x1="188" y1="46" x2="196" y2="44" stroke="black" stroke-width="1" />
<rect x="131" y="42" width="48" height="5" style="fill:#5d3c2d;stroke:black;stroke-width:1;fill-opacity:1;stroke-opacity:0.3" />
<rect x="196" y="42" width="13" height="5" style="fill:#5d3c2d;stroke:black;stroke-width:1;fill-opacity:1;stroke-opacity:0.3" />
<line x1="209" y1="44" x2="315" y2="44" stroke="pink" stroke-width="1" />
<rect x="315" y="42" width="35" height="5" style="fill:#5d3c2d;stroke:black;stroke-width:1;fill-opacity:1;stroke-opacity:0.3" />
<line x1="183" y1="72" x2="185" y2="74" stroke="black" stroke-width="1" />
<line x1="185" y1="74" x2="188" y2="72" stroke="black" stroke-width="1" />
<rect x="134" y="70" width="48" height="5" style="fill:#5d3c2d;stroke:black;stroke-width:1;fill-opacity:1;stroke-opacity:0.3" />
<rect x="188" y="70" width="20" height="5" style="fill:#5d3c2d;stroke:black;stroke-width:1;fill-opacity:1;stroke-opacity:0.3" />
<line x1="209" y1="72" x2="315" y2="72" stroke="pink" stroke-width="1" />
<rect x="315" y="70" width="28" height="5" style="fill:#5d3c2d;stroke:black;stroke-width:1;fill-opacity:1;stroke-opacity:0.3" />
<line x1="183" y1="79" x2="186" y2="81" stroke="black" stroke-width="1" />
<line x1="186" y1="81" x2="190" y2="79" stroke="black" stroke-width="1" />
<rect x="134" y="77" width="48" height="5" style="fill:#5d3c2d;stroke:black;stroke-width:1;fill-opacity:1;stroke-opacity:0.3" />
<rect x="190" y="77" width="18" height="5" style="fill:#5d3c2d;stroke:black;stroke-width:1;fill-opacity:1;stroke-opacity:0.3" />
<line x1="209" y1="79" x2="315" y2="79" stroke="pink" stroke-width="1" />
<rect x="315" y="77" width="29" height="5" style="fill:#5d3c2d;stroke:black;stroke-width:1;fill-opacity:1;stroke-opacity:0.3" />
<line x1="188" y1="58" x2="190" y2="60" stroke="black" stroke-width="1" />
<line x1="190" y1="60" x2="193" y2="58" stroke="black" stroke-width="1" />
<rect x="139" y="56" width="48" height="5" style="fill:#5d3c2d;stroke:black;stroke-width:1;fill-opacity:1;stroke-opacity:0.3" />
<rect x="193" y="56" width="16" height="5" style="fill:#5d3c2d;stroke:black;stroke-width:1;fill-opacity:1;stroke-opacity:0.3" />
<line x1="209" y1="58" x2="315" y2="58" stroke="pink" stroke-width="1" />
<rect x="315" y="56" width="32" height="5" style="fill:#5d3c2d;stroke:black;stroke-width:1;fill-opacity:1;stroke-opacity:0.3" />
<line x1="188" y1="86" x2="194" y2="88" stroke="black" stroke-width="1" />
<line x1="194" y1="88" x2="200" y2="86" stroke="black" stroke-width="1" />
<rect x="140" y="84" width="48" height="5" style="fill:#5d3c2d;stroke:black;stroke-width:1;fill-opacity:1;stroke-opacity:0.3" />
<rect x="200" y="84" width="8" height="5" style="fill:#5d3c2d;stroke:black;stroke-width:1;fill-opacity:1;stroke-opacity:0.3" />
<line x1="209" y1="86" x2="315" y2="86" stroke="pink" stroke-width="1" />
<rect x="315" y="84" width="40" height="5" style="fill:#5d3c2d;stroke:black;stroke-width:1;fill-opacity:1;stroke-opacity:0.3" />
<line x1="189" y1="100" x2="259" y2="102" stroke="black" stroke-width="1" />
<line x1="259" y1="102" x2="329" y2="100" stroke="black" stroke-width="1" />
<rect x="141" y="98" width="48" height="5" style="fill:#5d3c2d;stroke:black;stroke-width:1;fill-opacity:1;stroke-opacity:0.3" />
<rect x="329" y="98" width="30" height="5" style="fill:#5d3c2d;stroke:black;stroke-width:1;fill-opacity:1;stroke-opacity:0.3" />
<line x1="360" y1="100" x2="510" y2="100" stroke="pink" stroke-width="1" />
<rect x="510" y="98" width="17" height="5" style="fill:#5d3c2d;stroke:black;stroke-width:1;fill-opacity:1;stroke-opacity:0.3" />
<line x1="191" y1="107" x2="195" y2="109" stroke="black" stroke-width="1" />
<line x1="195" y1="109" x2="200" y2="107" stroke="black" stroke-width="1" />
<rect x="142" y="105" width="48" height="5" style="fill:#5d3c2d;stroke:black;stroke-width:1;fill-opacity:1;stroke-opacity:0.3" />
<rect x="200" y="105" width="8" height="5" style="fill:#5d3c2d;stroke:black;stroke-width:1;fill-opacity:1;stroke-opacity:0.3" />
<line x1="209" y1="107" x2="315" y2="107" stroke="pink" stroke-width="1" />
<rect x="315" y="105" width="40" height="5" style="fill:#5d3c2d;stroke:black;stroke-width:1;fill-opacity:1;stroke-opacity:0.3" />
<line x1="192" y1="114" x2="255" y2="116" stroke="black" stroke-width="1" />
<line x1="255" y1="116" x2="319" y2="114" stroke="black" stroke-width="1" />
<rect x="143" y="112" width="48" height="5" style="fill:#5d3c2d;stroke:black;stroke-width:1;fill-opacity:1;stroke-opacity:0.3" />
<rect x="319" y="112" width="40" height="5" style="fill:#5d3c2d;stroke:black;stroke-width:1;fill-opacity:1;stroke-opacity:0.3" />
<line x1="360" y1="114" x2="510" y2="114" stroke="pink" stroke-width="1" />
<rect x="510" y="112" width="7" height="5" style="fill:#5d3c2d;stroke:black;stroke-width:1;fill-opacity:1;stroke-opacity:0.3" />
<line x1="191" y1="121" x2="260" y2="123" stroke="black" stroke-width="1" />
<line x1="260" y1="123" x2="329" y2="121" stroke="black" stroke-width="1" />
<rect x="143" y="119" width="48" height="5" style="fill:#5d3c2d;stroke:black;stroke-width:1;fill-opacity:1;stroke-opacity:0.3" />
<rect x="329" y="119" width="31" height="5" style="fill:#5d3c2d;stroke:black;stroke-width:1;fill-opacity:1;stroke-opacity:0.3" />
<line x1="360" y1="121" x2="510" y2="121" stroke="pink" stroke-width="1" />
<rect x="510" y="119" width="16" height="5" style="fill:#5d3c2d;stroke:black;stroke-width:1;fill-opacity:1;stroke-opacity:0.3" />
<line x1="192" y1="135" x2="354" y2="137" stroke="black" stroke-width="1" />
<line x1="354" y1="137" x2="516" y2="135" stroke="black" stroke-width="1" />
<rect x="143" y="133" width="48" height="5" style="fill:#5d3c2d;stroke:black;stroke-width:1;fill-opacity:1;stroke-opacity:0.3" />
<rect x="516" y="133" width="48" height="5" style="fill:#5d3c2d;stroke:black;stroke-width:1;fill-opacity:1;stroke-opacity:0.3" />
<line x1="192" y1="149" x2="254" y2="151" stroke="black" stroke-width="1" />
<line x1="254" y1="151" x2="316" y2="149" stroke="black" stroke-width="1" />
<rect x="143" y="147" width="48" height="5" style="fill:#5d3c2d;stroke:black;stroke-width:1;fill-opacity:1;stroke-opacity:0.3" />
<rect x="316" y="147" width="44" height="5" style="fill:#5d3c2d;stroke:black;stroke-width:1;fill-opacity:1;stroke-opacity:0.3" />
<line x1="360" y1="149" x2="510" y2="149" stroke="pink" stroke-width="1" />
<rect x="510" y="147" width="4" height="5" style="fill:#5d3c2d;stroke:black;stroke-width:1;fill-opacity:1;stroke-opacity:0.3" />
<line x1="192" y1="156" x2="255" y2="158" stroke="black" stroke-width="1" />
<line x1="255" y1="158" x2="319" y2="156" stroke="black" stroke-width="1" />
<rect x="143" y="154" width="48" height="5" style="fill:#5d3c2d;stroke:black;stroke-width:1;fill-opacity:1;stroke-opacity:0.3" />
<rect x="319" y="154" width="40" height="5" style="fill:#5d3c2d;stroke:black;stroke-width:1;fill-opacity:1;stroke-opacity:0.3" />
<line x1="360" y1="156" x2="510" y2="156" stroke="pink" stroke-width="1" />
<rect x="510" y="154" width="7" height="5" style="fill:#5d3c2d;stroke:black;stroke-width:1;fill-opacity:1;stroke-opacity:0.3" />
<line x1="192" y1="163" x2="197" y2="165" stroke="black" stroke-width="1" />
<line x1="197" y1="165" x2="203" y2="163" stroke="black" stroke-width="1" />
<rect x="143" y="161" width="48" height="5" style="fill:#5d3c2d;stroke:black;stroke-width:1;fill-opacity:1;stroke-opacity:0.3" />
<rect x="203" y="161" width="5" height="5" style="fill:#5d3c2d;stroke:black;stroke-width:1;fill-opacity:1;stroke-opacity:0.3" />
<line x1="209" y1="163" x2="315" y2="163" stroke="pink" stroke-width="1" />
<rect x="315" y="161" width="42" height="5" style="fill:#5d3c2d;stroke:black;stroke-width:1;fill-opacity:1;stroke-opacity:0.3" />
<line x1="196" y1="128" x2="263" y2="130" stroke="black" stroke-width="1" />
<line x1="263" y1="130" x2="330" y2="128" stroke="black" stroke-width="1" />
<rect x="147" y="126" width="48" height="5" style="fill:#5d3c2d;stroke:black;stroke-width:1;fill-opacity:1;stroke-opacity:0.3" />
<rect x="330" y="126" width="30" height="5" style="fill:#5d3c2d;stroke:black;stroke-width:1;fill-opacity:1;stroke-opacity:0.3" />
<line x1="360" y1="128" x2="510" y2="128" stroke="pink" stroke-width="1" />
<rect x="510" y="126" width="18" height="5" style="fill:#5d3c2d;stroke:black;stroke-width:1;fill-opacity:1;stroke-opacity:0.3" />
<line x1="353" y1="142" x2="433" y2="144" stroke="black" stroke-width="1" />
<line x1="433" y1="144" x2="514" y2="142" stroke="black" stroke-width="1" />
<rect x="198" y="140" width="10" height="5" style="fill:#5d3c2d;stroke:black;stroke-width:1;fill-opacity:1;stroke-opacity:0.3" />
<line x1="209" y1="142" x2="315" y2="142" stroke="pink" stroke-width="1" />
<rect x="315" y="140" width="37" height="5" style="fill:#5d3c2d;stroke:black;stroke-width:1;fill-opacity:1;stroke-opacity:0.3" />
<rect x="514" y="140" width="48" height="5" style="fill:#5d3c2d;stroke:black;stroke-width:1;fill-opacity:1;stroke-opacity:0.3" />
<line x1="529" y1="51" x2="549" y2="53" stroke="black" stroke-width="1" />
<line x1="549" y1="53" x2="570" y2="51" stroke="black" stroke-width="1" />
<rect x="331" y="49" width="29" height="5" style="fill:#5d3c2d;stroke:black;stroke-width:1;fill-opacity:1;stroke-opacity:0.3" />
<line x1="360" y1="51" x2="510" y2="51" stroke="pink" stroke-width="1" />
<rect x="510" y="49" width="19" height="5" style="fill:#5d3c2d;stroke:black;stroke-width:1;fill-opacity:1;stroke-opacity:0.3" />
<rect x="570" y="49" width="32" height="5" style="fill:#5d3c2d;stroke:black;stroke-width:1;fill-opacity:1;stroke-opacity:0.3" />
<line x1="602" y1="51" x2="786" y2="51" stroke="pink" stroke-width="1" />
<rect x="786" y="49" width="16" height="5" style="fill:#5d3c2d;stroke:black;stroke-width:1;fill-opacity:1;stroke-opacity:0.3" />
<line x1="546" y1="58" x2="553" y2="60" stroke="black" stroke-width="1" />
<line x1="553" y1="60" x2="561" y2="58" stroke="black" stroke-width="1" />
<rect x="347" y="56" width="12" height="5" style="fill:#5d3c2d;stroke:black;stroke-width:1;fill-opacity:1;stroke-opacity:0.3" />
<line x1="360" y1="58" x2="510" y2="58" stroke="pink" stroke-width="1" />
<rect x="510" y="56" width="35" height="5" style="fill:#5d3c2d;stroke:black;stroke-width:1;fill-opacity:1;stroke-opacity:0.3" />
<rect x="561" y="56" width="40" height="5" style="fill:#5d3c2d;stroke:black;stroke-width:1;fill-opacity:1;stroke-opacity:0.3" />
<line x1="602" y1="58" x2="786" y2="58" stroke="pink" stroke-width="1" />
<rect x="786" y="56" width="7" height="5" style="fill:#5d3c2d;stroke:black;stroke-width:1;fill-opacity:1;stroke-opacity:0.3" />
<line x1="547" y1="65" x2="552" y2="67" stroke="black" stroke-width="1" />
<line x1="552" y1="67" x2="557" y2="65" stroke="black" stroke-width="1" />
<rect x="348" y="63" width="11" height="5" style="fill:#5d3c2d;stroke:black;stroke-width:1;fill-opacity:1;stroke-opacity:0.3" />
<line x1="360" y1="65" x2="510" y2="65" stroke="pink" stroke-width="1" />
<rect x="510" y="63" width="36" height="5" style="fill:#5d3c2d;stroke:black;stroke-width:1;fill-opacity:1;stroke-opacity:0.3" />
<rect x="557" y="63" width="46" height="5" style="fill:#5d3c2d;stroke:black;stroke-width:1;fill-opacity:1;stroke-opacity:0.3" />
<line x1="548" y1="30" x2="560" y2="32" stroke="black" stroke-width="1" />
<line x1="560" y1="32" x2="572" y2="30" stroke="black" stroke-width="1" />
<rect x="350" y="28" width="10" height="5" style="fill:#5d3c2d;stroke:black;stroke-width:1;fill-opacity:1;stroke-opacity:0.3" />
<line x1="360" y1="30" x2="510" y2="30" stroke="pink" stroke-width="1" />
<rect x="510" y="28" width="38" height="5" style="fill:#5d3c2d;stroke:black;stroke-width:1;fill-opacity:1;stroke-opacity:0.3" />
<rect x="572" y="28" width="30" height="5" style="fill:#5d3c2d;stroke:black;stroke-width:1;fill-opacity:1;stroke-opacity:0.3" />
<line x1="602" y1="30" x2="786" y2="30" stroke="pink" stroke-width="1" />
<rect x="786" y="28" width="18" height="5" style="fill:#5d3c2d;stroke:black;stroke-width:1;fill-opacity:1;stroke-opacity:0.3" />
<line x1="537" y1="37" x2="540" y2="39" stroke="black" stroke-width="1" />
<line x1="540" y1="39" x2="544" y2="37" stroke="black" stroke-width="1" />
<rect x="350" y="35" width="21" height="5" style="fill:#f5b024;stroke:black;stroke-width:1;fill-opacity:1;stroke-opacity:0.3" />
<line x1="372" y1="37" x2="510" y2="37" stroke="pink" stroke-width="1" />
<rect x="510" y="35" width="26" height="5" style="fill:#f5b024;stroke:black;stroke-width:1;fill-opacity:1;stroke-opacity:0.3" />
<rect x="544" y="35" width="48" height="5" style="fill:#f5b024;stroke:black;stroke-width:1;fill-opacity:1;stroke-opacity:0.3" />
<line x1="548" y1="72" x2="560" y2="74" stroke="black" stroke-width="1" />
<line x1="560" y1="74" x2="572" y2="72" stroke="black" stroke-width="1" />
<rect x="350" y="70" width="10" height="5" style="fill:#5d3c2d;stroke:black;stroke-width:1;fill-opacity:1;stroke-opacity:0.3" />
<line x1="360" y1="72" x2="510" y2="72" stroke="pink" stroke-width="1" />
<rect x="510" y="70" width="38" height="5" style="fill:#5d3c2d;stroke:black;stroke-width:1;fill-opacity:1;stroke-opacity:0.3" />
<rect x="572" y="70" width="30" height="5" style="fill:#5d3c2d;stroke:black;stroke-width:1;fill-opacity:1;stroke-opacity:0.3" />
<line x1="602" y1="72" x2="786" y2="72" stroke="pink" stroke-width="1" />
<rect x="786" y="70" width="18" height="5" style="fill:#5d3c2d;stroke:black;stroke-width:1;fill-opacity:1;stroke-opacity:0.3" />
<line x1="548" y1="79" x2="554" y2="81" stroke="black" stroke-width="1" />
<line x1="554" y1="81" x2="560" y2="79" stroke="black" stroke-width="1" />
<rect x="350" y="77" width="10" height="5" style="fill:#5d3c2d;stroke:black;stroke-width:1;fill-opacity:1;stroke-opacity:0.3" />
<line x1="360" y1="79" x2="510" y2="79" stroke="pink" stroke-width="1" />
<rect x="510" y="77" width="38" height="5" style="fill:#5d3c2d;stroke:black;stroke-width:1;fill-opacity:1;stroke-opacity:0.3" />
<rect x="560" y="77" width="42" height="5" style="fill:#5d3c2d;stroke:black;stroke-width:1;fill-opacity:1;stroke-opacity:0.3" />
<line x1="602" y1="79" x2="786" y2="79" stroke="pink" stroke-width="1" />
<rect x="786" y="77" width="6" height="5" style="fill:#5d3c2d;stroke:black;stroke-width:1;fill-opacity:1;stroke-opacity:0.3" />
<line x1="549" y1="44" x2="553" y2="46" stroke="black" stroke-width="1" />
<line x1="553" y1="46" x2="557" y2="44" stroke="black" stroke-width="1" />
<rect x="351" y="42" width="9" height="5" style="fill:#5d3c2d;stroke:black;stroke-width:1;fill-opacity:1;stroke-opacity:0.3" />
<line x1="360" y1="44" x2="510" y2="44" stroke="pink" stroke-width="1" />
<rect x="510" y="42" width="39" height="5" style="fill:#5d3c2d;stroke:black;stroke-width:1;fill-opacity:1;stroke-opacity:0.3" />
<rect x="557" y="42" width="45" height="5" style="fill:#5d3c2d;stroke:black;stroke-width:1;fill-opacity:1;stroke-opacity:0.3" />
<line x1="602" y1="44" x2="786" y2="44" stroke="pink" stroke-width="1" />
<rect x="786" y="42" width="2" height="5" style="fill:#5d3c2d;stroke:black;stroke-width:1;fill-opacity:1;stroke-opacity:0.3" />
<line x1="554" y1="86" x2="557" y2="88" stroke="black" stroke-width="1" />
<line x1="557" y1="88" x2="561" y2="86" stroke="black" stroke-width="1" />
<rect x="355" y="84" width="4" height="5" style="fill:#f5b024;stroke:black;stroke-width:1;fill-opacity:1;stroke-opacity:0.3" />
<line x1="360" y1="86" x2="510" y2="86" stroke="pink" stroke-width="1" />
<rect x="510" y="84" width="43" height="5" style="fill:#f5b024;stroke:black;stroke-width:1;fill-opacity:1;stroke-opacity:0.3" />
<rect x="561" y="84" width="41" height="5" style="fill:#f5b024;stroke:black;stroke-width:1;fill-opacity:1;stroke-opacity:0.3" />
<line x1="602" y1="86" x2="786" y2="86" stroke="pink" stroke-width="1" />
<rect x="786" y="84" width="6" height="5" style="fill:#f5b024;stroke:black;stroke-width:1;fill-opacity:1;stroke-opacity:0.3" />
<line x1="556" y1="107" x2="564" y2="109" stroke="black" stroke-width="1" />
<line x1="564" y1="109" x2="573" y2="107" stroke="black" stroke-width="1" />
<rect x="357" y="105" width="2" height="5" style="fill:#5d3c2d;stroke:black;stroke-width:1;fill-opacity:1;stroke-opacity:0.3" />
<line x1="360" y1="107" x2="510" y2="107" stroke="pink" stroke-width="1" />
<rect x="510" y="105" width="45" height="5" style="fill:#5d3c2d;stroke:black;stroke-width:1;fill-opacity:1;stroke-opacity:0.3" />
<rect x="573" y="105" width="29" height="5" style="fill:#5d3c2d;stroke:black;stroke-width:1;fill-opacity:1;stroke-opacity:0.3" />
<line x1="602" y1="107" x2="786" y2="107" stroke="pink" stroke-width="1" />
<rect x="786" y="105" width="17" height="5" style="fill:#5d3c2d;stroke:black;stroke-width:1;fill-opacity:1;stroke-opacity:0.3" />
<line x1="556" y1="163" x2="564" y2="165" stroke="black" stroke-width="1" />
<line x1="564" y1="165" x2="572" y2="163" stroke="black" stroke-width="1" />
<rect x="358" y="161" width="2" height="5" style="fill:#5d3c2d;stroke:black;stroke-width:1;fill-opacity:1;stroke-opacity:0.3" />
<line x1="360" y1="163" x2="510" y2="163" stroke="pink" stroke-width="1" />
<rect x="510" y="161" width="46" height="5" style="fill:#5d3c2d;stroke:black;stroke-width:1;fill-opacity:1;stroke-opacity:0.3" />
<rect x="572" y="161" width="30" height="5" style="fill:#5d3c2d;stroke:black;stroke-width:1;fill-opacity:1;stroke-opacity:0.3" />
<line x1="602" y1="163" x2="786" y2="163" stroke="pink" stroke-width="1" />
<rect x="786" y="161" width="17" height="5" style="fill:#5d3c2d;stroke:black;stroke-width:1;fill-opacity:1;stroke-opacity:0.3" />
<line x1="558" y1="93" x2="565" y2="95" stroke="black" stroke-width="1" />
<line x1="565" y1="95" x2="573" y2="93" stroke="black" stroke-width="1" />
<rect x="510" y="91" width="48" height="5" style="fill:#5d3c2d;stroke:black;stroke-width:1;fill-opacity:1;stroke-opacity:0.3" />
<rect x="573" y="91" width="28" height="5" style="fill:#5d3c2d;stroke:black;stroke-width:1;fill-opacity:1;stroke-opacity:0.3" />
<line x1="602" y1="93" x2="786" y2="93" stroke="pink" stroke-width="1" />
<rect x="786" y="91" width="19" height="5" style="fill:#5d3c2d;stroke:black;stroke-width:1;fill-opacity:1;stroke-opacity:0.3" />
<line x1="562" y1="149" x2="574" y2="151" stroke="black" stroke-width="1" />
<line x1="574" y1="151" x2="587" y2="149" stroke="black" stroke-width="1" />
<rect x="514" y="147" width="48" height="5" style="fill:#5d3c2d;stroke:black;stroke-width:1;fill-opacity:1;stroke-opacity:0.3" />
<rect x="587" y="147" width="15" height="5" style="fill:#5d3c2d;stroke:black;stroke-width:1;fill-opacity:1;stroke-opacity:0.3" />
<line x1="602" y1="149" x2="786" y2="149" stroke="pink" stroke-width="1" />
<rect x="786" y="147" width="33" height="5" style="fill:#5d3c2d;stroke:black;stroke-width:1;fill-opacity:1;stroke-opacity:0.3" />
<line x1="566" y1="114" x2="570" y2="116" stroke="black" stroke-width="1" />
<line x1="570" y1="116" x2="574" y2="114" stroke="black" stroke-width="1" />
<rect x="518" y="112" width="48" height="5" style="fill:#f5b024;stroke:black;stroke-width:1;fill-opacity:1;stroke-opacity:0.3" />
<rect x="574" y="112" width="27" height="5" style="fill:#f5b024;stroke:black;stroke-width:1;fill-opacity:1;stroke-opacity:0.3" />
<line x1="602" y1="114" x2="786" y2="114" stroke="pink" stroke-width="1" />
<rect x="786" y="112" width="20" height="5" style="fill:#f5b024;stroke:black;stroke-width:1;fill-opacity:1;stroke-opacity:0.3" />
<line x1="567" y1="156" x2="577" y2="158" stroke="black" stroke-width="1" />
<line x1="577" y1="158" x2="588" y2="156" stroke="black" stroke-width="1" />
<rect x="519" y="154" width="48" height="5" style="fill:#5d3c2d;stroke:black;stroke-width:1;fill-opacity:1;stroke-opacity:0.3" />
<rect x="588" y="154" width="14" height="5" style="fill:#5d3c2d;stroke:black;stroke-width:1;fill-opacity:1;stroke-opacity:0.3" />
<line x1="602" y1="156" x2="786" y2="156" stroke="pink" stroke-width="1" />
<rect x="786" y="154" width="33" height="5" style="fill:#5d3c2d;stroke:black;stroke-width:1;fill-opacity:1;stroke-opacity:0.3" />
<line x1="575" y1="121" x2="580" y2="123" stroke="black" stroke-width="1" />
<line x1="580" y1="123" x2="586" y2="121" stroke="black" stroke-width="1" />
<rect x="526" y="119" width="48" height="5" style="fill:#5d3c2d;stroke:black;stroke-width:1;fill-opacity:1;stroke-opacity:0.3" />
<rect x="586" y="119" width="16" height="5" style="fill:#5d3c2d;stroke:black;stroke-width:1;fill-opacity:1;stroke-opacity:0.3" />
<line x1="602" y1="121" x2="786" y2="121" stroke="pink" stroke-width="1" />
<rect x="786" y="119" width="32" height="5" style="fill:#5d3c2d;stroke:black;stroke-width:1;fill-opacity:1;stroke-opacity:0.3" />
<line x1="577" y1="100" x2="582" y2="102" stroke="black" stroke-width="1" />
<line x1="582" y1="102" x2="588" y2="100" stroke="black" stroke-width="1" />
<rect x="528" y="98" width="48" height="5" style="fill:#5d3c2d;stroke:black;stroke-width:1;fill-opacity:1;stroke-opacity:0.3" />
<rect x="588" y="98" width="14" height="5" style="fill:#5d3c2d;stroke:black;stroke-width:1;fill-opacity:1;stroke-opacity:0.3" />
<line x1="602" y1="100" x2="786" y2="100" stroke="pink" stroke-width="1" />
<rect x="786" y="98" width="34" height="5" style="fill:#5d3c2d;stroke:black;stroke-width:1;fill-opacity:1;stroke-opacity:0.3" />
<line x1="578" y1="128" x2="583" y2="130" stroke="black" stroke-width="1" />
<line x1="583" y1="130" x2="588" y2="128" stroke="black" stroke-width="1" />
<rect x="529" y="126" width="48" height="5" style="fill:#f5b024;stroke:black;stroke-width:1;fill-opacity:1;stroke-opacity:0.3" />
<rect x="588" y="126" width="14" height="5" style="fill:#f5b024;stroke:black;stroke-width:1;fill-opacity:1;stroke-opacity:0.3" />
<line x1="602" y1="128" x2="786" y2="128" stroke="pink" stroke-width="1" />
<rect x="786" y="126" width="34" height="5" style="fill:#f5b024;stroke:black;stroke-width:1;fill-opacity:1;stroke-opacity:0.3" />
<text x="15"  y="176" style="font-family:Arial;font-size:10;stroke:black;fill:black;">all.merged.bam</text>
</svg>
    
